<svg width="312" height="480" fill="none" xmlns="http://www.w3.org/2000/svg"><path fill="#F1F5FD" d="M0 0h312v480H0z"/><path d="M99.227 425.119h117.576l71.391 28.022-260.312-1.584 71.345-26.438z" fill="#fff" fill-opacity=".4"/><path d="M143.738 279.77c.327-5.235 3.435-9.707 8.016-11.452 4.036-1.581 7.253-1.2 10.689 3.272 5.344 9.053 22.031 62.276 21.704 62.549 0 0-31.302-1.69-44.554 8.562l4.145-62.931z" fill="#E53617"/><path d="M152.19 265.046a6.817 6.817 0 100-13.634 6.817 6.817 0 000 13.634zm2.545 7.71c2.366-.455 4.077-1.902 3.822-3.233-.256-1.331-2.381-2.042-4.748-1.587-2.366.454-4.077 1.902-3.821 3.233.255 1.331 2.381 2.041 4.747 1.587z" fill="#EAB575"/><path d="M162.401 341.727c12.305-2.363 21.985-5.813 21.621-7.706-.363-1.894-10.633-1.513-22.938.85-12.304 2.363-21.984 5.813-21.621 7.707.364 1.893 10.633 1.512 22.938-.851z" fill="#000"/><path d="M172.258 336.647l-6.925 44.499a33.182 33.182 0 01-8.126 16.633l-24.594 27.375-7.471-1.472 21.759-39.428 2.454-46.57c-.055.054 9.761-4.254 22.903-1.037z" fill="#CAAA09"/><path d="M159.062 430.225l-24.158-11.997-7.199 6.435-1.145-3.872-3.981 10.198 33.865 3.872c-.055.054 1.363-3.381 2.618-4.636z" fill="#E53617"/><path d="M122.47 431.044l-4.253 4.58 47.825 2.891a2 2 0 002.017-1.418l.273-1.036s1.691-1.854-4.199-5.672c-5.835-3.817-7.798 4.526-7.798 4.526l-33.865-3.871z" fill="#fff" stroke="#231F20" stroke-miterlimit="10"/><path d="M156.499 436.279c-2.782-.11-5.508-.328-8.289-.546-2.782-.163-5.508-.491-8.289-.709-2.781-.272-5.508-.545-8.289-.818l-4.145-.491a106.8 106.8 0 01-4.144-.545c1.418.055 2.781.164 4.199.218l4.199.273c2.781.218 5.508.491 8.289.709 2.781.273 5.508.545 8.289.818 2.672.382 5.453.654 8.18 1.091z" fill="#231F20"/><path d="M156.444 430.553a111.808 111.808 0 01-5.835-2.618c-1.963-.872-3.872-1.799-5.781-2.726-1.908-.928-3.817-1.855-5.726-2.836l-2.835-1.473c-.927-.545-1.909-.981-2.836-1.526.982.381 1.963.872 2.945 1.254l2.89 1.309c1.963.872 3.872 1.799 5.78 2.726 1.909.927 3.818 1.854 5.726 2.836 1.909 1.036 3.818 2.018 5.672 3.054z" fill="#fff"/><path d="M150.227 429.898l.382.219c.6.327 1.309.109 1.69-.491l1.2-2.182c.327-.599.109-1.308-.491-1.69l-.381-.218c-.6-.327-1.309-.109-1.691.491l-1.2 2.181c-.327.545-.109 1.309.491 1.69z" fill="#fff"/><path d="M150.227 429.898c.218.109.491.273.764.327.272.055.599 0 .818-.163.218-.164.381-.327.49-.655l.328-.763.327-.763.163-.382.109-.164c0-.054.055-.109.055-.163.109-.491-.055-.927-.491-1.091l-.327-.218c-.109-.055-.164-.109-.273-.109a.89.89 0 00-.654.109c-.218.109-.327.218-.545.545l-.491.709c-.273.491-.655.927-.873 1.472-.109.219-.109.6 0 .818.164.055.382.273.6.491zm0 0c-.545-.272-.763-.927-.6-1.472.218-.545.491-1.036.709-1.582l.327-.763c.109-.218.273-.6.6-.763.273-.164.655-.273.982-.219.163 0 .327.109.491.164l.327.164c.272.163.545.49.709.818.109.327.109.708 0 1.036a.42.42 0 01-.109.218l-.109.163-.219.328-.49.709-.491.708c-.109.219-.327.546-.654.655-.219.109-.6.163-.873.109-.054 0-.327-.164-.6-.273z" fill="#000"/><path d="M146.464 427.772l.382.218c.6.327 1.309.109 1.69-.491l1.2-2.181c.327-.6.109-1.309-.491-1.691l-.381-.218c-.6-.327-1.309-.109-1.691.491l-1.2 2.181c-.272.655-.109 1.363.491 1.691z" fill="#fff"/><path d="M146.464 427.772c.218.109.491.272.764.327.272.054.6 0 .818-.164.218-.163.381-.327.491-.654l.327-.764.327-.763.164-.382.109-.163c0-.055.054-.11.054-.164.109-.491-.054-.927-.491-1.091l-.327-.218c-.109-.054-.163-.109-.273-.109a.895.895 0 00-.654.109c-.218.109-.327.218-.545.545l-.491.709c-.273.491-.654.927-.873 1.473-.109.218-.109.6 0 .818.164.163.382.381.6.491zm0 0c-.545-.273-.763-.928-.6-1.473.219-.545.491-1.036.709-1.581l.328-.764c.109-.218.272-.6.599-.763.273-.164.655-.273.982-.218.164 0 .327.109.491.163l.327.164c.273.163.545.491.709.818.109.327.109.709 0 1.036a.413.413 0 01-.109.218l-.109.164-.218.327-.491.709-.491.709c-.109.218-.327.545-.654.654-.218.109-.6.164-.873.109-.109.055-.327-.163-.6-.272z" fill="#000"/><path d="M142.32 426.026l.382.218c.6.328 1.309.109 1.69-.49l1.2-2.182c.327-.6.109-1.308-.491-1.69l-.381-.218c-.6-.327-1.309-.109-1.691.49l-1.2 2.182c-.327.6-.054 1.363.491 1.69z" fill="#fff"/><path d="M142.32 426.026c.218.109.491.273.764.328.272.054.599 0 .818-.164.218-.164.381-.327.49-.654l.328-.764.327-.763.163-.382.109-.164c0-.054.055-.109.055-.163.109-.491-.055-.927-.491-1.091l-.327-.218c-.109-.055-.164-.109-.273-.109a.89.89 0 00-.654.109c-.218.109-.327.218-.545.545l-.491.709c-.273.491-.655.927-.873 1.473-.109.218-.109.599 0 .818.218.109.382.327.6.49zm0 0c-.545-.272-.763-.927-.6-1.472.218-.545.491-1.036.709-1.581l.327-.764c.109-.218.273-.6.6-.763.273-.164.655-.273.982-.218.163 0 .327.109.491.163l.327.164c.272.163.545.491.709.818.109.327.109.709 0 1.036a.42.42 0 01-.109.218l-.109.164-.219.327-.49.709-.491.709c-.109.218-.327.545-.655.654a1.549 1.549 0 01-.872.109c-.055.055-.273-.109-.6-.273z" fill="#000"/><path d="M138.23 423.736l.382.218c.6.328 1.308.109 1.69-.49l1.2-2.182c.327-.6.109-1.308-.491-1.69l-.382-.218c-.599-.328-1.308-.109-1.69.49l-1.2 2.182c-.327.654-.109 1.418.491 1.69z" fill="#fff"/><path d="M138.23 423.736c.218.109.491.273.763.327.273.055.6 0 .818-.163.219-.164.382-.327.491-.655l.327-.763.328-.764.163-.381.109-.164c0-.054.055-.109.055-.163.109-.491-.055-.928-.491-1.091l-.327-.218c-.109-.055-.164-.109-.273-.109a.89.89 0 00-.654.109c-.218.109-.327.218-.546.545l-.49.709c-.273.491-.655.927-.873 1.472-.109.219-.109.6 0 .818.164.109.327.382.6.491zm0 0c-.545-.273-.763-.927-.6-1.472.218-.546.491-1.036.709-1.582l.327-.763c.109-.218.273-.6.6-.764.273-.163.654-.272.982-.218.163 0 .327.109.49.164l.328.163c.272.164.545.491.709.818.109.328.109.709 0 1.037a.42.42 0 01-.109.218l-.11.163-.218.328-.49.708-.491.709c-.109.218-.327.546-.655.655-.218.109-.599.163-.872.109-.109.054-.327-.109-.6-.273zm18.159 11.179c.219.546.273.982.328 1.527 0 .546-.055.982-.218 1.527-.219-.545-.273-.981-.328-1.527-.054-.545-.054-.981.218-1.527z" fill="#000"/><path d="M167.296 436.006c-1.581.109-3.108.054-4.744-.055-1.582-.109-3.109-.272-4.69-.654 1.581-.109 3.108-.055 4.744.055 1.582.163 3.163.327 4.69.654z" fill="#231F20"/><path d="M175.748 332.83l3.872 44.335c.273 3.599-.327 7.198-1.908 10.47l-18.432 37.682-7.58.546 10.633-44.881-9.597-44.116c0 .054 5.126-2.291 23.012-4.036z" fill="#F0CB0C"/><path d="M198.979 432.352l-34.737-15.542-10.961 6.98-2.617-.872-3.109 12.597 47.989 3.599c-.055 0 1.799-4.799 3.435-6.762z" fill="#E53617"/><path d="M147.501 435.569l-5.726 6.708 67.511 1.418c1.254 0 2.454-.873 2.727-2.072l.327-1.473s2.29-2.726-6.217-7.798c-8.452-5.071-10.743 6.817-10.743 6.817l-47.879-3.6z" fill="#fff" stroke="#231F20" stroke-miterlimit="10"/><path d="M195.707 441.023c-3.871-.055-7.852-.218-11.724-.327-3.872-.164-7.853-.327-11.725-.546l-11.724-.654-5.835-.327a207.685 207.685 0 00-5.835-.382l5.835.164 5.835.218 11.724.545c3.872.218 7.799.382 11.725.655 3.926.054 7.853.327 11.724.654z" fill="#231F20"/><path d="M195.326 433.006c-2.781-1.09-5.563-2.29-8.344-3.435-2.781-1.145-5.508-2.4-8.289-3.545-2.726-1.199-5.508-2.454-8.234-3.653l-4.145-1.854c-1.308-.655-2.726-1.255-4.035-1.909 1.418.545 2.781 1.091 4.199 1.69l4.199 1.745c2.781 1.146 5.508 2.4 8.289 3.545 2.727 1.2 5.508 2.454 8.234 3.654a352.571 352.571 0 018.126 3.762z" fill="#000"/><path d="M186.273 432.188l1.091.6c.709.327 1.581.054 1.854-.655l1.854-3.762c.327-.709.055-1.582-.654-1.854l-1.091-.6c-.709-.328-1.581-.055-1.854.654l-1.854 3.763c-.327.709-.055 1.527.654 1.854z" fill="#fff"/><path d="M186.273 432.189l1.091.545c.327.163.818.163 1.145 0 .382-.164.655-.545.764-.873l.545-1.09.982-2.291a.92.92 0 00.163-.545c.055-.164 0-.327 0-.545-.054-.328-.272-.6-.6-.764l-1.09-.6c-.273-.163-.655-.163-.982-.054-.163.054-.273.163-.382.272-.109.11-.218.273-.272.491l-.6 1.091-1.2 2.127c-.218.327-.327.763-.218 1.145 0 .6.273.927.654 1.091zm0 0a1.625 1.625 0 01-.763-.928c-.109-.381 0-.872.218-1.199l.982-2.291.545-1.09c.055-.164.164-.382.327-.6.164-.164.327-.327.6-.382.491-.163.982-.163 1.418.055l1.091.545c.49.218.763.654.872 1.145.055.218.055.491 0 .764-.054.218-.163.49-.273.654l-1.199 2.127-.6 1.09c-.164.328-.491.764-.873.873-.381.164-.872.109-1.199-.055l-1.146-.708z" fill="#000"/><path d="M180.875 429.516l1.09.6c.709.327 1.582.054 1.854-.655l1.854-3.762c.328-.709.055-1.582-.654-1.855l-1.091-.599c-.709-.328-1.581-.055-1.854.654l-1.854 3.763c-.327.654-.054 1.527.655 1.854z" fill="#fff"/><path d="M180.875 429.516l1.09.546c.328.163.818.163 1.146 0 .381-.164.654-.546.763-.873l.545-1.09.982-2.291a.92.92 0 00.164-.545c.054-.164 0-.327 0-.545-.055-.328-.273-.6-.6-.764l-1.091-.6c-.273-.163-.654-.163-.982-.054-.163.054-.272.163-.381.272a1.06 1.06 0 00-.273.491l-.6 1.091-1.2 2.127c-.218.327-.327.763-.218 1.145 0 .545.218.872.655 1.09zm0 0a1.621 1.621 0 01-.764-.927c-.109-.381 0-.872.218-1.199l.982-2.291.545-1.09c.055-.164.164-.382.328-.6.163-.164.327-.327.599-.382.491-.164.982-.164 1.418.055l1.091.545c.491.218.763.654.872 1.145.055.218.055.491 0 .764a2.35 2.35 0 01-.272.654l-1.2 2.127-.6 1.09c-.163.328-.491.764-.872.873-.382.163-.873.109-1.2-.055l-1.145-.709z" fill="#000"/><path d="M174.93 427.28l1.091.6c.709.327 1.581.054 1.854-.655l1.854-3.762c.327-.709.055-1.582-.654-1.854l-1.091-.6c-.709-.327-1.581-.055-1.854.654l-1.854 3.763c-.327.6-.055 1.472.654 1.854z" fill="#fff"/><path d="M174.93 427.281l1.091.545c.327.163.818.163 1.145 0 .382-.164.655-.545.764-.873l.545-1.09.982-2.291a.92.92 0 00.163-.545c.055-.164 0-.327 0-.545-.054-.328-.272-.6-.6-.764l-1.09-.6c-.273-.163-.655-.163-.982-.054-.163.054-.272.163-.382.273a1.047 1.047 0 00-.272.49l-.6 1.091-1.2 2.127c-.218.327-.327.763-.218 1.145.055.491.273.927.654 1.091zm0 0a1.626 1.626 0 01-.763-.927c-.109-.382 0-.873.218-1.2l.982-2.291.545-1.09c.055-.164.164-.382.327-.6.164-.164.327-.327.6-.382.491-.163.982-.163 1.418.055l1.091.545c.49.218.763.654.872 1.145.055.218.055.491 0 .764-.054.218-.163.49-.273.654l-1.199 2.127-.6 1.09c-.164.328-.491.764-.873.873-.381.164-.872.109-1.199-.055l-1.146-.708z" fill="#000"/><path d="M169.041 424.281l1.091.6c.708.327 1.581.054 1.854-.655l1.854-3.763c.327-.709.054-1.581-.655-1.854l-1.09-.6c-.709-.327-1.582-.054-1.854.655l-1.854 3.763a1.39 1.39 0 00.654 1.854z" fill="#fff"/><path d="M169.041 424.281l1.091.546c.327.163.818.163 1.145 0 .382-.164.654-.546.763-.873l.546-1.091.981-2.29a.922.922 0 00.164-.545c.054-.164 0-.327 0-.546-.055-.327-.273-.599-.6-.763l-1.091-.6c-.272-.163-.654-.163-.981-.054-.164.054-.273.163-.382.272a1.06 1.06 0 00-.273.491l-.6 1.091-1.199 2.126c-.218.328-.327.764-.218 1.146 0 .545.218.872.654 1.09zm0 0a1.62 1.62 0 01-.763-.927c-.11-.381 0-.872.218-1.199l.981-2.291.546-1.091c.054-.163.163-.381.327-.599.163-.164.327-.328.6-.382.49-.164.981-.164 1.417.054l1.091.546c.491.218.764.654.873 1.145.054.218.054.491 0 .763a2.375 2.375 0 01-.273.655l-1.2 2.127-.6 1.09c-.163.327-.49.764-.872.873-.382.163-.873.109-1.2-.055l-1.145-.709zm26.448 14.833c.273.709.327 1.418.382 2.073.054.708 0 1.417-.164 2.126-.272-.709-.327-1.418-.381-2.072-.055-.709 0-1.363.163-2.127z" fill="#000"/><path d="M210.922 440.096a67.72 67.72 0 01-6.653 0c-2.181-.109-4.417-.218-6.598-.6a67.72 67.72 0 016.653 0c2.181.109 4.417.273 6.598.6z" fill="#231F20"/><path d="M177.057 437.424l3.054-7.144-6.271-2.29-4.527 8.779 7.744.655z" stroke="#000" stroke-width=".5" stroke-miterlimit="10"/><path d="M153.764 262.976l-3.591 1.587 2.335 5.288 3.592-1.587-2.336-5.288z" fill="#EAB575"/><path d="M147.337 338.283s-1.581 9.544 9.216 16.306l4.472-17.723-2.291-1.691c0 .055-9.543 2.236-11.397 3.108z" fill="#F0CB0C"/><path d="M163.915 338.283l1.636 10.525 1.581 10.525 3.054 20.995-.164-.218 3.272 1.2.927.327-.981.164-4.635.981.054-.545 2.563 1.145.218.109-.109.218c-2.072 5.508-4.199 11.016-6.325 16.524l-3.218 8.234-3.272 8.234 2.999-8.234 3.054-8.289c2.018-5.562 4.145-11.07 6.162-16.578l.109.327-2.563-1.145-.763-.327.818-.164 4.635-.981-.054.545-3.272-1.2-.164-.054v-.164l-2.945-20.995-1.472-10.525-1.145-10.634z" fill="#fff"/><path d="M168.768 346.082c.328-1.691.927-3.272 1.473-4.799.6-1.582 1.199-3.109 2.017-4.636-.327 1.691-.927 3.272-1.472 4.799a27.08 27.08 0 01-2.018 4.636z" fill="#2B9EAA"/><path d="M150.936 283.042c.873 3.599 1.691 7.198 2.509 10.743.818 3.599 1.581 7.198 2.344 10.797.764 3.599 1.527 7.198 2.182 10.798l1.036 5.398c.327 1.8.709 3.6.982 5.454-.491-1.8-.873-3.6-1.255-5.399l-1.199-5.399a757.102 757.102 0 01-2.345-10.797c-.764-3.599-1.527-7.199-2.182-10.798a223.088 223.088 0 01-2.072-10.797z" fill="url(#paint0_linear)"/><path opacity=".34" d="M175.749 332.83s-26.394 7.635-26.176 14.778c0 0-2.89-4.417-2.181-9.379-.055.054 11.124-3.981 28.357-5.399z" fill="url(#paint1_linear)"/><path opacity=".3" d="M142.593 334.302a64.679 64.679 0 018.288-3.381 78.002 78.002 0 018.671-2.29c2.945-.545 5.89-.927 8.889-1.091 2.999-.109 5.999.11 8.943.709a60.366 60.366 0 00-8.888.164c-2.945.327-5.835.709-8.726 1.309-2.89.6-5.78 1.309-8.616 2.072-1.418.382-2.836.818-4.253 1.2-1.473.381-2.891.872-4.308 1.308z" fill="url(#paint2_linear)"/><path opacity=".3" d="M144.065 282.115s-2.345 40.245 13.96 43.299l-17.505 5.289 3.272-48.425.273-.163z" fill="url(#paint3_linear)"/><path opacity=".24" d="M154.481 264.61l-3.272 2.29-1.036-2.399c0 .054 1.526.927 4.308.109z" fill="url(#paint4_linear)"/><path d="M150.936 256.048v3.381s-.654-1.636-1.636-1.363c-.982.273-.982 1.363-.982 1.363s.219 1.473 1.636 1.8l-1.036 2.999s-5.398-3.49-6.326-6.707c-.927-3.272-3.926-6.653-3.926-6.653s3.49.327 3.926 1.145c.437.818-.327-4.69-3.053-6.217 0 0 5.889-.436 7.089 3.872 0 0 3.708-4.635.872-8.453 0 0 6.217.982 3.709 6.981 0 0 5.289-.273 5.344-3.491 0 0 .436 3.654-2.072 7.144l-3.545.873.6 1.636-.6 1.69z" fill="#000"/><path d="M139.266 299.729s8.235-23.722 15.651-24.758c7.416-1.036 10.416 25.358 10.416 25.358" fill="#F985AF"/><path d="M165.335 300.419c.019-.783-5.799-1.558-12.995-1.732-7.196-.174-13.045.32-13.064 1.102-.019.783 5.799 1.559 12.995 1.733 7.196.174 13.045-.32 13.064-1.103z" fill="#231F20"/><path d="M149.3 272.899c.927.218 1.854.382 2.727.491a11.4 11.4 0 002.726 0 7.41 7.41 0 002.563-.818c.818-.437 1.473-1.091 2.073-1.745-.437.818-1.037 1.636-1.854 2.126a6.092 6.092 0 01-2.727.982 9.817 9.817 0 01-2.836-.109c-.927-.218-1.854-.491-2.672-.927z" fill="url(#paint5_linear)"/><path d="M162.224 415.502c-1.199.709-2.454 1.254-3.762 1.799-1.309.491-2.618.982-3.981 1.309 1.199-.709 2.454-1.254 3.762-1.8 1.309-.49 2.618-.981 3.981-1.308z" fill="#CAAA09"/><path d="M155.462 359.769c.218 4.09.491 8.18.655 12.27l.272 6.108.273 6.107v.273h-4.308l.163-.436 4.308 3.544.328.273-.382.164-2.89 1.472.109-.054c-3.272 4.362-6.49 8.725-9.762 13.087a2032.088 2032.088 0 01-9.87 13.034c3.163-4.417 6.326-8.835 9.543-13.252 3.218-4.417 6.435-8.779 9.653-13.197l.054-.054.055-.055 2.89-1.472-.055.436-4.253-3.544-.546-.437h4.745l-.218.273-.219-6.108-.218-6.107a488.887 488.887 0 01-.327-12.325z" fill="#F0CB0C"/><path d="M161.515 298.965l-3.162 20.45 13.905 17.178-3.49 9.434-20.613-22.413s-1.2-1.036-.927-2.508c.273-1.527-1.582-22.686-1.582-22.686s8.671-.982 15.869.545z" fill="#EAB575"/><path opacity=".24" d="M153.008 298.147l-3.163 23.613 18.105 23.449-19.741-21.486s-1.09-.763-.927-2.508c.164-1.745-1.581-22.686-1.581-22.686s5.344-.436 7.307-.382z" fill="url(#paint6_linear)"/><path d="M158.025 278.025s4.745 13.742-1.199 17.014l6.435.818s.054-7.089-5.236-17.832z" fill="url(#paint7_linear)"/><path opacity=".38" d="M158.516 298.475l-.164 20.94 3.163-20.45-2.999-.49z" fill="url(#paint8_linear)"/><path opacity=".3" d="M155.79 274.917l-7.253 16.359c-.382.873-.055 1.854.763 2.291 1.091.654 2.072 1.036 4.581 1.417l-12.379-.981c0 .054 6.38-18.432 14.288-19.086z" fill="url(#paint9_linear)"/><path d="M161.734 274.971c1.363 4.09 2.672 8.18 3.981 12.27l3.817 12.324 3.708 12.325 1.8 6.162 1.745 6.216-2.018-6.107-1.963-6.162-3.818-12.325-3.708-12.324c-1.145-4.145-2.345-8.235-3.544-12.379z" fill="url(#paint10_linear)"/><path d="M143.792 255.83c.982-.6 1.963-1.036 2.999-1.527a31.316 31.316 0 013.163-1.145c-.981.6-1.963 1.036-2.999 1.527-1.036.436-2.072.872-3.163 1.145z" fill="url(#paint11_linear)"/><path d="M156.553 244.705s-.982 6.599-3.817 7.526l1.745-.436c0 .054 2.399-3.109 2.072-7.09z" fill="url(#paint12_linear)"/><path d="M149.573 243.069c.6.6.981 1.473 1.09 2.345.055.437 0 .873-.109 1.309a2.88 2.88 0 01-.6 1.145c.11-.436.219-.818.273-1.2a4.377 4.377 0 000-1.199c-.054-.382-.109-.818-.218-1.2-.109-.436-.218-.818-.436-1.2z" fill="url(#paint13_linear)"/><path d="M288.375 454.383l-84.634-30.865V217.057l84.634-29.175v266.501z" fill="#20D372"/><path d="M25.496 186.192l84.58 30.865v206.461l-84.58 29.12V186.192z" fill="#2266E6"/><path d="M242.241 287.132c10.903 0 19.741-13.087 19.741-29.23s-8.838-29.229-19.741-29.229c-10.902 0-19.741 13.086-19.741 29.229s8.839 29.23 19.741 29.23zm-174.482 0c10.902 0 19.74-13.087 19.74-29.23s-8.838-29.229-19.74-29.229c-10.903 0-19.74 13.086-19.74 29.229s8.837 29.23 19.74 29.23z" fill="#fff"/><path d="M67.759 294.603c13.703 0 24.812-16.432 24.812-36.701 0-20.269-11.109-36.7-24.812-36.7-13.704 0-24.813 16.431-24.813 36.7 0 20.269 11.11 36.701 24.813 36.701zm174.482 0c13.704 0 24.812-16.432 24.812-36.701 0-20.269-11.108-36.7-24.812-36.7-13.703 0-24.812 16.431-24.812 36.7 0 20.269 11.109 36.701 24.812 36.701zm-38.5 21.049h84.634m-262.879 3.381h84.58" stroke="#fff" stroke-miterlimit="10"/><path opacity=".34" d="M156.826 231.345a4.253 4.253 0 100-8.506 4.253 4.253 0 000 8.506z" fill="url(#paint14_linear)"/><path d="M168.605 227.092c3.272-.11 6.489-.164 9.761-.219 3.272-.054 6.489-.054 9.761-.054 3.272 0 6.49 0 9.762.054l4.853.055c1.636.054 3.272.054 4.853.109-1.636.055-3.272.109-4.853.109l-4.853.055c-3.272.054-6.49.054-9.762.054-3.272 0-6.489 0-9.761-.054-3.272.054-6.544 0-9.761-.109zm-63.803 0c3.271-.11 6.489-.164 9.761-.219 3.272-.054 6.489-.054 9.761-.054 3.272 0 6.49 0 9.762.054l4.853.055c1.636.054 3.272.054 4.853.109-1.636.055-3.272.109-4.853.109l-4.853.055c-3.272.054-6.49.054-9.762.054-3.272 0-6.489 0-9.761-.054-3.272.054-6.544 0-9.761-.109z" fill="#DBDBDB"/><path d="M105.892 223.656c-.872 1.254-1.854 2.454-2.836 3.599v-.382c.982 1.091 1.964 2.236 2.836 3.49-1.2-.981-2.236-2.017-3.272-3.163l-.163-.163.163-.164c1.036-1.09 2.072-2.181 3.272-3.217zm100.994 6.762c.873-1.255 1.855-2.454 2.836-3.599v.381c-.981-1.09-1.963-2.236-2.836-3.49 1.2.982 2.236 2.018 3.272 3.163l.164.164-.164.163c-1.036 1.091-2.072 2.236-3.272 3.218z" fill="#DBDBDB"/><path d="M156.826 229.709a2.618 2.618 0 10-.001-5.235 2.618 2.618 0 00.001 5.235z" fill="#56D0ED"/><path d="M25.332 364.514l84.962-8.562m-84.798 58.241l84.58-25.031m178.463-22.903l-84.961-8.562m84.798 58.241l-84.58-25.031" stroke="#fff" stroke-miterlimit="10"/><path d="M23 454.383l5.126-1.745V186.192H23v268.191z" fill="url(#paint15_linear)" stroke="#fff" stroke-miterlimit="10"/><path d="M283.614 454.383l5.126 1.963V187.882h-5.126v266.501z" fill="url(#paint16_linear)" stroke="#fff" stroke-miterlimit="10"/><defs><linearGradient id="paint0_linear" x1="150.642" y1="304.651" x2="160.224" y2="304.651" gradientUnits="userSpaceOnUse"><stop stop-color="#F7941D"/><stop offset="1" stop-color="#F7941D" stop-opacity=".1"/></linearGradient><linearGradient id="paint1_linear" x1="147.232" y1="340.252" x2="175.717" y2="340.252" gradientUnits="userSpaceOnUse"><stop stop-color="#1C75BC" stop-opacity=".1"/><stop offset=".141" stop-color="#1C75BC" stop-opacity=".227"/><stop offset="1" stop-color="#1C75BC"/></linearGradient><linearGradient id="paint2_linear" x1="142.388" y1="330.924" x2="177.465" y2="330.924" gradientUnits="userSpaceOnUse"><stop stop-color="#2B3990"/><stop offset="1" stop-color="#1C75BC" stop-opacity=".1"/></linearGradient><linearGradient id="paint3_linear" x1="140.539" y1="306.407" x2="158.044" y2="306.407" gradientUnits="userSpaceOnUse"><stop stop-color="#2B3990"/><stop offset="1" stop-color="#1C75BC" stop-opacity=".1"/></linearGradient><linearGradient id="paint4_linear" x1="150.143" y1="265.733" x2="154.496" y2="265.733" gradientUnits="userSpaceOnUse"><stop stop-color="#603913"/><stop offset="1" stop-color="#603913" stop-opacity=".1"/></linearGradient><linearGradient id="paint5_linear" x1="149.187" y1="272.393" x2="159.654" y2="272.393" gradientUnits="userSpaceOnUse"><stop stop-color="#fff"/><stop offset="1" stop-color="#fff" stop-opacity=".1"/></linearGradient><linearGradient id="paint6_linear" x1="145.699" y1="321.661" x2="167.964" y2="321.661" gradientUnits="userSpaceOnUse"><stop stop-color="#603913"/><stop offset="1" stop-color="#603913" stop-opacity=".1"/></linearGradient><linearGradient id="paint7_linear" x1="156.832" y1="286.964" x2="163.245" y2="286.964" gradientUnits="userSpaceOnUse"><stop stop-color="#fff"/><stop offset="1" stop-color="#fff" stop-opacity=".1"/></linearGradient><linearGradient id="paint8_linear" x1="158.378" y1="308.963" x2="161.515" y2="308.963" gradientUnits="userSpaceOnUse"><stop stop-color="#fff"/><stop offset="1" stop-color="#fff" stop-opacity=".1"/></linearGradient><linearGradient id="paint9_linear" x1="159.667" y1="282.03" x2="140.588" y2="292.438" gradientUnits="userSpaceOnUse"><stop stop-color="#2B3990"/><stop offset="1" stop-color="#1C75BC" stop-opacity=".1"/></linearGradient><linearGradient id="paint10_linear" x1="161.497" y1="299.609" x2="177.12" y2="299.609" gradientUnits="userSpaceOnUse"><stop stop-color="#fff"/><stop offset="1" stop-color="#fff" stop-opacity=".1"/></linearGradient><linearGradient id="paint11_linear" x1="143.708" y1="254.508" x2="150.055" y2="254.508" gradientUnits="userSpaceOnUse"><stop stop-color="#fff"/><stop offset="1" stop-color="#fff" stop-opacity=".1"/></linearGradient><linearGradient id="paint12_linear" x1="152.778" y1="248.494" x2="156.6" y2="248.494" gradientUnits="userSpaceOnUse"><stop stop-color="#fff"/><stop offset="1" stop-color="#fff" stop-opacity=".1"/></linearGradient><linearGradient id="paint13_linear" x1="149.424" y1="245.46" x2="150.715" y2="245.46" gradientUnits="userSpaceOnUse"><stop stop-color="#fff"/><stop offset="1" stop-color="#fff" stop-opacity=".1"/></linearGradient><linearGradient id="paint14_linear" x1="152.556" y1="227.073" x2="161.06" y2="227.073" gradientUnits="userSpaceOnUse"><stop stop-color="#1C75BC" stop-opacity=".1"/><stop offset=".141" stop-color="#1C75BC" stop-opacity=".227"/><stop offset="1" stop-color="#1C75BC"/></linearGradient><linearGradient id="paint15_linear" x1="25.583" y1="454.357" x2="25.583" y2="186.193" gradientUnits="userSpaceOnUse"><stop stop-color="#E6E7E8"/><stop offset="1" stop-color="#fff" stop-opacity=".1"/></linearGradient><linearGradient id="paint16_linear" x1="286.157" y1="456.362" x2="286.157" y2="187.906" gradientUnits="userSpaceOnUse"><stop stop-color="#E6E7E8"/><stop offset="1" stop-color="#fff" stop-opacity=".1"/></linearGradient></defs></svg>