<svg width="312" height="480" fill="none" xmlns="http://www.w3.org/2000/svg"><path fill="#EDFCF4" d="M0 0h312v480H0z"/><path d="M44.905 381.843l20.439-10.416 5.684 6.607 1.14-3.709 2.881 10.064-28.147 2.108s-1.067-3.357-1.997-4.654z" fill="#FBE54B"/><path d="M75.05 384.389l3.313 4.66-39.595.459c-.76.007-1.424-.598-1.6-1.469l-.204-1.017s-1.294-1.888 3.693-5.278c4.992-3.391 6.245 4.753 6.245 4.753l28.148-2.108z" fill="#fff" stroke="#231F20" stroke-miterlimit="10"/><path d="M46.76 387.78c2.286-.239 4.572-.412 6.858-.572 2.286-.159 4.578-.259 6.864-.392 2.292-.08 4.578-.186 6.87-.239l3.437-.067c1.146 0 2.292-.02 3.438.007-1.14.126-2.286.212-3.426.319l-3.432.252c-2.286.16-4.578.26-6.864.393-2.292.079-4.578.186-6.87.239-2.292.047-4.584.086-6.875.06z" fill="#231F20"/><path d="M47.038 382.289c1.577-.931 3.182-1.795 4.787-2.653 1.606-.864 3.228-1.675 4.85-2.486a201.591 201.591 0 014.902-2.347l2.467-1.123c.829-.352 1.657-.725 2.49-1.057-.788.472-1.588.904-2.382 1.356l-2.405 1.29a203.367 203.367 0 01-9.752 4.833c-1.645.764-3.29 1.509-4.957 2.187z" fill="#fff"/><path d="M52.023 382.003c-.59.339-1.31.046-1.594-.645l-.755-1.822c-.289-.691-.04-1.535.55-1.868.59-.339 1.311-.046 1.595.645l.754 1.822c.29.691.04 1.529-.55 1.868z" fill="#fff"/><path d="M52.018 382.003c-.408.246-.936.186-1.31-.146-.193-.16-.34-.413-.443-.639l-.346-.691-.346-.691c-.113-.206-.255-.539-.267-.851-.045-.645.273-1.316.79-1.609a1.276 1.276 0 011.565.259c.204.2.34.545.408.771l.25.752.25.751c.09.239.17.532.152.804-.005.545-.289 1.064-.703 1.29zm0 0c.414-.233.675-.778.63-1.296-.017-.266-.114-.486-.239-.718l-.346-.692-.346-.691c-.119-.259-.215-.392-.368-.532-.295-.253-.698-.292-1.004-.106-.318.173-.54.565-.55.99-.006.226.028.399.124.665l.25.751.25.751c.079.26.164.479.334.658.33.359.851.459 1.265.22z" fill="#000"/><path d="M55.217 380.182c-.59.339-1.31.046-1.594-.645l-.755-1.822c-.289-.691-.04-1.535.55-1.868.59-.339 1.311-.046 1.595.645l.754 1.822c.29.691.04 1.535-.55 1.868z" fill="#fff"/><path d="M55.212 380.182c-.408.246-.936.186-1.31-.147-.193-.159-.34-.412-.443-.638l-.346-.691-.346-.692c-.113-.206-.255-.538-.266-.85-.046-.645.272-1.317.788-1.609a1.273 1.273 0 011.566.259c.204.199.34.545.408.771l.25.751.25.752c.09.239.17.531.153.804-.006.545-.29 1.064-.704 1.29zm0 0c.414-.233.675-.778.63-1.297-.017-.266-.114-.485-.238-.718l-.346-.691-.346-.691c-.12-.26-.216-.393-.37-.532-.294-.253-.697-.293-1.003-.107-.318.173-.54.565-.55.991-.006.226.028.399.124.665l.25.751.25.751c.079.259.164.479.334.658.323.366.851.459 1.265.22z" fill="#000"/><path d="M58.694 378.679c-.59.339-1.31.047-1.594-.645l-.754-1.821c-.29-.691-.04-1.536.55-1.868.59-.339 1.31-.047 1.594.645l.755 1.821c.289.685.04 1.529-.55 1.868z" fill="#fff"/><path d="M58.69 378.679c-.409.246-.936.186-1.31-.146-.194-.16-.341-.412-.443-.638l-.346-.692-.346-.691c-.114-.206-.255-.538-.267-.851-.045-.645.273-1.316.789-1.609a1.275 1.275 0 011.565.26c.205.199.34.545.409.771l.25.751.249.751c.09.239.17.532.153.804-.005.539-.29 1.064-.703 1.29zm0 0c.414-.233.675-.778.63-1.296-.018-.266-.114-.485-.239-.718l-.346-.691-.346-.692c-.12-.259-.216-.392-.369-.532-.295-.252-.697-.292-1.004-.106-.317.173-.539.565-.55.99-.006.226.028.399.125.665l.25.751.249.752c.08.259.164.478.335.658.323.359.85.452 1.265.219z" fill="#000"/><path d="M62.194 376.685c-.59.339-1.31.046-1.594-.645l-.755-1.821c-.289-.692-.04-1.536.55-1.868.59-.339 1.311-.047 1.595.644l.754 1.822c.284.691.04 1.535-.55 1.868z" fill="#fff"/><path d="M62.19 376.685c-.408.246-.936.186-1.31-.146-.193-.16-.34-.413-.443-.639l-.346-.691-.346-.691c-.113-.206-.255-.539-.266-.851-.046-.645.272-1.316.788-1.609a1.276 1.276 0 011.566.259c.204.2.34.546.408.772l.25.751.25.751c.09.239.17.532.153.804-.006.545-.29 1.064-.704 1.29zm0 0c.414-.233.675-.778.63-1.296-.017-.266-.114-.486-.238-.718l-.346-.692-.346-.691c-.12-.259-.216-.392-.37-.532-.294-.252-.697-.292-1.003-.106-.318.173-.54.565-.55.99-.006.226.028.399.124.665l.25.751.25.751c.079.26.164.479.334.659.324.365.851.458 1.265.219zm-15.288 9.812c.193.505.215.997.193 1.482-.04.485-.12.964-.369 1.436-.192-.505-.215-.997-.192-1.483.04-.485.119-.963.368-1.435z" fill="#000"/><path d="M37.842 387.035c1.294-.306 2.593-.405 3.892-.465 1.299-.033 2.603-.02 3.908.199-1.293.306-2.592.413-3.891.466-1.3.04-2.604.02-3.909-.2z" fill="#231F20"/><path d="M277.566 439.272h-45.121c-1.917 0-3.477-1.821-3.477-4.075V320.958c0-2.247 1.554-4.075 3.477-4.075h45.115c1.917 0 3.477 1.821 3.477 4.075v114.239c0 2.254-1.554 4.075-3.471 4.075z" fill="#E0A66C"/><path d="M89.214 439.272H19.39c-2.978 0-5.389-2.825-5.389-6.315v-37.632c0-3.49 2.41-6.315 5.39-6.315h69.824c2.979 0 5.39 2.825 5.39 6.315v37.632c0 3.49-2.417 6.315-5.39 6.315z" fill="#F95F8F"/><path d="M69.508 404.399H50.573c-.517 0-.942-.499-.942-1.104 0-.605.425-1.103.941-1.103h18.936c.516 0 .942.498.942 1.103s-.426 1.104-.942 1.104z" fill="#fff"/><path d="M28.96 436.806l35.063-18.175 11.033 8.27 2.666-.991 3.115 14.898-48.394 3.975c-.012.007-1.878-5.763-3.483-7.977z" fill="#FBE54B"/><path d="M80.825 440.814l5.735 7.978-68.1 1.269c-1.306.027-2.451-1.017-2.763-2.499l-.363-1.749s-2.247-3.237 6.308-9.127c8.554-5.89 10.783 8.104 10.783 8.104l48.4-3.976z" fill="#fff" stroke="#231F20" stroke-miterlimit="10"/><path d="M32.193 446.99c3.93-.346 7.868-.618 11.799-.884l11.805-.705 11.81-.551 5.911-.22c1.969-.046 3.943-.119 5.911-.153-1.963.18-3.93.319-5.9.479l-5.899.405-11.805.705-11.81.552c-3.937.153-7.88.299-11.822.372z" fill="#231F20"/><path d="M32.624 437.544c2.74-1.529 5.508-2.992 8.276-4.447 2.769-1.456 5.56-2.859 8.334-4.288 2.796-1.383 5.581-2.785 8.39-4.142l4.209-2.02c1.412-.652 2.819-1.323 4.237-1.955-1.367.771-2.751 1.503-4.124 2.254l-4.147 2.193c-2.768 1.456-5.559 2.859-8.333 4.281-2.797 1.377-5.582 2.786-8.39 4.142-2.814 1.356-5.621 2.706-8.452 3.982z" fill="#000"/><path d="M41.807 436.64l-1.22.705c-.675.392-1.503.066-1.838-.732l-1.917-4.547c-.335-.791-.057-1.761.624-2.154l1.22-.704c.675-.392 1.503-.067 1.837.731l1.918 4.547c.335.791.05 1.762-.624 2.154z" fill="#fff"/><path d="M41.802 436.64l-1.118.658c-.357.246-.822.326-1.225.146a1.499 1.499 0 01-.545-.399c-.159-.179-.26-.419-.357-.625l-.602-1.289-1.202-2.573-.148-.326a2.111 2.111 0 01-.165-1.256c.092-.578.426-1.09.875-1.356l1.123-.638c.397-.266.97-.326 1.412-.093.227.106.431.279.59.498.165.213.261.486.34.698l.505 1.343 1.016 2.679c.085.219.187.439.238.685a1.91 1.91 0 010 .738c-.074.472-.363.897-.737 1.11zm0 0c.374-.22.646-.645.726-1.124a1.79 1.79 0 00-.029-.718c-.056-.232-.17-.438-.26-.658l-1.203-2.572-.602-1.283c-.102-.226-.187-.406-.311-.545a1.252 1.252 0 00-.437-.32c-.335-.139-.67-.086-.999.133l-1.117.659c-.295.166-.528.505-.596.89a1.562 1.562 0 00.085.871l.13.333 1.016 2.679.505 1.342c.142.459.386.851.771 1.031.375.193.823.153 1.186-.08l1.135-.638z" fill="#000"/><path d="M47.282 433.469l-1.22.704c-.675.393-1.503.067-1.838-.731l-1.917-4.547c-.335-.791-.057-1.761.623-2.154l1.22-.704c.675-.393 1.503-.067 1.838.731l1.918 4.547c.328.791.05 1.761-.624 2.154z" fill="#fff"/><path d="M47.276 433.469l-1.117.658c-.358.246-.823.326-1.226.146a1.5 1.5 0 01-.544-.399c-.159-.179-.261-.419-.358-.625l-.6-1.289-1.203-2.573-.148-.326a2.111 2.111 0 01-.164-1.256c.09-.578.425-1.09.873-1.356l1.123-.638c.397-.266.97-.326 1.413-.093.227.106.43.279.59.498.164.213.26.485.34.698l.505 1.343 1.015 2.679c.086.219.188.439.239.685.05.246.045.492 0 .738-.08.472-.363.897-.738 1.11zm0 0c.375-.22.647-.645.726-1.124a1.8 1.8 0 00-.028-.718c-.057-.232-.17-.438-.261-.658l-1.203-2.572-.6-1.283c-.103-.226-.188-.406-.313-.546a1.249 1.249 0 00-.437-.319c-.334-.139-.67-.086-.998.133l-1.118.658c-.295.167-.527.506-.595.891a1.557 1.557 0 00.085.871l.13.332 1.016 2.679.505 1.343c.141.459.385.851.771 1.031.374.192.823.153 1.186-.08l1.134-.638z" fill="#000"/><path d="M53.248 430.836l-1.22.705c-.674.392-1.502.066-1.837-.731l-1.917-4.547c-.335-.791-.057-1.762.624-2.154l1.22-.705c.674-.392 1.502-.066 1.837.732l1.918 4.547c.334.791.05 1.761-.624 2.153z" fill="#fff"/><path d="M53.245 430.836l-1.118.658c-.357.246-.823.326-1.225.147a1.521 1.521 0 01-.545-.399c-.159-.18-.26-.419-.357-.625l-.602-1.29-1.202-2.572-.148-.326a2.112 2.112 0 01-.164-1.256c.09-.579.425-1.091.873-1.357l1.124-.638c.397-.266.97-.325 1.412-.093.227.107.431.279.59.499.165.213.261.485.34.698l.505 1.343 1.016 2.679c.085.219.187.438.238.684a1.91 1.91 0 010 .738c-.08.472-.363.898-.737 1.11zm0 0c.374-.219.646-.644.726-1.123a1.79 1.79 0 00-.029-.718c-.056-.233-.17-.439-.26-.658l-1.203-2.573-.602-1.283c-.102-.226-.187-.405-.312-.545a1.249 1.249 0 00-.436-.319c-.335-.14-.67-.086-.999.133l-1.117.658c-.295.166-.528.505-.596.891a1.562 1.562 0 00.085.871l.13.332 1.016 2.679.505 1.343c.142.459.386.851.771 1.03.375.193.823.153 1.186-.079l1.135-.639z" fill="#000"/><path d="M59.251 427.366l-1.22.705c-.675.392-1.503.067-1.838-.731l-1.917-4.547c-.335-.791-.057-1.762.624-2.154l1.22-.705c.675-.392 1.503-.066 1.838.732l1.917 4.547c.329.791.051 1.761-.624 2.153z" fill="#fff"/><path d="M59.246 427.366l-1.118.658c-.357.246-.822.326-1.225.147a1.522 1.522 0 01-.545-.399c-.158-.18-.26-.419-.357-.625l-.601-1.29-1.203-2.572-.148-.326a2.11 2.11 0 01-.165-1.256c.092-.579.426-1.091.875-1.357l1.123-.638c.397-.266.97-.325 1.412-.093.227.107.431.279.59.499.165.213.261.485.34.698l.506 1.343 1.015 2.679c.085.219.187.438.238.684a1.89 1.89 0 010 .738c-.08.472-.363.898-.737 1.11zm0 0c.374-.219.646-.644.726-1.123a1.8 1.8 0 00-.029-.718c-.056-.233-.17-.439-.26-.658l-1.203-2.573-.601-1.283c-.102-.226-.188-.405-.312-.545a1.249 1.249 0 00-.437-.319c-.335-.14-.67-.086-.999.133l-1.117.658c-.295.166-.528.505-.596.891a1.562 1.562 0 00.085.871l.13.332 1.016 2.679.505 1.343c.142.459.386.851.772 1.03.374.193.822.153 1.185-.079l1.135-.639zM32.43 444.79c.176.85.182 1.695.148 2.532-.057.838-.153 1.669-.42 2.487-.175-.851-.18-1.696-.147-2.533.057-.838.153-1.669.42-2.486z" fill="#000"/><path d="M16.854 445.827c2.23-.353 4.459-.505 6.7-.605 2.235-.08 4.475-.113 6.716.06-2.23.352-4.459.505-6.7.605-2.235.079-4.475.113-6.716-.06z" fill="#231F20"/><path opacity=".64" d="M69.508 409.305H50.573c-.517 0-.942-.499-.942-1.104 0-.605.425-1.103.941-1.103h18.936c.516 0 .942.498.942 1.103 0 .612-.426 1.104-.942 1.104z" fill="#fff"/><path opacity=".47" d="M69.508 413.805H50.573c-.517 0-.942-.498-.942-1.103s.425-1.104.941-1.104h18.936c.516 0 .942.499.942 1.104 0 .611-.426 1.103-.942 1.103z" fill="#fff"/><path d="M194.199 245.501c2.5 0 4.527-2.375 4.527-5.305 0-2.93-2.027-5.305-4.527-5.305s-4.527 2.375-4.527 5.305c0 2.93 2.027 5.305 4.527 5.305zm-9.053-13.821c2.5 0 4.527-2.375 4.527-5.304 0-2.93-2.027-5.305-4.527-5.305s-4.527 2.375-4.527 5.305c0 2.929 2.027 5.304 4.527 5.304z" fill="#231F20"/><path d="M152.737 251.936l-15.526-13.92c-.664-.539-.947-1.523-.709-2.427l10.517-39.227 1.923 1.475-4.101 34.182 12.877 8.423-4.981 11.494z" fill="#E0A66C"/><path d="M195.577 242.582c6.912 0 12.514-6.565 12.514-14.664s-5.602-14.665-12.514-14.665c-6.911 0-12.514 6.566-12.514 14.665s5.603 14.664 12.514 14.664z" fill="#231F20"/><path d="M151.309 201.859a.833.833 0 01-.137-.352c-.17-1.164-.453-2.334.902-2.912 4.936-2.101 7.783-5.684 9.548-11.467.487-1.589 1.469-1.296 2.478-1.104.08.014.233.08.295.16.829.997 1.419 1.33.834 3.131-2.138 6.555-5.701 10.915-11.3 13.461-1.548.705-1.764.08-2.62-.917z" fill="#E0A66C"/><path d="M181.634 246.418l2.41-8.635c.193-.685.738-1.15 1.351-1.15.805 0 1.446.784 1.423 1.722l-.232 7.97c-.006.106.005.213.017.319.057.492.079 2.2-2.218 3.091-.267.107-.556.1-.823.007-.544-.2-1.412-.738-1.906-2.194a1.918 1.918 0 01-.022-1.13z" fill="#C68E5C"/><path d="M146.209 270.011s29.583 4.566 34.598-4.049c5.014-8.615-21.347-28.777-21.347-28.777" fill="#B0CE89"/><path d="M302.395 316.89h-94.78c-.885 0-1.605-.845-1.605-1.882v-1.442c0-1.037.72-1.881 1.605-1.881h94.78c.885 0 1.605.844 1.605 1.881v1.442c0 1.037-.72 1.882-1.605 1.882z" fill="#231F20" stroke="#000" stroke-miterlimit="10"/><path d="M189.701 241.825c4.361 0 7.896-4.143 7.896-9.254 0-5.11-3.535-9.253-7.896-9.253s-7.897 4.143-7.897 9.253c0 5.111 3.536 9.254 7.897 9.254z" fill="#E0A66C"/><path d="M179.183 194.7l.21 3.895-2.331-1.662 2.121-2.233z" fill="#9B9B9B"/><path d="M178.815 194.713l-5.559 5.943 2.065-6.854 3.494.911z" fill="#6D6D6D"/><path d="M176.217 190.817l-.896 2.985-2.065 6.854L127.868 169l39.919 23.679 2.298-.505 1.781.97 4.351-2.327z" fill="#D3D3D3"/><path d="M176.216 190.817l-4.351 2.327-1.781-.971 6.132-1.356z" fill="#fff"/><path d="M176.216 190.818l-6.132 1.356-37.213-20.276 43.345 18.92z" fill="#fff"/><path d="M176.217 190.817l-43.345-18.919 37.213 20.276-2.298.505L127.868 169l48.349 21.817z" fill="#9B9B9B"/><path d="M149.401 205.748c3.199 0 5.792-3.039 5.792-6.787 0-3.749-2.593-6.787-5.792-6.787s-5.792 3.038-5.792 6.787c0 3.748 2.593 6.787 5.792 6.787z" fill="#E0A66C"/><path d="M74.664 382.415l-10.54-12.431 6.461-51.718c-.454-2.028 2.768-7.951 4.47-8.835 3.857-2.001 9.944-.598 14.074.399l42.676 10.257 13.586 5.365-31.206 20.448-.056-.12-28.8-10.902-.018-.007a18.157 18.157 0 00-.391-1.389l-4.374 32.813-5.882 16.12z" fill="#40BED3"/><path d="M170.221 357.839c-19.565 21.026-61.64 25.979-66.428 26.477.676-4.168.897-8.289.5-12.225l41.132-46.626 34.36 13.568c-.25.824-1.617 6.076-1.923 6.867-1.73 4.46-4.374 8.422-7.641 11.939z" fill="#56D0ED"/><path d="M103.793 384.316c-4 24.882-23.99 51.599-23.99 51.599L61.072 416.61l30.718-54.005c.935-1.928 2.297-3.516 3.936-4.613l18.459-12.092 31.206-20.448.034.013-41.133 46.626c.397 3.936.176 8.057-.499 12.225z" fill="#56D0ED"/><path d="M145.495 325.385l-.07.08-.034-.013.104-.067z" fill="#fff"/><path d="M85.33 334.878l28.799 10.902c-6.143.698-28.136-10.556-28.8-10.902zm-.019-.007c2.984 12.252-4.765 31.424-4.765 31.424l4.374-32.813c.148.452.278.917.391 1.389z" fill="#40BED3"/><path d="M187.575 229.856c.997-1.168 1.485-2.49 1.091-2.952-.394-.462-1.522.11-2.519 1.278-.997 1.169-1.486 2.49-1.091 2.952.394.462 1.522-.11 2.519-1.278z" fill="#fff"/><path d="M187.585 229.859a7.633 7.633 0 01-1.135 1.097c-.21.153-.425.306-.669.399-.233.079-.545.166-.817-.093-.25-.293-.221-.692-.182-.991.052-.312.142-.605.261-.877a5.933 5.933 0 01.914-1.443 5.27 5.27 0 011.231-1.07c.232-.14.476-.246.748-.306.256-.047.596-.08.846.213.221.319.147.684.079.957a3.581 3.581 0 01-.34.784c-.273.486-.59.924-.936 1.33zm0 0c.34-.412.646-.864.862-1.376.108-.253.193-.525.233-.791.039-.266.022-.552-.108-.672-.125-.113-.346-.086-.55-.006-.205.08-.409.219-.602.365a7.077 7.077 0 00-1.072 1.037 7.73 7.73 0 00-.891 1.257 3.618 3.618 0 00-.311.704c-.069.24-.091.492.005.645.102.153.352.173.573.127.227-.047.46-.147.675-.273a5.109 5.109 0 001.186-1.017z" fill="#231F20"/><path d="M188.379 223.451l4.396 4.467-2.45 5.285 3.409-1.808s1.384-.193 1.543 1.183c.159 1.376-.312 3.217-3.057 2.858l-2.547 4.767.028 1.628 7.386-2.014 4.044-9.293-5.559-8.609-7.193 1.536z" fill="#231F20"/><path d="M192.219 253.066s-1.339 100.791-13.252 90.414c-11.907-10.37-46.89-23.393-46.89-23.393l44.78-69.873c.749-1.17 1.759-2.094 2.927-2.619a16.76 16.76 0 011.702-.658c.034 1.615 1.169 2.918 2.559 2.918 1.412 0 2.552-1.343 2.552-2.991 0-.12.176-.133.165-.253 4.697 1.07 5.457 6.455 5.457 6.455z" fill="#C8E8A3"/><path d="M210.015 277.177l21.579 29.249c1.52 2.061.272 5.259-2.054 5.259h-43.487v-3.71s28.018-8.329 32.278-6.082l-17.109-18.142c0-.006-4.22-2.366 8.793-6.574z" fill="#E0A66C"/><path d="M218.694 271.28s-22.113-23.486-30.417-19.743c-8.305 3.742 3.579 37.898 3.579 37.898" fill="#D8F2B6"/><path d="M32.652 419.037c4.587 0 8.305-4.357 8.305-9.732 0-5.375-3.718-9.732-8.305-9.732-4.586 0-8.305 4.357-8.305 9.732 0 5.375 3.719 9.732 8.305 9.732z" fill="#fff"/><path opacity=".3" d="M137.25 323.561l32.726 30.951s6.079-5.336 7.86-11.278c0 0-12.798-8.872-19.588-10.956l-20.998-8.717z" fill="url(#paint0_linear)"/><path opacity=".3" d="M160.743 350.496l9.104 7.896s-21.739 20.652-75.553 26.269c-.007-.007 58.982-20.727 66.449-34.165z" fill="url(#paint1_linear)"/><path opacity=".3" d="M67.6 415.429l12.369 16.251-8.619-20.011-3.75 3.76z" fill="url(#paint2_linear)"/><defs><linearGradient id="paint0_linear" x1="136.73" y1="338.447" x2="177.954" y2="339.886" gradientUnits="userSpaceOnUse"><stop stop-color="#1C75BC" stop-opacity=".7"/><stop offset=".236" stop-color="#1D70B8" stop-opacity=".771"/><stop offset=".529" stop-color="#2160AD" stop-opacity=".859"/><stop offset=".851" stop-color="#27479A" stop-opacity=".955"/><stop offset="1" stop-color="#2B3990"/></linearGradient><linearGradient id="paint1_linear" x1="94" y1="368.158" x2="169.991" y2="366.832" gradientUnits="userSpaceOnUse"><stop stop-color="#1C75BC" stop-opacity=".7"/><stop offset=".236" stop-color="#1D70B8" stop-opacity=".771"/><stop offset=".529" stop-color="#2160AD" stop-opacity=".859"/><stop offset=".851" stop-color="#27479A" stop-opacity=".955"/><stop offset="1" stop-color="#2B3990"/></linearGradient><linearGradient id="paint2_linear" x1="66.707" y1="420.035" x2="81.67" y2="422.942" gradientUnits="userSpaceOnUse"><stop stop-color="#1C75BC" stop-opacity=".7"/><stop offset=".236" stop-color="#1D70B8" stop-opacity=".771"/><stop offset=".529" stop-color="#2160AD" stop-opacity=".859"/><stop offset=".851" stop-color="#27479A" stop-opacity=".955"/><stop offset="1" stop-color="#2B3990"/></linearGradient></defs></svg>