<svg width="816" height="904" fill="none" xmlns="http://www.w3.org/2000/svg"><path opacity=".2" d="M436 477v420.296c33.628 8.241 14.323-9.889 69.294-18.906 59.104-9.696 49.423-4.363 114.132 10.665 64.708 15.028 57.066-6.302 102.922-15.028 36.685-6.981 70.313 12.604 82.542 23.269V477H436z" fill="#FEEDD0"/><path d="M436 477v402.798c33.403 8.241 27.175 14.538 81.989 6.786 75.41-10.663 68.325-35.384 132.601-20.358 64.275 15.027 63.263 25.206 108.813 16.481 36.439-6.98 33.34-10.664 45.487 0V477H436z" fill="#FEEDD0"/><path d="M468.358 596.291l-.772-6.186-2.222 4.245-2.269-4.257-.771 6.198h-1.17l1.099-8.186h.948l2.151 4.058 2.129-4.058h.958l1.088 8.186h-1.169zm3.702.117c-.53 0-.958-.156-1.286-.468-.319-.312-.479-.71-.479-1.193 0-.725.343-1.243 1.029-1.555.686-.312 1.485-.476 2.397-.491 0-.515-.101-.862-.304-1.041-.195-.187-.511-.281-.947-.281-.242 0-.484.039-.725.117-.242.07-.503.203-.784.398l-.152-.854c.234-.179.523-.323.866-.432.343-.11.701-.164 1.075-.164.492 0 .881.086 1.17.257.296.172.51.456.643.854.14.397.21.943.21 1.637v1.169c0 .312.012.55.035.714a.653.653 0 00.188.362c.093.086.237.129.432.129h.105l-.163.842h-.082c-.328 0-.585-.032-.772-.094a.96.96 0 01-.433-.269 2.061 2.061 0 01-.268-.479c-.484.561-1.069.842-1.755.842zm.199-.842c.281 0 .55-.07.807-.211.265-.14.483-.327.655-.561v-1.368c-.842.031-1.446.144-1.813.339-.358.187-.537.495-.537.924 0 .296.078.518.233.666.164.141.382.211.655.211zm4.075-8.045h1.053v5.624l2.104-2.584h1.287l-2.281 2.666 2.339 3.064h-1.286l-2.163-2.912v2.912h-1.053v-8.77zm7.739 8.887c-.655 0-1.216-.133-1.684-.398a2.746 2.746 0 01-1.053-1.099 3.252 3.252 0 01-.362-1.532c0-.538.109-1.029.327-1.473.226-.453.55-.807.971-1.065.429-.265.931-.397 1.508-.397.733 0 1.326.214 1.778.643.46.429.69 1.021.69 1.777 0 .195-.016.382-.047.562h-4.151c.07.74.296 1.267.678 1.578.382.312.873.468 1.473.468.601 0 1.15-.113 1.649-.339l.14.83c-.662.297-1.301.445-1.917.445zm1.087-3.707c0-.413-.117-.737-.351-.971-.233-.234-.584-.351-1.052-.351-.452 0-.807.113-1.064.34-.257.218-.441.545-.55.982h3.017zm4.997-4.596h1.111v7.18h3.754v1.006h-4.865v-8.186zm5.636 0h1.053v1.17h-1.053v-1.17zm0 2.456h1.053v5.73h-1.053v-5.73zm2.876.818h-.994l.14-.818h.854v-1.357c0-.522.136-.931.409-1.227.281-.304.682-.456 1.205-.456.343 0 .647.05.912.152l-.164.888a1.655 1.655 0 00-.585-.105c-.483 0-.725.273-.725.819v1.286h1.544v.818h-1.544v4.912h-1.052v-4.912zm6.107 5.029c-.655 0-1.216-.133-1.684-.398a2.744 2.744 0 01-1.052-1.099 3.24 3.24 0 01-.363-1.532c0-.538.11-1.029.328-1.473.226-.453.549-.807.97-1.065.429-.265.932-.397 1.509-.397.733 0 1.325.214 1.777.643.46.429.69 1.021.69 1.777 0 .195-.015.382-.047.562h-4.151c.07.74.297 1.267.678 1.578.382.312.874.468 1.474.468s1.15-.113 1.649-.339l.14.83c-.663.297-1.302.445-1.918.445zm1.088-3.707c0-.413-.117-.737-.351-.971-.234-.234-.585-.351-1.052-.351-.453 0-.807.113-1.065.34-.257.218-.44.545-.549.982h3.017zm7.335 3.753c-.483 0-.974-.054-1.473-.163-.499-.102-.9-.222-1.204-.363l.152-1.181c.389.187.83.351 1.321.491.491.141.978.211 1.462.211.545 0 .966-.098 1.263-.293.304-.202.456-.502.456-.9 0-.296-.078-.542-.234-.737-.148-.202-.37-.37-.667-.503-.288-.14-.694-.288-1.216-.444a7.695 7.695 0 01-1.321-.503 2.303 2.303 0 01-.854-.736c-.21-.312-.316-.706-.316-1.181 0-.663.254-1.197.76-1.602.515-.406 1.236-.609 2.164-.609.499 0 .97.055 1.415.164.452.109.846.242 1.181.398l-.117 1.181a5.504 5.504 0 00-1.263-.561 4.528 4.528 0 00-1.263-.176c-.507 0-.912.094-1.216.281-.296.187-.444.475-.444.865 0 .265.066.483.198.655.141.171.339.32.597.444a9.14 9.14 0 001.076.386c.919.281 1.605.616 2.058 1.006.452.382.678.912.678 1.59 0 .717-.269 1.279-.807 1.684-.538.398-1.333.596-2.386.596zm7.788 0c-1.13 0-1.98-.315-2.549-.947-.561-.639-.842-1.536-.842-2.689v-4.713h1.111v4.409c0 .896.16 1.609.479 2.14.32.53.92.795 1.801.795.881 0 1.481-.265 1.801-.795.32-.538.479-1.252.479-2.14v-4.409h1.111v4.713c0 1.153-.284 2.05-.853 2.689-.562.632-1.407.947-2.538.947zm5.164-8.349h2.702c.873 0 1.551.215 2.034.643.492.421.737 1.092.737 2.012 0 .904-.245 1.574-.737 2.011-.491.436-1.169.655-2.034.655h-1.532v2.865h-1.17v-8.186zm2.538 4.327c.6 0 1.049-.137 1.345-.409.296-.273.444-.69.444-1.252 0-.569-.144-.99-.433-1.263-.28-.272-.732-.409-1.356-.409h-1.368v3.333h1.368zm4.154-4.327h2.655c.888 0 1.582.207 2.081.62.499.405.749 1.029.749 1.871 0 1.091-.476 1.859-1.427 2.304l1.836 3.391h-1.357l-1.66-3.193h-1.707v3.193h-1.17v-8.186zm2.643 3.999c.546 0 .963-.132 1.251-.397.289-.265.433-.636.433-1.111 0-.476-.144-.842-.433-1.099-.28-.265-.697-.398-1.251-.398h-1.473v3.005h1.473zm4.052 2.947h1.263v1.24h-1.263v-1.24zm5.41-6.946h3.029c.795 0 1.5.164 2.116.491.616.32 1.095.792 1.438 1.415.343.616.515 1.345.515 2.187 0 .842-.172 1.575-.515 2.198a3.488 3.488 0 01-1.438 1.415c-.616.32-1.321.48-2.116.48h-3.029v-8.186zm3.029 7.18c.912 0 1.613-.277 2.104-.83.499-.561.749-1.314.749-2.257 0-.943-.25-1.692-.749-2.245-.491-.562-1.192-.842-2.104-.842h-1.918v6.174h1.918zm6.487 1.123c-.53 0-.959-.156-1.287-.468-.319-.312-.479-.71-.479-1.193 0-.725.343-1.243 1.029-1.555.686-.312 1.485-.476 2.397-.491 0-.515-.101-.862-.304-1.041-.195-.187-.511-.281-.947-.281-.242 0-.483.039-.725.117-.242.07-.503.203-.784.398l-.152-.854c.234-.179.523-.323.866-.432.343-.11.701-.164 1.076-.164.491 0 .88.086 1.169.257.296.172.511.456.643.854.14.397.211.943.211 1.637v1.169c0 .312.011.55.035.714a.646.646 0 00.187.362c.093.086.237.129.432.129h.106l-.164.842h-.082c-.327 0-.585-.032-.772-.094a.95.95 0 01-.432-.269 2.025 2.025 0 01-.269-.479c-.484.561-1.068.842-1.754.842zm.198-.842c.281 0 .55-.07.807-.211.265-.14.484-.327.655-.561v-1.368c-.842.031-1.446.144-1.812.339-.359.187-.538.495-.538.924 0 .296.078.518.234.666.163.141.382.211.654.211zm4.087-7.461h1.052v1.17h-1.052v-1.17zm0 2.456h1.052v5.73h-1.052v-5.73zm3.951 5.847c-.514 0-.892-.133-1.134-.398-.234-.265-.351-.592-.351-.982v-7.507h1.053v6.899c0 .343.019.592.058.748a.47.47 0 00.257.316c.125.054.328.082.608.082l-.152.842h-.339zm2.965-.375l-2.386-5.472h1.169l1.79 4.256 1.613-4.256h1.17l-3.508 8.56h-1.17l1.322-3.088zm3.655-.982h1.263v1.24h-1.263v-1.24z" opacity=".8" fill="#50C1BA"/><path d="M496.995 566.679c.449-.798.674-1.764.674-2.896 0-.666-.102-1.265-.303-1.798a4.464 4.464 0 00-.864-1.423 5.707 5.707 0 00-1.368-1.098 11.264 11.264 0 00-1.839-.85c-.554-.199-.973-.391-1.256-.574a.874.874 0 01-.426-.775c0-.415.169-.723.506-.925a2.2 2.2 0 011.137-.3c.54 0 1.013.105 1.418.312.406.208.736.478.99.812l3.332-3.57a4.661 4.661 0 00-1.058-.899 7.94 7.94 0 00-1.374-.687 9.118 9.118 0 00-1.577-.449 8.82 8.82 0 00-1.688-.162c-1.036 0-1.985.162-2.849.486a6.746 6.746 0 00-2.229 1.348 5.935 5.935 0 00-1.441 2.035 6.37 6.37 0 00-.506 2.546c0 .749.105 1.385.315 1.911.21.523.499.974.868 1.347.367.376.803.696 1.306.962.502.267 1.038.5 1.61.7.72.249 1.212.492 1.475.723.262.233.394.5.394.798a.92.92 0 01-.472.836c-.315.191-.736.286-1.261.286-.241 0-.503-.037-.788-.113a5.218 5.218 0 01-.844-.3 4.53 4.53 0 01-.8-.462 3.188 3.188 0 01-.654-.624l-3.558 3.645c.376.399.818.756 1.329 1.072.51.316 1.055.583 1.632.798a10.653 10.653 0 003.704.674c.795 0 1.612-.116 2.45-.35a7.243 7.243 0 002.3-1.098c.696-.49 1.268-1.14 1.715-1.938zm3.443 1.885c.601.474 1.32.836 2.161 1.086.841.249 1.771.376 2.792.376 1.185 0 2.236-.166 3.152-.5.915-.332 1.699-.798 2.353-1.399a6.839 6.839 0 001.577-2.185c.397-.857.678-1.809.844-2.859l1.733-11.186h-5.064l-1.689 10.311c-.061.334-.136.666-.225.998a3 3 0 01-.404.899c-.18.267-.417.482-.709.65-.292.166-.672.249-1.137.249-.72 0-1.231-.208-1.53-.624a2.404 2.404 0 01-.451-1.449v-.399c0-.15.014-.29.045-.424l1.644-10.212h-5.156l-1.689 10.96c-.03.249-.06.528-.091.836-.03.308-.044.579-.044.812 0 .865.165 1.64.495 2.321a4.864 4.864 0 001.393 1.739zm18.194 1.011l.946-5.767h1.53c1.171 0 2.215-.128 3.131-.387.915-.257 1.696-.652 2.341-1.185.644-.534 1.136-1.215 1.475-2.047.338-.832.506-1.813.506-2.946 0-1.663-.544-2.971-1.632-3.919-1.089-.948-2.66-1.423-4.718-1.423h-5.943l-2.815 17.676h5.179v-.002zm2.117-13.157h.787c.57 0 1.021.1 1.35.3.33.199.496.567.496 1.098 0 .567-.203.982-.608 1.249-.406.267-.967.399-1.689.399h-.833l.497-3.046zm18.33 5.94a4.687 4.687 0 002.555-1.948c.623-.948.935-2.155.935-3.619 0-.782-.132-1.478-.394-2.084a4.088 4.088 0 00-1.136-1.535c-.496-.417-1.096-.733-1.802-.949-.705-.215-1.492-.324-2.364-.324h-6.55l-2.815 17.676h5.02l.991-6.466h.63l2.185 6.466h5.854l-3.109-7.217zm-2.273-3.307c-.39.259-.93.387-1.622.387h-1.035l.473-2.971h.967c.556 0 .994.097 1.316.287.323.191.485.545.485 1.06 0 .567-.194.98-.584 1.237zm-70.335 5.579c1.75 0 3.355-1.144 4.034-2.938.588-1.519.365-3.084-.353-4.486-1.044-2.011-2.1-4.038-3.146-6.05-.223-.418-.887-.478-1.122-.029-1.044 1.997-2.088 3.994-3.12 6.006-.718 1.375-.941 2.866-.417 4.37.64 1.912 2.323 3.084 4.124 3.127zm-2.284-7.381c.756-1.456 1.513-2.91 2.277-4.366.75 1.446 1.502 2.89 2.252 4.337.483.926.939 1.809.823 2.937-.183 1.735-1.523 3.151-3.112 3.155-1.616-.031-2.892-1.347-3.075-3.125-.118-1.128.353-2.011.835-2.938zm16.922-5.857c-.075-.006-.141-.006-.205-.006h-9.054c-.148 0-.597 0-.942.405-.392.44-.471 1.144-.198 1.703.611 1.298 1.226 2.596 1.842 3.892l1.844 3.923c.31.658.62 1.318.932 1.974.229.486.632.776 1.079.776.447 0 .85-.29 1.08-.776l1.94-4.127c.691-1.46 1.384-2.922 2.072-4.38.137-.287.271-.571.404-.856l.202-.428c.21-.451.21-.97.003-1.391a1.236 1.236 0 00-.999-.709zm-.382 1.849c-.131.282-.265.565-.4.851l-2.074 4.382-1.848 3.926-.835-1.77-1.844-3.928c-.609-1.282-1.217-2.564-1.821-3.846h9.004l-.182.385zm-4.341 12.465c-1.75 0-3.355 1.144-4.034 2.938-.588 1.519-.365 3.084.353 4.486 1.044 2.012 2.101 4.039 3.146 6.05.223.419.887.478 1.123.029 1.044-1.997 2.088-3.994 3.119-6.005.718-1.375.939-2.867.417-4.372-.64-1.911-2.323-3.082-4.124-3.126zm2.284 7.381c-.756 1.456-1.515 2.91-2.277 4.366l-2.252-4.336c-.483-.927-.939-1.81-.823-2.938.183-1.735 1.523-3.151 3.112-3.155 1.616.031 2.892 1.347 3.075 3.125.118 1.13-.353 2.011-.835 2.938zm-8.366-.133l-1.843-3.924c-.31-.658-.62-1.317-.932-1.973-.23-.486-.633-.777-1.08-.777-.447 0-.85.291-1.079.777l-1.94 4.125c-.692 1.46-1.383 2.922-2.072 4.38-.138.286-.271.571-.405.855l-.201.429c-.21.45-.21.97-.004 1.391.2.405.554.662.998.707.075.006.141.006.205.006h9.054c.148 0 .596 0 .942-.405.392-.441.47-1.144.198-1.703-.611-1.294-1.226-2.592-1.841-3.888zm-8.353 4.528h-.004l.182-.385a2166.918 2166.918 0 012.475-5.234l1.845-3.925.836 1.77 1.844 3.928a1335.26 1335.26 0 011.82 3.846h-8.998zm23.644-4.261h-1.728v5.583h1.671c.969 0 1.691-.253 2.161-.759.471-.506.706-1.193.706-2.06 0-.868-.242-1.545-.727-2.033-.486-.488-1.179-.731-2.083-.731zm1.466 4.212c-.324.322-.791.484-1.4.484h-.944v-3.825h.85c1.32 0 1.981.638 1.981 1.916 0 .627-.162 1.103-.487 1.425zm3.669-4.212l-2.218 5.583h.907l.504-1.27h2.521l.504 1.27h.907l-2.218-5.583h-.907zm-.46 3.441l.914-2.299.914 2.299h-1.828zm5.278-3.441h-.85v5.583h.85v-5.583zm2.248 0h-.85v5.581h3.148v-.893h-2.298v-4.688zm5.638 0l-1.376 2.538-1.375-2.538h-.928l1.872 3.378v2.203h.864v-2.203l1.873-3.378h-.93z" fill="#52C2BB"/><g clip-path="url(#clip0)" fill="#FEE5CD"><path d="M623.299 810.848c1.367-13.76 7.512-26.732 17.301-36.527a59.727 59.727 0 0129.382-16.141v-7.561c-4.401-1.096-7.672-5.081-7.672-9.818 0-5.58 4.536-10.118 10.112-10.118h21.416c5.576 0 10.113 4.538 10.113 10.118 0 4.737-3.272 8.722-7.672 9.818v7.582a59.71 59.71 0 0129.29 16.12 60.443 60.443 0 015.05 5.734c.075-.005.15-.011.226-.011h21.195a2.975 2.975 0 010 5.952h-17.373a59.69 59.69 0 015.277 11.438h32.372a2.976 2.976 0 010 5.952h-30.691a60.542 60.542 0 011.476 11.438h13.153a2.975 2.975 0 010 5.952h-13.248a60.458 60.458 0 01-1.857 11.438h19.269a2.975 2.975 0 010 5.952h-21.167a59.766 59.766 0 01-13.682 21.168c-9.799 9.804-22.778 15.953-36.545 17.314-1.965.194-3.931.29-5.895.29-11.606 0-23.065-3.361-32.789-9.696a2.978 2.978 0 01-.869-4.118 2.974 2.974 0 014.116-.869c21.283 13.866 49.787 10.868 67.776-7.13 21.107-21.117 21.107-55.477 0-76.595-21.106-21.117-55.449-21.117-76.556 0-17.965 17.974-20.978 46.468-7.164 67.753a2.974 2.974 0 11-4.989 3.241c-7.38-11.372-10.703-25.108-9.355-38.676zm74.703-70.047a4.17 4.17 0 00-4.164-4.166h-21.416a4.17 4.17 0 00-4.164 4.166 4.17 4.17 0 004.164 4.166h21.416a4.17 4.17 0 004.164-4.166zm-7.672 16.377v-6.259h-14.4v6.248a60.582 60.582 0 0114.4.011z"/><path d="M642.702 854.252c.786 0 1.55.318 2.103.872.556.553.872 1.321.872 2.104a2.98 2.98 0 01-2.975 2.976 2.989 2.989 0 01-2.102-.872 2.999 2.999 0 01-.872-2.104c0-.783.318-1.551.872-2.104a2.997 2.997 0 012.102-.872zm40.383-83.59c25.442 0 46.141 20.709 46.141 46.165 0 25.455-20.699 46.164-46.141 46.164-25.442 0-46.141-20.709-46.141-46.164 0-25.456 20.699-46.165 46.141-46.165zm0 86.377c22.162 0 40.192-18.039 40.192-40.212 0-22.174-18.03-40.213-40.192-40.213s-40.192 18.039-40.192 40.213c0 22.173 18.03 40.212 40.192 40.212z"/><path d="M664.271 793.794l14.732 14.74a9.172 9.172 0 014.082-.954c1.465 0 2.851.344 4.083.954l6.593-6.597a2.974 2.974 0 114.207 4.208l-6.593 6.597a9.198 9.198 0 01.953 4.085c0 5.099-4.146 9.247-9.243 9.247-5.096 0-9.242-4.148-9.242-9.247 0-1.466.344-2.852.953-4.085l-14.299-14.307-.433-.432a2.974 2.974 0 114.207-4.209zm18.814 26.329a3.3 3.3 0 003.294-3.296 3.298 3.298 0 00-3.294-3.295 3.298 3.298 0 00-3.294 3.295 3.3 3.3 0 003.294 3.296zm-31.801-6.235h2.755a2.975 2.975 0 010 5.951h-2.755a2.975 2.975 0 010-5.951zm60.847-.074h2.755a2.976 2.976 0 010 5.952h-2.755a2.975 2.975 0 010-5.952zm-29.083-23.072a2.975 2.975 0 01-2.974-2.976v-2.757a2.975 2.975 0 115.948 0v2.757a2.974 2.974 0 01-2.974 2.976zm.073 52.17a2.975 2.975 0 012.975 2.976v2.757a2.976 2.976 0 11-5.949 0v-2.757a2.975 2.975 0 012.974-2.976zm89.195-10.699c.782 0 1.549.318 2.103.872.553.553.871 1.321.871 2.104 0 .785-.318 1.55-.871 2.104a3 3 0 01-2.103.872c-.783 0-1.55-.319-2.103-.872a3.003 3.003 0 01-.872-2.104 3 3 0 01.872-2.104 2.993 2.993 0 012.103-.872z"/></g><ellipse cx="646.267" cy="883.369" rx="24.373" ry="2.636" fill="#FFF8E6"/><path fill-rule="evenodd" clip-rule="evenodd" d="M610.553 820.682a.347.347 0 01-.317-.486l8.895-20.375a.347.347 0 01.635.278l-8.895 20.375a.347.347 0 01-.318.208z" fill="#FB9300"/><path fill-rule="evenodd" clip-rule="evenodd" d="M617.501 823.356l27.932-1.69 1.429 28.467-28.714 3.379-.647-30.156z" fill="#FFC866"/><path fill-rule="evenodd" clip-rule="evenodd" d="M618.147 853.514l-13.899-2.08 5.716-31.456 8.183 3.34v30.196z" fill="#FFA456"/><path fill-rule="evenodd" clip-rule="evenodd" d="M635.711 818.807l9.398 2.859-27.036 1.651-8.107-3.34 25.745-1.17z" fill="#3A3B39"/><path fill-rule="evenodd" clip-rule="evenodd" d="M618.146 852.894l-5.357-7.922 2.167-22.957-.67-.274-2.184 23.141-7.761 6.04-.093.511.473.071 7.632-5.939 5.328 7.878.465.07v-.619zm.366-28.547l-.014-.001a.346.346 0 01-.333-.359l.937-24.041a.347.347 0 11.693.027l-.937 24.041a.347.347 0 01-.346.333zm26.596-2.073a.343.343 0 01-.251-.108l-20.854-21.968a.346.346 0 11.502-.477l20.854 21.968a.345.345 0 01-.013.489.344.344 0 01-.238.096z" fill="#FB9300"/><path fill-rule="evenodd" clip-rule="evenodd" d="M700.447 694.563l-6.391-1.971a.836.836 0 01-.56-1.029l4.845-15.791a.837.837 0 011.022-.577l6.737 1.829a.837.837 0 01.576 1.066l-5.191 15.933a.835.835 0 01-1.038.54z" fill="#E2F3EB"/><path fill-rule="evenodd" clip-rule="evenodd" d="M666.479 783.387s-1.646 42.602-3.248 56.64c-1.25 10.949-5.197 32.269-5.197 32.269h-5.781s-4.374-74.871-6.128-88.909h20.354zm-29.037 88.909h-6.82s-3.313-77.016-4.093-88.909h17.647s-1.472 46.404-6.734 88.909z" fill="#FF5D7F"/><path fill-rule="evenodd" clip-rule="evenodd" d="M658.034 872.296l-1.039 5.719 6.236 4.55h-10.783l-.195-10.269h5.781zm-20.593 0l-.812 6.499 6.008 3.77h-11.562l-.455-10.269h6.821z" fill="#707693"/><path fill-rule="evenodd" clip-rule="evenodd" d="M618.259 795.864h6.895l.693-19.302 4.513-78.733s-13.582 25.796-12.101 98.035z" fill="#249EDB"/><path fill-rule="evenodd" clip-rule="evenodd" d="M657.124 664.255l1.04 7.669-1.949.91v2.046c0 1.075-.765 2-1.821 2.201l-.908.173v4.809h-7.665l.91-7.799 3.637-10.529 6.756.52z" fill="#FFD9D1"/><path fill-rule="evenodd" clip-rule="evenodd" d="M650.629 674.264h-3.898s.26-14.428 4.807-14.168l4.548.26s1.688-3.899 4.547-1.95c2.858 1.95.26 7.799-6.951 6.889l-.442 3.94-1.04.13c-2.918-2.029-4.245-.055-1.169 1.949l-.402 2.95z" fill="#3F2C48"/><path fill-rule="evenodd" clip-rule="evenodd" d="M655.92 669.114a.6.6 0 10-1.2-.001.6.6 0 001.2.001z" fill="#3A3B39"/><path fill-rule="evenodd" clip-rule="evenodd" d="M622.826 783.387s-5.651-101.323 23.905-102.558c0 0 14.486-1.755 20.332 7.994 5.846 9.749 19.293 37.436 19.293 37.436l10.134-28.857 3.897.975s-5.692 45.33-15.785 46.404c-9.159.975-15.59-15.403-15.59-15.403l-2.534 54.009h-43.652z" fill="#6ECEFF"/><path fill-rule="evenodd" clip-rule="evenodd" d="M638.749 681.154c-2.925 0-3.393 4.16-3.393 4.16l-.007.001h6.546l-.003-.001s-.216-4.16-3.143-4.16zm5.762 4.385c-.085-1.616-.719-6.854-5.371-6.854-5.462 0-5.633 6.74-5.635 6.836a5.467 5.467 0 00-3.28 2.587l-1.35 2.411a31.63 31.63 0 00-2.914 7.105l-3.004 10.958-2.989 2.599-.402 10.176a8.783 8.783 0 001.573 5.377l.066.094a8.762 8.762 0 006.058 3.686c6.512.842 19.014 1.635 20.638-4.384.057-.212.112-.437.166-.676 5.811 6.315 12.483 11.512 20.699 14.711l.195-4.153c-6.684-2.581-13.443-8.013-20.236-14.773 1.256-11.24.858-32.012.085-32.675l-.003-.002.003.001c6.208-5.962 12.841-5.117 12.841-5.117l-5.344-1.996c-4.841.343-8.514 3.732-9.762 5.041a6.504 6.504 0 00-2.034-.952z" fill="#6C6C6C"/><path fill-rule="evenodd" clip-rule="evenodd" d="M622.695 708.581l18.316.964-1.804 2.569-19.5-.933 2.988-2.6z" fill="#585755"/><path fill-rule="evenodd" clip-rule="evenodd" d="M636.863 702.879c.461-1.207.051-2.485-.915-2.854-.965-.369-2.122.311-2.582 1.518-.461 1.208-.051 2.485.915 2.854.965.369 2.122-.311 2.582-1.518z" fill="#E2F3EB"/><path fill-rule="evenodd" clip-rule="evenodd" d="M669.011 729.377l-5.456-10.528 5.145 17.161.311-6.633zm17.345-3.118l1.755 3.705-.877-6.202-.878 2.497z" fill="#3F2C48"/><path fill-rule="evenodd" clip-rule="evenodd" d="M666.411 785.097l.068-1.71h-20.354c.099.793.207 1.782.322 2.94l19.964-1.23zm-22.348 1.377c.078-1.995.112-3.087.112-3.087h-17.647c.064.973.145 2.385.24 4.153l17.295-1.066z" fill="#CC395D"/><path fill-rule="evenodd" clip-rule="evenodd" d="M656.209 667.981a.173.173 0 01-.156-.098.738.738 0 00-.587-.404.742.742 0 00-.649.293.173.173 0 11-.28-.205c.218-.296.595-.466.961-.433.365.033.706.268.867.598a.173.173 0 01-.156.249z" fill="#3A3B39"/><path fill-rule="evenodd" clip-rule="evenodd" d="M651.993 670.878a.172.172 0 01-.09-.025l-1.819-1.105a.174.174 0 01-.058-.238.173.173 0 01.238-.058l1.819 1.105a.173.173 0 01-.09.321z" fill="#CC395D"/><path fill-rule="evenodd" clip-rule="evenodd" d="M618.26 795.865v4.874l1.838 1.3 5.717-.52-.91-4.419-1.559-.016v-1.219h-5.086z" fill="#FFD9D1"/><path fill-rule="evenodd" clip-rule="evenodd" d="M693.91 690.218l-.414 1.345a.837.837 0 00.56 1.03l6.391 1.97a.835.835 0 001.038-.54l.446-1.366-8.021-2.439z" fill="#3A3B39"/><path fill-rule="evenodd" clip-rule="evenodd" d="M620.417 799.228h-.347v-2.318h3.275v.347h-2.928v1.971z" fill="#CC395D"/><path fill-rule="evenodd" clip-rule="evenodd" d="M700.387 698.376l3.313-6.304-3.638-3.705c-.352.392-.427.96-.188 1.429l1.292 2.536-.779 2.014-2.988-.714-.91 3.769 3.898.975z" fill="#FFD9D1"/><path fill-rule="evenodd" clip-rule="evenodd" d="M703.436 684.049a3.342 3.342 0 10-6.683 0 3.342 3.342 0 106.683 0z" fill="#FFFFFE"/><path fill-rule="evenodd" clip-rule="evenodd" d="M698.868 686.766l-1.164-2.498a.52.52 0 01.942-.439l.59 1.264 2.989-2.528a.519.519 0 11.67.794l-4.027 3.407z" fill="#00A650"/><path fill-rule="evenodd" clip-rule="evenodd" d="M706.099 677.024l-6.737-1.829a.836.836 0 00-1.021.577l-.336 1.093 8.351 2.203.319-.978a.836.836 0 00-.576-1.066z" fill="#3A3B39"/><path fill-rule="evenodd" clip-rule="evenodd" d="M685.013 685.891l.169.672-3.806.954-.168-.672 3.805-.954zm-2.475-5.8l.034.695-5.749.282-.034-.695 5.749-.282zm-3.147-11.144l5.737 3.047-.325.613-5.737-3.047.325-.613zm11.559.443a68.42 68.42 0 01-2.163-5.719l.658-.216a67.713 67.713 0 002.141 5.66l-.636.275zm7.826-4.481l.69.058-.292 3.509-.691-.057.293-3.51z" fill="#B3E0D0"/><path d="M569.147 716.603l-15.934 38.199H545.9l13.206-31.651h-15.061v-6.548h25.102zM542.59 677.28c-1.528 1.018-3.129 1.673-4.802 1.964l-.6-5.894c1.2-.254 2.546-.982 4.038-2.182 1.491-1.237 2.492-2.492 3.001-3.766h5.348v38.199h-6.985V677.28zm20.144 0c-1.528 1.018-3.129 1.673-4.802 1.964l-.6-5.894c1.2-.254 2.546-.982 4.038-2.182 1.491-1.237 2.492-2.492 3.001-3.766h5.348v38.199h-6.985V677.28z" fill="#282C3F"/><path d="M467.999 707.288c-1.286 0-2.442-.292-3.469-.877a6.42 6.42 0 01-2.397-2.494c-.572-1.079-.858-2.32-.858-3.723s.286-2.637.858-3.703c.585-1.078 1.384-1.91 2.397-2.494 1.027-.598 2.183-.897 3.469-.897s2.436.299 3.45.897c1.026.584 1.825 1.416 2.397 2.494.585 1.066.877 2.3.877 3.703s-.292 2.644-.877 3.723a6.243 6.243 0 01-2.397 2.494c-1.014.585-2.164.877-3.45.877zm0-2.416c1.325 0 2.339-.429 3.041-1.287.714-.857 1.071-1.988 1.071-3.391s-.357-2.533-1.071-3.391c-.702-.858-1.716-1.286-3.041-1.286s-2.345.428-3.06 1.286c-.701.858-1.052 1.988-1.052 3.391s.351 2.534 1.052 3.391c.715.858 1.735 1.287 3.06 1.287zm8.399-7.601h2.26l.059 1.033a4.11 4.11 0 011.091-.858c.455-.247.929-.37 1.423-.37.156 0 .299.013.429.039l-.176 2.378a3.29 3.29 0 00-.838-.098c-.402 0-.773.098-1.111.292-.337.182-.578.41-.721.683v6.645h-2.416v-9.744zm15.149-4.873v14.617h-2.281l-.039-.623c-.376.273-.773.48-1.189.623-.402.13-.883.195-1.442.195-.948 0-1.767-.227-2.455-.682a4.331 4.331 0 01-1.54-1.832c-.351-.766-.526-1.611-.526-2.533 0-.923.175-1.767.526-2.534a4.331 4.331 0 011.54-1.832c.688-.455 1.507-.682 2.455-.682.949 0 1.793.26 2.534.779v-5.496h2.417zm-4.6 12.824c.767 0 1.338-.272 1.715-.818.39-.546.585-1.293.585-2.241 0-.949-.195-1.696-.585-2.242-.377-.545-.948-.818-1.715-.818-.754 0-1.345.279-1.773.838-.416.558-.624 1.299-.624 2.222 0 .922.208 1.663.624 2.221.428.559 1.019.838 1.773.838zm11.543 1.988c-1.13 0-2.098-.227-2.904-.682-.792-.468-1.39-1.085-1.793-1.851-.389-.78-.584-1.644-.584-2.592 0-.91.188-1.741.565-2.495a4.358 4.358 0 011.637-1.793c.715-.455 1.566-.682 2.553-.682.91 0 1.676.188 2.3.565a3.566 3.566 0 011.423 1.52c.324.637.487 1.351.487 2.144 0 .39-.052.832-.156 1.325h-6.295c.13.858.468 1.501 1.013 1.93.546.416 1.202.623 1.969.623a5.616 5.616 0 002.923-.799l.117 2.047a6.601 6.601 0 01-1.462.545 7.728 7.728 0 01-1.793.195zm1.228-6.178c0-.507-.143-.955-.429-1.345-.285-.389-.727-.584-1.325-.584s-1.078.175-1.442.526c-.364.351-.611.819-.741 1.403h3.937zm4.106-3.761h2.26l.059 1.033a4.094 4.094 0 011.091-.858c.455-.247.929-.37 1.423-.37.156 0 .299.013.429.039l-.176 2.378a3.296 3.296 0 00-.838-.098c-.403 0-.773.098-1.111.292-.337.182-.578.41-.721.683v6.645h-2.416v-9.744zm15.877-.156c.923 0 1.715.227 2.378.682a4.247 4.247 0 011.501 1.832c.337.767.506 1.611.506 2.534 0 .922-.169 1.767-.506 2.533a4.247 4.247 0 01-1.501 1.832c-.663.455-1.455.682-2.378.682a4.886 4.886 0 01-2.787-.838l-.039.643h-2.26v-14.617h2.416v5.594a4.387 4.387 0 012.67-.877zm-.351 8.107c.715 0 1.267-.279 1.657-.838.403-.558.604-1.299.604-2.221 0-.923-.201-1.664-.604-2.222-.39-.559-.942-.838-1.657-.838-.818 0-1.429.273-1.832.818-.402.546-.604 1.293-.604 2.242 0 .948.202 1.695.604 2.241.403.546 1.014.818 1.832.818zm9.152 1.15l-4.054-9.101h2.689l2.495 6.275 2.534-6.275h2.689l-6.1 14.461h-2.417l2.164-5.36zm-36.418 49.368c-1.429 0-2.663-.293-3.703-.877a5.867 5.867 0 01-2.358-2.475c-.546-1.079-.818-2.333-.818-3.762 0-1.403.298-2.637.896-3.703a6.32 6.32 0 012.534-2.494c1.078-.585 2.312-.877 3.703-.877.701 0 1.383.071 2.046.214.663.143 1.234.338 1.715.585l-.273 2.377a8.274 8.274 0 00-3.488-.779c-1.456 0-2.553.429-3.294 1.286-.741.845-1.111 1.962-1.111 3.352 0 1.442.364 2.599 1.091 3.469.728.858 1.78 1.287 3.158 1.287.558 0 1.182-.072 1.871-.215v-2.436h-1.871v-2.066h4.365v6.081c-.506.299-1.156.546-1.949.74a10.33 10.33 0 01-2.514.293zm11.113-.078c-1.131 0-2.099-.228-2.904-.682-.793-.468-1.39-1.085-1.793-1.852-.39-.779-.585-1.643-.585-2.592 0-.909.188-1.741.565-2.494a4.358 4.358 0 011.637-1.793c.715-.455 1.566-.683 2.553-.683.91 0 1.677.189 2.3.566a3.554 3.554 0 011.423 1.52c.325.636.487 1.351.487 2.144 0 .389-.052.831-.156 1.325h-6.295c.13.857.468 1.501 1.014 1.929.545.416 1.201.624 1.968.624a5.616 5.616 0 002.923-.799l.117 2.046a6.592 6.592 0 01-1.461.546 7.74 7.74 0 01-1.793.195zm1.227-6.178c0-.507-.142-.955-.428-1.345-.286-.39-.728-.585-1.326-.585-.597 0-1.078.176-1.442.527-.364.35-.61.818-.74 1.403h3.936zm7.283 6.178c-.858 0-1.508-.247-1.949-.741-.442-.506-.663-1.111-.663-1.812v-5.399h-1.384l.215-1.988h1.169v-2.144l2.417-.253v2.397h2.144v1.988h-2.144v4.405c0 .52.026.883.078 1.091a.585.585 0 00.37.39c.195.052.539.078 1.033.078h.663l-.215 1.988h-1.734zm12.967-10.096c.923 0 1.715.228 2.378.683a4.239 4.239 0 011.5 1.832c.338.766.507 1.611.507 2.533 0 .923-.169 1.767-.507 2.534a4.25 4.25 0 01-1.5 1.832c-.663.454-1.455.682-2.378.682a4.886 4.886 0 01-2.787-.838l-.039.643h-2.261V740.85h2.417v5.593a4.394 4.394 0 012.67-.877zm-.351 8.108c.715 0 1.267-.279 1.657-.838.403-.559.604-1.299.604-2.222 0-.922-.201-1.663-.604-2.222-.39-.558-.942-.838-1.657-.838-.818 0-1.429.273-1.832.819-.403.546-.604 1.293-.604 2.241 0 .949.201 1.696.604 2.241.403.546 1.014.819 1.832.819zm9.151 1.15l-4.053-9.102h2.689l2.495 6.276 2.533-6.276h2.69l-6.1 14.461h-2.417l2.163-5.359zm46.605-53.312c.538 0 1.002.132 1.391.397.39.265.686.628.889 1.088.203.452.304.959.304 1.52s-.101 1.072-.304 1.532c-.195.46-.487.822-.877 1.087s-.857.398-1.403.398a3.02 3.02 0 01-.971-.14 2.084 2.084 0 01-.725-.445v3.298h-1.309v-8.63h1.04l.141.62c.249-.234.518-.413.807-.538a2.594 2.594 0 011.017-.187zm-.222 4.923c.46 0 .818-.172 1.075-.515.258-.343.386-.811.386-1.403 0-.585-.128-1.049-.386-1.392-.257-.343-.615-.514-1.075-.514-.491 0-.873.168-1.146.503-.265.335-.398.803-.398 1.403 0 .608.133 1.08.398 1.415.273.335.655.503 1.146.503zm10.458-4.923c.764 0 1.333.226 1.707.678.375.444.562 1.087.562 1.929v3.298h-1.31v-3.227c0-.546-.093-.944-.281-1.193-.179-.257-.479-.386-.9-.386-.46 0-.791.14-.994.421-.203.281-.304.651-.304 1.111v3.274h-1.298v-3.146c0-.592-.101-1.017-.304-1.274-.195-.257-.495-.386-.9-.386-.554 0-.979.195-1.275.585v4.221h-1.31v-5.8h1.088l.082.514a2.708 2.708 0 011.742-.619c.795 0 1.376.308 1.742.924.203-.297.468-.523.796-.679a2.614 2.614 0 011.157-.245zm-28.35 55.233c-.499 0-.912-.156-1.239-.468-.32-.32-.48-.737-.48-1.251 0-.507.179-.912.538-1.216a3.122 3.122 0 011.286-.643 6.79 6.79 0 011.509-.223c-.008-.405-.098-.686-.269-.842-.172-.163-.456-.245-.854-.245-.249 0-.499.039-.748.117-.242.07-.515.187-.819.351l-.14-1.064a4.245 4.245 0 012.07-.538c.701 0 1.224.195 1.567.584.343.382.514 1.018.514 1.906v1.439c0 .304.012.526.035.666.031.133.082.226.152.281.078.054.203.082.374.082h.164l-.152 1.064h-.362c-.375 0-.667-.063-.877-.187a1.357 1.357 0 01-.492-.55 2.128 2.128 0 01-.771.538 2.537 2.537 0 01-1.006.199zm.468-1.017a1.613 1.613 0 001.157-.55v-1.345c-.6.024-1.083.129-1.45.316-.358.187-.537.46-.537.818 0 .507.276.761.83.761zm10.597-5.005c.764 0 1.333.226 1.707.678.374.444.561 1.087.561 1.929v3.298h-1.309V753.4c0-.545-.094-.943-.281-1.192-.179-.258-.48-.386-.901-.386-.459 0-.791.14-.993.421-.203.28-.305.651-.305 1.111v3.274h-1.298v-3.146c0-.592-.101-1.017-.304-1.274-.194-.258-.495-.386-.9-.386-.553 0-.978.195-1.275.585v4.221h-1.309v-5.8h1.087l.082.514a2.71 2.71 0 011.742-.619c.796 0 1.376.308 1.743.923.202-.296.468-.522.795-.678a2.615 2.615 0 011.158-.245z" fill="#707693"/><path opacity=".2" d="M433 5v420.296c33.628 8.241 14.323-9.889 69.294-18.906 59.104-9.696 49.423-4.363 114.132 10.665 64.708 15.028 57.066-6.302 102.922-15.028 36.685-6.981 70.313 12.604 82.542 23.269V5H433z" fill="#EDF7F2"/><path d="M433 5v402.798c33.403 8.241 27.175 14.538 81.989 6.786 75.41-10.663 68.325-35.384 132.601-20.358 64.275 15.027 63.263 25.206 108.813 16.481 36.439-6.98 37.828-10.664 49.975 0L807.013 5H433z" fill="#E5F2EB"/><path d="M461.905 195.238h7.056l16.744 25.312v-25.312h7.168v39.2h-5.88l-17.92-26.88v26.88h-7.168v-39.2zm50.476 39.76c-2.949 0-5.507-.653-7.672-1.96-2.165-1.306-3.827-3.061-4.984-5.264-1.157-2.202-1.736-4.629-1.736-7.28 0-2.65.579-5.096 1.736-7.336a13.155 13.155 0 014.984-5.32c2.165-1.306 4.723-1.96 7.672-1.96s5.507.654 7.672 1.96a13.155 13.155 0 014.984 5.32c1.157 2.24 1.736 4.686 1.736 7.336 0 2.651-.579 5.078-1.736 7.28-1.157 2.203-2.819 3.958-4.984 5.264-2.165 1.307-4.723 1.96-7.672 1.96zm0-5.712c2.277 0 4.051-.802 5.32-2.408 1.307-1.605 1.96-3.733 1.96-6.384 0-2.688-.653-4.834-1.96-6.44-1.269-1.642-3.043-2.464-5.32-2.464s-4.069.822-5.376 2.464c-1.269 1.606-1.904 3.752-1.904 6.44 0 2.651.635 4.779 1.904 6.384 1.307 1.606 3.099 2.408 5.376 2.408z" fill="#282C3F"/><path d="M472.764 267.952l-1.2-9.38-3.58 6.44-3.6-6.42-1.2 9.36h-2.66l1.94-14h2.1l3.42 6.38 3.4-6.38h2.1l1.94 14h-2.66zm4.504-14h2.48v2.48h-2.48v-2.48zm0 4h2.48v10h-2.48v-10zm9.845-.16c1.24 0 2.18.413 2.82 1.24.64.827.96 1.94.96 3.34v5.58h-2.48v-5.38c0-.933-.16-1.62-.48-2.06-.307-.453-.807-.68-1.5-.68-.76 0-1.387.287-1.88.86v7.26h-2.48v-10h2.32l.04.7c.84-.573 1.733-.86 2.68-.86zm5.995-3.84h2.48v2.48h-2.48v-2.48zm0 4h2.48v10h-2.48v-10zm16.025-.16c1.333 0 2.32.407 2.96 1.22.653.8.98 1.927.98 3.38v5.56h-2.48v-5.38c0-.947-.147-1.64-.44-2.08-.293-.44-.773-.66-1.44-.66-.653 0-1.147.227-1.48.68-.333.44-.5 1.067-.5 1.88v5.56h-2.48v-5.38c0-.947-.153-1.64-.46-2.08-.307-.44-.793-.66-1.46-.66-.787 0-1.433.287-1.94.86v7.26h-2.48v-10h2.12l.08.8c.907-.64 1.887-.96 2.94-.96 1.28 0 2.233.46 2.86 1.38a3.4 3.4 0 011.36-1.02c.56-.24 1.18-.36 1.86-.36zm14.805.16v10h-2.32l-.04-.6a4.72 4.72 0 01-1.06.58c-.4.147-.787.22-1.16.22-1.48 0-2.56-.427-3.24-1.28-.667-.853-1-2.033-1-3.54v-5.38h2.48v5.38c0 .933.153 1.627.46 2.08.32.44.826.66 1.52.66.773 0 1.4-.28 1.88-.84v-7.28h2.48zm13.535-.16c1.333 0 2.32.407 2.96 1.22.653.8.98 1.927.98 3.38v5.56h-2.48v-5.38c0-.947-.147-1.64-.44-2.08-.294-.44-.774-.66-1.44-.66-.654 0-1.147.227-1.48.68-.334.44-.5 1.067-.5 1.88v5.56h-2.48v-5.38c0-.947-.154-1.64-.46-2.08-.307-.44-.794-.66-1.46-.66-.787 0-1.434.287-1.94.86v7.26h-2.48v-10h2.12l.08.8c.906-.64 1.886-.96 2.94-.96 1.28 0 2.233.46 2.86 1.38.346-.44.8-.78 1.36-1.02s1.18-.36 1.86-.36zm17.095 10.44c-1.32 0-2.507-.3-3.56-.9a6.587 6.587 0 01-2.46-2.56c-.587-1.107-.88-2.38-.88-3.82s.293-2.707.88-3.8c.6-1.107 1.42-1.96 2.46-2.56 1.053-.613 2.24-.92 3.56-.92 1.32 0 2.5.307 3.54.92 1.053.6 1.873 1.453 2.46 2.56.6 1.093.9 2.36.9 3.8s-.3 2.713-.9 3.82a6.41 6.41 0 01-2.46 2.56c-1.04.6-2.22.9-3.54.9zm0-2.48c1.36 0 2.4-.44 3.12-1.32.733-.88 1.1-2.04 1.1-3.48s-.367-2.6-1.1-3.48c-.72-.88-1.76-1.32-3.12-1.32s-2.407.44-3.14 1.32c-.72.88-1.08 2.04-1.08 3.48s.36 2.6 1.08 3.48c.733.88 1.78 1.32 3.14 1.32zm8.618-7.8h2.32l.06 1.06a4.22 4.22 0 011.12-.88c.467-.253.954-.38 1.46-.38.16 0 .307.013.44.04l-.18 2.44c-.253-.067-.54-.1-.86-.1-.413 0-.793.1-1.14.3-.346.187-.593.42-.74.7v6.82h-2.48v-10zm15.546-5v15h-2.34l-.04-.64c-.387.28-.793.493-1.22.64-.413.133-.907.2-1.48.2-.973 0-1.813-.233-2.52-.7a4.449 4.449 0 01-1.58-1.88c-.36-.787-.54-1.653-.54-2.6 0-.947.18-1.813.54-2.6a4.449 4.449 0 011.58-1.88c.707-.467 1.547-.7 2.52-.7.973 0 1.84.267 2.6.8v-5.64h2.48zm-4.72 13.16c.787 0 1.373-.28 1.76-.84.4-.56.6-1.327.6-2.3 0-.973-.2-1.74-.6-2.3-.387-.56-.973-.84-1.76-.84-.773 0-1.38.287-1.82.86-.427.573-.64 1.333-.64 2.28 0 .947.213 1.707.64 2.28.44.573 1.047.86 1.82.86zm11.846 2.04c-1.16 0-2.153-.233-2.98-.7-.813-.48-1.427-1.113-1.84-1.9-.4-.8-.6-1.687-.6-2.66 0-.933.193-1.787.58-2.56a4.48 4.48 0 011.68-1.84c.733-.467 1.607-.7 2.62-.7.933 0 1.72.193 2.36.58a3.66 3.66 0 011.46 1.56c.333.653.5 1.387.5 2.2 0 .4-.053.853-.16 1.36h-6.46c.133.88.48 1.54 1.04 1.98.56.427 1.233.64 2.02.64 1.08 0 2.08-.273 3-.82l.12 2.1a6.788 6.788 0 01-1.5.56c-.56.133-1.173.2-1.84.2zm1.26-6.34c0-.52-.147-.98-.44-1.38-.293-.4-.747-.6-1.36-.6-.613 0-1.107.18-1.48.54-.373.36-.627.84-.76 1.44h4.04zm4.213-3.86h2.32l.06 1.06a4.204 4.204 0 011.12-.88c.467-.253.953-.38 1.46-.38.16 0 .307.013.44.04l-.18 2.44c-.253-.067-.54-.1-.86-.1-.413 0-.793.1-1.14.3-.347.187-.593.42-.74.7v6.82h-2.48v-10z" fill="#707693"/><path opacity=".8" d="M465.561 123.622l-.792-6.348-2.28 4.356-2.328-4.368-.792 6.36h-1.2l1.128-8.4h.972l2.208 4.164 2.184-4.164h.984l1.116 8.4h-1.2zm3.8.12c-.544 0-.984-.16-1.32-.48-.328-.32-.492-.728-.492-1.224 0-.744.352-1.276 1.056-1.596.704-.32 1.524-.488 2.46-.504 0-.528-.104-.884-.312-1.068-.2-.192-.524-.288-.972-.288-.248 0-.496.04-.744.12a2.822 2.822 0 00-.804.408l-.156-.876c.24-.184.536-.332.888-.444.352-.112.72-.168 1.104-.168.504 0 .904.088 1.2.264.304.176.524.468.66.876.144.408.216.968.216 1.68v1.2c0 .32.012.564.036.732.032.16.096.284.192.372.096.088.244.132.444.132h.108l-.168.864h-.084c-.336 0-.6-.032-.792-.096a.983.983 0 01-.444-.276 2.11 2.11 0 01-.276-.492c-.496.576-1.096.864-1.8.864zm.204-.864c.288 0 .564-.072.828-.216.272-.144.496-.336.672-.576v-1.404c-.864.032-1.484.148-1.86.348-.368.192-.552.508-.552.948 0 .304.08.532.24.684.168.144.392.216.672.216zm4.181-8.256h1.08v5.772l2.16-2.652h1.32l-2.34 2.736 2.4 3.144h-1.32l-2.22-2.988v2.988h-1.08v-9zm7.942 9.12c-.672 0-1.248-.136-1.728-.408a2.815 2.815 0 01-1.08-1.128 3.327 3.327 0 01-.372-1.572c0-.552.112-1.056.336-1.512a2.63 2.63 0 01.996-1.092c.44-.272.956-.408 1.548-.408.752 0 1.36.22 1.824.66.472.44.708 1.048.708 1.824 0 .2-.016.392-.048.576h-4.26c.072.76.304 1.3.696 1.62.392.32.896.48 1.512.48s1.18-.116 1.692-.348l.144.852c-.68.304-1.336.456-1.968.456zm1.116-3.804c0-.424-.12-.756-.36-.996s-.6-.36-1.08-.36c-.464 0-.828.116-1.092.348-.264.224-.452.56-.564 1.008h3.096zm5.128-4.716h1.14v7.368h3.852v1.032h-4.992v-8.4zm5.783 0h1.08v1.2h-1.08v-1.2zm0 2.52h1.08v5.88h-1.08v-5.88zm2.951.84h-1.02l.144-.84h.876v-1.392c0-.536.14-.956.42-1.26.288-.312.7-.468 1.236-.468.352 0 .664.052.936.156l-.168.912a1.695 1.695 0 00-.6-.108c-.496 0-.744.28-.744.84v1.32h1.584v.84h-1.584v5.04h-1.08v-5.04zm6.268 5.16c-.672 0-1.248-.136-1.728-.408a2.815 2.815 0 01-1.08-1.128 3.327 3.327 0 01-.372-1.572c0-.552.112-1.056.336-1.512a2.63 2.63 0 01.996-1.092c.44-.272.956-.408 1.548-.408.752 0 1.36.22 1.824.66.472.44.708 1.048.708 1.824 0 .2-.016.392-.048.576h-4.26c.072.76.304 1.3.696 1.62.392.32.896.48 1.512.48s1.18-.116 1.692-.348l.144.852c-.68.304-1.336.456-1.968.456zm1.116-3.804c0-.424-.12-.756-.36-.996s-.6-.36-1.08-.36c-.464 0-.828.116-1.092.348-.264.224-.452.56-.564 1.008h3.096zm7.528 3.852c-.496 0-1-.056-1.512-.168-.512-.104-.924-.228-1.236-.372l.156-1.212c.4.192.852.36 1.356.504a5.44 5.44 0 001.5.216c.56 0 .992-.1 1.296-.3.312-.208.468-.516.468-.924 0-.304-.08-.556-.24-.756-.152-.208-.38-.38-.684-.516-.296-.144-.712-.296-1.248-.456a7.945 7.945 0 01-1.356-.516 2.363 2.363 0 01-.876-.756c-.216-.32-.324-.724-.324-1.212 0-.68.26-1.228.78-1.644.528-.416 1.268-.624 2.22-.624.512 0 .996.056 1.452.168.464.112.868.248 1.212.408l-.12 1.212a5.664 5.664 0 00-1.296-.576 4.653 4.653 0 00-1.296-.18c-.52 0-.936.096-1.248.288-.304.192-.456.488-.456.888 0 .272.068.496.204.672.144.176.348.328.612.456.264.12.632.252 1.104.396.944.288 1.648.632 2.112 1.032.464.392.696.936.696 1.632 0 .736-.276 1.312-.828 1.728-.552.408-1.368.612-2.448.612zm7.992 0c-1.16 0-2.032-.324-2.616-.972-.576-.656-.864-1.576-.864-2.76v-4.836h1.14v4.524c0 .92.164 1.652.492 2.196.328.544.944.816 1.848.816.904 0 1.52-.272 1.848-.816.328-.552.492-1.284.492-2.196v-4.524h1.14v4.836c0 1.184-.292 2.104-.876 2.76-.576.648-1.444.972-2.604.972zm5.299-8.568h2.772c.896 0 1.592.22 2.088.66.504.432.756 1.12.756 2.064 0 .928-.252 1.616-.756 2.064-.504.448-1.2.672-2.088.672h-1.572v2.94h-1.2v-8.4zm2.604 4.44c.616 0 1.076-.14 1.38-.42.304-.28.456-.708.456-1.284 0-.584-.148-1.016-.444-1.296-.288-.28-.752-.42-1.392-.42h-1.404v3.42h1.404zm4.263-4.44h2.724c.912 0 1.624.212 2.136.636.512.416.768 1.056.768 1.92 0 1.12-.488 1.908-1.464 2.364l1.884 3.48h-1.392l-1.704-3.276h-1.752v3.276h-1.2v-8.4zm2.712 4.104c.56 0 .988-.136 1.284-.408.296-.272.444-.652.444-1.14 0-.488-.148-.864-.444-1.128-.288-.272-.716-.408-1.284-.408h-1.512v3.084h1.512zm4.159 3.024h1.296v1.272h-1.296v-1.272zm5.551-7.128h3.108c.816 0 1.54.168 2.172.504a3.49 3.49 0 011.476 1.452c.352.632.528 1.38.528 2.244 0 .864-.176 1.616-.528 2.256a3.584 3.584 0 01-1.476 1.452c-.632.328-1.356.492-2.172.492h-3.108v-8.4zm3.108 7.368c.936 0 1.656-.284 2.16-.852.512-.576.768-1.348.768-2.316 0-.968-.256-1.736-.768-2.304-.504-.576-1.224-.864-2.16-.864h-1.968v6.336h1.968zm6.657 1.152c-.544 0-.984-.16-1.32-.48-.328-.32-.492-.728-.492-1.224 0-.744.352-1.276 1.056-1.596.704-.32 1.524-.488 2.46-.504 0-.528-.104-.884-.312-1.068-.2-.192-.524-.288-.972-.288-.248 0-.496.04-.744.12a2.822 2.822 0 00-.804.408l-.156-.876c.24-.184.536-.332.888-.444.352-.112.72-.168 1.104-.168.504 0 .904.088 1.2.264.304.176.524.468.66.876.144.408.216.968.216 1.68v1.2c0 .32.012.564.036.732.032.16.096.284.192.372.096.088.244.132.444.132h.108l-.168.864h-.084c-.336 0-.6-.032-.792-.096a.983.983 0 01-.444-.276 2.11 2.11 0 01-.276-.492c-.496.576-1.096.864-1.8.864zm.204-.864c.288 0 .564-.072.828-.216.272-.144.496-.336.672-.576v-1.404c-.864.032-1.484.148-1.86.348-.368.192-.552.508-.552.948 0 .304.08.532.24.684.168.144.392.216.672.216zm4.194-7.656h1.08v1.2h-1.08v-1.2zm0 2.52h1.08v5.88h-1.08v-5.88zm4.055 6c-.528 0-.916-.136-1.164-.408-.24-.272-.36-.608-.36-1.008v-7.704h1.08v7.08c0 .352.02.608.06.768.048.16.136.268.264.324.128.056.336.084.624.084l-.156.864h-.348zm3.042-.384l-2.448-5.616h1.2l1.836 4.368 1.656-4.368h1.2l-3.6 8.784h-1.2l1.356-3.168zm3.751-1.008h1.296v1.272h-1.296v-1.272z" fill="#50C1BA"/><path d="M493.994 94.152c.449-.79.674-1.745.674-2.865 0-.658-.102-1.25-.303-1.778a4.41 4.41 0 00-.864-1.407 5.679 5.679 0 00-1.368-1.087 11.304 11.304 0 00-1.839-.84c-.554-.197-.973-.387-1.256-.569a.861.861 0 01-.426-.766c0-.41.169-.715.506-.914a2.213 2.213 0 011.137-.297c.54 0 1.013.103 1.418.308.406.206.736.473.99.804l3.332-3.532a4.642 4.642 0 00-1.058-.889 7.904 7.904 0 00-1.374-.68 9.193 9.193 0 00-1.577-.444 8.858 8.858 0 00-1.688-.16c-1.036 0-1.985.16-2.849.48a6.759 6.759 0 00-2.229 1.334 5.877 5.877 0 00-1.441 2.013 6.242 6.242 0 00-.506 2.519c0 .74.105 1.37.315 1.89.21.517.499.963.868 1.332.367.371.803.688 1.306.952a11.56 11.56 0 001.61.692c.72.246 1.212.486 1.475.715.262.23.394.494.394.79a.907.907 0 01-.472.826c-.315.19-.736.284-1.261.284-.241 0-.503-.038-.788-.112a5.33 5.33 0 01-.844-.297 4.598 4.598 0 01-.8-.457 3.166 3.166 0 01-.654-.618l-3.558 3.606c.376.395.818.748 1.329 1.061.51.313 1.055.576 1.632.79a10.83 10.83 0 003.704.666 9.2 9.2 0 002.45-.346 7.284 7.284 0 002.3-1.087c.696-.484 1.268-1.127 1.715-1.917zm3.443 1.863c.601.47 1.32.827 2.161 1.075.841.246 1.771.371 2.792.371 1.185 0 2.236-.164 3.152-.494.915-.328 1.699-.79 2.353-1.383a6.781 6.781 0 001.577-2.162c.397-.848.678-1.79.844-2.828l1.733-11.065h-5.064l-1.689 10.2c-.061.33-.136.658-.225.987a2.95 2.95 0 01-.404.889c-.18.263-.417.477-.709.643-.292.164-.672.246-1.137.246-.72 0-1.231-.205-1.53-.618a2.36 2.36 0 01-.451-1.432v-.395c0-.149.014-.287.045-.42l1.644-10.102h-5.156l-1.689 10.843c-.03.246-.06.521-.091.826-.03.305-.044.573-.044.803 0 .856.166 1.622.495 2.297.328.678.793 1.25 1.393 1.72zm18.194 1.001l.946-5.705h1.53c1.171 0 2.215-.127 3.131-.383.915-.254 1.696-.644 2.341-1.172a5.054 5.054 0 001.475-2.025c.338-.822.506-1.794.506-2.913 0-1.646-.544-2.94-1.632-3.878-1.089-.938-2.66-1.407-4.718-1.407h-5.943l-2.815 17.485h5.179v-.002zm2.117-13.015h.787c.57 0 1.021.1 1.35.297.33.197.496.56.496 1.086 0 .561-.203.972-.608 1.235-.406.264-.967.395-1.689.395h-.833l.497-3.013zm18.331 5.876a4.688 4.688 0 002.555-1.927c.623-.938.935-2.132.935-3.58 0-.774-.132-1.462-.394-2.062a4.05 4.05 0 00-1.136-1.518c-.496-.413-1.096-.725-1.802-.938-.705-.213-1.492-.32-2.364-.32h-6.55l-2.815 17.484h5.02l.991-6.396h.63l2.185 6.396h5.854l-3.109-7.139zm-2.273-3.271c-.39.256-.93.383-1.622.383h-1.035l.473-2.94h.967c.556 0 .994.096 1.316.284.323.19.485.54.485 1.05 0 .56-.194.969-.584 1.223zm-70.336 5.519c1.75 0 3.355-1.131 4.034-2.906.588-1.503.365-3.05-.353-4.438-1.044-1.99-2.1-3.994-3.146-5.984-.223-.414-.887-.473-1.122-.03a883.236 883.236 0 00-3.12 5.942c-.718 1.36-.941 2.835-.417 4.323.64 1.891 2.323 3.05 4.124 3.093zm-2.283-7.3c.755-1.441 1.512-2.88 2.276-4.32l2.252 4.29c.483.916.939 1.79.823 2.906-.183 1.716-1.523 3.117-3.112 3.12-1.616-.03-2.892-1.332-3.075-3.09-.118-1.117.353-1.99.836-2.907zm16.922-5.795c-.075-.007-.141-.007-.205-.007h-9.054c-.148 0-.597 0-.942.401-.392.436-.471 1.132-.198 1.685.611 1.284 1.226 2.568 1.842 3.85l1.844 3.88c.31.651.62 1.304.932 1.953.229.48.632.768 1.079.768.447 0 .85-.287 1.08-.768l1.94-4.082c.691-1.445 1.384-2.89 2.072-4.333.137-.283.271-.565.404-.846l.202-.424c.21-.446.21-.96.003-1.376a1.237 1.237 0 00-.999-.702zm-.382 1.829c-.131.279-.265.558-.4.842l-2.074 4.334-1.848 3.883-.835-1.75-1.844-3.886c-.609-1.268-1.217-2.536-1.821-3.805h9.004l-.182.382zm-4.341 12.332c-1.75 0-3.355 1.132-4.034 2.906-.588 1.503-.365 3.051.353 4.439 1.044 1.989 2.101 3.994 3.146 5.983.223.415.887.473 1.123.03a855.007 855.007 0 003.119-5.941c.718-1.36.939-2.836.417-4.325-.64-1.89-2.323-3.049-4.124-3.092zm2.284 7.302c-.756 1.44-1.515 2.878-2.277 4.318l-2.252-4.289c-.483-.917-.939-1.79-.823-2.906.183-1.716 1.523-3.117 3.112-3.121 1.616.031 2.892 1.333 3.075 3.091.118 1.118-.353 1.99-.835 2.907zm-8.366-.134l-1.844-3.88c-.31-.652-.62-1.304-.932-1.953-.23-.48-.633-.768-1.08-.768-.447 0-.85.287-1.079.768l-1.94 4.08a4987.39 4987.39 0 00-2.072 4.333c-.138.283-.271.565-.405.846l-.201.424c-.21.446-.21.96-.004 1.376.2.401.554.655.998.7.075.005.141.005.205.005h9.054c.148 0 .596 0 .942-.4.392-.436.47-1.132.198-1.685-.611-1.28-1.226-2.564-1.84-3.846zm-8.354 4.479h-.004l.182-.381a2268.729 2268.729 0 012.475-5.176l1.845-3.884.836 1.751 1.844 3.886c.609 1.268 1.217 2.536 1.82 3.804h-8.998zm23.644-4.216h-1.728v5.523h1.671c.969 0 1.691-.25 2.161-.751.471-.5.706-1.18.706-2.038 0-.858-.242-1.528-.727-2.011-.486-.483-1.179-.723-2.083-.723zm1.467 4.167c-.325.318-.791.478-1.401.478h-.944v-3.783h.85c1.32 0 1.981.631 1.981 1.896 0 .619-.162 1.09-.486 1.409zm3.667-4.167l-2.218 5.523h.907l.504-1.257h2.521l.504 1.257h.907l-2.218-5.523h-.907zm-.46 3.404l.914-2.274.914 2.274h-1.828zm5.28-3.404h-.85v5.523h.85v-5.523zm2.246 0h-.85v5.521h3.148v-.883h-2.298v-4.638zm5.639 0l-1.376 2.511-1.375-2.511h-.928l1.872 3.342v2.179h.864v-2.179l1.873-3.342h-.93z" fill="#52C2BB"/><path d="M673.749 218.728c.835-1.396 11.075-4.024 15.407-3.348v24.088c-3.345 5.46-5.221 8.645-9.283 13.51l-10.297-7.093c-.306-7.71 2.113-23.713 4.173-27.157z" fill="#FFB46A"/><path fill-rule="evenodd" clip-rule="evenodd" d="M667.669 250.75c-5.536 14.242-9.443 27.498-9.443 27.498l7.689 9.099 12.088-29.653-10.334-6.944z" fill="#F9CDC4"/><path fill-rule="evenodd" clip-rule="evenodd" d="M669.476 246.217a286.568 286.568 0 00-1.806 4.533l10.333 6.944 1.709-4.192-10.236-7.285z" fill="#FFFFFE"/><ellipse cx="651.592" cy="420.708" rx="15.224" ry="2.929" fill="#FEEAC8"/><path fill-rule="evenodd" clip-rule="evenodd" d="M767.994 220.163a5.58 5.58 0 014.653 4.649l4.65 29.598-10.63-.139-30.704-39.103 32.031 4.995z" fill="#7BCEEF"/><path fill-rule="evenodd" clip-rule="evenodd" d="M769.902 225.573c.792 3.931-8.188 67.5-11.622 67.162-3.433-.339-30.066-3.667-30.066-3.667L739 219.727s30.109 1.916 30.902 5.846z" fill="#C3F1FB"/><path fill-rule="evenodd" clip-rule="evenodd" d="M743.754 246.283l19.281 2.775-2.641 15.155-19.136-2.999 2.496-14.931z" fill="#FFFFFE"/><path fill-rule="evenodd" clip-rule="evenodd" d="M763.034 261.595s-3.961 23.445-5.546 23.681c-1.585.236-21.13-1.759-21.526-3.506-.396-1.746 4.16-22.19 4.16-22.19l22.912 2.015z" fill="#7BCEEF"/><path fill-rule="evenodd" clip-rule="evenodd" d="M760.379 251.258l-.144 1.16-13.734-1.702.144-1.16 13.734 1.702zm-.546 3.41l-.144 1.16-13.734-1.702.144-1.16 13.734 1.702zm-.55 3.411l-.144 1.159-13.734-1.702.144-1.16 13.734 1.703z" fill="#CFEBE1"/><path fill-rule="evenodd" clip-rule="evenodd" d="M635.528 278.471l1.959-1.027-1.959-1.515s9.606 1.742 14.304 2.519l-.267 1.277c-4.618-.764-14.037-1.254-14.037-1.254z" fill="#FF5D7F"/><path fill-rule="evenodd" clip-rule="evenodd" d="M640.667 274.519c-1.585-2.006-1.879-4.061-.787-5.497 1.199-1.577 3.646-1.801 5.411-1.341 2.482.646 4.646 2.481 5.935 5.035 1.122 2.223 1.485 4.622 1.837 6.942l-1.446.174c-.338-2.228-.688-4.532-1.722-6.583-1.115-2.207-2.942-3.782-5.014-4.321-1.314-.342-3.038-.169-3.793.822-.869 1.144-.171 2.828.772 4.022 2.142 2.71 5.629 4.546 9.328 4.914l-.161 1.291c-4.109-.408-7.982-2.448-10.36-5.458z" fill="#FF5D7F"/><path fill-rule="evenodd" clip-rule="evenodd" d="M655.265 279.702c2.728-2.08 4.985-4.556 6.71-7.36.457-.742.895-1.542 1.018-2.373.122-.822-.111-1.593-.624-2.062-.868-.795-2.43-.707-3.593-.268-2.026.766-3.683 2.502-4.545 4.764-.835 2.187-.874 4.603-.801 6.678l-1.46.04c-.076-2.191-.031-4.752.879-7.136.996-2.612 2.949-4.631 5.357-5.542 1.502-.567 3.768-.762 5.21.558.821.752 1.204 1.925 1.024 3.137-.154 1.043-.66 1.975-1.184 2.827-1.81 2.943-4.179 5.541-7.041 7.724l-.95-.987z" fill="#FF5D7F"/><path fill-rule="evenodd" clip-rule="evenodd" d="M637.973 305.695l28.461-7.76 9.487 5.2s-18.974 5.388-37.948 2.56z" fill="#7DB1A1"/><path fill-rule="evenodd" clip-rule="evenodd" d="M674.174 283.217c.449 2.021 3.693 19.052 1.746 19.918-1.946.866-11.919-.595-11.919-.595l-4.136-25.385s13.861 4.042 14.309 6.062z" fill="#B6D4CB"/><path fill-rule="evenodd" clip-rule="evenodd" d="M632.782 283.217c2.271-.577 25.948-7.793 27.083-6.062 1.136 1.733 5.514 24.212 4.136 25.385-1.379 1.172-25.38 6.303-26.678 2.439-1.297-3.865-6.811-21.184-4.541-21.762z" fill="#CFEBE1"/><path fill-rule="evenodd" clip-rule="evenodd" d="M651.628 305.494l-5.616-25.978c-.47.124-.939.249-1.406.375l5.583 25.822c.48-.069.96-.142 1.439-.219z" fill="#FF5D7F"/><path fill-rule="evenodd" clip-rule="evenodd" d="M634.488 295.731c9.204-3.429 18.342-5.366 28.39-5.667l-.244-1.342c-10.145.303-19.212 2.29-28.497 5.732.115.427.233.853.351 1.277z" fill="#FF5D7F"/><path fill-rule="evenodd" clip-rule="evenodd" d="M675.638 291.471a90.948 90.948 0 01-2.575-.827c-2.964-.989-7.307-2.017-10.43-1.923l.244 1.343c2.842-.088 6.844.852 9.674 1.796 1.082.36 2.192.729 3.296 1.04-.067-.479-.138-.956-.209-1.429z" fill="#FF5D7F"/><path fill-rule="evenodd" clip-rule="evenodd" d="M671.508 303.339l.935.027.069-.634-.087-.007a83.22 83.22 0 00-4.188-22.787 83.955 83.955 0 00-1.743-.637 82.07 82.07 0 014.493 24.005l.521.033z" fill="#FF5D7F"/><path fill-rule="evenodd" clip-rule="evenodd" d="M747.85 328.334l8.518 5.648-7.825.1-3.466 5.747-4.358-1.784 7.131-9.711z" fill="#767A73"/><path fill-rule="evenodd" clip-rule="evenodd" d="M655.737 409.197h6.735s21.592-70.953 36.647-92.357c0 0-.747 55.493 13.691 57.871 14.437 2.379 35.038-34.881 35.038-34.881l-6.59-4.36-20.821 24.575s7.953-37.656 7.778-50.142h-51.678s-19.611 66.79-20.8 99.294z" fill="#A1EEB7"/><path fill-rule="evenodd" clip-rule="evenodd" d="M727.911 315.849l.303-5.946h-51.678l51.375 5.946z" fill="#7BD998"/><path fill-rule="evenodd" clip-rule="evenodd" d="M704.269 229.636c-7.675 0-12.276-7.99-12.454-15.312l-13.892 2.43-1.387 93.149 54.276 2.774 5.151-97.509s-3.696-1.746-11.524-2.797c-2.701 9.393-9.785 17.571-20.17 17.265z" fill="#FFB46A"/><path fill-rule="evenodd" clip-rule="evenodd" d="M728.262 212.99c-18.477 17.579-12.942 43.048-12.942 43.048l20.012-28.925.631-11.946s-2.488-1.175-7.701-2.177z" fill="#545553"/><path fill-rule="evenodd" clip-rule="evenodd" d="M702.289 223.691c9.404 1.71 14.913-4.371 18.149-11.756a99.654 99.654 0 00-7.625-.339 2.138 2.138 0 01-2.116-2.142v-7.215s5.077-3.226 4.624-4.709c-.453-1.484-4.624 1.288-4.624 1.288l4.624-10.009-10.45-4.428s-7.633 16.022-5.355 18.698c0 0 1.813 1.783 3.284 2.874l-.508 6.54-6.414 1.121c.145 4.567 1.566 9.43 6.411 10.077z" fill="#FADDD8"/><path fill-rule="evenodd" clip-rule="evenodd" d="M724.439 212.369a81.605 81.605 0 00-4.002-.435c-3.237 7.384-8.746 13.465-18.149 11.755-4.846-.647-6.267-5.51-6.412-10.076l-4.062.71c.18 7.321 4.78 15.312 12.455 15.312 10.385.305 17.468-7.873 20.17-17.266z" fill="#FFFFFE"/><path fill-rule="evenodd" clip-rule="evenodd" d="M709.617 198.524l1.078.292s1.752-1.163 3.436-1.56l1.871-5.561-3.215-2.887s-1.684 1.099-3.17 9.716zm-3.443 4.424s-2.527-.586-3.486-2.867c0 0-2.354.522-4.968.456 0 0 1.83-2.932 6.624-2.41 0 0 2.353 1.889 1.83 4.821z" fill="#725581"/><path fill-rule="evenodd" clip-rule="evenodd" d="M702.564 198.024l2.216 1.114s1.804-5.383.781-6.12c-1.023-.737-2.997 5.006-2.997 5.006z" fill="#F4587D"/><path fill-rule="evenodd" clip-rule="evenodd" d="M708.083 192.872a.743.743 0 100 1.486.743.743 0 000-1.486zm-4.775-1.92a.744.744 0 100 1.487.744.744 0 000-1.487z" fill="#545553"/><path fill-rule="evenodd" clip-rule="evenodd" d="M710.255 180.335l-.096-.035c-2.491-.907-4.634 2.737-5.513 4.521l-9.022-4.219a.594.594 0 00-.503 1.077l14.046 6.569 6.836 3.448c3.753-7.907-2.453-10.163-5.748-11.361z" fill="#FB9300"/><path fill-rule="evenodd" clip-rule="evenodd" d="M709.272 191.75a1.108 1.108 0 00-.669-.55 1.104 1.104 0 00-.864.058.39.39 0 01-.373-.684c.432-.236.97-.277 1.475-.116.505.162.918.509 1.132.953a.388.388 0 01-.35.559.39.39 0 01-.351-.22z" fill="#545553"/><path fill-rule="evenodd" clip-rule="evenodd" d="M701.208 201.155c.122.252.366.453.669.55.304.098.619.076.865-.058a.39.39 0 11.372.684c-.432.236-.97.278-1.475.116-.504-.162-.917-.509-1.131-.952a.39.39 0 01.35-.56c.144 0 .283.081.35.22z" fill="#FF5D7F"/><path fill-rule="evenodd" clip-rule="evenodd" d="M704.537 189.799c-.301-.497-1.042-.698-1.553-.421a.39.39 0 11-.371-.686c.883-.477 2.069-.155 2.59.703a.389.389 0 11-.666.404z" fill="#545553"/><path fill-rule="evenodd" clip-rule="evenodd" d="M710.562 200.307a.193.193 0 01.002-.275 8.409 8.409 0 013.162-1.957.197.197 0 01.248.121.195.195 0 01-.122.247 8.022 8.022 0 00-3.015 1.866.195.195 0 01-.275-.002zm-5.692 6.933h-2.306l.234-1.288 2.072 1.288zm-2.786 8.621l-1.367-3.093 1.575-.276-.208 3.369z" fill="#F4587D"/><path fill-rule="evenodd" clip-rule="evenodd" d="M737.794 257.722c-7.557.02-15.12.162-22.623.33-.121 1.594-.241 3.124-.358 4.6 7.368-.313 14.736-.209 22.104-.148.296-1.576.59-3.174.877-4.782z" fill="#FFFFFE"/><path fill-rule="evenodd" clip-rule="evenodd" d="M676.537 302.173l36.028-14.272s.964-9.033 2.248-25.249c6.686-.284 13.372-.225 20.059-.165l2.045.017c-.917 4.882-1.858 9.555-2.687 13.674-.844 4.197-1.573 7.82-2.044 10.504-2.985 17.013-55.623 21.432-55.623 21.432v-.001c-9.268 1.095-10.723-4.949-10.723-4.949h7.824l-2.872-4.757h1.387l4.358 3.766z" fill="#F9CDC4"/><path fill-rule="evenodd" clip-rule="evenodd" d="M716.002 246.68c-.284 4.064-.563 7.859-.831 11.372 7.503-.168 15.065-.311 22.622-.331 3.657-20.513 6.182-42.7-1.83-42.553 0 0-18.132 5.351-19.961 31.512z" fill="#FFB46A"/><path fill-rule="evenodd" clip-rule="evenodd" d="M654.966 414.748l-11.313-.4 15.055 7.531 3.764-12.684h-6.735l-.771 5.553z" fill="#767A73"/><path fill-rule="evenodd" clip-rule="evenodd" d="M688.817 315.849l8.294 4.069 2.007-3.078-10.301-.991zm30.11 49.944l4.542-9.327-3.032 3.579-1.51 5.748z" fill="#7BD998"/><path fill-rule="evenodd" clip-rule="evenodd" d="M654.78 304.169l-2.377 3.166-6.339-1.382 2.179-3.405 6.537 1.621z" fill="#F9B6A8"/><path opacity=".2" d="M10 264.074V684.37c33.628 8.241 14.323-9.889 69.294-18.906 59.104-9.695 49.423-4.363 114.132 10.665 64.708 15.028 57.066-6.302 102.922-15.028 36.685-6.981 70.313 12.604 82.542 23.269V264.074H10z" fill="#FEE8E5"/><path d="M10 264.074v402.799c33.403 8.24 27.175 14.537 81.99 6.786 75.409-10.664 68.324-35.385 132.6-20.358 64.275 15.026 63.263 25.205 108.813 16.48 36.439-6.98 38.464-6.786 50.61 3.878V264.074H10z" fill="#FEE8E5"/><path opacity=".8" d="M42.56 382.697l-.792-6.348-2.28 4.356-2.328-4.368-.792 6.36h-1.2l1.128-8.4h.972l2.208 4.164 2.184-4.164h.984l1.116 8.4h-1.2zm3.8.12c-.544 0-.984-.16-1.32-.48-.328-.32-.492-.728-.492-1.224 0-.744.352-1.276 1.056-1.596.704-.32 1.524-.488 2.46-.504 0-.528-.104-.884-.312-1.068-.2-.192-.524-.288-.972-.288-.248 0-.496.04-.744.12a2.822 2.822 0 00-.804.408l-.156-.876c.24-.184.536-.332.888-.444.352-.112.72-.168 1.104-.168.504 0 .904.088 1.2.264.304.176.524.468.66.876.144.408.216.968.216 1.68v1.2c0 .32.012.564.036.732.032.16.096.284.192.372.096.088.244.132.444.132h.108l-.168.864h-.084c-.336 0-.6-.032-.792-.096a.983.983 0 01-.444-.276 2.11 2.11 0 01-.276-.492c-.496.576-1.096.864-1.8.864zm.204-.864c.288 0 .564-.072.828-.216.272-.144.496-.336.672-.576v-1.404c-.864.032-1.484.148-1.86.348-.368.192-.552.508-.552.948 0 .304.08.532.24.684.168.144.392.216.672.216zm4.181-8.256h1.08v5.772l2.16-2.652h1.32l-2.34 2.736 2.4 3.144h-1.32l-2.22-2.988v2.988h-1.08v-9zm7.942 9.12c-.672 0-1.248-.136-1.728-.408a2.815 2.815 0 01-1.08-1.128 3.327 3.327 0 01-.372-1.572c0-.552.112-1.056.336-1.512a2.63 2.63 0 01.996-1.092c.44-.272.956-.408 1.548-.408.752 0 1.36.22 1.824.66.472.44.708 1.048.708 1.824 0 .2-.016.392-.048.576h-4.26c.072.76.304 1.3.696 1.62.392.32.896.48 1.512.48s1.18-.116 1.692-.348l.144.852c-.68.304-1.336.456-1.968.456zm1.116-3.804c0-.424-.12-.756-.36-.996s-.6-.36-1.08-.36c-.464 0-.828.116-1.092.348-.264.224-.452.56-.564 1.008h3.096zm5.128-4.716h1.14v7.368h3.852v1.032H64.93v-8.4zm5.783 0h1.08v1.2h-1.08v-1.2zm0 2.52h1.08v5.88h-1.08v-5.88zm2.951.84h-1.02l.144-.84h.876v-1.392c0-.536.14-.956.42-1.26.288-.312.7-.468 1.236-.468.352 0 .664.052.936.156l-.168.912a1.695 1.695 0 00-.6-.108c-.496 0-.744.28-.744.84v1.32h1.584v.84h-1.584v5.04h-1.08v-5.04zm6.268 5.16c-.672 0-1.248-.136-1.728-.408a2.815 2.815 0 01-1.08-1.128 3.327 3.327 0 01-.372-1.572c0-.552.112-1.056.336-1.512a2.63 2.63 0 01.996-1.092c.44-.272.956-.408 1.548-.408.752 0 1.36.22 1.824.66.472.44.708 1.048.708 1.824 0 .2-.016.392-.048.576h-4.26c.072.76.304 1.3.696 1.62.392.32.896.48 1.512.48s1.18-.116 1.692-.348l.144.852c-.68.304-1.336.456-1.968.456zm1.116-3.804c0-.424-.12-.756-.36-.996s-.6-.36-1.08-.36c-.464 0-.828.116-1.092.348-.264.224-.452.56-.564 1.008h3.096zm7.528 3.852c-.496 0-1-.056-1.512-.168-.512-.104-.924-.228-1.236-.372l.156-1.212c.4.192.852.36 1.356.504a5.44 5.44 0 001.5.216c.56 0 .992-.1 1.296-.3.312-.208.468-.516.468-.924 0-.304-.08-.556-.24-.756-.152-.208-.38-.38-.684-.516-.296-.144-.712-.296-1.248-.456a7.945 7.945 0 01-1.356-.516 2.363 2.363 0 01-.876-.756c-.216-.32-.324-.724-.324-1.212 0-.68.26-1.228.78-1.644.528-.416 1.268-.624 2.22-.624.512 0 .996.056 1.452.168.464.112.868.248 1.212.408l-.12 1.212a5.664 5.664 0 00-1.296-.576 4.653 4.653 0 00-1.296-.18c-.52 0-.936.096-1.248.288-.304.192-.456.488-.456.888 0 .272.068.496.204.672.144.176.348.328.612.456.264.12.632.252 1.104.396.944.288 1.648.632 2.112 1.032.464.392.696.936.696 1.632 0 .736-.276 1.312-.828 1.728-.552.408-1.368.612-2.448.612zm7.992 0c-1.16 0-2.032-.324-2.616-.972-.576-.656-.864-1.576-.864-2.76v-4.836h1.14v4.524c0 .92.164 1.652.492 2.196.328.544.944.816 1.848.816.904 0 1.52-.272 1.848-.816.328-.552.492-1.284.492-2.196v-4.524h1.14v4.836c0 1.184-.292 2.104-.876 2.76-.576.648-1.444.972-2.604.972zm5.299-8.568h2.772c.896 0 1.592.22 2.088.66.504.432.756 1.12.756 2.064 0 .928-.252 1.616-.756 2.064-.504.448-1.2.672-2.088.672h-1.572v2.94h-1.2v-8.4zm2.604 4.44c.616 0 1.076-.14 1.38-.42.304-.28.456-.708.456-1.284 0-.584-.148-1.016-.444-1.296-.288-.28-.752-.42-1.392-.42h-1.404v3.42h1.404zm4.263-4.44h2.724c.912 0 1.624.212 2.136.636.512.416.768 1.056.768 1.92 0 1.12-.488 1.908-1.464 2.364l1.884 3.48h-1.392l-1.704-3.276h-1.752v3.276h-1.2v-8.4zm2.712 4.104c.56 0 .988-.136 1.284-.408.296-.272.444-.652.444-1.14 0-.488-.148-.864-.444-1.128-.288-.272-.716-.408-1.284-.408h-1.512v3.084h1.512zm4.159 3.024h1.296v1.272h-1.296v-1.272zm5.551-7.128h3.108c.816 0 1.54.168 2.172.504a3.49 3.49 0 011.476 1.452c.352.632.528 1.38.528 2.244 0 .864-.176 1.616-.528 2.256a3.584 3.584 0 01-1.476 1.452c-.632.328-1.356.492-2.172.492h-3.108v-8.4zm3.108 7.368c.936 0 1.656-.284 2.16-.852.512-.576.768-1.348.768-2.316 0-.968-.256-1.736-.768-2.304-.504-.576-1.224-.864-2.16-.864h-1.968v6.336h1.968zm6.657 1.152c-.544 0-.984-.16-1.32-.48-.328-.32-.492-.728-.492-1.224 0-.744.352-1.276 1.056-1.596.704-.32 1.524-.488 2.46-.504 0-.528-.104-.884-.312-1.068-.2-.192-.524-.288-.972-.288-.248 0-.496.04-.744.12a2.822 2.822 0 00-.804.408l-.156-.876c.24-.184.536-.332.888-.444.352-.112.72-.168 1.104-.168.504 0 .904.088 1.2.264.304.176.524.468.66.876.144.408.216.968.216 1.68v1.2c0 .32.012.564.036.732.032.16.096.284.192.372.096.088.244.132.444.132h.108l-.168.864h-.084c-.336 0-.6-.032-.792-.096a.983.983 0 01-.444-.276 2.11 2.11 0 01-.276-.492c-.496.576-1.096.864-1.8.864zm.204-.864c.288 0 .564-.072.828-.216.272-.144.496-.336.672-.576v-1.404c-.864.032-1.484.148-1.86.348-.368.192-.552.508-.552.948 0 .304.08.532.24.684.168.144.392.216.672.216zm4.194-7.656h1.08v1.2h-1.08v-1.2zm0 2.52h1.08v5.88h-1.08v-5.88zm4.055 6c-.528 0-.916-.136-1.164-.408-.24-.272-.36-.608-.36-1.008v-7.704h1.08v7.08c0 .352.02.608.06.768.048.16.136.268.264.324.128.056.336.084.624.084l-.156.864h-.348zm3.042-.384l-2.448-5.616h1.2l1.836 4.368 1.656-4.368h1.2l-3.6 8.784h-1.2l1.356-3.168zm3.751-1.008h1.296v1.272h-1.296v-1.272z" fill="#50C1BA"/><path d="M70.995 353.227c.45-.789.674-1.745.674-2.864 0-.659-.102-1.251-.303-1.779a4.409 4.409 0 00-.864-1.407 5.673 5.673 0 00-1.368-1.086 11.23 11.23 0 00-1.84-.841c-.553-.197-.972-.387-1.255-.568a.862.862 0 01-.426-.767c0-.41.17-.715.506-.914a2.206 2.206 0 011.137-.297c.54 0 1.013.103 1.418.309.406.205.736.473.99.803l3.332-3.532a4.648 4.648 0 00-1.058-.889 7.882 7.882 0 00-1.374-.68 9.211 9.211 0 00-1.577-.443 8.833 8.833 0 00-1.688-.161c-1.036 0-1.985.161-2.85.481a6.76 6.76 0 00-2.228 1.333 5.89 5.89 0 00-1.441 2.013 6.247 6.247 0 00-.506 2.519c0 .74.105 1.37.315 1.89.21.517.499.963.868 1.332a5.24 5.24 0 001.306.952 11.49 11.49 0 001.61.692c.72.246 1.212.487 1.475.715.262.231.394.495.394.79a.905.905 0 01-.472.826c-.315.19-.736.284-1.261.284-.24 0-.503-.037-.788-.112a5.299 5.299 0 01-.844-.297 4.586 4.586 0 01-.8-.457 3.159 3.159 0 01-.654-.618l-3.558 3.606c.376.395.818.748 1.33 1.061a9.172 9.172 0 001.631.79 10.842 10.842 0 003.704.666c.794 0 1.612-.115 2.45-.346a7.273 7.273 0 002.3-1.086c.696-.485 1.268-1.128 1.715-1.918zm3.442 1.864c.6.469 1.32.826 2.161 1.074.841.247 1.771.372 2.792.372 1.185 0 2.236-.164 3.151-.495.916-.328 1.7-.789 2.354-1.383a6.783 6.783 0 001.577-2.162c.397-.848.678-1.79.844-2.828l1.733-11.065h-5.064l-1.69 10.2c-.06.33-.135.658-.224.987a2.93 2.93 0 01-.404.889c-.18.264-.417.477-.71.643-.291.164-.67.246-1.136.246-.72 0-1.23-.205-1.53-.618a2.357 2.357 0 01-.451-1.432v-.395c0-.148.014-.287.045-.42l1.644-10.101h-5.156l-1.689 10.842c-.03.246-.06.522-.09.826-.03.305-.045.573-.045.804 0 .856.165 1.622.495 2.296a4.82 4.82 0 001.393 1.72zm18.195 1l.946-5.704h1.53c1.17 0 2.215-.127 3.13-.383.916-.254 1.697-.645 2.342-1.173a5.056 5.056 0 001.475-2.025c.338-.822.506-1.794.506-2.913 0-1.646-.544-2.939-1.632-3.878-1.089-.938-2.66-1.407-4.718-1.407h-5.943l-2.815 17.485h5.18v-.002zm2.117-13.015h.787c.57 0 1.02.099 1.35.297.33.197.496.561.496 1.086 0 .561-.203.972-.608 1.236-.406.263-.967.394-1.689.394h-.834l.498-3.013zm18.328 5.876a4.689 4.689 0 002.555-1.927c.623-.938.935-2.132.935-3.58 0-.774-.132-1.462-.394-2.062a4.045 4.045 0 00-1.136-1.518c-.496-.412-1.096-.725-1.801-.938-.706-.213-1.493-.321-2.365-.321h-6.55l-2.815 17.485h5.02l.991-6.396h.63l2.185 6.396h5.854l-3.109-7.139zm-2.273-3.271c-.39.256-.93.383-1.621.383h-1.036l.473-2.939h.967c.556 0 .994.095 1.317.283.322.19.484.539.484 1.049 0 .561-.194.97-.584 1.224zM40.468 351.2c1.75 0 3.355-1.131 4.034-2.906.588-1.502.365-3.05-.353-4.438-1.044-1.989-2.1-3.994-3.146-5.984-.223-.414-.887-.473-1.122-.029a877.17 877.17 0 00-3.12 5.941c-.718 1.36-.94 2.836-.417 4.323.64 1.892 2.323 3.05 4.124 3.093zm-2.283-7.301c.755-1.44 1.512-2.878 2.276-4.319.75 1.431 1.502 2.859 2.252 4.29.483.917.94 1.79.823 2.906-.183 1.716-1.523 3.117-3.112 3.121-1.616-.031-2.892-1.333-3.075-3.092-.118-1.116.353-1.989.836-2.906zm16.923-5.795c-.075-.005-.141-.005-.205-.005h-9.054c-.148 0-.597 0-.942.4-.392.436-.47 1.132-.198 1.685.611 1.284 1.226 2.568 1.842 3.85l1.844 3.881c.31.651.62 1.303.932 1.952.23.481.632.768 1.08.768.446 0 .85-.287 1.079-.768l1.94-4.082c.691-1.444 1.384-2.891 2.072-4.333.137-.283.27-.565.404-.846l.202-.424c.21-.446.21-.96.003-1.376a1.237 1.237 0 00-1-.702zm-.381 1.83l-.401.842-2.074 4.335-1.848 3.883-.835-1.751-1.844-3.885c-.61-1.269-1.217-2.537-1.82-3.805h9.003l-.181.381zm-4.342 12.333c-1.75 0-3.355 1.131-4.034 2.906-.588 1.502-.365 3.05.353 4.438 1.044 1.989 2.1 3.994 3.146 5.984.223.414.887.473 1.123.029a881.732 881.732 0 003.12-5.941c.717-1.36.938-2.836.416-4.325-.64-1.89-2.323-3.048-4.124-3.091zm2.284 7.301c-.756 1.44-1.515 2.878-2.277 4.319-.75-1.431-1.502-2.859-2.252-4.29-.483-.917-.939-1.79-.823-2.906.183-1.716 1.523-3.117 3.112-3.121 1.616.031 2.892 1.333 3.075 3.092.118 1.118-.352 1.989-.835 2.906zm-8.366-.134l-1.844-3.881c-.31-.65-.62-1.303-.932-1.952-.23-.481-.633-.768-1.08-.768-.447 0-.85.287-1.08.768l-1.94 4.081-2.071 4.332c-.138.283-.271.565-.405.846l-.201.424c-.21.446-.21.96-.004 1.376.2.401.554.655.998.7.075.006.14.006.205.006h9.054c.148 0 .596 0 .942-.401.392-.436.47-1.131.198-1.685-.611-1.28-1.226-2.564-1.84-3.846zm-8.354 4.48h-.004l.182-.381.4-.843c.69-1.444 1.382-2.89 2.075-4.334l1.845-3.883c.28.584.558 1.168.836 1.751l1.844 3.885c.609 1.268 1.216 2.536 1.82 3.805H35.95zm23.646-4.216h-1.728v5.523h1.671c.97 0 1.691-.25 2.161-.75.47-.501.706-1.181.706-2.039 0-.858-.242-1.528-.727-2.011-.486-.482-1.18-.723-2.083-.723zm1.467 4.167c-.325.318-.791.479-1.4.479h-.945v-3.784h.85c1.32 0 1.98.631 1.98 1.896 0 .619-.161 1.09-.485 1.409zm3.667-4.168l-2.218 5.523h.906l.505-1.257h2.52l.505 1.257h.907l-2.218-5.523h-.907zm-.46 3.405l.914-2.275.914 2.275h-1.828zm5.278-3.405h-.85v5.523h.85v-5.523zm2.249 0h-.85v5.521h3.148v-.883h-2.298v-4.638zm5.638 0l-1.376 2.511-1.375-2.511h-.928l1.872 3.342v2.179h.864v-2.179l1.873-3.342h-.93z" fill="#52C2BB"/><path fill-rule="evenodd" clip-rule="evenodd" d="M316.875 502.067s24.214 3.881 34.591 8.685c5.681 2.63-1.464 28.455-1.464 28.455l-64.783-16.999 12.694-22.896c7.408.416 14.424 1.014 18.962 2.755z" fill="#7BCEEF"/><path fill-rule="evenodd" clip-rule="evenodd" d="M349.844 514.854c1.481 2.643-7.643 43.447-17.381 66.982-1.462 3.533-6.266 4.451-10.019 3.463l-21.348-5.62.878-77.946 14.902 2.086s31.345 8.141 32.968 11.035z" fill="#C3F1FB"/><path fill-rule="evenodd" clip-rule="evenodd" d="M321.57 536.127l16.801 4.904-4.695 15.916-16.801-5.066c-.365-.12 4.695-15.754 4.695-15.754z" fill="#FFFFFE"/><path fill-rule="evenodd" clip-rule="evenodd" d="M335.724 557.187l-.533 1.612-21.148-6.955.533-1.612 21.148 6.955z" fill="#7BCEEF"/><path fill-rule="evenodd" clip-rule="evenodd" d="M335.448 543.73l-.248.988-12.78-3.192.248-.988 12.78 3.192zm-.913 3.147l-.248.988-12.779-3.192.248-.987 12.779 3.191zm-.912 3.148l-.248.988-12.78-3.192.248-.988 12.78 3.192zm-.918 3.192l-.248.988-12.78-3.192.248-.988 12.78 3.192z" fill="#F8FDFB"/><path fill-rule="evenodd" clip-rule="evenodd" d="M167.679 581.777l1.463-.412-.992-1.415s5.919 2.852 8.828 4.193l-.41.874c-2.86-1.319-8.889-3.24-8.889-3.24z" fill="#D7456E"/><path fill-rule="evenodd" clip-rule="evenodd" d="M171.751 579.794c-.658-1.706-.468-3.232.508-4.083 1.071-.933 2.702-.687 3.764-.062 1.494.877 2.559 2.557 2.924 4.608.317 1.784.109 3.569-.093 5.295l-.972-.116c.194-1.658.394-3.372.101-5.018-.315-1.772-1.21-3.209-2.457-3.941-.791-.465-1.943-.628-2.617-.041-.777.677-.635 2.004-.244 3.019.89 2.305 2.816 4.206 5.151 5.086l-.344.901c-2.594-.977-4.733-3.089-5.721-5.648z" fill="#D7456E"/><path fill-rule="evenodd" clip-rule="evenodd" d="M180.277 585.95a19.604 19.604 0 005.724-4.173c.434-.457.867-.959 1.101-1.536.232-.571.223-1.163-.023-1.586-.417-.716-1.448-.913-2.286-.791-1.458.213-2.856 1.185-3.836 2.667-.948 1.433-1.421 3.163-1.758 4.667l-.956-.215c.357-1.587.861-3.421 1.893-4.982 1.132-1.712 2.775-2.838 4.508-3.091 1.082-.158 2.59.08 3.283 1.268.394.678.426 1.584.084 2.426-.294.724-.795 1.309-1.294 1.834a20.557 20.557 0 01-6.006 4.379l-.434-.867z" fill="#D7456E"/><path fill-rule="evenodd" clip-rule="evenodd" d="M164.224 601.753l19.932-.837 5.202 5.318s-13.329.713-25.134-4.481z" fill="#7DB1A1"/><path fill-rule="evenodd" clip-rule="evenodd" d="M165.016 584.733c1.583-.037 18.306-1.281 18.723.153.416 1.434-.904 18.322-2.017 18.935-1.113.613-17.66.303-17.787-2.69-.127-2.994-.501-16.362 1.081-16.398z" fill="#523B5D"/><path fill-rule="evenodd" clip-rule="evenodd" d="M194.219 586.88c-.083 1.527-3.436 19.055-4.861 19.354-1.425.298-9.735-1.195-9.735-1.195l2.016-18.935s12.663-.752 12.58.776z" fill="#3F2C48"/><path fill-rule="evenodd" clip-rule="evenodd" d="M162.721 588.699l20.804-.911-2.046-28.013-21.79 6.425 3.032 22.499z" fill="#F8FDFB"/><path fill-rule="evenodd" clip-rule="evenodd" d="M197.705 561.8l-.613 25.393-14.378.63-1.235-28.048 16.226 2.025z" fill="#DCF4ED"/><path fill-rule="evenodd" clip-rule="evenodd" d="M182.714 587.824l.451-.02 14.463-22.798.026-1.063-.163-.103-14.805 23.337.028.647z" fill="#EEE"/><path fill-rule="evenodd" clip-rule="evenodd" d="M196.674 587.212l.419-.018.017-.698-15.26-25.741-.319.188.035.784 15.108 25.485z" fill="#EEE"/><path fill-rule="evenodd" clip-rule="evenodd" d="M162.72 588.699l-.074-.55 7.653-11.292-10.531-10.069-.079-.588.41-.12 10.621 10.155 10.504-15.499.342.231.038.527-10.341 15.26 11.145 10.657-.428.445-.17.007-10.968-10.487-7.66 11.303-.462.02z" fill="#FFFFFE"/><path fill-rule="evenodd" clip-rule="evenodd" d="M181.53 560.943l-.192-4.367-22.249 7.224.163 3.709 22.278-6.566z" fill="#DCF4ED"/><path fill-rule="evenodd" clip-rule="evenodd" d="M197.649 560.521l.155 3.516-16.274-3.094-.192-4.367 16.311 3.945z" fill="#F8FDFB"/><path fill-rule="evenodd" clip-rule="evenodd" d="M184.204 627.284l9.263 11.579 4.318-19.815-7.165-13.031-6.416 21.267zm109.538-13.428l-1.706-10.258a6.147 6.147 0 00-6.07-5.132h-61.003l5.59 15.39c21.009 4.585 42.076 4.284 63.189 0z" fill="#767A73"/><path fill-rule="evenodd" clip-rule="evenodd" d="M298.854 613.856a2.236 2.236 0 012.238 2.329l-.687 16.241-6.663-18.57h5.112z" fill="#FFEBD5"/><path fill-rule="evenodd" clip-rule="evenodd" d="M304.385 643.79l-15.368 7.206c-16.512 1.214-32.131 1.915-43.176 0l-12.972-37.14h60.873c3.175 6.924 6.876 18.156 10.643 29.934z" fill="#FFD3B8"/><path fill-rule="evenodd" clip-rule="evenodd" d="M275.705 631.062c-9.588 3.265-14.304 14.836-10.534 25.845 3.771 11.01 14.6 17.288 24.188 14.023 9.588-3.265 14.304-14.837 10.534-25.846-3.771-11.009-14.6-17.287-24.188-14.022z" fill="#767A73"/><path fill-rule="evenodd" clip-rule="evenodd" d="M232.869 613.856l1.297 2.402h61.707l-2.131-2.402h-60.873z" fill="#FFEBD5"/><path fill-rule="evenodd" clip-rule="evenodd" d="M278.819 637.796c-5.163 1.413-7.909 7.793-6.132 14.251 1.778 6.457 7.405 10.546 12.569 9.132 5.164-1.413 7.91-7.793 6.132-14.25-1.777-6.457-7.404-10.546-12.569-9.133z" fill="#fff"/><path fill-rule="evenodd" clip-rule="evenodd" d="M167.98 631.062c-9.588 3.265-14.304 14.836-10.534 25.845 3.771 11.01 14.6 17.288 24.189 14.023 9.588-3.265 14.304-14.837 10.533-25.846-3.77-11.009-14.599-17.287-24.188-14.022z" fill="#767A73"/><path fill-rule="evenodd" clip-rule="evenodd" d="M171.095 637.796c-5.164 1.413-7.909 7.793-6.132 14.251 1.777 6.457 7.404 10.546 12.568 9.132 5.165-1.413 7.91-7.793 6.133-14.25-1.778-6.457-7.405-10.546-12.569-9.133z" fill="#fff"/><path fill-rule="evenodd" clip-rule="evenodd" d="M222.7 564.401c.538-1.662-.705-3.365-2.457-3.365h-8.805a8.726 8.726 0 00-7.786 4.779h17.909a2.566 2.566 0 001.139-1.414z" fill="#767A73"/><path fill-rule="evenodd" clip-rule="evenodd" d="M305.263 650.996s-.495-30.118-24.029-30.118-22.422 30.118-22.422 30.118h46.451z" fill="#FFEBD5"/><path fill-rule="evenodd" clip-rule="evenodd" d="M192.505 585.171c0-.944.767-1.709 1.714-1.709s1.714.765 1.714 1.709c0 .944-.767 1.709-1.714 1.709a1.711 1.711 0 01-1.714-1.709zm-2.932 15.808c0 .785-.638 1.421-1.425 1.421h-.371a1.423 1.423 0 01-1.425-1.421v-16.374c0-.785.638-1.421 1.425-1.421h.371c.787 0 1.425.636 1.425 1.421v16.374zm-7.31 0c0 .785-.638 1.421-1.425 1.421h-.371a1.423 1.423 0 01-1.425-1.421v-16.374c0-.785.638-1.421 1.425-1.421h.371c.787 0 1.425.636 1.425 1.421v16.374zm-7.31 0c0 .785-.638 1.421-1.425 1.421h-.371a1.423 1.423 0 01-1.425-1.421v-16.374c0-.785.638-1.421 1.425-1.421h.371c.787 0 1.425.636 1.425 1.421v16.374zm-7.31 0c0 .785-.638 1.421-1.425 1.421h-.371a1.423 1.423 0 01-1.425-1.421v-16.374c0-.785.638-1.421 1.425-1.421h.371c.787 0 1.425.636 1.425 1.421v16.374zm-8.335-16.983l2.775 22.02 29.532 1.809 10.371-28.273h-38.747c-2.384 0-4.228 2.085-3.931 4.444z" fill="#FFD3B8"/><path fill-rule="evenodd" clip-rule="evenodd" d="M305.263 650.996s-.031-1.845-.433-4.619h-45.831c-.254 2.774-.186 4.619-.186 4.619 16.309 1.494 31.893 1.674 46.45 0z" fill="#fff"/><path fill-rule="evenodd" clip-rule="evenodd" d="M225.59 650.997a7.881 7.881 0 01-7.221-4.71l-15.019-34.246a22.11 22.11 0 01-1.138-14.501l9.409-31.725h-7.968c-.163.322-8.334 25.635-11.653 35.924a6.182 6.182 0 01-5.889 4.278h-24.028s1.853 5.686 8.524 5.655c6.671-.032 20.384 2.718 28.908 18.527 8.524 15.809 10.007 24.308 22.607 24.308h86.401v-3.51H225.59z" fill="#FFEBD5"/><path fill-rule="evenodd" clip-rule="evenodd" d="M176.042 619.4c19.697 3.206 20.798 29.81 33.13 36.092l-15.705-.985c-5.481 0-9.596-2.912-13.101-7.114l-6.053-7.299c-2.866-3.436-7.748-5.476-12.23-5.476l-12.725 1.319s6.988-19.743 26.684-16.537z" fill="#FFEBD5"/><path fill-rule="evenodd" clip-rule="evenodd" d="M173.473 646.437c-1.348.369-2.064 2.034-1.6 3.719.464 1.685 1.932 2.752 3.28 2.384 1.347-.369 2.064-2.034 1.6-3.719-.464-1.686-1.932-2.753-3.28-2.384z" fill="#B3E0D0"/><path fill-rule="evenodd" clip-rule="evenodd" d="M195.111 651.243a18.466 18.466 0 01-14.182-6.633l-6.253-7.498a15.1 15.1 0 00-11.598-5.424h-11.635c-1.442 2.436-2.085 4.249-2.085 4.249h12.445a15.1 15.1 0 0111.597 5.424l6.253 7.498a18.464 18.464 0 0014.183 6.634h15.336c-1.921-.979-3.569-2.451-5.057-4.25h-9.004z" fill="#FFD3B8"/><path fill-rule="evenodd" clip-rule="evenodd" d="M245.463 632.073l-2.999-9.059c-.08-.243.094-.493.391-.559.296-.065.602.078.682.321l2.999 9.059c.081.242-.094.492-.391.558a.65.65 0 01-.145.016c-.245 0-.47-.134-.537-.336zm3.947 0l-3-9.059c-.08-.243.095-.493.391-.559.296-.065.602.078.682.321l3 9.059c.08.242-.095.492-.391.558a.666.666 0 01-.146.016c-.245 0-.469-.134-.536-.336zm3.947 0l-3-9.059c-.08-.243.095-.493.391-.559.297-.065.602.078.682.321l3 9.059c.08.242-.095.492-.391.558a.666.666 0 01-.146.016c-.245 0-.469-.134-.536-.336zm3.946 0l-2.999-9.059c-.081-.243.094-.493.391-.559.296-.065.601.078.682.321l2.999 9.059c.081.242-.094.492-.391.558a.666.666 0 01-.146.016c-.244 0-.469-.134-.536-.336z" fill="#FFEBD5"/><path fill-rule="evenodd" clip-rule="evenodd" d="M342.396 662.832c3.892-3.589 3.813-10.576-.16-14.077-3.974-3.5-10.938-2.718-14.03 1.577-2.15 2.986-2.328 6.745-1.866 10.492-1.504-2.65-4.559-4.52-7.612-4.001-4.702.799-7.53 6.946-5.071 11.021-6.616-.695-19.148 3.949-19.148 3.949h52.879c1.787-1.543 2.203-4.395 1.069-6.463-1.134-2.068-3.794-3.165-6.061-2.498z" fill="#B3E0D0"/><path fill-rule="evenodd" clip-rule="evenodd" d="M237.317 651.227H223.79l6.764-4.735-2.502-4.735 6.115 2.083 3.15 7.387z" fill="#3A3B39"/><path fill-rule="evenodd" clip-rule="evenodd" d="M246.582 651.227h-12.416l6.208-3.978-3.428-5.492 6.547.821 3.089 8.649z" fill="#3A3B39"/><path fill-rule="evenodd" clip-rule="evenodd" d="M208.779 607.143c7.969 21.125 17.419 36.647 17.419 36.647h7.968l-7.968-27.901-7.875-36.337s-17.511 6.465-9.544 27.591z" fill="#7BD998"/><path fill-rule="evenodd" clip-rule="evenodd" d="M210.138 586.879c-5.436 14.535 12.354 37.694 12.354 37.694l13.588 19.216 7.413-1.232-14.33-42.621 54.817.216a15.944 15.944 0 0012.499-5.959l2.112-2.633-29.649-22.173-5.436 3.202s-47.932-.246-53.368 14.29z" fill="#A1EEB7"/><path fill-rule="evenodd" clip-rule="evenodd" d="M291.183 598.466s3.24-1.34 7.409-6.906l-29.649-20.941-3.46 1.478 25.7 26.369zm-64.491-5.674l6.177 7.144h-3.706l-2.471-7.144z" fill="#7BD998"/><path fill-rule="evenodd" clip-rule="evenodd" d="M276.694 481.742l.926 1.201 3.091 4.85 2.469 14.274 10.562-7.391-6.3-18.939-4.911-.37-5.837 6.375z" fill="#FAE5E1"/><path fill-rule="evenodd" clip-rule="evenodd" d="M290.731 484.791l-3.845-1.34-2.924 9.876 6.769-8.536z" fill="#767A73"/><path fill-rule="evenodd" clip-rule="evenodd" d="M271.969 494.861c2.872 5.359 10.47 2.957 12.23-2.124 1.761-5.082 3.244-8.777 3.244-8.777l-1.761-1.017s-5.281 5.174-8.71 2.125c0 0-7.875 4.435-5.003 9.793z" fill="#FFD3B8"/><path fill-rule="evenodd" clip-rule="evenodd" d="M281.235 489.688s-8.293-2.976-3.615-6.745c0 0 2.977 2.976 3.615 6.745z" fill="#FFA456"/><path fill-rule="evenodd" clip-rule="evenodd" d="M281.234 474.628s4.263-8.16 10.378-4.619c6.115 3.541 2.013 12.649.926 14.043-1.297 1.663-4.633 1.755-6.578 0-1.946-1.756.834-5.913.834-5.913l-5.56-3.511z" fill="#FFD3B8"/><path fill-rule="evenodd" clip-rule="evenodd" d="M289.017 480.033c-.947 0-1.714.765-1.714 1.709 0 .944.767 1.709 1.714 1.709s1.714-.765 1.714-1.709c0-.944-.767-1.709-1.714-1.709z" fill="#FBBD66"/><path fill-rule="evenodd" clip-rule="evenodd" d="M282.532 478.878a.647.647 0 100 1.293.647.647 0 100-1.293zm1.303-.108a1.053 1.053 0 00-.484-.846 1.055 1.055 0 00-.975-.061.255.255 0 11-.214-.463 1.563 1.563 0 011.459.092c.434.27.712.755.725 1.265a.254.254 0 01-.249.261h-.007a.255.255 0 01-.255-.248z" fill="#767A73"/><path fill-rule="evenodd" clip-rule="evenodd" d="M316.875 502.068l-6.177-16.738c-9.883 4.881-27.518 16.738-27.518 16.738-15.659 10.532-19.673 56.233-19.673 56.233l-37.309-1.725-1.235 8.13s22.237 7.884 40.767 10.101c1.734.208 3.399-.051 4.992-.69l27.375 22.617c12.354-23.898 15.072-60.114 14.824-78.591-.186-13.956-7.419-17.37-10.948-18.206l14.902 2.131z" fill="#A774BD"/><path fill-rule="evenodd" clip-rule="evenodd" d="M282.037 563.062l2.987-4.761 21.957 13.654-1.622 6.065-23.322-14.958z" fill="#89589E"/><path fill-rule="evenodd" clip-rule="evenodd" d="M288.805 543.025s-3.875 26.992-15.822 32.959l-2.26-1.868s10.766-1.034 18.082-31.091zm-19.862 15.276l-5.152-2.706-.284 2.706h5.436zm28.412-61.838l15.815-4.435-.864-2.34-14.951 6.775z" fill="#89589E"/><path fill-rule="evenodd" clip-rule="evenodd" d="M214.524 556.576l-4.077 5.543 4.262.943 3.614-3.243 7.141 1.59.734-4.833h-11.674z" fill="#FAE5E1"/><path fill-rule="evenodd" clip-rule="evenodd" d="M307.243 500.69c-5.246-1.005-12.538-1.597-19.94-1.346 7.973.939 15.743 2.028 21.219 4.811l-1.279-3.465z" fill="#89589E"/><path d="M38.904 454.314h7.056l16.744 25.312v-25.312h7.168v39.2h-5.88l-17.92-26.88v26.88h-7.168v-39.2zm50.476 39.76c-2.95 0-5.507-.654-7.672-1.96-2.165-1.307-3.827-3.062-4.984-5.264-1.157-2.203-1.736-4.63-1.736-7.28 0-2.651.579-5.096 1.736-7.336a13.15 13.15 0 014.984-5.32c2.165-1.307 4.723-1.96 7.672-1.96 2.95 0 5.507.653 7.672 1.96a13.146 13.146 0 014.984 5.32c1.157 2.24 1.736 4.685 1.736 7.336 0 2.65-.579 5.077-1.736 7.28-1.157 2.202-2.819 3.957-4.984 5.264-2.165 1.306-4.723 1.96-7.672 1.96zm0-5.712c2.277 0 4.05-.803 5.32-2.408 1.307-1.606 1.96-3.734 1.96-6.384 0-2.688-.653-4.835-1.96-6.44-1.27-1.643-3.043-2.464-5.32-2.464s-4.07.821-5.376 2.464c-1.27 1.605-1.904 3.752-1.904 6.44 0 2.65.635 4.778 1.904 6.384 1.307 1.605 3.099 2.408 5.376 2.408z" fill="#282C3F"/><path d="M36.132 513.026h5.24c1.333 0 2.52.28 3.56.84a5.976 5.976 0 012.46 2.42c.586 1.054.88 2.3.88 3.74 0 1.44-.294 2.687-.88 3.74a5.97 5.97 0 01-2.46 2.42c-1.04.56-2.227.84-3.56.84h-5.24v-14zm5.24 11.72c1.333 0 2.346-.413 3.04-1.24.706-.84 1.06-2 1.06-3.48s-.354-2.633-1.06-3.46c-.694-.84-1.707-1.26-3.04-1.26h-2.68v9.44h2.68zm13.477 2.48c-1.16 0-2.153-.233-2.98-.7-.813-.48-1.426-1.113-1.84-1.9-.4-.8-.6-1.686-.6-2.66 0-.933.194-1.786.58-2.56a4.481 4.481 0 011.68-1.84c.733-.466 1.607-.7 2.62-.7.934 0 1.72.194 2.36.58.654.387 1.14.907 1.46 1.56.334.654.5 1.387.5 2.2 0 .4-.053.854-.16 1.36h-6.46c.133.88.48 1.54 1.04 1.98.56.427 1.233.64 2.02.64 1.08 0 2.08-.273 3-.82l.12 2.1a6.723 6.723 0 01-1.5.56c-.56.134-1.173.2-1.84.2zm1.26-6.34c0-.52-.147-.98-.44-1.38-.293-.4-.746-.6-1.36-.6-.613 0-1.106.18-1.48.54-.373.36-.627.84-.76 1.44h4.04zm6.773 6.34c-.853 0-1.493-.24-1.92-.72-.427-.493-.64-1.126-.64-1.9v-12.58h2.48v11.56c0 .534.027.914.08 1.14.067.214.173.347.32.4.16.04.427.06.8.06l-.22 2.04h-.9zm2.694-14.2h2.48v2.48h-2.48v-2.48zm0 4h2.48v10h-2.48v-10zm3.705 0h2.44l2.46 6.92 2.46-6.92h2.44l-3.84 10h-2.12l-3.84-10zm15.666 10.2c-1.16 0-2.154-.233-2.98-.7-.814-.48-1.427-1.113-1.84-1.9-.4-.8-.6-1.686-.6-2.66 0-.933.193-1.786.58-2.56a4.481 4.481 0 011.68-1.84c.733-.466 1.606-.7 2.62-.7.933 0 1.72.194 2.36.58a3.66 3.66 0 011.46 1.56c.333.654.5 1.387.5 2.2 0 .4-.053.854-.16 1.36h-6.46c.133.88.48 1.54 1.04 1.98.56.427 1.233.64 2.02.64 1.08 0 2.08-.273 3-.82l.12 2.1a6.727 6.727 0 01-1.5.56 7.91 7.91 0 01-1.84.2zm1.26-6.34c0-.52-.147-.98-.44-1.38-.293-.4-.747-.6-1.36-.6-.614 0-1.107.18-1.48.54-.374.36-.627.84-.76 1.44h4.04zm4.213-3.86h2.32l.06 1.06a4.223 4.223 0 011.12-.88 3.02 3.02 0 011.46-.38c.16 0 .306.014.44.04l-.18 2.44a3.42 3.42 0 00-.86-.1c-.414 0-.794.1-1.14.3-.347.187-.594.42-.74.7v6.82h-2.48v-10zm9.621 9.34l-4.16-9.34h2.76l2.56 6.44 2.6-6.44h2.76l-6.26 14.84h-2.48l2.22-5.5zm12.595-13.34h8.62v2.48h-6.06v2.98h4.68v2.48h-4.68v6.06h-2.56v-14zm14.244 14.2c-1.16 0-2.153-.233-2.98-.7-.813-.48-1.426-1.113-1.84-1.9-.4-.8-.6-1.686-.6-2.66 0-.933.194-1.786.58-2.56a4.485 4.485 0 011.68-1.84c.734-.466 1.607-.7 2.62-.7.934 0 1.72.194 2.36.58.654.387 1.14.907 1.46 1.56.334.654.5 1.387.5 2.2 0 .4-.053.854-.16 1.36h-6.46c.134.88.48 1.54 1.04 1.98.56.427 1.234.64 2.02.64 1.08 0 2.08-.273 3-.82l.12 2.1a6.7 6.7 0 01-1.5.56c-.56.134-1.173.2-1.84.2zm1.26-6.34c0-.52-.146-.98-.44-1.38-.293-.4-.746-.6-1.36-.6-.613 0-1.106.18-1.48.54-.373.36-.626.84-.76 1.44h4.04zm9.033 6.34c-1.16 0-2.153-.233-2.98-.7-.813-.48-1.426-1.113-1.84-1.9-.4-.8-.6-1.686-.6-2.66 0-.933.194-1.786.58-2.56a4.485 4.485 0 011.68-1.84c.734-.466 1.607-.7 2.62-.7.934 0 1.72.194 2.36.58.654.387 1.14.907 1.46 1.56.334.654.5 1.387.5 2.2 0 .4-.053.854-.16 1.36h-6.46c.134.88.48 1.54 1.04 1.98.56.427 1.234.64 2.02.64 1.08 0 2.08-.273 3-.82l.12 2.1a6.7 6.7 0 01-1.5.56c-.56.134-1.173.2-1.84.2zm1.26-6.34c0-.52-.146-.98-.44-1.38-.293-.4-.746-.6-1.36-.6-.613 0-1.106.18-1.48.54-.373.36-.626.84-.76 1.44h4.04z" fill="#707693"/><defs><clipPath id="clip0"><path fill="#fff" d="M628.08 730.604h152.287v146.413H628.08z"/></clipPath></defs></svg>