<svg width="1440" height="680" fill="none" xmlns="http://www.w3.org/2000/svg"><g clip-path="url(#clip0)"><path fill="#fff" d="M0 0h1440v680H0z"/><g clip-path="url(#clip1)"><path opacity=".56" d="M160.807 502.843h-8.284v110.171h8.284V502.843z" fill="#419D9A"/><path d="M1448.82 614.752H-9.013v70.462H1448.82v-70.462z" fill="#C2FEB6"/><path d="M745.623 515.277c1.737-6.017 4.276-11.766 7.349-17.381 3.073-5.482 6.547-10.83 10.555-15.644 4.008-4.947 8.685-9.359 13.628-13.236a77.86 77.86 0 0116.434-9.627c5.879-2.541 12.159-4.145 18.439-5.081 3.206-.535 6.413-.535 9.486-.802l4.81.134c.802 0 1.603 0 2.405.133l2.405.268c12.693 1.203 24.852 5.08 36.075 10.562-11.891-3.877-24.05-6.819-36.208-7.487l-2.272-.134h-6.814c-3.073.268-6.146.401-9.086 1.07-3.073.401-6.012 1.203-8.951 1.872l-4.276 1.337a56.803 56.803 0 00-4.276 1.738c-11.223 4.679-21.11 12.301-29.394 21.259-8.284 9.225-15.232 19.654-20.309 31.019z" fill="#419D9A"/><path opacity=".48" d="M-9.013 614.753V423.021h74.288v90.652l179.039-179.297 71.482 71.398v135.843H350v-52.546h39.95l63.465-63.509 36.61 36.501h188.391v-109.37h67.741v242.806l208.834-208.845 32.869 33.025v65.648h20.84V275.814h35.41v319.685h30.2v-83.297h39.28v97.069h63.46V285.44h34.88v100.011h32.86v69.793h29.93v140.255h33.94V398.153l29.8-29.816 31.53 31.42V599.51h107.29v30.217L-9.013 614.753z" fill="#E1EDFF"/><path d="M524.63 614.753s-22.981-24.602-17.369-6.418c0 0-24.05-38.774-34.873-19.922 0 0-3.741 10.028 3.207 18.184 0 0 .668 8.824-7.482 2.406-8.15-6.551-2.138 5.75-2.138 5.75s-19.24-9.493-14.163 0h72.818z" fill="#419D9A"/><path d="M1393.24 649.917s-20.85-22.195-15.77-5.883c0 0-21.78-35.164-31.53-18.05 0 0-3.34 9.091 2.94 16.445 0 0 .53 8.022-6.82 2.139-7.35-5.883-2 5.215-2 5.215s-17.37-8.557-12.83 0h66.01v.134zm-624.769 7.086s-20.844-22.195-15.767-5.883c0 0-21.778-35.164-31.532-18.05 0 0-3.34 9.092 2.94 16.446 0 0 .534 8.022-6.815 2.139-7.348-5.883-2.004 5.214-2.004 5.214s-17.369-8.557-12.826 0h66.004v.134zm377.589-43.186s-12.7-13.504-9.62-3.61c0 0-13.37-21.393-19.24-10.964 0 0-2.01 5.616 1.73 10.028 0 0 .4 4.947-4.14 1.337-4.54-3.61-1.2 3.209-1.2 3.209s-10.56-5.215-7.89 0h40.36zm-885.178 36.1s-14.698-15.777-11.09-4.145c0 0-15.499-24.869-22.313-12.836 0 0-2.405 6.418 2.004 11.633 0 0 .401 5.615-4.81 1.47-5.211-4.145-1.336 3.744-1.336 3.744s-12.292-6.15-9.086 0h46.631v.134z" fill="#59DD99"/><path d="M102.019 613.817s-16.167-17.248-12.159-4.546c0 0-16.968-27.276-24.584-14.039 0 0-2.539 7.086 2.271 12.835 0 0 .401 6.151-5.344 1.605-5.745-4.546-1.47 4.011-1.47 4.011s-13.495-6.685-10.02 0l51.306.134zm770.935.935h70.547c4.676-9.225-13.762 0-13.762 0s5.745-11.899-2.138-5.615c-7.883 6.284-7.215-2.273-7.215-2.273 6.547-7.755 3.073-17.515 3.073-17.515-10.421-18.184-33.67 19.253-33.67 19.253 5.345-17.515-16.835 6.15-16.835 6.15z" fill="#419D9A"/><path d="M616.021 614.752H358.686" stroke="#419D9A" stroke-miterlimit="10"/><path d="M559.637 577.182c-4.81-6.151-8.284-13.237-10.689-20.591-2.405-7.487-3.207-15.376-2.138-23.264 1.203-7.755 4.409-15.242 9.219-21.393l1.871-2.273c.668-.802 1.336-1.47 2.004-2.139 1.336-1.471 2.806-2.674 4.276-4.011 1.469-1.337 3.073-2.407 4.542-3.61l4.81-3.209c-6.279 4.546-12.025 9.761-16.567 16.045-4.543 6.15-7.616 13.37-8.685 20.991-1.069 7.621-.267 15.376 1.871 22.73a74.935 74.935 0 004.008 10.83c1.47 3.209 3.34 6.685 5.478 9.894z" fill="#000"/><path d="M650.759 562.608c.668-2.273 1.336-4.412 1.737-6.685.534-2.273.801-4.546.935-6.819.401-4.546.267-9.225-.802-13.638-.935-4.412-2.939-8.69-5.611-12.434a28.162 28.162 0 00-4.677-5.081c-1.737-1.604-3.607-2.941-5.478-4.278 4.142 2.139 8.017 4.947 10.956 8.69 2.94 3.61 5.078 8.023 6.146 12.702 1.069 4.68 1.203 9.359.535 14.039-.535 4.68-1.737 9.226-3.741 13.504zm-50.371 22.863a30.19 30.19 0 01-10.155-3.877c-3.206-1.872-6.012-4.278-8.283-7.22-2.272-2.941-4.276-6.15-5.345-9.627-.668-1.738-.935-3.61-1.336-5.348-.267-.936-.134-1.872-.267-2.674 0-.936-.134-1.872-.134-2.674.401 1.738.535 3.61 1.069 5.348.534 1.738.935 3.477 1.603 5.081 1.203 3.343 3.073 6.418 5.345 9.226 2.271 2.807 4.943 5.214 7.883 7.22l2.271 1.47c.802.401 1.604.936 2.405 1.204a74.553 74.553 0 004.944 1.871z" fill="#231F20"/><path d="M630.851 318.332l-7.215.668v7.22l18.572-5.081-11.357-2.807zm37.678 26.339s83.24 34.629 87.382 37.972c4.008 3.343.935 10.563-.668 13.103-1.603 2.54-43.29 69.66-43.29 69.66l-6.013-2.942-1.469-14.039s11.624-44.256 17.77-47.999l8.417-3.076-8.684.535-48.902-16.044-21.378-32.357c.134-.133 6.547-2.674 16.835-4.813z" fill="#223149"/><path d="M756.93 298.026c2.116-.314 3.033-5.958 2.046-12.605-.986-6.647-3.502-11.781-5.619-11.466-2.117.315-3.033 5.958-2.046 12.605.986 6.647 3.502 11.781 5.619 11.466z" fill="#3A4B6C"/><path d="M791.853 263.513l5.077 6.418c.668.936.267 2.273-.935 2.406-2.539.535-6.413 1.204-8.017.936-1.47-.267-.668-5.214.267-8.958.401-1.738 2.539-2.139 3.608-.802z" fill="#F9AF6B"/><path d="M787.978 253.619s1.336-14.841-11.892-13.504c-13.361 1.337-16.567-3.61-16.567-3.61s4.008 6.952 7.482 6.952c0 0-13.094 2.541-18.171-5.615 0 0 2.806 8.824 7.749 9.092 0 0-13.361 5.214-18.305-1.337 0 0 2.806 6.952 9.62 6.952 0 0-3.741 1.738-4.676 5.75 0 0 .935-1.471 3.207-1.471 0 0 1.469 2.941-1.069 3.476 0 0 1.069 1.203 2.939.936l4.142 8.022 6.948 9.493 28.593-25.136z" fill="#3A4B6C"/><path d="M764.863 248.404l-16.167 7.755 11.624 24.602 9.754-19.387-5.211-12.97z" fill="#3A4B6C"/><path d="M716.496 326.888l22.313 19.655s4.009-1.471 7.75 3.209l-10.689-.936-28.058-20.056 8.684-1.872z" fill="#E09558"/><path d="M623.636 322.209s3.474-13.504 30.731 26.473c0 0 11.357-5.214 18.839-2.139l62.397-27.811c1.736-.802 3.34-2.005 4.542-3.61 6.28-8.155 22.981-34.228-19.774-37.57l-88.718 38.239s-12.96 1.07-10.956 7.621l2.939-1.203z" fill="#419D9A"/><path d="M773.414 414.197l-53.979 69.66-17.636 1.47" stroke="#419D9A" stroke-miterlimit="10"/><path d="M701.799 499.099l18.973 11.632.4-2.54-14.964-13.103-4.409 4.011z" fill="#58DBD4"/><path d="M709.414 464.068l2.538 24.067 13.763 15.51-4.543 4.546-16.301-10.296 1.069-35.565 3.474 1.738z" fill="#231F20"/><path d="M752.571 353.629c0 1.07-.401 2.006-1.069 2.674-.267.268-.668.669-1.203.803l-14.43 10.295c.668-.669 1.203-1.738 1.203-2.808a3.879 3.879 0 00-3.875-3.877c-.534 0-1.202.133-1.603.401l14.563-10.295a3.649 3.649 0 012.539-1.07 3.879 3.879 0 013.875 3.877z" fill="#887878"/><path d="M606.534 371.278l84.041 140.924 4.142-1.471-79.365-139.453h-8.818z" fill="#58DBD4"/><path d="M826.591 614.753c42.283 0 76.56-34.301 76.56-76.612 0-42.312-34.277-76.613-76.56-76.613-42.282 0-76.559 34.301-76.559 76.613 0 42.311 34.277 76.612 76.559 76.612zm-228.074 0c42.283 0 76.559-34.301 76.559-76.612 0-42.312-34.276-76.613-76.559-76.613-42.282 0-76.559 34.301-76.559 76.613 0 42.311 34.277 76.612 76.559 76.612z" stroke="#3A4B6C" stroke-width="3" stroke-miterlimit="10"/><path d="M727.052 539.477l-41.687.402-69.077.668-27.658.267c-.4 0-.935 0-1.336-.133-4.409-.669-7.749-4.412-7.749-8.958 0-3.744 2.271-6.953 5.478-8.29.134 0 1.871-.267 4.676-.669 2.138-.267 4.81-.668 8.017-1.069h.134c7.348-.936 17.235-2.273 28.325-3.476h.535c24.183-2.808 53.711-5.482 74.154-5.349 1.737-.401 3.474-.668 5.344-.668 2.539 0 5.077.401 7.349 1.337 3.875 1.471 7.215 3.877 9.753 7.22.134.134.268.267.268.401 1.603 2.407 2.939 5.482 3.474 9.359.534 2.541.534 5.616 0 8.958z" fill="#419D9A"/><path d="M727.051 539.478l-.267 1.337h-.134l.401-1.337zm-.667 2.674l-.535 1.203-.401-.134.668-1.203.268.134zm-1.069 2.406l-.668 1.204-.535-.401.668-1.07.535.267zm-1.337 2.407l-.801 1.07-.802-.535.935-1.07.668.535zm-1.603 2.139l-.935 1.07-.935-.936.935-.802.935.668zm-2.004 2.006l-1.069.936-.802-1.204 1.069-.802.802 1.07zm-2.137 1.738l-1.203.669-.802-1.337 1.203-.669.802 1.337zm-2.405 1.471l-1.203.534-.668-1.738 1.069-.401.802 1.605zm-2.54 1.069l-1.336.402-.534-1.872 1.202-.401.668 1.871zm-2.671.803l-1.336.267-.401-2.139 1.336-.134.401 2.006zm-2.806.401l-1.336.133v-2.273h1.202l.134 2.14zm-2.806.133l-1.336-.133.267-2.407 1.203.134-.134 2.406zm-2.806-.267l-1.336-.268.535-2.406 1.202.267-.401 2.407zm-2.672-.669l-1.337-.401.802-2.406 1.203.401-.668 2.406zm-2.672-.935l-1.336-.669 1.202-2.273 1.069.535-.935 2.407zm-2.539-1.338l-1.203-.802 1.47-2.139 1.069.802-1.336 2.139zm-2.405-1.604l-1.069-.936 1.737-1.872.935.802-1.603 2.006zm-2.004-1.872l-1.069-1.069 2.004-1.739.935.936-1.87 1.872zm-2.005-2.139l-.801-1.07 2.271-1.604.668 1.069-2.138 1.605zm-1.469-2.273l-.668-1.337 2.271-1.204.668 1.07-2.271 1.471zm-1.336-2.54l-.535-1.338 2.539-.936.401 1.204-2.405 1.07z" stroke="#419D9A" stroke-width=".25" stroke-miterlimit="10"/><path d="M684.162 540.414v-.134l-.534-1.605h3.073v2.541h-1.336l1.202-1.605h.134l-2.539.803zm3.875-1.739h1.336v2.541h-1.336v-2.541zm2.672 0h1.336v2.407l-1.336.134v-2.541zm2.673 0h1.336v2.407h-1.336v-2.407zm2.672 0h1.336v2.273l-1.336.134v-2.407zm2.672 0h1.336v2.273h-1.336v-2.273zm2.672 0h1.336v2.14h-1.336v-2.14zm2.672.134h1.336v1.872l-1.336.134v-2.006zm2.672 0h1.336v1.872h-1.336v-1.872zm2.673 0l1.336.134v1.604h-1.336v-1.738zm2.672.134h1.336v1.47h-1.336v-1.47zm2.673 0l1.336.133v1.204h-1.336v-1.337zm2.672.133l1.336.134v.802l-1.336.134v-1.07zm2.672.134h1.336v.669l-1.336.133v-.802zm2.672.134h1.336v.401l-1.336.134v-.535zm2.672.134h1.336v.133h-1.336v-.133z" stroke="#419D9A" stroke-width=".25" stroke-miterlimit="10"/><path d="M727.052 539.477l-41.687.402-69.077.668-27.658.267c-.4 0-.935 0-1.336-.133-4.409-.669-7.749-4.412-7.749-8.958l146.037-5.348 1.47 3.877c.534 2.808.534 5.883 0 9.225z" fill="#2A7C78"/><path d="M588.63 540.948s81.235 18.318 111.565 13.772" stroke="#419D9A" stroke-miterlimit="10" stroke-dasharray="1 1"/><path d="M711.953 534.129l-13.361 2.273s5.879 2.273 10.555.535l2.806-2.808z" fill="#223149"/><path d="M700.329 564.881h-1.336l.668 6.017s36.743 7.487 50.238 5.883c0 0 5.344-.268 8.417-1.204v-2.807l-48.367-10.83-9.62 2.941z" fill="#58DBD4"/><path d="M614.684 356.571h-20.309l-4.943 9.225h34.204l-8.952-9.225z" fill="#887878"/><path d="M589.432 365.796l1.069 5.482h35.54l-2.405-5.482h-34.204z" fill="#6D5C5C"/><path d="M764.061 275.814s-.133 3.877-14.697 3.61l2.138 18.05s18.438-10.563 26.589-6.953l-14.03-14.707z" fill="#E09558"/><path d="M787.042 252.014c3.608 6.017 10.288 20.724 1.47 38.106a3.851 3.851 0 01-3.474 2.139c-4.276 0-13.628-.401-19.24-3.209-2.004-.936-3.474-2.807-4.142-4.947-.534-2.005-1.069-4.947-.133-7.888 0 0-6.948-.802-4.543-10.028 2.004-7.487 6.279-3.343 7.749-1.604.134.133.401 0 .401-.134-.534-3.61-1.603-17.783 16.568-15.911a7.256 7.256 0 015.344 3.476z" fill="#F9AF6B"/><path d="M721.306 275.814l-107.691 52.412c-3.607 1.871-6.948.133-8.551-4.413-1.87-5.214-3.34-13.637-1.069-26.74 1.47-7.488 5.345-14.173 9.62-16.847l19.24-11.365-.935 6.685s64.935-28.211 79.766-13.771c15.232 14.975 9.62 14.039 9.62 14.039z" fill="#3A4B6C"/><path d="M629.515 320.337s-42.756 9.359-12.293 42.117l63.867 86.773s-4.276 7.22-3.341 12.167c.802 4.814 20.844 75.008 20.844 75.008l13.361-2.273-8.284-98.539-49.436-86.908c.133 0-9.22-17.114-24.718-28.345z" fill="#3A4B6C"/><path d="M704.871 535.333l2.94 17.381s3.206 1.471 8.016-.936l-3.875-17.649-7.081 1.204z" fill="#F9AF6B"/><path d="M707.811 552.714l-2.939 1.07s-4.543 8.557-4.543 11.231c0 0 32.067 9.626 51.975 9.225l6.012-1.337s.268-3.075-6.68-3.209c0 0-29.796-12.3-30.196-13.504-.401-1.337-.268-4.011-2.94-4.145-2.672-.133-4.543 2.273-10.689.669z" fill="#223149"/><path d="M554.826 463.4c5.345-3.343 11.223-5.883 17.236-7.888 6.012-2.006 12.159-3.477 18.572-4.279 6.28-.802 12.827-.936 19.106-.267 6.414.668 12.693 2.273 18.706 4.546l2.271.935 1.069.402 1.069.534 4.276 2.14 4.142 2.54c.668.401 1.336.802 2.004 1.337l2.004 1.471 2.004 1.471c.668.534 1.203 1.069 1.871 1.604l3.607 3.209c2.271 2.273 4.543 4.546 6.547 7.086 8.15 9.761 14.296 21.125 18.572 32.891-5.879-11.097-12.559-21.66-20.977-30.752-2.004-2.406-4.409-4.412-6.547-6.551-1.202-1.07-2.405-2.006-3.607-2.942-.535-.534-1.203-.935-1.737-1.47l-1.871-1.337c-1.336-.803-2.405-1.872-3.741-2.541l-3.875-2.273-4.142-2.005-1.069-.535-1.068-.401-2.138-.802c-11.357-4.413-23.783-5.883-36.075-4.814-12.426.669-24.718 3.744-36.209 8.691z" fill="#419D9A"/><path d="M649.69 443.612l-64.534 79.955 71.081-68.992-6.547-10.963z" fill="#58DBD4"/><path d="M570.593 442.409s50.104 8.958 65.336-3.744l-65.336 3.744z" fill="#3A4B6C"/><path d="M715.828 515.277l73.085-86.907 3.608 6.016-69.211 86.239-7.482-5.348z" fill="#58DBD4"/><path d="M735.87 367.401l-.802.534m-3.474-6.818l-1.069.802" stroke="#887878" stroke-miterlimit="10"/><path d="M775.151 423.958l53.445 119.664 16.3-95.999-6.68-.802-11.624 81.425-45.428-106.16-6.013 1.872z" fill="#58DBD4"/><path d="M710.35 575.577l23.114 4.145" stroke="#59DD99" stroke-width="3" stroke-miterlimit="10"/><path d="M751.502 356.303l11.891 11.098-6.012 18.451 20.977 37.169" stroke="#419D9A" stroke-miterlimit="10"/><path d="M775.151 398.153h97.67L849.84 447.89s-31.265-5.615-49.035 0l-25.654-49.737z" fill="#887878"/><path d="M737.74 364.593c0 1.337-.534 2.54-1.469 3.342-.802.803-2.004 1.338-3.207 1.338-2.539 0-4.676-2.006-4.676-4.68 0-1.337.534-2.407 1.336-3.209.401-.401.801-.669 1.336-.936.534-.267 1.202-.401 2.004-.401 2.672-.134 4.676 2.006 4.676 4.546z" fill="#594747"/><path d="M738.141 281.429l14.43-6.952s-4.81 18.183 4.81 23.799h-8.952c0-.134-4.81-10.696-10.288-16.847z" fill="#419D9A"/><path d="M787.978 253.619l-16.969 1.872 2.673 9.359-4.543 3.343v5.08h-1.604l-3.473-10.295.801-14.574 11.624-1.069h9.62l1.871 6.284z" fill="#3A4B6C"/><path d="M716.763 279.29c5.077.134 10.021.936 14.831 2.942 2.405 1.069 4.676 2.54 6.413 4.947.401.534.802 1.203.935 2.005.134.268.134.802.267 1.203.134.402 0 .803 0 1.204-.133 1.604-.668 2.941-1.336 4.145-1.336 2.406-3.206 4.412-5.211 6.016-2.004 1.738-4.142 3.209-6.413 4.546-4.543 2.674-9.353 4.546-14.296 5.883-4.944 1.337-10.021 2.273-15.098 2.674a96.582 96.582 0 01-15.232 0c-5.077-.401-10.021-1.203-14.964-2.273-4.944-1.069-9.754-2.54-14.43-4.278 4.943.802 9.887 1.738 14.83 2.273 4.944.535 9.888.936 14.831 1.069 4.944 0 9.887-.133 14.697-.668 4.81-.535 9.754-1.337 14.43-2.674 4.677-1.337 9.22-3.075 13.495-5.348 2.138-1.07 4.142-2.407 6.013-3.878 1.87-1.471 3.607-3.075 4.81-4.947.534-.936 1.069-1.872 1.202-2.808v-1.337a6.494 6.494 0 00-.534-1.47c-1.069-1.872-2.94-3.343-5.078-4.546-4.409-2.407-9.219-3.744-14.162-4.68z" fill="#C2FEB6"/><path d="M689.239 297.34s20.844 7.086 24.317 18.585c0 0 33.537-16.312 17.103-27.811-16.434-11.498-30.33.535-41.42 9.226z" fill="#58DBD4"/><path d="M716.266 314.649c1.745-2.74-2.895-8.821-10.364-13.583-7.468-4.761-14.936-6.399-16.681-3.659-1.744 2.741 2.896 8.822 10.364 13.583 7.468 4.761 14.937 6.399 16.681 3.659z" fill="#3A4B6C"/><path d="M696.454 297.073c-.802-.402-1.737-.268-2.405.401L667.46 319s-1.736 2.006 0 4.011c1.737 1.872 51.04 29.816 62.53 31.955.268 0 .535.401.802.535 2.004 1.07 10.422 5.883 8.685 10.295 0 0 6.146-.668 6.814-4.546.668-3.877 1.603-12.568-10.822-13.37 0 0-35.007-22.462-47.967-27.944 0 0 14.697-2.139 23.115-9.894-.134 0 1.737-6.017-14.163-12.969z" fill="#F9AF6B"/><path d="M617.357 397.618l16.3 1.203c.535 0 .936.268 1.069.802l2.004 4.413c.401.936-.267 1.872-1.202 1.872h-12.693c-.401 0-.668-.134-.935-.402l-5.746-5.615c-.668-.936 0-2.407 1.203-2.273z" fill="#419D9A"/><path d="M623.369 407.512h13.628" stroke="#419D9A" stroke-miterlimit="10"/><path d="M638.333 409.384h-13.628" stroke="#3A4B6C" stroke-width=".5" stroke-miterlimit="10"/><path d="M626.71 518.219l-10.422 22.462-28.994.133c-4.409-.668-7.749-4.412-7.749-8.958 0-3.743 2.271-6.952 5.478-8.289.134 0 1.871-.268 4.676-.669 2.138-.267 4.81-.668 8.017-1.069h.134l28.325-3.477.535-.133zm1.603-.134l-8.551 20.055 13.762-20.724-5.211.669z" fill="#58DBD4"/><path d="M635.661 517.149l-10.154 15.108 13.361-15.376-3.207.268z" fill="#B3FDFF"/><path d="M775.151 398.153h97.804" stroke="#FFFFE1" stroke-width="4" stroke-miterlimit="10"/><path d="M802.675 400.96l-1.87 46.93-24.184-46.93h26.054z" fill="#635353"/><path d="M849.84 447.89v-46.93h21.779l-21.779 46.93z" fill="#B2A3A3"/><path d="M720.37 556.859c-.401.267-.801.401-1.202.668l-.134-.267c.535-.134.935-.267 1.336-.401z" fill="url(#paint0_linear)"/><path d="M717.965 558.062c-.401.134-.802.268-1.336.401l-.134-.534c.401-.134.802-.134 1.336-.268l.134.401z" fill="url(#paint1_linear)"/><path d="M715.427 558.731l-1.336.133-.134-.668 1.336-.134.134.669z" fill="url(#paint2_linear)"/><path d="M712.754 558.998h-1.336v-.535h1.336v.535z" fill="url(#paint3_linear)"/><path d="M710.082 558.731c-.401 0-.935-.134-1.336-.268v-.133h1.336v.401z" fill="url(#paint4_linear)"/><path d="M701.799 563.812l1.336.267v.267l-1.336-.534z" fill="url(#paint5_linear)"/><path d="M704.471 564.346l1.203.268v.534l-1.336-.401.133-.401z" fill="url(#paint6_linear)"/><path d="M707.01 564.881l1.336.268-.134.668-1.336-.401.134-.535z" fill="url(#paint7_linear)"/><path d="M709.682 565.55l1.203.267-.134.803-1.336-.402.267-.668z" fill="url(#paint8_linear)"/><path d="M712.22 566.084l1.336.268-.267.936-1.336-.268.267-.936z" fill="url(#paint9_linear)"/><path d="M714.892 566.619l1.203.268-.267 1.203-1.203-.401.267-1.07z" fill="url(#paint10_linear)"/><path d="M717.431 567.154l1.336.401-.267 1.07-1.336-.268.267-1.203z" fill="url(#paint11_linear)"/><path d="M720.103 567.823l1.203.267-.267 1.203-1.203-.267.267-1.203z" fill="url(#paint12_linear)"/><path d="M722.642 568.357l1.336.268-.267 1.337-1.336-.401.267-1.204z" fill="url(#paint13_linear)"/><path d="M725.314 568.892l1.202.268-.267 1.337-1.202-.268.267-1.337z" fill="url(#paint14_linear)"/><path d="M727.853 569.427l1.336.401-.267 1.203-1.336-.267.267-1.337z" fill="url(#paint15_linear)"/><path d="M730.525 570.095l1.203.268-.134 1.203-1.336-.267.267-1.204z" fill="url(#paint16_linear)"/><path d="M733.064 570.63l1.336.268-.267 1.203-1.336-.267.267-1.204z" fill="url(#paint17_linear)"/><path d="M735.736 571.165l1.336.267-.267 1.07-1.336-.267.267-1.07z" fill="url(#paint18_linear)"/><path d="M738.274 571.7l1.336.134-.133 1.069-1.336-.267.133-.936z" fill="url(#paint19_linear)"/><path d="M740.947 572.101l1.336.267-.133.803-1.337-.134.134-.936z" fill="url(#paint20_linear)"/><path d="M743.619 572.502l1.336.268-.133.668-1.337-.133.134-.803z" fill="url(#paint21_linear)"/><path d="M746.292 572.903l1.202.134v.401h-1.336l.134-.535z" fill="url(#paint22_linear)"/><path d="M748.83 573.171h1.336v.134l-1.336.133v-.267z" fill="url(#paint23_linear)"/><path d="M882.308 531.188c1.469 7.621 1.336 15.509.133 23.264-1.336 7.755-4.142 15.242-8.685 21.66-4.676 6.418-10.822 11.499-18.037 14.841l-2.672 1.204c-.936.401-1.871.668-2.806 1.069-1.871.669-3.741 1.204-5.612 1.738-1.87.535-3.875.803-5.745 1.204-1.871.267-3.875.534-5.745.668 7.616-1.203 15.231-3.209 22.046-6.685 6.814-3.476 12.96-8.423 17.369-14.707 4.409-6.284 7.215-13.504 8.685-21.126.801-3.743 1.202-7.621 1.336-11.498.401-3.877.267-7.755-.267-11.632zm-87.783-28.613c-1.603 1.605-3.206 3.343-4.676 5.215-1.47 1.738-2.806 3.743-4.008 5.615-2.405 3.878-4.41 8.156-5.479 12.568-1.202 4.413-1.336 9.092-.668 13.504.401 2.273.936 4.546 1.871 6.686.802 2.139 1.871 4.278 2.939 6.284a33.546 33.546 0 01-5.879-12.702c-.935-4.68-.801-9.493.401-14.039 1.203-4.546 3.341-8.958 6.013-12.702 2.672-4.011 5.879-7.621 9.486-10.429z" fill="#231F20"/><path d="M849.84 505.115c2.939 2.273 5.344 5.081 7.215 8.156 2.004 3.076 3.34 6.552 4.142 10.162.801 3.61.935 7.354.267 10.964-.134 1.871-.802 3.61-1.202 5.348-.268.936-.669 1.738-1.069 2.54-.401.802-.668 1.605-1.069 2.54.401-1.738 1.069-3.476 1.469-5.214.268-1.738.802-3.476.936-5.348.401-3.61.133-7.086-.535-10.563-.668-3.476-2.004-6.819-3.741-9.894l-1.336-2.273c-.534-.668-.935-1.471-1.603-2.273-1.069-1.47-2.138-2.807-3.474-4.145z" fill="#000"/><path opacity=".67" d="M1044.11 168.851c33.72 0 61.06-27.357 61.06-61.103s-27.34-61.103-61.06-61.103-61.06 27.357-61.06 61.103 27.34 61.103 61.06 61.103z" fill="#FFF200"/><path d="M768.471 275.814s8.016 2.139 10.956 10.83l-10.956-10.83z" fill="url(#paint24_linear)"/><path d="M797.197 271l-4.409 1.739c.134.133 4.543.133 4.409-1.739z" fill="url(#paint25_linear)"/><path d="M759.652 266.053c.802-.133 1.47 0 2.272.268.668.267 1.47.668 1.87 1.337.401.668.535 1.471.535 2.273 0 .401-.134.802-.134 1.203l-.267 1.07c.134-.802.134-1.471.134-2.273 0-.669-.268-1.471-.669-2.006-.4-.668-.935-1.069-1.603-1.337-.668-.401-1.47-.535-2.138-.535z" fill="url(#paint26_linear)"/><path d="M761.79 273.541c1.328 0 2.405-1.317 2.405-2.942 0-1.624-1.077-2.941-2.405-2.941-1.328 0-2.405 1.317-2.405 2.941 0 1.625 1.077 2.942 2.405 2.942z" fill="url(#paint27_linear)"/><path opacity=".19" d="M402.243 140.773a2299.704 2299.704 0 01-312.516 2.407c18.438-.535 36.743-.803 55.181-1.337-1.336-2.006-2.672-4.011-4.142-6.017 7.215-6.418 16.969-10.295 26.589-10.563-3.073-8.156.801-18.451 8.551-22.462 7.749-4.01 18.438-1.471 23.382 5.749 9.085-9.091 23.782-12.167 35.807-7.353-17.102-6.82 7.75-22.997 13.762-25.003 12.426-4.278 34.606-.936 45.295 7.22 4.676 3.61 5.878 12.167.668 14.975 7.749-1.07 15.498-2.407 23.382-3.476 3.473 6.15 2.672 14.573-2.005 20.055 5.078-2.406 12.025.268 13.896 5.616 5.211-4.546 11.891-8.825 18.572-7.22 6.68 1.738 9.353 12.969 2.806 15.242 1.336-4.546 8.016-6.418 11.49-3.209 3.474 3.343 2.004 10.162-2.538 11.766 15.098 2.006 30.196 4.011 45.294 5.883" stroke="#3A4B6C" stroke-width=".75" stroke-miterlimit="10"/><path opacity=".26" d="M834.074 149.062c-89.52 5.75-179.306 5.482-268.692-1.069 15.766-.134 31.666-.401 47.432-.535l-3.608-5.214c6.28-5.482 14.564-8.691 22.981-8.825-2.538-7.086.802-15.777 7.483-19.253 6.68-3.477 15.766-1.07 20.041 5.214 7.082-6.819 25.921-14.039 29.395.401-.936-6.016 4.543-11.899 10.555-12.702 6.013-.802 12.159 2.675 15.632 7.755 3.608 5.081 4.81 11.231 4.944 17.382 1.203-5.348 6.681-9.359 12.025-8.958 5.345.534 10.155 5.348 10.422 10.83-1.336-6.151.668-13.103 5.478-17.248 4.81-4.011 12.292-4.813 17.637-1.203 5.344 3.61 7.615 10.963 4.809 16.712 5.612-3.342 10.021-9.359 17.37-7.487 5.745 1.471 7.883 11.231 2.271 13.103 1.203-3.877 6.948-5.482 9.888-2.674 2.939 2.808 1.603 8.691-2.272 10.028l38.881 5.615M610.276 29.13c-.669-8.557-8.552-24.066-19.24-22.328-4.944.802-8.819 4.68-11.09 9.092-2.272 4.412-3.073 9.359-3.741 14.306 1.336-8.958-6.146-18.317-15.232-18.852-15.499-.936-20.309 15.643-12.827 26.473-2.137-3.075-6.947-3.744-9.753-1.47-2.94 2.272-3.341 7.086-.936 9.894-1.469-2.273-5.077-2.54-7.081-.669-2.004 1.872-1.737 5.482.401 7.086-9.353 2.674-18.839 5.482-28.192 8.156 7.482-2.14 16.568-1.07 24.184-.936 9.62.268 19.373.401 28.993.268 17.37-.134 34.605-1.337 51.841-2.14 7.082-.4 14.698 2.006 21.913 2.54 8.551.67 17.235.803 25.653-.935a92.664 92.664 0 01-33.67-4.279c2.538-1.07 2.271-5.214.133-6.952-2.271-1.738-5.21-1.738-8.15-1.738 2.94.534 6.28-.803 7.75-3.477 1.469-2.674.4-6.417-2.272-7.888-2.672-1.471-6.547.133-7.215 3.075-.534-2.54-1.202-5.08-2.138-7.621.134-.535.134-1.203.268-1.738" stroke="#3A4B6C" stroke-width=".75" stroke-miterlimit="10"/><path d="M599.987 104.941c-2.806-1.07-5.879-1.872-8.418-3.076-2.004-1.069-3.34-2.273-5.879-1.604-2.672.668-8.417 7.354-11.223 6.017 3.741 1.738 8.685.534 11.09-2.808-.268 1.069.801 2.273 2.004 2.273 1.202 0 2.004-1.337 1.737-2.407 2.939 2.139 7.081 2.808 10.689 1.605z" fill="#3A4B6C"/><path d="M270.101 112.963c-1.202-1.739-.267-4.012-2.806-5.349-2.405-1.203-2.004.268-3.874.803-2.94.668-6.147-3.076-9.353-.803-2.138 1.471-1.604 4.814-2.672 6.686 1.736-3.209 5.478-5.215 9.085-4.947.134 1.069.935 2.005 1.871 2.54 0-1.738 2.271-2.808 3.874-2.273 1.737.401 2.94 2.005 3.875 3.343z" fill="url(#paint28_linear)"/><path d="M223.337 136.227c.268-1.337 1.871-2.273 3.341-2.273 1.469-.134 2.806.401 4.142.802 2.806.669 5.879.669 8.818.134-.935 1.604-2.939 2.407-4.81 2.273-1.871-.134-3.607-.802-5.344-1.471.668 1.07-.535 2.407-1.737 2.407-1.203 0-2.272-.802-3.207-1.471-2.405 3.343-6.146 5.482-10.288 5.883 1.737-2.005 4.008-3.744 6.413-4.947 2.138-1.07 3.341-2.808 5.746-3.209" fill="url(#paint29_linear)"/><path d="M253.4 118.311c-5.345 4.813-11.09 6.284-17.904 4.546-2.004-.535-3.875-1.337-5.612-2.273-.802-.535-4.142-2.407-4.142-3.343.134 2.942 1.737 5.749 4.276 7.22 2.538 1.471 4.142 1.07 6.814.134.267.535.401 1.203.802 1.604.4.401 1.068.803 1.603.535.668-.134 1.069-.936 1.737-1.069.668-.134 1.202.133 1.87.133 1.604 0 3.073-.535 4.543-1.203 1.336-.669 2.672-1.605 3.741-2.674.802-.936 1.336-2.808 2.272-3.61z" fill="url(#paint30_linear)"/><path d="M1008.7 135.96c-4.27 5.08-9.35 7.22-15.897 6.551-1.87-.134-3.741-.668-5.478-1.337-.801-.267-4.142-1.604-4.275-2.54.534 2.674 2.405 4.947 4.943 6.016 2.539 1.07 4.009.402 6.28-.802.267.535.535 1.07 1.069 1.337.401.401 1.069.535 1.603.268.535-.268.802-.936 1.337-1.204.534-.267 1.202 0 1.738-.133 1.47-.268 2.8-.936 4.01-1.605 1.2-.802 2.27-1.872 3.07-2.941.67-1.07.8-2.674 1.6-3.61z" fill="#3A4B6C"/><path opacity=".26" d="M1203.78 123.525c-.67-9.627-7.35-18.184-16.04-22.462-8.68-4.145-18.97-4.145-28.06-1.07-6.54 2.273-12.82 6.284-16.16 12.301-3.34 6.15-3.21 14.44 1.73 19.387-2-2.808-6.54-3.61-9.21-1.337-2.81 2.139-3.21 6.685-.81 9.359-1.47-2.139-4.81-2.406-6.68-.668s-1.6 5.214.4 6.685c-8.81 2.54-17.63 5.214-26.58 7.755 7.08-2.14 15.63-1.07 22.84-.802 9.09.267 18.17.267 27.39.267 16.44-.134 32.6-1.203 48.9-2.006 6.69-.267 13.9 1.872 20.71 2.407 8.02.669 16.17.802 24.19-.936a85.718 85.718 0 01-31.8-4.011c2.4-1.07 2.14-4.947.13-6.551-2.14-1.605-4.94-1.605-7.61-1.605 2.8.535 6.01-.802 7.21-3.343 1.34-2.54.4-6.15-2.14-7.487-2.54-1.337-6.14.134-6.81 2.942a33.179 33.179 0 00-2-7.087c.13-.535.13-1.069.26-1.604" stroke="#3A4B6C" stroke-width=".75" stroke-miterlimit="10"/><path d="M1113.59 91.303c-1.47-1.337-.94-3.61-3.61-4.279-2.4-.668-1.74.669-3.34 1.47-2.54 1.204-6.15-1.604-8.68 1.07-1.74 1.739-.54 4.68-1.07 6.552.93-3.209 3.87-5.883 7.35-6.284.4.936 1.2 1.604 2.13 1.872-.4-1.605 1.47-3.075 3.08-2.808 1.6.134 2.94 1.203 4.14 2.407z" fill="#3A4B6C"/><path opacity=".24" d="M178.845 386.52l58.789-58.829" stroke="#6FAB65" stroke-miterlimit="10"/><path opacity=".33" d="M324.748 404.971v121.537m79.766-64.178l49.97-50.005 38.48 39.844h39.549" stroke="#6FAB65" stroke-miterlimit="10"/><path d="M761.122 278.22s-8.952 9.895-1.603 15.376c0 0 6.413-2.807 9.753-3.209-.133 0-9.219-.935-8.15-12.167z" fill="url(#paint31_linear)"/><path d="M710.484 310.042s-14.03-7.354-24.05-6.418l7.615-6.15s1.069-1.07 3.608.133c-.134 0 13.227 4.947 12.827 12.435z" fill="url(#paint32_linear)"/><path opacity=".36" d="M689.506 301.084l-31.532 19.253s-2.271 3.075 1.069 5.081c3.34 1.872 26.321 15.643 26.321 15.643l7.482-3.342-25.118-14.307s-2.673-2.273-.535-4.546" fill="url(#paint33_linear)"/><path opacity=".36" d="M635.795 317.396c2.271 1.604 4.409 3.476 6.547 5.348a62.632 62.632 0 015.745 6.15c1.737 2.139 3.474 4.412 4.81 6.953 1.336 2.54 2.539 5.08 2.94 7.888l-.802-2.005c-.267-.669-.668-1.204-.935-1.872-.268-.669-.668-1.204-.936-1.872-.4-.669-.668-1.203-1.068-1.738-1.47-2.273-3.207-4.546-4.944-6.685a122.628 122.628 0 00-5.478-6.284c-.935-1.07-1.871-2.006-2.806-3.076-1.203-.802-2.138-1.872-3.073-2.807z" fill="url(#paint34_linear)"/><path opacity=".36" d="M655.703 334.376c.535.668.935 1.604 1.203 2.407.267.802.534 1.738.668 2.54.133.936.133 1.738.133 2.674-.133.936-.401 1.872-.935 2.54 0-1.738-.267-3.342-.534-5.08-.134-1.605-.401-3.209-.535-5.081z" fill="url(#paint35_linear)"/><path opacity=".36" d="M738.943 282.365c.401 1.471.802 2.942 1.336 4.412.535 1.471.935 2.808 1.737 4.145.668 1.337 1.47 2.541 2.405 3.744.935 1.07 2.138 2.006 3.474 2.808-1.47-.268-2.94-1.07-4.142-2.139-1.203-1.07-2.138-2.407-2.806-3.878-.668-1.471-1.202-2.941-1.47-4.412-.4-1.605-.668-3.075-.534-4.68z" fill="url(#paint36_linear)"/><path d="M724.646 284.905s-29.127 4.546-16.301 13.638c0 0-8.15-4.813-14.296-4.947 0 0 16.568-14.841 30.597-8.691z" fill="url(#paint37_linear)"/><path d="M637.398 326.889s-5.478-6.017-8.417-6.418c-2.94-.401-19.775 6.685-22.046 16.178-2.138 9.359 1.737 14.574 5.344 19.922l68.943 92.656s5.746 2.942 10.689-.802c0 0-4.81.669-7.215-1.604-2.538-2.273-76.158-104.289-47.298-119.932z" fill="url(#paint38_linear)"/><path d="M684.563 446.821s-4.142 15.242 17.236 81.425l7.215-.668-11.892 3.61-11.223-39.978-7.482-27.275c0 .134-3.741-12.167 6.146-17.114z" fill="url(#paint39_linear)"/><path d="M669.732 361.518l18.973 7.086 18.973 7.22 37.946 14.44.668.268-.535.401-3.474 2.139-.133-.535h5.077l-.401.535c-3.741 4.412-7.349 9.092-10.822 13.771-3.474 4.68-6.815 9.493-10.021 14.307-1.604 2.406-3.073 4.947-4.677 7.353-1.469 2.541-2.939 5.081-4.275 7.621-2.672 5.215-5.077 10.429-6.414 16.179 1.203-5.75 3.608-11.098 6.28-16.312 2.539-5.215 5.612-10.295 8.819-15.109a276.576 276.576 0 0110.02-14.44c3.474-4.679 7.082-9.359 10.823-13.771l.267.535h-5.478l.935-.535 3.474-2.139v.534l-37.945-14.707-18.973-7.354-19.107-7.487z" fill="#000"/><path opacity=".37" d="M701.799 438.665c-.802 1.604-1.47 3.209-2.272 4.813-.668 1.605-1.469 3.209-2.004 4.813-.668 1.605-1.202 3.343-1.737 4.948-.534 1.738-.935 3.342-1.069 5.214-.133-1.738.134-3.61.535-5.348s.935-3.476 1.603-5.081c.668-1.604 1.336-3.209 2.272-4.813.801-1.605 1.736-3.075 2.672-4.546zm0 1.872c-1.202 3.476-2.138 6.952-2.939 10.562-.802 3.61-1.47 7.086-1.871 10.696-.401 3.61-.668 7.22-.802 10.83-.133 3.61.134 7.221.401 10.964-.267-1.872-.534-3.61-.668-5.482-.134-1.872-.267-3.61-.267-5.482-.134-3.61.133-7.353.534-10.963a77.101 77.101 0 012.004-10.83c1.069-3.476 2.138-6.953 3.608-10.295zm-68.81-91.855l7.082 11.098 7.081 11.231 14.163 22.462 14.029 22.596 6.948 11.231 6.948 11.365-7.215-11.231-7.082-11.231-14.163-22.329-13.895-22.596-7.082-11.231-6.814-11.365z" fill="#CFE3FF"/><path opacity=".37" d="M698.993 529.048s5.077-1.604 10.021-1.47" stroke="#CFE3FF" stroke-width=".5" stroke-miterlimit="10"/><path d="M653.565 449.762l2.672 4.814-68.141 66.049" fill="#2A7C78"/><path d="M723.31 520.625l69.21-86.239" stroke="#2A7C78" stroke-miterlimit="10"/><path opacity=".36" d="M714.358 264.583s-103.282 50.673-111.432 47.331c0 0-.534 16.98 9.219 17.515l110.096-53.482c-.134.134-.134-4.278-7.883-11.364z" fill="url(#paint40_linear)"/><path opacity=".36" d="M604.529 323.145s109.695-45.459 115.173-52.679c0 0 2.672 3.877 2.405 5.615l-110.096 53.482c0-.134-6.012-.803-7.482-6.418z" fill="url(#paint41_linear)"/><path d="M641.941 276.081s-2.004 8.557-1.336 19.655l1.336-19.655z" fill="url(#paint42_linear)"/><path d="M632.855 269.262s15.766-6.418 19.908-1.604l-20.709 8.289.801-6.685z" fill="url(#paint43_linear)"/><path d="M603.728 356.972c-3.474.267-6.948.401-10.422.535-3.474.133-6.948.133-10.422.133s-6.947 0-10.421-.133l-5.211-.134c-1.737-.134-3.474-.134-5.211-.267 1.737-.134 3.474-.268 5.211-.268l5.211-.133c3.474-.134 6.947-.134 10.421-.134 3.474 0 6.948 0 10.422.134 3.474-.134 6.948-.001 10.422.267z" fill="#887878"/><path opacity=".33" d="M1060.54 275.948v307.251" stroke="#6FAB65" stroke-miterlimit="10"/><path d="M158.135 502.843c30.402 0 55.047-24.663 55.047-55.086 0-30.424-24.645-55.086-55.047-55.086-30.402 0-55.048 24.662-55.048 55.086 0 30.423 24.646 55.086 55.048 55.086z" fill="#C8DB5A"/><path d="M156.665 496.425v-34.496l33.136-33.158m-56.785 28.88l23.248 23.264" stroke="#fff" stroke-miterlimit="10"/><path d="M787.978 253.619c.267-1.605.668-3.209.801-4.947.134-.803.134-1.605.134-2.407s-.134-1.604-.668-2.407c.534.669.802 1.471.935 2.273.134.803 0 1.738 0 2.541a29.755 29.755 0 01-1.202 4.947zm-22.314-10.028c-3.34 0-6.68-.535-9.753-1.604-1.604-.535-3.073-1.204-4.409-2.273-1.336-.936-2.539-2.273-3.207-3.744.802 1.471 2.004 2.54 3.474 3.476 1.336.936 2.939 1.605 4.409 2.14 1.603.534 3.207.935 4.81 1.337 1.47.401 3.073.534 4.676.668z" fill="#3A4B6C"/><path d="M657.573 289.318c0 .134.134.267.134.535.133.133.134.401.267.534-.133-.133-.134-.401-.267-.534 0-.134 0-.401-.134-.535zm-20.843.535c-3.607 3.476-7.348 6.952-11.09 10.429-.935.935-1.336.802-1.87-.402l-.802-2.406c-.267-.669-.133-1.204.401-1.605 2.672-2.406 5.344-4.679 7.883-7.086.267-.267.802-.401.535-.936-.134-.535-.669-.267-1.069-.401-3.608-.134-7.082-.401-10.689-.535-.802 0-1.203-.267-1.336-1.069-.268-.803-.668-1.739-.936-2.541-.267-.936 0-1.337.936-1.203l17.235 1.203c.535 0 .802.268.936.802.133.535.401 1.204.668 1.739 1.202 2.807 1.47 1.871-.802 4.011zm40.752-15.376c-.535-.268-.668-.535-.134-1.07.535-.535.668-1.337.668-2.139-.267-2.407-2.271-3.744-4.676-3.075-1.603.535-3.073 1.069-4.676 1.604-.535.134-.535.401-.401.802.935 2.674 2.004 5.482 2.939 8.156.134.535.401.535.935.401 2.005-.668 2.005-.668 1.337-2.674-.134-.267-.535-.668 0-1.069.4-.268.935-.268 1.336.133.534.535 1.202.936 1.87 1.471.267.268.535.268.935.134.802-.268 1.604-.535 2.539-.936-.935-.535-1.87-1.203-2.672-1.738zm-2.405-2.942c.133.535 0 1.07-.535 1.204l-2.004.802c-.267.134-.401 0-.401-.268-.133-.267-.133-.401-.267-.668-.133-.401-.267-.669-.267-.802 0 0 0-.134.134-.134h.534c.134 0 .401-.134.668-.267.134 0 .134 0 .267-.134.268-.134.535-.134.802-.267h.267c.267-.268.668 0 .802.534zm-16.835 5.883c.267.936.668 1.872.935 2.808.534 1.872-.134 3.476-1.737 4.546-.802.535-1.737.802-2.672.936-2.004.267-3.608-.535-4.276-2.407a246.777 246.777 0 01-2.004-5.482c-.133-.401-.134-.534.267-.802 2.138-.936 2.138-.936 2.806 1.203.401 1.204.802 2.273 1.203 3.343.534 1.203 1.336 1.604 2.405 1.203 1.069-.401 1.469-1.203.935-2.54-.535-1.604-1.069-3.075-1.603-4.68-.268-.534-.134-.802.4-.936 2.005-.668 2.005-.668 2.673 1.204l.668 1.604zm-17.637 25.137c.668 2.005.668 2.005-1.47 1.871-2.538-.133-5.211-.401-7.749-.534-1.871-.134-1.47.133-2.138-1.739-.668-.802-.134-1.47.668-2.273 2.271-2.005 4.276-4.011 6.547-6.016.668-.669.935-.535 1.202.267.802 2.273.936 1.605-.801 3.075-1.203 1.07-2.539 2.273-3.741 3.343-.134.134-.535.267-.401.535.133.401.401.267.668.267 2.004.134 3.875.268 5.879.268.801 0 1.069.267 1.336.936zm8.284-15.376c-.668.668-1.47 1.203-2.138 1.337-1.603.535-3.073.668-4.542.267-.535-.134-.668-.267-.401-.802 0-.134.133-.268.133-.401.401-1.204.401-1.204 1.871-1.07.802.134 1.603 0 2.405-.401.401-.134.802-.401.668-.802s-.534-.535-.935-.535c-.802 0-1.737.134-2.539.134-1.737 0-2.806-.535-3.207-1.872-.4-1.471.134-2.808 1.47-3.61 1.47-.936 3.073-1.203 4.81-.936.535.134.802.267.535.936 0 .134-.134.267-.134.401-.134.936-.401 1.337-1.47 1.07-.668-.134-1.336 0-2.004.267-.267.134-.534.401-.534.802s.4.535.801.535c.668 0 1.203-.134 1.871-.134.534 0 1.069-.133 1.603 0 1.069.134 2.004.535 2.405 1.605.267 1.203.134 2.273-.668 3.209zm14.297-15.243c-1.337.402-2.673.936-4.009 1.337-.534.134-.534.402-.401.936.535 1.337.936 2.674 1.47 4.011.535 1.338.935 2.808 1.47 4.145.133.268.133.669.534.401.668-.267 1.604-.267 2.138-.936.267-.401-.267-1.069-.401-1.738 0-.133-.133-.267-.133-.401-.268-.401 0-.668.4-.802.535-.267 1.203-.401 1.737-.802 1.336-.669 2.138-1.738 2.005-3.343-.134-2.273-2.272-3.61-4.81-2.808zm1.603 4.546c-.535.401-1.336.936-1.871.669-.668-.401-.801-1.337-.801-2.139-.134-.402.668-.402.801-.535.401-.134.668-.268 1.069-.268.535 0 .935.268 1.069.803.267.534.267 1.069-.267 1.47zm-15.767 15.911c-.935-1.471-2.672-1.738-5.077-.401-.935.535.267 1.471.267 2.139 0 .134.134.401.134.535l.668 2.006c.134.267.134.534.534.401.802-.401 1.871-.535 2.539-1.07 1.336-.936 1.603-2.273.935-3.61zm-1.469 2.273c-.268.401-.669.669-1.203.669-.534-.134-.401-.803-.668-1.07 0-.134-.134-.267-.134-.267 0-.402-.668-.936-.133-1.204.534-.401 1.336-.401 1.87.268.535.401.668 1.069.268 1.604zm4.409-5.348c-.401-.401-1.603 0-1.603.535l-.401 5.615c1.203-.401 1.202-.401 1.603-1.337.134-.401 1.871-1.069 2.138-.802.668.936 1.336.134 2.138 0-1.336-1.337-2.539-2.674-3.875-4.011zm.535 2.941c0 .134-.535.268-.668.268-.535-.401 0-.802-.134-1.337.267.401.935.535.802 1.069zm12.292-5.615c-.268.936-.268 1.872.133 2.808.267.534.134.802-.401.936-.401.133-.935.401-1.069-.402-.133-1.203-1.202-1.871-2.137-2.54-.401-.401-.936-.668-1.336-1.07 1.469-1.337 2.137 0 3.073.669.267-.669.267-1.337.4-1.872.268-.668.936-.535 1.604-.802.133.802 0 1.471-.267 2.273z" fill="#fff"/><path d="M662.383 290.388c.134.534 0 .668-.534.935-.935.268-1.871.669-2.672.936-.401.134-.535 0-.668-.401a6.481 6.481 0 00-.535-1.47c-.133-.134-.133-.402-.267-.535 0-.134-.134-.268-.134-.535l-.4-1.203c-.401-.803 0-1.07.668-1.204.401-.133.534 0 .668.401.267.803.668 1.605.801 2.541.268.802.668.936 1.337.535.267-.134.534-.134.801-.268.535-.267.802-.401.935.268zm-5.344 2.674c-.401.133-.801.267-.935-.401-.401-1.337-.935-2.675-1.336-3.878-.267-.535 0-.668.534-.936.535-.133.802-.267 1.069.401.134.669.401 1.337.668 2.006.268.668.401 1.203.668 1.872.134.535-.133.668-.668.936z" fill="#fff"/><path opacity=".56" d="M1209.52 482.921h-9.89v132.634h9.89V482.921z" fill="#419D9A"/><path d="M1208.19 482.921c36.6 0 66.27-29.691 66.27-66.317 0-36.626-29.67-66.317-66.27-66.317-36.61 0-66.28 29.691-66.28 66.317 0 36.626 29.67 66.317 66.28 66.317z" fill="#C8DB5A"/><path d="M1204.58 475.032v-41.448l39.81-39.844m-60.12 21.393l14.83 14.841" stroke="#fff" stroke-miterlimit="10"/><path opacity=".56" d="M967.819 519.288h-7.215v96.267h7.215v-96.267z" fill="#419D9A"/><path d="M965.146 519.288c26.565 0 48.104-21.55 48.104-48.133 0-26.584-21.539-48.134-48.104-48.134-26.565 0-48.1 21.55-48.1 48.134 0 26.583 21.535 48.133 48.1 48.133z" fill="#C8DB5A"/><path d="M964.211 513.539v-30.084l28.86-28.88m-43.691 15.51l10.822 10.83m-811.686-68.59l27.924 28.078" stroke="#fff" stroke-miterlimit="10"/><path d="M1182.4 614.351s-26.06-33.693-12.69-19.654c13.36 14.039 13.76 17.382 13.76 17.382s-25.66-48.267-18.84-38.373c6.81 9.894 21.11 40.645 21.11 40.645s-10.42-71.13-5.88-52.01c4.54 19.119 8.68 52.01 8.68 52.01s6.28-32.623 4.95-21.125c-1.34 11.499-3.08 21.125-3.08 21.125h-8.01zm-1043.238.268s-24.584-31.821-12.025-18.451c12.56 13.37 13.094 16.445 13.094 16.445s-24.317-45.459-17.77-36.233c6.547 9.225 20.042 38.373 20.042 38.373s-9.754-67.253-5.479-49.203c4.276 18.05 8.151 49.203 8.151 49.203s5.879-30.752 4.676-19.922c-1.202 10.83-2.806 19.922-2.806 19.922h-7.883v-.134zm846.026-1.203s14.697-18.986 7.215-11.098c-7.616 8.022-7.749 9.761-7.749 9.761s14.563-27.276 10.555-21.66c-4.008 5.615-12.025 22.997-12.025 22.997s5.879-40.245 3.34-29.415c-2.538 10.83-4.943 29.415-4.943 29.415s-3.474-18.452-2.806-11.9c.668 6.551 1.737 11.9 1.737 11.9h4.676z" fill="#59DD99"/><path opacity=".56" d="M397.967 406.71h-15.365v206.438h15.365V406.71z" fill="#419D9A"/><path d="M393.959 406.977c56.893 0 103.014-46.153 103.014-103.086 0-56.932-46.121-103.085-103.014-103.085-56.894 0-103.015 46.153-103.015 103.085 0 56.933 46.121 103.086 103.015 103.086z" fill="#C8DB5A"/><path opacity=".42" d="M415.871 404.303c-7.082 1.604-14.43 2.407-21.912 2.407-56.919 0-103.015-46.128-103.015-103.086s46.096-103.085 103.015-103.085c2.672 0 5.478.133 8.15.267-46.363 10.028-81.102 51.342-81.102 100.679 0 54.15 41.82 98.673 94.864 102.818z" fill="url(#paint44_linear)"/><path opacity=".42" d="M372.848 404.035c7.081 1.605 14.43 2.407 21.912 2.407 56.918 0 103.014-46.128 103.014-103.085 0-56.958-46.096-103.086-103.014-103.086-2.672 0-5.478.134-8.15.267 46.363 10.028 81.102 51.343 81.102 100.679 0 54.284-41.821 98.674-94.864 102.818z" fill="url(#paint45_linear)"/><path opacity=".42" d="M169.491 500.971c-3.741.802-7.615 1.203-11.624 1.203-30.329 0-54.914-24.601-54.914-54.952s24.585-54.952 54.914-54.952c1.47 0 2.94 0 4.276.133-24.718 5.348-43.29 27.41-43.29 53.749 0 28.88 22.313 52.546 50.638 54.819z" fill="url(#paint46_linear)"/><path opacity=".42" d="M146.511 500.837c3.741.802 7.616 1.203 11.624 1.203 30.33 0 54.914-24.601 54.914-54.952s-24.584-54.952-54.914-54.952c-1.47 0-2.94 0-4.276.134 24.718 5.348 43.29 27.409 43.29 53.749 0 28.88-22.313 52.679-50.638 54.818z" fill="url(#paint47_linear)"/><path opacity=".42" d="M974.633 517.951c-3.341.669-6.681 1.07-10.155 1.07-26.455 0-47.966-21.527-47.966-48s21.511-48 47.966-48c1.203 0 2.539 0 3.741.134-21.511 4.68-37.678 23.933-37.678 46.796 0 25.404 19.507 45.995 44.092 48z" fill="url(#paint48_linear)"/><path opacity=".42" d="M954.725 517.817c3.34.669 6.68 1.07 10.154 1.07 26.455 0 47.971-21.526 47.971-48 0-26.473-21.516-47.999-47.971-47.999-1.202 0-2.539 0-3.741.133 21.511 4.68 37.678 23.933 37.678 46.797 0 25.403-19.373 45.994-44.091 47.999z" fill="url(#paint49_linear)"/><path opacity=".42" d="M1222.35 480.247c-4.55.936-9.09 1.47-13.9 1.47-36.21 0-65.6-29.414-65.6-65.648 0-36.234 29.39-65.649 65.6-65.649 1.74 0 3.48.134 5.21.134-29.53 6.418-51.7 32.758-51.7 64.178 0 34.629 26.58 62.974 60.39 65.515z" fill="url(#paint50_linear)"/><path opacity=".42" d="M1194.96 480.247c4.54.936 9.08 1.47 13.89 1.47 36.21 0 65.61-29.414 65.61-65.648 0-36.234-29.4-65.649-65.61-65.649-1.73 0-3.47.134-5.21.134 29.53 6.418 51.71 32.758 51.71 64.178 0 34.495-26.59 62.841-60.39 65.515z" fill="url(#paint51_linear)"/><path d="M390.218 394.81l-.267-16.178-.134-16.178-.133-16.178V329.83l.133-.134c5.077-5.214 10.288-10.295 15.499-15.509l15.499-15.376a3383.439 3383.439 0 0131.399-30.618 3408.967 3408.967 0 01-30.597 31.42l-15.366 15.51c-5.077 5.214-10.288 10.295-15.498 15.509l.133-.401v16.178l-.133 16.178-.134 16.179-.401 16.044zm-31.532-93.325c4.275 3.476 8.15 7.22 12.025 11.097 3.874 3.878 7.615 7.755 11.089 12.034-4.275-3.477-8.15-7.22-12.025-11.098-3.874-3.744-7.616-7.755-11.089-12.033z" fill="#fff"/><path d="M343.721 614.753s-39.015-50.407-18.973-29.282c20.042 21.126 20.576 25.939 20.576 25.939s-38.48-72.066-28.058-57.359c10.288 14.707 31.666 60.702 31.666 60.702s-15.499-106.429-8.685-77.816 12.96 77.816 12.96 77.816 9.353-48.669 7.483-31.555c-1.871 17.115-4.543 31.555-4.543 31.555h-12.426zm70.813-1.337s29.528-38.106 14.43-22.195c-15.098 15.911-15.632 19.654-15.632 19.654s28.994-54.551 21.244-43.32c-7.749 11.098-23.916 45.861-23.916 45.861s11.757-80.49 6.547-58.83c-5.078 21.66-9.754 58.83-9.754 58.83s-7.081-36.769-5.612-23.8c1.47 12.97 3.474 23.8 3.474 23.8h9.219z" fill="#59DD99"/><path d="M375.654 224.07c5.211 4.814 10.288 9.761 15.499 14.708 5.077 4.947 10.155 10.027 15.232 14.975 4.943 5.08 10.021 10.027 14.964 15.242l7.349 7.621c2.405 2.54 4.944 5.214 7.349 7.755a201.652 201.652 0 01-7.75-7.354l-7.616-7.354c-5.077-4.947-10.154-10.028-15.231-14.975-4.944-5.08-10.021-10.027-14.965-15.242-4.943-5.081-9.887-10.161-14.831-15.376z" fill="#fff"/><path d="M972.093 475.433l-20.709-15.509-2.005-16.446-6.947-4.412m21.779 52.947l30.062-9.226m223.797-62.841l-29.66-32.356-2.81-18.184m18.98 80.356l34.74-11.364 11.49-14.44" stroke="#fff" stroke-miterlimit="10"/><path d="M579.545 361.919c-3.875.267-7.883.401-11.758.535-3.875.133-7.883.133-11.758.133-3.874 0-7.883 0-11.758-.133l-5.878-.134c-2.005-.134-3.875-.134-5.879-.267 2.004-.134 3.874-.268 5.879-.268l5.878-.133c3.875-.134 7.884-.134 11.758-.134 3.875 0 7.883 0 11.758.134 3.875-.134 7.883 0 11.758.267z" fill="#887878"/></g></g><defs><linearGradient id="paint0_linear" x1="708.001" y1="557.193" x2="720.601" y2="557.193" gradientUnits="userSpaceOnUse"><stop stop-color="#419D9A"/><stop offset="1" stop-color="#41629A"/></linearGradient><linearGradient id="paint1_linear" x1="708" y1="558.062" x2="720.6" y2="558.062" gradientUnits="userSpaceOnUse"><stop stop-color="#419D9A"/><stop offset="1" stop-color="#41629A"/></linearGradient><linearGradient id="paint2_linear" x1="708" y1="558.463" x2="720.601" y2="558.463" gradientUnits="userSpaceOnUse"><stop stop-color="#419D9A"/><stop offset="1" stop-color="#41629A"/></linearGradient><linearGradient id="paint3_linear" x1="708" y1="558.731" x2="720.6" y2="558.731" gradientUnits="userSpaceOnUse"><stop stop-color="#419D9A"/><stop offset="1" stop-color="#41629A"/></linearGradient><linearGradient id="paint4_linear" x1="708" y1="558.53" x2="720.601" y2="558.53" gradientUnits="userSpaceOnUse"><stop stop-color="#419D9A"/><stop offset="1" stop-color="#41629A"/></linearGradient><linearGradient id="paint5_linear" x1="701.633" y1="564.079" x2="750.951" y2="564.079" gradientUnits="userSpaceOnUse"><stop stop-color="#419D9A"/><stop offset="1" stop-color="#41629A"/></linearGradient><linearGradient id="paint6_linear" x1="701.633" y1="564.747" x2="750.953" y2="564.747" gradientUnits="userSpaceOnUse"><stop stop-color="#419D9A"/><stop offset="1" stop-color="#41629A"/></linearGradient><linearGradient id="paint7_linear" x1="701.632" y1="565.349" x2="750.955" y2="565.349" gradientUnits="userSpaceOnUse"><stop stop-color="#419D9A"/><stop offset="1" stop-color="#41629A"/></linearGradient><linearGradient id="paint8_linear" x1="701.633" y1="566.085" x2="750.953" y2="566.085" gradientUnits="userSpaceOnUse"><stop stop-color="#419D9A"/><stop offset="1" stop-color="#41629A"/></linearGradient><linearGradient id="paint9_linear" x1="701.633" y1="566.686" x2="750.952" y2="566.686" gradientUnits="userSpaceOnUse"><stop stop-color="#419D9A"/><stop offset="1" stop-color="#41629A"/></linearGradient><linearGradient id="paint10_linear" x1="701.632" y1="567.355" x2="750.954" y2="567.355" gradientUnits="userSpaceOnUse"><stop stop-color="#419D9A"/><stop offset="1" stop-color="#41629A"/></linearGradient><linearGradient id="paint11_linear" x1="701.633" y1="567.889" x2="750.953" y2="567.889" gradientUnits="userSpaceOnUse"><stop stop-color="#419D9A"/><stop offset="1" stop-color="#41629A"/></linearGradient><linearGradient id="paint12_linear" x1="701.632" y1="568.558" x2="750.952" y2="568.558" gradientUnits="userSpaceOnUse"><stop stop-color="#419D9A"/><stop offset="1" stop-color="#41629A"/></linearGradient><linearGradient id="paint13_linear" x1="701.633" y1="569.16" x2="750.953" y2="569.16" gradientUnits="userSpaceOnUse"><stop stop-color="#419D9A"/><stop offset="1" stop-color="#41629A"/></linearGradient><linearGradient id="paint14_linear" x1="701.634" y1="569.694" x2="750.95" y2="569.694" gradientUnits="userSpaceOnUse"><stop stop-color="#419D9A"/><stop offset="1" stop-color="#41629A"/></linearGradient><linearGradient id="paint15_linear" x1="701.632" y1="570.229" x2="750.954" y2="570.229" gradientUnits="userSpaceOnUse"><stop stop-color="#419D9A"/><stop offset="1" stop-color="#41629A"/></linearGradient><linearGradient id="paint16_linear" x1="701.631" y1="570.831" x2="750.953" y2="570.831" gradientUnits="userSpaceOnUse"><stop stop-color="#419D9A"/><stop offset="1" stop-color="#41629A"/></linearGradient><linearGradient id="paint17_linear" x1="701.634" y1="571.366" x2="750.952" y2="571.366" gradientUnits="userSpaceOnUse"><stop stop-color="#419D9A"/><stop offset="1" stop-color="#41629A"/></linearGradient><linearGradient id="paint18_linear" x1="701.633" y1="571.834" x2="750.953" y2="571.834" gradientUnits="userSpaceOnUse"><stop stop-color="#419D9A"/><stop offset="1" stop-color="#41629A"/></linearGradient><linearGradient id="paint19_linear" x1="701.634" y1="572.302" x2="750.952" y2="572.302" gradientUnits="userSpaceOnUse"><stop stop-color="#419D9A"/><stop offset="1" stop-color="#41629A"/></linearGradient><linearGradient id="paint20_linear" x1="701.633" y1="572.636" x2="750.953" y2="572.636" gradientUnits="userSpaceOnUse"><stop stop-color="#419D9A"/><stop offset="1" stop-color="#41629A"/></linearGradient><linearGradient id="paint21_linear" x1="701.631" y1="572.97" x2="750.953" y2="572.97" gradientUnits="userSpaceOnUse"><stop stop-color="#419D9A"/><stop offset="1" stop-color="#41629A"/></linearGradient><linearGradient id="paint22_linear" x1="701.631" y1="573.171" x2="750.953" y2="573.171" gradientUnits="userSpaceOnUse"><stop stop-color="#419D9A"/><stop offset="1" stop-color="#41629A"/></linearGradient><linearGradient id="paint23_linear" x1="701.63" y1="573.305" x2="750.953" y2="573.305" gradientUnits="userSpaceOnUse"><stop stop-color="#419D9A"/><stop offset="1" stop-color="#41629A"/></linearGradient><linearGradient id="paint24_linear" x1="768.524" y1="281.229" x2="779.5" y2="281.229" gradientUnits="userSpaceOnUse"><stop stop-color="#E09558"/><stop offset="1" stop-color="#BC7139"/></linearGradient><linearGradient id="paint25_linear" x1="792.87" y1="271.895" x2="797.262" y2="271.895" gradientUnits="userSpaceOnUse"><stop stop-color="#E09558"/><stop offset="1" stop-color="#BC7139"/></linearGradient><linearGradient id="paint26_linear" x1="759.37" y1="268.883" x2="764.428" y2="269.278" gradientUnits="userSpaceOnUse"><stop stop-color="#E09558"/><stop offset="1" stop-color="#BC7139"/></linearGradient><linearGradient id="paint27_linear" x1="759.489" y1="270.599" x2="764.17" y2="270.599" gradientUnits="userSpaceOnUse"><stop stop-color="#E09558"/><stop offset="1" stop-color="#BC7139"/></linearGradient><linearGradient id="paint28_linear" x1="253.295" y1="108.156" x2="269.031" y2="115.425" gradientUnits="userSpaceOnUse"><stop offset="0" stop-color="#254E61"/><stop offset="1" stop-color="#182B40"/></linearGradient><linearGradient id="paint29_linear" x1="215.504" y1="136.168" x2="238.174" y2="141.179" gradientUnits="userSpaceOnUse"><stop offset="0" stop-color="#254E61"/><stop offset="1" stop-color="#182B40"/></linearGradient><linearGradient id="paint30_linear" x1="225.529" y1="118.018" x2="252.123" y2="123.897" gradientUnits="userSpaceOnUse"><stop offset="0" stop-color="#254E61"/><stop offset="1" stop-color="#182B40"/></linearGradient><linearGradient id="paint31_linear" x1="756.526" y1="285.908" x2="769.195" y2="285.908" gradientUnits="userSpaceOnUse"><stop stop-color="#E09558"/><stop offset="1" stop-color="#BC7139"/></linearGradient><linearGradient id="paint32_linear" x1="686.434" y1="303.539" x2="710.525" y2="303.539" gradientUnits="userSpaceOnUse"><stop stop-color="#E09558"/><stop offset="1" stop-color="#BC7139"/></linearGradient><linearGradient id="paint33_linear" x1="657.292" y1="321.072" x2="692.974" y2="321.072" gradientUnits="userSpaceOnUse"><stop stop-color="#419D9A"/><stop offset="1" stop-color="#41629A"/></linearGradient><linearGradient id="paint34_linear" x1="635.309" y1="330.565" x2="656.405" y2="330.565" gradientUnits="userSpaceOnUse"><stop stop-color="#419D9A"/><stop offset="1" stop-color="#41629A"/></linearGradient><linearGradient id="paint35_linear" x1="655.124" y1="339.457" x2="657.893" y2="339.457" gradientUnits="userSpaceOnUse"><stop stop-color="#419D9A"/><stop offset="1" stop-color="#41629A"/></linearGradient><linearGradient id="paint36_linear" x1="738.34" y1="289.919" x2="747.999" y2="289.919" gradientUnits="userSpaceOnUse"><stop stop-color="#419D9A"/><stop offset="1" stop-color="#41629A"/></linearGradient><linearGradient id="paint37_linear" x1="693.985" y1="290.978" x2="724.675" y2="290.978" gradientUnits="userSpaceOnUse"><stop stop-color="#58DBD4"/><stop offset="1" stop-color="#41629A"/></linearGradient><linearGradient id="paint38_linear" x1="606.323" y1="385.39" x2="691.766" y2="385.39" gradientUnits="userSpaceOnUse"><stop stop-color="#223149"/><stop offset="1" stop-color="#223149" stop-opacity="0"/></linearGradient><linearGradient id="paint39_linear" x1="677.723" y1="489.004" x2="709.091" y2="489.004" gradientUnits="userSpaceOnUse"><stop stop-color="#223149"/><stop offset="1" stop-color="#223149" stop-opacity="0"/></linearGradient><linearGradient id="paint40_linear" x1="610.677" y1="282.966" x2="712.846" y2="310.581" gradientUnits="userSpaceOnUse"><stop stop-color="#419D9A"/><stop offset="1" stop-color="#41629A"/></linearGradient><linearGradient id="paint41_linear" x1="614.609" y1="286.15" x2="712.312" y2="312.557" gradientUnits="userSpaceOnUse"><stop stop-color="#419D9A"/><stop offset="1" stop-color="#41629A"/></linearGradient><linearGradient id="paint42_linear" x1="639.473" y1="285.448" x2="643.213" y2="286.458" gradientUnits="userSpaceOnUse"><stop stop-color="#419D9A"/><stop offset="1" stop-color="#41629A"/></linearGradient><linearGradient id="paint43_linear" x1="633.064" y1="268.96" x2="651.167" y2="273.853" gradientUnits="userSpaceOnUse"><stop stop-color="#419D9A"/><stop offset="1" stop-color="#41629A"/></linearGradient><linearGradient id="paint44_linear" x1="353.397" y1="200.48" x2="353.397" y2="406.598" gradientUnits="userSpaceOnUse"><stop stop-color="#C8DB5A"/><stop offset="1" stop-color="#96AF38"/></linearGradient><linearGradient id="paint45_linear" x1="435.311" y1="200.294" x2="435.311" y2="406.411" gradientUnits="userSpaceOnUse"><stop stop-color="#C8DB5A"/><stop offset="1" stop-color="#96AF38"/></linearGradient><linearGradient id="paint46_linear" x1="136.156" y1="392.213" x2="136.156" y2="502.214" gradientUnits="userSpaceOnUse"><stop stop-color="#C8DB5A"/><stop offset="1" stop-color="#96AF38"/></linearGradient><linearGradient id="paint47_linear" x1="179.873" y1="392.114" x2="179.873" y2="502.115" gradientUnits="userSpaceOnUse"><stop stop-color="#C8DB5A"/><stop offset="1" stop-color="#96AF38"/></linearGradient><linearGradient id="paint48_linear" x1="945.636" y1="423.108" x2="945.636" y2="518.975" gradientUnits="userSpaceOnUse"><stop stop-color="#C8DB5A"/><stop offset="1" stop-color="#96AF38"/></linearGradient><linearGradient id="paint49_linear" x1="983.735" y1="423.021" x2="983.735" y2="518.888" gradientUnits="userSpaceOnUse"><stop stop-color="#C8DB5A"/><stop offset="1" stop-color="#96AF38"/></linearGradient><linearGradient id="paint50_linear" x1="1182.59" y1="350.495" x2="1182.59" y2="481.799" gradientUnits="userSpaceOnUse"><stop stop-color="#C8DB5A"/><stop offset="1" stop-color="#96AF38"/></linearGradient><linearGradient id="paint51_linear" x1="1234.77" y1="350.376" x2="1234.77" y2="481.681" gradientUnits="userSpaceOnUse"><stop stop-color="#C8DB5A"/><stop offset="1" stop-color="#96AF38"/></linearGradient><clipPath id="clip0"><path fill="#fff" d="M0 0h1440v680H0z"/></clipPath><clipPath id="clip1"><path fill="#fff" d="M-3-42h1443v722H-3z"/></clipPath></defs></svg>