<svg width="360" height="465" fill="none" xmlns="http://www.w3.org/2000/svg"><g filter="url(#filter0_d)"><path fill="#50C1BA" d="M24 24h69.643v34.687H24z"/></g><g filter="url(#filter1_d)"><path fill="#BC321F" d="M104.786 24h69.643v34.687h-69.643z"/></g><g filter="url(#filter2_d)"><path fill="#6AC259" d="M185.571 24h69.643v34.687h-69.643z"/></g><g filter="url(#filter3_d)"><path fill="#000" d="M24 101.006h69.643v34.687H24z"/></g><g filter="url(#filter4_d)"><path fill="#fff" d="M104.785 101.006h69.643v34.687h-69.643z"/></g><g filter="url(#filter5_d)"><path d="M25.95 68.843a3.89 3.89 0 01-.885-.11 3.518 3.518 0 01-.731-.244l.104-.943c.613.296 1.152.444 1.616.444.246 0 .439-.046.578-.139a.484.484 0 00.21-.423.49.49 0 00-.12-.34.807.807 0 00-.327-.229 9.656 9.656 0 00-.689-.263 4.38 4.38 0 01-.738-.32 1.41 1.41 0 01-.467-.437c-.111-.18-.167-.4-.167-.659 0-.416.153-.751.46-1.006.306-.254.745-.381 1.316-.381.27 0 .536.03.8.09.27.06.516.134.739.222l-.09.909a5.133 5.133 0 00-.794-.278 2.684 2.684 0 00-.71-.097c-.265 0-.467.044-.607.132a.425.425 0 00-.209.382.46.46 0 00.112.319.862.862 0 00.3.208c.13.055.32.122.57.2.562.177.97.38 1.226.611.26.227.39.54.39.937 0 .38-.132.71-.397.992-.265.282-.761.423-1.49.423zm5.49-3.566v3.47h-.809l-.014-.21c-.107.08-.23.147-.369.202-.14.051-.274.076-.404.076-.515 0-.891-.148-1.128-.444-.232-.296-.348-.705-.348-1.227v-1.867h.863v1.867c0 .323.054.564.16.721.112.153.289.229.53.229.27 0 .487-.097.655-.291v-2.526h.863zm2.623-.055c.33 0 .613.08.85.243.236.161.415.379.536.652.12.273.18.573.18.902 0 .328-.06.629-.18.901-.12.273-.3.49-.536.653-.237.162-.52.242-.85.242a1.82 1.82 0 01-.536-.069 1.359 1.359 0 01-.418-.208v1.887h-.864v-5.148h.697l.09.32a1.515 1.515 0 011.03-.375zm-.132 2.886c.255 0 .455-.1.599-.299.143-.198.215-.462.215-.79 0-.329-.072-.592-.215-.791a.698.698 0 00-.6-.298c-.287 0-.503.097-.647.29-.144.195-.216.461-.216.799 0 .337.072.603.216.797.144.195.36.292.648.292zm2.299-2.831h.809l.02.368a1.46 1.46 0 01.39-.305c.163-.088.332-.132.509-.132a.79.79 0 01.153.014l-.063.846a1.184 1.184 0 00-.3-.034.782.782 0 00-.396.104.597.597 0 00-.258.242v2.366h-.863v-3.469zm3.996-1.387h1.734c1.156 0 1.734.522 1.734 1.568 0 .54-.146.943-.439 1.207-.292.263-.717.395-1.274.395h-.864v1.686h-.89V63.89zm1.65 2.428c.307 0 .535-.07.683-.208.153-.139.23-.352.23-.638 0-.287-.077-.498-.23-.632-.153-.139-.388-.208-.703-.208h-.739v1.686h.76zm2.312-1.041h.808l.02.368c.103-.116.233-.217.39-.305a1.06 1.06 0 01.51-.132.79.79 0 01.152.014l-.062.846a1.185 1.185 0 00-.3-.034.783.783 0 00-.397.104.596.596 0 00-.257.242v2.366h-.864v-3.469zm2.299-1.387h.863v.86h-.863v-.86zm0 1.387h.863v3.47h-.863v-3.47zm5.58-.055c.464 0 .808.14 1.03.423.228.278.342.668.342 1.172v1.93h-.864V66.88c0-.328-.05-.569-.153-.722-.102-.152-.27-.228-.501-.228-.228 0-.4.078-.516.235-.116.153-.174.37-.174.652v1.93h-.864V66.88c0-.328-.053-.569-.16-.722-.107-.152-.276-.228-.508-.228-.274 0-.5.099-.676.298v2.518h-.863v-3.469h.738l.028.278a1.745 1.745 0 011.024-.333c.445 0 .777.16.995.479.121-.153.28-.271.474-.354.195-.084.411-.125.648-.125zm2.898 3.593c-.288 0-.53-.092-.724-.277-.19-.19-.286-.444-.286-.763 0-.3.11-.541.327-.722a1.88 1.88 0 01.774-.388c.297-.079.582-.123.856-.132-.01-.204-.063-.35-.16-.437-.093-.088-.248-.132-.467-.132a1.65 1.65 0 00-.452.063 3.23 3.23 0 00-.502.2l-.076-.7a2.899 2.899 0 011.267-.305c.409 0 .72.11.933.333.218.222.328.576.328 1.061v.937c0 .176.007.303.02.381.02.074.047.123.084.146.042.019.11.028.202.028h.111l-.076.707h-.314c-.19 0-.35-.034-.48-.104a.772.772 0 01-.3-.298 1.15 1.15 0 01-.46.298c-.19.07-.392.104-.605.104zm.362-.659c.088 0 .188-.02.3-.062a.955.955 0 00.292-.187v-.791a1.845 1.845 0 00-.738.18c-.214.106-.32.254-.32.444 0 .144.037.25.11.32.075.064.194.096.356.096zm2.354-2.879h.808l.021.368a1.46 1.46 0 01.39-.305c.163-.088.332-.132.508-.132a.79.79 0 01.154.014l-.063.846a1.184 1.184 0 00-.3-.034.782.782 0 00-.396.104.597.597 0 00-.258.242v2.366h-.864v-3.469zm3.351 3.24l-1.449-3.24h.961l.892 2.234.905-2.234h.961l-2.18 5.148h-.863l.773-1.908zm45.704.326c-.274 0-.569-.037-.885-.11a3.507 3.507 0 01-.731-.244l.104-.943c.613.296 1.152.444 1.616.444.246 0 .439-.046.578-.139a.482.482 0 00.209-.423.489.489 0 00-.118-.34.816.816 0 00-.328-.229 9.403 9.403 0 00-.689-.263 4.382 4.382 0 01-.738-.32 1.411 1.411 0 01-.467-.437c-.111-.18-.167-.4-.167-.659 0-.416.153-.751.46-1.006.306-.254.745-.381 1.316-.381.269 0 .536.03.801.09.269.06.515.134.738.222l-.091.909a5.11 5.11 0 00-.793-.278 2.69 2.69 0 00-.711-.097c-.264 0-.466.044-.606.132a.425.425 0 00-.209.382c0 .129.038.235.112.319a.86.86 0 00.299.208c.13.055.321.122.571.2.562.177.971.38 1.226.611.26.227.39.54.39.937 0 .38-.132.71-.397.992-.265.282-.761.423-1.49.423zm5.489-3.566v3.47h-.808l-.014-.21a1.612 1.612 0 01-.369.202 1.17 1.17 0 01-.404.076c-.515 0-.891-.148-1.128-.444-.232-.296-.348-.705-.348-1.227v-1.867h.863v1.867c0 .323.054.564.161.721.111.153.287.229.529.229a.825.825 0 00.655-.291v-2.526h.863zm2.624-.055c.33 0 .613.08.85.243.236.161.415.379.536.652a2.2 2.2 0 01.181.902 2.2 2.2 0 01-.181.901c-.121.273-.3.49-.536.653a1.47 1.47 0 01-.85.242c-.209 0-.388-.023-.536-.069a1.363 1.363 0 01-.418-.208v1.887h-.864v-5.148h.697l.09.32c.149-.125.304-.218.467-.278.162-.065.35-.097.564-.097zm-.132 2.886c.255 0 .455-.1.599-.299.144-.198.216-.462.216-.79 0-.329-.072-.592-.216-.791a.699.699 0 00-.599-.298c-.288 0-.504.097-.648.29-.144.195-.216.461-.216.799 0 .337.072.603.216.797.144.195.36.292.648.292zm2.3-2.831h.808l.02.368c.103-.116.233-.217.391-.305a1.05 1.05 0 01.508-.132c.056 0 .107.005.153.014l-.063.846a1.182 1.182 0 00-.299-.034.783.783 0 00-.397.104.596.596 0 00-.258.242v2.366h-.863v-3.469zm6.203 3.566a2.69 2.69 0 01-1.31-.312 2.2 2.2 0 01-.877-.881c-.209-.384-.313-.828-.313-1.332 0-.5.106-.939.32-1.318.218-.384.518-.68.898-.888.386-.213.822-.32 1.31-.32.469 0 .889.096 1.26.285l-.097.847a3.636 3.636 0 00-.578-.202 2.188 2.188 0 00-.592-.076c-.497 0-.88.153-1.149.458-.265.305-.397.71-.397 1.214s.13.909.39 1.214c.264.305.643.458 1.135.458.218 0 .418-.023.599-.07.185-.046.383-.115.592-.208l.097.847c-.404.19-.833.284-1.288.284zm2.656-.028c-.288 0-.53-.092-.725-.277-.19-.19-.285-.444-.285-.763 0-.3.109-.541.327-.722.218-.185.476-.314.773-.388.297-.079.583-.123.857-.132-.009-.204-.063-.35-.16-.437-.093-.088-.249-.132-.467-.132-.153 0-.304.021-.453.063a3.25 3.25 0 00-.501.2l-.077-.7a2.9 2.9 0 011.268-.305c.408 0 .72.11.933.333.218.222.327.576.327 1.061v.937c0 .176.007.303.021.381.019.074.047.123.084.146a.537.537 0 00.202.028h.111l-.076.707h-.314c-.19 0-.35-.034-.48-.104a.776.776 0 01-.3-.298 1.143 1.143 0 01-.459.298 1.76 1.76 0 01-.606.104zm.362-.659c.088 0 .188-.02.299-.062a.957.957 0 00.293-.187v-.791a1.84 1.84 0 00-.738.18c-.214.106-.321.254-.321.444 0 .144.037.25.112.32.074.064.192.096.355.096zm5.363-2.879v3.47h-.807l-.014-.21c-.107.08-.23.147-.369.202-.14.051-.274.076-.404.076-.516 0-.892-.148-1.129-.444-.232-.296-.348-.705-.348-1.227v-1.867h.864v1.867c0 .323.053.564.16.721.111.153.288.229.529.229a.823.823 0 00.655-.291v-2.526h.863zm1.942 3.538c-.307 0-.539-.087-.697-.263a.946.946 0 01-.236-.645v-1.922h-.495l.077-.708h.418v-.763l.863-.09v.853h.766v.708h-.766v1.568c0 .185.009.314.028.388a.21.21 0 00.132.14c.07.018.193.027.369.027h.237l-.076.707h-.62zm1.259-4.925h.863v.86h-.863v-.86zm0 1.387h.863v3.47h-.863v-3.47zm3.254 3.538a1.82 1.82 0 01-.955-.242 1.643 1.643 0 01-.619-.652 1.902 1.902 0 01-.216-.902c0-.329.072-.632.216-.91.144-.277.35-.496.619-.658a1.82 1.82 0 01.955-.243c.366 0 .684.08.954.243.269.162.476.381.619.659.144.277.216.58.216.909 0 .328-.072.629-.216.901-.143.273-.35.49-.619.653a1.82 1.82 0 01-.954.242zm0-.707c.283 0 .503-.1.661-.299.163-.198.244-.462.244-.79 0-.333-.081-.6-.244-.798-.158-.204-.378-.305-.661-.305-.284 0-.507.101-.669.305-.158.199-.237.465-.237.798 0 .328.079.592.237.79.162.2.385.299.669.299zm4.145-2.886c.432 0 .76.143.982.43.223.287.335.673.335 1.159v1.935h-.864V66.88c0-.324-.056-.562-.167-.715-.107-.157-.281-.236-.522-.236-.265 0-.483.1-.655.299v2.518h-.864v-3.469h.808l.014.243c.293-.199.604-.298.933-.298zm45.321 3.621c-.274 0-.569-.037-.885-.11a3.507 3.507 0 01-.731-.244l.104-.943c.613.296 1.152.444 1.616.444.246 0 .439-.046.578-.139a.482.482 0 00.209-.423.489.489 0 00-.118-.34.809.809 0 00-.328-.229 9.403 9.403 0 00-.689-.263 4.382 4.382 0 01-.738-.32 1.411 1.411 0 01-.467-.437c-.111-.18-.167-.4-.167-.659 0-.416.153-.751.46-1.006.306-.254.745-.381 1.316-.381.269 0 .536.03.801.09.269.06.515.134.738.222l-.09.909a5.155 5.155 0 00-.794-.278 2.69 2.69 0 00-.711-.097c-.264 0-.466.044-.606.132a.425.425 0 00-.209.382c0 .129.038.235.112.319a.86.86 0 00.299.208c.13.055.321.122.571.2.562.177.971.38 1.226.611.26.227.39.54.39.937 0 .38-.132.71-.397.992-.265.282-.761.423-1.49.423zm5.489-3.566v3.47h-.808l-.014-.21a1.612 1.612 0 01-.369.202 1.17 1.17 0 01-.404.076c-.515 0-.891-.148-1.128-.444-.232-.296-.348-.705-.348-1.227v-1.867h.863v1.867c0 .323.054.564.161.721.111.153.288.229.529.229a.825.825 0 00.655-.291v-2.526h.863zm2.624-.055c.33 0 .613.08.85.243.236.161.415.379.536.652a2.2 2.2 0 01.181.902 2.2 2.2 0 01-.181.901c-.121.273-.3.49-.536.653a1.47 1.47 0 01-.85.242c-.209 0-.388-.023-.536-.069a1.363 1.363 0 01-.418-.208v1.887h-.864v-5.148h.697l.09.32c.149-.125.304-.218.467-.278.162-.065.35-.097.564-.097zm-.132 2.886c.255 0 .455-.1.599-.299.144-.198.216-.462.216-.79 0-.329-.072-.592-.216-.791a.699.699 0 00-.599-.298c-.288 0-.504.097-.648.29-.144.195-.216.461-.216.799 0 .337.072.603.216.797.144.195.36.292.648.292zm2.3-2.831h.808l.021.368c.102-.116.232-.217.39-.305.162-.088.332-.132.508-.132.056 0 .107.005.153.014l-.063.846a1.182 1.182 0 00-.299-.034.783.783 0 00-.397.104.596.596 0 00-.258.242v2.366h-.863v-3.469zm5.409 3.566c-.274 0-.569-.037-.885-.11a3.528 3.528 0 01-.731-.244l.105-.943c.612.296 1.151.444 1.615.444.246 0 .439-.046.578-.139a.482.482 0 00.209-.423.489.489 0 00-.118-.34.805.805 0 00-.327-.229 9.66 9.66 0 00-.69-.263 4.382 4.382 0 01-.738-.32 1.411 1.411 0 01-.467-.437c-.111-.18-.167-.4-.167-.659 0-.416.153-.751.46-1.006.306-.254.745-.381 1.316-.381.269 0 .536.03.801.09.269.06.515.134.738.222l-.09.909a5.155 5.155 0 00-.794-.278 2.69 2.69 0 00-.711-.097c-.264 0-.466.044-.606.132a.424.424 0 00-.208.382c0 .129.037.235.111.319a.86.86 0 00.299.208c.13.055.321.122.571.2.562.177.971.38 1.226.611.26.227.39.54.39.937 0 .38-.132.71-.397.992-.264.282-.761.423-1.49.423zm5.489-3.566v3.47h-.808l-.014-.21a1.612 1.612 0 01-.369.202 1.17 1.17 0 01-.404.076c-.515 0-.891-.148-1.128-.444-.232-.296-.348-.705-.348-1.227v-1.867h.864v1.867c0 .323.053.564.16.721.111.153.288.229.529.229a.823.823 0 00.655-.291v-2.526h.863zm2.422 3.538c-.385 0-.717-.078-.996-.235a1.587 1.587 0 01-.62-.653 1.972 1.972 0 01-.208-.908c0-.338.069-.643.208-.916.14-.278.349-.495.627-.652.279-.162.618-.243 1.017-.243.358 0 .669.074.933.222l-.069.694a1.68 1.68 0 00-.78-.194c-.33 0-.588.099-.773.298-.186.199-.279.462-.279.79 0 .315.095.576.286.785.19.203.443.305.759.305.264 0 .529-.077.794-.23l.076.73a1.786 1.786 0 01-.446.152 2.438 2.438 0 01-.529.055zm3.142 0c-.385 0-.717-.078-.996-.235a1.578 1.578 0 01-.619-.653 1.96 1.96 0 01-.209-.908c0-.338.069-.643.209-.916.139-.278.348-.495.626-.652.279-.162.618-.243 1.017-.243.358 0 .669.074.933.222l-.069.694a1.68 1.68 0 00-.78-.194c-.33 0-.588.099-.773.298-.186.199-.279.462-.279.79 0 .315.095.576.286.785.19.203.443.305.759.305.264 0 .529-.077.794-.23l.076.73a1.792 1.792 0 01-.445.152 2.454 2.454 0 01-.53.055zm3.205 0c-.404 0-.75-.08-1.038-.242a1.65 1.65 0 01-.64-.66 2.019 2.019 0 01-.209-.922c0-.324.067-.62.202-.888.134-.268.329-.481.585-.638.255-.162.559-.243.912-.243.325 0 .599.067.822.201.227.134.397.314.508.541.116.227.174.481.174.763 0 .139-.018.296-.055.472h-2.25c.047.305.167.534.362.687.195.148.43.222.704.222.376 0 .724-.095 1.044-.285l.042.729a2.366 2.366 0 01-.522.194c-.195.046-.409.07-.641.07zm.439-2.199c0-.18-.051-.34-.153-.478-.103-.14-.26-.209-.474-.209a.711.711 0 00-.515.188.96.96 0 00-.265.5h1.407zm2.456 2.199c-.223 0-.427-.02-.613-.062a3.035 3.035 0 01-.564-.194l.076-.736c.195.116.376.204.544.264.171.055.348.083.529.083.353 0 .529-.115.529-.347a.324.324 0 00-.139-.284c-.093-.07-.26-.15-.502-.243-.343-.125-.596-.266-.759-.423-.162-.162-.243-.38-.243-.652 0-.3.116-.544.348-.729.232-.19.545-.284.94-.284.395 0 .754.09 1.079.27l-.076.736a2.777 2.777 0 00-.502-.278 1.235 1.235 0 00-.487-.097.584.584 0 00-.348.09.304.304 0 00-.119.257c0 .088.024.16.07.215a.763.763 0 00.209.153c.088.041.234.102.439.18.339.13.582.273.731.43.148.153.223.359.223.618 0 .328-.119.583-.355.763-.237.18-.574.27-1.01.27zm2.945 0c-.223 0-.428-.02-.613-.062a3.035 3.035 0 01-.564-.194l.076-.736c.195.116.376.204.543.264.172.055.349.083.53.083.353 0 .529-.115.529-.347a.324.324 0 00-.139-.284c-.093-.07-.26-.15-.502-.243-.343-.125-.596-.266-.759-.423-.162-.162-.244-.38-.244-.652 0-.3.117-.544.349-.729.232-.19.545-.284.94-.284.395 0 .754.09 1.079.27l-.076.736a2.777 2.777 0 00-.502-.278 1.235 1.235 0 00-.487-.097.584.584 0 00-.348.09.304.304 0 00-.119.257c0 .088.023.16.07.215a.763.763 0 00.209.153c.088.041.234.102.439.18.338.13.582.273.731.43.148.153.223.359.223.618 0 .328-.119.583-.356.763-.236.18-.573.27-1.009.27zM25.95 145.849a3.89 3.89 0 01-.885-.111 3.51 3.51 0 01-.731-.243l.104-.943c.613.296 1.152.444 1.616.444.246 0 .439-.047.578-.139a.483.483 0 00.21-.423.489.489 0 00-.12-.34.802.802 0 00-.327-.229 9.516 9.516 0 00-.689-.264 4.316 4.316 0 01-.738-.319 1.402 1.402 0 01-.467-.437 1.23 1.23 0 01-.167-.659c0-.416.153-.751.46-1.006.306-.254.745-.381 1.316-.381.27 0 .536.03.8.09.27.06.516.134.739.222l-.09.909a5.118 5.118 0 00-.794-.278 2.672 2.672 0 00-.71-.097c-.265 0-.467.044-.607.132a.424.424 0 00-.209.381c0 .13.037.236.112.319a.86.86 0 00.3.209c.13.055.32.122.57.201.562.176.97.379 1.226.61.26.227.39.539.39.937 0 .379-.132.71-.397.992-.265.282-.761.423-1.49.423zm5.49-3.566v3.469h-.809l-.014-.208c-.107.078-.23.145-.369.201-.14.051-.274.076-.404.076-.515 0-.891-.148-1.128-.444-.232-.296-.348-.705-.348-1.228v-1.866h.863v1.866c0 .324.054.565.16.722.112.152.289.229.53.229a.82.82 0 00.655-.292v-2.525h.863zm2.623-.055c.33 0 .613.081.85.243.236.161.415.379.536.652.12.273.18.573.18.902 0 .328-.06.628-.18.901s-.3.491-.536.652c-.237.162-.52.243-.85.243-.209 0-.388-.023-.536-.069a1.37 1.37 0 01-.418-.208v1.887h-.864v-5.148h.697l.09.319a1.57 1.57 0 01.467-.277c.162-.065.35-.097.564-.097zm-.132 2.886c.255 0 .455-.1.599-.299.143-.198.215-.462.215-.79 0-.329-.072-.592-.215-.791a.698.698 0 00-.6-.299c-.287 0-.503.097-.647.292-.144.194-.216.46-.216.798 0 .337.072.603.216.797.144.195.36.292.648.292zm2.299-2.831h.809l.02.368c.103-.116.233-.217.39-.305.163-.088.332-.132.509-.132a.73.73 0 01.153.014l-.063.846a1.188 1.188 0 00-.3-.035.786.786 0 00-.396.104.6.6 0 00-.258.243v2.366h-.863v-3.469zm6.691.812c.618.199.926.624.926 1.276 0 .435-.141.775-.424 1.02-.284.241-.671.361-1.163.361h-2.034v-4.856h1.839c.928 0 1.393.391 1.393 1.172 0 .481-.18.823-.537 1.027zm-1.803-.291h.814c.218 0 .381-.044.488-.132.107-.093.16-.234.16-.423 0-.199-.053-.343-.16-.431-.107-.087-.27-.131-.488-.131h-.815v1.117zm1.01 2.157c.26 0 .457-.051.591-.153.14-.106.21-.284.21-.534 0-.245-.073-.418-.217-.52-.139-.106-.334-.16-.585-.16h-1.01v1.367h1.01zm3.176.86c-.297 0-.52-.083-.669-.249-.148-.172-.223-.391-.223-.66v-4.363h.864v4.01c0 .185.01.316.028.395.023.074.06.12.111.139.056.014.149.021.279.021l-.077.707h-.313zm1.69 0c-.288 0-.53-.092-.724-.277-.19-.19-.286-.444-.286-.763a.89.89 0 01.328-.722c.218-.185.476-.314.773-.388.297-.079.582-.123.856-.132-.01-.204-.063-.349-.16-.437-.093-.088-.248-.132-.467-.132-.153 0-.304.021-.452.062a3.236 3.236 0 00-.502.202l-.076-.701a2.891 2.891 0 011.267-.305c.409 0 .72.111.933.333.219.222.328.576.328 1.061v.937c0 .175.007.303.02.381.02.074.047.123.084.146a.55.55 0 00.202.028h.112l-.077.707h-.313c-.19 0-.35-.034-.48-.104a.77.77 0 01-.3-.298 1.146 1.146 0 01-.46.298c-.19.07-.392.104-.606.104zm.362-.659a.882.882 0 00.592-.25v-.79a1.836 1.836 0 00-.738.18c-.214.106-.32.254-.32.444 0 .143.037.25.111.319.074.065.193.097.355.097zm3.97.659c-.385 0-.717-.078-.996-.236a1.577 1.577 0 01-.62-.652 1.97 1.97 0 01-.209-.908c0-.338.07-.643.21-.916.139-.278.348-.495.626-.652.279-.162.618-.243 1.017-.243.358 0 .669.074.933.222l-.07.694a1.67 1.67 0 00-.78-.195c-.329 0-.587.1-.772.299-.186.199-.279.462-.279.791 0 .314.095.575.285.783.19.204.444.306.76.306.264 0 .529-.077.794-.229l.076.728a1.784 1.784 0 01-.446.153 2.444 2.444 0 01-.529.055zm1.547-5.272h.863v3.156l1.08-1.422h.975l-1.268 1.665 1.296 1.804h-.975l-1.108-1.54v1.54h-.863v-5.203zm53.863 5.3c-.274 0-.569-.037-.885-.111a3.5 3.5 0 01-.731-.243l.104-.943c.613.296 1.152.444 1.616.444.246 0 .439-.047.578-.139a.482.482 0 00.209-.423.489.489 0 00-.118-.34.81.81 0 00-.328-.229 9.27 9.27 0 00-.689-.264 4.319 4.319 0 01-.738-.319 1.402 1.402 0 01-.467-.437c-.111-.18-.167-.4-.167-.659 0-.416.153-.751.46-1.006.306-.254.745-.381 1.316-.381.269 0 .536.03.801.09.269.06.515.134.738.222l-.091.909a5.095 5.095 0 00-.793-.278 2.677 2.677 0 00-.711-.097c-.264 0-.466.044-.606.132a.425.425 0 00-.209.381c0 .13.038.236.112.319a.858.858 0 00.299.209c.13.055.321.122.571.201.562.176.971.379 1.226.61.26.227.39.539.39.937 0 .379-.132.71-.397.992-.265.282-.761.423-1.49.423zm5.489-3.566v3.469h-.808l-.014-.208a1.659 1.659 0 01-.369.201 1.17 1.17 0 01-.404.076c-.515 0-.891-.148-1.128-.444-.232-.296-.348-.705-.348-1.228v-1.866h.863v1.866c0 .324.054.565.161.722.111.152.287.229.529.229a.823.823 0 00.655-.292v-2.525h.863zm2.624-.055c.33 0 .613.081.85.243.236.161.415.379.536.652.121.273.181.573.181.902 0 .328-.06.628-.181.901s-.3.491-.536.652c-.237.162-.52.243-.85.243-.209 0-.388-.023-.536-.069a1.374 1.374 0 01-.418-.208v1.887h-.864v-5.148h.697l.09.319a1.57 1.57 0 01.467-.277c.162-.065.35-.097.564-.097zm-.132 2.886c.255 0 .455-.1.599-.299.144-.198.216-.462.216-.79 0-.329-.072-.592-.216-.791a.699.699 0 00-.599-.299c-.288 0-.504.097-.648.292-.144.194-.216.46-.216.798 0 .337.072.603.216.797.144.195.36.292.648.292zm2.3-2.831h.808l.02.368c.103-.116.233-.217.391-.305.162-.088.331-.132.508-.132.056 0 .107.004.153.014l-.063.846a1.186 1.186 0 00-.299-.035.787.787 0 00-.397.104.599.599 0 00-.258.243v2.366h-.863v-3.469zm3.528-1.387h.927l.975 3.448 1.086-3.448h.62l1.128 3.357.933-3.357h.927l-1.428 4.856h-.787l-1.086-3.24-1.08 3.24h-.843l-1.372-4.856zm8.796 1.332c.441 0 .768.143.982.43.218.282.327.67.327 1.165v1.929h-.864v-1.866c0-.329-.053-.569-.16-.722-.107-.152-.276-.229-.508-.229-.274 0-.499.1-.676.299v2.518h-.863v-5.203h.863v1.956c.14-.088.281-.155.425-.201.144-.051.302-.076.474-.076zm2.08-1.332h.864v.86h-.864v-.86zm0 1.387h.864v3.469h-.864v-3.469zm2.809 3.538c-.307 0-.539-.088-.697-.263a.95.95 0 01-.237-.646v-1.921h-.494l.077-.708h.417v-.763l.864-.09v.853h.766v.708h-.766v1.568c0 .185.009.314.028.388.023.07.067.116.132.139.07.018.193.028.369.028h.237l-.076.707h-.62zm2.937 0c-.404 0-.75-.081-1.038-.243a1.64 1.64 0 01-.64-.659 2.016 2.016 0 01-.209-.922c0-.324.067-.62.202-.888.134-.268.329-.481.585-.638.255-.162.559-.243.912-.243.325 0 .599.067.822.201.227.134.397.314.508.541.116.227.174.481.174.763 0 .139-.018.296-.056.472h-2.249c.046.305.167.534.362.687.195.148.43.222.703.222a2.01 2.01 0 001.045-.285l.042.729a2.421 2.421 0 01-.522.194 2.793 2.793 0 01-.641.069zm.439-2.199c0-.18-.051-.34-.154-.479-.102-.138-.26-.208-.473-.208a.71.71 0 00-.515.188.96.96 0 00-.265.499h1.407zm130.702-74.779c-.274 0-.569-.037-.885-.11a3.507 3.507 0 01-.731-.244l.105-.943c.612.296 1.151.444 1.615.444.246 0 .439-.046.578-.139a.482.482 0 00.209-.423.489.489 0 00-.118-.34.809.809 0 00-.328-.229 9.403 9.403 0 00-.689-.263 4.382 4.382 0 01-.738-.32 1.411 1.411 0 01-.467-.437c-.111-.18-.167-.4-.167-.659 0-.416.153-.751.46-1.006.306-.254.745-.381 1.316-.381.269 0 .536.03.801.09.269.06.515.134.738.222l-.09.909a5.155 5.155 0 00-.794-.278 2.69 2.69 0 00-.711-.097c-.264 0-.466.044-.606.132a.425.425 0 00-.209.382c0 .129.038.235.112.319a.86.86 0 00.299.208c.13.055.321.122.571.2.562.177.971.38 1.226.611.26.227.39.54.39.937 0 .38-.132.71-.397.992-.264.282-.761.423-1.49.423zm5.489-3.566v3.47h-.808l-.014-.21a1.612 1.612 0 01-.369.202 1.17 1.17 0 01-.404.076c-.515 0-.891-.148-1.128-.444-.232-.296-.348-.705-.348-1.227v-1.867h.864v1.867c0 .323.053.564.16.721.111.153.288.229.529.229a.825.825 0 00.655-.291v-2.526h.863zm2.624-.055c.33 0 .613.08.85.243.236.161.415.379.536.652a2.2 2.2 0 01.181.902 2.2 2.2 0 01-.181.901c-.121.273-.3.49-.536.653a1.47 1.47 0 01-.85.242c-.209 0-.388-.023-.536-.069a1.363 1.363 0 01-.418-.208v1.887h-.864v-5.148h.697l.09.32c.149-.125.304-.218.467-.278.162-.065.35-.097.564-.097zm-.132 2.886c.255 0 .455-.1.599-.299.144-.198.216-.462.216-.79 0-.329-.072-.592-.216-.791a.699.699 0 00-.599-.298c-.288 0-.504.097-.648.29-.144.195-.216.461-.216.799 0 .337.072.603.216.797.144.195.36.292.648.292zm2.3-2.831h.808l.021.368c.102-.116.232-.217.39-.305.162-.088.332-.132.508-.132.056 0 .107.005.153.014l-.063.846a1.182 1.182 0 00-.299-.034.783.783 0 00-.397.104.596.596 0 00-.258.242v2.366h-.863v-3.469zm3.995-1.387h1.825c.464 0 .877.097 1.239.291.367.195.653.474.857.84.204.365.306.797.306 1.297 0 .5-.102.932-.306 1.297-.204.366-.49.645-.857.84a2.58 2.58 0 01-1.239.291h-1.825V63.89zm1.825 4.065c.464 0 .817-.143 1.058-.43.246-.291.369-.694.369-1.207 0-.513-.123-.913-.369-1.2-.241-.292-.594-.437-1.058-.437h-.933v3.274h.933zm4.693.86c-.404 0-.75-.08-1.038-.242a1.653 1.653 0 01-.641-.66 2.031 2.031 0 01-.209-.922c0-.324.068-.62.202-.888a1.56 1.56 0 01.585-.638 1.67 1.67 0 01.913-.243c.325 0 .599.067.822.201.227.134.397.314.508.541.116.227.174.481.174.763 0 .139-.018.296-.056.472h-2.249c.046.305.167.534.362.687.195.148.429.222.703.222a2.01 2.01 0 001.045-.285l.042.729a2.385 2.385 0 01-.522.194c-.195.046-.409.07-.641.07zm.439-2.199c0-.18-.051-.34-.154-.478-.102-.14-.26-.209-.473-.209a.713.713 0 00-.516.188.959.959 0 00-.264.5h1.407zm2.358 2.199c-.297 0-.52-.083-.669-.25-.148-.17-.222-.39-.222-.658v-4.364h.863v4.01c0 .185.009.317.028.395.023.074.06.12.111.139a1.3 1.3 0 00.279.02l-.077.708h-.313zm.938-4.925h.864v.86h-.864v-.86zm0 1.387h.864v3.47h-.864v-3.47zm3.052 5.217c-.492 0-.884-.09-1.177-.27-.292-.176-.439-.416-.439-.722 0-.333.188-.606.564-.818-.204-.125-.306-.29-.306-.493 0-.106.03-.201.091-.284a.7.7 0 01.257-.202 1.229 1.229 0 01-.404-.478 1.529 1.529 0 01-.132-.639c0-.254.056-.485.167-.693.112-.213.274-.38.488-.5.213-.125.466-.187.759-.187.306 0 .571.074.794.222.079-.042.183-.076.313-.104.135-.032.279-.049.432-.049h.223l-.056.541h-.313a2.51 2.51 0 00-.195.007c.139.213.209.468.209.763 0 .255-.056.489-.168.701a1.212 1.212 0 01-.48.5c-.214.12-.467.18-.759.18-.107 0-.23-.016-.369-.048-.051.023-.077.06-.077.11 0 .06.035.11.104.146.075.033.198.06.37.083l.599.077c.798.106 1.197.441 1.197 1.006 0 .351-.15.631-.452.84-.297.207-.711.311-1.24.311zm-.132-3.163c.199 0 .353-.065.459-.194.112-.135.168-.317.168-.549 0-.23-.056-.411-.168-.54-.106-.135-.26-.202-.459-.202-.205 0-.362.067-.474.201-.107.13-.16.31-.16.541 0 .232.053.415.16.549.112.13.269.194.474.194zm.167 2.511c.594 0 .891-.145.891-.437a.322.322 0 00-.153-.291c-.102-.06-.271-.109-.508-.146l-.766-.11c-.265.105-.397.267-.397.485 0 .166.081.291.243.374.163.084.393.125.69.125zm3.83-4.62c.441 0 .768.143.982.43.218.282.327.67.327 1.165v1.93h-.863V66.88c0-.328-.054-.569-.16-.722-.107-.152-.277-.228-.509-.228a.86.86 0 00-.675.298v2.518h-.864v-5.203h.864v1.956a1.84 1.84 0 01.425-.2c.143-.052.301-.077.473-.077zm3.175 3.593c-.306 0-.538-.087-.696-.263a.947.947 0 01-.237-.645v-1.922h-.494l.076-.708h.418v-.763l.864-.09v.853h.766v.708h-.766v1.568c0 .185.009.314.028.388a.21.21 0 00.132.14c.069.018.193.027.369.027h.237l-.077.707h-.62z" fill="#000"/><path d="M24.73 76.73h-.575l.215-.48h.55l.196-.51h-.6l.151-.451h.62l.36-.923h.434l-.356.922h.59l.356-.922h.434l-.356.922h.546l-.156.452h-.56l-.196.51h.614l-.219.48h-.58l-.415 1.089h-.438l.414-1.088h-.585l-.42 1.088h-.433l.41-1.088zm1.21-.48l.204-.51h-.59l-.2.51h.585zm2.778-.626c.225 0 .421.045.59.136a.915.915 0 01.39.378c.095.162.142.352.142.569 0 .226-.052.425-.156.597a1.037 1.037 0 01-.43.388 1.37 1.37 0 01-.619.136 1.88 1.88 0 01-.516-.068c-.16-.048-.3-.115-.424-.199l.131-.51c.137.081.267.143.39.185.127.042.262.063.405.063a.667.667 0 00.468-.16.55.55 0 00.18-.432c0-.198-.066-.35-.2-.457-.13-.11-.312-.165-.546-.165a3.13 3.13 0 00-.658.083l.22-1.802h1.608l-.034.544h-1.14l-.093.733c.123-.013.22-.02.292-.02zm2.502.752c.182-.275.308-.489.38-.64a.975.975 0 00.112-.428.489.489 0 00-.127-.355.465.465 0 00-.35-.13c-.284 0-.56.134-.83.402l-.068-.573c.296-.236.628-.354.995-.354.198 0 .367.042.507.126.143.081.25.191.322.33.071.14.107.295.107.466 0 .198-.043.395-.127.593a4.954 4.954 0 01-.429.758l-.444.67h1.122v.524h-2.077l.907-1.389zm3.34 1.457c-.337 0-.638-.073-.901-.218a1.573 1.573 0 01-.62-.617 1.92 1.92 0 01-.219-.933c0-.352.075-.662.225-.927.152-.269.362-.476.628-.622a1.86 1.86 0 01.907-.218c.17 0 .33.018.483.053.153.036.29.084.41.146l-.06.534a1.962 1.962 0 00-.838-.199c-.24 0-.447.053-.619.16a.991.991 0 00-.385.437 1.464 1.464 0 00-.132.636c0 .24.043.454.127.642.088.184.216.33.385.437.17.103.374.155.615.155.152 0 .295-.016.429-.049.136-.032.276-.08.419-.145l.058.53a2.066 2.066 0 01-.911.198zm2.215-1.457a5.45 5.45 0 00.38-.64.975.975 0 00.113-.428.489.489 0 00-.127-.355.465.465 0 00-.35-.13c-.284 0-.56.134-.83.402l-.068-.573c.296-.236.627-.354.995-.354.198 0 .367.042.507.126.143.081.25.191.321.33.072.14.108.295.108.466 0 .198-.043.395-.127.593a4.954 4.954 0 01-.43.758l-.443.67h1.121v.524H35.87l.906-1.389zm3.629-.466c.436.126.653.423.653.889 0 .3-.099.537-.297.709-.195.171-.463.257-.804.257H38.58v-3.4h1.209c.322 0 .565.07.731.21.166.139.249.344.249.616 0 .165-.031.31-.093.433a.702.702 0 01-.273.286zm-1.258-.18h.566c.162 0 .284-.032.365-.097.085-.068.127-.18.127-.335 0-.155-.042-.265-.127-.33-.08-.068-.203-.102-.365-.102h-.566v.864zm.736 1.53c.387 0 .58-.17.58-.51 0-.184-.051-.315-.155-.393-.101-.081-.242-.121-.425-.121h-.736v1.024h.736zm3.521-1.35c.436.126.654.423.654.889 0 .3-.1.537-.298.709-.195.171-.463.257-.804.257H41.58v-3.4h1.21c.32 0 .565.07.73.21.166.139.249.344.249.616a.94.94 0 01-.093.433.702.702 0 01-.273.286zm-1.257-.18h.565c.163 0 .285-.032.366-.097.084-.068.127-.18.127-.335 0-.155-.043-.265-.127-.33-.081-.068-.203-.102-.366-.102h-.565v.864zm.736 1.53c.387 0 .58-.17.58-.51 0-.184-.052-.315-.156-.393-.1-.081-.242-.121-.424-.121h-.736v1.024h.736zm62.635-.53h-.576l.215-.48h.551l.195-.51h-.6l.151-.451h.619l.361-.923h.434l-.356.922h.59l.356-.922h.434l-.356.922h.546l-.156.452h-.561l-.195.51h.614l-.219.48h-.58l-.414 1.089h-.439l.414-1.088h-.585l-.419 1.088h-.434l.41-1.088zm1.209-.48l.204-.51h-.59l-.199.51h.585zm3.714-.34c.436.126.654.423.654.889 0 .3-.1.537-.298.709-.195.171-.463.257-.804.257h-1.375v-3.4h1.209c.322 0 .566.07.731.21.166.139.249.344.249.616 0 .165-.031.31-.093.433a.693.693 0 01-.273.286zm-1.257-.18h.565c.163 0 .284-.032.366-.097.084-.068.126-.18.126-.335 0-.155-.042-.265-.126-.33-.082-.068-.203-.102-.366-.102h-.565v.864zm.736 1.53c.386 0 .58-.17.58-.51 0-.184-.052-.315-.156-.393-.101-.081-.242-.121-.424-.121h-.736v1.024h.736zm3.233.573c-.338 0-.639-.073-.902-.218a1.577 1.577 0 01-.619-.617 1.922 1.922 0 01-.219-.933c0-.352.074-.662.224-.927.153-.269.362-.476.629-.622.266-.145.569-.218.907-.218.169 0 .329.018.482.053.153.036.289.084.41.146l-.059.534a1.962 1.962 0 00-.838-.199 1.15 1.15 0 00-.619.16.995.995 0 00-.386.437 1.475 1.475 0 00-.131.636c0 .24.042.454.127.642.087.184.216.33.385.437.169.103.373.155.614.155.153 0 .296-.016.429-.049a2.32 2.32 0 00.419-.145l.059.53a2.068 2.068 0 01-.912.198zm2.8-1.86a.903.903 0 01.448.311.85.85 0 01.161.53c0 .317-.11.566-.331.747-.218.181-.507.272-.868.272-.185 0-.361-.022-.527-.068a1.926 1.926 0 01-.438-.165l.136-.49c.293.155.571.233.834.233.192 0 .343-.046.453-.136a.481.481 0 00.166-.389c0-.181-.059-.319-.176-.412-.113-.094-.286-.141-.516-.141h-.298v-.525h.293c.188 0 .334-.042.439-.126a.452.452 0 00.155-.364.431.431 0 00-.136-.34c-.088-.081-.214-.122-.38-.122-.13 0-.255.021-.376.064a2.09 2.09 0 00-.375.184l-.083-.52a1.82 1.82 0 01.897-.218c.322 0 .57.08.746.243a.817.817 0 01.268.636.898.898 0 01-.131.485.81.81 0 01-.361.311zm2.047.403c.182-.275.309-.489.381-.64a.985.985 0 00.112-.428.487.487 0 00-.127-.355.464.464 0 00-.351-.13c-.283 0-.559.134-.829.402l-.068-.573c.296-.236.627-.354.995-.354.198 0 .367.042.507.126.143.081.25.191.321.33a1 1 0 01.108.466c0 .198-.043.395-.127.593a4.92 4.92 0 01-.429.758l-.444.67h1.121v.524h-2.076l.906-1.389zm2.147-1.209c-.153.11-.305.183-.458.219l-.063-.49c.117-.03.242-.096.375-.2a.997.997 0 00.288-.33h.419v3.4h-.561v-2.599zm1.378-.801h2.096v.534h-1.531v.826h1.18v.534h-1.18v1.505h-.565v-3.4zm64.779 2.364h-.576l.215-.48h.551l.195-.51h-.6l.151-.451h.619l.361-.923h.434l-.356.922h.59l.356-.922h.434l-.356.922h.546l-.156.452h-.561l-.195.51h.614l-.219.48h-.58l-.414 1.089h-.439l.414-1.088h-.585l-.419 1.088h-.434l.41-1.088zm1.209-.48l.204-.51h-.59l-.199.51h.585zm3.051-.53c.192 0 .364.046.517.137a.91.91 0 01.356.364c.088.155.132.332.132.53 0 .213-.047.402-.142.567a.954.954 0 01-.39.38c-.169.09-.365.135-.59.135-.237 0-.443-.052-.619-.155a1.06 1.06 0 01-.404-.447 1.476 1.476 0 01-.142-.665c0-.34.077-.66.229-.957.153-.301.347-.562.58-.782.234-.223.478-.4.732-.53l.395.326a3.155 3.155 0 00-.751.525 2.112 2.112 0 00-.541.752c.172-.12.385-.18.638-.18zm-.112 1.642a.548.548 0 00.415-.17.583.583 0 00.165-.422.545.545 0 00-.165-.408.556.556 0 00-.415-.165.57.57 0 00-.585.573c0 .168.055.309.166.422.111.114.25.17.419.17zm3.473-.442h-1.267l-.297.845h-.566l1.219-3.4h.556l1.213 3.4h-.56l-.298-.845zm-.18-.5l-.453-1.292-.459 1.292h.912zm2.927 1.413c-.338 0-.639-.073-.902-.218a1.57 1.57 0 01-.619-.617 1.912 1.912 0 01-.22-.933c0-.352.075-.662.225-.927.152-.269.362-.476.628-.622.267-.145.569-.218.907-.218.169 0 .33.018.483.053.153.036.289.084.409.146l-.058.534a1.963 1.963 0 00-.839-.199c-.24 0-.447.053-.619.16a.993.993 0 00-.385.437 1.46 1.46 0 00-.132.636c0 .24.043.454.127.642.088.184.216.33.385.437.169.103.374.155.615.155.152 0 .295-.016.429-.049a2.32 2.32 0 00.419-.145l.058.53a2.066 2.066 0 01-.911.198zm2.214-1.457c.182-.275.309-.489.381-.64a.985.985 0 00.112-.428.487.487 0 00-.127-.355.464.464 0 00-.351-.13c-.283 0-.559.134-.829.402l-.068-.573c.296-.236.627-.354.995-.354.198 0 .367.042.507.126.143.081.25.191.321.33a1 1 0 01.108.466c0 .198-.043.395-.127.593a4.92 4.92 0 01-.429.758l-.444.67h1.121v.524h-2.076l.906-1.389zm2.693-.752c.224 0 .421.045.59.136a.915.915 0 01.39.378c.094.162.141.352.141.569 0 .226-.052.425-.156.597a1.037 1.037 0 01-.429.388 1.37 1.37 0 01-.619.136 1.88 1.88 0 01-.516-.068 1.55 1.55 0 01-.425-.199l.132-.51c.137.081.267.143.39.185.127.042.262.063.405.063a.667.667 0 00.468-.16.55.55 0 00.18-.432.552.552 0 00-.2-.457c-.13-.11-.312-.165-.546-.165a3.12 3.12 0 00-.658.083l.219-1.802h1.609l-.034.544h-1.141l-.092.733c.123-.013.221-.02.292-.02zm2.701-1.326c.238 0 .444.053.619.16.176.104.311.251.405.442.094.191.141.413.141.665 0 .33-.074.641-.224.933-.146.288-.333.54-.56.757a3.19 3.19 0 01-.707.51l-.395-.325c.237-.117.474-.28.712-.49.237-.214.412-.452.526-.715a1.104 1.104 0 01-.634.175c-.191 0-.364-.043-.516-.13a.986.986 0 01-.361-.37 1.084 1.084 0 01-.127-.53c0-.213.046-.4.137-.563a.974.974 0 01.394-.383c.169-.09.366-.136.59-.136zm-.005 1.627a.546.546 0 00.576-.563.554.554 0 00-.576-.578.564.564 0 00-.414.165.57.57 0 00-.161.412.546.546 0 00.575.564zM24.73 153.737h-.575l.215-.481h.55l.196-.51h-.6l.151-.452h.62l.36-.922h.434l-.356.922h.59l.356-.922h.434l-.356.922h.546l-.156.452h-.56l-.196.51h.614l-.219.481h-.58l-.415 1.087h-.438l.414-1.087h-.585l-.42 1.087h-.433l.41-1.087zm1.21-.481l.204-.51h-.59l-.2.51h.585zm3.227 1.583c-.29 0-.543-.074-.76-.223a1.505 1.505 0 01-.503-.637 2.348 2.348 0 01-.175-.937c0-.34.06-.641.18-.903.12-.265.29-.471.507-.617.218-.145.468-.218.75-.218.287 0 .539.073.756.218.218.146.386.35.503.612.12.262.18.565.18.908 0 .353-.06.666-.18.937a1.457 1.457 0 01-.503.637 1.291 1.291 0 01-.755.223zm0-.505a.728.728 0 00.629-.325c.152-.217.229-.539.229-.967 0-.404-.078-.712-.234-.922a.737.737 0 00-.624-.316.75.75 0 00-.629.316c-.156.21-.234.518-.234.922 0 .424.076.746.23.967a.74.74 0 00.633.325zm3.428.505c-.29 0-.543-.074-.76-.223a1.505 1.505 0 01-.503-.637 2.348 2.348 0 01-.176-.937c0-.34.06-.641.18-.903.121-.265.29-.471.508-.617.218-.145.468-.218.75-.218.287 0 .538.073.756.218.218.146.385.35.502.612.12.262.18.565.18.908 0 .353-.06.666-.18.937a1.457 1.457 0 01-.502.637 1.29 1.29 0 01-.755.223zm0-.505a.728.728 0 00.629-.325c.152-.217.229-.539.229-.967 0-.404-.078-.712-.234-.922a.737.737 0 00-.624-.316.75.75 0 00-.63.316c-.155.21-.233.518-.233.922 0 .424.076.746.229.967a.74.74 0 00.634.325zm3.427.505c-.289 0-.542-.074-.76-.223a1.505 1.505 0 01-.502-.637 2.348 2.348 0 01-.176-.937c0-.34.06-.641.18-.903.12-.265.29-.471.508-.617.217-.145.468-.218.75-.218.286 0 .538.073.756.218.218.146.385.35.502.612.12.262.18.565.18.908 0 .353-.06.666-.18.937a1.457 1.457 0 01-.502.637 1.291 1.291 0 01-.756.223zm0-.505a.728.728 0 00.63-.325c.152-.217.228-.539.228-.967 0-.404-.078-.712-.234-.922a.737.737 0 00-.624-.316.75.75 0 00-.629.316c-.156.21-.234.518-.234.922 0 .424.077.746.23.967a.74.74 0 00.633.325zm3.428.505c-.29 0-.543-.074-.76-.223a1.505 1.505 0 01-.503-.637 2.348 2.348 0 01-.175-.937c0-.34.06-.641.18-.903.12-.265.29-.471.507-.617.218-.145.468-.218.751-.218.286 0 .538.073.756.218.217.146.385.35.502.612.12.262.18.565.18.908 0 .353-.06.666-.18.937a1.457 1.457 0 01-.502.637 1.29 1.29 0 01-.756.223zm0-.505a.728.728 0 00.629-.325c.153-.217.23-.539.23-.967 0-.404-.079-.712-.235-.922a.737.737 0 00-.624-.316.75.75 0 00-.629.316c-.156.21-.234.518-.234.922 0 .424.077.746.23.967a.74.74 0 00.633.325zm3.428.505c-.29 0-.543-.074-.76-.223a1.505 1.505 0 01-.503-.637 2.348 2.348 0 01-.175-.937c0-.34.06-.641.18-.903.12-.265.29-.471.507-.617.218-.145.468-.218.75-.218.287 0 .539.073.756.218.218.146.386.35.503.612.12.262.18.565.18.908 0 .353-.06.666-.18.937a1.457 1.457 0 01-.503.637 1.29 1.29 0 01-.755.223zm0-.505a.728.728 0 00.629-.325c.152-.217.229-.539.229-.967 0-.404-.078-.712-.234-.922a.737.737 0 00-.624-.316.75.75 0 00-.63.316c-.155.21-.233.518-.233.922 0 .424.076.746.23.967a.74.74 0 00.633.325zm3.428.505c-.29 0-.543-.074-.76-.223a1.505 1.505 0 01-.503-.637 2.348 2.348 0 01-.176-.937c0-.34.06-.641.18-.903.121-.265.29-.471.508-.617.218-.145.468-.218.75-.218.287 0 .538.073.756.218.218.146.385.35.502.612.12.262.18.565.18.908 0 .353-.06.666-.18.937a1.457 1.457 0 01-.502.637 1.29 1.29 0 01-.755.223zm0-.505a.728.728 0 00.628-.325c.153-.217.23-.539.23-.967 0-.404-.078-.712-.234-.922a.737.737 0 00-.624-.316.75.75 0 00-.63.316c-.155.21-.233.518-.233.922 0 .424.076.746.229.967a.74.74 0 00.634.325zm59.211-.597h-.576l.215-.481h.551l.195-.51h-.6l.151-.452h.619l.361-.922h.434l-.356.922h.59l.356-.922h.434l-.356.922h.546l-.156.452h-.561l-.195.51h.614l-.219.481h-.58l-.414 1.087h-.439l.414-1.087h-.585l-.419 1.087h-.434l.41-1.087zm1.209-.481l.204-.51h-.59l-.199.51h.585zm1.891-1.884h2.096v.534h-1.53v.825h1.179v.535h-1.179v1.505h-.566v-3.399zm2.557 0h2.096v.534h-1.531v.825h1.18v.535h-1.18v1.505h-.565v-3.399zm2.556 0h2.096v.534h-1.53v.825h1.179v.535h-1.179v1.505h-.566v-3.399zm2.557 0h2.096v.534h-1.531v.825h1.18v.535h-1.18v1.505h-.565v-3.399zm2.556 0h2.096v.534h-1.53v.825h1.179v.535h-1.179v1.505h-.566v-3.399zm2.557 0h2.096v.534h-1.531v.825h1.18v.535h-1.18v1.505h-.565v-3.399zM267.089 76.73h-.576l.215-.48h.551l.195-.51h-.6l.151-.451h.619l.361-.923h.434l-.356.922h.59l.356-.922h.434l-.356.922h.546l-.156.452h-.561l-.195.51h.614l-.219.48h-.58l-.414 1.089h-.439l.414-1.088h-.585l-.419 1.088h-.434l.41-1.088zm1.209-.48l.204-.51h-.59l-.199.51h.585zm1.891-1.884h2.096v.534h-1.53v.826h1.179v.534h-1.179v1.505h-.566v-3.4zm3.322 2.01c.182-.275.309-.489.38-.64a.971.971 0 00.112-.428.49.49 0 00-.126-.355.467.467 0 00-.351-.13c-.283 0-.559.134-.829.402l-.068-.573a1.55 1.55 0 01.994-.354c.198 0 .367.042.507.126.143.081.25.191.322.33.071.14.107.295.107.466 0 .198-.042.395-.127.593a4.92 4.92 0 01-.429.758l-.443.67h1.121v.524h-2.077l.907-1.389zm3.629-.466c.435.126.653.423.653.889 0 .3-.099.537-.297.709-.195.171-.464.257-.805.257h-1.375v-3.4h1.209c.322 0 .566.07.732.21.165.139.248.344.248.616 0 .165-.031.31-.092.433a.705.705 0 01-.273.286zm-1.258-.18h.565c.163 0 .285-.032.366-.097.085-.068.127-.18.127-.335 0-.155-.042-.265-.127-.33-.081-.068-.203-.102-.366-.102h-.565v.864zm.736 1.53c.387 0 .58-.17.58-.51 0-.184-.052-.315-.156-.393-.101-.081-.242-.121-.424-.121h-.736v1.024h.736zm3.233.573c-.338 0-.638-.073-.901-.218a1.573 1.573 0 01-.62-.617 1.922 1.922 0 01-.219-.933c0-.352.075-.662.224-.927.153-.269.363-.476.629-.622.267-.145.569-.218.907-.218.169 0 .33.018.483.053.152.036.289.084.409.146l-.058.534a1.966 1.966 0 00-.839-.199c-.24 0-.447.053-.619.16a.993.993 0 00-.385.437 1.46 1.46 0 00-.132.636c0 .24.042.454.127.642.088.184.216.33.385.437.169.103.374.155.614.155.153 0 .296-.016.429-.049.137-.032.277-.08.42-.145l.058.53a2.068 2.068 0 01-.912.198zm1.791-2.666c-.153.11-.306.183-.458.219l-.064-.49c.117-.03.242-.096.376-.2a.982.982 0 00.287-.33h.42v3.4h-.561v-2.599zm3.147.743a.918.918 0 01.38.36.993.993 0 01.137.52c0 .203-.049.384-.146.543a.977.977 0 01-.42.37 1.413 1.413 0 01-.629.13c-.24 0-.451-.043-.633-.13a.98.98 0 01-.415-.37 1.022 1.022 0 01-.146-.544.957.957 0 01.522-.879.879.879 0 01-.268-.301.812.812 0 01-.098-.393.97.97 0 01.107-.447.853.853 0 01.346-.34c.156-.087.351-.131.585-.131.234 0 .428.044.581.131a.79.79 0 01.331.34.96.96 0 01.107.447.902.902 0 01-.087.398.771.771 0 01-.254.296zm-.678-1.15a.559.559 0 00-.385.125.434.434 0 00-.136.335.43.43 0 00.141.33.536.536 0 00.38.132c.163 0 .286-.044.371-.131a.446.446 0 00.132-.33.444.444 0 00-.132-.336c-.085-.084-.208-.126-.371-.126zm0 2.583c.205 0 .366-.052.483-.156a.536.536 0 00.176-.422.545.545 0 00-.176-.423c-.117-.11-.278-.165-.483-.165-.201 0-.36.055-.477.165a.545.545 0 00-.176.423.54.54 0 00.171.422c.117.104.278.156.482.156z" fill="#999"/><path fill="#F2BC18" d="M266.356 24h69.643v34.687h-69.643z"/></g><path d="M46.029 223.137h-13.47l-3.367 9.479h-5.026l12.615-35.108h5.026l12.615 35.108h-5.026l-3.367-9.479zm-1.508-4.313l-5.227-14.646-5.227 14.646h10.454zm19.059 14.294c-2.279 0-4.121-.669-5.529-2.006-1.373-1.338-2.06-3.043-2.06-5.116 0-3.11 1.474-5.333 4.423-6.671 2.948-1.337 6.382-2.039 10.303-2.106 0-2.207-.436-3.695-1.307-4.464-.838-.803-2.195-1.204-4.071-1.204a10.1 10.1 0 00-3.116.502c-1.039.301-2.161.869-3.367 1.705l-.654-3.661c1.005-.769 2.245-1.388 3.72-1.856a15.19 15.19 0 014.623-.702c2.111 0 3.786.368 5.026 1.103 1.273.736 2.195 1.956 2.764 3.661.603 1.706.905 4.046.905 7.022v5.016c0 1.337.05 2.357.15 3.059.135.669.403 1.187.805 1.555.402.368 1.022.552 1.86.552h.452l-.704 3.611h-.352c-1.407 0-2.513-.134-3.317-.401-.804-.268-1.424-.652-1.86-1.154-.401-.502-.787-1.187-1.155-2.056-2.078 2.407-4.59 3.611-7.54 3.611zm.854-3.611c1.207 0 2.362-.301 3.468-.903a8.185 8.185 0 002.815-2.408v-5.868c-3.619.134-6.216.619-7.79 1.455-1.542.802-2.312 2.123-2.312 3.962 0 1.271.335 2.224 1.005 2.859.703.602 1.642.903 2.814.903zm81.315-16c2.211.535 3.903 1.572 5.076 3.11 1.172 1.504 1.759 3.494 1.759 5.968 0 3.11-1.005 5.567-3.016 7.373-1.977 1.772-4.707 2.658-8.192 2.658h-13.268v-35.108h11.107c3.216 0 5.696.719 7.438 2.156 1.776 1.438 2.664 3.578 2.664 6.42 0 1.672-.302 3.16-.905 4.464-.603 1.304-1.491 2.29-2.663 2.959zm-12.867-1.404h5.73c1.876 0 3.3-.368 4.272-1.104 1.005-.769 1.508-2.123 1.508-4.062s-.503-3.277-1.508-4.013c-.972-.769-2.396-1.153-4.272-1.153h-5.73v10.332zm8.092 16.2c1.977 0 3.535-.485 4.674-1.455 1.139-1.003 1.709-2.474 1.709-4.413 0-4.013-2.128-6.019-6.383-6.019h-8.092v11.887h8.092zm27.985-20.764c2.212 0 4.155.585 5.83 1.755 1.709 1.17 3.016 2.742 3.92 4.715.905 1.939 1.357 4.046 1.357 6.319 0 2.341-.502 4.497-1.507 6.47-.972 1.94-2.312 3.478-4.021 4.614-1.675 1.137-3.535 1.706-5.579 1.706-1.508 0-2.965-.301-4.372-.903-1.408-.635-2.497-1.505-3.267-2.608l-.503 3.009h-4.02V195h4.523v15.899c.905-1.036 2.027-1.856 3.367-2.457a10.538 10.538 0 014.272-.903zm-.553 21.566c2.111 0 3.803-.836 5.077-2.507 1.306-1.706 1.96-3.795 1.96-6.27 0-2.541-.654-4.631-1.96-6.269-1.274-1.672-2.966-2.508-5.077-2.508-2.077 0-3.819.769-5.227 2.307-1.407 1.505-2.11 3.662-2.11 6.47 0 2.909.686 5.099 2.06 6.571 1.407 1.471 3.166 2.206 5.277 2.206zm78.109 4.213c-3.418 0-6.467-.752-9.147-2.257-2.681-1.504-4.791-3.627-6.333-6.369-1.507-2.776-2.261-5.985-2.261-9.63 0-3.645.77-6.838 2.312-9.58 1.541-2.775 3.668-4.915 6.382-6.419 2.714-1.505 5.797-2.257 9.248-2.257 1.709 0 3.384.183 5.026.551 1.642.368 3.099.87 4.373 1.505l-.503 4.414c-3.016-1.438-5.998-2.157-8.946-2.157-2.681 0-4.976.618-6.886 1.856-1.909 1.203-3.35 2.858-4.322 4.965-.972 2.106-1.457 4.48-1.457 7.122 0 2.641.485 5.015 1.457 7.122.972 2.106 2.396 3.778 4.272 5.015 1.876 1.204 4.155 1.806 6.835 1.806 3.15 0 6.165-.702 9.047-2.106l.503 4.413c-2.915 1.338-6.115 2.006-9.6 2.006zm24.956-.2c-2.681 0-4.993-.552-6.936-1.655-1.91-1.104-3.351-2.608-4.322-4.514-.972-1.94-1.458-4.096-1.458-6.47 0-3.879 1.089-7.005 3.267-9.379 2.211-2.374 5.478-3.561 9.8-3.561 2.547 0 4.792.485 6.735 1.454l-.703 3.962c-2.044-.936-4.088-1.404-6.132-1.404-2.681 0-4.741.769-6.182 2.307-1.441 1.505-2.161 3.645-2.161 6.42s.687 4.949 2.061 6.52c1.407 1.572 3.467 2.358 6.181 2.358 2.178 0 4.272-.502 6.283-1.505l.603 3.611c-.737.502-1.759.936-3.066 1.304a14.227 14.227 0 01-3.97.552zM25.168 265.969c-.351 0-.634-.103-.851-.308a1.053 1.053 0 01-.317-.787c0-.479.227-.821.68-1.027.454-.205.982-.313 1.585-.324 0-.339-.067-.568-.2-.687-.13-.123-.338-.185-.627-.185-.16 0-.32.026-.48.077a1.83 1.83 0 00-.517.263l-.1-.563a1.84 1.84 0 01.571-.286 2.34 2.34 0 01.712-.108c.325 0 .582.057.773.17.196.113.338.301.425.563.093.262.14.622.14 1.08v.772c0 .206.007.363.023.471a.43.43 0 00.123.239c.062.056.157.085.286.085h.07l-.108.555h-.054c-.217 0-.387-.02-.51-.061a.643.643 0 01-.287-.178 1.367 1.367 0 01-.178-.316c-.32.37-.706.555-1.16.555zm.131-.555c.186 0 .363-.047.534-.139.175-.093.32-.216.433-.371v-.902c-.557.02-.957.095-1.199.223-.237.124-.356.327-.356.61 0 .195.052.342.155.44a.647.647 0 00.433.139zm10.983-3.38c.34 0 .64.09.897.27.263.18.464.422.603.725.14.299.21.623.21.973 0 .36-.078.692-.233.995-.15.298-.356.535-.618.71a1.494 1.494 0 01-.859.262c-.232 0-.456-.046-.672-.139a1.187 1.187 0 01-.503-.401l-.077.463h-.619v-5.787h.696v2.446c.14-.159.312-.285.518-.378.211-.093.43-.139.657-.139zm-.085 3.318a.934.934 0 00.781-.386c.201-.262.302-.584.302-.964 0-.391-.1-.713-.302-.965a.934.934 0 00-.78-.386c-.32 0-.588.119-.805.355-.216.232-.325.564-.325.996 0 .447.106.784.317 1.01.217.227.488.34.812.34zm10.668.617c-.412 0-.768-.085-1.067-.254a1.664 1.664 0 01-.665-.695 2.189 2.189 0 01-.224-.995c0-.597.168-1.078.502-1.443.34-.365.843-.548 1.508-.548.392 0 .737.075 1.036.224l-.108.609a2.25 2.25 0 00-.943-.216c-.413 0-.73.119-.951.355-.222.232-.333.561-.333.988 0 .427.106.761.317 1.003.217.242.534.363.951.363.335 0 .658-.077.967-.232l.093.556c-.114.077-.27.144-.472.2-.196.057-.4.085-.61.085zm11.492-5.864v5.787h-.618l-.078-.463a1.24 1.24 0 01-.502.401 1.58 1.58 0 01-.657.139c-.32 0-.611-.087-.874-.262a1.869 1.869 0 01-.627-.71 2.175 2.175 0 01-.224-.988c0-.349.07-.676.209-.98.144-.303.348-.545.61-.725.264-.18.565-.27.906-.27.226 0 .44.041.641.123.201.083.374.209.518.379v-2.431h.696zm-1.732 5.247c.186 0 .364-.046.534-.139.17-.098.309-.247.417-.447.108-.201.163-.453.163-.757 0-.283-.054-.527-.163-.733a1.134 1.134 0 00-.425-.463.969.969 0 00-.526-.162c-.35 0-.629.129-.835.386-.2.252-.301.576-.301.972 0 .381.103.7.309.957.206.257.482.386.827.386zm10.9.617c-.433 0-.804-.087-1.113-.262a1.814 1.814 0 01-.696-.725 2.14 2.14 0 01-.24-1.011c0-.355.072-.679.217-.972.15-.299.363-.533.641-.703a1.86 1.86 0 01.998-.262c.484 0 .876.141 1.175.424.304.283.456.674.456 1.173 0 .129-.01.252-.03.371h-2.746c.047.488.196.836.449 1.041.252.206.577.309.974.309s.76-.075 1.09-.224l.093.548c-.438.196-.86.293-1.268.293zm.72-2.446c0-.272-.078-.486-.233-.64-.154-.155-.386-.232-.696-.232-.299 0-.533.075-.703.224-.17.144-.291.36-.364.648h1.995zm8.1-.872h-.657l.093-.54h.564v-.895c0-.345.09-.615.271-.81.186-.201.451-.301.796-.301.227 0 .428.033.603.1l-.108.587a1.08 1.08 0 00-.386-.07c-.32 0-.48.18-.48.54v.849h1.02v.54h-1.02v3.241h-.696v-3.241zm10.215 5.17c-.535 0-.971-.098-1.306-.293-.33-.196-.495-.473-.495-.833 0-.397.22-.692.657-.888-.247-.123-.37-.283-.37-.478 0-.247.149-.43.448-.548a1.298 1.298 0 01-.487-.525 1.614 1.614 0 01-.17-.748c0-.278.061-.527.185-.749a1.39 1.39 0 01.541-.532c.237-.129.516-.193.835-.193.34 0 .65.098.928.293.273-.154.588-.231.943-.231h.062l-.085.463h-.178c-.046 0-.113.005-.2.015-.088.01-.166.023-.233.039.109.123.191.262.248.416.056.155.085.314.085.479 0 .288-.065.548-.193.779a1.362 1.362 0 01-.542.54 1.72 1.72 0 01-.835.193c-.185 0-.355-.023-.51-.069-.119.041-.178.108-.178.2 0 .124.142.206.425.247l1.013.162c.423.067.743.188.96.363.216.175.324.417.324.725a.948.948 0 01-.503.872c-.33.201-.786.301-1.368.301zm-.162-3.356c.289 0 .51-.085.665-.255.16-.175.24-.406.24-.694 0-.278-.08-.502-.24-.672-.154-.17-.376-.254-.665-.254-.288 0-.51.084-.665.254-.154.17-.232.394-.232.672 0 .288.078.519.232.694.155.17.377.255.665.255zm.225 2.739c.355 0 .628-.046.82-.139.19-.093.285-.226.285-.401a.377.377 0 00-.178-.324c-.113-.078-.286-.139-.518-.186l-1.082-.185a1.25 1.25 0 00-.38.263.517.517 0 00-.146.355c0 .21.106.365.317.463.211.102.505.154.882.154zm10.485-5.17c.48 0 .845.157 1.098.471.252.313.379.74.379 1.281v2.106h-.696v-2.022c0-.416-.078-.722-.232-.918-.15-.2-.384-.301-.704-.301a1.18 1.18 0 00-.959.517v2.724h-.703v-5.787h.703v2.369a1.55 1.55 0 01.487-.324c.18-.077.39-.116.627-.116zm8.799-1.543h.696v.771h-.696v-.771zm0 1.62h.696v3.781h-.696v-3.781zm8.056-1.62h.696v.771h-.696v-.771zm-.564 6.736a.86.86 0 00.355-.093.339.339 0 00.163-.216c.031-.103.046-.257.046-.463v-4.344h.696v4.607c0 .324-.095.56-.286.71a1.353 1.353 0 01-.665.293l-.232.038-.077-.532zm8.613-7.122h.695v3.711l1.392-1.705h.851l-1.508 1.759 1.546 2.022h-.85l-1.431-1.921v1.921h-.695v-5.787zm10.865 5.864c-.34 0-.59-.087-.75-.262a.942.942 0 01-.232-.648v-4.954h.696v4.553c0 .226.013.39.039.493.031.103.087.173.17.209.082.036.216.054.402.054l-.101.555h-.224zm11.694-3.935c.969 0 1.453.543 1.453 1.628v2.23h-.696v-2.222c0-.355-.069-.612-.208-.772-.14-.164-.366-.247-.681-.247-.67 0-1.005.35-1.005 1.05v2.191h-.696v-2.083c0-.432-.077-.733-.232-.903-.149-.17-.368-.255-.657-.255-.227 0-.428.041-.603.124a.88.88 0 00-.402.37v2.747h-.696v-3.781h.541l.077.401c.191-.169.382-.29.573-.362a1.69 1.69 0 01.626-.116c.577 0 .984.252 1.222.756.262-.504.724-.756 1.384-.756zm10.646 0c1.031 0 1.547.592 1.547 1.775v2.083h-.696v-2.083c0-.407-.077-.7-.232-.88-.15-.185-.402-.278-.758-.278-.227 0-.433.041-.618.124a.867.867 0 00-.418.37v2.747h-.696v-3.781h.541l.078.401c.201-.18.402-.303.603-.37.206-.072.423-.108.649-.108zm10.521 3.935c-.387 0-.722-.085-1.005-.254a1.732 1.732 0 01-.65-.71 2.217 2.217 0 01-.224-1.003c0-.371.075-.705.224-1.003.15-.299.366-.533.65-.703.283-.175.618-.262 1.005-.262.381 0 .714.087.997.262.289.17.508.404.657.703.15.298.225.632.225 1.003 0 .37-.075.704-.225 1.003a1.71 1.71 0 01-.657.71 1.91 1.91 0 01-.997.254zm0-.617c.371 0 .657-.118.858-.355.206-.237.309-.568.309-.995 0-.427-.103-.759-.309-.996-.201-.236-.487-.355-.858-.355s-.66.119-.866.355c-.201.237-.302.569-.302.996 0 .427.101.758.302.995.206.237.495.355.866.355zm10.939-3.318c.335 0 .627.087.874.262.253.17.446.404.58.703.134.298.201.632.201 1.003 0 .375-.065.712-.193 1.01-.124.294-.31.528-.557.703-.248.169-.549.254-.905.254-.263 0-.502-.046-.719-.139a1.171 1.171 0 01-.51-.401v2.33h-.696v-5.648h.541l.077.525c.32-.401.756-.602 1.307-.602zm-.131 3.318c.335 0 .598-.118.788-.355.191-.242.287-.574.287-.995 0-.422-.096-.751-.287-.988-.19-.242-.453-.363-.788-.363-.33 0-.603.116-.82.348-.211.231-.317.565-.317 1.003 0 .452.106.792.317 1.018.212.221.485.332.82.332zm12.291-3.241v5.648h-.696v-2.322a1.188 1.188 0 01-.495.401 1.755 1.755 0 01-.696.131c-.36 0-.67-.085-.927-.254a1.632 1.632 0 01-.573-.703 2.537 2.537 0 01-.193-1.01c0-.35.067-.674.201-.973a1.78 1.78 0 01.588-.725c.258-.18.557-.27.897-.27.294 0 .541.049.742.147.201.097.379.247.534.447l.077-.517h.541zm-1.794 3.241c.335 0 .609-.111.82-.332.211-.226.317-.566.317-1.018 0-.438-.108-.772-.325-1.003a1.049 1.049 0 00-.812-.348c-.335 0-.598.121-.788.363-.191.237-.287.566-.287.988 0 .421.096.753.287.995.19.237.453.355.788.355zm9.152-3.241h.573l.085.625c.195-.242.381-.419.556-.532.181-.113.369-.17.565-.17.062 0 .121.008.178.023l-.07.764a1.17 1.17 0 00-.773.108.918.918 0 00-.371.293v2.67h-.743v-3.781zm9.939 3.858c-.299 0-.562-.033-.788-.1a1.978 1.978 0 01-.511-.232l.085-.671c.103.093.261.18.472.263.217.082.454.123.711.123.243 0 .428-.041.557-.123a.389.389 0 00.201-.348.43.43 0 00-.216-.393 2.04 2.04 0 00-.542-.232 4.805 4.805 0 01-.603-.193 1.14 1.14 0 01-.417-.324c-.114-.144-.17-.334-.17-.571 0-.324.116-.594.348-.81.232-.216.59-.324 1.074-.324.222 0 .41.023.565.069.154.042.309.101.464.178l-.085.633a1.448 1.448 0 00-.41-.24 1.364 1.364 0 00-.518-.092c-.227 0-.407.044-.541.131-.129.082-.194.208-.194.378 0 .113.031.206.093.278.062.067.15.123.263.17.113.046.289.105.526.177.294.088.546.211.757.371.217.159.325.411.325.756 0 .308-.111.573-.332.794-.217.222-.588.332-1.114.332zm9.852 0c-.336 0-.586-.087-.75-.262a.914.914 0 01-.24-.641v-2.415h-.65l.062-.54h.588v-.933l.696-.07v1.003h.997v.54h-.997v1.991c0 .262.015.442.046.54a.28.28 0 00.193.193c.104.026.289.039.557.039h.178l-.054.555h-.626zm10.824-3.858v3.781h-.619l-.077-.417c-.124.17-.271.296-.441.379a1.44 1.44 0 01-.611.115c-.453 0-.801-.136-1.043-.409-.238-.277-.356-.694-.356-1.25v-2.199h.696v2.006c0 .412.069.721.209.926.144.206.368.309.672.309.181 0 .348-.036.503-.108a.835.835 0 00.371-.316v-2.817h.696zm6.962 0h.773l1.06 3.017 1.051-3.017h.781l-1.438 3.781h-.781l-1.446-3.781zm10.247 0h.819l.727 3.017.804-2.901h.719l.812 2.901.727-3.017h.82l-1.145 3.781h-.781l-.788-2.793-.797 2.793h-.781l-1.136-3.781zm13.335 1.898l-1.292-1.898h.781l.951 1.497.874-1.497h.812l-1.245 1.837 1.291 1.944h-.781l-.958-1.489-.975 1.489h-.781l1.323-1.883zm10.304 1.713l-1.578-3.611h.773l1.183 2.809 1.068-2.809h.773l-2.32 5.648h-.773l.874-2.037zm10.027-.439h2.073v.609h-3.24l2.111-3.171h-1.988v-.61h3.155l-2.111 3.172zm-252.68 14.591c-.17.139-.317.242-.44.308a2.09 2.09 0 01-.364.162l-.124-.686c.217-.072.43-.185.642-.34.217-.159.381-.326.495-.501h.503v5.401h-.712v-4.344zm9.667 2.099a8.08 8.08 0 00.587-.996c.124-.262.186-.501.186-.717 0-.268-.077-.479-.232-.633-.15-.16-.353-.239-.61-.239-.48 0-.918.203-1.315.609l-.093-.771c.196-.155.42-.281.673-.379.252-.097.523-.146.811-.146.48 0 .851.139 1.114.417.263.277.394.632.394 1.064 0 .34-.067.661-.2.965-.13.303-.351.692-.666 1.165l-.82 1.235h1.895v.663h-3.201l1.477-2.237zm11.276-.579c.665.216.998.663.998 1.342 0 .325-.083.607-.248.849-.16.237-.381.419-.665.548a2.237 2.237 0 01-.95.193 3.188 3.188 0 01-1.547-.409l.178-.679c.242.139.469.244.68.316.217.072.449.108.696.108.33 0 .59-.082.781-.247a.812.812 0 00.294-.655c0-.309-.108-.551-.325-.726-.211-.175-.528-.262-.95-.262h-.341v-.664h.34c.335 0 .598-.077.789-.231a.793.793 0 00.294-.648c0-.288-.075-.502-.225-.641-.144-.144-.358-.216-.641-.216-.207 0-.403.039-.588.116a3.387 3.387 0 00-.588.324l-.123-.748a2.784 2.784 0 011.4-.355c.494 0 .878.131 1.151.393.279.262.418.607.418 1.034 0 .293-.073.551-.217.772a1.311 1.311 0 01-.61.486zm12.14.802v.625h-.696v1.397h-.742v-1.397h-2.668l2.877-4.004h.533v3.379h.696zm-1.438 0v-2.014l-1.438 2.014h1.438zm10.076-1.389c.376 0 .7.075.974.224.273.149.482.355.626.617.145.263.217.561.217.896 0 .36-.085.673-.255.941a1.688 1.688 0 01-.688.625 2.17 2.17 0 01-.982.216c-.279 0-.552-.036-.82-.108a2.39 2.39 0 01-.688-.301l.178-.679a3.7 3.7 0 00.634.285c.2.062.42.093.657.093.345 0 .624-.098.835-.293.216-.196.325-.455.325-.779 0-.361-.114-.638-.34-.834-.227-.2-.531-.301-.913-.301-.325 0-.688.052-1.09.155l.332-2.747h2.552l-.031.694h-1.918l-.162 1.335a4.24 4.24 0 01.557-.039zm11.041.17c.31 0 .585.072.828.216.247.139.438.335.572.587.14.247.209.524.209.833 0 .329-.075.625-.225.887-.15.258-.358.461-.626.61a1.93 1.93 0 01-.928.216c-.562 0-1.002-.183-1.322-.548-.32-.365-.48-.851-.48-1.458 0-.535.117-1.039.349-1.513.232-.478.528-.895.889-1.25a4.918 4.918 0 011.16-.848l.502.47a4.572 4.572 0 00-1.237.903c-.356.365-.61.772-.765 1.219.288-.216.647-.324 1.074-.324zm-.17 2.716c.304 0 .55-.1.735-.301.19-.2.286-.452.286-.756 0-.293-.095-.537-.286-.733-.186-.195-.43-.293-.735-.293-.304 0-.551.098-.742.293a1.02 1.02 0 00-.286.741c0 .308.093.561.278.756.191.195.441.293.75.293zm12.283-4.876l-2.343 5.401h-.773l2.034-4.707h-2.42v-.694h3.502zm9.904 2.446c.258.139.457.331.596.578a1.6 1.6 0 01.216.834c0 .324-.077.612-.232.864-.154.247-.373.44-.657.579a2.222 2.222 0 01-.99.208c-.381 0-.713-.069-.997-.208a1.569 1.569 0 01-.657-.579 1.66 1.66 0 01-.225-.864c0-.314.073-.594.217-.841a1.52 1.52 0 01.603-.579 1.432 1.432 0 01-.425-.471 1.327 1.327 0 01-.147-.617c0-.252.057-.489.17-.71.119-.221.3-.401.541-.54.248-.139.555-.208.92-.208.366 0 .668.069.905.208.242.139.418.319.526.54.113.221.17.458.17.71 0 .231-.046.44-.139.625a1.341 1.341 0 01-.395.471zm-1.067-1.891c-.283 0-.505.072-.665.216a.755.755 0 00-.232.579c0 .226.08.417.24.571.16.154.38.231.657.231.274 0 .485-.074.635-.223a.787.787 0 00.231-.579c0-.242-.074-.435-.224-.579-.15-.144-.363-.216-.641-.216zm0 4.29c.351 0 .624-.087.82-.262.201-.18.302-.422.302-.725 0-.314-.1-.569-.302-.764-.196-.201-.469-.301-.82-.301-.35 0-.626.1-.827.301-.196.195-.294.45-.294.764 0 .303.098.545.294.725.201.175.477.262.828.262zm10.875-4.953c.562 0 1.003.182 1.322.547.32.366.48.852.48 1.459a3.32 3.32 0 01-.34 1.474 4.243 4.243 0 01-.866 1.203c-.351.345-.722.62-1.114.826l-.502-.471a4.536 4.536 0 001.152-.849c.345-.349.598-.735.757-1.157-.293.211-.646.316-1.059.316-.309 0-.587-.069-.835-.208a1.562 1.562 0 01-.572-.586 1.765 1.765 0 01-.201-.841c0-.33.075-.623.224-.88.15-.262.358-.466.626-.61a1.88 1.88 0 01.928-.223zm0 2.716c.304 0 .552-.098.743-.294.19-.195.286-.442.286-.74 0-.309-.096-.561-.286-.756-.186-.196-.433-.294-.743-.294a.98.98 0 00-.742.301 1.07 1.07 0 00-.278.756c0 .294.092.538.278.733.191.196.438.294.742.294zm11.4 2.901c-.469 0-.876-.121-1.221-.363-.341-.241-.604-.578-.789-1.011-.181-.432-.271-.925-.271-1.481 0-.55.096-1.034.286-1.451.196-.416.467-.738.812-.964.346-.232.74-.347 1.183-.347a2.1 2.1 0 011.199.347c.345.226.611.548.796.964.191.417.286.901.286 1.451 0 .556-.09 1.049-.27 1.481a2.26 2.26 0 01-.789 1.011c-.345.242-.753.363-1.222.363zm0-.664c.48 0 .848-.19 1.106-.571.263-.38.394-.92.394-1.62 0-.689-.134-1.211-.402-1.566-.263-.355-.629-.533-1.098-.533-.448 0-.812.18-1.09.54-.273.36-.41.88-.41 1.559 0 .7.129 1.24.387 1.62.263.381.634.571 1.113.571zm9.729-.972l-.154-3.873h.958l-.154 3.873v.201h-.65v-.201zm-.093.71h.835v.818h-.835v-.818zm10.077 1.489c-.593 0-1.062-.175-1.407-.524-.341-.35-.511-.836-.511-1.459 0-.545.132-1.044.395-1.497a2.933 2.933 0 011.074-1.065 2.821 2.821 0 011.446-.393c.603 0 1.075.175 1.415.525.34.349.511.825.511 1.427 0 .437-.091.813-.271 1.127-.18.308-.456.463-.827.463-.114 0-.199-.026-.256-.078-.051-.051-.077-.156-.077-.316 0-.129.016-.26.047-.393.03-.139.085-.34.162-.602a9.11 9.11 0 00.216-.81 1.398 1.398 0 00-.409-.294 1.165 1.165 0 00-.526-.115c-.315 0-.626.105-.936.316a2.52 2.52 0 00-.75.826 2.016 2.016 0 00-.286 1.01c0 .247.057.456.17.625.114.165.291.247.534.247.237 0 .487-.079.75-.239a1.78 1.78 0 00.642-.656 1.903 1.903 0 00-.024.27c0 .155.036.296.109.425a.366.366 0 00.34.185c.124 0 .273-.041.448-.124a2.02 2.02 0 00.472-.293l.023.023a2.874 2.874 0 01-1.051 1.011 2.81 2.81 0 01-1.423.378zm-.031-1.489a.278.278 0 01-.255-.139.745.745 0 01-.085-.378c0-.267.074-.517.224-.748a1.85 1.85 0 01.564-.564c.227-.144.439-.216.634-.216.191 0 .307.057.348.17a2.74 2.74 0 01-.317.849c-.165.293-.35.537-.556.733-.207.195-.392.293-.557.293zm10.938-.849h-.928l.309-.702h.889l.348-.887h-.974l.224-.656h.998l.572-1.489h.626l-.58 1.489h1.029l.58-1.489h.618l-.572 1.489h.874l-.225.656h-.896l-.348.887h.989l-.317.702h-.943l-.665 1.752h-.626l.672-1.752h-1.028l-.673 1.752h-.618l.665-1.752zm1.917-.702l.348-.887h-1.02l-.348.887h1.02zm13.037.972c0 .417-.139.754-.417 1.011-.273.252-.678.409-1.214.471l.054 1.026h-.603l.054-1.003c-.314 0-.637-.036-.966-.108a3.756 3.756 0 01-.789-.239l.1-.78c.258.124.549.232.874.324a3.5 3.5 0 00.967.139c.361 0 .639-.064.835-.193.201-.133.301-.331.301-.594a.754.754 0 00-.154-.486 1.074 1.074 0 00-.441-.332 5.668 5.668 0 00-.804-.293 5.067 5.067 0 01-.874-.332 1.512 1.512 0 01-.564-.486c-.14-.205-.209-.465-.209-.779 0-.417.149-.754.448-1.011.304-.262.732-.409 1.284-.44l-.062-1.01h.603l-.062 1.01c.279.016.541.057.789.124.247.067.464.146.649.239l-.077.779a3.684 3.684 0 00-.835-.37 3.007 3.007 0 00-.835-.116c-.335 0-.603.062-.804.185-.196.124-.294.314-.294.571 0 .175.044.319.131.432.093.114.225.211.395.294.17.077.407.162.711.254.608.186 1.062.407 1.361.664.299.252.448.602.448 1.049zm8.251-1.026c-.397 0-.712-.144-.944-.432-.227-.293-.34-.671-.34-1.134 0-.304.054-.569.162-.795a1.195 1.195 0 011.122-.725c.386 0 .695.138.927.416.238.278.356.646.356 1.104 0 .463-.116.841-.348 1.134-.227.288-.539.432-.935.432zm0-.555a.54.54 0 00.479-.263c.113-.175.17-.424.17-.748 0-.319-.059-.558-.178-.718a.54.54 0 00-.471-.247.553.553 0 00-.472.247c-.119.165-.178.404-.178.718 0 .324.057.573.17.748a.541.541 0 00.48.263zm3.123-2.423h.65l-3.108 5.401h-.658l3.116-5.401zm.642 5.509c-.397 0-.711-.144-.943-.432-.227-.293-.34-.671-.34-1.134 0-.304.054-.569.162-.795.108-.232.258-.409.448-.533.196-.128.421-.192.673-.192.387 0 .696.138.928.416.237.278.356.646.356 1.104 0 .463-.116.841-.348 1.134-.227.288-.539.432-.936.432zm0-.556a.541.541 0 00.48-.262c.113-.175.17-.424.17-.748 0-.319-.06-.559-.178-.718a.542.542 0 00-.472-.247.554.554 0 00-.472.247c-.118.165-.177.404-.177.718 0 .324.056.573.17.748a.539.539 0 00.479.262zm8.4-3.742l1.593-1.667 1.593 1.667v.779l-1.593-1.512-1.593 1.512v-.779zm11.991 4.367c-.351 0-.657-.061-.92-.185a1.452 1.452 0 01-.603-.517 1.348 1.348 0 01-.201-.725c0-.304.077-.581.231-.833.155-.252.403-.499.743-.741a2.894 2.894 0 01-.449-.702 1.64 1.64 0 01-.131-.61c0-.262.062-.491.185-.687.124-.195.289-.344.495-.447.212-.103.444-.155.696-.155.423 0 .74.098.951.294.217.195.325.452.325.771 0 .304-.111.574-.332.811-.222.236-.547.504-.975.802l1.469 1.505c.098-.119.168-.324.209-.618.047-.293.077-.576.093-.848h.626c-.026.802-.193 1.448-.502 1.936l.672.772h-.711l-.34-.355a2.2 2.2 0 01-.712.409 2.46 2.46 0 01-.819.123zm-.279-3.31c.361-.252.614-.458.758-.617a.81.81 0 00.217-.563c0-.186-.06-.327-.178-.425-.119-.103-.279-.154-.48-.154a.743.743 0 00-.525.201c-.145.133-.217.324-.217.571 0 .313.142.643.425.987zm.294 2.786c.495 0 .884-.155 1.168-.463l-1.608-1.605a1.55 1.55 0 00-.457.494c-.113.19-.17.396-.17.617 0 .278.09.507.271.687.18.18.446.27.796.27zm10.457-3.966l-1.067-.625.208-.371 1.006.687-.039-1.165h.425l-.038 1.165 1.005-.687.208.371-1.067.625 1.067.632-.208.371-1.005-.687.038 1.165h-.425l.039-1.165-1.006.687-.208-.371 1.067-.632zm9.965 5.362a6.244 6.244 0 01-.766-1.527c-.18-.546-.271-1.176-.271-1.891 0-.715.091-1.345.271-1.89a6.233 6.233 0 01.766-1.528h.61a7.055 7.055 0 00-.695 1.566 6.234 6.234 0 00-.256 1.852c0 .684.085 1.304.256 1.86.17.55.402 1.07.695 1.558h-.61zm7.496 0a7.08 7.08 0 00.696-1.558c.17-.556.255-1.176.255-1.86 0-.684-.085-1.301-.255-1.852a7.058 7.058 0 00-.696-1.566h.611c.324.473.577.982.757 1.528.186.545.279 1.175.279 1.89 0 .715-.093 1.345-.279 1.891a6.044 6.044 0 01-.757 1.527h-.611zM25.264 345.465h8.699a.485.485 0 00.483-.482.48.48 0 00-.483-.483h-8.699a.482.482 0 100 .965zm5.8 3.858h-5.8a.485.485 0 00-.483.482.481.481 0 00.483.482h5.8a.481.481 0 100-.964zm2.899-2.411h-8.699a.481.481 0 100 .964h8.699a.485.485 0 00.483-.482.48.48 0 00-.483-.482zm23.534 4.48l-1.792-1.775a4.335 4.335 0 00-.49-5.948 4.352 4.352 0 00-5.975.163 4.339 4.339 0 002.718 7.395 4.349 4.349 0 003.076-.94l1.777 1.775a.496.496 0 00.343.143.492.492 0 00.343-.143.482.482 0 000-.67zm-5.173-1.105a3.384 3.384 0 01-3.123-2.084 3.368 3.368 0 01.733-3.678 3.375 3.375 0 011.73-.924 3.377 3.377 0 014.04 3.311 3.373 3.373 0 01-3.38 3.375zm26.543-3.076a.48.48 0 00-.101-.16l-2.416-2.411a.496.496 0 00-.344-.142.485.485 0 00-.343.827l1.595 1.587H73.59a.481.481 0 100 .964h3.668l-1.595 1.587a.483.483 0 00.343.827.475.475 0 00.344-.142l2.416-2.412a.486.486 0 00.101-.159.48.48 0 000-.366zm23.095-.16l-2.416-2.411a.483.483 0 00-.16-.101.486.486 0 00-.367 0 .481.481 0 00-.16.101l-2.415 2.411a.485.485 0 00.686.685l1.59-1.591v3.66a.48.48 0 00.483.482.481.481 0 00.483-.482v-3.66l1.59 1.591a.495.495 0 00.343.143.494.494 0 00.343-.143.467.467 0 00.143-.342.475.475 0 00-.143-.343zm22.854-.139h-3.668l1.594-1.587a.485.485 0 10-.686-.685l-2.416 2.411a.48.48 0 00-.102.16.483.483 0 000 .366.486.486 0 00.102.159l2.416 2.412a.486.486 0 00.792-.528.464.464 0 00-.106-.157l-1.594-1.587h3.668a.483.483 0 000-.964zm23.539.139a.476.476 0 00-.343-.142.475.475 0 00-.343.142l-1.59 1.592v-3.66a.483.483 0 00-.966 0v3.66l-1.59-1.592a.49.49 0 00-.687 0 .484.484 0 000 .685l2.417 2.412a.5.5 0 00.159.101.459.459 0 00.367 0 .494.494 0 00.16-.101l2.416-2.412a.495.495 0 00.143-.342.475.475 0 00-.143-.343zm21.805 0l-2.049-2.044a.494.494 0 00-.529-.106.48.48 0 00-.157.786l1.71 1.707-1.71 1.707a.482.482 0 00.157.784.493.493 0 00.529-.104l2.049-2.045a.495.495 0 00.143-.342.494.494 0 00-.143-.343zm24.245 1.023l-2.073-2.045a.486.486 0 00-.686 0l-2.049 2.045a.474.474 0 00-.106.528.486.486 0 00.787.157l1.711-1.708 1.71 1.708a.488.488 0 00.682 0 .481.481 0 00.124-.525.47.47 0 00-.1-.16zm20.437-.68l1.711-1.707a.483.483 0 00-.686-.68l-2.049 2.044a.474.474 0 00-.143.343.467.467 0 00.143.342l2.049 2.069a.473.473 0 00.343.14.491.491 0 00.343-.14.48.48 0 000-.68l-1.711-1.731zm25.956-1.365a.484.484 0 00-.681 0l-1.735 1.707-1.711-1.707a.484.484 0 00-.682.685l2.049 2.045a.48.48 0 00.344.142.48.48 0 00.343-.142l2.073-2.045a.495.495 0 00.143-.343.492.492 0 00-.143-.342zm20.78 1.847a.485.485 0 00-.483.482v1.447a.483.483 0 00.966 0v-1.447a.485.485 0 00-.483-.482zm2.416-1.929v-.964c0-.64-.254-1.253-.707-1.705a2.418 2.418 0 00-4.125 1.705v.964a1.45 1.45 0 00-1.45 1.447v3.376a1.447 1.447 0 001.45 1.446h4.832a1.45 1.45 0 001.45-1.446v-3.376a1.45 1.45 0 00-1.45-1.447zm-3.866-.964a1.45 1.45 0 012.9 0v.964h-2.9v-.964zm4.35 5.787a.481.481 0 01-.484.482h-4.832a.487.487 0 01-.484-.482v-3.376a.48.48 0 01.484-.482h4.832a.481.481 0 01.484.482v3.376zm43.493-8.199a3.874 3.874 0 00-2.734 1.13 3.855 3.855 0 00-1.132 2.728c0 2.605 3.407 5.546 3.552 5.672a.486.486 0 00.628 0c.169-.126 3.552-3.067 3.552-5.672a3.855 3.855 0 00-1.132-2.728 3.874 3.874 0 00-2.734-1.13zm0 8.512c-1.029-.964-2.9-3.043-2.9-4.654 0-.767.306-1.503.85-2.046a2.903 2.903 0 014.95 2.046c0 1.611-1.871 3.694-2.9 4.654zm0-6.583a1.937 1.937 0 00-1.786 1.191 1.927 1.927 0 001.409 2.63 1.933 1.933 0 002.31-1.892 1.93 1.93 0 00-1.933-1.929zm0 2.894a.969.969 0 01-.948-1.153.97.97 0 011.318-.703.967.967 0 01-.37 1.856zm-19.814-3.858h-.966v-.482a.48.48 0 00-.142-.341.48.48 0 00-.683 0 .48.48 0 00-.142.341v.482h-2.899v-.482a.48.48 0 00-.142-.341.48.48 0 00-.683 0 .48.48 0 00-.142.341v.482h-.966a1.446 1.446 0 00-1.45 1.447v5.787a1.447 1.447 0 001.45 1.446h6.765a1.45 1.45 0 001.45-1.446v-5.787a1.446 1.446 0 00-1.45-1.447zm.484 7.234a.481.481 0 01-.484.482h-6.765a.487.487 0 01-.484-.482v-3.376h7.733v3.376zm0-4.341h-7.733v-1.446a.484.484 0 01.484-.483h.966v.483a.483.483 0 00.967 0v-.483h2.899v.483a.483.483 0 00.967 0v-.483h.966a.484.484 0 01.484.483v1.446zm40.835-1.263a.965.965 0 01.967 0l1.933 1.114v-.815a.479.479 0 01.483-.482.483.483 0 01.483.482v3.858a.485.485 0 01-.483.482.48.48 0 01-.483-.482v-.815l-1.933 1.114a.966.966 0 01-1.45-.834V346a.964.964 0 01.483-.834zm.483 3.622l2.417-1.394-2.417-1.394v2.788zm1.208-6.217a4.84 4.84 0 014.465 2.977 4.81 4.81 0 01-1.047 5.256 4.839 4.839 0 01-7.436-.731 4.814 4.814 0 01.601-6.089 4.85 4.85 0 013.417-1.413zm0 8.681a3.871 3.871 0 003.572-2.382 3.848 3.848 0 00-.838-4.204 3.866 3.866 0 00-4.213-.837 3.865 3.865 0 00-2.387 3.565c0 1.023.408 2.004 1.133 2.728a3.871 3.871 0 002.733 1.13zM28.748 371.608l.382-.386v2.214a.483.483 0 00.967 0v-2.214l.382.386a.495.495 0 00.343.143.493.493 0 00.343-.143.481.481 0 000-.685l-1.208-1.205a.485.485 0 00-.16-.102.486.486 0 00-.367 0 .485.485 0 00-.16.102l-1.208 1.205a.484.484 0 10.686.685zm3.765.651a.49.49 0 00-.536-.106.49.49 0 00-.16.801 3.109 3.109 0 01.676 3.39 3.115 3.115 0 01-2.88 1.92 3.12 3.12 0 01-2.88-1.92 3.106 3.106 0 01.677-3.39.493.493 0 00-.348-.839.488.488 0 00-.348.144 4.073 4.073 0 00.63 6.27 4.088 4.088 0 004.538 0 4.081 4.081 0 001.743-4.181 4.08 4.08 0 00-1.112-2.089zm43.493-2.681a4.836 4.836 0 00-3.324 1.336v-.854a.48.48 0 00-.484-.482.486.486 0 00-.483.482v2.17a.48.48 0 00.483.482h2.175a.481.481 0 100-.964h-1.16a3.868 3.868 0 016.479 1.502 3.85 3.85 0 01-1.843 4.557 3.868 3.868 0 01-5.709-3.407.482.482 0 00-.966 0 4.817 4.817 0 002.983 4.456 4.842 4.842 0 005.267-1.046 4.816 4.816 0 00-.733-7.419 4.84 4.84 0 00-2.685-.813zm0 2.893a.482.482 0 00-.483.483v1.446a.48.48 0 00.483.483h.967a.482.482 0 000-.965h-.483v-.964a.48.48 0 00-.484-.483zm27.019 3.622h-2.189a.483.483 0 000 .965h1.16a3.88 3.88 0 01-4.228.915 3.854 3.854 0 01-2.43-3.573.483.483 0 00-.968 0 4.816 4.816 0 002.93 4.42 4.839 4.839 0 005.228-.933v.854a.485.485 0 00.483.482.485.485 0 00.483-.482v-2.17a.485.485 0 00-.469-.478zm-3.822-6.515a4.836 4.836 0 00-3.325 1.336v-.854a.481.481 0 00-.483-.482.485.485 0 00-.483.482v2.17a.481.481 0 00.483.482h2.175a.481.481 0 100-.964h-1.16a3.864 3.864 0 014.226-.916 3.858 3.858 0 012.433 3.568.48.48 0 00.142.341.48.48 0 00.683 0 .479.479 0 00.141-.341 4.827 4.827 0 00-1.415-3.41 4.846 4.846 0 00-3.417-1.412z" fill="#333"/><path fill-rule="evenodd" clip-rule="evenodd" d="M122.399 378.258a3.861 3.861 0 003.866-3.858c0-2.13-1.73-3.858-3.866-3.858a3.863 3.863 0 00-3.866 3.858 3.862 3.862 0 003.866 3.858zm0 .965a4.828 4.828 0 004.833-4.823 4.828 4.828 0 00-4.833-4.822 4.827 4.827 0 00-4.832 4.822 4.827 4.827 0 004.832 4.823z" fill="#333"/><path d="M171.692 374.969v-1.533a2.894 2.894 0 00-2.417-2.85v-.526a.479.479 0 00-.483-.482.483.483 0 00-.483.482v.526a2.898 2.898 0 00-2.416 2.85v1.533a1.453 1.453 0 00-.967 1.36v.965a.48.48 0 00.483.482h1.518a1.926 1.926 0 001.865 1.423 1.935 1.935 0 001.866-1.423h1.517a.483.483 0 00.483-.482v-.965a1.443 1.443 0 00-.966-1.36zm-4.833-1.533a1.929 1.929 0 011.933-1.929 1.933 1.933 0 011.933 1.929v1.447h-3.866v-1.447zm1.933 4.822a.963.963 0 01-.831-.482h1.662a.963.963 0 01-.831.482zm2.9-1.446h-5.799v-.483c0-.127.051-.25.141-.341a.487.487 0 01.342-.141h4.833a.483.483 0 01.483.482v.483zm-26.546-5.247a1.67 1.67 0 01.45-.058 1.929 1.929 0 011.933 1.929v.646a.483.483 0 00.966 0v-.646a2.898 2.898 0 00-2.416-2.85v-.526a.483.483 0 00-.966 0v.531l-.218.038a.485.485 0 00.251.936zm5.142 6.833l-8.698-8.68a.487.487 0 00-.829.342c0 .128.051.252.142.342l1.991 1.983a2.884 2.884 0 00-.198 1.051v1.533a1.45 1.45 0 00-.966 1.36v.965a.483.483 0 00.483.482h1.517a1.934 1.934 0 003.731 0h.836l1.305 1.307a.495.495 0 00.343.143.494.494 0 00.343-.143.479.479 0 000-.685zm-6.625-4.962a1.466 1.466 0 010-.265l1.735 1.712h-1.735v-1.447zm1.933 4.822a.963.963 0 01-.831-.482h1.662a.963.963 0 01-.831.482zm-2.9-1.446v-.483a.483.483 0 01.483-.482h3.185l.967.965h-4.635zm47.29-3.548h.669a.413.413 0 01.426.198h-1.095a.411.411 0 00-.287.116.391.391 0 000 .56.411.411 0 00.287.116h1.095a.413.413 0 01-.426.198h-.669a.435.435 0 00-.385.238.388.388 0 00.101.436l1.662 1.525a.407.407 0 00.284.119.349.349 0 00.284-.139.37.37 0 00-.02-.554l-.953-.892a1.48 1.48 0 001.014-.931h.324c.107 0 .21-.042.287-.116a.39.39 0 000-.56.415.415 0 00-.287-.116h-.304c-.01 0-.026-.05-.041-.099-.015-.05-.03-.099-.04-.099h.385c.107 0 .21-.042.287-.116a.392.392 0 000-.561.415.415 0 00-.287-.116h-2.311a.411.411 0 00-.287.116.393.393 0 000 .561.411.411 0 00.287.116z" fill="#333"/><path fill-rule="evenodd" clip-rule="evenodd" d="M194.888 374.4h1.45a.484.484 0 01.483.483v2.893a1.45 1.45 0 01-1.449 1.447h-6.766a1.448 1.448 0 01-1.45-1.447v-7.716a.49.49 0 01.242-.42.486.486 0 01.483 0l1.45.83 1.45-.83a.483.483 0 01.483 0l1.45.83 1.449-.83a.49.49 0 01.484 0 .487.487 0 01.241.42v4.34zm-6.624 3.717a.483.483 0 00.342.141h5.403a1.412 1.412 0 01-.087-.482v-6.882l-.967.55a.517.517 0 01-.483 0l-1.45-.829-1.45.829a.517.517 0 01-.483 0l-.966-.55v6.882c0 .128.051.251.141.341zm7.449 0a.48.48 0 00.142-.341v-2.411h-.967v2.411a.48.48 0 00.484.482c.128 0 .251-.05.341-.141z" fill="#333"/><path d="M212.871 376.575h-.562v-4.11h2.92l-.299.295a.37.37 0 00-.002.529.374.374 0 00.53.002l.935-.934a.37.37 0 000-.531l-.935-.934a.377.377 0 00-.639.265.37.37 0 00.111.266l.295.295h-3.29a.374.374 0 00-.375.373v4.857a.374.374 0 00.375.374h.936a.374.374 0 000-.747zm5.802-4.857h-.935a.374.374 0 100 .747h.561v4.11h-3.133l.295-.296a.37.37 0 000-.53.373.373 0 00-.528 0l-.936.934a.372.372 0 00-.11.265.374.374 0 00.11.266l.936.934a.374.374 0 10.528-.531l-.295-.295h3.507a.375.375 0 00.375-.374v-4.857a.374.374 0 00-.375-.373zm22.125 2.2h.483a.485.485 0 00.483-.482v-.482a.483.483 0 00-.483-.483h-.483a.484.484 0 00-.483.483v.482a.485.485 0 00.483.482zm-5.316.482h2.416a.483.483 0 100-.964h-2.416a.485.485 0 00-.342.823.483.483 0 00.342.141zm7.732-3.858h-9.665a.484.484 0 00-.483.483v6.751a.483.483 0 00.483.482h9.665a.483.483 0 00.483-.482v-6.751a.484.484 0 00-.483-.483zm-.483 6.752h-8.699v-5.787h8.699v5.787zm-7.249-.965h2.416a.483.483 0 100-.964h-2.416a.485.485 0 00-.342.823.483.483 0 00.342.141zm27.889-1.586a2.886 2.886 0 00-.111-4.631 2.904 2.904 0 00-4.422 1.41 2.886 2.886 0 00.947 3.221 4.826 4.826 0 00-3.006 3.945.478.478 0 00.104.356.485.485 0 00.684.075c.1-.08.165-.197.179-.325a3.853 3.853 0 011.265-2.446 3.873 3.873 0 015.153 0 3.854 3.854 0 011.266 2.446.482.482 0 00.483.429h.053a.483.483 0 00.425-.531 4.816 4.816 0 00-3.02-3.949zm-1.793-.343a1.937 1.937 0 01-1.786-1.19 1.935 1.935 0 01-.11-1.115 1.936 1.936 0 011.519-1.516 1.94 1.94 0 011.984.821 1.92 1.92 0 01-.24 2.435 1.935 1.935 0 01-1.367.565z" fill="#333"/><path fill-rule="evenodd" clip-rule="evenodd" d="M282.846 374.356c-.748-.015-1.459-.443-1.73-1.157-.222-.561-.124-1.115.172-1.613.401-.687.807-1.369 1.212-2.051a.378.378 0 01.347-.175.406.406 0 01.33.184l.001.001.448.758.001.002.773 1.305c.295.508.395 1.09.145 1.659-.288.667-.964 1.087-1.696 1.087h-.003zm-1.069-1.673c-.039-.331.113-.592.306-.915.253-.429.507-.859.763-1.288l.317.537.437.741c.191.321.34.583.301.915a1.098 1.098 0 01-1.068.954 1.062 1.062 0 01-1.056-.944zm4.926 1.762c.748.016 1.459.444 1.73 1.157.222.561.124 1.116-.172 1.614-.401.687-.806 1.369-1.212 2.05a.376.376 0 01-.347.175.405.405 0 01-.33-.183l-.001-.002-.448-.758-.001-.001-.773-1.306c-.295-.508-.395-1.09-.145-1.659.288-.667.964-1.087 1.696-1.087h.003zm1.069 1.673c.04.331-.113.592-.306.915-.253.43-.507.859-.763 1.288l-.317-.537-.437-.74c-.191-.322-.34-.584-.301-.916a1.097 1.097 0 011.068-.953c.558.01.993.407 1.056.943zm.777-6.561c.214.02.395.132.497.313a.633.633 0 010 .609l-.078.147-.158.292c-.214.401-.431.802-.647 1.203l-.157.292-.754 1.409a.616.616 0 01-.543.339.617.617 0 01-.543-.338l-.288-.537-.79-1.477c-.239-.442-.478-.885-.715-1.328a.628.628 0 01.1-.747c.171-.175.455-.18.527-.18h3.457c.024 0 .054 0 .088.003h.004zm-.326.779h-3.028l.596 1.107.717 1.341.2.374.594-1.109.805-1.497.007-.013.109-.203zm-7.72 8.595a.62.62 0 00.497.313h.004a.944.944 0 00.088.003h3.457c.072 0 .355-.004.527-.18a.629.629 0 00.1-.747c-.237-.443-.476-.886-.715-1.328l-.79-1.477-.289-.537a.617.617 0 00-.542-.338.62.62 0 00-.544.339l-.753 1.409-.158.292-.647 1.203-.157.292-.079.147a.636.636 0 00.001.609zm3.851-.466h-3.028l.108-.203.007-.013.806-1.497.594-1.109.2.374.716 1.34c.2.369.399.739.597 1.108z" fill="#333"/><path d="M311.837 374.969v-1.051a3.855 3.855 0 00-1.132-2.728 3.874 3.874 0 00-5.468 0 3.855 3.855 0 00-1.132 2.728v1.051a1.45 1.45 0 00-.967 1.36v.965c0 .384.153.752.425 1.023.272.271.641.424 1.025.424h1.45a.484.484 0 00.483-.483v-2.893a.483.483 0 00-.483-.482h-.967v-.965a2.899 2.899 0 012.9-2.893 2.9 2.9 0 012.9 2.893v.965h-.967a.483.483 0 00-.483.482v2.893a.483.483 0 00.483.483h1.45c.384 0 .753-.153 1.025-.424.272-.271.425-.639.425-1.023v-.965a1.45 1.45 0 00-.967-1.36zm-6.282.878v1.929h-.967a.483.483 0 01-.483-.482v-.965c0-.127.051-.25.141-.341a.487.487 0 01.342-.141h.967zm6.282 1.447a.48.48 0 01-.483.482h-.967v-1.929h.967a.483.483 0 01.483.482v.965zm19.33-3.376a.483.483 0 00-.483.482v1.929a.48.48 0 00.142.341.48.48 0 00.683 0 .48.48 0 00.142-.341V374.4a.481.481 0 00-.484-.482zm.184-1.89a.476.476 0 00-.367 0 .478.478 0 00-.16.101.565.565 0 00-.101.159.484.484 0 00.101.526.556.556 0 00.16.101.48.48 0 00.451-.045.491.491 0 00.158-.172.5.5 0 00.058-.227.504.504 0 00-.141-.342.473.473 0 00-.159-.101zm-.184-2.45a4.837 4.837 0 00-4.464 2.977 4.81 4.81 0 001.047 5.255 4.842 4.842 0 007.436-.73 4.817 4.817 0 00-2.169-7.135 4.852 4.852 0 00-1.85-.367zm0 8.68a3.868 3.868 0 01-3.571-2.381 3.853 3.853 0 01.838-4.205 3.87 3.87 0 015.948.585 3.851 3.851 0 01-.481 4.871 3.868 3.868 0 01-2.734 1.13zm-274.007-4.34h-.518a3.855 3.855 0 00-1.101-2.243 3.87 3.87 0 00-2.248-1.099v-.516a.481.481 0 00-.483-.482.485.485 0 00-.483.482v.516a3.87 3.87 0 00-2.248 1.099 3.855 3.855 0 00-1.101 2.243h-.517a.486.486 0 00-.484.482.48.48 0 00.484.483h.517a3.855 3.855 0 001.101 2.242 3.872 3.872 0 002.248 1.1v.516a.482.482 0 00.966 0v-.516a3.872 3.872 0 002.248-1.1 3.855 3.855 0 001.101-2.242h.517a.482.482 0 100-.965zm-4.35 3.376a2.904 2.904 0 01-2.679-1.786 2.889 2.889 0 01.629-3.154 2.91 2.91 0 013.16-.627 2.898 2.898 0 011.79 2.673 2.902 2.902 0 01-2.9 2.894zm0-4.34a1.451 1.451 0 00-1.34.893 1.443 1.443 0 001.057 1.972 1.447 1.447 0 10.283-2.865zm0 1.929a.485.485 0 01-.342-.824.485.485 0 01.825.341.481.481 0 01-.483.483z" fill="#333"/><path fill-rule="evenodd" clip-rule="evenodd" d="M122.399 433.236a4.828 4.828 0 004.833-4.823 4.828 4.828 0 00-4.833-4.822 4.827 4.827 0 00-4.832 4.822 4.827 4.827 0 004.832 4.823zm-.758-4.297l2.073-2.074a.486.486 0 01.787.157.475.475 0 010 .371.479.479 0 01-.106.157l-2.416 2.411a.478.478 0 01-.524.105.476.476 0 01-.157-.105l-1.136-1.138a.473.473 0 01-.169-.347.498.498 0 01.141-.36.49.49 0 01.553-.093c.06.029.113.07.156.12l.798.796zm23.955 4.297a4.827 4.827 0 004.832-4.823 4.827 4.827 0 00-4.832-4.822 4.828 4.828 0 00-4.833 4.822 4.828 4.828 0 004.833 4.823zm-1.308-7.093a.483.483 0 01.825.341v3.858a.484.484 0 01-.967 0v-3.858c0-.128.051-.25.142-.341zm1.933 0a.483.483 0 01.825.341v3.858a.484.484 0 01-.967 0v-3.858c0-.128.051-.25.142-.341z" fill="#333"/><path d="M34.117 427.232l-.913-.304.43-.858a.483.483 0 00-.092-.55l-1.029-1.027a.476.476 0 00-.263-.135.477.477 0 00-.293.043l-.86.429-.304-.911a.485.485 0 00-.455-.328h-1.45a.485.485 0 00-.458.328l-.305.911-.86-.429a.484.484 0 00-.551.092l-1.03 1.027a.482.482 0 00-.091.554l.43.859-.913.304a.484.484 0 00-.33.453v1.447a.482.482 0 00.33.458l.913.304-.43.858a.482.482 0 00.092.55l1.029 1.027a.483.483 0 00.556.092l.86-.429.304.911a.482.482 0 00.46.328h1.45a.485.485 0 00.458-.328l.305-.911.86.429a.49.49 0 00.288.04.49.49 0 00.258-.132l1.03-1.027a.48.48 0 00.091-.555l-.43-.858.913-.304a.484.484 0 00.33-.453v-1.447a.481.481 0 00-.33-.458zm-.637 1.558l-.58.192a.98.98 0 00-.596.551.961.961 0 00.035.809l.276.55-.532.531-.536-.29a.966.966 0 00-1.349.56l-.193.578h-.768l-.194-.578a.968.968 0 00-1.363-.56l-.55.275-.532-.53.29-.536a.962.962 0 00-.56-1.36l-.58-.192v-.753l.58-.193a.963.963 0 00.56-1.36l-.276-.535.532-.53.537.274a.956.956 0 00.81.035.97.97 0 00.552-.594l.194-.579h.754l.193.579a.967.967 0 001.363.559l.55-.274.532.53-.29.535a.968.968 0 00.207 1.137.974.974 0 00.354.209l.58.193v.767zm-3.866-2.306a1.934 1.934 0 00-1.896 2.306 1.93 1.93 0 001.519 1.515 1.932 1.932 0 002.31-1.892 1.928 1.928 0 00-1.934-1.929zm0 2.894a.968.968 0 01-.948-1.153.965.965 0 011.751-.347.96.96 0 01-.12 1.217.968.968 0 01-.684.283zm22.331-3.757l.382-.386v2.214a.482.482 0 00.966 0v-2.214l.382.386a.496.496 0 00.343.143.494.494 0 00.343-.143.483.483 0 000-.685l-1.208-1.205a.485.485 0 00-.16-.102.486.486 0 00-.367 0 .483.483 0 00-.16.102l-1.207 1.205a.484.484 0 10.686.685zm3.764.651a.488.488 0 00-.536-.106.488.488 0 00-.16.801 3.108 3.108 0 01-2.203 5.31 3.12 3.12 0 01-2.88-1.92 3.107 3.107 0 01.676-3.39.493.493 0 000-.695.49.49 0 00-.536-.106.49.49 0 00-.16.106 4.071 4.071 0 00.63 6.27 4.088 4.088 0 004.539 0 4.08 4.08 0 001.743-4.181 4.08 4.08 0 00-1.113-2.089zm23.681-.27h-.484v-.482a1.449 1.449 0 00-1.45-1.447h-4.832a1.449 1.449 0 00-1.45 1.447v5.787a1.447 1.447 0 001.45 1.447h6.765a1.453 1.453 0 001.45-1.447v-3.858a1.453 1.453 0 00-1.45-1.447zm-6.766-.964h4.832a.481.481 0 01.483.482v.482h-5.315a.485.485 0 01-.484-.482.48.48 0 01.484-.482zm7.249 4.822h-.484a.486.486 0 01-.483-.482.48.48 0 01.483-.482h.484v.964zm0-1.929h-.484a1.453 1.453 0 00-1.45 1.447 1.453 1.453 0 001.45 1.447h.483v.482a.48.48 0 01-.483.482h-6.765a.485.485 0 01-.484-.482v-4.422c.156.054.319.082.484.082h6.765a.481.481 0 01.484.482v.482zm23.196-1.354a.379.379 0 00-.112-.274l-1.639-1.636a.379.379 0 00-.275-.112.394.394 0 00-.274.112l-5.32 5.309a.387.387 0 00-.112.274v1.636a.383.383 0 00.386.385h1.64a.39.39 0 00.293-.111l4.203-4.217 1.098-1.073a.456.456 0 00.085-.127.362.362 0 000-.093.244.244 0 000-.054l.027-.019zm-5.865 4.923H96.11v-1.092l3.839-3.831 1.094 1.092-3.839 3.831zm4.384-4.375l-1.094-1.092.549-.544 1.09 1.088-.545.548zM191.646 430a.653.653 0 00-.058.072.356.356 0 00-.044.087.307.307 0 00-.029.087.769.769 0 000 .096.404.404 0 00.039.184.423.423 0 00.261.26.446.446 0 00.367 0 .436.436 0 00.261-.26.5.5 0 00.029-.184.491.491 0 00-.14-.342.506.506 0 00-.157-.106.498.498 0 00-.372 0 .484.484 0 00-.157.106zm.343-6.409a4.84 4.84 0 00-4.465 2.977 4.811 4.811 0 001.048 5.255 4.842 4.842 0 007.435-.73 4.817 4.817 0 00-2.169-7.135 4.847 4.847 0 00-1.849-.367zm0 8.68a3.871 3.871 0 01-3.572-2.381 3.849 3.849 0 01.838-4.205 3.873 3.873 0 014.213-.836 3.865 3.865 0 012.387 3.564 3.867 3.867 0 01-3.866 3.858zm0-6.269a1.456 1.456 0 00-1.257.723.493.493 0 00-.061.374.477.477 0 00.411.364.486.486 0 00.486-.255.48.48 0 01.421-.241.48.48 0 01.341.823.483.483 0 01-.341.141.487.487 0 00-.484.482v.483a.481.481 0 00.484.482.483.483 0 00.483-.482v-.087a1.45 1.45 0 00.934-1.605 1.444 1.444 0 00-1.417-1.202zm23.196 1.929a.485.485 0 00-.483.482v1.447a.483.483 0 00.966 0v-1.447a.485.485 0 00-.483-.482zm0-1.447a.483.483 0 10.003.967.483.483 0 00-.003-.967zm0-2.893a4.847 4.847 0 00-3.417 1.412 4.82 4.82 0 00-1.415 3.41 4.759 4.759 0 001.092 3.053l-.967.965a.479.479 0 00-.101.525.481.481 0 00.459.28h4.349a4.834 4.834 0 003.417-1.413 4.814 4.814 0 000-6.82 4.838 4.838 0 00-3.417-1.412zm0 8.68H212l.45-.448a.482.482 0 00.145-.342.482.482 0 00-.145-.338 3.853 3.853 0 011.607-6.421 3.878 3.878 0 012.602.126 3.859 3.859 0 012.315 4.315 3.864 3.864 0 01-3.789 3.108zm22.23-5.787h2.9a.48.48 0 00.341-.823.483.483 0 00-.341-.141h-2.9a.485.485 0 00-.342.823.483.483 0 00.342.141zm-.966 1.929h3.866a.48.48 0 00.341-.823.483.483 0 00-.341-.141h-3.866a.484.484 0 00-.342.823.48.48 0 00.342.141zm0 1.929h3.866a.48.48 0 00.341-.823.483.483 0 00-.341-.141h-3.866a.484.484 0 00-.342.823.48.48 0 00.342.141zm5.799-6.751h-7.732a.484.484 0 00-.484.482v8.681a.482.482 0 00.773.386l1.001-.748.995.748a.49.49 0 00.58 0l1.001-.748 1 .748a.487.487 0 00.58 0l.995-.748 1.001.748a.483.483 0 00.507.043.48.48 0 00.266-.429v-8.681a.481.481 0 00-.483-.482zm-.484 8.198l-.517-.386a.485.485 0 00-.58 0l-.995.748-1-.748a.49.49 0 00-.58 0l-1.001.748-.995-.748a.49.49 0 00-.58 0l-.517.386v-7.234h6.765v7.234zm16.388-2.845a.48.48 0 00.41.227.488.488 0 00.439-.253.476.476 0 00-.028-.505 8.188 8.188 0 01-1.193-3.303.471.471 0 01.116-.391.488.488 0 01.362-.164h1.45a.48.48 0 01.483.386c0 .111.039.212.063.323v.063c.056.253.132.501.227.743l-.672.318a.484.484 0 00-.251.275.474.474 0 000 .371c.048.101.097.203.155.309a.49.49 0 00.293.227.502.502 0 00.369-.049.477.477 0 00.241-.453l.276-.101a.966.966 0 00.507-1.196 4.47 4.47 0 01-.188-.627v-.049c0-.096-.039-.192-.053-.279a1.448 1.448 0 00-1.436-1.225h-1.449a1.456 1.456 0 00-1.102.482 1.44 1.44 0 00-.348 1.153 9.175 9.175 0 001.329 3.718zm7.06-.101l-.29-.053h-.038a4.473 4.473 0 01-.643-.189.968.968 0 00-1.194.483l-.101.222a6.008 6.008 0 01-.928-.661l4.252-4.239a.49.49 0 00.143-.343.492.492 0 00-.143-.342.476.476 0 00-.343-.142.492.492 0 00-.343.142l-8.698 8.681a.467.467 0 00-.143.342.475.475 0 00.143.342.475.475 0 00.529.106.474.474 0 00.157-.106l2.218-2.218a9.232 9.232 0 004.973 2.281c.064.005.129.005.193 0 .356.002.7-.127.967-.362a1.447 1.447 0 00.483-1.085v-1.446a1.447 1.447 0 00-1.194-1.413zm.232 2.893a.488.488 0 01-.164.362.49.49 0 01-.392.116 8.267 8.267 0 01-4.417-2.016l.856-.854a7.087 7.087 0 001.633 1.066.475.475 0 00.372 0 .483.483 0 00.276-.251l.299-.68c.253.094.511.169.774.227h.053l.333.063a.48.48 0 01.377.482v1.485z" fill="#333"/><path fill-rule="evenodd" clip-rule="evenodd" d="M166.637 425.631c.577-1.003 1.377-1.567 2.241-1.558.859.01 1.611.582 2.109 1.558h1.438l.374 6.952h-8.016l.421-6.952h1.433zm.861 0c.441-.594.943-.839 1.372-.834.423.004.896.254 1.282.834h-2.654zm-1.207.723c-.02.052-.041.105-.06.158l.681.248c.053-.144.108-.279.166-.406h3.439c.045.12.088.247.127.383l.696-.201a4.836 4.836 0 00-.056-.182h.454l.296 5.505h-6.481l.333-5.505h.405z" fill="#333"/><path d="M284.775 431.307a.483.483 0 00.483-.482v-2.894a.481.481 0 00-.483-.482.484.484 0 00-.484.482v2.894a.481.481 0 00.484.482zm4.832-5.787h-1.933v-.482a1.446 1.446 0 00-1.45-1.447h-.966a1.446 1.446 0 00-1.45 1.447v.482h-1.933a.485.485 0 00-.342.823.483.483 0 00.342.141h.483v5.305a1.448 1.448 0 001.45 1.447h3.866a1.448 1.448 0 001.45-1.447v-5.305h.483a.483.483 0 100-.964zm-4.832-.482a.484.484 0 01.483-.483h.966a.484.484 0 01.484.483v.482h-1.933v-.482zm3.382 6.751a.483.483 0 01-.483.482h-3.866a.483.483 0 01-.483-.482v-5.305h4.832v5.305zm-1.449-.482a.483.483 0 00.483-.482v-2.894a.481.481 0 00-.483-.482.484.484 0 00-.484.482v2.894a.481.481 0 00.484.482zm25.549-.362l-1.309-2.257a3.33 3.33 0 00.406-1.601c0-.895-.357-1.754-.991-2.387a3.387 3.387 0 00-4.784 0 3.374 3.374 0 00-.991 2.387c-.002.559.138 1.11.406 1.601l-1.31 2.257a.49.49 0 00.001.483.48.48 0 00.42.241h1.387l.705 1.186a.492.492 0 00.087.106c.09.086.209.135.334.135h.067a.483.483 0 00.353-.236l.933-1.601.933 1.615a.486.486 0 00.352.232h.068a.482.482 0 00.42-.237l.706-1.186h1.387a.493.493 0 00.243-.064.47.47 0 00.177-.177.475.475 0 000-.497zm-5.644.738l-.43-.718a.478.478 0 00-.411-.237h-.836l.691-1.196a3.39 3.39 0 001.725.888l-.739 1.263zm1.358-2.185a2.417 2.417 0 01-2.232-1.488 2.407 2.407 0 011.761-3.288 2.422 2.422 0 012.48 1.026 2.408 2.408 0 01-2.009 3.75zm2.199 1.23a.482.482 0 00-.411.237l-.43.718-.735-1.278a3.42 3.42 0 001.721-.887l.691 1.196-.836.014z" fill="#333"/><path d="M307.189 428.123a.297.297 0 00.098.062.332.332 0 00.233 0 .297.297 0 00.098-.062l1.231-1.154a.273.273 0 000-.401.312.312 0 00-.215-.084c-.08 0-.157.03-.214.084l-1.017.955-.365-.345a.315.315 0 00-.428 0 .277.277 0 00-.089.201c0 .076.032.148.089.201l.579.543zM34.93 401.407v2.411a.48.48 0 01-.484.482h-.483a1.448 1.448 0 01-2.475 1.023 1.444 1.444 0 01-.425-1.023h-2.9a1.449 1.449 0 01-2.9 0h-.482a.481.481 0 01-.483-.482v-4.822a1.449 1.449 0 011.45-1.447h4.349a1.448 1.448 0 011.45 1.447h.966a1.458 1.458 0 011.16.578l1.16 1.544a.27.27 0 01.034.067l.029.053a.482.482 0 01.033.169zm-7.733 2.893a.479.479 0 00-.298-.445.485.485 0 00-.527.104.487.487 0 00-.105.526.482.482 0 00.789.156.48.48 0 00.141-.341zm3.383-5.304a.481.481 0 00-.483-.483h-4.35a.482.482 0 00-.483.483v4.34h.377a1.46 1.46 0 011.073-.474 1.446 1.446 0 011.073.474h2.793v-4.34zm.967 1.929h1.933l-.58-.772a.487.487 0 00-.387-.193h-.966v.965zm1.45 3.375a.479.479 0 00-.299-.445.485.485 0 00-.659.351.482.482 0 10.957.094zm.966-2.411h-2.416v1.341a1.448 1.448 0 012.039.106h.377v-1.447zm19.528-.482l2.078-2.069a.484.484 0 10-.686-.685l-2.073 2.074-2.073-2.074a.485.485 0 00-.686.685l2.078 2.069-2.078 2.069a.481.481 0 00.157.79.475.475 0 00.372 0 .477.477 0 00.157-.105l2.073-2.074 2.073 2.074a.477.477 0 00.343.142.474.474 0 00.343-.142.494.494 0 00.143-.343.48.48 0 00-.143-.342l-2.078-2.069zm184.891-2.411a.481.481 0 00-.484.482v1.929a.481.481 0 00.484.482.483.483 0 00.483-.482v-1.929a.48.48 0 00-.483-.482zm.444 4.157a.353.353 0 00-.043-.087l-.058-.072a.487.487 0 00-.827.342.48.48 0 00.039.183.436.436 0 00.261.261.463.463 0 00.367 0 .442.442 0 00.261-.261.48.48 0 00.039-.183.785.785 0 000-.097.304.304 0 00-.039-.086zm-.444-6.569a4.838 4.838 0 00-4.465 2.977 4.81 4.81 0 001.047 5.256 4.839 4.839 0 007.436-.731 4.814 4.814 0 00-.601-6.089 4.85 4.85 0 00-3.417-1.413zm0 8.681a3.869 3.869 0 01-3.572-2.382 3.848 3.848 0 01.838-4.204 3.866 3.866 0 014.213-.837 3.855 3.855 0 01-1.479 7.423zM77.32 399.859l-2.072 2.074-.798-.796a.479.479 0 00-.543-.136.497.497 0 00-.274.274.477.477 0 00.136.542l1.136 1.138a.479.479 0 00.343.14.486.486 0 00.338-.14l2.416-2.411a.494.494 0 00.143-.343.483.483 0 00-.824-.342zm-1.314-3.275a4.84 4.84 0 00-4.464 2.977 4.815 4.815 0 001.047 5.256 4.838 4.838 0 007.436-.731 4.814 4.814 0 00-.601-6.089 4.842 4.842 0 00-3.418-1.413zm0 8.681a3.87 3.87 0 01-3.571-2.382 3.849 3.849 0 01.838-4.204 3.867 3.867 0 014.213-.837 3.856 3.856 0 01-1.48 7.423zm24.924-1.929h-3.455a.24.24 0 01-.15-.429l1.727-1.38a.243.243 0 01.302 0l1.727 1.38a.24.24 0 01-.151.429zm23.197-1.929h-3.455a.24.24 0 00-.151.429l1.727 1.379a.24.24 0 00.302 0l1.728-1.379a.24.24 0 00-.151-.429zm24.852-.482h-2.9v-2.894a.485.485 0 00-.483-.482.48.48 0 00-.483.482v2.894h-2.9a.483.483 0 100 .964h2.9v2.894a.48.48 0 00.483.482.485.485 0 00.483-.482v-2.894h2.9a.483.483 0 000-.964zm23.196 0h-6.766a.48.48 0 00-.341.823c.09.09.213.141.341.141h6.766a.485.485 0 00.342-.823.483.483 0 00-.342-.141zm18.847-1.929a.483.483 0 00-.483.482v3.858a.483.483 0 00.966 0v-3.858a.479.479 0 00-.483-.482zm.967-2.412a4.84 4.84 0 00-4.465 2.977 4.81 4.81 0 001.048 5.256 4.832 4.832 0 005.266 1.045 4.814 4.814 0 001.568-7.865 4.85 4.85 0 00-3.417-1.413zm0 8.681a3.871 3.871 0 01-3.572-2.382 3.848 3.848 0 01.838-4.204 3.866 3.866 0 014.213-.837 3.855 3.855 0 01-1.479 7.423zm.966-6.269a.483.483 0 00-.483.482v3.858a.483.483 0 00.966 0v-3.858a.479.479 0 00-.483-.482zm25.613 0h-1.45v-.483c0-.511-.203-1.002-.566-1.364a1.939 1.939 0 00-2.734 0 1.93 1.93 0 00-.566 1.364v.483h-1.45a.48.48 0 00-.483.482v5.305a1.447 1.447 0 001.45 1.446h4.832c.385 0 .754-.152 1.026-.423a1.45 1.45 0 00.424-1.023v-5.305a.483.483 0 00-.483-.482zm-4.349-.483a.962.962 0 01.966-.964.966.966 0 01.967.964v.483h-1.933v-.483zm3.866 6.27a.481.481 0 01-.484.482h-4.832a.485.485 0 01-.483-.482v-4.823h.966v.482a.48.48 0 00.142.341.48.48 0 00.683 0 .48.48 0 00.142-.341v-.482h1.933v.482a.483.483 0 00.966 0v-.482h.967v4.823zm43.493-5.787a.483.483 0 00-.483.482v1.929a.485.485 0 00.483.482.485.485 0 00.483-.482v-1.929a.483.483 0 00-.483-.482zm0 3.858a.48.48 0 00-.446.297.477.477 0 00.104.526.477.477 0 00.527.104.482.482 0 00-.185-.927zm4.692-3.588l-2.546-2.542a.51.51 0 00-.343-.14h-3.606a.512.512 0 00-.343.14l-2.546 2.542a.502.502 0 00-.141.342v3.598c.002.127.052.25.141.342l2.546 2.542a.506.506 0 00.343.139h3.606a.504.504 0 00.343-.139l2.546-2.542a.504.504 0 00.141-.342v-3.598a.502.502 0 00-.141-.342zm-.826 3.737l-2.266 2.262h-3.2l-2.266-2.262v-3.192l2.266-2.262h3.2l2.266 2.262v3.192zm19.32.149a.436.436 0 00-.429.517.438.438 0 00.792.156.43.43 0 00-.055-.546.435.435 0 00-.308-.127zm4.66.636l-3.516-6.056a1.307 1.307 0 00-1.144-.665 1.319 1.319 0 00-1.145.665l-3.494 6.056a1.288 1.288 0 00.463 1.78c.199.116.425.178.655.179h7.041c.232.002.461-.057.663-.171a1.296 1.296 0 00.66-1.135 1.287 1.287 0 00-.183-.653zm-.756.865a.439.439 0 01-.384.22h-7.041a.43.43 0 01-.384-.22.436.436 0 01-.059-.216c0-.076.021-.151.059-.217l3.494-6.055a.436.436 0 01.777 0l3.516 6.055c.044.065.069.14.072.218a.42.42 0 01-.05.223v-.008zm-3.904-4.961a.439.439 0 00-.309.126.43.43 0 00-.128.306v1.73a.43.43 0 00.128.306.44.44 0 00.617 0 .43.43 0 00.128-.306v-1.73a.43.43 0 00-.128-.306.438.438 0 00-.308-.126zm26.2-.019l.467-.457a.504.504 0 000-.72.518.518 0 00-.729 0l-.462.462a4.143 4.143 0 00-5.027 0l-.467-.467a.515.515 0 00-.366-.148.518.518 0 00-.516.512.51.51 0 00.153.361l.472.462a3.977 3.977 0 00-.867 2.484 4.015 4.015 0 00.451 1.86 4.074 4.074 0 001.265 1.449 4.14 4.14 0 003.725.539 4.11 4.11 0 001.632-1.031 4.015 4.015 0 00.269-5.306zm-3.235 5.532a3.109 3.109 0 01-1.711-.513 3.045 3.045 0 01-1.135-1.365 3.008 3.008 0 01-.175-1.758 3.03 3.03 0 01.843-1.558c.431-.426.98-.715 1.577-.833a3.122 3.122 0 011.78.173 3.084 3.084 0 011.383 1.121 3.02 3.02 0 01-.383 3.842 3.105 3.105 0 01-2.179.891zm-1.027-7.607h2.054a.516.516 0 00.363-.148.502.502 0 000-.717.517.517 0 00-.363-.149h-2.054a.519.519 0 00-.363.149.504.504 0 00.363.865zm1.541 3.043a.515.515 0 00-.514-.507.508.508 0 00-.513.507v.958a.763.763 0 00-.235.388.753.753 0 00.312.806.776.776 0 001.156-.355.756.756 0 00-.206-.839v-.958zm24.147-4.057a.308.308 0 00-.116.02l-1.107.424-1.106-.423a.3.3 0 00-.342.092l-.745.918-1.17.185a.303.303 0 00-.251.25l-.186 1.168-.92.744a.3.3 0 00-.092.342l.424 1.103-.424 1.104a.3.3 0 00.092.342l.92.743.186 1.168a.3.3 0 00.251.25l1.17.186.745.917a.3.3 0 00.343.092l1.105-.423 1.106.424a.303.303 0 00.344-.093l.744-.917 1.171-.186a.301.301 0 00.251-.25l.186-1.168.919-.743a.302.302 0 00.092-.342l-.424-1.104.424-1.103a.303.303 0 00-.092-.343l-.919-.744-.186-1.167a.301.301 0 00-.251-.25l-1.171-.186-.744-.918a.307.307 0 00-.227-.112zm.296 2.412a.3.3 0 01.238.476l-3.02 4.219a.304.304 0 01-.422.071.301.301 0 01-.07-.421l3.02-4.219a.302.302 0 01.254-.126zm-2.425 0c.5 0 .906.406.906.904a.905.905 0 01-1.812 0c0-.498.407-.904.906-.904zm0 .603a.302.302 0 100 .604.302.302 0 000-.604zm1.812 2.411c.5 0 .907.405.907.904a.907.907 0 01-1.813 0c0-.499.407-.904.906-.904zm0 .603a.302.302 0 00-.302.301.302.302 0 00.604 0 .302.302 0 00-.302-.301z" fill="#333"/><defs><filter id="filter0_d" x="6.701" y="8.085" width="104.241" height="69.286" filterUnits="userSpaceOnUse" color-interpolation-filters="sRGB"><feFlood flood-opacity="0" result="BackgroundImageFix"/><feColorMatrix in="SourceAlpha" values="0 0 0 0 0 0 0 0 0 0 0 0 0 0 0 0 0 0 127 0"/><feOffset dy="1.384"/><feGaussianBlur stdDeviation="8.65"/><feColorMatrix values="0 0 0 0 0 0 0 0 0 0 0 0 0 0 0 0 0 0 0.15 0"/><feBlend in2="BackgroundImageFix" result="effect1_dropShadow"/><feBlend in="SourceGraphic" in2="effect1_dropShadow" result="shape"/></filter><filter id="filter1_d" x="87.487" y="8.085" width="104.241" height="69.286" filterUnits="userSpaceOnUse" color-interpolation-filters="sRGB"><feFlood flood-opacity="0" result="BackgroundImageFix"/><feColorMatrix in="SourceAlpha" values="0 0 0 0 0 0 0 0 0 0 0 0 0 0 0 0 0 0 127 0"/><feOffset dy="1.384"/><feGaussianBlur stdDeviation="8.65"/><feColorMatrix values="0 0 0 0 0 0 0 0 0 0 0 0 0 0 0 0 0 0 0.15 0"/><feBlend in2="BackgroundImageFix" result="effect1_dropShadow"/><feBlend in="SourceGraphic" in2="effect1_dropShadow" result="shape"/></filter><filter id="filter2_d" x="168.272" y="8.085" width="104.241" height="69.286" filterUnits="userSpaceOnUse" color-interpolation-filters="sRGB"><feFlood flood-opacity="0" result="BackgroundImageFix"/><feColorMatrix in="SourceAlpha" values="0 0 0 0 0 0 0 0 0 0 0 0 0 0 0 0 0 0 127 0"/><feOffset dy="1.384"/><feGaussianBlur stdDeviation="8.65"/><feColorMatrix values="0 0 0 0 0 0 0 0 0 0 0 0 0 0 0 0 0 0 0.15 0"/><feBlend in2="BackgroundImageFix" result="effect1_dropShadow"/><feBlend in="SourceGraphic" in2="effect1_dropShadow" result="shape"/></filter><filter id="filter3_d" x="6.701" y="85.091" width="104.241" height="69.286" filterUnits="userSpaceOnUse" color-interpolation-filters="sRGB"><feFlood flood-opacity="0" result="BackgroundImageFix"/><feColorMatrix in="SourceAlpha" values="0 0 0 0 0 0 0 0 0 0 0 0 0 0 0 0 0 0 127 0"/><feOffset dy="1.384"/><feGaussianBlur stdDeviation="8.65"/><feColorMatrix values="0 0 0 0 0 0 0 0 0 0 0 0 0 0 0 0 0 0 0.15 0"/><feBlend in2="BackgroundImageFix" result="effect1_dropShadow"/><feBlend in="SourceGraphic" in2="effect1_dropShadow" result="shape"/></filter><filter id="filter4_d" x="87.486" y="85.091" width="104.241" height="69.286" filterUnits="userSpaceOnUse" color-interpolation-filters="sRGB"><feFlood flood-opacity="0" result="BackgroundImageFix"/><feColorMatrix in="SourceAlpha" values="0 0 0 0 0 0 0 0 0 0 0 0 0 0 0 0 0 0 127 0"/><feOffset dy="1.384"/><feGaussianBlur stdDeviation="8.65"/><feColorMatrix values="0 0 0 0 0 0 0 0 0 0 0 0 0 0 0 0 0 0 0.15 0"/><feBlend in2="BackgroundImageFix" result="effect1_dropShadow"/><feBlend in="SourceGraphic" in2="effect1_dropShadow" result="shape"/></filter><filter id="filter5_d" x="6.856" y="8.085" width="346.443" height="165.437" filterUnits="userSpaceOnUse" color-interpolation-filters="sRGB"><feFlood flood-opacity="0" result="BackgroundImageFix"/><feColorMatrix in="SourceAlpha" values="0 0 0 0 0 0 0 0 0 0 0 0 0 0 0 0 0 0 127 0"/><feOffset dy="1.384"/><feGaussianBlur stdDeviation="8.65"/><feColorMatrix values="0 0 0 0 0 0 0 0 0 0 0 0 0 0 0 0 0 0 0.15 0"/><feBlend in2="BackgroundImageFix" result="effect1_dropShadow"/><feBlend in="SourceGraphic" in2="effect1_dropShadow" result="shape"/></filter></defs></svg>