<svg width="32" height="32" fill="none" xmlns="http://www.w3.org/2000/svg"><g clip-path="url(#clip0)" fill="#fff" fill-opacity=".6"><path d="M0 3.843a3.844 3.844 0 017.685 0c0 2.121-1.721 3.878-3.842 3.878C1.72 7.721 0 5.964 0 3.843zm32 28.156V20.263c0-5.742-1.236-10.164-7.948-10.164-3.227 0-5.392 1.77-6.276 3.449h-.093v-2.913h-6.364v21.364h6.626V21.42c0-2.785.528-5.479 3.978-5.479 3.398 0 3.449 3.179 3.449 5.658V32L32 31.999zM.528 10.636h6.635V32H.528V10.636z"/></g><defs><clipPath id="clip0"><path d="M0 0h32v32H0V0z" fill="#fff"/></clipPath></defs></svg>