<svg width="640" height="412" viewBox="0 0 640 412" fill="none" xmlns="http://www.w3.org/2000/svg">
<rect y="40" width="640" height="4" fill="url(#paint0_linear)"/>
<rect y="132" width="640" height="4" fill="url(#paint1_linear)" fill-opacity="0.6"/>
<rect y="224" width="640" height="4" fill="url(#paint2_linear)" fill-opacity="0.3"/>
<rect y="316" width="640" height="4" fill="url(#paint3_linear)"/>
<rect y="408" width="640" height="4" fill="url(#paint4_linear)"/>
<path d="M8.576 17.696H10.656V19.44H8.368L8.048 22H6.24L6.56 19.44H4.208L3.888 22H2.096L2.416 19.44H0.32V17.696H2.624L2.96 15.104H0.864V13.36H3.168L3.488 10.8H5.28L4.96 13.36H7.312L7.632 10.8H9.424L9.104 13.36H11.184L11.2 15.104H8.896L8.576 17.696ZM6.768 17.696L7.104 15.104H4.752L4.416 17.696H6.768ZM15.4356 12.88V15.84H20.6196V17.92H15.4356V22H12.8436V10.8H21.3076V12.88H15.4356ZM25.6544 12.88V15.84H30.8384V17.92H25.6544V22H23.0624V10.8H31.5264V12.88H25.6544ZM35.8731 12.88V15.84H41.0571V17.92H35.8731V22H33.2811V10.8H41.7451V12.88H35.8731ZM46.0919 12.88V15.84H51.2759V17.92H46.0919V22H43.4999V10.8H51.9639V12.88H46.0919ZM56.3106 12.88V15.84H61.4946V17.92H56.3106V22H53.7186V10.8H62.1826V12.88H56.3106ZM66.5294 12.88V15.84H71.7134V17.92H66.5294V22H63.9374V10.8H72.4014V12.88H66.5294ZM78.1914 16.496H82.7194V18.496H78.1914V16.496ZM93.0065 10.8V22H90.4145V12.88H88.1745V10.8H93.0065ZM99.7521 22.192C98.8241 22.192 97.9975 21.9627 97.2721 21.504C96.5468 21.0453 95.9761 20.384 95.5601 19.52C95.1548 18.6453 94.9521 17.6053 94.9521 16.4C94.9521 15.1947 95.1548 14.16 95.5601 13.296C95.9761 12.4213 96.5468 11.7547 97.2721 11.296C97.9975 10.8373 98.8241 10.608 99.7521 10.608C100.68 10.608 101.507 10.8373 102.232 11.296C102.957 11.7547 103.523 12.4213 103.928 13.296C104.344 14.16 104.552 15.1947 104.552 16.4C104.552 17.6053 104.344 18.6453 103.928 19.52C103.523 20.384 102.957 21.0453 102.232 21.504C101.507 21.9627 100.68 22.192 99.7521 22.192ZM99.7521 20C100.435 20 100.968 19.7067 101.352 19.12C101.747 18.5333 101.944 17.6267 101.944 16.4C101.944 15.1733 101.747 14.2667 101.352 13.68C100.968 13.0933 100.435 12.8 99.7521 12.8C99.0801 12.8 98.5468 13.0933 98.1521 13.68C97.7681 14.2667 97.5761 15.1733 97.5761 16.4C97.5761 17.6267 97.7681 18.5333 98.1521 19.12C98.5468 19.7067 99.0801 20 99.7521 20ZM110.612 22.192C109.684 22.192 108.857 21.9627 108.132 21.504C107.406 21.0453 106.836 20.384 106.42 19.52C106.014 18.6453 105.812 17.6053 105.812 16.4C105.812 15.1947 106.014 14.16 106.42 13.296C106.836 12.4213 107.406 11.7547 108.132 11.296C108.857 10.8373 109.684 10.608 110.612 10.608C111.54 10.608 112.366 10.8373 113.092 11.296C113.817 11.7547 114.382 12.4213 114.788 13.296C115.204 14.16 115.412 15.1947 115.412 16.4C115.412 17.6053 115.204 18.6453 114.788 19.52C114.382 20.384 113.817 21.0453 113.092 21.504C112.366 21.9627 111.54 22.192 110.612 22.192ZM110.612 20C111.294 20 111.828 19.7067 112.212 19.12C112.606 18.5333 112.804 17.6267 112.804 16.4C112.804 15.1733 112.606 14.2667 112.212 13.68C111.828 13.0933 111.294 12.8 110.612 12.8C109.94 12.8 109.406 13.0933 109.012 13.68C108.628 14.2667 108.436 15.1733 108.436 16.4C108.436 17.6267 108.628 18.5333 109.012 19.12C109.406 19.7067 109.94 20 110.612 20ZM119.263 16.848C118.442 16.848 117.77 16.5707 117.247 16.016C116.735 15.4507 116.479 14.6987 116.479 13.76C116.479 12.8213 116.735 12.0747 117.247 11.52C117.77 10.9547 118.442 10.672 119.263 10.672C120.084 10.672 120.751 10.9547 121.263 11.52C121.775 12.0747 122.031 12.8213 122.031 13.76C122.031 14.6987 121.775 15.4507 121.263 16.016C120.751 16.5707 120.084 16.848 119.263 16.848ZM125.935 10.8H127.839L120.191 22H118.287L125.935 10.8ZM119.263 15.536C119.626 15.536 119.908 15.3867 120.111 15.088C120.324 14.7893 120.431 14.3467 120.431 13.76C120.431 13.1733 120.324 12.7307 120.111 12.432C119.908 12.1333 119.626 11.984 119.263 11.984C118.911 11.984 118.628 12.1387 118.415 12.448C118.202 12.7467 118.095 13.184 118.095 13.76C118.095 14.336 118.202 14.7787 118.415 15.088C118.628 15.3867 118.911 15.536 119.263 15.536ZM126.863 22.128C126.33 22.128 125.85 22.0053 125.423 21.76C125.007 21.504 124.682 21.1413 124.447 20.672C124.212 20.2027 124.095 19.6587 124.095 19.04C124.095 18.4213 124.212 17.8773 124.447 17.408C124.682 16.9387 125.007 16.5813 125.423 16.336C125.85 16.08 126.33 15.952 126.863 15.952C127.684 15.952 128.351 16.2347 128.863 16.8C129.386 17.3547 129.647 18.1013 129.647 19.04C129.647 19.9787 129.386 20.7307 128.863 21.296C128.351 21.8507 127.684 22.128 126.863 22.128ZM126.863 20.816C127.226 20.816 127.508 20.6667 127.711 20.368C127.924 20.0587 128.031 19.616 128.031 19.04C128.031 18.464 127.924 18.0267 127.711 17.728C127.508 17.4187 127.226 17.264 126.863 17.264C126.511 17.264 126.228 17.4133 126.015 17.712C125.802 18.0107 125.695 18.4533 125.695 19.04C125.695 19.6267 125.802 20.0693 126.015 20.368C126.228 20.6667 126.511 20.816 126.863 20.816ZM141.361 22.192C140.199 22.192 139.148 21.9413 138.209 21.44C137.281 20.9387 136.551 20.2507 136.017 19.376C135.495 18.4907 135.233 17.4987 135.233 16.4C135.233 15.3013 135.495 14.3147 136.017 13.44C136.551 12.5547 137.281 11.8613 138.209 11.36C139.148 10.8587 140.199 10.608 141.361 10.608C142.524 10.608 143.569 10.8587 144.497 11.36C145.425 11.8613 146.156 12.5547 146.689 13.44C147.223 14.3147 147.489 15.3013 147.489 16.4C147.489 17.4987 147.223 18.4907 146.689 19.376C146.156 20.2507 145.425 20.9387 144.497 21.44C143.569 21.9413 142.524 22.192 141.361 22.192ZM141.361 19.984C142.023 19.984 142.62 19.8347 143.153 19.536C143.687 19.2267 144.103 18.8 144.401 18.256C144.711 17.712 144.865 17.0933 144.865 16.4C144.865 15.7067 144.711 15.088 144.401 14.544C144.103 14 143.687 13.5787 143.153 13.28C142.62 12.9707 142.023 12.816 141.361 12.816C140.7 12.816 140.103 12.9707 139.569 13.28C139.036 13.5787 138.615 14 138.305 14.544C138.007 15.088 137.857 15.7067 137.857 16.4C137.857 17.0933 138.007 17.712 138.305 18.256C138.615 18.8 139.036 19.2267 139.569 19.536C140.103 19.8347 140.7 19.984 141.361 19.984ZM154.285 10.8C155.277 10.8 156.136 10.9653 156.861 11.296C157.597 11.6267 158.163 12.096 158.557 12.704C158.952 13.312 159.149 14.032 159.149 14.864C159.149 15.6853 158.952 16.4053 158.557 17.024C158.163 17.632 157.597 18.1013 156.861 18.432C156.136 18.752 155.277 18.912 154.285 18.912H152.029V22H149.437V10.8H154.285ZM154.141 16.8C154.92 16.8 155.512 16.6347 155.917 16.304C156.323 15.9627 156.525 15.4827 156.525 14.864C156.525 14.2347 156.323 13.7547 155.917 13.424C155.512 13.0827 154.92 12.912 154.141 12.912H152.029V16.8H154.141ZM167.813 19.6H162.613L161.621 22H158.965L163.957 10.8H166.517L171.525 22H168.805L167.813 19.6ZM166.997 17.632L165.221 13.344L163.445 17.632H166.997ZM177.891 22.192C176.75 22.192 175.715 21.9467 174.787 21.456C173.87 20.9547 173.144 20.2667 172.611 19.392C172.088 18.5067 171.827 17.5093 171.827 16.4C171.827 15.2907 172.088 14.2987 172.611 13.424C173.144 12.5387 173.87 11.8507 174.787 11.36C175.715 10.8587 176.755 10.608 177.907 10.608C178.878 10.608 179.752 10.7787 180.531 11.12C181.32 11.4613 181.982 11.952 182.515 12.592L180.851 14.128C180.094 13.2533 179.155 12.816 178.035 12.816C177.342 12.816 176.723 12.9707 176.179 13.28C175.635 13.5787 175.208 14 174.899 14.544C174.6 15.088 174.451 15.7067 174.451 16.4C174.451 17.0933 174.6 17.712 174.899 18.256C175.208 18.8 175.635 19.2267 176.179 19.536C176.723 19.8347 177.342 19.984 178.035 19.984C179.155 19.984 180.094 19.5413 180.851 18.656L182.515 20.192C181.982 20.8427 181.32 21.3387 180.531 21.68C179.742 22.0213 178.862 22.192 177.891 22.192ZM184.266 10.8H186.858V22H184.266V10.8ZM191.836 12.912H188.252V10.8H198.012V12.912H194.428V22H191.836V12.912ZM204.579 18.032V22H201.987V18L197.651 10.8H200.403L203.395 15.776L206.387 10.8H208.931L204.579 18.032Z" fill="white"/>
<path d="M8.576 109.696H10.656V111.44H8.368L8.048 114H6.24L6.56 111.44H4.208L3.888 114H2.096L2.416 111.44H0.32V109.696H2.624L2.96 107.104H0.864V105.36H3.168L3.488 102.8H5.28L4.96 105.36H7.312L7.632 102.8H9.424L9.104 105.36H11.184L11.2 107.104H8.896L8.576 109.696ZM6.768 109.696L7.104 107.104H4.752L4.416 109.696H6.768ZM15.4356 104.88V107.84H20.6196V109.92H15.4356V114H12.8436V102.8H21.3076V104.88H15.4356ZM25.6544 104.88V107.84H30.8384V109.92H25.6544V114H23.0624V102.8H31.5264V104.88H25.6544ZM35.8731 104.88V107.84H41.0571V109.92H35.8731V114H33.2811V102.8H41.7451V104.88H35.8731ZM46.0919 104.88V107.84H51.2759V109.92H46.0919V114H43.4999V102.8H51.9639V104.88H46.0919ZM56.3106 104.88V107.84H61.4946V109.92H56.3106V114H53.7186V102.8H62.1826V104.88H56.3106ZM66.5294 104.88V107.84H71.7134V109.92H66.5294V114H63.9374V102.8H72.4014V104.88H66.5294ZM78.1914 108.496H82.7194V110.496H78.1914V108.496ZM94.0785 106.976C94.7932 106.976 95.4438 107.12 96.0305 107.408C96.6172 107.696 97.0812 108.107 97.4225 108.64C97.7638 109.163 97.9345 109.771 97.9345 110.464C97.9345 111.211 97.7478 111.867 97.3745 112.432C97.0012 112.997 96.4892 113.435 95.8385 113.744C95.1985 114.043 94.4838 114.192 93.6945 114.192C92.1265 114.192 90.8998 113.712 90.0145 112.752C89.1292 111.792 88.6865 110.421 88.6865 108.64C88.6865 107.371 88.9265 106.283 89.4065 105.376C89.8865 104.469 90.5532 103.781 91.4065 103.312C92.2705 102.843 93.2678 102.608 94.3985 102.608C94.9958 102.608 95.5665 102.677 96.1105 102.816C96.6652 102.944 97.1345 103.131 97.5185 103.376L96.5585 105.28C96.0038 104.907 95.3052 104.72 94.4625 104.72C93.5132 104.72 92.7612 104.997 92.2065 105.552C91.6518 106.107 91.3532 106.912 91.3105 107.968C91.9718 107.307 92.8945 106.976 94.0785 106.976ZM93.5505 112.256C94.1052 112.256 94.5532 112.107 94.8945 111.808C95.2465 111.509 95.4225 111.104 95.4225 110.592C95.4225 110.08 95.2465 109.675 94.8945 109.376C94.5532 109.067 94.0945 108.912 93.5185 108.912C92.9532 108.912 92.4892 109.072 92.1265 109.392C91.7638 109.701 91.5825 110.101 91.5825 110.592C91.5825 111.083 91.7585 111.483 92.1105 111.792C92.4625 112.101 92.9425 112.256 93.5505 112.256ZM103.674 114.192C102.746 114.192 101.919 113.963 101.194 113.504C100.469 113.045 99.898 112.384 99.482 111.52C99.0767 110.645 98.874 109.605 98.874 108.4C98.874 107.195 99.0767 106.16 99.482 105.296C99.898 104.421 100.469 103.755 101.194 103.296C101.919 102.837 102.746 102.608 103.674 102.608C104.602 102.608 105.429 102.837 106.154 103.296C106.879 103.755 107.445 104.421 107.85 105.296C108.266 106.16 108.474 107.195 108.474 108.4C108.474 109.605 108.266 110.645 107.85 111.52C107.445 112.384 106.879 113.045 106.154 113.504C105.429 113.963 104.602 114.192 103.674 114.192ZM103.674 112C104.357 112 104.89 111.707 105.274 111.12C105.669 110.533 105.866 109.627 105.866 108.4C105.866 107.173 105.669 106.267 105.274 105.68C104.89 105.093 104.357 104.8 103.674 104.8C103.002 104.8 102.469 105.093 102.074 105.68C101.69 106.267 101.498 107.173 101.498 108.4C101.498 109.627 101.69 110.533 102.074 111.12C102.469 111.707 103.002 112 103.674 112ZM112.325 108.848C111.504 108.848 110.832 108.571 110.309 108.016C109.797 107.451 109.541 106.699 109.541 105.76C109.541 104.821 109.797 104.075 110.309 103.52C110.832 102.955 111.504 102.672 112.325 102.672C113.147 102.672 113.813 102.955 114.325 103.52C114.837 104.075 115.093 104.821 115.093 105.76C115.093 106.699 114.837 107.451 114.325 108.016C113.813 108.571 113.147 108.848 112.325 108.848ZM118.997 102.8H120.901L113.253 114H111.349L118.997 102.8ZM112.325 107.536C112.688 107.536 112.971 107.387 113.173 107.088C113.387 106.789 113.493 106.347 113.493 105.76C113.493 105.173 113.387 104.731 113.173 104.432C112.971 104.133 112.688 103.984 112.325 103.984C111.973 103.984 111.691 104.139 111.477 104.448C111.264 104.747 111.157 105.184 111.157 105.76C111.157 106.336 111.264 106.779 111.477 107.088C111.691 107.387 111.973 107.536 112.325 107.536ZM119.925 114.128C119.392 114.128 118.912 114.005 118.485 113.76C118.069 113.504 117.744 113.141 117.509 112.672C117.275 112.203 117.157 111.659 117.157 111.04C117.157 110.421 117.275 109.877 117.509 109.408C117.744 108.939 118.069 108.581 118.485 108.336C118.912 108.08 119.392 107.952 119.925 107.952C120.747 107.952 121.413 108.235 121.925 108.8C122.448 109.355 122.709 110.101 122.709 111.04C122.709 111.979 122.448 112.731 121.925 113.296C121.413 113.851 120.747 114.128 119.925 114.128ZM119.925 112.816C120.288 112.816 120.571 112.667 120.773 112.368C120.987 112.059 121.093 111.616 121.093 111.04C121.093 110.464 120.987 110.027 120.773 109.728C120.571 109.419 120.288 109.264 119.925 109.264C119.573 109.264 119.291 109.413 119.077 109.712C118.864 110.011 118.757 110.453 118.757 111.04C118.757 111.627 118.864 112.069 119.077 112.368C119.291 112.667 119.573 112.816 119.925 112.816ZM134.424 114.192C133.261 114.192 132.211 113.941 131.272 113.44C130.344 112.939 129.613 112.251 129.08 111.376C128.557 110.491 128.296 109.499 128.296 108.4C128.296 107.301 128.557 106.315 129.08 105.44C129.613 104.555 130.344 103.861 131.272 103.36C132.211 102.859 133.261 102.608 134.424 102.608C135.587 102.608 136.632 102.859 137.56 103.36C138.488 103.861 139.219 104.555 139.752 105.44C140.285 106.315 140.552 107.301 140.552 108.4C140.552 109.499 140.285 110.491 139.752 111.376C139.219 112.251 138.488 112.939 137.56 113.44C136.632 113.941 135.587 114.192 134.424 114.192ZM134.424 111.984C135.085 111.984 135.683 111.835 136.216 111.536C136.749 111.227 137.165 110.8 137.464 110.256C137.773 109.712 137.928 109.093 137.928 108.4C137.928 107.707 137.773 107.088 137.464 106.544C137.165 106 136.749 105.579 136.216 105.28C135.683 104.971 135.085 104.816 134.424 104.816C133.763 104.816 133.165 104.971 132.632 105.28C132.099 105.579 131.677 106 131.368 106.544C131.069 107.088 130.92 107.707 130.92 108.4C130.92 109.093 131.069 109.712 131.368 110.256C131.677 110.8 132.099 111.227 132.632 111.536C133.165 111.835 133.763 111.984 134.424 111.984ZM147.348 102.8C148.34 102.8 149.199 102.965 149.924 103.296C150.66 103.627 151.225 104.096 151.62 104.704C152.015 105.312 152.212 106.032 152.212 106.864C152.212 107.685 152.015 108.405 151.62 109.024C151.225 109.632 150.66 110.101 149.924 110.432C149.199 110.752 148.34 110.912 147.348 110.912H145.092V114H142.5V102.8H147.348ZM147.204 108.8C147.983 108.8 148.575 108.635 148.98 108.304C149.385 107.963 149.588 107.483 149.588 106.864C149.588 106.235 149.385 105.755 148.98 105.424C148.575 105.083 147.983 104.912 147.204 104.912H145.092V108.8H147.204ZM160.876 111.6H155.676L154.684 114H152.028L157.02 102.8H159.58L164.588 114H161.868L160.876 111.6ZM160.06 109.632L158.284 105.344L156.508 109.632H160.06ZM170.954 114.192C169.812 114.192 168.778 113.947 167.85 113.456C166.932 112.955 166.207 112.267 165.674 111.392C165.151 110.507 164.89 109.509 164.89 108.4C164.89 107.291 165.151 106.299 165.674 105.424C166.207 104.539 166.932 103.851 167.85 103.36C168.778 102.859 169.818 102.608 170.97 102.608C171.94 102.608 172.815 102.779 173.594 103.12C174.383 103.461 175.044 103.952 175.578 104.592L173.914 106.128C173.156 105.253 172.218 104.816 171.098 104.816C170.404 104.816 169.786 104.971 169.242 105.28C168.698 105.579 168.271 106 167.962 106.544C167.663 107.088 167.514 107.707 167.514 108.4C167.514 109.093 167.663 109.712 167.962 110.256C168.271 110.8 168.698 111.227 169.242 111.536C169.786 111.835 170.404 111.984 171.098 111.984C172.218 111.984 173.156 111.541 173.914 110.656L175.578 112.192C175.044 112.843 174.383 113.339 173.594 113.68C172.804 114.021 171.924 114.192 170.954 114.192ZM177.328 102.8H179.92V114H177.328V102.8ZM184.898 104.912H181.314V102.8H191.074V104.912H187.49V114H184.898V104.912ZM197.642 110.032V114H195.049V110L190.713 102.8H193.466L196.458 107.776L199.45 102.8H201.994L197.642 110.032Z" fill="white" fill-opacity="0.6"/>
<path d="M8.576 201.696H10.656V203.44H8.368L8.048 206H6.24L6.56 203.44H4.208L3.888 206H2.096L2.416 203.44H0.32V201.696H2.624L2.96 199.104H0.864V197.36H3.168L3.488 194.8H5.28L4.96 197.36H7.312L7.632 194.8H9.424L9.104 197.36H11.184L11.2 199.104H8.896L8.576 201.696ZM6.768 201.696L7.104 199.104H4.752L4.416 201.696H6.768ZM15.4356 196.88V199.84H20.6196V201.92H15.4356V206H12.8436V194.8H21.3076V196.88H15.4356ZM25.6544 196.88V199.84H30.8384V201.92H25.6544V206H23.0624V194.8H31.5264V196.88H25.6544ZM35.8731 196.88V199.84H41.0571V201.92H35.8731V206H33.2811V194.8H41.7451V196.88H35.8731ZM46.0919 196.88V199.84H51.2759V201.92H46.0919V206H43.4999V194.8H51.9639V196.88H46.0919ZM56.3106 196.88V199.84H61.4946V201.92H56.3106V206H53.7186V194.8H62.1826V196.88H56.3106ZM66.5294 196.88V199.84H71.7134V201.92H66.5294V206H63.9374V194.8H72.4014V196.88H66.5294ZM78.1914 200.496H82.7194V202.496H78.1914V200.496ZM93.9185 199.36C94.8998 199.52 95.6518 199.888 96.1745 200.464C96.6972 201.029 96.9585 201.733 96.9585 202.576C96.9585 203.227 96.7878 203.829 96.4465 204.384C96.1052 204.928 95.5825 205.365 94.8785 205.696C94.1852 206.027 93.3318 206.192 92.3185 206.192C91.5292 206.192 90.7505 206.091 89.9825 205.888C89.2252 205.675 88.5798 205.376 88.0465 204.992L89.0545 203.008C89.4812 203.328 89.9718 203.579 90.5265 203.76C91.0918 203.931 91.6678 204.016 92.2545 204.016C92.9052 204.016 93.4172 203.893 93.7905 203.648C94.1638 203.392 94.3505 203.035 94.3505 202.576C94.3505 201.659 93.6518 201.2 92.2545 201.2H91.0705V199.488L93.3745 196.88H88.6065V194.8H96.4465V196.48L93.9185 199.36ZM102.955 206.192C102.027 206.192 101.201 205.963 100.475 205.504C99.7499 205.045 99.1793 204.384 98.7633 203.52C98.3579 202.645 98.1553 201.605 98.1553 200.4C98.1553 199.195 98.3579 198.16 98.7633 197.296C99.1793 196.421 99.7499 195.755 100.475 195.296C101.201 194.837 102.027 194.608 102.955 194.608C103.883 194.608 104.71 194.837 105.435 195.296C106.161 195.755 106.726 196.421 107.131 197.296C107.547 198.16 107.755 199.195 107.755 200.4C107.755 201.605 107.547 202.645 107.131 203.52C106.726 204.384 106.161 205.045 105.435 205.504C104.71 205.963 103.883 206.192 102.955 206.192ZM102.955 204C103.638 204 104.171 203.707 104.555 203.12C104.95 202.533 105.147 201.627 105.147 200.4C105.147 199.173 104.95 198.267 104.555 197.68C104.171 197.093 103.638 196.8 102.955 196.8C102.283 196.8 101.75 197.093 101.355 197.68C100.971 198.267 100.779 199.173 100.779 200.4C100.779 201.627 100.971 202.533 101.355 203.12C101.75 203.707 102.283 204 102.955 204ZM111.607 200.848C110.785 200.848 110.113 200.571 109.591 200.016C109.079 199.451 108.823 198.699 108.823 197.76C108.823 196.821 109.079 196.075 109.591 195.52C110.113 194.955 110.785 194.672 111.607 194.672C112.428 194.672 113.095 194.955 113.607 195.52C114.119 196.075 114.375 196.821 114.375 197.76C114.375 198.699 114.119 199.451 113.607 200.016C113.095 200.571 112.428 200.848 111.607 200.848ZM118.279 194.8H120.183L112.535 206H110.631L118.279 194.8ZM111.607 199.536C111.969 199.536 112.252 199.387 112.455 199.088C112.668 198.789 112.775 198.347 112.775 197.76C112.775 197.173 112.668 196.731 112.455 196.432C112.252 196.133 111.969 195.984 111.607 195.984C111.255 195.984 110.972 196.139 110.759 196.448C110.545 196.747 110.439 197.184 110.439 197.76C110.439 198.336 110.545 198.779 110.759 199.088C110.972 199.387 111.255 199.536 111.607 199.536ZM119.207 206.128C118.673 206.128 118.193 206.005 117.767 205.76C117.351 205.504 117.025 205.141 116.791 204.672C116.556 204.203 116.439 203.659 116.439 203.04C116.439 202.421 116.556 201.877 116.791 201.408C117.025 200.939 117.351 200.581 117.767 200.336C118.193 200.08 118.673 199.952 119.207 199.952C120.028 199.952 120.695 200.235 121.207 200.8C121.729 201.355 121.991 202.101 121.991 203.04C121.991 203.979 121.729 204.731 121.207 205.296C120.695 205.851 120.028 206.128 119.207 206.128ZM119.207 204.816C119.569 204.816 119.852 204.667 120.055 204.368C120.268 204.059 120.375 203.616 120.375 203.04C120.375 202.464 120.268 202.027 120.055 201.728C119.852 201.419 119.569 201.264 119.207 201.264C118.855 201.264 118.572 201.413 118.359 201.712C118.145 202.011 118.039 202.453 118.039 203.04C118.039 203.627 118.145 204.069 118.359 204.368C118.572 204.667 118.855 204.816 119.207 204.816ZM133.705 206.192C132.542 206.192 131.492 205.941 130.553 205.44C129.625 204.939 128.894 204.251 128.361 203.376C127.838 202.491 127.577 201.499 127.577 200.4C127.577 199.301 127.838 198.315 128.361 197.44C128.894 196.555 129.625 195.861 130.553 195.36C131.492 194.859 132.542 194.608 133.705 194.608C134.868 194.608 135.913 194.859 136.841 195.36C137.769 195.861 138.5 196.555 139.033 197.44C139.566 198.315 139.833 199.301 139.833 200.4C139.833 201.499 139.566 202.491 139.033 203.376C138.5 204.251 137.769 204.939 136.841 205.44C135.913 205.941 134.868 206.192 133.705 206.192ZM133.705 203.984C134.366 203.984 134.964 203.835 135.497 203.536C136.03 203.227 136.446 202.8 136.745 202.256C137.054 201.712 137.209 201.093 137.209 200.4C137.209 199.707 137.054 199.088 136.745 198.544C136.446 198 136.03 197.579 135.497 197.28C134.964 196.971 134.366 196.816 133.705 196.816C133.044 196.816 132.446 196.971 131.913 197.28C131.38 197.579 130.958 198 130.649 198.544C130.35 199.088 130.201 199.707 130.201 200.4C130.201 201.093 130.35 201.712 130.649 202.256C130.958 202.8 131.38 203.227 131.913 203.536C132.446 203.835 133.044 203.984 133.705 203.984ZM146.629 194.8C147.621 194.8 148.48 194.965 149.205 195.296C149.941 195.627 150.506 196.096 150.901 196.704C151.296 197.312 151.493 198.032 151.493 198.864C151.493 199.685 151.296 200.405 150.901 201.024C150.506 201.632 149.941 202.101 149.205 202.432C148.48 202.752 147.621 202.912 146.629 202.912H144.373V206H141.781V194.8H146.629ZM146.485 200.8C147.264 200.8 147.856 200.635 148.261 200.304C148.666 199.963 148.869 199.483 148.869 198.864C148.869 198.235 148.666 197.755 148.261 197.424C147.856 197.083 147.264 196.912 146.485 196.912H144.373V200.8H146.485ZM160.157 203.6H154.957L153.965 206H151.309L156.301 194.8H158.861L163.869 206H161.149L160.157 203.6ZM159.341 201.632L157.565 197.344L155.789 201.632H159.341ZM170.235 206.192C169.094 206.192 168.059 205.947 167.131 205.456C166.214 204.955 165.488 204.267 164.955 203.392C164.432 202.507 164.171 201.509 164.171 200.4C164.171 199.291 164.432 198.299 164.955 197.424C165.488 196.539 166.214 195.851 167.131 195.36C168.059 194.859 169.099 194.608 170.251 194.608C171.222 194.608 172.096 194.779 172.875 195.12C173.664 195.461 174.326 195.952 174.859 196.592L173.195 198.128C172.438 197.253 171.499 196.816 170.379 196.816C169.686 196.816 169.067 196.971 168.523 197.28C167.979 197.579 167.552 198 167.243 198.544C166.944 199.088 166.795 199.707 166.795 200.4C166.795 201.093 166.944 201.712 167.243 202.256C167.552 202.8 167.979 203.227 168.523 203.536C169.067 203.835 169.686 203.984 170.379 203.984C171.499 203.984 172.438 203.541 173.195 202.656L174.859 204.192C174.326 204.843 173.664 205.339 172.875 205.68C172.086 206.021 171.206 206.192 170.235 206.192ZM176.609 194.8H179.201V206H176.609V194.8ZM184.179 196.912H180.595V194.8H190.355V196.912H186.771V206H184.179V196.912ZM196.923 202.032V206H194.331V202L189.995 194.8H192.747L195.739 199.776L198.731 194.8H201.275L196.923 202.032Z" fill="white" fill-opacity="0.3"/>
<path d="M8.576 293.696H10.656V295.44H8.368L8.048 298H6.24L6.56 295.44H4.208L3.888 298H2.096L2.416 295.44H0.32V293.696H2.624L2.96 291.104H0.864V289.36H3.168L3.488 286.8H5.28L4.96 289.36H7.312L7.632 286.8H9.424L9.104 289.36H11.184L11.2 291.104H8.896L8.576 293.696ZM6.768 293.696L7.104 291.104H4.752L4.416 293.696H6.768ZM16.9396 298.192C16.0116 298.192 15.185 297.963 14.4596 297.504C13.7343 297.045 13.1636 296.384 12.7476 295.52C12.3423 294.645 12.1396 293.605 12.1396 292.4C12.1396 291.195 12.3423 290.16 12.7476 289.296C13.1636 288.421 13.7343 287.755 14.4596 287.296C15.185 286.837 16.0116 286.608 16.9396 286.608C17.8676 286.608 18.6943 286.837 19.4196 287.296C20.145 287.755 20.7103 288.421 21.1156 289.296C21.5316 290.16 21.7396 291.195 21.7396 292.4C21.7396 293.605 21.5316 294.645 21.1156 295.52C20.7103 296.384 20.145 297.045 19.4196 297.504C18.6943 297.963 17.8676 298.192 16.9396 298.192ZM16.9396 296C17.6223 296 18.1556 295.707 18.5396 295.12C18.9343 294.533 19.1316 293.627 19.1316 292.4C19.1316 291.173 18.9343 290.267 18.5396 289.68C18.1556 289.093 17.6223 288.8 16.9396 288.8C16.2676 288.8 15.7343 289.093 15.3396 289.68C14.9556 290.267 14.7636 291.173 14.7636 292.4C14.7636 293.627 14.9556 294.533 15.3396 295.12C15.7343 295.707 16.2676 296 16.9396 296ZM27.799 298.192C26.871 298.192 26.0443 297.963 25.319 297.504C24.5937 297.045 24.023 296.384 23.607 295.52C23.2017 294.645 22.999 293.605 22.999 292.4C22.999 291.195 23.2017 290.16 23.607 289.296C24.023 288.421 24.5937 287.755 25.319 287.296C26.0443 286.837 26.871 286.608 27.799 286.608C28.727 286.608 29.5537 286.837 30.279 287.296C31.0043 287.755 31.5697 288.421 31.975 289.296C32.391 290.16 32.599 291.195 32.599 292.4C32.599 293.605 32.391 294.645 31.975 295.52C31.5697 296.384 31.0043 297.045 30.279 297.504C29.5537 297.963 28.727 298.192 27.799 298.192ZM27.799 296C28.4817 296 29.015 295.707 29.399 295.12C29.7937 294.533 29.991 293.627 29.991 292.4C29.991 291.173 29.7937 290.267 29.399 289.68C29.015 289.093 28.4817 288.8 27.799 288.8C27.127 288.8 26.5937 289.093 26.199 289.68C25.815 290.267 25.623 291.173 25.623 292.4C25.623 293.627 25.815 294.533 26.199 295.12C26.5937 295.707 27.127 296 27.799 296ZM42.7864 292.176C43.4264 292.379 43.9277 292.72 44.2904 293.2C44.653 293.669 44.8344 294.251 44.8344 294.944C44.8344 295.925 44.4504 296.683 43.6824 297.216C42.925 297.739 41.8157 298 40.3544 298H34.5624V286.8H40.0344C41.3997 286.8 42.445 287.061 43.1704 287.584C43.9064 288.107 44.2744 288.816 44.2744 289.712C44.2744 290.256 44.141 290.741 43.8744 291.168C43.6184 291.595 43.2557 291.931 42.7864 292.176ZM37.1384 288.752V291.392H39.7144C40.3544 291.392 40.8397 291.28 41.1704 291.056C41.501 290.832 41.6664 290.501 41.6664 290.064C41.6664 289.627 41.501 289.301 41.1704 289.088C40.8397 288.864 40.3544 288.752 39.7144 288.752H37.1384ZM40.1624 296.048C40.845 296.048 41.357 295.936 41.6984 295.712C42.0504 295.488 42.2264 295.141 42.2264 294.672C42.2264 293.744 41.5384 293.28 40.1624 293.28H37.1384V296.048H40.1624ZM53.7568 292.112C54.3114 292.389 54.7328 292.752 55.0208 293.2C55.3194 293.648 55.4688 294.165 55.4688 294.752C55.4688 295.445 55.2714 296.053 54.8767 296.576C54.4821 297.088 53.9274 297.488 53.2128 297.776C52.4981 298.053 51.6714 298.192 50.7328 298.192C49.7941 298.192 48.9674 298.053 48.2528 297.776C47.5488 297.488 46.9994 297.088 46.6048 296.576C46.2208 296.053 46.0288 295.445 46.0288 294.752C46.0288 294.165 46.1728 293.648 46.4608 293.2C46.7594 292.752 47.1808 292.389 47.7248 292.112C47.3088 291.856 46.9888 291.536 46.7648 291.152C46.5408 290.757 46.4288 290.309 46.4288 289.808C46.4288 289.157 46.6101 288.592 46.9728 288.112C47.3354 287.632 47.8421 287.264 48.4928 287.008C49.1434 286.741 49.8901 286.608 50.7328 286.608C51.5861 286.608 52.3381 286.741 52.9888 287.008C53.6501 287.264 54.1621 287.632 54.5248 288.112C54.8874 288.592 55.0688 289.157 55.0688 289.808C55.0688 290.309 54.9568 290.757 54.7328 291.152C54.5088 291.536 54.1834 291.856 53.7568 292.112ZM50.7328 288.512C50.2101 288.512 49.7888 288.64 49.4688 288.896C49.1594 289.141 49.0048 289.483 49.0048 289.92C49.0048 290.347 49.1594 290.683 49.4688 290.928C49.7781 291.173 50.1994 291.296 50.7328 291.296C51.2661 291.296 51.6928 291.173 52.0128 290.928C52.3328 290.683 52.4928 290.347 52.4928 289.92C52.4928 289.483 52.3328 289.141 52.0128 288.896C51.6928 288.64 51.2661 288.512 50.7328 288.512ZM50.7328 296.288C51.3834 296.288 51.8954 296.144 52.2688 295.856C52.6528 295.557 52.8448 295.163 52.8448 294.672C52.8448 294.181 52.6528 293.792 52.2688 293.504C51.8954 293.216 51.3834 293.072 50.7328 293.072C50.0928 293.072 49.5861 293.216 49.2128 293.504C48.8394 293.792 48.6528 294.181 48.6528 294.672C48.6528 295.173 48.8394 295.568 49.2128 295.856C49.5861 296.144 50.0928 296.288 50.7328 296.288ZM65.5833 292.176C66.2233 292.379 66.7246 292.72 67.0873 293.2C67.4499 293.669 67.6313 294.251 67.6313 294.944C67.6313 295.925 67.2473 296.683 66.4793 297.216C65.7219 297.739 64.6126 298 63.1513 298H57.3593V286.8H62.8313C64.1966 286.8 65.2419 287.061 65.9673 287.584C66.7033 288.107 67.0713 288.816 67.0713 289.712C67.0713 290.256 66.9379 290.741 66.6713 291.168C66.4153 291.595 66.0526 291.931 65.5833 292.176ZM59.9353 288.752V291.392H62.5113C63.1513 291.392 63.6366 291.28 63.9673 291.056C64.2979 290.832 64.4633 290.501 64.4633 290.064C64.4633 289.627 64.2979 289.301 63.9673 289.088C63.6366 288.864 63.1513 288.752 62.5113 288.752H59.9353ZM62.9593 296.048C63.6419 296.048 64.1539 295.936 64.4953 295.712C64.8473 295.488 65.0233 295.141 65.0233 294.672C65.0233 293.744 64.3353 293.28 62.9593 293.28H59.9353V296.048H62.9593ZM76.5536 292.112C77.1083 292.389 77.5296 292.752 77.8176 293.2C78.1163 293.648 78.2656 294.165 78.2656 294.752C78.2656 295.445 78.0683 296.053 77.6736 296.576C77.279 297.088 76.7243 297.488 76.0096 297.776C75.295 298.053 74.4683 298.192 73.5296 298.192C72.591 298.192 71.7643 298.053 71.0496 297.776C70.3456 297.488 69.7963 297.088 69.4016 296.576C69.0176 296.053 68.8256 295.445 68.8256 294.752C68.8256 294.165 68.9696 293.648 69.2576 293.2C69.5563 292.752 69.9776 292.389 70.5216 292.112C70.1056 291.856 69.7856 291.536 69.5616 291.152C69.3376 290.757 69.2256 290.309 69.2256 289.808C69.2256 289.157 69.407 288.592 69.7696 288.112C70.1323 287.632 70.639 287.264 71.2896 287.008C71.9403 286.741 72.687 286.608 73.5296 286.608C74.383 286.608 75.135 286.741 75.7856 287.008C76.447 287.264 76.959 287.632 77.3216 288.112C77.6843 288.592 77.8656 289.157 77.8656 289.808C77.8656 290.309 77.7536 290.757 77.5296 291.152C77.3056 291.536 76.9803 291.856 76.5536 292.112ZM73.5296 288.512C73.007 288.512 72.5856 288.64 72.2656 288.896C71.9563 289.141 71.8016 289.483 71.8016 289.92C71.8016 290.347 71.9563 290.683 72.2656 290.928C72.575 291.173 72.9963 291.296 73.5296 291.296C74.063 291.296 74.4896 291.173 74.8096 290.928C75.1296 290.683 75.2896 290.347 75.2896 289.92C75.2896 289.483 75.1296 289.141 74.8096 288.896C74.4896 288.64 74.063 288.512 73.5296 288.512ZM73.5296 296.288C74.1803 296.288 74.6923 296.144 75.0656 295.856C75.4496 295.557 75.6416 295.163 75.6416 294.672C75.6416 294.181 75.4496 293.792 75.0656 293.504C74.6923 293.216 74.1803 293.072 73.5296 293.072C72.8896 293.072 72.383 293.216 72.0096 293.504C71.6363 293.792 71.4496 294.181 71.4496 294.672C71.4496 295.173 71.6363 295.568 72.0096 295.856C72.383 296.144 72.8896 296.288 73.5296 296.288ZM84.1914 292.496H88.7194V294.496H84.1914V292.496ZM100.239 286.8C101.231 286.8 102.089 286.965 102.815 287.296C103.551 287.627 104.116 288.096 104.511 288.704C104.905 289.312 105.103 290.032 105.103 290.864C105.103 291.685 104.905 292.405 104.511 293.024C104.116 293.632 103.551 294.101 102.815 294.432C102.089 294.752 101.231 294.912 100.239 294.912H97.9825V298H95.3905V286.8H100.239ZM100.095 292.8C100.873 292.8 101.465 292.635 101.871 292.304C102.276 291.963 102.479 291.483 102.479 290.864C102.479 290.235 102.276 289.755 101.871 289.424C101.465 289.083 100.873 288.912 100.095 288.912H97.9825V292.8H100.095ZM114.089 298L111.929 294.88H111.801H109.545V298H106.953V286.8H111.801C112.793 286.8 113.652 286.965 114.377 287.296C115.113 287.627 115.678 288.096 116.073 288.704C116.468 289.312 116.665 290.032 116.665 290.864C116.665 291.696 116.462 292.416 116.057 293.024C115.662 293.621 115.097 294.08 114.361 294.4L116.873 298H114.089ZM114.041 290.864C114.041 290.235 113.838 289.755 113.433 289.424C113.028 289.083 112.436 288.912 111.657 288.912H109.545V292.816H111.657C112.436 292.816 113.028 292.645 113.433 292.304C113.838 291.963 114.041 291.483 114.041 290.864ZM118.719 286.8H121.311V298H118.719V286.8ZM134.161 298L134.145 291.28L130.849 296.816H129.681L126.401 291.424V298H123.969V286.8H126.113L130.305 293.76L134.433 286.8H136.561L136.593 298H134.161ZM146.626 295.6H141.426L140.434 298H137.778L142.77 286.8H145.33L150.338 298H147.618L146.626 295.6ZM145.81 293.632L144.034 289.344L142.258 293.632H145.81ZM158.636 298L156.476 294.88H156.348H154.092V298H151.5V286.8H156.348C157.34 286.8 158.199 286.965 158.924 287.296C159.66 287.627 160.225 288.096 160.62 288.704C161.015 289.312 161.212 290.032 161.212 290.864C161.212 291.696 161.009 292.416 160.604 293.024C160.209 293.621 159.644 294.08 158.908 294.4L161.42 298H158.636ZM158.588 290.864C158.588 290.235 158.385 289.755 157.98 289.424C157.575 289.083 156.983 288.912 156.204 288.912H154.092V292.816H156.204C156.983 292.816 157.575 292.645 157.98 292.304C158.385 291.963 158.588 291.483 158.588 290.864ZM168.485 294.032V298H165.893V294L161.557 286.8H164.309L167.301 291.776L170.293 286.8H172.837L168.485 294.032Z" fill="#00B8B8"/>
<path d="M8.576 385.696H10.656V387.44H8.368L8.048 390H6.24L6.56 387.44H4.208L3.888 390H2.096L2.416 387.44H0.32V385.696H2.624L2.96 383.104H0.864V381.36H3.168L3.488 378.8H5.28L4.96 381.36H7.312L7.632 378.8H9.424L9.104 381.36H11.184L11.2 383.104H8.896L8.576 385.696ZM6.768 385.696L7.104 383.104H4.752L4.416 385.696H6.768ZM20.5076 387.888V390H12.0436V388.32L16.3636 384.24C16.8223 383.803 17.1316 383.429 17.2916 383.12C17.4516 382.8 17.5316 382.485 17.5316 382.176C17.5316 381.728 17.377 381.387 17.0676 381.152C16.769 380.907 16.3263 380.784 15.7396 380.784C15.249 380.784 14.8063 380.88 14.4116 381.072C14.017 381.253 13.6863 381.531 13.4196 381.904L11.5316 380.688C11.969 380.037 12.5716 379.531 13.3396 379.168C14.1076 378.795 14.9876 378.608 15.9796 378.608C16.8116 378.608 17.537 378.747 18.1556 379.024C18.785 379.291 19.2703 379.675 19.6116 380.176C19.9636 380.667 20.1396 381.248 20.1396 381.92C20.1396 382.528 20.0116 383.099 19.7556 383.632C19.4996 384.165 19.0036 384.773 18.2676 385.456L15.6916 387.888H20.5076ZM26.9379 382.976C27.6525 382.976 28.3032 383.12 28.8899 383.408C29.4765 383.696 29.9405 384.107 30.2819 384.64C30.6232 385.163 30.7939 385.771 30.7939 386.464C30.7939 387.211 30.6072 387.867 30.2339 388.432C29.8605 388.997 29.3485 389.435 28.6979 389.744C28.0579 390.043 27.3432 390.192 26.5539 390.192C24.9859 390.192 23.7592 389.712 22.8739 388.752C21.9885 387.792 21.5459 386.421 21.5459 384.64C21.5459 383.371 21.7859 382.283 22.2659 381.376C22.7459 380.469 23.4125 379.781 24.2659 379.312C25.1299 378.843 26.1272 378.608 27.2579 378.608C27.8552 378.608 28.4259 378.677 28.9699 378.816C29.5245 378.944 29.9939 379.131 30.3779 379.376L29.4179 381.28C28.8632 380.907 28.1645 380.72 27.3219 380.72C26.3725 380.72 25.6205 380.997 25.0659 381.552C24.5112 382.107 24.2125 382.912 24.1699 383.968C24.8312 383.307 25.7539 382.976 26.9379 382.976ZM26.4099 388.256C26.9645 388.256 27.4125 388.107 27.7539 387.808C28.1059 387.509 28.2819 387.104 28.2819 386.592C28.2819 386.08 28.1059 385.675 27.7539 385.376C27.4125 385.067 26.9539 384.912 26.3779 384.912C25.8125 384.912 25.3485 385.072 24.9859 385.392C24.6232 385.701 24.4419 386.101 24.4419 386.592C24.4419 387.083 24.6179 387.483 24.9699 387.792C25.3219 388.101 25.8019 388.256 26.4099 388.256ZM40.4389 378.8V380.48L36.2789 390H33.4629L37.4789 380.912H33.7669V382.736H31.4629V378.8H40.4389ZM46.7154 383.36C47.6967 383.52 48.4487 383.888 48.9714 384.464C49.494 385.029 49.7554 385.733 49.7554 386.576C49.7554 387.227 49.5847 387.829 49.2434 388.384C48.902 388.928 48.3794 389.365 47.6754 389.696C46.982 390.027 46.1287 390.192 45.1154 390.192C44.326 390.192 43.5474 390.091 42.7794 389.888C42.022 389.675 41.3767 389.376 40.8434 388.992L41.8514 387.008C42.278 387.328 42.7687 387.579 43.3234 387.76C43.8887 387.931 44.4647 388.016 45.0514 388.016C45.702 388.016 46.214 387.893 46.5874 387.648C46.9607 387.392 47.1474 387.035 47.1474 386.576C47.1474 385.659 46.4487 385.2 45.0514 385.2H43.8674V383.488L46.1714 380.88H41.4034V378.8H49.2434V380.48L46.7154 383.36ZM59.5795 378.8V380.48L55.4195 390H52.6035L56.6195 380.912H52.9075V382.736H50.6035V378.8H59.5795ZM65.856 383.36C66.8373 383.52 67.5893 383.888 68.112 384.464C68.6347 385.029 68.896 385.733 68.896 386.576C68.896 387.227 68.7253 387.829 68.384 388.384C68.0427 388.928 67.52 389.365 66.816 389.696C66.1227 390.027 65.2693 390.192 64.256 390.192C63.4667 390.192 62.688 390.091 61.92 389.888C61.1627 389.675 60.5173 389.376 59.984 388.992L60.992 387.008C61.4187 387.328 61.9093 387.579 62.464 387.76C63.0293 387.931 63.6053 388.016 64.192 388.016C64.8427 388.016 65.3547 387.893 65.728 387.648C66.1013 387.392 66.288 387.035 66.288 386.576C66.288 385.659 65.5893 385.2 64.192 385.2H63.008V383.488L65.312 380.88H60.544V378.8H68.384V380.48L65.856 383.36ZM74.832 384.496H79.36V386.496H74.832V384.496ZM89.7111 390.192C88.8258 390.192 87.9671 390.075 87.1351 389.84C86.3138 389.595 85.6525 389.28 85.1511 388.896L86.0311 386.944C86.5111 387.296 87.0818 387.579 87.7431 387.792C88.4045 388.005 89.0658 388.112 89.7271 388.112C90.4631 388.112 91.0071 388.005 91.3591 387.792C91.7111 387.568 91.8871 387.275 91.8871 386.912C91.8871 386.645 91.7805 386.427 91.5671 386.256C91.3645 386.075 91.0978 385.931 90.7671 385.824C90.4471 385.717 90.0098 385.6 89.4551 385.472C88.6018 385.269 87.9031 385.067 87.3591 384.864C86.8151 384.661 86.3458 384.336 85.9511 383.888C85.5671 383.44 85.3751 382.843 85.3751 382.096C85.3751 381.445 85.5511 380.859 85.9031 380.336C86.2551 379.803 86.7831 379.381 87.4871 379.072C88.2018 378.763 89.0711 378.608 90.0951 378.608C90.8098 378.608 91.5085 378.693 92.1911 378.864C92.8738 379.035 93.4711 379.28 93.9831 379.6L93.1831 381.568C92.1485 380.981 91.1138 380.688 90.0791 380.688C89.3538 380.688 88.8151 380.805 88.4631 381.04C88.1218 381.275 87.9511 381.584 87.9511 381.968C87.9511 382.352 88.1485 382.64 88.5431 382.832C88.9485 383.013 89.5618 383.195 90.3831 383.376C91.2365 383.579 91.9351 383.781 92.4791 383.984C93.0231 384.187 93.4871 384.507 93.8711 384.944C94.2658 385.381 94.4631 385.973 94.4631 386.72C94.4631 387.36 94.2818 387.947 93.9191 388.48C93.5671 389.003 93.0338 389.419 92.3191 389.728C91.6045 390.037 90.7351 390.192 89.7111 390.192ZM104.906 387.92V390H96.2343V378.8H104.698V380.88H98.8103V383.312H104.01V385.328H98.8103V387.92H104.906ZM112.297 390.192C111.156 390.192 110.121 389.947 109.193 389.456C108.276 388.955 107.551 388.267 107.017 387.392C106.495 386.507 106.233 385.509 106.233 384.4C106.233 383.291 106.495 382.299 107.017 381.424C107.551 380.539 108.276 379.851 109.193 379.36C110.121 378.859 111.161 378.608 112.313 378.608C113.284 378.608 114.159 378.779 114.937 379.12C115.727 379.461 116.388 379.952 116.921 380.592L115.257 382.128C114.5 381.253 113.561 380.816 112.441 380.816C111.748 380.816 111.129 380.971 110.585 381.28C110.041 381.579 109.615 382 109.305 382.544C109.007 383.088 108.857 383.707 108.857 384.4C108.857 385.093 109.007 385.712 109.305 386.256C109.615 386.8 110.041 387.227 110.585 387.536C111.129 387.835 111.748 387.984 112.441 387.984C113.561 387.984 114.5 387.541 115.257 386.656L116.921 388.192C116.388 388.843 115.727 389.339 114.937 389.68C114.148 390.021 113.268 390.192 112.297 390.192ZM123.861 390.192C122.699 390.192 121.648 389.941 120.709 389.44C119.781 388.939 119.051 388.251 118.517 387.376C117.995 386.491 117.733 385.499 117.733 384.4C117.733 383.301 117.995 382.315 118.517 381.44C119.051 380.555 119.781 379.861 120.709 379.36C121.648 378.859 122.699 378.608 123.861 378.608C125.024 378.608 126.069 378.859 126.997 379.36C127.925 379.861 128.656 380.555 129.189 381.44C129.723 382.315 129.989 383.301 129.989 384.4C129.989 385.499 129.723 386.491 129.189 387.376C128.656 388.251 127.925 388.939 126.997 389.44C126.069 389.941 125.024 390.192 123.861 390.192ZM123.861 387.984C124.523 387.984 125.12 387.835 125.653 387.536C126.187 387.227 126.603 386.8 126.901 386.256C127.211 385.712 127.365 385.093 127.365 384.4C127.365 383.707 127.211 383.088 126.901 382.544C126.603 382 126.187 381.579 125.653 381.28C125.12 380.971 124.523 380.816 123.861 380.816C123.2 380.816 122.603 380.971 122.069 381.28C121.536 381.579 121.115 382 120.805 382.544C120.507 383.088 120.357 383.707 120.357 384.4C120.357 385.093 120.507 385.712 120.805 386.256C121.115 386.8 121.536 387.227 122.069 387.536C122.603 387.835 123.2 387.984 123.861 387.984ZM142.209 378.8V390H140.081L134.497 383.2V390H131.937V378.8H134.081L139.649 385.6V378.8H142.209ZM144.859 378.8H149.947C151.163 378.8 152.235 379.035 153.163 379.504C154.102 379.963 154.827 380.613 155.339 381.456C155.862 382.299 156.123 383.28 156.123 384.4C156.123 385.52 155.862 386.501 155.339 387.344C154.827 388.187 154.102 388.843 153.163 389.312C152.235 389.771 151.163 390 149.947 390H144.859V378.8ZM149.819 387.872C150.939 387.872 151.83 387.563 152.491 386.944C153.163 386.315 153.499 385.467 153.499 384.4C153.499 383.333 153.163 382.491 152.491 381.872C151.83 381.243 150.939 380.928 149.819 380.928H147.451V387.872H149.819ZM165.298 387.6H160.098L159.106 390H156.45L161.442 378.8H164.002L169.01 390H166.29L165.298 387.6ZM164.482 385.632L162.706 381.344L160.93 385.632H164.482ZM177.308 390L175.148 386.88H175.02H172.764V390H170.172V378.8H175.02C176.012 378.8 176.87 378.965 177.596 379.296C178.332 379.627 178.897 380.096 179.292 380.704C179.686 381.312 179.884 382.032 179.884 382.864C179.884 383.696 179.681 384.416 179.276 385.024C178.881 385.621 178.316 386.08 177.58 386.4L180.092 390H177.308ZM177.26 382.864C177.26 382.235 177.057 381.755 176.652 381.424C176.246 381.083 175.654 380.912 174.876 380.912H172.764V384.816H174.876C175.654 384.816 176.246 384.645 176.652 384.304C177.057 383.963 177.26 383.483 177.26 382.864ZM187.157 386.032V390H184.565V386L180.229 378.8H182.981L185.973 383.776L188.965 378.8H191.509L187.157 386.032Z" fill="#267373"/>
<defs>
<linearGradient id="paint0_linear" x1="0" y1="40" x2="640" y2="40" gradientUnits="userSpaceOnUse">
<stop stop-color="white"/>
<stop offset="1" stop-color="white" stop-opacity="0"/>
</linearGradient>
<linearGradient id="paint1_linear" x1="0" y1="132" x2="640" y2="132" gradientUnits="userSpaceOnUse">
<stop stop-color="white"/>
<stop offset="1" stop-color="white" stop-opacity="0"/>
</linearGradient>
<linearGradient id="paint2_linear" x1="0" y1="224" x2="640" y2="224" gradientUnits="userSpaceOnUse">
<stop stop-color="white"/>
<stop offset="1" stop-color="white" stop-opacity="0"/>
</linearGradient>
<linearGradient id="paint3_linear" x1="0" y1="316" x2="640" y2="320" gradientUnits="userSpaceOnUse">
<stop stop-color="#00B8B8"/>
<stop offset="1" stop-color="#00B8B8" stop-opacity="0"/>
</linearGradient>
<linearGradient id="paint4_linear" x1="0" y1="408" x2="640" y2="408" gradientUnits="userSpaceOnUse">
<stop stop-color="#267373"/>
<stop offset="1" stop-color="#267373" stop-opacity="0"/>
</linearGradient>
</defs>
</svg>
