<svg width="304" height="362" viewBox="0 0 304 362" fill="none" xmlns="http://www.w3.org/2000/svg">
<rect width="304" height="362" rx="24" fill="white"/>
<path d="M14.344 243C14.776 243 15.088 242.7 15.088 242.28C15.088 241.86 14.776 241.56 14.344 241.56C13.912 241.56 13.612 241.86 13.612 242.28C13.612 242.7 13.912 243 14.344 243ZM24.019 245.412C22.051 245.412 20.635 243.888 20.623 241.776C20.623 239.652 22.039 238.128 24.019 238.128C25.459 238.128 26.719 239.124 27.031 240.444L28.015 240.324C27.607 238.548 25.927 237.24 24.019 237.24C21.475 237.24 19.627 239.148 19.627 241.776C19.627 244.404 21.475 246.3 24.019 246.3C25.927 246.3 27.595 245.052 28.015 243.36L27.043 243.18C26.707 244.464 25.447 245.412 24.019 245.412ZM32.3385 239.7C30.4425 239.7 29.1105 241.056 29.1105 242.976C29.1105 244.884 30.4425 246.24 32.3385 246.24C34.2345 246.24 35.5785 244.884 35.5785 242.976C35.5785 241.056 34.2345 239.7 32.3385 239.7ZM32.3385 245.412C30.9945 245.412 30.0225 244.38 30.0225 242.976C30.0225 241.56 30.9945 240.54 32.3385 240.54C33.6825 240.54 34.6545 241.56 34.6545 242.976C34.6545 244.38 33.6825 245.412 32.3385 245.412ZM36.8825 239.94V246H37.7945V242.46C37.7945 241.344 38.7185 240.54 39.7745 240.54C40.8425 240.54 41.4545 241.308 41.4545 242.376V246H42.3665V242.376C42.3665 240.828 41.4185 239.7 39.8705 239.7C39.0305 239.7 38.2145 240.12 37.7945 240.792V239.94H36.8825ZM45.4562 238.776C45.4562 238.152 45.8162 237.78 46.3442 237.78C46.5962 237.78 46.8242 237.828 47.0282 237.888V237.096C46.7522 237 46.4522 236.94 46.1162 236.94C45.1802 236.94 44.5442 237.624 44.5322 238.68V239.94H43.5482V240.696H44.5322V246H45.4562V240.696H47.0042V239.94H45.4562V238.776ZM53.5673 246V239.94H52.6553V243.492C52.6553 244.596 51.7433 245.412 50.6873 245.412C49.6073 245.412 48.9953 244.632 48.9953 243.564V239.94H48.0833V243.564C48.0833 245.112 49.0313 246.24 50.5793 246.24C51.4193 246.24 52.2473 245.82 52.6553 245.148V246H53.5673ZM60.1609 244.26C60.1489 242.916 58.7209 242.664 57.6049 242.472C56.5009 242.292 55.9969 242.112 55.9969 241.572C55.9969 240.972 56.6329 240.54 57.4129 240.54C58.3969 240.54 59.1169 241.044 59.1289 241.74L60.0289 241.752C60.0169 240.564 58.9249 239.7 57.4249 239.7C56.1169 239.7 55.1089 240.48 55.1089 241.548C55.0969 242.916 56.1649 243.108 57.5449 243.324C58.2049 243.42 59.2609 243.588 59.2729 244.344C59.2729 244.956 58.5889 245.412 57.6529 245.412C56.6209 245.412 55.8769 244.812 55.8769 243.972H54.9769C54.9769 245.28 56.1049 246.24 57.6649 246.24C59.1049 246.24 60.1609 245.4 60.1609 244.26ZM62.1403 242.472C62.3083 241.332 63.1843 240.54 64.3603 240.54C65.5603 240.54 66.4483 241.332 66.6163 242.484L62.1403 242.472ZM61.1803 242.904C61.1803 244.836 62.5363 246.24 64.4083 246.24C65.7523 246.24 67.0003 245.376 67.3723 244.188L66.4723 244.044C66.1963 244.836 65.3083 245.412 64.3723 245.412C63.1723 245.412 62.2603 244.536 62.1163 243.264L67.5643 243.276C67.5763 243.144 67.5763 243.024 67.5763 242.916C67.5763 241.056 66.2443 239.7 64.3963 239.7C62.5243 239.7 61.1803 241.056 61.1803 242.904ZM71.7855 240.588C73.1295 240.588 74.1015 241.596 74.1015 242.976C74.1015 244.344 73.1295 245.352 71.7855 245.352C70.4535 245.352 69.4695 244.368 69.4695 242.976C69.4695 241.596 70.4415 240.588 71.7855 240.588ZM68.5575 242.976C68.5575 244.86 69.8775 246.24 71.6895 246.24C72.7215 246.24 73.5855 245.748 74.1015 244.956V246H74.9895V237.18H74.0775V240.96C73.5615 240.18 72.7095 239.7 71.6895 239.7C69.8775 239.7 68.5575 241.08 68.5575 242.976ZM82.9891 245.412C81.6451 245.412 80.6731 244.38 80.6731 242.976C80.6731 241.56 81.6451 240.54 82.9891 240.54C84.3211 240.54 85.3051 241.56 85.3051 242.976C85.3051 244.38 84.3211 245.412 82.9891 245.412ZM85.3171 241.02C84.8011 240.204 83.9251 239.7 82.8811 239.7C81.0691 239.7 79.7611 241.08 79.7611 242.976C79.7611 244.86 81.0691 246.24 82.8811 246.24C83.9251 246.24 84.8011 245.736 85.3171 244.932V246H86.2291V239.94H85.3171V241.02ZM91.0884 240.588C92.4324 240.588 93.4044 241.596 93.4044 242.976C93.4044 244.368 92.4204 245.352 91.0884 245.352C89.7444 245.352 88.7724 244.344 88.7724 242.976C88.7724 241.596 89.7444 240.588 91.0884 240.588ZM94.3164 242.976C94.3164 241.08 93.0084 239.7 91.1964 239.7C90.1644 239.7 89.3124 240.18 88.7964 240.96V237.18H87.8844V246H88.7724V244.956C89.2884 245.748 90.1524 246.24 91.1964 246.24C92.9964 246.24 94.3164 244.86 94.3164 242.976ZM98.5166 239.7C96.6206 239.7 95.2886 241.056 95.2886 242.976C95.2886 244.884 96.6206 246.24 98.5166 246.24C100.413 246.24 101.757 244.884 101.757 242.976C101.757 241.056 100.413 239.7 98.5166 239.7ZM98.5166 245.412C97.1726 245.412 96.2006 244.38 96.2006 242.976C96.2006 241.56 97.1726 240.54 98.5166 240.54C99.8606 240.54 100.833 241.56 100.833 242.976C100.833 244.38 99.8606 245.412 98.5166 245.412ZM108.425 246V239.94H107.513V243.492C107.513 244.596 106.601 245.412 105.545 245.412C104.465 245.412 103.853 244.632 103.853 243.564V239.94H102.941V243.564C102.941 245.112 103.889 246.24 105.437 246.24C106.277 246.24 107.105 245.82 107.513 245.148V246H108.425ZM110.602 244.5C110.602 245.544 111.226 246.24 112.222 246.24C112.522 246.24 112.906 246.18 113.182 246.096V245.34C112.954 245.412 112.642 245.46 112.45 245.46C111.874 245.448 111.514 245.052 111.514 244.464V240.696H113.086V239.94H111.514V238.524H110.77L110.638 239.94H109.606V240.696H110.602V244.5ZM120.842 245.412C119.498 245.412 118.526 244.38 118.526 242.976C118.526 241.56 119.498 240.54 120.842 240.54C122.174 240.54 123.158 241.56 123.158 242.976C123.158 244.38 122.174 245.412 120.842 245.412ZM123.17 241.02C122.654 240.204 121.778 239.7 120.734 239.7C118.922 239.7 117.614 241.08 117.614 242.976C117.614 244.86 118.922 246.24 120.734 246.24C121.778 246.24 122.654 245.736 123.17 244.932V246H124.082V239.94H123.17V241.02ZM128.941 240.588C130.285 240.588 131.257 241.596 131.257 242.976C131.257 244.368 130.273 245.352 128.941 245.352C127.597 245.352 126.625 244.344 126.625 242.976C126.625 241.596 127.597 240.588 128.941 240.588ZM132.169 242.976C132.169 241.08 130.861 239.7 129.049 239.7C128.017 239.7 127.165 240.18 126.649 240.96V237.18H125.737V246H126.625V244.956C127.141 245.748 128.005 246.24 129.049 246.24C130.849 246.24 132.169 244.86 132.169 242.976ZM136.37 239.7C134.474 239.7 133.142 241.056 133.142 242.976C133.142 244.884 134.474 246.24 136.37 246.24C138.266 246.24 139.61 244.884 139.61 242.976C139.61 241.056 138.266 239.7 136.37 239.7ZM136.37 245.412C135.026 245.412 134.054 244.38 134.054 242.976C134.054 241.56 135.026 240.54 136.37 240.54C137.714 240.54 138.686 241.56 138.686 242.976C138.686 244.38 137.714 245.412 136.37 245.412ZM146.278 246V239.94H145.366V243.492C145.366 244.596 144.454 245.412 143.398 245.412C142.318 245.412 141.706 244.632 141.706 243.564V239.94H140.794V243.564C140.794 245.112 141.742 246.24 143.29 246.24C144.13 246.24 144.958 245.82 145.366 245.148V246H146.278ZM148.455 244.5C148.455 245.544 149.079 246.24 150.075 246.24C150.375 246.24 150.759 246.18 151.035 246.096V245.34C150.807 245.412 150.495 245.46 150.303 245.46C149.727 245.448 149.367 245.052 149.367 244.464V240.696H150.939V239.94H149.367V238.524H148.623L148.491 239.94H147.459V240.696H148.455V244.5ZM158.671 246L160.123 241.008L161.575 246H162.823L164.887 239.94H163.927L162.223 245.1L160.651 239.94H159.583L158.059 245.1L156.331 239.94H155.371L157.423 246H158.671ZM166.11 237.18V246H167.022V242.46C167.022 241.344 167.922 240.54 168.966 240.54C170.046 240.54 170.682 241.308 170.682 242.376V246H171.594V242.376C171.594 240.828 170.622 239.7 169.086 239.7C168.246 239.7 167.43 240.12 167.022 240.804V237.18H166.11ZM173.76 242.472C173.928 241.332 174.804 240.54 175.98 240.54C177.18 240.54 178.068 241.332 178.236 242.484L173.76 242.472ZM172.8 242.904C172.8 244.836 174.156 246.24 176.028 246.24C177.372 246.24 178.62 245.376 178.992 244.188L178.092 244.044C177.816 244.836 176.928 245.412 175.992 245.412C174.792 245.412 173.88 244.536 173.736 243.264L179.184 243.276C179.196 243.144 179.196 243.024 179.196 242.916C179.196 241.056 177.864 239.7 176.016 239.7C174.144 239.7 172.8 241.056 172.8 242.904ZM180.513 239.94V246H181.425V242.604C181.425 241.392 182.049 240.54 182.997 240.54C183.237 240.54 183.585 240.588 183.897 240.732V239.892C183.621 239.784 183.333 239.724 183.081 239.724C182.337 239.724 181.761 240.12 181.401 240.78V239.94H180.513ZM185.256 242.472C185.424 241.332 186.3 240.54 187.476 240.54C188.676 240.54 189.564 241.332 189.732 242.484L185.256 242.472ZM184.296 242.904C184.296 244.836 185.652 246.24 187.524 246.24C188.868 246.24 190.116 245.376 190.488 244.188L189.588 244.044C189.312 244.836 188.424 245.412 187.488 245.412C186.288 245.412 185.376 244.536 185.232 243.264L190.68 243.276C190.692 243.144 190.692 243.024 190.692 242.916C190.692 241.056 189.36 239.7 187.512 239.7C185.64 239.7 184.296 241.056 184.296 242.904ZM195.977 244.5C195.977 245.544 196.601 246.24 197.597 246.24C197.897 246.24 198.281 246.18 198.557 246.096V245.34C198.329 245.412 198.017 245.46 197.825 245.46C197.249 245.448 196.889 245.052 196.889 244.464V240.696H198.461V239.94H196.889V238.524H196.145L196.013 239.94H194.981V240.696H195.977V244.5ZM202.753 239.7C200.857 239.7 199.525 241.056 199.525 242.976C199.525 244.884 200.857 246.24 202.753 246.24C204.649 246.24 205.993 244.884 205.993 242.976C205.993 241.056 204.649 239.7 202.753 239.7ZM202.753 245.412C201.409 245.412 200.437 244.38 200.437 242.976C200.437 241.56 201.409 240.54 202.753 240.54C204.097 240.54 205.069 241.56 205.069 242.976C205.069 244.38 204.097 245.412 202.753 245.412ZM213.64 245.34C212.308 245.34 211.324 244.344 211.324 242.976C211.324 241.56 212.296 240.54 213.64 240.54C214.984 240.54 215.956 241.56 215.956 242.976C215.956 244.344 214.984 245.34 213.64 245.34ZM213.7 248.172C212.644 248.172 211.72 247.476 211.516 246.504L210.64 246.624C210.856 248.004 212.164 249 213.736 249C215.536 249 216.844 247.848 216.844 245.904V239.94H215.932V240.948C215.416 240.192 214.588 239.724 213.544 239.724C211.732 239.724 210.412 241.092 210.412 242.976C210.412 244.824 211.732 246.168 213.544 246.168C214.564 246.168 215.404 245.712 215.932 244.944V245.904C215.932 247.332 214.996 248.172 213.7 248.172ZM221.381 239.7C219.485 239.7 218.153 241.056 218.153 242.976C218.153 244.884 219.485 246.24 221.381 246.24C223.277 246.24 224.621 244.884 224.621 242.976C224.621 241.056 223.277 239.7 221.381 239.7ZM221.381 245.412C220.037 245.412 219.065 244.38 219.065 242.976C219.065 241.56 220.037 240.54 221.381 240.54C222.725 240.54 223.697 241.56 223.697 242.976C223.697 244.38 222.725 245.412 221.381 245.412ZM228.517 246.156C228.877 246.156 229.141 245.904 229.141 245.532C229.141 245.172 228.877 244.92 228.517 244.92C228.145 244.92 227.893 245.184 227.893 245.532C227.893 245.904 228.145 246.156 228.517 246.156ZM228.985 243.852C228.985 242.868 229.261 242.46 229.957 241.992C230.797 241.44 231.469 240.96 231.469 239.808C231.469 238.332 230.245 237.24 228.673 237.24C227.065 237.24 225.901 238.38 225.709 239.964L226.645 240.144C226.777 238.98 227.545 238.128 228.661 238.128C229.681 238.128 230.461 238.86 230.461 239.82C230.461 240.588 229.909 240.984 229.309 241.392C228.517 241.944 228.061 242.508 228.061 243.852H228.985ZM14.344 267C14.776 267 15.088 266.7 15.088 266.28C15.088 265.86 14.776 265.56 14.344 265.56C13.912 265.56 13.612 265.86 13.612 266.28C13.612 266.7 13.912 267 14.344 267ZM26.107 261.54H24.643L22.675 269.328L20.491 261.54H19.447L21.859 270H23.479L25.351 262.584L27.235 270H28.843L31.243 261.54H30.211L28.027 269.328L26.107 261.54ZM32.5171 261.18V270H33.4291V266.46C33.4291 265.344 34.3291 264.54 35.3731 264.54C36.4531 264.54 37.0891 265.308 37.0891 266.376V270H38.0011V266.376C38.0011 264.828 37.0291 263.7 35.4931 263.7C34.6531 263.7 33.8371 264.12 33.4291 264.804V261.18H32.5171ZM39.6867 263.94V270H40.5987V263.94H39.6867ZM40.1427 262.824C40.5027 262.824 40.7667 262.56 40.7667 262.2C40.7667 261.84 40.5027 261.588 40.1427 261.588C39.7707 261.588 39.5187 261.84 39.5187 262.2C39.5187 262.56 39.7707 262.824 40.1427 262.824ZM45.2164 263.7C43.3924 263.7 42.0604 265.08 42.0604 266.976C42.0604 268.872 43.3804 270.24 45.2164 270.24C46.6444 270.24 47.8804 269.328 48.1564 268.056L47.2564 267.936C47.0164 268.8 46.2004 269.436 45.2164 269.436C43.9324 269.436 42.9724 268.404 42.9724 266.976C42.9724 265.548 43.9444 264.504 45.2164 264.504C46.1764 264.504 47.0284 265.152 47.2564 266.04L48.1444 265.92C47.9164 264.636 46.6804 263.7 45.2164 263.7ZM49.4807 261.18V270H50.3927V266.46C50.3927 265.344 51.2927 264.54 52.3367 264.54C53.4167 264.54 54.0527 265.308 54.0527 266.376V270H54.9647V266.376C54.9647 264.828 53.9927 263.7 52.4567 263.7C51.6167 263.7 50.8007 264.12 50.3927 264.804V261.18H49.4807ZM62.7777 263.7C60.9537 263.7 59.6217 265.08 59.6217 266.976C59.6217 268.872 60.9417 270.24 62.7777 270.24C64.2057 270.24 65.4417 269.328 65.7177 268.056L64.8177 267.936C64.5777 268.8 63.7617 269.436 62.7777 269.436C61.4937 269.436 60.5337 268.404 60.5337 266.976C60.5337 265.548 61.5057 264.504 62.7777 264.504C63.7377 264.504 64.5897 265.152 64.8177 266.04L65.7057 265.92C65.4777 264.636 64.2417 263.7 62.7777 263.7ZM69.9339 269.412C68.5899 269.412 67.6179 268.38 67.6179 266.976C67.6179 265.56 68.5899 264.54 69.9339 264.54C71.2659 264.54 72.2499 265.56 72.2499 266.976C72.2499 268.38 71.2659 269.412 69.9339 269.412ZM72.2619 265.02C71.7459 264.204 70.8699 263.7 69.8259 263.7C68.0139 263.7 66.7059 265.08 66.7059 266.976C66.7059 268.86 68.0139 270.24 69.8259 270.24C70.8699 270.24 71.7459 269.736 72.2619 268.932V270H73.1739V263.94H72.2619V265.02ZM74.8292 263.94V270H75.7412V266.604C75.7412 265.392 76.3652 264.54 77.3132 264.54C77.5532 264.54 77.9012 264.588 78.2132 264.732V263.892C77.9372 263.784 77.6492 263.724 77.3972 263.724C76.6532 263.724 76.0772 264.12 75.7172 264.78V263.94H74.8292ZM79.5726 266.472C79.7406 265.332 80.6166 264.54 81.7926 264.54C82.9926 264.54 83.8806 265.332 84.0486 266.484L79.5726 266.472ZM78.6126 266.904C78.6126 268.836 79.9686 270.24 81.8406 270.24C83.1846 270.24 84.4326 269.376 84.8046 268.188L83.9046 268.044C83.6286 268.836 82.7406 269.412 81.8046 269.412C80.6046 269.412 79.6926 268.536 79.5486 267.264L84.9966 267.276C85.0086 267.144 85.0086 267.024 85.0086 266.916C85.0086 265.056 83.6766 263.7 81.8286 263.7C79.9566 263.7 78.6126 265.056 78.6126 266.904ZM86.9498 266.472C87.1178 265.332 87.9938 264.54 89.1698 264.54C90.3698 264.54 91.2578 265.332 91.4258 266.484L86.9498 266.472ZM85.9898 266.904C85.9898 268.836 87.3458 270.24 89.2178 270.24C90.5618 270.24 91.8098 269.376 92.1818 268.188L91.2818 268.044C91.0058 268.836 90.1178 269.412 89.1818 269.412C87.9818 269.412 87.0698 268.536 86.9258 267.264L92.3738 267.276C92.3858 267.144 92.3858 267.024 92.3858 266.916C92.3858 265.056 91.0538 263.7 89.2058 263.7C87.3338 263.7 85.9898 265.056 85.9898 266.904ZM93.703 263.94V270H94.615V266.604C94.615 265.392 95.239 264.54 96.187 264.54C96.427 264.54 96.775 264.588 97.087 264.732V263.892C96.811 263.784 96.523 263.724 96.271 263.724C95.527 263.724 94.951 264.12 94.591 264.78V263.94H93.703ZM104.841 269.352C103.497 269.352 102.525 268.344 102.525 266.976C102.525 265.596 103.497 264.588 104.841 264.588C106.173 264.588 107.157 265.572 107.157 266.976C107.157 268.344 106.185 269.352 104.841 269.352ZM108.069 266.976C108.069 265.08 106.749 263.7 104.949 263.7C103.905 263.7 103.041 264.192 102.525 264.984V263.94H101.637V272.76H102.549V268.98C103.065 269.772 103.917 270.24 104.949 270.24C106.761 270.24 108.069 268.86 108.069 266.976ZM112.281 269.412C110.937 269.412 109.965 268.38 109.965 266.976C109.965 265.56 110.937 264.54 112.281 264.54C113.613 264.54 114.597 265.56 114.597 266.976C114.597 268.38 113.613 269.412 112.281 269.412ZM114.609 265.02C114.093 264.204 113.217 263.7 112.173 263.7C110.361 263.7 109.053 265.08 109.053 266.976C109.053 268.86 110.361 270.24 112.173 270.24C113.217 270.24 114.093 269.736 114.609 268.932V270H115.521V263.94H114.609V265.02ZM117.693 268.5C117.693 269.544 118.317 270.24 119.313 270.24C119.613 270.24 119.997 270.18 120.273 270.096V269.34C120.045 269.412 119.733 269.46 119.541 269.46C118.965 269.448 118.605 269.052 118.605 268.464V264.696H120.177V263.94H118.605V262.524H117.861L117.729 263.94H116.697V264.696H117.693V268.5ZM121.589 261.18V270H122.501V266.46C122.501 265.344 123.401 264.54 124.445 264.54C125.525 264.54 126.161 265.308 126.161 266.376V270H127.073V266.376C127.073 264.828 126.101 263.7 124.565 263.7C123.725 263.7 122.909 264.12 122.501 264.804V261.18H121.589ZM133.547 268.26C133.535 266.916 132.107 266.664 130.991 266.472C129.887 266.292 129.383 266.112 129.383 265.572C129.383 264.972 130.019 264.54 130.799 264.54C131.783 264.54 132.503 265.044 132.515 265.74L133.415 265.752C133.403 264.564 132.311 263.7 130.811 263.7C129.503 263.7 128.495 264.48 128.495 265.548C128.483 266.916 129.551 267.108 130.931 267.324C131.591 267.42 132.647 267.588 132.659 268.344C132.659 268.956 131.975 269.412 131.039 269.412C130.007 269.412 129.263 268.812 129.263 267.972H128.363C128.363 269.28 129.491 270.24 131.051 270.24C132.491 270.24 133.547 269.4 133.547 268.26ZM141.221 270L142.673 265.008L144.125 270H145.373L147.437 263.94H146.477L144.773 269.1L143.201 263.94H142.133L140.609 269.1L138.881 263.94H137.921L139.973 270H141.221ZM148.804 263.94V270H149.716V263.94H148.804ZM149.26 262.824C149.62 262.824 149.884 262.56 149.884 262.2C149.884 261.84 149.62 261.588 149.26 261.588C148.888 261.588 148.636 261.84 148.636 262.2C148.636 262.56 148.888 262.824 149.26 262.824ZM151.502 261.18V270H152.426V261.18H151.502ZM154.063 261.18V270H154.987V261.18H154.063ZM163.291 264.588C164.635 264.588 165.607 265.596 165.607 266.976C165.607 268.368 164.623 269.352 163.291 269.352C161.947 269.352 160.975 268.344 160.975 266.976C160.975 265.596 161.947 264.588 163.291 264.588ZM166.519 266.976C166.519 265.08 165.211 263.7 163.399 263.7C162.367 263.7 161.515 264.18 160.999 264.96V261.18H160.087V270H160.975V268.956C161.491 269.748 162.355 270.24 163.399 270.24C165.199 270.24 166.519 268.86 166.519 266.976ZM167.839 263.94V270H168.751V266.604C168.751 265.392 169.375 264.54 170.323 264.54C170.563 264.54 170.911 264.588 171.223 264.732V263.892C170.947 263.784 170.659 263.724 170.407 263.724C169.663 263.724 169.087 264.12 168.727 264.78V263.94H167.839ZM172.466 263.94V270H173.378V263.94H172.466ZM172.922 262.824C173.282 262.824 173.546 262.56 173.546 262.2C173.546 261.84 173.282 261.588 172.922 261.588C172.55 261.588 172.298 261.84 172.298 262.2C172.298 262.56 172.55 262.824 172.922 262.824ZM175.175 263.94V270H176.087V266.46C176.087 265.344 177.011 264.54 178.067 264.54C179.135 264.54 179.747 265.308 179.747 266.376V270H180.659V266.376C180.659 264.828 179.711 263.7 178.163 263.7C177.323 263.7 176.507 264.12 176.087 264.792V263.94H175.175ZM185.093 269.34C183.761 269.34 182.777 268.344 182.777 266.976C182.777 265.56 183.749 264.54 185.093 264.54C186.437 264.54 187.409 265.56 187.409 266.976C187.409 268.344 186.437 269.34 185.093 269.34ZM185.153 272.172C184.097 272.172 183.173 271.476 182.969 270.504L182.093 270.624C182.309 272.004 183.617 273 185.189 273C186.989 273 188.297 271.848 188.297 269.904V263.94H187.385V264.948C186.869 264.192 186.041 263.724 184.997 263.724C183.185 263.724 181.865 265.092 181.865 266.976C181.865 268.824 183.185 270.168 184.997 270.168C186.017 270.168 186.857 269.712 187.385 268.944V269.904C187.385 271.332 186.449 272.172 185.153 272.172ZM193.225 272.496C193.501 272.604 193.861 272.676 194.161 272.676C195.433 272.676 195.925 271.464 196.477 270.084L198.889 263.94H197.917L196.021 268.86L193.861 263.94H192.853L195.577 269.988C195.181 270.9 194.917 271.86 194.029 271.86C193.801 271.86 193.501 271.788 193.225 271.692V272.496ZM202.572 263.7C200.676 263.7 199.344 265.056 199.344 266.976C199.344 268.884 200.676 270.24 202.572 270.24C204.468 270.24 205.812 268.884 205.812 266.976C205.812 265.056 204.468 263.7 202.572 263.7ZM202.572 269.412C201.228 269.412 200.256 268.38 200.256 266.976C200.256 265.56 201.228 264.54 202.572 264.54C203.916 264.54 204.888 265.56 204.888 266.976C204.888 268.38 203.916 269.412 202.572 269.412ZM212.48 270V263.94H211.568V267.492C211.568 268.596 210.656 269.412 209.6 269.412C208.52 269.412 207.908 268.632 207.908 267.564V263.94H206.996V267.564C206.996 269.112 207.944 270.24 209.492 270.24C210.332 270.24 211.16 269.82 211.568 269.148V270H212.48ZM222.525 268.26C222.513 266.916 221.085 266.664 219.969 266.472C218.865 266.292 218.361 266.112 218.361 265.572C218.361 264.972 218.997 264.54 219.777 264.54C220.761 264.54 221.481 265.044 221.493 265.74L222.393 265.752C222.381 264.564 221.289 263.7 219.789 263.7C218.481 263.7 217.473 264.48 217.473 265.548C217.461 266.916 218.529 267.108 219.909 267.324C220.569 267.42 221.625 267.588 221.637 268.344C221.637 268.956 220.953 269.412 220.017 269.412C218.985 269.412 218.241 268.812 218.241 267.972H217.341C217.341 269.28 218.469 270.24 220.029 270.24C221.469 270.24 222.525 269.4 222.525 268.26ZM229.244 270V263.94H228.332V267.492C228.332 268.596 227.42 269.412 226.364 269.412C225.284 269.412 224.672 268.632 224.672 267.564V263.94H223.76V267.564C223.76 269.112 224.708 270.24 226.256 270.24C227.096 270.24 227.924 269.82 228.332 269.148V270H229.244ZM233.726 263.7C231.902 263.7 230.57 265.08 230.57 266.976C230.57 268.872 231.89 270.24 233.726 270.24C235.154 270.24 236.39 269.328 236.666 268.056L235.766 267.936C235.526 268.8 234.71 269.436 233.726 269.436C232.442 269.436 231.482 268.404 231.482 266.976C231.482 265.548 232.454 264.504 233.726 264.504C234.686 264.504 235.538 265.152 235.766 266.04L236.654 265.92C236.426 264.636 235.19 263.7 233.726 263.7ZM240.81 263.7C238.986 263.7 237.654 265.08 237.654 266.976C237.654 268.872 238.974 270.24 240.81 270.24C242.238 270.24 243.474 269.328 243.75 268.056L242.85 267.936C242.61 268.8 241.794 269.436 240.81 269.436C239.526 269.436 238.566 268.404 238.566 266.976C238.566 265.548 239.538 264.504 240.81 264.504C241.77 264.504 242.622 265.152 242.85 266.04L243.738 265.92C243.51 264.636 242.274 263.7 240.81 263.7ZM245.699 266.472C245.867 265.332 246.743 264.54 247.919 264.54C249.119 264.54 250.007 265.332 250.175 266.484L245.699 266.472ZM244.739 266.904C244.739 268.836 246.095 270.24 247.967 270.24C249.311 270.24 250.559 269.376 250.931 268.188L250.031 268.044C249.755 268.836 248.867 269.412 247.931 269.412C246.731 269.412 245.819 268.536 245.675 267.264L251.123 267.276C251.135 267.144 251.135 267.024 251.135 266.916C251.135 265.056 249.803 263.7 247.955 263.7C246.083 263.7 244.739 265.056 244.739 266.904ZM257.384 268.26C257.372 266.916 255.944 266.664 254.828 266.472C253.724 266.292 253.22 266.112 253.22 265.572C253.22 264.972 253.856 264.54 254.636 264.54C255.62 264.54 256.34 265.044 256.352 265.74L257.252 265.752C257.24 264.564 256.148 263.7 254.648 263.7C253.34 263.7 252.332 264.48 252.332 265.548C252.32 266.916 253.388 267.108 254.768 267.324C255.428 267.42 256.484 267.588 256.496 268.344C256.496 268.956 255.812 269.412 254.876 269.412C253.844 269.412 253.1 268.812 253.1 267.972H252.2C252.2 269.28 253.328 270.24 254.888 270.24C256.328 270.24 257.384 269.4 257.384 268.26ZM263.671 268.26C263.659 266.916 262.231 266.664 261.115 266.472C260.011 266.292 259.507 266.112 259.507 265.572C259.507 264.972 260.143 264.54 260.923 264.54C261.907 264.54 262.627 265.044 262.639 265.74L263.539 265.752C263.527 264.564 262.435 263.7 260.935 263.7C259.627 263.7 258.619 264.48 258.619 265.548C258.607 266.916 259.675 267.108 261.055 267.324C261.715 267.42 262.771 267.588 262.783 268.344C262.783 268.956 262.099 269.412 261.163 269.412C260.131 269.412 259.387 268.812 259.387 267.972H258.487C258.487 269.28 259.615 270.24 261.175 270.24C262.615 270.24 263.671 269.4 263.671 268.26ZM267.618 270.156C267.978 270.156 268.242 269.904 268.242 269.532C268.242 269.172 267.978 268.92 267.618 268.92C267.246 268.92 266.994 269.184 266.994 269.532C266.994 269.904 267.246 270.156 267.618 270.156ZM268.086 267.852C268.086 266.868 268.362 266.46 269.058 265.992C269.898 265.44 270.57 264.96 270.57 263.808C270.57 262.332 269.346 261.24 267.774 261.24C266.166 261.24 265.002 262.38 264.81 263.964L265.746 264.144C265.878 262.98 266.646 262.128 267.762 262.128C268.782 262.128 269.562 262.86 269.562 263.82C269.562 264.588 269.01 264.984 268.41 265.392C267.618 265.944 267.162 266.508 267.162 267.852H268.086ZM14.344 291C14.776 291 15.088 290.7 15.088 290.28C15.088 289.86 14.776 289.56 14.344 289.56C13.912 289.56 13.612 289.86 13.612 290.28C13.612 290.7 13.912 291 14.344 291ZM26.107 285.54H24.643L22.675 293.328L20.491 285.54H19.447L21.859 294H23.479L25.351 286.584L27.235 294H28.843L31.243 285.54H30.211L28.027 293.328L26.107 285.54ZM34.8114 293.412C33.4674 293.412 32.4954 292.38 32.4954 290.976C32.4954 289.56 33.4674 288.54 34.8114 288.54C36.1434 288.54 37.1274 289.56 37.1274 290.976C37.1274 292.38 36.1434 293.412 34.8114 293.412ZM37.1394 289.02C36.6234 288.204 35.7474 287.7 34.7034 287.7C32.8914 287.7 31.5834 289.08 31.5834 290.976C31.5834 292.86 32.8914 294.24 34.7034 294.24C35.7474 294.24 36.6234 293.736 37.1394 292.932V294H38.0514V287.94H37.1394V289.02ZM39.7068 287.94V294H40.6188V290.46C40.6188 289.344 41.5428 288.54 42.5988 288.54C43.6668 288.54 44.2788 289.308 44.2788 290.376V294H45.1908V290.376C45.1908 288.828 44.2428 287.7 42.6948 287.7C41.8548 287.7 41.0388 288.12 40.6188 288.792V287.94H39.7068ZM47.2484 292.5C47.2484 293.544 47.8724 294.24 48.8684 294.24C49.1684 294.24 49.5524 294.18 49.8284 294.096V293.34C49.6004 293.412 49.2884 293.46 49.0964 293.46C48.5204 293.448 48.1604 293.052 48.1604 292.464V288.696H49.7324V287.94H48.1604V286.524H47.4164L47.2844 287.94H46.2524V288.696H47.2484V292.5ZM55.1121 292.5C55.1121 293.544 55.7361 294.24 56.7321 294.24C57.0321 294.24 57.4161 294.18 57.6921 294.096V293.34C57.4641 293.412 57.1521 293.46 56.9601 293.46C56.3841 293.448 56.0241 293.052 56.0241 292.464V288.696H57.5961V287.94H56.0241V286.524H55.2801L55.1481 287.94H54.1161V288.696H55.1121V292.5ZM61.8885 287.7C59.9925 287.7 58.6605 289.056 58.6605 290.976C58.6605 292.884 59.9925 294.24 61.8885 294.24C63.7845 294.24 65.1285 292.884 65.1285 290.976C65.1285 289.056 63.7845 287.7 61.8885 287.7ZM61.8885 293.412C60.5445 293.412 59.5725 292.38 59.5725 290.976C59.5725 289.56 60.5445 288.54 61.8885 288.54C63.2325 288.54 64.2045 289.56 64.2045 290.976C64.2045 292.38 63.2325 293.412 61.8885 293.412ZM69.8839 294H70.7959V291.132L73.5559 294H74.7919L71.6359 290.76L74.6719 287.94H73.4359L70.7959 290.388V285.18H69.8839V294ZM75.8197 287.94V294H76.7317V290.46C76.7317 289.344 77.6557 288.54 78.7117 288.54C79.7797 288.54 80.3917 289.308 80.3917 290.376V294H81.3037V290.376C81.3037 288.828 80.3557 287.7 78.8077 287.7C77.9677 287.7 77.1517 288.12 76.7317 288.792V287.94H75.8197ZM85.7253 287.7C83.8293 287.7 82.4973 289.056 82.4973 290.976C82.4973 292.884 83.8293 294.24 85.7253 294.24C87.6213 294.24 88.9653 292.884 88.9653 290.976C88.9653 289.056 87.6213 287.7 85.7253 287.7ZM85.7253 293.412C84.3813 293.412 83.4093 292.38 83.4093 290.976C83.4093 289.56 84.3813 288.54 85.7253 288.54C87.0693 288.54 88.0413 289.56 88.0413 290.976C88.0413 292.38 87.0693 293.412 85.7253 293.412ZM93.1374 294L94.5894 289.008L96.0414 294H97.2894L99.3534 287.94H98.3934L96.6894 293.1L95.1174 287.94H94.0494L92.5254 293.1L90.7974 287.94H89.8374L91.8894 294H93.1374ZM106.896 294L108.348 289.008L109.8 294H111.048L113.112 287.94H112.152L110.448 293.1L108.876 287.94H107.808L106.284 293.1L104.556 287.94H103.596L105.648 294H106.896ZM114.335 285.18V294H115.247V290.46C115.247 289.344 116.147 288.54 117.191 288.54C118.271 288.54 118.907 289.308 118.907 290.376V294H119.819V290.376C119.819 288.828 118.847 287.7 117.311 287.7C116.471 287.7 115.655 288.12 115.247 288.804V285.18H114.335ZM121.504 287.94V294H122.416V287.94H121.504ZM121.96 286.824C122.32 286.824 122.584 286.56 122.584 286.2C122.584 285.84 122.32 285.588 121.96 285.588C121.588 285.588 121.336 285.84 121.336 286.2C121.336 286.56 121.588 286.824 121.96 286.824ZM127.034 287.7C125.21 287.7 123.878 289.08 123.878 290.976C123.878 292.872 125.198 294.24 127.034 294.24C128.462 294.24 129.698 293.328 129.974 292.056L129.074 291.936C128.834 292.8 128.018 293.436 127.034 293.436C125.75 293.436 124.79 292.404 124.79 290.976C124.79 289.548 125.762 288.504 127.034 288.504C127.994 288.504 128.846 289.152 129.074 290.04L129.962 289.92C129.734 288.636 128.498 287.7 127.034 287.7ZM131.298 285.18V294H132.21V290.46C132.21 289.344 133.11 288.54 134.154 288.54C135.234 288.54 135.87 289.308 135.87 290.376V294H136.782V290.376C136.782 288.828 135.81 287.7 134.274 287.7C133.434 287.7 132.618 288.12 132.21 288.804V285.18H131.298ZM147.139 294V287.94H146.227V291.492C146.227 292.596 145.315 293.412 144.259 293.412C143.179 293.412 142.567 292.632 142.567 291.564V287.94H141.655V291.564C141.655 293.112 142.603 294.24 144.151 294.24C144.991 294.24 145.819 293.82 146.227 293.148V294H147.139ZM148.801 287.94V294H149.713V290.46C149.713 289.344 150.637 288.54 151.693 288.54C152.761 288.54 153.373 289.308 153.373 290.376V294H154.285V290.376C154.285 288.828 153.337 287.7 151.789 287.7C150.949 287.7 150.133 288.12 149.713 288.792V287.94H148.801ZM155.97 287.94V294H156.882V287.94H155.97ZM156.426 286.824C156.786 286.824 157.05 286.56 157.05 286.2C157.05 285.84 156.786 285.588 156.426 285.588C156.054 285.588 155.802 285.84 155.802 286.2C155.802 286.56 156.054 286.824 156.426 286.824ZM161.764 294L164.104 287.94H163.12L161.116 293.268L159.112 287.94H158.128L160.48 294H161.764ZM165.533 290.472C165.701 289.332 166.577 288.54 167.753 288.54C168.953 288.54 169.841 289.332 170.009 290.484L165.533 290.472ZM164.573 290.904C164.573 292.836 165.929 294.24 167.801 294.24C169.145 294.24 170.393 293.376 170.765 292.188L169.865 292.044C169.589 292.836 168.701 293.412 167.765 293.412C166.565 293.412 165.653 292.536 165.509 291.264L170.957 291.276C170.969 291.144 170.969 291.024 170.969 290.916C170.969 289.056 169.637 287.7 167.789 287.7C165.917 287.7 164.573 289.056 164.573 290.904ZM172.286 287.94V294H173.198V290.604C173.198 289.392 173.822 288.54 174.77 288.54C175.01 288.54 175.358 288.588 175.67 288.732V287.892C175.394 287.784 175.106 287.724 174.854 287.724C174.11 287.724 173.534 288.12 173.174 288.78V287.94H172.286ZM181.701 292.26C181.689 290.916 180.261 290.664 179.145 290.472C178.041 290.292 177.537 290.112 177.537 289.572C177.537 288.972 178.173 288.54 178.953 288.54C179.937 288.54 180.657 289.044 180.669 289.74L181.569 289.752C181.557 288.564 180.465 287.7 178.965 287.7C177.657 287.7 176.649 288.48 176.649 289.548C176.637 290.916 177.705 291.108 179.085 291.324C179.745 291.42 180.801 291.588 180.813 292.344C180.813 292.956 180.129 293.412 179.193 293.412C178.161 293.412 177.417 292.812 177.417 291.972H176.517C176.517 293.28 177.645 294.24 179.205 294.24C180.645 294.24 181.701 293.4 181.701 292.26ZM183.2 287.94V294H184.112V287.94H183.2ZM183.656 286.824C184.016 286.824 184.28 286.56 184.28 286.2C184.28 285.84 184.016 285.588 183.656 285.588C183.284 285.588 183.032 285.84 183.032 286.2C183.032 286.56 183.284 286.824 183.656 286.824ZM186.426 292.5C186.426 293.544 187.05 294.24 188.046 294.24C188.346 294.24 188.73 294.18 189.006 294.096V293.34C188.778 293.412 188.466 293.46 188.274 293.46C187.698 293.448 187.338 293.052 187.338 292.464V288.696H188.91V287.94H187.338V286.524H186.594L186.462 287.94H185.43V288.696H186.426V292.5ZM190.466 287.94V294H191.378V287.94H190.466ZM190.922 286.824C191.282 286.824 191.546 286.56 191.546 286.2C191.546 285.84 191.282 285.588 190.922 285.588C190.55 285.588 190.298 285.84 190.298 286.2C190.298 286.56 190.55 286.824 190.922 286.824ZM193.8 290.472C193.968 289.332 194.844 288.54 196.02 288.54C197.22 288.54 198.108 289.332 198.276 290.484L193.8 290.472ZM192.84 290.904C192.84 292.836 194.196 294.24 196.068 294.24C197.412 294.24 198.66 293.376 199.032 292.188L198.132 292.044C197.856 292.836 196.968 293.412 196.032 293.412C194.832 293.412 193.92 292.536 193.776 291.264L199.224 291.276C199.236 291.144 199.236 291.024 199.236 290.916C199.236 289.056 197.904 287.7 196.056 287.7C194.184 287.7 192.84 289.056 192.84 290.904ZM205.485 292.26C205.473 290.916 204.045 290.664 202.929 290.472C201.825 290.292 201.321 290.112 201.321 289.572C201.321 288.972 201.957 288.54 202.737 288.54C203.721 288.54 204.441 289.044 204.453 289.74L205.353 289.752C205.341 288.564 204.249 287.7 202.749 287.7C201.441 287.7 200.433 288.48 200.433 289.548C200.421 290.916 201.489 291.108 202.869 291.324C203.529 291.42 204.585 291.588 204.597 292.344C204.597 292.956 203.913 293.412 202.977 293.412C201.945 293.412 201.201 292.812 201.201 291.972H200.301C200.301 293.28 201.429 294.24 202.989 294.24C204.429 294.24 205.485 293.4 205.485 292.26ZM213.16 294L214.612 289.008L216.064 294H217.312L219.376 287.94H218.416L216.712 293.1L215.14 287.94H214.072L212.548 293.1L210.82 287.94H209.86L211.912 294H213.16ZM220.743 287.94V294H221.655V287.94H220.743ZM221.199 286.824C221.559 286.824 221.823 286.56 221.823 286.2C221.823 285.84 221.559 285.588 221.199 285.588C220.827 285.588 220.575 285.84 220.575 286.2C220.575 286.56 220.827 286.824 221.199 286.824ZM223.441 285.18V294H224.365V285.18H223.441ZM226.001 285.18V294H226.925V285.18H226.001ZM232.013 285.18V294H232.937V285.18H232.013ZM235.21 290.472C235.378 289.332 236.254 288.54 237.43 288.54C238.63 288.54 239.518 289.332 239.686 290.484L235.21 290.472ZM234.25 290.904C234.25 292.836 235.606 294.24 237.478 294.24C238.822 294.24 240.07 293.376 240.442 292.188L239.542 292.044C239.266 292.836 238.378 293.412 237.442 293.412C236.242 293.412 235.33 292.536 235.186 291.264L240.634 291.276C240.646 291.144 240.646 291.024 240.646 290.916C240.646 289.056 239.314 287.7 237.466 287.7C235.594 287.7 234.25 289.056 234.25 290.904ZM244.855 293.412C243.511 293.412 242.539 292.38 242.539 290.976C242.539 289.56 243.511 288.54 244.855 288.54C246.187 288.54 247.171 289.56 247.171 290.976C247.171 292.38 246.187 293.412 244.855 293.412ZM247.183 289.02C246.667 288.204 245.791 287.7 244.747 287.7C242.935 287.7 241.627 289.08 241.627 290.976C241.627 292.86 242.935 294.24 244.747 294.24C245.791 294.24 246.667 293.736 247.183 292.932V294H248.095V287.94H247.183V289.02ZM252.643 288.588C253.987 288.588 254.959 289.596 254.959 290.976C254.959 292.344 253.987 293.352 252.643 293.352C251.311 293.352 250.327 292.368 250.327 290.976C250.327 289.596 251.299 288.588 252.643 288.588ZM249.415 290.976C249.415 292.86 250.735 294.24 252.547 294.24C253.579 294.24 254.443 293.748 254.959 292.956V294H255.847V285.18H254.935V288.96C254.419 288.18 253.567 287.7 252.547 287.7C250.735 287.7 249.415 289.08 249.415 290.976ZM260.774 296.496C261.05 296.604 261.41 296.676 261.71 296.676C262.982 296.676 263.474 295.464 264.026 294.084L266.438 287.94H265.466L263.57 292.86L261.41 287.94H260.402L263.126 293.988C262.73 294.9 262.466 295.86 261.578 295.86C261.35 295.86 261.05 295.788 260.774 295.692V296.496ZM270.122 287.7C268.226 287.7 266.894 289.056 266.894 290.976C266.894 292.884 268.226 294.24 270.122 294.24C272.018 294.24 273.362 292.884 273.362 290.976C273.362 289.056 272.018 287.7 270.122 287.7ZM270.122 293.412C268.778 293.412 267.806 292.38 267.806 290.976C267.806 289.56 268.778 288.54 270.122 288.54C271.466 288.54 272.438 289.56 272.438 290.976C272.438 292.38 271.466 293.412 270.122 293.412ZM280.03 294V287.94H279.118V291.492C279.118 292.596 278.206 293.412 277.15 293.412C276.07 293.412 275.458 292.632 275.458 291.564V287.94H274.546V291.564C274.546 293.112 275.494 294.24 277.042 294.24C277.882 294.24 278.71 293.82 279.118 293.148V294H280.03ZM14.464 316.5C14.464 317.544 15.088 318.24 16.084 318.24C16.384 318.24 16.768 318.18 17.044 318.096V317.34C16.816 317.412 16.504 317.46 16.312 317.46C15.736 317.448 15.376 317.052 15.376 316.464V312.696H16.948V311.94H15.376V310.524H14.632L14.5 311.94H13.468V312.696H14.464V316.5ZM21.2403 311.7C19.3443 311.7 18.0123 313.056 18.0123 314.976C18.0123 316.884 19.3443 318.24 21.2403 318.24C23.1363 318.24 24.4803 316.884 24.4803 314.976C24.4803 313.056 23.1363 311.7 21.2403 311.7ZM21.2403 317.412C19.8963 317.412 18.9243 316.38 18.9243 314.976C18.9243 313.56 19.8963 312.54 21.2403 312.54C22.5843 312.54 23.5563 313.56 23.5563 314.976C23.5563 316.38 22.5843 317.412 21.2403 317.412ZM29.7518 316.5C29.7518 317.544 30.3758 318.24 31.3718 318.24C31.6718 318.24 32.0558 318.18 32.3318 318.096V317.34C32.1038 317.412 31.7918 317.46 31.5998 317.46C31.0238 317.448 30.6638 317.052 30.6638 316.464V312.696H32.2358V311.94H30.6638V310.524H29.9198L29.7878 311.94H28.7558V312.696H29.7518V316.5ZM33.6482 309.18V318H34.5602V314.46C34.5602 313.344 35.4602 312.54 36.5042 312.54C37.5842 312.54 38.2202 313.308 38.2202 314.376V318H39.1322V314.376C39.1322 312.828 38.1602 311.7 36.6242 311.7C35.7842 311.7 34.9682 312.12 34.5602 312.804V309.18H33.6482ZM41.2978 314.472C41.4658 313.332 42.3418 312.54 43.5178 312.54C44.7178 312.54 45.6058 313.332 45.7738 314.484L41.2978 314.472ZM40.3378 314.904C40.3378 316.836 41.6938 318.24 43.5658 318.24C44.9098 318.24 46.1578 317.376 46.5298 316.188L45.6298 316.044C45.3538 316.836 44.4658 317.412 43.5298 317.412C42.3298 317.412 41.4178 316.536 41.2738 315.264L46.7218 315.276C46.7338 315.144 46.7338 315.024 46.7338 314.916C46.7338 313.056 45.4018 311.7 43.5538 311.7C41.6818 311.7 40.3378 313.056 40.3378 314.904ZM51.5024 309.18V318H52.4144V314.46C52.4144 313.344 53.3144 312.54 54.3584 312.54C55.4384 312.54 56.0744 313.308 56.0744 314.376V318H56.9864V314.376C56.9864 312.828 56.0144 311.7 54.4784 311.7C53.6384 311.7 52.8224 312.12 52.4144 312.804V309.18H51.5024ZM58.672 311.94V318H59.584V311.94H58.672ZM59.128 310.824C59.488 310.824 59.752 310.56 59.752 310.2C59.752 309.84 59.488 309.588 59.128 309.588C58.756 309.588 58.504 309.84 58.504 310.2C58.504 310.56 58.756 310.824 59.128 310.824ZM64.2738 317.34C62.9418 317.34 61.9578 316.344 61.9578 314.976C61.9578 313.56 62.9298 312.54 64.2738 312.54C65.6178 312.54 66.5898 313.56 66.5898 314.976C66.5898 316.344 65.6178 317.34 64.2738 317.34ZM64.3338 320.172C63.2778 320.172 62.3538 319.476 62.1498 318.504L61.2738 318.624C61.4898 320.004 62.7978 321 64.3698 321C66.1698 321 67.4778 319.848 67.4778 317.904V311.94H66.5658V312.948C66.0498 312.192 65.2218 311.724 64.1778 311.724C62.3658 311.724 61.0458 313.092 61.0458 314.976C61.0458 316.824 62.3658 318.168 64.1778 318.168C65.1978 318.168 66.0378 317.712 66.5658 316.944V317.904C66.5658 319.332 65.6298 320.172 64.3338 320.172ZM69.1339 309.18V318H70.0459V314.46C70.0459 313.344 70.9459 312.54 71.9899 312.54C73.0699 312.54 73.7059 313.308 73.7059 314.376V318H74.6179V314.376C74.6179 312.828 73.6459 311.7 72.1099 311.7C71.2699 311.7 70.4539 312.12 70.0459 312.804V309.18H69.1339ZM76.7836 314.472C76.9516 313.332 77.8276 312.54 79.0036 312.54C80.2036 312.54 81.0916 313.332 81.2596 314.484L76.7836 314.472ZM75.8236 314.904C75.8236 316.836 77.1796 318.24 79.0516 318.24C80.3956 318.24 81.6436 317.376 82.0156 316.188L81.1156 316.044C80.8396 316.836 79.9516 317.412 79.0156 317.412C77.8156 317.412 76.9036 316.536 76.7596 315.264L82.2076 315.276C82.2196 315.144 82.2196 315.024 82.2196 314.916C82.2196 313.056 80.8876 311.7 79.0396 311.7C77.1676 311.7 75.8236 313.056 75.8236 314.904ZM88.4688 316.26C88.4568 314.916 87.0288 314.664 85.9128 314.472C84.8088 314.292 84.3048 314.112 84.3048 313.572C84.3048 312.972 84.9408 312.54 85.7208 312.54C86.7048 312.54 87.4248 313.044 87.4368 313.74L88.3368 313.752C88.3248 312.564 87.2328 311.7 85.7328 311.7C84.4248 311.7 83.4168 312.48 83.4168 313.548C83.4048 314.916 84.4728 315.108 85.8528 315.324C86.5128 315.42 87.5688 315.588 87.5808 316.344C87.5808 316.956 86.8968 317.412 85.9608 317.412C84.9288 317.412 84.1848 316.812 84.1848 315.972H83.2848C83.2848 317.28 84.4128 318.24 85.9728 318.24C87.4128 318.24 88.4688 317.4 88.4688 316.26ZM89.9768 316.5C89.9768 317.544 90.6008 318.24 91.5968 318.24C91.8968 318.24 92.2808 318.18 92.5568 318.096V317.34C92.3288 317.412 92.0168 317.46 91.8248 317.46C91.2488 317.448 90.8888 317.052 90.8888 316.464V312.696H92.4608V311.94H90.8888V310.524H90.1448L90.0128 311.94H88.9808V312.696H89.9768V316.5ZM100.529 317.352C99.1846 317.352 98.2126 316.344 98.2126 314.976C98.2126 313.596 99.1846 312.588 100.529 312.588C101.861 312.588 102.845 313.572 102.845 314.976C102.845 316.344 101.873 317.352 100.529 317.352ZM103.757 314.976C103.757 313.08 102.437 311.7 100.637 311.7C99.5926 311.7 98.7286 312.192 98.2126 312.984V311.94H97.3246V320.76H98.2366V316.98C98.7526 317.772 99.6046 318.24 100.637 318.24C102.449 318.24 103.757 316.86 103.757 314.976ZM107.969 317.412C106.625 317.412 105.653 316.38 105.653 314.976C105.653 313.56 106.625 312.54 107.969 312.54C109.301 312.54 110.285 313.56 110.285 314.976C110.285 316.38 109.301 317.412 107.969 317.412ZM110.297 313.02C109.781 312.204 108.905 311.7 107.861 311.7C106.049 311.7 104.741 313.08 104.741 314.976C104.741 316.86 106.049 318.24 107.861 318.24C108.905 318.24 109.781 317.736 110.297 316.932V318H111.209V311.94H110.297V313.02ZM112.684 320.496C112.96 320.604 113.32 320.676 113.62 320.676C114.892 320.676 115.384 319.464 115.936 318.084L118.348 311.94H117.376L115.48 316.86L113.32 311.94H112.312L115.036 317.988C114.64 318.9 114.376 319.86 113.488 319.86C113.26 319.86 112.96 319.788 112.684 319.692V320.496ZM119.6 311.94V318H120.512V311.94H119.6ZM120.056 310.824C120.416 310.824 120.68 310.56 120.68 310.2C120.68 309.84 120.416 309.588 120.056 309.588C119.684 309.588 119.432 309.84 119.432 310.2C119.432 310.56 119.684 310.824 120.056 310.824ZM122.31 311.94V318H123.222V314.46C123.222 313.344 124.146 312.54 125.202 312.54C126.27 312.54 126.882 313.308 126.882 314.376V318H127.794V314.376C127.794 312.828 126.846 311.7 125.298 311.7C124.458 311.7 123.642 312.12 123.222 312.792V311.94H122.31ZM132.227 317.34C130.895 317.34 129.911 316.344 129.911 314.976C129.911 313.56 130.883 312.54 132.227 312.54C133.571 312.54 134.543 313.56 134.543 314.976C134.543 316.344 133.571 317.34 132.227 317.34ZM132.287 320.172C131.231 320.172 130.307 319.476 130.103 318.504L129.227 318.624C129.443 320.004 130.751 321 132.323 321C134.123 321 135.431 319.848 135.431 317.904V311.94H134.519V312.948C134.003 312.192 133.175 311.724 132.131 311.724C130.319 311.724 128.999 313.092 128.999 314.976C128.999 316.824 130.319 318.168 132.131 318.168C133.151 318.168 133.991 317.712 134.519 316.944V317.904C134.519 319.332 133.583 320.172 132.287 320.172ZM140.647 318.9C140.647 319.464 140.287 319.86 139.735 319.86C139.495 319.86 139.183 319.824 138.955 319.74V320.544C139.231 320.64 139.627 320.7 139.975 320.7C140.923 320.7 141.559 320.016 141.559 318.996V311.94H140.647V318.9ZM141.103 310.824C141.463 310.824 141.727 310.56 141.727 310.2C141.727 309.84 141.463 309.588 141.103 309.588C140.731 309.588 140.479 309.84 140.479 310.2C140.479 310.56 140.731 310.824 141.103 310.824ZM146.226 311.7C144.33 311.7 142.998 313.056 142.998 314.976C142.998 316.884 144.33 318.24 146.226 318.24C148.122 318.24 149.466 316.884 149.466 314.976C149.466 313.056 148.122 311.7 146.226 311.7ZM146.226 317.412C144.882 317.412 143.91 316.38 143.91 314.976C143.91 313.56 144.882 312.54 146.226 312.54C147.57 312.54 148.542 313.56 148.542 314.976C148.542 316.38 147.57 317.412 146.226 317.412ZM153.974 312.588C155.318 312.588 156.29 313.596 156.29 314.976C156.29 316.368 155.306 317.352 153.974 317.352C152.63 317.352 151.658 316.344 151.658 314.976C151.658 313.596 152.63 312.588 153.974 312.588ZM157.202 314.976C157.202 313.08 155.894 311.7 154.082 311.7C153.05 311.7 152.198 312.18 151.682 312.96V309.18H150.77V318H151.658V316.956C152.174 317.748 153.038 318.24 154.082 318.24C155.882 318.24 157.202 316.86 157.202 314.976ZM163.454 316.26C163.442 314.916 162.014 314.664 160.898 314.472C159.794 314.292 159.29 314.112 159.29 313.572C159.29 312.972 159.926 312.54 160.706 312.54C161.69 312.54 162.41 313.044 162.422 313.74L163.322 313.752C163.31 312.564 162.218 311.7 160.718 311.7C159.41 311.7 158.402 312.48 158.402 313.548C158.39 314.916 159.458 315.108 160.838 315.324C161.498 315.42 162.554 315.588 162.566 316.344C162.566 316.956 161.882 317.412 160.946 317.412C159.914 317.412 159.17 316.812 159.17 315.972H158.27C158.27 317.28 159.398 318.24 160.958 318.24C162.398 318.24 163.454 317.4 163.454 316.26ZM167.402 318.156C167.762 318.156 168.026 317.904 168.026 317.532C168.026 317.172 167.762 316.92 167.402 316.92C167.03 316.92 166.778 317.184 166.778 317.532C166.778 317.904 167.03 318.156 167.402 318.156ZM167.87 315.852C167.87 314.868 168.146 314.46 168.842 313.992C169.682 313.44 170.354 312.96 170.354 311.808C170.354 310.332 169.13 309.24 167.558 309.24C165.95 309.24 164.786 310.38 164.594 311.964L165.53 312.144C165.662 310.98 166.43 310.128 167.546 310.128C168.566 310.128 169.346 310.86 169.346 311.82C169.346 312.588 168.794 312.984 168.194 313.392C167.402 313.944 166.946 314.508 166.946 315.852H167.87Z" fill="black"/>
<path d="M91.0651 204.096C89.0491 204.096 87.6091 202.528 87.6091 200.304C87.6091 198.08 89.0331 196.512 91.0651 196.512C92.5371 196.512 93.8171 197.52 94.1371 198.928L96.6651 198.64C96.2491 196.064 93.8811 194.208 91.0011 194.208C87.4811 194.208 84.9211 196.768 84.9211 200.304C84.9211 203.84 87.4811 206.4 91.0011 206.4C93.9131 206.4 96.2811 204.592 96.6651 202.08L94.1531 201.744C93.8011 203.104 92.5051 204.096 91.0651 204.096ZM102.474 197.488C99.7864 197.488 97.9304 199.28 97.9304 201.904C97.9304 204.512 99.7864 206.32 102.474 206.32C105.178 206.32 107.034 204.512 107.034 201.904C107.034 199.28 105.178 197.488 102.474 197.488ZM102.474 204.208C101.226 204.208 100.346 203.248 100.346 201.904C100.346 200.56 101.226 199.6 102.474 199.6C103.738 199.6 104.618 200.56 104.618 201.904C104.618 203.248 103.738 204.208 102.474 204.208ZM108.56 194.128V206H110.96V194.128H108.56ZM112.853 194.128V206H115.253V194.128H112.853ZM119.258 201.136C119.466 200.048 120.202 199.328 121.258 199.328C122.346 199.328 123.146 200.096 123.29 201.136H119.258ZM116.794 201.84C116.794 204.48 118.65 206.32 121.29 206.32C123.29 206.32 125.018 205.152 125.418 203.552L123.258 203.248C123.002 203.968 122.25 204.48 121.354 204.48C120.266 204.48 119.482 203.728 119.274 202.576L125.69 202.592C125.722 202.416 125.722 202.08 125.722 201.872C125.722 199.28 123.93 197.488 121.306 197.488C118.666 197.488 116.794 199.28 116.794 201.84ZM131.444 204.144C130.196 204.144 129.3 203.2 129.3 201.904C129.3 200.576 130.196 199.6 131.444 199.6C132.692 199.6 133.588 200.576 133.588 201.904C133.588 203.2 132.692 204.144 131.444 204.144ZM131.412 208.096C130.436 208.096 129.572 207.424 129.364 206.496L127.22 206.736C127.46 208.624 129.268 210 131.508 210C134.1 210 135.892 208.448 135.892 205.904V197.808H133.492V198.784C132.868 197.984 131.94 197.504 130.788 197.504C128.532 197.504 126.9 199.328 126.9 201.904C126.9 204.384 128.532 206.112 130.788 206.112C131.924 206.112 132.852 205.648 133.492 204.864V205.84C133.492 207.264 132.628 208.096 131.412 208.096ZM139.907 201.136C140.115 200.048 140.851 199.328 141.907 199.328C142.995 199.328 143.795 200.096 143.939 201.136H139.907ZM137.443 201.84C137.443 204.48 139.299 206.32 141.939 206.32C143.939 206.32 145.667 205.152 146.067 203.552L143.907 203.248C143.651 203.968 142.899 204.48 142.003 204.48C140.915 204.48 140.131 203.728 139.923 202.576L146.339 202.592C146.371 202.416 146.371 202.08 146.371 201.872C146.371 199.28 144.579 197.488 141.955 197.488C139.315 197.488 137.443 199.28 137.443 201.84ZM162.231 202.448C162.231 199.824 159.943 199.344 157.735 199.088C156.295 198.896 155.159 198.736 155.159 197.664C155.159 196.832 155.991 196.24 157.255 196.24C158.631 196.24 159.639 197.04 159.623 198.16H161.959C161.959 195.872 159.959 194.208 157.191 194.208C154.439 194.208 152.535 195.744 152.535 197.968C152.535 200.624 154.711 201.104 156.967 201.392C158.375 201.568 159.607 201.728 159.607 202.8C159.607 203.712 158.791 204.368 157.479 204.368C155.943 204.368 154.839 203.488 154.839 202.256H152.423C152.423 204.656 154.503 206.4 157.399 206.4C160.295 206.4 162.231 204.784 162.231 202.448ZM164.252 203.344C164.252 205.088 165.308 206.32 166.94 206.32C167.452 206.32 168.092 206.224 168.588 206.064V204.128C168.316 204.208 167.964 204.256 167.74 204.256C167.068 204.256 166.652 203.792 166.652 203.104V199.632H168.508V197.808H166.652V195.744H164.636L164.364 197.808H163.1V199.632H164.252V203.344ZM178.012 206V197.808H175.612V202.416C175.612 203.456 174.844 204.208 173.9 204.208C172.956 204.208 172.38 203.504 172.38 202.512V197.808H169.98V202.928C169.98 204.896 171.228 206.32 173.068 206.32C174.14 206.32 175.1 205.776 175.676 204.88V206H178.012ZM184.109 199.648C185.357 199.648 186.253 200.608 186.253 201.904C186.253 203.2 185.357 204.16 184.109 204.16C182.877 204.16 181.965 203.216 181.965 201.904C181.965 200.608 182.861 199.648 184.109 199.648ZM179.565 201.904C179.565 204.496 181.181 206.32 183.453 206.32C184.605 206.32 185.549 205.824 186.189 205.008V206H188.557V194.128H186.157V198.8C185.517 197.968 184.573 197.488 183.453 197.488C181.181 197.488 179.565 199.312 179.565 201.904ZM192.572 201.136C192.78 200.048 193.516 199.328 194.572 199.328C195.66 199.328 196.46 200.096 196.604 201.136H192.572ZM190.108 201.84C190.108 204.48 191.964 206.32 194.604 206.32C196.604 206.32 198.332 205.152 198.732 203.552L196.572 203.248C196.316 203.968 195.564 204.48 194.668 204.48C193.58 204.48 192.796 203.728 192.588 202.576L199.004 202.592C199.036 202.416 199.036 202.08 199.036 201.872C199.036 199.28 197.244 197.488 194.62 197.488C191.98 197.488 190.108 199.28 190.108 201.84ZM200.582 197.808V206H202.982V201.392C202.982 200.352 203.75 199.6 204.694 199.6C205.638 199.6 206.214 200.304 206.214 201.296V206H208.614V200.88C208.614 198.912 207.366 197.488 205.526 197.488C204.454 197.488 203.494 198.032 202.918 198.912V197.808H200.582ZM210.999 203.344C210.999 205.088 212.055 206.32 213.687 206.32C214.199 206.32 214.839 206.224 215.335 206.064V204.128C215.063 204.208 214.711 204.256 214.487 204.256C213.815 204.256 213.399 203.792 213.399 203.104V199.632H215.255V197.808H213.399V195.744H211.383L211.111 197.808H209.847V199.632H210.999V203.344Z" fill="#444444"/>
<path d="M111.983 91.3747C108.267 85.8291 120.124 73.3918 120.125 67.3075C120.126 50.0966 137.141 59.1662 137.141 57.7503V46.7773C138.607 49.2551 141.835 54.5646 143.008 55.9805C144.355 57.6055 149.164 52.0689 149.488 47.864C149.083 45.7456 149.14 44.441 149.463 46.7773C149.511 47.125 149.517 47.4892 149.488 47.864C149.82 49.597 150.46 51.8746 151.516 53.1488C153.863 55.9805 163.545 57.0425 165.012 59.1663C166.479 61.2901 166.185 58.8123 170.879 63.7679C175.573 68.7234 184.921 69.0746 189.909 91.3747C191.437 98.2096 186.722 83.5901 173.52 85.006C160.318 86.4219 162.958 71.2012 149.463 77.5727C135.967 83.9441 130.609 76.8648 128.555 85.006C126.913 91.519 115.601 91.3747 111.983 91.3747Z" fill="#FFBA9D"/>
<path d="M175.174 148C180.985 152.696 187.77 161.321 187.77 176H113.71C113.71 161.321 120.494 152.696 126.306 148H175.174Z" fill="#B69DFF"/>
<path d="M151.474 158.37L142.659 147.792H158.526L151.474 158.37Z" fill="white"/>
<path fill-rule="evenodd" clip-rule="evenodd" d="M191.059 89.9662C190.716 92.8839 190.302 95.896 189.68 98.4943C189.124 100.812 187.977 103.452 186.735 105.786C186.203 106.785 185.651 107.733 185.117 108.582C185.13 108.638 185.143 108.696 185.156 108.754C185.335 109.548 185.299 111.144 184.853 113.154C184.404 115.178 183.53 117.661 181.993 120.237C178.916 125.398 173.193 130.918 162.954 133.895C160.161 134.707 158.732 136.34 158.056 138.035C157.373 139.749 157.451 141.554 157.733 142.681L156.994 142.865C156.682 141.615 156.596 139.643 157.35 137.753C158.111 135.843 159.721 134.043 162.742 133.164C172.795 130.242 178.361 124.844 181.34 119.848C182.832 117.346 183.677 114.94 184.11 112.989C184.438 111.512 184.525 110.317 184.488 109.545C184.005 110.259 183.55 110.867 183.155 111.329L183.133 111.355L183.107 111.376C182.987 111.475 182.87 111.58 182.745 111.691L182.715 111.718C182.582 111.837 182.44 111.963 182.289 112.083C181.986 112.325 181.635 112.555 181.196 112.691C180.304 112.968 179.165 112.827 177.48 111.948C176.585 111.481 176.051 110.853 175.827 110.136C175.606 109.427 175.703 108.684 175.964 108.009C176.225 107.333 176.658 106.7 177.15 106.187C177.639 105.676 178.206 105.264 178.751 105.05C179.712 104.673 181.024 104.258 182.259 104.643C183.324 104.975 184.232 105.862 184.832 107.595C185.241 106.921 185.657 106.191 186.063 105.428C187.291 103.122 188.406 100.547 188.94 98.317C189.551 95.7656 189.961 92.7916 190.303 89.8774C190.409 88.9734 190.509 88.074 190.607 87.1954C190.823 85.2519 191.028 83.4097 191.265 81.8431L192.017 81.9569C191.782 83.5083 191.58 85.3255 191.365 87.2604C191.267 88.1425 191.167 89.0491 191.059 89.9662ZM184.298 108.45C183.752 106.425 182.884 105.634 182.033 105.369C181.074 105.071 179.987 105.382 179.029 105.758C178.614 105.921 178.135 106.258 177.699 106.713C177.265 107.167 176.893 107.716 176.674 108.283C176.455 108.85 176.398 109.41 176.553 109.909C176.706 110.399 177.081 110.882 177.832 111.273C179.436 112.11 180.354 112.156 180.971 111.964C181.285 111.867 181.552 111.699 181.814 111.489C181.946 111.383 182.074 111.27 182.208 111.15L182.24 111.122C182.354 111.02 182.474 110.913 182.598 110.81C183.084 110.238 183.673 109.423 184.298 108.45Z" fill="#666666"/>
<path fill-rule="evenodd" clip-rule="evenodd" d="M150.169 120.256C147.969 120.398 145.962 120.046 144.774 119.672L144.967 119.191C146.085 119.543 148.012 119.884 150.128 119.748C152.24 119.611 154.519 119 156.371 117.468L156.763 117.84C154.789 119.473 152.373 120.114 150.169 120.256Z" fill="#666666"/>
<path fill-rule="evenodd" clip-rule="evenodd" d="M147.596 100.542H148.314V111.939C148.555 112.088 149.462 112.375 151.506 111.829L151.827 112.172C149.455 112.806 148.065 112.483 147.645 112.097L147.596 112.052V100.542Z" fill="#666666"/>
<path fill-rule="evenodd" clip-rule="evenodd" d="M116.233 116.166C110.96 106.829 109.55 95.5791 111.167 89.2589L112.144 89.3961C110.556 95.604 111.967 106.703 117.15 115.882C122.324 125.044 131.259 132.303 150.417 136.507L150.134 137.213C130.672 132.943 121.515 125.52 116.233 116.166Z" fill="#666666"/>
<path fill-rule="evenodd" clip-rule="evenodd" d="M94 40.4704L98.4985 52.8226H106.048L111.843 85.8645L148.663 72.9855L188.342 85.8645L191.844 52.8226H201.963L205.423 38L94 40.4704Z" fill="#E2E4E9"/>
<path d="M192.025 52.5881L105.989 52.9407L106.694 56.1142H191.672L192.025 52.5881Z" fill="#D1D1D1"/>
<circle cx="134.198" cy="99.132" r="1.41042" fill="#666666"/>
<circle cx="167.342" cy="99.132" r="1.41042" fill="#666666"/>
</svg>
