<svg width="552" height="344" viewBox="0 0 552 344" fill="none" xmlns="http://www.w3.org/2000/svg">
<path d="M0 4C0 1.79086 1.79086 0 4 0H528C541.255 0 552 10.7452 552 24V320C552 333.255 541.255 344 528 344H4C1.79086 344 0 342.209 0 340V4Z" fill="#E8F4FD"/>
<path d="M19.024 312.152L18.304 315.74H22.768L22.66 316.292H18.196L17.452 320H16.84L18.52 311.6H24.136L24.016 312.152H19.024ZM26.6597 320.048C25.8117 320.048 25.1357 319.812 24.6317 319.34C24.1357 318.868 23.8877 318.236 23.8877 317.444C23.8877 316.732 24.0397 316.092 24.3437 315.524C24.6557 314.956 25.0837 314.508 25.6277 314.18C26.1717 313.852 26.7877 313.688 27.4757 313.688C28.3237 313.688 28.9957 313.924 29.4917 314.396C29.9957 314.86 30.2477 315.492 30.2477 316.292C30.2477 317.004 30.0917 317.648 29.7797 318.224C29.4757 318.792 29.0517 319.24 28.5077 319.568C27.9637 319.888 27.3477 320.048 26.6597 320.048ZM26.7077 319.508C27.2677 319.508 27.7677 319.372 28.2077 319.1C28.6557 318.828 29.0077 318.452 29.2637 317.972C29.5197 317.484 29.6477 316.936 29.6477 316.328C29.6477 315.664 29.4517 315.148 29.0597 314.78C28.6757 314.412 28.1317 314.228 27.4277 314.228C26.8677 314.228 26.3637 314.368 25.9157 314.648C25.4757 314.92 25.1277 315.3 24.8717 315.788C24.6157 316.268 24.4877 316.808 24.4877 317.408C24.4877 318.072 24.6797 318.588 25.0637 318.956C25.4557 319.324 26.0037 319.508 26.7077 319.508ZM32.9971 315.056C33.2771 314.6 33.6331 314.26 34.0651 314.036C34.5051 313.804 35.0371 313.688 35.6611 313.688L35.5531 314.276L35.3611 314.264C34.6491 314.264 34.0651 314.476 33.6091 314.9C33.1531 315.324 32.8411 315.952 32.6731 316.784L32.0251 320H31.4251L32.6731 313.736H33.2611L32.9971 315.056ZM40.3218 318.188C40.2898 318.34 40.2738 318.488 40.2738 318.632C40.2738 319.232 40.5938 319.532 41.2338 319.532C41.6178 319.532 41.9578 319.416 42.2538 319.184L42.4338 319.628C42.0898 319.908 41.6418 320.048 41.0898 320.048C40.6418 320.048 40.2898 319.932 40.0338 319.7C39.7858 319.46 39.6618 319.132 39.6618 318.716C39.6618 318.548 39.6778 318.388 39.7098 318.236L40.5138 314.252H39.3498L39.4458 313.736H40.6098L40.8858 312.368H41.4858L41.2098 313.736H43.2018L43.1058 314.252H41.1138L40.3218 318.188ZM48.199 313.688C48.911 313.688 49.459 313.868 49.843 314.228C50.227 314.58 50.419 315.068 50.419 315.692C50.419 315.908 50.395 316.136 50.347 316.376L49.627 320H49.027L49.747 316.376C49.787 316.192 49.807 315.992 49.807 315.776C49.807 315.28 49.655 314.9 49.351 314.636C49.055 314.364 48.619 314.228 48.043 314.228C47.323 314.228 46.723 314.432 46.243 314.84C45.763 315.24 45.447 315.824 45.295 316.592L44.611 320H44.011L45.787 311.096H46.387L45.631 314.9C46.223 314.092 47.079 313.688 48.199 313.688ZM52.6129 317C52.5969 317.176 52.5889 317.308 52.5889 317.396C52.5889 318.076 52.7849 318.6 53.1769 318.968C53.5689 319.328 54.1449 319.508 54.9049 319.508C55.3449 319.508 55.7489 319.436 56.1169 319.292C56.4929 319.14 56.8049 318.932 57.0529 318.668L57.3289 319.088C57.0489 319.392 56.6889 319.628 56.2489 319.796C55.8169 319.964 55.3529 320.048 54.8569 320.048C53.9689 320.048 53.2689 319.816 52.7569 319.352C52.2529 318.888 52.0009 318.244 52.0009 317.42C52.0009 316.716 52.1489 316.08 52.4449 315.512C52.7409 314.944 53.1489 314.5 53.6689 314.18C54.1889 313.852 54.7729 313.688 55.4209 313.688C56.2369 313.688 56.8849 313.92 57.3649 314.384C57.8449 314.848 58.0849 315.488 58.0849 316.304C58.0849 316.496 58.0609 316.728 58.0129 317H52.6129ZM55.4089 314.204C54.7289 314.204 54.1409 314.416 53.6449 314.84C53.1569 315.264 52.8369 315.828 52.6849 316.532H57.5089C57.5169 316.46 57.5209 316.356 57.5209 316.22C57.5209 315.588 57.3289 315.096 56.9449 314.744C56.5609 314.384 56.0489 314.204 55.4089 314.204ZM68.6388 313.736L63.9588 320.924C63.6068 321.468 63.2708 321.844 62.9508 322.052C62.6388 322.268 62.2668 322.376 61.8348 322.376C61.5468 322.376 61.2748 322.328 61.0188 322.232C60.7628 322.136 60.5628 322 60.4188 321.824L60.7668 321.38C61.0468 321.692 61.4228 321.848 61.8948 321.848C62.1828 321.848 62.4428 321.768 62.6748 321.608C62.9148 321.448 63.1668 321.168 63.4308 320.768L63.9588 319.976L62.3748 313.736H62.9868L64.3908 319.34L68.0148 313.736H68.6388ZM69.0309 317C69.0149 317.176 69.0069 317.308 69.0069 317.396C69.0069 318.076 69.2029 318.6 69.5949 318.968C69.9869 319.328 70.5629 319.508 71.3229 319.508C71.7629 319.508 72.1669 319.436 72.5349 319.292C72.9109 319.14 73.2229 318.932 73.4709 318.668L73.7469 319.088C73.4669 319.392 73.1069 319.628 72.6669 319.796C72.2349 319.964 71.7709 320.048 71.2749 320.048C70.3869 320.048 69.6869 319.816 69.1749 319.352C68.6709 318.888 68.4189 318.244 68.4189 317.42C68.4189 316.716 68.5669 316.08 68.8629 315.512C69.1589 314.944 69.5669 314.5 70.0869 314.18C70.6069 313.852 71.1909 313.688 71.8389 313.688C72.6549 313.688 73.3029 313.92 73.7829 314.384C74.2629 314.848 74.5029 315.488 74.5029 316.304C74.5029 316.496 74.4789 316.728 74.4309 317H69.0309ZM71.8269 314.204C71.1469 314.204 70.5589 314.416 70.0629 314.84C69.5749 315.264 69.2549 315.828 69.1029 316.532H73.9269C73.9349 316.46 73.9389 316.356 73.9389 316.22C73.9389 315.588 73.7469 315.096 73.3629 314.744C72.9789 314.384 72.4669 314.204 71.8269 314.204ZM82.5148 313.736L81.2668 320H80.6908L80.9308 318.776C80.6268 319.176 80.2468 319.488 79.7908 319.712C79.3428 319.936 78.8428 320.048 78.2908 320.048C77.4748 320.048 76.8188 319.816 76.3228 319.352C75.8348 318.88 75.5908 318.244 75.5908 317.444C75.5908 316.732 75.7428 316.092 76.0468 315.524C76.3508 314.948 76.7708 314.5 77.3068 314.18C77.8508 313.852 78.4588 313.688 79.1308 313.688C79.7788 313.688 80.3148 313.828 80.7388 314.108C81.1628 314.388 81.4508 314.784 81.6028 315.296L81.9148 313.736H82.5148ZM78.4108 319.508C78.9708 319.508 79.4708 319.372 79.9108 319.1C80.3588 318.828 80.7108 318.452 80.9668 317.972C81.2228 317.484 81.3508 316.936 81.3508 316.328C81.3508 315.664 81.1548 315.148 80.7628 314.78C80.3788 314.412 79.8348 314.228 79.1308 314.228C78.5708 314.228 78.0668 314.368 77.6188 314.648C77.1788 314.92 76.8308 315.3 76.5748 315.788C76.3188 316.268 76.1908 316.808 76.1908 317.408C76.1908 318.072 76.3828 318.588 76.7668 318.956C77.1588 319.324 77.7068 319.508 78.4108 319.508ZM85.3564 315.056C85.6364 314.6 85.9924 314.26 86.4244 314.036C86.8644 313.804 87.3964 313.688 88.0204 313.688L87.9124 314.276L87.7204 314.264C87.0084 314.264 86.4244 314.476 85.9684 314.9C85.5124 315.324 85.2004 315.952 85.0324 316.784L84.3844 320H83.7844L85.0324 313.736H85.6204L85.3564 315.056ZM91.8891 319.448H96.7011L96.5931 320H90.8091L90.9051 319.568L95.2011 316.052C95.8251 315.54 96.2531 315.1 96.4851 314.732C96.7251 314.364 96.8451 313.972 96.8451 313.556C96.8451 313.1 96.6811 312.744 96.3531 312.488C96.0331 312.224 95.5451 312.092 94.8891 312.092C94.4171 312.092 93.9651 312.18 93.5331 312.356C93.1011 312.524 92.7411 312.764 92.4531 313.076L92.0211 312.704C92.3651 312.336 92.7931 312.052 93.3051 311.852C93.8251 311.644 94.3771 311.54 94.9611 311.54C95.7691 311.54 96.3851 311.716 96.8091 312.068C97.2411 312.42 97.4571 312.892 97.4571 313.484C97.4571 313.98 97.3211 314.456 97.0491 314.912C96.7771 315.36 96.3011 315.86 95.6211 316.412L91.8891 319.448ZM101.064 320.06C100.232 320.06 99.58 319.796 99.108 319.268C98.644 318.74 98.412 318.004 98.412 317.06C98.412 316.108 98.584 315.212 98.928 314.372C99.272 313.524 99.76 312.84 100.392 312.32C101.024 311.8 101.756 311.54 102.588 311.54C103.42 311.54 104.068 311.804 104.532 312.332C104.996 312.86 105.228 313.596 105.228 314.54C105.228 315.492 105.056 316.392 104.712 317.24C104.376 318.08 103.892 318.76 103.26 319.28C102.628 319.8 101.896 320.06 101.064 320.06ZM101.124 319.496C101.828 319.496 102.444 319.252 102.972 318.764C103.508 318.276 103.916 317.652 104.196 316.892C104.484 316.132 104.628 315.352 104.628 314.552C104.628 313.768 104.444 313.164 104.076 312.74C103.708 312.316 103.192 312.104 102.528 312.104C101.816 312.104 101.196 312.348 100.668 312.836C100.14 313.324 99.732 313.948 99.444 314.708C99.164 315.468 99.024 316.248 99.024 317.048C99.024 317.832 99.204 318.436 99.564 318.86C99.932 319.284 100.452 319.496 101.124 319.496ZM109.383 311.6L107.703 320H107.091L108.663 312.152H106.611L106.719 311.6H109.383ZM115.185 315.68C115.641 315.848 115.989 316.092 116.229 316.412C116.469 316.724 116.589 317.1 116.589 317.54C116.589 318.052 116.449 318.5 116.169 318.884C115.897 319.26 115.509 319.552 115.005 319.76C114.501 319.96 113.913 320.06 113.241 320.06C112.297 320.06 111.557 319.868 111.021 319.484C110.493 319.092 110.229 318.556 110.229 317.876C110.229 317.26 110.425 316.748 110.817 316.34C111.209 315.932 111.765 315.66 112.485 315.524C112.109 315.364 111.821 315.144 111.621 314.864C111.429 314.584 111.333 314.256 111.333 313.88C111.333 313.408 111.457 312.996 111.705 312.644C111.953 312.284 112.305 312.012 112.761 311.828C113.217 311.636 113.749 311.54 114.357 311.54C115.189 311.54 115.853 311.72 116.349 312.08C116.853 312.44 117.105 312.928 117.105 313.544C117.105 314.088 116.937 314.548 116.601 314.924C116.265 315.292 115.793 315.544 115.185 315.68ZM111.957 313.844C111.957 314.316 112.145 314.688 112.521 314.96C112.897 315.232 113.425 315.368 114.105 315.368C114.841 315.368 115.421 315.212 115.845 314.9C116.277 314.58 116.493 314.152 116.493 313.616C116.493 313.136 116.297 312.76 115.905 312.488C115.513 312.208 114.985 312.068 114.321 312.068C113.601 312.068 113.025 312.228 112.593 312.548C112.169 312.868 111.957 313.3 111.957 313.844ZM113.265 319.532C114.105 319.532 114.765 319.356 115.245 319.004C115.733 318.644 115.977 318.16 115.977 317.552C115.977 317.032 115.761 316.624 115.329 316.328C114.897 316.024 114.297 315.872 113.529 315.872C112.697 315.872 112.041 316.052 111.561 316.412C111.081 316.764 110.841 317.24 110.841 317.84C110.841 318.368 111.053 318.784 111.477 319.088C111.909 319.384 112.505 319.532 113.265 319.532ZM121.265 316.508H124.349L124.241 317.048H121.157L121.265 316.508ZM129.038 319.448H133.85L133.742 320H127.958L128.054 319.568L132.35 316.052C132.974 315.54 133.402 315.1 133.634 314.732C133.874 314.364 133.994 313.972 133.994 313.556C133.994 313.1 133.83 312.744 133.502 312.488C133.182 312.224 132.694 312.092 132.038 312.092C131.566 312.092 131.114 312.18 130.682 312.356C130.25 312.524 129.89 312.764 129.602 313.076L129.17 312.704C129.514 312.336 129.942 312.052 130.454 311.852C130.974 311.644 131.526 311.54 132.11 311.54C132.918 311.54 133.534 311.716 133.958 312.068C134.39 312.42 134.606 312.892 134.606 313.484C134.606 313.98 134.47 314.456 134.198 314.912C133.926 315.36 133.45 315.86 132.77 316.412L129.038 319.448ZM138.212 320.06C137.38 320.06 136.728 319.796 136.256 319.268C135.792 318.74 135.56 318.004 135.56 317.06C135.56 316.108 135.732 315.212 136.076 314.372C136.42 313.524 136.908 312.84 137.54 312.32C138.172 311.8 138.904 311.54 139.736 311.54C140.568 311.54 141.216 311.804 141.68 312.332C142.144 312.86 142.376 313.596 142.376 314.54C142.376 315.492 142.204 316.392 141.86 317.24C141.524 318.08 141.04 318.76 140.408 319.28C139.776 319.8 139.044 320.06 138.212 320.06ZM138.272 319.496C138.976 319.496 139.592 319.252 140.12 318.764C140.656 318.276 141.064 317.652 141.344 316.892C141.632 316.132 141.776 315.352 141.776 314.552C141.776 313.768 141.592 313.164 141.224 312.74C140.856 312.316 140.34 312.104 139.676 312.104C138.964 312.104 138.344 312.348 137.816 312.836C137.288 313.324 136.88 313.948 136.592 314.708C136.312 315.468 136.172 316.248 136.172 317.048C136.172 317.832 136.352 318.436 136.712 318.86C137.08 319.284 137.6 319.496 138.272 319.496ZM146.531 311.6L144.851 320H144.239L145.811 312.152H143.759L143.867 311.6H146.531ZM150.834 311.54C151.746 311.54 152.474 311.82 153.018 312.38C153.562 312.932 153.834 313.736 153.834 314.792C153.834 315.664 153.678 316.5 153.366 317.3C153.062 318.1 152.57 318.76 151.89 319.28C151.21 319.8 150.346 320.06 149.298 320.06C148.49 320.06 147.846 319.912 147.366 319.616L147.666 319.112C148.082 319.384 148.642 319.52 149.346 319.52C150.21 319.52 150.926 319.304 151.494 318.872C152.062 318.44 152.482 317.888 152.754 317.216C153.026 316.544 153.174 315.832 153.198 315.08C152.95 315.584 152.586 315.96 152.106 316.208C151.634 316.448 151.11 316.568 150.534 316.568C150.022 316.568 149.562 316.476 149.154 316.292C148.754 316.108 148.438 315.84 148.206 315.488C147.974 315.136 147.858 314.716 147.858 314.228C147.858 313.684 147.982 313.208 148.23 312.8C148.486 312.392 148.838 312.08 149.286 311.864C149.742 311.648 150.258 311.54 150.834 311.54ZM150.642 316.04C151.122 316.04 151.546 315.948 151.914 315.764C152.29 315.58 152.578 315.328 152.778 315.008C152.986 314.688 153.09 314.336 153.09 313.952C153.09 313.632 153.002 313.328 152.826 313.04C152.658 312.752 152.402 312.52 152.058 312.344C151.722 312.16 151.314 312.068 150.834 312.068C150.122 312.068 149.55 312.26 149.118 312.644C148.694 313.02 148.482 313.532 148.482 314.18C148.482 314.764 148.678 315.22 149.07 315.548C149.47 315.876 149.994 316.04 150.642 316.04Z" fill="black"/>
<path d="M408 166C408 238.902 348.902 298 276 298C203.098 298 144 238.902 144 166C144 93.0984 203.098 34 276 34C348.902 34 408 93.0984 408 166ZM177 166C177 220.676 221.324 265 276 265C330.676 265 375 220.676 375 166C375 111.324 330.676 67 276 67C221.324 67 177 111.324 177 166Z" fill="#B9DEF9"/>
<path d="M322.472 53.1976C324.575 48.0911 330.441 45.6229 335.374 48.1071C350.937 55.9448 364.824 66.8025 376.209 80.0809C389.768 95.895 399.392 114.694 404.294 134.94C409.195 155.186 409.236 176.304 404.412 196.569C399.587 216.834 390.036 235.669 376.537 251.535C363.039 267.401 345.978 279.847 326.748 287.855C307.518 295.864 286.665 299.207 265.895 297.613C245.125 296.018 225.028 289.53 207.246 278.68C192.315 269.57 179.372 257.601 169.143 243.495C165.9 239.024 167.397 232.839 172.1 229.944L183.171 223.13C187.875 220.235 193.996 221.739 197.35 226.126C204.774 235.837 213.951 244.113 224.434 250.51C237.771 258.648 252.844 263.514 268.421 264.71C283.999 265.905 299.638 263.398 314.061 257.391C328.483 251.385 341.279 242.051 351.403 230.151C361.527 218.252 368.691 204.125 372.309 188.927C375.927 173.728 375.896 157.889 372.22 142.705C368.544 127.52 361.326 113.421 351.157 101.561C343.163 92.2372 333.524 84.505 322.749 78.7329C317.881 76.1249 315.416 70.324 317.52 65.2175L322.472 53.1976Z" fill="#44A7EE"/>
<path d="M338 279L350.609 295H378" stroke="#5BB2F0" stroke-width="2" stroke-linecap="round" stroke-linejoin="round"/>
<g filter="url(#filter0_d)">
<rect x="378" y="267" width="154" height="56" rx="8" fill="white"/>
<path d="M391.348 278.2H387.316V288H389.136V285.172H391.348C393.924 285.172 395.52 283.842 395.52 281.686C395.52 279.516 393.924 278.2 391.348 278.2ZM391.264 283.632H389.136V279.74H391.264C392.86 279.74 393.686 280.454 393.686 281.686C393.686 282.918 392.86 283.632 391.264 283.632ZM402.794 280.524V284.304C402.794 285.802 401.968 286.558 400.75 286.558C399.644 286.558 399 285.914 399 284.556V280.524H397.25V284.794C397.25 287.048 398.552 288.098 400.47 288.098C401.436 288.098 402.318 287.734 402.878 287.048V288H404.544V280.524H402.794ZM410.98 280.44C410.028 280.44 409.188 280.762 408.586 281.434V277.612H406.836V288H408.502V287.034C409.09 287.748 409.958 288.098 410.98 288.098C413.164 288.098 414.774 286.586 414.774 284.262C414.774 281.938 413.164 280.44 410.98 280.44ZM410.784 286.6C409.524 286.6 408.558 285.69 408.558 284.262C408.558 282.834 409.524 281.924 410.784 281.924C412.044 281.924 412.996 282.834 412.996 284.262C412.996 285.69 412.044 286.6 410.784 286.6ZM416.433 288H418.183V277.612H416.433V288ZM421.362 279.292C422.02 279.292 422.482 278.816 422.482 278.2C422.482 277.626 422.006 277.192 421.362 277.192C420.718 277.192 420.242 277.654 420.242 278.242C420.242 278.83 420.718 279.292 421.362 279.292ZM420.48 288H422.23V280.524H420.48V288ZM427.957 288.098C429.413 288.098 430.575 287.468 431.149 286.348L429.805 285.564C429.357 286.278 428.685 286.6 427.943 286.6C426.655 286.6 425.675 285.718 425.675 284.262C425.675 282.82 426.655 281.924 427.943 281.924C428.685 281.924 429.357 282.246 429.805 282.96L431.149 282.176C430.575 281.042 429.413 280.44 427.957 280.44C425.591 280.44 423.911 282.022 423.911 284.262C423.911 286.502 425.591 288.098 427.957 288.098ZM438.267 290.716H439.933C438.771 288.672 438.281 286.558 438.281 284.164C438.281 281.77 438.771 279.656 439.933 277.612H438.267C437.175 279.278 436.559 281.588 436.559 284.164C436.559 286.74 437.175 289.022 438.267 290.716ZM445.304 281.952C444.212 281.952 443.274 282.288 442.686 282.974V282.96C442.686 280.734 443.848 279.586 445.696 279.586C446.382 279.586 447.026 279.712 447.558 280.062L448.23 278.69C447.572 278.27 446.634 278.06 445.654 278.06C442.812 278.06 440.852 279.908 440.852 283.268C440.852 286.418 442.42 288.14 445.094 288.14C447.096 288.14 448.678 286.908 448.678 284.962C448.678 283.128 447.236 281.952 445.304 281.952ZM444.996 286.712C443.694 286.712 442.966 285.984 442.966 285.06C442.966 284.094 443.778 283.38 444.954 283.38C446.144 283.38 446.914 284.024 446.914 285.046C446.914 286.068 446.13 286.712 444.996 286.712ZM453.718 288.14C456.056 288.14 457.82 286.32 457.82 283.1C457.82 279.88 456.056 278.06 453.718 278.06C451.394 278.06 449.63 279.88 449.63 283.1C449.63 286.32 451.394 288.14 453.718 288.14ZM453.718 286.558C452.388 286.558 451.464 285.466 451.464 283.1C451.464 280.734 452.388 279.642 453.718 279.642C455.062 279.642 455.986 280.734 455.986 283.1C455.986 285.466 455.062 286.558 453.718 286.558ZM461.234 283.478C462.634 283.478 463.586 282.414 463.586 280.79C463.586 279.166 462.634 278.102 461.234 278.102C459.834 278.102 458.896 279.18 458.896 280.79C458.896 282.4 459.834 283.478 461.234 283.478ZM460.422 288H461.794L468.486 278.2H467.114L460.422 288ZM461.234 282.498C460.506 282.498 460.03 281.868 460.03 280.79C460.03 279.712 460.506 279.082 461.234 279.082C461.99 279.082 462.438 279.698 462.438 280.79C462.438 281.882 461.99 282.498 461.234 282.498ZM467.66 288.098C469.06 288.098 470.012 287.02 470.012 285.41C470.012 283.8 469.06 282.722 467.66 282.722C466.26 282.722 465.322 283.8 465.322 285.41C465.322 287.02 466.26 288.098 467.66 288.098ZM467.66 287.118C466.918 287.118 466.456 286.502 466.456 285.41C466.456 284.318 466.918 283.702 467.66 283.702C468.402 283.702 468.864 284.332 468.864 285.41C468.864 286.488 468.402 287.118 467.66 287.118ZM472.179 290.716C473.285 289.022 473.887 286.74 473.887 284.164C473.887 281.588 473.285 279.278 472.179 277.612H470.513C471.675 279.656 472.179 281.77 472.179 284.164C472.179 286.558 471.675 288.672 470.513 290.716H472.179ZM390.788 306.246L393.168 303.418V302.2H386.49V303.726H390.942L388.716 306.372V307.618H389.612C391.096 307.618 391.74 308.192 391.74 309.074C391.74 309.984 390.97 310.558 389.668 310.558C388.562 310.558 387.498 310.18 386.798 309.592L386.014 311.006C386.924 311.72 388.31 312.14 389.696 312.14C392.328 312.14 393.574 310.712 393.574 309.06C393.574 307.59 392.636 306.484 390.788 306.246ZM398.852 312.14C401.19 312.14 402.954 310.32 402.954 307.1C402.954 303.88 401.19 302.06 398.852 302.06C396.528 302.06 394.764 303.88 394.764 307.1C394.764 310.32 396.528 312.14 398.852 312.14ZM398.852 310.558C397.522 310.558 396.598 309.466 396.598 307.1C396.598 304.734 397.522 303.642 398.852 303.642C400.196 303.642 401.12 304.734 401.12 307.1C401.12 309.466 400.196 310.558 398.852 310.558ZM405.126 309.774C404.482 309.774 403.992 310.236 403.992 310.936C403.992 311.44 404.258 311.804 404.65 311.972L404.09 314.114H405.224L405.938 312.14C406.19 311.496 406.26 311.244 406.26 310.936C406.26 310.25 405.784 309.774 405.126 309.774ZM411.362 312.14C413.7 312.14 415.464 310.32 415.464 307.1C415.464 303.88 413.7 302.06 411.362 302.06C409.038 302.06 407.274 303.88 407.274 307.1C407.274 310.32 409.038 312.14 411.362 312.14ZM411.362 310.558C410.032 310.558 409.108 309.466 409.108 307.1C409.108 304.734 410.032 303.642 411.362 303.642C412.706 303.642 413.63 304.734 413.63 307.1C413.63 309.466 412.706 310.558 411.362 310.558ZM420.782 312.14C423.12 312.14 424.884 310.32 424.884 307.1C424.884 303.88 423.12 302.06 420.782 302.06C418.458 302.06 416.694 303.88 416.694 307.1C416.694 310.32 418.458 312.14 420.782 312.14ZM420.782 310.558C419.452 310.558 418.528 309.466 418.528 307.1C418.528 304.734 419.452 303.642 420.782 303.642C422.126 303.642 423.05 304.734 423.05 307.1C423.05 309.466 422.126 310.558 420.782 310.558ZM430.202 312.14C432.54 312.14 434.304 310.32 434.304 307.1C434.304 303.88 432.54 302.06 430.202 302.06C427.878 302.06 426.114 303.88 426.114 307.1C426.114 310.32 427.878 312.14 430.202 312.14ZM430.202 310.558C428.872 310.558 427.948 309.466 427.948 307.1C427.948 304.734 428.872 303.642 430.202 303.642C431.546 303.642 432.47 304.734 432.47 307.1C432.47 309.466 431.546 310.558 430.202 310.558ZM444.317 312.14C446.991 312.14 448.601 310.586 448.601 307.73V302.2H446.809V307.66C446.809 309.676 445.913 310.544 444.331 310.544C442.749 310.544 441.839 309.676 441.839 307.66V302.2H440.019V307.73C440.019 310.586 441.629 312.14 444.317 312.14ZM455.224 304.44C454.132 304.44 453.222 304.804 452.648 305.49V304.524H450.982V312H452.732V308.22C452.732 306.722 453.572 305.966 454.818 305.966C455.938 305.966 456.596 306.61 456.596 307.94V312H458.346V307.716C458.346 305.462 457.016 304.44 455.224 304.44ZM461.448 303.292C462.106 303.292 462.568 302.816 462.568 302.2C462.568 301.626 462.092 301.192 461.448 301.192C460.804 301.192 460.328 301.654 460.328 302.242C460.328 302.83 460.804 303.292 461.448 303.292ZM460.566 312H462.316V304.524H460.566V312ZM469.933 304.524L467.539 310.068L465.215 304.524H463.395L466.601 312H468.407L471.613 304.524H469.933ZM479.53 308.304C479.53 305.966 477.934 304.44 475.75 304.44C473.524 304.44 471.886 306.036 471.886 308.262C471.886 310.488 473.51 312.098 476.016 312.098C477.304 312.098 478.354 311.678 479.026 310.88L478.088 309.802C477.556 310.348 476.898 310.614 476.058 310.614C474.756 310.614 473.846 309.914 473.636 308.822H479.502C479.516 308.654 479.53 308.444 479.53 308.304ZM475.75 305.84C476.898 305.84 477.724 306.582 477.864 307.66H473.622C473.79 306.568 474.616 305.84 475.75 305.84ZM482.877 305.616V304.524H481.211V312H482.961V308.374C482.961 306.848 483.801 306.064 485.131 306.064C485.257 306.064 485.383 306.078 485.537 306.106V304.44C484.291 304.44 483.381 304.832 482.877 305.616ZM489.358 312.098C491.458 312.098 492.746 311.188 492.746 309.788C492.746 306.862 488.126 308.206 488.126 306.694C488.126 306.204 488.63 305.854 489.694 305.854C490.408 305.854 491.122 305.994 491.836 306.414L492.508 305.084C491.836 304.678 490.702 304.44 489.708 304.44C487.692 304.44 486.418 305.364 486.418 306.778C486.418 309.76 491.038 308.416 491.038 309.844C491.038 310.362 490.576 310.67 489.47 310.67C488.532 310.67 487.524 310.362 486.866 309.928L486.194 311.258C486.866 311.734 488.112 312.098 489.358 312.098ZM495.135 303.292C495.793 303.292 496.255 302.816 496.255 302.2C496.255 301.626 495.779 301.192 495.135 301.192C494.491 301.192 494.015 301.654 494.015 302.242C494.015 302.83 494.491 303.292 495.135 303.292ZM494.253 312H496.003V304.524H494.253V312ZM502.304 310.348C502.038 310.558 501.688 310.656 501.324 310.656C500.652 310.656 500.288 310.264 500.288 309.536V305.98H502.29V304.58H500.288V302.872H498.538V304.58H497.306V305.98H498.538V309.578C498.538 311.23 499.476 312.098 501.114 312.098C501.744 312.098 502.374 311.93 502.794 311.594L502.304 310.348ZM505.116 303.292C505.774 303.292 506.236 302.816 506.236 302.2C506.236 301.626 505.76 301.192 505.116 301.192C504.472 301.192 503.996 301.654 503.996 302.242C503.996 302.83 504.472 303.292 505.116 303.292ZM504.234 312H505.984V304.524H504.234V312ZM515.309 308.304C515.309 305.966 513.713 304.44 511.529 304.44C509.303 304.44 507.665 306.036 507.665 308.262C507.665 310.488 509.289 312.098 511.795 312.098C513.083 312.098 514.133 311.678 514.805 310.88L513.867 309.802C513.335 310.348 512.677 310.614 511.837 310.614C510.535 310.614 509.625 309.914 509.415 308.822H515.281C515.295 308.654 515.309 308.444 515.309 308.304ZM511.529 305.84C512.677 305.84 513.503 306.582 513.643 307.66H509.401C509.569 306.568 510.395 305.84 511.529 305.84ZM519.3 312.098C521.4 312.098 522.688 311.188 522.688 309.788C522.688 306.862 518.068 308.206 518.068 306.694C518.068 306.204 518.572 305.854 519.636 305.854C520.35 305.854 521.064 305.994 521.778 306.414L522.45 305.084C521.778 304.678 520.644 304.44 519.65 304.44C517.634 304.44 516.36 305.364 516.36 306.778C516.36 309.76 520.98 308.416 520.98 309.844C520.98 310.362 520.518 310.67 519.412 310.67C518.474 310.67 517.466 310.362 516.808 309.928L516.136 311.258C516.808 311.734 518.054 312.098 519.3 312.098Z" fill="#333333"/>
</g>
<path d="M237.931 172.16C236.79 172.16 235.761 171.915 234.843 171.424C233.926 170.923 233.206 170.235 232.683 169.36C232.161 168.475 231.899 167.488 231.899 166.4C231.899 165.312 232.161 164.331 232.683 163.456C233.206 162.571 233.926 161.883 234.843 161.392C235.761 160.891 236.79 160.64 237.931 160.64C239.073 160.64 240.102 160.891 241.019 161.392C241.937 161.883 242.657 162.565 243.179 163.44C243.702 164.315 243.963 165.301 243.963 166.4C243.963 167.499 243.702 168.485 243.179 169.36C242.657 170.235 241.937 170.923 241.019 171.424C240.102 171.915 239.073 172.16 237.931 172.16ZM237.931 170.336C238.678 170.336 239.35 170.171 239.947 169.84C240.545 169.499 241.014 169.029 241.355 168.432C241.697 167.824 241.867 167.147 241.867 166.4C241.867 165.653 241.697 164.981 241.355 164.384C241.014 163.776 240.545 163.307 239.947 162.976C239.35 162.635 238.678 162.464 237.931 162.464C237.185 162.464 236.513 162.635 235.915 162.976C235.318 163.307 234.849 163.776 234.507 164.384C234.166 164.981 233.995 165.653 233.995 166.4C233.995 167.147 234.166 167.824 234.507 168.432C234.849 169.029 235.318 169.499 235.915 169.84C236.513 170.171 237.185 170.336 237.931 170.336ZM259.304 163.456L256.152 172H254.232L252.024 166.112L249.784 172H247.864L244.728 163.456H246.616L248.872 169.76L251.224 163.456H252.904L255.208 169.792L257.528 163.456H259.304ZM265.527 163.36C266.605 163.36 267.469 163.675 268.119 164.304C268.77 164.933 269.095 165.867 269.095 167.104V172H267.095V167.36C267.095 166.613 266.919 166.053 266.567 165.68C266.215 165.296 265.714 165.104 265.063 165.104C264.327 165.104 263.746 165.328 263.319 165.776C262.893 166.213 262.679 166.848 262.679 167.68V172H260.679V163.456H262.583V164.56C262.914 164.165 263.33 163.867 263.831 163.664C264.333 163.461 264.898 163.36 265.527 163.36ZM279.742 167.776C279.742 167.915 279.732 168.112 279.71 168.368H273.006C273.124 168.997 273.428 169.499 273.918 169.872C274.42 170.235 275.038 170.416 275.774 170.416C276.713 170.416 277.486 170.107 278.094 169.488L279.166 170.72C278.782 171.179 278.297 171.525 277.71 171.76C277.124 171.995 276.462 172.112 275.726 172.112C274.788 172.112 273.961 171.925 273.246 171.552C272.532 171.179 271.977 170.661 271.582 170C271.198 169.328 271.006 168.571 271.006 167.728C271.006 166.896 271.193 166.149 271.566 165.488C271.95 164.816 272.478 164.293 273.15 163.92C273.822 163.547 274.58 163.36 275.422 163.36C276.254 163.36 276.996 163.547 277.646 163.92C278.308 164.283 278.82 164.8 279.182 165.472C279.556 166.133 279.742 166.901 279.742 167.776ZM275.422 164.96C274.782 164.96 274.238 165.152 273.79 165.536C273.353 165.909 273.086 166.411 272.99 167.04H277.838C277.753 166.421 277.492 165.92 277.054 165.536C276.617 165.152 276.073 164.96 275.422 164.96ZM283.568 164.704C284.144 163.808 285.157 163.36 286.608 163.36V165.264C286.437 165.232 286.282 165.216 286.144 165.216C285.365 165.216 284.757 165.445 284.32 165.904C283.882 166.352 283.664 167.003 283.664 167.856V172H281.664V163.456H283.568V164.704ZM290.975 172.112C290.282 172.112 289.605 172.021 288.943 171.84C288.282 171.659 287.754 171.429 287.359 171.152L288.127 169.632C288.511 169.888 288.97 170.096 289.503 170.256C290.047 170.405 290.581 170.48 291.103 170.48C292.298 170.48 292.895 170.165 292.895 169.536C292.895 169.237 292.741 169.029 292.431 168.912C292.133 168.795 291.647 168.683 290.975 168.576C290.271 168.469 289.695 168.347 289.247 168.208C288.81 168.069 288.426 167.829 288.095 167.488C287.775 167.136 287.615 166.651 287.615 166.032C287.615 165.221 287.951 164.576 288.623 164.096C289.306 163.605 290.223 163.36 291.375 163.36C291.962 163.36 292.549 163.429 293.135 163.568C293.722 163.696 294.202 163.872 294.575 164.096L293.807 165.616C293.082 165.189 292.266 164.976 291.359 164.976C290.773 164.976 290.325 165.067 290.015 165.248C289.717 165.419 289.567 165.648 289.567 165.936C289.567 166.256 289.727 166.485 290.047 166.624C290.378 166.752 290.885 166.875 291.567 166.992C292.25 167.099 292.81 167.221 293.247 167.36C293.685 167.499 294.058 167.733 294.367 168.064C294.687 168.395 294.847 168.864 294.847 169.472C294.847 170.272 294.501 170.912 293.807 171.392C293.114 171.872 292.17 172.112 290.975 172.112ZM301.418 163.36C302.495 163.36 303.359 163.675 304.01 164.304C304.66 164.933 304.986 165.867 304.986 167.104V172H302.986V167.36C302.986 166.613 302.81 166.053 302.458 165.68C302.106 165.296 301.604 165.104 300.954 165.104C300.218 165.104 299.636 165.328 299.21 165.776C298.783 166.213 298.57 166.848 298.57 167.68V172H296.57V160.128H298.57V164.448C298.9 164.096 299.306 163.829 299.786 163.648C300.276 163.456 300.82 163.36 301.418 163.36ZM307.523 163.456H309.523V172H307.523V163.456ZM308.531 162.048C308.168 162.048 307.864 161.936 307.619 161.712C307.374 161.477 307.251 161.189 307.251 160.848C307.251 160.507 307.374 160.224 307.619 160C307.864 159.765 308.168 159.648 308.531 159.648C308.894 159.648 309.198 159.76 309.443 159.984C309.688 160.197 309.811 160.469 309.811 160.8C309.811 161.152 309.688 161.451 309.443 161.696C309.208 161.931 308.904 162.048 308.531 162.048ZM316.884 163.36C317.716 163.36 318.457 163.541 319.108 163.904C319.769 164.267 320.287 164.779 320.66 165.44C321.033 166.101 321.22 166.864 321.22 167.728C321.22 168.592 321.033 169.36 320.66 170.032C320.287 170.693 319.769 171.205 319.108 171.568C318.457 171.931 317.716 172.112 316.884 172.112C315.732 172.112 314.82 171.728 314.148 170.96V175.104H312.148V163.456H314.052V164.576C314.383 164.171 314.788 163.867 315.268 163.664C315.759 163.461 316.297 163.36 316.884 163.36ZM316.66 170.4C317.396 170.4 317.999 170.155 318.468 169.664C318.948 169.173 319.188 168.528 319.188 167.728C319.188 166.928 318.948 166.283 318.468 165.792C317.999 165.301 317.396 165.056 316.66 165.056C316.18 165.056 315.748 165.168 315.364 165.392C314.98 165.605 314.676 165.915 314.452 166.32C314.228 166.725 314.116 167.195 314.116 167.728C314.116 168.261 314.228 168.731 314.452 169.136C314.676 169.541 314.98 169.856 315.364 170.08C315.748 170.293 316.18 170.4 316.66 170.4Z" fill="#333333"/>
<path d="M231.195 173.6H321.812V174.4H231.195V173.6Z" fill="#333333"/>
<path d="M211 64L198.391 48H171" stroke="#B9DEF9" stroke-width="2" stroke-linecap="round" stroke-linejoin="round"/>
<g filter="url(#filter1_d)">
<rect x="20" y="20" width="154" height="56" rx="8" fill="white"/>
<path d="M33.348 31.2H29.316V41H31.136V38.172H33.348C35.924 38.172 37.52 36.842 37.52 34.686C37.52 32.516 35.924 31.2 33.348 31.2ZM33.264 36.632H31.136V32.74H33.264C34.86 32.74 35.686 33.454 35.686 34.686C35.686 35.918 34.86 36.632 33.264 36.632ZM40.7671 34.616V33.524H39.1011V41H40.8511V37.374C40.8511 35.848 41.6911 35.064 43.0211 35.064C43.1471 35.064 43.2731 35.078 43.4271 35.106V33.44C42.1811 33.44 41.2711 33.832 40.7671 34.616ZM45.7937 32.292C46.4517 32.292 46.9137 31.816 46.9137 31.2C46.9137 30.626 46.4377 30.192 45.7937 30.192C45.1497 30.192 44.6737 30.654 44.6737 31.242C44.6737 31.83 45.1497 32.292 45.7937 32.292ZM44.9117 41H46.6617V33.524H44.9117V41ZM54.2785 33.524L51.8845 39.068L49.5605 33.524H47.7405L50.9465 41H52.7525L55.9585 33.524H54.2785ZM59.6759 33.44C58.4719 33.44 57.3099 33.748 56.5119 34.364L57.1979 35.638C57.7579 35.176 58.6259 34.896 59.4659 34.896C60.7119 34.896 61.3279 35.498 61.3279 36.52V36.632H59.3959C57.1279 36.632 56.2879 37.612 56.2879 38.858C56.2879 40.16 57.3659 41.098 59.0739 41.098C60.1939 41.098 61.0059 40.734 61.4259 40.09V41H63.0779V36.618C63.0779 34.462 61.8319 33.44 59.6759 33.44ZM59.4379 39.824C58.5419 39.824 58.0099 39.418 58.0099 38.788C58.0099 38.242 58.3319 37.794 59.5219 37.794H61.3279V38.662C61.0339 39.432 60.2919 39.824 59.4379 39.824ZM69.3278 39.348C69.0618 39.558 68.7118 39.656 68.3478 39.656C67.6758 39.656 67.3118 39.264 67.3118 38.536V34.98H69.3138V33.58H67.3118V31.872H65.5618V33.58H64.3298V34.98H65.5618V38.578C65.5618 40.23 66.4998 41.098 68.1378 41.098C68.7678 41.098 69.3978 40.93 69.8178 40.594L69.3278 39.348ZM78.0393 37.304C78.0393 34.966 76.4433 33.44 74.2593 33.44C72.0333 33.44 70.3953 35.036 70.3953 37.262C70.3953 39.488 72.0193 41.098 74.5253 41.098C75.8133 41.098 76.8633 40.678 77.5353 39.88L76.5973 38.802C76.0653 39.348 75.4073 39.614 74.5673 39.614C73.2653 39.614 72.3553 38.914 72.1453 37.822H78.0113C78.0253 37.654 78.0393 37.444 78.0393 37.304ZM74.2593 34.84C75.4073 34.84 76.2333 35.582 76.3733 36.66H72.1313C72.2993 35.568 73.1253 34.84 74.2593 34.84ZM85.3254 43.716H86.9914C85.8294 41.672 85.3394 39.558 85.3394 37.164C85.3394 34.77 85.8294 32.656 86.9914 30.612H85.3254C84.2334 32.278 83.6174 34.588 83.6174 37.164C83.6174 39.74 84.2334 42.022 85.3254 43.716ZM96.3735 37.234H94.6375V35.26H92.9295V37.234H89.7235L94.2735 31.2H92.3275L87.4975 37.514V38.774H92.8735V41H94.6375V38.774H96.3735V37.234ZM101.227 41.14C103.565 41.14 105.329 39.32 105.329 36.1C105.329 32.88 103.565 31.06 101.227 31.06C98.9034 31.06 97.1394 32.88 97.1394 36.1C97.1394 39.32 98.9034 41.14 101.227 41.14ZM101.227 39.558C99.8974 39.558 98.9734 38.466 98.9734 36.1C98.9734 33.734 99.8974 32.642 101.227 32.642C102.571 32.642 103.495 33.734 103.495 36.1C103.495 38.466 102.571 39.558 101.227 39.558ZM108.743 36.478C110.143 36.478 111.095 35.414 111.095 33.79C111.095 32.166 110.143 31.102 108.743 31.102C107.343 31.102 106.405 32.18 106.405 33.79C106.405 35.4 107.343 36.478 108.743 36.478ZM107.931 41H109.303L115.995 31.2H114.623L107.931 41ZM108.743 35.498C108.015 35.498 107.539 34.868 107.539 33.79C107.539 32.712 108.015 32.082 108.743 32.082C109.499 32.082 109.947 32.698 109.947 33.79C109.947 34.882 109.499 35.498 108.743 35.498ZM115.169 41.098C116.569 41.098 117.521 40.02 117.521 38.41C117.521 36.8 116.569 35.722 115.169 35.722C113.769 35.722 112.831 36.8 112.831 38.41C112.831 40.02 113.769 41.098 115.169 41.098ZM115.169 40.118C114.427 40.118 113.965 39.502 113.965 38.41C113.965 37.318 114.427 36.702 115.169 36.702C115.911 36.702 116.373 37.332 116.373 38.41C116.373 39.488 115.911 40.118 115.169 40.118ZM119.689 43.716C120.795 42.022 121.397 39.74 121.397 37.164C121.397 34.588 120.795 32.278 119.689 30.612H118.023C119.185 32.656 119.689 34.77 119.689 37.164C119.689 39.558 119.185 41.672 118.023 43.716H119.689ZM31.094 63.46L33.712 60.968C35.07 59.694 35.336 58.826 35.336 57.874C35.336 56.138 33.964 55.06 31.836 55.06C30.226 55.06 28.868 55.662 28.112 56.684L29.386 57.664C29.932 56.964 30.73 56.642 31.682 56.642C32.886 56.642 33.502 57.16 33.502 58.056C33.502 58.602 33.334 59.176 32.382 60.086L28.49 63.782V65H35.714V63.46H31.094ZM40.8114 65.14C43.1494 65.14 44.9134 63.32 44.9134 60.1C44.9134 56.88 43.1494 55.06 40.8114 55.06C38.4874 55.06 36.7234 56.88 36.7234 60.1C36.7234 63.32 38.4874 65.14 40.8114 65.14ZM40.8114 63.558C39.4814 63.558 38.5574 62.466 38.5574 60.1C38.5574 57.734 39.4814 56.642 40.8114 56.642C42.1554 56.642 43.0794 57.734 43.0794 60.1C43.0794 62.466 42.1554 63.558 40.8114 63.558ZM47.0853 62.774C46.4413 62.774 45.9513 63.236 45.9513 63.936C45.9513 64.44 46.2173 64.804 46.6093 64.972L46.0493 67.114H47.1833L47.8973 65.14C48.1493 64.496 48.2193 64.244 48.2193 63.936C48.2193 63.25 47.7433 62.774 47.0853 62.774ZM53.3212 65.14C55.6592 65.14 57.4232 63.32 57.4232 60.1C57.4232 56.88 55.6592 55.06 53.3212 55.06C50.9972 55.06 49.2332 56.88 49.2332 60.1C49.2332 63.32 50.9972 65.14 53.3212 65.14ZM53.3212 63.558C51.9912 63.558 51.0672 62.466 51.0672 60.1C51.0672 57.734 51.9912 56.642 53.3212 56.642C54.6652 56.642 55.5892 57.734 55.5892 60.1C55.5892 62.466 54.6652 63.558 53.3212 63.558ZM62.7411 65.14C65.0791 65.14 66.8431 63.32 66.8431 60.1C66.8431 56.88 65.0791 55.06 62.7411 55.06C60.4171 55.06 58.6531 56.88 58.6531 60.1C58.6531 63.32 60.4171 65.14 62.7411 65.14ZM62.7411 63.558C61.4111 63.558 60.4871 62.466 60.4871 60.1C60.4871 57.734 61.4111 56.642 62.7411 56.642C64.0851 56.642 65.0091 57.734 65.0091 60.1C65.0091 62.466 64.0851 63.558 62.7411 63.558ZM72.161 65.14C74.499 65.14 76.263 63.32 76.263 60.1C76.263 56.88 74.499 55.06 72.161 55.06C69.837 55.06 68.073 56.88 68.073 60.1C68.073 63.32 69.837 65.14 72.161 65.14ZM72.161 63.558C70.831 63.558 69.907 62.466 69.907 60.1C69.907 57.734 70.831 56.642 72.161 56.642C73.505 56.642 74.429 57.734 74.429 60.1C74.429 62.466 73.505 63.558 72.161 63.558ZM86.2761 65.14C88.9501 65.14 90.5601 63.586 90.5601 60.73V55.2H88.7681V60.66C88.7681 62.676 87.8721 63.544 86.2901 63.544C84.7081 63.544 83.7981 62.676 83.7981 60.66V55.2H81.9781V60.73C81.9781 63.586 83.5881 65.14 86.2761 65.14ZM97.183 57.44C96.091 57.44 95.181 57.804 94.607 58.49V57.524H92.941V65H94.691V61.22C94.691 59.722 95.531 58.966 96.777 58.966C97.897 58.966 98.555 59.61 98.555 60.94V65H100.305V60.716C100.305 58.462 98.975 57.44 97.183 57.44ZM103.407 56.292C104.065 56.292 104.527 55.816 104.527 55.2C104.527 54.626 104.051 54.192 103.407 54.192C102.763 54.192 102.287 54.654 102.287 55.242C102.287 55.83 102.763 56.292 103.407 56.292ZM102.525 65H104.275V57.524H102.525V65ZM111.892 57.524L109.498 63.068L107.174 57.524H105.354L108.56 65H110.366L113.572 57.524H111.892ZM121.489 61.304C121.489 58.966 119.893 57.44 117.709 57.44C115.483 57.44 113.845 59.036 113.845 61.262C113.845 63.488 115.469 65.098 117.975 65.098C119.263 65.098 120.312 64.678 120.985 63.88L120.047 62.802C119.515 63.348 118.857 63.614 118.017 63.614C116.715 63.614 115.805 62.914 115.595 61.822H121.461C121.475 61.654 121.489 61.444 121.489 61.304ZM117.709 58.84C118.857 58.84 119.683 59.582 119.823 60.66H115.581C115.749 59.568 116.575 58.84 117.709 58.84ZM124.835 58.616V57.524H123.169V65H124.919V61.374C124.919 59.848 125.759 59.064 127.089 59.064C127.215 59.064 127.341 59.078 127.495 59.106V57.44C126.249 57.44 125.339 57.832 124.835 58.616ZM131.317 65.098C133.417 65.098 134.705 64.188 134.705 62.788C134.705 59.862 130.085 61.206 130.085 59.694C130.085 59.204 130.589 58.854 131.653 58.854C132.367 58.854 133.081 58.994 133.795 59.414L134.467 58.084C133.795 57.678 132.661 57.44 131.667 57.44C129.651 57.44 128.377 58.364 128.377 59.778C128.377 62.76 132.997 61.416 132.997 62.844C132.997 63.362 132.535 63.67 131.429 63.67C130.491 63.67 129.483 63.362 128.825 62.928L128.153 64.258C128.825 64.734 130.071 65.098 131.317 65.098ZM137.094 56.292C137.752 56.292 138.214 55.816 138.214 55.2C138.214 54.626 137.738 54.192 137.094 54.192C136.45 54.192 135.974 54.654 135.974 55.242C135.974 55.83 136.45 56.292 137.094 56.292ZM136.212 65H137.962V57.524H136.212V65ZM144.263 63.348C143.997 63.558 143.647 63.656 143.283 63.656C142.611 63.656 142.247 63.264 142.247 62.536V58.98H144.249V57.58H142.247V55.872H140.497V57.58H139.265V58.98H140.497V62.578C140.497 64.23 141.435 65.098 143.073 65.098C143.703 65.098 144.333 64.93 144.753 64.594L144.263 63.348ZM147.075 56.292C147.733 56.292 148.195 55.816 148.195 55.2C148.195 54.626 147.719 54.192 147.075 54.192C146.431 54.192 145.955 54.654 145.955 55.242C145.955 55.83 146.431 56.292 147.075 56.292ZM146.193 65H147.943V57.524H146.193V65ZM157.268 61.304C157.268 58.966 155.672 57.44 153.488 57.44C151.262 57.44 149.624 59.036 149.624 61.262C149.624 63.488 151.248 65.098 153.754 65.098C155.042 65.098 156.092 64.678 156.764 63.88L155.826 62.802C155.294 63.348 154.636 63.614 153.796 63.614C152.494 63.614 151.584 62.914 151.374 61.822H157.24C157.254 61.654 157.268 61.444 157.268 61.304ZM153.488 58.84C154.636 58.84 155.462 59.582 155.602 60.66H151.36C151.528 59.568 152.354 58.84 153.488 58.84ZM161.259 65.098C163.359 65.098 164.647 64.188 164.647 62.788C164.647 59.862 160.027 61.206 160.027 59.694C160.027 59.204 160.531 58.854 161.595 58.854C162.309 58.854 163.023 58.994 163.737 59.414L164.409 58.084C163.737 57.678 162.603 57.44 161.609 57.44C159.593 57.44 158.319 58.364 158.319 59.778C158.319 62.76 162.939 61.416 162.939 62.844C162.939 63.362 162.477 63.67 161.371 63.67C160.433 63.67 159.425 63.362 158.767 62.928L158.095 64.258C158.767 64.734 160.013 65.098 161.259 65.098Z" fill="#333333"/>
</g>
<defs>
<filter id="filter0_d" x="374" y="264" width="162" height="64" filterUnits="userSpaceOnUse" color-interpolation-filters="sRGB">
<feFlood flood-opacity="0" result="BackgroundImageFix"/>
<feColorMatrix in="SourceAlpha" type="matrix" values="0 0 0 0 0 0 0 0 0 0 0 0 0 0 0 0 0 0 127 0"/>
<feOffset dy="1"/>
<feGaussianBlur stdDeviation="2"/>
<feColorMatrix type="matrix" values="0 0 0 0 0 0 0 0 0 0 0 0 0 0 0 0 0 0 0.08 0"/>
<feBlend mode="normal" in2="BackgroundImageFix" result="effect1_dropShadow"/>
<feBlend mode="normal" in="SourceGraphic" in2="effect1_dropShadow" result="shape"/>
</filter>
<filter id="filter1_d" x="16" y="17" width="162" height="64" filterUnits="userSpaceOnUse" color-interpolation-filters="sRGB">
<feFlood flood-opacity="0" result="BackgroundImageFix"/>
<feColorMatrix in="SourceAlpha" type="matrix" values="0 0 0 0 0 0 0 0 0 0 0 0 0 0 0 0 0 0 127 0"/>
<feOffset dy="1"/>
<feGaussianBlur stdDeviation="2"/>
<feColorMatrix type="matrix" values="0 0 0 0 0 0 0 0 0 0 0 0 0 0 0 0 0 0 0.08 0"/>
<feBlend mode="normal" in2="BackgroundImageFix" result="effect1_dropShadow"/>
<feBlend mode="normal" in="SourceGraphic" in2="effect1_dropShadow" result="shape"/>
</filter>
</defs>
</svg>
