<svg width="552" height="344" viewBox="0 0 552 344" fill="none" xmlns="http://www.w3.org/2000/svg">
<rect width="552" height="344" rx="24" fill="#F6F7FE"/>
<path d="M412.001 166C412.001 238.902 352.903 298 280.001 298C207.099 298 148.001 238.902 148.001 166C148.001 93.0984 207.099 34 280.001 34C352.903 34 412.001 93.0984 412.001 166ZM181.001 166C181.001 220.676 225.325 265 280.001 265C334.677 265 379.001 220.676 379.001 166C379.001 111.324 334.677 67 280.001 67C225.325 67 181.001 111.324 181.001 166Z" fill="#D0D7FB"/>
<path d="M401.853 171.985C407.369 172.256 411.66 176.956 410.973 182.436C408.152 204.913 399.585 226.346 386.024 244.631C370.472 265.601 349.051 281.488 324.47 290.283C299.889 299.079 273.252 300.388 247.928 294.044C222.603 287.701 199.728 273.99 182.195 254.646C164.662 235.302 153.26 211.194 149.429 185.369C145.598 159.545 149.511 133.164 160.673 109.564C171.835 85.9629 189.745 66.2022 212.137 52.7803C231.664 41.0765 253.834 34.651 276.479 34.0468C282 33.8995 286.256 38.6306 285.985 44.1468L285.347 57.1312C285.077 62.6474 280.376 66.8467 274.861 67.1333C258.748 67.9708 243.029 72.7382 229.103 81.0852C212.309 91.1516 198.876 105.972 190.505 123.673C182.133 141.373 179.198 161.159 182.072 180.527C184.945 199.895 193.497 217.977 206.646 232.485C219.796 246.993 236.952 257.276 255.946 262.033C274.939 266.791 294.917 265.809 313.353 259.213C331.788 252.616 347.854 240.701 359.518 224.974C369.189 211.933 375.474 196.757 377.887 180.803C378.713 175.343 383.352 171.077 388.869 171.347L401.853 171.985Z" fill="#7287F3"/>
<path d="M399.448 312.152L398.728 315.74H403.192L403.084 316.292H398.62L397.876 320H397.264L398.944 311.6H404.56L404.44 312.152H399.448ZM407.083 320.048C406.235 320.048 405.559 319.812 405.055 319.34C404.559 318.868 404.311 318.236 404.311 317.444C404.311 316.732 404.463 316.092 404.767 315.524C405.079 314.956 405.507 314.508 406.051 314.18C406.595 313.852 407.211 313.688 407.899 313.688C408.747 313.688 409.419 313.924 409.915 314.396C410.419 314.86 410.671 315.492 410.671 316.292C410.671 317.004 410.515 317.648 410.203 318.224C409.899 318.792 409.475 319.24 408.931 319.568C408.387 319.888 407.771 320.048 407.083 320.048ZM407.131 319.508C407.691 319.508 408.191 319.372 408.631 319.1C409.079 318.828 409.431 318.452 409.687 317.972C409.943 317.484 410.071 316.936 410.071 316.328C410.071 315.664 409.875 315.148 409.483 314.78C409.099 314.412 408.555 314.228 407.851 314.228C407.291 314.228 406.787 314.368 406.339 314.648C405.899 314.92 405.551 315.3 405.295 315.788C405.039 316.268 404.911 316.808 404.911 317.408C404.911 318.072 405.103 318.588 405.487 318.956C405.879 319.324 406.427 319.508 407.131 319.508ZM413.421 315.056C413.701 314.6 414.057 314.26 414.489 314.036C414.929 313.804 415.461 313.688 416.085 313.688L415.977 314.276L415.785 314.264C415.073 314.264 414.489 314.476 414.033 314.9C413.577 315.324 413.265 315.952 413.097 316.784L412.449 320H411.849L413.097 313.736H413.685L413.421 315.056ZM420.746 318.188C420.714 318.34 420.698 318.488 420.698 318.632C420.698 319.232 421.018 319.532 421.658 319.532C422.042 319.532 422.382 319.416 422.678 319.184L422.858 319.628C422.514 319.908 422.066 320.048 421.514 320.048C421.066 320.048 420.714 319.932 420.458 319.7C420.21 319.46 420.086 319.132 420.086 318.716C420.086 318.548 420.102 318.388 420.134 318.236L420.938 314.252H419.774L419.87 313.736H421.034L421.31 312.368H421.91L421.634 313.736H423.626L423.53 314.252H421.538L420.746 318.188ZM428.623 313.688C429.335 313.688 429.883 313.868 430.267 314.228C430.651 314.58 430.843 315.068 430.843 315.692C430.843 315.908 430.819 316.136 430.771 316.376L430.051 320H429.451L430.171 316.376C430.211 316.192 430.231 315.992 430.231 315.776C430.231 315.28 430.079 314.9 429.775 314.636C429.479 314.364 429.043 314.228 428.467 314.228C427.747 314.228 427.147 314.432 426.667 314.84C426.187 315.24 425.871 315.824 425.719 316.592L425.035 320H424.435L426.211 311.096H426.811L426.055 314.9C426.647 314.092 427.503 313.688 428.623 313.688ZM433.037 317C433.021 317.176 433.013 317.308 433.013 317.396C433.013 318.076 433.209 318.6 433.601 318.968C433.993 319.328 434.569 319.508 435.329 319.508C435.769 319.508 436.173 319.436 436.541 319.292C436.917 319.14 437.229 318.932 437.477 318.668L437.753 319.088C437.473 319.392 437.113 319.628 436.673 319.796C436.241 319.964 435.777 320.048 435.281 320.048C434.393 320.048 433.693 319.816 433.181 319.352C432.677 318.888 432.425 318.244 432.425 317.42C432.425 316.716 432.573 316.08 432.869 315.512C433.165 314.944 433.573 314.5 434.093 314.18C434.613 313.852 435.197 313.688 435.845 313.688C436.661 313.688 437.309 313.92 437.789 314.384C438.269 314.848 438.509 315.488 438.509 316.304C438.509 316.496 438.485 316.728 438.437 317H433.037ZM435.833 314.204C435.153 314.204 434.565 314.416 434.069 314.84C433.581 315.264 433.261 315.828 433.109 316.532H437.933C437.941 316.46 437.945 316.356 437.945 316.22C437.945 315.588 437.753 315.096 437.369 314.744C436.985 314.384 436.473 314.204 435.833 314.204ZM449.063 313.736L444.383 320.924C444.031 321.468 443.695 321.844 443.375 322.052C443.063 322.268 442.691 322.376 442.259 322.376C441.971 322.376 441.699 322.328 441.443 322.232C441.187 322.136 440.987 322 440.843 321.824L441.191 321.38C441.471 321.692 441.847 321.848 442.319 321.848C442.607 321.848 442.867 321.768 443.099 321.608C443.339 321.448 443.591 321.168 443.855 320.768L444.383 319.976L442.799 313.736H443.411L444.815 319.34L448.439 313.736H449.063ZM449.455 317C449.439 317.176 449.431 317.308 449.431 317.396C449.431 318.076 449.627 318.6 450.019 318.968C450.411 319.328 450.987 319.508 451.747 319.508C452.187 319.508 452.591 319.436 452.959 319.292C453.335 319.14 453.647 318.932 453.895 318.668L454.171 319.088C453.891 319.392 453.531 319.628 453.091 319.796C452.659 319.964 452.195 320.048 451.699 320.048C450.811 320.048 450.111 319.816 449.599 319.352C449.095 318.888 448.843 318.244 448.843 317.42C448.843 316.716 448.991 316.08 449.287 315.512C449.583 314.944 449.991 314.5 450.511 314.18C451.031 313.852 451.615 313.688 452.263 313.688C453.079 313.688 453.727 313.92 454.207 314.384C454.687 314.848 454.927 315.488 454.927 316.304C454.927 316.496 454.903 316.728 454.855 317H449.455ZM452.251 314.204C451.571 314.204 450.983 314.416 450.487 314.84C449.999 315.264 449.679 315.828 449.527 316.532H454.351C454.359 316.46 454.363 316.356 454.363 316.22C454.363 315.588 454.171 315.096 453.787 314.744C453.403 314.384 452.891 314.204 452.251 314.204ZM462.939 313.736L461.691 320H461.115L461.355 318.776C461.051 319.176 460.671 319.488 460.215 319.712C459.767 319.936 459.267 320.048 458.715 320.048C457.899 320.048 457.243 319.816 456.747 319.352C456.259 318.88 456.015 318.244 456.015 317.444C456.015 316.732 456.167 316.092 456.471 315.524C456.775 314.948 457.195 314.5 457.731 314.18C458.275 313.852 458.883 313.688 459.555 313.688C460.203 313.688 460.739 313.828 461.163 314.108C461.587 314.388 461.875 314.784 462.027 315.296L462.339 313.736H462.939ZM458.835 319.508C459.395 319.508 459.895 319.372 460.335 319.1C460.783 318.828 461.135 318.452 461.391 317.972C461.647 317.484 461.775 316.936 461.775 316.328C461.775 315.664 461.579 315.148 461.187 314.78C460.803 314.412 460.259 314.228 459.555 314.228C458.995 314.228 458.491 314.368 458.043 314.648C457.603 314.92 457.255 315.3 456.999 315.788C456.743 316.268 456.615 316.808 456.615 317.408C456.615 318.072 456.807 318.588 457.191 318.956C457.583 319.324 458.131 319.508 458.835 319.508ZM465.78 315.056C466.06 314.6 466.416 314.26 466.848 314.036C467.288 313.804 467.82 313.688 468.444 313.688L468.336 314.276L468.144 314.264C467.432 314.264 466.848 314.476 466.392 314.9C465.936 315.324 465.624 315.952 465.456 316.784L464.808 320H464.208L465.456 313.736H466.044L465.78 315.056ZM472.313 319.448H477.125L477.017 320H471.233L471.329 319.568L475.625 316.052C476.249 315.54 476.677 315.1 476.909 314.732C477.149 314.364 477.269 313.972 477.269 313.556C477.269 313.1 477.105 312.744 476.777 312.488C476.457 312.224 475.969 312.092 475.313 312.092C474.841 312.092 474.389 312.18 473.957 312.356C473.525 312.524 473.165 312.764 472.877 313.076L472.445 312.704C472.789 312.336 473.217 312.052 473.729 311.852C474.249 311.644 474.801 311.54 475.385 311.54C476.193 311.54 476.809 311.716 477.233 312.068C477.665 312.42 477.881 312.892 477.881 313.484C477.881 313.98 477.745 314.456 477.473 314.912C477.201 315.36 476.725 315.86 476.045 316.412L472.313 319.448ZM481.488 320.06C480.656 320.06 480.004 319.796 479.532 319.268C479.068 318.74 478.836 318.004 478.836 317.06C478.836 316.108 479.008 315.212 479.352 314.372C479.696 313.524 480.184 312.84 480.816 312.32C481.448 311.8 482.18 311.54 483.012 311.54C483.844 311.54 484.492 311.804 484.956 312.332C485.42 312.86 485.652 313.596 485.652 314.54C485.652 315.492 485.48 316.392 485.136 317.24C484.8 318.08 484.316 318.76 483.684 319.28C483.052 319.8 482.32 320.06 481.488 320.06ZM481.548 319.496C482.252 319.496 482.868 319.252 483.396 318.764C483.932 318.276 484.34 317.652 484.62 316.892C484.908 316.132 485.052 315.352 485.052 314.552C485.052 313.768 484.868 313.164 484.5 312.74C484.132 312.316 483.616 312.104 482.952 312.104C482.24 312.104 481.62 312.348 481.092 312.836C480.564 313.324 480.156 313.948 479.868 314.708C479.588 315.468 479.448 316.248 479.448 317.048C479.448 317.832 479.628 318.436 479.988 318.86C480.356 319.284 480.876 319.496 481.548 319.496ZM489.807 311.6L488.127 320H487.515L489.087 312.152H487.035L487.143 311.6H489.807ZM495.609 315.68C496.065 315.848 496.413 316.092 496.653 316.412C496.893 316.724 497.013 317.1 497.013 317.54C497.013 318.052 496.873 318.5 496.593 318.884C496.321 319.26 495.933 319.552 495.429 319.76C494.925 319.96 494.337 320.06 493.665 320.06C492.721 320.06 491.981 319.868 491.445 319.484C490.917 319.092 490.653 318.556 490.653 317.876C490.653 317.26 490.849 316.748 491.241 316.34C491.633 315.932 492.189 315.66 492.909 315.524C492.533 315.364 492.245 315.144 492.045 314.864C491.853 314.584 491.757 314.256 491.757 313.88C491.757 313.408 491.881 312.996 492.129 312.644C492.377 312.284 492.729 312.012 493.185 311.828C493.641 311.636 494.173 311.54 494.781 311.54C495.613 311.54 496.277 311.72 496.773 312.08C497.277 312.44 497.529 312.928 497.529 313.544C497.529 314.088 497.361 314.548 497.025 314.924C496.689 315.292 496.217 315.544 495.609 315.68ZM492.381 313.844C492.381 314.316 492.569 314.688 492.945 314.96C493.321 315.232 493.849 315.368 494.529 315.368C495.265 315.368 495.845 315.212 496.269 314.9C496.701 314.58 496.917 314.152 496.917 313.616C496.917 313.136 496.721 312.76 496.329 312.488C495.937 312.208 495.409 312.068 494.745 312.068C494.025 312.068 493.449 312.228 493.017 312.548C492.593 312.868 492.381 313.3 492.381 313.844ZM493.689 319.532C494.529 319.532 495.189 319.356 495.669 319.004C496.157 318.644 496.401 318.16 496.401 317.552C496.401 317.032 496.185 316.624 495.753 316.328C495.321 316.024 494.721 315.872 493.953 315.872C493.121 315.872 492.465 316.052 491.985 316.412C491.505 316.764 491.265 317.24 491.265 317.84C491.265 318.368 491.477 318.784 491.901 319.088C492.333 319.384 492.929 319.532 493.689 319.532ZM501.689 316.508H504.773L504.665 317.048H501.581L501.689 316.508ZM509.461 319.448H514.273L514.165 320H508.381L508.477 319.568L512.773 316.052C513.397 315.54 513.825 315.1 514.057 314.732C514.297 314.364 514.417 313.972 514.417 313.556C514.417 313.1 514.253 312.744 513.925 312.488C513.605 312.224 513.117 312.092 512.461 312.092C511.989 312.092 511.537 312.18 511.105 312.356C510.673 312.524 510.313 312.764 510.025 313.076L509.593 312.704C509.937 312.336 510.365 312.052 510.877 311.852C511.397 311.644 511.949 311.54 512.533 311.54C513.341 311.54 513.957 311.716 514.381 312.068C514.813 312.42 515.029 312.892 515.029 313.484C515.029 313.98 514.893 314.456 514.621 314.912C514.349 315.36 513.873 315.86 513.193 316.412L509.461 319.448ZM518.636 320.06C517.804 320.06 517.152 319.796 516.68 319.268C516.216 318.74 515.984 318.004 515.984 317.06C515.984 316.108 516.156 315.212 516.5 314.372C516.844 313.524 517.332 312.84 517.964 312.32C518.596 311.8 519.328 311.54 520.16 311.54C520.992 311.54 521.64 311.804 522.104 312.332C522.568 312.86 522.8 313.596 522.8 314.54C522.8 315.492 522.628 316.392 522.284 317.24C521.948 318.08 521.464 318.76 520.832 319.28C520.2 319.8 519.468 320.06 518.636 320.06ZM518.696 319.496C519.4 319.496 520.016 319.252 520.544 318.764C521.08 318.276 521.488 317.652 521.768 316.892C522.056 316.132 522.2 315.352 522.2 314.552C522.2 313.768 522.016 313.164 521.648 312.74C521.28 312.316 520.764 312.104 520.1 312.104C519.388 312.104 518.768 312.348 518.24 312.836C517.712 313.324 517.304 313.948 517.016 314.708C516.736 315.468 516.596 316.248 516.596 317.048C516.596 317.832 516.776 318.436 517.136 318.86C517.504 319.284 518.024 319.496 518.696 319.496ZM526.955 311.6L525.275 320H524.663L526.235 312.152H524.183L524.291 311.6H526.955ZM531.257 311.54C532.169 311.54 532.897 311.82 533.441 312.38C533.985 312.932 534.257 313.736 534.257 314.792C534.257 315.664 534.101 316.5 533.789 317.3C533.485 318.1 532.993 318.76 532.313 319.28C531.633 319.8 530.769 320.06 529.721 320.06C528.913 320.06 528.269 319.912 527.789 319.616L528.089 319.112C528.505 319.384 529.065 319.52 529.769 319.52C530.633 319.52 531.349 319.304 531.917 318.872C532.485 318.44 532.905 317.888 533.177 317.216C533.449 316.544 533.597 315.832 533.621 315.08C533.373 315.584 533.009 315.96 532.529 316.208C532.057 316.448 531.533 316.568 530.957 316.568C530.445 316.568 529.985 316.476 529.577 316.292C529.177 316.108 528.861 315.84 528.629 315.488C528.397 315.136 528.281 314.716 528.281 314.228C528.281 313.684 528.405 313.208 528.653 312.8C528.909 312.392 529.261 312.08 529.709 311.864C530.165 311.648 530.681 311.54 531.257 311.54ZM531.065 316.04C531.545 316.04 531.969 315.948 532.337 315.764C532.713 315.58 533.001 315.328 533.201 315.008C533.409 314.688 533.513 314.336 533.513 313.952C533.513 313.632 533.425 313.328 533.249 313.04C533.081 312.752 532.825 312.52 532.481 312.344C532.145 312.16 531.737 312.068 531.257 312.068C530.545 312.068 529.973 312.26 529.541 312.644C529.117 313.02 528.905 313.532 528.905 314.18C528.905 314.764 529.101 315.22 529.493 315.548C529.893 315.876 530.417 316.04 531.065 316.04Z" fill="black"/>
<path d="M209 278L194.5 295.5H163" stroke="#8A9BF5" stroke-width="2" stroke-linecap="round" stroke-linejoin="round"/>
<g filter="url(#filter0_d)">
<rect x="24" y="268" width="143" height="56" rx="8" fill="white"/>
<path d="M37.53 289.14C40.204 289.14 41.814 287.586 41.814 284.73V279.2H40.022V284.66C40.022 286.676 39.126 287.544 37.544 287.544C35.962 287.544 35.052 286.676 35.052 284.66V279.2H33.232V284.73C33.232 287.586 34.842 289.14 37.53 289.14ZM51.0549 287.04C50.4249 287.404 49.7389 287.544 49.0389 287.544C46.9669 287.544 45.4969 286.088 45.4969 284.1C45.4969 282.07 46.9669 280.656 49.0529 280.656C50.1029 280.656 50.9849 281.006 51.7549 281.776L52.9029 280.656C51.9789 279.606 50.6069 279.06 48.9689 279.06C45.9029 279.06 43.6629 281.174 43.6629 284.1C43.6629 287.026 45.9029 289.14 48.9409 289.14C50.3269 289.14 51.7549 288.72 52.7769 287.894V283.988H51.0549V287.04ZM60.6145 291.716H62.2805C61.1185 289.672 60.6285 287.558 60.6285 285.164C60.6285 282.77 61.1185 280.656 62.2805 278.612H60.6145C59.5225 280.278 58.9065 282.588 58.9065 285.164C58.9065 287.74 59.5225 290.022 60.6145 291.716ZM62.976 279.2V282.406H64.67V280.74H68.52L64.838 289H66.784L70.592 280.418V279.2H62.976ZM74.5375 282.994H73.5995L73.8095 280.726H78.0235V279.2H72.2695L71.7655 284.534H74.1315C76.1615 284.534 76.7635 285.122 76.7635 286.06C76.7635 286.984 75.9935 287.558 74.6915 287.558C73.5855 287.558 72.5215 287.18 71.8075 286.592L71.0375 288.006C71.9335 288.72 73.3335 289.14 74.7195 289.14C77.3515 289.14 78.5975 287.712 78.5975 285.99C78.5975 284.254 77.4355 282.994 74.5375 282.994ZM81.6945 284.478C83.0945 284.478 84.0465 283.414 84.0465 281.79C84.0465 280.166 83.0945 279.102 81.6945 279.102C80.2945 279.102 79.3565 280.18 79.3565 281.79C79.3565 283.4 80.2945 284.478 81.6945 284.478ZM80.8825 289H82.2545L88.9465 279.2H87.5745L80.8825 289ZM81.6945 283.498C80.9665 283.498 80.4905 282.868 80.4905 281.79C80.4905 280.712 80.9665 280.082 81.6945 280.082C82.4505 280.082 82.8985 280.698 82.8985 281.79C82.8985 282.882 82.4505 283.498 81.6945 283.498ZM88.1205 289.098C89.5205 289.098 90.4725 288.02 90.4725 286.41C90.4725 284.8 89.5205 283.722 88.1205 283.722C86.7205 283.722 85.7825 284.8 85.7825 286.41C85.7825 288.02 86.7205 289.098 88.1205 289.098ZM88.1205 288.118C87.3785 288.118 86.9165 287.502 86.9165 286.41C86.9165 285.318 87.3785 284.702 88.1205 284.702C88.8625 284.702 89.3245 285.332 89.3245 286.41C89.3245 287.488 88.8625 288.118 88.1205 288.118ZM92.64 291.716C93.746 290.022 94.348 287.74 94.348 285.164C94.348 282.588 93.746 280.278 92.64 278.612H90.974C92.136 280.656 92.64 282.77 92.64 285.164C92.64 287.558 92.136 289.672 90.974 291.716H92.64ZM36.788 307.246L39.168 304.418V303.2H32.49V304.726H36.942L34.716 307.372V308.618H35.612C37.096 308.618 37.74 309.192 37.74 310.074C37.74 310.984 36.97 311.558 35.668 311.558C34.562 311.558 33.498 311.18 32.798 310.592L32.014 312.006C32.924 312.72 34.31 313.14 35.696 313.14C38.328 313.14 39.574 311.712 39.574 310.06C39.574 308.59 38.636 307.484 36.788 307.246ZM43.6937 306.994H42.7557L42.9657 304.726H47.1797V303.2H41.4257L40.9217 308.534H43.2877C45.3177 308.534 45.9197 309.122 45.9197 310.06C45.9197 310.984 45.1497 311.558 43.8477 311.558C42.7417 311.558 41.6777 311.18 40.9637 310.592L40.1937 312.006C41.0897 312.72 42.4897 313.14 43.8757 313.14C46.5077 313.14 47.7537 311.712 47.7537 309.99C47.7537 308.254 46.5917 306.994 43.6937 306.994ZM52.8915 313.14C55.2295 313.14 56.9935 311.32 56.9935 308.1C56.9935 304.88 55.2295 303.06 52.8915 303.06C50.5675 303.06 48.8035 304.88 48.8035 308.1C48.8035 311.32 50.5675 313.14 52.8915 313.14ZM52.8915 311.558C51.5615 311.558 50.6375 310.466 50.6375 308.1C50.6375 305.734 51.5615 304.642 52.8915 304.642C54.2355 304.642 55.1595 305.734 55.1595 308.1C55.1595 310.466 54.2355 311.558 52.8915 311.558ZM59.1654 310.774C58.5214 310.774 58.0314 311.236 58.0314 311.936C58.0314 312.44 58.2974 312.804 58.6894 312.972L58.1294 315.114H59.2634L59.9774 313.14C60.2294 312.496 60.2994 312.244 60.2994 311.936C60.2994 311.25 59.8234 310.774 59.1654 310.774ZM65.4013 313.14C67.7393 313.14 69.5033 311.32 69.5033 308.1C69.5033 304.88 67.7393 303.06 65.4013 303.06C63.0773 303.06 61.3133 304.88 61.3133 308.1C61.3133 311.32 63.0773 313.14 65.4013 313.14ZM65.4013 311.558C64.0713 311.558 63.1473 310.466 63.1473 308.1C63.1473 305.734 64.0713 304.642 65.4013 304.642C66.7453 304.642 67.6693 305.734 67.6693 308.1C67.6693 310.466 66.7453 311.558 65.4013 311.558ZM74.8212 313.14C77.1592 313.14 78.9232 311.32 78.9232 308.1C78.9232 304.88 77.1592 303.06 74.8212 303.06C72.4972 303.06 70.7332 304.88 70.7332 308.1C70.7332 311.32 72.4972 313.14 74.8212 313.14ZM74.8212 311.558C73.4912 311.558 72.5672 310.466 72.5672 308.1C72.5672 305.734 73.4912 304.642 74.8212 304.642C76.1652 304.642 77.0892 305.734 77.0892 308.1C77.0892 310.466 76.1652 311.558 74.8212 311.558ZM84.2411 313.14C86.5791 313.14 88.3431 311.32 88.3431 308.1C88.3431 304.88 86.5791 303.06 84.2411 303.06C81.9171 303.06 80.1531 304.88 80.1531 308.1C80.1531 311.32 81.9171 313.14 84.2411 313.14ZM84.2411 311.558C82.9111 311.558 81.9871 310.466 81.9871 308.1C81.9871 305.734 82.9111 304.642 84.2411 304.642C85.5851 304.642 86.5091 305.734 86.5091 308.1C86.5091 310.466 85.5851 311.558 84.2411 311.558ZM97.1802 313.14C99.8682 313.14 101.142 311.796 101.142 310.228C101.142 306.63 95.3322 307.988 95.3322 305.902C95.3322 305.16 95.9482 304.572 97.4602 304.572C98.3142 304.572 99.2802 304.824 100.162 305.342L100.736 303.928C99.8822 303.368 98.6502 303.06 97.4742 303.06C94.7862 303.06 93.5262 304.404 93.5262 305.986C93.5262 309.626 99.3502 308.24 99.3502 310.354C99.3502 311.082 98.7062 311.628 97.1802 311.628C95.9762 311.628 94.7302 311.18 93.9462 310.55L93.3162 311.964C94.1282 312.664 95.6542 313.14 97.1802 313.14ZM106.783 311.348C106.517 311.558 106.167 311.656 105.803 311.656C105.131 311.656 104.767 311.264 104.767 310.536V306.98H106.769V305.58H104.767V303.872H103.017V305.58H101.785V306.98H103.017V310.578C103.017 312.23 103.955 313.098 105.593 313.098C106.223 313.098 106.853 312.93 107.273 312.594L106.783 311.348ZM114.2 305.524V309.304C114.2 310.802 113.374 311.558 112.156 311.558C111.05 311.558 110.406 310.914 110.406 309.556V305.524H108.656V309.794C108.656 312.048 109.958 313.098 111.876 313.098C112.842 313.098 113.724 312.734 114.284 312.048V313H115.95V305.524H114.2ZM123.814 302.612V306.448C123.226 305.762 122.372 305.44 121.406 305.44C119.236 305.44 117.626 306.938 117.626 309.262C117.626 311.586 119.236 313.098 121.406 313.098C122.428 313.098 123.296 312.748 123.884 312.034V313H125.564V302.612H123.814ZM121.616 311.6C120.356 311.6 119.39 310.69 119.39 309.262C119.39 307.834 120.356 306.924 121.616 306.924C122.876 306.924 123.842 307.834 123.842 309.262C123.842 310.69 122.876 311.6 121.616 311.6ZM134.881 309.304C134.881 306.966 133.285 305.44 131.101 305.44C128.875 305.44 127.237 307.036 127.237 309.262C127.237 311.488 128.861 313.098 131.367 313.098C132.655 313.098 133.705 312.678 134.377 311.88L133.439 310.802C132.907 311.348 132.249 311.614 131.409 311.614C130.107 311.614 129.197 310.914 128.987 309.822H134.853C134.867 309.654 134.881 309.444 134.881 309.304ZM131.101 306.84C132.249 306.84 133.075 307.582 133.215 308.66H128.973C129.141 307.568 129.967 306.84 131.101 306.84ZM140.804 305.44C139.712 305.44 138.802 305.804 138.228 306.49V305.524H136.562V313H138.312V309.22C138.312 307.722 139.152 306.966 140.398 306.966C141.518 306.966 142.176 307.61 142.176 308.94V313H143.926V308.716C143.926 306.462 142.596 305.44 140.804 305.44ZM150.15 311.348C149.884 311.558 149.534 311.656 149.17 311.656C148.498 311.656 148.134 311.264 148.134 310.536V306.98H150.136V305.58H148.134V303.872H146.384V305.58H145.152V306.98H146.384V310.578C146.384 312.23 147.322 313.098 148.96 313.098C149.59 313.098 150.22 312.93 150.64 312.594L150.15 311.348ZM154.39 313.098C156.49 313.098 157.778 312.188 157.778 310.788C157.778 307.862 153.158 309.206 153.158 307.694C153.158 307.204 153.662 306.854 154.726 306.854C155.44 306.854 156.154 306.994 156.868 307.414L157.54 306.084C156.868 305.678 155.734 305.44 154.74 305.44C152.724 305.44 151.45 306.364 151.45 307.778C151.45 310.76 156.07 309.416 156.07 310.844C156.07 311.362 155.608 311.67 154.502 311.67C153.564 311.67 152.556 311.362 151.898 310.928L151.226 312.258C151.898 312.734 153.144 313.098 154.39 313.098Z" fill="#333333"/>
</g>
<path d="M237.335 172.16C236.471 172.16 235.634 172.037 234.823 171.792C234.023 171.547 233.389 171.221 232.919 170.816L233.639 169.2C234.098 169.563 234.658 169.861 235.319 170.096C235.991 170.32 236.663 170.432 237.335 170.432C238.167 170.432 238.786 170.299 239.191 170.032C239.607 169.765 239.815 169.413 239.815 168.976C239.815 168.656 239.698 168.395 239.463 168.192C239.239 167.979 238.951 167.813 238.599 167.696C238.247 167.579 237.767 167.445 237.159 167.296C236.306 167.093 235.613 166.891 235.079 166.688C234.557 166.485 234.103 166.171 233.719 165.744C233.346 165.307 233.159 164.72 233.159 163.984C233.159 163.365 233.325 162.805 233.655 162.304C233.997 161.792 234.503 161.387 235.175 161.088C235.858 160.789 236.69 160.64 237.671 160.64C238.354 160.64 239.026 160.725 239.687 160.896C240.349 161.067 240.919 161.312 241.399 161.632L240.743 163.248C240.253 162.96 239.741 162.741 239.207 162.592C238.674 162.443 238.157 162.368 237.655 162.368C236.834 162.368 236.221 162.507 235.815 162.784C235.421 163.061 235.223 163.429 235.223 163.888C235.223 164.208 235.335 164.469 235.559 164.672C235.794 164.875 236.087 165.035 236.439 165.152C236.791 165.269 237.271 165.403 237.879 165.552C238.711 165.744 239.394 165.947 239.927 166.16C240.461 166.363 240.914 166.677 241.287 167.104C241.671 167.531 241.863 168.107 241.863 168.832C241.863 169.451 241.693 170.011 241.351 170.512C241.021 171.013 240.514 171.413 239.831 171.712C239.149 172.011 238.317 172.16 237.335 172.16ZM248.87 171.536C248.635 171.728 248.347 171.872 248.006 171.968C247.675 172.064 247.323 172.112 246.95 172.112C246.011 172.112 245.286 171.867 244.774 171.376C244.262 170.885 244.006 170.171 244.006 169.232V165.12H242.598V163.52H244.006V161.568H246.006V163.52H248.294V165.12H246.006V169.184C246.006 169.6 246.107 169.92 246.31 170.144C246.513 170.357 246.806 170.464 247.19 170.464C247.638 170.464 248.011 170.347 248.31 170.112L248.87 171.536ZM258.787 163.456V172H256.883V170.912C256.563 171.296 256.163 171.595 255.683 171.808C255.203 172.011 254.686 172.112 254.131 172.112C252.99 172.112 252.088 171.797 251.427 171.168C250.776 170.528 250.451 169.584 250.451 168.336V163.456H252.451V168.064C252.451 168.832 252.622 169.408 252.963 169.792C253.315 170.165 253.811 170.352 254.451 170.352C255.166 170.352 255.731 170.133 256.147 169.696C256.574 169.248 256.787 168.608 256.787 167.776V163.456H258.787ZM269.774 160.128V172H267.854V170.896C267.523 171.301 267.112 171.605 266.622 171.808C266.142 172.011 265.608 172.112 265.022 172.112C264.2 172.112 263.459 171.931 262.798 171.568C262.147 171.205 261.635 170.693 261.262 170.032C260.888 169.36 260.702 168.592 260.702 167.728C260.702 166.864 260.888 166.101 261.262 165.44C261.635 164.779 262.147 164.267 262.798 163.904C263.459 163.541 264.2 163.36 265.022 163.36C265.587 163.36 266.104 163.456 266.574 163.648C267.043 163.84 267.443 164.128 267.774 164.512V160.128H269.774ZM265.262 170.4C265.742 170.4 266.174 170.293 266.558 170.08C266.942 169.856 267.246 169.541 267.47 169.136C267.694 168.731 267.806 168.261 267.806 167.728C267.806 167.195 267.694 166.725 267.47 166.32C267.246 165.915 266.942 165.605 266.558 165.392C266.174 165.168 265.742 165.056 265.262 165.056C264.782 165.056 264.35 165.168 263.966 165.392C263.582 165.605 263.278 165.915 263.054 166.32C262.83 166.725 262.718 167.195 262.718 167.728C262.718 168.261 262.83 168.731 263.054 169.136C263.278 169.541 263.582 169.856 263.966 170.08C264.35 170.293 264.782 170.4 265.262 170.4ZM280.39 163.456L276.39 172.688C276.017 173.616 275.563 174.267 275.03 174.64C274.497 175.024 273.851 175.216 273.094 175.216C272.667 175.216 272.246 175.147 271.83 175.008C271.414 174.869 271.073 174.677 270.806 174.432L271.606 172.96C271.798 173.141 272.022 173.285 272.278 173.392C272.545 173.499 272.811 173.552 273.078 173.552C273.43 173.552 273.718 173.461 273.942 173.28C274.177 173.099 274.39 172.795 274.582 172.368L274.726 172.032L270.998 163.456H273.078L275.766 169.776L278.47 163.456H280.39ZM286.254 160.8H288.334V170.24H294.19V172H286.254V160.8ZM303.594 167.776C303.594 167.915 303.583 168.112 303.562 168.368H296.858C296.975 168.997 297.279 169.499 297.77 169.872C298.271 170.235 298.89 170.416 299.626 170.416C300.565 170.416 301.338 170.107 301.946 169.488L303.018 170.72C302.634 171.179 302.149 171.525 301.562 171.76C300.975 171.995 300.314 172.112 299.578 172.112C298.639 172.112 297.813 171.925 297.098 171.552C296.383 171.179 295.829 170.661 295.434 170C295.05 169.328 294.858 168.571 294.858 167.728C294.858 166.896 295.045 166.149 295.418 165.488C295.802 164.816 296.33 164.293 297.002 163.92C297.674 163.547 298.431 163.36 299.274 163.36C300.106 163.36 300.847 163.547 301.498 163.92C302.159 164.283 302.671 164.8 303.034 165.472C303.407 166.133 303.594 166.901 303.594 167.776ZM299.274 164.96C298.634 164.96 298.09 165.152 297.642 165.536C297.205 165.909 296.938 166.411 296.842 167.04H301.69C301.605 166.421 301.343 165.92 300.906 165.536C300.469 165.152 299.925 164.96 299.274 164.96ZM313.359 163.456L309.695 172H307.631L303.967 163.456H306.047L308.703 169.792L311.439 163.456H313.359ZM322.407 167.776C322.407 167.915 322.396 168.112 322.375 168.368H315.671C315.788 168.997 316.092 169.499 316.583 169.872C317.084 170.235 317.703 170.416 318.439 170.416C319.377 170.416 320.151 170.107 320.759 169.488L321.831 170.72C321.447 171.179 320.961 171.525 320.375 171.76C319.788 171.995 319.127 172.112 318.391 172.112C317.452 172.112 316.625 171.925 315.911 171.552C315.196 171.179 314.641 170.661 314.247 170C313.863 169.328 313.671 168.571 313.671 167.728C313.671 166.896 313.857 166.149 314.231 165.488C314.615 164.816 315.143 164.293 315.815 163.92C316.487 163.547 317.244 163.36 318.087 163.36C318.919 163.36 319.66 163.547 320.311 163.92C320.972 164.283 321.484 164.8 321.847 165.472C322.22 166.133 322.407 166.901 322.407 167.776ZM318.087 164.96C317.447 164.96 316.903 165.152 316.455 165.536C316.017 165.909 315.751 166.411 315.655 167.04H320.503C320.417 166.421 320.156 165.92 319.719 165.536C319.281 165.152 318.737 164.96 318.087 164.96ZM324.328 160.128H326.328V172H324.328V160.128Z" fill="#333333"/>
<path d="M232.359 173.6H327.64V174.4H232.359V173.6Z" fill="#333333"/>
<path d="M349 65.5L363.5 48H395" stroke="#D0D7FB" stroke-width="2" stroke-linecap="round" stroke-linejoin="round"/>
<g filter="url(#filter1_d)">
<rect x="392" y="20" width="144" height="56" rx="8" fill="white"/>
<path d="M405.348 31.2H401.316V41H403.136V38.172H405.348C407.924 38.172 409.52 36.842 409.52 34.686C409.52 32.516 407.924 31.2 405.348 31.2ZM405.264 36.632H403.136V32.74H405.264C406.86 32.74 407.686 33.454 407.686 34.686C407.686 35.918 406.86 36.632 405.264 36.632ZM418.166 39.04C417.536 39.404 416.85 39.544 416.15 39.544C414.078 39.544 412.608 38.088 412.608 36.1C412.608 34.07 414.078 32.656 416.164 32.656C417.214 32.656 418.096 33.006 418.866 33.776L420.014 32.656C419.09 31.606 417.718 31.06 416.08 31.06C413.014 31.06 410.774 33.174 410.774 36.1C410.774 39.026 413.014 41.14 416.052 41.14C417.438 41.14 418.866 40.72 419.888 39.894V35.988H418.166V39.04ZM427.726 43.716H429.392C428.23 41.672 427.74 39.558 427.74 37.164C427.74 34.77 428.23 32.656 429.392 30.612H427.726C426.634 32.278 426.018 34.588 426.018 37.164C426.018 39.74 426.634 42.022 427.726 43.716ZM438.774 37.234H437.038V35.26H435.33V37.234H432.124L436.674 31.2H434.728L429.898 37.514V38.774H435.274V41H437.038V38.774H438.774V37.234ZM441.977 39.46L444.595 36.968C445.953 35.694 446.219 34.826 446.219 33.874C446.219 32.138 444.847 31.06 442.719 31.06C441.109 31.06 439.751 31.662 438.995 32.684L440.269 33.664C440.815 32.964 441.613 32.642 442.565 32.642C443.769 32.642 444.385 33.16 444.385 34.056C444.385 34.602 444.217 35.176 443.265 36.086L439.373 39.782V41H446.597V39.46H441.977ZM449.968 36.478C451.368 36.478 452.32 35.414 452.32 33.79C452.32 32.166 451.368 31.102 449.968 31.102C448.568 31.102 447.63 32.18 447.63 33.79C447.63 35.4 448.568 36.478 449.968 36.478ZM449.156 41H450.528L457.22 31.2H455.848L449.156 41ZM449.968 35.498C449.24 35.498 448.764 34.868 448.764 33.79C448.764 32.712 449.24 32.082 449.968 32.082C450.724 32.082 451.172 32.698 451.172 33.79C451.172 34.882 450.724 35.498 449.968 35.498ZM456.394 41.098C457.794 41.098 458.746 40.02 458.746 38.41C458.746 36.8 457.794 35.722 456.394 35.722C454.994 35.722 454.056 36.8 454.056 38.41C454.056 40.02 454.994 41.098 456.394 41.098ZM456.394 40.118C455.652 40.118 455.19 39.502 455.19 38.41C455.19 37.318 455.652 36.702 456.394 36.702C457.136 36.702 457.598 37.332 457.598 38.41C457.598 39.488 457.136 40.118 456.394 40.118ZM460.913 43.716C462.019 42.022 462.621 39.74 462.621 37.164C462.621 34.588 462.019 32.278 460.913 30.612H459.247C460.409 32.656 460.913 34.77 460.913 37.164C460.913 39.558 460.409 41.672 459.247 43.716H460.913ZM409.352 61.234H407.616V59.26H405.908V61.234H402.702L407.252 55.2H405.306L400.476 61.514V62.774H405.852V65H407.616V62.774H409.352V61.234ZM414.153 59.246L416.533 56.418V55.2H409.855V56.726H414.307L412.081 59.372V60.618H412.977C414.461 60.618 415.105 61.192 415.105 62.074C415.105 62.984 414.335 63.558 413.033 63.558C411.927 63.558 410.863 63.18 410.163 62.592L409.379 64.006C410.289 64.72 411.675 65.14 413.061 65.14C415.693 65.14 416.939 63.712 416.939 62.06C416.939 60.59 416.001 59.484 414.153 59.246ZM422.218 65.14C424.556 65.14 426.32 63.32 426.32 60.1C426.32 56.88 424.556 55.06 422.218 55.06C419.894 55.06 418.13 56.88 418.13 60.1C418.13 63.32 419.894 65.14 422.218 65.14ZM422.218 63.558C420.888 63.558 419.964 62.466 419.964 60.1C419.964 57.734 420.888 56.642 422.218 56.642C423.562 56.642 424.486 57.734 424.486 60.1C424.486 62.466 423.562 63.558 422.218 63.558ZM428.492 62.774C427.848 62.774 427.358 63.236 427.358 63.936C427.358 64.44 427.624 64.804 428.016 64.972L427.456 67.114H428.59L429.304 65.14C429.556 64.496 429.626 64.244 429.626 63.936C429.626 63.25 429.15 62.774 428.492 62.774ZM434.727 65.14C437.065 65.14 438.829 63.32 438.829 60.1C438.829 56.88 437.065 55.06 434.727 55.06C432.403 55.06 430.639 56.88 430.639 60.1C430.639 63.32 432.403 65.14 434.727 65.14ZM434.727 63.558C433.397 63.558 432.473 62.466 432.473 60.1C432.473 57.734 433.397 56.642 434.727 56.642C436.071 56.642 436.995 57.734 436.995 60.1C436.995 62.466 436.071 63.558 434.727 63.558ZM444.147 65.14C446.485 65.14 448.249 63.32 448.249 60.1C448.249 56.88 446.485 55.06 444.147 55.06C441.823 55.06 440.059 56.88 440.059 60.1C440.059 63.32 441.823 65.14 444.147 65.14ZM444.147 63.558C442.817 63.558 441.893 62.466 441.893 60.1C441.893 57.734 442.817 56.642 444.147 56.642C445.491 56.642 446.415 57.734 446.415 60.1C446.415 62.466 445.491 63.558 444.147 63.558ZM453.567 65.14C455.905 65.14 457.669 63.32 457.669 60.1C457.669 56.88 455.905 55.06 453.567 55.06C451.243 55.06 449.479 56.88 449.479 60.1C449.479 63.32 451.243 65.14 453.567 65.14ZM453.567 63.558C452.237 63.558 451.313 62.466 451.313 60.1C451.313 57.734 452.237 56.642 453.567 56.642C454.911 56.642 455.835 57.734 455.835 60.1C455.835 62.466 454.911 63.558 453.567 63.558ZM466.506 65.14C469.194 65.14 470.468 63.796 470.468 62.228C470.468 58.63 464.658 59.988 464.658 57.902C464.658 57.16 465.274 56.572 466.786 56.572C467.64 56.572 468.606 56.824 469.488 57.342L470.062 55.928C469.208 55.368 467.976 55.06 466.8 55.06C464.112 55.06 462.852 56.404 462.852 57.986C462.852 61.626 468.676 60.24 468.676 62.354C468.676 63.082 468.032 63.628 466.506 63.628C465.302 63.628 464.056 63.18 463.272 62.55L462.642 63.964C463.454 64.664 464.98 65.14 466.506 65.14ZM476.109 63.348C475.843 63.558 475.493 63.656 475.129 63.656C474.457 63.656 474.093 63.264 474.093 62.536V58.98H476.095V57.58H474.093V55.872H472.343V57.58H471.111V58.98H472.343V62.578C472.343 64.23 473.281 65.098 474.919 65.098C475.549 65.098 476.179 64.93 476.599 64.594L476.109 63.348ZM483.527 57.524V61.304C483.527 62.802 482.701 63.558 481.483 63.558C480.377 63.558 479.733 62.914 479.733 61.556V57.524H477.983V61.794C477.983 64.048 479.285 65.098 481.203 65.098C482.169 65.098 483.051 64.734 483.611 64.048V65H485.277V57.524H483.527ZM493.14 54.612V58.448C492.552 57.762 491.698 57.44 490.732 57.44C488.562 57.44 486.952 58.938 486.952 61.262C486.952 63.586 488.562 65.098 490.732 65.098C491.754 65.098 492.622 64.748 493.21 64.034V65H494.89V54.612H493.14ZM490.942 63.6C489.682 63.6 488.716 62.69 488.716 61.262C488.716 59.834 489.682 58.924 490.942 58.924C492.202 58.924 493.168 59.834 493.168 61.262C493.168 62.69 492.202 63.6 490.942 63.6ZM504.207 61.304C504.207 58.966 502.611 57.44 500.427 57.44C498.201 57.44 496.563 59.036 496.563 61.262C496.563 63.488 498.187 65.098 500.693 65.098C501.981 65.098 503.031 64.678 503.703 63.88L502.765 62.802C502.233 63.348 501.575 63.614 500.735 63.614C499.433 63.614 498.523 62.914 498.313 61.822H504.179C504.193 61.654 504.207 61.444 504.207 61.304ZM500.427 58.84C501.575 58.84 502.401 59.582 502.541 60.66H498.299C498.467 59.568 499.293 58.84 500.427 58.84ZM510.13 57.44C509.038 57.44 508.128 57.804 507.554 58.49V57.524H505.888V65H507.638V61.22C507.638 59.722 508.478 58.966 509.724 58.966C510.844 58.966 511.502 59.61 511.502 60.94V65H513.252V60.716C513.252 58.462 511.922 57.44 510.13 57.44ZM519.476 63.348C519.21 63.558 518.86 63.656 518.496 63.656C517.824 63.656 517.46 63.264 517.46 62.536V58.98H519.462V57.58H517.46V55.872H515.71V57.58H514.478V58.98H515.71V62.578C515.71 64.23 516.648 65.098 518.286 65.098C518.916 65.098 519.546 64.93 519.966 64.594L519.476 63.348ZM523.716 65.098C525.816 65.098 527.104 64.188 527.104 62.788C527.104 59.862 522.484 61.206 522.484 59.694C522.484 59.204 522.988 58.854 524.052 58.854C524.766 58.854 525.48 58.994 526.194 59.414L526.866 58.084C526.194 57.678 525.06 57.44 524.066 57.44C522.05 57.44 520.776 58.364 520.776 59.778C520.776 62.76 525.396 61.416 525.396 62.844C525.396 63.362 524.934 63.67 523.828 63.67C522.89 63.67 521.882 63.362 521.224 62.928L520.552 64.258C521.224 64.734 522.47 65.098 523.716 65.098Z" fill="#333333"/>
</g>
<defs>
<filter id="filter0_d" x="20" y="265" width="151" height="64" filterUnits="userSpaceOnUse" color-interpolation-filters="sRGB">
<feFlood flood-opacity="0" result="BackgroundImageFix"/>
<feColorMatrix in="SourceAlpha" type="matrix" values="0 0 0 0 0 0 0 0 0 0 0 0 0 0 0 0 0 0 127 0"/>
<feOffset dy="1"/>
<feGaussianBlur stdDeviation="2"/>
<feColorMatrix type="matrix" values="0 0 0 0 0 0 0 0 0 0 0 0 0 0 0 0 0 0 0.08 0"/>
<feBlend mode="normal" in2="BackgroundImageFix" result="effect1_dropShadow"/>
<feBlend mode="normal" in="SourceGraphic" in2="effect1_dropShadow" result="shape"/>
</filter>
<filter id="filter1_d" x="388" y="17" width="152" height="64" filterUnits="userSpaceOnUse" color-interpolation-filters="sRGB">
<feFlood flood-opacity="0" result="BackgroundImageFix"/>
<feColorMatrix in="SourceAlpha" type="matrix" values="0 0 0 0 0 0 0 0 0 0 0 0 0 0 0 0 0 0 127 0"/>
<feOffset dy="1"/>
<feGaussianBlur stdDeviation="2"/>
<feColorMatrix type="matrix" values="0 0 0 0 0 0 0 0 0 0 0 0 0 0 0 0 0 0 0.08 0"/>
<feBlend mode="normal" in2="BackgroundImageFix" result="effect1_dropShadow"/>
<feBlend mode="normal" in="SourceGraphic" in2="effect1_dropShadow" result="shape"/>
</filter>
</defs>
</svg>
