<svg width="312" height="265" viewBox="0 0 312 265" fill="none" xmlns="http://www.w3.org/2000/svg">
<rect width="312" height="265" rx="16" fill="white"/>
<path d="M26.94 112.516H22.68V109.676H34.28V112.516H30.02V123.676H26.94V112.516ZM39.4794 123.916C38.6527 123.916 37.886 123.776 37.1794 123.496C36.4727 123.202 35.8594 122.809 35.3394 122.316C34.8327 121.809 34.4327 121.222 34.1394 120.556C33.846 119.876 33.6994 119.149 33.6994 118.376V118.336C33.6994 117.562 33.846 116.842 34.1394 116.176C34.4327 115.496 34.8394 114.902 35.3594 114.396C35.8794 113.889 36.4927 113.489 37.1994 113.196C37.906 112.902 38.6794 112.756 39.5194 112.756C40.346 112.756 41.1127 112.902 41.8194 113.196C42.526 113.476 43.1327 113.869 43.6394 114.376C44.1594 114.869 44.566 115.456 44.8594 116.136C45.1527 116.802 45.2994 117.522 45.2994 118.296V118.336C45.2994 119.109 45.1527 119.836 44.8594 120.516C44.566 121.182 44.1594 121.769 43.6394 122.276C43.1194 122.782 42.506 123.182 41.7994 123.476C41.0927 123.769 40.3194 123.916 39.4794 123.916ZM39.5194 121.296C39.9594 121.296 40.346 121.222 40.6794 121.076C41.026 120.916 41.3194 120.702 41.5594 120.436C41.7994 120.169 41.9794 119.862 42.0994 119.516C42.2327 119.156 42.2994 118.776 42.2994 118.376V118.336C42.2994 117.936 42.2327 117.562 42.0994 117.216C41.966 116.856 41.7727 116.542 41.5194 116.276C41.266 115.996 40.966 115.776 40.6194 115.616C40.2727 115.456 39.8927 115.376 39.4794 115.376C39.0394 115.376 38.646 115.456 38.2994 115.616C37.966 115.762 37.6794 115.969 37.4394 116.236C37.1994 116.502 37.0127 116.816 36.8794 117.176C36.7594 117.522 36.6994 117.896 36.6994 118.296V118.336C36.6994 118.736 36.766 119.116 36.8994 119.476C37.0327 119.822 37.226 120.136 37.4794 120.416C37.7327 120.682 38.026 120.896 38.3594 121.056C38.706 121.216 39.0927 121.296 39.5194 121.296ZM47.5006 112.956H50.5406V114.496C50.914 113.989 51.3606 113.576 51.8806 113.256C52.414 112.922 53.0806 112.756 53.8806 112.756C54.5073 112.756 55.114 112.876 55.7006 113.116C56.2873 113.356 56.8073 113.716 57.2606 114.196C57.714 114.662 58.074 115.242 58.3406 115.936C58.6206 116.616 58.7606 117.402 58.7606 118.296V118.336C58.7606 119.229 58.6206 120.022 58.3406 120.716C58.074 121.396 57.714 121.976 57.2606 122.456C56.8206 122.922 56.3073 123.276 55.7206 123.516C55.134 123.756 54.5206 123.876 53.8806 123.876C53.0673 123.876 52.394 123.716 51.8606 123.396C51.3406 123.076 50.9006 122.702 50.5406 122.276V126.876H47.5006V112.956ZM53.1006 121.296C53.4606 121.296 53.794 121.229 54.1006 121.096C54.4206 120.949 54.7006 120.749 54.9406 120.496C55.1806 120.229 55.3673 119.916 55.5006 119.556C55.6473 119.196 55.7206 118.789 55.7206 118.336V118.296C55.7206 117.856 55.6473 117.456 55.5006 117.096C55.3673 116.722 55.1806 116.409 54.9406 116.156C54.7006 115.889 54.4206 115.689 54.1006 115.556C53.794 115.409 53.4606 115.336 53.1006 115.336C52.7406 115.336 52.4006 115.409 52.0806 115.556C51.774 115.689 51.5006 115.889 51.2606 116.156C51.034 116.409 50.8473 116.722 50.7006 117.096C50.5673 117.456 50.5006 117.856 50.5006 118.296V118.336C50.5006 118.776 50.5673 119.182 50.7006 119.556C50.8473 119.916 51.034 120.229 51.2606 120.496C51.5006 120.749 51.774 120.949 52.0806 121.096C52.4006 121.229 52.7406 121.296 53.1006 121.296ZM72.2928 123.876C71.2261 123.876 70.1795 123.696 69.1528 123.336C68.1261 122.962 67.1928 122.396 66.3528 121.636L68.1728 119.456C68.8128 119.976 69.4661 120.389 70.1328 120.696C70.8128 121.002 71.5528 121.156 72.3528 121.156C72.9928 121.156 73.4861 121.042 73.8328 120.816C74.1928 120.576 74.3728 120.249 74.3728 119.836V119.796C74.3728 119.596 74.3328 119.422 74.2528 119.276C74.1861 119.116 74.0461 118.969 73.8328 118.836C73.6328 118.702 73.3461 118.569 72.9728 118.436C72.6128 118.302 72.1395 118.162 71.5528 118.016C70.8461 117.842 70.2061 117.649 69.6328 117.436C69.0595 117.222 68.5728 116.962 68.1728 116.656C67.7728 116.336 67.4595 115.942 67.2328 115.476C67.0195 115.009 66.9128 114.429 66.9128 113.736V113.696C66.9128 113.056 67.0328 112.482 67.2728 111.976C67.5128 111.456 67.8461 111.009 68.2728 110.636C68.7128 110.262 69.2328 109.976 69.8328 109.776C70.4328 109.576 71.0928 109.476 71.8128 109.476C72.8395 109.476 73.7795 109.629 74.6328 109.936C75.4995 110.242 76.2928 110.682 77.0128 111.256L75.4128 113.576C74.7861 113.149 74.1728 112.816 73.5728 112.576C72.9728 112.322 72.3728 112.196 71.7728 112.196C71.1728 112.196 70.7195 112.316 70.4128 112.556C70.1195 112.782 69.9728 113.069 69.9728 113.416V113.456C69.9728 113.682 70.0128 113.882 70.0928 114.056C70.1861 114.216 70.3461 114.362 70.5728 114.496C70.7995 114.629 71.1061 114.756 71.4928 114.876C71.8928 114.996 72.3928 115.136 72.9928 115.296C73.6995 115.482 74.3261 115.696 74.8728 115.936C75.4328 116.162 75.8995 116.442 76.2728 116.776C76.6595 117.096 76.9461 117.476 77.1328 117.916C77.3328 118.356 77.4328 118.882 77.4328 119.496V119.536C77.4328 120.229 77.3061 120.849 77.0528 121.396C76.7995 121.929 76.4461 122.382 75.9928 122.756C75.5395 123.116 74.9995 123.396 74.3728 123.596C73.7461 123.782 73.0528 123.876 72.2928 123.876ZM84.8458 123.916C84.0458 123.916 83.2991 123.769 82.6058 123.476C81.9258 123.182 81.3391 122.789 80.8458 122.296C80.3524 121.789 79.9658 121.202 79.6858 120.536C79.4058 119.856 79.2658 119.136 79.2658 118.376V118.336C79.2658 117.576 79.4058 116.856 79.6858 116.176C79.9658 115.496 80.3524 114.902 80.8458 114.396C81.3391 113.889 81.9258 113.489 82.6058 113.196C83.2991 112.902 84.0591 112.756 84.8858 112.756C85.8991 112.756 86.7391 112.916 87.4058 113.236C88.0724 113.556 88.6591 113.996 89.1658 114.556L87.3058 116.556C86.9591 116.196 86.5991 115.909 86.2258 115.696C85.8658 115.482 85.4124 115.376 84.8658 115.376C84.4791 115.376 84.1258 115.456 83.8058 115.616C83.4991 115.762 83.2258 115.969 82.9858 116.236C82.7591 116.502 82.5791 116.816 82.4458 117.176C82.3258 117.522 82.2658 117.896 82.2658 118.296V118.336C82.2658 118.749 82.3258 119.136 82.4458 119.496C82.5791 119.856 82.7658 120.169 83.0058 120.436C83.2458 120.702 83.5324 120.916 83.8658 121.076C84.1991 121.222 84.5724 121.296 84.9858 121.296C85.4924 121.296 85.9324 121.196 86.3058 120.996C86.6924 120.782 87.0724 120.502 87.4458 120.156L89.2258 121.956C88.7058 122.529 88.1124 123.002 87.4458 123.376C86.7791 123.736 85.9124 123.916 84.8458 123.916ZM91.2116 109.076H94.2516V114.476C94.4249 114.249 94.6116 114.036 94.8116 113.836C95.0249 113.622 95.2582 113.436 95.5116 113.276C95.7649 113.116 96.0449 112.989 96.3516 112.896C96.6582 112.802 97.0049 112.756 97.3916 112.756C98.5516 112.756 99.4449 113.109 100.072 113.816C100.712 114.522 101.032 115.496 101.032 116.736V123.676H97.9916V117.696C97.9916 116.976 97.8316 116.436 97.5116 116.076C97.1916 115.702 96.7382 115.516 96.1516 115.516C95.5649 115.516 95.0982 115.702 94.7516 116.076C94.4182 116.436 94.2516 116.976 94.2516 117.696V123.676H91.2116V109.076ZM108.933 123.916C108.106 123.916 107.339 123.776 106.633 123.496C105.926 123.202 105.313 122.809 104.793 122.316C104.286 121.809 103.886 121.222 103.593 120.556C103.299 119.876 103.153 119.149 103.153 118.376V118.336C103.153 117.562 103.299 116.842 103.593 116.176C103.886 115.496 104.293 114.902 104.812 114.396C105.333 113.889 105.946 113.489 106.653 113.196C107.359 112.902 108.133 112.756 108.973 112.756C109.799 112.756 110.566 112.902 111.273 113.196C111.979 113.476 112.586 113.869 113.093 114.376C113.613 114.869 114.019 115.456 114.313 116.136C114.606 116.802 114.753 117.522 114.753 118.296V118.336C114.753 119.109 114.606 119.836 114.313 120.516C114.019 121.182 113.613 121.769 113.093 122.276C112.573 122.782 111.959 123.182 111.253 123.476C110.546 123.769 109.773 123.916 108.933 123.916ZM108.973 121.296C109.413 121.296 109.799 121.222 110.133 121.076C110.479 120.916 110.773 120.702 111.013 120.436C111.253 120.169 111.433 119.862 111.553 119.516C111.686 119.156 111.753 118.776 111.753 118.376V118.336C111.753 117.936 111.686 117.562 111.553 117.216C111.419 116.856 111.226 116.542 110.973 116.276C110.719 115.996 110.419 115.776 110.073 115.616C109.726 115.456 109.346 115.376 108.933 115.376C108.493 115.376 108.099 115.456 107.753 115.616C107.419 115.762 107.133 115.969 106.893 116.236C106.653 116.502 106.466 116.816 106.333 117.176C106.213 117.522 106.153 117.896 106.153 118.296V118.336C106.153 118.736 106.219 119.116 106.353 119.476C106.486 119.822 106.679 120.136 106.933 120.416C107.186 120.682 107.479 120.896 107.813 121.056C108.159 121.216 108.546 121.296 108.973 121.296ZM122.214 123.916C121.387 123.916 120.62 123.776 119.914 123.496C119.207 123.202 118.594 122.809 118.074 122.316C117.567 121.809 117.167 121.222 116.874 120.556C116.58 119.876 116.434 119.149 116.434 118.376V118.336C116.434 117.562 116.58 116.842 116.874 116.176C117.167 115.496 117.574 114.902 118.094 114.396C118.614 113.889 119.227 113.489 119.934 113.196C120.64 112.902 121.414 112.756 122.254 112.756C123.08 112.756 123.847 112.902 124.554 113.196C125.26 113.476 125.867 113.869 126.374 114.376C126.894 114.869 127.3 115.456 127.594 116.136C127.887 116.802 128.034 117.522 128.034 118.296V118.336C128.034 119.109 127.887 119.836 127.594 120.516C127.3 121.182 126.894 121.769 126.374 122.276C125.854 122.782 125.24 123.182 124.534 123.476C123.827 123.769 123.054 123.916 122.214 123.916ZM122.254 121.296C122.694 121.296 123.08 121.222 123.414 121.076C123.76 120.916 124.054 120.702 124.294 120.436C124.534 120.169 124.714 119.862 124.834 119.516C124.967 119.156 125.034 118.776 125.034 118.376V118.336C125.034 117.936 124.967 117.562 124.834 117.216C124.7 116.856 124.507 116.542 124.254 116.276C124 115.996 123.7 115.776 123.354 115.616C123.007 115.456 122.627 115.376 122.214 115.376C121.774 115.376 121.38 115.456 121.034 115.616C120.7 115.762 120.414 115.969 120.174 116.236C119.934 116.502 119.747 116.816 119.614 117.176C119.494 117.522 119.434 117.896 119.434 118.296V118.336C119.434 118.736 119.5 119.116 119.634 119.476C119.767 119.822 119.96 120.136 120.214 120.416C120.467 120.682 120.76 120.896 121.094 121.056C121.44 121.216 121.827 121.296 122.254 121.296ZM130.375 109.076H133.415V123.676H130.375V109.076ZM147.386 109.576H150.226L156.226 123.676H153.006L151.726 120.536H145.806L144.526 123.676H141.386L147.386 109.576ZM150.626 117.816L148.766 113.276L146.906 117.816H150.626ZM158.067 112.956H161.107V114.496C161.48 113.989 161.927 113.576 162.447 113.256C162.98 112.922 163.647 112.756 164.447 112.756C165.074 112.756 165.68 112.876 166.267 113.116C166.854 113.356 167.374 113.716 167.827 114.196C168.28 114.662 168.64 115.242 168.907 115.936C169.187 116.616 169.327 117.402 169.327 118.296V118.336C169.327 119.229 169.187 120.022 168.907 120.716C168.64 121.396 168.28 121.976 167.827 122.456C167.387 122.922 166.874 123.276 166.287 123.516C165.7 123.756 165.087 123.876 164.447 123.876C163.634 123.876 162.96 123.716 162.427 123.396C161.907 123.076 161.467 122.702 161.107 122.276V126.876H158.067V112.956ZM163.667 121.296C164.027 121.296 164.36 121.229 164.667 121.096C164.987 120.949 165.267 120.749 165.507 120.496C165.747 120.229 165.934 119.916 166.067 119.556C166.214 119.196 166.287 118.789 166.287 118.336V118.296C166.287 117.856 166.214 117.456 166.067 117.096C165.934 116.722 165.747 116.409 165.507 116.156C165.267 115.889 164.987 115.689 164.667 115.556C164.36 115.409 164.027 115.336 163.667 115.336C163.307 115.336 162.967 115.409 162.647 115.556C162.34 115.689 162.067 115.889 161.827 116.156C161.6 116.409 161.414 116.722 161.267 117.096C161.134 117.456 161.067 117.856 161.067 118.296V118.336C161.067 118.776 161.134 119.182 161.267 119.556C161.414 119.916 161.6 120.229 161.827 120.496C162.067 120.749 162.34 120.949 162.647 121.096C162.967 121.229 163.307 121.296 163.667 121.296ZM171.563 112.956H174.603V114.496C174.976 113.989 175.423 113.576 175.943 113.256C176.476 112.922 177.143 112.756 177.943 112.756C178.57 112.756 179.176 112.876 179.763 113.116C180.35 113.356 180.87 113.716 181.323 114.196C181.776 114.662 182.136 115.242 182.403 115.936C182.683 116.616 182.823 117.402 182.823 118.296V118.336C182.823 119.229 182.683 120.022 182.403 120.716C182.136 121.396 181.776 121.976 181.323 122.456C180.883 122.922 180.37 123.276 179.783 123.516C179.196 123.756 178.583 123.876 177.943 123.876C177.13 123.876 176.456 123.716 175.923 123.396C175.403 123.076 174.963 122.702 174.603 122.276V126.876H171.563V112.956ZM177.163 121.296C177.523 121.296 177.856 121.229 178.163 121.096C178.483 120.949 178.763 120.749 179.003 120.496C179.243 120.229 179.43 119.916 179.563 119.556C179.71 119.196 179.783 118.789 179.783 118.336V118.296C179.783 117.856 179.71 117.456 179.563 117.096C179.43 116.722 179.243 116.409 179.003 116.156C178.763 115.889 178.483 115.689 178.163 115.556C177.856 115.409 177.523 115.336 177.163 115.336C176.803 115.336 176.463 115.409 176.143 115.556C175.836 115.689 175.563 115.889 175.323 116.156C175.096 116.409 174.91 116.722 174.763 117.096C174.63 117.456 174.563 117.856 174.563 118.296V118.336C174.563 118.776 174.63 119.182 174.763 119.556C174.91 119.916 175.096 120.229 175.323 120.496C175.563 120.749 175.836 120.949 176.143 121.096C176.463 121.229 176.803 121.296 177.163 121.296ZM185.199 109.076H188.239V123.676H185.199V109.076ZM191.154 109.076H194.354V111.776H191.154V109.076ZM191.234 112.956H194.274V123.676H191.234V112.956ZM202.19 123.916C201.39 123.916 200.643 123.769 199.95 123.476C199.27 123.182 198.683 122.789 198.19 122.296C197.696 121.789 197.31 121.202 197.03 120.536C196.75 119.856 196.61 119.136 196.61 118.376V118.336C196.61 117.576 196.75 116.856 197.03 116.176C197.31 115.496 197.696 114.902 198.19 114.396C198.683 113.889 199.27 113.489 199.95 113.196C200.643 112.902 201.403 112.756 202.23 112.756C203.243 112.756 204.083 112.916 204.75 113.236C205.416 113.556 206.003 113.996 206.51 114.556L204.65 116.556C204.303 116.196 203.943 115.909 203.57 115.696C203.21 115.482 202.756 115.376 202.21 115.376C201.823 115.376 201.47 115.456 201.15 115.616C200.843 115.762 200.57 115.969 200.33 116.236C200.103 116.502 199.923 116.816 199.79 117.176C199.67 117.522 199.61 117.896 199.61 118.296V118.336C199.61 118.749 199.67 119.136 199.79 119.496C199.923 119.856 200.11 120.169 200.35 120.436C200.59 120.702 200.876 120.916 201.21 121.076C201.543 121.222 201.916 121.296 202.33 121.296C202.836 121.296 203.276 121.196 203.65 120.996C204.036 120.782 204.416 120.502 204.79 120.156L206.57 121.956C206.05 122.529 205.456 123.002 204.79 123.376C204.123 123.736 203.256 123.916 202.19 123.916ZM211.595 123.876C211.089 123.876 210.609 123.809 210.155 123.676C209.715 123.529 209.329 123.316 208.995 123.036C208.662 122.756 208.395 122.416 208.195 122.016C208.009 121.602 207.915 121.129 207.915 120.596V120.556C207.915 119.969 208.022 119.462 208.235 119.036C208.449 118.609 208.742 118.256 209.115 117.976C209.502 117.696 209.955 117.489 210.475 117.356C211.009 117.209 211.595 117.136 212.235 117.136C212.782 117.136 213.255 117.176 213.655 117.256C214.069 117.336 214.469 117.442 214.855 117.576V117.396C214.855 116.756 214.662 116.269 214.275 115.936C213.889 115.602 213.315 115.436 212.555 115.436C211.969 115.436 211.449 115.489 210.995 115.596C210.555 115.689 210.089 115.829 209.595 116.016L208.835 113.696C209.422 113.442 210.035 113.236 210.675 113.076C211.315 112.916 212.089 112.836 212.995 112.836C213.835 112.836 214.549 112.942 215.135 113.156C215.735 113.356 216.229 113.649 216.615 114.036C217.015 114.436 217.309 114.929 217.495 115.516C217.682 116.089 217.775 116.736 217.775 117.456V123.676H214.835V122.516C214.462 122.929 214.015 123.262 213.495 123.516C212.975 123.756 212.342 123.876 211.595 123.876ZM212.515 121.776C213.235 121.776 213.809 121.602 214.235 121.256C214.675 120.909 214.895 120.456 214.895 119.896V119.356C214.629 119.236 214.329 119.142 213.995 119.076C213.675 118.996 213.329 118.956 212.955 118.956C212.302 118.956 211.789 119.082 211.415 119.336C211.042 119.589 210.855 119.956 210.855 120.436V120.476C210.855 120.889 211.009 121.209 211.315 121.436C211.622 121.662 212.022 121.776 212.515 121.776ZM223.914 123.856C223.447 123.856 223.02 123.802 222.634 123.696C222.26 123.602 221.934 123.429 221.654 123.176C221.387 122.922 221.174 122.596 221.014 122.196C220.867 121.782 220.794 121.262 220.794 120.636V115.556H219.514V112.956H220.794V110.216H223.834V112.956H226.354V115.556H223.834V120.136C223.834 120.829 224.16 121.176 224.814 121.176C225.347 121.176 225.847 121.049 226.314 120.796V123.236C225.994 123.422 225.64 123.569 225.254 123.676C224.867 123.796 224.42 123.856 223.914 123.856ZM228.654 109.076H231.854V111.776H228.654V109.076ZM228.734 112.956H231.774V123.676H228.734V112.956ZM239.89 123.916C239.063 123.916 238.296 123.776 237.59 123.496C236.883 123.202 236.27 122.809 235.75 122.316C235.243 121.809 234.843 121.222 234.55 120.556C234.256 119.876 234.11 119.149 234.11 118.376V118.336C234.11 117.562 234.256 116.842 234.55 116.176C234.843 115.496 235.25 114.902 235.77 114.396C236.29 113.889 236.903 113.489 237.61 113.196C238.316 112.902 239.09 112.756 239.93 112.756C240.756 112.756 241.523 112.902 242.23 113.196C242.936 113.476 243.543 113.869 244.05 114.376C244.57 114.869 244.976 115.456 245.27 116.136C245.563 116.802 245.71 117.522 245.71 118.296V118.336C245.71 119.109 245.563 119.836 245.27 120.516C244.976 121.182 244.57 121.769 244.05 122.276C243.53 122.782 242.916 123.182 242.21 123.476C241.503 123.769 240.73 123.916 239.89 123.916ZM239.93 121.296C240.37 121.296 240.756 121.222 241.09 121.076C241.436 120.916 241.73 120.702 241.97 120.436C242.21 120.169 242.39 119.862 242.51 119.516C242.643 119.156 242.71 118.776 242.71 118.376V118.336C242.71 117.936 242.643 117.562 242.51 117.216C242.376 116.856 242.183 116.542 241.93 116.276C241.676 115.996 241.376 115.776 241.03 115.616C240.683 115.456 240.303 115.376 239.89 115.376C239.45 115.376 239.056 115.456 238.71 115.616C238.376 115.762 238.09 115.969 237.85 116.236C237.61 116.502 237.423 116.816 237.29 117.176C237.17 117.522 237.11 117.896 237.11 118.296V118.336C237.11 118.736 237.176 119.116 237.31 119.476C237.443 119.822 237.636 120.136 237.89 120.416C238.143 120.682 238.436 120.896 238.77 121.056C239.116 121.216 239.503 121.296 239.93 121.296ZM247.911 112.956H250.951V114.476C251.124 114.249 251.311 114.036 251.511 113.836C251.724 113.622 251.957 113.436 252.211 113.276C252.464 113.116 252.744 112.989 253.051 112.896C253.357 112.802 253.704 112.756 254.091 112.756C255.251 112.756 256.144 113.109 256.771 113.816C257.411 114.522 257.731 115.496 257.731 116.736V123.676H254.691V117.696C254.691 116.976 254.531 116.436 254.211 116.076C253.891 115.702 253.437 115.516 252.851 115.516C252.264 115.516 251.797 115.702 251.451 116.076C251.117 116.436 250.951 116.976 250.951 117.696V123.676H247.911V112.956ZM264.132 123.876C263.372 123.876 262.592 123.749 261.792 123.496C261.005 123.229 260.252 122.816 259.532 122.256L260.832 120.256C261.418 120.682 261.998 121.002 262.572 121.216C263.158 121.429 263.705 121.536 264.212 121.536C264.652 121.536 264.972 121.462 265.172 121.316C265.385 121.169 265.492 120.976 265.492 120.736V120.696C265.492 120.536 265.432 120.396 265.312 120.276C265.192 120.156 265.025 120.056 264.812 119.976C264.612 119.882 264.378 119.796 264.112 119.716C263.845 119.636 263.565 119.549 263.272 119.456C262.898 119.349 262.518 119.222 262.132 119.076C261.758 118.916 261.418 118.716 261.112 118.476C260.805 118.222 260.552 117.916 260.352 117.556C260.165 117.196 260.072 116.756 260.072 116.236V116.196C260.072 115.649 260.172 115.169 260.372 114.756C260.585 114.329 260.865 113.969 261.212 113.676C261.572 113.382 261.985 113.162 262.452 113.016C262.932 112.869 263.445 112.796 263.992 112.796C264.672 112.796 265.358 112.909 266.052 113.136C266.758 113.349 267.405 113.649 267.992 114.036L266.832 116.136C266.298 115.829 265.778 115.589 265.272 115.416C264.765 115.229 264.318 115.136 263.932 115.136C263.558 115.136 263.278 115.209 263.092 115.356C262.905 115.489 262.812 115.662 262.812 115.876V115.916C262.812 116.062 262.872 116.196 262.992 116.316C263.112 116.422 263.272 116.529 263.472 116.636C263.672 116.729 263.898 116.822 264.152 116.916C264.418 117.009 264.698 117.102 264.992 117.196C265.365 117.316 265.745 117.462 266.132 117.636C266.518 117.796 266.865 117.996 267.172 118.236C267.478 118.476 267.732 118.769 267.932 119.116C268.132 119.462 268.232 119.882 268.232 120.376V120.416C268.232 121.016 268.125 121.536 267.912 121.976C267.712 122.402 267.425 122.756 267.052 123.036C266.678 123.316 266.238 123.529 265.732 123.676C265.238 123.809 264.705 123.876 264.132 123.876Z" fill="black"/>
<path d="M27.328 154.694L22.324 147.062H24.952L28.462 152.624L32.026 147.062H34.564L29.56 154.64V159.662H27.328V154.694ZM38.7844 159.878C38.0644 159.878 37.3924 159.752 36.7684 159.5C36.1564 159.236 35.6224 158.882 35.1664 158.438C34.7224 157.994 34.3744 157.472 34.1224 156.872C33.8704 156.272 33.7444 155.636 33.7444 154.964V154.928C33.7444 154.244 33.8704 153.602 34.1224 153.002C34.3864 152.402 34.7404 151.88 35.1844 151.436C35.6404 150.98 36.1744 150.62 36.7864 150.356C37.4104 150.092 38.0884 149.96 38.8204 149.96C39.5524 149.96 40.2244 150.092 40.8364 150.356C41.4604 150.608 41.9944 150.962 42.4384 151.418C42.8944 151.862 43.2484 152.384 43.5004 152.984C43.7524 153.572 43.8784 154.208 43.8784 154.892V154.928C43.8784 155.6 43.7464 156.236 43.4824 156.836C43.2304 157.436 42.8764 157.964 42.4204 158.42C41.9764 158.864 41.4424 159.218 40.8184 159.482C40.1944 159.746 39.5164 159.878 38.7844 159.878ZM38.8204 157.97C39.2644 157.97 39.6604 157.892 40.0084 157.736C40.3684 157.568 40.6744 157.352 40.9264 157.088C41.1784 156.812 41.3704 156.494 41.5024 156.134C41.6344 155.762 41.7004 155.372 41.7004 154.964V154.928C41.7004 154.508 41.6284 154.112 41.4844 153.74C41.3404 153.368 41.1364 153.044 40.8724 152.768C40.6204 152.492 40.3144 152.276 39.9544 152.12C39.6064 151.952 39.2164 151.868 38.7844 151.868C38.3524 151.868 37.9564 151.952 37.5964 152.12C37.2484 152.276 36.9484 152.492 36.6964 152.768C36.4444 153.032 36.2524 153.35 36.1204 153.722C35.9884 154.094 35.9224 154.484 35.9224 154.892V154.928C35.9224 155.348 35.9944 155.744 36.1384 156.116C36.2824 156.476 36.4804 156.794 36.7324 157.07C36.9964 157.346 37.3024 157.568 37.6504 157.736C38.0104 157.892 38.4004 157.97 38.8204 157.97ZM49.3725 159.86C48.2925 159.86 47.4585 159.53 46.8705 158.87C46.2825 158.21 45.9885 157.322 45.9885 156.206V150.158H48.1665V155.558C48.1665 156.302 48.3405 156.872 48.6885 157.268C49.0485 157.664 49.5525 157.862 50.2005 157.862C50.8365 157.862 51.3525 157.658 51.7485 157.25C52.1445 156.842 52.3425 156.266 52.3425 155.522V150.158H54.5385V159.662H52.3425V158.186C52.0305 158.642 51.6405 159.038 51.1725 159.374C50.7045 159.698 50.1045 159.86 49.3725 159.86ZM56.5926 151.22C57.6966 151.016 58.2126 150.452 58.1406 149.528H57.2046V147.062H59.5986V149.168C59.5986 150.176 59.3646 150.908 58.8966 151.364C58.4286 151.82 57.7386 152.084 56.8266 152.156L56.5926 151.22ZM62.2186 146.522H64.3966V159.662H62.2186V146.522ZM67.369 146.522H69.547V159.662H67.369V146.522ZM83.2079 159.86C82.4159 159.86 81.7619 159.692 81.2459 159.356C80.7299 159.02 80.3039 158.63 79.9679 158.186V159.662H77.7899V146.522H79.9679V151.742C80.3159 151.25 80.7479 150.83 81.2639 150.482C81.7799 150.134 82.4279 149.96 83.2079 149.96C83.7599 149.96 84.2999 150.068 84.8279 150.284C85.3679 150.5 85.8419 150.818 86.2499 151.238C86.6579 151.658 86.9879 152.174 87.2399 152.786C87.4919 153.398 87.6179 154.1 87.6179 154.892V154.928C87.6179 155.72 87.4919 156.422 87.2399 157.034C86.9999 157.646 86.6699 158.162 86.2499 158.582C85.8419 159.002 85.3739 159.32 84.8459 159.536C84.3179 159.752 83.7719 159.86 83.2079 159.86ZM82.6859 157.97C83.0579 157.97 83.4059 157.898 83.7299 157.754C84.0659 157.61 84.3539 157.412 84.5939 157.16C84.8459 156.896 85.0439 156.578 85.1879 156.206C85.3319 155.822 85.4039 155.396 85.4039 154.928V154.892C85.4039 154.436 85.3319 154.022 85.1879 153.65C85.0439 153.266 84.8459 152.942 84.5939 152.678C84.3539 152.414 84.0659 152.21 83.7299 152.066C83.4059 151.922 83.0579 151.85 82.6859 151.85C82.3139 151.85 81.9599 151.922 81.6239 152.066C81.2879 152.21 80.9939 152.42 80.7419 152.696C80.4899 152.96 80.2859 153.278 80.1299 153.65C79.9859 154.022 79.9139 154.436 79.9139 154.892V154.928C79.9139 155.384 79.9859 155.798 80.1299 156.17C80.2859 156.542 80.4899 156.866 80.7419 157.142C80.9939 157.406 81.2879 157.61 81.6239 157.754C81.9599 157.898 82.3139 157.97 82.6859 157.97ZM94.222 159.878C93.538 159.878 92.896 159.758 92.296 159.518C91.708 159.278 91.192 158.942 90.748 158.51C90.316 158.078 89.974 157.562 89.722 156.962C89.47 156.35 89.344 155.678 89.344 154.946V154.91C89.344 154.226 89.458 153.584 89.686 152.984C89.914 152.384 90.232 151.862 90.64 151.418C91.06 150.962 91.552 150.608 92.116 150.356C92.68 150.092 93.304 149.96 93.988 149.96C94.744 149.96 95.404 150.098 95.968 150.374C96.544 150.65 97.018 151.022 97.39 151.49C97.774 151.958 98.062 152.504 98.254 153.128C98.446 153.74 98.542 154.388 98.542 155.072C98.542 155.168 98.536 155.27 98.524 155.378C98.524 155.474 98.518 155.576 98.506 155.684H91.522C91.642 156.464 91.948 157.064 92.44 157.484C92.944 157.892 93.55 158.096 94.258 158.096C94.798 158.096 95.266 158 95.662 157.808C96.058 157.616 96.448 157.334 96.832 156.962L98.11 158.096C97.654 158.636 97.108 159.068 96.472 159.392C95.848 159.716 95.098 159.878 94.222 159.878ZM96.382 154.244C96.346 153.896 96.268 153.572 96.148 153.272C96.028 152.96 95.866 152.696 95.662 152.48C95.458 152.252 95.212 152.072 94.924 151.94C94.648 151.808 94.33 151.742 93.97 151.742C93.298 151.742 92.74 151.976 92.296 152.444C91.864 152.9 91.6 153.5 91.504 154.244H96.382ZM109.312 159.824C108.916 159.824 108.55 159.776 108.214 159.68C107.878 159.584 107.584 159.428 107.332 159.212C107.092 158.996 106.906 158.714 106.774 158.366C106.642 158.006 106.576 157.562 106.576 157.034V152.03H105.37V150.158H106.576V147.548H108.754V150.158H111.31V152.03H108.754V156.692C108.754 157.112 108.856 157.418 109.06 157.61C109.264 157.79 109.552 157.88 109.924 157.88C110.392 157.88 110.842 157.772 111.274 157.556V159.338C110.998 159.494 110.704 159.614 110.392 159.698C110.092 159.782 109.732 159.824 109.312 159.824ZM116.262 159.86C115.818 159.86 115.392 159.794 114.984 159.662C114.576 159.542 114.216 159.362 113.904 159.122C113.604 158.87 113.358 158.564 113.166 158.204C112.986 157.832 112.896 157.406 112.896 156.926V156.89C112.896 156.374 112.992 155.924 113.184 155.54C113.376 155.156 113.64 154.838 113.976 154.586C114.324 154.334 114.738 154.148 115.218 154.028C115.71 153.896 116.244 153.83 116.82 153.83C117.36 153.83 117.828 153.866 118.224 153.938C118.62 154.01 119.004 154.106 119.376 154.226V153.992C119.376 153.308 119.172 152.792 118.764 152.444C118.368 152.096 117.786 151.922 117.018 151.922C116.478 151.922 115.998 151.976 115.578 152.084C115.158 152.192 114.732 152.336 114.3 152.516L113.724 150.806C114.252 150.566 114.792 150.38 115.344 150.248C115.896 150.104 116.55 150.032 117.306 150.032C118.722 150.032 119.772 150.386 120.456 151.094C120.804 151.442 121.062 151.862 121.23 152.354C121.398 152.846 121.482 153.404 121.482 154.028V159.662H119.358V158.474C119.034 158.858 118.62 159.188 118.116 159.464C117.612 159.728 116.994 159.86 116.262 159.86ZM116.874 158.276C117.234 158.276 117.57 158.228 117.882 158.132C118.194 158.036 118.458 157.898 118.674 157.718C118.902 157.538 119.082 157.322 119.214 157.07C119.346 156.818 119.412 156.542 119.412 156.242V155.594C119.136 155.486 118.812 155.396 118.44 155.324C118.08 155.252 117.684 155.216 117.252 155.216C116.544 155.216 115.992 155.354 115.596 155.63C115.212 155.906 115.02 156.296 115.02 156.8V156.836C115.02 157.292 115.194 157.646 115.542 157.898C115.902 158.15 116.346 158.276 116.874 158.276ZM124.091 146.522H126.269V154.37L130.211 150.158H132.857L129.077 154.028L132.983 159.662H130.427L127.619 155.54L126.269 156.944V159.662H124.091V146.522ZM134.603 146.63H136.943V148.7H134.603V146.63ZM134.693 150.158H136.871V159.662H134.693V150.158ZM139.718 150.158H141.896V151.616C142.052 151.4 142.22 151.19 142.4 150.986C142.592 150.782 142.808 150.608 143.048 150.464C143.3 150.308 143.57 150.188 143.858 150.104C144.158 150.008 144.494 149.96 144.866 149.96C145.946 149.96 146.78 150.29 147.368 150.95C147.956 151.61 148.25 152.492 148.25 153.596V159.662H146.072V154.262C146.072 153.518 145.892 152.948 145.532 152.552C145.184 152.144 144.686 151.94 144.038 151.94C143.402 151.94 142.886 152.15 142.49 152.57C142.094 152.978 141.896 153.554 141.896 154.298V159.662H139.718V150.158ZM155.11 162.578C153.526 162.578 152.11 162.2 150.862 161.444L151.672 159.806C152.188 160.118 152.716 160.364 153.256 160.544C153.808 160.724 154.408 160.814 155.056 160.814C156.028 160.814 156.772 160.568 157.288 160.076C157.804 159.584 158.062 158.858 158.062 157.898V157.16C157.666 157.676 157.204 158.096 156.676 158.42C156.148 158.744 155.494 158.906 154.714 158.906C154.15 158.906 153.61 158.804 153.094 158.6C152.578 158.396 152.116 158.108 151.708 157.736C151.312 157.352 150.994 156.884 150.754 156.332C150.514 155.78 150.394 155.156 150.394 154.46V154.424C150.394 153.728 150.514 153.104 150.754 152.552C150.994 151.988 151.312 151.52 151.708 151.148C152.116 150.764 152.578 150.47 153.094 150.266C153.622 150.062 154.162 149.96 154.714 149.96C155.518 149.96 156.178 150.122 156.694 150.446C157.222 150.758 157.672 151.136 158.044 151.58V150.158H160.222V157.718C160.222 159.302 159.82 160.496 159.016 161.3C158.584 161.732 158.038 162.05 157.378 162.254C156.73 162.47 155.974 162.578 155.11 162.578ZM155.29 157.052C155.662 157.052 156.016 156.992 156.352 156.872C156.7 156.74 157 156.56 157.252 156.332C157.504 156.104 157.702 155.828 157.846 155.504C158.002 155.18 158.08 154.826 158.08 154.442V154.406C158.08 154.022 158.002 153.668 157.846 153.344C157.702 153.02 157.504 152.744 157.252 152.516C157 152.288 156.7 152.114 156.352 151.994C156.016 151.862 155.662 151.796 155.29 151.796C154.906 151.796 154.552 151.862 154.228 151.994C153.904 152.114 153.616 152.288 153.364 152.516C153.124 152.744 152.932 153.02 152.788 153.344C152.656 153.656 152.59 154.01 152.59 154.406V154.442C152.59 154.826 152.662 155.18 152.806 155.504C152.95 155.828 153.142 156.104 153.382 156.332C153.622 156.56 153.904 156.74 154.228 156.872C154.564 156.992 154.918 157.052 155.29 157.052ZM171.538 159.824C171.142 159.824 170.776 159.776 170.44 159.68C170.104 159.584 169.81 159.428 169.558 159.212C169.318 158.996 169.132 158.714 169 158.366C168.868 158.006 168.802 157.562 168.802 157.034V152.03H167.596V150.158H168.802V147.548H170.98V150.158H173.536V152.03H170.98V156.692C170.98 157.112 171.082 157.418 171.286 157.61C171.49 157.79 171.778 157.88 172.15 157.88C172.618 157.88 173.068 157.772 173.5 157.556V159.338C173.224 159.494 172.93 159.614 172.618 159.698C172.318 159.782 171.958 159.824 171.538 159.824ZM175.753 146.522H177.931V151.616C178.087 151.4 178.255 151.19 178.435 150.986C178.627 150.782 178.843 150.608 179.083 150.464C179.335 150.308 179.605 150.188 179.893 150.104C180.193 150.008 180.529 149.96 180.901 149.96C181.981 149.96 182.815 150.29 183.403 150.95C183.991 151.61 184.285 152.492 184.285 153.596V159.662H182.107V154.262C182.107 153.518 181.927 152.948 181.567 152.552C181.219 152.144 180.721 151.94 180.073 151.94C179.437 151.94 178.921 152.15 178.525 152.57C178.129 152.978 177.931 153.554 177.931 154.298V159.662H175.753V146.522ZM191.271 159.878C190.587 159.878 189.945 159.758 189.345 159.518C188.757 159.278 188.241 158.942 187.797 158.51C187.365 158.078 187.023 157.562 186.771 156.962C186.519 156.35 186.393 155.678 186.393 154.946V154.91C186.393 154.226 186.507 153.584 186.735 152.984C186.963 152.384 187.281 151.862 187.689 151.418C188.109 150.962 188.601 150.608 189.165 150.356C189.729 150.092 190.353 149.96 191.037 149.96C191.793 149.96 192.453 150.098 193.017 150.374C193.593 150.65 194.067 151.022 194.439 151.49C194.823 151.958 195.111 152.504 195.303 153.128C195.495 153.74 195.591 154.388 195.591 155.072C195.591 155.168 195.585 155.27 195.573 155.378C195.573 155.474 195.567 155.576 195.555 155.684H188.571C188.691 156.464 188.997 157.064 189.489 157.484C189.993 157.892 190.599 158.096 191.307 158.096C191.847 158.096 192.315 158 192.711 157.808C193.107 157.616 193.497 157.334 193.881 156.962L195.159 158.096C194.703 158.636 194.157 159.068 193.521 159.392C192.897 159.716 192.147 159.878 191.271 159.878ZM193.431 154.244C193.395 153.896 193.317 153.572 193.197 153.272C193.077 152.96 192.915 152.696 192.711 152.48C192.507 152.252 192.261 152.072 191.973 151.94C191.697 151.808 191.379 151.742 191.019 151.742C190.347 151.742 189.789 151.976 189.345 152.444C188.913 152.9 188.649 153.5 188.553 154.244H193.431ZM203.175 150.158H205.353V151.616C205.509 151.4 205.677 151.19 205.857 150.986C206.049 150.782 206.265 150.608 206.505 150.464C206.757 150.308 207.027 150.188 207.315 150.104C207.615 150.008 207.951 149.96 208.323 149.96C209.403 149.96 210.237 150.29 210.825 150.95C211.413 151.61 211.707 152.492 211.707 153.596V159.662H209.529V154.262C209.529 153.518 209.349 152.948 208.989 152.552C208.641 152.144 208.143 151.94 207.495 151.94C206.859 151.94 206.343 152.15 205.947 152.57C205.551 152.978 205.353 153.554 205.353 154.298V159.662H203.175V150.158ZM218.693 159.878C218.009 159.878 217.367 159.758 216.767 159.518C216.179 159.278 215.663 158.942 215.219 158.51C214.787 158.078 214.445 157.562 214.193 156.962C213.941 156.35 213.815 155.678 213.815 154.946V154.91C213.815 154.226 213.929 153.584 214.157 152.984C214.385 152.384 214.703 151.862 215.111 151.418C215.531 150.962 216.023 150.608 216.587 150.356C217.151 150.092 217.775 149.96 218.459 149.96C219.215 149.96 219.875 150.098 220.439 150.374C221.015 150.65 221.489 151.022 221.861 151.49C222.245 151.958 222.533 152.504 222.725 153.128C222.917 153.74 223.013 154.388 223.013 155.072C223.013 155.168 223.007 155.27 222.995 155.378C222.995 155.474 222.989 155.576 222.977 155.684H215.993C216.113 156.464 216.419 157.064 216.911 157.484C217.415 157.892 218.021 158.096 218.729 158.096C219.269 158.096 219.737 158 220.133 157.808C220.529 157.616 220.919 157.334 221.303 156.962L222.581 158.096C222.125 158.636 221.579 159.068 220.943 159.392C220.319 159.716 219.569 159.878 218.693 159.878ZM220.853 154.244C220.817 153.896 220.739 153.572 220.619 153.272C220.499 152.96 220.337 152.696 220.133 152.48C219.929 152.252 219.683 152.072 219.395 151.94C219.119 151.808 218.801 151.742 218.441 151.742C217.769 151.742 217.211 151.976 216.767 152.444C216.335 152.9 216.071 153.5 215.975 154.244H220.853ZM228.525 153.344L230.721 150.158H233.043L229.695 154.802L233.187 159.662H230.811L228.471 156.278L226.149 159.662H223.827L227.301 154.82L223.953 150.158H226.329L228.525 153.344ZM238.283 159.824C237.887 159.824 237.521 159.776 237.185 159.68C236.849 159.584 236.555 159.428 236.303 159.212C236.063 158.996 235.877 158.714 235.745 158.366C235.613 158.006 235.547 157.562 235.547 157.034V152.03H234.341V150.158H235.547V147.548H237.725V150.158H240.281V152.03H237.725V156.692C237.725 157.112 237.827 157.418 238.031 157.61C238.235 157.79 238.523 157.88 238.895 157.88C239.363 157.88 239.813 157.772 240.245 157.556V159.338C239.969 159.494 239.675 159.614 239.363 159.698C239.063 159.782 238.703 159.824 238.283 159.824ZM251.151 159.842C250.467 159.842 249.771 159.722 249.063 159.482C248.367 159.242 247.719 158.888 247.119 158.42L248.091 156.944C248.619 157.328 249.147 157.622 249.675 157.826C250.203 158.018 250.713 158.114 251.205 158.114C251.673 158.114 252.033 158.024 252.285 157.844C252.549 157.652 252.681 157.4 252.681 157.088V157.052C252.681 156.872 252.621 156.716 252.501 156.584C252.393 156.452 252.237 156.338 252.033 156.242C251.841 156.146 251.613 156.056 251.349 155.972C251.097 155.888 250.833 155.804 250.557 155.72C250.209 155.624 249.855 155.51 249.495 155.378C249.147 155.246 248.829 155.078 248.541 154.874C248.265 154.658 248.037 154.394 247.857 154.082C247.677 153.77 247.587 153.386 247.587 152.93V152.894C247.587 152.45 247.671 152.048 247.839 151.688C248.019 151.328 248.259 151.022 248.559 150.77C248.871 150.518 249.231 150.326 249.639 150.194C250.059 150.062 250.503 149.996 250.971 149.996C251.571 149.996 252.177 150.092 252.789 150.284C253.401 150.476 253.959 150.74 254.463 151.076L253.599 152.624C253.143 152.348 252.681 152.132 252.213 151.976C251.745 151.808 251.313 151.724 250.917 151.724C250.497 151.724 250.167 151.814 249.927 151.994C249.699 152.162 249.585 152.384 249.585 152.66V152.696C249.585 152.876 249.645 153.032 249.765 153.164C249.885 153.284 250.041 153.398 250.233 153.506C250.437 153.602 250.665 153.698 250.917 153.794C251.181 153.878 251.451 153.962 251.727 154.046C252.075 154.154 252.423 154.28 252.771 154.424C253.119 154.568 253.431 154.748 253.707 154.964C253.995 155.168 254.229 155.42 254.409 155.72C254.589 156.02 254.679 156.386 254.679 156.818V156.854C254.679 157.358 254.589 157.796 254.409 158.168C254.229 158.54 253.977 158.852 253.653 159.104C253.341 159.344 252.969 159.53 252.537 159.662C252.105 159.782 251.643 159.842 251.151 159.842ZM259.921 159.824C259.525 159.824 259.159 159.776 258.823 159.68C258.487 159.584 258.193 159.428 257.941 159.212C257.701 158.996 257.515 158.714 257.383 158.366C257.251 158.006 257.185 157.562 257.185 157.034V152.03H255.979V150.158H257.185V147.548H259.363V150.158H261.919V152.03H259.363V156.692C259.363 157.112 259.465 157.418 259.669 157.61C259.873 157.79 260.161 157.88 260.533 157.88C261.001 157.88 261.451 157.772 261.883 157.556V159.338C261.607 159.494 261.313 159.614 261.001 159.698C260.701 159.782 260.341 159.824 259.921 159.824ZM268.228 159.878C267.544 159.878 266.902 159.758 266.302 159.518C265.714 159.278 265.198 158.942 264.754 158.51C264.322 158.078 263.98 157.562 263.728 156.962C263.476 156.35 263.35 155.678 263.35 154.946V154.91C263.35 154.226 263.464 153.584 263.692 152.984C263.92 152.384 264.238 151.862 264.646 151.418C265.066 150.962 265.558 150.608 266.122 150.356C266.686 150.092 267.31 149.96 267.994 149.96C268.75 149.96 269.41 150.098 269.974 150.374C270.55 150.65 271.024 151.022 271.396 151.49C271.78 151.958 272.068 152.504 272.26 153.128C272.452 153.74 272.548 154.388 272.548 155.072C272.548 155.168 272.542 155.27 272.53 155.378C272.53 155.474 272.524 155.576 272.512 155.684H265.528C265.648 156.464 265.954 157.064 266.446 157.484C266.95 157.892 267.556 158.096 268.264 158.096C268.804 158.096 269.272 158 269.668 157.808C270.064 157.616 270.454 157.334 270.838 156.962L272.116 158.096C271.66 158.636 271.114 159.068 270.478 159.392C269.854 159.716 269.104 159.878 268.228 159.878ZM270.388 154.244C270.352 153.896 270.274 153.572 270.154 153.272C270.034 152.96 269.872 152.696 269.668 152.48C269.464 152.252 269.218 152.072 268.93 151.94C268.654 151.808 268.336 151.742 267.976 151.742C267.304 151.742 266.746 151.976 266.302 152.444C265.87 152.9 265.606 153.5 265.51 154.244H270.388ZM274.735 150.158H276.913V151.742C277.261 151.25 277.693 150.83 278.209 150.482C278.725 150.134 279.373 149.96 280.153 149.96C280.705 149.96 281.245 150.068 281.773 150.284C282.313 150.5 282.787 150.818 283.195 151.238C283.603 151.658 283.933 152.174 284.185 152.786C284.437 153.398 284.563 154.1 284.563 154.892V154.928C284.563 155.72 284.437 156.422 284.185 157.034C283.945 157.646 283.615 158.162 283.195 158.582C282.787 159.002 282.319 159.32 281.791 159.536C281.263 159.752 280.717 159.86 280.153 159.86C279.361 159.86 278.707 159.692 278.191 159.356C277.675 159.02 277.249 158.63 276.913 158.186V162.542H274.735V150.158ZM279.631 157.97C280.003 157.97 280.351 157.898 280.675 157.754C281.011 157.61 281.299 157.412 281.539 157.16C281.791 156.896 281.989 156.578 282.133 156.206C282.277 155.822 282.349 155.396 282.349 154.928V154.892C282.349 154.436 282.277 154.022 282.133 153.65C281.989 153.266 281.791 152.942 281.539 152.678C281.299 152.414 281.011 152.21 280.675 152.066C280.351 151.922 280.003 151.85 279.631 151.85C279.259 151.85 278.905 151.922 278.569 152.066C278.233 152.21 277.939 152.42 277.687 152.696C277.435 152.96 277.231 153.278 277.075 153.65C276.931 154.022 276.859 154.436 276.859 154.892V154.928C276.859 155.384 276.931 155.798 277.075 156.17C277.231 156.542 277.435 156.866 277.687 157.142C277.939 157.406 278.233 157.61 278.569 157.754C278.905 157.898 279.259 157.97 279.631 157.97ZM23.404 174.63H25.744V176.7H23.404V174.63ZM23.494 178.158H25.672V187.662H23.494V178.158ZM28.5184 178.158H30.6964V179.616C30.8524 179.4 31.0204 179.19 31.2004 178.986C31.3924 178.782 31.6084 178.608 31.8484 178.464C32.1004 178.308 32.3704 178.188 32.6584 178.104C32.9584 178.008 33.2944 177.96 33.6664 177.96C34.7464 177.96 35.5804 178.29 36.1684 178.95C36.7564 179.61 37.0504 180.492 37.0504 181.596V187.662H34.8724V182.262C34.8724 181.518 34.6924 180.948 34.3324 180.552C33.9844 180.144 33.4864 179.94 32.8384 179.94C32.2024 179.94 31.6864 180.15 31.2904 180.57C30.8944 180.978 30.6964 181.554 30.6964 182.298V187.662H28.5184V178.158ZM48.8252 187.86C48.2612 187.86 47.7152 187.752 47.1872 187.536C46.6592 187.32 46.1912 187.002 45.7832 186.582C45.3752 186.162 45.0452 185.646 44.7932 185.034C44.5412 184.422 44.4152 183.72 44.4152 182.928V182.892C44.4152 182.1 44.5352 181.398 44.7752 180.786C45.0272 180.174 45.3572 179.658 45.7652 179.238C46.1732 178.818 46.6412 178.5 47.1692 178.284C47.7092 178.068 48.2612 177.96 48.8252 177.96C49.2212 177.96 49.5752 178.008 49.8872 178.104C50.2112 178.188 50.5052 178.308 50.7692 178.464C51.0332 178.62 51.2732 178.8 51.4892 179.004C51.7052 179.196 51.8972 179.406 52.0652 179.634V174.522H54.2432V187.662H52.0652V186.078C51.7172 186.57 51.2792 186.99 50.7512 187.338C50.2352 187.686 49.5932 187.86 48.8252 187.86ZM49.3472 185.97C49.7072 185.97 50.0552 185.898 50.3912 185.754C50.7272 185.61 51.0212 185.406 51.2732 185.142C51.5252 184.866 51.7232 184.542 51.8672 184.17C52.0232 183.798 52.1012 183.384 52.1012 182.928V182.892C52.1012 182.436 52.0232 182.022 51.8672 181.65C51.7232 181.266 51.5252 180.942 51.2732 180.678C51.0212 180.414 50.7272 180.21 50.3912 180.066C50.0552 179.922 49.7072 179.85 49.3472 179.85C48.9752 179.85 48.6212 179.922 48.2852 180.066C47.9612 180.198 47.6732 180.396 47.4212 180.66C47.1692 180.924 46.9712 181.248 46.8272 181.632C46.6832 182.004 46.6112 182.424 46.6112 182.892V182.928C46.6112 183.384 46.6832 183.804 46.8272 184.188C46.9712 184.56 47.1692 184.878 47.4212 185.142C47.6732 185.406 47.9612 185.61 48.2852 185.754C48.6212 185.898 48.9752 185.97 49.3472 185.97ZM61.3334 187.878C60.6494 187.878 60.0074 187.758 59.4074 187.518C58.8194 187.278 58.3034 186.942 57.8594 186.51C57.4274 186.078 57.0854 185.562 56.8334 184.962C56.5814 184.35 56.4554 183.678 56.4554 182.946V182.91C56.4554 182.226 56.5694 181.584 56.7974 180.984C57.0254 180.384 57.3434 179.862 57.7514 179.418C58.1714 178.962 58.6634 178.608 59.2274 178.356C59.7914 178.092 60.4154 177.96 61.0994 177.96C61.8554 177.96 62.5154 178.098 63.0794 178.374C63.6554 178.65 64.1294 179.022 64.5014 179.49C64.8854 179.958 65.1734 180.504 65.3654 181.128C65.5574 181.74 65.6534 182.388 65.6534 183.072C65.6534 183.168 65.6474 183.27 65.6354 183.378C65.6354 183.474 65.6294 183.576 65.6174 183.684H58.6334C58.7534 184.464 59.0594 185.064 59.5514 185.484C60.0554 185.892 60.6614 186.096 61.3694 186.096C61.9094 186.096 62.3774 186 62.7734 185.808C63.1694 185.616 63.5594 185.334 63.9434 184.962L65.2214 186.096C64.7654 186.636 64.2194 187.068 63.5834 187.392C62.9594 187.716 62.2094 187.878 61.3334 187.878ZM63.4934 182.244C63.4574 181.896 63.3794 181.572 63.2594 181.272C63.1394 180.96 62.9774 180.696 62.7734 180.48C62.5694 180.252 62.3234 180.072 62.0354 179.94C61.7594 179.808 61.4414 179.742 61.0814 179.742C60.4094 179.742 59.8514 179.976 59.4074 180.444C58.9754 180.9 58.7114 181.5 58.6154 182.244H63.4934ZM66.4836 178.158H68.8236L71.3796 185.142L73.9536 178.158H76.2396L72.3516 187.734H70.3896L66.4836 178.158ZM81.8998 187.878C81.2158 187.878 80.5738 187.758 79.9738 187.518C79.3858 187.278 78.8698 186.942 78.4258 186.51C77.9938 186.078 77.6518 185.562 77.3998 184.962C77.1478 184.35 77.0218 183.678 77.0218 182.946V182.91C77.0218 182.226 77.1358 181.584 77.3638 180.984C77.5918 180.384 77.9098 179.862 78.3178 179.418C78.7378 178.962 79.2298 178.608 79.7938 178.356C80.3578 178.092 80.9818 177.96 81.6658 177.96C82.4218 177.96 83.0818 178.098 83.6458 178.374C84.2218 178.65 84.6958 179.022 85.0678 179.49C85.4518 179.958 85.7398 180.504 85.9318 181.128C86.1238 181.74 86.2198 182.388 86.2198 183.072C86.2198 183.168 86.2138 183.27 86.2018 183.378C86.2018 183.474 86.1958 183.576 86.1838 183.684H79.1998C79.3198 184.464 79.6258 185.064 80.1178 185.484C80.6218 185.892 81.2278 186.096 81.9358 186.096C82.4758 186.096 82.9438 186 83.3398 185.808C83.7358 185.616 84.1258 185.334 84.5098 184.962L85.7878 186.096C85.3318 186.636 84.7858 187.068 84.1498 187.392C83.5258 187.716 82.7758 187.878 81.8998 187.878ZM84.0598 182.244C84.0238 181.896 83.9458 181.572 83.8258 181.272C83.7058 180.96 83.5438 180.696 83.3398 180.48C83.1358 180.252 82.8898 180.072 82.6018 179.94C82.3258 179.808 82.0078 179.742 81.6478 179.742C80.9758 179.742 80.4178 179.976 79.9738 180.444C79.5418 180.9 79.2778 181.5 79.1818 182.244H84.0598ZM88.5331 174.522H90.7111V187.662H88.5331V174.522ZM98.0755 187.878C97.3555 187.878 96.6835 187.752 96.0595 187.5C95.4475 187.236 94.9135 186.882 94.4575 186.438C94.0135 185.994 93.6655 185.472 93.4135 184.872C93.1615 184.272 93.0355 183.636 93.0355 182.964V182.928C93.0355 182.244 93.1615 181.602 93.4135 181.002C93.6775 180.402 94.0315 179.88 94.4755 179.436C94.9315 178.98 95.4655 178.62 96.0775 178.356C96.7015 178.092 97.3795 177.96 98.1115 177.96C98.8435 177.96 99.5155 178.092 100.127 178.356C100.751 178.608 101.285 178.962 101.729 179.418C102.185 179.862 102.539 180.384 102.791 180.984C103.043 181.572 103.169 182.208 103.169 182.892V182.928C103.169 183.6 103.037 184.236 102.773 184.836C102.521 185.436 102.167 185.964 101.711 186.42C101.267 186.864 100.733 187.218 100.109 187.482C99.4855 187.746 98.8075 187.878 98.0755 187.878ZM98.1115 185.97C98.5555 185.97 98.9515 185.892 99.2995 185.736C99.6595 185.568 99.9655 185.352 100.217 185.088C100.469 184.812 100.661 184.494 100.793 184.134C100.925 183.762 100.991 183.372 100.991 182.964V182.928C100.991 182.508 100.919 182.112 100.775 181.74C100.631 181.368 100.427 181.044 100.163 180.768C99.9115 180.492 99.6055 180.276 99.2455 180.12C98.8975 179.952 98.5075 179.868 98.0755 179.868C97.6435 179.868 97.2475 179.952 96.8875 180.12C96.5395 180.276 96.2395 180.492 95.9875 180.768C95.7355 181.032 95.5435 181.35 95.4115 181.722C95.2795 182.094 95.2135 182.484 95.2135 182.892V182.928C95.2135 183.348 95.2855 183.744 95.4295 184.116C95.5735 184.476 95.7715 184.794 96.0235 185.07C96.2875 185.346 96.5935 185.568 96.9415 185.736C97.3015 185.892 97.6915 185.97 98.1115 185.97ZM105.388 178.158H107.566V179.742C107.914 179.25 108.346 178.83 108.862 178.482C109.378 178.134 110.026 177.96 110.806 177.96C111.358 177.96 111.898 178.068 112.426 178.284C112.966 178.5 113.44 178.818 113.848 179.238C114.256 179.658 114.586 180.174 114.838 180.786C115.09 181.398 115.216 182.1 115.216 182.892V182.928C115.216 183.72 115.09 184.422 114.838 185.034C114.598 185.646 114.268 186.162 113.848 186.582C113.44 187.002 112.972 187.32 112.444 187.536C111.916 187.752 111.37 187.86 110.806 187.86C110.014 187.86 109.36 187.692 108.844 187.356C108.328 187.02 107.902 186.63 107.566 186.186V190.542H105.388V178.158ZM110.284 185.97C110.656 185.97 111.004 185.898 111.328 185.754C111.664 185.61 111.952 185.412 112.192 185.16C112.444 184.896 112.642 184.578 112.786 184.206C112.93 183.822 113.002 183.396 113.002 182.928V182.892C113.002 182.436 112.93 182.022 112.786 181.65C112.642 181.266 112.444 180.942 112.192 180.678C111.952 180.414 111.664 180.21 111.328 180.066C111.004 179.922 110.656 179.85 110.284 179.85C109.912 179.85 109.558 179.922 109.222 180.066C108.886 180.21 108.592 180.42 108.34 180.696C108.088 180.96 107.884 181.278 107.728 181.65C107.584 182.022 107.512 182.436 107.512 182.892V182.928C107.512 183.384 107.584 183.798 107.728 184.17C107.884 184.542 108.088 184.866 108.34 185.142C108.592 185.406 108.886 185.61 109.222 185.754C109.558 185.898 109.912 185.97 110.284 185.97ZM117.5 174.63H119.84V176.7H117.5V174.63ZM117.59 178.158H119.768V187.662H117.59V178.158ZM122.614 178.158H124.792V179.616C124.948 179.4 125.116 179.19 125.296 178.986C125.488 178.782 125.704 178.608 125.944 178.464C126.196 178.308 126.466 178.188 126.754 178.104C127.054 178.008 127.39 177.96 127.762 177.96C128.842 177.96 129.676 178.29 130.264 178.95C130.852 179.61 131.146 180.492 131.146 181.596V187.662H128.968V182.262C128.968 181.518 128.788 180.948 128.428 180.552C128.08 180.144 127.582 179.94 126.934 179.94C126.298 179.94 125.782 180.15 125.386 180.57C124.99 180.978 124.792 181.554 124.792 182.298V187.662H122.614V178.158ZM138.006 190.578C136.422 190.578 135.006 190.2 133.758 189.444L134.568 187.806C135.084 188.118 135.612 188.364 136.152 188.544C136.704 188.724 137.304 188.814 137.952 188.814C138.924 188.814 139.668 188.568 140.184 188.076C140.7 187.584 140.958 186.858 140.958 185.898V185.16C140.562 185.676 140.1 186.096 139.572 186.42C139.044 186.744 138.39 186.906 137.61 186.906C137.046 186.906 136.506 186.804 135.99 186.6C135.474 186.396 135.012 186.108 134.604 185.736C134.208 185.352 133.89 184.884 133.65 184.332C133.41 183.78 133.29 183.156 133.29 182.46V182.424C133.29 181.728 133.41 181.104 133.65 180.552C133.89 179.988 134.208 179.52 134.604 179.148C135.012 178.764 135.474 178.47 135.99 178.266C136.518 178.062 137.058 177.96 137.61 177.96C138.414 177.96 139.074 178.122 139.59 178.446C140.118 178.758 140.568 179.136 140.94 179.58V178.158H143.118V185.718C143.118 187.302 142.716 188.496 141.912 189.3C141.48 189.732 140.934 190.05 140.274 190.254C139.626 190.47 138.87 190.578 138.006 190.578ZM138.186 185.052C138.558 185.052 138.912 184.992 139.248 184.872C139.596 184.74 139.896 184.56 140.148 184.332C140.4 184.104 140.598 183.828 140.742 183.504C140.898 183.18 140.976 182.826 140.976 182.442V182.406C140.976 182.022 140.898 181.668 140.742 181.344C140.598 181.02 140.4 180.744 140.148 180.516C139.896 180.288 139.596 180.114 139.248 179.994C138.912 179.862 138.558 179.796 138.186 179.796C137.802 179.796 137.448 179.862 137.124 179.994C136.8 180.114 136.512 180.288 136.26 180.516C136.02 180.744 135.828 181.02 135.684 181.344C135.552 181.656 135.486 182.01 135.486 182.406V182.442C135.486 182.826 135.558 183.18 135.702 183.504C135.846 183.828 136.038 184.104 136.278 184.332C136.518 184.56 136.8 184.74 137.124 184.872C137.46 184.992 137.814 185.052 138.186 185.052ZM157.661 178.158H159.929L156.149 187.932C155.957 188.424 155.759 188.838 155.555 189.174C155.351 189.51 155.123 189.78 154.871 189.984C154.619 190.2 154.343 190.356 154.043 190.452C153.743 190.548 153.401 190.596 153.017 190.596C152.561 190.596 152.153 190.542 151.793 190.434C151.445 190.338 151.103 190.2 150.767 190.02L151.505 188.4C151.709 188.508 151.913 188.592 152.117 188.652C152.333 188.724 152.555 188.76 152.783 188.76C153.095 188.76 153.353 188.682 153.557 188.526C153.761 188.37 153.953 188.088 154.133 187.68L150.173 178.158H152.513L155.195 185.214L157.661 178.158ZM165.769 187.878C165.049 187.878 164.377 187.752 163.753 187.5C163.141 187.236 162.607 186.882 162.151 186.438C161.707 185.994 161.359 185.472 161.107 184.872C160.855 184.272 160.729 183.636 160.729 182.964V182.928C160.729 182.244 160.855 181.602 161.107 181.002C161.371 180.402 161.725 179.88 162.169 179.436C162.625 178.98 163.159 178.62 163.771 178.356C164.395 178.092 165.073 177.96 165.805 177.96C166.537 177.96 167.209 178.092 167.821 178.356C168.445 178.608 168.979 178.962 169.423 179.418C169.879 179.862 170.233 180.384 170.485 180.984C170.737 181.572 170.863 182.208 170.863 182.892V182.928C170.863 183.6 170.731 184.236 170.467 184.836C170.215 185.436 169.861 185.964 169.405 186.42C168.961 186.864 168.427 187.218 167.803 187.482C167.179 187.746 166.501 187.878 165.769 187.878ZM165.805 185.97C166.249 185.97 166.645 185.892 166.993 185.736C167.353 185.568 167.659 185.352 167.911 185.088C168.163 184.812 168.355 184.494 168.487 184.134C168.619 183.762 168.685 183.372 168.685 182.964V182.928C168.685 182.508 168.613 182.112 168.469 181.74C168.325 181.368 168.121 181.044 167.857 180.768C167.605 180.492 167.299 180.276 166.939 180.12C166.591 179.952 166.201 179.868 165.769 179.868C165.337 179.868 164.941 179.952 164.581 180.12C164.233 180.276 163.933 180.492 163.681 180.768C163.429 181.032 163.237 181.35 163.105 181.722C162.973 182.094 162.907 182.484 162.907 182.892V182.928C162.907 183.348 162.979 183.744 163.123 184.116C163.267 184.476 163.465 184.794 163.717 185.07C163.981 185.346 164.287 185.568 164.635 185.736C164.995 185.892 165.385 185.97 165.805 185.97ZM176.357 187.86C175.277 187.86 174.443 187.53 173.855 186.87C173.267 186.21 172.973 185.322 172.973 184.206V178.158H175.151V183.558C175.151 184.302 175.325 184.872 175.673 185.268C176.033 185.664 176.537 185.862 177.185 185.862C177.821 185.862 178.337 185.658 178.733 185.25C179.129 184.842 179.327 184.266 179.327 183.522V178.158H181.523V187.662H179.327V186.186C179.015 186.642 178.625 187.038 178.157 187.374C177.689 187.698 177.089 187.86 176.357 187.86ZM184.243 178.158H186.421V180.3C186.721 179.58 187.147 179.004 187.699 178.572C188.251 178.14 188.947 177.942 189.787 177.978V180.282H189.661C189.181 180.282 188.743 180.36 188.347 180.516C187.951 180.672 187.609 180.906 187.321 181.218C187.033 181.53 186.811 181.926 186.655 182.406C186.499 182.874 186.421 183.42 186.421 184.044V187.662H184.243V178.158ZM201.291 187.878C200.583 187.878 199.929 187.752 199.329 187.5C198.729 187.236 198.207 186.882 197.763 186.438C197.331 185.994 196.989 185.472 196.737 184.872C196.497 184.272 196.377 183.636 196.377 182.964V182.928C196.377 182.256 196.497 181.62 196.737 181.02C196.989 180.408 197.337 179.88 197.781 179.436C198.225 178.98 198.747 178.62 199.347 178.356C199.947 178.092 200.607 177.96 201.327 177.96C201.771 177.96 202.173 178.002 202.533 178.086C202.905 178.158 203.241 178.266 203.541 178.41C203.853 178.554 204.135 178.728 204.387 178.932C204.651 179.136 204.897 179.358 205.125 179.598L203.757 181.056C203.421 180.708 203.061 180.426 202.677 180.21C202.305 179.982 201.849 179.868 201.309 179.868C200.913 179.868 200.547 179.952 200.211 180.12C199.875 180.276 199.581 180.492 199.329 180.768C199.089 181.032 198.897 181.35 198.753 181.722C198.621 182.094 198.555 182.484 198.555 182.892V182.928C198.555 183.348 198.621 183.744 198.753 184.116C198.897 184.488 199.095 184.812 199.347 185.088C199.599 185.364 199.899 185.58 200.247 185.736C200.595 185.892 200.979 185.97 201.399 185.97C201.915 185.97 202.365 185.862 202.749 185.646C203.145 185.43 203.517 185.148 203.865 184.8L205.179 186.096C204.711 186.624 204.177 187.056 203.577 187.392C202.977 187.716 202.215 187.878 201.291 187.878ZM209.918 187.86C209.474 187.86 209.048 187.794 208.64 187.662C208.232 187.542 207.872 187.362 207.56 187.122C207.26 186.87 207.014 186.564 206.822 186.204C206.642 185.832 206.552 185.406 206.552 184.926V184.89C206.552 184.374 206.648 183.924 206.84 183.54C207.032 183.156 207.296 182.838 207.632 182.586C207.98 182.334 208.394 182.148 208.874 182.028C209.366 181.896 209.9 181.83 210.476 181.83C211.016 181.83 211.484 181.866 211.88 181.938C212.276 182.01 212.66 182.106 213.032 182.226V181.992C213.032 181.308 212.828 180.792 212.42 180.444C212.024 180.096 211.442 179.922 210.674 179.922C210.134 179.922 209.654 179.976 209.234 180.084C208.814 180.192 208.388 180.336 207.956 180.516L207.38 178.806C207.908 178.566 208.448 178.38 209 178.248C209.552 178.104 210.206 178.032 210.962 178.032C212.378 178.032 213.428 178.386 214.112 179.094C214.46 179.442 214.718 179.862 214.886 180.354C215.054 180.846 215.138 181.404 215.138 182.028V187.662H213.014V186.474C212.69 186.858 212.276 187.188 211.772 187.464C211.268 187.728 210.65 187.86 209.918 187.86ZM210.53 186.276C210.89 186.276 211.226 186.228 211.538 186.132C211.85 186.036 212.114 185.898 212.33 185.718C212.558 185.538 212.738 185.322 212.87 185.07C213.002 184.818 213.068 184.542 213.068 184.242V183.594C212.792 183.486 212.468 183.396 212.096 183.324C211.736 183.252 211.34 183.216 210.908 183.216C210.2 183.216 209.648 183.354 209.252 183.63C208.868 183.906 208.676 184.296 208.676 184.8V184.836C208.676 185.292 208.85 185.646 209.198 185.898C209.558 186.15 210.002 186.276 210.53 186.276ZM217.747 178.158H219.925V180.3C220.225 179.58 220.651 179.004 221.203 178.572C221.755 178.14 222.451 177.942 223.291 177.978V180.282H223.165C222.685 180.282 222.247 180.36 221.851 180.516C221.455 180.672 221.113 180.906 220.825 181.218C220.537 181.53 220.315 181.926 220.159 182.406C220.003 182.874 219.925 183.42 219.925 184.044V187.662H217.747V178.158ZM229.222 187.878C228.538 187.878 227.896 187.758 227.296 187.518C226.708 187.278 226.192 186.942 225.748 186.51C225.316 186.078 224.974 185.562 224.722 184.962C224.47 184.35 224.344 183.678 224.344 182.946V182.91C224.344 182.226 224.458 181.584 224.686 180.984C224.914 180.384 225.232 179.862 225.64 179.418C226.06 178.962 226.552 178.608 227.116 178.356C227.68 178.092 228.304 177.96 228.988 177.96C229.744 177.96 230.404 178.098 230.968 178.374C231.544 178.65 232.018 179.022 232.39 179.49C232.774 179.958 233.062 180.504 233.254 181.128C233.446 181.74 233.542 182.388 233.542 183.072C233.542 183.168 233.536 183.27 233.524 183.378C233.524 183.474 233.518 183.576 233.506 183.684H226.522C226.642 184.464 226.948 185.064 227.44 185.484C227.944 185.892 228.55 186.096 229.258 186.096C229.798 186.096 230.266 186 230.662 185.808C231.058 185.616 231.448 185.334 231.832 184.962L233.11 186.096C232.654 186.636 232.108 187.068 231.472 187.392C230.848 187.716 230.098 187.878 229.222 187.878ZM231.382 182.244C231.346 181.896 231.268 181.572 231.148 181.272C231.028 180.96 230.866 180.696 230.662 180.48C230.458 180.252 230.212 180.072 229.924 179.94C229.648 179.808 229.33 179.742 228.97 179.742C228.298 179.742 227.74 179.976 227.296 180.444C226.864 180.9 226.6 181.5 226.504 182.244H231.382ZM240.085 187.878C239.401 187.878 238.759 187.758 238.159 187.518C237.571 187.278 237.055 186.942 236.611 186.51C236.179 186.078 235.837 185.562 235.585 184.962C235.333 184.35 235.207 183.678 235.207 182.946V182.91C235.207 182.226 235.321 181.584 235.549 180.984C235.777 180.384 236.095 179.862 236.503 179.418C236.923 178.962 237.415 178.608 237.979 178.356C238.543 178.092 239.167 177.96 239.851 177.96C240.607 177.96 241.267 178.098 241.831 178.374C242.407 178.65 242.881 179.022 243.253 179.49C243.637 179.958 243.925 180.504 244.117 181.128C244.309 181.74 244.405 182.388 244.405 183.072C244.405 183.168 244.399 183.27 244.387 183.378C244.387 183.474 244.381 183.576 244.369 183.684H237.385C237.505 184.464 237.811 185.064 238.303 185.484C238.807 185.892 239.413 186.096 240.121 186.096C240.661 186.096 241.129 186 241.525 185.808C241.921 185.616 242.311 185.334 242.695 184.962L243.973 186.096C243.517 186.636 242.971 187.068 242.335 187.392C241.711 187.716 240.961 187.878 240.085 187.878ZM242.245 182.244C242.209 181.896 242.131 181.572 242.011 181.272C241.891 180.96 241.729 180.696 241.525 180.48C241.321 180.252 241.075 180.072 240.787 179.94C240.511 179.808 240.193 179.742 239.833 179.742C239.161 179.742 238.603 179.976 238.159 180.444C237.727 180.9 237.463 181.5 237.367 182.244H242.245ZM246.593 178.158H248.771V180.3C249.071 179.58 249.497 179.004 250.049 178.572C250.601 178.14 251.297 177.942 252.137 177.978V180.282H252.011C251.531 180.282 251.093 180.36 250.697 180.516C250.301 180.672 249.959 180.906 249.671 181.218C249.383 181.53 249.161 181.926 249.005 182.406C248.849 182.874 248.771 183.42 248.771 184.044V187.662H246.593V178.158ZM252.267 185.178H254.661V187.662H252.267V185.178Z" fill="#666666"/>
<path d="M23.8 215.528H34.18V217.728H26.26V221.368H33.28V223.568H26.26V227.328H34.28V229.528H23.8V215.528ZM41.2184 222.508L43.6584 218.968H46.2384L42.5184 224.128L46.3984 229.528H43.7584L41.1584 225.768L38.5784 229.528H35.9984L39.8584 224.148L36.1384 218.968H38.7784L41.2184 222.508ZM48.52 218.968H50.94V220.728C51.3267 220.181 51.8067 219.714 52.38 219.328C52.9533 218.941 53.6733 218.748 54.54 218.748C55.1533 218.748 55.7533 218.868 56.34 219.108C56.94 219.348 57.4667 219.701 57.92 220.168C58.3733 220.634 58.74 221.208 59.02 221.888C59.3 222.568 59.44 223.348 59.44 224.228V224.268C59.44 225.148 59.3 225.928 59.02 226.608C58.7533 227.288 58.3867 227.861 57.92 228.328C57.4667 228.794 56.9467 229.148 56.36 229.388C55.7733 229.628 55.1667 229.748 54.54 229.748C53.66 229.748 52.9333 229.561 52.36 229.188C51.7867 228.814 51.3133 228.381 50.94 227.888V232.728H48.52V218.968ZM53.96 227.648C54.3733 227.648 54.76 227.568 55.12 227.408C55.4933 227.248 55.8133 227.028 56.08 226.748C56.36 226.454 56.58 226.101 56.74 225.688C56.9 225.261 56.98 224.788 56.98 224.268V224.228C56.98 223.721 56.9 223.261 56.74 222.848C56.58 222.421 56.36 222.061 56.08 221.768C55.8133 221.474 55.4933 221.248 55.12 221.088C54.76 220.928 54.3733 220.848 53.96 220.848C53.5467 220.848 53.1533 220.928 52.78 221.088C52.4067 221.248 52.08 221.481 51.8 221.788C51.52 222.081 51.2933 222.434 51.12 222.848C50.96 223.261 50.88 223.721 50.88 224.228V224.268C50.88 224.774 50.96 225.234 51.12 225.648C51.2933 226.061 51.52 226.421 51.8 226.728C52.08 227.021 52.4067 227.248 52.78 227.408C53.1533 227.568 53.5467 227.648 53.96 227.648ZM62.078 214.928H64.498V229.528H62.078V214.928ZM72.6806 229.768C71.8806 229.768 71.134 229.628 70.4406 229.348C69.7606 229.054 69.1673 228.661 68.6606 228.168C68.1673 227.674 67.7806 227.094 67.5006 226.428C67.2206 225.761 67.0806 225.054 67.0806 224.308V224.268C67.0806 223.508 67.2206 222.794 67.5006 222.128C67.794 221.461 68.1873 220.881 68.6806 220.388C69.1873 219.881 69.7806 219.481 70.4606 219.188C71.154 218.894 71.9073 218.748 72.7206 218.748C73.534 218.748 74.2806 218.894 74.9606 219.188C75.654 219.468 76.2473 219.861 76.7406 220.368C77.2473 220.861 77.6406 221.441 77.9206 222.108C78.2006 222.761 78.3406 223.468 78.3406 224.228V224.268C78.3406 225.014 78.194 225.721 77.9006 226.388C77.6206 227.054 77.2273 227.641 76.7206 228.148C76.2273 228.641 75.634 229.034 74.9406 229.328C74.2473 229.621 73.494 229.768 72.6806 229.768ZM72.7206 227.648C73.214 227.648 73.654 227.561 74.0406 227.388C74.4406 227.201 74.7806 226.961 75.0606 226.668C75.3406 226.361 75.554 226.008 75.7006 225.608C75.8473 225.194 75.9206 224.761 75.9206 224.308V224.268C75.9206 223.801 75.8406 223.361 75.6806 222.948C75.5206 222.534 75.294 222.174 75.0006 221.868C74.7206 221.561 74.3806 221.321 73.9806 221.148C73.594 220.961 73.1606 220.868 72.6806 220.868C72.2006 220.868 71.7606 220.961 71.3606 221.148C70.974 221.321 70.6406 221.561 70.3606 221.868C70.0806 222.161 69.8673 222.514 69.7206 222.928C69.574 223.341 69.5006 223.774 69.5006 224.228V224.268C69.5006 224.734 69.5806 225.174 69.7406 225.588C69.9006 225.988 70.1206 226.341 70.4006 226.648C70.694 226.954 71.034 227.201 71.4206 227.388C71.8206 227.561 72.254 227.648 72.7206 227.648ZM80.8052 218.968H83.2252V221.348C83.5585 220.548 84.0318 219.908 84.6452 219.428C85.2585 218.948 86.0318 218.728 86.9652 218.768V221.328H86.8252C86.2918 221.328 85.8052 221.414 85.3652 221.588C84.9252 221.761 84.5452 222.021 84.2252 222.368C83.9052 222.714 83.6585 223.154 83.4852 223.688C83.3118 224.208 83.2252 224.814 83.2252 225.508V229.528H80.8052V218.968ZM93.5553 229.768C92.7953 229.768 92.082 229.634 91.4153 229.368C90.762 229.101 90.1886 228.728 89.6953 228.248C89.2153 227.768 88.8353 227.194 88.5553 226.528C88.2753 225.848 88.1353 225.101 88.1353 224.288V224.248C88.1353 223.488 88.262 222.774 88.5153 222.108C88.7686 221.441 89.122 220.861 89.5753 220.368C90.042 219.861 90.5886 219.468 91.2153 219.188C91.842 218.894 92.5353 218.748 93.2953 218.748C94.1353 218.748 94.8686 218.901 95.4953 219.208C96.1353 219.514 96.662 219.928 97.0753 220.448C97.502 220.968 97.822 221.574 98.0353 222.268C98.2486 222.948 98.3553 223.668 98.3553 224.428C98.3553 224.534 98.3486 224.648 98.3353 224.768C98.3353 224.874 98.3286 224.988 98.3153 225.108H90.5553C90.6886 225.974 91.0286 226.641 91.5753 227.108C92.1353 227.561 92.8086 227.788 93.5953 227.788C94.1953 227.788 94.7153 227.681 95.1553 227.468C95.5953 227.254 96.0286 226.941 96.4553 226.528L97.8753 227.788C97.3686 228.388 96.762 228.868 96.0553 229.228C95.362 229.588 94.5286 229.768 93.5553 229.768ZM95.9553 223.508C95.9153 223.121 95.8286 222.761 95.6953 222.428C95.562 222.081 95.382 221.788 95.1553 221.548C94.9286 221.294 94.6553 221.094 94.3353 220.948C94.0286 220.801 93.6753 220.728 93.2753 220.728C92.5286 220.728 91.9086 220.988 91.4153 221.508C90.9353 222.014 90.642 222.681 90.5353 223.508H95.9553Z" fill="#0487F3"/>
<line x1="102.05" y1="218.96" x2="105.891" y2="222.801" stroke="#0487F3" stroke-width="1.81081" stroke-linecap="round"/>
<path d="M102.127 226.656L105.749 223.034" stroke="#0487F3" stroke-width="1.81081" stroke-linecap="round"/>
<g clip-path="url(#clip0)">
<path d="M50.9735 33.6025L22 53.4801H79.9459L50.9735 33.6025Z" fill="#ABCB57"/>
<path opacity="0.3" d="M36.2207 49.0716L50.9742 38.9497L65.7274 49.0716H36.2207Z" fill="#5B5B5F"/>
<path d="M77.3051 74.6743H24.6426V80.3431H77.3051V74.6743Z" fill="#ABCB57"/>
<path d="M39.087 53.4805H29.7852V74.6745H39.087V53.4805Z" fill="#ABCB57"/>
<path d="M55.6241 53.4805H46.3223V74.6745H55.6241V53.4805Z" fill="#ABCB57"/>
<path d="M72.1593 53.4805H62.8574V74.6745H72.1593V53.4805Z" fill="#ABCB57"/>
<path d="M77.3051 53.4805H24.6426V54.9576H77.3051V53.4805Z" fill="#ABCB57"/>
<path d="M77.3051 74.6743H24.6426V77.5088H77.3051V74.6743Z" fill="#ABCB57"/>
<path opacity="0.3" d="M24.6426 53.4805V54.9576H34.437V74.6744H24.6426V77.5089H77.3051V74.6744H72.1605V54.9576H77.3051V53.4805H24.6426ZM39.0879 54.9576H50.9737V74.6744H39.0879V54.9576ZM67.5095 74.6744H55.6251V54.9576H67.5095V74.6744Z" fill="#5B5B5F"/>
</g>
<defs>
<clipPath id="clip0">
<rect x="22" y="28" width="57.9459" height="57.9459" fill="white"/>
</clipPath>
</defs>
</svg>
