<svg width="312" height="360" viewBox="0 0 312 360" fill="none" xmlns="http://www.w3.org/2000/svg">
<rect width="312" height="360" rx="16" fill="white"/>
<path d="M82.056 221.784H66.264V215.4H90.456V220.968L75.384 249H67.032L82.056 221.784ZM101.732 222.648L95.8755 224.088L94.3395 218.04L103.988 215.16H109.028V249H101.732V222.648ZM130.91 249.576C128.67 249.576 126.622 249.144 124.766 248.28C122.942 247.384 121.374 246.168 120.062 244.632C118.782 243.064 117.79 241.224 117.086 239.112C116.382 237 116.03 234.728 116.03 232.296V232.2C116.03 229.768 116.382 227.496 117.086 225.384C117.822 223.272 118.846 221.432 120.158 219.864C121.47 218.296 123.038 217.064 124.862 216.168C126.718 215.272 128.766 214.824 131.006 214.824C133.214 214.824 135.23 215.272 137.054 216.168C138.91 217.032 140.478 218.248 141.758 219.816C143.07 221.352 144.078 223.176 144.782 225.288C145.518 227.4 145.886 229.672 145.886 232.104V232.2C145.886 234.632 145.518 236.904 144.782 239.016C144.078 241.128 143.07 242.968 141.758 244.536C140.446 246.104 138.862 247.336 137.006 248.232C135.182 249.128 133.15 249.576 130.91 249.576ZM131.006 242.904C132.126 242.904 133.134 242.648 134.03 242.136C134.926 241.592 135.694 240.856 136.334 239.928C136.974 238.968 137.454 237.848 137.774 236.568C138.126 235.256 138.302 233.832 138.302 232.296V232.2C138.302 230.664 138.126 229.256 137.774 227.976C137.422 226.664 136.91 225.528 136.238 224.568C135.598 223.608 134.814 222.856 133.886 222.312C132.99 221.768 131.998 221.496 130.91 221.496C129.79 221.496 128.782 221.768 127.886 222.312C126.99 222.824 126.222 223.56 125.582 224.52C124.974 225.448 124.494 226.568 124.142 227.88C123.79 229.16 123.614 230.568 123.614 232.104V232.2C123.614 233.736 123.79 235.16 124.142 236.472C124.494 237.784 124.99 238.92 125.63 239.88C126.27 240.808 127.038 241.544 127.934 242.088C128.862 242.632 129.886 242.904 131.006 242.904ZM165.972 249.576C163.732 249.576 161.684 249.144 159.828 248.28C158.004 247.384 156.436 246.168 155.124 244.632C153.844 243.064 152.852 241.224 152.148 239.112C151.444 237 151.092 234.728 151.092 232.296V232.2C151.092 229.768 151.444 227.496 152.148 225.384C152.884 223.272 153.908 221.432 155.22 219.864C156.532 218.296 158.1 217.064 159.924 216.168C161.78 215.272 163.828 214.824 166.068 214.824C168.276 214.824 170.292 215.272 172.116 216.168C173.972 217.032 175.54 218.248 176.82 219.816C178.132 221.352 179.14 223.176 179.844 225.288C180.58 227.4 180.948 229.672 180.948 232.104V232.2C180.948 234.632 180.58 236.904 179.844 239.016C179.14 241.128 178.132 242.968 176.82 244.536C175.508 246.104 173.924 247.336 172.068 248.232C170.244 249.128 168.212 249.576 165.972 249.576ZM166.068 242.904C167.188 242.904 168.196 242.648 169.092 242.136C169.988 241.592 170.756 240.856 171.396 239.928C172.036 238.968 172.516 237.848 172.836 236.568C173.188 235.256 173.364 233.832 173.364 232.296V232.2C173.364 230.664 173.188 229.256 172.836 227.976C172.484 226.664 171.972 225.528 171.3 224.568C170.66 223.608 169.876 222.856 168.948 222.312C168.052 221.768 167.06 221.496 165.972 221.496C164.852 221.496 163.844 221.768 162.948 222.312C162.052 222.824 161.284 223.56 160.644 224.52C160.036 225.448 159.556 226.568 159.204 227.88C158.852 229.16 158.676 230.568 158.676 232.104V232.2C158.676 233.736 158.852 235.16 159.204 236.472C159.556 237.784 160.052 238.92 160.692 239.88C161.332 240.808 162.1 241.544 162.996 242.088C163.924 242.632 164.948 242.904 166.068 242.904ZM201.035 249.576C198.795 249.576 196.747 249.144 194.891 248.28C193.067 247.384 191.499 246.168 190.187 244.632C188.907 243.064 187.915 241.224 187.211 239.112C186.507 237 186.155 234.728 186.155 232.296V232.2C186.155 229.768 186.507 227.496 187.211 225.384C187.947 223.272 188.971 221.432 190.283 219.864C191.595 218.296 193.163 217.064 194.987 216.168C196.843 215.272 198.891 214.824 201.131 214.824C203.339 214.824 205.355 215.272 207.179 216.168C209.035 217.032 210.603 218.248 211.883 219.816C213.195 221.352 214.203 223.176 214.907 225.288C215.643 227.4 216.011 229.672 216.011 232.104V232.2C216.011 234.632 215.643 236.904 214.907 239.016C214.203 241.128 213.195 242.968 211.883 244.536C210.571 246.104 208.987 247.336 207.131 248.232C205.307 249.128 203.275 249.576 201.035 249.576ZM201.131 242.904C202.251 242.904 203.259 242.648 204.155 242.136C205.051 241.592 205.819 240.856 206.459 239.928C207.099 238.968 207.579 237.848 207.899 236.568C208.251 235.256 208.427 233.832 208.427 232.296V232.2C208.427 230.664 208.251 229.256 207.899 227.976C207.547 226.664 207.035 225.528 206.363 224.568C205.723 223.608 204.939 222.856 204.011 222.312C203.115 221.768 202.123 221.496 201.035 221.496C199.915 221.496 198.907 221.768 198.011 222.312C197.115 222.824 196.347 223.56 195.707 224.52C195.099 225.448 194.619 226.568 194.267 227.88C193.915 229.16 193.739 230.568 193.739 232.104V232.2C193.739 233.736 193.915 235.16 194.267 236.472C194.619 237.784 195.115 238.92 195.755 239.88C196.395 240.808 197.163 241.544 198.059 242.088C198.987 242.632 200.011 242.904 201.131 242.904ZM230.577 235.416H221.889V228.792H230.577V220.152H237.393V228.792H246.081V235.416H237.393V244.056H230.577V235.416Z" fill="black" fill-opacity="0.8"/>
<path d="M64.3653 286.8H69.1813C69.8746 286.8 70.4879 286.901 71.0213 287.104C71.5653 287.296 72.0133 287.568 72.3653 287.92C72.6426 288.197 72.8559 288.523 73.0053 288.896C73.1546 289.269 73.2293 289.68 73.2293 290.128V290.16C73.2293 290.629 73.1546 291.051 73.0053 291.424C72.8559 291.787 72.6426 292.107 72.3653 292.384C72.0986 292.651 71.7786 292.875 71.4053 293.056C71.0319 293.227 70.6266 293.349 70.1893 293.424L73.6293 298H72.0773L68.8293 293.648H65.6293V298H64.3653V286.8ZM69.0693 292.512C69.4853 292.512 69.8693 292.459 70.2213 292.352C70.5733 292.245 70.8773 292.096 71.1333 291.904C71.3893 291.701 71.5866 291.461 71.7253 291.184C71.8746 290.896 71.9493 290.571 71.9493 290.208V290.176C71.9493 289.483 71.6986 288.944 71.1973 288.56C70.6959 288.165 69.9919 287.968 69.0853 287.968H65.6293V292.512H69.0693ZM79.1795 298.192C78.6142 298.192 78.0808 298.091 77.5795 297.888C77.0782 297.675 76.6408 297.381 76.2675 297.008C75.8942 296.624 75.5955 296.171 75.3715 295.648C75.1582 295.115 75.0515 294.528 75.0515 293.888V293.856C75.0515 293.259 75.1475 292.699 75.3395 292.176C75.5422 291.653 75.8195 291.2 76.1715 290.816C76.5235 290.421 76.9395 290.112 77.4195 289.888C77.9102 289.664 78.4435 289.552 79.0195 289.552C79.6275 289.552 80.1715 289.669 80.6515 289.904C81.1315 290.128 81.5368 290.437 81.8675 290.832C82.1982 291.227 82.4488 291.691 82.6195 292.224C82.7902 292.747 82.8755 293.312 82.8755 293.92C82.8755 294.005 82.8755 294.075 82.8755 294.128C82.8755 294.181 82.8702 294.245 82.8595 294.32H76.2995C76.3422 294.768 76.4488 295.168 76.6195 295.52C76.7902 295.861 77.0035 296.155 77.2595 296.4C77.5262 296.635 77.8248 296.816 78.1555 296.944C78.4862 297.061 78.8382 297.12 79.2115 297.12C79.7875 297.12 80.2782 297.013 80.6835 296.8C81.0995 296.587 81.4782 296.304 81.8195 295.952L82.5875 296.64C82.1715 297.109 81.6968 297.488 81.1635 297.776C80.6302 298.053 79.9688 298.192 79.1795 298.192ZM81.6275 293.408C81.5955 293.035 81.5155 292.677 81.3875 292.336C81.2702 291.995 81.0995 291.696 80.8755 291.44C80.6622 291.184 80.3955 290.981 80.0755 290.832C79.7662 290.672 79.4035 290.592 78.9875 290.592C78.6248 290.592 78.2888 290.667 77.9795 290.816C77.6702 290.955 77.3982 291.152 77.1635 291.408C76.9288 291.653 76.7368 291.947 76.5875 292.288C76.4382 292.629 76.3422 293.003 76.2995 293.408H81.6275ZM88.6963 300.592C88.0029 300.592 87.3416 300.496 86.7123 300.304C86.0829 300.112 85.4909 299.824 84.9363 299.44L85.4963 298.48C85.9763 298.821 86.4776 299.083 87.0003 299.264C87.5229 299.445 88.0829 299.536 88.6803 299.536C89.5976 299.536 90.3283 299.285 90.8723 298.784C91.4163 298.293 91.6883 297.563 91.6883 296.592V295.616C91.3256 296.096 90.8829 296.507 90.3603 296.848C89.8376 297.189 89.1976 297.36 88.4403 297.36C87.9389 297.36 87.4536 297.269 86.9843 297.088C86.5256 296.907 86.1149 296.651 85.7523 296.32C85.3896 295.979 85.0963 295.573 84.8723 295.104C84.6589 294.624 84.5523 294.085 84.5523 293.488V293.456C84.5523 292.848 84.6589 292.304 84.8723 291.824C85.0963 291.344 85.3896 290.939 85.7523 290.608C86.1149 290.267 86.5309 290.005 87.0003 289.824C87.4696 289.643 87.9496 289.552 88.4403 289.552C88.8243 289.552 89.1763 289.6 89.4963 289.696C89.8269 289.781 90.1203 289.899 90.3763 290.048C90.6429 290.197 90.8829 290.373 91.0963 290.576C91.3096 290.779 91.5016 290.992 91.6723 291.216V289.728H92.9043V296.56C92.9043 297.2 92.8136 297.76 92.6323 298.24C92.4509 298.731 92.1896 299.147 91.8483 299.488C91.4749 299.861 91.0216 300.139 90.4883 300.32C89.9549 300.501 89.3576 300.592 88.6963 300.592ZM88.6803 296.272C89.0749 296.272 89.4536 296.208 89.8163 296.08C90.1789 295.941 90.4989 295.749 90.7763 295.504C91.0643 295.248 91.2936 294.949 91.4643 294.608C91.6349 294.267 91.7203 293.888 91.7203 293.472V293.44C91.7203 293.013 91.6349 292.629 91.4643 292.288C91.2936 291.947 91.0643 291.653 90.7763 291.408C90.4989 291.163 90.1789 290.976 89.8163 290.848C89.4536 290.709 89.0749 290.64 88.6803 290.64C88.2856 290.64 87.9123 290.709 87.5603 290.848C87.2189 290.976 86.9149 291.163 86.6483 291.408C86.3923 291.643 86.1896 291.931 86.0403 292.272C85.8909 292.613 85.8163 292.997 85.8163 293.424V293.456C85.8163 293.872 85.8909 294.256 86.0403 294.608C86.2003 294.949 86.4083 295.243 86.6643 295.488C86.9309 295.733 87.2349 295.925 87.5763 296.064C87.9283 296.203 88.2963 296.272 88.6803 296.272ZM95.6893 286.56H97.0973V287.92H95.6893V286.56ZM95.7693 289.728H97.0013V298H95.7693V289.728ZM102.596 298.16C101.999 298.16 101.396 298.053 100.788 297.84C100.18 297.616 99.6417 297.317 99.1724 296.944L99.7964 296.064C100.244 296.405 100.708 296.667 101.188 296.848C101.679 297.029 102.17 297.12 102.66 297.12C103.162 297.12 103.572 297.003 103.892 296.768C104.212 296.533 104.372 296.213 104.372 295.808V295.776C104.372 295.573 104.314 295.397 104.196 295.248C104.09 295.099 103.94 294.971 103.748 294.864C103.556 294.747 103.332 294.645 103.076 294.56C102.831 294.475 102.575 294.395 102.308 294.32C101.988 294.224 101.663 294.123 101.332 294.016C101.012 293.899 100.719 293.755 100.452 293.584C100.196 293.413 99.983 293.2 99.8124 292.944C99.6524 292.688 99.5724 292.368 99.5724 291.984V291.952C99.5724 291.6 99.6417 291.28 99.7804 290.992C99.919 290.693 100.111 290.443 100.356 290.24C100.612 290.027 100.911 289.867 101.252 289.76C101.604 289.643 101.983 289.584 102.388 289.584C102.9 289.584 103.418 289.669 103.94 289.84C104.463 290 104.938 290.219 105.364 290.496L104.804 291.424C104.42 291.179 104.015 290.987 103.588 290.848C103.172 290.699 102.762 290.624 102.356 290.624C101.866 290.624 101.476 290.741 101.188 290.976C100.9 291.2 100.756 291.483 100.756 291.824V291.856C100.756 292.048 100.815 292.219 100.932 292.368C101.05 292.507 101.204 292.629 101.396 292.736C101.599 292.843 101.828 292.939 102.084 293.024C102.34 293.109 102.607 293.195 102.884 293.28C103.204 293.376 103.519 293.483 103.828 293.6C104.148 293.717 104.436 293.867 104.692 294.048C104.948 294.229 105.151 294.448 105.3 294.704C105.46 294.96 105.54 295.275 105.54 295.648V295.68C105.54 296.075 105.46 296.427 105.3 296.736C105.151 297.035 104.943 297.291 104.676 297.504C104.42 297.717 104.111 297.883 103.748 298C103.396 298.107 103.012 298.16 102.596 298.16ZM110.441 298.144C110.11 298.144 109.801 298.101 109.513 298.016C109.225 297.931 108.974 297.797 108.761 297.616C108.558 297.424 108.398 297.179 108.281 296.88C108.164 296.581 108.105 296.224 108.105 295.808V290.816H106.953V289.728H108.105V287.232H109.337V289.728H111.961V290.816H109.337V295.648C109.337 296.16 109.465 296.517 109.721 296.72C109.977 296.923 110.313 297.024 110.729 297.024C110.942 297.024 111.14 297.003 111.321 296.96C111.513 296.917 111.716 296.843 111.929 296.736V297.792C111.716 297.909 111.486 297.995 111.241 298.048C111.006 298.112 110.74 298.144 110.441 298.144ZM117.523 298.192C116.958 298.192 116.425 298.091 115.923 297.888C115.422 297.675 114.985 297.381 114.611 297.008C114.238 296.624 113.939 296.171 113.715 295.648C113.502 295.115 113.395 294.528 113.395 293.888V293.856C113.395 293.259 113.491 292.699 113.683 292.176C113.886 291.653 114.163 291.2 114.515 290.816C114.867 290.421 115.283 290.112 115.763 289.888C116.254 289.664 116.787 289.552 117.363 289.552C117.971 289.552 118.515 289.669 118.995 289.904C119.475 290.128 119.881 290.437 120.211 290.832C120.542 291.227 120.793 291.691 120.963 292.224C121.134 292.747 121.219 293.312 121.219 293.92C121.219 294.005 121.219 294.075 121.219 294.128C121.219 294.181 121.214 294.245 121.203 294.32H114.643C114.686 294.768 114.793 295.168 114.963 295.52C115.134 295.861 115.347 296.155 115.603 296.4C115.87 296.635 116.169 296.816 116.499 296.944C116.83 297.061 117.182 297.12 117.555 297.12C118.131 297.12 118.622 297.013 119.027 296.8C119.443 296.587 119.822 296.304 120.163 295.952L120.931 296.64C120.515 297.109 120.041 297.488 119.507 297.776C118.974 298.053 118.313 298.192 117.523 298.192ZM119.971 293.408C119.939 293.035 119.859 292.677 119.731 292.336C119.614 291.995 119.443 291.696 119.219 291.44C119.006 291.184 118.739 290.981 118.419 290.832C118.11 290.672 117.747 290.592 117.331 290.592C116.969 290.592 116.633 290.667 116.323 290.816C116.014 290.955 115.742 291.152 115.507 291.408C115.273 291.653 115.081 291.947 114.931 292.288C114.782 292.629 114.686 293.003 114.643 293.408H119.971ZM123.376 289.728H124.608V291.888C124.757 291.547 124.944 291.232 125.168 290.944C125.392 290.656 125.648 290.411 125.936 290.208C126.224 289.995 126.539 289.835 126.88 289.728C127.221 289.621 127.589 289.573 127.984 289.584V290.912H127.888C127.44 290.912 127.013 290.992 126.608 291.152C126.213 291.312 125.867 291.552 125.568 291.872C125.269 292.192 125.035 292.592 124.864 293.072C124.693 293.541 124.608 294.085 124.608 294.704V298H123.376V289.728ZM133.117 298.192C132.552 298.192 132.018 298.091 131.517 297.888C131.016 297.675 130.578 297.381 130.205 297.008C129.832 296.624 129.533 296.171 129.309 295.648C129.096 295.115 128.989 294.528 128.989 293.888V293.856C128.989 293.259 129.085 292.699 129.277 292.176C129.48 291.653 129.757 291.2 130.109 290.816C130.461 290.421 130.877 290.112 131.357 289.888C131.848 289.664 132.381 289.552 132.957 289.552C133.565 289.552 134.109 289.669 134.589 289.904C135.069 290.128 135.474 290.437 135.805 290.832C136.136 291.227 136.386 291.691 136.557 292.224C136.728 292.747 136.813 293.312 136.813 293.92C136.813 294.005 136.813 294.075 136.813 294.128C136.813 294.181 136.808 294.245 136.797 294.32H130.237C130.28 294.768 130.386 295.168 130.557 295.52C130.728 295.861 130.941 296.155 131.197 296.4C131.464 296.635 131.762 296.816 132.093 296.944C132.424 297.061 132.776 297.12 133.149 297.12C133.725 297.12 134.216 297.013 134.621 296.8C135.037 296.587 135.416 296.304 135.757 295.952L136.525 296.64C136.109 297.109 135.634 297.488 135.101 297.776C134.568 298.053 133.906 298.192 133.117 298.192ZM135.565 293.408C135.533 293.035 135.453 292.677 135.325 292.336C135.208 291.995 135.037 291.696 134.813 291.44C134.6 291.184 134.333 290.981 134.013 290.832C133.704 290.672 133.341 290.592 132.925 290.592C132.562 290.592 132.226 290.667 131.917 290.816C131.608 290.955 131.336 291.152 131.101 291.408C130.866 291.653 130.674 291.947 130.525 292.288C130.376 292.629 130.28 293.003 130.237 293.408H135.565ZM142.442 298.176C141.94 298.176 141.455 298.08 140.986 297.888C140.516 297.696 140.095 297.419 139.722 297.056C139.348 296.683 139.05 296.235 138.826 295.712C138.602 295.179 138.49 294.571 138.49 293.888V293.856C138.49 293.184 138.602 292.581 138.826 292.048C139.05 291.515 139.348 291.067 139.722 290.704C140.095 290.331 140.516 290.048 140.986 289.856C141.455 289.653 141.94 289.552 142.442 289.552C142.826 289.552 143.178 289.6 143.498 289.696C143.818 289.792 144.106 289.92 144.362 290.08C144.618 290.24 144.847 290.427 145.05 290.64C145.263 290.853 145.45 291.077 145.61 291.312V286.32H146.842V298H145.61V296.336C145.439 296.581 145.247 296.816 145.034 297.04C144.831 297.264 144.602 297.461 144.346 297.632C144.09 297.803 143.802 297.936 143.482 298.032C143.172 298.128 142.826 298.176 142.442 298.176ZM142.666 297.072C143.05 297.072 143.418 296.997 143.77 296.848C144.132 296.688 144.452 296.469 144.73 296.192C145.018 295.904 145.242 295.568 145.402 295.184C145.572 294.789 145.658 294.352 145.658 293.872V293.84C145.658 293.36 145.572 292.928 145.402 292.544C145.242 292.149 145.018 291.813 144.73 291.536C144.452 291.259 144.132 291.045 143.77 290.896C143.418 290.736 143.05 290.656 142.666 290.656C142.26 290.656 141.882 290.731 141.53 290.88C141.178 291.019 140.868 291.227 140.602 291.504C140.346 291.771 140.138 292.101 139.978 292.496C139.828 292.891 139.754 293.339 139.754 293.84V293.872C139.754 294.363 139.834 294.805 139.994 295.2C140.154 295.595 140.367 295.931 140.634 296.208C140.9 296.485 141.21 296.699 141.562 296.848C141.914 296.997 142.282 297.072 142.666 297.072ZM157.432 298.176C156.93 298.176 156.482 298.096 156.088 297.936C155.704 297.776 155.373 297.552 155.096 297.264C154.829 296.965 154.621 296.613 154.472 296.208C154.333 295.803 154.264 295.355 154.264 294.864V289.728H155.496V294.56C155.496 295.328 155.693 295.936 156.088 296.384C156.482 296.832 157.048 297.056 157.784 297.056C158.136 297.056 158.461 296.997 158.76 296.88C159.069 296.752 159.33 296.576 159.544 296.352C159.768 296.117 159.944 295.84 160.072 295.52C160.2 295.2 160.264 294.848 160.264 294.464V289.728H161.48V298H160.264V296.56C159.986 297.008 159.624 297.392 159.176 297.712C158.728 298.021 158.146 298.176 157.432 298.176ZM166.987 298.16C166.39 298.16 165.787 298.053 165.179 297.84C164.571 297.616 164.032 297.317 163.563 296.944L164.187 296.064C164.635 296.405 165.099 296.667 165.579 296.848C166.07 297.029 166.56 297.12 167.051 297.12C167.552 297.12 167.963 297.003 168.283 296.768C168.603 296.533 168.763 296.213 168.763 295.808V295.776C168.763 295.573 168.704 295.397 168.587 295.248C168.48 295.099 168.331 294.971 168.139 294.864C167.947 294.747 167.723 294.645 167.467 294.56C167.222 294.475 166.966 294.395 166.699 294.32C166.379 294.224 166.054 294.123 165.723 294.016C165.403 293.899 165.11 293.755 164.843 293.584C164.587 293.413 164.374 293.2 164.203 292.944C164.043 292.688 163.963 292.368 163.963 291.984V291.952C163.963 291.6 164.032 291.28 164.171 290.992C164.31 290.693 164.502 290.443 164.747 290.24C165.003 290.027 165.302 289.867 165.643 289.76C165.995 289.643 166.374 289.584 166.779 289.584C167.291 289.584 167.808 289.669 168.331 289.84C168.854 290 169.328 290.219 169.755 290.496L169.195 291.424C168.811 291.179 168.406 290.987 167.979 290.848C167.563 290.699 167.152 290.624 166.747 290.624C166.256 290.624 165.867 290.741 165.579 290.976C165.291 291.2 165.147 291.483 165.147 291.824V291.856C165.147 292.048 165.206 292.219 165.323 292.368C165.44 292.507 165.595 292.629 165.787 292.736C165.99 292.843 166.219 292.939 166.475 293.024C166.731 293.109 166.998 293.195 167.275 293.28C167.595 293.376 167.91 293.483 168.219 293.6C168.539 293.717 168.827 293.867 169.083 294.048C169.339 294.229 169.542 294.448 169.691 294.704C169.851 294.96 169.931 295.275 169.931 295.648V295.68C169.931 296.075 169.851 296.427 169.691 296.736C169.542 297.035 169.334 297.291 169.067 297.504C168.811 297.717 168.502 297.883 168.139 298C167.787 298.107 167.403 298.16 166.987 298.16ZM175.836 298.192C175.27 298.192 174.737 298.091 174.236 297.888C173.734 297.675 173.297 297.381 172.924 297.008C172.55 296.624 172.252 296.171 172.028 295.648C171.814 295.115 171.708 294.528 171.708 293.888V293.856C171.708 293.259 171.804 292.699 171.996 292.176C172.198 291.653 172.476 291.2 172.828 290.816C173.18 290.421 173.596 290.112 174.076 289.888C174.566 289.664 175.1 289.552 175.676 289.552C176.284 289.552 176.828 289.669 177.308 289.904C177.788 290.128 178.193 290.437 178.524 290.832C178.854 291.227 179.105 291.691 179.276 292.224C179.446 292.747 179.532 293.312 179.532 293.92C179.532 294.005 179.532 294.075 179.532 294.128C179.532 294.181 179.526 294.245 179.516 294.32H172.956C172.998 294.768 173.105 295.168 173.276 295.52C173.446 295.861 173.66 296.155 173.916 296.4C174.182 296.635 174.481 296.816 174.812 296.944C175.142 297.061 175.494 297.12 175.868 297.12C176.444 297.12 176.934 297.013 177.34 296.8C177.756 296.587 178.134 296.304 178.476 295.952L179.244 296.64C178.828 297.109 178.353 297.488 177.82 297.776C177.286 298.053 176.625 298.192 175.836 298.192ZM178.284 293.408C178.252 293.035 178.172 292.677 178.044 292.336C177.926 291.995 177.756 291.696 177.532 291.44C177.318 291.184 177.052 290.981 176.732 290.832C176.422 290.672 176.06 290.592 175.644 290.592C175.281 290.592 174.945 290.667 174.636 290.816C174.326 290.955 174.054 291.152 173.82 291.408C173.585 291.653 173.393 291.947 173.244 292.288C173.094 292.629 172.998 293.003 172.956 293.408H178.284ZM181.689 289.728H182.921V291.888C183.07 291.547 183.257 291.232 183.481 290.944C183.705 290.656 183.961 290.411 184.249 290.208C184.537 289.995 184.851 289.835 185.193 289.728C185.534 289.621 185.902 289.573 186.297 289.584V290.912H186.201C185.753 290.912 185.326 290.992 184.921 291.152C184.526 291.312 184.179 291.552 183.881 291.872C183.582 292.192 183.347 292.592 183.177 293.072C183.006 293.541 182.921 294.085 182.921 294.704V298H181.689V289.728ZM190.909 298.16C190.312 298.16 189.709 298.053 189.101 297.84C188.493 297.616 187.954 297.317 187.485 296.944L188.109 296.064C188.557 296.405 189.021 296.667 189.501 296.848C189.992 297.029 190.482 297.12 190.973 297.12C191.474 297.12 191.885 297.003 192.205 296.768C192.525 296.533 192.685 296.213 192.685 295.808V295.776C192.685 295.573 192.626 295.397 192.509 295.248C192.402 295.099 192.253 294.971 192.061 294.864C191.869 294.747 191.645 294.645 191.389 294.56C191.144 294.475 190.888 294.395 190.621 294.32C190.301 294.224 189.976 294.123 189.645 294.016C189.325 293.899 189.032 293.755 188.765 293.584C188.509 293.413 188.296 293.2 188.125 292.944C187.965 292.688 187.885 292.368 187.885 291.984V291.952C187.885 291.6 187.954 291.28 188.093 290.992C188.232 290.693 188.424 290.443 188.669 290.24C188.925 290.027 189.224 289.867 189.565 289.76C189.917 289.643 190.296 289.584 190.701 289.584C191.213 289.584 191.73 289.669 192.253 289.84C192.776 290 193.25 290.219 193.677 290.496L193.117 291.424C192.733 291.179 192.328 290.987 191.901 290.848C191.485 290.699 191.074 290.624 190.669 290.624C190.178 290.624 189.789 290.741 189.501 290.976C189.213 291.2 189.069 291.483 189.069 291.824V291.856C189.069 292.048 189.128 292.219 189.245 292.368C189.362 292.507 189.517 292.629 189.709 292.736C189.912 292.843 190.141 292.939 190.397 293.024C190.653 293.109 190.92 293.195 191.197 293.28C191.517 293.376 191.832 293.483 192.141 293.6C192.461 293.717 192.749 293.867 193.005 294.048C193.261 294.229 193.464 294.448 193.613 294.704C193.773 294.96 193.853 295.275 193.853 295.648V295.68C193.853 296.075 193.773 296.427 193.613 296.736C193.464 297.035 193.256 297.291 192.989 297.504C192.733 297.717 192.424 297.883 192.061 298C191.709 298.107 191.325 298.16 190.909 298.16ZM203.403 298.176C203.019 298.176 202.64 298.123 202.267 298.016C201.904 297.909 201.573 297.749 201.275 297.536C200.987 297.312 200.752 297.04 200.571 296.72C200.4 296.4 200.315 296.027 200.315 295.6V295.568C200.315 295.131 200.4 294.747 200.571 294.416C200.741 294.085 200.981 293.808 201.291 293.584C201.611 293.36 201.984 293.189 202.411 293.072C202.848 292.955 203.328 292.896 203.851 292.896C204.384 292.896 204.848 292.928 205.243 292.992C205.637 293.056 206.021 293.141 206.395 293.248V292.96C206.395 292.213 206.176 291.653 205.739 291.28C205.312 290.896 204.709 290.704 203.931 290.704C203.44 290.704 202.992 290.763 202.587 290.88C202.192 290.987 201.803 291.131 201.419 291.312L201.051 290.304C201.509 290.091 201.973 289.925 202.443 289.808C202.912 289.68 203.451 289.616 204.059 289.616C205.232 289.616 206.123 289.92 206.731 290.528C207.296 291.093 207.579 291.899 207.579 292.944V298H206.395V296.752C206.107 297.125 205.717 297.456 205.227 297.744C204.747 298.032 204.139 298.176 203.403 298.176ZM203.643 297.2C204.027 297.2 204.384 297.147 204.715 297.04C205.056 296.923 205.349 296.768 205.595 296.576C205.851 296.373 206.048 296.139 206.187 295.872C206.336 295.595 206.411 295.291 206.411 294.96V294.16C206.101 294.075 205.744 293.995 205.339 293.92C204.944 293.845 204.491 293.808 203.979 293.808C203.2 293.808 202.603 293.963 202.187 294.272C201.771 294.581 201.562 294.997 201.562 295.52V295.552C201.562 295.808 201.616 296.043 201.723 296.256C201.84 296.459 201.995 296.629 202.187 296.768C202.379 296.907 202.597 297.013 202.843 297.088C203.099 297.163 203.365 297.2 203.643 297.2ZM213.932 298.192C213.324 298.192 212.759 298.08 212.236 297.856C211.724 297.621 211.276 297.312 210.892 296.928C210.519 296.533 210.225 296.075 210.012 295.552C209.799 295.029 209.692 294.48 209.692 293.904V293.872C209.692 293.285 209.799 292.731 210.012 292.208C210.225 291.685 210.519 291.227 210.892 290.832C211.276 290.437 211.724 290.128 212.236 289.904C212.759 289.669 213.324 289.552 213.932 289.552C214.327 289.552 214.684 289.589 215.004 289.664C215.324 289.739 215.617 289.845 215.884 289.984C216.151 290.112 216.396 290.267 216.62 290.448C216.844 290.629 217.052 290.821 217.244 291.024L216.428 291.888C216.097 291.547 215.735 291.253 215.34 291.008C214.956 290.763 214.481 290.64 213.916 290.64C213.5 290.64 213.111 290.725 212.748 290.896C212.385 291.056 212.071 291.28 211.804 291.568C211.537 291.856 211.329 292.197 211.18 292.592C211.031 292.976 210.956 293.392 210.956 293.84V293.872C210.956 294.32 211.031 294.741 211.18 295.136C211.34 295.52 211.553 295.861 211.82 296.16C212.097 296.448 212.417 296.677 212.78 296.848C213.153 297.008 213.559 297.088 213.996 297.088C214.529 297.088 214.999 296.971 215.404 296.736C215.82 296.501 216.193 296.208 216.524 295.856L217.308 296.592C216.892 297.061 216.417 297.445 215.884 297.744C215.361 298.043 214.711 298.192 213.932 298.192ZM219.345 289.728H220.577V291.888C220.726 291.547 220.913 291.232 221.137 290.944C221.361 290.656 221.617 290.411 221.905 290.208C222.193 289.995 222.507 289.835 222.849 289.728C223.19 289.621 223.558 289.573 223.953 289.584V290.912H223.857C223.409 290.912 222.982 290.992 222.577 291.152C222.182 291.312 221.835 291.552 221.537 291.872C221.238 292.192 221.003 292.592 220.833 293.072C220.662 293.541 220.577 294.085 220.577 294.704V298H219.345V289.728ZM229.246 298.192C228.627 298.192 228.056 298.08 227.534 297.856C227.011 297.621 226.558 297.312 226.174 296.928C225.79 296.533 225.491 296.08 225.278 295.568C225.064 295.045 224.958 294.491 224.958 293.904V293.872C224.958 293.285 225.064 292.731 225.278 292.208C225.491 291.685 225.79 291.227 226.174 290.832C226.558 290.437 227.011 290.128 227.534 289.904C228.067 289.669 228.648 289.552 229.278 289.552C229.896 289.552 230.467 289.669 230.99 289.904C231.523 290.128 231.982 290.437 232.366 290.832C232.75 291.216 233.048 291.669 233.262 292.192C233.475 292.704 233.582 293.253 233.582 293.84V293.872C233.582 294.459 233.47 295.013 233.246 295.536C233.032 296.059 232.734 296.517 232.35 296.912C231.966 297.307 231.507 297.621 230.974 297.856C230.44 298.08 229.864 298.192 229.246 298.192ZM229.278 297.088C229.726 297.088 230.136 297.003 230.51 296.832C230.883 296.661 231.203 296.432 231.47 296.144C231.736 295.856 231.944 295.52 232.094 295.136C232.243 294.752 232.318 294.341 232.318 293.904V293.872C232.318 293.424 232.238 293.008 232.078 292.624C231.928 292.229 231.715 291.888 231.438 291.6C231.16 291.301 230.835 291.067 230.462 290.896C230.088 290.725 229.683 290.64 229.246 290.64C228.798 290.64 228.387 290.725 228.014 290.896C227.64 291.067 227.32 291.296 227.054 291.584C226.798 291.872 226.595 292.213 226.446 292.608C226.296 292.992 226.222 293.403 226.222 293.84V293.872C226.222 294.32 226.296 294.741 226.446 295.136C226.606 295.52 226.819 295.856 227.086 296.144C227.363 296.432 227.688 296.661 228.062 296.832C228.435 297.003 228.84 297.088 229.278 297.088ZM238.549 298.16C237.952 298.16 237.35 298.053 236.742 297.84C236.134 297.616 235.595 297.317 235.126 296.944L235.75 296.064C236.198 296.405 236.662 296.667 237.142 296.848C237.632 297.029 238.123 297.12 238.614 297.12C239.115 297.12 239.526 297.003 239.846 296.768C240.166 296.533 240.326 296.213 240.326 295.808V295.776C240.326 295.573 240.267 295.397 240.15 295.248C240.043 295.099 239.894 294.971 239.702 294.864C239.51 294.747 239.286 294.645 239.03 294.56C238.784 294.475 238.528 294.395 238.262 294.32C237.942 294.224 237.616 294.123 237.286 294.016C236.966 293.899 236.672 293.755 236.406 293.584C236.15 293.413 235.936 293.2 235.766 292.944C235.606 292.688 235.526 292.368 235.526 291.984V291.952C235.526 291.6 235.595 291.28 235.734 290.992C235.872 290.693 236.064 290.443 236.31 290.24C236.566 290.027 236.864 289.867 237.206 289.76C237.558 289.643 237.936 289.584 238.342 289.584C238.854 289.584 239.371 289.669 239.894 289.84C240.416 290 240.891 290.219 241.318 290.496L240.758 291.424C240.374 291.179 239.968 290.987 239.542 290.848C239.126 290.699 238.715 290.624 238.31 290.624C237.819 290.624 237.43 290.741 237.142 290.976C236.854 291.2 236.71 291.483 236.71 291.824V291.856C236.71 292.048 236.768 292.219 236.886 292.368C237.003 292.507 237.158 292.629 237.35 292.736C237.552 292.843 237.782 292.939 238.038 293.024C238.294 293.109 238.56 293.195 238.838 293.28C239.158 293.376 239.472 293.483 239.782 293.6C240.102 293.717 240.39 293.867 240.646 294.048C240.902 294.229 241.104 294.448 241.254 294.704C241.414 294.96 241.494 295.275 241.494 295.648V295.68C241.494 296.075 241.414 296.427 241.254 296.736C241.104 297.035 240.896 297.291 240.63 297.504C240.374 297.717 240.064 297.883 239.702 298C239.35 298.107 238.966 298.16 238.549 298.16ZM246.362 298.16C245.765 298.16 245.162 298.053 244.554 297.84C243.946 297.616 243.407 297.317 242.938 296.944L243.562 296.064C244.01 296.405 244.474 296.667 244.954 296.848C245.445 297.029 245.935 297.12 246.426 297.12C246.927 297.12 247.338 297.003 247.658 296.768C247.978 296.533 248.138 296.213 248.138 295.808V295.776C248.138 295.573 248.079 295.397 247.962 295.248C247.855 295.099 247.706 294.971 247.514 294.864C247.322 294.747 247.098 294.645 246.842 294.56C246.597 294.475 246.341 294.395 246.074 294.32C245.754 294.224 245.429 294.123 245.098 294.016C244.778 293.899 244.485 293.755 244.218 293.584C243.962 293.413 243.749 293.2 243.578 292.944C243.418 292.688 243.338 292.368 243.338 291.984V291.952C243.338 291.6 243.407 291.28 243.546 290.992C243.685 290.693 243.877 290.443 244.122 290.24C244.378 290.027 244.677 289.867 245.018 289.76C245.37 289.643 245.749 289.584 246.154 289.584C246.666 289.584 247.183 289.669 247.706 289.84C248.229 290 248.703 290.219 249.13 290.496L248.57 291.424C248.186 291.179 247.781 290.987 247.354 290.848C246.938 290.699 246.527 290.624 246.122 290.624C245.631 290.624 245.242 290.741 244.954 290.976C244.666 291.2 244.522 291.483 244.522 291.824V291.856C244.522 292.048 244.581 292.219 244.698 292.368C244.815 292.507 244.97 292.629 245.162 292.736C245.365 292.843 245.594 292.939 245.85 293.024C246.106 293.109 246.373 293.195 246.65 293.28C246.97 293.376 247.285 293.483 247.594 293.6C247.914 293.717 248.202 293.867 248.458 294.048C248.714 294.229 248.917 294.448 249.066 294.704C249.226 294.96 249.306 295.275 249.306 295.648V295.68C249.306 296.075 249.226 296.427 249.066 296.736C248.917 297.035 248.709 297.291 248.442 297.504C248.186 297.717 247.877 297.883 247.514 298C247.162 298.107 246.778 298.16 246.362 298.16ZM122.792 317.144C122.462 317.144 122.152 317.101 121.864 317.016C121.576 316.931 121.326 316.797 121.112 316.616C120.91 316.424 120.75 316.179 120.632 315.88C120.515 315.581 120.456 315.224 120.456 314.808V309.816H119.304V308.728H120.456V306.232H121.688V308.728H124.312V309.816H121.688V314.648C121.688 315.16 121.816 315.517 122.072 315.72C122.328 315.923 122.664 316.024 123.08 316.024C123.294 316.024 123.491 316.003 123.672 315.96C123.864 315.917 124.067 315.843 124.28 315.736V316.792C124.067 316.909 123.838 316.995 123.592 317.048C123.358 317.112 123.091 317.144 122.792 317.144ZM126.493 305.32H127.725V310.168C128.003 309.72 128.365 309.341 128.813 309.032C129.261 308.712 129.843 308.552 130.557 308.552C131.059 308.552 131.501 308.632 131.885 308.792C132.28 308.952 132.611 309.181 132.877 309.48C133.155 309.768 133.363 310.115 133.501 310.52C133.651 310.925 133.725 311.373 133.725 311.864V317H132.493V312.168C132.493 311.4 132.296 310.792 131.901 310.344C131.507 309.896 130.941 309.672 130.205 309.672C129.853 309.672 129.523 309.736 129.213 309.864C128.915 309.981 128.653 310.157 128.429 310.392C128.205 310.616 128.029 310.888 127.901 311.208C127.784 311.528 127.725 311.88 127.725 312.264V317H126.493V305.32ZM139.969 317.192C139.403 317.192 138.87 317.091 138.369 316.888C137.867 316.675 137.43 316.381 137.057 316.008C136.683 315.624 136.385 315.171 136.161 314.648C135.947 314.115 135.841 313.528 135.841 312.888V312.856C135.841 312.259 135.937 311.699 136.129 311.176C136.331 310.653 136.609 310.2 136.961 309.816C137.313 309.421 137.729 309.112 138.209 308.888C138.699 308.664 139.233 308.552 139.809 308.552C140.417 308.552 140.961 308.669 141.441 308.904C141.921 309.128 142.326 309.437 142.657 309.832C142.987 310.227 143.238 310.691 143.409 311.224C143.579 311.747 143.665 312.312 143.665 312.92C143.665 313.005 143.665 313.075 143.665 313.128C143.665 313.181 143.659 313.245 143.649 313.32H137.089C137.131 313.768 137.238 314.168 137.409 314.52C137.579 314.861 137.793 315.155 138.049 315.4C138.315 315.635 138.614 315.816 138.945 315.944C139.275 316.061 139.627 316.12 140.001 316.12C140.577 316.12 141.067 316.013 141.473 315.8C141.889 315.587 142.267 315.304 142.609 314.952L143.377 315.64C142.961 316.109 142.486 316.488 141.953 316.776C141.419 317.053 140.758 317.192 139.969 317.192ZM142.417 312.408C142.385 312.035 142.305 311.677 142.177 311.336C142.059 310.995 141.889 310.696 141.665 310.44C141.451 310.184 141.185 309.981 140.865 309.832C140.555 309.672 140.193 309.592 139.777 309.592C139.414 309.592 139.078 309.667 138.769 309.816C138.459 309.955 138.187 310.152 137.953 310.408C137.718 310.653 137.526 310.947 137.377 311.288C137.227 311.629 137.131 312.003 137.089 312.408H142.417ZM154.126 319.592C153.433 319.592 152.771 319.496 152.142 319.304C151.513 319.112 150.921 318.824 150.366 318.44L150.926 317.48C151.406 317.821 151.907 318.083 152.43 318.264C152.953 318.445 153.513 318.536 154.11 318.536C155.027 318.536 155.758 318.285 156.302 317.784C156.846 317.293 157.118 316.563 157.118 315.592V314.616C156.755 315.096 156.313 315.507 155.79 315.848C155.267 316.189 154.627 316.36 153.87 316.36C153.369 316.36 152.883 316.269 152.414 316.088C151.955 315.907 151.545 315.651 151.182 315.32C150.819 314.979 150.526 314.573 150.302 314.104C150.089 313.624 149.982 313.085 149.982 312.488V312.456C149.982 311.848 150.089 311.304 150.302 310.824C150.526 310.344 150.819 309.939 151.182 309.608C151.545 309.267 151.961 309.005 152.43 308.824C152.899 308.643 153.379 308.552 153.87 308.552C154.254 308.552 154.606 308.6 154.926 308.696C155.257 308.781 155.55 308.899 155.806 309.048C156.073 309.197 156.313 309.373 156.526 309.576C156.739 309.779 156.931 309.992 157.102 310.216V308.728H158.334V315.56C158.334 316.2 158.243 316.76 158.062 317.24C157.881 317.731 157.619 318.147 157.278 318.488C156.905 318.861 156.451 319.139 155.918 319.32C155.385 319.501 154.787 319.592 154.126 319.592ZM154.11 315.272C154.505 315.272 154.883 315.208 155.246 315.08C155.609 314.941 155.929 314.749 156.206 314.504C156.494 314.248 156.723 313.949 156.894 313.608C157.065 313.267 157.15 312.888 157.15 312.472V312.44C157.15 312.013 157.065 311.629 156.894 311.288C156.723 310.947 156.494 310.653 156.206 310.408C155.929 310.163 155.609 309.976 155.246 309.848C154.883 309.709 154.505 309.64 154.11 309.64C153.715 309.64 153.342 309.709 152.99 309.848C152.649 309.976 152.345 310.163 152.078 310.408C151.822 310.643 151.619 310.931 151.47 311.272C151.321 311.613 151.246 311.997 151.246 312.424V312.456C151.246 312.872 151.321 313.256 151.47 313.608C151.63 313.949 151.838 314.243 152.094 314.488C152.361 314.733 152.665 314.925 153.006 315.064C153.358 315.203 153.726 315.272 154.11 315.272ZM161.199 305.32H162.431V317H161.199V305.32ZM169.066 317.192C168.447 317.192 167.877 317.08 167.354 316.856C166.831 316.621 166.378 316.312 165.994 315.928C165.61 315.533 165.311 315.08 165.098 314.568C164.885 314.045 164.778 313.491 164.778 312.904V312.872C164.778 312.285 164.885 311.731 165.098 311.208C165.311 310.685 165.61 310.227 165.994 309.832C166.378 309.437 166.831 309.128 167.354 308.904C167.887 308.669 168.469 308.552 169.098 308.552C169.717 308.552 170.287 308.669 170.81 308.904C171.343 309.128 171.802 309.437 172.186 309.832C172.57 310.216 172.869 310.669 173.082 311.192C173.295 311.704 173.402 312.253 173.402 312.84V312.872C173.402 313.459 173.29 314.013 173.066 314.536C172.853 315.059 172.554 315.517 172.17 315.912C171.786 316.307 171.327 316.621 170.794 316.856C170.261 317.08 169.685 317.192 169.066 317.192ZM169.098 316.088C169.546 316.088 169.957 316.003 170.33 315.832C170.703 315.661 171.023 315.432 171.29 315.144C171.557 314.856 171.765 314.52 171.914 314.136C172.063 313.752 172.138 313.341 172.138 312.904V312.872C172.138 312.424 172.058 312.008 171.898 311.624C171.749 311.229 171.535 310.888 171.258 310.6C170.981 310.301 170.655 310.067 170.282 309.896C169.909 309.725 169.503 309.64 169.066 309.64C168.618 309.64 168.207 309.725 167.834 309.896C167.461 310.067 167.141 310.296 166.874 310.584C166.618 310.872 166.415 311.213 166.266 311.608C166.117 311.992 166.042 312.403 166.042 312.84V312.872C166.042 313.32 166.117 313.741 166.266 314.136C166.426 314.52 166.639 314.856 166.906 315.144C167.183 315.432 167.509 315.661 167.882 315.832C168.255 316.003 168.661 316.088 169.098 316.088ZM180.034 317.176C179.65 317.176 179.298 317.128 178.978 317.032C178.658 316.936 178.37 316.808 178.114 316.648C177.858 316.488 177.623 316.301 177.41 316.088C177.207 315.875 177.026 315.651 176.866 315.416V317H175.634V305.32H176.866V310.392C177.036 310.147 177.223 309.912 177.426 309.688C177.639 309.464 177.874 309.272 178.13 309.112C178.386 308.941 178.668 308.808 178.978 308.712C179.298 308.605 179.65 308.552 180.034 308.552C180.524 308.552 181.004 308.648 181.474 308.84C181.954 309.032 182.38 309.315 182.754 309.688C183.127 310.051 183.426 310.499 183.65 311.032C183.874 311.555 183.986 312.157 183.986 312.84V312.872C183.986 313.544 183.874 314.147 183.65 314.68C183.426 315.213 183.127 315.667 182.754 316.04C182.391 316.403 181.97 316.685 181.49 316.888C181.02 317.08 180.535 317.176 180.034 317.176ZM179.81 316.072C180.204 316.072 180.578 316.003 180.93 315.864C181.292 315.715 181.602 315.507 181.858 315.24C182.124 314.963 182.332 314.627 182.482 314.232C182.642 313.837 182.722 313.389 182.722 312.888V312.856C182.722 312.365 182.642 311.923 182.482 311.528C182.332 311.133 182.124 310.797 181.858 310.52C181.591 310.243 181.282 310.029 180.93 309.88C180.578 309.731 180.204 309.656 179.81 309.656C179.426 309.656 179.052 309.736 178.69 309.896C178.338 310.045 178.018 310.264 177.73 310.552C177.452 310.829 177.228 311.165 177.058 311.56C176.898 311.944 176.818 312.371 176.818 312.84V312.872C176.818 313.352 176.898 313.789 177.058 314.184C177.228 314.579 177.452 314.915 177.73 315.192C178.018 315.469 178.338 315.688 178.69 315.848C179.052 315.997 179.426 316.072 179.81 316.072ZM189.875 317.192C189.309 317.192 188.776 317.091 188.275 316.888C187.773 316.675 187.336 316.381 186.963 316.008C186.589 315.624 186.291 315.171 186.067 314.648C185.853 314.115 185.747 313.528 185.747 312.888V312.856C185.747 312.259 185.843 311.699 186.035 311.176C186.237 310.653 186.515 310.2 186.867 309.816C187.219 309.421 187.635 309.112 188.115 308.888C188.605 308.664 189.139 308.552 189.715 308.552C190.323 308.552 190.867 308.669 191.347 308.904C191.827 309.128 192.232 309.437 192.563 309.832C192.893 310.227 193.144 310.691 193.315 311.224C193.485 311.747 193.571 312.312 193.571 312.92C193.571 313.005 193.571 313.075 193.571 313.128C193.571 313.181 193.565 313.245 193.555 313.32H186.995C187.037 313.768 187.144 314.168 187.315 314.52C187.485 314.861 187.699 315.155 187.955 315.4C188.221 315.635 188.52 315.816 188.851 315.944C189.181 316.061 189.533 316.12 189.907 316.12C190.483 316.12 190.973 316.013 191.379 315.8C191.795 315.587 192.173 315.304 192.515 314.952L193.283 315.64C192.867 316.109 192.392 316.488 191.859 316.776C191.325 317.053 190.664 317.192 189.875 317.192ZM192.323 312.408C192.291 312.035 192.211 311.677 192.083 311.336C191.965 310.995 191.795 310.696 191.571 310.44C191.357 310.184 191.091 309.981 190.771 309.832C190.461 309.672 190.099 309.592 189.683 309.592C189.32 309.592 188.984 309.667 188.675 309.816C188.365 309.955 188.093 310.152 187.859 310.408C187.624 310.653 187.432 310.947 187.283 311.288C187.133 311.629 187.037 312.003 186.995 312.408H192.323Z" fill="#666666"/>
<path d="M206.452 50.1073V57.4663L200.564 63.3535V70.7125L207.923 75.1279H215.282L218.226 70.7125H221.17L224.113 75.1279H227.057L227.919 75.3442C228.315 73.3706 228.529 71.3307 228.529 69.2407C228.529 57.6312 222.119 47.5287 212.654 42.245L212.339 42.7483L206.452 50.1073Z" fill="#FFD7B0"/>
<path d="M168.183 75.1278H167.287C168.621 82.0379 172.26 88.112 177.367 92.5539L185.845 86.9022H193.204V79.5432L188.789 70.7124H181.43L177.014 75.1278H168.183Z" fill="#FFD7B0"/>
<path d="M219.451 91.1192L212.339 85.4307H206.452V89.8461L200.564 92.7897V100C207.912 99.3053 214.511 96.0482 219.451 91.1192Z" fill="#FFD7B0"/>
<circle cx="197.578" cy="68.4215" r="31.1715" stroke="#8F8B8B" stroke-width="0.5"/>
<path d="M154.983 156.162C160.968 160.999 167.956 169.881 167.956 185H91.6797C91.6797 169.881 98.6671 160.999 104.652 156.162H154.983Z" fill="#F5FF80"/>
<path fill-rule="evenodd" clip-rule="evenodd" d="M171.343 96.3916C170.99 99.3967 170.564 102.499 169.923 105.175C169.351 107.562 168.169 110.281 166.89 112.685C166.342 113.713 165.774 114.69 165.223 115.564C165.237 115.623 165.25 115.682 165.264 115.742C165.448 116.56 165.411 118.203 164.951 120.273C164.489 122.358 163.588 124.915 162.006 127.569C158.837 132.884 152.942 138.569 142.397 141.635C139.521 142.471 138.049 144.153 137.353 145.899C136.649 147.664 136.729 149.523 137.019 150.684L136.259 150.874C135.937 149.586 135.848 147.555 136.625 145.608C137.409 143.641 139.067 141.787 142.178 140.883C152.532 137.872 158.265 132.313 161.333 127.167C162.869 124.591 163.74 122.113 164.186 120.103C164.524 118.583 164.614 117.352 164.575 116.556C164.078 117.291 163.609 117.918 163.202 118.394L163.18 118.42L163.153 118.442C163.029 118.544 162.909 118.652 162.78 118.767L162.75 118.794C162.612 118.917 162.466 119.047 162.311 119.171C161.999 119.42 161.637 119.656 161.185 119.797C160.266 120.082 159.094 119.937 157.357 119.031C156.435 118.55 155.886 117.903 155.655 117.165C155.427 116.435 155.527 115.67 155.796 114.974C156.065 114.278 156.511 113.626 157.017 113.098C157.521 112.572 158.105 112.147 158.666 111.927C159.656 111.538 161.008 111.111 162.28 111.508C163.376 111.849 164.312 112.763 164.929 114.548C165.351 113.854 165.78 113.102 166.198 112.317C167.462 109.942 168.61 107.289 169.16 104.992C169.79 102.365 170.212 99.3017 170.564 96.3002C170.674 95.3691 170.777 94.4429 170.877 93.5379C171.1 91.5363 171.311 89.639 171.555 88.0255L172.33 88.1427C172.088 89.7405 171.88 91.6121 171.659 93.6049C171.558 94.5134 171.454 95.4472 171.343 96.3916ZM164.38 115.429C163.817 113.343 162.923 112.529 162.047 112.256C161.059 111.948 159.94 112.269 158.953 112.656C158.525 112.824 158.032 113.171 157.583 113.64C157.136 114.107 156.753 114.673 156.527 115.256C156.302 115.841 156.243 116.418 156.403 116.931C156.561 117.436 156.947 117.933 157.72 118.336C159.373 119.198 160.318 119.245 160.953 119.048C161.277 118.947 161.551 118.774 161.822 118.558C161.958 118.45 162.089 118.333 162.228 118.209L162.26 118.181C162.378 118.075 162.501 117.965 162.629 117.859C163.129 117.27 163.736 116.431 164.38 115.429Z" fill="#666666"/>
<path fill-rule="evenodd" clip-rule="evenodd" d="M129.006 128.133C126.009 128.351 123.274 127.809 121.656 127.234L121.919 126.496C123.441 127.037 126.068 127.561 128.949 127.351C131.827 127.141 134.932 126.202 137.455 123.847L137.99 124.42C135.301 126.929 132.008 127.914 129.006 128.133Z" fill="#666666"/>
<path fill-rule="evenodd" clip-rule="evenodd" d="M131.134 131.041C130.255 131.107 129.453 130.945 128.967 130.768L129.235 130.032C129.625 130.173 130.316 130.316 131.076 130.259C131.831 130.203 132.627 129.952 133.271 129.336L133.813 129.902C133.004 130.676 132.017 130.975 131.134 131.041Z" fill="#666666"/>
<path fill-rule="evenodd" clip-rule="evenodd" d="M109.051 111.692C108.219 111.853 107.481 112.416 107.06 112.897L106.471 112.381C106.964 111.817 107.846 111.127 108.902 110.922C109.437 110.819 110.019 110.84 110.607 111.069C111.194 111.298 111.766 111.725 112.297 112.396L111.683 112.883C111.222 112.3 110.758 111.969 110.323 111.8C109.888 111.63 109.459 111.613 109.051 111.692Z" fill="#666666"/>
<path fill-rule="evenodd" clip-rule="evenodd" d="M147.189 111.692C146.358 111.853 145.62 112.416 145.199 112.897L144.609 112.381C145.103 111.817 145.984 111.127 147.04 110.922C147.576 110.819 148.157 110.84 148.746 111.069C149.333 111.298 149.905 111.725 150.436 112.396L149.822 112.883C149.36 112.3 148.897 111.969 148.461 111.8C148.027 111.63 147.598 111.613 147.189 111.692Z" fill="#666666"/>
<path fill-rule="evenodd" clip-rule="evenodd" d="M126.227 95.3986H127.01V118.654C127.273 118.957 128.263 119.543 130.492 118.428L130.843 119.129C128.255 120.423 126.739 119.763 126.28 118.976L126.227 118.884V95.3986Z" fill="#666666"/>
<path fill-rule="evenodd" clip-rule="evenodd" d="M92.9356 123.224C88.7806 113.294 88.781 102.83 90.0549 96.1093L90.8249 96.2552C89.5736 102.857 89.574 113.16 93.6586 122.921C97.7358 132.664 105.888 141.883 120.984 146.354L120.762 147.105C105.425 142.564 97.0979 133.17 92.9356 123.224Z" fill="#666666"/>
<path d="M87.174 86.6473C84.4311 85.2105 85.3454 82.8595 89.9169 82.0758C89.9169 57.398 96.3226 54.9163 120.747 48.3856C140.287 43.1611 157.096 53.6892 153.526 63.6593C154.962 60.2634 169.466 67.6944 171.164 70.7205C172.862 73.7467 177.7 76.5981 174.821 86.6473C172.698 94.0597 168.807 98.6637 169.461 97.0964C170.114 95.529 171.028 93.7004 165.412 86.6473C159.795 79.5942 143.866 75.5451 142.429 86.6473C140.992 97.7494 95.4026 87.8228 92.6597 93.7004C89.9169 99.578 81.427 92.6555 83.2556 93.7004C85.0842 94.7453 88.2189 90.8269 89.9169 89.782C91.6148 88.7371 89.9169 88.084 87.174 86.6473Z" fill="#C9ECF7"/>
</svg>
