<svg width="304" height="362" viewBox="0 0 304 362" fill="none" xmlns="http://www.w3.org/2000/svg">
<rect width="304" height="362" rx="24" fill="white"/>
<path d="M14.344 243C14.776 243 15.088 242.7 15.088 242.28C15.088 241.86 14.776 241.56 14.344 241.56C13.912 241.56 13.612 241.86 13.612 242.28C13.612 242.7 13.912 243 14.344 243ZM21.343 237.54H20.035V246H21.031V238.764L25.423 246H26.731V237.54H25.723V244.776L21.343 237.54ZM31.4478 239.7C29.5518 239.7 28.2198 241.056 28.2198 242.976C28.2198 244.884 29.5518 246.24 31.4478 246.24C33.3438 246.24 34.6878 244.884 34.6878 242.976C34.6878 241.056 33.3438 239.7 31.4478 239.7ZM31.4478 245.412C30.1038 245.412 29.1318 244.38 29.1318 242.976C29.1318 241.56 30.1038 240.54 31.4478 240.54C32.7918 240.54 33.7638 241.56 33.7638 242.976C33.7638 244.38 32.7918 245.412 31.4478 245.412ZM36.5079 244.5C36.5079 245.544 37.1319 246.24 38.1279 246.24C38.4279 246.24 38.8119 246.18 39.0879 246.096V245.34C38.8599 245.412 38.5479 245.46 38.3559 245.46C37.7799 245.448 37.4199 245.052 37.4199 244.464V240.696H38.9919V239.94H37.4199V238.524H36.6759L36.5439 239.94H35.5119V240.696H36.5079V244.5ZM48.7877 244.26C48.7757 242.916 47.3477 242.664 46.2317 242.472C45.1277 242.292 44.6237 242.112 44.6237 241.572C44.6237 240.972 45.2597 240.54 46.0397 240.54C47.0237 240.54 47.7437 241.044 47.7557 241.74L48.6557 241.752C48.6437 240.564 47.5517 239.7 46.0517 239.7C44.7437 239.7 43.7357 240.48 43.7357 241.548C43.7237 242.916 44.7917 243.108 46.1717 243.324C46.8317 243.42 47.8877 243.588 47.8997 244.344C47.8997 244.956 47.2157 245.412 46.2797 245.412C45.2477 245.412 44.5037 244.812 44.5037 243.972H43.6037C43.6037 245.28 44.7317 246.24 46.2917 246.24C47.7317 246.24 48.7877 245.4 48.7877 244.26ZM55.507 246V239.94H54.595V243.492C54.595 244.596 53.683 245.412 52.627 245.412C51.547 245.412 50.935 244.632 50.935 243.564V239.94H50.023V243.564C50.023 245.112 50.971 246.24 52.519 246.24C53.359 246.24 54.187 245.82 54.595 245.148V246H55.507ZM57.1686 239.94V246H58.0806V242.604C58.0806 241.392 58.7046 240.54 59.6526 240.54C59.8926 240.54 60.2406 240.588 60.5526 240.732V239.892C60.2766 239.784 59.9886 239.724 59.7366 239.724C58.9926 239.724 58.4166 240.12 58.0566 240.78V239.94H57.1686ZM61.912 242.472C62.08 241.332 62.956 240.54 64.132 240.54C65.332 240.54 66.22 241.332 66.388 242.484L61.912 242.472ZM60.952 242.904C60.952 244.836 62.308 246.24 64.18 246.24C65.524 246.24 66.772 245.376 67.144 244.188L66.244 244.044C65.968 244.836 65.08 245.412 64.144 245.412C62.944 245.412 62.032 244.536 61.888 243.264L67.336 243.276C67.348 243.144 67.348 243.024 67.348 242.916C67.348 241.056 66.016 239.7 64.168 239.7C62.296 239.7 60.952 241.056 60.952 242.904ZM74.9846 246L76.4366 241.008L77.8886 246H79.1366L81.2006 239.94H80.2406L78.5366 245.1L76.9646 239.94H75.8966L74.3726 245.1L72.6446 239.94H71.6846L73.7366 246H74.9846ZM82.4235 237.18V246H83.3355V242.46C83.3355 241.344 84.2355 240.54 85.2795 240.54C86.3595 240.54 86.9955 241.308 86.9955 242.376V246H87.9075V242.376C87.9075 240.828 86.9355 239.7 85.3995 239.7C84.5595 239.7 83.7435 240.12 83.3355 240.804V237.18H82.4235ZM89.5931 239.94V246H90.5051V239.94H89.5931ZM90.0491 238.824C90.4091 238.824 90.6731 238.56 90.6731 238.2C90.6731 237.84 90.4091 237.588 90.0491 237.588C89.6771 237.588 89.4251 237.84 89.4251 238.2C89.4251 238.56 89.6771 238.824 90.0491 238.824ZM95.1228 239.7C93.2988 239.7 91.9668 241.08 91.9668 242.976C91.9668 244.872 93.2868 246.24 95.1228 246.24C96.5508 246.24 97.7868 245.328 98.0628 244.056L97.1628 243.936C96.9228 244.8 96.1068 245.436 95.1228 245.436C93.8388 245.436 92.8788 244.404 92.8788 242.976C92.8788 241.548 93.8508 240.504 95.1228 240.504C96.0828 240.504 96.9348 241.152 97.1628 242.04L98.0508 241.92C97.8228 240.636 96.5868 239.7 95.1228 239.7ZM99.3871 237.18V246H100.299V242.46C100.299 241.344 101.199 240.54 102.243 240.54C103.323 240.54 103.959 241.308 103.959 242.376V246H104.871V242.376C104.871 240.828 103.899 239.7 102.363 239.7C101.523 239.7 100.707 240.12 100.299 240.804V237.18H99.3871ZM114.796 244.26C114.784 242.916 113.356 242.664 112.24 242.472C111.136 242.292 110.632 242.112 110.632 241.572C110.632 240.972 111.268 240.54 112.048 240.54C113.032 240.54 113.752 241.044 113.764 241.74L114.664 241.752C114.652 240.564 113.56 239.7 112.06 239.7C110.752 239.7 109.744 240.48 109.744 241.548C109.732 242.916 110.8 243.108 112.18 243.324C112.84 243.42 113.896 243.588 113.908 244.344C113.908 244.956 113.224 245.412 112.288 245.412C111.256 245.412 110.512 244.812 110.512 243.972H109.612C109.612 245.28 110.74 246.24 112.3 246.24C113.74 246.24 114.796 245.4 114.796 244.26ZM116.304 244.5C116.304 245.544 116.928 246.24 117.924 246.24C118.224 246.24 118.608 246.18 118.884 246.096V245.34C118.656 245.412 118.344 245.46 118.152 245.46C117.576 245.448 117.216 245.052 117.216 244.464V240.696H118.788V239.94H117.216V238.524H116.472L116.34 239.94H115.308V240.696H116.304V244.5ZM120.201 239.94V246H121.113V242.604C121.113 241.392 121.737 240.54 122.685 240.54C122.925 240.54 123.273 240.588 123.585 240.732V239.892C123.309 239.784 123.021 239.724 122.769 239.724C122.025 239.724 121.449 240.12 121.089 240.78V239.94H120.201ZM124.944 242.472C125.112 241.332 125.988 240.54 127.164 240.54C128.364 240.54 129.252 241.332 129.42 242.484L124.944 242.472ZM123.984 242.904C123.984 244.836 125.34 246.24 127.212 246.24C128.556 246.24 129.804 245.376 130.176 244.188L129.276 244.044C129 244.836 128.112 245.412 127.176 245.412C125.976 245.412 125.064 244.536 124.92 243.264L130.368 243.276C130.38 243.144 130.38 243.024 130.38 242.916C130.38 241.056 129.048 239.7 127.2 239.7C125.328 239.7 123.984 241.056 123.984 242.904ZM134.589 245.412C133.245 245.412 132.273 244.38 132.273 242.976C132.273 241.56 133.245 240.54 134.589 240.54C135.921 240.54 136.905 241.56 136.905 242.976C136.905 244.38 135.921 245.412 134.589 245.412ZM136.917 241.02C136.401 240.204 135.525 239.7 134.481 239.7C132.669 239.7 131.361 241.08 131.361 242.976C131.361 244.86 132.669 246.24 134.481 246.24C135.525 246.24 136.401 245.736 136.917 244.932V246H137.829V239.94H136.917V241.02ZM140.396 246V242.364C140.396 241.272 141.08 240.54 142.088 240.54C143.06 240.54 143.696 241.272 143.696 242.364V246H144.608V242.364C144.608 241.296 145.304 240.54 146.312 240.54C147.248 240.54 147.92 241.296 147.92 242.364V246H148.844V242.376C148.844 240.816 147.836 239.712 146.42 239.712C145.46 239.712 144.704 240.204 144.32 240.972C143.984 240.204 143.168 239.7 142.172 239.7C141.392 239.7 140.756 240.072 140.372 240.696V239.94H139.484V246H140.396ZM154.345 244.5C154.345 245.544 154.969 246.24 155.965 246.24C156.265 246.24 156.649 246.18 156.925 246.096V245.34C156.697 245.412 156.385 245.46 156.193 245.46C155.617 245.448 155.257 245.052 155.257 244.464V240.696H156.829V239.94H155.257V238.524H154.513L154.381 239.94H153.349V240.696H154.345V244.5ZM161.121 239.7C159.225 239.7 157.893 241.056 157.893 242.976C157.893 244.884 159.225 246.24 161.121 246.24C163.017 246.24 164.361 244.884 164.361 242.976C164.361 241.056 163.017 239.7 161.121 239.7ZM161.121 245.412C159.777 245.412 158.805 244.38 158.805 242.976C158.805 241.56 159.777 240.54 161.121 240.54C162.465 240.54 163.437 241.56 163.437 242.976C163.437 244.38 162.465 245.412 161.121 245.412ZM171.936 239.7C170.112 239.7 168.78 241.08 168.78 242.976C168.78 244.872 170.1 246.24 171.936 246.24C173.364 246.24 174.6 245.328 174.876 244.056L173.976 243.936C173.736 244.8 172.92 245.436 171.936 245.436C170.652 245.436 169.692 244.404 169.692 242.976C169.692 241.548 170.664 240.504 171.936 240.504C172.896 240.504 173.748 241.152 173.976 242.04L174.864 241.92C174.636 240.636 173.4 239.7 171.936 239.7ZM176.201 237.18V246H177.113V242.46C177.113 241.344 178.013 240.54 179.057 240.54C180.137 240.54 180.773 241.308 180.773 242.376V246H181.685V242.376C181.685 240.828 180.713 239.7 179.177 239.7C178.337 239.7 177.521 240.12 177.113 240.804V237.18H176.201ZM186.106 239.7C184.21 239.7 182.878 241.056 182.878 242.976C182.878 244.884 184.21 246.24 186.106 246.24C188.002 246.24 189.346 244.884 189.346 242.976C189.346 241.056 188.002 239.7 186.106 239.7ZM186.106 245.412C184.762 245.412 183.79 244.38 183.79 242.976C183.79 241.56 184.762 240.54 186.106 240.54C187.45 240.54 188.422 241.56 188.422 242.976C188.422 244.38 187.45 245.412 186.106 245.412ZM193.53 239.7C191.634 239.7 190.302 241.056 190.302 242.976C190.302 244.884 191.634 246.24 193.53 246.24C195.426 246.24 196.77 244.884 196.77 242.976C196.77 241.056 195.426 239.7 193.53 239.7ZM193.53 245.412C192.186 245.412 191.214 244.38 191.214 242.976C191.214 241.56 192.186 240.54 193.53 240.54C194.874 240.54 195.846 241.56 195.846 242.976C195.846 244.38 194.874 245.412 193.53 245.412ZM203.006 244.26C202.994 242.916 201.566 242.664 200.45 242.472C199.346 242.292 198.842 242.112 198.842 241.572C198.842 240.972 199.478 240.54 200.258 240.54C201.242 240.54 201.962 241.044 201.974 241.74L202.874 241.752C202.862 240.564 201.77 239.7 200.27 239.7C198.962 239.7 197.954 240.48 197.954 241.548C197.942 242.916 199.01 243.108 200.39 243.324C201.05 243.42 202.106 243.588 202.118 244.344C202.118 244.956 201.434 245.412 200.498 245.412C199.466 245.412 198.722 244.812 198.722 243.972H197.822C197.822 245.28 198.95 246.24 200.51 246.24C201.95 246.24 203.006 245.4 203.006 244.26ZM204.986 242.472C205.154 241.332 206.03 240.54 207.206 240.54C208.406 240.54 209.294 241.332 209.462 242.484L204.986 242.472ZM204.026 242.904C204.026 244.836 205.382 246.24 207.254 246.24C208.598 246.24 209.846 245.376 210.218 244.188L209.318 244.044C209.042 244.836 208.154 245.412 207.218 245.412C206.018 245.412 205.106 244.536 204.962 243.264L210.41 243.276C210.422 243.144 210.422 243.024 210.422 242.916C210.422 241.056 209.09 239.7 207.242 239.7C205.37 239.7 204.026 241.056 204.026 242.904ZM218.082 245.412C216.738 245.412 215.766 244.38 215.766 242.976C215.766 241.56 216.738 240.54 218.082 240.54C219.414 240.54 220.398 241.56 220.398 242.976C220.398 244.38 219.414 245.412 218.082 245.412ZM220.41 241.02C219.894 240.204 219.018 239.7 217.974 239.7C216.162 239.7 214.854 241.08 214.854 242.976C214.854 244.86 216.162 246.24 217.974 246.24C219.018 246.24 219.894 245.736 220.41 244.932V246H221.322V239.94H220.41V241.02ZM224.526 238.776C224.526 238.152 224.886 237.78 225.414 237.78C225.666 237.78 225.894 237.828 226.098 237.888V237.096C225.822 237 225.522 236.94 225.186 236.94C224.25 236.94 223.614 237.624 223.602 238.68V239.94H222.618V240.696H223.602V246H224.526V240.696H226.074V239.94H224.526V238.776ZM227.789 244.5C227.789 245.544 228.413 246.24 229.409 246.24C229.709 246.24 230.093 246.18 230.369 246.096V245.34C230.141 245.412 229.829 245.46 229.637 245.46C229.061 245.448 228.701 245.052 228.701 244.464V240.696H230.273V239.94H228.701V238.524H227.957L227.825 239.94H226.793V240.696H227.789V244.5ZM232.309 242.472C232.477 241.332 233.353 240.54 234.529 240.54C235.729 240.54 236.617 241.332 236.785 242.484L232.309 242.472ZM231.349 242.904C231.349 244.836 232.705 246.24 234.577 246.24C235.921 246.24 237.169 245.376 237.541 244.188L236.641 244.044C236.365 244.836 235.477 245.412 234.541 245.412C233.341 245.412 232.429 244.536 232.285 243.264L237.733 243.276C237.745 243.144 237.745 243.024 237.745 242.916C237.745 241.056 236.413 239.7 234.565 239.7C232.693 239.7 231.349 241.056 231.349 242.904ZM239.062 239.94V246H239.974V242.604C239.974 241.392 240.598 240.54 241.546 240.54C241.786 240.54 242.134 240.588 242.446 240.732V239.892C242.17 239.784 241.882 239.724 241.63 239.724C240.886 239.724 240.31 240.12 239.95 240.78V239.94H239.062ZM248.556 246H249.564V237.54H248.76L246.516 239.256V240.444L248.556 238.872V246ZM255.018 246.3C257.166 246.3 258.618 244.392 258.618 241.776C258.618 239.148 257.166 237.24 255.018 237.24C252.882 237.24 251.43 239.148 251.43 241.776C251.43 244.392 252.882 246.3 255.018 246.3ZM255.018 238.128C256.578 238.128 257.622 239.664 257.622 241.776C257.622 243.876 256.578 245.412 255.018 245.412C253.458 245.412 252.426 243.876 252.426 241.776C252.426 239.664 253.458 238.128 255.018 238.128ZM260.696 244.5C260.696 245.544 261.32 246.24 262.316 246.24C262.616 246.24 263 246.18 263.276 246.096V245.34C263.048 245.412 262.736 245.46 262.544 245.46C261.968 245.448 261.608 245.052 261.608 244.464V240.696H263.18V239.94H261.608V238.524H260.864L260.732 239.94H259.7V240.696H260.696V244.5ZM264.593 237.18V246H265.505V242.46C265.505 241.344 266.405 240.54 267.449 240.54C268.529 240.54 269.165 241.308 269.165 242.376V246H270.077V242.376C270.077 240.828 269.105 239.7 267.569 239.7C266.729 239.7 265.913 240.12 265.505 240.804V237.18H264.593ZM274.21 246.156C274.57 246.156 274.834 245.904 274.834 245.532C274.834 245.172 274.57 244.92 274.21 244.92C273.838 244.92 273.586 245.184 273.586 245.532C273.586 245.904 273.838 246.156 274.21 246.156ZM274.678 243.852C274.678 242.868 274.954 242.46 275.65 241.992C276.49 241.44 277.162 240.96 277.162 239.808C277.162 238.332 275.938 237.24 274.366 237.24C272.758 237.24 271.594 238.38 271.402 239.964L272.338 240.144C272.47 238.98 273.238 238.128 274.354 238.128C275.374 238.128 276.154 238.86 276.154 239.82C276.154 240.588 275.602 240.984 275.002 241.392C274.21 241.944 273.754 242.508 273.754 243.852H274.678ZM14.344 267C14.776 267 15.088 266.7 15.088 266.28C15.088 265.86 14.776 265.56 14.344 265.56C13.912 265.56 13.612 265.86 13.612 266.28C13.612 266.7 13.912 267 14.344 267ZM24.019 269.412C22.051 269.412 20.635 267.888 20.623 265.776C20.623 263.652 22.039 262.128 24.019 262.128C25.459 262.128 26.719 263.124 27.031 264.444L28.015 264.324C27.607 262.548 25.927 261.24 24.019 261.24C21.475 261.24 19.627 263.148 19.627 265.776C19.627 268.404 21.475 270.3 24.019 270.3C25.927 270.3 27.595 269.052 28.015 267.36L27.043 267.18C26.707 268.464 25.447 269.412 24.019 269.412ZM32.3385 263.7C30.4425 263.7 29.1105 265.056 29.1105 266.976C29.1105 268.884 30.4425 270.24 32.3385 270.24C34.2345 270.24 35.5785 268.884 35.5785 266.976C35.5785 265.056 34.2345 263.7 32.3385 263.7ZM32.3385 269.412C30.9945 269.412 30.0225 268.38 30.0225 266.976C30.0225 265.56 30.9945 264.54 32.3385 264.54C33.6825 264.54 34.6545 265.56 34.6545 266.976C34.6545 268.38 33.6825 269.412 32.3385 269.412ZM36.8825 263.94V270H37.7945V266.46C37.7945 265.344 38.7185 264.54 39.7745 264.54C40.8425 264.54 41.4545 265.308 41.4545 266.376V270H42.3665V266.376C42.3665 264.828 41.4185 263.7 39.8705 263.7C39.0305 263.7 38.2145 264.12 37.7945 264.792V263.94H36.8825ZM45.4562 262.776C45.4562 262.152 45.8162 261.78 46.3442 261.78C46.5962 261.78 46.8242 261.828 47.0282 261.888V261.096C46.7522 261 46.4522 260.94 46.1162 260.94C45.1802 260.94 44.5442 261.624 44.5322 262.68V263.94H43.5482V264.696H44.5322V270H45.4562V264.696H47.0042V263.94H45.4562V262.776ZM53.5673 270V263.94H52.6553V267.492C52.6553 268.596 51.7433 269.412 50.6873 269.412C49.6073 269.412 48.9953 268.632 48.9953 267.564V263.94H48.0833V267.564C48.0833 269.112 49.0313 270.24 50.5793 270.24C51.4193 270.24 52.2473 269.82 52.6553 269.148V270H53.5673ZM60.1609 268.26C60.1489 266.916 58.7209 266.664 57.6049 266.472C56.5009 266.292 55.9969 266.112 55.9969 265.572C55.9969 264.972 56.6329 264.54 57.4129 264.54C58.3969 264.54 59.1169 265.044 59.1289 265.74L60.0289 265.752C60.0169 264.564 58.9249 263.7 57.4249 263.7C56.1169 263.7 55.1089 264.48 55.1089 265.548C55.0969 266.916 56.1649 267.108 57.5449 267.324C58.2049 267.42 59.2609 267.588 59.2729 268.344C59.2729 268.956 58.5889 269.412 57.6529 269.412C56.6209 269.412 55.8769 268.812 55.8769 267.972H54.9769C54.9769 269.28 56.1049 270.24 57.6649 270.24C59.1049 270.24 60.1609 269.4 60.1609 268.26ZM62.1403 266.472C62.3083 265.332 63.1843 264.54 64.3603 264.54C65.5603 264.54 66.4483 265.332 66.6163 266.484L62.1403 266.472ZM61.1803 266.904C61.1803 268.836 62.5363 270.24 64.4083 270.24C65.7523 270.24 67.0003 269.376 67.3723 268.188L66.4723 268.044C66.1963 268.836 65.3083 269.412 64.3723 269.412C63.1723 269.412 62.2603 268.536 62.1163 267.264L67.5643 267.276C67.5763 267.144 67.5763 267.024 67.5763 266.916C67.5763 265.056 66.2443 263.7 64.3963 263.7C62.5243 263.7 61.1803 265.056 61.1803 266.904ZM71.7855 264.588C73.1295 264.588 74.1015 265.596 74.1015 266.976C74.1015 268.344 73.1295 269.352 71.7855 269.352C70.4535 269.352 69.4695 268.368 69.4695 266.976C69.4695 265.596 70.4415 264.588 71.7855 264.588ZM68.5575 266.976C68.5575 268.86 69.8775 270.24 71.6895 270.24C72.7215 270.24 73.5855 269.748 74.1015 268.956V270H74.9895V261.18H74.0775V264.96C73.5615 264.18 72.7095 263.7 71.6895 263.7C69.8775 263.7 68.5575 265.08 68.5575 266.976ZM82.9891 269.412C81.6451 269.412 80.6731 268.38 80.6731 266.976C80.6731 265.56 81.6451 264.54 82.9891 264.54C84.3211 264.54 85.3051 265.56 85.3051 266.976C85.3051 268.38 84.3211 269.412 82.9891 269.412ZM85.3171 265.02C84.8011 264.204 83.9251 263.7 82.8811 263.7C81.0691 263.7 79.7611 265.08 79.7611 266.976C79.7611 268.86 81.0691 270.24 82.8811 270.24C83.9251 270.24 84.8011 269.736 85.3171 268.932V270H86.2291V263.94H85.3171V265.02ZM91.0884 264.588C92.4324 264.588 93.4044 265.596 93.4044 266.976C93.4044 268.368 92.4204 269.352 91.0884 269.352C89.7444 269.352 88.7724 268.344 88.7724 266.976C88.7724 265.596 89.7444 264.588 91.0884 264.588ZM94.3164 266.976C94.3164 265.08 93.0084 263.7 91.1964 263.7C90.1644 263.7 89.3124 264.18 88.7964 264.96V261.18H87.8844V270H88.7724V268.956C89.2884 269.748 90.1524 270.24 91.1964 270.24C92.9964 270.24 94.3164 268.86 94.3164 266.976ZM98.5166 263.7C96.6206 263.7 95.2886 265.056 95.2886 266.976C95.2886 268.884 96.6206 270.24 98.5166 270.24C100.413 270.24 101.757 268.884 101.757 266.976C101.757 265.056 100.413 263.7 98.5166 263.7ZM98.5166 269.412C97.1726 269.412 96.2006 268.38 96.2006 266.976C96.2006 265.56 97.1726 264.54 98.5166 264.54C99.8606 264.54 100.833 265.56 100.833 266.976C100.833 268.38 99.8606 269.412 98.5166 269.412ZM108.425 270V263.94H107.513V267.492C107.513 268.596 106.601 269.412 105.545 269.412C104.465 269.412 103.853 268.632 103.853 267.564V263.94H102.941V267.564C102.941 269.112 103.889 270.24 105.437 270.24C106.277 270.24 107.105 269.82 107.513 269.148V270H108.425ZM110.602 268.5C110.602 269.544 111.226 270.24 112.222 270.24C112.522 270.24 112.906 270.18 113.182 270.096V269.34C112.954 269.412 112.642 269.46 112.45 269.46C111.874 269.448 111.514 269.052 111.514 268.464V264.696H113.086V263.94H111.514V262.524H110.77L110.638 263.94H109.606V264.696H110.602V268.5ZM118.466 268.5C118.466 269.544 119.09 270.24 120.086 270.24C120.386 270.24 120.77 270.18 121.046 270.096V269.34C120.818 269.412 120.506 269.46 120.314 269.46C119.738 269.448 119.378 269.052 119.378 268.464V264.696H120.95V263.94H119.378V262.524H118.634L118.502 263.94H117.47V264.696H118.466V268.5ZM122.362 261.18V270H123.274V266.46C123.274 265.344 124.174 264.54 125.218 264.54C126.298 264.54 126.934 265.308 126.934 266.376V270H127.846V266.376C127.846 264.828 126.874 263.7 125.338 263.7C124.498 263.7 123.682 264.12 123.274 264.804V261.18H122.362ZM130.012 266.472C130.18 265.332 131.056 264.54 132.232 264.54C133.432 264.54 134.32 265.332 134.488 266.484L130.012 266.472ZM129.052 266.904C129.052 268.836 130.408 270.24 132.28 270.24C133.624 270.24 134.872 269.376 135.244 268.188L134.344 268.044C134.068 268.836 133.18 269.412 132.244 269.412C131.044 269.412 130.132 268.536 129.988 267.264L135.436 267.276C135.448 267.144 135.448 267.024 135.448 266.916C135.448 265.056 134.116 263.7 132.268 263.7C130.396 263.7 129.052 265.056 129.052 266.904ZM140.217 263.94V270H141.129V266.604C141.129 265.392 141.753 264.54 142.701 264.54C142.941 264.54 143.289 264.588 143.601 264.732V263.892C143.325 263.784 143.037 263.724 142.785 263.724C142.041 263.724 141.465 264.12 141.105 264.78V263.94H140.217ZM144.843 263.94V270H145.755V263.94H144.843ZM145.299 262.824C145.659 262.824 145.923 262.56 145.923 262.2C145.923 261.84 145.659 261.588 145.299 261.588C144.927 261.588 144.675 261.84 144.675 262.2C144.675 262.56 144.927 262.824 145.299 262.824ZM150.445 269.34C149.113 269.34 148.129 268.344 148.129 266.976C148.129 265.56 149.101 264.54 150.445 264.54C151.789 264.54 152.761 265.56 152.761 266.976C152.761 268.344 151.789 269.34 150.445 269.34ZM150.505 272.172C149.449 272.172 148.525 271.476 148.321 270.504L147.445 270.624C147.661 272.004 148.969 273 150.541 273C152.341 273 153.649 271.848 153.649 269.904V263.94H152.737V264.948C152.221 264.192 151.393 263.724 150.349 263.724C148.537 263.724 147.217 265.092 147.217 266.976C147.217 268.824 148.537 270.168 150.349 270.168C151.369 270.168 152.209 269.712 152.737 268.944V269.904C152.737 271.332 151.801 272.172 150.505 272.172ZM155.305 261.18V270H156.217V266.46C156.217 265.344 157.117 264.54 158.161 264.54C159.241 264.54 159.877 265.308 159.877 266.376V270H160.789V266.376C160.789 264.828 159.817 263.7 158.281 263.7C157.441 263.7 156.625 264.12 156.217 264.804V261.18H155.305ZM162.847 268.5C162.847 269.544 163.471 270.24 164.467 270.24C164.767 270.24 165.151 270.18 165.427 270.096V269.34C165.199 269.412 164.887 269.46 164.695 269.46C164.119 269.448 163.759 269.052 163.759 268.464V264.696H165.331V263.94H163.759V262.524H163.015L162.883 263.94H161.851V264.696H162.847V268.5ZM173.015 263.7C171.191 263.7 169.859 265.08 169.859 266.976C169.859 268.872 171.179 270.24 173.015 270.24C174.443 270.24 175.679 269.328 175.955 268.056L175.055 267.936C174.815 268.8 173.999 269.436 173.015 269.436C171.731 269.436 170.771 268.404 170.771 266.976C170.771 265.548 171.743 264.504 173.015 264.504C173.975 264.504 174.827 265.152 175.055 266.04L175.943 265.92C175.715 264.636 174.479 263.7 173.015 263.7ZM180.171 269.412C178.827 269.412 177.855 268.38 177.855 266.976C177.855 265.56 178.827 264.54 180.171 264.54C181.503 264.54 182.487 265.56 182.487 266.976C182.487 268.38 181.503 269.412 180.171 269.412ZM182.499 265.02C181.983 264.204 181.107 263.7 180.063 263.7C178.251 263.7 176.943 265.08 176.943 266.976C176.943 268.86 178.251 270.24 180.063 270.24C181.107 270.24 181.983 269.736 182.499 268.932V270H183.411V263.94H182.499V265.02ZM185.066 263.94V270H185.978V266.604C185.978 265.392 186.602 264.54 187.55 264.54C187.79 264.54 188.138 264.588 188.45 264.732V263.892C188.174 263.784 187.886 263.724 187.634 263.724C186.89 263.724 186.314 264.12 185.954 264.78V263.94H185.066ZM189.81 266.472C189.978 265.332 190.854 264.54 192.03 264.54C193.23 264.54 194.118 265.332 194.286 266.484L189.81 266.472ZM188.85 266.904C188.85 268.836 190.206 270.24 192.078 270.24C193.422 270.24 194.67 269.376 195.042 268.188L194.142 268.044C193.866 268.836 192.978 269.412 192.042 269.412C190.842 269.412 189.93 268.536 189.786 267.264L195.234 267.276C195.246 267.144 195.246 267.024 195.246 266.916C195.246 265.056 193.914 263.7 192.066 263.7C190.194 263.7 188.85 265.056 188.85 266.904ZM197.187 266.472C197.355 265.332 198.231 264.54 199.407 264.54C200.607 264.54 201.495 265.332 201.663 266.484L197.187 266.472ZM196.227 266.904C196.227 268.836 197.583 270.24 199.455 270.24C200.799 270.24 202.047 269.376 202.419 268.188L201.519 268.044C201.243 268.836 200.355 269.412 199.419 269.412C198.219 269.412 197.307 268.536 197.163 267.264L202.611 267.276C202.623 267.144 202.623 267.024 202.623 266.916C202.623 265.056 201.291 263.7 199.443 263.7C197.571 263.7 196.227 265.056 196.227 266.904ZM203.94 263.94V270H204.852V266.604C204.852 265.392 205.476 264.54 206.424 264.54C206.664 264.54 207.012 264.588 207.324 264.732V263.892C207.048 263.784 206.76 263.724 206.508 263.724C205.764 263.724 205.188 264.12 204.828 264.78V263.94H203.94ZM213.422 262.776C213.422 262.152 213.782 261.78 214.31 261.78C214.562 261.78 214.79 261.828 214.994 261.888V261.096C214.718 261 214.418 260.94 214.082 260.94C213.146 260.94 212.51 261.624 212.498 262.68V263.94H211.514V264.696H212.498V270H213.422V264.696H214.97V263.94H213.422V262.776ZM219.049 263.7C217.153 263.7 215.821 265.056 215.821 266.976C215.821 268.884 217.153 270.24 219.049 270.24C220.945 270.24 222.289 268.884 222.289 266.976C222.289 265.056 220.945 263.7 219.049 263.7ZM219.049 269.412C217.705 269.412 216.733 268.38 216.733 266.976C216.733 265.56 217.705 264.54 219.049 264.54C220.393 264.54 221.365 265.56 221.365 266.976C221.365 268.38 220.393 269.412 219.049 269.412ZM223.593 263.94V270H224.505V266.604C224.505 265.392 225.129 264.54 226.077 264.54C226.317 264.54 226.665 264.588 226.977 264.732V263.892C226.701 263.784 226.413 263.724 226.161 263.724C225.417 263.724 224.841 264.12 224.481 264.78V263.94H223.593ZM231.347 272.496C231.623 272.604 231.983 272.676 232.283 272.676C233.555 272.676 234.047 271.464 234.599 270.084L237.011 263.94H236.039L234.143 268.86L231.983 263.94H230.975L233.699 269.988C233.303 270.9 233.039 271.86 232.151 271.86C231.923 271.86 231.623 271.788 231.347 271.692V272.496ZM240.695 263.7C238.799 263.7 237.467 265.056 237.467 266.976C237.467 268.884 238.799 270.24 240.695 270.24C242.591 270.24 243.935 268.884 243.935 266.976C243.935 265.056 242.591 263.7 240.695 263.7ZM240.695 269.412C239.351 269.412 238.379 268.38 238.379 266.976C238.379 265.56 239.351 264.54 240.695 264.54C242.039 264.54 243.011 265.56 243.011 266.976C243.011 268.38 242.039 269.412 240.695 269.412ZM250.603 270V263.94H249.691V267.492C249.691 268.596 248.779 269.412 247.723 269.412C246.643 269.412 246.031 268.632 246.031 267.564V263.94H245.119V267.564C245.119 269.112 246.067 270.24 247.615 270.24C248.455 270.24 249.283 269.82 249.691 269.148V270H250.603ZM252.264 263.94V270H253.176V266.604C253.176 265.392 253.8 264.54 254.748 264.54C254.988 264.54 255.336 264.588 255.648 264.732V263.892C255.372 263.784 255.084 263.724 254.832 263.724C254.088 263.724 253.512 264.12 253.152 264.78V263.94H252.264ZM261.679 268.26C261.667 266.916 260.239 266.664 259.123 266.472C258.019 266.292 257.515 266.112 257.515 265.572C257.515 264.972 258.151 264.54 258.931 264.54C259.915 264.54 260.635 265.044 260.647 265.74L261.547 265.752C261.535 264.564 260.443 263.7 258.943 263.7C257.635 263.7 256.627 264.48 256.627 265.548C256.615 266.916 257.683 267.108 259.063 267.324C259.723 267.42 260.779 267.588 260.791 268.344C260.791 268.956 260.107 269.412 259.171 269.412C258.139 269.412 257.395 268.812 257.395 267.972H256.495C256.495 269.28 257.623 270.24 259.183 270.24C260.623 270.24 261.679 269.4 261.679 268.26ZM263.658 266.472C263.826 265.332 264.702 264.54 265.878 264.54C267.078 264.54 267.966 265.332 268.134 266.484L263.658 266.472ZM262.698 266.904C262.698 268.836 264.054 270.24 265.926 270.24C267.27 270.24 268.518 269.376 268.89 268.188L267.99 268.044C267.714 268.836 266.826 269.412 265.89 269.412C264.69 269.412 263.778 268.536 263.634 267.264L269.082 267.276C269.094 267.144 269.094 267.024 269.094 266.916C269.094 265.056 267.762 263.7 265.914 263.7C264.042 263.7 262.698 265.056 262.698 266.904ZM270.399 261.18V270H271.323V261.18H270.399ZM274.52 262.776C274.52 262.152 274.88 261.78 275.408 261.78C275.66 261.78 275.888 261.828 276.092 261.888V261.096C275.816 261 275.516 260.94 275.18 260.94C274.244 260.94 273.608 261.624 273.596 262.68V263.94H272.612V264.696H273.596V270H274.52V264.696H276.068V263.94H274.52V262.776ZM279.859 270.156C280.219 270.156 280.483 269.904 280.483 269.532C280.483 269.172 280.219 268.92 279.859 268.92C279.487 268.92 279.235 269.184 279.235 269.532C279.235 269.904 279.487 270.156 279.859 270.156ZM280.327 267.852C280.327 266.868 280.603 266.46 281.299 265.992C282.139 265.44 282.811 264.96 282.811 263.808C282.811 262.332 281.587 261.24 280.015 261.24C278.407 261.24 277.243 262.38 277.051 263.964L277.987 264.144C278.119 262.98 278.887 262.128 280.003 262.128C281.023 262.128 281.803 262.86 281.803 263.82C281.803 264.588 281.251 264.984 280.651 265.392C279.859 265.944 279.403 266.508 279.403 267.852H280.327ZM14.344 291C14.776 291 15.088 290.7 15.088 290.28C15.088 289.86 14.776 289.56 14.344 289.56C13.912 289.56 13.612 289.86 13.612 290.28C13.612 290.7 13.912 291 14.344 291ZM26.107 285.54H24.643L22.675 293.328L20.491 285.54H19.447L21.859 294H23.479L25.351 286.584L27.235 294H28.843L31.243 285.54H30.211L28.027 293.328L26.107 285.54ZM34.8114 293.412C33.4674 293.412 32.4954 292.38 32.4954 290.976C32.4954 289.56 33.4674 288.54 34.8114 288.54C36.1434 288.54 37.1274 289.56 37.1274 290.976C37.1274 292.38 36.1434 293.412 34.8114 293.412ZM37.1394 289.02C36.6234 288.204 35.7474 287.7 34.7034 287.7C32.8914 287.7 31.5834 289.08 31.5834 290.976C31.5834 292.86 32.8914 294.24 34.7034 294.24C35.7474 294.24 36.6234 293.736 37.1394 292.932V294H38.0514V287.94H37.1394V289.02ZM39.7068 287.94V294H40.6188V290.46C40.6188 289.344 41.5428 288.54 42.5988 288.54C43.6668 288.54 44.2788 289.308 44.2788 290.376V294H45.1908V290.376C45.1908 288.828 44.2428 287.7 42.6948 287.7C41.8548 287.7 41.0388 288.12 40.6188 288.792V287.94H39.7068ZM47.2484 292.5C47.2484 293.544 47.8724 294.24 48.8684 294.24C49.1684 294.24 49.5524 294.18 49.8284 294.096V293.34C49.6004 293.412 49.2884 293.46 49.0964 293.46C48.5204 293.448 48.1604 293.052 48.1604 292.464V288.696H49.7324V287.94H48.1604V286.524H47.4164L47.2844 287.94H46.2524V288.696H47.2484V292.5ZM55.1121 292.5C55.1121 293.544 55.7361 294.24 56.7321 294.24C57.0321 294.24 57.4161 294.18 57.6921 294.096V293.34C57.4641 293.412 57.1521 293.46 56.9601 293.46C56.3841 293.448 56.0241 293.052 56.0241 292.464V288.696H57.5961V287.94H56.0241V286.524H55.2801L55.1481 287.94H54.1161V288.696H55.1121V292.5ZM61.8885 287.7C59.9925 287.7 58.6605 289.056 58.6605 290.976C58.6605 292.884 59.9925 294.24 61.8885 294.24C63.7845 294.24 65.1285 292.884 65.1285 290.976C65.1285 289.056 63.7845 287.7 61.8885 287.7ZM61.8885 293.412C60.5445 293.412 59.5725 292.38 59.5725 290.976C59.5725 289.56 60.5445 288.54 61.8885 288.54C63.2325 288.54 64.2045 289.56 64.2045 290.976C64.2045 292.38 63.2325 293.412 61.8885 293.412ZM69.8839 294H70.7959V291.132L73.5559 294H74.7919L71.6359 290.76L74.6719 287.94H73.4359L70.7959 290.388V285.18H69.8839V294ZM75.8197 287.94V294H76.7317V290.46C76.7317 289.344 77.6557 288.54 78.7117 288.54C79.7797 288.54 80.3917 289.308 80.3917 290.376V294H81.3037V290.376C81.3037 288.828 80.3557 287.7 78.8077 287.7C77.9677 287.7 77.1517 288.12 76.7317 288.792V287.94H75.8197ZM85.7253 287.7C83.8293 287.7 82.4973 289.056 82.4973 290.976C82.4973 292.884 83.8293 294.24 85.7253 294.24C87.6213 294.24 88.9653 292.884 88.9653 290.976C88.9653 289.056 87.6213 287.7 85.7253 287.7ZM85.7253 293.412C84.3813 293.412 83.4093 292.38 83.4093 290.976C83.4093 289.56 84.3813 288.54 85.7253 288.54C87.0693 288.54 88.0413 289.56 88.0413 290.976C88.0413 292.38 87.0693 293.412 85.7253 293.412ZM93.1374 294L94.5894 289.008L96.0414 294H97.2894L99.3534 287.94H98.3934L96.6894 293.1L95.1174 287.94H94.0494L92.5254 293.1L90.7974 287.94H89.8374L91.8894 294H93.1374ZM104.172 287.94V294H105.084V287.94H104.172ZM104.628 286.824C104.988 286.824 105.252 286.56 105.252 286.2C105.252 285.84 104.988 285.588 104.628 285.588C104.256 285.588 104.004 285.84 104.004 286.2C104.004 286.56 104.256 286.824 104.628 286.824ZM108.429 286.776C108.429 286.152 108.789 285.78 109.317 285.78C109.569 285.78 109.797 285.828 110.001 285.888V285.096C109.725 285 109.425 284.94 109.089 284.94C108.153 284.94 107.517 285.624 107.505 286.68V287.94H106.521V288.696H107.505V294H108.429V288.696H109.977V287.94H108.429V286.776ZM114.448 296.496C114.724 296.604 115.084 296.676 115.384 296.676C116.656 296.676 117.148 295.464 117.7 294.084L120.112 287.94H119.14L117.244 292.86L115.084 287.94H114.076L116.8 293.988C116.404 294.9 116.14 295.86 115.252 295.86C115.024 295.86 114.724 295.788 114.448 295.692V296.496ZM123.795 287.7C121.899 287.7 120.567 289.056 120.567 290.976C120.567 292.884 121.899 294.24 123.795 294.24C125.691 294.24 127.035 292.884 127.035 290.976C127.035 289.056 125.691 287.7 123.795 287.7ZM123.795 293.412C122.451 293.412 121.479 292.38 121.479 290.976C121.479 289.56 122.451 288.54 123.795 288.54C125.139 288.54 126.111 289.56 126.111 290.976C126.111 292.38 125.139 293.412 123.795 293.412ZM133.703 294V287.94H132.791V291.492C132.791 292.596 131.879 293.412 130.823 293.412C129.743 293.412 129.131 292.632 129.131 291.564V287.94H128.219V291.564C128.219 293.112 129.167 294.24 130.715 294.24C131.555 294.24 132.383 293.82 132.791 293.148V294H133.703ZM135.365 287.94V294H136.277V290.604C136.277 289.392 136.901 288.54 137.849 288.54C138.089 288.54 138.437 288.588 138.749 288.732V287.892C138.473 287.784 138.185 287.724 137.933 287.724C137.189 287.724 136.613 288.12 136.253 288.78V287.94H135.365ZM143.299 285.18V294H144.211V290.46C144.211 289.344 145.111 288.54 146.155 288.54C147.235 288.54 147.871 289.308 147.871 290.376V294H148.783V290.376C148.783 288.828 147.811 287.7 146.275 287.7C145.435 287.7 144.619 288.12 144.211 288.804V285.18H143.299ZM153.205 287.7C151.309 287.7 149.977 289.056 149.977 290.976C149.977 292.884 151.309 294.24 153.205 294.24C155.101 294.24 156.445 292.884 156.445 290.976C156.445 289.056 155.101 287.7 153.205 287.7ZM153.205 293.412C151.861 293.412 150.889 292.38 150.889 290.976C150.889 289.56 151.861 288.54 153.205 288.54C154.549 288.54 155.521 289.56 155.521 290.976C155.521 292.38 154.549 293.412 153.205 293.412ZM160.953 288.588C162.297 288.588 163.269 289.596 163.269 290.976C163.269 292.368 162.285 293.352 160.953 293.352C159.609 293.352 158.637 292.344 158.637 290.976C158.637 289.596 159.609 288.588 160.953 288.588ZM164.181 290.976C164.181 289.08 162.873 287.7 161.061 287.7C160.029 287.7 159.177 288.18 158.661 288.96V285.18H157.749V294H158.637V292.956C159.153 293.748 160.017 294.24 161.061 294.24C162.861 294.24 164.181 292.86 164.181 290.976ZM168.705 288.588C170.049 288.588 171.021 289.596 171.021 290.976C171.021 292.368 170.037 293.352 168.705 293.352C167.361 293.352 166.389 292.344 166.389 290.976C166.389 289.596 167.361 288.588 168.705 288.588ZM171.933 290.976C171.933 289.08 170.625 287.7 168.813 287.7C167.781 287.7 166.929 288.18 166.413 288.96V285.18H165.501V294H166.389V292.956C166.905 293.748 167.769 294.24 168.813 294.24C170.613 294.24 171.933 292.86 171.933 290.976ZM173.397 287.94V294H174.309V287.94H173.397ZM173.853 286.824C174.213 286.824 174.477 286.56 174.477 286.2C174.477 285.84 174.213 285.588 173.853 285.588C173.481 285.588 173.229 285.84 173.229 286.2C173.229 286.56 173.481 286.824 173.853 286.824ZM176.731 290.472C176.899 289.332 177.775 288.54 178.951 288.54C180.151 288.54 181.039 289.332 181.207 290.484L176.731 290.472ZM175.771 290.904C175.771 292.836 177.127 294.24 178.999 294.24C180.343 294.24 181.591 293.376 181.963 292.188L181.063 292.044C180.787 292.836 179.899 293.412 178.963 293.412C177.763 293.412 176.851 292.536 176.707 291.264L182.155 291.276C182.167 291.144 182.167 291.024 182.167 290.916C182.167 289.056 180.835 287.7 178.987 287.7C177.115 287.7 175.771 289.056 175.771 290.904ZM188.416 292.26C188.404 290.916 186.976 290.664 185.86 290.472C184.756 290.292 184.252 290.112 184.252 289.572C184.252 288.972 184.888 288.54 185.668 288.54C186.652 288.54 187.372 289.044 187.384 289.74L188.284 289.752C188.272 288.564 187.18 287.7 185.68 287.7C184.372 287.7 183.364 288.48 183.364 289.548C183.352 290.916 184.42 291.108 185.8 291.324C186.46 291.42 187.516 291.588 187.528 292.344C187.528 292.956 186.844 293.412 185.908 293.412C184.876 293.412 184.132 292.812 184.132 291.972H183.232C183.232 293.28 184.36 294.24 185.92 294.24C187.36 294.24 188.416 293.4 188.416 292.26ZM196.043 287.7C194.219 287.7 192.887 289.08 192.887 290.976C192.887 292.872 194.207 294.24 196.043 294.24C197.471 294.24 198.707 293.328 198.983 292.056L198.083 291.936C197.843 292.8 197.027 293.436 196.043 293.436C194.759 293.436 193.799 292.404 193.799 290.976C193.799 289.548 194.771 288.504 196.043 288.504C197.003 288.504 197.855 289.152 198.083 290.04L198.971 289.92C198.743 288.636 197.507 287.7 196.043 287.7ZM203.199 293.412C201.855 293.412 200.883 292.38 200.883 290.976C200.883 289.56 201.855 288.54 203.199 288.54C204.531 288.54 205.515 289.56 205.515 290.976C205.515 292.38 204.531 293.412 203.199 293.412ZM205.527 289.02C205.011 288.204 204.135 287.7 203.091 287.7C201.279 287.7 199.971 289.08 199.971 290.976C199.971 292.86 201.279 294.24 203.091 294.24C204.135 294.24 205.011 293.736 205.527 292.932V294H206.439V287.94H205.527V289.02ZM208.094 287.94V294H209.006V290.46C209.006 289.344 209.93 288.54 210.986 288.54C212.054 288.54 212.666 289.308 212.666 290.376V294H213.578V290.376C213.578 288.828 212.63 287.7 211.082 287.7C210.242 287.7 209.426 288.12 209.006 288.792V287.94H208.094ZM221.775 288.588C223.119 288.588 224.091 289.596 224.091 290.976C224.091 292.368 223.107 293.352 221.775 293.352C220.431 293.352 219.459 292.344 219.459 290.976C219.459 289.596 220.431 288.588 221.775 288.588ZM225.003 290.976C225.003 289.08 223.695 287.7 221.883 287.7C220.851 287.7 219.999 288.18 219.483 288.96V285.18H218.571V294H219.459V292.956C219.975 293.748 220.839 294.24 221.883 294.24C223.683 294.24 225.003 292.86 225.003 290.976ZM226.948 290.472C227.116 289.332 227.992 288.54 229.168 288.54C230.368 288.54 231.256 289.332 231.424 290.484L226.948 290.472ZM225.988 290.904C225.988 292.836 227.344 294.24 229.216 294.24C230.56 294.24 231.808 293.376 232.18 292.188L231.28 292.044C231.004 292.836 230.116 293.412 229.18 293.412C227.98 293.412 227.068 292.536 226.924 291.264L232.372 291.276C232.384 291.144 232.384 291.024 232.384 290.916C232.384 289.056 231.052 287.7 229.204 287.7C227.332 287.7 225.988 289.056 225.988 290.904ZM237.668 292.5C237.668 293.544 238.292 294.24 239.288 294.24C239.588 294.24 239.972 294.18 240.248 294.096V293.34C240.02 293.412 239.708 293.46 239.516 293.46C238.94 293.448 238.58 293.052 238.58 292.464V288.696H240.152V287.94H238.58V286.524H237.836L237.704 287.94H236.672V288.696H237.668V292.5ZM246.929 294V287.94H246.017V291.492C246.017 292.596 245.105 293.412 244.049 293.412C242.969 293.412 242.357 292.632 242.357 291.564V287.94H241.445V291.564C241.445 293.112 242.393 294.24 243.941 294.24C244.781 294.24 245.609 293.82 246.017 293.148V294H246.929ZM248.59 287.94V294H249.502V290.604C249.502 289.392 250.126 288.54 251.074 288.54C251.314 288.54 251.662 288.588 251.974 288.732V287.892C251.698 287.784 251.41 287.724 251.158 287.724C250.414 287.724 249.838 288.12 249.478 288.78V287.94H248.59ZM253.073 287.94V294H253.985V290.46C253.985 289.344 254.909 288.54 255.965 288.54C257.033 288.54 257.645 289.308 257.645 290.376V294H258.557V290.376C258.557 288.828 257.609 287.7 256.061 287.7C255.221 287.7 254.405 288.12 253.985 288.792V287.94H253.073ZM260.722 290.472C260.89 289.332 261.766 288.54 262.942 288.54C264.142 288.54 265.03 289.332 265.198 290.484L260.722 290.472ZM259.762 290.904C259.762 292.836 261.118 294.24 262.99 294.24C264.334 294.24 265.582 293.376 265.954 292.188L265.054 292.044C264.778 292.836 263.89 293.412 262.954 293.412C261.754 293.412 260.842 292.536 260.698 291.264L266.146 291.276C266.158 291.144 266.158 291.024 266.158 290.916C266.158 289.056 264.826 287.7 262.978 287.7C261.106 287.7 259.762 289.056 259.762 290.904ZM270.368 288.588C271.712 288.588 272.684 289.596 272.684 290.976C272.684 292.344 271.712 293.352 270.368 293.352C269.036 293.352 268.052 292.368 268.052 290.976C268.052 289.596 269.024 288.588 270.368 288.588ZM267.14 290.976C267.14 292.86 268.46 294.24 270.272 294.24C271.304 294.24 272.168 293.748 272.684 292.956V294H273.572V285.18H272.66V288.96C272.144 288.18 271.292 287.7 270.272 287.7C268.46 287.7 267.14 289.08 267.14 290.976ZM14.092 311.94V318H15.004V311.94H14.092ZM14.548 310.824C14.908 310.824 15.172 310.56 15.172 310.2C15.172 309.84 14.908 309.588 14.548 309.588C14.176 309.588 13.924 309.84 13.924 310.2C13.924 310.56 14.176 310.824 14.548 310.824ZM16.8018 311.94V318H17.7138V314.46C17.7138 313.344 18.6378 312.54 19.6938 312.54C20.7618 312.54 21.3738 313.308 21.3738 314.376V318H22.2858V314.376C22.2858 312.828 21.3378 311.7 19.7898 311.7C18.9498 311.7 18.1338 312.12 17.7138 312.792V311.94H16.8018ZM24.3434 316.5C24.3434 317.544 24.9674 318.24 25.9634 318.24C26.2634 318.24 26.6474 318.18 26.9234 318.096V317.34C26.6954 317.412 26.3834 317.46 26.1914 317.46C25.6154 317.448 25.2554 317.052 25.2554 316.464V312.696H26.8274V311.94H25.2554V310.524H24.5114L24.3794 311.94H23.3474V312.696H24.3434V316.5ZM31.1197 311.7C29.2237 311.7 27.8917 313.056 27.8917 314.976C27.8917 316.884 29.2237 318.24 31.1197 318.24C33.0157 318.24 34.3597 316.884 34.3597 314.976C34.3597 313.056 33.0157 311.7 31.1197 311.7ZM31.1197 317.412C29.7757 317.412 28.8037 316.38 28.8037 314.976C28.8037 313.56 29.7757 312.54 31.1197 312.54C32.4637 312.54 33.4357 313.56 33.4357 314.976C33.4357 316.38 32.4637 317.412 31.1197 317.412ZM39.1152 311.94V318H40.0272V314.604C40.0272 313.392 40.6512 312.54 41.5992 312.54C41.8392 312.54 42.1872 312.588 42.4992 312.732V311.892C42.2232 311.784 41.9352 311.724 41.6832 311.724C40.9392 311.724 40.3632 312.12 40.0032 312.78V311.94H39.1152ZM43.8586 314.472C44.0266 313.332 44.9026 312.54 46.0786 312.54C47.2786 312.54 48.1666 313.332 48.3346 314.484L43.8586 314.472ZM42.8986 314.904C42.8986 316.836 44.2546 318.24 46.1266 318.24C47.4706 318.24 48.7186 317.376 49.0906 316.188L48.1906 316.044C47.9146 316.836 47.0266 317.412 46.0906 317.412C44.8906 317.412 43.9786 316.536 43.8346 315.264L49.2826 315.276C49.2946 315.144 49.2946 315.024 49.2946 314.916C49.2946 313.056 47.9626 311.7 46.1146 311.7C44.2426 311.7 42.8986 313.056 42.8986 314.904ZM53.4797 318L54.9317 313.008L56.3837 318H57.6318L59.6957 311.94H58.7358L57.0317 317.1L55.4597 311.94H54.3917L52.8677 317.1L51.1397 311.94H50.1797L52.2317 318H53.4797ZM63.8106 317.412C62.4666 317.412 61.4946 316.38 61.4946 314.976C61.4946 313.56 62.4666 312.54 63.8106 312.54C65.1426 312.54 66.1266 313.56 66.1266 314.976C66.1266 316.38 65.1426 317.412 63.8106 317.412ZM66.1386 313.02C65.6226 312.204 64.7466 311.7 63.7026 311.7C61.8906 311.7 60.5826 313.08 60.5826 314.976C60.5826 316.86 61.8906 318.24 63.7026 318.24C64.7466 318.24 65.6226 317.736 66.1386 316.932V318H67.0506V311.94H66.1386V313.02ZM68.706 311.94V318H69.618V314.604C69.618 313.392 70.242 312.54 71.19 312.54C71.43 312.54 71.778 312.588 72.09 312.732V311.892C71.814 311.784 71.526 311.724 71.274 311.724C70.53 311.724 69.954 312.12 69.594 312.78V311.94H68.706ZM75.7173 312.588C77.0613 312.588 78.0333 313.596 78.0333 314.976C78.0333 316.344 77.0613 317.352 75.7173 317.352C74.3853 317.352 73.4013 316.368 73.4013 314.976C73.4013 313.596 74.3733 312.588 75.7173 312.588ZM72.4893 314.976C72.4893 316.86 73.8093 318.24 75.6213 318.24C76.6533 318.24 77.5173 317.748 78.0333 316.956V318H78.9213V309.18H78.0093V312.96C77.4933 312.18 76.6413 311.7 75.6213 311.7C73.8093 311.7 72.4893 313.08 72.4893 314.976ZM80.7215 311.94V318H81.6335V311.94H80.7215ZM81.1775 310.824C81.5375 310.824 81.8015 310.56 81.8015 310.2C81.8015 309.84 81.5375 309.588 81.1775 309.588C80.8055 309.588 80.5535 309.84 80.5535 310.2C80.5535 310.56 80.8055 310.824 81.1775 310.824ZM83.4313 311.94V318H84.3433V314.46C84.3433 313.344 85.2673 312.54 86.3233 312.54C87.3913 312.54 88.0033 313.308 88.0033 314.376V318H88.9153V314.376C88.9153 312.828 87.9673 311.7 86.4193 311.7C85.5793 311.7 84.7633 312.12 84.3433 312.792V311.94H83.4313ZM93.3489 317.34C92.0169 317.34 91.0329 316.344 91.0329 314.976C91.0329 313.56 92.0049 312.54 93.3489 312.54C94.6929 312.54 95.6649 313.56 95.6649 314.976C95.6649 316.344 94.6929 317.34 93.3489 317.34ZM93.4089 320.172C92.3529 320.172 91.4289 319.476 91.2249 318.504L90.3489 318.624C90.5649 320.004 91.8729 321 93.4449 321C95.2449 321 96.5529 319.848 96.5529 317.904V311.94H95.6409V312.948C95.1249 312.192 94.2969 311.724 93.2529 311.724C91.4409 311.724 90.1209 313.092 90.1209 314.976C90.1209 316.824 91.4409 318.168 93.2529 318.168C94.2729 318.168 95.1129 317.712 95.6409 316.944V317.904C95.6409 319.332 94.7049 320.172 93.4089 320.172ZM104.481 311.7C102.657 311.7 101.325 313.08 101.325 314.976C101.325 316.872 102.645 318.24 104.481 318.24C105.909 318.24 107.145 317.328 107.421 316.056L106.521 315.936C106.281 316.8 105.465 317.436 104.481 317.436C103.197 317.436 102.237 316.404 102.237 314.976C102.237 313.548 103.209 312.504 104.481 312.504C105.441 312.504 106.293 313.152 106.521 314.04L107.409 313.92C107.181 312.636 105.945 311.7 104.481 311.7ZM111.637 317.412C110.293 317.412 109.321 316.38 109.321 314.976C109.321 313.56 110.293 312.54 111.637 312.54C112.969 312.54 113.953 313.56 113.953 314.976C113.953 316.38 112.969 317.412 111.637 317.412ZM113.965 313.02C113.449 312.204 112.573 311.7 111.529 311.7C109.717 311.7 108.409 313.08 108.409 314.976C108.409 316.86 109.717 318.24 111.529 318.24C112.573 318.24 113.449 317.736 113.965 316.932V318H114.877V311.94H113.965V313.02ZM116.532 311.94V318H117.444V314.604C117.444 313.392 118.068 312.54 119.016 312.54C119.256 312.54 119.604 312.588 119.916 312.732V311.892C119.64 311.784 119.352 311.724 119.1 311.724C118.356 311.724 117.78 312.12 117.42 312.78V311.94H116.532ZM121.275 314.472C121.443 313.332 122.319 312.54 123.495 312.54C124.695 312.54 125.583 313.332 125.751 314.484L121.275 314.472ZM120.315 314.904C120.315 316.836 121.671 318.24 123.543 318.24C124.887 318.24 126.135 317.376 126.507 316.188L125.607 316.044C125.331 316.836 124.443 317.412 123.507 317.412C122.307 317.412 121.395 316.536 121.251 315.264L126.699 315.276C126.711 315.144 126.711 315.024 126.711 314.916C126.711 313.056 125.379 311.7 123.531 311.7C121.659 311.7 120.315 313.056 120.315 314.904ZM128.653 314.472C128.821 313.332 129.697 312.54 130.873 312.54C132.073 312.54 132.961 313.332 133.129 314.484L128.653 314.472ZM127.693 314.904C127.693 316.836 129.049 318.24 130.921 318.24C132.265 318.24 133.513 317.376 133.885 316.188L132.985 316.044C132.709 316.836 131.821 317.412 130.885 317.412C129.685 317.412 128.773 316.536 128.629 315.264L134.077 315.276C134.089 315.144 134.089 315.024 134.089 314.916C134.089 313.056 132.757 311.7 130.909 311.7C129.037 311.7 127.693 313.056 127.693 314.904ZM135.406 311.94V318H136.318V314.604C136.318 313.392 136.942 312.54 137.89 312.54C138.13 312.54 138.478 312.588 138.79 312.732V311.892C138.514 311.784 138.226 311.724 137.974 311.724C137.23 311.724 136.654 312.12 136.294 312.78V311.94H135.406ZM144.82 316.26C144.808 314.916 143.38 314.664 142.264 314.472C141.16 314.292 140.656 314.112 140.656 313.572C140.656 312.972 141.292 312.54 142.072 312.54C143.056 312.54 143.776 313.044 143.788 313.74L144.688 313.752C144.676 312.564 143.584 311.7 142.084 311.7C140.776 311.7 139.768 312.48 139.768 313.548C139.756 314.916 140.824 315.108 142.204 315.324C142.864 315.42 143.92 315.588 143.932 316.344C143.932 316.956 143.248 317.412 142.312 317.412C141.28 317.412 140.536 316.812 140.536 315.972H139.636C139.636 317.28 140.764 318.24 142.324 318.24C143.764 318.24 144.82 317.4 144.82 316.26ZM148.768 318.156C149.128 318.156 149.392 317.904 149.392 317.532C149.392 317.172 149.128 316.92 148.768 316.92C148.396 316.92 148.144 317.184 148.144 317.532C148.144 317.904 148.396 318.156 148.768 318.156ZM149.236 315.852C149.236 314.868 149.512 314.46 150.208 313.992C151.048 313.44 151.72 312.96 151.72 311.808C151.72 310.332 150.496 309.24 148.924 309.24C147.316 309.24 146.152 310.38 145.96 311.964L146.896 312.144C147.028 310.98 147.796 310.128 148.912 310.128C149.932 310.128 150.712 310.86 150.712 311.82C150.712 312.588 150.16 312.984 149.56 313.392C148.768 313.944 148.312 314.508 148.312 315.852H149.236Z" fill="black"/>
<path d="M97.7752 203.448C97.7752 200.824 95.4872 200.344 93.2792 200.088C91.8392 199.896 90.7032 199.736 90.7032 198.664C90.7032 197.832 91.5352 197.24 92.7992 197.24C94.1752 197.24 95.1832 198.04 95.1672 199.16H97.5032C97.5032 196.872 95.5032 195.208 92.7352 195.208C89.9832 195.208 88.0792 196.744 88.0792 198.968C88.0792 201.624 90.2552 202.104 92.5112 202.392C93.9192 202.568 95.1512 202.728 95.1512 203.8C95.1512 204.712 94.3352 205.368 93.0232 205.368C91.4872 205.368 90.3832 204.488 90.3832 203.256H87.9672C87.9672 205.656 90.0472 207.4 92.9432 207.4C95.8392 207.4 97.7752 205.784 97.7752 203.448ZM103.58 198.488C100.988 198.488 99.1164 200.344 99.1164 202.904C99.1164 205.464 101.004 207.32 103.58 207.32C105.692 207.32 107.484 205.96 107.788 204.072L105.548 203.784C105.324 204.664 104.54 205.304 103.596 205.304C102.412 205.304 101.516 204.296 101.516 202.904C101.516 201.512 102.428 200.504 103.596 200.504C104.508 200.504 105.324 201.144 105.532 202.024L107.772 201.736C107.516 199.848 105.724 198.488 103.58 198.488ZM109.309 195.128V207H111.709V202.392C111.709 201.352 112.477 200.6 113.405 200.6C114.365 200.616 114.941 201.304 114.941 202.296V207H117.341V201.8C117.341 199.864 116.109 198.488 114.221 198.488C113.229 198.488 112.253 198.936 111.709 199.736V195.128H109.309ZM123.262 198.488C120.574 198.488 118.718 200.28 118.718 202.904C118.718 205.512 120.574 207.32 123.262 207.32C125.966 207.32 127.822 205.512 127.822 202.904C127.822 200.28 125.966 198.488 123.262 198.488ZM123.262 205.208C122.014 205.208 121.134 204.248 121.134 202.904C121.134 201.56 122.014 200.6 123.262 200.6C124.526 200.6 125.406 201.56 125.406 202.904C125.406 204.248 124.526 205.208 123.262 205.208ZM133.524 198.488C130.836 198.488 128.98 200.28 128.98 202.904C128.98 205.512 130.836 207.32 133.524 207.32C136.228 207.32 138.084 205.512 138.084 202.904C138.084 200.28 136.228 198.488 133.524 198.488ZM133.524 205.208C132.276 205.208 131.396 204.248 131.396 202.904C131.396 201.56 132.276 200.6 133.524 200.6C134.788 200.6 135.668 201.56 135.668 202.904C135.668 204.248 134.788 205.208 133.524 205.208ZM139.61 195.128V207H142.01V195.128H139.61ZM158.233 203.448C158.233 200.824 155.945 200.344 153.737 200.088C152.297 199.896 151.161 199.736 151.161 198.664C151.161 197.832 151.993 197.24 153.257 197.24C154.633 197.24 155.641 198.04 155.625 199.16H157.961C157.961 196.872 155.961 195.208 153.193 195.208C150.441 195.208 148.537 196.744 148.537 198.968C148.537 201.624 150.713 202.104 152.969 202.392C154.377 202.568 155.609 202.728 155.609 203.8C155.609 204.712 154.793 205.368 153.481 205.368C151.945 205.368 150.841 204.488 150.841 203.256H148.425C148.425 205.656 150.505 207.4 153.401 207.4C156.297 207.4 158.233 205.784 158.233 203.448ZM160.254 204.344C160.254 206.088 161.31 207.32 162.942 207.32C163.454 207.32 164.094 207.224 164.59 207.064V205.128C164.318 205.208 163.966 205.256 163.742 205.256C163.07 205.256 162.654 204.792 162.654 204.104V200.632H164.51V198.808H162.654V196.744H160.638L160.366 198.808H159.102V200.632H160.254V204.344ZM174.014 207V198.808H171.614V203.416C171.614 204.456 170.846 205.208 169.902 205.208C168.958 205.208 168.382 204.504 168.382 203.512V198.808H165.982V203.928C165.982 205.896 167.23 207.32 169.07 207.32C170.142 207.32 171.102 206.776 171.678 205.88V207H174.014ZM180.111 200.648C181.359 200.648 182.255 201.608 182.255 202.904C182.255 204.2 181.359 205.16 180.111 205.16C178.879 205.16 177.967 204.216 177.967 202.904C177.967 201.608 178.863 200.648 180.111 200.648ZM175.567 202.904C175.567 205.496 177.183 207.32 179.455 207.32C180.607 207.32 181.551 206.824 182.191 206.008V207H184.559V195.128H182.159V199.8C181.519 198.968 180.575 198.488 179.455 198.488C177.183 198.488 175.567 200.312 175.567 202.904ZM188.574 202.136C188.782 201.048 189.518 200.328 190.574 200.328C191.662 200.328 192.462 201.096 192.606 202.136H188.574ZM186.11 202.84C186.11 205.48 187.966 207.32 190.606 207.32C192.606 207.32 194.334 206.152 194.734 204.552L192.574 204.248C192.318 204.968 191.566 205.48 190.67 205.48C189.582 205.48 188.798 204.728 188.59 203.576L195.006 203.592C195.038 203.416 195.038 203.08 195.038 202.872C195.038 200.28 193.246 198.488 190.622 198.488C187.982 198.488 186.11 200.28 186.11 202.84ZM196.584 198.808V207H198.984V202.392C198.984 201.352 199.752 200.6 200.696 200.6C201.64 200.6 202.216 201.304 202.216 202.296V207H204.616V201.88C204.616 199.912 203.368 198.488 201.528 198.488C200.456 198.488 199.496 199.032 198.92 199.912V198.808H196.584ZM207.001 204.344C207.001 206.088 208.057 207.32 209.689 207.32C210.201 207.32 210.841 207.224 211.337 207.064V205.128C211.065 205.208 210.713 205.256 210.489 205.256C209.817 205.256 209.401 204.792 209.401 204.104V200.632H211.257V198.808H209.401V196.744H207.385L207.113 198.808H205.849V200.632H207.001V204.344Z" fill="#444444"/>
<path d="M174.931 147.082C180.912 151.915 187.894 160.792 187.894 175.899H111.674C111.674 160.792 118.656 151.915 124.637 147.082H174.931Z" fill="#FFDB80"/>
<path fill-rule="evenodd" clip-rule="evenodd" d="M191.279 87.3555C190.926 90.3583 190.501 93.4583 189.86 96.1325C189.288 98.5177 188.108 101.235 186.829 103.637C186.282 104.665 185.714 105.641 185.163 106.514C185.177 106.572 185.191 106.632 185.204 106.691C185.388 107.509 185.351 109.151 184.892 111.219C184.43 113.303 183.53 115.858 181.949 118.51C178.782 123.821 172.892 129.502 162.354 132.566C159.48 133.402 158.009 135.082 157.314 136.826C156.61 138.591 156.691 140.448 156.981 141.608L156.221 141.798C155.899 140.511 155.811 138.482 156.586 136.536C157.37 134.571 159.027 132.718 162.136 131.814C172.482 128.806 178.211 123.251 181.277 118.109C182.812 115.534 183.682 113.058 184.128 111.05C184.465 109.53 184.555 108.3 184.516 107.505C184.019 108.24 183.551 108.866 183.145 109.342L183.122 109.368L183.095 109.39C182.972 109.492 182.851 109.6 182.722 109.715L182.692 109.741C182.555 109.864 182.408 109.994 182.253 110.118C181.942 110.367 181.581 110.603 181.129 110.743C180.211 111.028 179.039 110.883 177.304 109.978C176.382 109.498 175.834 108.851 175.603 108.113C175.375 107.384 175.475 106.62 175.744 105.925C176.012 105.229 176.458 104.577 176.964 104.049C177.468 103.524 178.051 103.099 178.612 102.879C179.601 102.491 180.952 102.064 182.223 102.46C183.318 102.802 184.253 103.715 184.87 105.499C185.291 104.805 185.72 104.054 186.138 103.269C187.401 100.896 188.548 98.2446 189.098 95.95C189.727 93.3241 190.149 90.2634 190.501 87.2641C190.611 86.3337 190.713 85.4082 190.814 84.5039C191.036 82.5037 191.247 80.6078 191.491 78.9955L192.265 79.1126C192.024 80.7092 191.816 82.5794 191.595 84.5708C191.494 85.4787 191.39 86.4117 191.279 87.3555ZM184.321 106.379C183.759 104.295 182.865 103.481 181.99 103.208C181.003 102.901 179.884 103.221 178.898 103.608C178.471 103.776 177.978 104.123 177.529 104.591C177.083 105.058 176.699 105.623 176.474 106.207C176.249 106.79 176.19 107.367 176.35 107.88C176.508 108.384 176.894 108.881 177.666 109.284C179.317 110.145 180.262 110.192 180.896 109.995C181.22 109.895 181.494 109.722 181.765 109.506C181.901 109.397 182.032 109.281 182.17 109.157L182.203 109.129C182.32 109.023 182.444 108.913 182.571 108.807C183.072 108.218 183.678 107.38 184.321 106.379Z" fill="#666666"/>
<path fill-rule="evenodd" clip-rule="evenodd" d="M148.974 119.074C145.978 119.292 143.245 118.75 141.629 118.176L141.891 117.438C143.413 117.979 146.037 118.503 148.917 118.293C151.793 118.083 154.895 117.144 157.416 114.791L157.95 115.363C155.264 117.871 151.973 118.855 148.974 119.074Z" fill="#666666"/>
<path fill-rule="evenodd" clip-rule="evenodd" d="M151.1 121.979C150.222 122.045 149.42 121.883 148.935 121.706L149.203 120.971C149.592 121.112 150.283 121.255 151.042 121.198C151.797 121.142 152.592 120.891 153.236 120.276L153.777 120.841C152.969 121.615 151.983 121.913 151.1 121.979Z" fill="#666666"/>
<path fill-rule="evenodd" clip-rule="evenodd" d="M129.033 102.644C128.203 102.805 127.465 103.369 127.044 103.849L126.455 103.334C126.948 102.77 127.829 102.08 128.884 101.876C129.419 101.772 130 101.793 130.588 102.022C131.175 102.251 131.746 102.678 132.277 103.348L131.663 103.834C131.203 103.252 130.739 102.922 130.304 102.752C129.87 102.583 129.441 102.565 129.033 102.644Z" fill="#666666"/>
<path fill-rule="evenodd" clip-rule="evenodd" d="M167.144 102.644C166.313 102.805 165.575 103.369 165.155 103.849L164.565 103.334C165.058 102.77 165.939 102.08 166.995 101.876C167.53 101.772 168.111 101.793 168.699 102.022C169.286 102.251 169.857 102.678 170.388 103.348L169.774 103.834C169.313 103.252 168.85 102.922 168.415 102.752C167.98 102.583 167.552 102.565 167.144 102.644Z" fill="#666666"/>
<path fill-rule="evenodd" clip-rule="evenodd" d="M146.195 86.3633H146.978V109.601C147.241 109.904 148.23 110.49 150.458 109.376L150.808 110.076C148.222 111.369 146.707 110.71 146.249 109.923L146.195 109.832V86.3633Z" fill="#666666"/>
<path fill-rule="evenodd" clip-rule="evenodd" d="M112.927 114.168C108.775 104.246 108.776 93.7894 110.049 87.0732L110.818 87.2191C109.568 93.8158 109.568 104.112 113.65 113.865C117.724 123.602 125.87 132.814 140.955 137.281L140.733 138.032C125.408 133.494 117.086 124.107 112.927 114.168Z" fill="#666666"/>
<path d="M107.171 77.6184C104.43 76.1827 105.344 73.8334 109.912 73.0503C109.912 48.3904 116.313 45.9105 140.72 39.3846C160.245 34.1639 177.042 44.6843 173.474 54.6472C174.91 51.2537 189.403 58.6793 191.1 61.7032C192.797 64.7272 197.631 67.5766 194.754 77.6184C192.632 85.0254 188.745 89.6261 189.398 88.0599C190.05 86.4937 190.964 84.6664 185.351 77.6184C179.739 70.5704 163.822 66.5243 162.386 77.6184C160.95 88.7125 115.394 78.7931 112.653 84.6664C109.912 90.5397 101.428 83.6222 103.255 84.6664C105.083 85.7105 108.215 81.795 109.912 80.7508C111.609 79.7067 109.912 79.0541 107.171 77.6184Z" fill="#F6C9F7"/>
<path d="M142.919 176.625L134.795 147.622L134.426 146.868H124.087L121.871 149.128L129.995 176.625H142.919Z" fill="#FFEAB6"/>
<path d="M155.982 176.625L164.106 147.622L164.475 146.868H174.815L177.03 149.128L168.907 176.625H155.982Z" fill="#FFEAB6"/>
</svg>
