<svg width="537" height="415" viewBox="0 0 537 415" fill="none" xmlns="http://www.w3.org/2000/svg">
<path opacity="0.75" d="M439.012 77.4008C363.702 21.9305 274.867 1.19916 204.679 0.0785443C134.491 -1.04207 80.6295 9.60376 61.0218 46.5039C41.414 83.4041 70.4655 105.096 81.83 115.422C93.1945 125.827 118.084 159.926 55.0194 200.828C-20.0504 249.575 -16.609 343.146 55.0194 390.132C119.045 432.075 193.314 413.185 233.65 390.132C273.906 367.079 322.405 350.91 378.188 383.168C433.97 415.506 501.677 393.574 522.325 341.385C544.654 285.034 557.219 164.488 439.012 77.4008Z" fill="white"/>
<ellipse cx="252.606" cy="337.054" rx="245.794" ry="14.2081" fill="#EAEAEA"/>
<path d="M188.621 338.08L190.378 336.91C192.721 337.846 200.726 337.3 204.436 336.91L206.193 335.74C207.365 334.96 211.348 334.102 217.908 336.91C224.468 339.718 218.689 340.81 214.979 341.005H189.207L188.621 338.08Z" fill="#C70001"/>
<path d="M282.34 339.656L301.084 331.466V333.806L308.698 332.636H311.041V341.996H304.012V340.826H301.084L297.569 341.996H282.34V339.656Z" fill="#534E4D"/>
<rect x="282.34" y="202.765" width="21.0867" height="129.871" fill="black"/>
<path d="M167.081 84.2892L160.751 72.3851L152.312 70.5537L141.762 112.676C143.403 114.507 148.373 117.987 155.125 117.254C163.565 116.339 160.751 103.519 161.455 104.435C162.158 105.35 160.751 107.182 167.081 92.5305C172.145 88.1351 169.191 85.2049 167.081 84.2892Z" stroke="black" stroke-width="0.4"/>
<path d="M205.021 232.015L184.52 226.165L146.447 232.015C154.413 259.159 192.135 240.79 184.52 252.49L187.449 330.881H203.264C203.85 303.776 205.49 247.81 207.364 240.79C209.239 233.77 206.583 232.015 205.021 232.015Z" fill="#474A51"/>
<path d="M128.398 132.896C113.91 139.479 104.716 157.584 101.93 165.814L110.985 221.657C114.699 224.988 126.169 232.473 142.328 235.765C158.488 239.057 179.709 232.826 188.299 229.299L182.727 192.854H202.927C207.942 192.854 208.731 186.976 208.499 184.036C204.088 179.53 193.315 165.931 185.513 147.591C175.762 124.666 146.508 124.666 128.398 132.896Z" fill="#FF9889"/>
<path d="M134.146 160.06H127.117C127.898 170.59 129.812 197.032 131.217 218.56C132.623 240.088 150.547 248.98 159.333 250.735L192.72 253.075V246.055C191.939 246.055 185.223 245.704 164.605 244.3C143.987 242.896 138.051 223.825 137.661 214.465L134.146 160.06Z" fill="#C4C4C4"/>
<path d="M126.532 160.06H75.5723L77.9152 220.315C77.9152 220.315 80.2578 243.13 111.888 252.49H193.892C193.111 252.49 185.457 252.139 161.091 250.735C136.724 249.331 131.022 218.56 131.218 203.35L128.875 160.06H126.532Z" fill="#424C55"/>
<path d="M110.131 101.574C114.348 69.2814 134.537 61.9883 144.104 62.3783C166.596 62.3783 162.067 78.7585 156.99 86.9486C152.695 94.3586 146.681 112.221 156.99 124.389C167.299 136.557 167.143 149.739 165.776 154.809L104.273 148.959C104.469 146.619 105.914 133.866 110.131 101.574Z" fill="#2A2678"/>
<path d="M224.351 313.331L205.021 272.966V242.545L235.48 307.481L224.351 313.331Z" fill="#4B4B4B"/>
<path d="M347.497 303.901L337.644 281.018L329.76 286.079L337.15 310.544L347.497 303.901Z" stroke="black" stroke-width="0.3"/>
<path d="M138.246 267.115V251.32H158.161V267.115H138.246Z" fill="#494B47"/>
<path d="M142.932 327.956L139.418 267.116H155.819L151.719 327.956H142.932Z" fill="#C4C4C4"/>
<path d="M190.964 338.486L189.793 331.466V330.296H199.751V336.731H206.194V338.486H190.964Z" stroke="black" stroke-width="0.4"/>
<path d="M230.001 319.057L225.687 313.392L225.141 312.357L233.949 307.72L236.954 313.413L242.654 310.412L243.473 311.965L230.001 319.057Z" stroke="black" stroke-width="0.4"/>
<path d="M434.632 154.794H426.973V206.641C419.903 233.418 403.996 240.445 398.693 241.395L333.885 243.674L335.652 248.232C353.916 248.611 394.215 248.573 409.298 245.383C424.381 242.192 432.472 215.567 434.632 202.652V154.794Z" fill="#C4C4C4"/>
<path d="M227.489 319.95L228.631 318.176C231.153 318.097 238.271 314.397 241.514 312.557L242.656 310.782C243.417 309.599 246.723 307.221 253.86 307.172C260.998 307.124 256.139 310.434 252.817 312.096L229.198 322.397L227.489 319.95Z" fill="#C70001"/>
<rect x="182.764" y="193.405" width="139.407" height="10.5301" fill="black"/>
<path d="M429.945 154.795H408.859L386.015 152.455L354.385 234.355C359.071 236.89 381.095 247.46 401.244 241.375C421.394 235.291 427.602 213.88 428.188 203.935L429.945 154.795Z" fill="#666666"/>
<path d="M177.8 333.221C177.8 336.452 164.426 339.071 147.928 339.071C131.429 339.071 118.055 336.452 118.055 333.221C118.055 329.99 131.429 322.106 147.928 322.106C164.426 322.106 177.8 329.99 177.8 333.221Z" fill="#333333"/>
<path d="M364.344 263.606V247.811H384.259V263.606H364.344Z" fill="#494B47"/>
<path d="M369.028 324.446L365.514 263.605H381.914L377.814 324.446H369.028Z" fill="#C4C4C4"/>
<path d="M403.896 329.711C403.896 332.942 390.522 335.561 374.023 335.561C357.525 335.561 344.15 332.942 344.15 329.711C344.15 326.48 357.525 318.596 374.023 318.596C390.522 318.596 403.896 326.48 403.896 329.711Z" fill="#333333"/>
<path d="M311.625 229.09L301.082 308.651H317.483L337.984 250.736C337.789 247.81 344.896 242.194 374.885 243.13C404.875 244.066 405.735 225.97 402.415 216.805H374.885L311.625 221.485V229.09Z" fill="#454545"/>
<path d="M281.167 186.444V188.784L278.824 192.879H307.526H347.356V219.204H358.485L388.944 196.974V167.724L393.044 196.974L361.414 219.204C357.314 222.519 370.2 229.149 370.2 229.149C387.069 229.149 408.078 207.699 416.474 196.974L410.616 149.003C410.616 139.058 395.973 133.208 395.973 133.208C395.973 133.208 377.229 135.548 374.3 133.208C371.957 131.336 367.857 133.988 366.1 135.548L337.984 178.839L281.167 186.444Z" fill="#AEFFE2"/>
<path d="M303.244 225.083L329.017 288.264L342.489 284.754C340.927 277.539 337.921 261.587 338.389 255.503C338.858 249.419 333.898 239.708 331.36 235.613L363.576 218.648L360.062 215.723C350.885 216.113 329.017 216.659 314.959 215.723C300.901 214.787 301.292 221.573 303.244 225.083Z" fill="#4C4C4C"/>
<path d="M381.528 105.948C381.528 104.576 381.429 103.517 381.285 102.714L376.257 113.108C376.843 106.868 376.726 100.573 376.257 98.701C375.672 96.361 368.643 97.531 362.785 97.531C358.098 97.531 357.317 90.511 357.512 87.0009C356.536 82.3209 358.684 73.1948 375.085 74.1308C395.586 75.3008 400.857 89.926 403.2 92.851C405.543 95.776 403.2 103.966 403.2 109.816C403.2 114.496 404.627 117.616 400.526 119.761C398.769 119.761 398.033 120.461 396.163 119.761C393.357 118.711 393.045 118.4 393.045 118.4C393.045 118.4 391.487 116.221 390.864 115.598C388.848 113.585 386.811 116.221 383.694 116.221C381.528 116.839 381.528 114.695 381.528 113.14V113.108V105.948Z" fill="black"/>
<path d="M361.921 100.755V97.0251L380.248 84.5938L384.257 115.672L377.384 124.374L364.784 120.023C363.83 119.194 361.921 117.164 361.921 115.672V110.7L358.484 108.213C359.63 106.763 361.921 103.241 361.921 100.755Z" stroke="black" stroke-width="0.3"/>
<path d="M387.745 134.277L388.369 113.108L384.94 114.664L370.602 133.966L387.745 134.277Z" stroke="black" stroke-width="0.3"/>
<path d="M311.039 333.221L315.139 308.651H305.767L298.738 333.221H311.039Z" stroke="black" stroke-width="0.3"/>
<path d="M325.104 320.156L338.01 304.301L339.083 306.381L345.315 301.858L347.398 300.786L351.691 309.107L345.442 312.322L344.906 311.282L342.302 312.622L339.715 315.269L326.177 322.236L325.104 320.156Z" fill="#534E4D"/>
<path d="M199.463 148.222L220.25 187.615C220.608 188.294 221.324 188.708 222.091 188.68L266.434 187.079C267.866 187.027 268.781 185.532 268.174 184.234L249.518 144.307C249.175 143.574 248.424 143.119 247.615 143.156L201.14 145.29C199.675 145.357 198.779 146.925 199.463 148.222Z" stroke="black"/>
<path d="M210.291 153.04L225.52 182.875H237.821L223.763 152.455L210.291 153.04Z" fill="#C4C4C4"/>
<path d="M220.25 193.405V190.48L226.885 188.14L281.167 186.385L279.358 193.405H220.25Z" fill="#666666"/>
<path d="M71.2634 244.881C65.6874 236.529 71.5536 229.934 81.2004 217.273C92.096 202.971 82.5644 206.177 69.3799 210.126C44.2451 217.654 86.1982 182.14 81.066 169.139C75.9349 156.138 59.4068 177.605 69.3799 146.311C79.353 115.016 72.5755 106.855 63.612 105.043C54.6495 103.229 59.8596 147.218 51.1727 133.328C42.4858 119.437 23.0794 125.903 40.6621 153.474C58.2449 181.045 51.1727 209.298 44.8752 199.763C44.1818 198.712 33.494 160.743 19.8713 174.76C6.24864 188.777 35.1268 213.517 46.8806 244.441C58.6356 275.365 55.0221 273.999 52.032 272.226C49.043 270.452 33.5978 230.11 25.3502 251.564C19.8713 265.814 31.7064 262.866 50.537 309.921C50.537 309.921 51.1219 369.443 63.612 307.253C64.137 304.637 64.6486 302.139 65.1465 299.745C77.9144 266.929 82.3104 259.915 88.941 242.088C94.9596 225.907 81.4397 231.704 71.2634 244.881Z" fill="#D5DDFA"/>
<path d="M41.5835 300.428C41.5835 300.428 31.0175 342.281 56.3963 342.581C56.3963 342.581 80.3985 347.654 75.9179 301.688L41.5835 300.428Z" fill="#A7B6F6"/>
</svg>
