<svg width="304" height="362" viewBox="0 0 304 362" fill="none" xmlns="http://www.w3.org/2000/svg">
<rect width="304" height="362" rx="24" fill="white"/>
<path d="M79.6303 195.608H76.6543L74.3663 204.792L71.9343 195.608H69.1983L72.3023 207H76.1903L78.1263 198.952L80.0623 207H83.9343L87.0383 195.608H84.3023L81.9023 204.792L79.6303 195.608ZM91.8041 198.488C89.1161 198.488 87.2601 200.28 87.2601 202.904C87.2601 205.512 89.1161 207.32 91.8041 207.32C94.5081 207.32 96.3641 205.512 96.3641 202.904C96.3641 200.28 94.5081 198.488 91.8041 198.488ZM91.8041 205.208C90.5561 205.208 89.6761 204.248 89.6761 202.904C89.6761 201.56 90.5561 200.6 91.8041 200.6C93.0681 200.6 93.9481 201.56 93.9481 202.904C93.9481 204.248 93.0681 205.208 91.8041 205.208ZM97.9059 198.808V207H100.306V202.648C100.306 201.416 100.994 200.552 102.034 200.552C102.386 200.552 102.93 200.648 103.378 200.84V198.712C103.058 198.584 102.722 198.504 102.402 198.504C101.506 198.504 100.69 199.032 100.21 199.848V198.808H97.9059ZM104.605 207H107.005V203.48L109.869 207H112.797L109.133 202.648L112.685 198.808H109.773L107.005 201.832V195.128H104.605V207ZM114.059 198.808V207H116.459V198.808H114.059ZM115.259 197.72C116.075 197.72 116.651 197.16 116.651 196.36C116.651 195.576 116.075 195.016 115.259 195.016C114.443 195.016 113.867 195.576 113.867 196.36C113.867 197.16 114.443 197.72 115.259 197.72ZM118.567 198.808V207H120.967V202.392C120.967 201.352 121.735 200.6 122.679 200.6C123.623 200.6 124.199 201.304 124.199 202.296V207H126.599V201.88C126.599 199.912 125.351 198.488 123.511 198.488C122.439 198.488 121.479 199.032 120.903 199.912V198.808H118.567ZM132.536 205.144C131.288 205.144 130.392 204.2 130.392 202.904C130.392 201.576 131.288 200.6 132.536 200.6C133.784 200.6 134.68 201.576 134.68 202.904C134.68 204.2 133.784 205.144 132.536 205.144ZM132.504 209.096C131.528 209.096 130.664 208.424 130.456 207.496L128.312 207.736C128.552 209.624 130.36 211 132.6 211C135.192 211 136.984 209.448 136.984 206.904V198.808H134.584V199.784C133.96 198.984 133.032 198.504 131.88 198.504C129.624 198.504 127.992 200.328 127.992 202.904C127.992 205.384 129.624 207.112 131.88 207.112C133.016 207.112 133.944 206.648 134.584 205.864V206.84C134.584 208.264 133.72 209.096 132.504 209.096ZM148.305 197.64C149.777 197.64 150.801 198.472 150.801 199.672C150.801 200.856 149.777 201.704 148.305 201.704H146.481V197.64H148.305ZM148.785 203.736C151.569 203.736 153.489 202.072 153.489 199.672C153.489 197.288 151.569 195.608 148.817 195.608H143.889V207H146.481V203.736H148.785ZM154.973 198.808V207H157.373V202.648C157.373 201.416 158.061 200.552 159.101 200.552C159.453 200.552 159.997 200.648 160.445 200.84V198.712C160.125 198.584 159.789 198.504 159.469 198.504C158.573 198.504 157.757 199.032 157.277 199.848V198.808H154.973ZM165.833 198.488C163.145 198.488 161.289 200.28 161.289 202.904C161.289 205.512 163.145 207.32 165.833 207.32C168.537 207.32 170.393 205.512 170.393 202.904C170.393 200.28 168.537 198.488 165.833 198.488ZM165.833 205.208C164.585 205.208 163.705 204.248 163.705 202.904C163.705 201.56 164.585 200.6 165.833 200.6C167.097 200.6 167.977 201.56 167.977 202.904C167.977 204.248 167.097 205.208 165.833 205.208ZM174.806 197.928C174.806 197.336 175.222 196.92 175.846 196.92C176.118 196.92 176.39 196.968 176.646 197.032V195.064C176.166 194.904 175.606 194.808 175.046 194.808C173.462 194.808 172.406 195.992 172.406 197.784V198.808H171.254V200.632H172.406V207H174.806V200.632H176.646V198.808H174.806V197.928ZM179.824 202.136C180.032 201.048 180.768 200.328 181.824 200.328C182.912 200.328 183.712 201.096 183.856 202.136H179.824ZM177.36 202.84C177.36 205.48 179.216 207.32 181.856 207.32C183.856 207.32 185.584 206.152 185.984 204.552L183.824 204.248C183.568 204.968 182.816 205.48 181.92 205.48C180.832 205.48 180.048 204.728 179.84 203.576L186.256 203.592C186.288 203.416 186.288 203.08 186.288 202.872C186.288 200.28 184.496 198.488 181.872 198.488C179.232 198.488 177.36 200.28 177.36 202.84ZM195.209 204.408C195.209 202.488 193.113 202.152 191.449 201.928C190.521 201.784 189.801 201.624 189.801 201.08C189.817 200.536 190.409 200.152 191.145 200.152C192.105 200.152 192.825 200.616 192.825 201.288H194.937C194.937 199.64 193.353 198.456 191.161 198.456C189.161 198.456 187.641 199.608 187.641 201.208C187.641 203.208 189.161 203.496 190.985 203.72C191.977 203.816 192.905 204.008 192.905 204.696C192.905 205.24 192.265 205.656 191.385 205.656C190.345 205.656 189.593 205.08 189.593 204.264H187.561C187.545 206.056 189.145 207.352 191.353 207.352C193.641 207.352 195.209 206.12 195.209 204.408ZM204.128 204.408C204.128 202.488 202.032 202.152 200.368 201.928C199.44 201.784 198.72 201.624 198.72 201.08C198.736 200.536 199.328 200.152 200.064 200.152C201.024 200.152 201.744 200.616 201.744 201.288H203.856C203.856 199.64 202.272 198.456 200.08 198.456C198.08 198.456 196.56 199.608 196.56 201.208C196.56 203.208 198.08 203.496 199.904 203.72C200.896 203.816 201.824 204.008 201.824 204.696C201.824 205.24 201.184 205.656 200.304 205.656C199.264 205.656 198.512 205.08 198.512 204.264H196.48C196.464 206.056 198.064 207.352 200.272 207.352C202.56 207.352 204.128 206.12 204.128 204.408ZM205.862 198.808V207H208.262V198.808H205.862ZM207.062 197.72C207.878 197.72 208.454 197.16 208.454 196.36C208.454 195.576 207.878 195.016 207.062 195.016C206.246 195.016 205.67 195.576 205.67 196.36C205.67 197.16 206.246 197.72 207.062 197.72ZM214.529 198.488C211.841 198.488 209.985 200.28 209.985 202.904C209.985 205.512 211.841 207.32 214.529 207.32C217.233 207.32 219.089 205.512 219.089 202.904C219.089 200.28 217.233 198.488 214.529 198.488ZM214.529 205.208C213.281 205.208 212.401 204.248 212.401 202.904C212.401 201.56 213.281 200.6 214.529 200.6C215.793 200.6 216.673 201.56 216.673 202.904C216.673 204.248 215.793 205.208 214.529 205.208ZM220.631 198.808V207H223.031V202.392C223.031 201.352 223.799 200.6 224.743 200.6C225.687 200.6 226.263 201.304 226.263 202.296V207H228.663V201.88C228.663 199.912 227.415 198.488 225.575 198.488C224.503 198.488 223.543 199.032 222.967 199.912V198.808H220.631ZM234.6 205.208C233.352 205.208 232.456 204.232 232.456 202.904C232.456 201.576 233.352 200.6 234.6 200.6C235.848 200.6 236.744 201.576 236.744 202.904C236.744 204.232 235.848 205.208 234.6 205.208ZM236.76 199.944C236.12 199.032 235.144 198.488 233.976 198.488C231.672 198.488 230.056 200.312 230.056 202.904C230.056 205.496 231.672 207.32 233.976 207.32C235.144 207.32 236.12 206.776 236.76 205.864V207H239.16V198.808H236.76V199.944ZM241.061 195.128V207H243.461V195.128H241.061Z" fill="#444444"/>
<path d="M142.844 116.963C145.982 117.445 153.055 118.121 156.241 116.963" stroke="#666666"/>
<path d="M147.189 120.583C148.377 121.13 151.053 121.895 152.259 120.583" stroke="#666666"/>
<path d="M176.958 143.247C182.925 148.069 189.892 156.926 189.892 172H113.841C113.841 156.926 120.808 148.069 126.775 143.247H176.958Z" fill="#FF8080"/>
<path fill-rule="evenodd" clip-rule="evenodd" d="M193.27 83.6525C192.918 86.6487 192.493 89.7418 191.854 92.41C191.284 94.7899 190.106 97.5008 188.83 99.8978C188.284 100.923 187.717 101.897 187.168 102.768C187.182 102.827 187.196 102.886 187.209 102.945C187.392 103.761 187.356 105.4 186.898 107.463C186.436 109.542 185.539 112.092 183.961 114.738C180.801 120.037 174.924 125.706 164.41 128.763C161.542 129.597 160.074 131.273 159.38 133.014C158.678 134.774 158.758 136.627 159.048 137.785L158.29 137.974C157.969 136.69 157.88 134.666 158.654 132.724C159.436 130.763 161.09 128.914 164.191 128.012C174.515 125.011 180.231 119.468 183.29 114.338C184.822 111.768 185.69 109.298 186.135 107.294C186.471 105.778 186.561 104.551 186.522 103.758C186.026 104.491 185.559 105.115 185.154 105.59L185.131 105.616L185.105 105.638C184.981 105.74 184.861 105.847 184.732 105.962L184.702 105.989C184.565 106.111 184.419 106.241 184.265 106.364C183.953 106.613 183.593 106.849 183.142 106.989C182.226 107.273 181.057 107.128 179.326 106.225C178.407 105.745 177.859 105.101 177.629 104.364C177.401 103.637 177.501 102.874 177.769 102.18C178.037 101.486 178.482 100.836 178.987 100.309C179.489 99.785 180.071 99.3614 180.631 99.1419C181.618 98.7546 182.966 98.3289 184.234 98.7239C185.327 99.0645 186.259 99.9756 186.875 101.756C187.296 101.063 187.723 100.314 188.14 99.5306C189.401 97.1626 190.546 94.5174 191.094 92.2279C191.722 89.6079 192.142 86.554 192.494 83.5613C192.603 82.633 192.706 81.7095 192.806 80.8072C193.028 78.8114 193.238 76.9198 193.481 75.311L194.254 75.4279C194.013 77.021 193.806 78.887 193.585 80.8739C193.484 81.7798 193.381 82.7108 193.27 83.6525ZM186.328 102.634C185.767 100.554 184.875 99.7421 184.001 99.4699C183.017 99.1631 181.9 99.4832 180.916 99.8693C180.49 100.036 179.999 100.382 179.551 100.85C179.105 101.315 178.723 101.88 178.498 102.462C178.273 103.044 178.215 103.62 178.375 104.131C178.532 104.634 178.917 105.13 179.687 105.532C181.335 106.392 182.278 106.439 182.911 106.242C183.234 106.142 183.507 105.969 183.777 105.754C183.913 105.645 184.044 105.529 184.182 105.406L184.214 105.377C184.331 105.272 184.454 105.162 184.582 105.057C185.081 104.469 185.686 103.633 186.328 102.634Z" fill="#666666"/>
<path d="M145.274 163.703C132.094 158.237 126.775 143.247 126.775 143.247C131.247 139.633 135.16 138.285 135.16 138.285H168.574C168.574 138.285 172.487 139.633 176.958 143.247C176.958 143.247 171.64 158.237 158.46 163.703H145.274Z" fill="white"/>
<path d="M158.444 165.766C156.416 166.75 154.207 167.473 151.802 167.832C149.397 167.473 147.189 166.75 145.161 165.766C146.109 156.414 147.98 148.656 147.98 148.656L151.802 143.349L155.624 148.656C155.624 148.656 157.495 156.414 158.444 165.766Z" fill="#4B9DE9"/>
<path d="M159.748 138.14C159.748 138.14 159.564 142.437 155.592 148.819H148.016C144.045 142.437 143.86 138.14 143.86 138.14H159.748Z" fill="#4B9DE9"/>
<path fill-rule="evenodd" clip-rule="evenodd" d="M131.162 98.9077C130.333 99.0683 129.598 99.6301 129.178 100.11L128.59 99.5952C129.082 99.0329 129.961 98.3446 131.014 98.1406C131.548 98.0371 132.127 98.0585 132.714 98.287C133.3 98.5152 133.869 98.9407 134.399 99.6099L133.787 100.095C133.327 99.514 132.865 99.1842 132.43 99.0151C131.997 98.8465 131.569 98.8288 131.162 98.9077Z" fill="#666666"/>
<path fill-rule="evenodd" clip-rule="evenodd" d="M169.188 98.9077C168.359 99.0683 167.623 99.6301 167.203 100.11L166.615 99.5952C167.107 99.0329 167.986 98.3446 169.039 98.1406C169.573 98.0371 170.153 98.0585 170.739 98.287C171.325 98.5152 171.895 98.9407 172.425 99.6099L171.812 100.095C171.352 99.514 170.89 99.1842 170.456 99.0151C170.023 98.8465 169.595 98.8288 169.188 98.9077Z" fill="#666666"/>
<path fill-rule="evenodd" clip-rule="evenodd" d="M148.287 82.6621H149.068V105.849C149.331 106.151 150.317 106.735 152.54 105.624L152.89 106.323C150.31 107.613 148.798 106.955 148.34 106.17L148.287 106.079V82.6621Z" fill="#666666"/>
<path fill-rule="evenodd" clip-rule="evenodd" d="M115.093 110.405C110.95 100.505 110.951 90.0721 112.221 83.3708L112.988 83.5164C111.741 90.0985 111.741 100.372 115.814 110.104C119.879 119.818 128.007 129.01 143.059 133.468L142.837 134.217C127.546 129.689 119.243 120.323 115.093 110.405Z" fill="#666666"/>
<path d="M126.188 42.3724C140.381 24.4129 160.345 39.4757 168.552 49.2521C169.276 52.2695 170.652 57.5077 170.363 54.3213C170 50.3383 172.173 51.0625 179.777 49.2521C187.381 47.4417 190.277 62.2873 193.898 72.7878C197.519 83.2884 193.536 78.5812 188.829 84.0126C184.122 89.4439 171.449 77.8571 167.466 73.8741C163.483 69.8911 160.224 63.0114 150.086 76.4087C139.947 89.806 93.5999 81.84 108.445 80.3917C119.553 79.308 116.957 77.5063 113.809 76.5864C117.745 79.4131 115.384 77.8966 113.153 76.4087C113.371 76.4634 113.592 76.5228 113.809 76.5864C112.637 75.7443 110.906 74.5166 108.445 72.7878C95.048 63.3735 108.445 64.8219 126.188 42.3724Z" fill="#F9EACD"/>
<path d="M15.344 243C15.776 243 16.088 242.7 16.088 242.28C16.088 241.86 15.776 241.56 15.344 241.56C14.912 241.56 14.612 241.86 14.612 242.28C14.612 242.7 14.912 243 15.344 243ZM27.515 243.54C27.515 241.716 25.823 241.464 24.275 241.248C22.943 241.068 21.815 240.888 21.815 239.76C21.815 238.812 22.679 238.128 23.999 238.128C25.379 238.128 26.375 238.956 26.375 240.108H27.347C27.335 238.44 25.931 237.24 23.999 237.24C22.091 237.24 20.807 238.344 20.807 239.844C20.807 241.728 22.427 241.98 23.999 242.196C25.307 242.364 26.507 242.532 26.507 243.66C26.507 244.68 25.655 245.412 24.263 245.412C22.739 245.412 21.671 244.512 21.671 243.264H20.675C20.687 245.028 22.175 246.3 24.251 246.3C26.243 246.3 27.515 245.148 27.515 243.54ZM29.5448 244.5C29.5448 245.544 30.1688 246.24 31.1648 246.24C31.4648 246.24 31.8488 246.18 32.1248 246.096V245.34C31.8968 245.412 31.5848 245.46 31.3928 245.46C30.8168 245.448 30.4568 245.052 30.4568 244.464V240.696H32.0288V239.94H30.4568V238.524H29.7128L29.5808 239.94H28.5488V240.696H29.5448V244.5ZM33.5851 239.94V246H34.4971V239.94H33.5851ZM34.0411 238.824C34.4011 238.824 34.6651 238.56 34.6651 238.2C34.6651 237.84 34.4011 237.588 34.0411 237.588C33.6691 237.588 33.4171 237.84 33.4171 238.2C33.4171 238.56 33.6691 238.824 34.0411 238.824ZM36.2829 237.18V246H37.2069V237.18H36.2829ZM38.8437 237.18V246H39.7677V237.18H38.8437ZM46.4158 238.776C46.4158 238.152 46.7758 237.78 47.3038 237.78C47.5558 237.78 47.7838 237.828 47.9878 237.888V237.096C47.7118 237 47.4118 236.94 47.0758 236.94C46.1398 236.94 45.5038 237.624 45.4918 238.68V239.94H44.5078V240.696H45.4918V246H46.4158V240.696H47.9638V239.94H46.4158V238.776ZM49.307 239.94V246H50.219V239.94H49.307ZM49.763 238.824C50.123 238.824 50.387 238.56 50.387 238.2C50.387 237.84 50.123 237.588 49.763 237.588C49.391 237.588 49.139 237.84 49.139 238.2C49.139 238.56 49.391 238.824 49.763 238.824ZM54.9087 245.34C53.5767 245.34 52.5927 244.344 52.5927 242.976C52.5927 241.56 53.5647 240.54 54.9087 240.54C56.2527 240.54 57.2247 241.56 57.2247 242.976C57.2247 244.344 56.2527 245.34 54.9087 245.34ZM54.9687 248.172C53.9127 248.172 52.9887 247.476 52.7847 246.504L51.9087 246.624C52.1247 248.004 53.4327 249 55.0047 249C56.8047 249 58.1127 247.848 58.1127 245.904V239.94H57.2007V240.948C56.6847 240.192 55.8567 239.724 54.8127 239.724C53.0007 239.724 51.6807 241.092 51.6807 242.976C51.6807 244.824 53.0007 246.168 54.8127 246.168C55.8327 246.168 56.6727 245.712 57.2007 244.944V245.904C57.2007 247.332 56.2647 248.172 54.9687 248.172ZM59.7689 237.18V246H60.6809V242.46C60.6809 241.344 61.5809 240.54 62.6249 240.54C63.7049 240.54 64.3409 241.308 64.3409 242.376V246H65.2529V242.376C65.2529 240.828 64.2809 239.7 62.7449 239.7C61.9049 239.7 61.0889 240.12 60.6809 240.804V237.18H59.7689ZM67.3106 244.5C67.3106 245.544 67.9346 246.24 68.9306 246.24C69.2306 246.24 69.6146 246.18 69.8906 246.096V245.34C69.6626 245.412 69.3506 245.46 69.1586 245.46C68.5826 245.448 68.2226 245.052 68.2226 244.464V240.696H69.7946V239.94H68.2226V238.524H67.4786L67.3466 239.94H66.3146V240.696H67.3106V244.5ZM71.3509 239.94V246H72.2629V239.94H71.3509ZM71.8069 238.824C72.1669 238.824 72.4309 238.56 72.4309 238.2C72.4309 237.84 72.1669 237.588 71.8069 237.588C71.4349 237.588 71.1829 237.84 71.1829 238.2C71.1829 238.56 71.4349 238.824 71.8069 238.824ZM74.0607 239.94V246H74.9727V242.46C74.9727 241.344 75.8967 240.54 76.9527 240.54C78.0207 240.54 78.6327 241.308 78.6327 242.376V246H79.5447V242.376C79.5447 240.828 78.5967 239.7 77.0487 239.7C76.2087 239.7 75.3927 240.12 74.9727 240.792V239.94H74.0607ZM83.9783 245.34C82.6463 245.34 81.6623 244.344 81.6623 242.976C81.6623 241.56 82.6343 240.54 83.9783 240.54C85.3223 240.54 86.2943 241.56 86.2943 242.976C86.2943 244.344 85.3223 245.34 83.9783 245.34ZM84.0383 248.172C82.9823 248.172 82.0583 247.476 81.8543 246.504L80.9783 246.624C81.1943 248.004 82.5023 249 84.0743 249C85.8743 249 87.1823 247.848 87.1823 245.904V239.94H86.2703V240.948C85.7543 240.192 84.9263 239.724 83.8823 239.724C82.0703 239.724 80.7503 241.092 80.7503 242.976C80.7503 244.824 82.0703 246.168 83.8823 246.168C84.9023 246.168 85.7423 245.712 86.2703 244.944V245.904C86.2703 247.332 85.3343 248.172 84.0383 248.172ZM93.8379 238.776C93.8379 238.152 94.1979 237.78 94.7259 237.78C94.9779 237.78 95.2059 237.828 95.4099 237.888V237.096C95.1339 237 94.8339 236.94 94.4979 236.94C93.5619 236.94 92.9259 237.624 92.9139 238.68V239.94H91.9299V240.696H92.9139V246H93.8379V240.696H95.3859V239.94H93.8379V238.776ZM99.465 239.7C97.569 239.7 96.237 241.056 96.237 242.976C96.237 244.884 97.569 246.24 99.465 246.24C101.361 246.24 102.705 244.884 102.705 242.976C102.705 241.056 101.361 239.7 99.465 239.7ZM99.465 245.412C98.121 245.412 97.149 244.38 97.149 242.976C97.149 241.56 98.121 240.54 99.465 240.54C100.809 240.54 101.781 241.56 101.781 242.976C101.781 244.38 100.809 245.412 99.465 245.412ZM104.009 239.94V246H104.921V242.604C104.921 241.392 105.545 240.54 106.493 240.54C106.733 240.54 107.081 240.588 107.393 240.732V239.892C107.117 239.784 106.829 239.724 106.577 239.724C105.833 239.724 105.257 240.12 104.897 240.78V239.94H104.009ZM112.459 244.5C112.459 245.544 113.083 246.24 114.079 246.24C114.379 246.24 114.763 246.18 115.039 246.096V245.34C114.811 245.412 114.499 245.46 114.307 245.46C113.731 245.448 113.371 245.052 113.371 244.464V240.696H114.943V239.94H113.371V238.524H112.627L112.495 239.94H111.463V240.696H112.459V244.5ZM116.356 237.18V246H117.268V242.46C117.268 241.344 118.168 240.54 119.212 240.54C120.292 240.54 120.928 241.308 120.928 242.376V246H121.84V242.376C121.84 240.828 120.868 239.7 119.332 239.7C118.492 239.7 117.676 240.12 117.268 240.804V237.18H116.356ZM124.005 242.472C124.173 241.332 125.049 240.54 126.225 240.54C127.425 240.54 128.313 241.332 128.481 242.484L124.005 242.472ZM123.045 242.904C123.045 244.836 124.401 246.24 126.273 246.24C127.617 246.24 128.865 245.376 129.237 244.188L128.337 244.044C128.061 244.836 127.173 245.412 126.237 245.412C125.037 245.412 124.125 244.536 123.981 243.264L129.429 243.276C129.441 243.144 129.441 243.024 129.441 242.916C129.441 241.056 128.109 239.7 126.261 239.7C124.389 239.7 123.045 241.056 123.045 242.904ZM137.414 245.352C136.07 245.352 135.098 244.344 135.098 242.976C135.098 241.596 136.07 240.588 137.414 240.588C138.746 240.588 139.73 241.572 139.73 242.976C139.73 244.344 138.758 245.352 137.414 245.352ZM140.642 242.976C140.642 241.08 139.322 239.7 137.522 239.7C136.478 239.7 135.614 240.192 135.098 240.984V239.94H134.21V248.76H135.122V244.98C135.638 245.772 136.49 246.24 137.522 246.24C139.334 246.24 140.642 244.86 140.642 242.976ZM141.962 239.94V246H142.874V242.604C142.874 241.392 143.498 240.54 144.446 240.54C144.686 240.54 145.034 240.588 145.346 240.732V239.892C145.07 239.784 144.782 239.724 144.53 239.724C143.786 239.724 143.21 240.12 142.85 240.78V239.94H141.962ZM148.961 239.7C147.065 239.7 145.733 241.056 145.733 242.976C145.733 244.884 147.065 246.24 148.961 246.24C150.857 246.24 152.201 244.884 152.201 242.976C152.201 241.056 150.857 239.7 148.961 239.7ZM148.961 245.412C147.617 245.412 146.645 244.38 146.645 242.976C146.645 241.56 147.617 240.54 148.961 240.54C150.305 240.54 151.277 241.56 151.277 242.976C151.277 244.38 150.305 245.412 148.961 245.412ZM154.417 246V242.364C154.417 241.272 155.101 240.54 156.109 240.54C157.081 240.54 157.717 241.272 157.717 242.364V246H158.629V242.364C158.629 241.296 159.325 240.54 160.333 240.54C161.269 240.54 161.941 241.296 161.941 242.364V246H162.865V242.376C162.865 240.816 161.857 239.712 160.441 239.712C159.481 239.712 158.725 240.204 158.341 240.972C158.005 240.204 157.189 239.7 156.193 239.7C155.413 239.7 154.777 240.072 154.393 240.696V239.94H153.505V246H154.417ZM167.278 239.7C165.382 239.7 164.05 241.056 164.05 242.976C164.05 244.884 165.382 246.24 167.278 246.24C169.174 246.24 170.518 244.884 170.518 242.976C170.518 241.056 169.174 239.7 167.278 239.7ZM167.278 245.412C165.934 245.412 164.962 244.38 164.962 242.976C164.962 241.56 165.934 240.54 167.278 240.54C168.622 240.54 169.594 241.56 169.594 242.976C169.594 244.38 168.622 245.412 167.278 245.412ZM172.338 244.5C172.338 245.544 172.962 246.24 173.958 246.24C174.258 246.24 174.642 246.18 174.918 246.096V245.34C174.69 245.412 174.378 245.46 174.186 245.46C173.61 245.448 173.25 245.052 173.25 244.464V240.696H174.822V239.94H173.25V238.524H172.506L172.374 239.94H171.342V240.696H172.338V244.5ZM176.379 239.94V246H177.291V239.94H176.379ZM176.835 238.824C177.195 238.824 177.459 238.56 177.459 238.2C177.459 237.84 177.195 237.588 176.835 237.588C176.463 237.588 176.211 237.84 176.211 238.2C176.211 238.56 176.463 238.824 176.835 238.824ZM181.968 239.7C180.072 239.7 178.74 241.056 178.74 242.976C178.74 244.884 180.072 246.24 181.968 246.24C183.864 246.24 185.208 244.884 185.208 242.976C185.208 241.056 183.864 239.7 181.968 239.7ZM181.968 245.412C180.624 245.412 179.652 244.38 179.652 242.976C179.652 241.56 180.624 240.54 181.968 240.54C183.312 240.54 184.284 241.56 184.284 242.976C184.284 244.38 183.312 245.412 181.968 245.412ZM186.512 239.94V246H187.424V242.46C187.424 241.344 188.348 240.54 189.404 240.54C190.472 240.54 191.084 241.308 191.084 242.376V246H191.996V242.376C191.996 240.828 191.048 239.7 189.5 239.7C188.66 239.7 187.844 240.12 187.424 240.792V239.94H186.512ZM196.809 248.496C197.085 248.604 197.445 248.676 197.745 248.676C199.017 248.676 199.509 247.464 200.061 246.084L202.473 239.94H201.501L199.605 244.86L197.445 239.94H196.437L199.161 245.988C198.765 246.9 198.501 247.86 197.613 247.86C197.385 247.86 197.085 247.788 196.809 247.692V248.496ZM206.157 239.7C204.261 239.7 202.929 241.056 202.929 242.976C202.929 244.884 204.261 246.24 206.157 246.24C208.053 246.24 209.397 244.884 209.397 242.976C209.397 241.056 208.053 239.7 206.157 239.7ZM206.157 245.412C204.813 245.412 203.841 244.38 203.841 242.976C203.841 241.56 204.813 240.54 206.157 240.54C207.501 240.54 208.473 241.56 208.473 242.976C208.473 244.38 207.501 245.412 206.157 245.412ZM216.065 246V239.94H215.153V243.492C215.153 244.596 214.241 245.412 213.185 245.412C212.105 245.412 211.493 244.632 211.493 243.564V239.94H210.581V243.564C210.581 245.112 211.529 246.24 213.077 246.24C213.917 246.24 214.745 245.82 215.153 245.148V246H216.065ZM224.07 240.588C225.414 240.588 226.386 241.596 226.386 242.976C226.386 244.344 225.414 245.352 224.07 245.352C222.738 245.352 221.754 244.368 221.754 242.976C221.754 241.596 222.726 240.588 224.07 240.588ZM220.842 242.976C220.842 244.86 222.162 246.24 223.974 246.24C225.006 246.24 225.87 245.748 226.386 244.956V246H227.274V237.18H226.362V240.96C225.846 240.18 224.994 239.7 223.974 239.7C222.162 239.7 220.842 241.08 220.842 242.976ZM229.554 242.472C229.722 241.332 230.598 240.54 231.774 240.54C232.974 240.54 233.862 241.332 234.03 242.484L229.554 242.472ZM228.594 242.904C228.594 244.836 229.95 246.24 231.822 246.24C233.166 246.24 234.414 245.376 234.786 244.188L233.886 244.044C233.61 244.836 232.722 245.412 231.786 245.412C230.586 245.412 229.674 244.536 229.53 243.264L234.978 243.276C234.99 243.144 234.99 243.024 234.99 242.916C234.99 241.056 233.658 239.7 231.81 239.7C229.938 239.7 228.594 241.056 228.594 242.904ZM241.239 244.26C241.227 242.916 239.799 242.664 238.683 242.472C237.579 242.292 237.075 242.112 237.075 241.572C237.075 240.972 237.711 240.54 238.491 240.54C239.475 240.54 240.195 241.044 240.207 241.74L241.107 241.752C241.095 240.564 240.003 239.7 238.503 239.7C237.195 239.7 236.187 240.48 236.187 241.548C236.175 242.916 237.243 243.108 238.623 243.324C239.283 243.42 240.339 243.588 240.351 244.344C240.351 244.956 239.667 245.412 238.731 245.412C237.699 245.412 236.955 244.812 236.955 243.972H236.055C236.055 245.28 237.183 246.24 238.743 246.24C240.183 246.24 241.239 245.4 241.239 244.26ZM243.219 242.472C243.387 241.332 244.263 240.54 245.439 240.54C246.639 240.54 247.527 241.332 247.695 242.484L243.219 242.472ZM242.259 242.904C242.259 244.836 243.615 246.24 245.487 246.24C246.831 246.24 248.079 245.376 248.451 244.188L247.551 244.044C247.275 244.836 246.387 245.412 245.451 245.412C244.251 245.412 243.339 244.536 243.195 243.264L248.643 243.276C248.655 243.144 248.655 243.024 248.655 242.916C248.655 241.056 247.323 239.7 245.475 239.7C243.603 239.7 242.259 241.056 242.259 242.904ZM249.972 239.94V246H250.884V242.604C250.884 241.392 251.508 240.54 252.456 240.54C252.696 240.54 253.044 240.588 253.356 240.732V239.892C253.08 239.784 252.792 239.724 252.54 239.724C251.796 239.724 251.22 240.12 250.86 240.78V239.94H249.972ZM257.538 246L259.878 239.94H258.894L256.89 245.268L254.886 239.94H253.902L256.254 246H257.538ZM261.307 242.472C261.475 241.332 262.351 240.54 263.527 240.54C264.727 240.54 265.615 241.332 265.783 242.484L261.307 242.472ZM260.347 242.904C260.347 244.836 261.703 246.24 263.575 246.24C264.919 246.24 266.167 245.376 266.539 244.188L265.639 244.044C265.363 244.836 264.475 245.412 263.539 245.412C262.339 245.412 261.427 244.536 261.283 243.264L266.731 243.276C266.743 243.144 266.743 243.024 266.743 242.916C266.743 241.056 265.411 239.7 263.563 239.7C261.691 239.7 260.347 241.056 260.347 242.904ZM270.652 246.156C271.012 246.156 271.276 245.904 271.276 245.532C271.276 245.172 271.012 244.92 270.652 244.92C270.28 244.92 270.028 245.184 270.028 245.532C270.028 245.904 270.28 246.156 270.652 246.156ZM271.12 243.852C271.12 242.868 271.396 242.46 272.092 241.992C272.932 241.44 273.604 240.96 273.604 239.808C273.604 238.332 272.38 237.24 270.808 237.24C269.2 237.24 268.036 238.38 267.844 239.964L268.78 240.144C268.912 238.98 269.68 238.128 270.796 238.128C271.816 238.128 272.596 238.86 272.596 239.82C272.596 240.588 272.044 240.984 271.444 241.392C270.652 241.944 270.196 242.508 270.196 243.852H271.12ZM15.344 267C15.776 267 16.088 266.7 16.088 266.28C16.088 265.86 15.776 265.56 15.344 265.56C14.912 265.56 14.612 265.86 14.612 266.28C14.612 266.7 14.912 267 15.344 267ZM27.107 261.54H25.643L23.675 269.328L21.491 261.54H20.447L22.859 270H24.479L26.351 262.584L28.235 270H29.843L32.243 261.54H31.211L29.027 269.328L27.107 261.54ZM35.7994 263.7C33.9034 263.7 32.5714 265.056 32.5714 266.976C32.5714 268.884 33.9034 270.24 35.7994 270.24C37.6954 270.24 39.0394 268.884 39.0394 266.976C39.0394 265.056 37.6954 263.7 35.7994 263.7ZM35.7994 269.412C34.4554 269.412 33.4834 268.38 33.4834 266.976C33.4834 265.56 34.4554 264.54 35.7994 264.54C37.1434 264.54 38.1154 265.56 38.1154 266.976C38.1154 268.38 37.1434 269.412 35.7994 269.412ZM40.3435 263.94V270H41.2555V266.46C41.2555 265.344 42.1795 264.54 43.2355 264.54C44.3035 264.54 44.9155 265.308 44.9155 266.376V270H45.8275V266.376C45.8275 264.828 44.8795 263.7 43.3315 263.7C42.4915 263.7 41.6755 264.12 41.2555 264.792V263.94H40.3435ZM50.2611 264.588C51.6051 264.588 52.5771 265.596 52.5771 266.976C52.5771 268.344 51.6051 269.352 50.2611 269.352C48.9291 269.352 47.9451 268.368 47.9451 266.976C47.9451 265.596 48.9171 264.588 50.2611 264.588ZM47.0331 266.976C47.0331 268.86 48.3531 270.24 50.1651 270.24C51.1971 270.24 52.0611 269.748 52.5771 268.956V270H53.4651V261.18H52.5531V264.96C52.0371 264.18 51.1851 263.7 50.1651 263.7C48.3531 263.7 47.0331 265.08 47.0331 266.976ZM55.7453 266.472C55.9133 265.332 56.7893 264.54 57.9653 264.54C59.1653 264.54 60.0533 265.332 60.2213 266.484L55.7453 266.472ZM54.7853 266.904C54.7853 268.836 56.1413 270.24 58.0133 270.24C59.3573 270.24 60.6053 269.376 60.9773 268.188L60.0773 268.044C59.8013 268.836 58.9133 269.412 57.9773 269.412C56.7773 269.412 55.8653 268.536 55.7213 267.264L61.1693 267.276C61.1813 267.144 61.1813 267.024 61.1813 266.916C61.1813 265.056 59.8493 263.7 58.0013 263.7C56.1293 263.7 54.7853 265.056 54.7853 266.904ZM62.4985 263.94V270H63.4105V266.604C63.4105 265.392 64.0345 264.54 64.9825 264.54C65.2225 264.54 65.5705 264.588 65.8825 264.732V263.892C65.6065 263.784 65.3185 263.724 65.0665 263.724C64.3225 263.724 63.7465 264.12 63.3865 264.78V263.94H62.4985ZM67.1251 263.94V270H68.0371V263.94H67.1251ZM67.5811 262.824C67.9411 262.824 68.2051 262.56 68.2051 262.2C68.2051 261.84 67.9411 261.588 67.5811 261.588C67.2091 261.588 66.9571 261.84 66.9571 262.2C66.9571 262.56 67.2091 262.824 67.5811 262.824ZM69.8349 263.94V270H70.7469V266.46C70.7469 265.344 71.6709 264.54 72.7269 264.54C73.7949 264.54 74.4069 265.308 74.4069 266.376V270H75.3189V266.376C75.3189 264.828 74.3709 263.7 72.8229 263.7C71.9829 263.7 71.1669 264.12 70.7469 264.792V263.94H69.8349ZM79.7525 269.34C78.4205 269.34 77.4365 268.344 77.4365 266.976C77.4365 265.56 78.4085 264.54 79.7525 264.54C81.0965 264.54 82.0685 265.56 82.0685 266.976C82.0685 268.344 81.0965 269.34 79.7525 269.34ZM79.8125 272.172C78.7565 272.172 77.8325 271.476 77.6285 270.504L76.7525 270.624C76.9685 272.004 78.2765 273 79.8485 273C81.6485 273 82.9565 271.848 82.9565 269.904V263.94H82.0445V264.948C81.5285 264.192 80.7005 263.724 79.6565 263.724C77.8445 263.724 76.5245 265.092 76.5245 266.976C76.5245 268.824 77.8445 270.168 79.6565 270.168C80.6765 270.168 81.5165 269.712 82.0445 268.944V269.904C82.0445 271.332 81.1085 272.172 79.8125 272.172ZM88.2081 263.94V270H89.1201V263.94H88.2081ZM88.6641 262.824C89.0241 262.824 89.2881 262.56 89.2881 262.2C89.2881 261.84 89.0241 261.588 88.6641 261.588C88.2921 261.588 88.0401 261.84 88.0401 262.2C88.0401 262.56 88.2921 262.824 88.6641 262.824ZM92.4658 262.776C92.4658 262.152 92.8258 261.78 93.3538 261.78C93.6058 261.78 93.8338 261.828 94.0378 261.888V261.096C93.7618 261 93.4618 260.94 93.1258 260.94C92.1898 260.94 91.5538 261.624 91.5418 262.68V263.94H90.5578V264.696H91.5418V270H92.4658V264.696H94.0138V263.94H92.4658V262.776ZM98.8084 263.94V270H99.7204V263.94H98.8084ZM99.2644 262.824C99.6244 262.824 99.8884 262.56 99.8884 262.2C99.8884 261.84 99.6244 261.588 99.2644 261.588C98.8924 261.588 98.6404 261.84 98.6404 262.2C98.6404 262.56 98.8924 262.824 99.2644 262.824ZM102.034 268.5C102.034 269.544 102.658 270.24 103.654 270.24C103.954 270.24 104.338 270.18 104.614 270.096V269.34C104.386 269.412 104.074 269.46 103.882 269.46C103.306 269.448 102.946 269.052 102.946 268.464V264.696H104.518V263.94H102.946V262.524H102.202L102.07 263.94H101.038V264.696H102.034V268.5ZM106.206 262.548C106.206 262.956 105.954 263.436 105.594 263.676L106.038 264C106.542 263.676 106.902 262.908 106.902 262.164C106.902 261.66 106.638 261.324 106.218 261.324C105.87 261.324 105.606 261.576 105.606 261.924C105.606 262.296 105.858 262.548 106.206 262.548ZM112.79 268.26C112.778 266.916 111.35 266.664 110.234 266.472C109.13 266.292 108.626 266.112 108.626 265.572C108.626 264.972 109.262 264.54 110.042 264.54C111.026 264.54 111.746 265.044 111.758 265.74L112.658 265.752C112.646 264.564 111.554 263.7 110.054 263.7C108.746 263.7 107.738 264.48 107.738 265.548C107.726 266.916 108.794 267.108 110.174 267.324C110.834 267.42 111.89 267.588 111.902 268.344C111.902 268.956 111.218 269.412 110.282 269.412C109.25 269.412 108.506 268.812 108.506 267.972H107.606C107.606 269.28 108.734 270.24 110.294 270.24C111.734 270.24 112.79 269.4 112.79 268.26ZM118.113 268.5C118.113 269.544 118.737 270.24 119.733 270.24C120.033 270.24 120.417 270.18 120.693 270.096V269.34C120.465 269.412 120.153 269.46 119.961 269.46C119.385 269.448 119.025 269.052 119.025 268.464V264.696H120.597V263.94H119.025V262.524H118.281L118.149 263.94H117.117V264.696H118.113V268.5ZM122.154 263.94V270H123.066V263.94H122.154ZM122.61 262.824C122.97 262.824 123.234 262.56 123.234 262.2C123.234 261.84 122.97 261.588 122.61 261.588C122.238 261.588 121.986 261.84 121.986 262.2C121.986 262.56 122.238 262.824 122.61 262.824ZM125.775 270V266.364C125.775 265.272 126.459 264.54 127.467 264.54C128.439 264.54 129.075 265.272 129.075 266.364V270H129.987V266.364C129.987 265.296 130.683 264.54 131.691 264.54C132.627 264.54 133.299 265.296 133.299 266.364V270H134.223V266.376C134.223 264.816 133.215 263.712 131.799 263.712C130.839 263.712 130.083 264.204 129.699 264.972C129.363 264.204 128.547 263.7 127.551 263.7C126.771 263.7 126.135 264.072 125.751 264.696V263.94H124.863V270H125.775ZM136.38 266.472C136.548 265.332 137.424 264.54 138.6 264.54C139.8 264.54 140.688 265.332 140.856 266.484L136.38 266.472ZM135.42 266.904C135.42 268.836 136.776 270.24 138.648 270.24C139.992 270.24 141.24 269.376 141.612 268.188L140.712 268.044C140.436 268.836 139.548 269.412 138.612 269.412C137.412 269.412 136.5 268.536 136.356 267.264L141.804 267.276C141.816 267.144 141.816 267.024 141.816 266.916C141.816 265.056 140.484 263.7 138.636 263.7C136.764 263.7 135.42 265.056 135.42 266.904ZM147.101 268.5C147.101 269.544 147.725 270.24 148.721 270.24C149.021 270.24 149.405 270.18 149.681 270.096V269.34C149.453 269.412 149.141 269.46 148.949 269.46C148.373 269.448 148.013 269.052 148.013 268.464V264.696H149.585V263.94H148.013V262.524H147.269L147.137 263.94H146.105V264.696H147.101V268.5ZM153.877 263.7C151.981 263.7 150.649 265.056 150.649 266.976C150.649 268.884 151.981 270.24 153.877 270.24C155.773 270.24 157.117 268.884 157.117 266.976C157.117 265.056 155.773 263.7 153.877 263.7ZM153.877 269.412C152.533 269.412 151.561 268.38 151.561 266.976C151.561 265.56 152.533 264.54 153.877 264.54C155.221 264.54 156.193 265.56 156.193 266.976C156.193 268.38 155.221 269.412 153.877 269.412ZM164.765 269.34C163.433 269.34 162.449 268.344 162.449 266.976C162.449 265.56 163.421 264.54 164.765 264.54C166.109 264.54 167.081 265.56 167.081 266.976C167.081 268.344 166.109 269.34 164.765 269.34ZM164.825 272.172C163.769 272.172 162.845 271.476 162.641 270.504L161.765 270.624C161.981 272.004 163.289 273 164.861 273C166.661 273 167.969 271.848 167.969 269.904V263.94H167.057V264.948C166.541 264.192 165.713 263.724 164.669 263.724C162.857 263.724 161.537 265.092 161.537 266.976C161.537 268.824 162.857 270.168 164.669 270.168C165.689 270.168 166.529 269.712 167.057 268.944V269.904C167.057 271.332 166.121 272.172 164.825 272.172ZM172.505 263.7C170.609 263.7 169.277 265.056 169.277 266.976C169.277 268.884 170.609 270.24 172.505 270.24C174.401 270.24 175.745 268.884 175.745 266.976C175.745 265.056 174.401 263.7 172.505 263.7ZM172.505 269.412C171.161 269.412 170.189 268.38 170.189 266.976C170.189 265.56 171.161 264.54 172.505 264.54C173.849 264.54 174.821 265.56 174.821 266.976C174.821 268.38 173.849 269.412 172.505 269.412ZM185.432 268.26C185.42 266.916 183.992 266.664 182.876 266.472C181.772 266.292 181.268 266.112 181.268 265.572C181.268 264.972 181.904 264.54 182.684 264.54C183.668 264.54 184.388 265.044 184.4 265.74L185.3 265.752C185.288 264.564 184.196 263.7 182.696 263.7C181.388 263.7 180.38 264.48 180.38 265.548C180.368 266.916 181.436 267.108 182.816 267.324C183.476 267.42 184.532 267.588 184.544 268.344C184.544 268.956 183.86 269.412 182.924 269.412C181.892 269.412 181.148 268.812 181.148 267.972H180.248C180.248 269.28 181.376 270.24 182.936 270.24C184.376 270.24 185.432 269.4 185.432 268.26ZM186.94 268.5C186.94 269.544 187.564 270.24 188.56 270.24C188.86 270.24 189.244 270.18 189.52 270.096V269.34C189.292 269.412 188.98 269.46 188.788 269.46C188.212 269.448 187.852 269.052 187.852 268.464V264.696H189.424V263.94H187.852V262.524H187.108L186.976 263.94H185.944V264.696H186.94V268.5ZM196.201 270V263.94H195.289V267.492C195.289 268.596 194.377 269.412 193.321 269.412C192.241 269.412 191.629 268.632 191.629 267.564V263.94H190.717V267.564C190.717 269.112 191.665 270.24 193.213 270.24C194.053 270.24 194.881 269.82 195.289 269.148V270H196.201ZM200.754 264.588C202.098 264.588 203.07 265.596 203.07 266.976C203.07 268.344 202.098 269.352 200.754 269.352C199.422 269.352 198.438 268.368 198.438 266.976C198.438 265.596 199.41 264.588 200.754 264.588ZM197.526 266.976C197.526 268.86 198.846 270.24 200.658 270.24C201.69 270.24 202.554 269.748 203.07 268.956V270H203.958V261.18H203.046V264.96C202.53 264.18 201.678 263.7 200.658 263.7C198.846 263.7 197.526 265.08 197.526 266.976ZM205.434 272.496C205.71 272.604 206.07 272.676 206.37 272.676C207.642 272.676 208.134 271.464 208.686 270.084L211.098 263.94H210.126L208.23 268.86L206.07 263.94H205.062L207.786 269.988C207.39 270.9 207.126 271.86 206.238 271.86C206.01 271.86 205.71 271.788 205.434 271.692V272.496ZM216.57 270V266.364C216.57 265.272 217.254 264.54 218.262 264.54C219.234 264.54 219.87 265.272 219.87 266.364V270H220.782V266.364C220.782 265.296 221.478 264.54 222.486 264.54C223.422 264.54 224.094 265.296 224.094 266.364V270H225.018V266.376C225.018 264.816 224.01 263.712 222.594 263.712C221.634 263.712 220.878 264.204 220.494 264.972C220.158 264.204 219.342 263.7 218.346 263.7C217.566 263.7 216.93 264.072 216.546 264.696V263.94H215.658V270H216.57ZM229.431 263.7C227.535 263.7 226.203 265.056 226.203 266.976C226.203 268.884 227.535 270.24 229.431 270.24C231.327 270.24 232.671 268.884 232.671 266.976C232.671 265.056 231.327 263.7 229.431 263.7ZM229.431 269.412C228.087 269.412 227.115 268.38 227.115 266.976C227.115 265.56 228.087 264.54 229.431 264.54C230.775 264.54 231.747 265.56 231.747 266.976C231.747 268.38 230.775 269.412 229.431 269.412ZM233.975 263.94V270H234.887V266.604C234.887 265.392 235.511 264.54 236.459 264.54C236.699 264.54 237.047 264.588 237.359 264.732V263.892C237.083 263.784 236.795 263.724 236.543 263.724C235.799 263.724 235.223 264.12 234.863 264.78V263.94H233.975ZM238.718 266.472C238.886 265.332 239.762 264.54 240.938 264.54C242.138 264.54 243.026 265.332 243.194 266.484L238.718 266.472ZM237.758 266.904C237.758 268.836 239.114 270.24 240.986 270.24C242.33 270.24 243.578 269.376 243.95 268.188L243.05 268.044C242.774 268.836 241.886 269.412 240.95 269.412C239.75 269.412 238.838 268.536 238.694 267.264L244.142 267.276C244.154 267.144 244.154 267.024 244.154 266.916C244.154 265.056 242.822 263.7 240.974 263.7C239.102 263.7 237.758 265.056 237.758 266.904ZM248.063 270.156C248.423 270.156 248.687 269.904 248.687 269.532C248.687 269.172 248.423 268.92 248.063 268.92C247.691 268.92 247.439 269.184 247.439 269.532C247.439 269.904 247.691 270.156 248.063 270.156ZM248.531 267.852C248.531 266.868 248.807 266.46 249.503 265.992C250.343 265.44 251.015 264.96 251.015 263.808C251.015 262.332 249.791 261.24 248.219 261.24C246.611 261.24 245.447 262.38 245.255 263.964L246.191 264.144C246.323 262.98 247.091 262.128 248.207 262.128C249.227 262.128 250.007 262.86 250.007 263.82C250.007 264.588 249.455 264.984 248.855 265.392C248.063 265.944 247.607 266.508 247.607 267.852H248.531ZM15.344 291C15.776 291 16.088 290.7 16.088 290.28C16.088 289.86 15.776 289.56 15.344 289.56C14.912 289.56 14.612 289.86 14.612 290.28C14.612 290.7 14.912 291 15.344 291ZM25.019 293.412C23.051 293.412 21.635 291.888 21.623 289.776C21.623 287.652 23.039 286.128 25.019 286.128C26.459 286.128 27.719 287.124 28.031 288.444L29.015 288.324C28.607 286.548 26.927 285.24 25.019 285.24C22.475 285.24 20.627 287.148 20.627 289.776C20.627 292.404 22.475 294.3 25.019 294.3C26.927 294.3 28.595 293.052 29.015 291.36L28.043 291.18C27.707 292.464 26.447 293.412 25.019 293.412ZM33.3385 287.7C31.4425 287.7 30.1105 289.056 30.1105 290.976C30.1105 292.884 31.4425 294.24 33.3385 294.24C35.2345 294.24 36.5785 292.884 36.5785 290.976C36.5785 289.056 35.2345 287.7 33.3385 287.7ZM33.3385 293.412C31.9945 293.412 31.0225 292.38 31.0225 290.976C31.0225 289.56 31.9945 288.54 33.3385 288.54C34.6825 288.54 35.6545 289.56 35.6545 290.976C35.6545 292.38 34.6825 293.412 33.3385 293.412ZM37.8825 287.94V294H38.7945V290.46C38.7945 289.344 39.7185 288.54 40.7745 288.54C41.8425 288.54 42.4545 289.308 42.4545 290.376V294H43.3665V290.376C43.3665 288.828 42.4185 287.7 40.8705 287.7C40.0305 287.7 39.2145 288.12 38.7945 288.792V287.94H37.8825ZM46.4562 286.776C46.4562 286.152 46.8162 285.78 47.3442 285.78C47.5962 285.78 47.8242 285.828 48.0282 285.888V285.096C47.7522 285 47.4522 284.94 47.1162 284.94C46.1802 284.94 45.5442 285.624 45.5322 286.68V287.94H44.5482V288.696H45.5322V294H46.4562V288.696H48.0042V287.94H46.4562V286.776ZM54.5673 294V287.94H53.6553V291.492C53.6553 292.596 52.7433 293.412 51.6873 293.412C50.6073 293.412 49.9953 292.632 49.9953 291.564V287.94H49.0833V291.564C49.0833 293.112 50.0313 294.24 51.5793 294.24C52.4193 294.24 53.2473 293.82 53.6553 293.148V294H54.5673ZM61.1609 292.26C61.1489 290.916 59.7209 290.664 58.6049 290.472C57.5009 290.292 56.9969 290.112 56.9969 289.572C56.9969 288.972 57.6329 288.54 58.4129 288.54C59.3969 288.54 60.1169 289.044 60.1289 289.74L61.0289 289.752C61.0169 288.564 59.9249 287.7 58.4249 287.7C57.1169 287.7 56.1089 288.48 56.1089 289.548C56.0969 290.916 57.1649 291.108 58.5449 291.324C59.2049 291.42 60.2609 291.588 60.2729 292.344C60.2729 292.956 59.5889 293.412 58.6529 293.412C57.6209 293.412 56.8769 292.812 56.8769 291.972H55.9769C55.9769 293.28 57.1049 294.24 58.6649 294.24C60.1049 294.24 61.1609 293.4 61.1609 292.26ZM63.1403 290.472C63.3083 289.332 64.1843 288.54 65.3603 288.54C66.5603 288.54 67.4483 289.332 67.6163 290.484L63.1403 290.472ZM62.1803 290.904C62.1803 292.836 63.5363 294.24 65.4083 294.24C66.7523 294.24 68.0003 293.376 68.3723 292.188L67.4723 292.044C67.1963 292.836 66.3083 293.412 65.3723 293.412C64.1723 293.412 63.2603 292.536 63.1163 291.264L68.5643 291.276C68.5763 291.144 68.5763 291.024 68.5763 290.916C68.5763 289.056 67.2443 287.7 65.3963 287.7C63.5243 287.7 62.1803 289.056 62.1803 290.904ZM72.7855 288.588C74.1295 288.588 75.1015 289.596 75.1015 290.976C75.1015 292.344 74.1295 293.352 72.7855 293.352C71.4535 293.352 70.4695 292.368 70.4695 290.976C70.4695 289.596 71.4415 288.588 72.7855 288.588ZM69.5575 290.976C69.5575 292.86 70.8775 294.24 72.6895 294.24C73.7215 294.24 74.5855 293.748 75.1015 292.956V294H75.9895V285.18H75.0775V288.96C74.5615 288.18 73.7095 287.7 72.6895 287.7C70.8775 287.7 69.5575 289.08 69.5575 290.976ZM83.9891 293.412C82.6451 293.412 81.6731 292.38 81.6731 290.976C81.6731 289.56 82.6451 288.54 83.9891 288.54C85.3211 288.54 86.3051 289.56 86.3051 290.976C86.3051 292.38 85.3211 293.412 83.9891 293.412ZM86.3171 289.02C85.8011 288.204 84.9251 287.7 83.8811 287.7C82.0691 287.7 80.7611 289.08 80.7611 290.976C80.7611 292.86 82.0691 294.24 83.8811 294.24C84.9251 294.24 85.8011 293.736 86.3171 292.932V294H87.2291V287.94H86.3171V289.02ZM92.0884 288.588C93.4324 288.588 94.4044 289.596 94.4044 290.976C94.4044 292.368 93.4204 293.352 92.0884 293.352C90.7444 293.352 89.7724 292.344 89.7724 290.976C89.7724 289.596 90.7444 288.588 92.0884 288.588ZM95.3164 290.976C95.3164 289.08 94.0084 287.7 92.1964 287.7C91.1644 287.7 90.3124 288.18 89.7964 288.96V285.18H88.8844V294H89.7724V292.956C90.2884 293.748 91.1524 294.24 92.1964 294.24C93.9964 294.24 95.3164 292.86 95.3164 290.976ZM99.5166 287.7C97.6206 287.7 96.2886 289.056 96.2886 290.976C96.2886 292.884 97.6206 294.24 99.5166 294.24C101.413 294.24 102.757 292.884 102.757 290.976C102.757 289.056 101.413 287.7 99.5166 287.7ZM99.5166 293.412C98.1726 293.412 97.2006 292.38 97.2006 290.976C97.2006 289.56 98.1726 288.54 99.5166 288.54C100.861 288.54 101.833 289.56 101.833 290.976C101.833 292.38 100.861 293.412 99.5166 293.412ZM109.425 294V287.94H108.513V291.492C108.513 292.596 107.601 293.412 106.545 293.412C105.465 293.412 104.853 292.632 104.853 291.564V287.94H103.941V291.564C103.941 293.112 104.889 294.24 106.437 294.24C107.277 294.24 108.105 293.82 108.513 293.148V294H109.425ZM111.602 292.5C111.602 293.544 112.226 294.24 113.222 294.24C113.522 294.24 113.906 294.18 114.182 294.096V293.34C113.954 293.412 113.642 293.46 113.45 293.46C112.874 293.448 112.514 293.052 112.514 292.464V288.696H114.086V287.94H112.514V286.524H111.77L111.638 287.94H110.606V288.696H111.602V292.5ZM119.466 292.5C119.466 293.544 120.09 294.24 121.086 294.24C121.386 294.24 121.77 294.18 122.046 294.096V293.34C121.818 293.412 121.506 293.46 121.314 293.46C120.738 293.448 120.378 293.052 120.378 292.464V288.696H121.95V287.94H120.378V286.524H119.634L119.502 287.94H118.47V288.696H119.466V292.5ZM123.362 285.18V294H124.274V290.46C124.274 289.344 125.174 288.54 126.218 288.54C127.298 288.54 127.934 289.308 127.934 290.376V294H128.846V290.376C128.846 288.828 127.874 287.7 126.338 287.7C125.498 287.7 124.682 288.12 124.274 288.804V285.18H123.362ZM131.012 290.472C131.18 289.332 132.056 288.54 133.232 288.54C134.432 288.54 135.32 289.332 135.488 290.484L131.012 290.472ZM130.052 290.904C130.052 292.836 131.408 294.24 133.28 294.24C134.624 294.24 135.872 293.376 136.244 292.188L135.344 292.044C135.068 292.836 134.18 293.412 133.244 293.412C132.044 293.412 131.132 292.536 130.988 291.264L136.436 291.276C136.448 291.144 136.448 291.024 136.448 290.916C136.448 289.056 135.116 287.7 133.268 287.7C131.396 287.7 130.052 289.056 130.052 290.904ZM141.217 287.94V294H142.129V290.46C142.129 289.344 143.053 288.54 144.109 288.54C145.177 288.54 145.789 289.308 145.789 290.376V294H146.701V290.376C146.701 288.828 145.753 287.7 144.205 287.7C143.365 287.7 142.549 288.12 142.129 288.792V287.94H141.217ZM148.866 290.472C149.034 289.332 149.91 288.54 151.086 288.54C152.286 288.54 153.174 289.332 153.342 290.484L148.866 290.472ZM147.906 290.904C147.906 292.836 149.262 294.24 151.134 294.24C152.478 294.24 153.726 293.376 154.098 292.188L153.198 292.044C152.922 292.836 152.034 293.412 151.098 293.412C149.898 293.412 148.986 292.536 148.842 291.264L154.29 291.276C154.302 291.144 154.302 291.024 154.302 290.916C154.302 289.056 152.97 287.7 151.122 287.7C149.25 287.7 147.906 289.056 147.906 290.904ZM155.94 294L157.632 291.432L159.336 294H160.452L158.316 290.856L160.332 287.94H159.252L157.632 290.304L156.024 287.94H154.944L156.96 290.856L154.824 294H155.94ZM162.188 292.5C162.188 293.544 162.812 294.24 163.808 294.24C164.108 294.24 164.492 294.18 164.768 294.096V293.34C164.54 293.412 164.228 293.46 164.036 293.46C163.46 293.448 163.1 293.052 163.1 292.464V288.696H164.672V287.94H163.1V286.524H162.356L162.224 287.94H161.192V288.696H162.188V292.5ZM172.74 288.588C174.084 288.588 175.056 289.596 175.056 290.976C175.056 292.368 174.072 293.352 172.74 293.352C171.396 293.352 170.424 292.344 170.424 290.976C170.424 289.596 171.396 288.588 172.74 288.588ZM175.968 290.976C175.968 289.08 174.66 287.7 172.848 287.7C171.816 287.7 170.964 288.18 170.448 288.96V285.18H169.536V294H170.424V292.956C170.94 293.748 171.804 294.24 172.848 294.24C174.648 294.24 175.968 292.86 175.968 290.976ZM177.432 287.94V294H178.344V287.94H177.432ZM177.888 286.824C178.248 286.824 178.512 286.56 178.512 286.2C178.512 285.84 178.248 285.588 177.888 285.588C177.516 285.588 177.264 285.84 177.264 286.2C177.264 286.56 177.516 286.824 177.888 286.824ZM183.034 293.34C181.702 293.34 180.718 292.344 180.718 290.976C180.718 289.56 181.69 288.54 183.034 288.54C184.378 288.54 185.35 289.56 185.35 290.976C185.35 292.344 184.378 293.34 183.034 293.34ZM183.094 296.172C182.038 296.172 181.114 295.476 180.91 294.504L180.034 294.624C180.25 296.004 181.558 297 183.13 297C184.93 297 186.238 295.848 186.238 293.904V287.94H185.326V288.948C184.81 288.192 183.982 287.724 182.938 287.724C181.126 287.724 179.806 289.092 179.806 290.976C179.806 292.824 181.126 294.168 182.938 294.168C183.958 294.168 184.798 293.712 185.326 292.944V293.904C185.326 295.332 184.39 296.172 183.094 296.172ZM196.278 292.26C196.266 290.916 194.838 290.664 193.722 290.472C192.618 290.292 192.114 290.112 192.114 289.572C192.114 288.972 192.75 288.54 193.53 288.54C194.514 288.54 195.234 289.044 195.246 289.74L196.146 289.752C196.134 288.564 195.042 287.7 193.542 287.7C192.234 287.7 191.226 288.48 191.226 289.548C191.214 290.916 192.282 291.108 193.662 291.324C194.322 291.42 195.378 291.588 195.39 292.344C195.39 292.956 194.706 293.412 193.77 293.412C192.738 293.412 191.994 292.812 191.994 291.972H191.094C191.094 293.28 192.222 294.24 193.782 294.24C195.222 294.24 196.278 293.4 196.278 292.26ZM197.786 292.5C197.786 293.544 198.41 294.24 199.406 294.24C199.706 294.24 200.09 294.18 200.366 294.096V293.34C200.138 293.412 199.826 293.46 199.634 293.46C199.058 293.448 198.698 293.052 198.698 292.464V288.696H200.27V287.94H198.698V286.524H197.954L197.822 287.94H196.79V288.696H197.786V292.5ZM202.306 290.472C202.474 289.332 203.35 288.54 204.526 288.54C205.726 288.54 206.614 289.332 206.782 290.484L202.306 290.472ZM201.346 290.904C201.346 292.836 202.702 294.24 204.574 294.24C205.918 294.24 207.166 293.376 207.538 292.188L206.638 292.044C206.362 292.836 205.474 293.412 204.538 293.412C203.338 293.412 202.426 292.536 202.282 291.264L207.73 291.276C207.742 291.144 207.742 291.024 207.742 290.916C207.742 289.056 206.41 287.7 204.562 287.7C202.69 287.7 201.346 289.056 201.346 290.904ZM212.263 293.352C210.919 293.352 209.947 292.344 209.947 290.976C209.947 289.596 210.919 288.588 212.263 288.588C213.595 288.588 214.579 289.572 214.579 290.976C214.579 292.344 213.607 293.352 212.263 293.352ZM215.491 290.976C215.491 289.08 214.171 287.7 212.371 287.7C211.327 287.7 210.463 288.192 209.947 288.984V287.94H209.059V296.76H209.971V292.98C210.487 293.772 211.339 294.24 212.371 294.24C214.183 294.24 215.491 292.86 215.491 290.976ZM220.407 287.94V294H221.319V287.94H220.407ZM220.863 286.824C221.223 286.824 221.487 286.56 221.487 286.2C221.487 285.84 221.223 285.588 220.863 285.588C220.491 285.588 220.239 285.84 220.239 286.2C220.239 286.56 220.491 286.824 220.863 286.824ZM223.117 287.94V294H224.029V290.46C224.029 289.344 224.953 288.54 226.009 288.54C227.077 288.54 227.689 289.308 227.689 290.376V294H228.601V290.376C228.601 288.828 227.653 287.7 226.105 287.7C225.265 287.7 224.449 288.12 224.029 288.792V287.94H223.117ZM233.414 296.496C233.69 296.604 234.05 296.676 234.35 296.676C235.622 296.676 236.114 295.464 236.666 294.084L239.078 287.94H238.106L236.21 292.86L234.05 287.94H233.042L235.766 293.988C235.37 294.9 235.106 295.86 234.218 295.86C233.99 295.86 233.69 295.788 233.414 295.692V296.496ZM242.761 287.7C240.865 287.7 239.533 289.056 239.533 290.976C239.533 292.884 240.865 294.24 242.761 294.24C244.657 294.24 246.001 292.884 246.001 290.976C246.001 289.056 244.657 287.7 242.761 287.7ZM242.761 293.412C241.417 293.412 240.445 292.38 240.445 290.976C240.445 289.56 241.417 288.54 242.761 288.54C244.105 288.54 245.077 289.56 245.077 290.976C245.077 292.38 244.105 293.412 242.761 293.412ZM252.669 294V287.94H251.757V291.492C251.757 292.596 250.845 293.412 249.789 293.412C248.709 293.412 248.097 292.632 248.097 291.564V287.94H247.185V291.564C247.185 293.112 248.133 294.24 249.681 294.24C250.521 294.24 251.349 293.82 251.757 293.148V294H252.669ZM254.331 287.94V294H255.243V290.604C255.243 289.392 255.867 288.54 256.815 288.54C257.055 288.54 257.403 288.588 257.715 288.732V287.892C257.439 287.784 257.151 287.724 256.899 287.724C256.155 287.724 255.579 288.12 255.219 288.78V287.94H254.331ZM17.768 311.7C15.944 311.7 14.612 313.08 14.612 314.976C14.612 316.872 15.932 318.24 17.768 318.24C19.196 318.24 20.432 317.328 20.708 316.056L19.808 315.936C19.568 316.8 18.752 317.436 17.768 317.436C16.484 317.436 15.524 316.404 15.524 314.976C15.524 313.548 16.496 312.504 17.768 312.504C18.728 312.504 19.58 313.152 19.808 314.04L20.696 313.92C20.468 312.636 19.232 311.7 17.768 311.7ZM24.9242 317.412C23.5802 317.412 22.6082 316.38 22.6082 314.976C22.6082 313.56 23.5802 312.54 24.9242 312.54C26.2562 312.54 27.2402 313.56 27.2402 314.976C27.2402 316.38 26.2562 317.412 24.9242 317.412ZM27.2522 313.02C26.7362 312.204 25.8602 311.7 24.8162 311.7C23.0042 311.7 21.6962 313.08 21.6962 314.976C21.6962 316.86 23.0042 318.24 24.8162 318.24C25.8602 318.24 26.7362 317.736 27.2522 316.932V318H28.1642V311.94H27.2522V313.02ZM29.8196 311.94V318H30.7316V314.604C30.7316 313.392 31.3556 312.54 32.3036 312.54C32.5436 312.54 32.8916 312.588 33.2036 312.732V311.892C32.9276 311.784 32.6396 311.724 32.3876 311.724C31.6436 311.724 31.0676 312.12 30.7076 312.78V311.94H29.8196ZM34.5629 314.472C34.7309 313.332 35.6069 312.54 36.7829 312.54C37.9829 312.54 38.8709 313.332 39.0389 314.484L34.5629 314.472ZM33.6029 314.904C33.6029 316.836 34.9589 318.24 36.8309 318.24C38.1749 318.24 39.4229 317.376 39.7949 316.188L38.8949 316.044C38.6189 316.836 37.7309 317.412 36.7949 317.412C35.5949 317.412 34.6829 316.536 34.5389 315.264L39.9869 315.276C39.9989 315.144 39.9989 315.024 39.9989 314.916C39.9989 313.056 38.6669 311.7 36.8189 311.7C34.9469 311.7 33.6029 313.056 33.6029 314.904ZM41.9401 314.472C42.1081 313.332 42.9841 312.54 44.1601 312.54C45.3601 312.54 46.2481 313.332 46.4161 314.484L41.9401 314.472ZM40.9801 314.904C40.9801 316.836 42.3361 318.24 44.2081 318.24C45.5521 318.24 46.8001 317.376 47.1721 316.188L46.2721 316.044C45.9961 316.836 45.1081 317.412 44.1721 317.412C42.9721 317.412 42.0601 316.536 41.9161 315.264L47.3641 315.276C47.3761 315.144 47.3761 315.024 47.3761 314.916C47.3761 313.056 46.0441 311.7 44.1961 311.7C42.3241 311.7 40.9801 313.056 40.9801 314.904ZM48.6933 311.94V318H49.6053V314.604C49.6053 313.392 50.2293 312.54 51.1773 312.54C51.4173 312.54 51.7653 312.588 52.0773 312.732V311.892C51.8013 311.784 51.5133 311.724 51.2613 311.724C50.5173 311.724 49.9413 312.12 49.5813 312.78V311.94H48.6933ZM59.8314 317.352C58.4874 317.352 57.5154 316.344 57.5154 314.976C57.5154 313.596 58.4874 312.588 59.8314 312.588C61.1634 312.588 62.1474 313.572 62.1474 314.976C62.1474 316.344 61.1754 317.352 59.8314 317.352ZM63.0594 314.976C63.0594 313.08 61.7394 311.7 59.9394 311.7C58.8954 311.7 58.0314 312.192 57.5154 312.984V311.94H56.6274V320.76H57.5394V316.98C58.0554 317.772 58.9074 318.24 59.9394 318.24C61.7514 318.24 63.0594 316.86 63.0594 314.976ZM67.2716 317.412C65.9276 317.412 64.9556 316.38 64.9556 314.976C64.9556 313.56 65.9276 312.54 67.2716 312.54C68.6036 312.54 69.5876 313.56 69.5876 314.976C69.5876 316.38 68.6036 317.412 67.2716 317.412ZM69.5996 313.02C69.0836 312.204 68.2076 311.7 67.1636 311.7C65.3516 311.7 64.0436 313.08 64.0436 314.976C64.0436 316.86 65.3516 318.24 67.1636 318.24C68.2076 318.24 69.0836 317.736 69.5996 316.932V318H70.5116V311.94H69.5996V313.02ZM72.6829 316.5C72.6829 317.544 73.3069 318.24 74.3029 318.24C74.6029 318.24 74.9869 318.18 75.2629 318.096V317.34C75.0349 317.412 74.7229 317.46 74.5309 317.46C73.9549 317.448 73.5949 317.052 73.5949 316.464V312.696H75.1669V311.94H73.5949V310.524H72.8509L72.7189 311.94H71.6869V312.696H72.6829V316.5ZM76.5792 309.18V318H77.4912V314.46C77.4912 313.344 78.3912 312.54 79.4352 312.54C80.5152 312.54 81.1512 313.308 81.1512 314.376V318H82.0632V314.376C82.0632 312.828 81.0912 311.7 79.5552 311.7C78.7152 311.7 77.8992 312.12 77.4912 312.804V309.18H76.5792ZM86.1969 318.156C86.5569 318.156 86.8209 317.904 86.8209 317.532C86.8209 317.172 86.5569 316.92 86.1969 316.92C85.8249 316.92 85.5729 317.184 85.5729 317.532C85.5729 317.904 85.8249 318.156 86.1969 318.156ZM86.6649 315.852C86.6649 314.868 86.9409 314.46 87.6369 313.992C88.4769 313.44 89.1489 312.96 89.1489 311.808C89.1489 310.332 87.9249 309.24 86.3529 309.24C84.7449 309.24 83.5809 310.38 83.3889 311.964L84.3249 312.144C84.4569 310.98 85.2249 310.128 86.3409 310.128C87.3609 310.128 88.1409 310.86 88.1409 311.82C88.1409 312.588 87.5889 312.984 86.9889 313.392C86.1969 313.944 85.7409 314.508 85.7409 315.852H86.6649Z" fill="black"/>
</svg>
