<svg width="60" height="60" viewBox="0 0 60 60" fill="none" xmlns="http://www.w3.org/2000/svg">
<path d="M0 37.0392C0 35.6533 1.18228 34.5299 2.6407 34.5299H17.5606C19.019 34.5299 20.2013 35.6533 20.2013 37.0392V57.4904C20.2013 58.8763 19.019 59.9998 17.5606 59.9998H2.6407C1.18228 59.9998 0 58.8763 0 57.4904V37.0392Z" fill="#F1F1F1" fill-opacity="0.5"/>
<path d="M30 5.78812C30 3.41972 32.0205 1.49976 34.5128 1.49976H50.9872C53.4795 1.49976 55.5 3.41972 55.5 5.78812V44.0948C55.5 46.4632 53.4795 48.3832 50.9872 48.3832H34.5128C32.0205 48.3832 30 46.4632 30 44.0948V5.78812Z" fill="#F1F1F1" fill-opacity="0.5"/>
<path d="M42.0287 21.4287H18.1428C16.4106 21.4287 15 22.8379 15 24.5715V48.4574C15 50.1909 16.4106 51.6001 18.1428 51.6001H42.0287C43.7608 51.6001 45.1714 50.1909 45.1714 48.4574V24.5715C45.1714 22.8379 43.7608 21.4287 42.0287 21.4287ZM42.6571 24.5715V35.2574H31.3428V23.9431H42.0287C42.3755 23.9431 42.6571 24.2257 42.6571 24.5715ZM18.1428 23.9431H28.8287V35.2574H17.5144V24.5715C17.5144 24.2257 17.7959 23.9431 18.1428 23.9431ZM17.5144 48.4574V37.7715H28.8287V49.0858H18.1428C17.7959 49.0858 17.5144 48.8031 17.5144 48.4574ZM42.0287 49.0858H31.3428V37.7715H42.6571V48.4574C42.6571 48.8031 42.3755 49.0858 42.0287 49.0858Z" fill="#262629"/>
<path d="M31.2749 23.8501H42.2499C42.526 23.8501 42.7499 24.074 42.7499 24.3501V35.3251H31.2749V23.8501Z" fill="#E53617"/>
</svg>
