<svg width="60" height="60" viewBox="0 0 60 60" fill="none" xmlns="http://www.w3.org/2000/svg">
<path fill-rule="evenodd" clip-rule="evenodd" d="M58.0578 14.0391C58.0568 13.1008 57.7431 12.2013 57.1855 11.5379C56.6279 10.8744 55.8719 10.5011 55.0834 10.4999H41.2492C40.4607 10.5011 39.7047 10.8744 39.1471 11.5379C38.5895 12.2013 38.2758 13.1008 38.2748 14.0391V16.956H58.0578V14.0391ZM50.585 14.8533H45.7467C45.5282 14.8533 45.3186 14.75 45.1641 14.5661C45.0095 14.3823 44.9227 14.1329 44.9227 13.8729C44.9227 13.6129 45.0095 13.3635 45.1641 13.1796C45.3186 12.9958 45.5282 12.8925 45.7467 12.8925H50.585C50.8035 12.8925 51.0131 12.9958 51.1676 13.1796C51.3221 13.3635 51.4089 13.6129 51.4089 13.8729C51.4089 14.1329 51.3221 14.3823 51.1676 14.5661C51.0131 14.75 50.8035 14.8533 50.585 14.8533Z" fill="#F1F1F1" fill-opacity="0.5"/>
<path fill-rule="evenodd" clip-rule="evenodd" d="M38.2734 42.9604C38.2733 43.4252 38.3501 43.8855 38.4995 44.315C38.6489 44.7445 38.868 45.1348 39.1442 45.4635C39.4205 45.7921 39.7485 46.0528 40.1094 46.2306C40.4704 46.4084 40.8572 46.4998 41.2479 46.4996H55.082C55.4727 46.4998 55.8596 46.4084 56.2205 46.2306C56.5815 46.0528 56.9095 45.7921 57.1857 45.4635C57.4619 45.1348 57.681 44.7445 57.8304 44.315C57.9799 43.8855 58.0567 43.4252 58.0565 42.9604V40.8307H38.2734V42.9604ZM48.173 42.7666H48.181C48.3992 42.7679 48.608 42.8721 48.7617 43.0563C48.9155 43.2405 49.0015 43.4898 49.0009 43.7494C49.0004 44.009 48.9134 44.2578 48.7589 44.4411C48.6044 44.6244 48.3952 44.7274 48.177 44.7274C47.9588 44.7274 47.7495 44.6244 47.5951 44.4411C47.4406 44.2578 47.3536 44.009 47.353 43.7494C47.3525 43.4898 47.4385 43.2405 47.5922 43.0563C47.746 42.8721 47.9548 42.7679 48.173 42.7666Z" fill="#F1F1F1" fill-opacity="0.5"/>
<path d="M58.1828 18.0739H38.3V40.0931H58.1828V18.0739Z" fill="#F1F1F1" fill-opacity="0.5"/>
<path d="M23.4707 47.9879C23.4707 53.2328 19.2189 57.4846 13.974 57.4846C8.72911 57.4846 4.47729 53.2328 4.47729 47.9879C4.47729 42.743 8.72911 38.4912 13.974 38.4912C19.2189 38.4912 23.4707 42.743 23.4707 47.9879Z" fill="#F1F1F1" fill-opacity="0.5"/>
<path d="M42.1421 36.0004C39.7388 36.0004 37.7842 34.2 37.7842 31.9862V26.3761C37.7842 25.8936 38.2095 25.5004 38.7349 25.5004H45.5493C46.0731 25.5004 46.5 25.8921 46.5 26.3761V31.9876C46.4984 34.2 44.5454 36.0004 42.1421 36.0004Z" fill="#E53617"/>
<path d="M24.1675 36.0004C21.5953 36.0004 19.5 34.0718 19.5 31.701V26.3761C19.5 25.8936 19.9253 25.5004 20.4507 25.5004H27.8843C28.4081 25.5004 28.835 25.8921 28.835 26.3761V31.701C28.835 34.0718 26.7413 36.0004 24.1675 36.0004Z" fill="#E53617"/>
<path d="M42.6248 37.3733C39.6608 37.3733 37.2499 35.0805 37.2499 32.2617V25.1145C37.2499 24.4993 37.7749 24 38.4217 24H45.2998C46.7888 24 47.9998 25.1516 47.9998 26.5692V32.2617C47.9998 35.0805 45.5889 37.3733 42.6248 37.3733ZM39.5936 26.2289V32.2617C39.5936 33.8516 40.953 35.1444 42.6248 35.1444C44.2967 35.1444 45.656 33.8516 45.656 32.2617V26.5692C45.656 26.3819 45.4967 26.2289 45.2998 26.2289H39.5936Z" fill="#262629"/>
<path d="M33.8364 37.3733C30.6614 37.3733 28.0786 34.917 28.0786 31.8977V25.1145C28.0786 24.4993 28.6036 24 29.2505 24H38.4217C39.0686 24 39.5941 24.4993 39.5941 25.1145V31.8977C39.5941 34.917 37.0098 37.3733 33.8364 37.3733ZM30.4224 26.2289V31.8977C30.4224 33.6867 31.9536 35.1444 33.8364 35.1444C35.7192 35.1444 37.2504 33.6882 37.2504 31.8977V26.2289H30.4224Z" fill="#262629"/>
<path d="M24.6637 37.3733C21.4903 37.3733 18.906 34.917 18.906 31.8977V25.1145C18.906 24.4993 19.431 24 20.0778 24H29.2505C29.8974 24 30.4215 24.4993 30.4215 25.1145L30.4224 31.8977C30.4224 34.917 27.8387 37.3733 24.6637 37.3733ZM21.2497 26.2289V31.8977C21.2497 33.6867 22.7809 35.1444 24.6637 35.1444C26.5465 35.1444 28.0786 33.6882 28.0786 31.8977L28.0778 26.2289H21.2497Z" fill="#262629"/>
<path d="M15.8749 37.3732C12.9109 37.3732 10.5 35.0805 10.5 32.2617V26.5691C10.5 25.1516 11.7109 24 13.2 24L20.0778 24C20.7247 24 21.2499 24.4993 21.2499 25.1144V32.2617C21.2499 35.0805 18.839 37.3732 15.8749 37.3732ZM13.2 26.2289C13.0031 26.2289 12.8437 26.3819 12.8437 26.5691V32.2617C12.8437 33.8516 14.2046 35.1444 15.8749 35.1444C17.5452 35.1444 18.9062 33.8516 18.9062 32.2617V26.2289H13.2Z" fill="#262629"/>
<path d="M45.2656 49.2603H13.2347C11.7269 49.2603 10.5004 48.0938 10.5004 46.6599V39.9733C10.5004 39.3581 11.0254 38.8589 11.6723 38.8589C12.3191 38.8589 12.8441 39.3581 12.8441 39.9733V46.6599C12.8441 46.865 13.0191 47.0314 13.2347 47.0314H45.2656C45.4813 47.0314 45.6563 46.865 45.6563 46.6599V39.9733C45.6563 39.3581 46.1813 38.8589 46.8281 38.8589C47.475 38.8589 48 39.3581 48 39.9733V46.6599C48 48.0938 46.7734 49.2603 45.2656 49.2603Z" fill="#262629"/>
<path d="M46.8281 44.0597H11.6723C11.0254 44.0597 10.5004 43.5604 10.5004 42.9452C10.5004 42.33 11.0254 41.8308 11.6723 41.8308H46.8281C47.475 41.8308 48 42.33 48 42.9452C48 43.5604 47.475 44.0597 46.8281 44.0597Z" fill="#262629"/>
<path d="M34.3278 54H24.1717C23.6982 54 23.2701 53.7281 23.0889 53.312C22.9076 52.896 23.0076 52.4175 23.3436 52.098C24.9701 50.5512 25.3201 48.3045 25.3232 48.2837C25.4076 47.673 26.0029 47.2376 26.6373 47.3238C27.2795 47.404 27.731 47.9642 27.6466 48.5734C27.6341 48.6611 27.417 50.1574 26.4842 51.7711H31.9888C31.0654 50.1663 30.8357 48.6685 30.8232 48.5809C30.7341 47.9716 31.181 47.41 31.8232 47.3238C32.4747 47.2376 33.0544 47.6641 33.145 48.2733C33.156 48.3401 33.5075 50.4561 34.995 51.9688C35.2997 52.1708 35.4997 52.5052 35.4997 52.8856C35.4997 53.5007 34.9747 54 34.3278 54Z" fill="#262629"/>
</svg>
