<svg width="60" height="60" viewBox="0 0 60 60" fill="none" xmlns="http://www.w3.org/2000/svg">
<path fill-rule="evenodd" clip-rule="evenodd" d="M43.5938 13.6614L53.8914 19.8618V19.8497C54.0221 19.9289 54.1368 20.0345 54.2288 20.1604C54.3208 20.2863 54.3884 20.4301 54.4277 20.5836C54.467 20.737 54.4773 20.8972 54.4579 21.0548C54.4385 21.2124 54.3899 21.3645 54.3148 21.5023C54.2396 21.6401 54.1395 21.761 54.0201 21.858C53.9006 21.955 53.7642 22.0263 53.6187 22.0678C53.4731 22.1092 53.3212 22.12 53.1717 22.0996C53.0222 22.0791 52.878 22.0279 52.7472 21.9487L51.031 20.9233V24.8799V24.9644V45.4713C51.031 45.9512 50.8501 46.4115 50.5283 46.7508C50.2064 47.0901 49.7699 47.2808 49.3147 47.2808H45.3101V40.4411C45.3101 40.3355 45.2902 40.231 45.2515 40.1336C45.2129 40.0362 45.1562 39.9479 45.0849 39.8738C45.0135 39.7997 44.9289 39.7413 44.836 39.7021C44.743 39.6628 44.6436 39.6433 44.5435 39.6449H41.5C41.3999 39.6433 41.3004 39.6628 41.2075 39.7021C41.1145 39.7413 41.0299 39.7997 40.9586 39.8738C40.8873 39.9479 40.8306 40.0362 40.7919 40.1336C40.7533 40.231 40.7334 40.3355 40.7334 40.4411V47.2808H36.7288C36.5024 47.2808 36.2783 47.2336 36.0693 47.1419C35.8604 47.0502 35.6706 46.9158 35.5111 46.7465C35.3516 46.5772 35.2254 46.3763 35.1398 46.1554C35.0543 45.9345 35.011 45.6979 35.0125 45.4593V24.9523V24.8679V20.9233L33.2962 21.9487C33.0347 22.0929 32.7305 22.125 32.4471 22.0383C32.1637 21.9516 31.923 21.7528 31.7753 21.4835C31.6276 21.2141 31.5844 20.895 31.6546 20.5928C31.7248 20.2906 31.903 20.0287 32.1521 19.8618L42.4496 13.6614C42.6236 13.5556 42.8209 13.4998 43.0217 13.4998C43.2226 13.4998 43.4199 13.5556 43.5938 13.6614ZM41.5424 27.6268C41.757 27.4006 41.8776 27.0937 41.8776 26.7738V25.5675C41.8776 25.2476 41.757 24.9408 41.5424 24.7146C41.3279 24.4883 41.0368 24.3612 40.7334 24.3612C40.4299 24.3612 40.1389 24.4883 39.9243 24.7146C39.7098 24.9408 39.5892 25.2476 39.5892 25.5675V26.7738C39.5892 27.0937 39.7098 27.4006 39.9243 27.6268C40.1389 27.853 40.4299 27.9801 40.7334 27.9801C41.0368 27.9801 41.3279 27.853 41.5424 27.6268ZM46.1191 27.6268C46.3337 27.4006 46.4543 27.0937 46.4543 26.7738V25.5675C46.4543 25.2476 46.3337 24.9408 46.1191 24.7146C45.9046 24.4883 45.6135 24.3612 45.3101 24.3612C45.0066 24.3612 44.7156 24.4883 44.501 24.7146C44.2865 24.9408 44.1659 25.2476 44.1659 25.5675V26.7738C44.1659 27.0937 44.2865 27.4006 44.501 27.6268C44.7156 27.853 45.0066 27.9801 45.3101 27.9801C45.6135 27.9801 45.9046 27.853 46.1191 27.6268ZM33.8691 25.5677V45.4715C33.8732 46.1252 34.078 46.76 34.4526 47.2809H32.7249C31.8146 47.2809 30.9415 46.8996 30.2978 46.221C29.6541 45.5423 29.2924 44.6218 29.2924 43.662V31.0925L28.7203 31.4423C28.4563 31.6023 28.1429 31.6451 27.8489 31.5614C27.5549 31.4777 27.3045 31.2743 27.1528 30.996C27.0011 30.7176 26.9604 30.3872 27.0398 30.0772C27.1192 29.7673 27.3121 29.5033 27.5762 29.3434L33.8691 25.5677ZM58.4678 29.3434L52.1749 25.5677V45.4715C52.1707 46.1252 51.966 46.76 51.5913 47.2809H53.319C54.2294 47.2809 55.1025 46.8996 55.7462 46.221C56.3899 45.5423 56.7516 44.6218 56.7516 43.662V31.0925L57.3237 31.4423C57.4544 31.5215 57.5986 31.5728 57.7481 31.5932C57.8977 31.6137 58.0495 31.6029 58.1951 31.5614C58.3406 31.52 58.477 31.4487 58.5965 31.3517C58.7159 31.2547 58.816 31.1338 58.8912 30.996C58.9663 30.8582 59.0149 30.7061 59.0343 30.5484C59.0537 30.3908 59.0435 30.2307 59.0041 30.0772C58.9648 29.9238 58.8972 29.78 58.8052 29.6541C58.7132 29.5281 58.5986 29.4226 58.4678 29.3434ZM15.5919 59.6837C20.061 59.6837 23.6838 56.0608 23.6838 51.5917C23.6838 47.1227 20.061 43.4998 15.5919 43.4998C11.1229 43.4998 7.5 47.1227 7.5 51.5917C7.5 56.0608 11.1229 59.6837 15.5919 59.6837Z" fill="#F1F1F1" fill-opacity="0.5"/>
<path d="M43.1542 37.9351V34.729C43.1542 34.1707 42.741 33.7182 42.2313 33.7182C40.3248 33.7182 38.5474 33.8944 36.8682 34.2542C35.8893 33.2189 34.6959 32.4677 33.4036 32.0571C34.8127 30.7581 35.7099 28.8132 35.7099 26.6428C35.7099 22.7043 32.8119 19.5001 29.2499 19.5001C25.6879 19.5001 22.79 22.7043 22.79 26.6428C22.79 28.8132 23.6871 30.7581 25.0963 32.057C23.804 32.4677 22.6106 33.2189 21.6317 34.2542C19.9524 33.8944 18.175 33.7181 16.2685 33.7181C15.7589 33.7181 15.3457 34.1707 15.3457 34.7289V37.935C14.2716 38.3523 13.5 39.4758 13.5 40.7935V42.815C13.5 44.1327 14.2716 45.2562 15.3457 45.6734V48.8796C15.3457 49.4378 15.7589 49.8903 16.2685 49.8903C21.0938 49.8903 25.0561 51.1425 28.7381 53.831C29.0466 54.0562 29.4531 54.0568 29.7619 53.831C33.444 51.1425 37.4062 49.8903 42.2315 49.8903C42.7411 49.8903 43.1543 49.4378 43.1543 48.8796V45.6734C44.2284 45.2562 45 44.1327 45 42.815V40.7935C44.9999 39.4758 44.2283 38.3523 43.1542 37.9351ZM24.6357 26.6428C24.6357 23.819 26.7056 21.5216 29.2499 21.5216C31.7942 21.5216 33.8642 23.819 33.8642 26.6428C33.8642 29.4295 31.7942 31.6967 29.2499 31.6967C26.7056 31.6967 24.6357 29.4295 24.6357 26.6428ZM16.2685 43.8258C15.7596 43.8258 15.3456 43.3724 15.3456 42.8151V40.7935C15.3456 40.2362 15.7596 39.7828 16.2685 39.7828C16.7773 39.7828 17.1913 40.2362 17.1913 40.7935V42.8151C17.1913 43.3724 16.7773 43.8258 16.2685 43.8258ZM28.3271 51.1764C24.9769 49.078 21.3819 48.0175 17.1913 47.8834V45.6735C18.2655 45.2562 19.037 44.1328 19.037 42.8151V40.7935C19.037 39.4758 18.2655 38.3523 17.1913 37.9351V35.754C21.5276 35.8903 25.013 37.0087 28.3271 39.3197V51.1764ZM29.2499 37.5685C27.5466 36.3913 25.7736 35.495 23.8809 34.8652C24.9209 34.1249 26.1451 33.7182 27.4042 33.7182H31.0956C32.3547 33.7182 33.5789 34.1249 34.6189 34.8652C32.7262 35.495 30.9532 36.3913 29.2499 37.5685ZM41.3085 47.8834C37.1179 48.0175 33.5228 49.0783 30.1728 51.1766V39.3205C33.4868 37.0093 36.9721 35.8903 41.3085 35.754V37.9351C40.2343 38.3523 39.4628 39.4758 39.4628 40.7935V42.8151C39.4628 44.1328 40.2343 45.2562 41.3085 45.6735V47.8834ZM43.1542 42.8151C43.1542 43.3724 42.7402 43.8258 42.2313 43.8258C41.7225 43.8258 41.3085 43.3724 41.3085 42.8151V40.7935C41.3085 40.2362 41.7225 39.7828 42.2313 39.7828C42.7402 39.7828 43.1542 40.2362 43.1542 40.7935V42.8151Z" fill="#262629"/>
<ellipse cx="29.1748" cy="26.2498" rx="7.125" ry="7.125" fill="#E53617"/>
</svg>
