<svg width="60" height="60" viewBox="0 0 60 60" fill="none" xmlns="http://www.w3.org/2000/svg">
<path fill-rule="evenodd" clip-rule="evenodd" d="M40.6266 21.5654L40.6267 21.5654C40.6851 21.5901 40.7478 21.6166 40.8105 21.6367C40.8431 21.6524 40.8757 21.668 40.9246 21.6837C41.1048 21.7636 41.3085 21.8322 41.5358 21.9087L41.5358 21.9087L41.5359 21.9087L41.6581 21.9499C41.707 21.9656 41.7722 21.9812 41.8374 21.9969H41.8537C41.9678 22.0439 42.0982 22.0752 42.2286 22.1065C42.5056 22.1848 42.799 22.2475 43.0923 22.3101L43.0924 22.3101C43.1332 22.3179 43.178 22.3258 43.2228 22.3336C43.2676 22.3414 43.3125 22.3493 43.3532 22.3571C43.5651 22.4041 43.777 22.4354 44.0052 22.4667C44.1356 22.498 44.266 22.5137 44.4126 22.5137C44.2848 22.494 44.1621 22.4701 44.0387 22.4461L44.0386 22.4461C43.9777 22.4343 43.9167 22.4224 43.8547 22.411C44.7957 22.5762 45.7984 22.6974 46.8575 22.7486C47.0348 22.7486 47.2161 22.7524 47.3994 22.7563C47.5868 22.7602 47.7763 22.7642 47.9659 22.7642C48.1554 22.7642 48.3449 22.7602 48.5323 22.7563C48.7156 22.7524 48.8969 22.7486 49.0742 22.7486C50.1333 22.6974 51.1361 22.5762 52.077 22.411C52.0202 22.4215 51.9638 22.4325 51.9075 22.4435L51.907 22.4436L51.907 22.4436C51.7792 22.4684 51.6515 22.4933 51.5191 22.5137C51.6658 22.5137 51.7962 22.498 51.9266 22.4667C52.1548 22.4354 52.3666 22.4041 52.5785 22.3571C52.6193 22.3493 52.6641 22.3414 52.7089 22.3336C52.7538 22.3258 52.7986 22.3179 52.8393 22.3101L52.8394 22.3101C53.1327 22.2475 53.4261 22.1848 53.7032 22.1065C53.8336 22.0752 53.964 22.0439 54.0781 21.9971H54.0944C54.1596 21.9814 54.2248 21.9657 54.2737 21.9501C54.5507 21.8718 54.7952 21.7778 55.0071 21.6839C55.056 21.6682 55.0886 21.6525 55.1212 21.6369C55.1839 21.6168 55.2466 21.5903 55.305 21.5656L55.3051 21.5655L55.3054 21.5654L55.3056 21.5653C55.3381 21.5516 55.3692 21.5384 55.3983 21.5273C56.7185 21.0418 57.7617 20.431 58.4462 19.789C58.5603 19.695 58.6581 19.6011 58.7396 19.4914C57.126 17.4398 52.5133 16.5002 47.9659 16.5002C43.4184 16.5002 38.8057 17.4398 37.1921 19.4913C37.2736 19.6009 37.3714 19.6949 37.4855 19.7888C38.1701 20.4309 39.2132 21.0416 40.5334 21.5271C40.5625 21.5383 40.5937 21.5515 40.6263 21.5652L40.6263 21.5653L40.6266 21.5654ZM41.4299 21.8403C41.3353 21.8155 41.2452 21.7863 41.1572 21.7574C41.2867 21.7964 41.4201 21.8339 41.5534 21.8714L41.5536 21.8715C41.6147 21.8886 41.6758 21.9058 41.7365 21.9231C41.6908 21.9104 41.6444 21.8982 41.5987 21.8861L41.5987 21.8861L41.5986 21.8861L41.5985 21.8861C41.5405 21.8708 41.4835 21.8557 41.4299 21.8403ZM54.376 21.8722C54.5101 21.8346 54.6441 21.7969 54.7741 21.7577C54.6863 21.7866 54.5963 21.8157 54.5018 21.8405C54.4486 21.8558 54.3919 21.8707 54.3342 21.886C54.2881 21.8981 54.2413 21.9105 54.1953 21.9233C54.2553 21.9062 54.3157 21.8892 54.376 21.8722ZM43.2228 22.2944C43.1658 22.2822 43.1115 22.2681 43.0574 22.2539C43.0088 22.2412 42.9603 22.2286 42.91 22.2174C42.9658 22.2298 43.021 22.2424 43.0763 22.255L43.0763 22.255L43.0764 22.255L43.0764 22.255C43.1946 22.2821 43.3127 22.309 43.4355 22.3334C43.4057 22.3277 43.3749 22.3223 43.3442 22.3169C43.3027 22.3097 43.2613 22.3024 43.2228 22.2944ZM52.7089 22.2944C52.6702 22.3021 52.6307 22.3091 52.5912 22.3161C52.5572 22.3222 52.5232 22.3282 52.4896 22.3347C52.6154 22.3099 52.7363 22.2823 52.8572 22.2546L52.8573 22.2546C52.9119 22.2421 52.9666 22.2296 53.0217 22.2174C52.9714 22.2286 52.9229 22.2412 52.8743 22.2539C52.8202 22.2681 52.7659 22.2822 52.7089 22.2944ZM56.1157 24.5593C56.0668 24.5907 56.0016 24.6063 55.9364 24.622C55.9201 24.6298 55.9078 24.6337 55.8956 24.6376C55.8834 24.6416 55.8712 24.6455 55.8549 24.6533C54.5835 25.0761 53.1655 25.3893 51.6171 25.5929C51.3137 25.6396 50.9971 25.6629 50.6803 25.6862L50.6802 25.6862C50.54 25.6965 50.3997 25.7068 50.2605 25.7191C50.2396 25.7207 50.2187 25.7227 50.1978 25.7247L50.1977 25.7247L50.1976 25.7247L50.1975 25.7247C50.1491 25.7293 50.1008 25.7338 50.0524 25.7338C49.7916 25.7652 49.4982 25.7808 49.2211 25.7808C48.8136 25.7965 48.3899 25.8121 47.9661 25.8121C47.5423 25.8121 47.1185 25.7965 46.6947 25.7808C46.4666 25.7808 46.2384 25.7652 46.0265 25.7495C45.6516 25.7338 45.293 25.7025 44.9344 25.6555C44.4781 25.6086 44.038 25.5616 43.6142 25.4989C43.4274 25.4631 43.2407 25.4305 43.0554 25.3981C42.8366 25.3599 42.6199 25.3221 42.4081 25.2797C41.6094 25.1074 40.8596 24.9039 40.1425 24.669C40.1332 24.66 40.1292 24.6562 40.1244 24.6545C40.1234 24.6542 40.1223 24.6539 40.1212 24.6537C40.1201 24.6536 40.1188 24.6535 40.1174 24.6534L40.1099 24.6533C40.0121 24.6376 39.9143 24.6063 39.8165 24.5593C38.5778 24.1365 37.4694 23.6197 36.5567 23.009V25.8121C36.5567 26.3916 36.8826 26.9867 37.4857 27.5348C37.5998 27.66 37.7302 27.7697 37.8769 27.8636C38.5941 28.4274 39.5883 28.9598 40.7944 29.3827C40.827 29.3983 40.8759 29.414 40.9248 29.4296C41.1856 29.5393 41.4953 29.6489 41.8539 29.7428C42.294 29.8838 42.7829 30.0091 43.3534 30.103C43.7283 30.1813 44.1032 30.244 44.527 30.2909C45.1952 30.3849 45.945 30.4475 46.7599 30.4789C47.1511 30.4945 47.5586 30.5102 47.9661 30.5102C48.3736 30.5102 48.781 30.4945 49.1722 30.4789C49.9872 30.4475 50.7369 30.3849 51.4052 30.2909C51.829 30.244 52.2039 30.1813 52.5787 30.103C53.1492 30.0091 53.6382 29.8838 54.0783 29.7428C54.4369 29.6489 54.7465 29.5393 55.0073 29.4296C55.0562 29.414 55.1051 29.3983 55.1377 29.3827C56.3439 28.9598 57.3381 28.4274 58.0553 27.8636C58.202 27.7697 58.3324 27.66 58.4464 27.5348C59.0495 26.9867 59.3755 26.3916 59.3755 25.8121V23.009C58.4627 23.6197 57.3544 24.1365 56.1157 24.5593ZM56.1138 32.391L56.1157 32.3901C56.8165 32.1552 57.4522 31.889 58.0553 31.5914C58.5279 31.3565 58.9843 31.106 59.3755 30.8397V33.6429C59.3755 33.9091 59.3103 34.1753 59.1636 34.4572C58.1857 36.4304 53.7197 38.3409 47.9661 38.3409C42.2125 38.3409 37.7465 36.4304 36.7686 34.4572C36.6219 34.1753 36.5567 33.9091 36.5567 33.6429V30.8397C36.9478 31.106 37.4042 31.3565 37.8769 31.5914C38.48 31.889 39.1156 32.1552 39.8165 32.3901C39.8491 32.4058 39.8817 32.4214 39.9306 32.4214C40.827 32.7346 41.805 32.9852 42.8318 33.1888C43.3045 33.2827 43.7772 33.361 44.2825 33.4237H44.2988C44.3232 33.4237 44.3476 33.4276 44.3721 33.4315L44.3721 33.4315C44.3966 33.4354 44.421 33.4393 44.4455 33.4393H44.4618C44.527 33.455 44.5922 33.455 44.6573 33.455C44.6899 33.4706 44.7388 33.4706 44.7714 33.4706C45.13 33.5176 45.5049 33.5489 45.8798 33.5646C46.0345 33.5724 46.1933 33.5802 46.3521 33.5881L46.353 33.5881L46.3566 33.5883L46.3567 33.5883C46.5142 33.5961 46.6717 33.6038 46.8251 33.6116C47.2 33.6429 47.5749 33.6429 47.9661 33.6429C48.5366 33.6429 49.107 33.6272 49.6612 33.5958C49.7182 33.5958 49.7753 33.5919 49.8323 33.5879C49.8894 33.584 49.9464 33.5801 50.0035 33.5801H50.0198C50.411 33.5489 50.8021 33.5176 51.177 33.4706H51.2096C51.2423 33.4706 51.2709 33.4667 51.2994 33.4628C51.3279 33.4589 51.3563 33.455 51.3889 33.455C51.4052 33.4393 51.4215 33.4393 51.4378 33.4393H51.4704H51.503C51.5275 33.4393 51.556 33.4354 51.5845 33.4315C51.613 33.4276 51.6415 33.4237 51.666 33.4237C51.7067 33.4158 51.7516 33.4119 51.7964 33.408L51.7964 33.408C51.8412 33.4041 51.8861 33.4002 51.9268 33.3923C52.318 33.3297 52.6928 33.2671 53.0677 33.2044C53.084 33.1888 53.1003 33.1888 53.1329 33.1888C54.1598 32.9852 55.1214 32.7346 56.0179 32.4214C56.0498 32.4214 56.0818 32.4062 56.1138 32.391ZM47.9661 41.4726C44.9018 41.4726 42.1147 41.0185 39.8165 40.2198C38.5778 39.797 37.4694 39.2802 36.5567 38.6693V43.0387C36.5567 46.2803 42.294 47.7367 47.9661 47.7367C53.6382 47.7367 59.3755 46.2803 59.3755 43.0387V38.6695C58.4627 39.2802 57.3544 39.797 56.1157 40.22C53.8175 41.0185 51.0303 41.4726 47.9661 41.4726ZM29.0885 57.7126L16.9808 40.9356L4.87305 57.7126H29.0885Z" fill="#F1F1F1" fill-opacity="0.5"/>
<path fill-rule="evenodd" clip-rule="evenodd" d="M49.7274 17.3803L50.0514 17.6916C50.3979 18.0245 50.3966 18.5668 50.0488 18.9022C49.7004 19.2369 49.1353 19.2382 48.7888 18.9053L48.3285 18.4624C45.7346 16.1079 41.6524 16.1227 39.079 18.5112C39.0755 18.514 39.0726 18.5178 39.0692 18.5222L39.0681 18.5235L38.4831 19.085C38.1359 19.4192 37.5721 19.4167 37.2237 19.0819C36.8746 18.7465 36.8727 18.2048 37.2199 17.8719L37.8049 17.3092C37.8133 17.3011 37.8224 17.2946 37.8314 17.2882C37.8388 17.2829 37.8461 17.2777 37.8531 17.2716C41.0353 14.3303 46.0348 14.245 49.3218 17.0177C49.3732 17.0498 49.4221 17.0869 49.4671 17.1295L49.7229 17.3766C49.7255 17.3772 49.7261 17.379 49.7274 17.3803ZM47.3405 19.4953L47.3404 19.4953L47.3227 19.4798L47.2527 19.4162C47.2435 19.4069 47.2335 19.3995 47.2224 19.3913C47.2195 19.3892 47.2165 19.387 47.2134 19.3847C45.1968 17.6244 42.1104 17.6942 40.1857 19.5435L39.96 19.7609L39.6476 20.0611C39.267 20.4267 39.2689 21.0228 39.6502 21.389C40.032 21.7565 40.6524 21.7571 41.0323 21.3915L41.571 20.8739C42.795 19.6985 44.786 19.6985 46.0094 20.8733L46.3983 21.2352C46.775 21.5972 47.3896 21.5966 47.7682 21.2321C47.9515 21.0567 48.0524 20.8226 48.053 20.5737C48.0537 20.326 47.954 20.0919 47.7708 19.9171L47.3941 19.5441C47.3767 19.5269 47.3585 19.5111 47.3405 19.4953ZM45.2261 23.1538C45.2261 23.9813 44.5279 24.6522 43.6665 24.6522C42.8052 24.6522 42.107 23.9813 42.107 23.1538C42.107 22.3262 42.8052 21.6553 43.6665 21.6553C44.5279 21.6553 45.2261 22.3262 45.2261 23.1538ZM18.1901 27.0001H44.8098C47.3873 27.0001 49.5105 29.043 49.5 31.5581V47.9421C49.5 50.447 47.3873 52.5001 44.8098 52.5001H18.1901C15.6127 52.5001 13.5 50.447 13.5 47.9421V31.5581C13.5 29.0532 15.6127 27.0001 18.1901 27.0001ZM45.2746 49.6565C46.2148 49.6565 46.9753 48.9071 46.9753 48.0037V36.4753H16.4366V48.0037C16.4366 48.9174 17.2077 49.6565 18.1373 49.6565H45.2746ZM16.4366 32.1329H46.9753V31.5067C46.9753 30.5931 46.2042 29.854 45.2746 29.854H18.1373C17.1972 29.854 16.4366 30.6034 16.4366 31.5067V32.1329Z" fill="#030104"/>
<path d="M16.4248 32.1301H46.9948V36.6301H16.4248V32.1301Z" fill="#E53617"/>
</svg>
