<svg width="65" height="60" viewBox="0 0 65 60" fill="none" xmlns="http://www.w3.org/2000/svg">
<path fill-rule="evenodd" clip-rule="evenodd" d="M43.2099 13.5H60.5224C60.8504 13.5 61.1649 13.6304 61.3968 13.8626C61.6287 14.0947 61.759 14.4096 61.759 14.7379V43.2088H41.9733V14.7379C41.9733 14.4096 42.1035 14.0947 42.3355 13.8626C42.5674 13.6304 42.8819 13.5 43.2099 13.5ZM58.0492 29.5923C58.2938 29.5923 58.5329 29.5197 58.7362 29.3836C58.9396 29.2476 59.0981 29.0543 59.1917 28.8281C59.2853 28.6019 59.3097 28.353 59.262 28.1129C59.2143 27.8728 59.0965 27.6522 58.9236 27.4791C58.7507 27.306 58.5303 27.1881 58.2904 27.1403C58.0506 27.0926 57.8019 27.1171 57.576 27.2108C57.35 27.3045 57.1569 27.4631 57.021 27.6667C56.8851 27.8702 56.8126 28.1096 56.8126 28.3544C56.8126 28.6827 56.9429 28.9976 57.1748 29.2297C57.4067 29.4619 57.7212 29.5923 58.0492 29.5923Z" fill="#F1F1F1" fill-opacity="0.5"/>
<path d="M40.7365 44.2863H62.9955C63.3235 44.2863 63.638 44.4167 63.8699 44.6488C64.1018 44.881 64.2321 45.1958 64.2321 45.5241V46.762C64.2321 47.0903 64.1018 47.4051 63.8699 47.6373C63.638 47.8694 63.3235 47.9999 62.9955 47.9999H40.7365C40.4086 47.9999 40.094 47.8694 39.8621 47.6373C39.6302 47.4051 39.4999 47.0903 39.4999 46.762V45.5241C39.4999 45.1958 39.6302 44.881 39.8621 44.6488C40.094 44.4167 40.4086 44.2863 40.7365 44.2863Z" fill="#F1F1F1" fill-opacity="0.5"/>
<path d="M24.1913 58.875L12.4999 42L0.808594 58.875H24.1913Z" fill="#F1F1F1" fill-opacity="0.5"/>
<path fill-rule="evenodd" clip-rule="evenodd" d="M43.0477 21.3332C43.0477 23.9667 40.9053 26.1089 38.2727 26.1089C35.6399 26.1089 33.4983 23.9667 33.4983 21.3332C33.4983 18.7001 35.6399 16.5575 38.2727 16.5575C40.9054 16.5575 43.0477 18.7001 43.0477 21.3332ZM40.7862 21.3332C40.7862 19.9473 39.6582 18.8197 38.2727 18.8197C36.8872 18.8197 35.76 19.9473 35.76 21.3332C35.76 22.7195 36.8871 23.8466 38.2727 23.8466C39.6583 23.8466 40.7862 22.7195 40.7862 21.3332Z" fill="#262629"/>
<path fill-rule="evenodd" clip-rule="evenodd" d="M45.5599 32.1897H51.8419C52.8814 32.1897 53.7268 33.0349 53.7266 34.075V46.9265C53.7266 47.9665 52.8814 48.8118 51.8419 48.8118H49.8313V50.6146C49.8313 51.6544 48.9863 52.4999 47.9467 52.4999H44.1781C43.1385 52.4999 42.2933 51.6544 42.2933 50.6146V48.8118H21.1844V50.6146C21.1844 51.6544 20.3392 52.4999 19.2997 52.4999H15.531C14.4915 52.4999 13.6463 51.6544 13.6463 50.6146V48.8118H11.3847C10.3452 48.8118 9.5 47.9665 9.5 46.9265V34.075C9.5 33.0349 10.3452 32.1897 11.3847 32.1897H16.8307C17.5989 30.8471 18.9528 29.924 20.4786 29.7031C20.4069 29.2837 20.6339 28.8036 21.1842 28.8036C21.7346 28.8036 21.9624 29.2837 21.8898 29.7031C23.4149 29.9242 24.7694 30.8479 25.537 32.1897H30.9853V28.3935C30.9853 27.3536 31.8305 26.5082 32.87 26.5082H43.6753C44.7149 26.5082 45.5599 27.3536 45.5599 28.3935V32.1897ZM47.5699 46.5496H51.465L51.4652 34.452H24.0386L23.764 33.7167C23.3546 32.62 22.3424 31.912 21.185 31.912C20.0442 31.912 19.0085 32.6366 18.6061 33.7159L18.3314 34.452H11.7616V46.5496H15.908V50.2375H18.9227V46.5496H44.5552V50.2375H47.5699V46.5496ZM43.2985 28.7706H33.2471V32.1897H43.2985V28.7706Z" fill="#262629"/>
<path d="M43.3201 21.5368C43.3201 24.3185 41.0657 26.5735 38.2848 26.5735C35.5039 26.5735 33.2495 24.3185 33.2495 21.5368C33.2495 18.755 35.5039 16.5 38.2848 16.5C41.0657 16.5 43.3201 18.755 43.3201 21.5368Z" fill="#E53617"/>
</svg>
