<svg width="61" height="60" viewBox="0 0 61 60" fill="none" xmlns="http://www.w3.org/2000/svg">
<path d="M33.8252 12.2522L41.2783 20.4367C42.0908 19.8956 43.0661 19.5787 44.116 19.5787C44.1419 19.5787 44.1674 19.5806 44.1929 19.5824C44.2147 19.584 44.2365 19.5856 44.2583 19.586C44.7867 19.6009 45.2946 19.6945 45.7715 19.857C46.544 20.1207 47.2334 20.5602 47.7904 21.1329C48.1483 21.5 48.4487 21.9212 48.6835 22.382C49.0376 23.0771 49.2417 23.8616 49.2417 24.6951C49.2417 25.6817 48.9571 26.5998 48.4722 27.3813L54.5815 32.5631C55.1845 32.1036 55.9349 31.8283 56.7513 31.8283C58.7319 31.8283 60.3379 33.4327 60.3379 35.4105C60.3379 37.388 58.7319 38.9915 56.7513 38.9915C54.7699 38.9915 53.1638 37.388 53.1638 35.4105C53.1638 34.8034 53.3164 34.2321 53.5836 33.7309L47.4774 28.552C46.5761 29.3344 45.4029 29.8114 44.1156 29.8114C43.6281 29.8114 43.159 29.7387 42.712 29.6119L40.1986 35.1085C41.0678 35.762 41.6324 36.7984 41.6324 37.9688C41.6324 39.9462 40.0264 41.5497 38.0463 41.5497C36.0648 41.5497 34.4584 39.9462 34.4584 37.9688C34.4584 35.9909 36.0648 34.387 38.0463 34.387C38.3058 34.387 38.558 34.4155 38.8018 34.4683L41.3149 28.9752C40.2169 28.2571 39.4123 27.1296 39.1182 25.8096L28.5955 26.535C28.3322 27.9623 27.0811 29.0438 25.5753 29.0438C23.8763 29.0438 22.5 27.6696 22.5 25.9751C22.5 24.2793 23.8763 22.9043 25.5753 22.9043C26.9328 22.9043 28.0825 23.785 28.4894 25.0038L39.0137 24.2781C39.0998 23.2175 39.5068 22.2483 40.1412 21.4694L32.6883 13.2847C32.2601 13.5102 31.7734 13.6395 31.2557 13.6395C29.5564 13.6395 28.18 12.2658 28.18 10.5704C28.18 8.87502 29.5568 7.5 31.2557 7.5C32.9533 7.5 34.3293 8.87502 34.3293 10.5704C34.3293 11.192 34.143 11.7689 33.8252 12.2522Z" fill="#F1F1F1" fill-opacity="0.5"/>
<path d="M56.7508 19.7794C55.6536 19.7794 54.659 19.3459 53.9236 18.6457L48.6835 22.382C48.4487 21.9212 48.1483 21.5 47.7904 21.1329L53.03 17.3966C52.7884 16.8758 52.6508 16.2981 52.6508 15.6867C52.6508 13.4264 54.4865 11.5931 56.7508 11.5931C59.0148 11.5931 60.85 13.4264 60.85 15.6867C60.85 17.9471 59.0148 19.7794 56.7508 19.7794Z" fill="#F1F1F1" fill-opacity="0.5"/>
<path d="M48.7682 13.1285C48.7682 14.43 47.7911 15.4927 46.5311 15.6535L45.7715 19.857C45.2946 19.6945 44.7867 19.6009 44.2583 19.586L45.0184 15.3817C44.2045 14.9532 43.6437 14.1105 43.6437 13.1285C43.6437 11.7157 44.7913 10.5699 46.2064 10.5699C47.6215 10.5699 48.7682 11.7157 48.7682 13.1285Z" fill="#F1F1F1" fill-opacity="0.5"/>
<path d="M11.4 39C10.0745 39 9 40.0745 9 41.4V57.6C9 58.9255 10.0745 60 11.4 60H21.6C22.9255 60 24 58.9255 24 57.6V41.4C24 40.0745 22.9255 39 21.6 39H11.4Z" fill="#F1F1F1" fill-opacity="0.5"/>
<path fill-rule="evenodd" clip-rule="evenodd" d="M29.766 38.8031H23.5215C20.3962 38.8031 17.8531 36.4519 17.8531 33.5628C17.8531 30.8763 20.0509 28.6567 22.8702 28.3563C23.7572 24.9722 27.1015 22.5 30.9495 22.5C33.9771 22.5 36.7762 24.0337 38.2227 26.4465C41.5266 26.8459 44.0458 29.4602 44.0458 32.5928C44.0458 36.0164 41.0265 38.8031 37.3167 38.8031H31.7348V43.5136H33.7034C34.97 43.5136 36.0003 44.5213 36.0003 45.7602V47.2618H45.5156C46.059 47.2618 46.5 47.6932 46.5 48.2247C46.5 48.7562 46.059 49.1875 45.5156 49.1875H36.0003V50.2534C36.0003 51.4922 34.97 52.5 33.7034 52.5H27.7971C26.5305 52.5 25.5002 51.4922 25.5002 50.2534V49.1875H15.9844C15.441 49.1875 15 48.7562 15 48.2247C15 47.6932 15.441 47.2618 15.9844 47.2618H25.5002V45.7602C25.5002 44.5213 26.5305 43.5136 27.7971 43.5136H29.766V38.8031ZM30.9495 24.2468C27.7135 24.2468 24.9359 26.4302 24.4894 29.3263C24.4227 29.7537 24.0477 30.0693 23.606 30.0693C21.3808 30.0693 19.639 31.6367 19.639 33.5628C19.639 35.4889 21.3808 37.0563 23.5215 37.0563H37.3167C40.0431 37.0563 42.26 35.0534 42.26 32.5928C42.26 30.2323 40.2229 28.2794 37.6215 28.1478C37.3 28.1315 37.0119 27.9476 36.869 27.6657C35.8094 25.5883 33.4854 24.2468 30.9495 24.2468ZM27.7971 45.4392C27.616 45.4392 27.469 45.583 27.469 45.7602V50.2534C27.469 50.4306 27.616 50.5743 27.7971 50.5743H33.7034C33.8846 50.5743 34.0316 50.4306 34.0316 50.2534V45.7602C34.0316 45.583 33.8846 45.4392 33.7034 45.4392H27.7971Z" fill="#262629"/>
<circle cx="45.75" cy="48" r="3.75" fill="#E53617"/>
</svg>
