<svg width="60" height="60" fill="none" xmlns="http://www.w3.org/2000/svg"><path d="M0 37.04c0-1.387 1.182-2.51 2.64-2.51h14.92c1.459 0 2.641 1.123 2.641 2.51v20.45c0 1.386-1.182 2.51-2.64 2.51H2.64C1.182 60 0 58.876 0 57.49V37.04zM30 5.788C30 3.42 32.02 1.5 34.513 1.5h16.474c2.492 0 4.513 1.92 4.513 4.288v38.307c0 2.368-2.02 4.288-4.513 4.288H34.513c-2.492 0-4.513-1.92-4.513-4.288V5.788z" fill="#F1F1F1" fill-opacity=".5"/><path d="M42.029 21.429H18.143A3.146 3.146 0 0015 24.572v23.885a3.146 3.146 0 003.143 3.143h23.886a3.146 3.146 0 003.142-3.143V24.571a3.146 3.146 0 00-3.142-3.142zm.628 3.143v10.685H31.343V23.943h10.686a.63.63 0 01.628.628zm-24.514-.629h10.686v11.314H17.514V24.572a.63.63 0 01.629-.629zm-.629 24.514V37.772H28.83v11.314H18.143a.63.63 0 01-.629-.629zm24.515.629H31.343V37.772h11.314v10.685a.63.63 0 01-.628.629z" fill="#262629"/><path d="M31.275 23.85H42.25a.5.5 0 01.5.5v10.975H31.275V23.85z" fill="#E53617"/></svg>