<svg width="60" height="60" fill="none" xmlns="http://www.w3.org/2000/svg"><path fill-rule="evenodd" clip-rule="evenodd" d="M58.058 14.04c-.001-.94-.315-1.839-.873-2.502-.557-.664-1.313-1.037-2.102-1.038H41.25c-.788.001-1.544.374-2.102 1.038-.557.663-.871 1.563-.872 2.501v2.917h19.783v-2.917zm-7.473.813h-4.838a.763.763 0 01-.583-.287 1.082 1.082 0 01-.241-.693c0-.26.087-.51.241-.693a.764.764 0 01.583-.287h4.838c.218 0 .428.103.583.287.154.184.24.433.24.693 0 .26-.086.51-.24.693a.763.763 0 01-.583.287zM38.273 42.96c0 .465.077.925.226 1.355.15.43.369.82.645 1.149a3 3 0 00.965.767c.361.177.748.269 1.139.269h13.834c.39 0 .778-.092 1.139-.27.36-.177.689-.438.965-.766.276-.33.495-.72.644-1.149.15-.43.227-.89.227-1.355v-2.13H38.273v2.13zm9.9-.193h.008a.765.765 0 01.58.29c.154.183.24.433.24.692 0 .26-.088.509-.242.692a.764.764 0 01-.582.286.763.763 0 01-.582-.286 1.082 1.082 0 01-.242-.692c0-.26.085-.509.24-.693a.765.765 0 01.58-.29z" fill="#F1F1F1" fill-opacity=".5"/><path d="M58.183 18.074H38.3v22.02h19.883v-22.02zM23.47 47.988a9.497 9.497 0 11-18.993 0 9.497 9.497 0 0118.994 0z" fill="#F1F1F1" fill-opacity=".5"/><path d="M42.142 36c-2.403 0-4.358-1.8-4.358-4.014v-5.61c0-.482.425-.876.95-.876h6.815c.524 0 .951.392.951.876v5.612C46.498 34.2 44.545 36 42.142 36zm-17.974 0c-2.573 0-4.668-1.928-4.668-4.299v-5.325c0-.482.425-.876.95-.876h7.434c.524 0 .951.392.951.876v5.325c0 2.37-2.094 4.3-4.668 4.3z" fill="#E53617"/><path d="M42.625 37.373c-2.964 0-5.375-2.292-5.375-5.111v-7.148c0-.615.525-1.114 1.172-1.114H45.3c1.489 0 2.7 1.152 2.7 2.57v5.692c0 2.819-2.411 5.111-5.375 5.111zM39.594 26.23v6.033c0 1.59 1.359 2.882 3.03 2.882 1.673 0 3.032-1.292 3.032-2.882V26.57a.35.35 0 00-.356-.34h-5.706z" fill="#262629"/><path d="M33.836 37.373c-3.175 0-5.757-2.456-5.757-5.475v-6.784c0-.615.525-1.114 1.171-1.114h9.172c.647 0 1.172.5 1.172 1.114v6.784c0 3.019-2.584 5.475-5.758 5.475zM30.422 26.23v5.669c0 1.789 1.532 3.246 3.414 3.246 1.883 0 3.414-1.456 3.414-3.246v-5.67h-6.828z" fill="#262629"/><path d="M24.664 37.373c-3.174 0-5.758-2.456-5.758-5.475v-6.784c0-.615.525-1.114 1.172-1.114h9.172c.647 0 1.172.5 1.172 1.114v6.784c0 3.019-2.583 5.475-5.758 5.475zM21.25 26.23v5.669c0 1.789 1.53 3.246 3.414 3.246 1.883 0 3.415-1.456 3.415-3.246l-.001-5.67H21.25z" fill="#262629"/><path d="M15.875 37.373c-2.964 0-5.375-2.292-5.375-5.111v-5.693c0-1.417 1.21-2.569 2.7-2.569h6.878c.647 0 1.172.5 1.172 1.114v7.148c0 2.819-2.411 5.111-5.375 5.111zM13.2 26.23a.349.349 0 00-.356.34v5.693c0 1.59 1.36 2.882 3.03 2.882 1.671 0 3.032-1.292 3.032-2.882V26.23H13.2zm32.066 23.03H13.235c-1.508 0-2.735-1.166-2.735-2.6v-6.687c0-.615.525-1.114 1.172-1.114.647 0 1.172.5 1.172 1.114v6.687c0 .205.175.371.39.371h32.032c.215 0 .39-.166.39-.371v-6.687c0-.615.525-1.114 1.172-1.114.647 0 1.172.5 1.172 1.114v6.687c0 1.434-1.227 2.6-2.734 2.6z" fill="#262629"/><path d="M46.828 44.06H11.672c-.647 0-1.172-.5-1.172-1.115s.525-1.114 1.172-1.114h35.156c.647 0 1.172.499 1.172 1.114 0 .615-.525 1.115-1.172 1.115zM34.328 54H24.172c-.474 0-.902-.272-1.083-.688a1.074 1.074 0 01.255-1.214c1.626-1.547 1.976-3.794 1.98-3.814.084-.611.679-1.046 1.313-.96.642.08 1.094.64 1.01 1.25-.013.087-.23 1.583-1.163 3.197h5.505c-.924-1.605-1.153-3.102-1.166-3.19-.089-.61.358-1.171 1-1.257.652-.086 1.231.34 1.322.95.011.066.362 2.182 1.85 3.695a1.1 1.1 0 01.505.917c0 .615-.525 1.114-1.172 1.114z" fill="#262629"/></svg>