<svg width="60" height="60" fill="none" xmlns="http://www.w3.org/2000/svg"><path fill-rule="evenodd" clip-rule="evenodd" d="M43.594 13.661l10.297 6.2v-.011c.131.079.246.184.338.31a1.274 1.274 0 01.086 1.342 1.195 1.195 0 01-.295.356 1.093 1.093 0 01-1.273.09l-1.716-1.025v24.548c0 .48-.18.94-.503 1.28a1.67 1.67 0 01-1.213.53H45.31v-6.84a.833.833 0 00-.225-.567.752.752 0 00-.249-.172.721.721 0 00-.292-.057H41.5a.75.75 0 00-.541.229.801.801 0 00-.226.567v6.84H36.73a1.64 1.64 0 01-.66-.14 1.715 1.715 0 01-.558-.395 1.803 1.803 0 01-.371-.59 1.897 1.897 0 01-.127-.697V20.923l-1.717 1.026a1.091 1.091 0 01-.849.09 1.156 1.156 0 01-.672-.556 1.264 1.264 0 01-.12-.89c.07-.302.248-.564.497-.731l10.298-6.2a1.1 1.1 0 011.144 0zm-2.052 13.966a1.24 1.24 0 00.336-.853v-1.207c0-.32-.121-.626-.336-.852a1.115 1.115 0 00-.809-.354c-.303 0-.594.127-.809.354a1.24 1.24 0 00-.335.852v1.207c0 .32.12.627.335.853.215.226.506.353.81.353.303 0 .594-.127.808-.353zm4.577 0a1.24 1.24 0 00.335-.853v-1.207c0-.32-.12-.626-.335-.852a1.115 1.115 0 00-.809-.354c-.303 0-.594.127-.809.354a1.24 1.24 0 00-.335.852v1.207c0 .32.12.627.335.853.215.226.506.353.81.353.303 0 .594-.127.808-.353zm-12.25-2.06v19.904c.004.654.209 1.289.584 1.81h-1.728c-.91 0-1.784-.381-2.427-1.06a3.721 3.721 0 01-1.006-2.559v-12.57l-.572.35c-.264.16-.577.203-.871.12a1.158 1.158 0 01-.696-.566 1.269 1.269 0 01-.113-.919c.08-.31.272-.574.536-.734l6.293-3.775zm24.599 3.776l-6.293-3.775V45.47a3.136 3.136 0 01-.584 1.81h1.728c.91 0 1.783-.381 2.427-1.06a3.721 3.721 0 001.006-2.559v-12.57l.572.35a1.108 1.108 0 00.871.12c.146-.042.282-.113.401-.21.12-.097.22-.218.295-.356a1.256 1.256 0 00.113-.919 1.238 1.238 0 00-.199-.423 1.166 1.166 0 00-.337-.31zm-42.876 30.34a8.092 8.092 0 100-16.183 8.092 8.092 0 000 16.184z" fill="#F1F1F1" fill-opacity=".5"/><path d="M43.154 37.935V34.73c0-.558-.413-1.01-.923-1.01-1.906 0-3.684.175-5.363.535a8.197 8.197 0 00-3.464-2.197c1.409-1.299 2.306-3.244 2.306-5.414 0-3.939-2.898-7.143-6.46-7.143s-6.46 3.204-6.46 7.143c0 2.17.897 4.115 2.306 5.414a8.198 8.198 0 00-3.464 2.197c-1.68-.36-3.457-.536-5.364-.536-.51 0-.922.453-.922 1.01v3.207c-1.074.417-1.846 1.54-1.846 2.858v2.022c0 1.318.772 2.441 1.846 2.858v3.207c0 .558.413 1.01.922 1.01 4.826 0 8.788 1.252 12.47 3.941a.86.86 0 001.024 0c3.682-2.689 7.644-3.94 12.47-3.94.51 0 .922-.453.922-1.011v-3.207c1.074-.417 1.846-1.54 1.846-2.858v-2.021c0-1.318-.772-2.442-1.846-2.859zM24.636 26.643c0-2.824 2.07-5.121 4.614-5.121s4.614 2.297 4.614 5.12c0 2.788-2.07 5.055-4.614 5.055s-4.614-2.267-4.614-5.054zm-8.367 17.183c-.51 0-.923-.454-.923-1.01v-2.023c0-.557.414-1.01.922-1.01.51 0 .923.453.923 1.01v2.022c0 .557-.414 1.01-.922 1.01zm12.058 7.35c-3.35-2.098-6.945-3.159-11.136-3.293v-2.21c1.075-.417 1.846-1.54 1.846-2.858v-2.021c0-1.318-.771-2.442-1.846-2.859v-2.181c4.337.136 7.822 1.255 11.136 3.566v11.856zm.923-13.608a21.086 21.086 0 00-5.37-2.703 6.074 6.074 0 013.524-1.147h3.692c1.259 0 2.483.407 3.523 1.147a21.086 21.086 0 00-5.37 2.703zm12.059 10.315c-4.191.134-7.786 1.195-11.136 3.294V39.32c3.314-2.312 6.8-3.43 11.136-3.567v2.181c-1.075.417-1.846 1.54-1.846 2.858v2.022c0 1.318.771 2.441 1.846 2.858v2.21zm1.845-5.068c0 .557-.414 1.01-.923 1.01-.509 0-.922-.453-.922-1.01v-2.021c0-.558.413-1.011.922-1.011.51 0 .923.453.923 1.01v2.022z" fill="#262629"/><circle cx="29.175" cy="26.25" fill="#E53617" r="7.125"/></svg>