<svg width="60" height="60" fill="none" xmlns="http://www.w3.org/2000/svg"><path fill-rule="evenodd" clip-rule="evenodd" d="M40.627 21.565c.058.025.12.052.183.072a.812.812 0 00.115.047c.18.08.384.148.61.225l.123.04c.049.017.114.032.18.048h.016c.114.047.244.078.375.11.277.078.57.14.863.203a8.245 8.245 0 00.261.047c.212.047.424.078.652.11.13.031.261.047.408.047-.128-.02-.25-.044-.374-.068l-.184-.035c.94.165 1.943.286 3.003.338.177 0 .358.003.541.007.188.004.377.008.567.008.19 0 .379-.004.566-.008.184-.004.365-.007.542-.007a24.069 24.069 0 003.003-.338l-.17.032c-.128.025-.255.05-.388.07.147 0 .277-.015.408-.046.228-.032.44-.063.651-.11a8.245 8.245 0 01.261-.047c.294-.063.587-.125.864-.203.13-.032.261-.063.375-.11h.016c.066-.016.13-.031.18-.047.277-.078.521-.172.733-.266.049-.016.082-.032.114-.047.063-.02.126-.047.184-.071.033-.014.064-.028.093-.039 1.32-.485 2.364-1.096 3.048-1.738.114-.094.212-.188.294-.298-1.614-2.051-6.227-2.99-10.774-2.99-4.548 0-9.16.939-10.774 2.99.082.11.18.204.294.298.684.642 1.727 1.253 3.047 1.738.03.011.06.024.093.038zm.803.275a4.635 4.635 0 01-.273-.083c.13.04.263.077.396.114l.184.052-.138-.037a8.137 8.137 0 01-.17-.046zm12.946.032c.134-.037.268-.075.398-.114a4.599 4.599 0 01-.272.082c-.053.016-.11.03-.168.046a9.822 9.822 0 00-.139.037l.181-.05zm-11.153.422a3.672 3.672 0 01-.166-.04 4.122 4.122 0 00-.147-.037l.166.038c.119.027.237.054.36.078l-.092-.016a3.81 3.81 0 01-.121-.023zm9.486 0a5.729 5.729 0 01-.118.022l-.101.019c.125-.025.246-.053.367-.08l.165-.038-.148.037a3.672 3.672 0 01-.165.04zm3.407 2.265c-.05.032-.114.047-.18.063-.016.008-.028.012-.04.016-.013.004-.025.007-.041.015-1.271.423-2.69.736-4.238.94-.303.047-.62.07-.937.093-.14.01-.28.02-.42.033l-.062.006c-.049.004-.097.009-.146.009-.26.031-.554.047-.83.047-.408.016-.832.031-1.256.031-.424 0-.848-.015-1.271-.031-.228 0-.457-.016-.669-.031a12.297 12.297 0 01-1.092-.095 30.18 30.18 0 01-1.32-.156 22.651 22.651 0 00-.559-.1c-.218-.04-.435-.077-.647-.12a22.476 22.476 0 01-2.266-.61.062.062 0 00-.018-.015.204.204 0 00-.007-.001h-.007a1.066 1.066 0 01-.294-.094c-1.238-.422-2.347-.94-3.26-1.55v2.803c0 .58.327 1.175.93 1.723.114.125.244.235.39.329.718.563 1.712 1.096 2.918 1.519.033.015.082.031.13.047.262.11.571.219.93.313.44.14.929.266 1.5.36.374.078.75.141 1.173.188a22.25 22.25 0 002.233.188c.391.015.799.031 1.206.031.408 0 .815-.016 1.206-.031a22.376 22.376 0 002.233-.188c.424-.047.799-.11 1.174-.188.57-.094 1.06-.22 1.5-.36a6.91 6.91 0 00.928-.313 1.22 1.22 0 00.13-.047c1.207-.423 2.201-.956 2.918-1.52.147-.093.277-.203.391-.328.604-.548.93-1.143.93-1.723V23.01c-.913.61-2.022 1.128-3.26 1.55zm-.002 7.832h.002c.7-.236 1.336-.502 1.94-.8.472-.235.928-.485 1.32-.751v2.803c0 .266-.066.532-.212.814-.978 1.973-5.444 3.884-11.198 3.884-5.754 0-10.22-1.91-11.197-3.884a1.732 1.732 0 01-.212-.814V30.84c.39.266.847.517 1.32.751.603.298 1.239.564 1.94.8a.242.242 0 00.114.03 21.5 21.5 0 002.9.768c.473.094.946.172 1.451.235h.017c.024 0 .049.004.073.008.025.003.049.007.074.007h.016c.065.016.13.016.195.016a.284.284 0 00.114.016c.359.047.734.078 1.109.094l.472.023h.005l.468.024c.375.03.75.03 1.141.03a30.108 30.108 0 001.866-.054c.057-.004.114-.008.172-.008h.016c.391-.031.782-.062 1.157-.11h.033a.638.638 0 00.09-.007c.028-.004.056-.008.089-.008.016-.016.032-.016.049-.016h.065c.025 0 .053-.004.081-.008.029-.003.057-.007.082-.007.04-.008.086-.012.13-.016.045-.004.09-.008.13-.016.392-.062.767-.125 1.142-.188.016-.015.032-.015.065-.015a21.318 21.318 0 002.885-.768.236.236 0 00.096-.03zm-8.148 9.082c-3.064 0-5.851-.454-8.15-1.253-1.238-.423-2.347-.94-3.26-1.55v4.369c0 3.241 5.738 4.698 11.41 4.698s11.41-1.457 11.41-4.698v-4.37c-.913.611-2.022 1.128-3.26 1.551-2.298.799-5.086 1.253-8.15 1.253zm-18.878 16.24L16.982 40.936 4.873 57.713h24.215z" fill="#F1F1F1" fill-opacity=".5"/><path fill-rule="evenodd" clip-rule="evenodd" d="M49.727 17.38l.324.312a.834.834 0 01-.002 1.21.918.918 0 01-1.26.003l-.46-.443c-2.594-2.354-6.677-2.34-9.25.05-.004.002-.006.006-.01.01v.002l-.586.561a.916.916 0 01-1.26-.003.831.831 0 01-.003-1.21l.585-.563a.224.224 0 01.026-.02l.022-.017c3.182-2.942 8.182-3.027 11.469-.254.051.032.1.069.145.111l.256.248c.002 0 .003.002.004.003zm-2.386 2.115l-.018-.015-.07-.064a.25.25 0 00-.04-.031c-2.016-1.76-5.103-1.69-7.027.159l-.226.217-.312.3a.914.914 0 00.002 1.328 1.006 1.006 0 001.382.003l.539-.518c1.224-1.175 3.215-1.175 4.438 0l.39.361a.997.997 0 001.37-.003.908.908 0 00.284-.658.898.898 0 00-.282-.657l-.377-.373-.053-.049zm-2.115 3.659c0 .827-.698 1.498-1.56 1.498-.86 0-1.559-.67-1.559-1.498s.698-1.499 1.56-1.499c.86 0 1.56.671 1.56 1.499zM18.19 27h26.62c2.577 0 4.7 2.043 4.69 4.558v16.384c0 2.505-2.113 4.558-4.69 4.558H18.19c-2.577 0-4.69-2.053-4.69-4.558V31.558c0-2.505 2.113-4.558 4.69-4.558zm27.085 22.657c.94 0 1.7-.75 1.7-1.653V36.475H16.437v11.529c0 .913.77 1.653 1.7 1.653h27.138zM16.437 32.133h30.538v-.626c0-.914-.77-1.653-1.7-1.653H18.137c-.94 0-1.7.75-1.7 1.653v.626z" fill="#030104"/><path d="M16.425 32.13h30.57v4.5h-30.57v-4.5z" fill="#E53617"/></svg>