<svg width="65" height="60" fill="none" xmlns="http://www.w3.org/2000/svg"><path fill-rule="evenodd" clip-rule="evenodd" d="M43.21 13.5h17.312a1.236 1.236 0 011.237 1.238v28.47H41.973v-28.47A1.238 1.238 0 0143.21 13.5zm14.84 16.092a1.235 1.235 0 001.212-1.48 1.238 1.238 0 00-1.686-.901 1.237 1.237 0 00-.401 2.019c.232.232.546.362.874.362z" fill="#F1F1F1" fill-opacity=".5"/><path d="M40.736 44.286h22.26a1.236 1.236 0 011.236 1.238v1.238A1.239 1.239 0 0162.996 48h-22.26a1.236 1.236 0 01-1.236-1.238v-1.238a1.239 1.239 0 011.236-1.238zM24.191 58.875L12.5 42 .809 58.875H24.19z" fill="#F1F1F1" fill-opacity=".5"/><path fill-rule="evenodd" clip-rule="evenodd" d="M43.048 21.333a4.78 4.78 0 01-4.775 4.776 4.78 4.78 0 01-4.775-4.776 4.78 4.78 0 014.775-4.775 4.781 4.781 0 014.775 4.775zm-2.262 0a2.517 2.517 0 00-2.513-2.513 2.516 2.516 0 00-2.513 2.513 2.516 2.516 0 002.513 2.514 2.516 2.516 0 002.513-2.514zM45.56 32.19h6.282c1.04 0 1.885.845 1.885 1.885v12.851c0 1.04-.846 1.886-1.885 1.886h-2.01v1.803c0 1.04-.846 1.885-1.885 1.885h-3.769a1.887 1.887 0 01-1.885-1.885v-1.803H21.184v1.803c0 1.04-.845 1.885-1.884 1.885h-3.77a1.887 1.887 0 01-1.885-1.885v-1.803h-2.261A1.887 1.887 0 019.5 46.926V34.075c0-1.04.845-1.885 1.885-1.885h5.446a5.054 5.054 0 013.648-2.487c-.072-.42.155-.9.705-.9.55 0 .778.48.706.9a5.055 5.055 0 013.647 2.487h5.448v-3.796c0-1.04.846-1.886 1.885-1.886h10.805c1.04 0 1.885.846 1.885 1.886v3.796zm2.01 14.36h3.895V34.452H24.04l-.275-.735a2.737 2.737 0 00-2.579-1.805 2.77 2.77 0 00-2.579 1.804l-.275.736h-6.57V46.55h4.147v3.688h3.015V46.55h25.632v3.688h3.015V46.55zm-4.272-17.78h-10.05v3.42h10.05v-3.42z" fill="#262629"/><path d="M43.32 21.537a5.036 5.036 0 11-5.035-5.037 5.036 5.036 0 015.035 5.037z" fill="#E53617"/></svg>