<svg width="61" height="60" fill="none" xmlns="http://www.w3.org/2000/svg"><path d="M33.825 12.252l7.453 8.185a5.102 5.102 0 012.838-.858c.026 0 .051.002.077.003a.73.73 0 00.065.004 5.123 5.123 0 014.983 5.11c0 .986-.284 1.904-.769 2.685l6.11 5.182a3.585 3.585 0 015.756 2.847 3.584 3.584 0 01-3.587 3.582 3.584 3.584 0 01-3.587-3.581c0-.608.152-1.179.42-1.68l-6.107-5.179a5.11 5.11 0 01-4.765 1.06l-2.513 5.497a3.571 3.571 0 011.433 2.86 3.584 3.584 0 01-3.586 3.58 3.585 3.585 0 01-3.588-3.58 3.585 3.585 0 014.344-3.5l2.513-5.494a5.119 5.119 0 01-2.197-3.165l-10.523.725a3.07 3.07 0 01-3.02 2.509 3.072 3.072 0 01-3.075-3.069 3.073 3.073 0 015.99-.971l10.524-.726a5.089 5.089 0 011.127-2.809l-7.453-8.184a3.072 3.072 0 01-4.508-2.714A3.073 3.073 0 0131.256 7.5a3.072 3.072 0 013.073 3.07 3.05 3.05 0 01-.504 1.682z" fill="#F1F1F1" fill-opacity=".5"/><path d="M56.75 19.78a4.088 4.088 0 01-2.826-1.134l-5.24 3.736a5.112 5.112 0 00-.894-1.25l5.24-3.735a4.05 4.05 0 01-.38-1.71 4.097 4.097 0 014.1-4.094c2.265 0 4.1 1.833 4.1 4.094a4.096 4.096 0 01-4.1 4.092zm-7.982-6.651a2.55 2.55 0 01-2.237 2.524l-.76 4.204a5.131 5.131 0 00-1.513-.271l.76-4.204a2.546 2.546 0 01-1.374-2.253 2.561 2.561 0 012.562-2.56 2.56 2.56 0 012.562 2.56zM11.4 39A2.4 2.4 0 009 41.4v16.2a2.4 2.4 0 002.4 2.4h10.2a2.4 2.4 0 002.4-2.4V41.4a2.4 2.4 0 00-2.4-2.4H11.4z" fill="#F1F1F1" fill-opacity=".5"/><path fill-rule="evenodd" clip-rule="evenodd" d="M29.766 38.803h-6.244c-3.126 0-5.669-2.351-5.669-5.24 0-2.687 2.198-4.906 5.017-5.207.887-3.384 4.232-5.856 8.08-5.856 3.027 0 5.826 1.534 7.273 3.947 3.304.399 5.823 3.013 5.823 6.146 0 3.423-3.02 6.21-6.73 6.21h-5.581v4.71h1.968c1.267 0 2.297 1.008 2.297 2.247v1.502h9.516c.543 0 .984.431.984.963a.974.974 0 01-.984.962H36v1.066c0 1.24-1.03 2.247-2.297 2.247h-5.906c-1.267 0-2.297-1.008-2.297-2.247v-1.066h-9.516a.974.974 0 01-.984-.962c0-.532.441-.963.984-.963H25.5V45.76c0-1.239 1.03-2.246 2.297-2.246h1.969v-4.71zm1.184-14.556c-3.236 0-6.014 2.183-6.46 5.08a.888.888 0 01-.884.742c-2.225 0-3.967 1.568-3.967 3.494 0 1.926 1.742 3.493 3.883 3.493h13.795c2.726 0 4.943-2.003 4.943-4.463 0-2.36-2.037-4.314-4.639-4.445a.892.892 0 01-.752-.482c-1.06-2.078-3.384-3.42-5.92-3.42zm-3.153 21.192a.325.325 0 00-.328.321v4.493c0 .178.147.321.328.321h5.906a.325.325 0 00.329-.32V45.76a.325.325 0 00-.329-.32h-5.906z" fill="#262629"/><circle cx="45.75" cy="48" r="3.75" fill="#E53617"/></svg>