<svg width="209" height="209" fill="none" xmlns="http://www.w3.org/2000/svg"><g opacity=".08"><path d="M6.566 30.73C.51 24.675.51 14.822 6.566 8.77L8.77 6.567a15.42 15.42 0 0110.978-4.541c4.152 0 8.052 1.613 10.98 4.54l156.707 156.706a15.417 15.417 0 014.54 10.979c0 4.153-1.611 8.052-4.54 10.979l-2.206 2.205c-6.053 6.056-15.904 6.056-21.957 0L6.566 30.729zM174.252 194c4.693 0 9.101-1.823 12.412-5.131l2.205-2.207c6.842-6.843 6.84-17.979 0-24.824L32.162 5.133C28.852 1.823 24.443 0 19.749 0A17.436 17.436 0 007.338 5.133L5.13 7.338C1.822 10.648 0 15.056 0 19.75c0 4.694 1.822 9.102 5.131 12.412L161.84 188.87a17.445 17.445 0 0012.412 5.13z" fill="#fff" fill-opacity=".6"/><path d="M6.565 8.77C.51 14.823.51 24.677 6.565 30.73l156.708 156.705c6.053 6.055 15.904 6.055 21.957 0l2.206-2.205a15.417 15.417 0 004.54-10.98c0-4.152-1.611-8.051-4.54-10.979L30.729 6.565a15.424 15.424 0 00-10.98-4.54 15.42 15.42 0 00-10.978 4.54L6.565 8.77zm180.099 180.098A17.445 17.445 0 01174.252 194a17.446 17.446 0 01-12.413-5.132L5.132 32.162C1.822 28.852 0 24.444 0 19.75c0-4.694 1.822-9.103 5.132-12.412l2.206-2.205A17.436 17.436 0 0119.75 0c4.694 0 9.103 1.824 12.412 5.133L188.87 161.838c6.84 6.846 6.842 17.981 0 24.824l-2.205 2.206z"/></g><path d="M203.728 178.272c7.029 7.028 7.029 18.427 0 25.456s-18.427 7.029-25.456 0-7.029-18.428 0-25.456c7.029-7.029 18.427-7.029 25.456 0z" fill="#F0C900"/></svg>