<svg width="223" height="223" fill="none" xmlns="http://www.w3.org/2000/svg"><g opacity=".08"><path d="M102.999 2.237C47.439 2.237 2.237 47.44 2.237 103c0 55.561 45.201 100.763 100.762 100.763S203.763 158.561 203.763 103c0-55.561-45.203-100.763-100.764-100.763zm0 203.763C46.205 206 0 159.794 0 103S46.205 0 102.999 0C159.794 0 206 46.206 206 103s-46.206 103-103.001 103z" fill="#fff" fill-opacity=".6"/><path d="M102.999 2.237C47.439 2.237 2.237 47.439 2.237 103c0 55.561 45.201 100.763 100.762 100.763S203.763 158.561 203.763 103c0-55.561-45.203-100.763-100.764-100.763zm0 203.763C46.205 206 0 159.793 0 103S46.205 0 103 0c56.794 0 103 46.207 103 103s-46.206 103-103.001 103z"/></g><path d="M103 223v-38.02c45.204 0 81.981-36.777 81.981-81.98H223c0 66.167-53.833 120-120 120z" fill="#F0C900"/></svg>