<svg width="181" height="191" fill="none" xmlns="http://www.w3.org/2000/svg"><path opacity=".08" d="M158.663 58.941c5.807-5.807 14.955-6.665 21.743-2.034 7.793 5.32 9.809 15.988 4.492 23.785L103.797 199.59a17.016 17.016 0 01-10.96 7.172c-4.49.85-9.044-.101-12.82-2.677-7.795-5.318-9.812-15.986-4.495-23.781L156.62 61.407a17.372 17.372 0 012.043-2.466zm22.593-3.28c-8.486-5.78-20.092-3.59-25.878 4.895L74.277 179.453c-5.786 8.483-3.593 20.091 4.89 25.876a18.498 18.498 0 0013.95 2.913 18.483 18.483 0 0011.924-7.803l81.106-118.902c5.781-8.478 3.589-20.09-4.891-25.877z" fill="#fff" fill-opacity=".4"/><path d="M152.241 165.581c-7.435 7.435-7.435 19.534.001 26.969 7.435 7.436 19.534 7.437 26.97.002 7.435-7.436 7.434-19.536-.001-26.971-7.435-7.435-19.534-7.436-26.97 0zm40.986 40.986c-15.164 15.163-39.839 15.16-55-.002-15.164-15.163-15.164-39.836-.001-54.999 15.164-15.164 39.836-15.164 55 0 15.161 15.161 15.164 39.837.001 55.001z" fill="#15D16B"/><path d="M113.916 95.313c-4.845-4.844-4.846-12.699-.001-17.543 4.844-4.845 12.7-4.845 17.544 0 4.844 4.844 4.843 12.699-.001 17.543-4.845 4.844-12.698 4.844-17.542 0z" fill="#E53617"/><path d="M111.417 63.271a38.21 38.21 0 00-16.061-5.223c-21.09-1.965-39.781 13.539-41.746 34.63-1.966 21.089 13.539 39.779 34.628 41.745a38.188 38.188 0 0019.949-3.507l3.23-67.645z" fill="#175FE5"/></svg>