<svg width="296" height="342" fill="none" xmlns="http://www.w3.org/2000/svg"><path d="M141.27 57.79c-62.442 16.73-99.497 80.912-82.765 143.354 16.73 62.44 80.912 99.496 143.353 82.765L141.27 57.789z" fill="#E53617"/><path fill-rule="evenodd" clip-rule="evenodd" d="M202.127 291.03c-30.396 7.883-63.784 4.298-93.127-12.643C49.692 244.145 29.371 168.308 63.613 109c16.941-29.343 44.064-49.142 74.329-57.512l64.185 239.542zm.967-.255l-64.187-239.55c30.653-8.214 64.439-4.733 94.093 12.388C292.309 97.854 312.629 173.69 278.387 233c-17.12 29.654-44.64 49.561-75.293 57.775zm.259.965c30.9-8.279 58.642-28.347 75.9-58.24 34.518-59.787 14.034-136.236-45.753-170.753-29.893-17.26-63.952-20.768-94.852-12.488l-8.826-32.937-.966.259 8.827 32.94c-30.512 8.437-57.857 28.397-74.936 57.979C28.23 168.286 48.714 244.735 108.5 279.253c29.582 17.079 63.243 20.693 93.886 12.742l8.826 32.941.966-.258-8.825-32.938z" fill="#030404" fill-opacity=".08"/></svg>