<svg width="266" height="271" fill="none" xmlns="http://www.w3.org/2000/svg"><path opacity=".08" d="M158.663 58.478c5.807-5.808 14.955-6.666 21.743-2.034 7.793 5.319 9.809 15.988 4.492 23.784l-81.101 118.898a17.02 17.02 0 01-10.96 7.173 16.999 16.999 0 01-12.82-2.678c-7.795-5.318-9.812-15.985-4.495-23.781L156.62 60.944a17.367 17.367 0 012.043-2.466zm22.593-3.28c-8.486-5.782-20.092-3.591-25.878 4.894L74.277 178.99c-5.786 8.483-3.593 20.091 4.89 25.876a18.494 18.494 0 0013.95 2.914 18.49 18.49 0 0011.924-7.804l81.106-118.902c5.781-8.478 3.589-20.09-4.891-25.877z" fill="#fff" fill-opacity=".4"/><path d="M152.241 165.117c-7.435 7.436-7.435 19.534.001 26.97 7.435 7.435 19.534 7.436 26.97.001 7.435-7.436 7.434-19.535-.001-26.971-7.435-7.435-19.534-7.436-26.97 0zm40.986 40.986c-15.164 15.163-39.839 15.16-55-.001-15.164-15.164-15.164-39.837-.001-55 15.164-15.163 39.836-15.163 55 0 15.161 15.162 15.164 39.837.001 55.001z" fill="#15D16B"/><path d="M113.916 94.85c-4.845-4.845-4.846-12.7-.001-17.544 4.844-4.844 12.7-4.844 17.544 0 4.844 4.844 4.843 12.699-.001 17.543-4.845 4.845-12.698 4.845-17.542 0z" fill="#E53617"/><path d="M111.417 62.807a38.21 38.21 0 00-16.061-5.222C74.266 55.62 55.575 71.123 53.61 92.213c-1.966 21.091 13.539 39.781 34.628 41.747a38.179 38.179 0 0019.949-3.508l3.23-67.645z" fill="#175FE5"/></svg>