<svg width="1439" height="730" fill="none" xmlns="http://www.w3.org/2000/svg"><g clip-path="url(#clip0)"><path fill="#FDEBE8" d="M-1 0h1440v730H-1z"/><path d="M979.365 178.923c-2.22-37.212-35.004-65.531-73.249-63.259-38.232 2.284-67.428 34.294-65.208 71.507l138.457-8.248z" fill="#F95F8F"/><path opacity=".41" d="M996.39 183.776c-2.775-46.583-43.82-82.027-91.668-79.174-47.861 2.852-84.402 42.917-81.627 89.5l173.295-10.326z" stroke="#000" stroke-miterlimit="10"/><path opacity=".41" d="M1009 182.795c-3.14-52.611-49.498-92.65-103.555-89.435-54.056 3.213-95.334 48.48-92.197 101.09L1009 182.795z" stroke="#000" stroke-miterlimit="10"/><path d="M757.023 652.586a5.577 5.577 0 10-.001-11.153 5.577 5.577 0 00.001 11.153z" fill="#fff"/><path d="M244.418 359.484c8.686-3.652 15.992-10.609 19.826-20.006a14.515 14.515 0 017.847-7.938 14.498 14.498 0 0111.165-.065c18.793 7.667 40.31-1.381 47.99-20.174a14.513 14.513 0 017.848-7.938 14.498 14.498 0 0111.165-.065c5.679 2.324 12.171-.413 14.482-6.092 2.323-5.679-.413-12.171-6.093-14.482-18.793-7.667-40.309 1.381-47.989 20.174a14.516 14.516 0 01-7.848 7.938 14.494 14.494 0 01-11.165.065c-9.1-3.717-19.103-3.666-28.164.142s-16.095 10.92-19.813 20.019a14.513 14.513 0 01-7.848 7.938 14.491 14.491 0 01-11.164.065c-5.68-2.323-12.172.413-14.483 6.092-2.323 5.679.414 12.172 6.093 14.482 9.383 3.847 19.464 3.498 28.151-.155z" fill="#000"/><path d="M475.848 272.334l-181.633-97.8 30.849 203.963 150.784-106.163z" fill="#000"/><path d="M491.04 266.68l-181.633-97.799 30.836 203.976L491.04 266.68z" fill="#FBE54B"/><path d="M249.633 339.723c8.686-3.653 15.992-10.61 19.825-20.006a14.52 14.52 0 017.848-7.938 14.494 14.494 0 0111.165-.065c18.793 7.667 40.31-1.381 47.99-20.174a14.515 14.515 0 017.847-7.938 14.498 14.498 0 0111.165-.065c5.68 2.324 12.172-.413 14.483-6.092 2.323-5.679-.414-12.172-6.093-14.482-18.793-7.667-40.31 1.381-47.99 20.174a14.515 14.515 0 01-7.847 7.938 14.498 14.498 0 01-11.165.065c-9.1-3.718-19.103-3.666-28.164.142-9.061 3.807-16.096 10.919-19.813 20.019a14.513 14.513 0 01-7.848 7.938 14.498 14.498 0 01-11.165.065c-5.679-2.324-12.171.413-14.482 6.092-2.323 5.679.413 12.172 6.093 14.482 9.383 3.846 19.464 3.498 28.151-.155z" fill="#A7CC80"/><path d="M852.783 406.493l-14.121 6.441a1.82 1.82 0 01-2.401-.891l-6.44-14.12a1.82 1.82 0 01.89-2.401l14.121-6.441a1.82 1.82 0 012.401.891l6.44 14.12a1.804 1.804 0 01-.89 2.401z" fill="#F95F8F"/><path d="M1089.59 93.757c-44.46 46.17-43.06 119.639 3.11 164.092 46.17 44.453 119.64 43.059 164.09-3.111l-167.2-160.981z" fill="#000"/><path d="M1075.02 90.507c-44.45 46.17-43.06 119.639 3.11 164.092 46.17 44.453 119.64 43.059 164.1-3.111L1075.02 90.507z" fill="#A7CC80"/><path d="M957.23 604.314l-131.991.846.24 37.354 131.991-.846-.24-37.354z" fill="#000"/><path d="M964.033 587.882l-131.991.846.239 37.354 131.991-.846-.239-37.354z" fill="#F95F8F"/><path d="M15.35 270.266c8.584 7.163 17.464 11.862 26.409 13.953a47.585 47.585 0 0010.752 1.252c7.628 0 15.32-1.911 22.846-5.667 19.554-9.771 23.143-26.395 26.615-42.465 1.458-6.751 2.943-13.63 5.666-19.968a5.83 5.83 0 002.349-1.433 4.755 4.755 0 013.408-1.419c1.278 0 2.491.503 3.395 1.407l.09.09a5.72 5.72 0 004.079 1.678 5.705 5.705 0 004.04-1.652l.193-.181a4.81 4.81 0 016.764.026l.09.09a5.74 5.74 0 004.092 1.691 5.688 5.688 0 004.078-1.704 4.756 4.756 0 013.408-1.42 4.79 4.79 0 013.395 1.407l.142.142.684-.684-.142-.142a5.74 5.74 0 00-4.092-1.691 5.692 5.692 0 00-4.079 1.704 4.748 4.748 0 01-3.407 1.42 4.785 4.785 0 01-3.395-1.407l-.09-.09c-2.233-2.233-5.873-2.246-8.119-.026l-.194.181c-1.871 1.845-4.904 1.832-6.763-.026l-.09-.091a5.74 5.74 0 00-4.092-1.69 5.69 5.69 0 00-4.079 1.703 4.504 4.504 0 01-1.097.826c1.936-4.194 4.453-8.131 7.912-11.59 10.094-10.081 27.429-15.205 53.011-15.683 96.225-1.768 96.225-43.059 96.225-70.384v-.207h-.955v.207c0 26.951 0 67.674-95.283 69.416-25.841.478-43.407 5.692-53.682 15.954-3.807 3.807-6.492 8.131-8.506 12.752a4.785 4.785 0 01-4.44-1.291l-.064-.064a5.726 5.726 0 00-4.066-1.691 5.67 5.67 0 00-4.066 1.691l-.142.142.684.684.142-.142a4.784 4.784 0 013.395-1.407c1.278 0 2.491.503 3.394 1.407l.065.064a5.735 5.735 0 004.091 1.691c.194 0 .388-.013.581-.025-2.581 6.234-4.027 12.946-5.447 19.528-3.42 15.851-6.97 32.243-26.098 41.808-10.881 5.446-21.956 6.905-32.927 4.336-8.79-2.052-17.541-6.673-26.009-13.746C1.552 257.5-7.186 242.282-7.276 242.128l-.104-.181-.839.477.104.181c.103.155 8.854 15.463 23.465 27.661z" fill="#000"/><path d="M1264.83 679.068L1251 694.212l15.15 13.832 13.83-15.145-15.15-13.831z" fill="#FBE54B"/><path d="M1351.64 612.521l-33.07 1.498c-.72-15.941-14.27-28.319-30.21-27.597-15.94.723-28.32 14.276-27.6 30.217l-33.06 1.497c-1.54-34.166 24.99-63.22 59.16-64.769 34.18-1.549 63.23 24.988 64.78 59.154z" fill="#A7CC80"/><path d="M1331.39 565.099c-5.05-1.11-9.99-.012-15.1 3.356-12.48 8.235-7.86 19.349-2.02 33.418 4.95 11.913 10.99 26.447 8.2 43.769l-35.69 39.07-4.09-90.377-.01-.207-14.28.646 4.17 92.055.01.207 12.59-.568-33.06 36.192.71.645 33.7-36.902.33-.013-.02-.322 35.3-38.658c-2.19 11.268-8.17 23.698-20.61 37.315-11.55 12.65-15.44 24.163-11.55 34.205 5.96 15.398 29.43 24.563 48.07 29.532 20.15 5.369 39.08 7.151 39.27 7.177l.21.012.09-.955-.21-.013c-.74-.064-75.36-7.279-86.53-36.102-3.74-9.667.08-20.845 11.37-33.197 13.18-14.431 19.21-27.532 21.17-39.355l41.02-44.905c1.85 2.93 3.69 5.925 5.55 8.945 18.83 30.539 40.17 65.156 72.28 63.698l.21-.013-.04-.968-.2.013c-31.55 1.433-52.73-32.927-71.42-63.246-1.94-3.137-3.83-6.209-5.69-9.178l6.27-6.866-.71-.646-6.09 6.673c-11.18-17.734-21.45-31.855-33.2-34.437zm32.51 35.186l-40.22 44.04c2.26-16.883-3.65-31.107-8.51-42.827-5.9-14.185-10.16-24.433 1.66-32.242 4.88-3.227 9.58-4.273 14.35-3.214 11.37 2.504 21.89 17.076 32.72 34.243zm-94.47-4.595l12.34-.555 4.1 90.339-12.34.555-4.1-90.339z" fill="#000"/><path d="M113.214 718.22c-10.429 0-18.91-8.48-18.91-18.909 0-10.43 8.481-18.91 18.91-18.91s18.909 8.48 18.909 18.91c0 10.429-8.48 18.909-18.909 18.909zm0-28.177c-5.111 0-9.267 4.156-9.267 9.268 0 5.111 4.156 9.267 9.267 9.267s9.268-4.156 9.268-9.267c0-5.112-4.157-9.268-9.268-9.268z" fill="#A7CC80"/><path d="M130.226 658.73a6.028 6.028 0 100-12.056 6.028 6.028 0 000 12.056z" fill="#F95F8F"/><path d="M134.344 640.827a18.547 18.547 0 00-3.731-7.318c-6.569-7.926-18.328-9.023-26.253-2.453-7.925 6.57-9.022 18.329-2.453 26.254a18.552 18.552 0 008.068 5.653l24.369-22.136z" fill="#56D0ED"/><path d="M170.433 717.575H49.026v.735h121.407v-.735zm-9.449-55.347c-.929-4.905-5.679-8.145-10.571-7.216L81.655 668.01c-4.904.929-8.144 5.667-7.215 10.571a8.976 8.976 0 003.795 5.796 8.97 8.97 0 005.086 1.574c.567 0 1.135-.051 1.703-.154l68.758-12.998c4.892-.93 8.119-5.667 7.202-10.571zm-8.893-6.648a8.326 8.326 0 018.171 6.777c.852 4.504-2.117 8.867-6.635 9.719l-68.758 12.998a8.268 8.268 0 01-6.234-1.304 8.285 8.285 0 01-3.485-5.331c-.852-4.504 2.117-8.867 6.635-9.719l68.757-12.998a8.907 8.907 0 011.549-.142z" fill="#000"/><path d="M1338.01 281.162c5.14 0 9.31-4.172 9.31-9.319 0-5.147-4.17-9.319-9.31-9.319a9.318 9.318 0 00-9.32 9.319 9.318 9.318 0 009.32 9.319z" fill="#FBE54B"/><path d="M1346.85 252.688a8.982 8.982 0 002.67 6.39l1.14 1.135c3.53 3.511 9.28 3.485 12.79-.051l80.45-81.11a8.993 8.993 0 002.62-6.415 9.02 9.02 0 00-2.67-6.389l-1.14-1.136a8.973 8.973 0 00-6.41-2.621 8.978 8.978 0 00-6.39 2.672l-80.46 81.11a9.19 9.19 0 00-2.6 6.415zm83.82-86.776c3.11-3.137 8.18-3.149 11.32-.052l1.13 1.136a8.02 8.02 0 012.37 5.654 7.909 7.909 0 01-2.33 5.666l-80.45 81.11a7.984 7.984 0 01-5.65 2.362 7.886 7.886 0 01-5.67-2.323l-1.13-1.136c-3.14-3.111-3.15-8.183-.06-11.32l80.47-81.097z" fill="#000"/><path d="M1355.59 129.526c2.66 0 4.82-2.155 4.82-4.814a4.819 4.819 0 00-4.82-4.815 4.81 4.81 0 00-4.81 4.815 4.81 4.81 0 004.81 4.814z" fill="#FBE54B"/><path d="M1360.16 114.825c0 1.252.49 2.426 1.38 3.304l.59.581c1.84 1.82 4.81 1.807 6.61-.026l41.58-41.91a4.673 4.673 0 001.35-3.318c0-1.252-.49-2.426-1.38-3.304l-.59-.58a4.696 4.696 0 00-3.32-1.356c-1.25 0-2.43.49-3.3 1.381l-41.58 41.91a4.752 4.752 0 00-1.34 3.318zm43.32-44.84c1.6-1.614 4.23-1.627 5.84-.027l.6.581c.79.775 1.21 1.82 1.22 2.917 0 1.11-.42 2.143-1.2 2.93l-41.57 41.911a4.149 4.149 0 01-2.92 1.226c-1.11 0-2.14-.426-2.93-1.201l-.59-.58c-1.61-1.601-1.63-4.234-.03-5.847l41.58-41.91z" fill="#000"/><path d="M772.796 590.166h-53.579v94.805h53.579v-94.805z" fill="#C1C1C1"/><path d="M1140.04 190.436v367.267c0 23.311-19.08 42.388-42.39 42.388H405.09c-23.311 0-42.388-19.077-42.388-42.388V190.436c0-23.311 19.077-42.388 42.388-42.388h692.56c23.31 0 42.39 19.077 42.39 42.388z" fill="#fff" stroke="#757575" stroke-width=".5" stroke-miterlimit="10"/><path d="M1140.04 551.276v6.428c0 23.31-19.08 42.387-42.39 42.387H405.09c-23.311 0-42.388-19.077-42.388-42.387v-6.428h777.338zm0-360.84v7.654H362.702v-7.654c0-23.311 19.077-42.388 42.388-42.388h692.56c23.31 0 42.39 19.077 42.39 42.388z" fill="#C1C1C1"/><path opacity=".21" d="M606.626 473.186H427.923a3.209 3.209 0 01-3.201-3.201V444.57a3.209 3.209 0 013.201-3.201h178.703a3.21 3.21 0 013.201 3.201v25.415a3.21 3.21 0 01-3.201 3.201z" fill="#000"/><path d="M550.272 419.633h-90.119c-.556 0-1.02-.452-1.02-1.02 0-.555.452-1.019 1.02-1.019h90.119c.555 0 1.02.451 1.02 1.019 0 .568-.452 1.02-1.02 1.02zm-30.526-7.899h-59.593c-.556 0-1.02-.452-1.02-1.02 0-.555.452-1.02 1.02-1.02h59.593c.555 0 1.02.452 1.02 1.02a1.03 1.03 0 01-1.02 1.02z" fill="#000"/><path d="M475.797 403.834h-15.631c-.555 0-1.02-.451-1.02-1.019 0-.555.452-1.02 1.02-1.02h15.631c.555 0 1.019.452 1.019 1.02a1.03 1.03 0 01-1.019 1.019zm36.528 0h-31.804c-.555 0-1.02-.451-1.02-1.019 0-.555.452-1.02 1.02-1.02h31.804c.555 0 1.019.452 1.019 1.02-.013.555-.464 1.019-1.019 1.019z" fill="#BFBFBF"/><path d="M436.622 422.072c6.787 0 12.288-5.501 12.288-12.287 0-6.787-5.501-12.288-12.288-12.288-6.786 0-12.288 5.501-12.288 12.288 0 6.786 5.502 12.287 12.288 12.287z" fill="#F95F8F"/><path d="M960.882 302.821h-121.6c-.555 0-1.02-.452-1.02-1.02v-.697c0-.555.452-1.019 1.02-1.019h121.6c.556 0 1.02.451 1.02 1.019v.697a1.03 1.03 0 01-1.02 1.02zm-40.955-10.61h-80.645c-.555 0-1.02-.452-1.02-1.02v-.697c0-.555.452-1.019 1.02-1.019h80.645c.555 0 1.02.451 1.02 1.019v.697a1.03 1.03 0 01-1.02 1.02z" fill="#000"/><path d="M860.953 281.614h-21.671c-.555 0-1.02-.452-1.02-1.02v-.697c0-.555.452-1.019 1.02-1.019h21.671c.555 0 1.02.451 1.02 1.019v.697a1.03 1.03 0 01-1.02 1.02zm48.997 0h-43.369a1.021 1.021 0 01-1.019-1.02v-.697a1.02 1.02 0 011.019-1.019h43.369c.555 0 1.02.451 1.02 1.019v.697c0 .555-.452 1.02-1.02 1.02z" fill="#BFBFBF"/><path d="M808.046 306.086c9.103 0 16.483-7.379 16.483-16.482s-7.38-16.483-16.483-16.483c-9.103 0-16.483 7.38-16.483 16.483 0 9.103 7.38 16.482 16.483 16.482z" fill="#FBE54B"/><path d="M607.697 371.179h-181.4a4.721 4.721 0 01-4.712-4.712V260.975a4.721 4.721 0 014.712-4.711H607.71a4.721 4.721 0 014.712 4.711v105.492c-.013 2.595-2.13 4.712-4.725 4.712z" fill="#56D0ED"/><path d="M591.524 280.633h-60.975a1.021 1.021 0 01-1.019-1.02v-.684c0-.555.452-1.019 1.019-1.019h60.975c.555 0 1.02.451 1.02 1.019v.684c0 .555-.452 1.02-1.02 1.02z" fill="#fff"/><path opacity=".56" d="M591.524 288.39h-60.975a1.02 1.02 0 01-1.019-1.019v-.684c0-.555.452-1.02 1.019-1.02h60.975c.555 0 1.02.452 1.02 1.02v.684c0 .555-.452 1.019-1.02 1.019z" fill="#fff"/><path opacity=".2" d="M591.524 296.148H530.86c-.555 0-1.02-.452-1.02-1.02v-.684c0-.555.452-1.02 1.02-1.02h60.664c.555 0 1.02.452 1.02 1.02v.684c0 .555-.452 1.02-1.02 1.02z" fill="#fff"/><path opacity=".56" d="M591.679 339.168h-60.974c-.555 0-1.02-.452-1.02-1.02v-.684c0-.555.452-1.019 1.02-1.019h60.974c.555 0 1.02.451 1.02 1.019v.684c0 .555-.452 1.02-1.02 1.02z" fill="#fff"/><path opacity=".2" d="M561.928 346.926h-30.914a1.021 1.021 0 01-1.019-1.02v-.684c0-.555.451-1.02 1.019-1.02h30.914c.555 0 1.019.452 1.019 1.02v.684a1.03 1.03 0 01-1.019 1.02z" fill="#fff"/><path d="M530.937 325.409h60.2a1.41 1.41 0 001.407-1.407v-15.411a1.41 1.41 0 00-1.407-1.407h-60.2a1.41 1.41 0 00-1.407 1.407v15.411c.013.774.645 1.407 1.407 1.407zm143.775-152.333c11.824-.271 23.647-.388 35.47-.491l35.47-.155 35.469.155 17.735.181 17.735.323-17.735.322-17.735.181-35.469.142-35.47-.155c-11.823-.116-23.646-.232-35.47-.503zm-14.262 2.891a2.891 2.891 0 100-5.782 2.891 2.891 0 000 5.782z" fill="#fff"/><path d="M837.036 687.913H651.66v3.576h185.376v-3.576z" fill="#C1C1C1"/><path d="M1068.43 330.972l-183.275.323-91.63.155-5.731.012h-2.865c-.968-.025-1.859.078-2.956-.09-2.104-.361-3.847-2.13-4.195-4.233-.155-1.098-.052-1.962-.09-2.943v-2.866l-.039-22.91-.039-22.911-.026-11.449v-2.865c0-.491-.013-.93.013-1.459a5.116 5.116 0 01.323-1.588c.736-2.052 2.814-3.523 5.008-3.51l183.272.322 91.63.168 5.73.013h2.87c.95.026 1.89-.065 2.87.09 1.95.336 3.58 2.001 3.89 3.95.14 1.949.04 3.833.06 5.744l-.03 22.91-.04 22.911-.03 11.449v2.865c-.01.943.08 1.937-.31 2.827-.64 1.82-2.48 3.111-4.41 3.085zm0 0c1.92.026 3.75-1.278 4.4-3.085.37-.89.28-1.871.3-2.827v-2.865l-.03-11.449-.04-22.911-.04-22.91c-.04-1.898.07-3.847-.08-5.705-.29-1.846-1.83-3.408-3.67-3.718-.91-.142-1.89-.051-2.83-.077h-2.87l-5.73.013-91.627.168-183.272.322c-1.665-.025-3.253 1.097-3.821 2.659a3.497 3.497 0 00-.245 1.201c-.026.413-.013.942-.013 1.394v2.865l-.026 11.449-.038 22.911-.039 22.91v2.866c.026.929-.065 1.975.064 2.775.259 1.691 1.678 3.136 3.369 3.42.8.129 1.833.052 2.762.078h2.866l5.731.013 91.629.155 183.25.348z" fill="#A7CC80"/><path opacity=".24" d="M772.796 600.091h-53.579v26.112h53.579v-26.112z" fill="url(#paint0_linear)"/><path opacity=".21" d="M930.085 423.944l-86.027 40.026c-5.151 2.388-11.307.142-13.708-4.995l-26.538-57.038c-2.388-5.15-.142-11.307 5.008-13.708l86.028-40.026c5.137-2.388 11.307-.142 13.708 5.008l6.053 13.024 2.982 6.415.284.607c-1.51 1.949-2.336 4.582.232 7.447 1.652 1.833 3.382 3.021 4.996 3.795l11.978 25.75c2.4 5.137.142 11.307-4.996 13.695z" fill="#000"/><path d="M943.16 354.089l-8.815 18.625s-2.917.323-6.454-1.381l-5.228-11.242c.762-.981 1.691-1.781 2.466-2.349a73.242 73.242 0 01-2.749 1.742l-2.982-6.415 10.055-5.821 10.145 5.124 3.562 1.717z" fill="#FFCB92"/><path d="M939.869 397.084c2.401 5.137.142 11.307-4.995 13.694l-86.028 40.026c-5.15 2.388-11.307.142-13.708-4.995l-26.537-57.038c-2.388-5.15-.142-11.307 5.008-13.707l86.028-40.026c5.137-2.388 11.307-.142 13.708 5.008l6.053 13.023-6.441 3.731c-1.975 1.148-1.884 4.053.168 5.059 2.336 1.123 5.55-.154 9.255-2.375l.284.607c-1.511 1.949-2.337 4.582.232 7.448 1.652 1.832 3.382 3.02 4.995 3.794l11.978 25.751z" fill="#fff"/><path d="M922.664 360.091l5.227 11.242c-1.613-.774-3.343-1.961-4.995-3.794-2.569-2.866-1.743-5.499-.232-7.448z" fill="#fff"/><path d="M919.398 353.069l2.982 6.415c-3.705 2.22-6.919 3.498-9.255 2.375-2.052-1.006-2.143-3.911-.168-5.059l6.441-3.731z" fill="#FFCB92"/><path d="M927.891 371.333l11.978 25.751c2.401 5.137.142 11.307-4.995 13.694l-86.028 40.026c-5.15 2.388-11.307.142-13.708-4.995l-26.537-57.038c-2.388-5.15-.142-11.307 5.008-13.707l86.028-40.026c5.137-2.388 11.307-.142 13.708 5.008l6.053 13.023 2.982 6.415.284.607c-1.511 1.949-2.337 4.582.232 7.448 1.652 1.832 3.382 3.02 4.995 3.794z" stroke="#BFBFBF" stroke-miterlimit="10"/><path d="M1041.05 607.758l3.67 56.47h26.06l-4.37-56.47h-25.36z" fill="#FFCB92"/><path d="M966.02 691.644l79.06-39.058 23.54 21.194 3.9-12.714 13.04 33.379-110.88 12.52c-.013 0-4.775-11.139-8.66-15.321z" fill="#56D0ED"/><path d="M1085.54 694.445l13.85 15.075-156.384 9.152c-2.995.181-5.718-1.756-6.557-4.634l-.981-3.382s-5.434-6.118 13.733-18.509c19.168-12.391 25.454 14.831 25.454 14.831l110.885-12.533z" fill="#fff" stroke="#231F20" stroke-miterlimit="10"/><path d="M974.306 711.302c9.01-1.059 18.019-1.975 27.044-2.879l27.06-2.53 27.11-2.233 13.55-1.006c4.52-.297 9.05-.62 13.57-.878-4.51.542-9.01 1.007-13.52 1.51l-13.52 1.368-27.07 2.53-27.11 2.233c-9.018.684-18.066 1.355-27.114 1.885zm70.774-58.716c-6.56 3.536-13.18 6.944-19.82 10.339-6.63 3.394-13.3 6.686-19.96 10.029-6.702 3.252-13.375 6.557-20.1 9.771l-10.094 4.788c-3.381 1.549-6.75 3.15-10.158 4.66 3.279-1.781 6.583-3.485 9.874-5.228l9.939-5.111c6.634-3.395 13.308-6.686 19.969-10.029 6.7-3.253 13.37-6.557 20.1-9.758 6.72-3.214 13.45-6.402 20.25-9.461zm-70.58 40.155c6.17-3.266 12.404-6.402 18.651-9.526 6.247-3.124 12.529-6.144 18.789-9.216 6.32-2.981 12.6-6.015 18.93-8.945l9.51-4.375c3.19-1.42 6.36-2.879 9.56-4.26-3.08 1.64-6.19 3.214-9.29 4.828l-9.36 4.698c-6.24 3.124-12.53 6.144-18.79 9.216-6.31 2.981-12.598 6.015-18.923 8.945-6.325 2.93-12.675 5.847-19.077 8.635z" fill="#231F20"/><path d="M1002.5 679.265l17.21 22.614 19.15-2.168-19.73-28.461" stroke="#231F20" stroke-miterlimit="10"/><path d="M995.796 689.913l-3.304 1.807c-1.368.749-3.111.246-3.859-1.123l-5.099-9.293c-.748-1.368-.245-3.111 1.123-3.859l3.305-1.807a2.855 2.855 0 013.859 1.123l5.098 9.293c.762 1.368.246 3.111-1.123 3.859z" fill="#fff"/><path d="M995.797 689.914l-2.53 1.433c-.426.232-.826.516-1.303.658a2.85 2.85 0 01-1.472.065c-.994-.168-1.82-.955-2.233-1.833l-1.484-2.504-2.956-5.021-.723-1.278a3.201 3.201 0 01-.361-1.626 3.336 3.336 0 011.678-2.776l2.568-1.368c.426-.206.826-.49 1.394-.658a3.41 3.41 0 011.652-.039c1.098.207 1.962 1.201 2.311 2.091l1.316 2.595 2.646 5.188c.413.852 1.072 1.691.968 2.724-.012.968-.606 1.897-1.471 2.349zm0 0a2.85 2.85 0 001.433-2.375c.077-.994-.581-1.794-1.02-2.646l-2.956-5.021-1.484-2.504c-.426-.878-1.059-1.42-1.91-1.6a2.47 2.47 0 00-1.227.051c-.361.116-.774.387-1.213.62l-2.53 1.432a2.385 2.385 0 00-1.252 1.962c-.026.413.052.826.233 1.188l.671 1.278 2.646 5.189 1.316 2.594c.362.891 1.033 1.639 2.001 1.846.465.116.955.09 1.407-.026.452-.129.865-.4 1.304-.62l2.581-1.368z" fill="#000"/><path d="M1008.11 683.163l-3.3 1.807c-1.37.749-3.12.245-3.86-1.123l-5.103-9.293c-.748-1.368-.245-3.111 1.123-3.86l3.3-1.807c1.37-.748 3.12-.245 3.86 1.123l5.1 9.294c.76 1.368.25 3.11-1.12 3.859z" fill="#fff"/><path d="M1008.11 683.164l-2.53 1.432c-.43.233-.83.517-1.3.659-.48.142-.98.18-1.47.064-1-.168-1.82-.955-2.24-1.833l-1.482-2.504-2.956-5.021-.722-1.278a3.19 3.19 0 01-.362-1.626 3.334 3.334 0 011.678-2.775l2.569-1.368c.426-.207.825-.491 1.395-.659a3.414 3.414 0 011.65-.038c1.1.206 1.96 1.2 2.31 2.091l1.32 2.594 2.64 5.189c.42.852 1.08 1.691.97 2.723-.01.968-.6 1.898-1.47 2.35zm0 0a2.839 2.839 0 001.43-2.375c.08-.994-.58-1.795-1.02-2.646l-2.95-5.021-1.49-2.504c-.42-.878-1.06-1.42-1.91-1.601-.4-.09-.82-.064-1.22.052-.36.116-.78.387-1.216.619l-2.53 1.433a2.382 2.382 0 00-1.252 1.962c-.026.413.051.826.232 1.187l.671 1.278 2.646 5.189 1.319 2.594c.36.891 1.03 1.64 2 1.846.46.116.95.09 1.41-.026.45-.129.86-.4 1.3-.619l2.58-1.368zm-34.036 24.059c.478 1.652.555 3.304.542 4.943-.051 1.64-.206 3.292-.748 4.918-.478-1.652-.555-3.304-.542-4.943.051-1.653.206-3.292.748-4.918z" fill="#000"/><path d="M938.953 710.527c5.085-.903 10.209-1.42 15.334-1.833 5.137-.374 10.274-.658 15.437-.542-5.086.904-10.21 1.42-15.334 1.833-5.124.362-10.261.645-15.437.542z" fill="#231F20"/><path d="M1077.85 618.639l4.13 56.47h29.35l-4.9-56.47h-28.58z" fill="#FFCB92"/><path d="M1031.61 513.547l-3.58 92.391-4.29 2.143v20.471s61.49-6.905 73.39-2.375l15.9-69.687-24.7-42.917h-56.72v-.026z" fill="#D84479"/><path d="M1111.33 562.182l9.97 47.448 3.86.71-2.42 16.418c-23.55-3.214-76.04 3.576-76.04 3.576l-4.33-17.129 4.33-2.504-8.67-75.65 36.45-9.874 36.85 37.005z" fill="#F95F8F"/><path d="M1136.23 571.398l-228.642-84.659c-8.609-3.189-13.011-12.766-9.823-21.375l51.036-137.825c3.188-8.61 12.766-13.011 21.375-9.823l228.644 84.66c8.61 3.188 13.01 12.765 9.82 21.374l-51.04 137.826c-3.18 8.622-12.76 13.01-21.37 9.822z" fill="#56D0ED"/><path d="M1038.69 382.24s23.39 41.278 60.68 59.607l-17.22-33.456-34.89-25.351-8.57-.8z" fill="#000"/><path opacity=".94" d="M961.902 324.26l181.418 240.168m-235.1-93.708l295.39-57.734" stroke="#fff" stroke-miterlimit="10"/><path d="M979.482 364.092c2.207 3.137-1.471 9.552-8.235 14.315-6.763 4.763-14.043 6.066-16.25 2.93-2.22-3.15 1.471-9.565 8.235-14.328 6.763-4.762 14.043-6.066 16.25-2.917z" fill="#288C34"/><path d="M979.482 364.092l92.878 131.927c2.21 3.136-1.47 9.551-8.23 14.314-6.76 4.763-14.04 6.067-16.25 2.93l-92.883-131.926c2.207 3.136 9.487 1.833 16.25-2.93 6.764-4.763 10.455-11.165 8.235-14.315z" fill="#4DCE62"/><path d="M1059.43 392.334s-16.2 26.047-23.62 29.777c-7.42 3.73-12.66-4.698-12.66-4.698l-12.12-.516s-.18 4.259 6.67 5.563c6.85 1.316 4.17 5.485 4.17 5.485s-6.89 7.848-12.78 10.3c-2.33.981-4.28 2.75-5.16 5.125-1.76 4.75-2.01 12.081 10.56 15.463 19.42 5.227 30.02-22.782 30.02-22.782l32.31-27.26c0 .013-7.33-14.095-17.39-16.457z" fill="#FFCB92"/><path d="M1052.72 317.097l72.54 37.831s6.13 3.692 3.57 12.133c-2.57 8.442-24.44 67.467-24.44 67.467l.71 2.504-5.71 4.815s-24.81-49.978-60.68-59.607l3.4-6.957 3.74 1.433s7.38-12.611 31.88-19.477l-85.199-31.495 29.019-5.614s10.96-16.199 31.17-3.033z" fill="#FBE54B"/><path d="M1049.22 377.723c5.43 2.607 10.62 5.743 15.61 9.164 4.97 3.433 9.66 7.254 14.1 11.358 4.44 4.118 8.42 8.7 12.03 13.54 3.62 4.866 6.46 10.236 8.83 15.773l-2.01-4.053c-.35-.671-.65-1.355-1.03-2.013l-1.19-1.924c-.8-1.277-1.51-2.607-2.38-3.833l-2.63-3.666c-3.67-4.75-7.63-9.319-12.07-13.372-4.37-4.117-9.06-7.912-13.95-11.423a143.805 143.805 0 00-7.5-5.034c-2.54-1.6-5.14-3.123-7.81-4.517z" fill="#000"/><path d="M1040.31 296.987c.69 12.584 6.41 22.781 6.41 22.781-3.93 8.919-18.93 2.853-16.29-3.575 2.63-6.428-3.75-17.541-3.75-17.541s13.13-11.062 13.63-1.665z" fill="#EFB275"/><path d="M1031.24 298.923c11.32 0 20.5-9.177 20.5-20.497s-9.18-20.497-20.5-20.497-20.5 9.177-20.5 20.497 9.18 20.497 20.5 20.497z" fill="#FFCB92"/><path d="M991.977 688.301l87.873-43.421 26.18 23.556 4.32-14.133 14.48 37.096-123.24 13.914c0 .013-5.302-12.366-9.613-17.012z" fill="#56D0ED"/><path d="M1124.83 691.411l15.4 16.754-173.823 10.171a7.17 7.17 0 01-7.293-5.15l-1.084-3.769s-6.041-6.802 15.269-20.574c21.311-13.772 28.291 16.483 28.291 16.483l123.24-13.915z" fill="#fff" stroke="#231F20" stroke-miterlimit="10"/><path d="M1001.19 710.14c10.02-1.149 20.03-2.156 30.06-3.137l30.09-2.8 30.13-2.505 15.06-1.148 15.08-1.007-15.03 1.639-15.04 1.51-30.1 2.801-30.12 2.504c-10.02.775-20.07 1.523-30.13 2.143zm78.66-65.26c-7.31 3.911-14.68 7.68-22.05 11.449-7.37 3.769-14.8 7.422-22.2 11.139l-22.33 10.868-11.21 5.344c-3.759 1.742-7.502 3.511-11.271 5.214 3.64-1.962 7.331-3.859 11.001-5.782l11.04-5.666 22.21-11.139c7.44-3.615 14.86-7.293 22.33-10.869 7.46-3.562 14.94-7.124 22.48-10.558zm-78.44 44.634c6.88-3.601 13.81-7.086 20.76-10.533 6.94-3.459 13.94-6.815 20.89-10.222 7.01-3.317 14-6.686 21.03-9.965l10.56-4.879c3.53-1.587 7.06-3.214 10.62-4.763-3.43 1.82-6.89 3.55-10.35 5.331l-10.4 5.215c-6.95 3.459-13.94 6.815-20.9 10.222-7.01 3.318-13.99 6.687-21.03 9.952-7.03 3.266-14.08 6.518-21.18 9.642z" fill="#231F20"/><path d="M1032.52 674.528l19.14 25.144 21.28-2.401-21.93-31.636" stroke="#231F20" stroke-miterlimit="10"/><path d="M1025.35 686.222l-4.23 2.323a2.856 2.856 0 01-3.86-1.123l-5.96-10.881c-.75-1.368-.25-3.11 1.12-3.859l4.24-2.323c1.36-.749 3.11-.245 3.85 1.123l5.97 10.881c.76 1.368.26 3.11-1.13 3.859z" fill="#fff"/><path d="M1025.36 686.223l-2.86 1.6-1.43.8c-.49.258-1.06.375-1.61.323a3.073 3.073 0 01-1.55-.594c-.47-.335-.78-.852-1.03-1.316l-1.66-2.827-3.29-5.653-.8-1.42c-.26-.426-.59-1.072-.62-1.691-.13-1.265.54-2.569 1.68-3.188l2.88-1.549 1.46-.775c.55-.284 1.2-.4 1.82-.322.62.064 1.21.335 1.69.723.49.387.8.98 1.02 1.445l1.49 2.904 3 5.822.77 1.445c.27.465.52.994.55 1.549.07 1.097-.53 2.22-1.51 2.724zm0 0c.96-.53 1.53-1.653 1.42-2.724-.04-.542-.29-1.033-.57-1.497l-.8-1.42-3.29-5.653-1.66-2.827c-.28-.504-.51-.878-.9-1.175a2.505 2.505 0 00-1.3-.49c-.47-.039-.93.051-1.35.271l-1.42.787-2.85 1.601c-.8.413-1.31 1.342-1.25 2.271.04.478.19.839.48 1.356l.77 1.445 3 5.822 1.49 2.904c.39 1.006 1.24 1.807 2.33 1.923 1.09.181 2.04-.568 2.99-1.046l2.91-1.548z" fill="#000"/><path d="M1039.05 678.723l-4.23 2.323c-1.37.749-3.12.245-3.86-1.123l-5.97-10.881a2.854 2.854 0 011.13-3.859l4.23-2.323a2.855 2.855 0 013.86 1.122l5.96 10.881a2.855 2.855 0 01-1.12 3.86z" fill="#fff"/><path d="M1039.05 678.723l-2.85 1.601-1.44.8c-.49.258-1.05.374-1.61.323a3.108 3.108 0 01-1.55-.594c-.46-.336-.77-.852-1.03-1.316l-1.65-2.827-3.29-5.654-.8-1.419c-.26-.426-.6-1.072-.62-1.691-.13-1.265.54-2.569 1.67-3.188l2.88-1.549 1.46-.775c.56-.284 1.2-.4 1.82-.322.62.064 1.21.335 1.69.722.49.388.8.981 1.02 1.446l1.5 2.904 2.99 5.821.78 1.446c.27.465.51.994.54 1.549.06 1.097-.54 2.207-1.51 2.723zm0 0a2.811 2.811 0 001.42-2.723c-.04-.542-.28-1.033-.57-1.497l-.8-1.42-3.29-5.654-1.65-2.826c-.29-.504-.52-.878-.91-1.175a2.473 2.473 0 00-1.3-.49c-.46-.039-.93.051-1.34.271l-1.42.787-2.85 1.601c-.8.413-1.32 1.342-1.26 2.271.04.478.2.839.48 1.356l.78 1.445 2.99 5.821 1.5 2.905c.38 1.006 1.24 1.807 2.32 1.923 1.1.18 2.04-.568 3-1.046l2.9-1.549zm-38.12 26.886c.47 1.833.55 3.666.53 5.499-.06 1.833-.22 3.653-.76 5.473-.48-1.833-.54-3.666-.53-5.499.07-1.833.22-3.653.76-5.473z" fill="#000"/><path d="M961.902 709.275c2.827-.49 5.667-.826 8.519-1.149 2.84-.335 5.692-.58 8.545-.813 2.852-.206 5.705-.413 8.557-.516l4.286-.155c1.432 0 2.865-.052 4.298-.013-1.42.258-2.84.426-4.247.645l-4.259.517c-2.84.335-5.692.581-8.545.813-2.852.206-5.705.413-8.557.516-2.866.103-5.731.207-8.597.155z" fill="#231F20"/><path d="M1050.31 609.694c5.44-.8 10.93-1.355 16.41-1.82 5.49-.464 11-.748 16.5-.98 5.51-.13 11.02-.233 16.53-.013 5.51.219 11.03.593 16.46 1.574-1.38-.077-2.75-.18-4.12-.284-1.37-.077-2.75-.103-4.11-.155-1.37-.077-2.75-.077-4.12-.103a110.96 110.96 0 00-4.12-.026c-5.49-.012-10.98.091-16.47.31-5.5.116-10.98.426-16.47.684l-16.49.813zm-11.89-325.215c9.24-9.796 0-9.796 0-9.796l-2.26 21.555-4.44-29.532-19.12 3.175s7.57-16.96 26.11-10.558c18.55 6.402 13.07 28.783 8.78 31.61-7.92 5.215-6.21-10.016-6.21-10.016m9.21-18.651c5.06 0 9.16-4.103 9.16-9.164 0-5.062-4.1-9.165-9.16-9.165a9.164 9.164 0 00-9.17 9.165c0 5.061 4.1 9.164 9.17 9.164z" fill="#000"/><path d="M472.453 346.603c21.407 0 38.761-17.354 38.761-38.761 0-21.407-17.354-38.761-38.761-38.761-21.407 0-38.761 17.354-38.761 38.761 0 21.407 17.354 38.761 38.761 38.761z" fill="#fff"/><path d="M433.692 327.745l38.761-19.903-8.028 42.53s-12.998 1.936-30.733-22.627z" fill="#F24089"/><path d="M706.336 445.667h-4.944c-7.835 0-14.263-6.415-14.263-14.25V301.569c0-7.835 6.415-14.25 14.263-14.25h4.944c7.834 0 14.249 6.415 14.249 14.25v129.835c.013 7.848-6.402 14.263-14.249 14.263z" fill="#F95F8F"/><path d="M702.438 338.136c-3.679 0-6.673-2.995-6.673-6.674a6.682 6.682 0 016.673-6.673 6.682 6.682 0 016.673 6.673c0 3.679-2.995 6.674-6.673 6.674zm0-12.069a5.415 5.415 0 00-5.408 5.408 5.415 5.415 0 005.408 5.409 5.416 5.416 0 005.408-5.409 5.415 5.415 0 00-5.408-5.408zm9.332 14.74a.63.63 0 000-.89l-2.827-2.827a.63.63 0 00-.89.891l2.826 2.826a.614.614 0 00.452.181c.155 0 .31-.064.439-.181z" fill="#fff"/><path d="M676.558 289.423c.272 12.843.388 25.686.491 38.516l.155 38.515-.142 38.516-.181 19.258-.323 19.258-.322-19.258-.181-19.258-.142-38.516.155-38.515c.103-12.83.232-25.673.49-38.516zm54.108.129c.271 12.843.388 25.686.491 38.516l.155 38.515-.142 38.516-.181 19.258-.323 19.258-.322-19.258-.181-19.258-.142-38.516.155-38.515c.103-12.843.232-25.673.49-38.516z" fill="#939393"/><path d="M712.518 408.261c-1.161 0-2.297-.18-3.368-.542-.543-.18-1.149-.038-1.498.31l-2.129 1.601c-2.466-1.317-3.989-2.84-5.28-5.279l1.562-2.066c.4-.4.555-.993.375-1.548a10.654 10.654 0 01-.543-3.382c0-.839-.684-1.523-1.523-1.523h-3.472c-.839 0-1.523.684-1.523 1.523 0 9.59 7.796 17.386 17.386 17.386.839 0 1.524-.684 1.524-1.523v-3.459a1.51 1.51 0 00-1.511-1.498zm.465 4.983a.462.462 0 01-.465.464c-9.009 0-16.34-7.331-16.34-16.34 0-.258.206-.465.464-.465h3.472c.258 0 .465.207.465.465 0 1.265.194 2.517.594 3.691.051.181.013.349-.168.542l-1.807 2.388a.538.538 0 00-.052.555c1.472 2.891 3.266 4.686 6.183 6.183.181.09.4.077.555-.052l2.439-1.858c.13-.13.31-.168.478-.117a11.94 11.94 0 003.704.594c.259 0 .465.207.465.465v3.485h.013z" fill="#fff"/><path d="M684.006 366.493h40.645" stroke="#fff" stroke-miterlimit="10"/><path d="M829.033 347.248l-31.868 12.249-31.92 12.133.271-.645 29.881 69.067 29.557 69.197-.606-.245 29.209-12.559 29.261-12.456-29.028 12.985-29.081 12.882-.413.18-.193-.426-29.894-69.054-29.584-69.184-.193-.477.464-.168 32.049-11.798 32.088-11.681z" fill="#56D0ED"/><path d="M530.007 503.118l29.352-.335 29.351-.194 29.352-.078 29.351-.025-.632.632c.064-16.883.025-33.779.154-50.661l.181-25.325.297-25.324.297 25.324.181 25.325c.129 16.882.103 33.778.154 50.661v.633h-.632l-29.351-.026-29.352-.078-29.351-.193-29.352-.336z" fill="#F95F8F"/><path d="M1012.6 274.967s-1.64 16.147 13.46 21.284" stroke="url(#paint1_linear)" stroke-miterlimit="10"/><path d="M1015.33 268.306c4.6-1.187 9.28-1.974 13.96-2.684 4.69-.659 9.4-1.226 14.15-1.407-4.61 1.187-9.28 1.988-13.97 2.685-4.68.671-9.38 1.239-14.14 1.406z" fill="url(#paint2_linear)"/><path d="M1016.94 266.267c3.65-1.02 7.33-1.729 11-2.465l5.5-1.084c.91-.194 1.83-.375 2.72-.62.91-.194 1.78-.478 2.63-.916-1.43 1.29-3.32 1.923-5.1 2.504-1.8.58-3.65.994-5.5 1.381-3.71.71-7.46 1.187-11.25 1.2z" fill="url(#paint3_linear)"/><path d="M1018.09 264.228c3.1-.904 6.21-1.523 9.3-2.169l4.64-.955c1.55-.335 3.07-.684 4.58-1.239-1.26 1.033-2.8 1.678-4.31 2.207-1.52.529-3.09.93-4.66 1.252-3.15.607-6.33 1.007-9.55.904z" fill="url(#paint4_linear)"/><path d="M1033.28 269.546c.85 2.452 1.32 4.943 1.68 7.46.33 2.517.57 5.047.4 7.641-.85-2.452-1.32-4.943-1.68-7.46-.32-2.517-.55-5.047-.4-7.641z" fill="url(#paint5_linear)"/><path d="M1038.22 272.966c1.06-.568 2.24-.632 3.39-.413.56.129 1.14.361 1.63.762.5.374.88 1.032.77 1.652-.43-.452-.84-.62-1.28-.788-.45-.142-.91-.271-1.41-.361-.98-.232-2-.4-3.1-.852z" fill="url(#paint6_linear)"/><path d="M1057.71 253.102a7.435 7.435 0 01-2.05 5.163 7.514 7.514 0 01-5.16 2.375 7.621 7.621 0 01-5.5-2.04c-1.48-1.394-2.36-3.433-2.36-5.498 0-2.066.88-4.105 2.36-5.499 1.48-1.407 3.52-2.13 5.5-2.039 1.97.077 3.87.968 5.16 2.375 1.32 1.394 2.07 3.278 2.05 5.163zm0 0c0-1.898-.8-3.769-2.18-5.047a7.04 7.04 0 00-5.04-1.859 6.935 6.935 0 00-4.72 2.181 6.81 6.81 0 00-1.85 4.712 6.81 6.81 0 001.85 4.711 6.817 6.817 0 004.72 2.181c1.8.078 3.67-.568 5.04-1.858 1.37-1.252 2.17-3.124 2.18-5.021z" fill="url(#paint7_linear)"/><path d="M1054.56 253.102c.06 2.129-1.71 4.246-4.06 4.388a4.5 4.5 0 01-3.27-1.123 4.473 4.473 0 01-1.44-3.265c0-1.24.54-2.466 1.44-3.266.91-.813 2.13-1.2 3.27-1.123 2.35.142 4.1 2.259 4.06 4.389zm0 0c0-1.072-.46-2.117-1.25-2.814a3.77 3.77 0 00-2.81-.93c-2.02.155-3.46 1.962-3.42 3.744-.04 1.781 1.4 3.601 3.42 3.743.98.077 2.02-.233 2.81-.93.78-.697 1.24-1.742 1.25-2.813z" fill="url(#paint8_linear)"/><path d="M1024.92 324.26s17.58 17.09 27.68-3.265" stroke="url(#paint9_linear)" stroke-miterlimit="10"/><path d="M1054.18 374.07s26.16-17.283 59.41-19.465" stroke="url(#paint10_linear)" stroke-miterlimit="10"/><path d="M1060.99 324.26l42.43 22.988" stroke="url(#paint11_linear)" stroke-miterlimit="10"/><path d="M1031.59 301.453s3.5 8.828 2.77 15.915" stroke="url(#paint12_linear)" stroke-miterlimit="10"/><path d="M979.482 364.092c.813 1.278.826 2.917.439 4.363-.374 1.472-1.11 2.814-1.975 4.053a23.341 23.341 0 01-3.007 3.369c-1.098 1.032-2.272 1.962-3.46 2.878l.104-.594c3.498 4.789 6.931 9.616 10.351 14.457l5.15 7.254 5.073 7.305c3.382 4.866 6.764 9.732 10.063 14.65 3.35 4.892 6.64 9.836 9.87 14.792-3.58-4.737-7.09-9.5-10.56-14.314-3.5-4.789-6.933-9.616-10.354-14.457l-5.15-7.254-5.073-7.305c-3.381-4.866-6.763-9.732-10.067-14.65l-.233-.349.336-.245c1.187-.865 2.375-1.742 3.472-2.723a27.208 27.208 0 003.072-3.15c.904-1.148 1.678-2.413 2.117-3.807.426-1.356.555-2.943-.168-4.273z" fill="url(#paint13_linear)"/><path d="M1029.28 459.504a710.43 710.43 0 019.06 12.469c2.99 4.169 5.94 8.376 8.85 12.61 2.95 4.208 5.86 8.441 8.73 12.701 2.88 4.259 5.78 8.493 8.58 12.791l-.54-.168c1.18-.529 2.31-1.445 3.25-2.452.96-1.02 1.75-2.181 2.44-3.408.71-1.226 1.22-2.555 1.68-3.898.22-.671.39-1.368.58-2.052l.45-2.091-.28 2.13c-.14.697-.28 1.407-.46 2.104-.39 1.381-.83 2.762-1.48 4.066a16.659 16.659 0 01-2.38 3.652c-.99 1.097-2.06 2.091-3.48 2.788l-.31.155-.23-.322c-3.01-4.17-5.91-8.403-8.84-12.624a907.937 907.937 0 01-8.7-12.714 829.41 829.41 0 01-8.57-12.804 712.542 712.542 0 01-8.35-12.933z" fill="url(#paint14_linear)"/><path d="M971.737 366.08s-9.448 4.389-13.32 10.816" stroke="url(#paint15_linear)" stroke-miterlimit="10"/><path d="M963.735 374.07s7.926-6.854 12.12-6.867" stroke="url(#paint16_linear)" stroke-miterlimit="10"/><path d="M1071.62 369.875s22.89-11.449 48.88-11.449" stroke="url(#paint17_linear)" stroke-miterlimit="10"/><path d="M1011.67 417.219l4.38.323c.01-.013-2.23 4.117-4.38-.323z" fill="#000"/><path d="M1016.69 417.619s-.09 1.278-1.58 1.949" stroke="url(#paint18_linear)" stroke-width=".5" stroke-miterlimit="10"/><path d="M1012.69 417.619h1.5" stroke="url(#paint19_linear)" stroke-width=".5" stroke-miterlimit="10"/><path d="M1022.67 417.968l-2.9 3.756" stroke="url(#paint20_linear)" stroke-width=".5" stroke-miterlimit="10"/><path d="M1016.06 438.207l9.71 13.553" stroke="url(#paint21_linear)" stroke-miterlimit="10"/><path d="M1014.01 440.504l-9.75 5.873" stroke="url(#paint22_linear)" stroke-miterlimit="10"/><path d="M1017.77 445.474l-13.51 3.988" stroke="url(#paint23_linear)" stroke-miterlimit="10"/><path d="M1022.67 453.011l-17.19-.361" stroke="url(#paint24_linear)" stroke-miterlimit="10"/><path d="M1077.85 557.407c.43 3.433.72 6.892.99 10.338.29 3.447.47 6.893.65 10.352.15 3.459.3 6.906.35 10.365l.06 5.189c-.02 1.729 0 3.459-.06 5.188-.23-1.716-.38-3.446-.57-5.163l-.43-5.175c-.28-3.447-.46-6.893-.64-10.352-.16-3.459-.3-6.906-.35-10.365-.05-3.459-.09-6.918 0-10.377z" fill="url(#paint25_linear)"/><path d="M279.294 551.276l3.872 6.853s23.014 1.33 31.623-9.99" fill="#231F20"/><path opacity=".19" d="M1071.62 354.98l6.09 2.246s17.23-6.854 30.19-6.364c0 0-20.83-4.362-36.28 4.118z" fill="url(#paint26_linear)"/><path opacity=".16" d="M1056.23 397.303l7.45 11.94-19.17 26.821 32.31-27.26-17.39-16.47-3.2 4.969z" fill="url(#paint27_linear)"/><path opacity=".14" d="M1078.48 627.132l28.57-1.239 1.65 18.987-29.17-3.42" fill="url(#paint28_linear)"/><path opacity=".23" d="M1042.28 626.732l1.05 16.354h25.06l-.38-14.547-21.29 1.794-.91-3.601h-3.53z" fill="url(#paint29_linear)"/><path opacity=".24" d="M1030.52 541.892l82.52 30.048-1.71-9.758-80.81-29.919v9.629z" fill="url(#paint30_linear)"/><path d="M479.178 477.239v3.046a4.407 4.407 0 01-4.402 4.401h-33.081c.413-1.2.645-2.465.723-3.743h29.403c2.413 0 4.401-1.988 4.401-4.401v-3.046c0-.142-.013-.284-.026-.426 1.73.606 2.982 2.246 2.982 4.169z" fill="#DD9B5F"/><path d="M297.134 624.125c30.633-25.466 51.509-50.87 46.628-56.741-4.881-5.871-33.67 10.014-64.303 35.48-30.633 25.466-51.509 50.87-46.628 56.741 4.881 5.871 33.67-10.014 64.303-35.48z" fill="#231F20"/><path d="M329.826 584.886l120.478-68.228s11.604-3.395 17.244 13.385c5.641 16.78 36.18 118.116 36.18 118.116l-58.987-1.911-13.914-49.112-97.387 57.386-38.089-31.404 34.475-38.232z" fill="#2CC1D1"/><path d="M305.935 686.894c31.836 0 57.644-25.809 57.644-57.645 0-31.836-25.808-57.644-57.644-57.644-31.837 0-57.645 25.808-57.645 57.644s25.808 57.645 57.645 57.645z" fill="#56D0ED"/><path d="M665.277 585.945l-40.348 77.341 20.458 23.75-12.662 3.575 32.72 13.617 14.792-109.39s-10.907-4.956-14.96-8.893z" fill="#F95F8F"/><path d="M342.734 584.886l269.248 70.927 32.424 32.165-35.186 8.764-3.485-9.693-198.542 6.144a61.744 61.744 0 01-5.976-.104l-103.04-6.983c-.013.013 35.005-83.085 44.557-101.22z" fill="#56D0ED"/><path d="M290.394 449.049c-15.192 24.072-44.814 85.099-58.47 209.681 0 0 91.642-107.157 112.294-89.19 0 0 16.238-93.424-27.88-125.383-8.48-6.131-20.368-3.95-25.944 4.892z" fill="#A7CC80"/><path opacity=".23" d="M287.774 471.108s-25.647 68.538-1.833 89.564c0 0 20.962 3.872 43.266-10.971l7.28 13.024 7.254 4.646-31.249-60.613-24.718-35.65z" fill="url(#paint31_linear)"/><path d="M286.716 541.117l.039.091v.077m8.932-12.081l6.066-2.001" stroke="#231F20" stroke-width=".75" stroke-miterlimit="10"/><path d="M372.459 508.823s-66.305-82.956-84.014-39.897c0 0-8.816 20.549 6.557 80.775" fill="#C8E8A3"/><path d="M665.445 704.228l14.611 14.031 12.443-154.476a6.349 6.349 0 00-4.44-6.583l-3.33-1.045s-5.938-5.499-18.613 13.178 14.121 25.492 14.121 25.492l-14.792 109.403z" fill="#fff" stroke="#231F20" stroke-miterlimit="10"/><path d="M684.535 594.567c-.723 8.945-1.575 17.864-2.453 26.796l-2.801 26.757-3.097 26.718-1.653 13.347c-.593 4.44-1.148 8.893-1.794 13.333.349-4.466.775-8.932 1.162-13.398l1.291-13.385 2.801-26.757 3.097-26.718c1.098-8.907 2.195-17.8 3.447-26.693zm-59.606 68.719c3.175-6.66 6.466-13.243 9.784-19.826 3.317-6.582 6.737-13.114 10.093-19.671 3.459-6.505 6.854-13.049 10.352-19.528l5.266-9.72c1.794-3.214 3.563-6.453 5.395-9.655-1.574 3.331-3.226 6.635-4.827 9.952l-4.956 9.887c-3.318 6.583-6.725 13.114-10.094 19.671-3.459 6.505-6.854 13.049-10.365 19.529-3.485 6.48-7.008 12.946-10.648 19.361z" fill="#231F20"/><path d="M666.168 594.361c-2.892 6.273-5.912 12.481-8.945 18.677-3.034 6.195-6.17 12.352-9.255 18.522-3.175 6.131-6.299 12.288-9.526 18.393l-4.853 9.151c-1.665 3.033-3.278 6.079-4.982 9.087 1.433-3.137 2.943-6.247 4.414-9.371l4.531-9.306c3.033-6.196 6.17-12.352 9.254-18.522 3.176-6.131 6.299-12.288 9.526-18.393 3.227-6.105 6.467-12.211 9.836-18.238z" fill="#fff"/><path d="M652.228 621.75l21.994 17.528-2.556 18.884-27.712-20.123" stroke="#fff" stroke-miterlimit="10"/><path d="M614.396 654.47l11.655 1.82-3.756 7.022-7.899-8.842z" fill="#2CC1D1"/><path d="M307.251 445.848c1.885.697 4.002-.284 4.686-2.169l4.608-12.494c.697-1.884-.284-4.001-2.169-4.685-1.884-.697-4.001.284-4.685 2.168l-4.608 12.495c-.697 1.871.284 3.988 2.168 4.685z" fill="#ECAE74"/><path d="M354.815 497.374c-2.646.607-5.279 1.252-7.874 2.04a130.51 130.51 0 00-7.731 2.452c-5.099 1.794-10.12 3.808-14.947 6.221-4.892 2.285-9.487 5.151-13.914 8.21l-3.253 2.413c-1.084.801-2.052 1.756-3.085 2.62-2.155 1.666-3.872 3.757-5.86 5.615 3.382-4.246 7.241-8.157 11.604-11.449 1.033-.89 2.207-1.6 3.33-2.388 1.123-.774 2.246-1.548 3.447-2.22 1.174-.684 2.349-1.407 3.536-2.078l3.627-1.884c4.931-2.336 9.99-4.402 15.205-6.002 5.202-1.575 10.52-2.878 15.915-3.55zm308.254 117.715l1.549-2.685c.865-1.484.348-3.407-1.149-4.272l-8.532-4.931c-1.484-.865-3.407-.348-4.272 1.149l-1.549 2.685c-.865 1.484-.348 3.407 1.149 4.272l8.532 4.931c1.497.852 3.42.335 4.272-1.149z" fill="#fff"/><path d="M663.07 615.09l1.407-2.478c.503-.801.645-1.807.322-2.685-.297-.904-1.019-1.497-1.884-1.885l-2.53-1.316-5.047-2.646-.619-.336a3.78 3.78 0 00-.543-.232 2.83 2.83 0 00-1.135-.065 2.469 2.469 0 00-1.807 1.239l-1.446 2.453c-.478.71-.62 1.471-.4 2.246.116.374.284.735.555 1.032.258.31.594.517 1.02.775l2.4 1.523 4.815 3.046c.413.245.8.529 1.239.684.439.155.916.22 1.381.155.929-.116 1.794-.697 2.272-1.51zm0 0a3.142 3.142 0 01-2.285 1.549 3.511 3.511 0 01-1.42-.091c-.464-.142-.865-.413-1.29-.632l-5.047-2.646-2.53-1.317c-.4-.206-.904-.451-1.304-.852a3.495 3.495 0 01-.877-1.394c-.388-1.032-.181-2.336.387-3.201l1.407-2.478c.58-.994 1.626-1.691 2.762-1.82a3.71 3.71 0 011.678.181c.258.09.529.232.748.361l.607.375 4.815 3.046 2.4 1.523c.388.245.839.516 1.162.891.336.374.555.826.697 1.29.297.943.077 1.975-.452 2.762l-1.458 2.453z" fill="#000"/><path d="M656.125 627.119l1.549-2.685c.864-1.484.348-3.408-1.149-4.272l-8.532-4.931c-1.484-.865-3.408-.349-4.272 1.149l-1.549 2.684c-.865 1.485-.349 3.408 1.149 4.273l8.531 4.93a3.15 3.15 0 004.273-1.148z" fill="#fff"/><path d="M656.125 627.119l1.407-2.478c.516-.8.646-1.807.323-2.684-.297-.904-1.02-1.498-1.885-1.885l-2.529-1.316-5.047-2.646-.62-.336a3.723 3.723 0 00-.542-.232 2.8 2.8 0 00-1.136-.065 2.47 2.47 0 00-1.807 1.239l-1.445 2.453c-.478.709-.62 1.471-.401 2.245.117.375.284.736.556 1.033.258.31.593.516 1.019.774l2.401 1.524 4.814 3.046c.413.245.801.529 1.24.684.438.155.916.219 1.381.155a3.139 3.139 0 002.271-1.511zm0 0a3.135 3.135 0 01-2.284 1.549 3.493 3.493 0 01-1.42-.09c-.465-.142-.865-.413-1.291-.632l-5.047-2.646-2.529-1.317c-.401-.207-.904-.452-1.304-.852a3.515 3.515 0 01-.878-1.394c-.387-1.032-.181-2.336.387-3.201l1.407-2.478c.581-.994 1.627-1.691 2.762-1.82a3.71 3.71 0 011.678.181c.259.09.53.232.749.361l.607.374 4.814 3.047 2.401 1.523c.387.245.839.516 1.162.89.335.374.555.826.697 1.291.296.942.077 1.975-.452 2.762l-1.459 2.452z" fill="#000"/><path d="M650.149 640.349l1.549-2.685c.865-1.484.348-3.408-1.149-4.272l-8.532-4.931c-1.484-.865-3.407-.348-4.272 1.149l-1.549 2.685c-.865 1.484-.348 3.407 1.149 4.272l8.532 4.931c1.484.851 3.407.335 4.272-1.149z" fill="#fff"/><path d="M650.15 640.35l1.407-2.479c.516-.8.645-1.807.322-2.684-.297-.904-1.019-1.498-1.884-1.885l-2.53-1.316-5.047-2.646-.619-.336a3.819 3.819 0 00-.542-.232 2.819 2.819 0 00-1.136-.065 2.466 2.466 0 00-1.807 1.239l-1.446 2.453c-.478.71-.619 1.471-.4 2.246.116.374.284.735.555 1.032.258.31.594.517 1.02.775l2.4 1.523 4.815 3.046c.413.245.8.529 1.239.684.439.155.916.219 1.381.155a3.23 3.23 0 002.272-1.51zm0 0a3.144 3.144 0 01-2.285 1.549 3.511 3.511 0 01-1.42-.091c-.464-.142-.864-.413-1.29-.632l-5.047-2.646-2.53-1.317c-.4-.206-.904-.452-1.304-.852a3.495 3.495 0 01-.877-1.394c-.388-1.032-.181-2.336.387-3.201l1.407-2.478c.581-.994 1.626-1.691 2.762-1.82a3.71 3.71 0 011.678.181c.258.09.529.232.749.361l.606.375 4.815 3.046 2.4 1.523c.388.245.839.516 1.162.89.336.375.555.826.697 1.291.297.942.078 1.975-.452 2.762l-1.458 2.453z" fill="#000"/><path d="M642.546 653.54l1.549-2.685c.865-1.484.348-3.407-1.149-4.272l-8.532-4.931c-1.484-.864-3.407-.348-4.272 1.149l-1.549 2.685c-.865 1.484-.348 3.407 1.149 4.272l8.532 4.931c1.497.852 3.42.335 4.272-1.149z" fill="#fff"/><path d="M642.547 653.541l1.407-2.478c.516-.8.645-1.807.323-2.685-.297-.903-1.02-1.497-1.885-1.884l-2.53-1.317-5.046-2.646-.62-.336a3.887 3.887 0 00-.542-.232 2.817 2.817 0 00-1.136-.064 2.467 2.467 0 00-1.807 1.239l-1.446 2.452c-.477.71-.619 1.471-.4 2.246.117.374.284.736.555 1.033.259.309.594.516 1.02.774l2.401 1.523 4.814 3.046c.413.245.801.529 1.239.684.439.155.917.22 1.381.155a3.178 3.178 0 002.272-1.51zm0 0a3.138 3.138 0 01-2.284 1.549 3.51 3.51 0 01-1.42-.09c-.465-.142-.865-.413-1.291-.633l-5.047-2.646-2.53-1.316c-.4-.207-.903-.452-1.303-.852a3.522 3.522 0 01-.878-1.394c-.387-1.033-.181-2.337.387-3.201l1.407-2.479c.581-.994 1.627-1.691 2.762-1.82a3.71 3.71 0 011.678.181c.258.09.529.232.749.362l.607.374 4.814 3.046 2.401 1.523c.387.245.839.516 1.161.891.336.374.555.826.697 1.29.297.943.078 1.975-.451 2.763l-1.459 2.452zm37.69-58.703c1.626-.503 3.252-.619 4.879-.645 1.626.013 3.252.129 4.879.645-1.627.516-3.253.633-4.879.646-1.627-.026-3.253-.142-4.879-.646z" fill="#000"/><path d="M684.535 559.588c0 5.111-.387 10.197-.865 15.257-.516 5.059-1.136 10.119-2.155 15.127 0-5.111.387-10.197.864-15.257.53-5.059 1.149-10.106 2.156-15.127z" fill="#231F20"/><path d="M316.119 431.676c8.376 0 15.166-6.791 15.166-15.167s-6.79-15.166-15.166-15.166c-8.376 0-15.166 6.79-15.166 15.166 0 8.376 6.79 15.167 15.166 15.167z" fill="#FCC38A"/><path d="M325.039 421.478c1.281-.076 2.174-2.55 1.996-5.524-.179-2.975-1.362-5.324-2.643-5.247-1.28.077-2.174 2.551-1.996 5.525.179 2.974 1.362 5.323 2.643 5.246z" fill="#fff"/><path d="M322.393 416.238c.077 1.046.271 2.091.671 3.059.194.478.465.943.787 1.317.323.374.762.684 1.162.632.4-.064.71-.426.929-.851.22-.426.349-.904.439-1.394.194-.981.22-2.001.168-3.008-.065-1.007-.219-2.013-.516-2.969-.155-.464-.336-.942-.607-1.329-.258-.4-.62-.723-1.02-.736-.413 0-.813.349-1.084.762-.284.413-.49.903-.619 1.407-.284 1.006-.362 2.065-.31 3.11zm0 0c-.065-1.045-.026-2.104.18-3.149.104-.516.246-1.046.491-1.523.245-.465.632-.994 1.317-1.084.684-.052 1.213.387 1.574.813.375.439.646.929.852 1.445.426 1.02.633 2.104.71 3.201.052 1.085-.026 2.195-.323 3.253-.155.529-.361 1.059-.684 1.536-.31.465-.787.968-1.471.994-.684-.013-1.136-.49-1.433-.929-.31-.452-.503-.955-.671-1.459a13.286 13.286 0 01-.542-3.098z" fill="#000"/><path d="M308.258 411.863c-.826-.181-1.781-.297-2.375.116-.529.439-.465 1.342-.271 2.13.168.813.478 1.613.775 2.413.271.813.658 1.588.929 2.427-.504-.71-1.007-1.433-1.381-2.233-.413-.775-.749-1.601-.943-2.478-.116-.439-.141-.904-.116-1.381.065-.465.258-1.02.749-1.291.955-.465 1.884-.103 2.633.297z" fill="#231F20"/><path d="M315.977 405.874l12.378 1.678 15.721-33.547L327 383.053l-9.694-16.573-7.654 23.453-8.416-9.306 2.672 13.643-20.213-13.127 18.174 41.807 4.814-.516s-6.092-15.037 2.569-12.107l.632 6.879h1.188l2.788-5.769h4.169l-2.052-5.563z" fill="#000"/><path d="M337.653 538.193c21.82-11.59 37.567-24.64 35.172-29.148-2.394-4.507-22.023 1.235-43.842 12.825-21.819 11.591-37.566 24.64-35.172 29.148 2.394 4.507 22.023-1.235 43.842-12.825z" fill="#231F20"/><path d="M603.889 680.595c-1.678-3.692-2.994-7.499-4.207-11.333-1.175-3.846-2.259-7.718-2.969-11.72 1.678 3.692 2.994 7.5 4.208 11.333 1.174 3.859 2.258 7.732 2.968 11.72z" fill="#279CAF"/><path d="M654.641 699.737c3.705 1.252 7.344 2.633 10.984 4.04l-.374.903a374.073 374.073 0 01-8.235-3.278c-2.736-1.11-5.46-2.272-8.17-3.421a374.415 374.415 0 01-8.106-3.588 214.42 214.42 0 01-8.029-3.782 238.85 238.85 0 018.339 3.02 379.121 379.121 0 018.26 3.214 568.566 568.566 0 018.184 3.382 323.649 323.649 0 018.131 3.537l-.374.903c-3.562-1.574-7.112-3.188-10.61-4.93z" fill="#231F20"/><path d="M477.513 476.077v3.046c0 2.414-1.988 4.402-4.401 4.402h-29.403a14.174 14.174 0 01-.723 3.743 14.57 14.57 0 01-7.641 8.661 14.568 14.568 0 01-10.946.632l-36.476 35.625-4.802 4.685-.168.168-28.757 28.073-.181-.219a6.458 6.458 0 01-4.001 1.588l-3.266.116c-2.982.116-5.821-1.807-7.125-4.789l-11.81-27.209c-1.652-3.833-.284-8.196 3.111-9.9l1.639-.813c3.472-1.729 7.77-.026 9.616 3.808l9.564 19.851 21.13-20.135.271-.271 7.073-6.725 34.915-33.275c-2.208-6.88.98-14.521 7.692-17.696a14.335 14.335 0 012.053-.788l4.014-7.757c1.11-2.143 3.782-2.995 5.924-1.885l2.711 1.394c2.155 1.11 3.007 3.782 1.897 5.925l-2.168 4.208-.594 1.136h36.451c2.271 0 4.169 1.755 4.375 3.975.013.142.026.284.026.426z" fill="#FCC38A"/><path d="M438.739 471.676h-2.078l.594-1.136c.516.335 1.02.723 1.484 1.136z" fill="#FCC38A"/><path d="M1020.62 285.602c1.01-.06 1.71-2.001 1.57-4.335-.14-2.334-1.07-4.177-2.07-4.117-1.01.06-1.71 2.001-1.57 4.335.14 2.334 1.07 4.177 2.07 4.117z" fill="#fff"/><path d="M1018.55 281.485c.07.826.22 1.639.54 2.388.16.374.38.723.64 1.02.25.296.59.503.89.464.58-.129.86-1.019.99-1.729.13-.762.16-1.549.12-2.324a9.763 9.763 0 00-.39-2.297c-.21-.697-.59-1.536-1.19-1.601-.29-.013-.6.246-.82.555-.22.323-.39.697-.51 1.084-.24.788-.31 1.627-.27 2.44zm0 0c-.05-.826-.02-1.652.13-2.465.08-.413.18-.826.38-1.214.19-.374.5-.8 1.05-.89.57-.052 1.01.31 1.31.645.29.349.53.736.69 1.149.35.813.51 1.665.57 2.53.04.865-.02 1.729-.27 2.581-.13.426-.3.839-.55 1.226-.25.375-.65.775-1.22.801-.56-.013-.91-.413-1.15-.762-.24-.361-.38-.761-.51-1.161-.26-.801-.38-1.614-.43-2.44z" fill="#000"/><path opacity=".23" d="M275.809 481.627s-25.247 76.838-10.804 99.039l-24.808 19.438c0-.013 14.482-79.742 35.612-118.477z" fill="url(#paint32_linear)"/><path opacity=".17" d="M241.746 610.224a1540.318 1540.318 0 0117.657-15.347c5.899-5.099 11.849-10.132 17.813-15.153l-.091.826c-1.833-2.582-3.123-5.344-4.233-8.209-.607-1.407-1.007-2.892-1.511-4.337-.413-1.472-.774-2.956-1.161-4.428-1.368-5.95-1.923-12.055-2.052-18.135-.207-6.092.4-12.158 1.084-18.173.426-3.008.981-5.989 1.484-8.971l2.014-8.854-1.614 8.932-1.174 8.983c-.542 6.015-.955 12.043-.684 18.071.18 6.014.774 12.029 2.168 17.876.387 1.446.749 2.905 1.175 4.337.49 1.42.864 2.866 1.445 4.247 1.046 2.788 2.336 5.563 4.002 7.925l.335.478-.413.348a1807.364 1807.364 0 01-18.044 14.882 1673.04 1673.04 0 01-18.2 14.702z" fill="url(#paint33_linear)"/><path opacity=".23" d="M293.169 473.999s-1.148 27.26 3.873 43.614l10.597-9.087c.013 0-13.566-15.088-14.47-34.527z" fill="url(#paint34_linear)"/><path opacity=".23" d="M302.192 442.44c.749 1.123 1.484 2.208 2.284 3.201.814.968 1.704 1.911 2.724 2.324.994.451 2.091.129 3.059-.646.968-.748 1.794-1.794 2.659-2.826-.4 1.29-.994 2.529-1.988 3.575a4.29 4.29 0 01-1.871 1.213 3.573 3.573 0 01-2.35-.116c-1.432-.632-2.362-1.781-3.059-2.956a11.776 11.776 0 01-1.458-3.769z" fill="url(#paint35_linear)"/><path opacity=".17" d="M320.92 574.031s-54.818 39.704-38.103 61.866c16.716 22.174 317.497 41.432 317.497 41.432l5.421 9.72s-200.439 7.331-246.957 3.162c-46.519-4.169-82.092 3.188-102.279-31.326l-7.292-19.491c-.013 0 56.431-58.986 71.713-65.363z" fill="url(#paint36_linear)"/><path opacity=".23" d="M605.735 677.329c.903 2.169 1.742 4.363 2.62 6.544.852 2.182 1.665 4.389 2.504 6.583l-.581-.284c3.46-1.213 6.945-2.31 10.417-3.446a423.933 423.933 0 0110.455-3.317l-.31.916-3.563-5.189c-1.2-1.716-2.336-3.498-3.498-5.24-1.148-1.755-2.336-3.485-3.459-5.266-1.136-1.769-2.284-3.524-3.381-5.318 1.303 1.652 2.542 3.343 3.82 5.021 1.278 1.665 2.491 3.382 3.743 5.072 1.227 1.704 2.504 3.369 3.705 5.099l3.64 5.137.464.658-.787.258a428.272 428.272 0 01-10.455 3.318c-3.498 1.071-6.983 2.194-10.507 3.188l-.451.129-.13-.413c-.722-2.233-1.471-4.453-2.181-6.699-.697-2.259-1.42-4.492-2.065-6.751z" fill="url(#paint37_linear)"/><path opacity=".13" d="M387.807 596.761l41.703-29.377-.968 19.813 14.779-16.509v12.391l2.905-6.298 7.176 37.263-19.219-5.059-3.356-11.837-12.843 7.564-30.177-7.951z" fill="url(#paint38_linear)"/><path opacity=".41" d="M316.119 431.676l-8.571 2.762 1.64-4.44s5.601 2.052 6.931 1.678z" fill="url(#paint39_linear)"/><path opacity=".2" d="M343.74 524.699l-18.406 11.63 1.149-10.365 11.746-6.725 5.511 5.46z" fill="url(#paint40_linear)"/><path opacity=".33" d="M1026.68 298.665l15.48 9.383s-1.57-5.808-1.85-11.061c0 0-7.35 3.394-13.63 1.678z" fill="url(#paint41_linear)"/><path opacity=".19" d="M1126.14 360.969s-15.27 36.166-31.81 47.602c0 0 9.59 15.838 9.81 20.897" fill="url(#paint42_linear)"/><path d="M241.746 630.811c5.796-7.499 11.978-14.702 18.367-21.697a347.63 347.63 0 0120.046-20.188c7.034-6.363 14.327-12.494 22.265-17.747 3.962-2.62 8.093-5.034 12.443-6.957 4.349-1.872 8.97-3.382 13.733-3.55-4.724.452-9.229 2.065-13.462 4.118-4.26 2.026-8.287 4.504-12.159 7.202-7.758 5.369-15.011 11.462-21.956 17.864-6.995 6.35-13.656 13.075-20.2 19.916-3.278 3.407-6.492 6.892-9.667 10.403-3.189 3.498-6.312 7.061-9.41 10.636z" fill="#fff"/><path d="M299.92 623.041l36.889 6.002 36.877 6.131 73.701 12.481 73.65 12.766 36.812 6.492 36.773 6.622-36.89-6.002-36.863-6.131-73.701-12.482-73.65-12.765-36.812-6.493-36.786-6.621zm82.827-38.154a3331.12 3331.12 0 0129.274-17.142l14.675-8.505 14.702-8.455 1.213-.697-.374 1.355-6.557 23.518-1.175-.478 18.6-33.456 1.871-3.369-.839 3.756-4.84 21.775v-.206l4.957 18.548 4.866 18.573-5.37-18.431-5.279-18.458-.026-.103.026-.104 4.582-21.826 1.033.387-18.471 33.534-2.697 4.892 1.523-5.37 6.673-23.478.839.658-14.766 8.351-14.792 8.299a4087.848 4087.848 0 01-29.648 16.432z" fill="#279CAF"/><path d="M358.765 571.605l94.12-49.823s1.82.478-1.458 6.415c-3.253 5.951-92.662 43.408-92.662 43.408z" fill="url(#paint43_linear)"/><path d="M459.146 533.05l29.002 82.13s-17.812-78.025-24.717-86.983l-4.285 4.853z" fill="url(#paint44_linear)"/><path d="M333.337 588.875l-17.218 18.277 147.067 19.542 123.085 30.861-122.595-35.805-130.339-32.875z" fill="url(#paint45_linear)"/><path d="M603.889 658.73h5.938l7.112 26.602-13.05-26.602z" fill="url(#paint46_linear)"/><path d="M296.254 403.86c2.982-.077 5.924.142 8.867.426 2.943.323 5.873.71 8.764 1.394-2.981.077-5.924-.142-8.867-.426-2.93-.323-5.86-.71-8.764-1.394z" fill="url(#paint47_linear)"/><path d="M342.166 376.058c-.943 2.581-2.014 5.111-3.098 7.615-1.072 2.517-2.246 4.995-3.408 7.473-1.2 2.466-2.388 4.918-3.678 7.345l-1.937 3.627c-.684 1.187-1.329 2.4-2.052 3.562.465-1.304.994-2.556 1.485-3.833l1.613-3.782c1.071-2.517 2.246-4.995 3.408-7.474 1.2-2.465 2.387-4.917 3.678-7.344 1.278-2.427 2.569-4.84 3.989-7.189z" fill="url(#paint48_linear)"/><path d="M316.829 366.751c2.039 2.44 3.743 5.073 5.356 7.758 1.588 2.71 3.085 5.46 4.247 8.415-2.04-2.439-3.743-5.072-5.357-7.757-1.587-2.698-3.085-5.46-4.246-8.416z" fill="url(#paint49_linear)"/><path d="M441.695 473.186h31.003" stroke="url(#paint50_linear)" stroke-miterlimit="10"/><path d="M432.363 460.007s4.685.904 5.343 2.724c.659 1.82-1.071 5.808-1.071 5.808" stroke="url(#paint51_linear)" stroke-miterlimit="10"/><path d="M437.849 481.627l3.846 3.059" stroke="url(#paint52_linear)" stroke-miterlimit="10"/><path d="M314.789 445.099s14.895 13.992 16.534 19.994" stroke="url(#paint53_linear)" stroke-miterlimit="10"/><path d="M327.606 412.172c.465.697.762 1.498.981 2.311.219.813.297 1.678.271 2.53a7.293 7.293 0 01-.503 2.504c-.284.8-.762 1.523-1.291 2.155.31-.774.658-1.51.826-2.31a10.53 10.53 0 00.336-2.375c.051-1.601-.194-3.214-.62-4.815z" fill="url(#paint54_linear)"/><path d="M315.034 432.45l-4.221 10.842" stroke="url(#paint55_linear)" stroke-miterlimit="10"/><path d="M307.651 457.465s23.26 5.33 51.849 38.283" stroke="url(#paint56_linear)" stroke-miterlimit="10"/><path d="M315.641 463.041s29.558 19.012 33.314 27.621l-9.809 3.15" fill="url(#paint57_linear)"/><path d="M354.041 548.139l61.607-57.786" stroke="url(#paint58_linear)" stroke-miterlimit="10"/><path d="M337.416 379.323c-1.536 1.91-2.943 3.885-4.311 5.886a79.415 79.415 0 00-3.782 6.183c-1.188 2.103-2.22 4.285-3.163 6.505-.968 2.22-1.703 4.53-2.452 6.867.258-2.427.684-4.892 1.51-7.216a39.153 39.153 0 012.982-6.776c2.401-4.298 5.434-8.299 9.216-11.449z" fill="url(#paint59_linear)"/><path d="M320.701 379.878c.71.4 1.29.955 1.82 1.549.529.594.955 1.265 1.329 1.975.71 1.407 1.162 3.046.878 4.647-.387-.723-.684-1.407-1.02-2.079-.335-.671-.645-1.329-1.007-1.987-.671-1.33-1.381-2.621-2-4.105z" fill="url(#paint60_linear)"/><path d="M321.062 386.771c.762.593 1.213 1.484 1.562 2.375.348.903.529 1.845.619 2.801.091.955.078 1.91-.013 2.852l-.193 1.407c-.103.465-.194.929-.323 1.381l.013-2.814c-.026-.929-.039-1.858-.129-2.762-.065-.916-.232-1.82-.439-2.71-.245-.878-.542-1.756-1.097-2.53z" fill="url(#paint61_linear)"/><path d="M914.067 358c2.297-1.794 4.724-3.33 7.202-4.789 2.478-1.445 5.021-2.8 7.642-4.001l.567-.258-.038.555c-.039.491-.104.968-.155 1.459-.052.49-.116.968-.194 1.458-.077-.49-.142-.968-.193-1.458-.052-.491-.117-.968-.155-1.459l.516.31c-2.375 1.626-4.853 3.11-7.37 4.479-2.517 1.394-5.099 2.671-7.822 3.704z" fill="url(#paint62_linear)"/><path d="M931.157 358c-1.536 1.304-2.866 2.672-3.408 4.337a5.881 5.881 0 00-.271 2.607c0 .465.168.917.219 1.394.104.465.271.93.362 1.446a12.6 12.6 0 01-.955-1.2c-.207-.465-.529-.904-.62-1.433-.361-1.007-.297-2.169.039-3.214a5.767 5.767 0 011.846-2.607c.826-.672 1.768-1.149 2.788-1.33z" fill="url(#paint63_linear)"/><path d="M922.664 358.8l5.227 11.243-11.178.723 5.951-11.966z" fill="#fff"/><path d="M859.069 406.674l-14.03 6.634a1.816 1.816 0 01-2.414-.865l-6.635-14.03a1.818 1.818 0 01.865-2.414l14.031-6.634a1.815 1.815 0 012.413.865l6.635 14.03a1.817 1.817 0 01-.865 2.414z" fill="#F95F8F"/><path d="M882.199 395.741l-14.031 6.635a1.816 1.816 0 01-2.413-.865l-6.635-14.03a1.817 1.817 0 01.865-2.414l14.03-6.634a1.816 1.816 0 012.414.864l6.634 14.031a1.816 1.816 0 01-.864 2.413z" fill="#56D0ED"/><path d="M905.832 384.564l-14.03 6.634a1.816 1.816 0 01-2.414-.865l-6.634-14.03a1.816 1.816 0 01.864-2.414l14.031-6.634a1.815 1.815 0 012.413.865l6.635 14.03a1.816 1.816 0 01-.865 2.414z" fill="#4DCE62"/><path d="M914.248 386.874l-71.933 33.998a1.816 1.816 0 01-2.414-.865l-11.733-24.834a1.816 1.816 0 01.865-2.413l71.933-33.998a1.816 1.816 0 012.414.864l11.733 24.834a1.817 1.817 0 01-.865 2.414z" stroke="#4DCE62" stroke-width=".5" stroke-miterlimit="10"/><path d="M363.657 198.09c32.32-.439 64.64-.619 96.96-.942l96.961-.542c32.32-.232 64.64-.194 96.96-.271l96.961-.181 96.96.168c32.32.09 64.64.039 96.96.271l96.961.542c32.32.323 64.64.516 96.96.955-32.32.439-64.64.633-96.96.955l-96.961.542c-32.32.233-64.64.181-96.96.272l-96.96.167-96.961-.18c-32.32-.091-64.64-.039-96.96-.271l-96.961-.543c-32.307-.309-64.64-.503-96.96-.942z" fill="#666"/><path d="M511.124 256.264l6.143 28.654v-17.45l3.498 10.338 6.39-21.542h-16.031z" fill="url(#paint64_linear)"/><path d="M529.542 441.847l13.837 18.16 3.098-7.357 24.524 20.42-13.811-30.63-27.648-.593z" fill="url(#paint65_linear)"/></g><defs><linearGradient id="paint0_linear" x1="719.213" y1="613.154" x2="772.788" y2="613.154" gradientUnits="userSpaceOnUse"><stop stop-color="#231F20" stop-opacity=".1"/><stop offset="1" stop-color="#231F20"/></linearGradient><linearGradient id="paint1_linear" x1="1011.9" y1="285.874" x2="1026.27" y2="285.874" gradientUnits="userSpaceOnUse"><stop stop-color="#fff"/><stop offset="1" stop-color="#fff" stop-opacity="0"/></linearGradient><linearGradient id="paint2_linear" x1="1015.23" y1="266.271" x2="1043.54" y2="266.271" gradientUnits="userSpaceOnUse"><stop stop-color="#fff"/><stop offset="1" stop-color="#fff" stop-opacity="0"/></linearGradient><linearGradient id="paint3_linear" x1="1016.86" y1="263.73" x2="1039.21" y2="263.73" gradientUnits="userSpaceOnUse"><stop stop-color="#fff"/><stop offset="1" stop-color="#fff" stop-opacity="0"/></linearGradient><linearGradient id="paint4_linear" x1="1018" y1="262.052" x2="1036.94" y2="262.052" gradientUnits="userSpaceOnUse"><stop stop-color="#fff"/><stop offset="1" stop-color="#fff" stop-opacity="0"/></linearGradient><linearGradient id="paint5_linear" x1="1032.64" y1="277.099" x2="1036.01" y2="277.099" gradientUnits="userSpaceOnUse"><stop stop-color="#fff"/><stop offset="1" stop-color="#fff" stop-opacity="0"/></linearGradient><linearGradient id="paint6_linear" x1="1038.17" y1="273.7" x2="1044.63" y2="273.7" gradientUnits="userSpaceOnUse"><stop stop-color="#fff"/><stop offset="1" stop-color="#fff" stop-opacity="0"/></linearGradient><linearGradient id="paint7_linear" x1="1042.63" y1="253.103" x2="1058.35" y2="253.103" gradientUnits="userSpaceOnUse"><stop stop-color="#fff"/><stop offset="1" stop-color="#fff" stop-opacity="0"/></linearGradient><linearGradient id="paint8_linear" x1="1045.77" y1="253.103" x2="1055.2" y2="253.103" gradientUnits="userSpaceOnUse"><stop stop-color="#fff"/><stop offset="1" stop-color="#fff" stop-opacity="0"/></linearGradient><linearGradient id="paint9_linear" x1="1024.47" y1="326.165" x2="1053.18" y2="326.165" gradientUnits="userSpaceOnUse"><stop stop-color="#fff"/><stop offset="1" stop-color="#fff" stop-opacity="0"/></linearGradient><linearGradient id="paint10_linear" x1="1053.82" y1="364.292" x2="1113.63" y2="364.292" gradientUnits="userSpaceOnUse"><stop stop-color="#fff"/><stop offset="1" stop-color="#fff" stop-opacity="0"/></linearGradient><linearGradient id="paint11_linear" x1="1060.68" y1="335.759" x2="1103.72" y2="335.759" gradientUnits="userSpaceOnUse"><stop stop-color="#fff"/><stop offset="1" stop-color="#fff" stop-opacity="0"/></linearGradient><linearGradient id="paint12_linear" x1="1030.99" y1="309.321" x2="1035.11" y2="309.321" gradientUnits="userSpaceOnUse"><stop stop-color="#fff"/><stop offset="1" stop-color="#fff" stop-opacity="0"/></linearGradient><linearGradient id="paint13_linear" x1="970.354" y1="400.36" x2="1012.63" y2="400.36" gradientUnits="userSpaceOnUse"><stop stop-color="#fff"/><stop offset="1" stop-color="#fff" stop-opacity="0"/></linearGradient><linearGradient id="paint14_linear" x1="1028.75" y1="485.202" x2="1073.01" y2="485.202" gradientUnits="userSpaceOnUse"><stop stop-color="#fff"/><stop offset="1" stop-color="#fff" stop-opacity="0"/></linearGradient><linearGradient id="paint15_linear" x1="957.858" y1="371.361" x2="972.008" y2="371.361" gradientUnits="userSpaceOnUse"><stop stop-color="#fff"/><stop offset="1" stop-color="#fff" stop-opacity="0"/></linearGradient><linearGradient id="paint16_linear" x1="963.319" y1="370.566" x2="975.856" y2="370.566" gradientUnits="userSpaceOnUse"><stop stop-color="#fff"/><stop offset="1" stop-color="#fff" stop-opacity="0"/></linearGradient><linearGradient id="paint17_linear" x1="1071.33" y1="364.12" x2="1120.5" y2="364.12" gradientUnits="userSpaceOnUse"><stop stop-color="#fff"/><stop offset="1" stop-color="#fff" stop-opacity="0"/></linearGradient><linearGradient id="paint18_linear" x1="1014.97" y1="418.734" x2="1017.02" y2="418.734" gradientUnits="userSpaceOnUse"><stop stop-color="#fff"/><stop offset="1" stop-color="#fff" stop-opacity="0"/></linearGradient><linearGradient id="paint19_linear" x1="-nan" y1="-nan" x2="-nan" y2="-nan" gradientUnits="userSpaceOnUse"><stop stop-color="#fff"/><stop offset="1" stop-color="#fff" stop-opacity="0"/></linearGradient><linearGradient id="paint20_linear" x1="1019.51" y1="419.848" x2="1022.93" y2="419.848" gradientUnits="userSpaceOnUse"><stop stop-color="#fff"/><stop offset="1" stop-color="#fff" stop-opacity="0"/></linearGradient><linearGradient id="paint21_linear" x1="1015.53" y1="444.983" x2="1026.29" y2="444.983" gradientUnits="userSpaceOnUse"><stop stop-color="#fff"/><stop offset="1" stop-color="#fff" stop-opacity="0"/></linearGradient><linearGradient id="paint22_linear" x1="1003.93" y1="443.44" x2="1014.34" y2="443.44" gradientUnits="userSpaceOnUse"><stop stop-color="#fff"/><stop offset="1" stop-color="#fff" stop-opacity="0"/></linearGradient><linearGradient id="paint23_linear" x1="1004.08" y1="447.468" x2="1017.95" y2="447.468" gradientUnits="userSpaceOnUse"><stop stop-color="#fff"/><stop offset="1" stop-color="#fff" stop-opacity="0"/></linearGradient><linearGradient id="paint24_linear" x1="1005.46" y1="452.828" x2="1022.69" y2="452.828" gradientUnits="userSpaceOnUse"><stop stop-color="#fff"/><stop offset="1" stop-color="#fff" stop-opacity="0"/></linearGradient><linearGradient id="paint25_linear" x1="1077.21" y1="578.118" x2="1080.49" y2="578.118" gradientUnits="userSpaceOnUse"><stop stop-color="#231F20"/><stop offset="1" stop-color="#231F20" stop-opacity="0"/></linearGradient><linearGradient id="paint26_linear" x1="1071.62" y1="353.481" x2="1107.9" y2="353.481" gradientUnits="userSpaceOnUse"><stop stop-color="#231F20" stop-opacity=".1"/><stop offset="1" stop-color="#231F20"/></linearGradient><linearGradient id="paint27_linear" x1="1044.51" y1="414.2" x2="1076.81" y2="414.2" gradientUnits="userSpaceOnUse"><stop stop-color="#231F20" stop-opacity=".1"/><stop offset="1" stop-color="#231F20"/></linearGradient><linearGradient id="paint28_linear" x1="1078.48" y1="635.39" x2="1108.7" y2="635.39" gradientUnits="userSpaceOnUse"><stop stop-color="#231F20" stop-opacity=".1"/><stop offset="1" stop-color="#231F20"/></linearGradient><linearGradient id="paint29_linear" x1="1042.28" y1="634.911" x2="1068.39" y2="634.911" gradientUnits="userSpaceOnUse"><stop stop-color="#231F20" stop-opacity=".1"/><stop offset="1" stop-color="#231F20"/></linearGradient><linearGradient id="paint30_linear" x1="1030.51" y1="552.098" x2="1113.03" y2="552.098" gradientUnits="userSpaceOnUse"><stop stop-color="#231F20" stop-opacity=".1"/><stop offset="1" stop-color="#231F20"/></linearGradient><linearGradient id="paint31_linear" x1="275.81" y1="519.245" x2="343.735" y2="519.245" gradientUnits="userSpaceOnUse"><stop stop-color="#00A651"/><stop offset=".063" stop-color="#00834C"/><stop offset=".138" stop-color="#006046"/><stop offset=".22" stop-color="#004242"/><stop offset=".311" stop-color="#002A3E"/><stop offset=".413" stop-color="#00173B"/><stop offset=".533" stop-color="#000A39"/><stop offset=".687" stop-color="#000238"/><stop offset="1" stop-color="#000038"/></linearGradient><linearGradient id="paint32_linear" x1="240.199" y1="540.864" x2="275.809" y2="540.864" gradientUnits="userSpaceOnUse"><stop stop-color="#00A651"/><stop offset=".063" stop-color="#00834C"/><stop offset=".138" stop-color="#006046"/><stop offset=".22" stop-color="#004242"/><stop offset=".311" stop-color="#002A3E"/><stop offset=".413" stop-color="#00173B"/><stop offset=".533" stop-color="#000A39"/><stop offset=".687" stop-color="#000238"/><stop offset="1" stop-color="#000038"/></linearGradient><linearGradient id="paint33_linear" x1="241.331" y1="559.826" x2="278.497" y2="559.826" gradientUnits="userSpaceOnUse"><stop stop-color="#00A651"/><stop offset=".063" stop-color="#00834C"/><stop offset=".138" stop-color="#006046"/><stop offset=".22" stop-color="#004242"/><stop offset=".311" stop-color="#002A3E"/><stop offset=".413" stop-color="#00173B"/><stop offset=".533" stop-color="#000A39"/><stop offset=".687" stop-color="#000238"/><stop offset="1" stop-color="#000038"/></linearGradient><linearGradient id="paint34_linear" x1="293.056" y1="495.803" x2="307.646" y2="495.803" gradientUnits="userSpaceOnUse"><stop stop-color="#00A651"/><stop offset=".063" stop-color="#00834C"/><stop offset=".138" stop-color="#006046"/><stop offset=".22" stop-color="#004242"/><stop offset=".311" stop-color="#002A3E"/><stop offset=".413" stop-color="#00173B"/><stop offset=".533" stop-color="#000A39"/><stop offset=".687" stop-color="#000238"/><stop offset="1" stop-color="#000038"/></linearGradient><linearGradient id="paint35_linear" x1="301.593" y1="445.937" x2="313.494" y2="445.937" gradientUnits="userSpaceOnUse"><stop stop-color="#00A651"/><stop offset=".063" stop-color="#00834C"/><stop offset=".138" stop-color="#006046"/><stop offset=".22" stop-color="#004242"/><stop offset=".311" stop-color="#002A3E"/><stop offset=".413" stop-color="#00173B"/><stop offset=".533" stop-color="#000A39"/><stop offset=".687" stop-color="#000238"/><stop offset="1" stop-color="#000038"/></linearGradient><linearGradient id="paint36_linear" x1="249.192" y1="632.765" x2="605.73" y2="632.765" gradientUnits="userSpaceOnUse"><stop stop-color="#000038"/><stop offset=".647" stop-color="#006E49"/><stop offset="1" stop-color="#00A651"/></linearGradient><linearGradient id="paint37_linear" x1="605.121" y1="677.245" x2="632.363" y2="677.245" gradientUnits="userSpaceOnUse"><stop stop-color="#000038"/><stop offset=".647" stop-color="#006E49"/><stop offset="1" stop-color="#00A651"/></linearGradient><linearGradient id="paint38_linear" x1="387.811" y1="590.712" x2="453.396" y2="590.712" gradientUnits="userSpaceOnUse"><stop stop-color="#000038"/><stop offset=".647" stop-color="#006E49"/><stop offset="1" stop-color="#00A651"/></linearGradient><linearGradient id="paint39_linear" x1="307.559" y1="432.218" x2="316.125" y2="432.218" gradientUnits="userSpaceOnUse"><stop stop-color="#231F20" stop-opacity=".1"/><stop offset="1" stop-color="#231F20"/></linearGradient><linearGradient id="paint40_linear" x1="325.332" y1="527.785" x2="343.735" y2="527.785" gradientUnits="userSpaceOnUse"><stop stop-color="#231F20" stop-opacity=".1"/><stop offset="1" stop-color="#231F20"/></linearGradient><linearGradient id="paint41_linear" x1="1026.69" y1="302.522" x2="1042.16" y2="302.522" gradientUnits="userSpaceOnUse"><stop stop-color="#231F20" stop-opacity=".1"/><stop offset="1" stop-color="#231F20"/></linearGradient><linearGradient id="paint42_linear" x1="1094.33" y1="395.226" x2="1126.13" y2="395.226" gradientUnits="userSpaceOnUse"><stop stop-color="#231F20" stop-opacity=".1"/><stop offset="1" stop-color="#231F20"/></linearGradient><linearGradient id="paint43_linear" x1="358.767" y1="546.697" x2="453.396" y2="546.697" gradientUnits="userSpaceOnUse"><stop stop-color="#fff" stop-opacity="0"/><stop offset="1" stop-color="#fff"/></linearGradient><linearGradient id="paint44_linear" x1="459.144" y1="571.695" x2="488.145" y2="571.695" gradientUnits="userSpaceOnUse"><stop stop-color="#fff" stop-opacity="0"/><stop offset="1" stop-color="#fff"/></linearGradient><linearGradient id="paint45_linear" x1="316.124" y1="623.216" x2="586.268" y2="623.216" gradientUnits="userSpaceOnUse"><stop stop-color="#fff" stop-opacity="0"/><stop offset="1" stop-color="#fff"/></linearGradient><linearGradient id="paint46_linear" x1="603.892" y1="672.029" x2="616.935" y2="672.029" gradientUnits="userSpaceOnUse"><stop stop-color="#fff" stop-opacity="0"/><stop offset="1" stop-color="#fff"/></linearGradient><linearGradient id="paint47_linear" x1="296.209" y1="404.766" x2="313.944" y2="404.766" gradientUnits="userSpaceOnUse"><stop stop-color="#fff" stop-opacity="0"/><stop offset="1" stop-color="#fff"/></linearGradient><linearGradient id="paint48_linear" x1="327.415" y1="390.865" x2="342.753" y2="390.865" gradientUnits="userSpaceOnUse"><stop stop-color="#fff" stop-opacity="0"/><stop offset="1" stop-color="#fff"/></linearGradient><linearGradient id="paint49_linear" x1="316.747" y1="375.132" x2="326.503" y2="374.552" gradientUnits="userSpaceOnUse"><stop stop-color="#fff" stop-opacity="0"/><stop offset="1" stop-color="#fff"/></linearGradient><linearGradient id="paint50_linear" x1="-nan" y1="-nan" x2="-nan" y2="-nan" gradientUnits="userSpaceOnUse"><stop stop-color="#fff" stop-opacity="0"/><stop offset="1" stop-color="#fff"/></linearGradient><linearGradient id="paint51_linear" x1="432.237" y1="464.088" x2="438.494" y2="464.088" gradientUnits="userSpaceOnUse"><stop stop-color="#fff" stop-opacity="0"/><stop offset="1" stop-color="#fff"/></linearGradient><linearGradient id="paint52_linear" x1="437.447" y1="483.158" x2="442.097" y2="483.158" gradientUnits="userSpaceOnUse"><stop stop-color="#fff" stop-opacity="0"/><stop offset="1" stop-color="#fff"/></linearGradient><linearGradient id="paint53_linear" x1="314.351" y1="454.949" x2="331.951" y2="454.949" gradientUnits="userSpaceOnUse"><stop stop-color="#fff" stop-opacity="0"/><stop offset="1" stop-color="#fff"/></linearGradient><linearGradient id="paint54_linear" x1="326.79" y1="416.918" x2="328.871" y2="416.918" gradientUnits="userSpaceOnUse"><stop stop-color="#fff" stop-opacity="0"/><stop offset="1" stop-color="#fff"/></linearGradient><linearGradient id="paint55_linear" x1="310.21" y1="437.868" x2="315.637" y2="437.868" gradientUnits="userSpaceOnUse"><stop stop-color="#fff" stop-opacity="0"/><stop offset="1" stop-color="#fff"/></linearGradient><linearGradient id="paint56_linear" x1="307.502" y1="476.499" x2="359.981" y2="476.499" gradientUnits="userSpaceOnUse"><stop stop-color="#fff" stop-opacity="0"/><stop offset="1" stop-color="#fff"/></linearGradient><linearGradient id="paint57_linear" x1="315.641" y1="478.419" x2="348.955" y2="478.419" gradientUnits="userSpaceOnUse"><stop stop-color="#fff" stop-opacity="0"/><stop offset="1" stop-color="#fff"/></linearGradient><linearGradient id="paint58_linear" x1="353.601" y1="519.244" x2="416.084" y2="519.244" gradientUnits="userSpaceOnUse"><stop stop-color="#fff" stop-opacity="0"/><stop offset="1" stop-color="#fff"/></linearGradient><linearGradient id="paint59_linear" x1="323.062" y1="392.046" x2="337.864" y2="392.046" gradientUnits="userSpaceOnUse"><stop stop-color="#fff" stop-opacity="0"/><stop offset="1" stop-color="#fff"/></linearGradient><linearGradient id="paint60_linear" x1="320.222" y1="383.96" x2="325.356" y2="383.96" gradientUnits="userSpaceOnUse"><stop stop-color="#fff" stop-opacity="0"/><stop offset="1" stop-color="#fff"/></linearGradient><linearGradient id="paint61_linear" x1="320.851" y1="392.183" x2="323.323" y2="392.183" gradientUnits="userSpaceOnUse"><stop stop-color="#fff" stop-opacity="0"/><stop offset="1" stop-color="#fff"/></linearGradient><linearGradient id="paint62_linear" x1="913.756" y1="353.485" x2="929.74" y2="353.485" gradientUnits="userSpaceOnUse"><stop stop-color="#fff" stop-opacity="0"/><stop offset="1" stop-color="#fff"/></linearGradient><linearGradient id="paint63_linear" x1="926.197" y1="362.897" x2="931.404" y2="362.897" gradientUnits="userSpaceOnUse"><stop stop-color="#fff" stop-opacity="0"/><stop offset="1" stop-color="#fff"/></linearGradient><linearGradient id="paint64_linear" x1="511.121" y1="270.589" x2="527.152" y2="270.589" gradientUnits="userSpaceOnUse"><stop stop-color="#fff"/><stop offset="1" stop-color="#fff" stop-opacity="0"/></linearGradient><linearGradient id="paint65_linear" x1="529.537" y1="457.461" x2="571.004" y2="457.461" gradientUnits="userSpaceOnUse"><stop stop-color="#fff"/><stop offset="1" stop-color="#fff" stop-opacity="0"/></linearGradient><clipPath id="clip0"><path fill="#fff" d="M-1 0h1440v730H-1z"/></clipPath></defs></svg>