<svg width="960" height="540" fill="none" xmlns="http://www.w3.org/2000/svg"><g clip-path="url(#clip0)"><path fill="#E8F9FD" d="M0 0h960v539.478H0z"/><g clip-path="url(#clip1)"><path d="M484.648 443.345c113.794 0 206.042-92.248 206.042-206.041 0-113.794-92.248-206.042-206.042-206.042-113.793 0-206.041 92.248-206.041 206.042 0 113.793 92.248 206.041 206.041 206.041z" fill="#EDEDED"/><path d="M707.794 319.22H280.307a7.277 7.277 0 01-7.301-7.301V61.669a7.278 7.278 0 017.301-7.302h427.587c4.1 0 7.301 3.3 7.301 7.301V311.82a7.384 7.384 0 01-7.401 7.401z" fill="#fff" stroke="#DBDBDB" stroke-miterlimit="10"/><path d="M690.99 303.417H570.966c-3.801 0-6.902-3.101-6.902-6.901V78.472c0-3.801 3.101-6.902 6.902-6.902H690.99c3.801 0 6.901 3.1 6.901 6.902v218.044c0 3.8-3.1 6.901-6.901 6.901zm-274.055 0H296.811c-3.801 0-6.902-3.101-6.902-6.901V78.472c0-3.801 3.101-6.902 6.902-6.902h120.124c3.801 0 6.901 3.1 6.901 6.902v218.044c0 3.8-3.1 6.901-6.901 6.901zm137.027-1H433.838c-3.801 0-6.901-3.101-6.901-6.902V78.472c0-3.801 3.1-6.902 6.901-6.902h120.124c3.801 0 6.902 3.1 6.902 6.902v217.043c0 3.801-3.101 6.902-6.902 6.902z" fill="#EDEDED"/><path opacity=".21" d="M490.75 124.781l-32.707 32.707 30.406 21.004 32.707-32.107" fill="url(#paint0_linear)"/><path opacity=".21" d="M471.545 195.395l-32.706 32.607 30.406 21.104 32.707-32.206" fill="url(#paint1_linear)"/><path d="M400.932 108.478h-37.208v26.505h37.208v-26.505z" fill="#F95F8F"/><path d="M674.587 213.599s15.903-36.707 8.301-45.909c-6.701-8.002-35.007 14.603-39.508 18.503" fill="#D8F2B6"/><path d="M683.577 225.806c1.157-1.187-6.948-10.964-18.103-21.837-11.155-10.873-21.136-18.725-22.293-17.539-1.156 1.187 6.949 10.964 18.104 21.837s21.136 18.725 22.292 17.539z" fill="#231F20"/><path d="M655.183 195.695l-41.709 31.507-54.51-47.21-5.502 5.901s42.709 56.212 60.012 64.513c0 0 23.105-15.703 51.711-45.209 0 0-5.501-8.001-10.002-9.502z" fill="#D8A166"/><path d="M600.472 166.089l2.3-2 15.303-3.201 14.203 32.507-1.7 3.201-30.106-30.507z" fill="#D63871"/><path d="M715.795 163.189s-34.907-16.404-39.108 5.001c-4.201 21.404-20.604 130.926-20.604 130.926s65.913-15.103 98.42 0l-38.708-135.927z" fill="#B9D390"/><path d="M690.29 151.487c6.463 0 11.702-5.24 11.702-11.703 0-6.463-5.239-11.702-11.702-11.702s-11.703 5.239-11.703 11.702 5.24 11.703 11.703 11.703zm3.8 15.202c4.806 0 8.702-2.194 8.702-4.901 0-2.706-3.896-4.901-8.702-4.901-4.805 0-8.701 2.195-8.701 4.901 0 2.707 3.896 4.901 8.701 4.901z" fill="#EAB575"/><path d="M738.9 223.401s-6.202-53.911-21.405-59.512c-15.203-5.601-33.907 48.51-33.907 48.51" fill="#D8F2B6"/><path opacity=".4" d="M715.795 163.189l7.902 38.607c.4 2.001-.8 3.901-2.701 4.501-2.6.801-6.501 1.401-10.602.2l26.505 3.801c.1 0-4.701-41.908-21.104-47.109z" fill="url(#paint2_linear)"/><path d="M738.941 223.405c.323-1.625-11.8-5.404-27.079-8.44-15.278-3.036-27.926-4.18-28.249-2.554-.323 1.625 11.801 5.404 27.079 8.44 15.279 3.036 27.926 4.18 28.249 2.554z" fill="#231F20"/><path d="M705.293 305.818c27.178 0 49.21-3.135 49.21-7.002s-22.032-7.001-49.21-7.001-49.21 3.134-49.21 7.001c0 3.867 22.032 7.002 49.21 7.002z" fill="#000"/><path d="M669.186 294.115l-14.603 75.115c-2.401 12.303-1.3 25.105 3.2 36.908l26.306 68.814 15.003 2.6-12.403-89.118 29.006-89.318c.1-.1-8.802-10.602-46.509-5.001z" fill="#2B9EAA"/><path d="M628.577 477.952l49.41-21.504 13.703 13.603 2.801-7.702 7.001 20.804-68.114 4.401c0 .1-2.6-6.901-4.801-9.602z" fill="#F95F8F"/><path d="M701.492 483.253l8.002 9.602-95.82.901c-1.8 0-3.4-1.201-3.901-3.001l-.5-2.1s-3.1-3.901 8.902-10.903c12.103-7.001 15.103 9.802 15.103 9.802l68.214-4.301z" fill="#fff" stroke="#231F20" stroke-miterlimit="10"/><path d="M633.078 490.255c5.501-.4 11.102-.7 16.604-1 5.501-.3 11.102-.5 16.603-.801 5.501-.2 11.102-.4 16.603-.5l8.302-.2c2.8 0 5.501-.1 8.302-.1-2.801.2-5.502.4-8.302.6l-8.302.5c-5.501.301-11.102.501-16.603.801-5.501.2-11.102.4-16.603.5-5.602.1-11.103.2-16.604.2z" fill="#231F20"/><path d="M633.678 478.953c3.801-1.901 7.702-3.601 11.603-5.302l11.702-5.101c3.901-1.6 7.902-3.3 11.802-4.901l5.902-2.4c2-.8 4-1.5 6.001-2.301-1.901.901-3.901 1.801-5.801 2.701l-5.802 2.601-11.702 5.101c-3.901 1.6-7.902 3.3-11.802 4.901-3.901 1.6-7.902 3.2-11.903 4.701z" fill="#fff"/><path d="M646.481 477.952l-1.401.7c-1 .5-2.3.1-2.8-1l-2.501-5.201c-.5-1-.1-2.3 1-2.8l1.401-.701c1-.5 2.3-.1 2.8 1.001l2.501 5.201c.5 1.1 0 2.3-1 2.8z" fill="#fff"/><path d="M646.481 477.952c-.501.3-1.001.5-1.601.8-.5.2-1.2.2-1.7 0-.6-.2-1-.8-1.2-1.3l-.8-1.5-1.701-3.001c-.3-.5-.5-1.3-.3-2s.7-1.3 1.3-1.601c.501-.3 1.001-.5 1.601-.8.7-.3 1.4-.2 2.1.1.3.2.6.4.8.7.2.301.3.601.4.801l.7 1.6 1.401 3.201c.5 1.1.1 2.6-1 3zm0 0c.5-.3.9-.7 1.1-1.3.2-.6.1-1.2-.2-1.6l-1.701-3.001-.8-1.5c-.1-.3-.3-.5-.4-.6-.2-.2-.4-.3-.6-.4-.4-.201-.9-.201-1.3 0l-1.501.8c-.8.4-1.2 1.4-.7 2.3l1.401 3.201.7 1.6c.2.5.5 1 1 1.3.5.301 1.1.301 1.7.1.2-.4.8-.6 1.301-.9z" fill="#000"/><path d="M654.182 474.251l-1.4.701c-1 .5-2.3.1-2.801-1.001l-2.5-5.201c-.5-1-.1-2.3 1-2.8l1.4-.701c1.001-.5 2.301-.1 2.801 1.001l2.501 5.201c.5 1 0 2.3-1.001 2.8z" fill="#fff"/><path d="M654.182 474.252c-.5.3-1 .5-1.6.8-.5.2-1.2.2-1.7 0-.601-.2-1.001-.8-1.201-1.301l-.8-1.5-1.7-3c-.3-.501-.5-1.301-.3-2.001s.7-1.3 1.3-1.6c.5-.3 1-.5 1.6-.8.7-.3 1.401-.2 2.101.1.3.2.6.4.8.7.2.3.3.6.4.8l.7 1.6 1.4 3.201c.601 1 .1 2.5-1 3.001zm0 0c.5-.301.9-.701 1.1-1.301.2-.6.1-1.2-.2-1.6l-1.7-3.001-.8-1.5c-.1-.3-.3-.5-.4-.6-.2-.2-.4-.3-.6-.4-.4-.2-.9-.2-1.301 0l-1.5.8c-.8.4-1.2 1.4-.7 2.3l1.4 3.201.7 1.6c.2.501.501 1.001 1.001 1.301.5.3 1.1.3 1.7.1.3-.4.8-.7 1.3-.9z" fill="#000"/><path d="M662.584 471.151l-1.4.7c-1 .5-2.301.1-2.801-1l-2.5-5.201c-.5-1-.1-2.301 1-2.801l1.4-.7c1-.5 2.301-.1 2.801 1l2.5 5.201c.5 1.001.1 2.301-1 2.801z" fill="#fff"/><path d="M662.584 471.151c-.5.3-1 .5-1.6.8-.5.2-1.2.2-1.701 0-.6-.2-1-.8-1.2-1.3l-.8-1.5-1.7-3.001c-.3-.5-.5-1.3-.3-2 .2-.701.7-1.301 1.3-1.601.5-.3 1-.5 1.6-.8.7-.3 1.4-.2 2.101.1.3.2.6.4.8.7.2.3.3.6.4.8l.7 1.601 1.4 3.2c.6 1.001.1 2.501-1 3.001zm0 0c.5-.3.9-.7 1.1-1.3.2-.6.1-1.201-.2-1.601l-1.7-3-.8-1.501c-.1-.3-.3-.5-.4-.6-.2-.2-.4-.3-.6-.4-.401-.2-.901-.2-1.301 0l-1.5.8c-.8.401-1.2 1.401-.7 2.301l1.4 3.201.7 1.6c.2.5.5 1 1 1.3.501.3 1.101.3 1.701.1.3-.4.8-.7 1.3-.9z" fill="#000"/><path d="M671.086 467.05l-1.4.7c-1 .5-2.301.1-2.801-1l-2.5-5.201c-.5-1-.1-2.3 1-2.801l1.4-.7c1-.5 2.301-.1 2.801 1.001l2.5 5.201c.5 1 0 2.3-1 2.8z" fill="#fff"/><path d="M671.086 467.05c-.5.3-1 .5-1.6.8-.5.2-1.2.2-1.701 0-.6-.2-1-.8-1.2-1.3l-.8-1.5-1.7-3.001c-.3-.5-.5-1.3-.3-2s.7-1.301 1.3-1.601c.5-.3 1-.5 1.6-.8.7-.3 1.4-.2 2.101.1.3.2.6.4.8.7.2.3.3.6.4.801l.7 1.6 1.4 3.201c.5 1 .1 2.5-1 3zm0 0c.5-.3.9-.7 1.1-1.3.2-.6.1-1.2-.2-1.6l-1.7-3.001-.8-1.5c-.1-.3-.3-.5-.4-.601-.2-.2-.4-.3-.6-.4-.401-.2-.901-.2-1.301 0l-1.5.801c-.8.4-1.2 1.4-.7 2.3l1.4 3.201.7 1.6c.2.5.5 1 1 1.3.501.3 1.101.3 1.701.1.2-.4.8-.7 1.3-.9zm-37.708 20.604c.3 1.001.3 2.001.3 3.001-.1 1-.2 2-.7 3.001-.3-1.001-.3-2.001-.3-3.001.1-1.1.2-2.101.7-3.001z" fill="#000"/><path d="M611.474 488.755c3.1-.501 6.301-.701 9.402-.801 3.1-.1 6.301-.1 9.401.2-3.1.501-6.301.701-9.401.801-3.101.1-6.202.1-9.402-.2z" fill="#231F20"/><path d="M677.487 292.715l-1.4 88.918c-.1 7.201 1.7 14.303 5.401 20.504l42.209 72.415H738.9l-27.606-87.818 13.303-93.019s-11.002-5.001-47.11-1z" fill="#56D0ED"/><path d="M643.18 484.954l69.514-30.706 21.905 14.002 5.301-1.7 6.201 25.205-95.919 6.701c-.2 0-3.901-9.702-7.002-13.502z" fill="#F95F8F"/><path d="M745.901 491.755l11.402 13.503-134.927 2.2c-2.601 0-4.901-1.7-5.501-4.201l-.7-3s-4.401-5.501 12.502-15.403c16.904-9.902 21.404 13.702 21.404 13.702l95.82-6.801z" fill="#fff" stroke="#231F20" stroke-miterlimit="10"/><path d="M649.582 502.257c7.801-.6 15.603-1 23.404-1.4l23.405-1.2 23.405-.9 11.702-.401 11.702-.3-11.702.801-11.702.7-23.405 1.2-23.405.9c-7.801.1-15.603.4-23.404.6z" fill="#231F20"/><path d="M650.381 486.254c5.401-2.6 10.903-5.001 16.404-7.501 5.501-2.501 11.002-4.801 16.503-7.202 5.501-2.3 11.102-4.701 16.603-7.001l8.302-3.401c2.801-1.1 5.601-2.3 8.402-3.301-2.701 1.301-5.501 2.501-8.202 3.801l-8.202 3.701-16.503 7.201c-5.501 2.301-11.102 4.701-16.603 7.002-5.501 2.2-11.103 4.501-16.704 6.701z" fill="#000"/><path d="M668.885 484.553l-3 1.501c-1.2.6-2.701.1-3.201-1.1l-4.101-8.202c-.6-1.2-.1-2.701 1.101-3.201l3-1.5c1.2-.6 2.701-.1 3.201 1.1l4.101 8.202c.6 1.2.1 2.6-1.101 3.2z" fill="#fff"/><path d="M668.885 484.554l-2.2 1.1c-.4.2-.7.4-1.1.5-.4.1-.9.1-1.3 0-.901-.2-1.601-.9-1.901-1.701l-1.2-2.2-2.401-4.401-.6-1.1c-.2-.4-.3-1-.3-1.5.1-1.001.7-1.901 1.601-2.401l2.3-1.1c.4-.2.7-.4 1.2-.5.5-.1 1-.1 1.501 0 .5.1.9.4 1.2.7.4.3.6.8.7 1.2l1 2.301 2.101 4.601c.3.8.8 1.5.7 2.4 0 1-.6 1.8-1.301 2.101zm0 0c.701-.401 1.301-1.201 1.301-2.001.1-.9-.5-1.6-.8-2.3l-2.401-4.401-1.2-2.201c-.2-.4-.4-.7-.6-.9-.3-.2-.6-.4-.9-.5-.301-.1-.701-.1-1.001 0-.3.1-.7.3-1 .5l-2.2 1.1c-.6.3-1 .901-1.101 1.601 0 .3.001.7.201 1l.5 1.1 2.1 4.601 1 2.3c.3.801.8 1.401 1.601 1.701.4.1.8.1 1.2 0 .4-.1.8-.3 1.1-.5l2.2-1.1z" fill="#000"/><path d="M679.687 479.252l-3 1.501c-1.201.6-2.701.1-3.201-1.1l-4.101-8.202c-.6-1.2-.1-2.701 1.1-3.201l3.001-1.5c1.2-.6 2.7-.1 3.201 1.1l4.1 8.202c.601 1.1.1 2.6-1.1 3.2z" fill="#fff"/><path d="M679.687 479.252l-2.2 1.101c-.4.2-.7.4-1.1.5-.4.1-.901.1-1.301 0-.9-.2-1.6-.9-1.9-1.701l-1.2-2.2-2.401-4.401-.6-1.1c-.2-.4-.3-1-.3-1.5.1-1.001.7-1.901 1.6-2.401l2.301-1.1c.4-.2.7-.4 1.2-.5.5-.1 1-.1 1.5 0s.901.4 1.201.7c.4.3.6.8.7 1.2l1 2.301 2.1 4.601c.3.8.8 1.5.7 2.4 0 .9-.5 1.7-1.3 2.1zm0 0c.7-.4 1.3-1.2 1.3-2 .1-.9-.5-1.6-.8-2.3l-2.4-4.401-1.2-2.201c-.2-.4-.4-.7-.601-.9-.3-.2-.6-.4-.9-.5-.3-.1-.7-.1-1 0-.3.1-.7.3-1 .5l-2.2 1.1c-.601.3-1.001.9-1.101 1.601 0 .3 0 .7.2 1l.5 1.1 2.101 4.601 1 2.3c.3.801.8 1.401 1.6 1.701.4.1.801.1 1.201 0s.8-.3 1.1-.5l2.2-1.101z" fill="#000"/><path d="M691.49 474.752l-3.001 1.5c-1.2.6-2.7.1-3.2-1.1l-4.101-8.202c-.6-1.2-.1-2.7 1.1-3.201l3.001-1.5c1.2-.6 2.7-.1 3.2 1.1l4.101 8.202c.6 1.2.1 2.601-1.1 3.201z" fill="#fff"/><path d="M691.49 474.752l-2.2 1.1c-.401.2-.701.4-1.101.5-.4.1-.9.1-1.3 0-.9-.2-1.6-.9-1.9-1.7l-1.201-2.201-2.4-4.401-.6-1.1c-.2-.4-.3-1-.3-1.5.1-1 .7-1.901 1.6-2.401l2.301-1.1c.4-.2.7-.4 1.2-.5.5-.1 1-.1 1.5 0s.9.4 1.2.7c.4.3.6.8.701 1.2l1 2.301 2.1 4.601c.3.8.8 1.5.7 2.4 0 1-.5 1.701-1.3 2.101zm0 0c.7-.4 1.3-1.201 1.3-2.001.1-.9-.5-1.6-.8-2.3l-2.4-4.401-1.201-2.2c-.2-.401-.4-.701-.6-.901-.3-.2-.6-.4-.9-.5-.3-.1-.7-.1-1 0-.3.1-.7.3-1 .5l-2.201 1.101c-.6.3-1 .9-1.1 1.6 0 .3 0 .7.2 1l.5 1.1 2.101 4.601 1 2.301c.3.8.8 1.4 1.6 1.7.4.1.8.1 1.2 0 .4-.1.801-.3 1.101-.5l2.2-1.1z" fill="#000"/><path d="M703.392 468.95l-3 1.501c-1.201.6-2.701.1-3.201-1.101l-4.101-8.201c-.6-1.2-.1-2.701 1.1-3.201l3.001-1.5c1.2-.6 2.701-.1 3.201 1.1l4.101 8.202c.6 1.1.1 2.6-1.101 3.2z" fill="#fff"/><path d="M703.392 468.95l-2.2 1.101c-.4.2-.7.4-1.1.5-.4.1-.901.1-1.301 0-.9-.2-1.6-.9-1.9-1.701l-1.2-2.2-2.401-4.401-.6-1.1c-.2-.4-.3-1-.3-1.5.1-1.001.7-1.901 1.6-2.401l2.301-1.1c.4-.2.7-.4 1.2-.5.5-.1 1-.1 1.5 0 .501.1.901.4 1.201.7.4.3.6.8.7 1.2l1 2.301 2.1 4.601c.3.8.801 1.5.701 2.4 0 .9-.501 1.7-1.301 2.1zm0 0c.7-.4 1.301-1.2 1.301-2 .1-.9-.501-1.6-.801-2.3l-2.4-4.401-1.2-2.201c-.2-.4-.4-.7-.6-.9-.3-.2-.601-.4-.901-.5-.3-.1-.7-.1-1 0-.3.1-.7.3-1 .5l-2.2 1.1c-.601.3-1.001.9-1.101 1.601 0 .3 0 .7.2 1l.5 1.1 2.101 4.601 1 2.3c.3.801.8 1.401 1.6 1.701.401.1.801.1 1.201 0s.8-.3 1.1-.5l2.2-1.101zm-53.411 29.506c.301 1.401.301 2.901.201 4.301-.1 1.4-.301 2.801-.801 4.201-.3-1.4-.3-2.901-.2-4.301.2-1.4.3-2.8.8-4.201z" fill="#000"/><path d="M619.175 500.257c2.201-.3 4.401-.5 6.602-.6 2.2-.2 4.401-.3 6.601-.3 2.2-.1 4.401-.1 6.601-.1h3.301c1.1 0 2.2.1 3.301.1-1.101.2-2.201.2-3.301.4l-3.301.3c-2.2.2-4.401.3-6.601.3-2.2.1-4.401.1-6.601.1-2.201-.1-4.401-.1-6.602-.2z" fill="#231F20"/><path d="M686.889 495.256l-6.101-14.303 12.603-4.601 8.901 17.703-15.403 1.201z" stroke="#000" stroke-width=".5" stroke-miterlimit="10"/><path d="M697.891 148.286h-6.801v10.002h6.801v-10.002zm3.401 65.313l-11.402 33.507-54.611-42.609-6.502 9.102s60.513 60.812 66.814 59.812c6.301-1 23.805-55.511 23.805-55.511s-6.802-3.301-18.104-4.301z" fill="#EAB575"/><path d="M627.377 216.6c7.292 0 13.203-5.911 13.203-13.203s-5.911-13.203-13.203-13.203-13.203 5.911-13.203 13.203 5.911 13.203 13.203 13.203z" fill="#EAB575"/><path d="M553.662 191.394c5.69 0 10.303-4.612 10.303-10.302 0-5.689-4.613-10.302-10.303-10.302-5.689 0-10.302 4.613-10.302 10.302 0 5.69 4.613 10.302 10.302 10.302z" fill="#E0A66C"/><path d="M618.175 180.392l2.801-.3c.7-.1 1.3-.7 1.2-1.5l-.1-.8c-.1-.7-.7-1.301-1.5-1.2l-2.801.3c-.7.1-1.3.7-1.2 1.5l.1.8c.1.7.8 1.3 1.5 1.2z" fill="url(#paint3_linear)"/><path d="M622.576 184.693c-.5.5-1.1.6-1.7.7-.6.1-1.2.1-1.9-.3.5-.5 1.1-.6 1.7-.7.6 0 1.2 0 1.9.3z" fill="url(#paint4_linear)"/><path d="M625.477 191.194c2.9.3 5.801 1.601 8.201 3.401 1.201.9 2.201 2 3.101 3.301.9 1.2 1.4 2.7 1.8 4.101-.4-.601-.7-1.301-1.1-1.901l-.6-.9-.7-.8a17.68 17.68 0 00-3.101-3.001c-1.1-.9-2.3-1.7-3.601-2.3-1.3-.7-2.6-1.301-4-1.901z" fill="url(#paint5_linear)"/><path d="M610.774 187.994c-.6.7-1.2 1.2-2 1.6-.701.4-1.501.7-2.401.7.6-.7 1.2-1.2 2-1.6.701-.4 1.501-.7 2.401-.7z" fill="url(#paint6_linear)"/><path d="M600.472 166.089l15.303-2.8 14.803 33.307-15.803 1.7-14.303-32.207z" fill="#F95F8F"/><path d="M621.376 207.198c.2-.1.4-.401.5-.501 1.2-2 2.5-3.9 0-6.001-9.202-7.701-12.903-16.503-12.803-28.505 0-3.301-2.3-3.501-4.601-4.001-.2 0-.6 0-.7.1-2.4 1.2-3.9 1.3-3.9 5.101.2 13.703 4.901 24.505 15.203 33.507 2.9 2.4 3.8 1.4 6.301.3zm3.501-6.602c.8.3 2.2.6 3.1.7 1.001.1 1.501 0 1.901-1.2 2.3-6.801 2.1-12.702 0-19.504-.4-1.3-1-1.4-2.001-1.3-1 .1-2.4.4-3.3.7-.901.3-1.401.7-1.101 1.8 2.001 6.002 2.201 10.903.3 17.004-.3 1.1.201 1.5 1.101 1.8z" fill="#EAB575"/><path d="M679.888 134.583l11.902.5v6.501l2.901-4.5s3.801.7 2.3 5.301c0 0-.1 1.5-1.9 2.4l3.501 3.201s10.002-9.202 10.002-12.403c0-3.2-4.001-20.104-4.001-20.104l-2.601 6.201s-7.001 16.804-5.601-12.202c0 0-5.701 7.301-6.101 10.502-.3 3.201-4.301-2.1-3.401-6.601.1 0-11.102 11.802-7.001 21.204z" fill="#000"/><path d="M553.162 174.391l-.9 1.3c-.7 1.101-2.2 1.301-3.201.601l-16.203-11.203c-1.1-.7-1.3-2.2-.6-3.2l.9-1.301c.7-1.1 2.201-1.3 3.201-.6l16.203 11.203c1.1.7 1.3 2.2.6 3.2z" fill="#E0A66C"/><path d="M309.32 231.703c7.105-10.198 11.982-19.079 10.894-19.837-1.087-.758-7.728 6.895-14.833 17.093-7.104 10.198-11.982 19.079-10.894 19.837 1.088.758 7.729-6.895 14.833-17.093z" fill="#231F20"/><path opacity=".4" d="M296.11 208.098l12.303 21.804c.6 1.101 2 1.601 3.2 1.001 1.601-.701 1.801-2.601 3.201-4.901l-9.302 13.402c.1.2-15.103-22.004-9.402-31.306z" fill="url(#paint7_linear)"/><path d="M266.905 222.201c.6-9.002 5.901-16.704 13.802-19.704 7.002-2.701 15.003-3.201 18.404 5.601 6.801 17.403 37.408 107.822 37.408 107.822s-53.911-2.901-76.816 14.803l7.202-108.522z" fill="#FBE54B"/><path d="M281.508 196.796c6.463 0 11.702-5.24 11.702-11.703 0-6.463-5.239-11.702-11.702-11.702s-11.703 5.239-11.703 11.702 5.24 11.703 11.703 11.703zm4.372 13.325c4.069-.782 7.012-3.262 6.574-5.54-.437-2.278-4.09-3.492-8.158-2.711-4.069.782-7.012 3.262-6.575 5.54.438 2.279 4.091 3.492 8.159 2.711z" fill="#EAB575"/><path d="M318.115 245.105s-40.809-14.403-42.509-27.205c-1.7-12.803 43.809-17.704 43.809-17.704" fill="#FBE54B"/><path opacity=".4" d="M275.506 216.399l28.606 13.003c1.5.7 3.201.1 4.001-1.3 1.1-1.901 2.2-4.801 2-8.202l-1.8 21.304s-31.806-11.202-32.807-24.805z" fill="url(#paint8_linear)"/><path d="M321.212 222.655c.36-12.424-.422-22.527-1.747-22.565-1.325-.039-2.692 10.002-3.052 22.426-.36 12.424.422 22.526 1.747 22.565 1.325.038 2.692-10.002 3.052-22.426z" fill="#231F20"/><path d="M299.118 329.008c21.21-4.073 37.897-10.014 37.272-13.269-.625-3.255-18.326-2.591-39.536 1.483-21.21 4.073-37.897 10.014-37.272 13.269.625 3.254 18.326 2.591 39.536-1.483z" fill="#000"/><path d="M316.114 320.221l-12.002 76.715c-1.901 10.702-6.701 20.604-14.003 28.706L247.7 472.851l-12.902-2.5 37.507-67.914 4.201-80.316s16.904-7.402 39.608-1.9z" fill="#2B9EAA"/><path d="M293.31 481.553l-41.609-20.704-12.402 11.102-2.001-6.701-6.901 17.603 58.412 6.701c-.1.101 2.4-5.801 4.501-8.001z" fill="#FBE54B"/><path d="M230.297 482.953l-7.301 7.902 82.416 5.001c1.601.1 3.001-.9 3.501-2.401l.5-1.8s2.901-3.201-7.201-9.802c-10.103-6.601-13.403 7.802-13.403 7.802l-58.512-6.702z" fill="#fff" stroke="#231F20" stroke-miterlimit="10"/><path d="M288.909 491.955c-4.801-.2-9.502-.6-14.303-.9-4.801-.3-9.502-.8-14.303-1.2-4.801-.501-9.502-.901-14.303-1.401l-7.101-.8c-2.401-.3-4.701-.6-7.102-.9 2.401.1 4.801.3 7.202.4l7.201.5c4.801.4 9.502.8 14.303 1.2 4.801.5 9.502.901 14.303 1.401 4.601.5 9.402 1 14.103 1.7z" fill="#231F20"/><path d="M288.809 482.153a182.55 182.55 0 01-10.102-4.501c-3.401-1.5-6.701-3.101-10.002-4.701-3.301-1.6-6.601-3.201-9.902-4.901l-4.901-2.5c-1.6-.901-3.301-1.701-4.901-2.601 1.7.7 3.401 1.5 5.101 2.2l5.001 2.301c3.401 1.5 6.701 3.101 10.002 4.701 3.301 1.6 6.601 3.2 9.902 4.901 3.301 1.6 6.601 3.3 9.802 5.101z" fill="#fff"/><path d="M278.107 480.953l.7.4c1 .6 2.3.2 2.9-.8l2.101-3.801c.6-1 .2-2.301-.8-2.901l-.701-.4c-1-.6-2.3-.2-2.9.8l-2.101 3.801c-.6 1-.2 2.301.801 2.901z" fill="#fff"/><path d="M278.107 480.953c.4.2.8.5 1.3.6.5.1 1 0 1.4-.3.4-.3.7-.6.8-1.1l.6-1.301.6-1.3.301-.7.2-.3c0-.1.1-.2.1-.3.2-.8-.1-1.6-.801-1.901l-.6-.4c-.2-.1-.3-.2-.5-.2-.4-.1-.8 0-1.1.2-.4.2-.6.4-.9.901l-.8 1.2c-.5.8-1.101 1.6-1.501 2.5-.2.4-.2 1.001 0 1.401.2.3.5.7.901 1zm0 0c-.901-.5-1.301-1.601-1.001-2.501l1.201-2.7.6-1.301c.2-.4.5-1 1-1.3.5-.3 1.1-.5 1.7-.4.3 0 .6.2.8.3l.601.3c.5.3.9.8 1.2 1.401.2.6.2 1.2 0 1.8 0 .1-.1.3-.2.4l-.2.3-.4.6-.801 1.2-.8 1.201c-.2.4-.6.9-1.1 1.1-.4.2-1 .3-1.5.2-.2-.1-.6-.4-1.1-.6z" fill="#000"/><path d="M271.606 477.352l.7.4c1 .6 2.3.2 2.9-.8l2.101-3.801c.6-1 .2-2.3-.8-2.9l-.701-.4c-1-.601-2.3-.2-2.9.8l-2.101 3.8c-.5 1.101-.2 2.301.801 2.901z" fill="#fff"/><path d="M271.606 477.352c.4.2.8.5 1.3.6.5.1 1 0 1.4-.3.4-.3.7-.6.8-1.1l.6-1.3.6-1.301.301-.7.2-.3c0-.1.1-.2.1-.3.2-.8-.1-1.6-.801-1.9l-.6-.4c-.2-.101-.3-.201-.5-.201-.4-.1-.8 0-1.1.201-.4.2-.6.4-.9.9l-.8 1.2c-.5.8-1.101 1.6-1.501 2.5-.2.401-.2 1.001 0 1.401.2.4.5.8.901 1zm0 0c-.901-.5-1.301-1.6-1.001-2.501l1.201-2.7.6-1.3c.2-.4.5-1.001 1-1.301.5-.3 1.1-.5 1.7-.4.3 0 .6.2.8.3l.601.3c.5.3.9.801 1.2 1.401.2.6.2 1.2 0 1.8 0 .1-.1.3-.2.4l-.2.3-.4.6-.801 1.201-.8 1.2c-.2.4-.6.9-1.1 1.1-.4.2-1 .3-1.5.2-.2-.1-.6-.4-1.1-.6z" fill="#000"/><path d="M264.504 474.351l.7.4c1 .6 2.301.2 2.901-.8l2.1-3.801c.6-1 .2-2.3-.8-2.9l-.7-.4c-1-.6-2.301-.2-2.901.8l-2.1 3.801c-.6 1-.2 2.3.8 2.9z" fill="#fff"/><path d="M264.504 474.351c.4.2.8.501 1.3.601.5.1 1 0 1.401-.301.4-.3.7-.6.8-1.1l.6-1.3.6-1.3.3-.7.2-.3c0-.1.1-.2.1-.301.2-.8-.1-1.6-.8-1.9l-.6-.4c-.2-.1-.3-.2-.5-.2-.4-.1-.8 0-1.101.2-.4.2-.6.4-.9.9l-.8 1.2c-.5.801-1.1 1.601-1.5 2.501-.2.4-.2 1 0 1.4.2.3.5.7.9 1zm0 0c-.9-.5-1.3-1.6-1-2.5l1.2-2.701.6-1.3c.2-.4.5-1 1-1.3.5-.3 1.101-.5 1.701-.4.3 0 .6.2.8.3l.6.3c.5.3.9.8 1.2 1.4.2.6.2 1.2 0 1.801 0 .1-.1.3-.2.4l-.2.3-.4.6-.8 1.2-.8 1.2c-.2.4-.6.9-1.1 1.1-.401.201-1.001.301-1.501.201-.2-.1-.6-.401-1.1-.601z" fill="#000"/><path d="M257.402 470.35l.701.4c1 .601 2.3.201 2.9-.8l2.101-3.8c.6-1.001.2-2.301-.801-2.901l-.7-.4c-1-.6-2.3-.2-2.9.8l-2.101 3.801c-.6 1.1-.2 2.4.8 2.9z" fill="#fff"/><path d="M257.402 470.35c.401.201.801.501 1.301.601.5.1 1 0 1.4-.3.4-.301.7-.601.8-1.101l.6-1.3.6-1.3.3-.7.2-.3c0-.1.1-.2.1-.3.201-.801-.1-1.601-.8-1.901l-.6-.4c-.2-.1-.3-.2-.5-.2-.4-.1-.8 0-1.1.2-.4.2-.6.4-.9.9l-.8 1.2c-.501.801-1.101 1.601-1.501 2.501-.2.4-.2 1 0 1.4.2.4.5.8.9 1zm0 0c-.9-.5-1.3-1.6-1-2.5l1.2-2.701.601-1.3c.2-.4.5-1 1-1.3.5-.3 1.1-.5 1.7-.4.3 0 .6.2.8.3l.6.3c.501.3.901.8 1.201 1.4.2.6.2 1.2 0 1.801 0 .1-.1.3-.2.4l-.2.3-.401.6-.8 1.2-.8 1.2c-.2.4-.6.901-1.1 1.101-.4.2-1 .3-1.5.2-.2 0-.6-.3-1.101-.601zm31.307 19.305c.4.9.5 1.7.6 2.6 0 .9-.1 1.7-.4 2.601-.4-.901-.5-1.701-.6-2.601 0-.9 0-1.7.4-2.6z" fill="#000"/><path d="M307.513 491.555c-2.701.2-5.401.1-8.202-.1-2.7-.2-5.401-.5-8.102-1.1 2.701-.2 5.402-.1 8.202.1 2.801.2 5.501.5 8.102 1.1z" fill="#231F20"/><path d="M322.116 313.719l6.701 76.416c.5 6.201-.6 12.402-3.3 18.003l-31.807 64.913-13.103.901 18.304-77.316-16.503-76.015c0 .1 8.902-3.901 39.708-6.902z" fill="#56D0ED"/><path d="M362.124 485.254l-59.812-26.806-18.904 12.003-4.501-1.501-5.401 21.705 82.717 6.201c-.101 0 3.1-8.302 5.901-11.602z" fill="#FBE54B"/><path d="M273.406 490.755l-9.902 11.602 116.323 2.401c2.201 0 4.201-1.501 4.701-3.601l.6-2.501s3.901-4.701-10.702-13.402c-14.603-8.702-18.503 11.702-18.503 11.702l-82.517-6.201z" fill="#fff" stroke="#231F20" stroke-miterlimit="10"/><path d="M356.523 500.157c-6.701-.1-13.503-.4-20.204-.6-6.702-.301-13.503-.601-20.204-.901l-20.204-1.1-10.102-.6c-3.401-.3-6.702-.5-10.102-.7l10.102.3 10.102.4 20.204.9c6.701.4 13.402.7 20.204 1.1 6.701.2 13.503.601 20.204 1.201z" fill="#231F20"/><path d="M355.823 486.354c-4.801-1.901-9.602-3.901-14.403-5.901-4.801-2.001-9.502-4.101-14.303-6.102-4.701-2.1-9.502-4.2-14.203-6.301l-7.102-3.201c-2.3-1.1-4.701-2.2-7.001-3.3 2.401.9 4.801 1.9 7.202 2.9l7.201 3.001c4.801 2 9.502 4.101 14.303 6.101 4.701 2.101 9.502 4.201 14.203 6.301 4.701 2.101 9.402 4.201 14.103 6.502z" fill="#000"/><path d="M340.22 484.953l1.9 1.001c1.2.6 2.701.1 3.201-1.101l3.2-6.501c.601-1.2.1-2.7-1.1-3.201l-1.9-1c-1.2-.6-2.701-.1-3.201 1.1l-3.2 6.502c-.601 1.2-.101 2.6 1.1 3.2z" fill="#fff"/><path d="M340.22 484.954l1.9.9c.6.3 1.4.3 2 0 .701-.3 1.101-.9 1.301-1.501l.9-1.9 1.7-3.901c.2-.3.3-.6.3-.9.1-.3 0-.6 0-.9-.1-.6-.5-1-1-1.3l-1.9-1.001c-.5-.3-1.101-.3-1.701-.1-.3.1-.5.3-.7.5-.2.201-.4.501-.5.801l-1 1.9-2.101 3.701c-.4.6-.6 1.3-.4 2 .1.8.6 1.4 1.201 1.701zm0 0c-.601-.301-1.101-.901-1.301-1.601-.2-.7 0-1.5.4-2.1l1.701-3.901.9-1.9c.1-.3.3-.701.6-1.001.3-.3.6-.6 1-.7.8-.3 1.701-.3 2.401.1l1.9.9c.8.401 1.3 1.101 1.5 2.001.1.4.1.8 0 1.3-.1.4-.3.8-.5 1.1l-2.1 3.701-1 1.901c-.3.6-.8 1.3-1.501 1.5-.7.3-1.5.2-2.1-.1l-1.9-1.2z" fill="#000"/><path d="M330.918 480.353l1.9 1c1.2.6 2.7.1 3.201-1.1l3.2-6.502c.6-1.2.1-2.7-1.1-3.2l-1.9-1.001c-1.201-.6-2.701-.1-3.201 1.101l-3.201 6.501c-.6 1.1-.1 2.6 1.101 3.201z" fill="#fff"/><path d="M330.917 480.353l1.901.9c.6.3 1.4.3 2 0 .7-.3 1.1-.9 1.3-1.5l.901-1.901 1.7-3.901c.2-.3.3-.6.3-.9.1-.3 0-.6 0-.9-.1-.6-.5-1-1-1.3l-1.901-1c-.5-.301-1.1-.301-1.7-.1-.3.1-.5.3-.7.5-.2.2-.4.5-.5.8l-1 1.9-2.101 3.701c-.4.6-.6 1.3-.4 2 .1.7.5 1.301 1.2 1.701zm0 0c-.6-.3-1.1-.901-1.3-1.601-.2-.7 0-1.5.4-2.1l1.7-3.901.901-1.9c.1-.3.3-.7.6-1 .3-.301.6-.601 1-.701.8-.3 1.7-.3 2.4.1l1.901.901c.8.4 1.3 1.1 1.5 2 .1.4.1.8 0 1.3-.1.4-.3.8-.5 1.1l-2.1 3.701-1.001 1.901c-.3.6-.8 1.3-1.5 1.5-.7.3-1.5.2-2.1-.1l-1.901-1.2z" fill="#000"/><path d="M320.716 476.452l1.9 1c1.2.6 2.701.1 3.201-1.1l3.2-6.502c.601-1.2.101-2.7-1.1-3.2l-1.9-1c-1.2-.601-2.701-.1-3.201 1.1l-3.2 6.501c-.6 1.1-.1 2.601 1.1 3.201z" fill="#fff"/><path d="M320.716 476.452l1.9.9c.6.3 1.4.3 2 0 .701-.3 1.101-.9 1.301-1.5l.9-1.901 1.7-3.9c.2-.301.3-.601.3-.901.1-.3 0-.6 0-.9-.1-.6-.5-1-1-1.3l-1.9-1c-.5-.3-1.101-.3-1.701-.1-.3.1-.5.3-.7.5-.2.2-.4.5-.5.8l-1 1.9-2.101 3.701c-.4.6-.6 1.3-.4 2 .1.701.501 1.401 1.201 1.701zm0 0c-.6-.3-1.101-.9-1.301-1.601-.2-.7 0-1.5.4-2.1l1.701-3.901.9-1.9c.1-.3.3-.7.6-1 .3-.3.6-.6 1-.7.8-.301 1.701-.301 2.401.1l1.9.9c.8.4 1.3 1.1 1.501 2 .1.4.1.8 0 1.3a3.73 3.73 0 01-.501 1.101l-2.1 3.7-1 1.901c-.3.6-.8 1.3-1.501 1.5-.7.3-1.5.2-2.1-.1l-1.9-1.2z" fill="#000"/><path d="M310.514 471.351l1.9 1c1.2.6 2.701.1 3.201-1.1l3.2-6.502c.6-1.2.1-2.7-1.1-3.2l-1.9-1.001c-1.2-.6-2.701-.1-3.201 1.101l-3.201 6.501c-.6 1.1-.1 2.601 1.101 3.201z" fill="#fff"/><path d="M310.514 471.351l1.9.9c.6.3 1.4.3 2 0 .7-.3 1.1-.9 1.301-1.5l.9-1.901 1.7-3.901c.2-.3.3-.6.3-.9.1-.3 0-.6 0-.9-.1-.6-.5-1-1-1.3l-1.9-1c-.501-.3-1.101-.3-1.701-.1-.3.1-.5.3-.7.5-.2.2-.4.5-.5.8l-1 1.9-2.101 3.701c-.4.6-.6 1.3-.4 2 .1.701.5 1.301 1.201 1.701zm0 0c-.601-.3-1.101-.9-1.301-1.601-.2-.7 0-1.5.4-2.1l1.701-3.901.9-1.9c.1-.3.3-.7.6-1 .3-.3.6-.601 1-.701.8-.3 1.7-.3 2.401.1l1.9.901c.8.4 1.3 1.1 1.5 2 .1.4.1.8 0 1.3-.1.4-.3.8-.5 1.101l-2.1 3.7-1 1.901c-.3.6-.801 1.3-1.501 1.5-.7.3-1.5.2-2.1-.1l-1.9-1.2zm45.609 25.505c.5 1.2.6 2.4.7 3.601.1 1.2 0 2.4-.3 3.7-.5-1.2-.6-2.4-.7-3.6-.1-1.201 0-2.401.3-3.701z" fill="#000"/><path d="M382.728 498.556c-3.801.2-7.702.2-11.502 0-3.801-.2-7.602-.4-11.403-1 3.801-.2 7.702-.2 11.503 0 3.8.2 7.601.4 11.402 1z" fill="#231F20"/><path d="M324.316 493.956l5.301-12.303-10.802-4.001-7.802 15.203 13.303 1.101z" stroke="#000" stroke-width=".5" stroke-miterlimit="10"/><path d="M282.032 205.119l6.221-2.748-4.04-9.15-6.222 2.748 4.041 9.15zm34.483 5.479l33.006-.2 17.804-58.011 8.201-3.501s-8.901 66.613-10.802 71.414c-1.9 4.701-48.109 5.101-48.109 5.101s-1.301-5.901-.1-14.803z" fill="#EAB575"/><path d="M374.026 161.788c5.69 0 10.302-4.612 10.302-10.302 0-5.689-4.612-10.302-10.302-10.302-5.689 0-10.302 4.613-10.302 10.302 0 5.69 4.613 10.302 10.302 10.302z" fill="#E0A66C"/><path d="M369.525 146.585l1.6.201a2.373 2.373 0 002.701-2.001l3-19.504c.2-1.3-.7-2.5-2-2.7l-1.6-.2c-1.301-.2-2.501.7-2.701 2l-3 19.504c-.101 1.3.7 2.5 2 2.7z" fill="#E0A66C"/><path d="M718.695 334.723s18.404-20.704 20.204-41.008c0 0-21.604-1.9-27.605-1.9-6.001 0 7.401 42.908 7.401 42.908zm-445.59-11.602s-2.7 16.403 15.904 28.106l7.701-30.506-3.901-2.901s-16.503 3.801-19.704 5.301z" fill="#56D0ED"/><path d="M488.449 156.887h-30.406v21.605h30.406v-21.605z" fill="#FBE54B"/><path d="M521.156 124.781H490.75v21.604h30.406v-21.604z" fill="#56D0ED"/><path d="M396.931 234.903h-30.407v21.605h30.407v-21.605z" fill="#fff"/><path d="M391.43 240.704h-30.407v21.605h30.407v-21.605z" stroke="#fff" stroke-miterlimit="10"/><path d="M637.379 100.676h-30.406v21.605h30.406v-21.605z" fill="#56D0ED"/><path d="M631.878 106.477h-30.406v21.605h30.406v-21.605z" stroke="#fff" stroke-miterlimit="10" stroke-dasharray="2 2"/><path d="M544.861 217.4h-30.406v21.604h30.406V217.4z" fill="#EDEDED" stroke="#F95F8F" stroke-miterlimit="10"/><path d="M246.2 211.299c6.96 0 12.603-5.643 12.603-12.603s-5.643-12.602-12.603-12.602-12.602 5.642-12.602 12.602 5.642 12.603 12.602 12.603z" fill="#000"/><path d="M249.601 198.596c1.933 0 3.501-.896 3.501-2 0-1.105-1.568-2.001-3.501-2.001-1.934 0-3.501.896-3.501 2.001 0 1.104 1.567 2 3.501 2zm-9.702 17.804c3.48 0 6.301-1.792 6.301-4.001 0-2.21-2.821-4.001-6.301-4.001s-6.301 1.791-6.301 4.001c0 2.209 2.821 4.001 6.301 4.001z" fill="#000"/><path d="M301.712 323.121l2.8 18.104 2.701 18.103 5.301 36.208-.3-.4 5.601 2.1 1.6.6-1.7.3-8.002 1.701.1-.901 4.401 2.001.4.2-.2.4c-3.601 9.502-7.201 19.004-10.902 28.506l-5.501 14.202-5.601 14.203 5.201-14.403 5.301-14.302c3.501-9.602 7.101-19.104 10.602-28.606l.2.6-4.401-2.001-1.3-.6 1.4-.3 8.002-1.7-.1.9-5.601-2.1-.3-.1v-.3l-5.102-36.208-2.5-18.103-2.1-18.104z" fill="#fff"/><path d="M310.113 336.524c.6-2.901 1.601-5.601 2.501-8.302 1-2.7 2.1-5.401 3.501-8.002-.601 2.901-1.601 5.602-2.501 8.302-1 2.801-2.1 5.501-3.501 8.002z" fill="#2B9EAA"/><path d="M279.307 227.902c1.5 6.201 2.901 12.402 4.301 18.504 1.4 6.201 2.701 12.402 4.001 18.603 1.3 6.202 2.6 12.403 3.801 18.604l1.8 9.302c.6 3.101 1.2 6.201 1.7 9.402-.8-3.101-1.5-6.201-2.2-9.302l-2.101-9.302c-1.4-6.201-2.7-12.402-4-18.604-1.301-6.201-2.601-12.402-3.801-18.603-1.2-6.102-2.401-12.303-3.501-18.604z" fill="url(#paint9_linear)"/><path opacity=".39" d="M285.508 196.095l-4.001 7.402-8.301-5.801 12.302-1.601z" fill="url(#paint10_linear)"/><path d="M285.108 173.391l-2 11.702s-8.102-4.201-3.501 6.302c4.601 10.502 1 11.102 1 11.102s10.903 11.402.801 20.104c-10.103 8.602-24.705 2.6-27.006 13.903-2.3 11.302-33.807-.6-10.102-30.507 0 0-10.502-14.502 1.9-20.904 0 0 10.102-15.103 20.305-8.701 0 0 7.901-17.304 18.603-3.001z" fill="#000"/><path opacity=".39" d="M316.014 219.6s39.208 2.301 43.209 0c0 0 2.6 2.101 5.501.7 0 0 1 2.501-14.603 3.601l-33.507 1.5c.1 0-.6-1.2-.6-5.801z" fill="url(#paint11_linear)"/><path d="M494.35 474.852c4.301-10.802 11.002-20.104 19.704-27.906 1.401-1.2-.7-3.3-2-2-9.102 8.101-15.903 17.903-20.404 29.106-.8 1.8 2 2.5 2.7.8z" fill="#C8E8A3"/><path d="M508.953 453.147c-.1 0-.1-.1 0 0-.3-.1-.4-.2-.6-.2l.6.2z" fill="#C8E8A3"/><path d="M551.262 428.642c2.7-.2 5.501-1.2 7.401-3.2 1.901-2.001 2.901-4.901 2.201-7.502-.3-1.1-1.001-2.2-2.101-2.4-1.5-.3-2.6 1.2-3.6 2.4-2.001 2.601-5.302 4.901-8.402 3.901-.1-1 .7-1.8 1.5-2.4 2.301-1.801 4.701-3.301 6.701-5.401 2.001-2.101 3.501-4.901 3.201-7.702-.3-2.901-3-5.501-5.801-5.001-3.501.6-4.801 4.701-5.501 8.102-.7 3.4-2.301 7.601-5.701 7.901-.3 0-.6 0-.9-.1-.501-.3-.601-1-.501-1.6.301-2.101 1.801-3.901 2.901-5.801 1.1-1.901 1.6-4.501.1-6.102-1-1-2.5-1.3-3.901-1.2-5.201.3-9.902 5.001-10.002 10.302-.1 3.701 1.701 7.502.2 10.902-.6 1.301-2.1 2.501-3.4 2.001-1.401-.6-1.601-2.501-1.501-4.101.2-2.5.3-5.001.5-7.601.1-1.601-.1-3.601-1.6-4.101-1.3-.4-2.5.7-3.401 1.7-1.6 1.9-3 4.101-3.1 6.601-.1 4.601 4.401 8.702 3.4 13.203-.4 1.8-2.6 3.501-3.9 2.2-.4-.4-.6-1-.7-1.6-.601-3.401.6-7.001-.5-10.202-.401-1.2-1.401-2.4-2.701-2.3-.8.1-1.5.6-2 1.2-3.701 4.001-4.101 10.502-1.001 14.903 1.001 1.4 2.301 2.6 2.701 4.301.4 1.6-.7 3.801-2.401 3.6-1.6-.2-2.1-2.3-2.2-4 0-1.701-.2-3.701-1.7-4.401-1.101-.5-2.401.2-3.101 1.1-.7 1-.8 2.2-.8 3.401.1 5.301 2.9 10.402 7.201 13.402 2.501.801 4.201 3.401 6.302 5.101a11 11 0 008.901 2.201c1.701-.3 3.501-1.4 3.501-3.101 0-1.5-1.5-2.5-2.901-3.1-1.4-.5-3-.801-4-1.801-.5-.5-.901-1.2-.8-1.9.2-1.4 2.1-2.001 3.4-1.5 1.3.5 2.301 1.6 3.401 2.5 3.701 2.901 9.502 2.501 12.802-.9 1.701-1.7 2.401-5.101.2-6.201-1.1-.5-2.3-.2-3.5-.1-1.501.2-3.101.1-4.501-.3-.9-.301-1.901-.801-2.101-1.701-.2-.9.401-1.8 1.301-2.2.8-.4 1.8-.3 2.7-.2 3.501.4 6.902 1.6 10.402 1.2 4.301-.4 8.302-3.301 10.002-7.201.5-1.001.7-2.301 0-3.101-.4-.5-1.1-.6-1.8-.7-2.301-.2-4.501.8-6.801 1.4-2.301.6-5.001.5-6.502-1.3 3.401-2.601 8.202-1.2 12.403-1.501zm-36.708 12.703c-2.1-2-3.4-4.801-3.7-7.702 0-.5 0-1.1.4-1.4.3-.2.6-.2 1-.2 2.4.3 3.701 2.801 4.601 5.001.4 1.1.8 2.301.5 3.401-.4 1.1-1.9 1.7-2.801.9zm21.405-18.704c-.5.5-1.401.6-1.901 0-1.8-3.2-1.8-4.901-1.3-8.501.1-.801.4-1.701 1.1-2.001.7-.3 1.501.1 2.001.6 2.1 1.901 1.8 5.301 1 8.102-.2.6-.4 1.3-.9 1.8zm3.3 10.802c.801.2 1.601.501 1.801 1.301.1.8-.5 1.4-1.2 1.8-2.701 1.7-6.402 1.8-9.202.2-.801-.5-1.601-1.5-1.001-2.2 3.301-1.801 6.102-2.001 9.602-1.101zm-64.112 16.504c3.8 2.2 6.101 8.101 7.501 12.002 1.6 4.101 2.501 8.402 3.001 12.803.2 1.8 3.1 1.8 2.9 0-1-8.502-3.8-22.605-12.002-27.306-1.6-.9-3.001 1.6-1.4 2.501zm.799 6.601l-.1.1c-.1.2-.2.3-.3.5l.4-.6z" fill="#C8E8A3"/><path d="M459.944 402.337c.5-3.101.1-6.501-1.601-9.102-1.7-2.7-4.701-4.601-7.901-4.501-1.301 0-2.701.5-3.201 1.701-.7 1.6.6 3.3 1.7 4.701 2.401 3 4.001 7.301 2.101 10.502-1.1-.1-1.801-1.301-2.301-2.301-1.4-3-2.4-6.201-4.201-9.002-1.8-2.8-4.5-5.301-7.801-5.701-3.301-.4-7.002 1.901-7.202 5.201-.3 4.001 4.001 6.702 7.602 8.402 3.701 1.7 7.902 4.601 7.301 8.602 0 .3-.1.7-.4 1-.5.5-1.3.4-1.9.1-2.301-1-3.901-3.101-5.701-4.801-1.801-1.7-4.601-3.001-6.802-1.8-1.4.8-2.2 2.5-2.5 4.1-1.1 6.002 3.001 12.403 8.802 14.003 4.101 1.1 8.901.1 12.302 2.701 1.3 1 2.301 3 1.3 4.401-1 1.4-3.3 1.1-5.001.6-2.8-.9-5.601-1.701-8.401-2.601-1.701-.5-4.101-.9-5.001.7-.8 1.301.1 3.001 1 4.201 1.7 2.301 3.801 4.501 6.501 5.301 5.101 1.401 10.902-2.6 15.703-.3 1.901.9 3.201 3.801 1.401 5.001-.6.4-1.301.4-2.001.4-4.001-.2-7.701-2.6-11.602-2.2-1.4.2-3.101.9-3.301 2.4-.2.901.3 1.801.8 2.601 3.401 5.201 10.703 7.501 16.504 5.201 1.8-.7 3.6-1.9 5.501-1.9 2 0 4.101 1.9 3.301 3.7-.701 1.801-3.201 1.801-5.102 1.301-1.9-.4-4.2-.801-5.401.7-.8 1.1-.5 2.8.4 3.8.901 1.001 2.301 1.501 3.601 1.801 5.901 1.4 12.503-.4 17.004-4.501 1.6-2.601 5.001-3.801 7.501-5.701 2.901-2.201 4.801-5.801 5.001-9.402.1-2-.6-4.401-2.6-4.801-1.701-.4-3.301 1-4.201 2.4-1 1.401-1.701 3.101-3.201 4.001-.7.4-1.6.7-2.4.4-1.501-.6-1.601-2.8-.7-4.201.9-1.4 2.4-2.1 3.7-3.1 4.201-3.401 5.401-10.002 2.501-14.603-1.501-2.401-5.101-4.101-6.902-2-.9 1-.9 2.6-1 3.9-.2 1.801-.8 3.501-1.6 5.001-.5 1.001-1.4 1.901-2.501 2.001-1.1 0-1.9-1-2.1-2.101-.2-1.1.1-2.1.5-3.1 1.4-3.801 3.701-7.302 4.201-11.303.7-4.901-1.4-10.202-5.401-13.202-1-.8-2.401-1.401-3.501-.8-.6.4-1 1.1-1.2 1.8-.8 2.6-.3 5.301-.3 8.002 0 2.7-.8 5.801-3.201 6.901-1.7-4.601 1.1-9.702 1.901-14.503zm4.3 44.709a14.332 14.332 0 01-9.702 2c-.6-.1-1.2-.3-1.5-.8-.2-.4-.1-.8.1-1.2 1-2.601 4.101-3.401 6.902-3.801 1.3-.2 2.8-.3 3.9.4 1.201.7 1.401 2.601.3 3.401zm-15.203-29.106c.4.7.2 1.801-.5 2.101-4.001 1.2-6.001.7-10.002-.901-.8-.3-1.8-.9-1.9-1.8-.1-.8.5-1.6 1.2-2.1 2.701-1.801 6.501-.601 9.302 1.1.8.4 1.5.9 1.9 1.6zm13.003-.8c.4-.8 1-1.7 2-1.6.9 0 1.401 1 1.701 1.8 1.2 3.501.3 7.702-2.301 10.402-.7.8-2.2 1.4-2.8.5-1.001-4.201-.5-7.301 1.4-11.102z" fill="#C8E8A3"/><path d="M492.75 443.145c-1.9 11.003-2.4 21.905-1.3 33.007.2 1.801 3.101 1.801 2.901 0-1.1-10.802-.7-21.504 1.2-32.206.3-1.801-2.5-2.601-2.801-.801z" fill="#8CAD59"/><path d="M493.55 442.945h-.1c-.2 0-.3 0-.5.1l.6-.1z" fill="#8CAD59"/><path d="M519.156 401.237c2.3-1.5 4.2-3.701 5.001-6.301.8-2.601.2-5.702-1.701-7.702-.8-.8-1.9-1.4-3-1.1-1.401.5-1.801 2.3-2.001 3.801-.6 3.3-2.3 6.801-5.601 7.401-.6-.8-.2-1.9.2-2.8 1.2-2.601 2.601-5.101 3.401-7.902.8-2.801.8-5.901-.9-8.302-1.701-2.4-5.201-3.4-7.502-1.7-2.8 2.1-2 6.401-1 9.802s1.6 7.701-1.3 9.702c-.3.2-.5.3-.8.3-.601 0-1.001-.6-1.201-1.2-.7-2.001-.2-4.301-.2-6.502 0-2.2-.7-4.701-2.8-5.401-1.301-.5-2.901 0-4.101.8-4.501 2.701-6.301 9.102-3.901 13.803 1.7 3.301 5.101 5.801 5.401 9.502.1 1.5-.6 3.201-2.1 3.401-1.501.2-2.601-1.5-3.201-2.901-1.1-2.3-2.1-4.601-3.2-6.901-.701-1.4-1.801-3.101-3.301-2.801-1.3.3-1.901 1.801-2.201 3.101-.5 2.4-.7 5.001.4 7.301 2.101 4.101 8.002 5.602 9.302 10.002.5 1.801-.6 4.301-2.4 3.801-.6-.2-1-.6-1.4-1.1-2.101-2.701-2.801-6.401-5.301-8.702-.901-.8-2.401-1.4-3.401-.8-.7.4-1 1.2-1.2 2-1.401 5.201 1.4 11.203 6.201 13.603 1.5.8 3.3 1.2 4.401 2.501 1.1 1.2 1.2 3.7-.4 4.301-1.601.6-3.001-1.101-3.801-2.501-.8-1.5-1.901-3.201-3.501-3.001-1.2.1-2.1 1.301-2.2 2.501-.1 1.2.4 2.4.9 3.401 2.6 4.601 7.501 7.801 12.702 8.401 2.601-.5 5.302 1.001 8.002 1.501 3.101.6 6.501-.3 8.902-2.301 1.3-1.1 2.4-2.9 1.6-4.401-.7-1.3-2.5-1.5-4.001-1.3-1.5.2-3 .7-4.401.3-.7-.2-1.3-.6-1.6-1.3-.5-1.3.9-2.701 2.301-2.901 1.4-.2 2.8.3 4.2.6 4.601.8 9.602-2.3 10.903-6.801.7-2.301-.3-5.601-2.701-5.501-1.2 0-2.2.9-3.101 1.6-1.2.9-2.7 1.5-4.2 1.901-.901.2-2.001.2-2.701-.501-.6-.7-.5-1.8.1-2.6.6-.7 1.4-1.2 2.301-1.5 3.3-1.301 6.801-1.901 9.802-3.801 3.6-2.401 5.701-6.802 5.401-11.102-.1-1.101-.501-2.401-1.501-2.701-.6-.2-1.3 0-1.9.2-2.1.9-3.601 2.901-5.301 4.501-1.7 1.6-4.201 2.801-6.301 1.9 1.5-4.2 6.401-5.301 9.902-7.601zm-26.206 28.606c-2.8-.801-5.301-2.601-6.901-5.001-.3-.4-.5-.901-.3-1.401.1-.3.5-.5.8-.6 2.2-.8 4.601.7 6.401 2.201.901.7 1.801 1.6 2.001 2.7.1 1.2-.9 2.401-2.001 2.101zm9.902-26.606c-.2.7-1 1.201-1.7.9-3.101-1.9-4.001-3.5-5.201-6.901-.3-.7-.5-1.6 0-2.3.5-.601 1.3-.601 2.1-.5 2.801.7 4.101 3.8 4.701 6.601.2.8.3 1.5.1 2.2zm8.002 7.902c.8-.2 1.7-.3 2.2.3.5.6.2 1.5-.2 2.1-1.6 2.801-4.801 4.601-8.001 4.501-.9 0-2.201-.6-1.901-1.5 2.101-3.001 4.401-4.401 7.902-5.401z" fill="#8CAD59"/><path d="M519.055 470.451c2.601 12.402-1.8 26.105-11.302 34.407-.6.5-1.4.8-2.201.8h-26.305c-.8 0-1.6-.3-2.2-.8-9.502-8.402-14.003-22.105-11.303-34.407.3-1.501 1.701-2.501 3.201-2.501h47.01c1.4 0 2.8 1 3.1 2.501z" fill="#F95F8F"/><path opacity=".25" d="M476.947 504.858c.6.5 1.4.8 2.2.8h26.305c.801 0 1.601-.3 2.201-.8 3.301-2.901 6.001-6.502 8.002-10.402-31.807.3-45.81-15.203-50.411-22.005-1.7 11.803 2.701 24.505 11.703 32.407z" fill="url(#paint12_linear)"/><path opacity=".4" d="M733.199 224.101s-5.101 1.9-9.502 2.301c0 0-16.804 49.61-21.605 50.31 0 0-2.9 4.401-8.201 0s-30.006-29.006-30.006-29.006 26.605 24.005 30.706 25.705c0 0 1.1.8 2.5-1.1 1.401-2.001 5.101-6.101 9.002-17.204 0 0 11.903-30.706 11.903-32.906 0 0 13.702 1.8 15.203 1.9z" fill="url(#paint13_linear)"/><path d="M663.384 287.214c6.702-1.501 13.503-2.501 20.404-3.301 6.802-.8 13.703-1.2 20.605-1.4 6.901-.1 13.802.2 20.604.8 6.801.7 13.602 2 20.304 3.801-3.401-.6-6.702-1.501-10.102-1.901-3.401-.6-6.802-.9-10.202-1.2-6.802-.5-13.703-.7-20.504-.6-6.902.1-13.703.5-20.505 1.1-3.4.3-6.801.7-10.202 1.1-3.6.601-7.001 1.101-10.402 1.601z" fill="url(#paint14_linear)"/><path d="M682.588 163.489c.5 1.1 1.201 2 2.101 2.8.8.801 1.7 1.501 2.8 2.001 2.101 1 4.401 1.4 6.602 1.2 2.3-.1 4.601-.7 6.601-1.7 1-.5 2-1.1 2.901-1.901.9-.7 1.7-1.6 2.4-2.5-1.1 2.1-2.9 3.801-5.001 5.001-2.1 1.2-4.501 1.8-6.901 2-2.401.2-4.901-.3-7.102-1.5-2.1-1.2-3.7-3.101-4.401-5.401z" fill="url(#paint15_linear)"/><path opacity=".39" d="M631.478 216s7.101-2.601 8.302-7.902l-1.401 8.602s52.611 54.411 57.112 56.811c0 0 1 2.801-11.902-8.302l-22.705-20.304S632.778 217.9 631.478 216z" fill="url(#paint16_linear)"/><path d="M699.892 217.9s12.402.2 18.103 4.301l1.4-4.301s-10.302-4.701-18.103-4.301l-1.4 4.301z" fill="url(#paint17_linear)"/><path opacity=".39" d="M563.464 183.793s.2 4.401-1.3 6.501c0 0 41.909 54.911 51.21 60.112 0 0-21.904-14.102-56.311-59.612.1 0 6.201-2.5 6.401-7.001z" fill="url(#paint18_linear)"/><path opacity=".39" d="M371.425 161.488s-1 .701-3.9.3l-18.004 48.61 16.203-52.81s2.501 3.6 5.701 3.9z" fill="url(#paint19_linear)"/><path opacity=".25" d="M738.899 293.815s-62.712 1.801-71.714 10.602l2-10.202c0-.1 38.308-7.401 69.714-.4z" fill="url(#paint20_linear)"/><path opacity=".34" d="M322.115 313.719s-45.509 13.203-45.109 25.505c0 0-5.001-7.601-3.8-16.203-.1.1 19.203-6.901 48.909-9.302z" fill="url(#paint21_linear)"/><path d="M710.394 168.09s-19.904 27.105-19.304 36.407l11.702 1.601s-4.701-13.203 7.602-38.008z" fill="url(#paint22_linear)"/><path d="M661.284 189.094s-8.402-6.401-10.702-6.701c0 0 15.503-12.803 23.405-14.303.1 0-14.503 13.503-12.703 21.004z" fill="url(#paint23_linear)"/><path d="M663.384 190.794c1.101.901 2.101 1.901 3.101 3.001 1 1.1 1.9 2.1 2.7 3.301-1.1-.9-2.1-1.901-3.1-3.001-.9-1-1.901-2.1-2.701-3.301z" fill="url(#paint24_linear)"/><path d="M680.488 168.09s1.8 3.401 5.001 3.801c0 0-12.803 49.11-12.703 55.511-.1 0 3.001-44.009 7.702-59.312z" fill="url(#paint25_linear)"/><path d="M641.78 211.499l46.209 37.407-47.309-33.707 1.1-3.7z" fill="url(#paint26_linear)"/><path d="M692.89 247.206l7.902-27.006 3.5 1.1-11.402 25.906zm-127.525-60.112v3.2l40.208 41.909-40.208-45.109z" fill="#DBDBDB"/><path opacity=".39" d="M691.09 151.487s5.201-.401 6.801-3.201l-6.701 8.902-.1-5.701z" fill="url(#paint27_linear)"/><path d="M701.492 304.317l-2.501 20.704-2.6 20.704-5.401 41.409-.4-.5 7.401 1.5 1.1.2-1 .6-5.101 3.401-.1-.8 5.001 2.5.2.1.1.2c3.601 9.102 7.102 18.304 10.602 27.406 3.501 9.102 7.002 18.304 10.402 27.505-3.7-9.101-7.401-18.203-11.002-27.305-3.601-9.102-7.301-18.204-10.902-27.306l.2.2-5.101-2.5-.7-.4.7-.5 5.001-3.401.2.9-7.401-1.5-.501-.1.1-.5 5.602-41.409 2.9-20.704 3.201-20.404z" fill="#fff"/><path opacity=".25" d="M716.695 463.349c1.301.6 2.601 1.301 3.801 2.101 1.2.7 2.401 1.5 3.601 2.3a67.93 67.93 0 016.701 5.301l-.6-.1c1-.1 1.9-.3 2.901-.4 1-.1 1.9-.2 2.9-.2-.9.4-1.8.8-2.7 1.1-.901.3-1.801.601-2.801.901l-.3.1-.4-.2c-2.401-1.501-4.701-3.201-6.901-5.001-1.101-.901-2.201-1.801-3.201-2.801-1.1-1-2.101-2-3.001-3.101z" fill="url(#paint28_linear)"/><path opacity=".25" d="M696.391 474.552c1.7 2.5 3.301 5.001 4.801 7.601 1.6 2.601 3.101 5.101 4.601 7.702l-.9-.5c2.8-.301 5.701-.501 8.502-.701 2.8-.2 5.701-.4 8.501-.5 2.801-.2 5.701-.3 8.502-.4 2.801-.1 5.701-.1 8.502-.1-2.801.5-5.601.9-8.402 1.2-2.801.401-5.601.701-8.502.901-2.8.3-5.701.5-8.501.8-2.801.2-5.702.4-8.502.6h-.6l-.3-.5c-1.401-2.601-2.701-5.301-4.001-8.002-1.3-2.7-2.601-5.401-3.701-8.101z" fill="url(#paint29_linear)"/><path opacity=".25" d="M643.18 484.954c1-.901 2.101-1.601 3.201-2.201 1.1-.6 2.3-1.2 3.501-1.7 1.2-.5 2.4-.9 3.6-1.3 1.2-.401 2.501-.701 3.801-.801-1 .901-2.1 1.601-3.201 2.201-1.1.6-2.3 1.2-3.5 1.7-1.201.5-2.401.9-3.601 1.3-1.2.401-2.501.701-3.801.801z" fill="url(#paint30_linear)"/><path opacity=".25" d="M657.283 495.256c1.801-.6 3.601-1 5.401-1.3 1.801-.301 3.701-.601 5.501-.701 1.801-.2 3.701-.3 5.502-.3 1.9 0 3.7 0 5.601.3-1.801.6-3.601 1.001-5.401 1.301-1.801.3-3.701.6-5.502.7-1.8.2-3.7.3-5.501.3-1.9 0-3.7-.1-5.601-.3z" fill="url(#paint31_linear)"/><path d="M391.229 337.824c0 3.001-1.2 5.501-2.8 5.901-.2 0-.3.1-.5.1-1.801 0-3.201-2.7-3.201-6.001s1.4-6.001 3.201-6.001c.2 0 .3 0 .5.1 1.6.4 2.8 2.9 2.8 5.901z" fill="#fff" stroke="#DBDBDB" stroke-miterlimit="10"/><path d="M498.351 337.824c0 3.301-1.4 6.001-3.201 6.001H388.429v-.1c1.6-.4 2.8-2.9 2.8-5.901s-1.2-5.501-2.8-5.901v-.1H495.05c1.8 0 3.301 2.7 3.301 6.001zm11.402 0c0 3.001-1.2 5.501-2.8 5.901-.2 0-.3.1-.5.1-1.801 0-3.201-2.7-3.201-6.001s1.4-6.001 3.201-6.001c.2 0 .3 0 .5.1 1.6.4 2.8 2.9 2.8 5.901z" fill="#fff" stroke="#DBDBDB" stroke-miterlimit="10"/><path d="M616.875 337.824c0 3.301-1.4 6.001-3.2 6.001H506.953v-.1c1.6-.4 2.801-2.9 2.801-5.901s-1.201-5.501-2.801-5.901v-.1h106.622c1.8 0 3.3 2.7 3.3 6.001z" fill="#fff" stroke="#DBDBDB" stroke-miterlimit="10"/><path d="M587.569 98.276l.1 2h-.2v-2h.1zm.1 4.001v2.1h-.3v-2.1h.3zm.1 4.1v2.001h-.5l.1-2.001h.4zm0 4.001l.1 2.101h-.6v-2.101h.5zm.1 4.101v2h-.7l.1-2h.6zm0 4.001v2.1h-.7v-2.1h.7zm.1 4.101v2h-.8v-2h.8zm0 4.001v2.1h-.9v-2.1h.9zm0 4.1v2.001h-.9v-2.001h.9zm0 4.001v2.101h-.9v-2.101h.9zm0 4.101v1l-.4-.5h1v1h-1.5v-1.5h.9zm2.6.5h2.101v1h-2.101v-1zm4.202 0h2v1h-2v-1zm4.1 0h2.1v1h-2.1v-1zm4.101 0h2.101v1h-2.101v-1zm4.201 0h2v1h-2v-1zm4.101 0l2.1.1v.8h-2.1v-.9zm4.101.1h2.1v.8h-2.1v-.8zm4.2 0h2.001v.8h-2.001v-.8zm4.101 0h2.101v.8h-2.101v-.8zm4.101.1h2.101v.6h-2.101v-.6zm4.201 0h2v.6h-2v-.6zm4.101.1h2.1v.4h-2.1v-.4zm4.201 0l2 .1v.2l-2 .1v-.4zm4.1.1h2.101v.2h-2.101v-.2z" fill="#C6C6C6"/><path d="M500.852 195.395h-30.407V217h30.407v-21.605z" fill="#A5A5A5"/><path d="M485.649 134.583h-37.808v33.507h5.901m-49.21-45.809h4.701v126.625h-10.102m103.321-44.409h23.405v9.102m-13.203-63.413v33.607h-27.006v10.102" stroke="#C6C6C6" stroke-miterlimit="10" stroke-dasharray="2 2"/><path d="M370.125 166.49l-7.901 43.908" stroke="url(#paint32_linear)" stroke-miterlimit="10"/><path d="M281.507 175.791s-14.403 5.301-13.002 14.903" stroke="url(#paint33_linear)" stroke-miterlimit="10"/><path d="M685.489 119.48c-1.201 2-2.201 4.001-2.701 6.201-.3 1.1-.4 2.201-.4 3.301-.1 1.1.1 2.2.2 3.401-.5-1.001-.9-2.201-1-3.401-.1-.6 0-1.2 0-1.8.1-.601.1-1.201.3-1.801.3-1.2.7-2.3 1.4-3.3.5-1.001 1.301-1.901 2.201-2.601z" fill="url(#paint34_linear)"/><path d="M693.291 134.283c2.1-.3 4.1-.2 6.201-.1 2 .2 4.101.4 6.101.9-2.101.3-4.101.2-6.201.1-2.101-.1-4.101-.4-6.101-.9z" fill="url(#paint35_linear)"/><path d="M279.307 224.201s20.704 30.406 39.108 38.808l-7.101-20.604s-19.004-5.401-32.007-18.204z" fill="url(#paint36_linear)"/><path d="M266.904 313.719s38.708-14.203 57.412-10.302l-57.412 10.302z" fill="url(#paint37_linear)"/><path d="M267.005 227.902s-4.301 73.815 25.605 79.416l-32.107 9.702 6.002-88.818.5-.3z" fill="url(#paint38_linear)"/><path d="M280.607 474.052l4.201 3.3 14.603-10.902" stroke="url(#paint39_linear)" stroke-miterlimit="10"/><path d="M236.398 471.851l2.501 5.501 10.202-9.002" stroke="url(#paint40_linear)" stroke-miterlimit="10"/><path d="M278.307 486.354l31.306 3.001 6.501-15.303" stroke="url(#paint41_linear)" stroke-miterlimit="10"/><path d="M242.7 480.153l23.604 2.9" stroke="url(#paint42_linear)" stroke-miterlimit="10"/><path d="M258.903 47.465c-6.201 3.701-13.103 6.502-20.704 8.302-17.104 4.101-36.708 3.4-58.212-2-55.111-14.003-76.715 9.102-109.422 44.009-20.204 21.504-45.21 48.309-85.117 72.114-29.406 17.504-72.715 35.507-112.423 21.805-23.805-8.202-35.107-24.205-35.207-24.405-.3-.4-.2-.901.2-1.201.4-.3.9-.2 1.2.2.1.201 11.203 15.804 34.507 23.805 39.008 13.403 81.817-4.401 110.923-21.704 39.708-23.605 64.713-50.31 84.817-71.815 31.906-34.106 54.911-58.711 111.122-44.509 21.304 5.402 40.608 6.102 57.412 2 16.003-3.8 29.006-12.002 37.707-23.704C296.11 2.957 291.91-39.652 264.004-86.46c-.2-.4-.1-.9.3-1.2.4-.3.9-.1 1.2.3 28.306 47.509 32.507 90.718 11.603 118.723-5.101 6.502-11.103 11.803-18.204 16.104zm588.418 442.59c3.301-1.901 7.002-3.401 11.003-4.401 9.101-2.201 19.504-1.801 30.906 1.1 29.306 7.402 40.708-4.801 58.112-23.405 10.702-11.402 24.004-25.705 45.209-38.307 15.599-9.302 38.609-18.804 59.709-11.603 12.61 4.401 18.61 12.803 18.71 12.903.1.2.1.5-.1.6-.2.1-.5.1-.6-.1-.1-.1-5.9-8.402-18.31-12.602-20.7-7.102-43.41 2.3-58.909 11.502-21.104 12.502-34.307 26.705-45.009 38.107-16.904 18.104-29.206 31.207-59.012 23.605-11.302-2.9-21.605-3.2-30.506-1.1-8.502 2-15.403 6.401-20.004 12.603-10.903 14.502-8.602 37.107 6.201 62.012.1.2.1.5-.2.6-.3.1-.5.1-.6-.2-15.003-25.205-17.304-48.21-6.201-63.013 2.6-3.2 5.801-6.101 9.601-8.301z" fill="#2B9EAA" fill-opacity=".2"/><path d="M43.76 111.879a10.233 10.233 0 0114.402-.1c4.001 4 10.402 3.9 14.403-.1a10.233 10.233 0 0114.403-.1c4 4 10.402 3.9 14.403-.1a10.233 10.233 0 0114.403-.1M912.635 464.05c3.1-3.101 8.101-3.101 11.202-.101 3.101 3.101 8.102 3.001 11.202-.1 3.101-3.1 8.102-3.1 11.203-.1 3.1 3.101 8.101 3.001 11.202-.1 3.1-3.1 8.101-3.1 11.202-.1" stroke="#000" stroke-width="1.75" stroke-miterlimit="10" stroke-linecap="round"/><path d="M1013.16 169.09c-5.81 2.4-11.21 3.401-16.408 3.101-13.403-.901-24.305-11.403-32.507-31.107-10.202-24.505-23.905-40.708-41.808-49.31-15.403-7.501-31.206-8.101-45.109-8.701-19.004-.8-33.907-1.5-36.708-19.904-1.1-7.502.2-13.703 4.201-18.804 10.802-14.103 38.708-17.304 71.014-21.104 44.209-5.201 94.215-11.003 109.225-47.41l1.1.5c-15.31 37.008-65.615 42.909-110.124 48.01-30.707 3.6-59.713 6.901-70.215 20.604-3.7 4.801-5.001 10.702-3.9 17.904 2.6 17.503 16.403 18.103 35.507 18.903 27.305 1.2 64.613 2.801 87.918 58.812 8.001 19.304 18.603 29.506 31.506 30.306 38.408 2.601 85.918-77.915 86.418-78.715l1 .6c-.1.2-12.1 20.704-28.81 40.608-15.4 18.504-29.5 30.406-42.3 35.707z" fill="#2B9EAA" fill-opacity=".2"/><path d="M937.74 164.389c-2.901 0-5.302-2.4-5.302-5.301 0-2.901 2.401-5.301 5.302-5.301 15.603 0 28.305-12.703 28.305-28.306 0-2.9 2.401-5.301 5.301-5.301 2.901 0 5.301 2.401 5.301 5.301 0 21.505-17.503 38.908-38.907 38.908zm33.606-43.009c-2.3 0-4.2 1.901-4.2 4.201 0 16.104-13.103 29.306-29.306 29.306-2.301 0-4.201 1.901-4.201 4.201 0 2.301 1.9 4.201 4.201 4.201 20.804 0 37.807-16.904 37.807-37.808-.1-2.2-2-4.101-4.301-4.101z" fill="#000"/><path d="M932.439 160.688c-21.905 0-39.808-17.803-39.808-39.808 0-21.904 17.803-39.808 39.808-39.808 21.904 0 39.808 17.804 39.808 39.808 0 1.201-.1 2.501-.2 3.701 0 .3-.3.5-.6.5s-.5-.3-.5-.6c.1-1.2.2-2.4.2-3.601 0-21.404-17.404-38.707-38.708-38.707-21.404 0-38.708 17.403-38.708 38.707 0 21.305 17.404 38.708 38.708 38.708h.6c.3 0 .5.2.5.5s-.2.5-.5.5c-.2.1-.4.1-.6.1z" fill="#000"/><path d="M83.568 506.858c0 2.801-.3 5.701-1 8.502-1.7 7.101-5.402 14.103-11.003 20.904-9.702 11.602-24.105 20.804-24.205 20.904l-.2-.4c.1-.1 14.503-9.302 24.105-20.804 5.601-6.701 9.302-13.703 10.902-20.704 2-8.802.9-17.604-3.5-26.306-7.602-15.303-20.704-18.103-33.307-20.804-9.402-2-19.104-4.101-26.405-11.402-8.102-8.102-12.203-22.004-12.603-42.509-1.4-75.815-33.807-75.815-55.311-75.815v-.5c21.604 0 54.311 0 55.711 76.315.4 20.405 4.501 34.207 12.503 42.209 7.201 7.201 16.803 9.302 26.205 11.302 12.703 2.701 25.905 5.601 33.607 21.004 3 6.002 4.5 12.103 4.5 18.104z" fill="#EDEDED"/><path d="M47.26 557.368l-.4-.7.1-.1c.1-.1 14.403-9.202 24.105-20.804 5.601-6.701 9.302-13.703 10.902-20.704 2-8.702.9-17.504-3.4-26.206-7.602-15.203-20.605-18.003-33.207-20.704-9.402-2-19.204-4.101-26.505-11.402-8.102-8.202-12.303-22.104-12.703-42.609-1.4-75.715-33.707-75.715-55.111-75.715h-.2v-.8h.2c21.704 0 54.51 0 55.911 76.415.4 20.304 4.401 34.107 12.403 42.109 7.101 7.101 16.803 9.202 26.105 11.202 12.803 2.801 26.005 5.601 33.707 21.104 3 6.002 4.5 12.103 4.5 18.104 0 2.801-.3 5.701-1 8.502-1.7 7.101-5.4 14.203-11.102 21.004-9.602 11.502-24.105 20.804-24.305 20.904v.4zm0-.5c1.6-.9 14.903-9.702 24.105-20.704 5.701-6.801 9.402-13.803 11.002-20.804.7-2.801 1-5.601 1-8.502 0-6.001-1.5-12.102-4.5-18.004-7.702-15.403-20.805-18.203-33.507-21.004-9.402-2-19.004-4.101-26.305-11.302-8.102-8.102-12.203-21.904-12.503-42.309-1.4-75.915-33.807-76.115-55.411-76.115v.1c21.504 0 53.91.2 55.311 76.015.4 20.405 4.5 34.307 12.603 42.409 7.201 7.201 16.903 9.302 26.305 11.402 12.702 2.701 25.805 5.601 33.407 20.904 4.4 8.702 5.5 17.604 3.5 26.406-1.6 7.001-5.3 14.003-11.002 20.804-9.002 10.802-22.504 19.704-24.005 20.704z" fill="#2B9EAA" fill-opacity=".2"/><path d="M13.854 502.057c-.7 0-1.3-.3-1.8-.8-.901-.9-2.301-.9-3.102 0-.5.5-1.1.8-1.8.8s-1.3-.3-1.8-.8c-.9-.9-2.3-.9-3.1 0-.1.1-.2.1-.2 0-.1-.1-.1-.2 0-.2 1-1 2.6-1 3.6 0 .4.4 1 .6 1.6.6.6 0 1.1-.2 1.6-.6 1-1 2.601-1 3.601 0 .4.4 1 .6 1.6.6.6 0 1.1-.2 1.6-.6 1.001-1 2.601-1 3.602 0 .1.1.1.2 0 .2-.1.1-.2.1-.2 0-.9-.9-2.3-.9-3.101 0-.8.5-1.5.8-2.1.8zm0 2.601c-.7 0-1.3-.3-1.8-.8-.901-.901-2.301-.901-3.102 0-.5.5-1.1.8-1.8.8s-1.3-.3-1.8-.8c-.9-.901-2.3-.901-3.1 0-.1.1-.2.1-.2 0-.1-.1-.1-.2 0-.2 1-1.001 2.6-1.001 3.6 0 .4.4 1 .6 1.6.6.6 0 1.1-.2 1.6-.6a2.534 2.534 0 013.601 0c.4.4 1 .6 1.6.6.6 0 1.1-.2 1.6-.6a2.536 2.536 0 013.602 0c.1.1.1.2 0 .2-.1.1-.2.1-.2 0-.9-.901-2.3-.901-3.101 0-.8.5-1.5.8-2.1.8zm-6.802 2.6c-.7 0-1.3-.3-1.8-.8-.9-.9-2.3-.9-3.101 0-.1.1-.2.1-.2 0-.1-.1-.1-.2 0-.2 1-1 2.6-1 3.6 0 .9.9 2.301.9 3.101 0 1-1 2.6-1 3.601 0 .4.4 1 .6 1.6.6.6 0 1.1-.2 1.6-.6 1-1 2.601-1 3.601 0 .1.1.1.2 0 .2-.1.1-.2.1-.2 0-.9-.9-2.3-.9-3.1 0-1 1-2.6 1-3.6 0-.401-.4-1.001-.6-1.601-.6-.6 0-1.1.2-1.6.6-.6.5-1.2.8-1.901.8zm0 2.701c-.7 0-1.3-.3-1.8-.7-.4-.4-1-.6-1.5-.6-.6 0-1.1.2-1.601.7-.1.1-.2.1-.2 0-.1-.1-.1-.2 0-.2.5-.5 1.1-.8 1.8-.8s1.3.3 1.8.7c.4.4 1 .6 1.501.6.6 0 1.1-.2 1.6-.7 1-1.001 2.6-1.001 3.601 0 .9.9 2.3.8 3.1 0a2.534 2.534 0 013.601 0c.1.1.1.2 0 .2-.1.1-.2.1-.2 0-.9-.9-2.3-.8-3.1 0-1 1-2.6 1-3.601 0-.9-.9-2.3-.8-3.1 0-.6.5-1.2.8-1.901.8z" fill="#000"/><path d="M-.25 481.353l33.807-52.611 33.907 52.611H-.25z" fill="#A7CC80"/><path d="M-6.85 481.453c-.1 0-.2-.1-.2-.2s.1-.2.2-.2h80.816c.1 0 .2.1.2.2s-.1.2-.2.2H-6.851z" fill="#000"/></g></g><defs><linearGradient id="paint0_linear" x1="458.044" y1="151.648" x2="521.146" y2="151.648" gradientUnits="userSpaceOnUse"><stop stop-color="#231F20" stop-opacity="0"/><stop offset="1" stop-color="#231F20" stop-opacity=".3"/></linearGradient><linearGradient id="paint1_linear" x1="438.868" y1="222.221" x2="501.97" y2="222.221" gradientUnits="userSpaceOnUse"><stop stop-color="#231F20" stop-opacity="0"/><stop offset="1" stop-color="#231F20" stop-opacity=".3"/></linearGradient><linearGradient id="paint2_linear" x1="704.251" y1="176.353" x2="739.545" y2="207.295" gradientUnits="userSpaceOnUse"><stop stop-color="#8DC63F" stop-opacity=".7"/><stop offset=".184" stop-color="#6EB13D" stop-opacity=".755"/><stop offset=".567" stop-color="#338A3B" stop-opacity=".87"/><stop offset=".85" stop-color="#0E7139" stop-opacity=".955"/><stop offset="1" stop-color="#006838"/></linearGradient><linearGradient id="paint3_linear" x1="622.128" y1="178.2" x2="616.619" y2="178.788" gradientUnits="userSpaceOnUse"><stop stop-color="#fff" stop-opacity=".5"/><stop offset="1" stop-color="#fff"/></linearGradient><linearGradient id="paint4_linear" x1="622.49" y1="185.556" x2="619.054" y2="184.297" gradientUnits="userSpaceOnUse"><stop stop-color="#fff" stop-opacity=".5"/><stop offset="1" stop-color="#fff"/></linearGradient><linearGradient id="paint5_linear" x1="639.866" y1="199.299" x2="624.483" y2="193.663" gradientUnits="userSpaceOnUse"><stop stop-color="#fff" stop-opacity=".5"/><stop offset="1" stop-color="#fff"/></linearGradient><linearGradient id="paint6_linear" x1="610.487" y1="189.812" x2="606.651" y2="188.406" gradientUnits="userSpaceOnUse"><stop stop-color="#fff" stop-opacity=".5"/><stop offset="1" stop-color="#fff"/></linearGradient><linearGradient id="paint7_linear" x1="306.168" y1="209.542" x2="302.082" y2="239.123" gradientUnits="userSpaceOnUse"><stop stop-color="#8DC63F" stop-opacity=".7"/><stop offset=".184" stop-color="#6EB13D" stop-opacity=".755"/><stop offset=".567" stop-color="#338A3B" stop-opacity=".87"/><stop offset=".85" stop-color="#0E7139" stop-opacity=".955"/><stop offset="1" stop-color="#006838"/></linearGradient><linearGradient id="paint8_linear" x1="287.792" y1="209.759" x2="305.574" y2="242.73" gradientUnits="userSpaceOnUse"><stop stop-color="#F7941D" stop-opacity=".7"/><stop offset="1" stop-color="#F7941D"/></linearGradient><linearGradient id="paint9_linear" x1="278.828" y1="265.18" x2="295.343" y2="265.18" gradientUnits="userSpaceOnUse"><stop stop-color="#F7941D"/><stop offset="1" stop-color="#F7941D" stop-opacity=".1"/></linearGradient><linearGradient id="paint10_linear" x1="273.166" y1="199.791" x2="285.485" y2="199.791" gradientUnits="userSpaceOnUse"><stop stop-color="#603913"/><stop offset="1" stop-color="#603913" stop-opacity=".1"/></linearGradient><linearGradient id="paint11_linear" x1="316.049" y1="222.5" x2="364.802" y2="222.5" gradientUnits="userSpaceOnUse"><stop stop-color="#603913"/><stop offset="1" stop-color="#603913" stop-opacity=".1"/></linearGradient><linearGradient id="paint12_linear" x1="464.916" y1="489.017" x2="515.734" y2="489.017" gradientUnits="userSpaceOnUse"><stop stop-color="#1C75BC"/><stop offset="1" stop-color="#1C75BC" stop-opacity=".1"/></linearGradient><linearGradient id="paint13_linear" x1="663.894" y1="250.426" x2="733.162" y2="250.426" gradientUnits="userSpaceOnUse"><stop stop-color="#8DC63F" stop-opacity=".7"/><stop offset=".184" stop-color="#6EB13D" stop-opacity=".755"/><stop offset=".567" stop-color="#338A3B" stop-opacity=".87"/><stop offset=".85" stop-color="#0E7139" stop-opacity=".955"/><stop offset="1" stop-color="#006838"/></linearGradient><linearGradient id="paint14_linear" x1="663.283" y1="284.873" x2="745.378" y2="284.873" gradientUnits="userSpaceOnUse"><stop stop-color="#8DC63F" stop-opacity=".7"/><stop offset=".184" stop-color="#6EB13D" stop-opacity=".755"/><stop offset=".567" stop-color="#338A3B" stop-opacity=".87"/><stop offset=".85" stop-color="#0E7139" stop-opacity=".955"/><stop offset="1" stop-color="#006838"/></linearGradient><linearGradient id="paint15_linear" x1="682.07" y1="167.02" x2="706.45" y2="167.02" gradientUnits="userSpaceOnUse"><stop stop-color="#8DC63F" stop-opacity=".7"/><stop offset=".184" stop-color="#6EB13D" stop-opacity=".755"/><stop offset=".567" stop-color="#338A3B" stop-opacity=".87"/><stop offset=".85" stop-color="#0E7139" stop-opacity=".955"/><stop offset="1" stop-color="#006838"/></linearGradient><linearGradient id="paint16_linear" x1="631.497" y1="240.868" x2="695.636" y2="240.868" gradientUnits="userSpaceOnUse"><stop stop-color="#603913"/><stop offset="1" stop-color="#603913" stop-opacity=".1"/></linearGradient><linearGradient id="paint17_linear" x1="699.862" y1="217.893" x2="719.384" y2="217.893" gradientUnits="userSpaceOnUse"><stop stop-color="#603913"/><stop offset="1" stop-color="#603913" stop-opacity=".1"/></linearGradient><linearGradient id="paint18_linear" x1="557.178" y1="217.078" x2="613.45" y2="217.078" gradientUnits="userSpaceOnUse"><stop stop-color="#603913"/><stop offset="1" stop-color="#603913" stop-opacity=".1"/></linearGradient><linearGradient id="paint19_linear" x1="349.549" y1="183.954" x2="371.434" y2="183.954" gradientUnits="userSpaceOnUse"><stop stop-color="#603913"/><stop offset="1" stop-color="#603913" stop-opacity=".1"/></linearGradient><linearGradient id="paint20_linear" x1="667.177" y1="297.551" x2="738.931" y2="297.551" gradientUnits="userSpaceOnUse"><stop stop-color="#1C75BC" stop-opacity=".1"/><stop offset=".141" stop-color="#1C75BC" stop-opacity=".227"/><stop offset="1" stop-color="#1C75BC"/></linearGradient><linearGradient id="paint21_linear" x1="272.95" y1="326.534" x2="322.092" y2="326.534" gradientUnits="userSpaceOnUse"><stop stop-color="#1C75BC" stop-opacity=".1"/><stop offset=".141" stop-color="#1C75BC" stop-opacity=".227"/><stop offset="1" stop-color="#1C75BC"/></linearGradient><linearGradient id="paint22_linear" x1="691.105" y1="187.124" x2="710.417" y2="187.124" gradientUnits="userSpaceOnUse"><stop stop-color="#fff" stop-opacity=".1"/><stop offset="1" stop-color="#fff"/></linearGradient><linearGradient id="paint23_linear" x1="650.626" y1="178.619" x2="674.079" y2="178.619" gradientUnits="userSpaceOnUse"><stop stop-color="#fff" stop-opacity=".1"/><stop offset="1" stop-color="#fff"/></linearGradient><linearGradient id="paint24_linear" x1="663.199" y1="193.933" x2="669.396" y2="193.933" gradientUnits="userSpaceOnUse"><stop stop-color="#8DC63F" stop-opacity=".7"/><stop offset=".184" stop-color="#6EB13D" stop-opacity=".755"/><stop offset=".567" stop-color="#338A3B" stop-opacity=".87"/><stop offset=".85" stop-color="#0E7139" stop-opacity=".955"/><stop offset="1" stop-color="#006838"/></linearGradient><linearGradient id="paint25_linear" x1="672.732" y1="197.788" x2="685.466" y2="197.788" gradientUnits="userSpaceOnUse"><stop stop-color="#fff" stop-opacity=".1"/><stop offset="1" stop-color="#fff"/></linearGradient><linearGradient id="paint26_linear" x1="640.663" y1="230.215" x2="687.987" y2="230.215" gradientUnits="userSpaceOnUse"><stop stop-color="#fff" stop-opacity=".1"/><stop offset="1" stop-color="#fff"/></linearGradient><linearGradient id="paint27_linear" x1="691.105" y1="152.745" x2="697.893" y2="152.745" gradientUnits="userSpaceOnUse"><stop stop-color="#603913"/><stop offset="1" stop-color="#603913" stop-opacity=".1"/></linearGradient><linearGradient id="paint28_linear" x1="716.058" y1="468.933" x2="736.177" y2="468.933" gradientUnits="userSpaceOnUse"><stop stop-color="#1C75BC"/><stop offset="1" stop-color="#1C75BC" stop-opacity=".1"/></linearGradient><linearGradient id="paint29_linear" x1="695.468" y1="482.852" x2="739.008" y2="482.852" gradientUnits="userSpaceOnUse"><stop stop-color="#1C75BC"/><stop offset="1" stop-color="#1C75BC" stop-opacity=".1"/></linearGradient><linearGradient id="paint30_linear" x1="642.743" y1="482.01" x2="657.676" y2="482.01" gradientUnits="userSpaceOnUse"><stop stop-color="#1C75BC"/><stop offset="1" stop-color="#1C75BC" stop-opacity=".1"/></linearGradient><linearGradient id="paint31_linear" x1="657.192" y1="494.202" x2="679.446" y2="494.202" gradientUnits="userSpaceOnUse"><stop stop-color="#1C75BC"/><stop offset="1" stop-color="#1C75BC" stop-opacity=".1"/></linearGradient><linearGradient id="paint32_linear" x1="361.759" y1="188.418" x2="370.628" y2="188.418" gradientUnits="userSpaceOnUse"><stop stop-color="#fff" stop-opacity="0"/><stop offset="1" stop-color="#fff" stop-opacity=".3"/></linearGradient><linearGradient id="paint33_linear" x1="267.876" y1="183.034" x2="281.663" y2="183.034" gradientUnits="userSpaceOnUse"><stop stop-color="#fff" stop-opacity="0"/><stop offset="1" stop-color="#fff" stop-opacity=".3"/></linearGradient><linearGradient id="paint34_linear" x1="681.406" y1="125.923" x2="685.828" y2="125.923" gradientUnits="userSpaceOnUse"><stop stop-color="#fff" stop-opacity=".3"/><stop offset="1" stop-color="#fff" stop-opacity=".6"/></linearGradient><linearGradient id="paint35_linear" x1="693.21" y1="134.701" x2="705.576" y2="134.701" gradientUnits="userSpaceOnUse"><stop stop-color="#fff" stop-opacity=".3"/><stop offset="1" stop-color="#fff" stop-opacity=".6"/></linearGradient><linearGradient id="paint36_linear" x1="279.318" y1="243.618" x2="318.415" y2="243.618" gradientUnits="userSpaceOnUse"><stop stop-color="#F7941D"/><stop offset="1" stop-color="#F7941D" stop-opacity=".1"/></linearGradient><linearGradient id="paint37_linear" x1="266.948" y1="308.264" x2="324.376" y2="308.264" gradientUnits="userSpaceOnUse"><stop stop-color="#F7941D"/><stop offset="1" stop-color="#F7941D" stop-opacity=".1"/></linearGradient><linearGradient id="paint38_linear" x1="260.528" y1="272.506" x2="292.609" y2="272.506" gradientUnits="userSpaceOnUse"><stop stop-color="#F7941D"/><stop offset="1" stop-color="#F7941D" stop-opacity=".1"/></linearGradient><linearGradient id="paint39_linear" x1="280.297" y1="471.994" x2="299.739" y2="471.994" gradientUnits="userSpaceOnUse"><stop stop-color="#F7941D"/><stop offset="1" stop-color="#F7941D" stop-opacity=".1"/></linearGradient><linearGradient id="paint40_linear" x1="235.915" y1="473.084" x2="249.414" y2="473.084" gradientUnits="userSpaceOnUse"><stop stop-color="#F7941D"/><stop offset="1" stop-color="#F7941D" stop-opacity=".1"/></linearGradient><linearGradient id="paint41_linear" x1="278.281" y1="481.854" x2="316.614" y2="481.854" gradientUnits="userSpaceOnUse"><stop stop-color="#F7941D"/><stop offset="1" stop-color="#F7941D" stop-opacity=".1"/></linearGradient><linearGradient id="paint42_linear" x1="242.665" y1="481.59" x2="266.415" y2="481.59" gradientUnits="userSpaceOnUse"><stop stop-color="#F7941D"/><stop offset="1" stop-color="#F7941D" stop-opacity=".1"/></linearGradient><clipPath id="clip0"><path fill="#fff" d="M0 0h960v539.478H0z"/></clipPath><clipPath id="clip1"><path fill="#fff" d="M-49.159-.144h1080.22v540.109H-49.159z"/></clipPath></defs></svg>