<svg width="720" height="360" fill="none" xmlns="http://www.w3.org/2000/svg"><g clip-path="url(#clip0)"><path d="M192.6 93.353l-2.4 6.648s0-2.725-1.933-1.263c-2 1.463.333 3.989.333 3.989l-3.333.731s-7.2-4.254-4.2-6.448c3-2.194-.4-5.917 2.2-5.718 2.666.2 5.866-2.925 7.133-.93 1.333 1.928 2.2 2.991 2.2 2.991z" fill="#000"/><path d="M239.934 181.308s3.533 3.191 1.933 8.909c-1.6 5.717-3.933-6.848-3.933-6.848l2-2.061z" fill="#D39B5E"/><path d="M492.067 173.064l-.667-3.922-4.267-1.662.667 1.994 2.333 1.064-.066 1.33c0-.067-.134 2.393 2 1.196z" fill="#E0A66C"/><path d="M500.667 182.97s1.133 5.518 8.466 9.574l1.6-2.859-7.867-7.579-2.199.864z" fill="#000"/><path d="M515.667 185.031l10.8 7.978L507.8 212.82l-27.133-39.091s1.199-1.795 2.866-1.994c1.667-.2 23.734 19.545 25.4 23.601l6.734-10.305z" fill="#C98E59"/><path d="M481.533 175.724a3.662 3.662 0 003.667-3.657 3.662 3.662 0 00-3.667-3.656 3.66 3.66 0 00-3.666 3.656 3.661 3.661 0 003.666 3.657z" fill="#C98E59"/><path d="M536.6 152.455l.2 6.781 1.667 3.258h3.933l.4-3.324-3.067-7.379c0-.067-1.266.864-3.133.664z" fill="#E0A66C"/><path d="M519.933 214.682l-65 17.019s-6.266 1.064-6.266 8.51c0 7.445 13.733 55.246 13.733 55.246l17.4 17.351s3.4-54.116-2-62.758c0 0 72.533-.133 87.867-12.698l-45.734-22.67z" fill="#56D0ED"/><path opacity=".3" d="M519.934 214.682l28.933 26.991s15.467-1.33 16.8-4.321l-45.733-22.67z" fill="url(#paint0_linear)"/><path d="M587.2 247.723h-83.4a3.864 3.864 0 01-3.866-3.856v-1.197a3.864 3.864 0 013.866-3.856h83.4a3.865 3.865 0 013.867 3.856v1.197c0 2.061-1.734 3.856-3.867 3.856zm-12.067-11.834h-.866a2.742 2.742 0 01-2.734-2.726v-67.944c0-1.529 1.267-2.725 2.734-2.725h.866a2.742 2.742 0 012.734 2.725v67.944c0 1.53-1.2 2.726-2.734 2.726z" fill="#FBE54B" stroke="#000" stroke-miterlimit="10"/><path d="M538.267 201.119s9.133-28.72 2.733-34.969c-6.467-6.249-28.267 16.887-28.267 16.887" fill="#B0CE89"/><path d="M548.867 160.167s31.4 80.975 16.867 77.185c-14.534-3.789-45.8-22.67-45.8-22.67l13.6-50.991a7.368 7.368 0 011.866-3.191c.467-.466.934-.798 1.4-1.197.534 1.263 2.067 1.861 3.334 1.33a2.54 2.54 0 001.4-3.325c-.067-.066.133-.199.066-.265 4.8-.865 7.267 3.124 7.267 3.124z" fill="#C8E8A3"/><path d="M564.067 222.992h-72.6c-1.4 0-2.533-1.13-2.533-2.526v-.798a2.528 2.528 0 012.533-2.526H564a2.53 2.53 0 012.534 2.526v.798c.066 1.329-1.067 2.526-2.467 2.526z" fill="#FBE54B" stroke="#000" stroke-miterlimit="10"/><path d="M531.733 326.238c27.467 0 49.734-22.205 49.734-49.595 0-27.391-22.267-49.596-49.734-49.596-27.467 0-49.733 22.205-49.733 49.596 0 27.39 22.266 49.595 49.733 49.595z" fill="#fff" stroke="#231F20" stroke-miterlimit="10"/><path d="M531.733 322.515c25.405 0 46-20.538 46-45.872 0-25.335-20.595-45.872-46-45.872s-46 20.537-46 45.872c0 25.334 20.595 45.872 46 45.872z" fill="#DBDBDB" stroke="#000" stroke-miterlimit="10"/><path d="M422.733 313.407l40.6-17.618 11.334 11.169 2.266-6.249 5.734 17.019-55.934 3.59c0-.067-2.133-5.717-4-7.911z" fill="#FBE54B"/><path d="M482.6 317.728l6.6 7.845-78.667.798c-1.533 0-2.8-.998-3.2-2.46l-.4-1.729s-2.6-3.191 7.334-8.908c9.933-5.718 12.4 8.044 12.4 8.044l55.933-3.59z" fill="#fff" stroke="#231F20" stroke-miterlimit="10"/><path d="M426.4 323.445c4.533-.332 9.067-.532 13.667-.797l13.666-.599 13.6-.465 6.8-.2c2.267-.066 4.534-.066 6.8-.133l-6.8.399-6.8.333-13.666.598-13.667.465c-4.467.2-9 .333-13.6.399z" fill="#231F20"/><path d="M427 314.138c3.2-1.463 6.4-2.925 9.6-4.321 3.2-1.396 6.467-2.792 9.667-4.122 3.266-1.33 6.466-2.726 9.733-3.989l4.867-1.928c1.666-.598 3.266-1.263 4.933-1.861l-4.8 2.193-4.8 2.128a606.387 606.387 0 01-9.667 4.122c-3.266 1.329-6.466 2.725-9.733 3.989-3.267 1.263-6.533 2.592-9.8 3.789z" fill="#000"/><path d="M437.731 313.272l-1.733.865a1.385 1.385 0 01-1.867-.665l-2.333-4.787a1.376 1.376 0 01.667-1.861l1.733-.865a1.385 1.385 0 011.867.665l2.333 4.787a1.376 1.376 0 01-.667 1.861z" fill="#fff"/><path d="M437.733 313.274l-1.333.664c-.2.133-.4.266-.667.333a1.382 1.382 0 01-.733 0c-.467-.067-.933-.532-1.133-.997l-.667-1.264-1.4-2.592-.333-.665a2.035 2.035 0 01-.2-.864c0-.599.4-1.131.933-1.463l1.333-.598c.2-.133.4-.2.734-.333.266-.066.6-.066.866 0 .267.067.534.266.734.466.2.199.333.465.4.664l.6 1.33 1.2 2.659c.2.466.466.865.4 1.396.066.599-.267.998-.734 1.264zm0 0c.467-.2.734-.665.8-1.131.067-.465-.266-.93-.466-1.329l-1.4-2.593-.667-1.263c-.133-.2-.2-.399-.4-.532-.133-.133-.333-.2-.533-.266a.934.934 0 00-.6 0c-.134.066-.4.199-.6.266l-1.334.665c-.333.133-.6.532-.6.864 0 .199 0 .399.067.532l.333.665 1.2 2.659.6 1.33c.134.465.467.864.934.997.2.066.466.066.733 0 .2-.067.467-.2.667-.266l1.266-.598z" fill="#000"/><path d="M444.065 310.148l-1.733.864a1.383 1.383 0 01-1.867-.665l-2.333-4.786a1.377 1.377 0 01.666-1.862l1.734-.864a1.382 1.382 0 011.866.665l2.334 4.786c.333.732.066 1.529-.667 1.862z" fill="#fff"/><path d="M444.067 310.149l-1.334.665c-.2.133-.4.266-.666.332a1.365 1.365 0 01-.734 0c-.466-.066-.933-.532-1.133-.997l-.667-1.263-1.4-2.593-.333-.665a2.046 2.046 0 01-.2-.864c0-.598.4-1.13.933-1.463l1.334-.598c.2-.133.4-.199.733-.332.267-.067.6-.067.867 0 .266.066.533.266.733.465.2.199.333.465.4.665l.6 1.329 1.2 2.66c.2.465.467.864.4 1.396a1.198 1.198 0 01-.733 1.263zm0 0c.466-.2.733-.665.8-1.13.066-.466-.267-.931-.467-1.33l-1.4-2.593-.667-1.263c-.133-.199-.2-.399-.4-.532-.133-.133-.333-.199-.533-.266a.934.934 0 00-.6 0c-.133.067-.4.2-.6.266l-1.333.665c-.334.133-.6.532-.6.864 0 .2 0 .399.066.532l.334.665 1.2 2.659.6 1.33c.133.465.466.864.933.997.2.067.467.067.733 0 .2-.066.467-.199.667-.266l1.267-.598z" fill="#000"/><path d="M450.999 307.621l-1.734.865a1.384 1.384 0 01-1.866-.665l-2.334-4.787a1.376 1.376 0 01.667-1.861l1.733-.865a1.384 1.384 0 011.867.665l2.333 4.787c.334.665 0 1.529-.666 1.861z" fill="#fff"/><path d="M451 307.623l-1.333.664c-.2.133-.4.266-.667.333a1.382 1.382 0 01-.733 0c-.467-.067-.934-.532-1.134-.997l-.666-1.264-1.4-2.592-.334-.665a2.046 2.046 0 01-.2-.864c0-.599.4-1.131.934-1.463l1.333-.598c.2-.133.4-.2.733-.333.267-.066.6-.066.867 0 .266.067.533.266.733.466.2.199.333.465.4.664l.6 1.33 1.2 2.659c.2.466.467.865.4 1.396 0 .599-.267 1.064-.733 1.264zm0 0c.466-.2.733-.665.8-1.131.066-.465-.267-.93-.467-1.329l-1.4-2.593-.666-1.263c-.134-.2-.2-.399-.4-.532-.134-.133-.334-.199-.534-.266a.934.934 0 00-.6 0c-.133.067-.4.2-.6.266l-1.333.665c-.333.133-.6.532-.6.864 0 .2 0 .399.067.532l.333.665 1.2 2.659.6 1.33c.133.465.467.864.933.997.2.066.467.066.733 0 .2-.067.467-.2.667-.266l1.267-.598z" fill="#000"/><path d="M457.932 304.231l-1.734.864a1.384 1.384 0 01-1.866-.665l-2.334-4.786a1.378 1.378 0 01.667-1.862l1.733-.864a1.383 1.383 0 011.867.665l2.333 4.786c.334.732.067 1.529-.666 1.862z" fill="#fff"/><path d="M457.933 304.233l-1.333.665c-.2.133-.4.266-.667.332a1.362 1.362 0 01-.733 0c-.467-.066-.933-.532-1.133-.997l-.667-1.263-1.4-2.593-.333-.665a2.031 2.031 0 01-.2-.864c0-.598.4-1.13.933-1.463l1.333-.598c.2-.133.4-.199.734-.332.266-.067.6-.067.866 0 .267.066.534.266.734.465.2.199.333.465.4.665l.6 1.329 1.2 2.66c.2.465.466.864.4 1.396a1.198 1.198 0 01-.734 1.263zm0 0c.467-.199.734-.665.8-1.13.067-.466-.266-.931-.466-1.33l-1.4-2.593-.667-1.263c-.133-.199-.2-.399-.4-.532-.133-.133-.333-.199-.533-.266a.934.934 0 00-.6 0c-.134.067-.4.2-.6.266l-1.334.665c-.333.133-.6.532-.6.864 0 .2 0 .399.067.532l.333.665 1.2 2.659.6 1.33c.134.465.467.864.934.997.2.067.466.067.733 0 .2-.066.467-.199.667-.266l1.266-.598zm-31.2 17.018c.2.865.2 1.663.134 2.46-.067.798-.2 1.662-.534 2.46-.2-.864-.2-1.662-.133-2.46.067-.797.2-1.662.533-2.46z" fill="#000"/><path d="M408.733 322.182c2.6-.332 5.134-.465 7.734-.532 2.6-.066 5.2-.066 7.733.133-2.6.332-5.133.465-7.733.532-2.6.066-5.2.066-7.734-.133z" fill="#231F20"/><path d="M505.133 230.771c-6.267 1.662-12.533 3.39-18.8 4.986l-9.4 2.459-9.4 2.394.133-.466 5 5.917.667.732-.933-.266-12.334-3.059.267-.531 6.933 5.385.067.066v.133c.533 5.518 1 11.036 1.467 16.554.533 5.518.933 11.036 1.4 16.554-.6-5.518-1.2-11.036-1.8-16.488-.534-5.518-1.134-11.035-1.667-16.553l.133.199-6.933-5.385-1.133-.931 1.4.333 12.333 3.058-.333.532-5-5.984-.334-.399.467-.133 9.467-2.393 9.466-2.327a965.484 965.484 0 0018.867-4.387z" fill="#fff"/><path d="M536.6 152.921c4.124 0 7.467-3.334 7.467-7.446 0-4.113-3.343-7.446-7.467-7.446s-7.467 3.333-7.467 7.446c0 4.112 3.343 7.446 7.467 7.446z" fill="#E0A66C"/><path opacity=".26" d="M539.867 152.123l-3.134 5.385-.133-4.654s1.533 0 3.267-.731z" fill="url(#paint1_linear)"/><path d="M482.759 145.886l-3.176.76 7.484 31.095 3.177-.76-7.485-31.095z" fill="#CE4174"/><path d="M482.067 145.408l-2.867.732-5-2.327 2.867-.665 5 2.26zm-8.667-1.596l6.867 29.053 6.733 4.853-7.467-31.113-6.133-2.793z" fill="#F95F8F"/><path opacity=".4" d="M523.6 208.433l12.2-7.38 17.6 6.116s-3.267-38.958-7.133-41.883L534 185.098l-10.4 23.335z" fill="url(#paint2_linear)"/><path d="M543.4 198.793s8.266-28.986 1.666-35.036c-6.6-6.116-27.733 17.684-27.733 17.684" fill="#D8F2B6"/><path opacity=".4" d="M543.6 165.153l-5.133 19.014c-.267.997-1.2 1.595-2.2 1.396-1.334-.266-3.2-.865-4.734-2.261l11 7.646c-.066-.067 7.267-19.878 1.067-25.795z" fill="url(#paint3_linear)"/><path d="M538.134 167.48s-10.067 6.981-12.801 11.036l3.334 2.925s3.467-8.775 9.467-13.961z" fill="url(#paint4_linear)"/><path d="M517.333 181.441s4.6 13.03 25.933 17.352c0 0-8.866-14.36-25.933-17.352z" fill="#000"/><path d="M524.6 186.494l11.267 7.313-17.467 20.875-29.466-37.363s1.133-1.928 2.8-2.194c1.666-.266 24.8 18.083 26.8 22.072l6.066-10.703z" fill="#E0A66C"/><path opacity=".38" d="M486.733 270.593s33.934 55.977 89.534 16.155c0 0-6.734 33.506-43.067 35.235 0 0-16.533 2.46-34.2-13.762 0 0-14.4-12.764-12.267-37.628z" fill="#BCBCBC"/><path d="M464.467 290.537c1.933.931 3.8 1.995 5.666 3.058 1.8 1.13 3.6 2.327 5.334 3.657-1.934-.865-3.8-1.995-5.667-3.058-1.8-1.131-3.6-2.327-5.333-3.657z" fill="#288D9E"/><path opacity=".33" d="M477.8 250.05s5.133 46.005-5.133 45.673l7.733 4.587c0 .066 2.267-41.618-2.6-50.26z" fill="url(#paint5_linear)"/><path d="M530 142.018l7.6-.798.667 2.925s1.8-1.861 2.6 1.263c.8 3.125-1.534 3.059-1.534 3.059l2.934 1.795s3.933-4.255 3.933-5.319-.467-3.058-.467-3.058l-.4-1.463-5.066.333 5-.998s-3.6-8.243-10.534-4.121c-6.933 4.121-9.6 2.858-9.6 2.858s.067 3.191 4.867 3.524z" fill="#000"/><path d="M485.734 176.521l-3.8-3.257.266-3.058 1.2 1.595.267 1.529 2.733 1.928-.666 1.263z" fill="#CC9562"/><path d="M485.867 175.325l-4.2-3.723-.467-5.119 1.667 1.396.533 2.593 3.533 2.859c0 .066 2.4 1.529-1.066 1.994z" fill="#E0A66C"/><path d="M489.133 172.001L477.4 159.635s-1.8.931 0 3.324c1.8 2.394 9.533 10.438 9.533 10.438s2.2-.266 2.2-1.396z" fill="#E0A66C"/><path d="M489.667 179.247a3.66 3.66 0 003.666-3.656 3.661 3.661 0 00-3.666-3.657 3.662 3.662 0 00-3.667 3.657 3.662 3.662 0 003.667 3.656z" fill="#E0A66C"/><path d="M216 137.497c-2.4-2.859-17.6-19.812-22.6-15.557-5.667 4.92.333 29.252.333 29.252" fill="#D8F2B6"/><path d="M202.589 149.238c8.05-5.562 14.101-10.756 13.513-11.602-.587-.845-7.589 2.979-15.639 8.541-8.051 5.563-14.101 10.757-13.514 11.602.587.845 7.589-2.979 15.64-8.541z" fill="#231F20"/><path d="M226 134.239l-1.066-1.994 8.933-20.41 9.667 1.994 1.4 1.264L226 134.239z" fill="#D63871"/><path d="M148 198.593c20.467-9.506 61.933 0 61.933 0s-10.333-68.741-13-82.171c-2.666-13.429-24.6-3.124-24.6-3.124L148 198.593z" fill="#B9D390"/><path d="M188.4 105.852c4.05 0 7.333-3.275 7.333-7.314 0-4.038-3.283-7.312-7.333-7.312-4.05 0-7.334 3.274-7.334 7.313 0 4.038 3.284 7.313 7.334 7.313zm-2.4 9.573c3.019 0 5.467-1.369 5.467-3.058 0-1.689-2.448-3.058-5.467-3.058-3.019 0-5.467 1.369-5.467 3.058 0 1.689 2.448 3.058 5.467 3.058z" fill="#EAB575"/><path d="M192.667 144.145s-11.8-33.972-21.334-30.449c-9.6 3.524-13.466 37.363-13.466 37.363" fill="#D8F2B6"/><path opacity=".4" d="M159.066 142.815l16.667-2.393c-2.6.731-5.067.399-6.667-.133-1.2-.399-1.933-1.596-1.666-2.792l5-24.266c-10.334 3.324-13.4 29.584-13.334 29.584z" fill="url(#paint6_linear)"/><path d="M175.559 149.429c9.606-1.903 17.23-4.264 17.029-5.272-.201-1.008-8.151-.283-17.757 1.621-9.605 1.904-17.23 4.264-17.029 5.272.201 1.009 8.151.283 17.757-1.621z" fill="#231F20"/><path d="M179 202.781c17.121 0 31-1.964 31-4.387 0-2.424-13.879-4.388-31-4.388-17.121 0-31 1.964-31 4.388 0 2.423 13.879 4.387 31 4.387z" fill="#000"/><path d="M172.4 198.593l18.267 56.044-7.8 55.911 9.466-1.662 16.534-43.213c2.8-7.379 3.533-15.424 2-23.135l-9.2-47.136c-23.667-3.457-29.267 3.125-29.267 3.191z" fill="#2B9EAA"/><path d="M224.267 316.864l-42.867-2.792 4.4-13.031 1.733 4.853 8.6-8.509 31.134 13.496c-1.4 1.662-3 6.049-3 5.983z" fill="#F95F8F"/><path d="M224.333 316.864s1.867-10.571 9.534-6.183c7.533 4.388 5.6 6.848 5.6 6.848l-.334 1.329a2.558 2.558 0 01-2.466 1.862l-60.334-.532 5.067-6.05 42.933 2.726z" fill="#fff" stroke="#231F20" stroke-miterlimit="10"/><path d="M214 318.459c-3.466-.066-7-.199-10.466-.332-3.467-.2-7-.332-10.467-.532l-5.2-.332-5.2-.399c1.733 0 3.467.066 5.2.066l5.2.133c3.467.067 7 .2 10.467.333 3.466.199 7 .332 10.466.531 3.467.2 7 .399 10.467.599-3.467.066-6.933 0-10.467-.067z" fill="#231F20"/><path d="M216.533 308.487c-2.466-.997-5-2.061-7.4-3.058a782.255 782.255 0 01-7.333-3.191l-3.667-1.662c-1.2-.532-2.466-1.13-3.666-1.662 1.266.532 2.533.931 3.8 1.463l3.733 1.529c2.467.997 5 2.061 7.4 3.058 2.467 1.064 4.933 2.127 7.333 3.191 2.467 1.064 4.934 2.127 7.334 3.324a147.693 147.693 0 01-7.534-2.992z" fill="#fff"/><path d="M215.4 309.085l1.6-3.258c.333-.664 1.133-.93 1.733-.598l.867.465c.666.333.933 1.131.6 1.729l-1.6 3.258c-.334.664-1.134.93-1.734.598l-.866-.465c-.6-.266-.934-1.064-.6-1.729z" fill="#fff"/><path d="M215.4 308.953l.867-1.995.467-.997c.066-.133.133-.332.266-.532.134-.199.334-.332.534-.465.466-.2.866-.266 1.333-.067.4.2.667.333 1 .532.4.2.667.532.8.997.133.466 0 .931-.2 1.264l-1.133 1.927-.534.931c-.133.333-.4.665-.733.798a1.477 1.477 0 01-1.067 0c-.4-.199-.666-.332-1-.532-.666-.199-.933-1.197-.6-1.861zm1.4 2.459c.4.133.734.133 1.067-.066.333-.199.533-.532.6-.798l.467-.997.866-1.994c.334-.532.067-1.197-.466-1.463l-.934-.532a.852.852 0 00-.8 0c-.133.067-.266.133-.4.266-.066.066-.2.199-.266.399l-.534.931-1.066 1.861c-.2.266-.267.598-.134.997.134.399.4.599.667.798.467.2.8.333.933.598z" fill="#000"/><path d="M210.533 306.758l1.6-3.257c.333-.665 1.133-.931 1.733-.599l.867.466c.667.332.933 1.13.6 1.728l-1.6 3.258c-.333.665-1.133.931-1.733.598l-.867-.465c-.6-.266-.933-1.13-.6-1.729z" fill="#fff"/><path d="M210.533 306.626l.867-1.994.467-.998c.066-.133.133-.332.266-.532.134-.199.334-.332.534-.465.466-.199.866-.266 1.333-.066.4.199.667.332 1 .531.4.2.667.532.8.998.133.465 0 .93-.2 1.263l-1.067 1.861-.533.931c-.133.333-.4.665-.733.798a1.477 1.477 0 01-1.067 0c-.4-.2-.667-.333-1-.532-.733-.199-1.067-1.13-.667-1.795zm1.467 2.46c.4.133.733.133 1.067-.067.333-.199.533-.531.6-.797l.466-.998.867-1.994c.333-.532.067-1.197-.467-1.463l-.933-.532a.852.852 0 00-.8 0c-.133.067-.267.133-.4.266-.067.067-.2.2-.267.399l-.533.931-1.067 1.862c-.2.265-.266.598-.133.997s.4.598.667.798c.4.132.733.332.933.598z" fill="#000"/><path d="M205.267 304.83l1.6-3.258c.333-.664 1.133-.93 1.733-.598l.867.466c.666.332.933 1.13.6 1.728l-1.6 3.258c-.334.664-1.134.93-1.734.598l-.866-.465c-.667-.333-.934-1.131-.6-1.729z" fill="#fff"/><path d="M205.267 304.698l.867-1.995.466-.997c.067-.133.134-.332.267-.532.133-.199.333-.332.533-.465.467-.2.867-.266 1.334-.067.4.2.666.333 1 .532.4.2.666.532.8.997.133.466 0 .931-.2 1.264l-1.067 1.861-.533.931c-.134.332-.4.665-.734.798a1.474 1.474 0 01-1.066 0c-.4-.2-.667-.333-1-.532-.734-.266-1.067-1.197-.667-1.795zm1.4 2.46c.4.133.733.133 1.067-.067.333-.199.533-.532.6-.798l.466-.997.867-1.994c.333-.532.067-1.197-.467-1.463l-.933-.532a.852.852 0 00-.8 0c-.133.067-.267.133-.4.266-.067.067-.2.2-.267.399l-.533.931-1.067 1.861c-.2.266-.266.599-.133.998.133.398.4.598.667.797.466.133.733.333.933.599z" fill="#000"/><path d="M199.867 302.237l1.6-3.258c.333-.665 1.133-.931 1.733-.598l.867.465c.666.333.933 1.13.6 1.729l-1.6 3.257c-.334.665-1.134.931-1.734.599l-.866-.466c-.6-.266-.867-1.13-.6-1.728z" fill="#fff"/><path d="M199.867 302.106l.866-1.994.467-.998c.067-.133.133-.332.267-.532.133-.199.333-.332.533-.465.467-.199.867-.266 1.333-.066.4.199.667.332 1 .531.4.2.667.532.8.998.134.465 0 .93-.2 1.263l-1.066 1.861-.534.931c-.133.332-.4.665-.733.798a1.477 1.477 0 01-1.067 0c-.4-.2-.666-.333-1-.532-.733-.199-.933-1.13-.666-1.795zm1.466 2.46c.4.133.734.133 1.067-.067.333-.199.533-.532.6-.797l.467-.998.866-1.994c.334-.532.067-1.197-.466-1.463l-.934-.532a.852.852 0 00-.8 0c-.133.067-.266.133-.4.266-.066.067-.2.2-.266.399l-.534.931-1.066 1.861c-.2.266-.267.599-.134.998.134.399.4.598.667.797.4.133.8.333.933.599zm23.334 14.226c0 .598 0 1.263-.2 1.861-.334-.598-.4-1.263-.467-1.861 0-.599 0-1.263.2-1.862.333.532.4 1.197.467 1.862z" fill="#000"/><path d="M232.134 317.728c-1.934-.066-3.934-.199-5.934-.532 1.934-.199 3.934-.199 5.934-.133 1.933.067 3.933.2 5.933.532-2.067.2-4 .2-5.933.133z" fill="#231F20"/><path d="M166.8 195.203l8.4 58.371-17.4 55.113h9.6l26.6-45.473c2.333-3.923 3.467-8.377 3.4-12.898l-.867-55.844c-22.8-2.394-29.733.731-29.733.731z" fill="#56D0ED"/><path d="M213.667 323.712l-60.4-4.189 3.933-15.822 3.333 1.063 13.8-8.775 43.734 19.279c-1.934 2.327-4.267 8.444-4.4 8.444z" fill="#F95F8F"/><path d="M213.734 323.778s2.8-14.825 13.466-8.576c10.667 6.249 7.867 9.64 7.867 9.64l-.467 1.861c-.4 1.596-1.8 2.66-3.466 2.66l-84.934-1.396 7.2-8.444 60.334 4.255z" fill="#fff" stroke="#231F20" stroke-miterlimit="10"/><path d="M199.333 325.706l-14.733-.532-14.733-.731-7.333-.465-7.334-.532 7.334.199 7.333.266 14.733.532 14.733.731c4.934.266 9.8.532 14.734.865-4.934-.067-9.867-.266-14.734-.333z" fill="#231F20"/><path d="M203 311.878c-3.467-1.463-7-2.926-10.467-4.388-3.466-1.529-6.933-2.992-10.4-4.521L177 300.642c-1.667-.797-3.467-1.595-5.133-2.393 1.733.598 3.533 1.396 5.266 2.061l5.2 2.127c3.467 1.463 7 2.926 10.467 4.388 3.467 1.529 6.933 2.925 10.4 4.521 3.467 1.595 6.933 3.058 10.333 4.72-3.533-1.396-7.066-2.859-10.533-4.188z" fill="#000"/><path d="M201.2 312.941l2.6-5.119a1.46 1.46 0 012-.665l1.867.931c.733.332 1.067 1.263.667 1.994l-2.6 5.119a1.46 1.46 0 01-2 .665l-1.867-.931c-.733-.332-1.067-1.196-.667-1.994z" fill="#fff"/><path d="M201.067 313.673c-.066-.532.267-.997.467-1.529l1.333-2.859.6-1.462c.067-.266.2-.532.467-.732.2-.199.467-.398.733-.465.334-.066.6-.066.934 0 .333.067.533.199.733.332l1.467.665c.533.333.933.865 1 1.529 0 .333-.067.665-.2.931l-.4.665-1.534 2.792-.666 1.396c-.2.532-.6.931-1.2 1.064a1.64 1.64 0 01-.8 0c-.267-.067-.467-.2-.667-.332l-1.4-.665a1.493 1.493 0 01-.867-1.33zm2.2 1.995c.2.132.467.265.667.332.267.066.533.066.733 0 .534-.2.8-.532 1-1.064l.6-1.462 1.334-2.859.333-.665c.133-.199.133-.465.133-.598a1.36 1.36 0 00-.666-.997l-1.4-.665c-.2-.133-.467-.266-.6-.333-.2-.066-.467-.066-.6 0-.2.067-.4.2-.534.333-.133.133-.266.332-.4.532l-.733 1.396-1.533 2.792c-.2.465-.534.864-.534 1.463 0 .531.4.997.8 1.263l1.4.532z" fill="#000"/><path d="M194.4 309.617l2.6-5.119a1.46 1.46 0 012-.665l1.867.931c.733.332 1.066 1.263.666 1.994l-2.6 5.119a1.46 1.46 0 01-2 .665l-1.866-.931c-.734-.332-1.067-1.263-.667-1.994z" fill="#fff"/><path d="M194.267 310.349c-.067-.532.267-.997.467-1.529l1.333-2.859.6-1.463c.067-.265.2-.531.467-.731.2-.199.466-.399.733-.465.267-.067.6-.067.933 0 .334.066.534.199.734.332l1.466.665c.534.332.934.864 1 1.529 0 .333-.066.665-.2.931l-.4.665-1.533 2.792-.733 1.396c-.2.532-.6.931-1.2 1.064a1.64 1.64 0 01-.8 0c-.267-.067-.467-.2-.667-.333l-1.4-.665c-.467-.265-.8-.797-.8-1.329zm2.2 1.994c.2.133.467.266.667.333.266.066.533.066.733 0 .533-.2.8-.532 1-1.064l.6-1.463 1.333-2.858.334-.665c.133-.2.133-.465.133-.598a1.366 1.366 0 00-.667-.998l-1.4-.664c-.2-.133-.466-.266-.6-.333-.2-.066-.466-.066-.6 0-.2.067-.4.2-.533.333-.133.132-.267.332-.4.531l-.733 1.396-1.534 2.793c-.2.465-.533.864-.533 1.462 0 .532.4.997.8 1.263l1.4.532z" fill="#000"/><path d="M187 306.824l2.6-5.119a1.46 1.46 0 012-.665l1.867.931c.733.332 1.067 1.263.667 1.994l-2.6 5.119c-.334.731-1.267 1.064-2 .665l-1.867-.931c-.733-.332-1.067-1.263-.667-1.994z" fill="#fff"/><path d="M186.867 307.49c-.067-.532.267-.997.467-1.529l1.333-2.859.6-1.462c.067-.266.2-.532.467-.732.2-.199.466-.399.733-.465.333-.067.6-.067.933 0 .334.066.534.199.734.332l1.466.665c.534.333.934.864 1 1.529 0 .333-.066.665-.2.931l-.4.665-1.533 2.792-.733 1.396c-.2.532-.6.931-1.2 1.064a1.64 1.64 0 01-.8 0c-.267-.067-.467-.2-.667-.333l-1.4-.664c-.533-.266-.8-.665-.8-1.33zm2.2 2.061c.2.133.467.266.667.332.266.067.533.067.733 0 .533-.199.8-.532 1-1.063l.6-1.463 1.333-2.859.334-.665c.133-.199.133-.465.133-.598a1.364 1.364 0 00-.667-.997l-1.4-.665a5.825 5.825 0 00-.6-.332c-.133-.067-.466-.067-.6 0-.2.066-.4.199-.533.332s-.267.333-.4.532l-.733 1.396-1.534 2.792c-.2.466-.533.865-.533 1.463 0 .532.4.997.8 1.263l1.4.532z" fill="#000"/><path d="M179.467 303.168l2.6-5.119a1.46 1.46 0 012-.665l1.866.931c.734.332 1.067 1.263.667 1.994l-2.6 5.119a1.46 1.46 0 01-2 .665l-1.867-.931c-.733-.332-1-1.263-.666-1.994z" fill="#fff"/><path d="M179.333 303.9c-.066-.532.267-.997.467-1.529l1.333-2.859.6-1.462c.067-.266.2-.532.467-.732.2-.199.467-.398.733-.465.334-.066.6-.066.934 0 .333.067.533.2.733.332l1.467.665c.533.333.933.865 1 1.529 0 .333-.067.665-.2.931l-.4.665-1.534 2.792-.733 1.396c-.2.532-.6.931-1.2 1.064a1.64 1.64 0 01-.8 0c-.267-.067-.467-.199-.667-.332l-1.4-.665c-.466-.266-.8-.798-.8-1.33zm2.2 1.995c.2.133.467.265.667.332.267.066.533.066.733 0 .534-.199.8-.532 1-1.064l.6-1.462 1.334-2.859.333-.665c.133-.199.133-.465.133-.598a1.36 1.36 0 00-.666-.997l-1.4-.665c-.2-.133-.467-.266-.6-.333-.2-.066-.467-.066-.6 0-.2.067-.4.2-.534.333-.133.133-.266.332-.4.532l-.733 1.396-1.533 2.792c-.2.465-.534.864-.534 1.463 0 .531.4.997.8 1.263l1.4.532zm32.801 20.476c.066.864.066 1.795-.134 2.725-.333-.864-.467-1.728-.533-2.659-.067-.864-.067-1.795.133-2.726.334.865.4 1.729.534 2.66z" fill="#000"/><path d="M229 324.975c-1.4 0-2.8 0-4.133-.067-1.4 0-2.8-.066-4.134-.199l-2.066-.2c-.667-.133-1.4-.133-2.067-.266.667 0 1.4-.066 2.067-.066h2.066c1.4 0 2.8 0 4.134.066 1.4 0 2.8.067 4.133.2 1.4.066 2.8.199 4.133.399-1.333.066-2.733.066-4.133.133z" fill="#231F20"/><path d="M180.867 320.919l5.6-11.102 7.933 2.925-3.867 8.975-9.666-.798z" stroke="#000" stroke-width=".5" stroke-miterlimit="10"/><path d="M187.933 103.924h-4.266v6.249h4.266v-6.249zM228 146.804c4.602 0 8.333-3.721 8.333-8.31 0-4.59-3.731-8.31-8.333-8.31-4.603 0-8.333 3.72-8.333 8.31 0 4.589 3.73 8.31 8.333 8.31zm5.066 42.881c3.866 0 7-3.126 7-6.981s-3.134-6.98-7-6.98-7 3.125-7 6.98c0 3.855 3.134 6.981 7 6.981z" fill="#EAB575"/><path d="M234.733 123.336l.067-.532c.067-.531-.333-.864-.733-.93l-1.734-.2c-.533-.066-.866.333-.933.732l-.067.531c-.066.532.334.865.734.931l1.733.2c.467.066.867-.333.933-.732z" fill="url(#paint7_linear)"/><path d="M232.266 126.594c.4.066.734.133 1.067.466-.467.266-.8.266-1.2.199-.4-.066-.733-.133-1.067-.466.4-.199.8-.199 1.2-.199z" fill="url(#paint8_linear)"/><path d="M226.733 132.045c-.8.399-1.6.865-2.266 1.463-.734.532-1.4 1.197-1.934 1.861l-.466.532-.4.532c-.267.399-.467.798-.667 1.197.267-.865.533-1.795 1.133-2.593.534-.798 1.2-1.529 1.934-2.061 1.533-1.13 3.333-1.928 5.133-2.127-.867.399-1.667.731-2.467 1.196z" fill="url(#paint9_linear)"/><path d="M240 129.253c.533.266.867.532 1.267.997-.534 0-1.067-.199-1.534-.465-.533-.266-.866-.532-1.266-.997.6.066 1.066.199 1.533.465z" fill="url(#paint10_linear)"/><path d="M235.933 135.303L226 134.239l9.333-20.942 9.6 1.795-9 20.211z" fill="#F95F8F"/><path d="M235.8 140.688c6.467-5.651 9.467-12.432 9.6-21.008 0-2.393-.933-2.46-2.467-3.191-.066-.067-.333-.067-.466-.067-1.467.333-2.867.466-2.867 2.527.067 7.512-2.267 13.03-8.067 17.883-1.6 1.33-.733 2.526 0 3.79.067.066.2.266.334.332 1.533.598 2.066 1.263 3.933-.266zm-5.533-5.053c-1.2-3.855-1.067-6.914.2-10.703.2-.665-.134-.931-.667-1.13-.533-.2-1.467-.399-2.067-.466-.6-.066-1 0-1.266.798-1.334 4.255-1.467 7.978 0 12.233.266.731.533.798 1.2.731.533-.066 1.466-.266 1.933-.465.533-.067.867-.333.667-.998z" fill="#EAB575"/><path d="M175.2 194.006c-3.8 0-17.4 1.197-17.4 1.197 1.133 12.764 12.733 25.728 12.733 25.728s8.467-26.925 4.667-26.925z" fill="#56D0ED"/><path opacity=".4" d="M171 150.328c0 1.396 7.467 20.675 7.467 20.675 2.466 6.981 4.8 9.574 5.666 10.77.867 1.197 1.6.665 1.6.665 2.6-1.064 19.334-16.155 19.334-16.155s-15.534 15.424-18.867 18.216c-3.333 2.792-5.133 0-5.133 0-3-.465-13.6-31.579-13.6-31.579-2.8-.266-6-1.462-6-1.462.866 0 9.533-1.13 9.533-1.13z" fill="url(#paint11_linear)"/><path d="M198.8 190.084c-2.134-.266-4.267-.532-6.4-.665-4.267-.399-8.534-.598-12.934-.665-4.266-.066-8.6.067-12.933.399-2.133.199-4.267.399-6.4.731-2.133.266-4.2.798-6.333 1.197a83.456 83.456 0 0112.8-2.393c4.266-.399 8.6-.532 13-.532 4.333.133 8.666.399 13 .864 4.333.532 8.6 1.13 12.866 2.061a115.15 115.15 0 01-6.666-.997z" fill="url(#paint12_linear)"/><path d="M190.533 116.821c-1.4.732-2.933 1.064-4.466.931-1.534-.133-3-.532-4.334-1.263-1.333-.731-2.466-1.795-3.133-3.125.467.532.933 1.13 1.533 1.596.534.532 1.2.864 1.8 1.196 1.267.599 2.734.998 4.134 1.064 1.4.133 2.8-.133 4.133-.731.667-.333 1.267-.731 1.733-1.263.534-.532 1-1.064 1.334-1.729a6.13 6.13 0 01-2.734 3.324z" fill="url(#paint13_linear)"/><path opacity=".25" d="M201.733 195.535l1.267 6.382c-5.667-5.518-45.133-6.648-45.133-6.648 19.733-4.388 43.866.199 43.866.266z" fill="url(#paint14_linear)"/><path d="M180.533 140.223l7.334-.997c.4-5.851-12.134-22.87-12.134-22.87 7.8 15.557 4.8 23.867 4.8 23.867z" fill="url(#paint15_linear)"/><path d="M198.867 123.137c4.733 1.729 13.066 11.302 13.066 11.302-1.466-.067-7.333 3.058-7.333 3.058 1.867-4.521-5.8-14.426-5.733-14.36z" fill="url(#paint16_linear)"/><path d="M201.066 140.023c-.733.598-1.466 1.064-2.266 1.529.6-.665 1.266-1.197 2-1.795.733-.598 1.466-1.064 2.266-1.529-.6.731-1.333 1.263-2 1.795z" fill="url(#paint17_linear)"/><path d="M199.467 153.586c.066-3.989-8-34.837-8-34.837 2-.266 3.133-2.393 3.133-2.393 2.933 9.573 4.933 37.23 4.867 37.23z" fill="url(#paint18_linear)"/><path d="M179.6 149.729l2.2-.665 5 16.953-7.2-16.288z" fill="#DBDBDB"/><path opacity=".39" d="M187.867 109.508l-4.2-5.584c1 1.728 4.266 1.994 4.266 1.994l-.066 3.59z" fill="url(#paint19_linear)"/><path d="M183.4 214.682l1.8 12.964 3.534 25.994.066.332-.333.067-4.667.931.134-.532 3.133 2.127.467.333-.467.266-3.2 1.595.133-.133c-2.266 5.718-4.6 11.435-6.866 17.152-2.267 5.718-4.6 11.435-6.934 17.153a1338.077 1338.077 0 016.534-17.286c2.2-5.717 4.4-11.501 6.666-17.218l.067-.133.133-.067 3.134-1.595-.067.532-3.2-2.128-.6-.399.667-.133 4.666-.93-.266.332-3.4-25.994-1.667-12.964-1.6-12.964 2.133 12.698z" fill="#fff"/><path opacity=".25" d="M169.933 303.634c-.6.598-1.333 1.197-2 1.729-1.4 1.13-2.8 2.193-4.333 3.124l-.267.133-.2-.066c-.6-.2-1.2-.399-1.733-.532-.533-.2-1.133-.466-1.667-.665.6 0 1.2.066 1.8.133.6.066 1.2.199 1.8.266l-.4.066c1.334-1.196 2.8-2.327 4.2-3.324.734-.532 1.534-.997 2.267-1.462.733-.532 1.6-.931 2.4-1.33-.533.665-1.2 1.263-1.867 1.928z" fill="url(#paint20_linear)"/><path opacity=".25" d="M182.267 313.806c-.8 1.662-1.667 3.391-2.534 5.053l-.2.332h-.4c-1.733-.133-3.6-.266-5.333-.399-1.733-.199-3.6-.332-5.333-.532-1.8-.133-3.6-.332-5.334-.532a141.983 141.983 0 01-5.266-.731c1.733 0 3.6 0 5.333.067 1.733.066 3.6.133 5.333.265 1.734.067 3.6.2 5.334.333 1.733.133 3.6.266 5.333.465l-.533.333c.933-1.662 1.866-3.191 2.866-4.853.934-1.663 1.934-3.192 3-4.787-.666 1.595-1.466 3.257-2.266 4.986z" fill="url(#paint21_linear)"/><path opacity=".25" d="M215.667 314.737c-.733-.266-1.533-.532-2.267-.798-.733-.333-1.533-.665-2.2-1.064-.666-.399-1.4-.798-2-1.396.8.066 1.667.266 2.4.532.734.266 1.534.532 2.267.798.733.266 1.533.664 2.2 1.063.667.399 1.4.798 2 1.396-.8-.066-1.6-.265-2.4-.531z" fill="url(#paint22_linear)"/><path opacity=".25" d="M205.667 321.916c-1.133 0-2.333-.066-3.467-.199-1.133-.066-2.333-.266-3.466-.465a31.677 31.677 0 01-3.401-.798c1.2-.2 2.334-.2 3.534-.2 1.133 0 2.333.067 3.467.2 1.133.066 2.333.266 3.466.465 1.134.2 2.267.466 3.4.798-1.2.133-2.333.199-3.533.199z" fill="url(#paint23_linear)"/><path d="M182.667 95.68c-1.334.066-2.6.133-3.934-.067 1.267-.332 2.6-.465 3.867-.531 1.333-.067 2.6-.133 3.933.066-1.266.266-2.533.466-3.866.532z" fill="url(#paint24_linear)"/><path d="M228.333 190.283s15.4-3.191 15.934 13.03c.466 14.959 2.4 108.897 2.666 123.191 0 .997.867 1.795 1.867 1.795 1.067 0 1.867-.865 1.867-1.928l-3.4-124.321s.8-16.753-18.867-14.759c0 0-5.733.998-6.267 7.513l2.067-.133c-.133.066.4-3.391 4.133-4.388z" fill="#CE4174"/><path d="M209.933 141.619l21.867 35.434-4.667 3.058-14.466-18.016-7.934-17.219s.934-1.795 5.2-3.257z" fill="#EAB575"/><path d="M170.133 147.602s11 34.238 15 34.836c3.934.598 42.067-37.562 42.067-37.562l-4.067-5.717-34.466 26.792-7.2-21.008c-7.067.598-11.334 2.659-11.334 2.659z" fill="#EAB575"/><path opacity=".39" d="M206.933 164.555l-14.267 12.764c-8.133 6.981-7.466 5.186-7.466 5.186 2.8-1.529 35.933-35.634 35.933-35.634l-.867-5.385c.734 3.324 5.2 4.986 5.2 4.986-.866 1.13-18.533 18.083-18.533 18.083z" fill="url(#paint25_linear)"/><path d="M181.466 144.876c-4.933-.266-11.4 2.726-11.4 2.726l.867 2.726c3.6-2.593 11.4-2.726 11.4-2.726l-.867-2.726z" fill="url(#paint26_linear)"/><path d="M219.667 145.94l-29.8 21.141 29.066-23.468.734 2.327z" fill="url(#paint27_linear)"/><path d="M233.867 183.303s5.066 2.593 3.266 7.778c0 0 .134 2.726 2.334 1.263 2.133-1.462 0-7.379 0-7.379l-5.6-1.662z" fill="#EAB575"/><path d="M230.6 183.436s5.733 2.925 3.667 8.775c0 0 .2 3.125 2.6 1.463s0-8.377 0-8.377l-6.267-1.861z" fill="#D6A269"/><path d="M228.934 183.436s5.733 2.925 3.666 8.775c0 0 .2 3.125 2.6 1.463s0-8.377 0-8.377l-6.266-1.861z" fill="#EAB575"/><path d="M188.4 91.226l-1.867 6.78s-.2-2.725-2.066-1.13c-1.867 1.596.666 3.923.666 3.923l-3.266.997s-7.534-3.723-4.667-6.116-.867-5.85 1.8-5.85 5.6-3.324 7.067-1.463a84.622 84.622 0 002.333 2.859z" fill="#000"/><path d="M331.533 193.94c14.323 0 25.934-1.786 25.934-3.989s-11.611-3.989-25.934-3.989c-14.322 0-25.933 1.786-25.933 3.989s11.611 3.989 25.933 3.989z" fill="#2B9EAA"/><path d="M232.133 109.309v-2.726h.067v2.726h-.067zm0-5.385v-2.726h.134l-.067 2.726h-.067zm.001-5.385l-.067-2.726h.2v2.726h-.133zm-.067-5.385v-2.726h.267l-.067 2.726h-.2zm0-5.385L232 85.043h.333v2.726h-.266zM232 82.384v-2.726h.333v2.726H232zm0-5.385v-1.33l.2.2h-1.333v-.466l1.333.067h.2v1.529h-.4zm-3.733-1.129H225.6v-.467h2.667v.466zm-5.267 0h-2.6v-.467h2.6v.466zm-5.2.066h-2.6v-.6h2.6v.6zm-5.2 0h-2.666v-.6h2.666v.6zm-5.267-.001l-2.6.067v-.731l2.6.066v.598zm-5.199.067h-2.6v-.731h2.6V76zm-5.201 0h-2.666v-.731h2.666V76zm-5.266 0h-2.6v-.731h2.6V76zm-5.2 0l-2.6.066v-.797h2.6V76zm-5.2.066H178.6v-.864h2.667v.864zm-5.267 0h-2.6v-.864h2.6v.864zm-5.2 0h-2.6v-.864h2.6v.864zm-5.2 0h-2.666v-.864h2.666v.864zm-5.267.066h-2.6v-.997l2.6.067v.93zm-5.199 0h-1.801V74.34h.934v1.33l-.467-.532h1.334v.997zm-1.867-4.387v-2.593h1.066l-.066 2.593h-1zm0-5.186v-2.593h1.066v2.593h-1.066zm0-5.119v-2.593h1.066v2.593h-1.066zm0-5.185v-2.593h1.066v2.593h-1.066zm0-5.119l-.067-2.593h1.134v2.593h-1.067zm1.067-7.778H153.2v2.592h1.134V43.36zm-1.134-2.594v-1.862h1.933v1.13H153.8l.6-.598v1.33h-1.2zm7.267-1.861H157.8v1.13h2.667v-1.13zm5.267 0h-2.667v1.13h2.667v-1.13zm5.333 0H168.4v1.197h2.667v-1.197zm5.333 0h-2.667v1.197h2.667v-1.197zm5.267-.067H179v1.197h2.667v-1.197zm5.333 0h-2.667v1.197H187v-1.197zm5.334 0h-2.667v1.197h2.667v-1.197zm5.266 0h-2.666v1.197h2.666v-1.197zm5.333 0h-2.666v1.264h2.666v-1.264zm5.267 0h-2.666v1.264h2.666v-1.264zm5.333 0h-2.666v1.264h2.666v-1.264zm5.334 0H216.2v1.264h2.667v-1.264zm5.266 0h-2.666v1.264h2.666v-1.264zm5.334 0H226.8v1.264h2.667v-1.264zm5.333 0h-2.667v1.33h2.667v-1.33zm5.267 0H237.4v1.33h2.667v-1.33zm5.333 0h-2.667v1.33h2.667v-1.33zm5.267-.066H248v1.33h2.667v-1.33zm5.333 0h-2.667v1.33H256v-1.33zm5.333.066h-2.666v1.33h2.666v-1.33zm5.267 0h-2.666v1.33h2.666v-1.33zm5.333 0h-2.666v1.264h2.666v-1.264zm5.334 0H274.6v1.264h2.667v-1.264zm5.266 0h-2.666v1.264h2.666v-1.264zm5.334 0H285.2v1.264h2.667v-1.264zm5.333 0h-2.666v1.264h2.666v-1.264zm5.267 0H295.8v1.264h2.667v-1.264zm5.333 0h-2.666v1.197h2.666v-1.197zm5.267 0H306.4v1.197h2.667v-1.197zm5.333 0h-2.667v1.197h2.667v-1.197zm5.334 0h-2.667v1.197h2.667v-1.197zm5.266 0h-2.667v1.197H325v-1.197zm5.334.067h-2.667v1.197h2.667v-1.197zm2.666 0h1.867v1.862h-1.134v-1.33l.6.599H333v-1.13zm1.867 4.455h-1.134v2.592h1.134V43.36zm0 5.185h-1.134v2.593h1.134v-2.593zm0 5.185h-1.134v2.593h1.134V53.73zm0 5.12h-1.134v2.592h1.134v-2.593zm0 5.185v2.593h-1.134v-2.593h1.134zm0 5.119v2.593H333.8l-.067-2.593h1.134zm-.067 5.186v2.592h-1V74.34h1zm0 5.185v2.593h-1v-2.593h1zm0 5.119v2.593h-1v-2.593h1zm0 5.186v2.592h-1V89.83h1zm-.067 5.185v2.593h-.866v-2.593h.866zm0 5.119v2.593h-.866v-2.593h.866zm0 5.186v2.593h-.866v-2.593h.866zm0 5.185v1.729H333v-.798l1.333-.066-.466.465v-1.33h.866zm-3.933 1.729h-2.2v-.797h2.2v.797zm-4.333 0l-2.2-.066v-.731h2.2v.797zm-4.4-.066h-1.333l.4-.333v1.33h-.734v-1.728h1.667v.731zm-.933 3.723v2.725h-.734v-2.725h.734zm0 5.518v2.725h-.734v-2.725h.734zm-.067 5.517v2.726h-.6v-2.726h.6zm0 5.452v2.792h-.6v-2.792h.6zm-.067 5.518v2.792h-.467l-.066-2.792H321zm0 5.518v2.726h-.466v-2.726H321zm0 5.518l-.066 2.725h-.334l-.066-2.725H321zm-.067 5.518v2.725h-.333v-2.725h.333zm0 5.451v2.793h-.333v-2.793h.333zm-.066 5.518v2.792h-.2v-2.792h.2zm0 5.518v2.726h-.2v-2.726h.2zm-.067 5.518v2.726h-.066l-.067-2.726h.133zm0 5.452v2.792h-.067v-2.792h.067zm0 5.517l-.067 1.33v-1.33h.067z" fill="#B9D390"/><path d="M343.8 183.436l-.067-2.66h.067v2.66zm-.067-5.319v-2.659h.067v2.659h-.067zm0-5.319v-2.659h.067v2.659h-.067zm0-5.318v-2.659h.067v2.659h-.067zm0-5.318v-2.66h.134l-.067 2.66h-.067zm0-5.319v-2.659h.134v2.659h-.134zm0-5.319l-.066-2.659h.2v2.659h-.134zm-.066-5.318v-2.659h.2v2.659h-.2zm0-5.319v-2.659h.2v2.659h-.2zm0-5.318v-2.659h.2v2.659h-.2zm0-5.318v-2.66h.266l-.066 2.66h-.2zm0-5.319v-2.66h.266v2.66h-.266zm0-5.319v-2.659h.266v2.659h-.266zm-.067-5.318v-2.659h.333v2.659h-.333zm0-5.318v-2.66h.333v2.66h-.333zm0-5.319v-2.659h.333v2.659h-.333zm0-5.318v-2.66h.333v2.66h-.333zm0-5.32v-1.994h1v.4h-.8l.2-.2v1.795h-.4zm3.667-1.994l2.666-.066v.533l-2.666-.067v-.4zm5.333-.066h2.667v.533H352.6v-.533zm5.334-.066h2.666v.665h-2.666v-.665zm5.333 0h2.666v.665h-2.666v-.665zm5.333-.067h2.667v.798H368.6v-.798zm5.334 0h2.666v.798h-2.666v-.798zm5.333 0l2.666-.067v.864h-2.666v-.797zm5.333-.067h2.667v.931H384.6v-.93zm5.334 0h2.666v.931h-2.666v-.93zm5.333 0l2.666-.066v1.064l-2.666-.067v-.93zm5.333-.066h2.667v1.064H400.6v-1.064zm5.334 0h2.666v1.064h-2.666v-1.064zm5.333-.067h2.666v1.13h-2.666v-1.13zm5.333 0h2.667v1.197H416.6v-1.197zm5.334 0h1.133l-.533.599-.067-1.53h1.2v2.128h-1.733v-1.197zm.533-3.589v-2.66h1.2v2.66h-1.2zm0-5.319v-2.66h1.2v2.66h-1.2zm0-5.319v-2.659h1.2v2.66h-1.2zm0-5.318v-2.66h1.266l-.066 2.66h-1.2zm0-5.319v-2.659h1.266v2.66h-1.266zm0-5.318v-2.66h1.266v2.66h-1.266zm0-5.318v-2.66h1.266v2.66h-1.266zm0-5.319v-2.66h1.266v2.66h-1.266zm-.067-5.318v-2.66h1.334v2.66H422.4zm1-5.718h2.667v1.33H423.4v-1.33zm5.333 0l2.667.067v1.263h-2.667v-1.33zm5.334.066h2.667v1.264h-2.667v-1.264zm5.333 0h2.667v1.264H439.4v-1.264zm4.533 2.062v2.659h-1.266v-2.66h1.266zm0 5.318v2.659h-1.266v-2.66h1.266zm0 5.318v2.66h-1.266v-2.66h1.266zm-.066 5.319v2.66h-1.2v-2.66h1.2zm0 5.318v2.66h-1.2v-2.66h1.2zm0 5.319v2.659h-1.2v-2.66h1.2zm0 5.318v2.66h-1.134l-.066-2.66h1.2zm0 5.319v2.66h-1.134v-2.66h1.134zm0 5.318v2.66h-1.134v-2.66h1.134zm0 5.319v2.66h-1.134v-2.66h1.134zm-.067 5.319v2.659h-1.067v-2.66h1.067zm0 5.318v2.659h-1v-2.66h1zm0 5.319l-.066 2.659h-.934v-2.659h1zm-.066 5.318v2.659h-.867l-.067-2.659h.934zm-.001 5.318v2.66h-.866v-2.66h.866zm0 5.319l-.066 2.66h-.8v-2.66h.866zm-.066 5.319v2.659h-.734l-.066-2.659h.8zm0 5.318v2.659h-.733v-2.659h.733zm-.067 5.319v2.659h-.666v-2.659h.666zm0 5.318l-.067 2.659H443v-2.659h.6zm-.067 5.319v2.659h-.466L443 147.27h.533zm-.066 5.318v2.66h-.4v-2.66h.4zm2.4 2.593h2.666v.266l-2.666.067v-.333zm5.333 0l2.667.067v.199H451.2v-.266zm5.333.067h2.667v.133h-2.667v-.133zm5.334.066h2.666l-2.666.067v-.067zm-197.2 166.602H397l-23.067-14.027H280.4l-15.733 14.027z" fill="#F95F8F"/><path d="M397 321.917H264.667v5.65H397v-5.65z" fill="#CE4174"/><path opacity=".37" d="M325.333 313.34L305.6 189.618h51.867L336.733 313.34" fill="#2B9EAA"/><path opacity=".5" d="M331.267 239.28c6.001 0 10.866-8.215 10.866-18.349s-4.865-18.349-10.866-18.349c-6.002 0-10.867 8.215-10.867 18.349s4.865 18.349 10.867 18.349z" fill="#fff"/><path d="M331.133 313.54c5.228 0 9.467-.923 9.467-2.061s-4.239-2.061-9.467-2.061c-5.228 0-9.466.923-9.466 2.061s4.238 2.061 9.466 2.061z" fill="#fff"/><path d="M219.8 315.667l2.8 2.194 9.733-7.246" stroke="url(#paint28_linear)" stroke-miterlimit="10"/><path d="M190.333 314.205l1.667 3.656 6.8-5.983" stroke="url(#paint29_linear)" stroke-miterlimit="10"/><path d="M218.267 323.844l20.866 1.995 4.334-10.172" stroke="url(#paint30_linear)" stroke-miterlimit="10"/><path d="M194.533 319.723l15.734 1.928" stroke="url(#paint31_linear)" stroke-miterlimit="10"/><path d="M124 40.168a22.326 22.326 0 01-6.067 2.46c-5.067 1.197-10.8.997-17.133-.598-16.2-4.122-22.6 2.659-32.2 12.897-5.933 6.316-13.333 14.16-25.067 21.141-8.666 5.12-21.4 10.438-33.066 6.383-7-2.394-10.334-7.114-10.334-7.18-.067-.133-.067-.267.067-.333.133-.066.266-.066.333.066 0 .067 3.267 4.654 10.133 6.981 11.467 3.922 24.067-1.263 32.667-6.382C55 68.689 62.4 60.844 68.266 54.528 77.666 44.49 84.4 37.31 101 41.431c6.266 1.596 11.933 1.795 16.866.599 4.734-1.13 8.534-3.524 11.067-6.98 6-8.045 4.8-20.544-3.467-34.305-.066-.133 0-.266.067-.333.133-.066.267 0 .333.067 8.334 13.96 9.6 26.659 3.4 34.836-1.4 2.061-3.2 3.59-5.266 4.853zm473.533 286.136a28.66 28.66 0 017.333-2.925c6.067-1.462 13-1.197 20.6.731 19.534 4.92 27.134-3.191 38.734-15.556 7.133-7.579 16-17.086 30.133-25.463 10.4-6.182 25.733-12.498 39.8-7.711 8.4 2.925 12.4 8.509 12.467 8.576.066.133.066.332-.067.399-.133.066-.333.066-.4-.067-.067-.066-3.933-5.584-12.2-8.377-13.8-4.72-28.933 1.529-39.267 7.646-14.066 8.31-22.866 17.75-30 25.329-11.266 12.033-19.466 20.742-39.333 15.69-7.533-1.928-14.4-2.128-20.333-.731-5.667 1.329-10.267 4.254-13.334 8.376-7.266 9.64-5.733 24.665 4.134 41.219.066.133.066.332-.134.399-.2.066-.333.066-.4-.133-10-16.754-11.533-32.044-4.133-41.884 1.733-2.127 3.867-4.055 6.4-5.518z" fill="#CCC"/><path d="M49.6 50.007a6.834 6.834 0 019.6-.066c2.667 2.659 6.933 2.592 9.6-.067a6.834 6.834 0 019.6-.066c2.667 2.659 6.933 2.592 9.6-.067a6.834 6.834 0 019.6-.066m543.466 259.344a5.343 5.343 0 017.467-.066c2.067 2.061 5.4 1.994 7.467-.067a5.342 5.342 0 017.466-.066c2.067 2.061 5.4 1.994 7.467-.067a5.343 5.343 0 017.467-.066" stroke="#000" stroke-width="1.75" stroke-miterlimit="10" stroke-linecap="round"/><path d="M708.067 112.965c-3.867 1.596-7.467 2.261-10.934 2.061-8.933-.598-16.2-7.579-21.666-20.676-6.8-16.288-15.934-27.058-27.867-32.775-10.267-4.986-20.8-5.385-30.067-5.784-12.666-.532-22.6-.997-24.466-13.23-.734-4.986.133-9.108 2.8-12.498 7.2-9.374 25.8-11.502 47.333-14.028 29.467-3.457 62.8-7.313 72.8-31.512l.733.332c-10.2 24.599-43.733 28.52-73.4 31.912-20.466 2.393-39.8 4.587-46.8 13.695-2.466 3.19-3.333 7.113-2.6 11.9 1.734 11.634 10.934 12.033 23.667 12.565 18.2.798 43.067 1.861 58.6 39.091 5.333 12.831 12.4 19.612 21 20.144 25.6 1.728 57.267-51.79 57.6-52.321l.667.399c-.067.133-8.067 13.761-19.2 26.991-10.267 12.299-19.667 20.211-28.2 23.734z" fill="#CCC"/><path d="M657.8 109.84c-1.933 0-3.533-1.595-3.533-3.523 0-1.928 1.6-3.524 3.533-3.524 10.4 0 18.867-8.443 18.867-18.814 0-1.928 1.6-3.523 3.533-3.523 1.933 0 3.533 1.595 3.533 3.523 0 14.294-11.666 25.861-25.933 25.861zm22.4-28.587c-1.533 0-2.8 1.263-2.8 2.793 0 10.703-8.733 19.479-19.533 19.479-1.534 0-2.8 1.263-2.8 2.792s1.266 2.792 2.8 2.792c13.866 0 25.2-11.235 25.2-25.13-.067-1.463-1.334-2.726-2.867-2.726z" fill="#000"/><path d="M680.2 87.57c-1.934 0-3.533-1.596-3.533-3.524s1.599-3.524 3.533-3.524c1.933 0 3.533 1.596 3.533 3.524s-1.6 3.523-3.533 3.523zm0-6.316c-1.534 0-2.8 1.263-2.8 2.792s1.266 2.792 2.8 2.792c1.533 0 2.8-1.263 2.8-2.792 0-1.53-1.267-2.792-2.8-2.792z" fill="#000"/><path d="M654.267 107.381c-14.6 0-26.534-11.834-26.534-26.46 0-14.56 11.867-26.46 26.534-26.46 14.6 0 26.533 11.834 26.533 26.46 0 .798-.066 1.662-.133 2.46 0 .2-.2.332-.4.332s-.333-.2-.333-.399c.066-.797.133-1.595.133-2.393 0-14.227-11.6-25.728-25.8-25.728-14.267 0-25.8 11.567-25.8 25.728 0 14.16 11.6 25.728 25.8 25.728h.4c.2 0 .333.133.333.333 0 .199-.133.332-.333.332-.134.067-.267.067-.4.067z" fill="#000"/><path d="M88.466 337.472c0 1.862-.2 3.79-.666 5.651-1.134 4.72-3.6 9.374-7.334 13.895C74 364.73 64.4 370.846 64.333 370.912l-.133-.265c.066-.067 9.666-6.183 16.066-13.829 3.733-4.454 6.2-9.108 7.267-13.761 1.333-5.851.6-11.701-2.334-17.485-5.066-10.172-13.8-12.033-22.2-13.828-6.266-1.33-12.733-2.726-17.6-7.579-5.4-5.385-8.133-14.626-8.4-28.255-.933-50.393-22.533-50.393-36.866-50.393v-.332c14.4 0 36.2 0 37.133 50.725.267 13.563 3 22.737 8.334 28.056 4.8 4.786 11.2 6.182 17.466 7.512 8.467 1.795 17.267 3.723 22.4 13.961 2 3.989 3 8.044 3 12.033z" fill="#CCC"/><path d="M64.267 371.046l-.267-.465.067-.067c.066-.066 9.6-6.116 16.066-13.828 3.734-4.454 6.2-9.108 7.267-13.762 1.333-5.783.6-11.634-2.267-17.418C80.067 315.401 71.4 313.54 63 311.745c-6.267-1.33-12.8-2.726-17.667-7.579-5.4-5.452-8.2-14.693-8.466-28.321-.934-50.327-22.467-50.327-36.734-50.327H0v-.532h.133c14.467 0 36.334 0 37.267 50.792.267 13.496 2.933 22.67 8.267 27.989 4.733 4.72 11.2 6.116 17.4 7.446 8.533 1.861 17.333 3.723 22.466 14.027 2 3.989 3 8.045 3 12.034 0 1.861-.2 3.789-.666 5.65-1.134 4.721-3.6 9.441-7.4 13.962-6.4 7.645-16.067 13.828-16.2 13.894v.266zm0-.332c1.066-.599 9.933-6.449 16.066-13.762 3.8-4.521 6.267-9.174 7.334-13.828.466-1.862.666-3.723.666-5.651 0-3.989-1-8.044-3-11.967C80.2 315.268 71.467 313.407 63 311.545c-6.267-1.329-12.667-2.726-17.533-7.512-5.4-5.385-8.134-14.56-8.334-28.122C36.2 225.452 14.6 225.319.2 225.319v.066c14.333 0 35.933.133 36.867 50.526.266 13.562 3 22.803 8.4 28.188 4.8 4.787 11.266 6.183 17.533 7.579 8.467 1.795 17.2 3.723 22.267 13.895 2.933 5.784 3.666 11.701 2.333 17.551-1.067 4.654-3.533 9.307-7.333 13.828-6 7.18-15 13.097-16 13.762z" fill="#CCC"/><path d="M42 334.282c-.467 0-.867-.199-1.2-.532-.6-.598-1.533-.598-2.066 0-.334.333-.734.532-1.2.532-.467 0-.867-.199-1.2-.532-.6-.598-1.534-.598-2.067 0-.067.067-.134.067-.134 0-.066-.066-.066-.133 0-.133a1.693 1.693 0 012.4 0c.267.266.667.399 1.067.399.4 0 .733-.133 1.067-.399a1.693 1.693 0 012.4 0c.267.266.666.399 1.066.399s.734-.133 1.067-.399a1.693 1.693 0 012.4 0c.067.067.067.133 0 .133-.067.067-.133.067-.133 0-.6-.598-1.533-.598-2.067 0-.533.333-1 .532-1.4.532zm0 1.729c-.467 0-.867-.2-1.2-.532-.6-.599-1.534-.599-2.067 0-.333.332-.733.532-1.2.532-.467 0-.867-.2-1.2-.532-.6-.599-1.533-.599-2.067 0-.066.066-.133.066-.133 0-.067-.067-.067-.133 0-.133a1.693 1.693 0 012.4 0c.267.266.667.399 1.067.399.4 0 .733-.133 1.066-.399a1.693 1.693 0 012.4 0c.267.266.667.399 1.067.399.4 0 .733-.133 1.067-.399a1.693 1.693 0 012.4 0c.066.066.066.133 0 .133-.067.066-.134.066-.134 0-.6-.599-1.533-.599-2.066 0-.534.332-1 .532-1.4.532zm-4.533 1.728c-.467 0-.867-.199-1.2-.532-.6-.598-1.534-.598-2.067 0-.067.067-.133.067-.133 0-.067-.066-.067-.133 0-.133a1.693 1.693 0 012.4 0c.6.599 1.533.599 2.066 0a1.693 1.693 0 012.4 0c.267.266.667.399 1.067.399.4 0 .733-.133 1.067-.399a1.693 1.693 0 012.4 0c.066.067.066.133 0 .133-.067.067-.134.067-.134 0-.6-.598-1.533-.598-2.066 0a1.693 1.693 0 01-2.4 0c-.267-.266-.667-.399-1.067-.399-.4 0-.733.133-1.067.399-.4.333-.8.532-1.266.532zm0 1.795c-.467 0-.867-.199-1.2-.465a1.472 1.472 0 00-1-.399c-.4 0-.734.133-1.067.465-.067.067-.133.067-.133 0-.067-.066-.067-.133 0-.133.333-.332.733-.532 1.2-.532.466 0 .866.2 1.2.466a1.47 1.47 0 001 .399c.4 0 .733-.133 1.066-.466a1.693 1.693 0 012.4 0c.6.599 1.534.532 2.067 0a1.693 1.693 0 012.4 0c.067.067.067.133 0 .133-.067.067-.133.067-.133 0-.6-.598-1.534-.532-2.067 0a1.693 1.693 0 01-2.4 0c-.6-.598-1.533-.532-2.067 0-.4.333-.8.532-1.266.532z" fill="#000"/><path d="M32.6 320.521l22.533-34.97 22.6 34.97H32.6z" fill="#A7CC80"/><path d="M28.2 320.588a.144.144 0 01-.134-.134c0-.066.067-.133.134-.133h53.866c.067 0 .134.067.134.133a.144.144 0 01-.134.134H28.2z" fill="#000"/></g><defs><linearGradient id="paint0_linear" x1="519.92" y1="228.211" x2="565.695" y2="228.211" gradientUnits="userSpaceOnUse"><stop stop-color="#1C75BC" stop-opacity=".7"/><stop offset=".236" stop-color="#1D70B8" stop-opacity=".771"/><stop offset=".529" stop-color="#2160AD" stop-opacity=".859"/><stop offset=".851" stop-color="#27479A" stop-opacity=".955"/><stop offset="1" stop-color="#2B3990"/></linearGradient><linearGradient id="paint1_linear" x1="536.616" y1="154.836" x2="539.88" y2="154.836" gradientUnits="userSpaceOnUse"><stop stop-color="#A97C50" stop-opacity=".7"/><stop offset=".356" stop-color="#A4774C" stop-opacity=".807"/><stop offset=".798" stop-color="#946742" stop-opacity=".94"/><stop offset="1" stop-color="#8B5E3C"/></linearGradient><linearGradient id="paint2_linear" x1="523.582" y1="186.91" x2="553.426" y2="186.91" gradientUnits="userSpaceOnUse"><stop stop-color="#8DC63F" stop-opacity=".7"/><stop offset=".184" stop-color="#6EB13D" stop-opacity=".755"/><stop offset=".567" stop-color="#338A3B" stop-opacity=".87"/><stop offset=".85" stop-color="#0E7139" stop-opacity=".955"/><stop offset="1" stop-color="#006838"/></linearGradient><linearGradient id="paint3_linear" x1="535.471" y1="168.447" x2="544.277" y2="190.169" gradientUnits="userSpaceOnUse"><stop stop-color="#8DC63F" stop-opacity=".7"/><stop offset=".184" stop-color="#6EB13D" stop-opacity=".755"/><stop offset=".567" stop-color="#338A3B" stop-opacity=".87"/><stop offset=".85" stop-color="#0E7139" stop-opacity=".955"/><stop offset="1" stop-color="#006838"/></linearGradient><linearGradient id="paint4_linear" x1="530.809" y1="171.101" x2="534.504" y2="178.61" gradientUnits="userSpaceOnUse"><stop stop-color="#fff" stop-opacity=".5"/><stop offset="1" stop-color="#fff"/></linearGradient><linearGradient id="paint5_linear" x1="472.707" y1="275.23" x2="480.95" y2="275.23" gradientUnits="userSpaceOnUse"><stop stop-color="#2B3990" stop-opacity=".5"/><stop offset=".162" stop-color="#2B3E94" stop-opacity=".581"/><stop offset=".363" stop-color="#2A4E9F" stop-opacity=".681"/><stop offset=".584" stop-color="#2967B1" stop-opacity=".792"/><stop offset=".819" stop-color="#288ACA" stop-opacity=".909"/><stop offset="1" stop-color="#27AAE1"/></linearGradient><linearGradient id="paint6_linear" x1="179.64" y1="121.529" x2="157.483" y2="141.009" gradientUnits="userSpaceOnUse"><stop stop-color="#8DC63F" stop-opacity=".7"/><stop offset=".184" stop-color="#6EB13D" stop-opacity=".755"/><stop offset=".567" stop-color="#338A3B" stop-opacity=".87"/><stop offset=".85" stop-color="#0E7139" stop-opacity=".955"/><stop offset="1" stop-color="#006838"/></linearGradient><linearGradient id="paint7_linear" x1="231.329" y1="122.681" x2="234.797" y2="123.052" gradientUnits="userSpaceOnUse"><stop stop-color="#fff" stop-opacity=".5"/><stop offset="1" stop-color="#fff"/></linearGradient><linearGradient id="paint8_linear" x1="231.098" y1="127.292" x2="233.26" y2="126.499" gradientUnits="userSpaceOnUse"><stop stop-color="#fff" stop-opacity=".5"/><stop offset="1" stop-color="#fff"/></linearGradient><linearGradient id="paint9_linear" x1="220.152" y1="135.893" x2="229.828" y2="132.338" gradientUnits="userSpaceOnUse"><stop stop-color="#fff" stop-opacity=".5"/><stop offset="1" stop-color="#fff"/></linearGradient><linearGradient id="paint10_linear" x1="238.664" y1="129.989" x2="241.077" y2="129.103" gradientUnits="userSpaceOnUse"><stop stop-color="#fff" stop-opacity=".5"/><stop offset="1" stop-color="#fff"/></linearGradient><linearGradient id="paint11_linear" x1="205.045" y1="168.024" x2="161.415" y2="168.024" gradientUnits="userSpaceOnUse"><stop stop-color="#8DC63F" stop-opacity=".7"/><stop offset=".184" stop-color="#6EB13D" stop-opacity=".755"/><stop offset=".567" stop-color="#338A3B" stop-opacity=".87"/><stop offset=".85" stop-color="#0E7139" stop-opacity=".955"/><stop offset="1" stop-color="#006838"/></linearGradient><linearGradient id="paint12_linear" x1="205.423" y1="189.63" x2="153.748" y2="189.63" gradientUnits="userSpaceOnUse"><stop stop-color="#8DC63F" stop-opacity=".7"/><stop offset=".184" stop-color="#6EB13D" stop-opacity=".755"/><stop offset=".567" stop-color="#338A3B" stop-opacity=".87"/><stop offset=".85" stop-color="#0E7139" stop-opacity=".955"/><stop offset="1" stop-color="#006838"/></linearGradient><linearGradient id="paint13_linear" x1="193.598" y1="115.596" x2="178.252" y2="115.596" gradientUnits="userSpaceOnUse"><stop stop-color="#8DC63F" stop-opacity=".7"/><stop offset=".184" stop-color="#6EB13D" stop-opacity=".755"/><stop offset=".567" stop-color="#338A3B" stop-opacity=".87"/><stop offset=".85" stop-color="#0E7139" stop-opacity=".955"/><stop offset="1" stop-color="#006838"/></linearGradient><linearGradient id="paint14_linear" x1="202.968" y1="197.631" x2="157.826" y2="197.631" gradientUnits="userSpaceOnUse"><stop stop-color="#1C75BC" stop-opacity=".1"/><stop offset=".141" stop-color="#1C75BC" stop-opacity=".227"/><stop offset="1" stop-color="#1C75BC"/></linearGradient><linearGradient id="paint15_linear" x1="187.911" y1="128.265" x2="175.752" y2="128.265" gradientUnits="userSpaceOnUse"><stop stop-color="#fff" stop-opacity=".1"/><stop offset="1" stop-color="#fff"/></linearGradient><linearGradient id="paint16_linear" x1="212.289" y1="132.035" x2="197.734" y2="129.578" gradientUnits="userSpaceOnUse"><stop stop-color="#fff" stop-opacity=".1"/><stop offset="1" stop-color="#fff"/></linearGradient><linearGradient id="paint17_linear" x1="202.88" y1="140.228" x2="199.034" y2="139.579" gradientUnits="userSpaceOnUse"><stop stop-color="#8DC63F" stop-opacity=".7"/><stop offset=".184" stop-color="#6EB13D" stop-opacity=".755"/><stop offset=".567" stop-color="#338A3B" stop-opacity=".87"/><stop offset=".85" stop-color="#0E7139" stop-opacity=".955"/><stop offset="1" stop-color="#006838"/></linearGradient><linearGradient id="paint18_linear" x1="199.476" y1="134.951" x2="191.46" y2="134.951" gradientUnits="userSpaceOnUse"><stop stop-color="#fff" stop-opacity=".1"/><stop offset="1" stop-color="#fff"/></linearGradient><linearGradient id="paint19_linear" x1="187.911" y1="106.699" x2="183.638" y2="106.699" gradientUnits="userSpaceOnUse"><stop stop-color="#603913"/><stop offset="1" stop-color="#603913" stop-opacity=".1"/></linearGradient><linearGradient id="paint20_linear" x1="172.204" y1="305.158" x2="159.54" y2="305.158" gradientUnits="userSpaceOnUse"><stop stop-color="#1C75BC"/><stop offset="1" stop-color="#1C75BC" stop-opacity=".1"/></linearGradient><linearGradient id="paint21_linear" x1="185.164" y1="313.917" x2="157.758" y2="313.917" gradientUnits="userSpaceOnUse"><stop stop-color="#1C75BC"/><stop offset="1" stop-color="#1C75BC" stop-opacity=".1"/></linearGradient><linearGradient id="paint22_linear" x1="218.353" y1="313.352" x2="208.953" y2="313.352" gradientUnits="userSpaceOnUse"><stop stop-color="#1C75BC"/><stop offset="1" stop-color="#1C75BC" stop-opacity=".1"/></linearGradient><linearGradient id="paint23_linear" x1="209.258" y1="321.074" x2="195.25" y2="321.074" gradientUnits="userSpaceOnUse"><stop stop-color="#1C75BC"/><stop offset="1" stop-color="#1C75BC" stop-opacity=".1"/></linearGradient><linearGradient id="paint24_linear" x1="186.586" y1="95.366" x2="178.802" y2="95.366" gradientUnits="userSpaceOnUse"><stop stop-color="#fff" stop-opacity=".3"/><stop offset="1" stop-color="#fff" stop-opacity=".6"/></linearGradient><linearGradient id="paint25_linear" x1="225.444" y1="162.079" x2="185.07" y2="162.079" gradientUnits="userSpaceOnUse"><stop stop-color="#603913"/><stop offset="1" stop-color="#603913" stop-opacity=".1"/></linearGradient><linearGradient id="paint26_linear" x1="182.399" y1="147.594" x2="170.122" y2="147.594" gradientUnits="userSpaceOnUse"><stop stop-color="#603913"/><stop offset="1" stop-color="#603913" stop-opacity=".1"/></linearGradient><linearGradient id="paint27_linear" x1="219.652" y1="155.325" x2="189.872" y2="155.325" gradientUnits="userSpaceOnUse"><stop stop-color="#fff" stop-opacity=".1"/><stop offset="1" stop-color="#fff"/></linearGradient><linearGradient id="paint28_linear" x1="219.594" y1="314.314" x2="232.553" y2="314.314" gradientUnits="userSpaceOnUse"><stop stop-color="#F7941D"/><stop offset="1" stop-color="#F7941D" stop-opacity=".1"/></linearGradient><linearGradient id="paint29_linear" x1="190.011" y1="315.018" x2="199.002" y2="315.018" gradientUnits="userSpaceOnUse"><stop stop-color="#F7941D"/><stop offset="1" stop-color="#F7941D" stop-opacity=".1"/></linearGradient><linearGradient id="paint30_linear" x1="218.235" y1="320.865" x2="243.773" y2="320.865" gradientUnits="userSpaceOnUse"><stop stop-color="#F7941D"/><stop offset="1" stop-color="#F7941D" stop-opacity=".1"/></linearGradient><linearGradient id="paint31_linear" x1="194.51" y1="320.687" x2="210.325" y2="320.687" gradientUnits="userSpaceOnUse"><stop stop-color="#F7941D"/><stop offset="1" stop-color="#F7941D" stop-opacity=".1"/></linearGradient><clipPath id="clip0"><path fill="#fff" d="M0 .479h720v359H0z"/></clipPath></defs></svg>