<svg width="720" height="485" fill="none" xmlns="http://www.w3.org/2000/svg"><g clip-path="url(#clip0)"><path d="M462.228 250.343l-.076 3.02.076-3.02zm-.151 6.039l-.151 3.02.151-3.02zm-.378 6.041l-.302 2.944.302-2.944zm-.68 5.964l-.377 3.02h-.076l.453-3.02zm-.905 5.965l-.529 2.944h-.075l.604-2.944zm-1.208 5.964l-.68 2.945-.075-.076.755-2.944v.075zm-1.435 5.814l-.83 2.945h-.076l.831-2.945h.075zm-1.661 5.813l-.982 2.869h-.075l.981-2.869h.076zm-1.963 5.738l-1.057 2.794h-.151l1.133-2.869.075.075zm-2.265 5.587l-1.133 2.794-.151-.076 1.208-2.718h.076zm-2.416 5.512l-1.359 2.718-.076-.076 1.284-2.642h.151zm-2.718 5.436l-1.434 2.642-.151-.075 1.434-2.643.151.076zm-2.944 5.285l-1.586 2.567-.075-.076 1.51-2.567.151.076zm-3.172 5.134l-1.66 2.492-.151-.076 1.661-2.491.15.075zm-3.397 4.983l-1.812 2.416-.075-.076 1.736-2.416.151.076zm-3.624 4.832l-1.888 2.341-.151-.076 1.888-2.34.151.075zm-3.851 4.681l-1.963 2.265-.151-.151 2.039-2.265.075.151zm-4.001 4.53l-2.038 2.19-.151-.151 2.038-2.19.151.151zm-4.228 4.303l-2.189 2.114-.151-.226 2.189-2.039.151.151zm-4.379 4.153l-2.265 1.963-.151-.151 2.265-2.038.151.226zm-4.606 3.926l-2.34 1.887-.151-.226 2.34-1.888.151.227zm-4.756 3.699l-2.416 1.812-.151-.226 2.416-1.812.151.226zm-4.908 3.549l-2.491 1.661-.151-.227 2.491-1.661.151.227zm-4.983 3.322l-2.642 1.586-.151-.378 2.567-1.51.226.302zm-5.209 3.095l-2.643 1.435-.226-.378 2.643-1.434.226.377zm-5.36 2.794l-2.718 1.359-.151-.377 2.718-1.359.151.377zm-5.437 2.643l-2.793 1.208-.151-.453 2.718-1.133.226.378zm-5.587 2.34l-2.793 1.133-.227-.453 2.869-1.133.151.453zm-5.662 2.114l-2.869.982-.151-.529 2.869-.906.151.453zm-5.738 1.887l-2.944.831-.151-.529 2.944-.83.151.528zm-5.814 1.586l-2.944.679-.151-.528 2.944-.68.151.529zm-5.964 1.359l-2.944.529-.076-.604 2.945-.529.075.604zm-5.889 1.057l-3.02.453-.076-.68 2.945-.377.151.604zm-6.04.83l-3.02.302-.076-.679 3.02-.302.076.679zm-6.04.529l-3.02.151v-.679l3.02-.151v.679zm-6.04.302h-3.02v-.679l3.02-.076v.755zm-6.04 0l-3.02-.075v-.755l3.02.075v.755zm-6.04-.227l-3.02-.226.075-.831 2.945.227v.83zm-6.041-.528l-3.02-.377.076-.831 3.02.378-.076.83zm-6.039-.755l-2.945-.528.151-.831 2.945.529-.151.83zm-5.964-1.057l-2.945-.604.226-.906 2.945.68-.226.83zm-5.89-1.283l-2.944-.755.226-.906 2.945.755-.227.906zm-5.889-1.586l-2.869-.906.302-.906 2.869.906-.302.906zm-5.738-1.812l-2.869-1.057.378-.906 2.793.981-.302.982zm-5.738-2.114l-2.793-1.132.377-.906 2.794 1.132-.378.906zm-5.587-2.341l-2.718-1.208.453-.981 2.718 1.283-.453.906zm-5.436-2.566l-2.718-1.359.529-.982 2.642 1.359-.453.982zm-5.36-2.794l-2.643-1.51.529-.981 2.642 1.51-.528.981zm-5.285-3.096l-2.567-1.585.679-.982 2.492 1.586-.604.981zm-5.059-3.246l-2.492-1.737.68-.981 2.491 1.736-.679.982zm-4.983-3.548l-2.416-1.812.755-.982 2.416 1.812-.755.982zm-4.757-3.7l-2.34-1.963.83-.906 2.265 1.887-.755.982zm-4.605-3.926l-2.265-2.039.906-.981 2.189 2.038-.83.982zm-4.454-4.152l-2.19-2.114.982-.906 2.114 2.114-.906.906zm-4.228-4.304l-2.114-2.265.981-.831 2.039 2.19-.906.906zm-4.077-4.53l-1.963-2.341 1.057-.83 1.887 2.34-.981.831zm-3.851-4.681l-1.888-2.416 1.133-.755 1.812 2.34-1.057.831zm-3.624-4.832l-1.737-2.491 1.057-.755 1.737 2.416-1.057.83zm-3.473-5.059l-1.586-2.491 1.133-.755 1.585 2.567-1.132.679zm-3.171-5.134l-1.51-2.642 1.208-.604 1.435 2.567-1.133.679zm-2.945-5.285l-1.434-2.642 1.208-.68 1.434 2.718-1.208.604zm-2.793-5.436l-1.208-2.718 1.208-.604 1.283 2.793-1.283.529zm-2.492-5.511l-1.132-2.794 1.283-.528 1.208 2.793-1.359.529zm-2.189-5.587l-1.057-2.869 1.359-.453.981 2.793-1.283.529zm-2.038-5.738l-.831-2.945 1.359-.377.831 2.869-1.359.453zm-1.661-5.813l-.831-2.945 1.435-.377.755 2.944-1.359.378zm-1.511-5.89l-.604-3.02 1.359-.302.68 2.945-1.435.377zm-1.208-5.964l-.528-3.02 1.51-.227.453 2.945-1.435.302zm-.905-6.041l-.378-3.02 1.435-.151.377 3.02-1.434.151zm-.68-6.039l-.302-3.02 1.51-.075.226 3.02-1.434.075zm-.453-6.04l-.075-3.02h1.51l.075 2.944-1.51.076zm-.151-6.04l.075-3.02h1.51l-.075 3.02h-1.51zm.151-6.116l.151-3.02 1.51.151-.151 2.944-1.51-.075zm.378-6.04l.302-3.02 1.51.151-.302 3.02-1.51-.151zm.679-6.04l.453-3.02 1.435.227-.453 3.02-1.435-.227zm.906-5.964l.604-3.02 1.435.302-.604 2.944-1.435-.226zm1.208-5.965l.679-2.944 1.435.302-.68 2.944-1.434-.302zm1.434-5.889l.831-2.945 1.434.378-.83 2.944-1.435-.377zm1.737-5.814l.982-2.869 1.359.453-.982 2.794-1.359-.378zm1.963-5.737l1.132-2.869 1.284.528-1.057 2.794-1.359-.453zm2.265-5.663l1.208-2.794 1.284.604-1.208 2.718-1.284-.528zm2.492-5.512l1.283-2.793 1.284.679-1.359 2.643-1.208-.529zm2.718-5.435l1.434-2.718 1.208.679-1.434 2.643-1.208-.604zm2.944-5.285l1.585-2.643 1.133.755-1.51 2.567-1.208-.679zm3.171-5.21l1.737-2.491 1.057.755-1.661 2.491-1.133-.755zm3.473-4.982l1.736-2.492 1.057.831-1.736 2.416-1.057-.755zm3.624-4.909l1.888-2.34.981.83-1.812 2.341-1.057-.831zm3.851-4.681l1.963-2.265.981.906-1.963 2.265-.981-.906zm4.001-4.53l2.114-2.189.906.906-2.039 2.189-.981-.906zm4.229-4.303l2.189-2.114.906.981-2.19 2.039-.905-.906zm4.453-4.152l2.265-1.963.831.906-2.265 2.038-.831-.981zm4.606-3.927l2.341-1.887.755.981-2.341 1.888-.755-.982zm4.756-3.774l2.492-1.737.679.982-2.416 1.736-.755-.981zm4.983-3.474l2.492-1.661.679.982-2.491 1.661-.68-.982zm5.059-3.321l2.567-1.586.604.982-2.567 1.585-.604-.981zm5.21-3.02l2.642-1.51.529.981-2.567 1.51-.604-.981zm5.36-2.87l2.718-1.359.453.981-2.642 1.359-.529-.981zm5.511-2.567l2.794-1.208.377.906-2.793 1.284-.378-.982zm5.588-2.34l2.793-1.132.378.981-2.794 1.057-.377-.906zm5.662-2.114l2.869-.982.302.982-2.869.906-.302-.906zm5.738-1.812l2.945-.831.226.906-2.869.831-.302-.906zm5.889-1.586l2.944-.755.227.906-2.945.755-.226-.906zm5.89-1.359l3.02-.528.151.83-2.945.604-.226-.906zm5.963-1.057l3.02-.377.076.83-2.945.453-.151-.906zm6.041-.754l3.02-.302.075.83-3.02.302-.075-.83zm6.04-.529l3.02-.151v.755l-3.02.151v-.755zm6.04-.302h3.02v.755l-3.02.075v-.83zm6.04 0l3.02.151v.679l-3.02-.075v-.755zm6.04.302l3.02.226-.076.68-2.944-.227v-.679zm6.039.528l3.02.378-.075.679-3.02-.377.075-.68zm6.041.831l2.944.453-.075.68-3.02-.529.151-.604zm5.889 1.057l3.02.604-.151.604-2.944-.604.075-.604zm5.964 1.283l2.869.755-.151.604-2.869-.755.151-.604zm5.814 1.586l2.869.906-.151.528-2.869-.906.151-.528zm5.738 1.887l2.869.982-.151.528-2.869-1.057.151-.453zm5.662 2.114l2.869 1.133-.226.453-2.794-1.133.151-.453zm5.588 2.341l2.793 1.283-.226.378-2.718-1.284.151-.377zm5.511 2.567l2.642 1.435-.151.377-2.718-1.434.227-.378zm5.285 2.869l2.643 1.51-.151.302-2.643-1.51.151-.302zm5.209 3.095l2.567 1.586-.151.302-2.567-1.586.151-.302zm5.059 3.247l2.492 1.736-.151.302-2.492-1.736.151-.302zm4.983 3.549l2.341 1.812-.151.226-2.416-1.812.226-.226zm4.757 3.699l2.265 1.963-.151.227-2.341-1.963.227-.227zm4.53 3.926l2.265 2.039-.151.226-2.265-2.038.151-.227zm4.454 4.153l2.114 2.114-.151.151-2.114-2.114.151-.151zm4.228 4.303l2.038 2.265-.151.075-2.038-2.189.151-.151zm4.002 4.53l1.963 2.265-.151.151-1.963-2.341.151-.075zm3.85 4.681l1.812 2.34-.151.151-1.812-2.416.151-.075zm3.624 4.832l1.737 2.416-.151.151-1.737-2.492.151-.075zm3.398 4.983l1.585 2.492-.075.075-1.661-2.491.151-.076zm3.171 5.134l1.51 2.567-.151.075-1.51-2.567.151-.075zm2.944 5.209l1.434 2.718-.151.076-1.359-2.718.076-.076zm2.718 5.437l1.283 2.718-.075.075-1.284-2.793h.076zm2.491 5.511l1.133 2.793h-.076l-1.132-2.793h.075zm2.191 5.587l1.057 2.869h-.076l-1.057-2.793.076-.076zm2.038 5.738l.83 2.869h-.075l-.907-2.869h.152zm1.661 5.738l.755 2.945-.831-2.869.076-.076zm1.51 5.889l.604 2.945h-.076l-.604-2.945h.076zm1.132 5.889l.529 3.02h-.076l-.453-3.02zm.981 5.964l.378 3.02h-.076l-.377-3.02h.075zm.68 6.041l.227 3.02h-.076l-.226-3.02h.075zm.378 6.039l.075 3.02-.075-3.02z" fill="#E8E8E8"/><path d="M195.41 226.107c10.508 0 19.026-8.518 19.026-19.026s-8.518-19.026-19.026-19.026-19.026 8.518-19.026 19.026 8.518 19.026 19.026 19.026z" fill="#fff" stroke="#DFF7BF" stroke-miterlimit="10"/><path d="M470.004 170.161s-2.492 6.04 0 8.532c2.491 2.567.528 6.342.755 7.323.226.982 2.038 5.361 7.474 7.248 5.436 1.888 6.644 7.022 6.644 7.022s11.552 5.209 11.25-.529c-.302-5.738-5.21-19.63-5.21-19.63l-11.023-11.098-9.89 1.132zm4.228 116.045l7.927 5.285s-14.42 2.718-29.596-.755c-15.175-3.398-30.804-14.345-30.804-14.345l52.473 9.815z" fill="#000"/><path d="M477.403 279.863l-35.107 71.046 35.56 64.779s-6.493 8.456-20.913 1.284l-37.826-62.062 10.193-83.729s18.195-9.664 48.093 8.682z" fill="#56D0ED"/><path d="M484.5 195.756s-12.004-25.368-48.395-2.718l-10.721 79.351s31.257-.151 56.776 19.177l2.34-95.81z" fill="#FBE54B"/><path d="M471.363 195.378s-30.351 8.003-35.712 26.425c0 0 2.19 11.703 13.439 14.044" fill="url(#paint0_linear)"/><path d="M402.356 441.962H259.207c-8.078 0-14.722-6.644-14.722-14.722V120.105c0-8.079 6.644-14.723 14.722-14.723h143.224c8.079 0 14.723 6.644 14.723 14.723V427.24c0 8.078-6.644 14.722-14.798 14.722z" fill="#fff" stroke="#DDD" stroke-miterlimit="10"/><path d="M479.593 252.231s-14.421 2.189-27.029-1.208c-12.533-3.473 11.4-10.721 11.4-10.721l15.629 11.929z" fill="url(#paint1_linear)"/><path d="M406.282 387.225H254.753c-3.473 0-6.342-2.869-6.342-6.342V130.675c0-3.473 2.869-6.342 6.342-6.342h151.529c3.473 0 6.342 2.869 6.342 6.342v250.208c0 3.473-2.869 6.342-6.342 6.342z" fill="#CECECE"/><path d="M376.157 429.429c6.88 0 12.458-5.577 12.458-12.457 0-6.88-5.578-12.458-12.458-12.458s-12.457 5.578-12.457 12.458 5.577 12.457 12.457 12.457z" fill="#C8E8A3"/><path d="M287.823 429.429c6.88 0 12.457-5.577 12.457-12.457 0-6.88-5.577-12.458-12.457-12.458-6.88 0-12.458 5.578-12.458 12.458s5.578 12.457 12.458 12.457z" fill="#DC4541"/><path d="M195.41 219.539c6.88 0 12.457-5.578 12.457-12.458s-5.577-12.457-12.457-12.457c-6.88 0-12.458 5.577-12.458 12.457 0 6.88 5.578 12.458 12.458 12.458z" fill="#769945"/><path d="M330.781 422.559a2.794 2.794 0 100-5.588 2.794 2.794 0 000 5.588z" fill="#E8E8E8"/><path d="M412.549 121.011H248.411v6.946h164.138v-6.946z" fill="#B7B7B7"/><path d="M408.472 399.909l-152.964-13.137c-2.869-.227-4.907-2.416-4.681-4.832l30.653-252.775c.302-2.416 2.869-4.152 5.738-3.926l152.964 13.137c2.869.227 4.907 2.416 4.681 4.832L414.21 395.983c-.302 2.416-2.869 4.152-5.738 3.926z" fill="#E8E8E8"/><path d="M315.682 243.095c3.02-5.965 7.021-11.401 11.4-16.384 4.379-4.983 9.362-9.588 14.723-13.665 5.436-4.002 11.249-7.475 17.591-9.966 3.171-1.284 6.418-2.19 9.664-2.945 1.661-.302 3.322-.604 4.983-.755 1.661-.226 3.322-.226 4.983-.226-3.171 1.057-6.266 2.114-9.211 3.397-2.944 1.284-5.889 2.643-8.682 4.228-5.663 3.02-11.023 6.569-16.157 10.419-5.134 3.851-10.117 8.003-14.949 12.307a789.825 789.825 0 00-14.345 13.59zm16.685 1.736c2.039-4.681 4.983-8.834 8.23-12.684a65.977 65.977 0 0111.098-10.419c4.077-3.02 8.607-5.587 13.439-7.399a43.081 43.081 0 017.399-2.039c1.284-.151 2.567-.377 3.851-.453a32.967 32.967 0 013.85 0c-2.34.982-4.681 1.812-6.87 2.869-2.19 1.057-4.379 2.114-6.418 3.322-4.152 2.341-8.154 5.059-12.004 7.928a181.536 181.536 0 00-11.325 9.135c-3.775 3.096-7.399 6.342-11.25 9.74z" fill="#fff"/><path d="M358.792 113.989h-55.946c-.302 0-.604-.302-.604-.604s.302-.604.604-.604h55.946c.302 0 .604.302.604.604s-.302.604-.604.604zm7.853.529a1.132 1.132 0 100-2.265 1.132 1.132 0 000 2.265z" fill="#CECECE"/><path d="M479.895 180.053c5.462 0 9.89-4.429 9.89-9.891s-4.428-9.891-9.89-9.891c-5.462 0-9.891 4.429-9.891 9.891s4.429 9.891 9.891 9.891z" fill="#EAB07D"/><path d="M478.234 193.265s-26.576 5.285-38.279 28.69c0 0 36.391 5.964 42.96 28.388-.076 0 27.557-57.078-4.681-57.078z" fill="#FFED80"/><path d="M483.435 251.07c2.238-3.32-5.646-12.548-17.609-20.613-11.964-8.065-23.476-11.912-25.713-8.593-2.238 3.319 5.646 12.548 17.609 20.613 11.963 8.065 23.476 11.912 25.713 8.593z" fill="#000"/><path d="M454.979 228.297l-17.063 22.046-30.653-23.254-4.756 5.285 33.371 35.409s1.887 1.812 6.266 0 26.728-30.124 26.728-30.124-3.02-9.362-13.893-9.362z" fill="#EAB07D"/><path d="M402.583 234.639c7.339 0 13.288-5.949 13.288-13.288s-5.949-13.288-13.288-13.288-13.288 5.949-13.288 13.288 5.949 13.288 13.288 13.288z" fill="#E0A66C"/><path d="M406.131 214.254c-2.114.755-4.454-.378-5.209-2.492l-7.928-22.046c-.755-2.114.378-4.454 2.492-5.209 2.114-.755 4.454.377 5.209 2.491l7.928 22.046c.679 2.19-.378 4.455-2.492 5.21z" fill="#E0A66C"/><path d="M412.322 428.146l47.112-20.838 14.798 9.513 3.548-1.133 4.153 17.063-65.081 4.53c.151.076-2.341-6.568-4.53-9.135z" fill="#F95F8F"/><path d="M482.084 432.751l7.701 9.136-91.582 1.434c-1.736 0-3.322-1.132-3.699-2.869l-.453-2.038s-3.02-3.7 8.456-10.495c11.476-6.795 14.496 9.287 14.496 9.287l65.081-4.455z" fill="#fff" stroke="#231F20" stroke-miterlimit="10"/><path d="M416.7 439.848c5.285-.378 10.57-.68 15.855-.982l15.855-.83 15.855-.604 7.928-.227c2.642-.075 5.285-.151 7.927-.151-2.642.227-5.285.378-7.927.529l-7.928.453-15.855.83-15.855.604c-5.285.151-10.57.302-15.855.378z" fill="#231F20"/><path d="M417.304 429.051c3.7-1.736 7.399-3.397 11.099-5.134 3.699-1.661 7.474-3.246 11.174-4.907 3.775-1.586 7.474-3.171 11.249-4.757l5.663-2.34 5.662-2.265c-1.812.906-3.699 1.736-5.511 2.567l-5.587 2.491c-3.7 1.661-7.475 3.247-11.174 4.908-3.775 1.585-7.475 3.171-11.25 4.756-3.775 1.661-7.55 3.171-11.325 4.681z" fill="#000"/><path d="M429.612 427.994l-1.661.831c-.906.453-2.039.075-2.416-.831l-2.567-5.285c-.453-.906-.076-2.038.83-2.416l1.661-.83c.906-.453 2.039-.076 2.416.83l2.567 5.285c.453.831.076 1.963-.83 2.416z" fill="#fff"/><path d="M429.611 427.994l-1.51.755a1.837 1.837 0 01-1.661.151c-.302-.075-.528-.226-.755-.453-.226-.226-.377-.453-.453-.755l-.83-1.51-1.586-2.944c-.151-.227-.302-.453-.377-.831-.076-.302-.151-.679-.076-.981.151-.68.529-1.284 1.208-1.586l1.51-.755a2.346 2.346 0 011.888-.151c.302.151.604.302.83.529.227.226.378.528.453.83l.68 1.51 1.359 3.096c.075.226.226.528.302.755.075.302.075.604 0 .83-.076.755-.453 1.208-.982 1.51zm0 0c.529-.226.906-.755.982-1.283.075-.302 0-.529-.076-.831a3.524 3.524 0 00-.377-.755l-1.586-2.944-.83-1.51c-.151-.227-.227-.453-.453-.604a1.656 1.656 0 00-.604-.378c-.453-.151-.906-.075-1.359.151l-1.51.755c-.378.227-.68.604-.755 1.057a1.043 1.043 0 000 .68c.075.226.151.453.302.679l1.359 3.096.679 1.51c.227.528.529.981 1.057 1.208.529.226 1.133.151 1.586-.076l1.585-.755z" fill="#000"/><path d="M437.011 424.371l-1.661.831c-.906.453-2.039.075-2.416-.831l-2.567-5.285c-.453-.906-.076-2.038.83-2.416l1.661-.83c.906-.453 2.039-.076 2.416.83l2.567 5.285c.453.831.076 1.963-.83 2.416z" fill="#fff"/><path d="M437.01 424.371l-1.51.755a1.84 1.84 0 01-1.661.151c-.302-.076-.528-.227-.755-.453-.226-.227-.377-.453-.453-.755l-.83-1.51-1.586-2.945c-.151-.226-.302-.453-.377-.83-.076-.302-.151-.68-.076-.982.151-.679.529-1.283 1.208-1.585l1.51-.755a2.342 2.342 0 011.888-.151c.302.151.604.302.83.528.227.227.378.529.453.831l.68 1.51 1.359 3.095c.075.227.226.529.302.755.075.302.075.604 0 .831-.076.755-.453 1.208-.982 1.51zm0 0c.529-.227.906-.755.982-1.284.075-.302 0-.528-.076-.83a3.478 3.478 0 00-.377-.755l-1.586-2.945-.83-1.51c-.151-.226-.227-.453-.453-.604a1.64 1.64 0 00-.604-.377c-.453-.151-.906-.076-1.359.151l-1.51.755c-.378.226-.68.604-.755 1.057a1.04 1.04 0 000 .679c.075.227.151.453.302.68l1.359 3.095.679 1.51c.227.529.529.982 1.057 1.208.529.227 1.133.151 1.586-.075l1.585-.755z" fill="#000"/><path d="M445.013 421.275l-1.661.831c-.906.453-2.039.075-2.416-.831l-2.567-5.285c-.453-.906-.076-2.038.83-2.416l1.661-.83c.906-.453 2.039-.076 2.416.83l2.567 5.285c.453.906.076 2.039-.83 2.416z" fill="#fff"/><path d="M445.013 421.275l-1.51.755a1.837 1.837 0 01-1.661.151c-.302-.075-.528-.226-.755-.453-.226-.226-.377-.453-.453-.755l-.83-1.51-1.586-2.944c-.151-.227-.302-.453-.377-.831-.076-.302-.151-.679-.076-.981.151-.68.529-1.284 1.208-1.586l1.51-.755a2.346 2.346 0 011.888-.151c.302.151.604.302.83.529.227.226.378.528.453.83l.68 1.51 1.359 3.096c.075.226.226.528.302.755.075.302.075.604 0 .83-.076.831-.453 1.284-.982 1.51zm0 0c.529-.226.906-.755.982-1.283.075-.302 0-.529-.076-.831a3.524 3.524 0 00-.377-.755l-1.586-2.944-.83-1.51c-.151-.227-.227-.453-.453-.604a1.656 1.656 0 00-.604-.378c-.453-.151-.906-.075-1.359.151l-1.51.755c-.378.227-.68.604-.755 1.057a1.043 1.043 0 000 .68c.075.226.151.453.302.679l1.359 3.096.679 1.51c.227.528.529.981 1.057 1.208.529.226 1.133.151 1.586-.076l1.585-.755z" fill="#000"/><path d="M453.092 417.349l-1.661.83c-.906.453-2.039.076-2.416-.83l-2.567-5.285c-.453-.906-.076-2.039.83-2.416l1.661-.831c.906-.453 2.039-.075 2.416.831l2.567 5.285c.453.83.076 1.963-.83 2.416z" fill="#fff"/><path d="M453.092 417.349l-1.51.755a1.84 1.84 0 01-1.661.151c-.302-.076-.529-.227-.755-.453-.227-.227-.378-.453-.453-.755l-.831-1.51-1.585-2.945c-.151-.226-.302-.453-.378-.83-.075-.302-.151-.68-.075-.982.151-.679.528-1.283 1.208-1.585l1.51-.755a2.34 2.34 0 011.887-.151c.302.151.604.302.831.528.226.227.377.529.453.831l.679 1.51 1.359 3.095c.076.227.227.529.302.755.076.302.076.604 0 .831-.075.755-.453 1.283-.981 1.51zm0 0c.528-.227.906-.755.981-1.284.076-.302 0-.528-.075-.83a3.53 3.53 0 00-.378-.755l-1.585-2.945-.831-1.51c-.151-.226-.226-.453-.453-.604a1.632 1.632 0 00-.604-.377c-.453-.151-.906-.076-1.359.151l-1.51.755c-.377.226-.679.604-.755 1.057a1.053 1.053 0 000 .679c.076.227.151.453.302.68l1.359 3.095.68 1.51c.226.529.528.982 1.057 1.208.528.227 1.132.151 1.585-.075l1.586-.755zm-36.089 20.007c.227.982.227 1.963.227 2.869a12.795 12.795 0 01-.529 2.869c-.226-.981-.226-1.963-.226-2.869.075-.981.226-1.963.528-2.869z" fill="#000"/><path d="M396.089 438.489a89.927 89.927 0 018.985-.679c3.02-.076 6.04-.151 9.06.075-3.02.378-5.965.604-8.985.68-3.02.151-6.04.151-9.06-.076z" fill="#231F20"/><path d="M442.069 435.167l-4.153-9.739 8.532-3.096 6.115 12.005-10.494.83z" stroke="#000" stroke-width=".5" stroke-miterlimit="10"/><path opacity=".25" d="M462.227 413.499c.906.378 1.737.831 2.643 1.359.83.529 1.661 1.057 2.416 1.586 1.585 1.132 3.095 2.265 4.53 3.624l-.453-.076c.679-.075 1.283-.151 1.963-.226.679-.076 1.283-.076 1.963-.076-.604.302-1.208.529-1.812.831-.604.226-1.208.453-1.888.679l-.226.076-.302-.151c-1.661-1.057-3.247-2.19-4.681-3.398a27.053 27.053 0 01-2.19-1.963c-.604-.83-1.283-1.51-1.963-2.265z" fill="url(#paint2_linear)"/><path opacity=".25" d="M448.486 421.049a118.622 118.622 0 013.322 5.134c1.057 1.736 2.114 3.473 3.096 5.209l-.68-.377c1.888-.227 3.851-.378 5.738-.529 1.888-.151 3.851-.302 5.738-.377 1.888-.076 3.851-.151 5.814-.227a75.12 75.12 0 015.813 0c-1.887.378-3.85.604-5.738.906-1.887.227-3.85.453-5.738.68-1.887.226-3.85.377-5.738.528-1.887.151-3.85.302-5.738.378h-.453l-.226-.378-2.718-5.436c-.906-1.736-1.737-3.624-2.492-5.511z" fill="url(#paint3_linear)"/><path d="M413.455 225.503l13.892-17.591a1.044 1.044 0 00-.68-1.661l-15.251-2.718c-.83-.151-1.51.755-1.132 1.51l.453.981a4.087 4.087 0 002.718 2.265l3.699 1.057c.755.227 1.057 1.133.529 1.737l-5.134 5.738c-.151.226-.302.453-.227.755l-.755 7.399c.151.906 1.359 1.283 1.888.528z" fill="#E0A66C"/><path d="M398.505 189.716l-2.265.679c-1.057.302-2.114-.226-2.416-1.283-.302-1.057.227-2.114 1.284-2.416l2.265-.68c1.057-.302 2.114.227 2.416 1.284.302 1.057-.227 2.114-1.284 2.416zm12.76 14.798c-.075.302 0 .755.378 1.133.075.075.226.151.302.151l1.585.151c.302 0 .604-.151.68-.453l.075-.453c.076-.302-.151-.68-.528-.68l-1.812-.302c-.302-.075-.604.151-.68.453z" fill="#E8E8E8"/><path d="M472.042 164.122l4.153-2.039s.604 7.173 4.757 9.287l-.453 2.944s2.34-5.209 4.001-4.907c1.661.302 2.416 2.793 1.133 3.85-1.284 1.057-3.02 1.888-3.02 1.888s-6.191 7.021 3.699 10.117c9.891 3.095 5.059 6.342 5.059 9.966 0 3.548 14.269 11.098 14.571.906.302-10.193-16.685-20.083-16.081-24.84.604-4.756-3.624-11.627-10.948-10.796-.075-.151-4.153.377-6.871 3.624z" fill="#000"/><path d="M473.854 178.089l-2.491 8.38s1.057 2.794 3.699 2.718l2.794-9.211c.075-.075-3.171-1.208-4.002-1.887z" fill="#EAB07D"/><path d="M476.178 169.293c.314-1.211.077-2.32-.528-2.477-.606-.156-1.351.698-1.664 1.909-.314 1.211-.077 2.32.528 2.477.606.157 1.351-.698 1.664-1.909zm-3.859-.58c.261-1.009.08-1.929-.405-2.054-.484-.126-1.088.591-1.35 1.6-.261 1.009-.08 1.929.404 2.054.485.126 1.089-.591 1.351-1.6z" fill="#fff" stroke="#000" stroke-width=".5" stroke-miterlimit="10"/><path d="M489.861 170.161c-.076.755.151 1.435.453 2.039.302.604.679 1.283 1.132 1.812a16.282 16.282 0 003.096 2.944c1.132.831 2.265 1.661 3.548 2.416 1.208.755 2.492 1.435 3.624 2.341 2.265 1.812 4.228 4.001 5.436 6.644.604 1.283.982 2.718.982 4.228 0 .755-.151 1.434-.529 2.114-.151.302-.453.604-.755.83-.302.227-.679.302-.981.378.377-.076.679-.227.981-.453.302-.227.529-.529.68-.831a3.788 3.788 0 00.377-2.038c0-1.435-.453-2.794-1.057-4.077-1.208-2.567-3.171-4.757-5.436-6.493-1.132-.906-2.34-1.586-3.548-2.341-.604-.377-1.208-.755-1.812-1.208-.604-.377-1.133-.83-1.737-1.283-1.132-.906-2.189-1.963-3.02-3.096-.453-.604-.83-1.208-1.057-1.887-.302-.604-.528-1.284-.377-2.039z" fill="#000"/><path d="M169.815 419.916s1.208-17.29-7.172-34.504l7.172 34.504z" fill="#C8E8A3"/><path d="M161.737 381.637c-.755 7.55 9.739-3.246 7.625 8.985-1.661 9.739-11.929 5.662-13.892 10.796 0 0-5.587-5.209-3.926-13.741 1.284-6.644 10.948-13.59 10.193-6.04z" fill="#C8E8A3"/><path d="M151.393 393.038c.377-2.492 1.283-5.059 3.322-6.644 1.132-.906 2.718-1.661 4.152-1.359.831.151 1.586.453 2.265.981.755.529 2.492 1.435 4.002 1.586 1.812.151 2.869-.227 4.454.906.529-8.758-8.682.226-7.927-6.795.755-7.55-8.909-.604-10.193 5.964-.302 1.963-.302 3.775-.075 5.361zm34.353 29.672s-4.681-30.955 5.587-75.198l-5.587 75.198z" fill="#C8E8A3"/><path d="M187.936 345.171c5.436 5.512-9.891 3.624-.453 12.08 7.55 6.795 13.137-3.02 17.969-.151 0 0 1.208-7.776-5.587-13.514-5.21-4.53-17.365-3.926-11.929 1.585z" fill="#C8E8A3"/><path d="M203.413 347.738c-1.888-1.736-4.228-3.246-6.871-3.246-1.434 0-3.171.377-4.228 1.51a5.51 5.51 0 00-1.208 2.265c-.226.906-1.132 2.718-2.265 3.775-1.283 1.283-2.416 1.585-3.02 3.624-5.964-6.644 7.022-5.361 2.039-10.495-5.436-5.511 6.719-6.115 11.929-1.661 1.661 1.359 2.793 2.794 3.624 4.228z" fill="#C8E8A3"/><path d="M182.877 412.064s-1.057-66.138 2.189-82.144l-2.189 82.144z" fill="#C8E8A3"/><path d="M184.689 325.39c-4.228 7.248 11.325 1.208 3.548 12.533-6.191 9.06-14.571.226-18.875 4.454 0 0-3.246-7.852 2.341-15.628 4.303-6.04 17.214-8.532 12.986-1.359z" fill="#C8E8A3"/><path d="M169.136 332.11c1.51-2.341 3.624-4.53 6.342-5.134 1.51-.378 3.473-.378 4.832.528a5.897 5.897 0 011.812 2.039c.528.906 1.887 2.567 3.322 3.397 1.736.982 2.944 1.057 4.077 3.02 4.454-8.531-8.758-3.775-4.832-10.494 4.228-7.173-8.683-4.681-12.986 1.359-1.284 1.736-2.114 3.548-2.567 5.285z" fill="#C8E8A3"/><path d="M177.592 411.914s-9.664-23.632-8.531-43.715l8.531 43.715z" fill="#A2C96F"/><path d="M170.42 365.858c-3.851 4.908 8.229 2.039 1.283 9.589-5.511 6.04-10.796-1.359-14.42 1.283 0 0-1.586-6.115 3.397-11.325 3.851-3.926 13.59-4.379 9.74.453z" fill="#A2C96F"/><path d="M158.264 369.181c1.359-1.586 3.171-2.945 5.21-3.171 1.132-.076 2.567.075 3.473.906.528.453.906 1.057 1.132 1.736.302.755 1.133 2.114 2.114 2.869 1.133.906 2.114 1.057 2.643 2.643 4.228-5.814-6.04-3.7-2.492-8.23 3.851-4.832-5.889-4.379-9.739-.378-1.057 1.133-1.812 2.417-2.341 3.625zm34.352 48.999s5.512-31.408-1.208-55.644l1.208 55.644z" fill="#A2C96F"/><path d="M190.427 365.405c3.926-3.775 2.491 7.021 8.531.302 4.757-5.361-2.114-9.287-.075-12.684 0 0-5.436-.831-9.589 3.926-3.246 3.699-2.793 12.306 1.133 8.456z" fill="#A2C96F"/><path d="M192.239 354.533c-1.208 1.283-2.265 3.02-2.265 4.832 0 1.057.302 2.265 1.057 2.944.453.378.981.68 1.585.831.68.151 1.963.83 2.643 1.585.906.906 1.132 1.737 2.567 2.114-4.757 4.153-3.775-4.983-7.399-1.434-3.926 3.775-4.304-4.757-1.133-8.456.906-1.057 1.888-1.888 2.945-2.416zm-9.438 64.477s-8.154-30.2-2.944-75.349l2.944 75.349z" fill="#A2C96F"/><path d="M176.535 337.772c-1.359 7.626 10.268-2.567 7.097 9.815-2.492 9.891-12.684 4.832-15.1 9.966 0 0-5.285-5.813-2.945-14.42 1.888-6.72 12.307-12.986 10.948-5.361z" fill="#A2C96F"/><path d="M165.059 348.568c.529-2.491 1.737-5.058 3.926-6.568 1.208-.831 2.869-1.435 4.379-1.057a5.498 5.498 0 012.265 1.208c.755.604 2.492 1.661 4.002 1.887 1.812.302 2.944 0 4.53 1.284 1.208-8.909-8.909-.453-7.55-7.626 1.434-7.625-9.06-1.359-10.872 5.285-.68 2.114-.831 4.002-.68 5.587zm21.215 67.649s3.247-5.36 0-41.751v41.751z" fill="#A2C96F"/><path d="M185.746 369.181c2.265 7.475-10.495-1.359-5.965 10.57 3.624 9.513 13.137 3.398 16.157 8.154 0 0 4.606-6.342 1.284-14.647-2.643-6.493-13.741-11.551-11.476-4.077z" fill="#A2C96F"/><path d="M198.354 378.618c-.83-2.416-2.265-4.832-4.605-6.04-1.284-.679-3.02-1.132-4.455-.604-.83.302-1.51.831-2.114 1.435-.679.679-2.265 1.887-3.775 2.34-1.736.529-2.944.302-4.303 1.812-2.19-8.682 8.758-1.51 6.644-8.456-2.265-7.474 8.833-2.34 11.4 4.077.831 1.963 1.133 3.775 1.208 5.436z" fill="#A2C96F"/><path d="M178.498 410.781s-6.04-18.724-2.945-44.394l2.945 44.394z" fill="#C8E8A3"/><path d="M172.458 367.595c3.699-4.228 3.171 6.946 8.682-.453 4.379-5.814-2.944-9.287-1.208-12.911 0 0-5.662-.377-9.437 4.832-2.869 4.077-1.737 12.76 1.963 8.532z" fill="#C8E8A3"/><path d="M173.364 356.27c-1.133 1.435-2.039 3.247-1.888 5.134.076 1.057.453 2.265 1.359 2.945a4.727 4.727 0 001.662.755c.679.151 2.038.679 2.868 1.359.982.83 1.284 1.661 2.794 1.963-4.454 4.681-4.228-4.757-7.701-.831-3.624 4.228-4.832-4.454-1.888-8.531.831-1.133 1.812-2.039 2.794-2.794z" fill="#C8E8A3"/><path d="M181.669 417.349s1.284-13.363.906-29.067l-.906 29.067z" fill="#A2C96F"/><path d="M184.312 385.035c-2.643 6.947 10.117-.604 4.983 10.495-4.077 8.834-12.76 2.341-15.931 6.72 0 0-4.001-6.343-.226-14.044 2.944-6.04 13.816-10.117 11.174-3.171z" fill="#A2C96F"/><path d="M171.628 393.19c.982-2.265 2.492-4.455 4.832-5.436 1.284-.529 2.945-.831 4.304-.227.755.378 1.359.831 1.887 1.51.604.755 2.039 1.963 3.398 2.492 1.661.604 2.793.528 4.001 2.038 2.718-8.154-8.229-2.038-5.738-8.456 2.643-6.946-8.305-2.869-11.174 3.096a17 17 0 00-1.51 4.983z" fill="#A2C96F"/><path d="M191.257 424.144s-3.246-16.988 3.02-35.184l-3.02 35.184z" fill="#C8E8A3"/><path d="M190.955 385.865c6.87 4.832-9.815 5.814 1.963 12.911 9.362 5.662 13.439-5.814 19.101-3.775 0 0-.302-8.456-8.607-13.288-6.493-3.7-19.252-.604-12.457 4.152z" fill="#C8E8A3"/><path d="M207.943 385.563c-2.341-1.51-5.21-2.567-7.928-2.038-1.51.302-3.322 1.057-4.152 2.491-.453.831-.755 1.661-.831 2.643-.075 1.057-.679 3.095-1.661 4.454-1.132 1.586-2.265 2.19-2.491 4.379-7.626-5.889 6.417-7.097.075-11.551-6.87-4.832 5.965-7.852 12.382-4.153a15.655 15.655 0 014.606 3.775zm-32.013 32.012s-8.305-24.613-5.587-39.939l5.587 39.939z" fill="#C8E8A3"/><path d="M170.268 374.993c.529 5.21-6.795-2.265-5.36 6.267 1.132 6.795 8.305 3.926 9.664 7.475 0 0 3.926-3.624 2.718-9.589-.831-4.606-7.55-9.438-7.022-4.153z" fill="#C8E8A3"/><path d="M177.441 382.922c-.227-1.737-.906-3.549-2.341-4.606-.755-.604-1.887-1.132-2.869-.981a3.003 3.003 0 00-1.585.679c-.529.378-1.737.982-2.794 1.057-1.208.151-1.963-.151-3.095.68-.378-6.116 6.04.151 5.511-4.757-.528-5.209 6.191-.453 7.097 4.153.302 1.359.302 2.642.076 3.775z" fill="#C8E8A3"/><path d="M163.398 403.684s-4.304 16.384 1.963 29.898c2.567 5.663 11.551 6.72 16.006 6.72 4.605 0 11.476-1.737 13.967-4.832 8.909-10.797 3.851-31.71 3.851-31.71l-35.787-.076z" fill="#F95F8F"/><path opacity=".25" d="M199.26 403.834h-5.058c-1.661 15.478-11.401 32.164-27.633 31.635 3.548 4.002 10.872 4.832 14.798 4.832 4.605 0 11.476-1.736 13.967-4.832 8.909-10.721 3.926-31.635 3.926-31.635z" fill="url(#paint4_linear)"/><path d="M192.918 439.773c0 1.208-.755 2.19-1.736 2.19h-20.008c-.981 0-1.736-.982-1.736-2.19v-.604c0-1.208.755-2.19 1.736-2.19h20.008c.981 0 1.736.982 1.736 2.19v.604z" fill="#52183E"/><path d="M483.141 197.04s-24.915 15.251-25.519 24.311c0 0-7.852-3.926-12.835-3.473.076 0 14.496-21.895 38.354-20.838z" fill="url(#paint5_linear)"/><path d="M462.756 184.809c-1.133.83-2.265 1.585-3.398 2.491-1.132.831-2.265 1.661-3.322 2.567a109.998 109.998 0 00-6.342 5.436 73.363 73.363 0 00-5.813 6.04c-.906 1.057-1.812 2.114-2.567 3.322-.906 1.133-1.586 2.341-2.341 3.473 1.208-2.567 2.718-4.907 4.455-7.172 1.736-2.19 3.699-4.228 5.738-6.191 2.114-1.888 4.228-3.7 6.493-5.361 2.34-1.661 4.681-3.246 7.097-4.605z" fill="url(#paint6_linear)"/><path d="M449.091 235.847l-11.476 9.437-4.757-3.322-.528 4.153 5.587 4.228 11.174-14.496z" fill="url(#paint7_linear)"/><path d="M468.872 185.262c.227.906.529 1.812.982 2.642.453.831.981 1.51 1.736 1.963.076.076.151.151.302.151l.302.151c.227.076.378.151.604.227.227 0 .453.075.68.151h.679c.453 0 .906-.076 1.359-.151.453-.076.906-.227 1.435-.302-.453.226-.831.453-1.284.679-.453.151-.906.302-1.434.378-.982.151-2.039 0-2.945-.529-.906-.528-1.51-1.434-1.887-2.34-.453-1.057-.604-2.114-.529-3.02z" fill="url(#paint8_linear)"/><path d="M459.812 222.332a47.987 47.987 0 016.87 3.322c2.19 1.208 4.379 2.643 6.418 4.153 2.038 1.51 4.001 3.171 5.738 4.983 1.812 1.812 3.397 3.85 4.756 5.964-.83-.981-1.585-1.963-2.491-2.869-.453-.453-.831-.906-1.284-1.359l-1.359-1.283c-1.887-1.661-3.775-3.322-5.813-4.832-2.039-1.51-4.077-2.945-6.267-4.228-1.057-.68-2.114-1.359-3.246-1.963-1.057-.68-2.19-1.284-3.322-1.888z" fill="url(#paint9_linear)"/><path opacity=".64" d="M474.232 286.205s-32.163-8.078-46.659-.604l1.586-13.137c0 .076 25.141 1.661 45.073 13.741z" fill="url(#paint10_linear)"/><path d="M448.562 286.206l-4.53 16.685-4.606 16.686-9.362 33.371-.377-.453h6.115l-.528.604-5.361 5.964-.226-.604h3.624l.075.151 12.911 21.744a2065.53 2065.53 0 0112.759 21.82c-4.379-7.173-8.833-14.345-13.137-21.593a3290.61 3290.61 0 01-13.061-21.593l.302.151h-4.153l.529-.604 5.285-5.965.302.604h-5.814l.151-.453 9.513-33.295 4.832-16.61 4.757-16.61zm-12.911 0c-.151.604-.151 1.283-.075 1.887 0 .604.151 1.284.302 1.888.377 1.208.906 2.34 1.661 3.397.679 1.057 1.51 2.039 2.416 2.945l1.359 1.359c.453.453.981.83 1.434 1.359-.604-.302-1.132-.68-1.661-1.057-.528-.378-1.057-.831-1.585-1.208-.453-.453-.982-.906-1.435-1.435-.453-.528-.83-.981-1.208-1.585-.755-1.133-1.359-2.341-1.585-3.7-.227-1.208-.151-2.642.377-3.85z" fill="#fff"/><path opacity=".39" d="M473.855 178.089s2.643 1.963 4.002 1.812l-5.587 3.473 1.585-5.285z" fill="url(#paint11_linear)"/><path d="M485.029 171.143c-.529.227-1.057.453-1.51.755-.227.151-.378.378-.604.529-.227.226-.302.453-.529.679 0-.302.076-.604.227-.83a1.78 1.78 0 01.604-.68c.604-.302 1.208-.528 1.812-.453z" fill="url(#paint12_linear)"/><path d="M483.519 171.747c.226-.151.453-.151.679-.151.151 0 .227.076.302.151.076.151.076.227 0 .378-.075-.227-.151-.302-.377-.378-.151 0-.378.076-.604 0z" fill="url(#paint13_linear)"/><path d="M482.462 175.824c-.68.982-1.133 2.114-1.133 3.247 0 1.132.453 2.265 1.133 3.171 1.51 1.812 3.775 2.718 5.662 4.077.982.679 1.963 1.359 2.869 2.114a13.41 13.41 0 012.416 2.642 12.49 12.49 0 011.586 3.171c.302 1.133.528 2.341.528 3.473-.226-2.34-.906-4.681-2.34-6.568-1.435-1.888-3.322-3.322-5.285-4.606a40.92 40.92 0 00-3.02-1.887c-.982-.604-1.963-1.359-2.718-2.341-.755-.981-1.208-2.189-1.133-3.397.227-.982.755-2.114 1.435-3.096z" fill="url(#paint14_linear)"/><path d="M489.861 171.143c-.679 1.133-1.132 2.416-1.208 3.7 0 .679.076 1.283.378 1.887a2.963 2.963 0 001.359 1.359c2.189 1.359 4.832 2.19 6.87 4.002.982.906 1.812 2.038 2.265 3.322.453 1.283.453 2.642.453 4.001-.075 2.643-.604 5.436-2.189 7.55.755-1.057 1.208-2.34 1.51-3.624a16.92 16.92 0 00.453-3.926c0-1.283-.076-2.642-.453-3.85-.378-1.208-1.208-2.341-2.19-3.171-.981-.906-2.114-1.51-3.246-2.19-1.133-.604-2.416-1.132-3.549-1.887-.528-.378-1.057-.906-1.359-1.51-.302-.604-.377-1.284-.302-1.963-.075-1.359.453-2.567 1.208-3.7z" fill="url(#paint15_linear)"/><path d="M195.41 222.634c8.59 0 15.553-6.963 15.553-15.553 0-8.589-6.963-15.553-15.553-15.553s-15.553 6.964-15.553 15.553c0 8.59 6.963 15.553 15.553 15.553z" stroke="#B4D38C" stroke-miterlimit="10"/><path d="M193.07 302.362c10.507 0 19.026-8.518 19.026-19.026s-8.519-19.026-19.026-19.026c-10.508 0-19.027 8.518-19.027 19.026s8.519 19.026 19.027 19.026z" fill="#fff" stroke="#FFC7C7" stroke-miterlimit="10"/><path d="M193.069 295.794c6.88 0 12.458-5.577 12.458-12.457 0-6.88-5.578-12.458-12.458-12.458s-12.457 5.578-12.457 12.458 5.577 12.457 12.457 12.457z" fill="#DC4541"/><path d="M193.07 298.889c8.589 0 15.553-6.963 15.553-15.553 0-8.589-6.964-15.553-15.553-15.553-8.59 0-15.553 6.964-15.553 15.553 0 8.59 6.963 15.553 15.553 15.553z" stroke="#DC4541" stroke-miterlimit="10"/><path d="M188.992 207.534c.529.755.982 1.51 1.435 2.265l1.359 2.265-.453-.075c1.661-1.737 3.322-3.473 5.058-5.134.831-.831 1.737-1.661 2.643-2.492.906-.83 1.812-1.585 2.718-2.416-.755.906-1.586 1.812-2.416 2.718-.831.906-1.661 1.737-2.492 2.643-1.661 1.736-3.397 3.397-5.134 5.058l-.302.302-.151-.377-1.208-2.416c-.302-.755-.679-1.51-1.057-2.341zm-1.359 70.668c1.888 1.51 3.7 3.171 5.436 4.908 1.737 1.736 3.398 3.473 4.908 5.436-1.888-1.51-3.7-3.171-5.436-4.908-1.737-1.736-3.398-3.548-4.908-5.436z" fill="#fff"/><path d="M198.43 277.976c-1.51 1.887-3.171 3.699-4.908 5.436-1.736 1.736-3.473 3.397-5.436 4.907 1.51-1.887 3.171-3.699 4.908-5.436 1.736-1.736 3.473-3.397 5.436-4.907z" fill="#fff"/><path d="M598.656 434.111c2.492-1.435 5.285-2.567 8.305-3.322 6.871-1.661 14.723-1.359 23.33.83 22.121 5.587 30.728-3.624 43.865-17.667 8.079-8.607 18.121-19.404 34.127-28.917 11.778-7.021 29.143-14.194 45.073-8.758 9.513 3.322 14.043 9.664 14.119 9.74.075.151.075.377-.076.453-.151.075-.377.075-.453-.076-.075-.075-4.454-6.342-13.816-9.513-15.629-5.36-32.767 1.737-44.47 8.683-15.93 9.437-25.896 20.158-33.975 28.766-12.76 13.665-22.046 23.556-44.545 17.818-8.532-2.19-16.308-2.416-23.028-.831-6.417 1.51-11.627 4.832-15.1 9.513-8.229 10.948-6.493 28.011 4.681 46.81.076.151.076.378-.151.453-.226.076-.377.076-.453-.151-11.325-19.026-13.061-36.391-4.681-47.565 1.963-2.416 4.379-4.605 7.248-6.266z" fill="#BCBCBC"/><path d="M647.958 414.481a6.039 6.039 0 018.456-.076c2.341 2.341 6.116 2.265 8.456-.076a6.04 6.04 0 018.456-.075c2.341 2.34 6.116 2.265 8.456-.075a6.039 6.039 0 018.456-.076" stroke="#000" stroke-width="1.75" stroke-miterlimit="10" stroke-linecap="round"/><path d="M723.836 191.83c-4.379 1.812-8.456 2.567-12.382 2.341-10.117-.68-18.346-8.607-24.537-23.481-7.702-18.497-18.045-30.728-31.56-37.221-11.627-5.663-23.556-6.116-34.05-6.569-14.345-.604-25.595-1.132-27.709-15.024-.83-5.663.151-10.344 3.171-14.195 8.154-10.645 29.219-13.061 53.605-15.93 33.371-3.926 71.122-8.305 82.447-35.787l.83.377c-11.551 27.935-49.528 32.39-83.126 36.24-23.178 2.718-45.073 5.21-53.001 15.553-2.793 3.625-3.775 8.079-2.944 13.515 1.963 13.213 12.382 13.666 26.802 14.27 20.612.906 48.773 2.114 66.365 44.394 6.04 14.571 14.043 22.272 23.783 22.876 28.992 1.963 64.854-58.814 65.232-59.418l.755.453c-.076.151-9.136 15.628-21.744 30.653-11.627 13.967-22.273 22.952-31.937 26.953z" fill="#BCBCBC"/><path d="M666.909 188.282c-2.19 0-4.002-1.812-4.002-4.002 0-2.189 1.812-4.001 4.002-4.001 11.778 0 21.366-9.589 21.366-21.367 0-2.189 1.812-4.001 4.002-4.001 2.189 0 4.001 1.812 4.001 4.001 0 16.233-13.212 29.37-29.369 29.37zm25.368-32.465a3.19 3.19 0 00-3.171 3.171c0 12.155-9.891 22.121-22.122 22.121a3.19 3.19 0 00-3.171 3.171 3.19 3.19 0 003.171 3.171c15.704 0 28.539-12.759 28.539-28.539-.075-1.661-1.51-3.095-3.246-3.095z" fill="#000"/><path d="M692.277 162.989c-2.19 0-4.002-1.812-4.002-4.001 0-2.19 1.812-4.002 4.002-4.002 2.189 0 4.001 1.812 4.001 4.002 0 2.189-1.812 4.001-4.001 4.001zm0-7.172a3.19 3.19 0 00-3.171 3.171 3.19 3.19 0 003.171 3.171 3.19 3.19 0 003.171-3.171 3.19 3.19 0 00-3.171-3.171z" fill="#000"/><path d="M662.908 185.488c-16.535 0-30.05-13.439-30.05-30.049 0-16.534 13.439-30.049 30.05-30.049 16.534 0 30.049 13.439 30.049 30.049 0 .906-.076 1.888-.151 2.794 0 .226-.227.377-.453.377-.227 0-.378-.226-.378-.453.076-.906.151-1.812.151-2.718 0-16.157-13.137-29.218-29.218-29.218-16.158 0-29.219 13.137-29.219 29.218 0 16.082 13.137 29.219 29.219 29.219h.452c.227 0 .378.151.378.377 0 .227-.151.378-.378.378-.151.075-.301.075-.452.075z" fill="#000"/><path d="M94.768 402.023c-3.775-2.265-8.078-4.002-12.684-5.059-10.494-2.491-22.499-2.114-35.711 1.284-33.824 8.607-47.037-5.587-67.044-26.954-12.383-13.212-27.71-29.671-52.247-44.243-18.044-10.721-44.62-21.744-68.931-13.364-14.572 5.059-21.518 14.874-21.593 14.95-.151.226-.076.528.151.755.226.151.528.075.755-.151.075-.076 6.87-9.665 21.14-14.572 23.933-8.23 50.207 2.718 67.95 13.288 24.31 14.496 39.637 30.88 52.02 44.017 19.554 20.913 33.673 36.013 68.1 27.255 13.062-3.322 24.916-3.699 35.184-1.283 9.815 2.34 17.818 7.399 23.103 14.496 12.533 16.761 9.89 42.884-7.173 71.649-.15.227-.075.604.151.68.227.151.604.075.68-.151 17.365-29.143 19.932-55.644 7.097-72.782-2.945-3.926-6.644-7.173-10.948-9.815z" fill="#BCBCBC"/><path d="M-37.206 362.536c2.416 2.416 6.418 2.492 8.834.076 2.416-2.416 6.341-2.416 8.833.075 2.416 2.416 6.418 2.492 8.834.076 2.416-2.416 6.342-2.416 8.833.075 2.416 2.416 6.418 2.492 8.834.076" stroke="#000" stroke-width="1.75" stroke-miterlimit="10" stroke-linecap="round"/><path d="M16.928 102.212c0-2.114-.227-4.304-.755-6.418-1.284-5.36-4.077-10.645-8.305-15.78C.544 71.258-10.328 64.312-10.48 64.236l-.15.302c.075.076 10.947 7.022 18.195 15.704 4.228 5.059 7.021 10.344 8.23 15.629 1.51 6.644.679 13.288-2.643 19.856-5.738 11.552-15.629 13.666-25.142 15.705-7.097 1.51-14.42 3.095-19.932 8.607-6.115 6.115-9.21 16.61-9.513 32.087-1.057 57.229-25.519 57.229-41.752 57.229v.302c16.309 0 40.997 0 42.054-57.606.302-15.402 3.398-25.821 9.438-31.861 5.436-5.436 12.684-7.022 19.78-8.532 9.59-2.038 19.555-4.228 25.369-15.855 2.34-4.455 3.473-8.985 3.473-13.59z" fill="#BCBCBC"/><path d="M-10.403 64.16c.076.075 11.023 7.097 18.347 15.779 4.303 5.134 7.097 10.495 8.38 15.855.529 2.114.755 4.304.755 6.418 0 4.605-1.132 9.211-3.397 13.665-5.89 11.703-15.855 13.892-25.444 15.931-7.021 1.51-14.345 3.095-19.705 8.456-6.04 6.04-9.136 16.459-9.362 31.785-1.057 57.682-25.821 57.682-42.205 57.682h-.151v-.604h.15c16.158 0 40.544 0 41.602-57.153.302-15.478 3.397-26.048 9.588-32.163 5.512-5.512 12.835-7.097 20.008-8.607 9.513-2.039 19.328-4.153 25.066-15.629 3.246-6.493 4.152-13.137 2.567-19.78-1.208-5.286-4.002-10.496-8.23-15.63-7.323-8.531-18.12-15.477-18.27-15.553l-.076-.075.302-.453.075.075zM7.642 80.164c4.228 5.134 7.021 10.42 8.305 15.705 1.585 6.644.68 13.363-2.643 19.932C7.491 127.352-2.4 129.542-11.913 131.58c-7.097 1.51-14.42 3.096-19.856 8.607-6.116 6.116-9.211 16.61-9.513 32.012-1.058 57.229-25.52 57.38-41.752 57.38v.076c16.308 0 40.77-.151 41.827-57.456.302-15.402 3.398-25.896 9.438-31.936 5.436-5.436 12.76-7.022 19.856-8.532 9.589-2.038 19.48-4.228 25.293-15.855 2.265-4.454 3.397-9.06 3.397-13.59 0-2.114-.226-4.303-.755-6.417-1.208-5.36-4.001-10.646-8.38-15.705-6.87-8.38-16.988-15.024-18.12-15.704l-.076.076c1.208.68 11.4 7.399 18.196 15.628z" fill="#BCBCBC"/><path d="M-46.267 121.464l25.519 39.713L4.771 121.54l-51.038-.076z" fill="#A7CC80"/><path d="M-51.25 121.389a.162.162 0 00-.15.151c0 .075.075.151.15.151H9.756c.075 0 .15-.076.15-.151a.162.162 0 00-.15-.151H-51.25z" fill="#000"/><path d="M47.355 207.384c0-3.624 2.944-6.644 6.644-6.644a6.605 6.605 0 016.643 6.644c0 19.403 15.78 35.258 35.26 35.258 3.623 0 6.643 2.945 6.643 6.644 0 3.7-2.944 6.644-6.644 6.644-26.802-.075-48.546-21.819-48.546-48.546zm53.756 41.827a5.252 5.252 0 00-5.285-5.285c-20.159 0-36.542-16.384-36.542-36.542a5.252 5.252 0 00-5.285-5.285 5.252 5.252 0 00-5.285 5.285c0 25.972 21.14 47.112 47.112 47.112 2.869 0 5.285-2.341 5.285-5.285z" fill="#E8E8E8"/><path d="M47.355 207.384c0-3.624 2.944-6.644 6.644-6.644a6.605 6.605 0 016.643 6.644 6.606 6.606 0 01-6.644 6.644c-3.699 0-6.643-3.02-6.643-6.644zm11.853 0a5.252 5.252 0 00-5.285-5.285 5.252 5.252 0 00-5.285 5.285 5.253 5.253 0 005.285 5.285c2.944 0 5.285-2.416 5.285-5.285zm495.885 134.089c-3.624 0-6.644-2.945-6.644-6.644 0-3.7 2.945-6.644 6.644-6.644 19.404 0 35.259-15.78 35.259-35.259 0-3.624 2.944-6.644 6.644-6.644a6.606 6.606 0 016.644 6.644c-.076 26.803-21.82 48.547-48.547 48.547zm0-1.359c25.972 0 47.112-21.14 47.112-47.112a5.252 5.252 0 00-5.285-5.285 5.252 5.252 0 00-5.285 5.285c0 20.158-16.383 36.542-36.542 36.542a5.252 5.252 0 00-5.285 5.285 5.253 5.253 0 005.285 5.285z" fill="#E8E8E8"/><path d="M596.92 299.569c-3.624 0-6.644-2.944-6.644-6.644a6.606 6.606 0 016.644-6.644c3.7 0 6.644 2.945 6.644 6.644 0 3.7-3.02 6.644-6.644 6.644zm0-1.283a5.252 5.252 0 005.285-5.285 5.252 5.252 0 00-5.285-5.285 5.252 5.252 0 00-5.285 5.285c0 2.869 2.416 5.285 5.285 5.285z" fill="#E8E8E8"/></g><defs><linearGradient id="paint0_linear" x1="435.646" y1="215.613" x2="471.375" y2="215.613" gradientUnits="userSpaceOnUse"><stop stop-color="#F7941D"/><stop offset="1" stop-color="#F7941D" stop-opacity=".1"/></linearGradient><linearGradient id="paint1_linear" x1="448.951" y1="246.627" x2="479.575" y2="246.627" gradientUnits="userSpaceOnUse"><stop stop-color="#F7941D"/><stop offset="1" stop-color="#F7941D" stop-opacity=".1"/></linearGradient><linearGradient id="paint2_linear" x1="461.794" y1="417.306" x2="475.509" y2="417.306" gradientUnits="userSpaceOnUse"><stop stop-color="#1C75BC"/><stop offset="1" stop-color="#1C75BC" stop-opacity=".1"/></linearGradient><linearGradient id="paint3_linear" x1="447.802" y1="426.754" x2="477.42" y2="426.754" gradientUnits="userSpaceOnUse"><stop stop-color="#1C75BC"/><stop offset="1" stop-color="#1C75BC" stop-opacity=".1"/></linearGradient><linearGradient id="paint4_linear" x1="166.583" y1="422.059" x2="200.657" y2="422.059" gradientUnits="userSpaceOnUse"><stop stop-color="#1C75BC"/><stop offset="1" stop-color="#1C75BC" stop-opacity=".1"/></linearGradient><linearGradient id="paint5_linear" x1="444.848" y1="209.185" x2="483.159" y2="209.185" gradientUnits="userSpaceOnUse"><stop stop-color="#F7941D"/><stop offset="1" stop-color="#F7941D" stop-opacity=".1"/></linearGradient><linearGradient id="paint6_linear" x1="438.643" y1="196.439" x2="462.98" y2="196.439" gradientUnits="userSpaceOnUse"><stop stop-color="#F7941D"/><stop offset="1" stop-color="#F7941D" stop-opacity=".1"/></linearGradient><linearGradient id="paint7_linear" x1="432.35" y1="243.1" x2="449.091" y2="243.1" gradientUnits="userSpaceOnUse"><stop stop-color="#F7941D"/><stop offset="1" stop-color="#F7941D" stop-opacity=".1"/></linearGradient><linearGradient id="paint8_linear" x1="468.51" y1="188.17" x2="477.069" y2="188.17" gradientUnits="userSpaceOnUse"><stop stop-color="#F7941D"/><stop offset="1" stop-color="#F7941D" stop-opacity=".1"/></linearGradient><linearGradient id="paint9_linear" x1="459.661" y1="231.525" x2="483.927" y2="231.525" gradientUnits="userSpaceOnUse"><stop stop-color="#F7941D"/><stop offset="1" stop-color="#F7941D" stop-opacity=".1"/></linearGradient><linearGradient id="paint10_linear" x1="427.557" y1="279.386" x2="474.222" y2="279.386" gradientUnits="userSpaceOnUse"><stop stop-color="#1C75BC"/><stop offset="1" stop-color="#1C75BC" stop-opacity=".1"/></linearGradient><linearGradient id="paint11_linear" x1="472.3" y1="180.729" x2="477.914" y2="180.729" gradientUnits="userSpaceOnUse"><stop stop-color="#603913"/><stop offset="1" stop-color="#603913" stop-opacity=".1"/></linearGradient><linearGradient id="paint12_linear" x1="482.307" y1="172.157" x2="485.074" y2="172.157" gradientUnits="userSpaceOnUse"><stop stop-color="#603913"/><stop offset="1" stop-color="#603913" stop-opacity=".1"/></linearGradient><linearGradient id="paint13_linear" x1="483.469" y1="171.89" x2="484.61" y2="171.89" gradientUnits="userSpaceOnUse"><stop stop-color="#603913"/><stop offset="1" stop-color="#603913" stop-opacity=".1"/></linearGradient><linearGradient id="paint14_linear" x1="481.09" y1="186.866" x2="495.819" y2="186.866" gradientUnits="userSpaceOnUse"><stop stop-color="#fff"/><stop offset="1" stop-color="#fff" stop-opacity=".1"/></linearGradient><linearGradient id="paint15_linear" x1="488.332" y1="184.071" x2="499.94" y2="184.071" gradientUnits="userSpaceOnUse"><stop stop-color="#fff"/><stop offset="1" stop-color="#fff" stop-opacity=".1"/></linearGradient><clipPath id="clip0"><path fill="#fff" d="M0 .479h720v484H0z"/></clipPath></defs></svg>