<svg width="360" height="403" fill="none" xmlns="http://www.w3.org/2000/svg"><path fill="#FDEBE8" d="M0 0h360v403H0z"/><path d="M246.261 179.463c-.622-10.359-9.817-18.242-20.544-17.61-10.722.636-18.911 9.547-18.288 19.906l38.832-2.296z" fill="#F95F8F"/><path opacity=".41" d="M251.036 180.814c-.779-12.967-12.29-22.834-25.71-22.04-13.423.794-23.672 11.947-22.893 24.915l48.603-2.875z" stroke="#000" stroke-width=".292" stroke-miterlimit="10"/><path opacity=".41" d="M254.572 180.541c-.879-14.645-13.882-25.791-29.043-24.896-15.161.894-26.738 13.495-25.858 28.141l54.901-3.245z" stroke="#000" stroke-width=".292" stroke-miterlimit="10"/><path d="M183.902 311.319c.864 0 1.564-.695 1.564-1.552 0-.857-.7-1.552-1.564-1.552-.864 0-1.564.695-1.564 1.552 0 .857.7 1.552 1.564 1.552z" fill="#fff"/><path d="M40.135 229.727a10.253 10.253 0 005.56-5.569 4.053 4.053 0 012.202-2.21 4.094 4.094 0 013.131-.018c5.27 2.134 11.305-.384 13.46-5.616a4.06 4.06 0 012.2-2.21 4.098 4.098 0 013.132-.018 3.122 3.122 0 004.061-1.696 3.083 3.083 0 00-1.708-4.031c-5.271-2.134-11.306.384-13.46 5.616a4.06 4.06 0 01-2.2 2.21 4.098 4.098 0 01-3.132.018 10.32 10.32 0 00-7.899.039 10.219 10.219 0 00-5.557 5.573 4.06 4.06 0 01-2.2 2.21 4.098 4.098 0 01-3.132.018 3.122 3.122 0 00-4.062 1.696 3.083 3.083 0 001.709 4.031 10.336 10.336 0 007.895-.043z" fill="#000"/><path d="M105.043 205.466l-50.941-27.225 8.652 56.779 42.289-29.554z" fill="#000"/><path d="M109.304 203.893l-50.942-27.225 8.649 56.781 42.293-29.556z" fill="#FBE54B"/><path d="M41.598 224.226a10.257 10.257 0 005.56-5.569 4.053 4.053 0 012.201-2.21 4.089 4.089 0 013.131-.018c5.271 2.134 11.306-.385 13.46-5.616a4.057 4.057 0 012.2-2.21 4.098 4.098 0 013.132-.018 3.122 3.122 0 004.062-1.696 3.083 3.083 0 00-1.709-4.031c-5.27-2.135-11.305.384-13.46 5.616a4.06 4.06 0 01-2.2 2.21 4.098 4.098 0 01-3.131.018 10.32 10.32 0 00-7.9.039 10.219 10.219 0 00-5.556 5.573 4.06 4.06 0 01-2.201 2.21 4.098 4.098 0 01-3.131.018 3.122 3.122 0 00-4.062 1.696 3.083 3.083 0 001.709 4.031 10.336 10.336 0 007.895-.043z" fill="#A7CC80"/><path d="M210.759 242.813l-3.96 1.793a.512.512 0 01-.674-.248l-1.806-3.931a.504.504 0 01.25-.668l3.96-1.793a.511.511 0 01.673.248l1.807 3.931a.501.501 0 01-.25.668z" fill="#F95F8F"/><path d="M277.174 155.755c-12.467 12.853-12.076 33.305.872 45.679 12.949 12.375 33.555 11.987 46.022-.866l-46.894-44.813z" fill="#000"/><path d="M273.089 154.85c-12.467 12.853-12.076 33.305.873 45.679 12.948 12.375 33.554 11.987 46.021-.865l-46.894-44.814z" fill="#A7CC80"/><path d="M240.053 297.881l-37.019.236.068 10.398 37.018-.235-.067-10.399z" fill="#000"/><path d="M241.961 293.307l-37.019.236.067 10.398 37.019-.235-.067-10.399z" fill="#F95F8F"/><path d="M23.89 128.084c2.407 1.994 4.898 3.302 7.407 3.884.995.23 2.013.348 3.015.348 2.14 0 4.297-.532 6.408-1.577 5.484-2.72 6.49-7.348 7.464-11.821.41-1.88.826-3.795 1.59-5.559.246-.079.47-.212.658-.399a1.34 1.34 0 01.956-.395c.358 0 .699.14.952.392l.025.025c.305.302.71.467 1.145.467.427 0 .829-.162 1.133-.46l.054-.05a1.356 1.356 0 011.897.007l.025.025c.304.302.71.471 1.148.471a1.6 1.6 0 001.144-.475c.253-.255.593-.395.955-.395.359 0 .699.14.952.392l.04.039.192-.19-.04-.04a1.618 1.618 0 00-1.147-.47c-.435 0-.84.169-1.144.474a1.338 1.338 0 01-.956.395c-.358 0-.699-.14-.952-.391l-.025-.026a1.627 1.627 0 00-2.277-.007l-.055.051a1.357 1.357 0 01-1.897-.008l-.025-.025a1.615 1.615 0 00-1.147-.471 1.6 1.6 0 00-1.144.475 1.28 1.28 0 01-.308.23c.543-1.168 1.249-2.264 2.219-3.227 2.83-2.806 7.693-4.233 14.867-4.365 26.988-.493 26.988-11.987 26.988-19.594v-.057h-.268v.057c0 7.503 0 18.839-26.723 19.324-7.248.133-12.174 1.585-15.056 4.441-1.068 1.06-1.82 2.264-2.386 3.55a1.349 1.349 0 01-1.245-.359l-.018-.018a1.61 1.61 0 00-1.14-.471c-.431 0-.837.165-1.14.471l-.04.039.191.191.04-.04a1.35 1.35 0 01.952-.391c.359 0 .7.14.953.391l.018.018c.304.302.71.471 1.147.471.054 0 .109-.004.163-.007-.724 1.735-1.13 3.604-1.528 5.436-.959 4.412-1.955 8.976-7.32 11.638-3.051 1.516-6.157 1.922-9.234 1.207-2.465-.571-4.92-1.857-7.295-3.826-4.058-3.349-6.508-7.585-6.534-7.628l-.029-.051-.235.133.029.051c.029.043 2.483 4.304 6.581 7.7z" fill="#000"/><path d="M306.112 369.462l-3.879 4.215 4.247 3.851 3.879-4.216-4.247-3.85z" fill="#FBE54B"/><path d="M330.458 350.937l-9.275.417c-.202-4.438-4.004-7.884-8.474-7.682-4.471.201-7.943 3.974-7.74 8.411l-9.271.417c-.434-9.511 7.009-17.599 16.591-18.03 9.586-.432 17.734 6.956 18.169 16.467z" fill="#A7CC80"/><path d="M324.778 337.736c-1.415-.309-2.802-.004-4.235.934-3.501 2.292-2.205 5.386-.565 9.302 1.387 3.317 3.081 7.363 2.299 12.185l-10.01 10.876-1.147-25.159-.004-.057-4.004.179 1.17 25.626.003.058 3.53-.158-9.271 10.075.199.179 9.452-10.272.091-.004-.004-.09 9.901-10.761c-.616 3.137-2.292 6.597-5.781 10.388-3.24 3.521-4.33 6.726-3.24 9.521 1.672 4.287 8.253 6.838 13.481 8.221 5.651 1.495 10.961 1.991 11.015 1.998l.058.004.026-.266-.058-.004c-.21-.018-21.138-2.026-24.269-10.05-1.05-2.691.022-5.803 3.189-9.241 3.696-4.017 5.387-7.664 5.937-10.956l11.505-12.5c.517.816 1.035 1.649 1.556 2.49 5.282 8.501 11.266 18.138 20.273 17.732l.057-.004-.01-.269-.058.003c-8.848.399-14.788-9.166-20.03-17.606a425.147 425.147 0 00-1.597-2.554l1.76-1.912-.199-.18-1.709 1.858c-3.135-4.937-6.016-8.868-9.311-9.586zm9.119 9.794l-11.28 12.26c.634-4.7-1.024-8.659-2.389-11.922-1.654-3.949-2.849-6.802.467-8.975 1.368-.899 2.686-1.19 4.025-.895 3.19.697 6.14 4.754 9.177 9.532zm-26.495-1.279l3.461-.154 1.147 25.148-3.46.154-1.148-25.148z" fill="#000"/><path d="M26.643 372.297c-2.925 0-5.304-2.36-5.304-5.263 0-2.904 2.379-5.264 5.304-5.264 2.925 0 5.303 2.36 5.303 5.264 0 2.903-2.378 5.263-5.303 5.263zm0-7.843a2.592 2.592 0 00-2.6 2.58c0 1.422 1.166 2.579 2.6 2.579 1.433 0 2.599-1.157 2.599-2.579a2.592 2.592 0 00-2.6-2.58z" fill="#A7CC80"/><path d="M31.414 355.737c.934 0 1.69-.751 1.69-1.678 0-.927-.756-1.678-1.69-1.678-.934 0-1.69.751-1.69 1.678 0 .927.756 1.678 1.69 1.678z" fill="#F95F8F"/><path d="M32.569 350.753a5.142 5.142 0 00-1.046-2.037c-1.843-2.206-5.14-2.512-7.364-.683a5.166 5.166 0 00-.687 7.309 5.204 5.204 0 002.262 1.573l6.835-6.162z" fill="#56D0ED"/><path d="M42.69 372.118H8.64v.205h34.05v-.205zm-2.65-15.407a2.541 2.541 0 00-2.965-2.009l-19.284 3.618a2.524 2.524 0 00-2.024 2.943 2.496 2.496 0 001.065 1.613c.423.288.916.439 1.426.439.16 0 .319-.015.478-.043l19.284-3.619a2.525 2.525 0 002.02-2.942zm-2.494-1.851a2.33 2.33 0 012.291 1.886 2.319 2.319 0 01-1.86 2.706l-19.285 3.618a2.33 2.33 0 01-1.748-.363 2.303 2.303 0 01-.977-1.484 2.318 2.318 0 011.86-2.705l19.284-3.618c.141-.026.29-.04.435-.04z" fill="#000"/><path d="M303.094 137.413a2.604 2.604 0 002.613-2.594 2.604 2.604 0 00-2.613-2.595 2.604 2.604 0 00-2.614 2.595 2.604 2.604 0 002.614 2.594z" fill="#FBE54B"/><path d="M305.573 129.487c.004.671.268 1.304.75 1.778l.318.316c.992.978 2.603.97 3.588-.014l22.564-22.579c.477-.478.738-1.11.734-1.786a2.491 2.491 0 00-.749-1.778l-.318-.317a2.525 2.525 0 00-1.8-.729 2.532 2.532 0 00-1.792.744l-22.563 22.579a2.539 2.539 0 00-.732 1.786zm23.509-24.157a2.261 2.261 0 013.175-.014l.318.316c.424.417.659.977.663 1.574a2.188 2.188 0 01-.652 1.577l-22.564 22.579a2.243 2.243 0 01-1.585.658 2.224 2.224 0 01-1.589-.647l-.319-.316a2.22 2.22 0 01-.014-3.151l22.567-22.576z" fill="#000"/><path d="M308.025 95.201c.746 0 1.351-.6 1.351-1.34 0-.74-.605-1.34-1.351-1.34-.745 0-1.35.6-1.35 1.34 0 .74.605 1.34 1.35 1.34z" fill="#FBE54B"/><path d="M309.307 91.109c0 .348.138.675.387.92l.167.161a1.316 1.316 0 001.853-.007l11.661-11.667a1.3 1.3 0 00-.008-1.843l-.166-.162a1.32 1.32 0 00-.931-.377c-.351 0-.68.137-.926.385l-11.661 11.666a1.313 1.313 0 00-.376.924zm12.149-12.483a1.17 1.17 0 011.64-.007l.166.162a1.144 1.144 0 01.008 1.627l-11.661 11.667a1.163 1.163 0 01-1.64.007l-.166-.161a1.148 1.148 0 01-.007-1.628l11.66-11.667z" fill="#000"/><path d="M188.326 293.943h-15.027v26.391h15.027v-26.391z" fill="#C1C1C1"/><path d="M291.324 182.668v102.238c0 6.49-5.351 11.8-11.888 11.8H85.198c-6.538 0-11.888-5.31-11.888-11.8V182.668c0-6.489 5.35-11.799 11.888-11.799h194.238c6.537 0 11.888 5.31 11.888 11.799z" fill="#fff" stroke="#757575" stroke-width=".146" stroke-miterlimit="10"/><path d="M291.323 283.117v1.789c0 6.489-5.35 11.8-11.888 11.8H85.197c-6.537 0-11.888-5.311-11.888-11.8v-1.789h218.014zm.001-100.449v2.131H73.31v-2.131c0-6.489 5.35-11.799 11.888-11.799h194.238c6.537 0 11.888 5.31 11.888 11.799z" fill="#C1C1C1"/><path opacity=".21" d="M141.721 261.379h-50.12a.897.897 0 01-.898-.891v-7.075c0-.492.406-.891.898-.891h50.12c.496 0 .898.402.898.891v7.075a.897.897 0 01-.898.891z" fill="#000"/><path d="M125.916 246.471H100.64a.286.286 0 01-.286-.284c0-.154.127-.284.286-.284h25.276a.284.284 0 110 .568zm-8.562-2.199H100.64a.286.286 0 01-.286-.284c0-.154.127-.284.286-.284h16.714c.156 0 .286.126.286.284 0 .155-.13.284-.286.284z" fill="#000"/><path d="M105.028 242.073h-4.384a.286.286 0 01-.286-.284c0-.154.127-.284.286-.284h4.384c.156 0 .286.126.286.284 0 .155-.13.284-.286.284zm10.245 0h-8.92a.286.286 0 01-.286-.284c0-.154.127-.284.286-.284h8.92c.156 0 .286.126.286.284a.29.29 0 01-.286.284z" fill="#BFBFBF"/><path d="M94.041 247.15c1.904 0 3.447-1.531 3.447-3.421 0-1.889-1.543-3.42-3.447-3.42-1.903 0-3.446 1.531-3.446 3.42 0 1.89 1.543 3.421 3.446 3.421z" fill="#F95F8F"/><path d="M241.077 213.953h-34.105a.286.286 0 01-.286-.284v-.194c0-.154.127-.283.286-.283h34.105c.155 0 .286.125.286.283v.194a.288.288 0 01-.286.284zM229.59 211h-22.618a.286.286 0 01-.286-.284v-.194c0-.155.127-.284.286-.284h22.618c.156 0 .286.126.286.284v.194a.287.287 0 01-.286.284z" fill="#000"/><path d="M213.05 208.05h-6.078a.286.286 0 01-.286-.284v-.194c0-.155.127-.284.286-.284h6.078c.156 0 .286.126.286.284v.194c0 .154-.13.284-.286.284zm13.742 0h-12.163a.286.286 0 01-.286-.284v-.194c0-.155.126-.284.286-.284h12.163c.156 0 .286.126.286.284v.194a.286.286 0 01-.286.284z" fill="#BFBFBF"/><path d="M198.212 214.862c2.553 0 4.623-2.054 4.623-4.588 0-2.534-2.07-4.588-4.623-4.588-2.553 0-4.623 2.054-4.623 4.588 0 2.534 2.07 4.588 4.623 4.588z" fill="#FBE54B"/><path d="M142.022 232.982H91.145a1.319 1.319 0 01-1.321-1.311v-29.366a1.32 1.32 0 011.321-1.312h50.88c.728 0 1.321.589 1.321 1.312v29.366a1.324 1.324 0 01-1.324 1.311z" fill="#56D0ED"/><path d="M137.485 207.777h-17.101a.286.286 0 01-.286-.284v-.19c0-.155.127-.284.286-.284h17.101c.156 0 .286.125.286.284v.19a.286.286 0 01-.286.284z" fill="#fff"/><path opacity=".56" d="M137.485 209.936h-17.101a.286.286 0 01-.286-.284v-.19c0-.155.127-.284.286-.284h17.101c.156 0 .286.126.286.284v.19a.285.285 0 01-.286.284z" fill="#fff"/><path opacity=".2" d="M137.486 212.096h-17.015a.286.286 0 01-.286-.284v-.19c0-.155.127-.284.286-.284h17.015c.155 0 .286.125.286.284v.19a.286.286 0 01-.286.284z" fill="#fff"/><path opacity=".56" d="M137.529 224.072h-17.101a.286.286 0 01-.286-.284v-.191c0-.154.127-.284.286-.284h17.101c.156 0 .286.126.286.284v.191a.286.286 0 01-.286.284z" fill="#fff"/><path opacity=".2" d="M129.185 226.231h-8.67a.286.286 0 01-.286-.284v-.19c0-.155.126-.284.286-.284h8.67c.155 0 .286.126.286.284v.19a.288.288 0 01-.286.284z" fill="#fff"/><path d="M120.493 220.241h16.884a.394.394 0 00.394-.391v-4.291a.394.394 0 00-.394-.391h-16.884a.394.394 0 00-.395.391v4.291a.399.399 0 00.395.391zm40.324-42.405c3.316-.076 6.632-.108 9.947-.137l9.948-.043 9.948.043 4.974.05 4.974.09-4.974.09-4.974.05-9.948.04-9.948-.043c-3.315-.033-6.631-.065-9.947-.14zm-4 .804c.447 0 .81-.36.81-.805a.807.807 0 00-.81-.804.807.807 0 00-.811.804c0 .445.363.805.811.805z" fill="#fff"/><path d="M206.342 321.154h-51.991v.995h51.991v-.995z" fill="#C1C1C1"/><path d="M271.239 221.79l-51.401.09-25.699.043-1.607.003h-.804c-.271-.007-.521.022-.829-.025a1.466 1.466 0 01-1.176-1.178c-.044-.306-.015-.546-.026-.82v-.797l-.01-6.378-.011-6.378-.007-3.187v-.798c0-.136-.004-.258.003-.406.007-.15.036-.301.091-.441a1.515 1.515 0 011.404-.978l51.401.09 25.699.047 1.607.003h.804c.268.008.532-.018.807.025a1.364 1.364 0 011.09 1.1c.04.543.011 1.067.018 1.599l-.011 6.378-.011 6.377-.007 3.188v.797c-.004.262.022.539-.087.787a1.322 1.322 0 01-1.238.859zm0 0a1.327 1.327 0 001.235-.859c.105-.248.079-.521.083-.787v-.797l-.007-3.188-.011-6.377-.011-6.378c-.011-.528.018-1.071-.022-1.588a1.281 1.281 0 00-1.032-1.035c-.253-.04-.528-.014-.792-.022h-.804l-1.607.004-25.699.047-51.401.089a1.153 1.153 0 00-1.072.741.957.957 0 00-.068.334c-.008.115-.004.262-.004.388v.798l-.007 3.187-.011 6.377-.011 6.378v.798c.007.259-.018.55.018.772.072.471.471.874.945.953.224.035.514.014.775.021h.803l1.608.004 25.698.043 51.394.097z" fill="#A7CC80"/><path opacity=".24" d="M188.326 296.706h-15.027v7.269h15.027v-7.269z" fill="url(#paint0_linear)"/><path opacity=".21" d="M232.44 247.671l-24.128 11.142c-1.444.665-3.171.04-3.844-1.39l-7.443-15.878a2.873 2.873 0 011.404-3.816l24.128-11.142c1.441-.665 3.171-.04 3.845 1.394l1.697 3.625.837 1.786.079.169c-.423.543-.655 1.276.065 2.073.464.511.949.841 1.401 1.057l3.36 7.168c.673 1.43.04 3.147-1.401 3.812z" fill="#000"/><path d="M236.107 228.225l-2.473 5.185s-.818.09-1.81-.384l-1.466-3.13c.214-.273.475-.496.692-.654-.265.173-.522.338-.771.485l-.837-1.785 2.82-1.621 2.846 1.427.999.477z" fill="#FFCB92"/><path d="M235.184 240.194c.673 1.43.04 3.148-1.401 3.812l-24.128 11.143c-1.444.664-3.171.039-3.844-1.391l-7.443-15.878a2.873 2.873 0 011.404-3.816l24.128-11.142a2.915 2.915 0 013.845 1.394l1.697 3.626-1.806 1.038a.798.798 0 00.047 1.409c.655.312 1.557-.044 2.596-.662l.079.169c-.423.543-.655 1.276.065 2.073.464.511.949.841 1.401 1.057l3.36 7.168z" fill="#fff"/><path d="M230.358 229.896l1.466 3.13a4.512 4.512 0 01-1.401-1.057c-.72-.797-.488-1.53-.065-2.073z" fill="#fff"/><path d="M229.442 227.942l.836 1.785c-1.039.618-1.94.974-2.595.661a.797.797 0 01-.047-1.408l1.806-1.038z" fill="#FFCB92"/><path d="M231.824 233.026l3.36 7.168c.673 1.43.04 3.148-1.401 3.812l-24.128 11.143c-1.444.664-3.171.039-3.844-1.391l-7.443-15.878a2.873 2.873 0 011.404-3.816l24.128-11.142a2.915 2.915 0 013.845 1.394l1.697 3.626.837 1.785.079.169c-.423.543-.655 1.276.065 2.073.464.511.949.841 1.401 1.057z" stroke="#BFBFBF" stroke-width=".292" stroke-miterlimit="10"/><path d="M263.561 298.841l1.028 15.719h7.309l-1.223-15.719h-7.114z" fill="#FFCB92"/><path d="M242.518 322.192l22.173-10.873 6.603 5.9 1.093-3.539 3.656 9.292-31.096 3.485c-.004 0-1.339-3.101-2.429-4.265z" fill="#56D0ED"/><path d="M276.04 322.972l3.884 4.197-43.861 2.547a1.808 1.808 0 01-1.839-1.29l-.275-.941s-1.524-1.703 3.852-5.153c5.376-3.449 7.139 4.129 7.139 4.129l31.1-3.489z" fill="#fff" stroke="#231F20" stroke-width=".292" stroke-miterlimit="10"/><path d="M244.842 327.664c2.527-.294 5.054-.549 7.584-.801l7.591-.704 7.602-.622 3.802-.28c1.267-.083 2.537-.172 3.804-.244-1.263.151-2.527.28-3.79.42l-3.794.381-7.591.704-7.602.622c-2.531.19-5.068.377-7.606.524zm19.849-16.345a286.06 286.06 0 01-5.557 2.878c-1.861.945-3.732 1.862-5.6 2.792-1.879.906-3.751 1.826-5.637 2.72l-2.831 1.333c-.948.431-1.893.877-2.849 1.297.92-.495 1.847-.97 2.77-1.455l2.787-1.423c1.861-.945 3.732-1.861 5.6-2.792 1.879-.905 3.751-1.825 5.637-2.716a270.74 270.74 0 015.68-2.634zm-19.795 11.179a253.822 253.822 0 015.231-2.652c1.752-.87 3.515-1.71 5.271-2.566 1.77-.83 3.533-1.674 5.307-2.49l2.668-1.218c.894-.395 1.785-.801 2.683-1.185-.866.456-1.738.894-2.607 1.343l-2.624 1.308c-1.752.87-3.515 1.711-5.271 2.566-1.77.83-3.533 1.674-5.307 2.49a262.628 262.628 0 01-5.351 2.404z" fill="#231F20"/><path d="M252.748 318.746l4.829 6.295 5.369-.603-5.532-7.923" stroke="#231F20" stroke-width=".292" stroke-miterlimit="10"/><path d="M250.869 321.711l-.927.503a.803.803 0 01-1.082-.312l-1.43-2.587a.792.792 0 01.315-1.075l.927-.503a.804.804 0 011.082.313l1.43 2.587a.787.787 0 01-.315 1.074z" fill="#fff"/><path d="M250.869 321.711l-.709.399c-.12.064-.232.143-.366.183a.811.811 0 01-.412.018c-.279-.047-.511-.266-.627-.51l-.416-.698-.829-1.397-.203-.356a.926.926 0 01.37-1.225l.72-.381c.119-.058.232-.137.391-.183a.955.955 0 01.463-.011c.308.057.551.334.648.582l.37.722.742 1.445c.115.237.3.47.271.758a.768.768 0 01-.413.654zm0 0a.792.792 0 00.402-.661c.022-.277-.163-.5-.286-.737l-.829-1.398-.416-.697c-.119-.244-.297-.395-.536-.445a.705.705 0 00-.344.014c-.101.032-.217.108-.34.173l-.71.398a.666.666 0 00-.286.877l.189.356.742 1.444.369.722c.101.248.29.457.561.514a.812.812 0 00.395-.007c.127-.036.242-.111.365-.172l.724-.381z" fill="#000"/><path d="M254.323 319.832l-.927.503a.805.805 0 01-1.083-.312l-1.43-2.587a.794.794 0 01.315-1.075l.927-.503a.805.805 0 011.083.313l1.429 2.587a.788.788 0 01-.314 1.074z" fill="#fff"/><path d="M254.323 319.831l-.71.399c-.119.065-.231.144-.365.184a.803.803 0 01-.413.017c-.279-.046-.51-.265-.626-.51l-.417-.697-.829-1.397-.202-.356a.885.885 0 01-.102-.453.927.927 0 01.471-.772l.72-.381c.12-.058.232-.137.391-.184a.972.972 0 01.464-.01c.307.057.55.334.648.582l.369.722.742 1.444c.116.238.3.471.271.759a.765.765 0 01-.412.653zm0 0a.792.792 0 00.402-.661c.021-.276-.163-.499-.286-.736l-.829-1.398-.417-.697c-.119-.244-.297-.395-.535-.446a.692.692 0 00-.344.015c-.102.032-.218.108-.341.172l-.709.399a.663.663 0 00-.286.877l.188.356.742 1.444.369.722c.102.248.29.456.562.514a.82.82 0 00.394-.007c.127-.036.243-.112.366-.173l.724-.381zm-9.546 6.698c.134.46.156.92.152 1.376-.015.457-.058.916-.21 1.369-.134-.46-.156-.92-.152-1.376.014-.46.058-.916.21-1.369z" fill="#000"/><path d="M234.927 327.449c1.426-.252 2.863-.395 4.3-.51 1.441-.105 2.882-.184 4.33-.151-1.427.251-2.864.395-4.301.51-1.437.101-2.878.18-4.329.151z" fill="#231F20"/><path d="M273.882 301.87l1.159 15.719h8.232l-1.376-15.719h-8.015z" fill="#FFCB92"/><path d="M260.915 272.615l-1.006 25.719-1.202.596v5.699s17.246-1.922 20.583-.661l4.46-19.399-6.928-11.947h-15.907v-.007z" fill="#D84479"/><path d="M283.273 286.153l2.794 13.209 1.083.197-.677 4.571c-6.607-.895-21.326.995-21.326.995l-1.216-4.768 1.216-.697-2.433-21.059 10.223-2.749 10.336 10.301z" fill="#F95F8F"/><path d="M290.255 288.719l-64.125-23.567c-2.415-.888-3.649-3.554-2.755-5.95l14.314-38.368c.894-2.396 3.58-3.621 5.995-2.734l64.125 23.567c2.415.888 3.649 3.554 2.755 5.95l-14.314 38.368c-.894 2.4-3.58 3.621-5.995 2.734z" fill="#56D0ED"/><path d="M262.899 236.062s6.559 11.491 17.018 16.593l-4.829-9.313-9.785-7.057-2.404-.223z" fill="#000"/><path opacity=".94" d="M241.363 219.922l50.88 66.857m-65.936-26.086l82.845-16.072" stroke="#fff" stroke-width=".292" stroke-miterlimit="10"/><path d="M246.294 231.01c.619.873-.413 2.659-2.31 3.985s-3.939 1.688-4.558.815c-.622-.876.413-2.662 2.31-3.988s3.939-1.689 4.558-.812z" fill="#288C34"/><path d="M246.294 231.01l26.05 36.725c.619.873-.413 2.659-2.31 3.985s-3.939 1.689-4.558.815l-26.05-36.725c.619.874 2.661.511 4.558-.815 1.897-1.326 2.932-3.108 2.31-3.985z" fill="#4DCE62"/><path d="M268.716 238.872s-4.543 7.251-6.624 8.289c-2.082 1.038-3.552-1.308-3.552-1.308l-3.399-.144s-.05 1.186 1.872 1.549c1.922.367 1.169 1.527 1.169 1.527s-1.933 2.185-3.584 2.867c-.655.273-1.202.766-1.448 1.427-.492 1.322-.565 3.363 2.961 4.304 5.449 1.456 8.421-6.341 8.421-6.341l9.061-7.589c0 .004-2.057-3.924-4.877-4.581z" fill="#FFCB92"/><path d="M266.834 217.927l20.344 10.532s1.72 1.027 1.003 3.377c-.72 2.35-6.856 18.781-6.856 18.781l.199.698-1.6 1.34s-6.958-13.913-17.018-16.593l.952-1.937 1.05.399s2.071-3.51 8.941-5.422l-23.896-8.767 8.138-1.563s3.074-4.51 8.743-.845z" fill="#FBE54B"/><path d="M265.853 234.804c1.524.726 2.979 1.599 4.376 2.552a35.803 35.803 0 013.957 3.161c1.245 1.147 2.36 2.422 3.374 3.77 1.014 1.354 1.81 2.849 2.476 4.39l-.565-1.128c-.097-.187-.181-.377-.289-.56l-.333-.536c-.225-.355-.424-.726-.666-1.067l-.739-1.02c-1.028-1.323-2.139-2.595-3.385-3.723a38.246 38.246 0 00-3.913-3.18 41.718 41.718 0 00-2.103-1.401 31.178 31.178 0 00-2.19-1.258z" fill="#000"/><path d="M263.355 212.329c.192 3.504 1.796 6.342 1.796 6.342-1.101 2.483-5.307.794-4.569-.995.739-1.789-1.05-4.883-1.05-4.883s3.682-3.079 3.823-.464z" fill="#EFB275"/><path d="M260.81 212.868c3.175 0 5.749-2.554 5.749-5.705 0-3.152-2.574-5.706-5.749-5.706s-5.749 2.554-5.749 5.706c0 3.151 2.574 5.705 5.749 5.705z" fill="#FFCB92"/><path d="M249.798 321.262l24.645-12.088 7.342 6.558 1.213-3.935 4.061 10.327-34.564 3.873c0 .004-1.488-3.442-2.697-4.735z" fill="#56D0ED"/><path d="M287.059 322.127l4.319 4.664-48.752 2.832a2.01 2.01 0 01-2.045-1.434l-.304-1.049s-1.694-1.894 4.283-5.728c5.976-3.833 7.935 4.589 7.935 4.589l34.564-3.874z" fill="#fff" stroke="#231F20" stroke-width=".292" stroke-miterlimit="10"/><path d="M252.383 327.341c2.809-.32 5.618-.6 8.431-.873l8.438-.78 8.449-.697 4.225-.32 4.228-.28-4.214.456-4.217.421-8.442.78-8.449.697c-2.809.215-5.629.424-8.449.596zm22.06-18.167a368.232 368.232 0 01-6.183 3.187c-2.067 1.05-4.152 2.066-6.226 3.101l-6.263 3.026-3.146 1.487c-1.053.485-2.103.978-3.16 1.452 1.021-.546 2.056-1.075 3.084-1.61l3.099-1.577 6.226-3.101c2.089-1.006 4.171-2.03 6.263-3.026a393.364 393.364 0 016.306-2.939zm-21.999 12.425a313.58 313.58 0 015.821-2.932c1.948-.963 3.91-1.897 5.861-2.845 1.966-.924 3.924-1.862 5.897-2.774l2.961-1.358c.992-.442 1.98-.895 2.98-1.326-.963.506-1.934.988-2.904 1.484l-2.917 1.451c-1.948.963-3.91 1.897-5.861 2.846-1.966.923-3.924 1.861-5.897 2.77-1.973.909-3.95 1.815-5.941 2.684z" fill="#231F20"/><path d="M261.168 317.428l5.369 6.999 5.969-.668-6.15-8.807" stroke="#231F20" stroke-width=".292" stroke-miterlimit="10"/><path d="M259.16 320.684l-1.188.647a.804.804 0 01-1.082-.313l-1.673-3.029a.79.79 0 01.315-1.074l1.188-.647a.804.804 0 011.082.313l1.672 3.029a.785.785 0 01-.314 1.074z" fill="#fff"/><path d="M259.16 320.683l-.8.446-.402.222a.817.817 0 01-.453.09.873.873 0 01-.434-.165c-.13-.093-.217-.237-.29-.367l-.463-.786-.923-1.574-.225-.395c-.072-.119-.166-.299-.173-.471a.921.921 0 01.47-.888l.807-.431.41-.215a.916.916 0 01.984.111c.138.108.225.273.286.402l.42.809.84 1.62.217.403a.958.958 0 01.152.431.803.803 0 01-.423.758zm0 0a.785.785 0 00.398-.758.948.948 0 00-.159-.417l-.225-.395-.923-1.574-.463-.787c-.08-.14-.145-.244-.254-.327a.712.712 0 00-.742-.061l-.398.219-.8.446a.67.67 0 00-.351.632.882.882 0 00.134.378l.217.402.84 1.62.42.809c.108.28.347.503.651.535.308.051.572-.158.84-.291l.815-.431z" fill="#000"/><path d="M263 318.596l-1.187.647a.803.803 0 01-1.082-.313l-1.673-3.029a.79.79 0 01.315-1.074l1.187-.647a.805.805 0 011.083.313l1.672 3.029a.792.792 0 01-.315 1.074z" fill="#fff"/><path d="M263 318.595l-.8.446-.402.223a.82.82 0 01-.452.09.868.868 0 01-.434-.166c-.131-.093-.218-.237-.29-.366l-.463-.787-.924-1.574-.224-.395c-.072-.119-.167-.298-.174-.471a.92.92 0 01.471-.887l.807-.431.409-.216a.902.902 0 01.511-.09c.173.018.34.094.474.201.137.108.224.273.286.403l.42.808.84 1.621.217.402c.076.13.145.277.152.431a.818.818 0 01-.424.758zm0 0a.781.781 0 00.398-.758.916.916 0 00-.159-.416l-.224-.396-.923-1.574-.464-.786c-.079-.141-.145-.245-.253-.327a.713.713 0 00-.366-.137.674.674 0 00-.376.076l-.398.219-.8.445a.672.672 0 00-.352.633c.011.133.055.233.134.377l.218.402.839 1.621.42.808c.109.281.348.503.652.536.308.05.572-.158.84-.291l.814-.432zm-10.69 7.485c.131.51.152 1.02.149 1.53-.018.511-.062 1.017-.214 1.524-.134-.51-.152-1.02-.148-1.531.018-.51.061-1.017.213-1.523z" fill="#000"/><path d="M241.363 327.1c.793-.136 1.589-.23 2.389-.32a68.626 68.626 0 012.397-.226c.8-.057 1.6-.115 2.4-.144l1.202-.043c.402 0 .803-.014 1.205-.003-.398.071-.796.118-1.191.179l-1.194.144c-.797.093-1.597.162-2.397.226-.8.058-1.6.115-2.4.144-.804.029-1.607.058-2.411.043z" fill="#231F20"/><path d="M266.157 299.379a76.413 76.413 0 014.605-.506 109.93 109.93 0 014.626-.273c1.546-.036 3.092-.065 4.637-.004 1.546.061 3.092.165 4.616.439-.388-.022-.771-.051-1.155-.079-.384-.022-.771-.029-1.155-.044-.383-.021-.771-.021-1.155-.028a29.599 29.599 0 00-1.154-.008 111.24 111.24 0 00-4.62.087c-1.542.032-3.08.118-4.619.19l-4.626.226zm-3.334-90.531c2.592-2.727 0-2.727 0-2.727l-.634 6-1.245-8.221-5.361.884s2.121-4.721 7.323-2.939 3.663 8.012 2.462 8.799c-2.223 1.452-1.742-2.788-1.742-2.788m2.582-5.192a2.56 2.56 0 002.57-2.551 2.56 2.56 0 00-2.57-2.551 2.56 2.56 0 00-2.571 2.551 2.56 2.56 0 002.571 2.551z" fill="#000"/><path d="M104.091 226.141c6.004 0 10.871-4.831 10.871-10.79 0-5.959-4.867-10.79-10.871-10.79-6.004 0-10.871 4.831-10.871 10.79 0 5.959 4.867 10.79 10.871 10.79z" fill="#fff"/><path d="M93.22 220.892l10.871-5.541-2.252 11.839s-3.645.539-8.62-6.298z" fill="#F24089"/><path d="M169.686 253.718H168.3c-2.198 0-4.001-1.785-4.001-3.966v-36.147c0-2.181 1.8-3.967 4.001-3.967h1.386c2.197 0 3.997 1.786 3.997 3.967v36.143c.003 2.185-1.796 3.97-3.997 3.97z" fill="#F95F8F"/><path d="M168.593 223.784a1.867 1.867 0 01-1.872-1.857c0-1.024.84-1.858 1.872-1.858s1.871.834 1.871 1.858a1.866 1.866 0 01-1.871 1.857zm0-3.359c-.836 0-1.517.675-1.517 1.505 0 .83.681 1.506 1.517 1.506.836 0 1.517-.676 1.517-1.506s-.681-1.505-1.517-1.505zm2.617 4.103a.174.174 0 000-.248l-.793-.787a.177.177 0 00-.249 0 .174.174 0 000 .248l.792.787c.037.036.08.05.127.05a.188.188 0 00.123-.05z" fill="#fff"/><path d="M161.335 210.224c.076 3.575.108 7.15.137 10.722l.044 10.722-.04 10.721-.051 5.361-.09 5.361-.091-5.361-.051-5.361-.039-10.721.043-10.722c.029-3.572.065-7.147.138-10.722zm15.175.036c.076 3.575.109 7.15.137 10.722l.044 10.721-.04 10.722-.051 5.361-.09 5.361-.091-5.361-.05-5.361-.04-10.722.043-10.721c.029-3.576.066-7.147.138-10.722z" fill="#939393"/><path d="M171.42 243.306c-.326 0-.644-.051-.945-.151a.422.422 0 00-.42.086l-.597.445c-.692-.366-1.119-.79-1.481-1.469l.438-.575a.419.419 0 00.105-.431 2.96 2.96 0 01-.152-.942.427.427 0 00-.427-.424h-.974a.427.427 0 00-.427.424c0 2.67 2.187 4.84 4.876 4.84.236 0 .428-.19.428-.424v-.963a.422.422 0 00-.424-.416zm.13 1.387a.13.13 0 01-.13.129c-2.527 0-4.583-2.041-4.583-4.549 0-.072.058-.129.13-.129h.974c.073 0 .13.057.13.129 0 .352.055.701.167 1.028.014.05.004.097-.047.151l-.507.664a.149.149 0 00-.014.155c.412.805.915 1.304 1.734 1.721.05.025.112.021.155-.015l.684-.517a.132.132 0 01.134-.032c.333.108.685.165 1.039.165a.13.13 0 01.131.129v.971h.003z" fill="#fff"/><path d="M163.423 231.678h11.4" stroke="#fff" stroke-width=".292" stroke-miterlimit="10"/><path d="M204.098 226.321l-8.938 3.41-8.952 3.377.076-.179 8.38 19.226 8.29 19.263-.17-.068 8.192-3.496 8.207-3.468-8.142 3.615-8.156 3.586-.115.05-.055-.118-8.384-19.223-8.297-19.259-.054-.133.13-.047 8.989-3.284 8.999-3.252z" fill="#56D0ED"/><path d="M120.233 269.711l8.232-.093 8.232-.054 8.232-.022 8.232-.007-.178.176c.018-4.7.008-9.403.044-14.103l.05-7.049.084-7.05.083 7.05.051 7.049c.036 4.7.029 9.403.043 14.103v.176h-.177l-8.232-.007-8.232-.021-8.232-.054-8.232-.094z" fill="#F95F8F"/><path d="M255.583 206.2s-.46 4.495 3.775 5.925" stroke="url(#paint1_linear)" stroke-width=".292" stroke-miterlimit="10"/><path d="M256.347 204.346c1.292-.331 2.602-.55 3.916-.748 1.315-.183 2.636-.341 3.968-.391-1.292.33-2.603.553-3.917.747-1.314.187-2.632.345-3.967.392z" fill="url(#paint2_linear)"/><path d="M256.799 203.778c1.025-.284 2.056-.482 3.084-.686l1.542-.302c.257-.054.515-.104.764-.173.257-.054.5-.133.739-.255-.402.359-.931.536-1.43.697-.507.162-1.025.277-1.542.385-1.043.197-2.093.33-3.157.334z" fill="url(#paint3_linear)"/><path d="M257.121 203.21c.869-.251 1.742-.424 2.61-.604l1.3-.265a9.758 9.758 0 001.285-.345c-.355.287-.786.467-1.209.614a10.36 10.36 0 01-1.307.349c-.883.168-1.774.28-2.679.251z" fill="url(#paint4_linear)"/><path d="M261.382 204.691c.239.682.369 1.376.471 2.076.094.701.159 1.405.112 2.128-.239-.683-.369-1.377-.471-2.077-.09-.701-.155-1.405-.112-2.127z" fill="url(#paint5_linear)"/><path d="M262.768 205.643c.297-.158.627-.176.949-.115.159.036.322.1.46.212.137.104.246.287.213.46a.857.857 0 00-.358-.22 3.256 3.256 0 00-.395-.1c-.275-.065-.561-.112-.869-.237z" fill="url(#paint6_linear)"/><path d="M268.235 200.113a2.078 2.078 0 01-.576 1.437 2.11 2.11 0 01-1.448.661 2.145 2.145 0 01-1.542-.568 2.118 2.118 0 01-.663-1.53c0-.575.247-1.143.663-1.531a2.133 2.133 0 011.542-.568c.554.022 1.086.27 1.448.662.369.388.579.912.576 1.437zm0 0c0-.528-.225-1.049-.612-1.405a1.986 1.986 0 00-1.416-.518 1.946 1.946 0 00-1.321.608c-.337.355-.525.83-.521 1.311-.004.482.184.956.521 1.312.333.359.815.589 1.321.607a1.972 1.972 0 001.416-.517c.384-.349.608-.87.612-1.398z" fill="url(#paint7_linear)"/><path d="M267.351 200.113c.015.593-.481 1.182-1.14 1.221a1.263 1.263 0 01-.916-.312 1.242 1.242 0 01-.405-.909c0-.345.152-.686.405-.909.253-.227.597-.334.916-.313.659.04 1.151.629 1.14 1.222zm0 0c0-.298-.13-.589-.351-.784a1.051 1.051 0 00-1.748.784 1.05 1.05 0 00.959 1.042 1.08 1.08 0 00.789-.259c.217-.194.348-.485.351-.783z" fill="url(#paint8_linear)"/><path d="M259.036 219.922s4.931 4.757 7.765-.909" stroke="url(#paint9_linear)" stroke-width=".292" stroke-miterlimit="10"/><path d="M267.243 233.787s7.338-4.811 16.663-5.418" stroke="url(#paint10_linear)" stroke-width=".292" stroke-miterlimit="10"/><path d="M269.154 219.922l11.899 6.399" stroke="url(#paint11_linear)" stroke-width=".292" stroke-miterlimit="10"/><path d="M260.908 213.573s.981 2.457.778 4.43" stroke="url(#paint12_linear)" stroke-width=".292" stroke-miterlimit="10"/><path d="M246.294 231.01c.228.356.231.812.123 1.214-.105.41-.312.784-.554 1.129-.25.337-.532.654-.844.938-.307.287-.637.546-.97.801l.029-.166a315.351 315.351 0 012.903 4.025l1.445 2.019 1.423 2.034a317.775 317.775 0 012.823 4.078 219.157 219.157 0 012.766 4.118 229.487 229.487 0 01-2.961-3.985 325.465 325.465 0 01-2.904-4.024l-1.444-2.02-1.423-2.033c-.948-1.355-1.897-2.71-2.823-4.079l-.065-.097.094-.068c.333-.241.666-.485.973-.758.312-.269.598-.561.862-.877.253-.319.471-.672.594-1.06.119-.377.155-.819-.047-1.189z" fill="url(#paint13_linear)"/><path d="M260.26 257.57c.861 1.15 1.708 2.307 2.541 3.471.84 1.161 1.665 2.332 2.483 3.511a231.467 231.467 0 012.448 3.535c.807 1.186 1.621 2.364 2.407 3.561l-.152-.047c.329-.147.648-.402.912-.682.268-.284.489-.608.684-.949.199-.341.341-.711.471-1.085.061-.187.108-.381.163-.571l.126-.583-.079.593c-.04.194-.08.392-.13.586a6.481 6.481 0 01-.413 1.132 4.59 4.59 0 01-.67 1.017c-.275.305-.575.582-.974.776l-.087.043-.065-.09c-.843-1.16-1.658-2.339-2.479-3.514a224.39 224.39 0 01-2.44-3.539 231.457 231.457 0 01-2.404-3.565 194.513 194.513 0 01-2.342-3.6z" fill="url(#paint14_linear)"/><path d="M244.122 231.563s-2.65 1.222-3.736 3.011" stroke="url(#paint15_linear)" stroke-width=".292" stroke-miterlimit="10"/><path d="M241.877 233.787s2.223-1.908 3.4-1.911" stroke="url(#paint16_linear)" stroke-width=".292" stroke-miterlimit="10"/><path d="M272.134 232.62s6.422-3.187 13.709-3.187" stroke="url(#paint17_linear)" stroke-width=".292" stroke-miterlimit="10"/><path d="M255.322 245.799l1.227.09c.004-.003-.626 1.146-1.227-.09z" fill="#000"/><path d="M256.73 245.911s-.025.355-.445.542" stroke="url(#paint18_linear)" stroke-width=".146" stroke-miterlimit="10"/><path d="M255.608 245.911h.42" stroke="url(#paint19_linear)" stroke-width=".146" stroke-miterlimit="10"/><path d="M258.406 246.008l-.814 1.045" stroke="url(#paint20_linear)" stroke-width=".146" stroke-miterlimit="10"/><path d="M256.553 251.642l2.722 3.772" stroke="url(#paint21_linear)" stroke-width=".292" stroke-miterlimit="10"/><path d="M255.977 252.281l-2.733 1.635" stroke="url(#paint22_linear)" stroke-width=".292" stroke-miterlimit="10"/><path d="M257.031 253.665l-3.787 1.11" stroke="url(#paint23_linear)" stroke-width=".292" stroke-miterlimit="10"/><path d="M258.406 255.764l-4.822-.102" stroke="url(#paint24_linear)" stroke-width=".292" stroke-miterlimit="10"/><path d="M273.882 284.824c.12.956.203 1.919.279 2.878.08.959.13 1.919.181 2.882.043.963.083 1.922.098 2.885l.018 1.444c-.008.482 0 .963-.018 1.445-.066-.478-.105-.96-.16-1.438l-.119-1.44c-.08-.96-.13-1.919-.181-2.882a95.84 95.84 0 01-.098-2.885 71.343 71.343 0 010-2.889z" fill="url(#paint25_linear)"/><path d="M49.917 283.117l1.086 1.908s6.454.37 8.869-2.781" fill="#231F20"/><path opacity=".19" d="M272.134 228.473l1.708.626s4.833-1.908 8.468-1.772c0 0-5.843-1.214-10.176 1.146z" fill="url(#paint26_linear)"/><path opacity=".16" d="M267.819 240.255l2.088 3.324-5.375 7.466 9.061-7.588-4.877-4.585-.897 1.383z" fill="url(#paint27_linear)"/><path opacity=".14" d="M274.059 304.234l8.012-.345.463 5.285-8.181-.952" fill="url(#paint28_linear)"/><path opacity=".23" d="M263.905 304.122l.297 4.553h7.026l-.105-4.05-5.973.5-.253-1.003h-.992z" fill="url(#paint29_linear)"/><path opacity=".24" d="M260.607 280.505l23.143 8.365-.478-2.717-22.665-8.328v2.68z" fill="url(#paint30_linear)"/><path d="M105.977 262.507v.848c0 .675-.554 1.225-1.235 1.225h-9.278c.116-.334.181-.686.203-1.042h8.246c.677 0 1.235-.553 1.235-1.225v-.848c0-.04-.004-.079-.007-.119.485.169.836.626.836 1.161z" fill="#DD9B5F"/><path d="M54.92 303.397c8.592-7.09 14.447-14.161 13.078-15.796-1.37-1.634-9.444 2.788-18.035 9.877s-14.446 14.161-13.077 15.795c1.369 1.635 9.443-2.787 18.034-9.876z" fill="#231F20"/><path d="M64.09 292.473l33.789-18.993s3.254-.945 4.836 3.726c1.582 4.671 10.147 32.881 10.147 32.881l-16.543-.532-3.903-13.672-27.313 15.975-10.683-8.742 9.67-10.643z" fill="#2CC1D1"/><path d="M57.389 320.87c8.928 0 16.167-7.185 16.167-16.047 0-8.862-7.239-16.047-16.167-16.047-8.93 0-16.168 7.185-16.168 16.047 0 8.862 7.239 16.047 16.168 16.047z" fill="#56D0ED"/><path d="M158.171 292.768l-11.316 21.53 5.737 6.611-3.551.996 9.177 3.79 4.149-30.451s-3.059-1.38-4.196-2.476z" fill="#F95F8F"/><path d="M67.71 292.473l75.514 19.744 9.093 8.954-9.868 2.44-.978-2.698-55.683 1.71a17.36 17.36 0 01-1.676-.029l-28.9-1.944c-.003.004 9.819-23.128 12.497-28.177z" fill="#56D0ED"/><path d="M53.03 254.66c-4.26 6.701-12.569 23.689-16.398 58.37 0 0 25.702-29.83 31.494-24.829 0 0 4.554-26.007-7.82-34.903-2.378-1.707-5.712-1.1-7.276 1.362z" fill="#A7CC80"/><path opacity=".23" d="M52.295 260.8s-7.193 19.08-.514 24.933c0 0 5.88 1.078 12.135-3.054l2.041 3.625 2.035 1.294-8.764-16.874-6.933-9.924z" fill="url(#paint31_linear)"/><path d="M51.998 280.289l.011.025v.022m2.505-3.363l1.702-.557" stroke="#231F20" stroke-width=".219" stroke-miterlimit="10"/><path d="M76.046 271.299s-18.596-23.093-23.563-11.106c0 0-2.472 5.72 1.84 22.486" fill="#C8E8A3"/><path d="M158.218 325.695l4.098 3.906 3.49-43.002a1.768 1.768 0 00-1.246-1.833l-.934-.291s-1.665-1.531-5.22 3.669c-3.555 5.199 3.961 7.096 3.961 7.096l-4.149 30.455z" fill="#fff" stroke="#231F20" stroke-width=".292" stroke-miterlimit="10"/><path d="M163.572 295.168a433.1 433.1 0 01-.688 7.459l-.785 7.449-.869 7.438-.464 3.715c-.166 1.236-.322 2.476-.503 3.712.098-1.244.217-2.487.326-3.73l.362-3.726.786-7.449.868-7.437c.308-2.479.616-4.955.967-7.431zm-16.717 19.13a272.29 272.29 0 012.744-5.519c.93-1.833 1.889-3.651 2.831-5.476.97-1.811 1.922-3.633 2.903-5.436l1.477-2.706c.503-.895.999-1.797 1.513-2.688-.442.927-.905 1.847-1.354 2.771l-1.39 2.752c-.93 1.832-1.886 3.651-2.831 5.476-.97 1.811-1.922 3.632-2.907 5.436a273.143 273.143 0 01-2.986 5.39z" fill="#231F20"/><path d="M158.421 295.111a246.03 246.03 0 01-2.509 5.199c-.851 1.725-1.731 3.439-2.596 5.156-.89 1.707-1.766 3.421-2.671 5.12l-1.361 2.548c-.467.844-.92 1.692-1.398 2.529.402-.873.826-1.739 1.238-2.608l1.271-2.591c.851-1.725 1.73-3.438 2.595-5.156.891-1.707 1.767-3.421 2.672-5.12.905-1.7 1.814-3.399 2.759-5.077z" fill="#fff"/><path d="M154.511 302.735l6.169 4.88-.717 5.256-7.772-5.601" stroke="#fff" stroke-width=".292" stroke-miterlimit="10"/><path d="M143.901 311.844l3.269.506-1.054 1.955-2.215-2.461z" fill="#2CC1D1"/><path d="M57.758 253.768a1.027 1.027 0 001.314-.603l1.292-3.478a1.016 1.016 0 00-.608-1.305 1.027 1.027 0 00-1.314.604l-1.292 3.478c-.196.521.08 1.11.608 1.304z" fill="#ECAE74"/><path d="M71.098 268.112c-.742.169-1.48.349-2.209.568a37.35 37.35 0 00-2.168.683c-1.43.499-2.838 1.06-4.192 1.731-1.372.636-2.66 1.434-3.902 2.286l-.913.672c-.304.222-.575.488-.865.729-.604.464-1.086 1.046-1.643 1.563.948-1.182 2.03-2.271 3.254-3.187.29-.248.62-.446.934-.665.315-.215.63-.431.967-.618.329-.19.658-.391.992-.578l1.017-.525a31.973 31.973 0 014.264-1.671c1.459-.438 2.95-.801 4.464-.988zm86.453 32.769l.435-.747a.869.869 0 00-.323-1.19l-2.392-1.372a.882.882 0 00-1.199.32l-.434.747a.867.867 0 00.322 1.189l2.393 1.373a.886.886 0 001.198-.32z" fill="#fff"/><path d="M157.552 300.881l.394-.69a.857.857 0 00.091-.747c-.083-.252-.286-.417-.529-.525l-.709-.366-1.416-.737-.173-.093a1.076 1.076 0 00-.153-.065.796.796 0 00-.318-.018.692.692 0 00-.507.345l-.405.683a.726.726 0 00.043.913c.072.086.167.143.286.215l.673.424 1.351.848c.116.068.224.147.347.191.123.043.257.061.388.043a.883.883 0 00.637-.421zm0 0a.88.88 0 01-.641.431.985.985 0 01-.398-.025c-.131-.039-.243-.115-.362-.176l-1.416-.736-.709-.367c-.112-.057-.254-.126-.366-.237a.985.985 0 01-.246-.388 1.036 1.036 0 01.109-.891l.394-.69a1.05 1.05 0 011.245-.456c.073.025.149.064.21.1l.171.104 1.35.848.673.424c.109.069.235.144.326.248.094.105.156.23.195.36a.903.903 0 01-.126.769l-.409.682z" fill="#000"/><path d="M155.604 304.23l.435-.747a.869.869 0 00-.322-1.19l-2.393-1.372a.881.881 0 00-1.198.319l-.435.748a.868.868 0 00.322 1.189l2.393 1.373a.887.887 0 001.198-.32z" fill="#fff"/><path d="M155.604 304.23l.395-.69a.841.841 0 00.09-.747c-.083-.252-.286-.417-.528-.525l-.71-.366-1.415-.737-.174-.093a1.02 1.02 0 00-.152-.065.797.797 0 00-.318-.018.692.692 0 00-.507.345l-.406.683a.721.721 0 00-.112.625c.033.104.08.205.156.287.072.087.166.144.286.216l.673.424 1.35.848c.116.068.225.147.348.19a.835.835 0 00.387.043.88.88 0 00.637-.42zm0 0a.88.88 0 01-.64.431.99.99 0 01-.399-.025c-.13-.039-.242-.115-.362-.176l-1.415-.737-.71-.366c-.112-.058-.253-.126-.365-.237a.974.974 0 01-.246-.388 1.039 1.039 0 01.108-.891l.395-.69a1.05 1.05 0 011.245-.457c.072.026.148.065.21.101l.17.104 1.35.848.674.424c.108.069.235.144.326.248.094.104.155.23.195.359a.902.902 0 01-.127.769l-.409.683z" fill="#000"/><path d="M153.928 307.913l.435-.748a.868.868 0 00-.323-1.189l-2.392-1.373a.883.883 0 00-1.199.32l-.434.748a.867.867 0 00.322 1.189l2.393 1.372a.887.887 0 001.198-.319z" fill="#fff"/><path d="M153.928 307.913l.395-.69a.841.841 0 00.09-.747c-.083-.252-.286-.417-.528-.525l-.71-.366-1.415-.737-.174-.093a1.02 1.02 0 00-.152-.065.796.796 0 00-.318-.018.692.692 0 00-.507.345l-.406.683a.725.725 0 00.044.912c.072.086.166.144.286.216l.673.424 1.35.848c.116.068.225.147.348.19.123.043.257.061.387.043a.906.906 0 00.637-.42zm0 0a.88.88 0 01-.64.431.99.99 0 01-.399-.025c-.13-.04-.242-.115-.362-.176l-1.415-.737-.71-.366c-.112-.058-.253-.126-.365-.237a.974.974 0 01-.246-.388 1.039 1.039 0 01.108-.891l.395-.69a1.05 1.05 0 011.245-.457c.073.026.149.065.21.101l.17.104 1.35.848.674.424c.108.068.235.144.326.248.094.104.155.23.195.359a.902.902 0 01-.127.769l-.409.683z" fill="#000"/><path d="M151.796 311.585l.434-.747a.868.868 0 00-.322-1.19l-2.393-1.372a.88.88 0 00-1.198.32l-.435.747a.868.868 0 00.323 1.189l2.392 1.373c.42.237.96.093 1.199-.32z" fill="#fff"/><path d="M151.796 311.585l.395-.69a.844.844 0 00.09-.747c-.083-.252-.286-.417-.528-.525l-.71-.366-1.415-.737-.174-.093a1.067 1.067 0 00-.152-.065.8.8 0 00-.319-.018.696.696 0 00-.507.345l-.405.683a.73.73 0 00.043.912c.073.087.167.144.286.216l.674.424 1.35.848c.116.068.224.147.348.19a.822.822 0 00.387.044.89.89 0 00.637-.421zm0 0a.88.88 0 01-.641.431.986.986 0 01-.398-.025c-.13-.039-.242-.115-.362-.176l-1.415-.736-.71-.367c-.112-.057-.253-.126-.366-.237a.985.985 0 01-.246-.388c-.108-.288-.05-.65.109-.891l.394-.69a1.051 1.051 0 011.246-.456c.072.025.148.064.21.1l.17.104 1.35.848.673.424c.109.069.236.144.326.248.094.104.156.23.196.36a.904.904 0 01-.127.768l-.409.683zm10.571-16.341c.456-.141.912-.173 1.368-.18.456.004.912.036 1.368.18-.456.143-.912.176-1.368.179-.456-.007-.912-.039-1.368-.179z" fill="#000"/><path d="M163.572 285.431c0 1.423-.108 2.838-.242 4.247-.145 1.408-.319 2.817-.605 4.211 0-1.423.109-2.838.243-4.247.148-1.408.322-2.813.604-4.211z" fill="#231F20"/><path d="M60.245 249.823c2.35 0 4.254-1.89 4.254-4.222 0-2.331-1.905-4.221-4.254-4.221-2.35 0-4.254 1.89-4.254 4.221 0 2.332 1.905 4.222 4.254 4.222z" fill="#FCC38A"/><path d="M62.745 246.985c.36-.022.61-.71.56-1.538-.049-.828-.38-1.482-.74-1.461-.359.022-.61.711-.56 1.539.05.828.381 1.481.74 1.46z" fill="#fff"/><path d="M62.005 245.526c.022.291.076.582.188.851.055.133.13.263.221.367.09.104.214.19.326.176.112-.018.2-.119.26-.237.062-.119.099-.252.124-.388.054-.273.061-.557.047-.837a3.535 3.535 0 00-.145-.827 1.45 1.45 0 00-.17-.37c-.073-.111-.174-.201-.286-.205-.116 0-.228.097-.304.212a1.24 1.24 0 00-.174.392 2.68 2.68 0 00-.087.866zm0 0a3.404 3.404 0 01.05-.877c.03-.144.07-.291.138-.424.07-.129.178-.276.37-.302.191-.014.34.108.441.227.105.122.181.258.24.402.119.284.177.586.198.891.015.302-.007.611-.09.906a1.512 1.512 0 01-.192.427c-.087.13-.22.27-.413.277-.192-.004-.318-.137-.401-.259a1.582 1.582 0 01-.189-.406 3.684 3.684 0 01-.152-.862z" fill="#000"/><path d="M58.04 244.308c-.231-.051-.5-.083-.666.032-.148.122-.13.374-.076.593.047.226.134.449.217.672.076.226.185.442.261.675a4.023 4.023 0 01-.387-.621 2.71 2.71 0 01-.265-.69c-.032-.122-.04-.252-.032-.385.018-.129.072-.283.21-.359.268-.129.528-.029.738.083z" fill="#231F20"/><path d="M60.205 242.641l3.472.467 4.409-9.339-4.79 2.519-2.718-4.614-2.147 6.529-2.36-2.591.75 3.798-5.67-3.654 5.097 11.638 1.35-.143s-1.708-4.186.721-3.371l.177 1.915h.333l.782-1.606h1.17l-.576-1.548z" fill="#000"/><path d="M66.284 279.475c6.12-3.226 10.536-6.859 9.865-8.114-.671-1.255-6.177.344-12.296 3.57-6.12 3.227-10.536 6.859-9.865 8.114.672 1.255 6.177-.343 12.296-3.57z" fill="#231F20"/><path d="M140.954 319.116c-.471-1.027-.84-2.087-1.18-3.154-.33-1.071-.634-2.149-.833-3.263.471 1.028.84 2.088 1.18 3.155.33 1.074.634 2.152.833 3.262z" fill="#279CAF"/><path d="M155.188 324.445c1.039.348 2.06.733 3.08 1.125l-.105.251c-.774-.295-1.542-.6-2.309-.913-.768-.309-1.531-.632-2.292-.952-.76-.323-1.52-.657-2.273-.999a61.21 61.21 0 01-2.252-1.052c.786.265 1.564.546 2.339.84.775.291 1.549.586 2.317.895.767.309 1.535.622 2.295.941.764.32 1.524.644 2.28.985l-.105.251a71.252 71.252 0 01-2.975-1.372z" fill="#231F20"/><path d="M105.51 262.184v.848c0 .672-.557 1.225-1.234 1.225h-8.247a3.908 3.908 0 01-.203 1.042 4.066 4.066 0 01-2.143 2.411 4.113 4.113 0 01-3.07.176l-10.23 9.917-1.346 1.304-.047.047-8.066 7.815-.05-.061a1.818 1.818 0 01-1.123.442l-.916.032c-.836.032-1.632-.503-1.998-1.333l-3.312-7.574c-.464-1.067-.08-2.282.872-2.756l.46-.226c.974-.482 2.18-.008 2.697 1.059l2.682 5.527 5.926-5.606.076-.075 1.984-1.872 9.792-9.263a4.07 4.07 0 012.734-5.145l1.125-2.16a1.243 1.243 0 011.662-.524l.76.388c.605.309.844 1.052.532 1.649l-.608 1.171-.166.316h10.223a1.234 1.234 0 011.234 1.226z" fill="#FCC38A"/><path d="M94.635 260.958h-.583l.167-.316c.145.094.286.201.416.316z" fill="#FCC38A"/><path d="M257.831 209.16c.282-.017.478-.557.439-1.207-.039-.65-.299-1.163-.58-1.146-.281.017-.478.557-.439 1.207.039.65.299 1.163.58 1.146z" fill="#fff"/><path d="M257.251 208.014c.018.23.062.456.152.665.044.104.105.201.178.284.072.082.166.14.249.129.163-.036.243-.284.279-.482.036-.212.043-.431.033-.646a2.67 2.67 0 00-.109-.64c-.058-.194-.166-.428-.333-.445-.083-.004-.17.068-.232.154-.061.09-.108.194-.141.302a1.953 1.953 0 00-.076.679zm0 0c-.014-.23-.007-.46.036-.686.022-.115.051-.23.105-.338.055-.104.141-.223.297-.248.159-.014.282.086.366.18.083.097.148.204.195.319.098.227.141.464.159.705a2.19 2.19 0 01-.076.718 1.266 1.266 0 01-.155.342c-.069.104-.181.215-.34.222-.16-.003-.257-.115-.323-.212a1.243 1.243 0 01-.144-.323 2.728 2.728 0 01-.12-.679z" fill="#000"/><path opacity=".23" d="M48.94 263.729s-7.081 21.389-3.03 27.57l-6.958 5.411c0-.004 4.062-22.198 9.988-32.981z" fill="url(#paint32_linear)"/><path opacity=".17" d="M39.386 299.527a420.1 420.1 0 014.953-4.273 514 514 0 014.995-4.218l-.025.23c-.514-.719-.876-1.487-1.188-2.285-.17-.392-.282-.805-.423-1.207-.116-.41-.217-.823-.326-1.233-.384-1.656-.54-3.356-.575-5.048-.058-1.696.112-3.385.304-5.059.119-.837.275-1.667.416-2.497l.565-2.465-.453 2.486-.33 2.501c-.151 1.674-.267 3.352-.191 5.03.05 1.675.217 3.349.608 4.977.109.402.21.808.33 1.207.137.395.242.798.405 1.182.293.776.655 1.549 1.122 2.206l.094.133-.116.097a500.51 500.51 0 01-5.06 4.143 476.293 476.293 0 01-5.105 4.093z" fill="url(#paint33_linear)"/><path opacity=".23" d="M53.809 261.605s-.323 7.589 1.086 12.141l2.971-2.529c.004 0-3.804-4.201-4.057-9.612z" fill="url(#paint34_linear)"/><path opacity=".23" d="M56.339 252.82c.21.313.416.614.64.891.229.269.479.532.765.647.278.126.586.036.858-.18.271-.208.503-.499.745-.787-.112.36-.279.704-.557.996a1.205 1.205 0 01-.525.337 1.006 1.006 0 01-.659-.032c-.402-.176-.663-.496-.858-.823a3.267 3.267 0 01-.409-1.049z" fill="url(#paint35_linear)"/><path opacity=".17" d="M61.592 289.452s-15.375 11.052-10.687 17.221c4.688 6.173 89.046 11.534 89.046 11.534l1.521 2.706s-56.216 2.041-69.263.88c-13.047-1.16-23.023.888-28.685-8.72l-2.045-5.426c-.004 0 15.826-16.42 20.113-18.195z" fill="url(#paint36_linear)"/><path opacity=".23" d="M141.472 318.207c.253.604.488 1.215.734 1.822.239.607.467 1.221.703 1.832l-.163-.079c.97-.337 1.947-.643 2.921-.959.974-.32 1.951-.629 2.932-.924l-.086.256-1-1.445c-.336-.478-.655-.974-.981-1.459-.322-.488-.655-.97-.97-1.466-.318-.492-.641-.981-.948-1.48.365.46.713.931 1.071 1.398.359.463.699.941 1.05 1.412.344.474.702.938 1.039 1.419l1.021 1.43.13.183-.221.072c-.973.32-1.951.629-2.932.924-.981.298-1.958.611-2.947.887l-.126.036-.036-.115c-.203-.621-.413-1.239-.612-1.865-.196-.628-.398-1.25-.579-1.879z" fill="url(#paint37_linear)"/><path opacity=".13" d="M80.35 295.779l11.697-8.178-.271 5.515 4.145-4.595v3.449l.814-1.753 2.013 10.373-5.39-1.408-.942-3.295-3.602 2.105-8.463-2.213z" fill="url(#paint38_linear)"/><path opacity=".41" d="M60.245 249.823l-2.404.769.46-1.236s1.571.572 1.944.467z" fill="url(#paint39_linear)"/><path opacity=".2" d="M67.992 275.719l-5.163 3.237.323-2.885 3.294-1.872 1.546 1.52z" fill="url(#paint40_linear)"/><path opacity=".33" d="M259.532 212.796l4.341 2.613s-.442-1.617-.518-3.08c0 0-2.063.945-3.823.467z" fill="url(#paint41_linear)"/><path opacity=".19" d="M287.425 230.14s-4.283 10.068-8.92 13.252c0 0 2.69 4.409 2.751 5.817" fill="url(#paint42_linear)"/><path d="M39.386 305.258c1.626-2.088 3.36-4.093 5.152-6.04a97.166 97.166 0 015.622-5.62c1.973-1.771 4.018-3.478 6.244-4.94 1.111-.73 2.27-1.402 3.49-1.937 1.22-.521 2.516-.942 3.852-.988-1.325.126-2.589.575-3.776 1.146-1.195.564-2.324 1.254-3.41 2.005-2.176 1.495-4.21 3.191-6.158 4.973-1.962 1.768-3.83 3.64-5.665 5.544-.92.949-1.821 1.919-2.712 2.896-.894.974-1.77 1.965-2.639 2.961z" fill="#fff"/><path d="M55.702 303.095l10.346 1.67 10.343 1.707 20.67 3.475 20.656 3.553 10.324 1.808 10.314 1.843-10.346-1.671-10.339-1.707L97 310.299l-20.656-3.554-10.325-1.807-10.317-1.843zm23.23-10.622a928.85 928.85 0 018.21-4.771l4.116-2.368 4.123-2.354.34-.194-.105.378-1.838 6.546-.33-.133 5.217-9.313.524-.938-.235 1.046-1.357 6.061v-.057l1.39 5.163 1.365 5.171-1.506-5.131-1.481-5.138-.007-.029.007-.029 1.285-6.076.29.108-5.18 9.335-.757 1.362.427-1.495 1.871-6.536.236.183-4.142 2.325-4.148 2.31a1107.545 1107.545 0 01-8.315 4.574z" fill="#279CAF"/><path d="M72.206 288.776l26.397-13.869s.51.133-.409 1.786c-.912 1.656-25.988 12.083-25.988 12.083z" fill="url(#paint43_linear)"/><path d="M100.359 278.044l8.134 22.862s-4.996-21.72-6.933-24.213l-1.201 1.351z" fill="url(#paint44_linear)"/><path d="M65.074 293.584l-4.83 5.087 41.248 5.44 34.521 8.592-34.384-9.968-36.555-9.151z" fill="url(#paint45_linear)"/><path d="M140.954 313.03h1.665l1.995 7.405-3.66-7.405z" fill="url(#paint46_linear)"/><path d="M54.674 242.08c.836-.022 1.661.04 2.487.119.825.089 1.647.197 2.458.388-.836.021-1.662-.04-2.487-.119-.822-.09-1.644-.198-2.458-.388z" fill="url(#paint47_linear)"/><path d="M67.55 234.341a39.325 39.325 0 01-.869 2.12c-.3.7-.63 1.39-.955 2.08-.337.686-.67 1.369-1.032 2.044l-.543 1.01c-.192.331-.373.668-.576.992.13-.363.28-.712.417-1.067l.452-1.053c.3-.701.63-1.391.956-2.081.337-.686.67-1.369 1.031-2.044a38.53 38.53 0 011.12-2.001z" fill="url(#paint48_linear)"/><path d="M60.444 231.75c.572.679 1.05 1.412 1.502 2.159.446.755.866 1.52 1.191 2.343-.572-.679-1.05-1.412-1.502-2.159-.445-.751-.865-1.52-1.19-2.343z" fill="url(#paint49_linear)"/><path d="M95.465 261.379h8.695" stroke="url(#paint50_linear)" stroke-width=".292" stroke-miterlimit="10"/><path d="M92.847 257.71s1.314.252 1.499.758c.184.507-.3 1.617-.3 1.617" stroke="url(#paint51_linear)" stroke-width=".292" stroke-miterlimit="10"/><path d="M94.386 263.729l1.079.851" stroke="url(#paint52_linear)" stroke-width=".292" stroke-miterlimit="10"/><path d="M59.872 253.56s4.177 3.895 4.637 5.566" stroke="url(#paint53_linear)" stroke-width=".292" stroke-miterlimit="10"/><path d="M63.467 244.394c.13.194.213.417.275.643.061.227.083.467.076.704-.007.238-.05.475-.141.698-.08.222-.214.424-.362.6.087-.216.184-.421.231-.644.055-.215.09-.438.094-.661a4.612 4.612 0 00-.173-1.34z" fill="url(#paint54_linear)"/><path d="M59.94 250.039l-1.183 3.018" stroke="url(#paint55_linear)" stroke-width=".292" stroke-miterlimit="10"/><path d="M57.87 257.002s6.524 1.484 14.542 10.657" stroke="url(#paint56_linear)" stroke-width=".292" stroke-miterlimit="10"/><path d="M60.111 258.554s8.29 5.293 9.343 7.69l-2.75.876" fill="url(#paint57_linear)"/><path d="M70.88 282.244l17.28-16.087" stroke="url(#paint58_linear)" stroke-width=".292" stroke-miterlimit="10"/><path d="M66.218 235.25c-.43.531-.826 1.081-1.21 1.638a22.46 22.46 0 00-1.06 1.721 17.902 17.902 0 00-.887 1.811c-.271.618-.478 1.261-.688 1.912.073-.676.192-1.362.424-2.009.217-.654.5-1.286.836-1.886.673-1.197 1.524-2.311 2.585-3.187z" fill="url(#paint59_linear)"/><path d="M61.53 235.404c.2.112.362.266.51.431.15.166.269.352.373.55.2.392.326.848.247 1.294-.109-.202-.192-.392-.286-.579-.094-.187-.181-.37-.283-.553-.188-.37-.387-.73-.56-1.143z" fill="url(#paint60_linear)"/><path d="M61.631 237.323c.214.165.34.413.438.661.098.252.149.514.174.78.026.266.022.532-.003.794l-.055.391c-.029.13-.054.259-.09.385l.003-.783c-.007-.259-.01-.518-.036-.769a4.835 4.835 0 00-.123-.755c-.069-.244-.152-.489-.308-.704z" fill="url(#paint61_linear)"/><path d="M227.947 229.314a18.44 18.44 0 012.02-1.333 24.44 24.44 0 012.144-1.114l.159-.072-.011.155c-.011.136-.029.269-.044.406a7.172 7.172 0 01-.054.406 7.172 7.172 0 01-.054-.406c-.015-.137-.033-.27-.044-.406l.145.086c-.666.453-1.361.866-2.067 1.247a17.03 17.03 0 01-2.194 1.031z" fill="url(#paint62_linear)"/><path d="M232.74 229.314c-.431.363-.803.743-.955 1.207a1.619 1.619 0 00-.076.726c0 .129.047.255.061.388.029.129.076.259.101.402a3.397 3.397 0 01-.267-.334c-.058-.129-.149-.251-.174-.399-.102-.28-.083-.603.011-.894.101-.291.289-.547.517-.726.232-.187.496-.32.782-.37z" fill="url(#paint63_linear)"/><path d="M230.358 229.537l1.466 3.129-3.135.201 1.669-3.33z" fill="#fff"/><path d="M212.523 242.863l-3.935 1.847a.51.51 0 01-.677-.241l-1.861-3.905a.503.503 0 01.242-.672l3.935-1.847a.51.51 0 01.677.241l1.861 3.905a.503.503 0 01-.242.672z" fill="#F95F8F"/><path d="M219.009 239.82l-3.935 1.847a.51.51 0 01-.676-.241l-1.861-3.906a.504.504 0 01.242-.672l3.935-1.846a.51.51 0 01.677.24l1.861 3.906a.504.504 0 01-.243.672z" fill="#56D0ED"/><path d="M225.638 236.708l-3.935 1.847a.51.51 0 01-.677-.24l-1.861-3.906a.504.504 0 01.243-.672l3.935-1.847a.512.512 0 01.677.241l1.86 3.906a.503.503 0 01-.242.671z" fill="#4DCE62"/><path d="M227.998 237.352l-20.174 9.464a.51.51 0 01-.677-.241l-3.291-6.913a.504.504 0 01.243-.672l20.174-9.464a.51.51 0 01.677.24l3.291 6.914a.504.504 0 01-.243.672z" stroke="#4DCE62" stroke-width=".146" stroke-miterlimit="10"/><path d="M73.578 184.799c9.064-.122 18.129-.173 27.194-.262l27.193-.151c9.065-.065 18.13-.054 27.194-.076l27.194-.05 27.194.047c9.064.025 18.129.01 27.194.075l27.194.151c9.064.09 18.129.144 27.193.266-9.064.122-18.129.176-27.193.266l-27.194.151c-9.065.064-18.13.05-27.194.075l-27.194.047-27.194-.05c-9.064-.026-18.129-.011-27.194-.076l-27.193-.151c-9.061-.086-18.13-.14-27.194-.262z" fill="#666"/><path d="M114.937 200.993l1.723 7.977v-4.858l.981 2.878 1.792-5.997h-4.496z" fill="url(#paint64_linear)"/><path d="M120.103 252.655l3.88 5.055.869-2.048 6.878 5.684-3.873-8.526-7.754-.165z" fill="url(#paint65_linear)"/><defs><linearGradient id="paint0_linear" x1="173.297" y1="300.342" x2="188.323" y2="300.342" gradientUnits="userSpaceOnUse"><stop stop-color="#231F20" stop-opacity=".1"/><stop offset="1" stop-color="#231F20"/></linearGradient><linearGradient id="paint1_linear" x1="255.386" y1="209.236" x2="259.415" y2="209.236" gradientUnits="userSpaceOnUse"><stop stop-color="#fff"/><stop offset="1" stop-color="#fff" stop-opacity="0"/></linearGradient><linearGradient id="paint2_linear" x1="256.321" y1="203.779" x2="264.259" y2="203.779" gradientUnits="userSpaceOnUse"><stop stop-color="#fff"/><stop offset="1" stop-color="#fff" stop-opacity="0"/></linearGradient><linearGradient id="paint3_linear" x1="256.776" y1="203.071" x2="263.046" y2="203.071" gradientUnits="userSpaceOnUse"><stop stop-color="#fff"/><stop offset="1" stop-color="#fff" stop-opacity="0"/></linearGradient><linearGradient id="paint4_linear" x1="257.098" y1="202.604" x2="262.409" y2="202.604" gradientUnits="userSpaceOnUse"><stop stop-color="#fff"/><stop offset="1" stop-color="#fff" stop-opacity="0"/></linearGradient><linearGradient id="paint5_linear" x1="261.203" y1="206.793" x2="262.148" y2="206.793" gradientUnits="userSpaceOnUse"><stop stop-color="#fff"/><stop offset="1" stop-color="#fff" stop-opacity="0"/></linearGradient><linearGradient id="paint6_linear" x1="262.754" y1="205.847" x2="264.566" y2="205.847" gradientUnits="userSpaceOnUse"><stop stop-color="#fff"/><stop offset="1" stop-color="#fff" stop-opacity="0"/></linearGradient><linearGradient id="paint7_linear" x1="264.003" y1="200.113" x2="268.414" y2="200.113" gradientUnits="userSpaceOnUse"><stop stop-color="#fff"/><stop offset="1" stop-color="#fff" stop-opacity="0"/></linearGradient><linearGradient id="paint8_linear" x1="264.886" y1="200.113" x2="267.531" y2="200.113" gradientUnits="userSpaceOnUse"><stop stop-color="#fff"/><stop offset="1" stop-color="#fff" stop-opacity="0"/></linearGradient><linearGradient id="paint9_linear" x1="258.91" y1="220.452" x2="266.964" y2="220.452" gradientUnits="userSpaceOnUse"><stop stop-color="#fff"/><stop offset="1" stop-color="#fff" stop-opacity="0"/></linearGradient><linearGradient id="paint10_linear" x1="267.142" y1="231.066" x2="283.918" y2="231.066" gradientUnits="userSpaceOnUse"><stop stop-color="#fff"/><stop offset="1" stop-color="#fff" stop-opacity="0"/></linearGradient><linearGradient id="paint11_linear" x1="269.067" y1="223.123" x2="281.139" y2="223.123" gradientUnits="userSpaceOnUse"><stop stop-color="#fff"/><stop offset="1" stop-color="#fff" stop-opacity="0"/></linearGradient><linearGradient id="paint12_linear" x1="260.74" y1="215.763" x2="261.896" y2="215.763" gradientUnits="userSpaceOnUse"><stop stop-color="#fff"/><stop offset="1" stop-color="#fff" stop-opacity="0"/></linearGradient><linearGradient id="paint13_linear" x1="243.734" y1="241.106" x2="255.591" y2="241.106" gradientUnits="userSpaceOnUse"><stop stop-color="#fff"/><stop offset="1" stop-color="#fff" stop-opacity="0"/></linearGradient><linearGradient id="paint14_linear" x1="260.11" y1="264.724" x2="272.524" y2="264.724" gradientUnits="userSpaceOnUse"><stop stop-color="#fff"/><stop offset="1" stop-color="#fff" stop-opacity="0"/></linearGradient><linearGradient id="paint15_linear" x1="240.229" y1="233.033" x2="244.198" y2="233.033" gradientUnits="userSpaceOnUse"><stop stop-color="#fff"/><stop offset="1" stop-color="#fff" stop-opacity="0"/></linearGradient><linearGradient id="paint16_linear" x1="241.761" y1="232.812" x2="245.277" y2="232.812" gradientUnits="userSpaceOnUse"><stop stop-color="#fff"/><stop offset="1" stop-color="#fff" stop-opacity="0"/></linearGradient><linearGradient id="paint17_linear" x1="272.053" y1="231.018" x2="285.843" y2="231.018" gradientUnits="userSpaceOnUse"><stop stop-color="#fff"/><stop offset="1" stop-color="#fff" stop-opacity="0"/></linearGradient><linearGradient id="paint18_linear" x1="256.247" y1="246.221" x2="256.821" y2="246.221" gradientUnits="userSpaceOnUse"><stop stop-color="#fff"/><stop offset="1" stop-color="#fff" stop-opacity="0"/></linearGradient><linearGradient id="paint19_linear" x1="-nan" y1="-nan" x2="-nan" y2="-nan" gradientUnits="userSpaceOnUse"><stop stop-color="#fff"/><stop offset="1" stop-color="#fff" stop-opacity="0"/></linearGradient><linearGradient id="paint20_linear" x1="257.521" y1="246.531" x2="258.479" y2="246.531" gradientUnits="userSpaceOnUse"><stop stop-color="#fff"/><stop offset="1" stop-color="#fff" stop-opacity="0"/></linearGradient><linearGradient id="paint21_linear" x1="256.405" y1="253.528" x2="259.422" y2="253.528" gradientUnits="userSpaceOnUse"><stop stop-color="#fff"/><stop offset="1" stop-color="#fff" stop-opacity="0"/></linearGradient><linearGradient id="paint22_linear" x1="253.15" y1="253.098" x2="256.069" y2="253.098" gradientUnits="userSpaceOnUse"><stop stop-color="#fff"/><stop offset="1" stop-color="#fff" stop-opacity="0"/></linearGradient><linearGradient id="paint23_linear" x1="253.192" y1="254.22" x2="257.083" y2="254.22" gradientUnits="userSpaceOnUse"><stop stop-color="#fff"/><stop offset="1" stop-color="#fff" stop-opacity="0"/></linearGradient><linearGradient id="paint24_linear" x1="253.58" y1="255.712" x2="258.412" y2="255.712" gradientUnits="userSpaceOnUse"><stop stop-color="#fff"/><stop offset="1" stop-color="#fff" stop-opacity="0"/></linearGradient><linearGradient id="paint25_linear" x1="273.703" y1="290.589" x2="274.624" y2="290.589" gradientUnits="userSpaceOnUse"><stop stop-color="#231F20"/><stop offset="1" stop-color="#231F20" stop-opacity="0"/></linearGradient><linearGradient id="paint26_linear" x1="272.134" y1="228.056" x2="282.31" y2="228.056" gradientUnits="userSpaceOnUse"><stop stop-color="#231F20" stop-opacity=".1"/><stop offset="1" stop-color="#231F20"/></linearGradient><linearGradient id="paint27_linear" x1="264.532" y1="244.959" x2="273.591" y2="244.959" gradientUnits="userSpaceOnUse"><stop stop-color="#231F20" stop-opacity=".1"/><stop offset="1" stop-color="#231F20"/></linearGradient><linearGradient id="paint28_linear" x1="274.058" y1="306.533" x2="282.535" y2="306.533" gradientUnits="userSpaceOnUse"><stop stop-color="#231F20" stop-opacity=".1"/><stop offset="1" stop-color="#231F20"/></linearGradient><linearGradient id="paint29_linear" x1="263.905" y1="306.399" x2="271.229" y2="306.399" gradientUnits="userSpaceOnUse"><stop stop-color="#231F20" stop-opacity=".1"/><stop offset="1" stop-color="#231F20"/></linearGradient><linearGradient id="paint30_linear" x1="260.606" y1="283.346" x2="283.75" y2="283.346" gradientUnits="userSpaceOnUse"><stop stop-color="#231F20" stop-opacity=".1"/><stop offset="1" stop-color="#231F20"/></linearGradient><linearGradient id="paint31_linear" x1="48.94" y1="274.2" x2="67.99" y2="274.2" gradientUnits="userSpaceOnUse"><stop stop-color="#00A651"/><stop offset=".063" stop-color="#00834C"/><stop offset=".138" stop-color="#006046"/><stop offset=".22" stop-color="#004242"/><stop offset=".311" stop-color="#002A3E"/><stop offset=".413" stop-color="#00173B"/><stop offset=".533" stop-color="#000A39"/><stop offset=".687" stop-color="#000238"/><stop offset="1" stop-color="#000038"/></linearGradient><linearGradient id="paint32_linear" x1="38.952" y1="280.219" x2="48.94" y2="280.219" gradientUnits="userSpaceOnUse"><stop stop-color="#00A651"/><stop offset=".063" stop-color="#00834C"/><stop offset=".138" stop-color="#006046"/><stop offset=".22" stop-color="#004242"/><stop offset=".311" stop-color="#002A3E"/><stop offset=".413" stop-color="#00173B"/><stop offset=".533" stop-color="#000A39"/><stop offset=".687" stop-color="#000238"/><stop offset="1" stop-color="#000038"/></linearGradient><linearGradient id="paint33_linear" x1="39.27" y1="285.497" x2="49.693" y2="285.497" gradientUnits="userSpaceOnUse"><stop stop-color="#00A651"/><stop offset=".063" stop-color="#00834C"/><stop offset=".138" stop-color="#006046"/><stop offset=".22" stop-color="#004242"/><stop offset=".311" stop-color="#002A3E"/><stop offset=".413" stop-color="#00173B"/><stop offset=".533" stop-color="#000A39"/><stop offset=".687" stop-color="#000238"/><stop offset="1" stop-color="#000038"/></linearGradient><linearGradient id="paint34_linear" x1="53.777" y1="267.675" x2="57.869" y2="267.675" gradientUnits="userSpaceOnUse"><stop stop-color="#00A651"/><stop offset=".063" stop-color="#00834C"/><stop offset=".138" stop-color="#006046"/><stop offset=".22" stop-color="#004242"/><stop offset=".311" stop-color="#002A3E"/><stop offset=".413" stop-color="#00173B"/><stop offset=".533" stop-color="#000A39"/><stop offset=".687" stop-color="#000238"/><stop offset="1" stop-color="#000038"/></linearGradient><linearGradient id="paint35_linear" x1="56.171" y1="253.793" x2="59.509" y2="253.793" gradientUnits="userSpaceOnUse"><stop stop-color="#00A651"/><stop offset=".063" stop-color="#00834C"/><stop offset=".138" stop-color="#006046"/><stop offset=".22" stop-color="#004242"/><stop offset=".311" stop-color="#002A3E"/><stop offset=".413" stop-color="#00173B"/><stop offset=".533" stop-color="#000A39"/><stop offset=".687" stop-color="#000238"/><stop offset="1" stop-color="#000038"/></linearGradient><linearGradient id="paint36_linear" x1="41.474" y1="305.802" x2="141.47" y2="305.802" gradientUnits="userSpaceOnUse"><stop stop-color="#000038"/><stop offset=".647" stop-color="#006E49"/><stop offset="1" stop-color="#00A651"/></linearGradient><linearGradient id="paint37_linear" x1="141.299" y1="318.184" x2="148.94" y2="318.184" gradientUnits="userSpaceOnUse"><stop stop-color="#000038"/><stop offset=".647" stop-color="#006E49"/><stop offset="1" stop-color="#00A651"/></linearGradient><linearGradient id="paint38_linear" x1="80.352" y1="294.095" x2="98.746" y2="294.095" gradientUnits="userSpaceOnUse"><stop stop-color="#000038"/><stop offset=".647" stop-color="#006E49"/><stop offset="1" stop-color="#00A651"/></linearGradient><linearGradient id="paint39_linear" x1="57.844" y1="249.974" x2="60.246" y2="249.974" gradientUnits="userSpaceOnUse"><stop stop-color="#231F20" stop-opacity=".1"/><stop offset="1" stop-color="#231F20"/></linearGradient><linearGradient id="paint40_linear" x1="62.829" y1="276.578" x2="67.99" y2="276.578" gradientUnits="userSpaceOnUse"><stop stop-color="#231F20" stop-opacity=".1"/><stop offset="1" stop-color="#231F20"/></linearGradient><linearGradient id="paint41_linear" x1="259.533" y1="213.87" x2="263.872" y2="213.87" gradientUnits="userSpaceOnUse"><stop stop-color="#231F20" stop-opacity=".1"/><stop offset="1" stop-color="#231F20"/></linearGradient><linearGradient id="paint42_linear" x1="278.504" y1="239.677" x2="287.423" y2="239.677" gradientUnits="userSpaceOnUse"><stop stop-color="#231F20" stop-opacity=".1"/><stop offset="1" stop-color="#231F20"/></linearGradient><linearGradient id="paint43_linear" x1="72.206" y1="281.842" x2="98.746" y2="281.842" gradientUnits="userSpaceOnUse"><stop stop-color="#fff" stop-opacity="0"/><stop offset="1" stop-color="#fff"/></linearGradient><linearGradient id="paint44_linear" x1="100.358" y1="288.801" x2="108.492" y2="288.801" gradientUnits="userSpaceOnUse"><stop stop-color="#fff" stop-opacity="0"/><stop offset="1" stop-color="#fff"/></linearGradient><linearGradient id="paint45_linear" x1="60.246" y1="303.143" x2="136.012" y2="303.143" gradientUnits="userSpaceOnUse"><stop stop-color="#fff" stop-opacity="0"/><stop offset="1" stop-color="#fff"/></linearGradient><linearGradient id="paint46_linear" x1="140.955" y1="316.732" x2="144.613" y2="316.732" gradientUnits="userSpaceOnUse"><stop stop-color="#fff" stop-opacity="0"/><stop offset="1" stop-color="#fff"/></linearGradient><linearGradient id="paint47_linear" x1="54.661" y1="242.332" x2="59.635" y2="242.332" gradientUnits="userSpaceOnUse"><stop stop-color="#fff" stop-opacity="0"/><stop offset="1" stop-color="#fff"/></linearGradient><linearGradient id="paint48_linear" x1="63.413" y1="238.463" x2="67.715" y2="238.463" gradientUnits="userSpaceOnUse"><stop stop-color="#fff" stop-opacity="0"/><stop offset="1" stop-color="#fff"/></linearGradient><linearGradient id="paint49_linear" x1="60.421" y1="234.083" x2="63.157" y2="233.919" gradientUnits="userSpaceOnUse"><stop stop-color="#fff" stop-opacity="0"/><stop offset="1" stop-color="#fff"/></linearGradient><linearGradient id="paint50_linear" x1="-nan" y1="-nan" x2="-nan" y2="-nan" gradientUnits="userSpaceOnUse"><stop stop-color="#fff" stop-opacity="0"/><stop offset="1" stop-color="#fff"/></linearGradient><linearGradient id="paint51_linear" x1="92.812" y1="258.846" x2="94.567" y2="258.846" gradientUnits="userSpaceOnUse"><stop stop-color="#fff" stop-opacity="0"/><stop offset="1" stop-color="#fff"/></linearGradient><linearGradient id="paint52_linear" x1="94.273" y1="264.155" x2="95.577" y2="264.155" gradientUnits="userSpaceOnUse"><stop stop-color="#fff" stop-opacity="0"/><stop offset="1" stop-color="#fff"/></linearGradient><linearGradient id="paint53_linear" x1="59.749" y1="256.302" x2="64.685" y2="256.302" gradientUnits="userSpaceOnUse"><stop stop-color="#fff" stop-opacity="0"/><stop offset="1" stop-color="#fff"/></linearGradient><linearGradient id="paint54_linear" x1="63.238" y1="245.715" x2="63.822" y2="245.715" gradientUnits="userSpaceOnUse"><stop stop-color="#fff" stop-opacity="0"/><stop offset="1" stop-color="#fff"/></linearGradient><linearGradient id="paint55_linear" x1="58.588" y1="251.547" x2="60.11" y2="251.547" gradientUnits="userSpaceOnUse"><stop stop-color="#fff" stop-opacity="0"/><stop offset="1" stop-color="#fff"/></linearGradient><linearGradient id="paint56_linear" x1="57.828" y1="262.301" x2="72.547" y2="262.301" gradientUnits="userSpaceOnUse"><stop stop-color="#fff" stop-opacity="0"/><stop offset="1" stop-color="#fff"/></linearGradient><linearGradient id="paint57_linear" x1="60.111" y1="262.835" x2="69.454" y2="262.835" gradientUnits="userSpaceOnUse"><stop stop-color="#fff" stop-opacity="0"/><stop offset="1" stop-color="#fff"/></linearGradient><linearGradient id="paint58_linear" x1="70.757" y1="274.2" x2="88.282" y2="274.2" gradientUnits="userSpaceOnUse"><stop stop-color="#fff" stop-opacity="0"/><stop offset="1" stop-color="#fff"/></linearGradient><linearGradient id="paint59_linear" x1="62.192" y1="238.791" x2="66.344" y2="238.791" gradientUnits="userSpaceOnUse"><stop stop-color="#fff" stop-opacity="0"/><stop offset="1" stop-color="#fff"/></linearGradient><linearGradient id="paint60_linear" x1="61.396" y1="236.541" x2="62.836" y2="236.541" gradientUnits="userSpaceOnUse"><stop stop-color="#fff" stop-opacity="0"/><stop offset="1" stop-color="#fff"/></linearGradient><linearGradient id="paint61_linear" x1="61.572" y1="238.829" x2="62.265" y2="238.829" gradientUnits="userSpaceOnUse"><stop stop-color="#fff" stop-opacity="0"/><stop offset="1" stop-color="#fff"/></linearGradient><linearGradient id="paint62_linear" x1="227.86" y1="228.057" x2="232.343" y2="228.057" gradientUnits="userSpaceOnUse"><stop stop-color="#fff" stop-opacity="0"/><stop offset="1" stop-color="#fff"/></linearGradient><linearGradient id="paint63_linear" x1="231.349" y1="230.677" x2="232.81" y2="230.677" gradientUnits="userSpaceOnUse"><stop stop-color="#fff" stop-opacity="0"/><stop offset="1" stop-color="#fff"/></linearGradient><linearGradient id="paint64_linear" x1="114.936" y1="204.981" x2="119.432" y2="204.981" gradientUnits="userSpaceOnUse"><stop stop-color="#fff"/><stop offset="1" stop-color="#fff" stop-opacity="0"/></linearGradient><linearGradient id="paint65_linear" x1="120.101" y1="257.001" x2="131.731" y2="257.001" gradientUnits="userSpaceOnUse"><stop stop-color="#fff"/><stop offset="1" stop-color="#fff" stop-opacity="0"/></linearGradient></defs></svg>