<svg width="720" height="469" fill="none" xmlns="http://www.w3.org/2000/svg"><g clip-path="url(#clip0)"><g clip-path="url(#clip1)"><path d="M223.546 400.532h221.52l134.507 49.053-490.447-2.773 134.42-46.28z" fill="#F4F4F4"/><path d="M314.547 172.079c.52-8.32 5.46-15.427 12.74-18.2 6.413-2.514 11.526-1.907 16.986 5.2 8.494 14.386 35.014 98.973 34.494 99.406 0 0-49.747-2.686-70.807 13.607l6.587-100.013z" fill="#F95F8F"/><path d="M327.98 148.678c5.983 0 10.833-4.85 10.833-10.833 0-5.983-4.85-10.833-10.833-10.833-5.983 0-10.834 4.85-10.834 10.833 0 5.983 4.851 10.833 10.834 10.833zm4.044 12.253c3.761-.722 6.48-3.022 6.074-5.137-.407-2.116-3.784-3.245-7.545-2.523s-6.48 3.022-6.074 5.138c.406 2.115 3.784 3.245 7.545 2.522z" fill="#EAB575"/><path d="M344.207 270.544c19.556-3.755 34.94-9.238 34.362-12.247-.578-3.008-16.899-2.403-36.454 1.353-19.555 3.755-34.94 9.238-34.362 12.247.578 3.008 16.899 2.403 36.454-1.353z" fill="#000"/><path d="M359.873 262.472l-11.006 70.72c-1.734 9.88-6.154 18.98-12.914 26.433l-39.086 43.507-11.874-2.34 34.58-62.66 3.9-74.013c-.086.086 15.514-6.76 36.4-1.647z" fill="#2B9EAA"/><path d="M338.9 411.192l-38.393-19.067-11.44 10.227-1.82-6.154-6.327 16.207 53.82 6.153c-.087.087 2.167-5.373 4.16-7.366z" fill="#F95F8F"/><path d="M280.746 412.492l-6.76 7.28 76.007 4.593c1.473.087 2.773-.866 3.207-2.253l.433-1.647s2.687-2.947-6.673-9.013c-9.274-6.067-12.394 7.193-12.394 7.193l-53.82-6.153z" fill="#fff" stroke="#231F20" stroke-miterlimit="10"/><path d="M334.826 420.812c-4.42-.174-8.753-.52-13.173-.867-4.42-.26-8.754-.78-13.174-1.127-4.42-.433-8.753-.866-13.173-1.3l-6.587-.78c-2.253-.26-4.333-.52-6.586-.866 2.253.086 4.42.26 6.673.346l6.673.434c4.42.346 8.754.78 13.174 1.126 4.42.434 8.753.867 13.173 1.3 4.247.607 8.667 1.04 13 1.734z" fill="#231F20"/><path d="M334.74 411.711c-3.12-1.3-6.24-2.686-9.274-4.16-3.12-1.386-6.153-2.86-9.186-4.333-3.033-1.473-6.067-2.947-9.1-4.507l-4.507-2.34c-1.473-.866-3.033-1.56-4.506-2.426 1.56.606 3.119 1.386 4.679 1.993l4.594 2.08c3.12 1.387 6.153 2.86 9.186 4.333 3.034 1.474 6.067 2.947 9.1 4.507 3.034 1.647 6.067 3.207 9.014 4.853z" fill="#fff"/><path d="M324.859 410.672l.607.347c.953.52 2.08.173 2.687-.78l1.906-3.467c.52-.953.174-2.08-.78-2.687l-.606-.346c-.954-.52-2.08-.174-2.687.78l-1.907 3.466c-.52.867-.173 2.08.78 2.687z" fill="#fff"/><path d="M324.86 410.672c.346.173.78.433 1.213.52.433.086.953 0 1.3-.26.347-.26.607-.52.78-1.04l.52-1.214.52-1.213.26-.607.173-.26c0-.086.087-.173.087-.26.173-.78-.087-1.473-.78-1.733l-.52-.347c-.173-.086-.26-.173-.433-.173-.347-.087-.78 0-1.04.173-.347.174-.52.347-.867.867l-.78 1.127c-.433.78-1.04 1.473-1.387 2.34-.173.346-.173.953 0 1.3.26.086.607.433.954.78zm0 0c-.867-.434-1.214-1.474-.954-2.34.347-.867.78-1.647 1.127-2.514l.52-1.213c.173-.347.433-.953.953-1.213.434-.26 1.04-.434 1.56-.347.26 0 .52.173.78.26l.52.26c.434.26.867.78 1.127 1.3.173.52.173 1.127 0 1.647 0 .086-.087.26-.173.346l-.174.26-.346.52-.78 1.127-.78 1.127c-.174.346-.52.866-1.04 1.04-.347.173-.954.26-1.387.173-.087 0-.52-.26-.953-.433z" fill="#000"/><path d="M318.88 407.292l.606.346c.954.52 2.08.174 2.687-.78l1.907-3.466c.52-.954.173-2.08-.78-2.687l-.607-.347c-.953-.52-2.08-.173-2.687.78l-1.906 3.467c-.434 1.04-.174 2.167.78 2.687z" fill="#fff"/><path d="M318.88 407.292c.346.173.78.433 1.213.52.433.086.953 0 1.3-.26.347-.26.607-.52.78-1.04l.52-1.214.52-1.213.26-.607.173-.26c0-.086.087-.173.087-.26.173-.78-.087-1.473-.78-1.733l-.52-.347c-.173-.086-.26-.173-.433-.173-.347-.087-.78 0-1.04.173-.347.174-.52.347-.867.867l-.78 1.127c-.433.78-1.04 1.473-1.387 2.34-.173.346-.173.953 0 1.3.26.26.607.606.954.78zm0 0c-.867-.434-1.214-1.474-.954-2.34.347-.867.78-1.647 1.127-2.514l.52-1.213c.173-.347.433-.953.953-1.213.434-.26 1.04-.434 1.56-.347.26 0 .52.173.78.26l.52.26c.434.26.867.78 1.127 1.3.173.52.173 1.127 0 1.647 0 .086-.087.26-.173.346l-.174.26-.346.52-.78 1.127-.78 1.127c-.174.346-.52.866-1.04 1.04-.347.173-.954.26-1.387.173-.173.087-.52-.26-.953-.433z" fill="#000"/><path d="M312.294 404.519l.606.346c.954.52 2.08.174 2.687-.78l1.907-3.466c.52-.954.173-2.08-.78-2.687l-.607-.347c-.953-.52-2.08-.173-2.687.78l-1.906 3.467c-.52.953-.087 2.167.78 2.687z" fill="#fff"/><path d="M312.293 404.518c.347.174.78.434 1.214.52.433.087.953 0 1.3-.26.346-.26.606-.52.78-1.04l.52-1.213.52-1.213.26-.607.173-.26c0-.087.087-.173.087-.26.173-.78-.087-1.473-.78-1.733l-.52-.347c-.174-.087-.26-.173-.434-.173-.346-.087-.78 0-1.04.173-.346.173-.52.347-.866.867l-.78 1.126c-.434.78-1.04 1.474-1.387 2.34-.173.347-.173.954 0 1.3.347.174.607.52.953.78zm0 0c-.866-.433-1.213-1.473-.953-2.34.347-.866.78-1.646 1.127-2.513l.52-1.213c.173-.347.433-.954.953-1.214.433-.26 1.04-.433 1.56-.346.26 0 .52.173.78.26l.52.26c.433.26.867.78 1.127 1.3.173.52.173 1.126 0 1.646 0 .087-.087.26-.174.347l-.173.26-.347.52-.78 1.127-.78 1.126c-.173.347-.52.867-1.04 1.04-.346.174-.953.26-1.386.174-.087.086-.434-.174-.954-.434z" fill="#000"/><path d="M305.794 400.878l.606.347c.954.52 2.08.173 2.687-.78l1.907-3.467c.52-.953.173-2.08-.78-2.686l-.607-.347c-.953-.52-2.08-.173-2.687.78l-1.906 3.467c-.52 1.04-.174 2.253.78 2.686z" fill="#fff"/><path d="M305.793 400.878c.347.174.78.434 1.214.52.433.087.953 0 1.3-.26.346-.26.606-.52.78-1.04l.52-1.213.52-1.213.26-.607.173-.26c0-.087.087-.173.087-.26.173-.78-.087-1.473-.78-1.733l-.52-.347c-.174-.087-.26-.173-.434-.173-.346-.087-.78 0-1.04.173-.346.173-.52.347-.866.867l-.78 1.126c-.434.78-1.04 1.474-1.387 2.34-.173.347-.173.954 0 1.3.26.174.52.607.953.78zm0 0c-.866-.433-1.213-1.473-.953-2.34.347-.866.78-1.646 1.127-2.513l.52-1.213c.173-.347.433-.954.953-1.214.433-.26 1.04-.433 1.56-.346.26 0 .52.173.78.26l.52.26c.433.26.867.78 1.127 1.3.173.52.173 1.126 0 1.646 0 .087-.087.26-.174.347l-.173.26-.347.52-.78 1.127-.78 1.126c-.173.347-.52.867-1.04 1.04-.346.174-.953.26-1.386.174-.174.086-.52-.174-.954-.434zm28.86 17.767c.347.867.434 1.56.52 2.427 0 .866-.087 1.56-.346 2.426-.347-.866-.434-1.56-.52-2.426-.087-.867-.087-1.56.346-2.427z" fill="#000"/><path d="M351.987 420.378c-2.514.174-4.94.087-7.54-.086-2.514-.174-4.94-.434-7.454-1.04 2.514-.174 4.94-.087 7.54.086 2.514.26 5.027.52 7.454 1.04z" fill="#231F20"/><path d="M365.42 256.405l6.153 70.46c.433 5.72-.52 11.44-3.033 16.64l-29.294 59.887-12.046.867 16.9-71.327-15.254-70.113c0 .086 8.147-3.64 36.574-6.414z" fill="#56D0ED"/><path d="M402.34 414.572l-55.207-24.7-17.42 11.093-4.16-1.387-4.94 20.02 76.267 5.72c-.087 0 2.86-7.626 5.46-10.746z" fill="#F95F8F"/><path d="M320.527 419.685l-9.1 10.66 107.293 2.253c1.993 0 3.9-1.386 4.333-3.293l.52-2.34s3.64-4.333-9.88-12.393c-13.433-8.06-17.073 10.833-17.073 10.833l-76.093-5.72z" fill="#fff" stroke="#231F20" stroke-miterlimit="10"/><path d="M397.14 428.352c-6.153-.087-12.48-.347-18.633-.52-6.154-.26-12.48-.52-18.634-.867l-18.633-1.04-9.273-.52c-3.12-.26-6.154-.433-9.274-.607 3.12.087 6.154.174 9.274.26l9.273.347 18.633.867c6.154.346 12.394.606 18.634 1.04 6.24.086 12.48.52 18.633 1.04z" fill="#231F20"/><path d="M396.534 415.611c-4.42-1.733-8.84-3.64-13.26-5.46-4.42-1.82-8.754-3.813-13.174-5.633-4.333-1.907-8.753-3.9-13.086-5.807l-6.587-2.946c-2.08-1.04-4.333-1.994-6.413-3.034a216.24 216.24 0 016.673 2.687l6.673 2.773c4.42 1.82 8.754 3.814 13.174 5.634 4.333 1.906 8.753 3.9 13.086 5.806 4.247 1.907 8.58 3.9 12.914 5.98z" fill="#000"/><path d="M382.147 414.311l1.733.953c1.127.52 2.514.087 2.947-1.04l2.947-5.98c.52-1.126.086-2.513-1.04-2.946l-1.734-.954c-1.126-.52-2.513-.086-2.946 1.04l-2.947 5.98c-.52 1.127-.087 2.427 1.04 2.947z" fill="#fff"/><path d="M382.147 414.312l1.733.866c.52.26 1.3.26 1.82 0 .607-.26 1.04-.866 1.214-1.386l.866-1.734 1.56-3.64c.174-.26.26-.52.26-.866.087-.26 0-.52 0-.867-.086-.52-.433-.953-.953-1.213l-1.733-.954c-.434-.26-1.04-.26-1.56-.086-.26.086-.434.26-.607.433a1.67 1.67 0 00-.433.78l-.954 1.733-1.906 3.38c-.347.52-.52 1.214-.347 1.82 0 .954.433 1.474 1.04 1.734zm0 0c-.52-.26-1.04-.867-1.213-1.474-.174-.606 0-1.386.346-1.906l1.56-3.64.867-1.734c.087-.26.26-.606.52-.953.26-.26.52-.52.953-.607.78-.26 1.56-.26 2.254.087l1.733.867c.78.346 1.213 1.04 1.387 1.82.086.346.086.78 0 1.213-.087.347-.26.78-.434 1.04l-1.906 3.38-.954 1.733c-.26.52-.78 1.214-1.386 1.387-.607.26-1.387.173-1.907-.087l-1.82-1.126z" fill="#000"/><path d="M373.567 410.064l1.733.954c1.127.52 2.514.086 2.947-1.04l2.947-5.98c.52-1.127.086-2.514-1.04-2.947l-1.734-.953c-1.126-.52-2.513-.087-2.946 1.04l-2.947 5.98c-.52 1.04-.087 2.426 1.04 2.946z" fill="#fff"/><path d="M373.567 410.065l1.733.867c.52.26 1.3.26 1.82 0 .607-.26 1.04-.867 1.214-1.387l.866-1.733 1.56-3.64c.174-.26.26-.52.26-.867.087-.26 0-.52 0-.867-.086-.52-.433-.953-.953-1.213l-1.733-.953c-.434-.26-1.04-.26-1.56-.087-.26.087-.434.26-.607.433a1.68 1.68 0 00-.433.78l-.954 1.734-1.906 3.38c-.347.52-.52 1.213-.347 1.82 0 .866.347 1.386 1.04 1.733zm0 0c-.52-.26-1.04-.867-1.213-1.473-.174-.607 0-1.387.346-1.907l1.56-3.64.867-1.733c.087-.26.26-.607.52-.954.26-.26.52-.52.953-.606.78-.26 1.56-.26 2.254.086l1.733.867c.78.347 1.213 1.04 1.387 1.82.086.347.086.78 0 1.213-.087.347-.26.78-.434 1.04l-1.906 3.38-.954 1.734c-.26.52-.78 1.213-1.386 1.386-.607.26-1.387.174-1.907-.086l-1.82-1.127z" fill="#000"/><path d="M364.12 406.511l1.733.953c1.127.52 2.514.087 2.947-1.04l2.947-5.98c.52-1.127.086-2.513-1.04-2.947l-1.734-.953c-1.126-.52-2.513-.087-2.946 1.04l-2.947 5.98c-.52.953-.087 2.34 1.04 2.947z" fill="#fff"/><path d="M364.12 406.511l1.733.867c.52.26 1.301.26 1.821 0 .606-.26 1.039-.867 1.213-1.387l.866-1.733 1.561-3.64c.173-.26.26-.52.26-.867.086-.26 0-.52 0-.866-.087-.52-.434-.954-.954-1.214l-1.733-.953c-.434-.26-1.04-.26-1.56-.087-.26.087-.434.26-.607.434a1.67 1.67 0 00-.433.78l-.953 1.733-1.907 3.38c-.347.52-.52 1.213-.347 1.82.087.78.434 1.473 1.04 1.733zm0 0c-.52-.26-1.04-.866-1.213-1.473-.173-.607 0-1.387.347-1.907l1.56-3.64.866-1.733c.087-.26.26-.607.52-.953.26-.26.52-.52.953-.607.78-.26 1.561-.26 2.254.087l1.733.866c.78.347 1.213 1.04 1.387 1.82.086.347.086.78 0 1.214-.087.346-.26.78-.434 1.04l-1.906 3.38-.953 1.733c-.26.52-.78 1.213-1.387 1.387-.607.26-1.387.173-1.907-.087l-1.82-1.127z" fill="#000"/><path d="M354.76 401.744l1.734.953c1.126.52 2.513.087 2.946-1.04l2.947-5.98c.52-1.126.087-2.513-1.04-2.946l-1.733-.954c-1.127-.52-2.514-.086-2.947 1.04l-2.947 5.98c-.52 1.04-.086 2.427 1.04 2.947z" fill="#fff"/><path d="M354.76 401.745l1.734.866c.52.26 1.3.26 1.82 0 .606-.26 1.04-.866 1.213-1.386l.867-1.734 1.56-3.64c.173-.26.26-.52.26-.866.086-.26 0-.52 0-.867-.087-.52-.434-.953-.954-1.213l-1.733-.954c-.433-.26-1.04-.26-1.56-.086-.26.086-.433.26-.607.433a1.678 1.678 0 00-.433.78l-.953 1.733-1.907 3.38c-.347.52-.52 1.214-.347 1.82 0 .867.347 1.387 1.04 1.734zm0 0c-.52-.26-1.04-.867-1.213-1.474-.173-.606 0-1.386.347-1.906l1.56-3.64.866-1.734c.087-.26.26-.606.52-.953.26-.26.52-.52.954-.607.78-.26 1.56-.26 2.253.087l1.733.867c.78.346 1.214 1.04 1.387 1.82.087.346.087.78 0 1.213-.087.347-.26.78-.433 1.04l-1.907 3.38-.953 1.733c-.26.52-.78 1.214-1.387 1.387-.607.26-1.387.173-1.907-.087l-1.82-1.126zm42.033 23.573c.434 1.127.52 2.254.607 3.294.087 1.126 0 2.253-.26 3.38-.433-1.127-.52-2.254-.607-3.294-.086-1.126 0-2.166.26-3.38z" fill="#000"/><path d="M421.32 426.878c-3.466.174-7.106.174-10.573 0-3.467-.173-7.02-.346-10.487-.953 3.467-.173 7.107-.173 10.574 0 3.466.173 7.02.433 10.486.953z" fill="#231F20"/><path d="M367.5 422.632l4.853-11.354-9.966-3.64-7.194 13.954 12.307 1.04z" stroke="#000" stroke-width=".5" stroke-miterlimit="10"/><path d="M330.482 145.389l-5.709 2.521 3.712 8.404 5.708-2.521-3.711-8.404z" fill="#EAB575"/><path d="M320.267 265.072s-2.514 15.167 14.646 25.913l7.107-28.166-3.64-2.687c0 .087-15.167 3.553-18.113 4.94z" fill="#56D0ED"/><path d="M346.613 265.072l2.6 16.726 2.514 16.727 4.853 33.367-.26-.347 5.2 1.907 1.473.52-1.56.26-7.366 1.56.086-.867 4.074 1.82.346.173-.173.347c-3.293 8.753-6.673 17.507-10.053 26.26l-5.114 13.087-5.2 13.086 4.767-13.086 4.853-13.174c3.207-8.84 6.587-17.593 9.794-26.346l.173.52-4.073-1.82-1.214-.52 1.3-.26 7.367-1.56-.087.866-5.2-1.906-.26-.087v-.26l-4.68-33.367-2.34-16.726-1.82-16.9z" fill="#fff"/><path d="M354.327 277.465c.52-2.687 1.473-5.2 2.34-7.627.953-2.513 1.906-4.94 3.206-7.366-.52 2.686-1.473 5.2-2.34 7.626-.866 2.6-1.906 5.027-3.206 7.367z" fill="#2B9EAA"/><path d="M325.986 177.278c1.387 5.72 2.687 11.44 3.987 17.074 1.3 5.72 2.513 11.44 3.727 17.16 1.213 5.72 2.426 11.44 3.466 17.16l1.647 8.58c.52 2.86 1.127 5.72 1.56 8.666-.78-2.86-1.387-5.72-1.993-8.58l-1.907-8.58c-1.3-5.72-2.513-11.44-3.727-17.16-1.213-5.72-2.426-11.44-3.466-17.16-1.214-5.633-2.34-11.353-3.294-17.16z" fill="url(#paint0_linear)"/><path opacity=".34" d="M365.42 256.405s-41.947 12.134-41.6 23.487c0 0-4.593-7.02-3.467-14.907-.086.087 17.68-6.326 45.067-8.58z" fill="url(#paint1_linear)"/><path opacity=".3" d="M312.727 258.745c4.246-2.08 8.666-3.9 13.173-5.373 4.507-1.474 9.1-2.687 13.78-3.64 4.68-.867 9.36-1.473 14.127-1.733 4.766-.174 9.533.173 14.213 1.126a95.95 95.95 0 00-14.127.26c-4.68.52-9.273 1.127-13.866 2.08-4.594.954-9.187 2.08-13.694 3.294-2.253.606-4.506 1.3-6.76 1.906-2.34.607-4.593 1.387-6.846 2.08z" fill="url(#paint2_linear)"/><path opacity=".3" d="M315.066 175.805s-3.726 63.96 22.187 68.813l-27.82 8.407 5.2-76.96.433-.26z" fill="url(#paint3_linear)"/><path opacity=".24" d="M331.62 147.985l-5.2 3.64-1.647-3.813c0 .087 2.427 1.473 6.847.173z" fill="url(#paint4_linear)"/><path d="M325.987 134.378v5.374s-1.04-2.6-2.6-2.167c-1.56.433-1.56 2.167-1.56 2.167s.346 2.34 2.6 2.86l-1.647 4.766s-8.58-5.546-10.053-10.66c-1.474-5.2-6.24-10.573-6.24-10.573s5.546.52 6.24 1.82c.693 1.3-.52-7.453-4.854-9.88 0 0 9.361-.693 11.267 6.154 0 0 5.894-7.367 1.387-13.434 0 0 9.88 1.56 5.893 11.094 0 0 8.407-.434 8.494-5.547 0 0 .693 5.807-3.294 11.353l-5.633 1.387.953 2.6-.953 2.686z" fill="#000"/><path d="M307.44 203.799s13.087-37.7 24.873-39.347c11.787-1.647 16.554 40.3 16.554 40.3" fill="#F985AF"/><path d="M348.87 204.896c.03-1.244-9.217-2.477-20.653-2.753-11.436-.277-20.732.508-20.762 1.752-.03 1.244 9.217 2.477 20.653 2.753 11.436.276 20.732-.508 20.762-1.752z" fill="#231F20"/><path d="M323.387 161.159c1.473.346 2.946.606 4.333.78 1.473.173 2.947.173 4.333 0a11.799 11.799 0 004.074-1.3c1.3-.694 2.34-1.734 3.293-2.774-.693 1.3-1.647 2.6-2.947 3.38a9.679 9.679 0 01-4.333 1.56c-1.56.174-3.033.087-4.507-.173-1.473-.347-2.946-.78-4.246-1.473z" fill="url(#paint5_linear)"/><path d="M343.927 387.792c-1.907 1.127-3.9 1.993-5.98 2.86-2.08.78-4.16 1.56-6.327 2.08 1.907-1.127 3.9-1.993 5.98-2.86 2.08-.78 4.16-1.56 6.327-2.08z" fill="#2B9EAA"/><path d="M333.18 299.218c.347 6.5.78 13 1.04 19.5l.433 9.707.434 9.707v.433h-6.847l.26-.693 6.847 5.633.52.433-.607.26-4.593 2.34.173-.086c-5.2 6.933-10.313 13.866-15.513 20.8-5.2 6.933-10.4 13.78-15.687 20.713 5.027-7.02 10.053-14.04 15.167-21.06 5.113-7.02 10.226-13.953 15.34-20.973l.086-.087.087-.087 4.593-2.34-.086.694-6.76-5.634-.867-.693h7.54l-.347.433-.346-9.706-.347-9.707a770.574 770.574 0 01-.52-19.587z" fill="#56D0ED"/><path d="M342.8 202.585l-5.027 32.5 22.1 27.3-5.546 14.993-32.76-35.62s-1.907-1.646-1.474-3.986c.434-2.427-2.513-36.054-2.513-36.054s13.78-1.56 25.22.867z" fill="#EAB575"/><path opacity=".24" d="M329.28 201.285l-5.027 37.527 28.774 37.266-31.374-34.146s-1.733-1.214-1.473-3.987-2.513-36.053-2.513-36.053 8.493-.694 11.613-.607z" fill="url(#paint6_linear)"/><path d="M337.253 169.305s7.54 21.84-1.906 27.04l10.226 1.3s.087-11.266-8.32-28.34z" fill="url(#paint7_linear)"/><path opacity=".38" d="M338.033 201.805l-.26 33.28 5.027-32.5-4.767-.78z" fill="url(#paint8_linear)"/><path opacity=".3" d="M333.7 164.365l-11.527 26c-.606 1.387-.087 2.947 1.213 3.64 1.734 1.04 3.294 1.647 7.281 2.254l-19.674-1.56c0 .086 10.14-29.294 22.707-30.334z" fill="url(#paint9_linear)"/><path d="M343.146 164.452c2.167 6.5 4.247 13 6.327 19.5l6.067 19.586 5.893 19.587 2.86 9.793 2.773 9.88-3.206-9.706-3.12-9.794-6.067-19.586-5.893-19.587c-1.82-6.587-3.727-13.087-5.634-19.673z" fill="url(#paint10_linear)"/><path d="M314.633 134.032c1.56-.953 3.12-1.647 4.767-2.427a49.586 49.586 0 015.027-1.82c-1.56.953-3.12 1.647-4.767 2.427-1.647.693-3.293 1.387-5.027 1.82z" fill="url(#paint11_linear)"/><path d="M334.913 116.352s-1.56 10.486-6.066 11.96l2.773-.694c0 .087 3.813-4.94 3.293-11.266z" fill="url(#paint12_linear)"/><path d="M323.82 113.751c.953.954 1.56 2.34 1.733 3.727.087.693 0 1.387-.173 2.08-.173.693-.52 1.3-.954 1.82.174-.693.347-1.3.434-1.907.086-.606.086-1.3 0-1.906-.087-.607-.173-1.3-.347-1.907-.173-.693-.347-1.3-.693-1.907z" fill="url(#paint13_linear)"/><path d="M579.573 449.585l-134.507-49.053V72.412l134.507-46.367v423.54z" fill="#FBE54B"/><path d="M89.126 23.358l134.42 49.054v328.12l-134.42 46.28V23.358z" fill="#C8E8A3"/><path d="M506.253 183.778c17.327 0 31.374-20.798 31.374-46.453 0-25.656-14.047-46.453-31.374-46.453-17.327 0-31.373 20.797-31.373 46.453 0 25.655 14.046 46.453 31.373 46.453zm-349.96 0c17.327 0 31.374-20.798 31.374-46.453 0-25.656-14.047-46.453-31.374-46.453-17.327 0-31.373 20.797-31.373 46.453 0 25.655 14.046 46.453 31.373 46.453z" fill="#fff"/><path d="M156.293 195.652c21.779 0 39.434-26.114 39.434-58.327 0-32.213-17.655-58.326-39.434-58.326-21.778 0-39.433 26.113-39.433 58.326s17.655 58.327 39.433 58.327zm349.96 0c21.779 0 39.434-26.114 39.434-58.327 0-32.213-17.655-58.326-39.434-58.326-21.778 0-39.433 26.113-39.433 58.326s17.655 58.327 39.433 58.327zm-61.187 33.453h134.507m-490.447 5.374h134.42" stroke="#fff" stroke-miterlimit="10"/><path opacity=".34" d="M335.346 95.119a6.76 6.76 0 100-13.52 6.76 6.76 0 000 13.52z" fill="url(#paint14_linear)"/><path d="M354.066 88.359c5.2-.174 10.314-.26 15.514-.347 5.2-.087 10.313-.087 15.513-.087 5.2 0 10.313 0 15.513.087l7.714.087c2.6.086 5.2.086 7.713.173-2.6.087-5.2.173-7.713.173l-7.714.087c-5.2.087-10.313.087-15.513.087-5.2 0-10.313 0-15.513-.087-5.2.087-10.4 0-15.514-.173zm-101.399 0c5.2-.174 10.313-.26 15.513-.347 5.2-.087 10.313-.087 15.513-.087 5.2 0 10.314 0 15.513.087l7.714.087c2.6.086 5.2.086 7.713.173-2.6.087-5.2.173-7.713.173l-7.714.087c-5.199.087-10.313.087-15.513.087-5.2 0-10.313 0-15.513-.087-5.2.087-10.4 0-15.513-.173z" fill="#DBDBDB"/><path d="M254.4 82.898c-1.387 1.994-2.947 3.9-4.507 5.72v-.606c1.56 1.733 3.12 3.553 4.507 5.546-1.907-1.56-3.553-3.206-5.2-5.026l-.26-.26.26-.26c1.647-1.734 3.293-3.467 5.2-5.114zm160.507 10.747c1.386-1.993 2.946-3.9 4.506-5.72v.606c-1.56-1.733-3.12-3.553-4.506-5.546 1.906 1.56 3.553 3.207 5.2 5.026l.26.26-.26.26c-1.647 1.734-3.294 3.554-5.2 5.114z" fill="#DBDBDB"/><path d="M335.347 92.518a4.16 4.16 0 100-8.319 4.16 4.16 0 000 8.32z" fill="#56D0ED"/><path d="M88.867 306.758l135.026-13.606m-134.767 92.56l134.42-39.78m356.287-36.401l-135.026-13.606m134.766 92.56l-134.42-39.78" stroke="#fff" stroke-miterlimit="10"/><path d="M73.44 449.585l8.147-2.773V23.358H73.44v426.227z" fill="url(#paint15_linear)" stroke="#fff" stroke-miterlimit="10"/><path d="M588.413 449.585l8.147 3.12V26.045h-8.147v423.54z" fill="url(#paint16_linear)" stroke="#fff" stroke-miterlimit="10"/><path d="M643.794 425.232c2.86-1.647 6.066-2.947 9.533-3.814 7.887-1.906 16.9-1.56 26.78.954 25.393 6.413 35.273-4.16 50.353-20.28 9.274-9.88 20.8-22.274 39.174-33.194 13.52-8.06 33.453-16.293 51.74-10.053 10.92 3.813 16.12 11.093 16.206 11.18.087.173.087.433-.086.52-.174.087-.434.087-.52-.087-.087-.086-5.114-7.28-15.86-10.92-17.94-6.153-37.614 1.994-51.047 9.967-18.287 10.833-29.727 23.14-39 33.02-14.647 15.687-25.307 27.04-51.133 20.453-9.794-2.513-18.72-2.773-26.434-.953-7.366 1.733-13.346 5.547-17.333 10.92-9.447 12.567-7.453 32.153 5.373 53.733.087.174.087.434-.173.52-.26.087-.433.087-.52-.173-13-21.84-14.993-41.773-5.373-54.6 2.253-2.773 5.026-5.287 8.32-7.193z" fill="#BCBCBC"/><path d="M700.387 402.698c2.686-2.686 7.02-2.686 9.706-.086 2.687 2.686 7.02 2.6 9.707-.087 2.687-2.687 7.02-2.687 9.707-.087 2.686 2.687 7.02 2.6 9.706-.086 2.687-2.687 7.02-2.687 9.707-.087" stroke="#000" stroke-width="1.75" stroke-miterlimit="10" stroke-linecap="round"/><path d="M787.487 147.119c-5.027 2.08-9.707 2.946-14.214 2.686-11.613-.78-21.06-9.88-28.166-26.953-8.84-21.233-20.714-35.273-36.227-42.727-13.347-6.5-27.04-7.02-39.087-7.54-16.466-.693-29.38-1.3-31.806-17.246-.954-6.5.173-11.874 3.64-16.294 9.36-12.22 33.54-14.993 61.533-18.286 38.307-4.507 81.64-9.534 94.64-41.08l.953.433c-13.26 32.067-56.853 37.18-95.42 41.6-26.606 3.12-51.74 5.98-60.84 17.853-3.206 4.16-4.333 9.274-3.38 15.514 2.254 15.166 14.214 15.686 30.767 16.38 23.66 1.04 55.987 2.426 76.18 50.96 6.933 16.726 16.12 25.566 27.3 26.26 33.28 2.253 74.447-67.514 74.88-68.207l.867.52c-.087.173-10.487 17.94-24.96 35.187-13.347 16.033-25.567 26.346-36.66 30.94z" fill="#BCBCBC"/><path d="M722.14 143.045c-2.513 0-4.593-2.08-4.593-4.593 0-2.514 2.08-4.594 4.593-4.594 13.52 0 24.527-11.006 24.527-24.526 0-2.514 2.08-4.594 4.593-4.594s4.593 2.08 4.593 4.594c0 18.633-15.166 33.713-33.713 33.713zm29.12-37.267c-1.993 0-3.64 1.647-3.64 3.64 0 13.954-11.353 25.394-25.393 25.394-1.993 0-3.64 1.646-3.64 3.64 0 1.993 1.647 3.64 3.64 3.64 18.026 0 32.76-14.647 32.76-32.76-.087-1.907-1.734-3.554-3.727-3.554z" fill="#000"/><path d="M717.547 139.839c-18.98 0-34.494-15.427-34.494-34.494 0-18.98 15.427-34.493 34.494-34.493 18.98 0 34.493 15.427 34.493 34.493 0 1.04-.087 2.167-.173 3.207 0 .26-.26.433-.52.433s-.434-.26-.434-.52c.087-1.04.174-2.08.174-3.12 0-18.546-15.08-33.54-33.54-33.54-18.547 0-33.54 15.08-33.54 33.54s15.08 33.54 33.54 33.54h.52c.26 0 .433.174.433.434s-.173.433-.433.433c-.174.087-.347.087-.52.087z" fill="#000"/><path d="M48.306 409.458c-2.6-1.56-5.633-2.773-8.84-3.553-7.366-1.733-15.773-1.473-24.96.867-23.66 5.98-32.933-3.9-46.886-18.894-8.667-9.273-19.413-20.8-36.574-30.94-12.653-7.54-31.2-15.253-48.273-9.36-10.227 3.554-15.08 10.4-15.08 10.487-.087.173-.087.347.087.52.173.087.346.087.52-.087.086-.086 4.766-6.76 14.82-10.226 16.726-5.72 35.1 1.906 47.58 9.273 16.986 10.14 27.733 21.58 36.4 30.767 13.693 14.646 23.573 25.22 47.666 19.066 9.1-2.34 17.42-2.6 24.614-.866 6.846 1.646 12.48 5.2 16.206 10.14 8.754 11.7 6.934 29.986-5.026 50.18-.087.173-.087.433.087.433.173.087.433.087.433-.087 12.133-20.366 13.953-38.913 4.94-50.96-2.167-2.686-4.767-4.94-7.714-6.76z" fill="#BCBCBC"/><path d="M-15.047 190.972c0-4.16 3.38-7.627 7.627-7.627a7.583 7.583 0 017.626 7.627c0 22.273 18.114 40.473 40.474 40.473 4.16 0 7.627 3.38 7.627 7.627a7.583 7.583 0 01-7.627 7.627c-30.767-.087-55.727-25.047-55.727-55.727zm61.707 48.013a6.029 6.029 0 00-6.067-6.066c-23.14 0-41.947-18.807-41.947-41.947a6.03 6.03 0 00-6.066-6.067 6.03 6.03 0 00-6.067 6.067c0 29.813 24.267 54.08 54.08 54.08 3.293 0 6.067-2.687 6.067-6.067z" fill="#E8E8E8"/><path d="M-15.047 190.972c0-4.16 3.38-7.627 7.627-7.627a7.583 7.583 0 017.626 7.627 7.583 7.583 0 01-7.626 7.627c-4.247 0-7.627-3.467-7.627-7.627zm13.607 0a6.03 6.03 0 00-6.067-6.067 6.03 6.03 0 00-6.066 6.067 6.03 6.03 0 006.066 6.067c3.38 0 6.067-2.774 6.067-6.067zm664.56 75.92c-4.16 0-7.627-3.38-7.627-7.627a7.583 7.583 0 017.627-7.626c22.273 0 40.473-18.114 40.473-40.474 0-4.16 3.38-7.626 7.627-7.626a7.583 7.583 0 017.626 7.626c-.086 30.767-25.046 55.727-55.726 55.727zm0-1.56c29.813 0 54.08-24.267 54.08-54.08a6.03 6.03 0 00-6.067-6.067 6.03 6.03 0 00-6.067 6.067c0 23.14-18.806 41.947-41.946 41.947a6.029 6.029 0 00-6.067 6.066 6.03 6.03 0 006.067 6.067z" fill="#E8E8E8"/><path d="M711.133 218.792c-4.16 0-7.627-3.38-7.627-7.627a7.583 7.583 0 017.627-7.626 7.583 7.583 0 017.627 7.626c0 4.247-3.467 7.627-7.627 7.627zm0-1.473a6.03 6.03 0 006.067-6.067 6.03 6.03 0 00-6.067-6.067 6.03 6.03 0 00-6.067 6.067c0 3.293 2.774 6.067 6.067 6.067z" fill="#E8E8E8"/></g></g><defs><linearGradient id="paint0_linear" x1="325.52" y1="211.621" x2="340.747" y2="211.621" gradientUnits="userSpaceOnUse"><stop stop-color="#F7941D"/><stop offset="1" stop-color="#F7941D" stop-opacity=".1"/></linearGradient><linearGradient id="paint1_linear" x1="320.1" y1="268.2" x2="365.369" y2="268.2" gradientUnits="userSpaceOnUse"><stop stop-color="#1C75BC" stop-opacity=".1"/><stop offset=".141" stop-color="#1C75BC" stop-opacity=".227"/><stop offset="1" stop-color="#1C75BC"/></linearGradient><linearGradient id="paint2_linear" x1="312.401" y1="253.376" x2="368.148" y2="253.376" gradientUnits="userSpaceOnUse"><stop stop-color="#2B3990"/><stop offset="1" stop-color="#1C75BC" stop-opacity=".1"/></linearGradient><linearGradient id="paint3_linear" x1="309.463" y1="214.413" x2="337.283" y2="214.413" gradientUnits="userSpaceOnUse"><stop stop-color="#2B3990"/><stop offset="1" stop-color="#1C75BC" stop-opacity=".1"/></linearGradient><linearGradient id="paint4_linear" x1="324.726" y1="149.77" x2="331.645" y2="149.77" gradientUnits="userSpaceOnUse"><stop stop-color="#603913"/><stop offset="1" stop-color="#603913" stop-opacity=".1"/></linearGradient><linearGradient id="paint5_linear" x1="323.207" y1="160.354" x2="339.841" y2="160.354" gradientUnits="userSpaceOnUse"><stop stop-color="#fff"/><stop offset="1" stop-color="#fff" stop-opacity=".1"/></linearGradient><linearGradient id="paint6_linear" x1="317.664" y1="238.654" x2="353.049" y2="238.654" gradientUnits="userSpaceOnUse"><stop stop-color="#603913"/><stop offset="1" stop-color="#603913" stop-opacity=".1"/></linearGradient><linearGradient id="paint7_linear" x1="335.356" y1="183.511" x2="345.548" y2="183.511" gradientUnits="userSpaceOnUse"><stop stop-color="#fff"/><stop offset="1" stop-color="#fff" stop-opacity=".1"/></linearGradient><linearGradient id="paint8_linear" x1="337.815" y1="218.475" x2="342.799" y2="218.475" gradientUnits="userSpaceOnUse"><stop stop-color="#fff"/><stop offset="1" stop-color="#fff" stop-opacity=".1"/></linearGradient><linearGradient id="paint9_linear" x1="339.862" y1="175.67" x2="309.54" y2="192.211" gradientUnits="userSpaceOnUse"><stop stop-color="#2B3990"/><stop offset="1" stop-color="#1C75BC" stop-opacity=".1"/></linearGradient><linearGradient id="paint10_linear" x1="342.77" y1="203.607" x2="367.6" y2="203.607" gradientUnits="userSpaceOnUse"><stop stop-color="#fff"/><stop offset="1" stop-color="#fff" stop-opacity=".1"/></linearGradient><linearGradient id="paint11_linear" x1="314.5" y1="131.93" x2="324.587" y2="131.93" gradientUnits="userSpaceOnUse"><stop stop-color="#fff"/><stop offset="1" stop-color="#fff" stop-opacity=".1"/></linearGradient><linearGradient id="paint12_linear" x1="328.915" y1="122.373" x2="334.988" y2="122.373" gradientUnits="userSpaceOnUse"><stop stop-color="#fff"/><stop offset="1" stop-color="#fff" stop-opacity=".1"/></linearGradient><linearGradient id="paint13_linear" x1="323.583" y1="117.551" x2="325.635" y2="117.551" gradientUnits="userSpaceOnUse"><stop stop-color="#fff"/><stop offset="1" stop-color="#fff" stop-opacity=".1"/></linearGradient><linearGradient id="paint14_linear" x1="328.561" y1="88.329" x2="342.076" y2="88.329" gradientUnits="userSpaceOnUse"><stop stop-color="#1C75BC" stop-opacity=".1"/><stop offset=".141" stop-color="#1C75BC" stop-opacity=".227"/><stop offset="1" stop-color="#1C75BC"/></linearGradient><linearGradient id="paint15_linear" x1="77.545" y1="449.543" x2="77.545" y2="23.36" gradientUnits="userSpaceOnUse"><stop stop-color="#E6E7E8"/><stop offset="1" stop-color="#fff" stop-opacity=".1"/></linearGradient><linearGradient id="paint16_linear" x1="592.454" y1="452.73" x2="592.454" y2="26.083" gradientUnits="userSpaceOnUse"><stop stop-color="#E6E7E8"/><stop offset="1" stop-color="#fff" stop-opacity=".1"/></linearGradient><clipPath id="clip0"><path fill="#fff" d="M0 .479h720v468H0z"/></clipPath><clipPath id="clip1"><path fill="#fff" d="M-133 .479h936v468h-936z"/></clipPath></defs></svg>