<svg width="180" height="180" viewBox="0 0 180 180" fill="none" xmlns="http://www.w3.org/2000/svg">
<g opacity="0.4">
<path d="M73.5748 102.751C73.5748 102.751 73.0317 102.96 71.7784 102.96C67.0578 102.96 68.6453 97.9889 65.8046 97.9889H65.1362V102.835H61.46V88.7148H66.7236C70.5252 88.7148 72.4051 90.0099 72.4051 93.3519C72.4051 95.4406 70.9847 96.485 70.2327 96.9028C71.3607 98.2396 71.2771 99.9106 72.9481 99.9106H73.5748V102.751ZM66.3477 95.2318C67.8098 95.2318 68.8542 94.6051 68.8542 93.4772C68.8542 92.3075 67.9769 91.6391 66.5565 91.6391H65.0944V95.2318H66.3477Z" fill="black"/>
<path d="M85.3179 96.109C85.9863 96.6521 86.5712 97.5294 86.5712 98.7827C86.5712 101.749 84.3571 102.835 81.767 102.835H75.083V88.7148H81.0569C83.9394 88.7148 85.6521 89.801 85.6521 92.5582C85.6521 94.9811 84.1482 95.3153 83.3545 95.3153V95.3571C83.814 95.3571 84.6077 95.566 85.3179 96.109ZM80.1796 94.3127C81.3911 94.3127 81.8506 93.8532 81.8506 92.9341C81.8506 92.0569 81.224 91.6391 79.8872 91.6391H78.7175V94.3127H80.1796ZM80.5973 99.9106C81.8088 99.9106 82.3519 99.4928 82.3519 98.3649C82.3519 97.237 81.5999 96.8192 80.5138 96.8192H78.7592V99.9106H80.5973Z" fill="black"/>
<path d="M88.2822 102.835V88.7148H91.9584V99.9106H97.6399V102.835H88.2822Z" fill="black"/>
<path d="M101.148 102.835V88.7148H106.287C109.169 88.7148 110.882 89.8428 110.882 92.4328C110.882 94.9811 109.378 95.3989 108.71 95.3989V95.4406C109.629 95.4406 111.843 96.2344 111.843 98.908C111.843 101.832 109.503 102.835 106.872 102.835H101.148ZM106.161 94.6469C107.749 94.6469 108.292 93.8532 108.292 92.6835C108.292 91.472 107.498 90.7618 105.744 90.7618H103.697V94.6469H106.161ZM106.412 100.788C107.874 100.788 109.086 100.328 109.086 98.6573C109.086 97.0699 107.916 96.485 106.37 96.485H103.697V100.788H106.412Z" fill="black"/>
<path d="M121.658 99.2004H116.52L115.267 102.835H112.635L117.815 88.7148H120.405L125.585 102.835H122.953L121.658 99.2004ZM117.188 97.237H121.032L119.11 91.848L117.188 97.237Z" fill="black"/>
<path d="M135.444 102.835L129.93 93.3519V102.835H127.382V88.7148H130.014L135.612 98.4902V88.7148H138.118V102.835H135.444Z" fill="black"/>
<path d="M152.826 100.913C151.029 100.913 150.946 97.8636 149.442 96.3597C149.317 96.2344 148.606 95.3989 147.437 95.0647L152.826 88.7148H149.567L144.178 95.0229V94.9811V88.7148H141.63V95.8166V99.4928V102.835H144.178V99.4928V98.8662L145.766 97.0281H145.933C148.899 97.0281 147.938 102.918 152.074 102.918C152.909 102.918 153.41 102.793 153.41 102.793V100.913H152.826Z" fill="black"/>
<path d="M33.1801 76.4751V67.4934H26.1201V88.7152C26.1201 83.4933 28.9608 78.898 33.1801 76.4751Z" fill="black"/>
<path d="M41.1189 74.595V81.6968C44.5863 82.1145 47.3016 85.1223 47.3016 88.715C47.3016 92.6419 44.1267 95.8168 40.2416 95.8168C36.3566 95.8168 33.1816 92.6419 33.1816 88.715V100.955C35.2704 102.167 37.6934 102.877 40.2416 102.877C48.0536 102.877 54.3617 96.5269 54.3617 88.715C54.4034 81.1955 48.5131 75.0545 41.1189 74.595Z" fill="black"/>
<path d="M33.1801 76.4751C28.9608 78.8981 26.1201 83.4934 26.1201 88.7152V101.791V104.632H33.1801V102.793V100.997V88.6735C33.1801 85.0808 35.8955 82.1148 39.3628 81.6552V74.5535C37.107 74.7206 35.0182 75.389 33.1801 76.4751Z" fill="black"/>
<path d="M91.7029 117.331C91.7029 117.331 91.494 117.373 91.2016 117.373C90.6585 117.373 90.3661 117.081 90.4914 116.579V116.538C90.3661 116.705 89.823 117.415 88.6951 117.415C87.6925 117.415 86.8988 116.663 87.3583 114.867C87.8178 113.029 88.9458 112.277 90.0319 112.277C90.951 112.277 91.2852 112.82 91.3687 112.945L91.5358 112.318H92.5384L91.6194 115.995C91.5358 116.287 91.5776 116.454 91.9118 116.454L91.7029 117.331ZM90.951 114.156C90.9927 113.989 90.9092 113.237 90.0319 113.237C89.3635 113.237 88.7369 113.739 88.4444 114.825C88.152 115.911 88.6115 116.412 89.2382 116.412C90.199 116.412 90.6168 115.368 90.6168 115.41L90.951 114.156Z" fill="black"/>
<path d="M92.751 119.839L94.2967 113.614C94.3802 113.322 94.3384 113.155 94.0042 113.155L94.2131 112.319C94.2131 112.319 94.422 112.277 94.7144 112.277C95.2157 112.277 95.5499 112.57 95.4246 113.071V113.113C95.5499 112.904 96.093 112.236 97.1791 112.236C98.1817 112.236 99.0173 112.988 98.5577 114.742C98.0982 116.622 96.9285 117.332 95.8423 117.332C94.8397 117.332 94.6309 116.706 94.6309 116.706L93.8371 119.797H92.751V119.839ZM94.9651 115.494C94.9233 115.661 94.9651 116.455 95.8423 116.455C96.5525 116.455 97.1791 115.954 97.4298 114.867C97.7222 113.698 97.2209 113.28 96.6361 113.28C95.717 113.28 95.2575 114.283 95.2575 114.283L94.9651 115.494Z" fill="black"/>
<path d="M104.321 117.331C104.321 117.331 104.112 117.373 103.82 117.373C103.151 117.373 102.859 116.997 103.068 116.162L103.527 114.282C103.695 113.655 103.486 113.196 102.817 113.196C102.065 113.196 101.564 113.906 101.439 114.449L100.729 117.29H99.6006L100.52 113.613C100.603 113.321 100.561 113.154 100.227 113.154L100.436 112.318C100.436 112.318 100.645 112.277 100.937 112.277C101.439 112.277 101.773 112.569 101.648 113.07L101.606 113.237C101.898 112.736 102.441 112.277 103.36 112.277C104.614 112.277 104.906 113.154 104.655 114.24L104.196 115.995C104.112 116.287 104.154 116.454 104.488 116.454L104.321 117.331Z" fill="black"/>
<path d="M106.112 114.825C106.488 113.237 107.616 112.277 108.995 112.277C110.415 112.277 111.042 113.279 110.624 114.825C110.248 116.371 109.12 117.373 107.7 117.373C106.321 117.415 105.694 116.412 106.112 114.825ZM109.538 114.825C109.788 113.781 109.496 113.237 108.786 113.237C108.076 113.237 107.491 113.781 107.24 114.825C106.989 115.869 107.282 116.412 107.992 116.412C108.702 116.412 109.287 115.869 109.538 114.825Z" fill="black"/>
<path d="M119.147 117.29C119.147 117.29 118.938 117.374 118.687 117.374C116.975 117.374 118.186 115.035 116.64 115.035H116.056L115.471 117.332H114.343L116.223 109.813H117.309L116.223 114.199H116.849C117.685 114.199 118.437 113.531 118.729 112.361H119.774C119.565 113.28 118.98 114.241 117.935 114.575C118.813 115.035 118.186 116.497 119.23 116.497H119.314L119.147 117.29Z" fill="black"/>
<path d="M125.08 117.331C125.08 117.331 124.871 117.373 124.579 117.373C124.035 117.373 123.743 117.081 123.868 116.579V116.538C123.743 116.705 123.2 117.415 122.072 117.415C121.069 117.415 120.276 116.663 120.735 114.867C121.195 113.029 122.323 112.277 123.409 112.277C124.328 112.277 124.662 112.82 124.746 112.945L124.913 112.318H125.915L124.996 115.995C124.913 116.287 124.955 116.454 125.289 116.454L125.08 117.331ZM124.328 114.156C124.37 113.989 124.286 113.237 123.409 113.237C122.74 113.237 122.114 113.739 121.821 114.825C121.529 115.911 121.988 116.412 122.615 116.412C123.576 116.412 123.994 115.368 123.994 115.41L124.328 114.156Z" fill="black"/>
<path d="M129.344 117.332L131.224 109.813H132.352L131.558 113.029C131.558 113.029 132.101 112.277 133.187 112.277C134.19 112.277 135.025 113.029 134.566 114.784C134.106 116.664 132.936 117.374 131.85 117.374C130.889 117.374 130.639 116.747 130.513 116.664L130.346 117.332H129.344ZM130.931 115.452C130.889 115.619 130.931 116.455 131.808 116.455C132.477 116.455 133.145 115.954 133.396 114.868C133.688 113.698 133.187 113.28 132.602 113.28C131.683 113.28 131.224 114.283 131.224 114.283L130.931 115.452Z" fill="black"/>
<path d="M140.208 117.331C140.208 117.331 139.999 117.373 139.706 117.373C139.163 117.373 138.871 117.081 138.996 116.579V116.538C138.871 116.705 138.328 117.415 137.2 117.415C136.197 117.415 135.404 116.663 135.863 114.867C136.323 113.029 137.451 112.277 138.537 112.277C139.456 112.277 139.79 112.82 139.874 112.945L140.041 112.318H141.043L140.124 115.995C140.041 116.287 140.082 116.454 140.417 116.454L140.208 117.331ZM139.456 114.156C139.498 113.989 139.414 113.237 138.537 113.237C137.868 113.237 137.242 113.739 136.949 114.825C136.657 115.911 137.116 116.412 137.743 116.412C138.704 116.412 139.122 115.368 139.122 115.41L139.456 114.156Z" fill="black"/>
<path d="M146.514 117.331C146.514 117.331 146.305 117.373 146.012 117.373C145.344 117.373 145.051 116.997 145.26 116.162L145.72 114.282C145.887 113.655 145.678 113.196 145.01 113.196C144.258 113.196 143.756 113.906 143.631 114.449L142.921 117.29H141.793L142.712 113.613C142.796 113.321 142.754 113.154 142.42 113.154L142.628 112.318C142.628 112.318 142.837 112.277 143.13 112.277C143.631 112.277 143.965 112.569 143.84 113.07L143.798 113.237C144.091 112.736 144.634 112.277 145.553 112.277C146.806 112.277 147.098 113.154 146.848 114.24L146.388 115.995C146.305 116.287 146.346 116.454 146.681 116.454L146.514 117.331Z" fill="black"/>
<path d="M152.737 117.29C152.737 117.29 152.528 117.374 152.277 117.374C150.565 117.374 151.776 115.035 150.23 115.035H149.646L149.061 117.332H147.975L149.854 109.813H150.982L149.896 114.199H150.523C151.358 114.199 152.11 113.531 152.403 112.361H153.447C153.238 113.28 152.653 114.241 151.609 114.575C152.486 115.035 151.86 116.497 152.904 116.497H152.988L152.737 117.29Z" fill="black"/>
</g>
</svg>
