<svg width="180" height="180" viewBox="0 0 180 180" fill="none" xmlns="http://www.w3.org/2000/svg">
<g opacity="0.4">
<path d="M41.1273 108C41.1043 107.983 41.0789 107.962 41.0523 107.938C40.6213 107.401 37.9563 104.04 35.2407 99.7304C34.4262 98.3571 33.8973 97.286 33.9988 97.009C34.2645 96.2889 38.9987 95.8947 40.4566 96.5476C40.9 96.7457 40.8888 97.0081 40.8888 97.1609C40.8888 97.8202 40.8565 99.5892 40.8565 99.5892C40.8568 99.9548 41.1521 100.251 41.5156 100.251C41.8798 100.251 42.1739 99.9529 42.1727 99.5865L42.1651 95.1785H42.1639C42.1639 94.7959 41.749 94.7003 41.671 94.6854C40.91 94.6818 39.3647 94.6766 37.7054 94.6766C34.0442 94.6766 33.226 94.8279 32.604 94.4185C31.2564 93.5315 29.0528 87.5536 29.0014 84.1902C28.9283 79.4453 31.7215 75.3375 35.6548 73.3021C37.298 72.4693 39.154 72 41.1143 72C47.3397 72 52.4664 76.7294 53.1486 82.8142C53.1492 82.8193 53.1492 82.8251 53.1504 82.8303C53.2755 84.3013 45.2204 84.6139 43.627 84.186C43.3828 84.1202 43.3203 83.8685 43.3203 83.7602C43.3185 82.6416 43.3109 79.4937 43.3109 79.4937C43.3097 79.1279 43.0144 78.8311 42.6508 78.832C42.2879 78.8326 41.9926 79.13 41.9926 79.4965L42.0056 85.2951C42.0167 85.6604 42.3214 85.759 42.4048 85.7754C43.3109 85.7757 45.4299 85.7736 47.4034 85.7736C50.0709 85.7736 51.1913 86.0847 51.9369 86.656C52.4326 87.0364 52.6245 87.7648 52.4568 88.7114C50.961 97.1323 41.4833 107.565 41.1273 108ZM66.8318 88.3465C69.2231 89.3781 70.7046 90.5225 70.7046 93.0345C70.7046 95.6007 68.7733 97.2584 65.7852 97.2584C63.3637 97.2584 61.42 96.1544 60.452 94.2289L60.2954 93.9184L63.1425 92.2581L63.3289 92.5649C63.97 93.6195 64.6866 94.0691 65.7262 94.0691C66.6224 94.0691 67.2244 93.6695 67.2244 93.0741C67.2244 92.4145 66.7886 92.1674 65.4415 91.5738L64.757 91.2783C62.93 90.4945 61.2375 89.4055 61.2375 86.7677C61.2375 84.3973 63.0427 82.7418 65.6277 82.7418C67.5862 82.7418 68.9284 83.5048 69.8523 85.1424L70.0237 85.4465L67.2652 87.2307L67.0751 86.8883C66.6139 86.0579 66.1796 85.8914 65.6277 85.8914C65.0507 85.8914 64.679 86.2117 64.679 86.7084C64.679 87.2791 64.9528 87.5296 66.1463 88.0501L66.8318 88.3465ZM86.984 88.8322L88.9939 83.1915H92.4435L87.331 97.4911H86.5648L83.4636 90.7942C83.3194 90.4874 83.1707 90.1063 83.0426 89.7572C82.9114 90.107 82.7591 90.4889 82.6146 90.7958L79.3922 97.4911H78.6312L73.4367 83.1915H77.1219L79.1538 88.8322C79.2834 89.192 79.4164 89.6306 79.5328 90.0376C79.6709 89.6175 79.8368 89.164 80.0103 88.7984L82.679 83.0738H83.4174L86.1275 88.7991C86.3004 89.1643 86.4669 89.6181 86.6044 90.0382C86.7214 89.6306 86.8553 89.192 86.984 88.8322ZM96.4665 97.0805V82.8994H99.9482V97.0805H96.4665ZM111.364 92.3159V89.1467H117.829V95.5024L117.695 95.6132C116.956 96.2244 114.995 97.2584 112.339 97.2584C107.857 97.2584 104.729 94.2697 104.729 89.9905C104.729 85.7904 107.748 82.7418 111.907 82.7418C114.194 82.7418 115.871 83.3907 117.031 84.726L117.258 84.9868L114.885 87.3515L114.627 87.0843C113.964 86.3964 113.278 85.9703 111.907 85.9703C109.777 85.9703 108.288 87.6233 108.288 89.9905C108.288 92.4562 109.878 94.0499 112.339 94.0499C113.155 94.0499 114.005 93.9084 114.583 93.6822V92.3159H111.364ZM129.008 92.3159V89.1467H135.473V95.5024L135.339 95.6132C134.599 96.2244 132.639 97.2584 129.983 97.2584C125.502 97.2584 122.373 94.2697 122.373 89.9905C122.373 85.7904 125.392 82.7418 129.55 82.7418C131.839 82.7418 133.515 83.3907 134.675 84.726L134.903 84.9868L132.53 87.3515L132.272 87.0843C131.609 86.3964 130.922 85.9703 129.55 85.9703C127.421 85.9703 125.932 87.6233 125.932 89.9905C125.932 92.4562 127.522 94.0499 129.983 94.0499C130.8 94.0499 131.649 93.9084 132.227 93.6822V92.3159H129.008ZM148.23 82.8994H151.87L146.875 92.336V97.0806H143.374V92.5375L138.053 82.8994H141.936L144.395 87.4209C144.66 87.9128 144.936 88.563 145.145 89.0907C145.344 88.5672 145.608 87.9229 145.871 87.4252L148.23 82.8994Z" fill="#050A15"/>
</g>
</svg>
