<svg width="304" height="362" fill="none" xmlns="http://www.w3.org/2000/svg"><rect width="304" height="362" rx="24" fill="#fff"/><path d="M14.344 243c.432 0 .744-.3.744-.72s-.312-.72-.744-.72-.732.3-.732.72.3.72.732.72zm9.675 2.412c-1.968 0-3.384-1.524-3.396-3.636 0-2.124 1.416-3.648 3.396-3.648 1.44 0 2.7.996 3.012 2.316l.984-.12c-.408-1.776-2.088-3.084-3.996-3.084-2.544 0-4.392 1.908-4.392 4.536 0 2.628 1.848 4.524 4.392 4.524 1.908 0 3.576-1.248 3.996-2.94l-.972-.18c-.336 1.284-1.596 2.232-3.024 2.232zm8.32-5.712c-1.896 0-3.229 1.356-3.229 3.276 0 1.908 1.332 3.264 3.229 3.264 1.895 0 3.24-1.356 3.24-3.264 0-1.92-1.345-3.276-3.24-3.276zm0 5.712c-1.345 0-2.316-1.032-2.316-2.436 0-1.416.971-2.436 2.316-2.436 1.343 0 2.316 1.02 2.316 2.436 0 1.404-.973 2.436-2.316 2.436zm4.544-5.472V246h.911v-3.54c0-1.116.925-1.92 1.98-1.92 1.069 0 1.68.768 1.68 1.836V246h.913v-3.624c0-1.548-.948-2.676-2.496-2.676-.84 0-1.657.42-2.077 1.092v-.852h-.911zm8.573-1.164c0-.624.36-.996.888-.996.252 0 .48.048.684.108v-.792a2.74 2.74 0 00-.912-.156c-.936 0-1.572.684-1.584 1.74v1.26h-.984v.756h.984V246h.924v-5.304h1.548v-.756h-1.548v-1.164zM53.567 246v-6.06h-.912v3.552c0 1.104-.912 1.92-1.968 1.92-1.08 0-1.692-.78-1.692-1.848v-3.624h-.912v3.624c0 1.548.948 2.676 2.496 2.676.84 0 1.668-.42 2.076-1.092V246h.912zm6.594-1.74c-.012-1.344-1.44-1.596-2.556-1.788-1.104-.18-1.608-.36-1.608-.9 0-.6.636-1.032 1.416-1.032.984 0 1.704.504 1.716 1.2l.9.012c-.012-1.188-1.104-2.052-2.604-2.052-1.308 0-2.316.78-2.316 1.848-.012 1.368 1.056 1.56 2.436 1.776.66.096 1.716.264 1.728 1.02 0 .612-.684 1.068-1.62 1.068-1.032 0-1.776-.6-1.776-1.44h-.9c0 1.308 1.128 2.268 2.688 2.268 1.44 0 2.496-.84 2.496-1.98zm1.98-1.788c.167-1.14 1.043-1.932 2.22-1.932 1.2 0 2.087.792 2.255 1.944l-4.476-.012zm-.96.432c0 1.932 1.355 3.336 3.227 3.336 1.344 0 2.592-.864 2.964-2.052l-.9-.144c-.276.792-1.164 1.368-2.1 1.368-1.2 0-2.112-.876-2.256-2.148l5.448.012c.012-.132.012-.252.012-.36 0-1.86-1.332-3.216-3.18-3.216-1.872 0-3.216 1.356-3.216 3.204zm10.605-2.316c1.343 0 2.316 1.008 2.316 2.388 0 1.368-.973 2.376-2.317 2.376-1.331 0-2.316-.984-2.316-2.376 0-1.38.973-2.388 2.317-2.388zm-3.228 2.388c0 1.884 1.32 3.264 3.131 3.264 1.033 0 1.897-.492 2.413-1.284V246h.888v-8.82h-.912v3.78c-.517-.78-1.368-1.26-2.389-1.26-1.811 0-3.131 1.38-3.131 3.276zm14.431 2.436c-1.344 0-2.316-1.032-2.316-2.436 0-1.416.972-2.436 2.316-2.436 1.332 0 2.316 1.02 2.316 2.436 0 1.404-.984 2.436-2.316 2.436zm2.328-4.392c-.516-.816-1.392-1.32-2.436-1.32-1.812 0-3.12 1.38-3.12 3.276 0 1.884 1.308 3.264 3.12 3.264 1.044 0 1.92-.504 2.436-1.308V246h.912v-6.06h-.912v1.08zm5.771-.432c1.344 0 2.316 1.008 2.316 2.388 0 1.392-.984 2.376-2.316 2.376-1.344 0-2.316-1.008-2.316-2.376 0-1.38.972-2.388 2.316-2.388zm3.228 2.388c0-1.896-1.308-3.276-3.12-3.276-1.032 0-1.884.48-2.4 1.26v-3.78h-.912V246h.888v-1.044c.516.792 1.38 1.284 2.424 1.284 1.8 0 3.12-1.38 3.12-3.264zm4.2-3.276c-1.895 0-3.227 1.356-3.227 3.276 0 1.908 1.332 3.264 3.228 3.264 1.896 0 3.24-1.356 3.24-3.264 0-1.92-1.344-3.276-3.24-3.276zm0 5.712c-1.343 0-2.315-1.032-2.315-2.436 0-1.416.972-2.436 2.316-2.436 1.344 0 2.316 1.02 2.316 2.436 0 1.404-.972 2.436-2.316 2.436zm9.909.588v-6.06h-.912v3.552c0 1.104-.912 1.92-1.968 1.92-1.08 0-1.692-.78-1.692-1.848v-3.624h-.912v3.624c0 1.548.948 2.676 2.496 2.676.84 0 1.668-.42 2.076-1.092V246h.912zm2.177-1.5c0 1.044.624 1.74 1.62 1.74.3 0 .684-.06.96-.144v-.756c-.228.072-.54.12-.732.12-.576-.012-.936-.408-.936-.996v-3.768h1.572v-.756h-1.572v-1.416h-.744l-.132 1.416h-1.032v.756h.996v3.804zm10.24.912c-1.344 0-2.316-1.032-2.316-2.436 0-1.416.972-2.436 2.316-2.436 1.332 0 2.316 1.02 2.316 2.436 0 1.404-.984 2.436-2.316 2.436zm2.328-4.392c-.516-.816-1.392-1.32-2.436-1.32-1.812 0-3.12 1.38-3.12 3.276 0 1.884 1.308 3.264 3.12 3.264 1.044 0 1.92-.504 2.436-1.308V246h.912v-6.06h-.912v1.08zm5.771-.432c1.344 0 2.316 1.008 2.316 2.388 0 1.392-.984 2.376-2.316 2.376-1.344 0-2.316-1.008-2.316-2.376 0-1.38.972-2.388 2.316-2.388zm3.228 2.388c0-1.896-1.308-3.276-3.12-3.276-1.032 0-1.884.48-2.4 1.26v-3.78h-.912V246h.888v-1.044c.516.792 1.38 1.284 2.424 1.284 1.8 0 3.12-1.38 3.12-3.264zm4.201-3.276c-1.896 0-3.228 1.356-3.228 3.276 0 1.908 1.332 3.264 3.228 3.264 1.896 0 3.24-1.356 3.24-3.264 0-1.92-1.344-3.276-3.24-3.276zm0 5.712c-1.344 0-2.316-1.032-2.316-2.436 0-1.416.972-2.436 2.316-2.436 1.344 0 2.316 1.02 2.316 2.436 0 1.404-.972 2.436-2.316 2.436zm9.908.588v-6.06h-.912v3.552c0 1.104-.912 1.92-1.968 1.92-1.08 0-1.692-.78-1.692-1.848v-3.624h-.912v3.624c0 1.548.948 2.676 2.496 2.676.84 0 1.668-.42 2.076-1.092V246h.912zm2.177-1.5c0 1.044.624 1.74 1.62 1.74.3 0 .684-.06.96-.144v-.756c-.228.072-.54.12-.732.12-.576-.012-.936-.408-.936-.996v-3.768h1.572v-.756h-1.572v-1.416h-.744l-.132 1.416h-1.032v.756h.996v3.804zm10.216 1.5l1.452-4.992 1.452 4.992h1.248l2.064-6.06h-.96l-1.704 5.16-1.572-5.16h-1.068l-1.524 5.16-1.728-5.16h-.96l2.052 6.06h1.248zm7.439-8.82V246h.912v-3.54c0-1.116.9-1.92 1.944-1.92 1.08 0 1.716.768 1.716 1.836V246h.912v-3.624c0-1.548-.972-2.676-2.508-2.676-.84 0-1.656.42-2.064 1.104v-3.624h-.912zm7.65 5.292c.168-1.14 1.044-1.932 2.22-1.932 1.2 0 2.088.792 2.256 1.944l-4.476-.012zm-.96.432c0 1.932 1.356 3.336 3.228 3.336 1.344 0 2.592-.864 2.964-2.052l-.9-.144c-.276.792-1.164 1.368-2.1 1.368-1.2 0-2.112-.876-2.256-2.148l5.448.012c.012-.132.012-.252.012-.36 0-1.86-1.332-3.216-3.18-3.216-1.872 0-3.216 1.356-3.216 3.204zm7.713-2.964V246h.912v-3.396c0-1.212.624-2.064 1.572-2.064.24 0 .588.048.9.192v-.84a2.307 2.307 0 00-.816-.168c-.744 0-1.32.396-1.68 1.056v-.84h-.888zm4.743 2.532c.168-1.14 1.044-1.932 2.22-1.932 1.2 0 2.088.792 2.256 1.944l-4.476-.012zm-.96.432c0 1.932 1.356 3.336 3.228 3.336 1.344 0 2.592-.864 2.964-2.052l-.9-.144c-.276.792-1.164 1.368-2.1 1.368-1.2 0-2.112-.876-2.256-2.148l5.448.012c.012-.132.012-.252.012-.36 0-1.86-1.332-3.216-3.18-3.216-1.872 0-3.216 1.356-3.216 3.204zm11.681 1.596c0 1.044.624 1.74 1.62 1.74.3 0 .684-.06.96-.144v-.756c-.228.072-.54.12-.732.12-.576-.012-.936-.408-.936-.996v-3.768h1.572v-.756h-1.572v-1.416h-.744l-.132 1.416h-1.032v.756h.996v3.804zm6.776-4.8c-1.896 0-3.228 1.356-3.228 3.276 0 1.908 1.332 3.264 3.228 3.264 1.896 0 3.24-1.356 3.24-3.264 0-1.92-1.344-3.276-3.24-3.276zm0 5.712c-1.344 0-2.316-1.032-2.316-2.436 0-1.416.972-2.436 2.316-2.436 1.344 0 2.316 1.02 2.316 2.436 0 1.404-.972 2.436-2.316 2.436zm10.887-.072c-1.332 0-2.316-.996-2.316-2.364 0-1.416.972-2.436 2.316-2.436 1.344 0 2.316 1.02 2.316 2.436 0 1.368-.972 2.364-2.316 2.364zm.06 2.832c-1.056 0-1.98-.696-2.184-1.668l-.876.12c.216 1.38 1.524 2.376 3.096 2.376 1.8 0 3.108-1.152 3.108-3.096v-5.964h-.912v1.008c-.516-.756-1.344-1.224-2.388-1.224-1.812 0-3.132 1.368-3.132 3.252 0 1.848 1.32 3.192 3.132 3.192 1.02 0 1.86-.456 2.388-1.224v.96c0 1.428-.936 2.268-2.232 2.268zm7.681-8.472c-1.896 0-3.228 1.356-3.228 3.276 0 1.908 1.332 3.264 3.228 3.264 1.896 0 3.24-1.356 3.24-3.264 0-1.92-1.344-3.276-3.24-3.276zm0 5.712c-1.344 0-2.316-1.032-2.316-2.436 0-1.416.972-2.436 2.316-2.436 1.344 0 2.316 1.02 2.316 2.436 0 1.404-.972 2.436-2.316 2.436zm7.136.744c.36 0 .624-.252.624-.624 0-.36-.264-.612-.624-.612-.372 0-.624.264-.624.612 0 .372.252.624.624.624zm.468-2.304c0-.984.276-1.392.972-1.86.84-.552 1.512-1.032 1.512-2.184 0-1.476-1.224-2.568-2.796-2.568-1.608 0-2.772 1.14-2.964 2.724l.936.18c.132-1.164.9-2.016 2.016-2.016 1.02 0 1.8.732 1.8 1.692 0 .768-.552 1.164-1.152 1.572-.792.552-1.248 1.116-1.248 2.46h.924zM14.344 267c.432 0 .744-.3.744-.72s-.312-.72-.744-.72-.732.3-.732.72.3.72.732.72zm11.763-5.46h-1.464l-1.968 7.788-2.184-7.788h-1.044l2.412 8.46h1.62l1.872-7.416L27.235 270h1.608l2.4-8.46h-1.032l-2.184 7.788-1.92-7.788zm6.41-.36V270h.912v-3.54c0-1.116.9-1.92 1.944-1.92 1.08 0 1.716.768 1.716 1.836V270h.912v-3.624c0-1.548-.972-2.676-2.508-2.676-.84 0-1.656.42-2.064 1.104v-3.624h-.912zm7.17 2.76V270h.912v-6.06h-.912zm.456-1.116c.36 0 .624-.264.624-.624s-.264-.612-.624-.612c-.372 0-.624.252-.624.612s.252.624.624.624zm5.073.876c-1.824 0-3.156 1.38-3.156 3.276s1.32 3.264 3.156 3.264c1.428 0 2.664-.912 2.94-2.184l-.9-.12c-.24.864-1.056 1.5-2.04 1.5-1.284 0-2.244-1.032-2.244-2.46s.972-2.472 2.244-2.472c.96 0 1.812.648 2.04 1.536l.888-.12c-.228-1.284-1.464-2.22-2.928-2.22zm4.265-2.52V270h.912v-3.54c0-1.116.9-1.92 1.944-1.92 1.08 0 1.716.768 1.716 1.836V270h.912v-3.624c0-1.548-.972-2.676-2.508-2.676-.84 0-1.656.42-2.064 1.104v-3.624h-.912zm13.297 2.52c-1.824 0-3.156 1.38-3.156 3.276s1.32 3.264 3.156 3.264c1.428 0 2.664-.912 2.94-2.184l-.9-.12c-.24.864-1.056 1.5-2.04 1.5-1.284 0-2.244-1.032-2.244-2.46s.972-2.472 2.244-2.472c.96 0 1.812.648 2.04 1.536l.888-.12c-.228-1.284-1.464-2.22-2.928-2.22zm7.156 5.712c-1.344 0-2.316-1.032-2.316-2.436 0-1.416.972-2.436 2.316-2.436 1.332 0 2.316 1.02 2.316 2.436 0 1.404-.984 2.436-2.316 2.436zm2.328-4.392c-.516-.816-1.392-1.32-2.436-1.32-1.812 0-3.12 1.38-3.12 3.276 0 1.884 1.308 3.264 3.12 3.264 1.044 0 1.92-.504 2.436-1.308V270h.912v-6.06h-.912v1.08zm2.567-1.08V270h.912v-3.396c0-1.212.624-2.064 1.572-2.064.24 0 .588.048.9.192v-.84a2.307 2.307 0 00-.816-.168c-.744 0-1.32.396-1.68 1.056v-.84h-.888zm4.744 2.532c.168-1.14 1.044-1.932 2.22-1.932 1.2 0 2.088.792 2.256 1.944l-4.476-.012zm-.96.432c0 1.932 1.356 3.336 3.228 3.336 1.344 0 2.592-.864 2.964-2.052l-.9-.144c-.276.792-1.164 1.368-2.1 1.368-1.2 0-2.112-.876-2.256-2.148l5.448.012c.012-.132.012-.252.012-.36 0-1.86-1.332-3.216-3.18-3.216-1.872 0-3.216 1.356-3.216 3.204zm8.337-.432c.168-1.14 1.044-1.932 2.22-1.932 1.2 0 2.088.792 2.256 1.944l-4.476-.012zm-.96.432c0 1.932 1.356 3.336 3.228 3.336 1.344 0 2.592-.864 2.964-2.052l-.9-.144c-.276.792-1.164 1.368-2.1 1.368-1.2 0-2.112-.876-2.256-2.148l5.448.012c.012-.132.012-.252.012-.36 0-1.86-1.332-3.216-3.18-3.216-1.872 0-3.216 1.356-3.216 3.204zm7.713-2.964V270h.912v-3.396c0-1.212.624-2.064 1.572-2.064.24 0 .588.048.9.192v-.84a2.307 2.307 0 00-.816-.168c-.744 0-1.32.396-1.68 1.056v-.84h-.888zm11.138 5.412c-1.344 0-2.316-1.008-2.316-2.376 0-1.38.972-2.388 2.316-2.388 1.332 0 2.316.984 2.316 2.388 0 1.368-.972 2.376-2.316 2.376zm3.228-2.376c0-1.896-1.32-3.276-3.12-3.276-1.044 0-1.908.492-2.424 1.284v-1.044h-.888v8.82h.912v-3.78c.516.792 1.368 1.26 2.4 1.26 1.812 0 3.12-1.38 3.12-3.264zm4.212 2.436c-1.344 0-2.316-1.032-2.316-2.436 0-1.416.972-2.436 2.316-2.436 1.332 0 2.316 1.02 2.316 2.436 0 1.404-.984 2.436-2.316 2.436zm2.328-4.392c-.516-.816-1.392-1.32-2.436-1.32-1.812 0-3.12 1.38-3.12 3.276 0 1.884 1.308 3.264 3.12 3.264 1.044 0 1.92-.504 2.436-1.308V270h.912v-6.06h-.912v1.08zm3.084 3.48c0 1.044.624 1.74 1.62 1.74.3 0 .684-.06.96-.144v-.756c-.228.072-.54.12-.732.12-.576-.012-.936-.408-.936-.996v-3.768h1.572v-.756h-1.572v-1.416h-.744l-.132 1.416h-1.032v.756h.996v3.804zm3.896-7.32V270h.912v-3.54c0-1.116.9-1.92 1.944-1.92 1.08 0 1.716.768 1.716 1.836V270h.912v-3.624c0-1.548-.972-2.676-2.508-2.676-.84 0-1.656.42-2.064 1.104v-3.624h-.912zm11.958 7.08c-.012-1.344-1.44-1.596-2.556-1.788-1.104-.18-1.608-.36-1.608-.9 0-.6.636-1.032 1.416-1.032.984 0 1.704.504 1.716 1.2l.9.012c-.012-1.188-1.104-2.052-2.604-2.052-1.308 0-2.316.78-2.316 1.848-.012 1.368 1.056 1.56 2.436 1.776.66.096 1.716.264 1.728 1.02 0 .612-.684 1.068-1.62 1.068-1.032 0-1.776-.6-1.776-1.44h-.9c0 1.308 1.128 2.268 2.688 2.268 1.44 0 2.496-.84 2.496-1.98zm7.674 1.74l1.452-4.992 1.452 4.992h1.248l2.064-6.06h-.96l-1.704 5.16-1.572-5.16h-1.068l-1.524 5.16-1.728-5.16h-.96l2.052 6.06h1.248zm7.583-6.06V270h.912v-6.06h-.912zm.456-1.116c.36 0 .624-.264.624-.624s-.264-.612-.624-.612c-.372 0-.624.252-.624.612s.252.624.624.624zm2.242-1.644V270h.924v-8.82h-.924zm2.561 0V270h.924v-8.82h-.924zm9.228 3.408c1.344 0 2.316 1.008 2.316 2.388 0 1.392-.984 2.376-2.316 2.376-1.344 0-2.316-1.008-2.316-2.376 0-1.38.972-2.388 2.316-2.388zm3.228 2.388c0-1.896-1.308-3.276-3.12-3.276-1.032 0-1.884.48-2.4 1.26v-3.78h-.912V270h.888v-1.044c.516.792 1.38 1.284 2.424 1.284 1.8 0 3.12-1.38 3.12-3.264zm1.32-3.036V270h.912v-3.396c0-1.212.624-2.064 1.572-2.064.24 0 .588.048.9.192v-.84a2.307 2.307 0 00-.816-.168c-.744 0-1.32.396-1.68 1.056v-.84h-.888zm4.627 0V270h.912v-6.06h-.912zm.456-1.116c.36 0 .624-.264.624-.624s-.264-.612-.624-.612c-.372 0-.624.252-.624.612s.252.624.624.624zm2.253 1.116V270h.912v-3.54c0-1.116.924-1.92 1.98-1.92 1.068 0 1.68.768 1.68 1.836V270h.912v-3.624c0-1.548-.948-2.676-2.496-2.676-.84 0-1.656.42-2.076 1.092v-.852h-.912zm9.918 5.4c-1.332 0-2.316-.996-2.316-2.364 0-1.416.972-2.436 2.316-2.436 1.344 0 2.316 1.02 2.316 2.436 0 1.368-.972 2.364-2.316 2.364zm.06 2.832c-1.056 0-1.98-.696-2.184-1.668l-.876.12c.216 1.38 1.524 2.376 3.096 2.376 1.8 0 3.108-1.152 3.108-3.096v-5.964h-.912v1.008c-.516-.756-1.344-1.224-2.388-1.224-1.812 0-3.132 1.368-3.132 3.252 0 1.848 1.32 3.192 3.132 3.192 1.02 0 1.86-.456 2.388-1.224v.96c0 1.428-.936 2.268-2.232 2.268zm8.072.324c.276.108.636.18.936.18 1.272 0 1.764-1.212 2.316-2.592l2.412-6.144h-.972l-1.896 4.92-2.16-4.92h-1.008l2.724 6.048c-.396.912-.66 1.872-1.548 1.872-.228 0-.528-.072-.804-.168v.804zm9.347-8.796c-1.896 0-3.228 1.356-3.228 3.276 0 1.908 1.332 3.264 3.228 3.264 1.896 0 3.24-1.356 3.24-3.264 0-1.92-1.344-3.276-3.24-3.276zm0 5.712c-1.344 0-2.316-1.032-2.316-2.436 0-1.416.972-2.436 2.316-2.436 1.344 0 2.316 1.02 2.316 2.436 0 1.404-.972 2.436-2.316 2.436zm9.908.588v-6.06h-.912v3.552c0 1.104-.912 1.92-1.968 1.92-1.08 0-1.692-.78-1.692-1.848v-3.624h-.912v3.624c0 1.548.948 2.676 2.496 2.676.84 0 1.668-.42 2.076-1.092V270h.912zm10.045-1.74c-.012-1.344-1.44-1.596-2.556-1.788-1.104-.18-1.608-.36-1.608-.9 0-.6.636-1.032 1.416-1.032.984 0 1.704.504 1.716 1.2l.9.012c-.012-1.188-1.104-2.052-2.604-2.052-1.308 0-2.316.78-2.316 1.848-.012 1.368 1.056 1.56 2.436 1.776.66.096 1.716.264 1.728 1.02 0 .612-.684 1.068-1.62 1.068-1.032 0-1.776-.6-1.776-1.44h-.9c0 1.308 1.128 2.268 2.688 2.268 1.44 0 2.496-.84 2.496-1.98zm6.719 1.74v-6.06h-.912v3.552c0 1.104-.912 1.92-1.968 1.92-1.08 0-1.692-.78-1.692-1.848v-3.624h-.912v3.624c0 1.548.948 2.676 2.496 2.676.84 0 1.668-.42 2.076-1.092V270h.912zm4.482-6.3c-1.824 0-3.156 1.38-3.156 3.276s1.32 3.264 3.156 3.264c1.428 0 2.664-.912 2.94-2.184l-.9-.12c-.24.864-1.056 1.5-2.04 1.5-1.284 0-2.244-1.032-2.244-2.46s.972-2.472 2.244-2.472c.96 0 1.812.648 2.04 1.536l.888-.12c-.228-1.284-1.464-2.22-2.928-2.22zm7.084 0c-1.824 0-3.156 1.38-3.156 3.276s1.32 3.264 3.156 3.264c1.428 0 2.664-.912 2.94-2.184l-.9-.12c-.24.864-1.056 1.5-2.04 1.5-1.284 0-2.244-1.032-2.244-2.46s.972-2.472 2.244-2.472c.96 0 1.812.648 2.04 1.536l.888-.12c-.228-1.284-1.464-2.22-2.928-2.22zm4.889 2.772c.168-1.14 1.044-1.932 2.22-1.932 1.2 0 2.088.792 2.256 1.944l-4.476-.012zm-.96.432c0 1.932 1.356 3.336 3.228 3.336 1.344 0 2.592-.864 2.964-2.052l-.9-.144c-.276.792-1.164 1.368-2.1 1.368-1.2 0-2.112-.876-2.256-2.148l5.448.012c.012-.132.012-.252.012-.36 0-1.86-1.332-3.216-3.18-3.216-1.872 0-3.216 1.356-3.216 3.204zm12.645 1.356c-.012-1.344-1.44-1.596-2.556-1.788-1.104-.18-1.608-.36-1.608-.9 0-.6.636-1.032 1.416-1.032.984 0 1.704.504 1.716 1.2l.9.012c-.012-1.188-1.104-2.052-2.604-2.052-1.308 0-2.316.78-2.316 1.848-.012 1.368 1.056 1.56 2.436 1.776.66.096 1.716.264 1.728 1.02 0 .612-.684 1.068-1.62 1.068-1.032 0-1.776-.6-1.776-1.44h-.9c0 1.308 1.128 2.268 2.688 2.268 1.44 0 2.496-.84 2.496-1.98zm6.287 0c-.012-1.344-1.44-1.596-2.556-1.788-1.104-.18-1.608-.36-1.608-.9 0-.6.636-1.032 1.416-1.032.984 0 1.704.504 1.716 1.2l.9.012c-.012-1.188-1.104-2.052-2.604-2.052-1.308 0-2.316.78-2.316 1.848-.012 1.368 1.056 1.56 2.436 1.776.66.096 1.716.264 1.728 1.02 0 .612-.684 1.068-1.62 1.068-1.032 0-1.776-.6-1.776-1.44h-.9c0 1.308 1.128 2.268 2.688 2.268 1.44 0 2.496-.84 2.496-1.98zm3.947 1.896c.36 0 .624-.252.624-.624 0-.36-.264-.612-.624-.612-.372 0-.624.264-.624.612 0 .372.252.624.624.624zm.468-2.304c0-.984.276-1.392.972-1.86.84-.552 1.512-1.032 1.512-2.184 0-1.476-1.224-2.568-2.796-2.568-1.608 0-2.772 1.14-2.964 2.724l.936.18c.132-1.164.9-2.016 2.016-2.016 1.02 0 1.8.732 1.8 1.692 0 .768-.552 1.164-1.152 1.572-.792.552-1.248 1.116-1.248 2.46h.924zM14.344 291c.432 0 .744-.3.744-.72s-.312-.72-.744-.72-.732.3-.732.72.3.72.732.72zm11.763-5.46h-1.464l-1.968 7.788-2.184-7.788h-1.044l2.412 8.46h1.62l1.872-7.416L27.235 294h1.608l2.4-8.46h-1.032l-2.184 7.788-1.92-7.788zm8.704 7.872c-1.344 0-2.316-1.032-2.316-2.436 0-1.416.972-2.436 2.316-2.436 1.332 0 2.316 1.02 2.316 2.436 0 1.404-.984 2.436-2.316 2.436zm2.328-4.392c-.516-.816-1.392-1.32-2.436-1.32-1.812 0-3.12 1.38-3.12 3.276 0 1.884 1.308 3.264 3.12 3.264 1.044 0 1.92-.504 2.436-1.308V294h.912v-6.06h-.912v1.08zm2.568-1.08V294h.912v-3.54c0-1.116.924-1.92 1.98-1.92 1.068 0 1.68.768 1.68 1.836V294h.912v-3.624c0-1.548-.948-2.676-2.496-2.676-.84 0-1.656.42-2.076 1.092v-.852h-.912zm7.541 4.56c0 1.044.624 1.74 1.62 1.74.3 0 .684-.06.96-.144v-.756c-.228.072-.54.12-.732.12-.576-.012-.936-.408-.936-.996v-3.768h1.572v-.756H48.16v-1.416h-.744l-.132 1.416h-1.032v.756h.996v3.804zm7.864 0c0 1.044.624 1.74 1.62 1.74.3 0 .684-.06.96-.144v-.756c-.228.072-.54.12-.732.12-.576-.012-.936-.408-.936-.996v-3.768h1.572v-.756h-1.572v-1.416h-.744l-.132 1.416h-1.032v.756h.996v3.804zm6.776-4.8c-1.895 0-3.227 1.356-3.227 3.276 0 1.908 1.331 3.264 3.227 3.264 1.897 0 3.24-1.356 3.24-3.264 0-1.92-1.343-3.276-3.24-3.276zm0 5.712c-1.343 0-2.316-1.032-2.316-2.436 0-1.416.972-2.436 2.316-2.436 1.345 0 2.316 1.02 2.316 2.436 0 1.404-.971 2.436-2.315 2.436zm7.996.588h.912v-2.868l2.76 2.868h1.236l-3.156-3.24 3.036-2.82h-1.236l-2.64 2.448v-5.208h-.912V294zm5.936-6.06V294h.912v-3.54c0-1.116.924-1.92 1.98-1.92 1.068 0 1.68.768 1.68 1.836V294h.912v-3.624c0-1.548-.948-2.676-2.496-2.676-.84 0-1.656.42-2.076 1.092v-.852h-.912zm9.905-.24c-1.896 0-3.228 1.356-3.228 3.276 0 1.908 1.332 3.264 3.228 3.264 1.896 0 3.24-1.356 3.24-3.264 0-1.92-1.344-3.276-3.24-3.276zm0 5.712c-1.344 0-2.316-1.032-2.316-2.436 0-1.416.972-2.436 2.316-2.436 1.344 0 2.316 1.02 2.316 2.436 0 1.404-.972 2.436-2.316 2.436zm7.412.588l1.452-4.992L96.041 294h1.248l2.064-6.06h-.96l-1.704 5.16-1.572-5.16H94.05l-1.524 5.16-1.728-5.16h-.96L91.89 294h1.248zm13.759 0l1.452-4.992L109.8 294h1.248l2.064-6.06h-.96l-1.704 5.16-1.572-5.16h-1.068l-1.524 5.16-1.728-5.16h-.96l2.052 6.06h1.248zm7.439-8.82V294h.912v-3.54c0-1.116.9-1.92 1.944-1.92 1.08 0 1.716.768 1.716 1.836V294h.912v-3.624c0-1.548-.972-2.676-2.508-2.676-.84 0-1.656.42-2.064 1.104v-3.624h-.912zm7.169 2.76V294h.912v-6.06h-.912zm.456-1.116c.36 0 .624-.264.624-.624s-.264-.612-.624-.612c-.372 0-.624.252-.624.612s.252.624.624.624zm5.074.876c-1.824 0-3.156 1.38-3.156 3.276s1.32 3.264 3.156 3.264c1.428 0 2.664-.912 2.94-2.184l-.9-.12c-.24.864-1.056 1.5-2.04 1.5-1.284 0-2.244-1.032-2.244-2.46s.972-2.472 2.244-2.472c.96 0 1.812.648 2.04 1.536l.888-.12c-.228-1.284-1.464-2.22-2.928-2.22zm4.264-2.52V294h.912v-3.54c0-1.116.9-1.92 1.944-1.92 1.08 0 1.716.768 1.716 1.836V294h.912v-3.624c0-1.548-.972-2.676-2.508-2.676-.84 0-1.656.42-2.064 1.104v-3.624h-.912zm15.841 8.82v-6.06h-.912v3.552c0 1.104-.912 1.92-1.968 1.92-1.08 0-1.692-.78-1.692-1.848v-3.624h-.912v3.624c0 1.548.948 2.676 2.496 2.676.84 0 1.668-.42 2.076-1.092V294h.912zm1.662-6.06V294h.912v-3.54c0-1.116.924-1.92 1.98-1.92 1.068 0 1.68.768 1.68 1.836V294h.912v-3.624c0-1.548-.948-2.676-2.496-2.676-.84 0-1.656.42-2.076 1.092v-.852h-.912zm7.169 0V294h.912v-6.06h-.912zm.456-1.116c.36 0 .624-.264.624-.624s-.264-.612-.624-.612c-.372 0-.624.252-.624.612s.252.624.624.624zm5.338 7.176l2.34-6.06h-.984l-2.004 5.328-2.004-5.328h-.984l2.352 6.06h1.284zm3.769-3.528c.168-1.14 1.044-1.932 2.22-1.932 1.2 0 2.088.792 2.256 1.944l-4.476-.012zm-.96.432c0 1.932 1.356 3.336 3.228 3.336 1.344 0 2.592-.864 2.964-2.052l-.9-.144c-.276.792-1.164 1.368-2.1 1.368-1.2 0-2.112-.876-2.256-2.148l5.448.012c.012-.132.012-.252.012-.36 0-1.86-1.332-3.216-3.18-3.216-1.872 0-3.216 1.356-3.216 3.204zm7.713-2.964V294h.912v-3.396c0-1.212.624-2.064 1.572-2.064.24 0 .588.048.9.192v-.84a2.307 2.307 0 00-.816-.168c-.744 0-1.32.396-1.68 1.056v-.84h-.888zm9.415 4.32c-.012-1.344-1.44-1.596-2.556-1.788-1.104-.18-1.608-.36-1.608-.9 0-.6.636-1.032 1.416-1.032.984 0 1.704.504 1.716 1.2l.9.012c-.012-1.188-1.104-2.052-2.604-2.052-1.308 0-2.316.78-2.316 1.848-.012 1.368 1.056 1.56 2.436 1.776.66.096 1.716.264 1.728 1.02 0 .612-.684 1.068-1.62 1.068-1.032 0-1.776-.6-1.776-1.44h-.9c0 1.308 1.128 2.268 2.688 2.268 1.44 0 2.496-.84 2.496-1.98zm1.499-4.32V294h.912v-6.06h-.912zm.456-1.116c.36 0 .624-.264.624-.624s-.264-.612-.624-.612c-.372 0-.624.252-.624.612s.252.624.624.624zm2.77 5.676c0 1.044.624 1.74 1.62 1.74.3 0 .684-.06.96-.144v-.756c-.228.072-.54.12-.732.12-.576-.012-.936-.408-.936-.996v-3.768h1.572v-.756h-1.572v-1.416h-.744l-.132 1.416h-1.032v.756h.996v3.804zm4.04-4.56V294h.912v-6.06h-.912zm.456-1.116c.36 0 .624-.264.624-.624s-.264-.612-.624-.612c-.372 0-.624.252-.624.612s.252.624.624.624zm2.878 3.648c.168-1.14 1.044-1.932 2.22-1.932 1.2 0 2.088.792 2.256 1.944l-4.476-.012zm-.96.432c0 1.932 1.356 3.336 3.228 3.336 1.344 0 2.592-.864 2.964-2.052l-.9-.144c-.276.792-1.164 1.368-2.1 1.368-1.2 0-2.112-.876-2.256-2.148l5.448.012c.012-.132.012-.252.012-.36 0-1.86-1.332-3.216-3.18-3.216-1.872 0-3.216 1.356-3.216 3.204zm12.645 1.356c-.012-1.344-1.44-1.596-2.556-1.788-1.104-.18-1.608-.36-1.608-.9 0-.6.636-1.032 1.416-1.032.984 0 1.704.504 1.716 1.2l.9.012c-.012-1.188-1.104-2.052-2.604-2.052-1.308 0-2.316.78-2.316 1.848-.012 1.368 1.056 1.56 2.436 1.776.66.096 1.716.264 1.728 1.02 0 .612-.684 1.068-1.62 1.068-1.032 0-1.776-.6-1.776-1.44h-.9c0 1.308 1.128 2.268 2.688 2.268 1.44 0 2.496-.84 2.496-1.98zm7.675 1.74l1.452-4.992 1.452 4.992h1.248l2.064-6.06h-.96l-1.704 5.16-1.572-5.16h-1.068l-1.524 5.16-1.728-5.16h-.96l2.052 6.06h1.248zm7.583-6.06V294h.912v-6.06h-.912zm.456-1.116c.36 0 .624-.264.624-.624s-.264-.612-.624-.612c-.372 0-.624.252-.624.612s.252.624.624.624zm2.242-1.644V294h.924v-8.82h-.924zm2.56 0V294h.924v-8.82h-.924zm6.012 0V294h.924v-8.82h-.924zm3.197 5.292c.168-1.14 1.044-1.932 2.22-1.932 1.2 0 2.088.792 2.256 1.944l-4.476-.012zm-.96.432c0 1.932 1.356 3.336 3.228 3.336 1.344 0 2.592-.864 2.964-2.052l-.9-.144c-.276.792-1.164 1.368-2.1 1.368-1.2 0-2.112-.876-2.256-2.148l5.448.012c.012-.132.012-.252.012-.36 0-1.86-1.332-3.216-3.18-3.216-1.872 0-3.216 1.356-3.216 3.204zm10.605 2.508c-1.344 0-2.316-1.032-2.316-2.436 0-1.416.972-2.436 2.316-2.436 1.332 0 2.316 1.02 2.316 2.436 0 1.404-.984 2.436-2.316 2.436zm2.328-4.392c-.516-.816-1.392-1.32-2.436-1.32-1.812 0-3.12 1.38-3.12 3.276 0 1.884 1.308 3.264 3.12 3.264 1.044 0 1.92-.504 2.436-1.308V294h.912v-6.06h-.912v1.08zm5.46-.432c1.344 0 2.316 1.008 2.316 2.388 0 1.368-.972 2.376-2.316 2.376-1.332 0-2.316-.984-2.316-2.376 0-1.38.972-2.388 2.316-2.388zm-3.228 2.388c0 1.884 1.32 3.264 3.132 3.264 1.032 0 1.896-.492 2.412-1.284V294h.888v-8.82h-.912v3.78c-.516-.78-1.368-1.26-2.388-1.26-1.812 0-3.132 1.38-3.132 3.276zm11.359 5.52c.276.108.636.18.936.18 1.272 0 1.764-1.212 2.316-2.592l2.412-6.144h-.972l-1.896 4.92-2.16-4.92h-1.008l2.724 6.048c-.396.912-.66 1.872-1.548 1.872-.228 0-.528-.072-.804-.168v.804zm9.348-8.796c-1.896 0-3.228 1.356-3.228 3.276 0 1.908 1.332 3.264 3.228 3.264 1.896 0 3.24-1.356 3.24-3.264 0-1.92-1.344-3.276-3.24-3.276zm0 5.712c-1.344 0-2.316-1.032-2.316-2.436 0-1.416.972-2.436 2.316-2.436 1.344 0 2.316 1.02 2.316 2.436 0 1.404-.972 2.436-2.316 2.436zm9.908.588v-6.06h-.912v3.552c0 1.104-.912 1.92-1.968 1.92-1.08 0-1.692-.78-1.692-1.848v-3.624h-.912v3.624c0 1.548.948 2.676 2.496 2.676.84 0 1.668-.42 2.076-1.092V294h.912zM14.464 316.5c0 1.044.624 1.74 1.62 1.74.3 0 .684-.06.96-.144v-.756c-.228.072-.54.12-.732.12-.576-.012-.936-.408-.936-.996v-3.768h1.572v-.756h-1.572v-1.416h-.744l-.132 1.416h-1.032v.756h.996v3.804zm6.776-4.8c-1.896 0-3.228 1.356-3.228 3.276 0 1.908 1.332 3.264 3.228 3.264 1.896 0 3.24-1.356 3.24-3.264 0-1.92-1.344-3.276-3.24-3.276zm0 5.712c-1.344 0-2.316-1.032-2.316-2.436 0-1.416.972-2.436 2.316-2.436 1.344 0 2.316 1.02 2.316 2.436 0 1.404-.972 2.436-2.316 2.436zm8.512-.912c0 1.044.624 1.74 1.62 1.74.3 0 .684-.06.96-.144v-.756c-.228.072-.54.12-.732.12-.576-.012-.936-.408-.936-.996v-3.768h1.572v-.756h-1.572v-1.416h-.744l-.132 1.416h-1.032v.756h.996v3.804zm3.896-7.32V318h.912v-3.54c0-1.116.9-1.92 1.944-1.92 1.08 0 1.716.768 1.716 1.836V318h.912v-3.624c0-1.548-.972-2.676-2.508-2.676-.84 0-1.656.42-2.064 1.104v-3.624h-.912zm7.65 5.292c.168-1.14 1.044-1.932 2.22-1.932 1.2 0 2.088.792 2.256 1.944l-4.476-.012zm-.96.432c0 1.932 1.356 3.336 3.228 3.336 1.344 0 2.592-.864 2.964-2.052l-.9-.144c-.276.792-1.164 1.368-2.1 1.368-1.2 0-2.112-.876-2.256-2.148l5.448.012c.012-.132.012-.252.012-.36 0-1.86-1.332-3.216-3.18-3.216-1.872 0-3.216 1.356-3.216 3.204zm11.164-5.724V318h.912v-3.54c0-1.116.9-1.92 1.944-1.92 1.08 0 1.716.768 1.716 1.836V318h.912v-3.624c0-1.548-.972-2.676-2.508-2.676-.84 0-1.656.42-2.064 1.104v-3.624h-.912zm7.17 2.76V318h.912v-6.06h-.912zm.456-1.116c.36 0 .624-.264.624-.624s-.264-.612-.624-.612c-.372 0-.624.252-.624.612s.252.624.624.624zm5.146 6.516c-1.332 0-2.316-.996-2.316-2.364 0-1.416.972-2.436 2.316-2.436 1.344 0 2.316 1.02 2.316 2.436 0 1.368-.972 2.364-2.316 2.364zm.06 2.832c-1.056 0-1.98-.696-2.184-1.668l-.876.12c.216 1.38 1.524 2.376 3.096 2.376 1.8 0 3.108-1.152 3.108-3.096v-5.964h-.912v1.008c-.516-.756-1.344-1.224-2.388-1.224-1.812 0-3.132 1.368-3.132 3.252 0 1.848 1.32 3.192 3.132 3.192 1.02 0 1.86-.456 2.388-1.224v.96c0 1.428-.936 2.268-2.232 2.268zm4.8-10.992V318h.912v-3.54c0-1.116.9-1.92 1.944-1.92 1.08 0 1.716.768 1.716 1.836V318h.912v-3.624c0-1.548-.972-2.676-2.508-2.676-.84 0-1.656.42-2.064 1.104v-3.624h-.912zm7.65 5.292c.168-1.14 1.044-1.932 2.22-1.932 1.2 0 2.088.792 2.256 1.944l-4.476-.012zm-.96.432c0 1.932 1.356 3.336 3.228 3.336 1.344 0 2.592-.864 2.964-2.052l-.9-.144c-.276.792-1.164 1.368-2.1 1.368-1.2 0-2.112-.876-2.256-2.148l5.448.012c.012-.132.012-.252.012-.36 0-1.86-1.332-3.216-3.18-3.216-1.872 0-3.216 1.356-3.216 3.204zm12.645 1.356c-.012-1.344-1.44-1.596-2.556-1.788-1.104-.18-1.608-.36-1.608-.9 0-.6.636-1.032 1.416-1.032.984 0 1.704.504 1.716 1.2l.9.012c-.012-1.188-1.104-2.052-2.604-2.052-1.308 0-2.316.78-2.316 1.848-.012 1.368 1.056 1.56 2.436 1.776.66.096 1.716.264 1.728 1.02 0 .612-.684 1.068-1.62 1.068-1.032 0-1.776-.6-1.776-1.44h-.9c0 1.308 1.128 2.268 2.688 2.268 1.44 0 2.496-.84 2.496-1.98zm1.508.24c0 1.044.624 1.74 1.62 1.74.3 0 .684-.06.96-.144v-.756c-.228.072-.54.12-.732.12-.576-.012-.936-.408-.936-.996v-3.768h1.572v-.756h-1.572v-1.416h-.744l-.132 1.416H88.98v.756h.996v3.804zm10.552.852c-1.344 0-2.316-1.008-2.316-2.376 0-1.38.972-2.388 2.316-2.388 1.332 0 2.316.984 2.316 2.388 0 1.368-.972 2.376-2.316 2.376zm3.228-2.376c0-1.896-1.32-3.276-3.12-3.276-1.044 0-1.908.492-2.424 1.284v-1.044h-.888v8.82h.912v-3.78c.516.792 1.368 1.26 2.4 1.26 1.812 0 3.12-1.38 3.12-3.264zm4.212 2.436c-1.344 0-2.316-1.032-2.316-2.436 0-1.416.972-2.436 2.316-2.436 1.332 0 2.316 1.02 2.316 2.436 0 1.404-.984 2.436-2.316 2.436zm2.328-4.392c-.516-.816-1.392-1.32-2.436-1.32-1.812 0-3.12 1.38-3.12 3.276 0 1.884 1.308 3.264 3.12 3.264 1.044 0 1.92-.504 2.436-1.308V318h.912v-6.06h-.912v1.08zm2.387 7.476c.276.108.636.18.936.18 1.272 0 1.764-1.212 2.316-2.592l2.412-6.144h-.972l-1.896 4.92-2.16-4.92h-1.008l2.724 6.048c-.396.912-.66 1.872-1.548 1.872-.228 0-.528-.072-.804-.168v.804zm6.916-8.556V318h.912v-6.06h-.912zm.456-1.116c.36 0 .624-.264.624-.624s-.264-.612-.624-.612c-.372 0-.624.252-.624.612s.252.624.624.624zm2.254 1.116V318h.912v-3.54c0-1.116.924-1.92 1.98-1.92 1.068 0 1.68.768 1.68 1.836V318h.912v-3.624c0-1.548-.948-2.676-2.496-2.676-.84 0-1.656.42-2.076 1.092v-.852h-.912zm9.917 5.4c-1.332 0-2.316-.996-2.316-2.364 0-1.416.972-2.436 2.316-2.436 1.344 0 2.316 1.02 2.316 2.436 0 1.368-.972 2.364-2.316 2.364zm.06 2.832c-1.056 0-1.98-.696-2.184-1.668l-.876.12c.216 1.38 1.524 2.376 3.096 2.376 1.8 0 3.108-1.152 3.108-3.096v-5.964h-.912v1.008c-.516-.756-1.344-1.224-2.388-1.224-1.812 0-3.132 1.368-3.132 3.252 0 1.848 1.32 3.192 3.132 3.192 1.02 0 1.86-.456 2.388-1.224v.96c0 1.428-.936 2.268-2.232 2.268zm8.36-1.272c0 .564-.36.96-.912.96-.24 0-.552-.036-.78-.12v.804a3.37 3.37 0 001.02.156c.948 0 1.584-.684 1.584-1.704v-7.056h-.912v6.96zm.456-8.076c.36 0 .624-.264.624-.624s-.264-.612-.624-.612c-.372 0-.624.252-.624.612s.252.624.624.624zm5.123.876c-1.896 0-3.228 1.356-3.228 3.276 0 1.908 1.332 3.264 3.228 3.264 1.896 0 3.24-1.356 3.24-3.264 0-1.92-1.344-3.276-3.24-3.276zm0 5.712c-1.344 0-2.316-1.032-2.316-2.436 0-1.416.972-2.436 2.316-2.436 1.344 0 2.316 1.02 2.316 2.436 0 1.404-.972 2.436-2.316 2.436zm7.748-4.824c1.344 0 2.316 1.008 2.316 2.388 0 1.392-.984 2.376-2.316 2.376-1.344 0-2.316-1.008-2.316-2.376 0-1.38.972-2.388 2.316-2.388zm3.228 2.388c0-1.896-1.308-3.276-3.12-3.276-1.032 0-1.884.48-2.4 1.26v-3.78h-.912V318h.888v-1.044c.516.792 1.38 1.284 2.424 1.284 1.8 0 3.12-1.38 3.12-3.264zm6.252 1.284c-.012-1.344-1.44-1.596-2.556-1.788-1.104-.18-1.608-.36-1.608-.9 0-.6.636-1.032 1.416-1.032.984 0 1.704.504 1.716 1.2l.9.012c-.012-1.188-1.104-2.052-2.604-2.052-1.308 0-2.316.78-2.316 1.848-.012 1.368 1.056 1.56 2.436 1.776.66.096 1.716.264 1.728 1.02 0 .612-.684 1.068-1.62 1.068-1.032 0-1.776-.6-1.776-1.44h-.9c0 1.308 1.128 2.268 2.688 2.268 1.44 0 2.496-.84 2.496-1.98zm3.948 1.896c.36 0 .624-.252.624-.624 0-.36-.264-.612-.624-.612-.372 0-.624.264-.624.612 0 .372.252.624.624.624zm.468-2.304c0-.984.276-1.392.972-1.86.84-.552 1.512-1.032 1.512-2.184 0-1.476-1.224-2.568-2.796-2.568-1.608 0-2.772 1.14-2.964 2.724l.936.18c.132-1.164.9-2.016 2.016-2.016 1.02 0 1.8.732 1.8 1.692 0 .768-.552 1.164-1.152 1.572-.792.552-1.248 1.116-1.248 2.46h.924z" fill="#000"/><path d="M91.065 204.096c-2.016 0-3.456-1.568-3.456-3.792 0-2.224 1.424-3.792 3.456-3.792 1.472 0 2.752 1.008 3.072 2.416l2.528-.288c-.416-2.576-2.784-4.432-5.664-4.432-3.52 0-6.08 2.56-6.08 6.096s2.56 6.096 6.08 6.096c2.912 0 5.28-1.808 5.664-4.32l-2.512-.336c-.352 1.36-1.648 2.352-3.088 2.352zm11.409-6.608c-2.688 0-4.544 1.792-4.544 4.416 0 2.608 1.856 4.416 4.544 4.416 2.704 0 4.56-1.808 4.56-4.416 0-2.624-1.856-4.416-4.56-4.416zm0 6.72c-1.248 0-2.128-.96-2.128-2.304 0-1.344.88-2.304 2.128-2.304 1.264 0 2.144.96 2.144 2.304 0 1.344-.88 2.304-2.144 2.304zm6.086-10.08V206h2.4v-11.872h-2.4zm4.293 0V206h2.4v-11.872h-2.4zm6.405 7.008c.208-1.088.944-1.808 2-1.808 1.088 0 1.888.768 2.032 1.808h-4.032zm-2.464.704c0 2.64 1.856 4.48 4.496 4.48 2 0 3.728-1.168 4.128-2.768l-2.16-.304c-.256.72-1.008 1.232-1.904 1.232-1.088 0-1.872-.752-2.08-1.904l6.416.016c.032-.176.032-.512.032-.72 0-2.592-1.792-4.384-4.416-4.384-2.64 0-4.512 1.792-4.512 4.352zm14.65 2.304c-1.248 0-2.144-.944-2.144-2.24 0-1.328.896-2.304 2.144-2.304 1.248 0 2.144.976 2.144 2.304 0 1.296-.896 2.24-2.144 2.24zm-.032 3.952c-.976 0-1.84-.672-2.048-1.6l-2.144.24c.24 1.888 2.048 3.264 4.288 3.264 2.592 0 4.384-1.552 4.384-4.096v-8.096h-2.4v.976c-.624-.8-1.552-1.28-2.704-1.28-2.256 0-3.888 1.824-3.888 4.4 0 2.48 1.632 4.208 3.888 4.208 1.136 0 2.064-.464 2.704-1.248v.976c0 1.424-.864 2.256-2.08 2.256zm8.495-6.96c.208-1.088.944-1.808 2-1.808 1.088 0 1.888.768 2.032 1.808h-4.032zm-2.464.704c0 2.64 1.856 4.48 4.496 4.48 2 0 3.728-1.168 4.128-2.768l-2.16-.304c-.256.72-1.008 1.232-1.904 1.232-1.088 0-1.872-.752-2.08-1.904l6.416.016c.032-.176.032-.512.032-.72 0-2.592-1.792-4.384-4.416-4.384-2.64 0-4.512 1.792-4.512 4.352zm24.788.608c0-2.624-2.288-3.104-4.496-3.36-1.44-.192-2.576-.352-2.576-1.424 0-.832.832-1.424 2.096-1.424 1.376 0 2.384.8 2.368 1.92h2.336c0-2.288-2-3.952-4.768-3.952-2.752 0-4.656 1.536-4.656 3.76 0 2.656 2.176 3.136 4.432 3.424 1.408.176 2.64.336 2.64 1.408 0 .912-.816 1.568-2.128 1.568-1.536 0-2.64-.88-2.64-2.112h-2.416c0 2.4 2.08 4.144 4.976 4.144s4.832-1.616 4.832-3.952zm2.021.896c0 1.744 1.056 2.976 2.688 2.976.512 0 1.152-.096 1.648-.256v-1.936c-.272.08-.624.128-.848.128-.672 0-1.088-.464-1.088-1.152v-3.472h1.856v-1.824h-1.856v-2.064h-2.016l-.272 2.064H163.1v1.824h1.152v3.712zm13.76 2.656v-8.192h-2.4v4.608c0 1.04-.768 1.792-1.712 1.792s-1.52-.704-1.52-1.696v-4.704h-2.4v5.12c0 1.968 1.248 3.392 3.088 3.392a3.08 3.08 0 002.608-1.44V206h2.336zm6.097-6.352c1.248 0 2.144.96 2.144 2.256 0 1.296-.896 2.256-2.144 2.256-1.232 0-2.144-.944-2.144-2.256 0-1.296.896-2.256 2.144-2.256zm-4.544 2.256c0 2.592 1.616 4.416 3.888 4.416 1.152 0 2.096-.496 2.736-1.312V206h2.368v-11.872h-2.4v4.672c-.64-.832-1.584-1.312-2.704-1.312-2.272 0-3.888 1.824-3.888 4.416zm13.007-.768c.208-1.088.944-1.808 2-1.808 1.088 0 1.888.768 2.032 1.808h-4.032zm-2.464.704c0 2.64 1.856 4.48 4.496 4.48 2 0 3.728-1.168 4.128-2.768l-2.16-.304c-.256.72-1.008 1.232-1.904 1.232-1.088 0-1.872-.752-2.08-1.904l6.416.016c.032-.176.032-.512.032-.72 0-2.592-1.792-4.384-4.416-4.384-2.64 0-4.512 1.792-4.512 4.352zm10.474-4.032V206h2.4v-4.608c0-1.04.768-1.792 1.712-1.792s1.52.704 1.52 1.696V206h2.4v-5.12c0-1.968-1.248-3.392-3.088-3.392a3.103 3.103 0 00-2.608 1.424v-1.104h-2.336zm10.417 5.536c0 1.744 1.056 2.976 2.688 2.976.512 0 1.152-.096 1.648-.256v-1.936c-.272.08-.624.128-.848.128-.672 0-1.088-.464-1.088-1.152v-3.472h1.856v-1.824h-1.856v-2.064h-2.016l-.272 2.064h-1.264v1.824h1.152v3.712z" fill="#444"/><path d="M111.983 91.375c-3.716-5.546 8.141-17.983 8.142-24.067.001-17.211 17.016-8.142 17.016-9.558V46.777c1.466 2.478 4.694 7.788 5.867 9.203 1.347 1.626 6.156-3.911 6.48-8.116-.405-2.118-.348-3.423-.025-1.087.048.348.054.712.025 1.087.332 1.733.972 4.01 2.028 5.285 2.347 2.831 12.029 3.893 13.496 6.017 1.467 2.124 1.173-.354 5.867 4.602 4.694 4.955 14.042 5.307 19.03 27.607 1.528 6.835-3.187-7.785-16.389-6.369-13.202 1.416-10.562-13.805-24.057-7.433-13.496 6.371-18.854-.708-20.908 7.433-1.642 6.513-12.954 6.369-16.572 6.369z" fill="#FFBA9D"/><path d="M175.174 148c5.811 4.696 12.596 13.321 12.596 28h-74.06c0-14.679 6.784-23.304 12.596-28h48.868z" fill="#B69DFF"/><path d="M151.474 158.37l-8.815-10.578h15.867l-7.052 10.578z" fill="#fff"/><path fill-rule="evenodd" clip-rule="evenodd" d="M191.059 89.966c-.343 2.918-.757 5.93-1.379 8.528-.556 2.318-1.703 4.958-2.945 7.292a45.231 45.231 0 01-1.618 2.796l.039.172c.179.794.143 2.39-.303 4.4-.449 2.024-1.323 4.507-2.86 7.083-3.077 5.161-8.8 10.681-19.039 13.658-2.793.812-4.222 2.445-4.898 4.14-.683 1.714-.605 3.519-.323 4.646l-.739.184c-.312-1.25-.398-3.222.356-5.112.761-1.91 2.371-3.71 5.392-4.589 10.053-2.922 15.619-8.32 18.598-13.316 1.492-2.502 2.337-4.908 2.77-6.859.328-1.477.415-2.672.378-3.444a20.44 20.44 0 01-1.333 1.784l-.022.026-.026.021c-.12.099-.237.204-.362.315l-.03.027a9.577 9.577 0 01-.426.365c-.303.242-.654.472-1.093.608-.892.277-2.031.136-3.716-.743-.895-.467-1.429-1.095-1.653-1.812-.221-.709-.124-1.452.137-2.127.261-.676.694-1.309 1.186-1.822.489-.511 1.056-.923 1.601-1.137.961-.377 2.273-.792 3.508-.407 1.065.332 1.973 1.219 2.573 2.952.409-.674.825-1.404 1.231-2.167 1.228-2.306 2.343-4.881 2.877-7.111.611-2.551 1.021-5.525 1.363-8.44.106-.904.206-1.803.304-2.682.216-1.943.421-3.785.658-5.352l.752.114c-.235 1.551-.437 3.369-.652 5.303-.098.882-.198 1.79-.306 2.706zm-6.761 18.484c-.546-2.025-1.414-2.816-2.265-3.081-.959-.298-2.046.013-3.004.389-.415.163-.894.5-1.33.955-.434.454-.806 1.003-1.025 1.57-.219.567-.276 1.127-.121 1.626.153.49.528.973 1.279 1.364 1.604.837 2.522.883 3.139.691.314-.097.581-.265.843-.475.132-.106.26-.219.394-.339l.032-.028c.114-.102.234-.209.358-.312.486-.572 1.075-1.387 1.7-2.36zm-34.129 11.806c-2.2.142-4.207-.21-5.395-.584l.193-.481c1.118.352 3.045.693 5.161.557 2.112-.137 4.391-.748 6.243-2.28l.392.372c-1.974 1.633-4.39 2.274-6.594 2.416zm-2.573-19.714h.718v11.397c.241.149 1.148.436 3.192-.11l.321.343c-2.372.634-3.762.311-4.182-.075l-.049-.045v-11.51zm-31.363 15.624c-5.273-9.337-6.683-20.587-5.066-26.907l.977.137c-1.588 6.208-.177 17.307 5.006 26.486 5.174 9.162 14.109 16.421 33.267 20.625l-.283.706c-19.462-4.27-28.619-11.693-33.901-21.047z" fill="#666"/><path fill-rule="evenodd" clip-rule="evenodd" d="M94 40.47l4.499 12.353h7.549l5.795 33.042 36.82-12.88 39.679 12.88 3.502-33.042h10.119L205.423 38 94 40.47z" fill="#E2E4E9"/><path d="M192.025 52.588l-86.036.353.705 3.173h84.978l.353-3.526z" fill="#D1D1D1"/><circle cx="134.198" cy="99.132" r="1.41" fill="#666"/><circle cx="167.342" cy="99.132" r="1.41" fill="#666"/></svg>