<svg width="552" height="344" fill="none" xmlns="http://www.w3.org/2000/svg"><path d="M0 4a4 4 0 014-4h524c13.255 0 24 10.745 24 24v296c0 13.255-10.745 24-24 24H4a4 4 0 01-4-4V4z" fill="#E8F4FD"/><path d="M19.024 312.152l-.72 3.588h4.464l-.108.552h-4.464L17.452 320h-.612l1.68-8.4h5.616l-.12.552h-4.992zm7.636 7.896c-.848 0-1.524-.236-2.028-.708-.496-.472-.744-1.104-.744-1.896 0-.712.152-1.352.456-1.92a3.515 3.515 0 011.284-1.344c.544-.328 1.16-.492 1.848-.492.848 0 1.52.236 2.016.708.504.464.756 1.096.756 1.896a3.99 3.99 0 01-.468 1.932 3.428 3.428 0 01-1.272 1.344c-.544.32-1.16.48-1.848.48zm.048-.54c.56 0 1.06-.136 1.5-.408.448-.272.8-.648 1.056-1.128a3.485 3.485 0 00.384-1.644c0-.664-.196-1.18-.588-1.548-.384-.368-.928-.552-1.632-.552-.56 0-1.064.14-1.512.42a2.88 2.88 0 00-1.044 1.14 3.388 3.388 0 00-.384 1.62c0 .664.192 1.18.576 1.548.392.368.94.552 1.644.552zm6.29-4.452c.28-.456.635-.796 1.067-1.02.44-.232.972-.348 1.596-.348l-.108.588-.192-.012c-.712 0-1.296.212-1.752.636-.456.424-.768 1.052-.936 1.884L32.025 320h-.6l1.248-6.264h.588l-.264 1.32zm7.324 3.132c-.032.152-.048.3-.048.444 0 .6.32.9.96.9.384 0 .724-.116 1.02-.348l.18.444c-.344.28-.792.42-1.344.42-.448 0-.8-.116-1.056-.348-.248-.24-.372-.568-.372-.984 0-.168.016-.328.048-.48l.804-3.984H39.35l.096-.516h1.164l.276-1.368h.6l-.276 1.368h1.992l-.096.516h-1.992l-.792 3.936zm7.877-4.5c.712 0 1.26.18 1.644.54.384.352.576.84.576 1.464 0 .216-.024.444-.072.684l-.72 3.624h-.6l.72-3.624c.04-.184.06-.384.06-.6 0-.496-.152-.876-.456-1.14-.296-.272-.732-.408-1.308-.408-.72 0-1.32.204-1.8.612-.48.4-.796.984-.948 1.752L44.611 320h-.6l1.776-8.904h.6l-.756 3.804c.592-.808 1.448-1.212 2.568-1.212zM52.613 317a4.79 4.79 0 00-.024.396c0 .68.196 1.204.588 1.572.392.36.968.54 1.728.54.44 0 .844-.072 1.212-.216.376-.152.688-.36.936-.624l.276.42c-.28.304-.64.54-1.08.708a3.807 3.807 0 01-1.392.252c-.888 0-1.588-.232-2.1-.696-.504-.464-.756-1.108-.756-1.932 0-.704.148-1.34.444-1.908a3.34 3.34 0 011.224-1.332 3.215 3.215 0 011.752-.492c.816 0 1.464.232 1.944.696.48.464.72 1.104.72 1.92 0 .192-.024.424-.072.696h-5.4zm2.796-2.796c-.68 0-1.268.212-1.764.636-.488.424-.808.988-.96 1.692h4.824c.008-.072.012-.176.012-.312 0-.632-.192-1.124-.576-1.476-.384-.36-.896-.54-1.536-.54zm13.23-.468l-4.68 7.188c-.352.544-.688.92-1.008 1.128-.312.216-.684.324-1.116.324-.288 0-.56-.048-.816-.144a1.38 1.38 0 01-.6-.408l.348-.444c.28.312.656.468 1.128.468.288 0 .548-.08.78-.24.24-.16.492-.44.756-.84l.528-.792-1.584-6.24h.612l1.404 5.604 3.624-5.604h.624zM69.03 317a4.79 4.79 0 00-.024.396c0 .68.196 1.204.588 1.572.392.36.968.54 1.728.54.44 0 .844-.072 1.212-.216.376-.152.688-.36.936-.624l.276.42c-.28.304-.64.54-1.08.708a3.807 3.807 0 01-1.392.252c-.888 0-1.588-.232-2.1-.696-.504-.464-.756-1.108-.756-1.932 0-.704.148-1.34.444-1.908a3.34 3.34 0 011.224-1.332 3.215 3.215 0 011.752-.492c.816 0 1.464.232 1.944.696.48.464.72 1.104.72 1.92 0 .192-.024.424-.072.696h-5.4zm2.796-2.796c-.68 0-1.268.212-1.764.636-.488.424-.808.988-.96 1.692h4.824c.008-.072.012-.176.012-.312 0-.632-.192-1.124-.576-1.476-.384-.36-.896-.54-1.536-.54zm10.688-.468L81.267 320h-.576l.24-1.224c-.304.4-.684.712-1.14.936a3.307 3.307 0 01-1.5.336c-.816 0-1.472-.232-1.968-.696-.488-.472-.732-1.108-.732-1.908 0-.712.152-1.352.456-1.92a3.35 3.35 0 011.26-1.344 3.464 3.464 0 011.824-.492c.648 0 1.184.14 1.608.42.424.28.712.676.864 1.188l.312-1.56h.6zm-4.104 5.772c.56 0 1.06-.136 1.5-.408.448-.272.8-.648 1.056-1.128a3.485 3.485 0 00.384-1.644c0-.664-.196-1.18-.588-1.548-.384-.368-.928-.552-1.632-.552-.56 0-1.064.14-1.512.42a2.88 2.88 0 00-1.044 1.14 3.388 3.388 0 00-.384 1.62c0 .664.192 1.18.576 1.548.392.368.94.552 1.644.552zm6.945-4.452c.28-.456.636-.796 1.068-1.02.44-.232.972-.348 1.596-.348l-.108.588-.192-.012c-.712 0-1.296.212-1.752.636-.456.424-.768 1.052-.936 1.884L84.384 320h-.6l1.248-6.264h.588l-.264 1.32zm6.533 4.392H96.7l-.108.552H90.81l.096-.432 4.296-3.516c.624-.512 1.052-.952 1.284-1.32.24-.368.36-.76.36-1.176 0-.456-.164-.812-.492-1.068-.32-.264-.808-.396-1.464-.396a3.56 3.56 0 00-1.356.264 2.848 2.848 0 00-1.08.72l-.432-.372a3.44 3.44 0 011.284-.852 4.417 4.417 0 011.656-.312c.808 0 1.424.176 1.848.528.432.352.648.824.648 1.416 0 .496-.136.972-.408 1.428-.272.448-.748.948-1.428 1.5l-3.732 3.036zm9.175.612c-.832 0-1.484-.264-1.956-.792-.464-.528-.696-1.264-.696-2.208 0-.952.172-1.848.516-2.688.344-.848.832-1.532 1.464-2.052a3.355 3.355 0 012.196-.78c.832 0 1.48.264 1.944.792.464.528.696 1.264.696 2.208 0 .952-.172 1.852-.516 2.7-.336.84-.82 1.52-1.452 2.04s-1.364.78-2.196.78zm.06-.564c.704 0 1.32-.244 1.848-.732.536-.488.944-1.112 1.224-1.872.288-.76.432-1.54.432-2.34 0-.784-.184-1.388-.552-1.812-.368-.424-.884-.636-1.548-.636-.712 0-1.332.244-1.86.732s-.936 1.112-1.224 1.872c-.28.76-.42 1.54-.42 2.34 0 .784.18 1.388.54 1.812.368.424.888.636 1.56.636zm8.259-7.896l-1.68 8.4h-.612l1.572-7.848h-2.052l.108-.552h2.664zm5.802 4.08c.456.168.804.412 1.044.732.24.312.36.688.36 1.128 0 .512-.14.96-.42 1.344-.272.376-.66.668-1.164.876-.504.2-1.092.3-1.764.3-.944 0-1.684-.192-2.22-.576-.528-.392-.792-.928-.792-1.608 0-.616.196-1.128.588-1.536.392-.408.948-.68 1.668-.816-.376-.16-.664-.38-.864-.66a1.697 1.697 0 01-.288-.984c0-.472.124-.884.372-1.236.248-.36.6-.632 1.056-.816.456-.192.988-.288 1.596-.288.832 0 1.496.18 1.992.54.504.36.756.848.756 1.464 0 .544-.168 1.004-.504 1.38-.336.368-.808.62-1.416.756zm-3.228-1.836c0 .472.188.844.564 1.116.376.272.904.408 1.584.408.736 0 1.316-.156 1.74-.468.432-.32.648-.748.648-1.284 0-.48-.196-.856-.588-1.128-.392-.28-.92-.42-1.584-.42-.72 0-1.296.16-1.728.48-.424.32-.636.752-.636 1.296zm1.308 5.688c.84 0 1.5-.176 1.98-.528.488-.36.732-.844.732-1.452 0-.52-.216-.928-.648-1.224-.432-.304-1.032-.456-1.8-.456-.832 0-1.488.18-1.968.54-.48.352-.72.828-.72 1.428 0 .528.212.944.636 1.248.432.296 1.028.444 1.788.444zm8-3.024h3.084l-.108.54h-3.084l.108-.54zm7.773 2.94h4.812l-.108.552h-5.784l.096-.432 4.296-3.516c.624-.512 1.052-.952 1.284-1.32.24-.368.36-.76.36-1.176 0-.456-.164-.812-.492-1.068-.32-.264-.808-.396-1.464-.396a3.56 3.56 0 00-1.356.264 2.848 2.848 0 00-1.08.72l-.432-.372a3.44 3.44 0 011.284-.852 4.417 4.417 0 011.656-.312c.808 0 1.424.176 1.848.528.432.352.648.824.648 1.416 0 .496-.136.972-.408 1.428-.272.448-.748.948-1.428 1.5l-3.732 3.036zm9.174.612c-.832 0-1.484-.264-1.956-.792-.464-.528-.696-1.264-.696-2.208 0-.952.172-1.848.516-2.688.344-.848.832-1.532 1.464-2.052a3.355 3.355 0 012.196-.78c.832 0 1.48.264 1.944.792.464.528.696 1.264.696 2.208 0 .952-.172 1.852-.516 2.7-.336.84-.82 1.52-1.452 2.04s-1.364.78-2.196.78zm.06-.564c.704 0 1.32-.244 1.848-.732.536-.488.944-1.112 1.224-1.872.288-.76.432-1.54.432-2.34 0-.784-.184-1.388-.552-1.812-.368-.424-.884-.636-1.548-.636-.712 0-1.332.244-1.86.732s-.936 1.112-1.224 1.872c-.28.76-.42 1.54-.42 2.34 0 .784.18 1.388.54 1.812.368.424.888.636 1.56.636zm8.259-7.896l-1.68 8.4h-.612l1.572-7.848h-2.052l.108-.552h2.664zm4.303-.06c.912 0 1.64.28 2.184.84.544.552.816 1.356.816 2.412 0 .872-.156 1.708-.468 2.508-.304.8-.796 1.46-1.476 1.98-.68.52-1.544.78-2.592.78-.808 0-1.452-.148-1.932-.444l.3-.504c.416.272.976.408 1.68.408.864 0 1.58-.216 2.148-.648a3.86 3.86 0 001.26-1.656c.272-.672.42-1.384.444-2.136-.248.504-.612.88-1.092 1.128-.472.24-.996.36-1.572.36-.512 0-.972-.092-1.38-.276a2.22 2.22 0 01-.948-.804c-.232-.352-.348-.772-.348-1.26 0-.544.124-1.02.372-1.428a2.5 2.5 0 011.056-.936c.456-.216.972-.324 1.548-.324zm-.192 4.5c.48 0 .904-.092 1.272-.276.376-.184.664-.436.864-.756.208-.32.312-.672.312-1.056 0-.32-.088-.624-.264-.912-.168-.288-.424-.52-.768-.696-.336-.184-.744-.276-1.224-.276-.712 0-1.284.192-1.716.576-.424.376-.636.888-.636 1.536 0 .584.196 1.04.588 1.368.4.328.924.492 1.572.492z" fill="#000"/><path d="M408 166c0 72.902-59.098 132-132 132s-132-59.098-132-132S203.098 34 276 34s132 59.098 132 132zm-231 0c0 54.676 44.324 99 99 99s99-44.324 99-99-44.324-99-99-99-99 44.324-99 99z" fill="#B9DEF9"/><path d="M322.472 53.198c2.103-5.107 7.969-7.575 12.902-5.09a131.996 131.996 0 0168.92 86.832 132.003 132.003 0 01-138.399 162.673 132.004 132.004 0 01-96.752-54.118c-3.243-4.471-1.746-10.656 2.957-13.551l11.071-6.814c4.704-2.895 10.825-1.391 14.179 2.996a99.014 99.014 0 0071.071 38.584 99.008 99.008 0 0082.982-34.559 98.996 98.996 0 00-.246-128.59 98.995 98.995 0 00-28.408-22.828c-4.868-2.608-7.333-8.409-5.229-13.516l4.952-12.02z" fill="#44A7EE"/><path d="M338 279l12.609 16H378" stroke="#5BB2F0" stroke-width="2" stroke-linecap="round" stroke-linejoin="round"/><g filter="url(#filter0_d)"><rect x="378" y="267" width="154" height="56" rx="8" fill="#fff"/><path d="M391.348 278.2h-4.032v9.8h1.82v-2.828h2.212c2.576 0 4.172-1.33 4.172-3.486 0-2.17-1.596-3.486-4.172-3.486zm-.084 5.432h-2.128v-3.892h2.128c1.596 0 2.422.714 2.422 1.946s-.826 1.946-2.422 1.946zm11.53-3.108v3.78c0 1.498-.826 2.254-2.044 2.254-1.106 0-1.75-.644-1.75-2.002v-4.032h-1.75v4.27c0 2.254 1.302 3.304 3.22 3.304.966 0 1.848-.364 2.408-1.05V288h1.666v-7.476h-1.75zm8.186-.084c-.952 0-1.792.322-2.394.994v-3.822h-1.75V288h1.666v-.966c.588.714 1.456 1.064 2.478 1.064 2.184 0 3.794-1.512 3.794-3.836s-1.61-3.822-3.794-3.822zm-.196 6.16c-1.26 0-2.226-.91-2.226-2.338s.966-2.338 2.226-2.338 2.212.91 2.212 2.338-.952 2.338-2.212 2.338zm5.649 1.4h1.75v-10.388h-1.75V288zm4.929-8.708c.658 0 1.12-.476 1.12-1.092 0-.574-.476-1.008-1.12-1.008-.644 0-1.12.462-1.12 1.05 0 .588.476 1.05 1.12 1.05zM420.48 288h1.75v-7.476h-1.75V288zm7.477.098c1.456 0 2.618-.63 3.192-1.75l-1.344-.784c-.448.714-1.12 1.036-1.862 1.036-1.288 0-2.268-.882-2.268-2.338 0-1.442.98-2.338 2.268-2.338.742 0 1.414.322 1.862 1.036l1.344-.784c-.574-1.134-1.736-1.736-3.192-1.736-2.366 0-4.046 1.582-4.046 3.822s1.68 3.836 4.046 3.836zm10.31 2.618h1.666c-1.162-2.044-1.652-4.158-1.652-6.552 0-2.394.49-4.508 1.652-6.552h-1.666c-1.092 1.666-1.708 3.976-1.708 6.552 0 2.576.616 4.858 1.708 6.552zm7.037-8.764c-1.092 0-2.03.336-2.618 1.022v-.014c0-2.226 1.162-3.374 3.01-3.374.686 0 1.33.126 1.862.476l.672-1.372c-.658-.42-1.596-.63-2.576-.63-2.842 0-4.802 1.848-4.802 5.208 0 3.15 1.568 4.872 4.242 4.872 2.002 0 3.584-1.232 3.584-3.178 0-1.834-1.442-3.01-3.374-3.01zm-.308 4.76c-1.302 0-2.03-.728-2.03-1.652 0-.966.812-1.68 1.988-1.68 1.19 0 1.96.644 1.96 1.666 0 1.022-.784 1.666-1.918 1.666zm8.722 1.428c2.338 0 4.102-1.82 4.102-5.04 0-3.22-1.764-5.04-4.102-5.04-2.324 0-4.088 1.82-4.088 5.04 0 3.22 1.764 5.04 4.088 5.04zm0-1.582c-1.33 0-2.254-1.092-2.254-3.458s.924-3.458 2.254-3.458c1.344 0 2.268 1.092 2.268 3.458s-.924 3.458-2.268 3.458zm7.516-3.08c1.4 0 2.352-1.064 2.352-2.688s-.952-2.688-2.352-2.688-2.338 1.078-2.338 2.688.938 2.688 2.338 2.688zm-.812 4.522h1.372l6.692-9.8h-1.372l-6.692 9.8zm.812-5.502c-.728 0-1.204-.63-1.204-1.708 0-1.078.476-1.708 1.204-1.708.756 0 1.204.616 1.204 1.708s-.448 1.708-1.204 1.708zm6.426 5.6c1.4 0 2.352-1.078 2.352-2.688s-.952-2.688-2.352-2.688-2.338 1.078-2.338 2.688.938 2.688 2.338 2.688zm0-.98c-.742 0-1.204-.616-1.204-1.708s.462-1.708 1.204-1.708 1.204.63 1.204 1.708c0 1.078-.462 1.708-1.204 1.708zm4.519 3.598c1.106-1.694 1.708-3.976 1.708-6.552 0-2.576-.602-4.886-1.708-6.552h-1.666c1.162 2.044 1.666 4.158 1.666 6.552 0 2.394-.504 4.508-1.666 6.552h1.666zm-81.391 15.53l2.38-2.828V302.2h-6.678v1.526h4.452l-2.226 2.646v1.246h.896c1.484 0 2.128.574 2.128 1.456 0 .91-.77 1.484-2.072 1.484-1.106 0-2.17-.378-2.87-.966l-.784 1.414c.91.714 2.296 1.134 3.682 1.134 2.632 0 3.878-1.428 3.878-3.08 0-1.47-.938-2.576-2.786-2.814zm8.064 5.894c2.338 0 4.102-1.82 4.102-5.04 0-3.22-1.764-5.04-4.102-5.04-2.324 0-4.088 1.82-4.088 5.04 0 3.22 1.764 5.04 4.088 5.04zm0-1.582c-1.33 0-2.254-1.092-2.254-3.458s.924-3.458 2.254-3.458c1.344 0 2.268 1.092 2.268 3.458s-.924 3.458-2.268 3.458zm6.274-.784c-.644 0-1.134.462-1.134 1.162 0 .504.266.868.658 1.036l-.56 2.142h1.134l.714-1.974c.252-.644.322-.896.322-1.204 0-.686-.476-1.162-1.134-1.162zm6.236 2.366c2.338 0 4.102-1.82 4.102-5.04 0-3.22-1.764-5.04-4.102-5.04-2.324 0-4.088 1.82-4.088 5.04 0 3.22 1.764 5.04 4.088 5.04zm0-1.582c-1.33 0-2.254-1.092-2.254-3.458s.924-3.458 2.254-3.458c1.344 0 2.268 1.092 2.268 3.458s-.924 3.458-2.268 3.458zm9.42 1.582c2.338 0 4.102-1.82 4.102-5.04 0-3.22-1.764-5.04-4.102-5.04-2.324 0-4.088 1.82-4.088 5.04 0 3.22 1.764 5.04 4.088 5.04zm0-1.582c-1.33 0-2.254-1.092-2.254-3.458s.924-3.458 2.254-3.458c1.344 0 2.268 1.092 2.268 3.458s-.924 3.458-2.268 3.458zm9.42 1.582c2.338 0 4.102-1.82 4.102-5.04 0-3.22-1.764-5.04-4.102-5.04-2.324 0-4.088 1.82-4.088 5.04 0 3.22 1.764 5.04 4.088 5.04zm0-1.582c-1.33 0-2.254-1.092-2.254-3.458s.924-3.458 2.254-3.458c1.344 0 2.268 1.092 2.268 3.458s-.924 3.458-2.268 3.458zm14.115 1.582c2.674 0 4.284-1.554 4.284-4.41v-5.53h-1.792v5.46c0 2.016-.896 2.884-2.478 2.884-1.582 0-2.492-.868-2.492-2.884v-5.46h-1.82v5.53c0 2.856 1.61 4.41 4.298 4.41zm10.907-7.7c-1.092 0-2.002.364-2.576 1.05v-.966h-1.666V312h1.75v-3.78c0-1.498.84-2.254 2.086-2.254 1.12 0 1.778.644 1.778 1.974V312h1.75v-4.284c0-2.254-1.33-3.276-3.122-3.276zm6.224-1.148c.658 0 1.12-.476 1.12-1.092 0-.574-.476-1.008-1.12-1.008-.644 0-1.12.462-1.12 1.05 0 .588.476 1.05 1.12 1.05zm-.882 8.708h1.75v-7.476h-1.75V312zm9.367-7.476l-2.394 5.544-2.324-5.544h-1.82l3.206 7.476h1.806l3.206-7.476h-1.68zm9.597 3.78c0-2.338-1.596-3.864-3.78-3.864-2.226 0-3.864 1.596-3.864 3.822s1.624 3.836 4.13 3.836c1.288 0 2.338-.42 3.01-1.218l-.938-1.078c-.532.546-1.19.812-2.03.812-1.302 0-2.212-.7-2.422-1.792h5.866c.014-.168.028-.378.028-.518zm-3.78-2.464c1.148 0 1.974.742 2.114 1.82h-4.242c.168-1.092.994-1.82 2.128-1.82zm7.127-.224v-1.092h-1.666V312h1.75v-3.626c0-1.526.84-2.31 2.17-2.31.126 0 .252.014.406.042v-1.666c-1.246 0-2.156.392-2.66 1.176zm6.481 6.482c2.1 0 3.388-.91 3.388-2.31 0-2.926-4.62-1.582-4.62-3.094 0-.49.504-.84 1.568-.84.714 0 1.428.14 2.142.56l.672-1.33c-.672-.406-1.806-.644-2.8-.644-2.016 0-3.29.924-3.29 2.338 0 2.982 4.62 1.638 4.62 3.066 0 .518-.462.826-1.568.826-.938 0-1.946-.308-2.604-.742l-.672 1.33c.672.476 1.918.84 3.164.84zm5.777-8.806c.658 0 1.12-.476 1.12-1.092 0-.574-.476-1.008-1.12-1.008-.644 0-1.12.462-1.12 1.05 0 .588.476 1.05 1.12 1.05zm-.882 8.708h1.75v-7.476h-1.75V312zm8.051-1.652c-.266.21-.616.308-.98.308-.672 0-1.036-.392-1.036-1.12v-3.556h2.002v-1.4h-2.002v-1.708h-1.75v1.708h-1.232v1.4h1.232v3.598c0 1.652.938 2.52 2.576 2.52.63 0 1.26-.168 1.68-.504l-.49-1.246zm2.812-7.056c.658 0 1.12-.476 1.12-1.092 0-.574-.476-1.008-1.12-1.008-.644 0-1.12.462-1.12 1.05 0 .588.476 1.05 1.12 1.05zm-.882 8.708h1.75v-7.476h-1.75V312zm11.075-3.696c0-2.338-1.596-3.864-3.78-3.864-2.226 0-3.864 1.596-3.864 3.822s1.624 3.836 4.13 3.836c1.288 0 2.338-.42 3.01-1.218l-.938-1.078c-.532.546-1.19.812-2.03.812-1.302 0-2.212-.7-2.422-1.792h5.866c.014-.168.028-.378.028-.518zm-3.78-2.464c1.148 0 1.974.742 2.114 1.82h-4.242c.168-1.092.994-1.82 2.128-1.82zm7.771 6.258c2.1 0 3.388-.91 3.388-2.31 0-2.926-4.62-1.582-4.62-3.094 0-.49.504-.84 1.568-.84.714 0 1.428.14 2.142.56l.672-1.33c-.672-.406-1.806-.644-2.8-.644-2.016 0-3.29.924-3.29 2.338 0 2.982 4.62 1.638 4.62 3.066 0 .518-.462.826-1.568.826-.938 0-1.946-.308-2.604-.742l-.672 1.33c.672.476 1.918.84 3.164.84z" fill="#333"/></g><path d="M237.931 172.16c-1.141 0-2.17-.245-3.088-.736a5.585 5.585 0 01-2.16-2.064c-.522-.885-.784-1.872-.784-2.96 0-1.088.262-2.069.784-2.944a5.445 5.445 0 012.16-2.064c.918-.501 1.947-.752 3.088-.752 1.142 0 2.171.251 3.088.752a5.462 5.462 0 012.16 2.048c.523.875.784 1.861.784 2.96s-.261 2.085-.784 2.96a5.571 5.571 0 01-2.16 2.064c-.917.491-1.946.736-3.088.736zm0-1.824c.747 0 1.419-.165 2.016-.496a3.711 3.711 0 001.408-1.408 4.07 4.07 0 00.512-2.032c0-.747-.17-1.419-.512-2.016a3.57 3.57 0 00-1.408-1.408c-.597-.341-1.269-.512-2.016-.512-.746 0-1.418.171-2.016.512-.597.331-1.066.8-1.408 1.408-.341.597-.512 1.269-.512 2.016 0 .747.171 1.424.512 2.032a3.725 3.725 0 001.408 1.408c.598.331 1.27.496 2.016.496zm21.373-6.88L256.152 172h-1.92l-2.208-5.888-2.24 5.888h-1.92l-3.136-8.544h1.888l2.256 6.304 2.352-6.304h1.68l2.304 6.336 2.32-6.336h1.776zm6.223-.096c1.078 0 1.942.315 2.592.944.651.629.976 1.563.976 2.8V172h-2v-4.64c0-.747-.176-1.307-.528-1.68-.352-.384-.853-.576-1.504-.576-.736 0-1.317.224-1.744.672-.426.437-.64 1.072-.64 1.904V172h-2v-8.544h1.904v1.104a3.131 3.131 0 011.248-.896c.502-.203 1.067-.304 1.696-.304zm14.215 4.416c0 .139-.01.336-.032.592h-6.704c.118.629.422 1.131.912 1.504.502.363 1.12.544 1.856.544.939 0 1.712-.309 2.32-.928l1.072 1.232a3.61 3.61 0 01-1.456 1.04c-.586.235-1.248.352-1.984.352-.938 0-1.765-.187-2.48-.56a4.11 4.11 0 01-1.664-1.552c-.384-.672-.576-1.429-.576-2.272 0-.832.187-1.579.56-2.24a4.067 4.067 0 011.584-1.568c.672-.373 1.43-.56 2.272-.56.832 0 1.574.187 2.224.56.662.363 1.174.88 1.536 1.552.374.661.56 1.429.56 2.304zm-4.32-2.816c-.64 0-1.184.192-1.632.576-.437.373-.704.875-.8 1.504h4.848c-.085-.619-.346-1.12-.784-1.504-.437-.384-.981-.576-1.632-.576zm8.146-.256c.576-.896 1.589-1.344 3.04-1.344v1.904a2.548 2.548 0 00-.464-.048c-.779 0-1.387.229-1.824.688-.438.448-.656 1.099-.656 1.952V172h-2v-8.544h1.904v1.248zm7.407 7.408c-.693 0-1.37-.091-2.032-.272-.661-.181-1.189-.411-1.584-.688l.768-1.52c.384.256.843.464 1.376.624a6.046 6.046 0 001.6.224c1.195 0 1.792-.315 1.792-.944 0-.299-.154-.507-.464-.624-.298-.117-.784-.229-1.456-.336-.704-.107-1.28-.229-1.728-.368a2.747 2.747 0 01-1.152-.72c-.32-.352-.48-.837-.48-1.456 0-.811.336-1.456 1.008-1.936.683-.491 1.6-.736 2.752-.736.587 0 1.174.069 1.76.208.587.128 1.067.304 1.44.528l-.768 1.52c-.725-.427-1.541-.64-2.448-.64-.586 0-1.034.091-1.344.272-.298.171-.448.4-.448.688 0 .32.16.549.48.688.331.128.838.251 1.52.368.683.107 1.243.229 1.68.368.438.139.811.373 1.12.704.32.331.48.8.48 1.408 0 .8-.346 1.44-1.04 1.92-.693.48-1.637.72-2.832.72zm10.443-8.752c1.077 0 1.941.315 2.592.944.65.629.976 1.563.976 2.8V172h-2v-4.64c0-.747-.176-1.307-.528-1.68-.352-.384-.854-.576-1.504-.576-.736 0-1.318.224-1.744.672-.427.437-.64 1.072-.64 1.904V172h-2v-11.872h2v4.32c.33-.352.736-.619 1.216-.8a4.439 4.439 0 011.632-.288zm6.105.096h2V172h-2v-8.544zm1.008-1.408a1.3 1.3 0 01-.912-.336 1.151 1.151 0 01-.368-.864 1.1 1.1 0 01.368-.848c.245-.235.549-.352.912-.352a1.3 1.3 0 01.912.336c.245.213.368.485.368.816 0 .352-.123.651-.368.896-.235.235-.539.352-.912.352zm8.353 1.312c.832 0 1.573.181 2.224.544a3.913 3.913 0 011.552 1.536c.373.661.56 1.424.56 2.288 0 .864-.187 1.632-.56 2.304a3.913 3.913 0 01-1.552 1.536c-.651.363-1.392.544-2.224.544-1.152 0-2.064-.384-2.736-1.152v4.144h-2v-11.648h1.904v1.12a3.115 3.115 0 011.216-.912 4.187 4.187 0 011.616-.304zm-.224 7.04c.736 0 1.339-.245 1.808-.736.48-.491.72-1.136.72-1.936s-.24-1.445-.72-1.936c-.469-.491-1.072-.736-1.808-.736-.48 0-.912.112-1.296.336a2.315 2.315 0 00-.912.928c-.224.405-.336.875-.336 1.408 0 .533.112 1.003.336 1.408.224.405.528.72.912.944.384.213.816.32 1.296.32z" fill="#333"/><path d="M231.195 173.6h90.617v.8h-90.617v-.8z" fill="#333"/><path d="M211 64l-12.609-16H171" stroke="#B9DEF9" stroke-width="2" stroke-linecap="round" stroke-linejoin="round"/><g filter="url(#filter1_d)"><rect x="20" y="20" width="154" height="56" rx="8" fill="#fff"/><path d="M33.348 31.2h-4.032V41h1.82v-2.828h2.212c2.576 0 4.172-1.33 4.172-3.486 0-2.17-1.596-3.486-4.172-3.486zm-.084 5.432h-2.128V32.74h2.128c1.596 0 2.422.714 2.422 1.946s-.826 1.946-2.422 1.946zm7.503-2.016v-1.092h-1.666V41h1.75v-3.626c0-1.526.84-2.31 2.17-2.31.126 0 .252.014.406.042V33.44c-1.246 0-2.156.392-2.66 1.176zm5.027-2.324c.658 0 1.12-.476 1.12-1.092 0-.574-.476-1.008-1.12-1.008-.644 0-1.12.462-1.12 1.05 0 .588.476 1.05 1.12 1.05zM44.912 41h1.75v-7.476h-1.75V41zm9.367-7.476l-2.395 5.544-2.324-5.544h-1.82L50.947 41h1.806l3.206-7.476h-1.68zm5.397-.084c-1.204 0-2.366.308-3.164.924l.686 1.274c.56-.462 1.428-.742 2.268-.742 1.246 0 1.862.602 1.862 1.624v.112h-1.932c-2.268 0-3.108.98-3.108 2.226 0 1.302 1.078 2.24 2.786 2.24 1.12 0 1.932-.364 2.352-1.008V41h1.652v-4.382c0-2.156-1.246-3.178-3.402-3.178zm-.238 6.384c-.896 0-1.428-.406-1.428-1.036 0-.546.322-.994 1.512-.994h1.806v.868c-.294.77-1.036 1.162-1.89 1.162zm9.89-.476c-.266.21-.616.308-.98.308-.672 0-1.036-.392-1.036-1.12V34.98h2.002v-1.4h-2.002v-1.708h-1.75v1.708H64.33v1.4h1.232v3.598c0 1.652.938 2.52 2.576 2.52.63 0 1.26-.168 1.68-.504l-.49-1.246zm8.711-2.044c0-2.338-1.596-3.864-3.78-3.864-2.226 0-3.864 1.596-3.864 3.822s1.624 3.836 4.13 3.836c1.288 0 2.338-.42 3.01-1.218l-.938-1.078c-.532.546-1.19.812-2.03.812-1.302 0-2.212-.7-2.422-1.792h5.866c.014-.168.028-.378.028-.518zm-3.78-2.464c1.148 0 1.974.742 2.114 1.82h-4.242c.168-1.092.994-1.82 2.128-1.82zm11.066 8.876h1.666c-1.162-2.044-1.652-4.158-1.652-6.552 0-2.394.49-4.508 1.652-6.552h-1.666c-1.092 1.666-1.708 3.976-1.708 6.552 0 2.576.616 4.858 1.708 6.552zm11.049-6.482h-1.736V35.26h-1.709v1.974h-3.206l4.55-6.034h-1.945l-4.83 6.314v1.26h5.376V41h1.764v-2.226h1.736v-1.54zm4.853 3.906c2.338 0 4.102-1.82 4.102-5.04 0-3.22-1.764-5.04-4.102-5.04-2.324 0-4.088 1.82-4.088 5.04 0 3.22 1.764 5.04 4.088 5.04zm0-1.582c-1.33 0-2.254-1.092-2.254-3.458s.924-3.458 2.254-3.458c1.344 0 2.268 1.092 2.268 3.458s-.924 3.458-2.268 3.458zm7.516-3.08c1.4 0 2.352-1.064 2.352-2.688s-.952-2.688-2.352-2.688-2.338 1.078-2.338 2.688.938 2.688 2.338 2.688zM107.931 41h1.372l6.692-9.8h-1.372l-6.692 9.8zm.812-5.502c-.728 0-1.204-.63-1.204-1.708 0-1.078.476-1.708 1.204-1.708.756 0 1.204.616 1.204 1.708s-.448 1.708-1.204 1.708zm6.426 5.6c1.4 0 2.352-1.078 2.352-2.688s-.952-2.688-2.352-2.688-2.338 1.078-2.338 2.688.938 2.688 2.338 2.688zm0-.98c-.742 0-1.204-.616-1.204-1.708s.462-1.708 1.204-1.708 1.204.63 1.204 1.708c0 1.078-.462 1.708-1.204 1.708zm4.52 3.598c1.106-1.694 1.708-3.976 1.708-6.552 0-2.576-.602-4.886-1.708-6.552h-1.666c1.162 2.044 1.666 4.158 1.666 6.552 0 2.394-.504 4.508-1.666 6.552h1.666zM31.094 63.46l2.618-2.492c1.358-1.274 1.624-2.142 1.624-3.094 0-1.736-1.372-2.814-3.5-2.814-1.61 0-2.968.602-3.724 1.624l1.274.98c.546-.7 1.344-1.022 2.296-1.022 1.204 0 1.82.518 1.82 1.414 0 .546-.168 1.12-1.12 2.03l-3.892 3.696V65h7.224v-1.54h-4.62zm9.717 1.68c2.338 0 4.102-1.82 4.102-5.04 0-3.22-1.764-5.04-4.102-5.04-2.324 0-4.088 1.82-4.088 5.04 0 3.22 1.764 5.04 4.088 5.04zm0-1.582c-1.33 0-2.254-1.092-2.254-3.458s.924-3.458 2.254-3.458c1.344 0 2.268 1.092 2.268 3.458s-.924 3.458-2.268 3.458zm6.274-.784c-.644 0-1.134.462-1.134 1.162 0 .504.266.868.658 1.036l-.56 2.142h1.134l.714-1.974c.252-.644.322-.896.322-1.204 0-.686-.476-1.162-1.134-1.162zm6.236 2.366c2.338 0 4.102-1.82 4.102-5.04 0-3.22-1.764-5.04-4.102-5.04-2.324 0-4.088 1.82-4.088 5.04 0 3.22 1.764 5.04 4.088 5.04zm0-1.582c-1.33 0-2.254-1.092-2.254-3.458s.924-3.458 2.254-3.458c1.344 0 2.268 1.092 2.268 3.458s-.924 3.458-2.268 3.458zm9.42 1.582c2.338 0 4.102-1.82 4.102-5.04 0-3.22-1.764-5.04-4.102-5.04-2.324 0-4.088 1.82-4.088 5.04 0 3.22 1.764 5.04 4.088 5.04zm0-1.582c-1.33 0-2.254-1.092-2.254-3.458s.924-3.458 2.254-3.458c1.344 0 2.268 1.092 2.268 3.458s-.924 3.458-2.268 3.458zm9.42 1.582c2.338 0 4.102-1.82 4.102-5.04 0-3.22-1.764-5.04-4.102-5.04-2.324 0-4.088 1.82-4.088 5.04 0 3.22 1.764 5.04 4.088 5.04zm0-1.582c-1.33 0-2.254-1.092-2.254-3.458s.924-3.458 2.254-3.458c1.344 0 2.268 1.092 2.268 3.458s-.924 3.458-2.268 3.458zm14.115 1.582c2.674 0 4.284-1.554 4.284-4.41V55.2h-1.792v5.46c0 2.016-.896 2.884-2.478 2.884-1.582 0-2.492-.868-2.492-2.884V55.2h-1.82v5.53c0 2.856 1.61 4.41 4.298 4.41zm10.907-7.7c-1.092 0-2.002.364-2.576 1.05v-.966h-1.666V65h1.75v-3.78c0-1.498.84-2.254 2.086-2.254 1.12 0 1.778.644 1.778 1.974V65h1.75v-4.284c0-2.254-1.33-3.276-3.122-3.276zm6.224-1.148c.658 0 1.12-.476 1.12-1.092 0-.574-.476-1.008-1.12-1.008-.644 0-1.12.462-1.12 1.05 0 .588.476 1.05 1.12 1.05zM102.525 65h1.75v-7.476h-1.75V65zm9.367-7.476l-2.394 5.544-2.324-5.544h-1.82L108.56 65h1.806l3.206-7.476h-1.68zm9.597 3.78c0-2.338-1.596-3.864-3.78-3.864-2.226 0-3.864 1.596-3.864 3.822s1.624 3.836 4.13 3.836c1.288 0 2.337-.42 3.01-1.218l-.938-1.078c-.532.546-1.19.812-2.03.812-1.302 0-2.212-.7-2.422-1.792h5.866c.014-.168.028-.378.028-.518zm-3.78-2.464c1.148 0 1.974.742 2.114 1.82h-4.242c.168-1.092.994-1.82 2.128-1.82zm7.126-.224v-1.092h-1.666V65h1.75v-3.626c0-1.526.84-2.31 2.17-2.31.126 0 .252.014.406.042V57.44c-1.246 0-2.156.392-2.66 1.176zm6.482 6.482c2.1 0 3.388-.91 3.388-2.31 0-2.926-4.62-1.582-4.62-3.094 0-.49.504-.84 1.568-.84.714 0 1.428.14 2.142.56l.672-1.33c-.672-.406-1.806-.644-2.8-.644-2.016 0-3.29.924-3.29 2.338 0 2.982 4.62 1.638 4.62 3.066 0 .518-.462.826-1.568.826-.938 0-1.946-.308-2.604-.742l-.672 1.33c.672.476 1.918.84 3.164.84zm5.777-8.806c.658 0 1.12-.476 1.12-1.092 0-.574-.476-1.008-1.12-1.008-.644 0-1.12.462-1.12 1.05 0 .588.476 1.05 1.12 1.05zM136.212 65h1.75v-7.476h-1.75V65zm8.051-1.652c-.266.21-.616.308-.98.308-.672 0-1.036-.392-1.036-1.12V58.98h2.002v-1.4h-2.002v-1.708h-1.75v1.708h-1.232v1.4h1.232v3.598c0 1.652.938 2.52 2.576 2.52.63 0 1.26-.168 1.68-.504l-.49-1.246zm2.812-7.056c.658 0 1.12-.476 1.12-1.092 0-.574-.476-1.008-1.12-1.008-.644 0-1.12.462-1.12 1.05 0 .588.476 1.05 1.12 1.05zM146.193 65h1.75v-7.476h-1.75V65zm11.075-3.696c0-2.338-1.596-3.864-3.78-3.864-2.226 0-3.864 1.596-3.864 3.822s1.624 3.836 4.13 3.836c1.288 0 2.338-.42 3.01-1.218l-.938-1.078c-.532.546-1.19.812-2.03.812-1.302 0-2.212-.7-2.422-1.792h5.866c.014-.168.028-.378.028-.518zm-3.78-2.464c1.148 0 1.974.742 2.114 1.82h-4.242c.168-1.092.994-1.82 2.128-1.82zm7.771 6.258c2.1 0 3.388-.91 3.388-2.31 0-2.926-4.62-1.582-4.62-3.094 0-.49.504-.84 1.568-.84.714 0 1.428.14 2.142.56l.672-1.33c-.672-.406-1.806-.644-2.8-.644-2.016 0-3.29.924-3.29 2.338 0 2.982 4.62 1.638 4.62 3.066 0 .518-.462.826-1.568.826-.938 0-1.946-.308-2.604-.742l-.672 1.33c.672.476 1.918.84 3.164.84z" fill="#333"/></g><defs><filter id="filter0_d" x="374" y="264" width="162" height="64" filterUnits="userSpaceOnUse" color-interpolation-filters="sRGB"><feFlood flood-opacity="0" result="BackgroundImageFix"/><feColorMatrix in="SourceAlpha" values="0 0 0 0 0 0 0 0 0 0 0 0 0 0 0 0 0 0 127 0"/><feOffset dy="1"/><feGaussianBlur stdDeviation="2"/><feColorMatrix values="0 0 0 0 0 0 0 0 0 0 0 0 0 0 0 0 0 0 0.08 0"/><feBlend in2="BackgroundImageFix" result="effect1_dropShadow"/><feBlend in="SourceGraphic" in2="effect1_dropShadow" result="shape"/></filter><filter id="filter1_d" x="16" y="17" width="162" height="64" filterUnits="userSpaceOnUse" color-interpolation-filters="sRGB"><feFlood flood-opacity="0" result="BackgroundImageFix"/><feColorMatrix in="SourceAlpha" values="0 0 0 0 0 0 0 0 0 0 0 0 0 0 0 0 0 0 127 0"/><feOffset dy="1"/><feGaussianBlur stdDeviation="2"/><feColorMatrix values="0 0 0 0 0 0 0 0 0 0 0 0 0 0 0 0 0 0 0.08 0"/><feBlend in2="BackgroundImageFix" result="effect1_dropShadow"/><feBlend in="SourceGraphic" in2="effect1_dropShadow" result="shape"/></filter></defs></svg>