<svg width="1128" height="344" fill="none" xmlns="http://www.w3.org/2000/svg"><path d="M0 4a4 4 0 014-4h1100c13.25 0 24 10.745 24 24v296c0 13.255-10.75 24-24 24H4a4 4 0 01-4-4V4z" fill="#FCF6FE"/><path d="M922 296c0-8.837 7.163-16 16-16h126c8.84 0 16 7.163 16 16s-7.16 16-16 16H938c-8.837 0-16-7.163-16-16z" fill="#E4B8F9"/><path d="M951.894 301.14c-.999 0-1.899-.215-2.702-.644a4.887 4.887 0 01-1.89-1.806c-.457-.775-.686-1.638-.686-2.59s.229-1.811.686-2.576a4.748 4.748 0 011.89-1.806c.803-.439 1.703-.658 2.702-.658.999 0 1.899.219 2.702.658a4.782 4.782 0 011.89 1.792c.457.765.686 1.629.686 2.59 0 .961-.229 1.825-.686 2.59a4.887 4.887 0 01-1.89 1.806c-.803.429-1.703.644-2.702.644zm0-1.596c.653 0 1.241-.145 1.764-.434a3.254 3.254 0 001.232-1.232 3.566 3.566 0 00.448-1.778 3.49 3.49 0 00-.448-1.764 3.126 3.126 0 00-1.232-1.232 3.49 3.49 0 00-1.764-.448 3.49 3.49 0 00-1.764.448c-.523.289-.933.7-1.232 1.232a3.49 3.49 0 00-.448 1.764c0 .653.149 1.246.448 1.778.299.523.709.933 1.232 1.232a3.586 3.586 0 001.764.434zm11.602 1.05a2.067 2.067 0 01-.756.378c-.29.084-.598.126-.924.126-.822 0-1.456-.215-1.904-.644-.448-.429-.672-1.055-.672-1.876v-3.598h-1.232v-1.4h1.232v-1.708h1.75v1.708h2.002v1.4h-2.002v3.556c0 .364.088.644.266.84.177.187.434.28.77.28.392 0 .718-.103.98-.308l.49 1.246zm5.681-7.154c.943 0 1.699.275 2.268.826.569.551.854 1.367.854 2.45V301h-1.75v-4.06c0-.653-.154-1.143-.462-1.47-.308-.336-.747-.504-1.316-.504-.644 0-1.153.196-1.526.588-.373.383-.56.938-.56 1.666V301h-1.75v-10.388h1.75v3.78a2.788 2.788 0 011.064-.7 3.886 3.886 0 011.428-.252zm12.438 3.864c0 .121-.009.294-.028.518h-5.866c.103.551.369.989.798 1.316.439.317.98.476 1.624.476.822 0 1.498-.271 2.03-.812l.938 1.078c-.336.401-.76.705-1.274.91-.513.205-1.092.308-1.736.308-.821 0-1.544-.163-2.17-.49a3.597 3.597 0 01-1.456-1.358c-.336-.588-.504-1.251-.504-1.988 0-.728.164-1.381.49-1.96a3.563 3.563 0 011.386-1.372c.588-.327 1.251-.49 1.988-.49.728 0 1.377.163 1.946.49a3.3 3.3 0 011.344 1.358c.327.579.49 1.251.49 2.016zm-3.78-2.464c-.56 0-1.036.168-1.428.504-.382.327-.616.765-.7 1.316h4.242c-.074-.541-.303-.98-.686-1.316-.382-.336-.858-.504-1.428-.504zm7.127-.224c.504-.784 1.391-1.176 2.66-1.176v1.666a2.213 2.213 0 00-.406-.042c-.681 0-1.213.201-1.596.602-.382.392-.574.961-.574 1.708V301h-1.75v-7.476h1.666v1.092zm6.482 6.482a6.685 6.685 0 01-1.778-.238c-.578-.159-1.04-.359-1.386-.602l.672-1.33a4.49 4.49 0 001.204.546c.476.131.943.196 1.4.196 1.046 0 1.568-.275 1.568-.826 0-.261-.135-.443-.406-.546-.261-.103-.686-.201-1.274-.294a10.658 10.658 0 01-1.512-.322 2.396 2.396 0 01-1.008-.63c-.28-.308-.42-.733-.42-1.274 0-.709.294-1.274.882-1.694.598-.429 1.4-.644 2.408-.644.514 0 1.027.061 1.54.182.514.112.934.266 1.26.462l-.672 1.33c-.634-.373-1.348-.56-2.142-.56-.513 0-.905.079-1.176.238-.261.149-.392.35-.392.602 0 .28.14.481.42.602.29.112.733.219 1.33.322.598.093 1.088.201 1.47.322.383.121.71.327.98.616.28.289.42.7.42 1.232 0 .7-.303 1.26-.91 1.68-.606.42-1.432.63-2.478.63zm10.496 2.618c-.55-.849-.97-1.834-1.27-2.954-.29-1.12-.43-2.319-.43-3.598s.14-2.478.43-3.598c.3-1.129.72-2.114 1.27-2.954h1.67a12.544 12.544 0 00-1.26 3.122 14.418 14.418 0 00-.39 3.43c0 1.223.13 2.371.39 3.444.27 1.064.69 2.1 1.26 3.108h-1.67zm6.11-12.516v9.8h-1.82v-8.274h-2.07V291.2h3.89zm6.04 9.94c-.79 0-1.49-.196-2.1-.588-.62-.401-1.1-.98-1.46-1.736-.35-.765-.53-1.671-.53-2.716 0-1.045.18-1.946.53-2.702.36-.765.84-1.344 1.46-1.736.61-.401 1.31-.602 2.1-.602.78 0 1.48.201 2.1.602.62.392 1.11.971 1.47 1.736.35.756.53 1.657.53 2.702s-.18 1.951-.53 2.716c-.36.756-.85 1.335-1.47 1.736-.62.392-1.32.588-2.1.588zm0-1.582c.7 0 1.25-.289 1.65-.868.41-.579.61-1.442.61-2.59s-.2-2.011-.61-2.59c-.4-.579-.95-.868-1.65-.868-.69 0-1.24.289-1.66.868-.4.579-.6 1.442-.6 2.59s.2 2.011.6 2.59c.42.579.97.868 1.66.868zm7.51-3.08c-.7 0-1.26-.247-1.69-.742-.43-.495-.65-1.143-.65-1.946 0-.803.22-1.451.65-1.946.43-.495.99-.742 1.69-.742s1.27.247 1.7.742c.44.485.65 1.134.65 1.946s-.21 1.465-.65 1.96c-.43.485-1 .728-1.7.728zm5.88-5.278h1.37l-6.69 9.8h-1.37l6.69-9.8zm-5.88 4.298c.39 0 .68-.149.88-.448.22-.299.33-.719.33-1.26s-.11-.961-.33-1.26c-.2-.299-.49-.448-.88-.448-.36 0-.66.154-.88.462-.21.299-.32.714-.32 1.246s.11.952.32 1.26c.22.299.52.448.88.448zm6.43 5.6c-.7 0-1.27-.247-1.7-.742-.42-.495-.64-1.143-.64-1.946 0-.803.22-1.451.64-1.946.43-.495 1-.742 1.7-.742s1.26.247 1.69.742c.44.495.66 1.143.66 1.946 0 .803-.22 1.451-.66 1.946-.43.495-.99.742-1.69.742zm0-.98c.37 0 .67-.149.88-.448.22-.308.32-.728.32-1.26s-.1-.947-.32-1.246a1.014 1.014 0 00-.88-.462c-.37 0-.67.149-.88.448-.22.299-.33.719-.33 1.26s.11.961.33 1.26c.21.299.51.448.88.448zm2.85 3.598c.57-1.008.99-2.049 1.26-3.122s.41-2.217.41-3.43-.14-2.357-.41-3.43a12.544 12.544 0 00-1.26-3.122h1.67c.55.831.97 1.811 1.26 2.94.3 1.12.45 2.324.45 3.612 0 1.288-.15 2.492-.45 3.612-.29 1.111-.71 2.091-1.26 2.94h-1.67z" fill="#fff"/><path d="M866 240c0-8.837 7.163-16 16-16h182c8.84 0 16 7.163 16 16s-7.16 16-16 16H882c-8.837 0-16-7.163-16-16z" fill="#C7A1F7"/><path d="M900.318 245l-.014-6.496-3.22 5.376h-.812l-3.22-5.292V245h-1.736v-9.8h1.498l3.892 6.496 3.822-6.496h1.498l.014 9.8h-1.722zm11.229-3.696c0 .121-.009.294-.028.518h-5.866c.103.551.369.989.798 1.316.439.317.98.476 1.624.476.821 0 1.498-.271 2.03-.812l.938 1.078a3.163 3.163 0 01-1.274.91c-.513.205-1.092.308-1.736.308-.821 0-1.545-.163-2.17-.49a3.591 3.591 0 01-1.456-1.358c-.336-.588-.504-1.251-.504-1.988 0-.728.163-1.381.49-1.96a3.563 3.563 0 011.386-1.372c.588-.327 1.251-.49 1.988-.49.728 0 1.377.163 1.946.49a3.3 3.3 0 011.344 1.358c.327.579.49 1.251.49 2.016zm-3.78-2.464c-.56 0-1.036.168-1.428.504-.383.327-.616.765-.7 1.316h4.242c-.075-.541-.303-.98-.686-1.316-.383-.336-.859-.504-1.428-.504zm12.783-4.228V245h-1.68v-.966a2.691 2.691 0 01-1.078.798c-.42.177-.887.266-1.4.266a3.983 3.983 0 01-1.946-.476 3.446 3.446 0 01-1.344-1.344c-.327-.588-.49-1.26-.49-2.016s.163-1.423.49-2.002a3.446 3.446 0 011.344-1.344 3.983 3.983 0 011.946-.476c.495 0 .947.084 1.358.252.411.168.761.42 1.05.756v-3.836h1.75zm-3.948 8.988c.42 0 .798-.093 1.134-.28.336-.196.602-.471.798-.826.196-.355.294-.765.294-1.232 0-.467-.098-.877-.294-1.232a2.026 2.026 0 00-.798-.812 2.209 2.209 0 00-1.134-.294c-.42 0-.798.098-1.134.294a2.026 2.026 0 00-.798.812c-.196.355-.294.765-.294 1.232 0 .467.098.877.294 1.232.196.355.462.63.798.826.336.187.714.28 1.134.28zm6.237-6.076h1.75V245h-1.75v-7.476zm.882-1.232a1.14 1.14 0 01-.798-.294 1.007 1.007 0 01-.322-.756c0-.299.108-.546.322-.742.215-.205.481-.308.798-.308.318 0 .584.098.798.294a.904.904 0 01.322.714c0 .308-.107.569-.322.784-.205.205-.471.308-.798.308zm6.595 8.806c-.774 0-1.47-.163-2.086-.49a3.617 3.617 0 01-1.442-1.358c-.345-.588-.518-1.251-.518-1.988 0-.737.173-1.395.518-1.974a3.646 3.646 0 011.428-1.358c.616-.327 1.316-.49 2.1-.49.738 0 1.382.149 1.932.448a2.9 2.9 0 011.26 1.288l-1.344.784a2.062 2.062 0 00-.812-.77 2.117 2.117 0 00-1.05-.266c-.653 0-1.194.215-1.624.644-.429.42-.644.985-.644 1.694s.21 1.279.63 1.708c.43.42.976.63 1.638.63.383 0 .733-.084 1.05-.252.327-.177.598-.439.812-.784l1.344.784a3.06 3.06 0 01-1.274 1.302c-.55.299-1.19.448-1.918.448zm7.561-7.658c1.101 0 1.941.266 2.52.798.588.523.882 1.316.882 2.38V245h-1.652v-.91a2.073 2.073 0 01-.924.756c-.392.168-.868.252-1.428.252-.56 0-1.05-.093-1.47-.28a2.39 2.39 0 01-.98-.798 2.09 2.09 0 01-.336-1.162c0-.672.247-1.209.742-1.61.504-.411 1.293-.616 2.366-.616h1.932v-.112c0-.523-.159-.924-.476-1.204-.308-.28-.77-.42-1.386-.42-.42 0-.835.065-1.246.196a3.068 3.068 0 00-1.022.546l-.686-1.274a4.245 4.245 0 011.414-.686 6.28 6.28 0 011.75-.238zm-.238 6.384c.439 0 .826-.098 1.162-.294.345-.205.588-.495.728-.868v-.868h-1.806c-1.008 0-1.512.331-1.512.994 0 .317.126.569.378.756.252.187.602.28 1.05.28zm5.886-9.212h1.75V245h-1.75v-10.388zm9.652 13.104c-.551-.849-.975-1.834-1.274-2.954a14.357 14.357 0 01-.434-3.598c0-1.279.145-2.478.434-3.598.299-1.129.723-2.114 1.274-2.954h1.666a12.62 12.62 0 00-1.26 3.122 14.364 14.364 0 00-.392 3.43c0 1.223.131 2.371.392 3.444.271 1.064.691 2.1 1.26 3.108h-1.666zm6.11-12.516v9.8h-1.82v-8.274h-2.072V235.2h3.892zm5.01 3.794c1.382 0 2.404.271 3.066.812.663.532.994 1.26.994 2.184 0 .588-.144 1.12-.434 1.596-.289.476-.723.854-1.302 1.134-.578.28-1.292.42-2.142.42a7.03 7.03 0 01-2.03-.294c-.653-.205-1.204-.485-1.652-.84l.77-1.414c.364.299.798.537 1.302.714a5.06 5.06 0 001.582.252c.644 0 1.148-.131 1.512-.392.374-.271.56-.639.56-1.106 0-.504-.2-.882-.602-1.134-.392-.261-1.068-.392-2.03-.392h-2.366l.504-5.334h5.754v1.526h-4.214l-.21 2.268h.938zm7.157 1.484c-.7 0-1.264-.247-1.694-.742-.429-.495-.644-1.143-.644-1.946 0-.803.215-1.451.644-1.946.43-.495.994-.742 1.694-.742s1.265.247 1.694.742c.439.485.658 1.134.658 1.946s-.219 1.465-.658 1.96c-.429.485-.994.728-1.694.728zm5.88-5.278h1.372l-6.692 9.8h-1.372l6.692-9.8zm-5.88 4.298c.383 0 .677-.149.882-.448.215-.299.322-.719.322-1.26s-.107-.961-.322-1.26c-.205-.299-.499-.448-.882-.448-.364 0-.658.154-.882.462-.214.299-.322.714-.322 1.246s.108.952.322 1.26c.224.299.518.448.882.448zm6.426 5.6c-.7 0-1.264-.247-1.694-.742-.429-.495-.644-1.143-.644-1.946 0-.803.215-1.451.644-1.946.43-.495.994-.742 1.694-.742s1.265.247 1.694.742c.439.495.658 1.143.658 1.946 0 .803-.219 1.451-.658 1.946-.429.495-.994.742-1.694.742zm0-.98c.374 0 .668-.149.882-.448.215-.308.322-.728.322-1.26s-.107-.947-.322-1.246a1.017 1.017 0 00-.882-.462c-.373 0-.667.149-.882.448-.214.299-.322.719-.322 1.26s.108.961.322 1.26c.215.299.509.448.882.448zm2.854 3.598a12.62 12.62 0 001.26-3.122 14.02 14.02 0 00.406-3.43 14.02 14.02 0 00-.406-3.43 12.62 12.62 0 00-1.26-3.122h1.666c.55.831.97 1.811 1.26 2.94.298 1.12.448 2.324.448 3.612 0 1.288-.15 2.492-.448 3.612-.29 1.111-.71 2.091-1.26 2.94h-1.666z" fill="#fff"/><path d="M396.565 307.782V309h-7.112v-9.8h6.916v1.218h-5.516v3.01h4.914v1.19h-4.914v3.164h5.712zm6.033-6.272c.943 0 1.69.275 2.24.826.56.541.84 1.339.84 2.394V309h-1.344v-4.116c0-.719-.172-1.26-.518-1.624-.345-.364-.84-.546-1.484-.546-.728 0-1.302.215-1.722.644-.42.42-.63 1.027-.63 1.82V309h-1.344v-7.42h1.288v1.12a2.62 2.62 0 011.092-.882 3.896 3.896 0 011.582-.308zm12.707.07v6.412c0 1.297-.322 2.254-.966 2.87-.644.625-1.606.938-2.884.938-.7 0-1.368-.098-2.002-.294-.635-.187-1.148-.457-1.54-.812l.644-1.036c.345.299.77.532 1.274.7.513.177 1.04.266 1.582.266.868 0 1.507-.205 1.918-.616.42-.411.63-1.036.63-1.876v-.588c-.318.383-.71.672-1.176.868-.458.187-.957.28-1.498.28-.71 0-1.354-.149-1.932-.448a3.456 3.456 0 01-1.344-1.274c-.327-.551-.49-1.176-.49-1.876s.163-1.321.49-1.862a3.325 3.325 0 011.344-1.274 4.141 4.141 0 011.932-.448c.56 0 1.078.103 1.554.308.485.205.882.509 1.19.91v-1.148h1.274zm-3.864 5.936c.485 0 .919-.103 1.302-.308.392-.205.695-.49.91-.854a2.4 2.4 0 00.336-1.26c0-.719-.238-1.297-.714-1.736-.476-.448-1.088-.672-1.834-.672-.756 0-1.372.224-1.848.672-.476.439-.714 1.017-.714 1.736 0 .467.107.887.322 1.26.224.364.527.649.91.854.392.205.835.308 1.33.308zm6.432-5.936h1.344V309h-1.344v-7.42zm.672-1.428a.918.918 0 01-.658-.252.837.837 0 01-.252-.616c0-.243.084-.448.252-.616a.893.893 0 01.658-.266c.261 0 .476.084.644.252a.774.774 0 01.266.602.878.878 0 01-.266.644.873.873 0 01-.644.252zm7.2 1.358c.942 0 1.689.275 2.24.826.56.541.84 1.339.84 2.394V309h-1.344v-4.116c0-.719-.173-1.26-.518-1.624-.346-.364-.84-.546-1.484-.546-.728 0-1.302.215-1.722.644-.42.42-.63 1.027-.63 1.82V309h-1.344v-7.42h1.288v1.12c.27-.383.634-.677 1.092-.882.466-.205.994-.308 1.582-.308zm12.314 3.822c0 .103-.009.238-.028.406h-6.02c.084.653.369 1.181.854 1.582.495.392 1.106.588 1.834.588.887 0 1.601-.299 2.142-.896l.742.868a3.237 3.237 0 01-1.26.896 4.316 4.316 0 01-1.666.308c-.784 0-1.479-.159-2.086-.476a3.537 3.537 0 01-1.414-1.358c-.327-.579-.49-1.232-.49-1.96 0-.719.159-1.367.476-1.946a3.471 3.471 0 011.33-1.344c.569-.327 1.209-.49 1.918-.49.709 0 1.339.163 1.89.49.56.317.994.765 1.302 1.344.317.579.476 1.241.476 1.988zm-3.668-2.688c-.644 0-1.185.196-1.624.588-.429.392-.681.905-.756 1.54h4.76c-.075-.625-.331-1.134-.77-1.526-.429-.401-.966-.602-1.61-.602zm12.24 2.688c0 .103-.009.238-.028.406h-6.02c.084.653.369 1.181.854 1.582.495.392 1.106.588 1.834.588.887 0 1.601-.299 2.142-.896l.742.868a3.237 3.237 0 01-1.26.896 4.312 4.312 0 01-1.666.308c-.784 0-1.479-.159-2.086-.476a3.543 3.543 0 01-1.414-1.358c-.326-.579-.49-1.232-.49-1.96 0-.719.159-1.367.476-1.946a3.471 3.471 0 011.33-1.344 3.784 3.784 0 011.918-.49c.71 0 1.34.163 1.89.49.56.317.994.765 1.302 1.344.318.579.476 1.241.476 1.988zm-3.668-2.688c-.644 0-1.185.196-1.624.588-.429.392-.681.905-.756 1.54h4.76c-.074-.625-.331-1.134-.77-1.526-.429-.401-.966-.602-1.61-.602zm6.823.182a2.29 2.29 0 011.036-.98c.457-.224 1.012-.336 1.666-.336v1.302a2.712 2.712 0 00-.308-.014c-.728 0-1.302.219-1.722.658-.411.429-.616 1.045-.616 1.848V309h-1.344v-7.42h1.288v1.246zm4.358-1.246h1.344V309h-1.344v-7.42zm.672-1.428a.92.92 0 01-.658-.252.837.837 0 01-.252-.616c0-.243.084-.448.252-.616a.895.895 0 01.658-.266c.261 0 .476.084.644.252a.774.774 0 01.266.602.878.878 0 01-.266.644.873.873 0 01-.644.252zm7.2 1.358c.943 0 1.69.275 2.24.826.56.541.84 1.339.84 2.394V309h-1.344v-4.116c0-.719-.172-1.26-.518-1.624-.345-.364-.84-.546-1.484-.546-.728 0-1.302.215-1.722.644-.42.42-.63 1.027-.63 1.82V309h-1.344v-7.42h1.288v1.12a2.62 2.62 0 011.092-.882 3.896 3.896 0 011.582-.308zm12.707.07v6.412c0 1.297-.322 2.254-.966 2.87-.644.625-1.606.938-2.884.938-.7 0-1.368-.098-2.002-.294-.635-.187-1.148-.457-1.54-.812l.644-1.036c.345.299.77.532 1.274.7.513.177 1.04.266 1.582.266.868 0 1.507-.205 1.918-.616.42-.411.63-1.036.63-1.876v-.588c-.318.383-.71.672-1.176.868-.458.187-.957.28-1.498.28-.71 0-1.354-.149-1.932-.448a3.456 3.456 0 01-1.344-1.274c-.327-.551-.49-1.176-.49-1.876s.163-1.321.49-1.862a3.325 3.325 0 011.344-1.274 4.141 4.141 0 011.932-.448c.56 0 1.078.103 1.554.308.485.205.882.509 1.19.91v-1.148h1.274zm-3.864 5.936c.485 0 .919-.103 1.302-.308.392-.205.695-.49.91-.854a2.4 2.4 0 00.336-1.26c0-.719-.238-1.297-.714-1.736-.476-.448-1.088-.672-1.834-.672-.756 0-1.372.224-1.848.672-.476.439-.714 1.017-.714 1.736 0 .467.107.887.322 1.26.224.364.527.649.91.854.392.205.835.308 1.33.308z" fill="#333"/><path d="M464 256c0 17.673-14.327 32-32 32-17.673 0-32-14.327-32-32 0-17.673 14.327-32 32-32 17.673 0 32 14.327 32 32z" fill="#E08AF5"/><path d="M450 259.636v-7.272l-3.895-.974a14.935 14.935 0 00-.872-2.103l2.066-3.444-5.142-5.142-3.444 2.066a14.935 14.935 0 00-2.103-.872l-.974-3.895H432l-4.219 10.547H432a7.453 7.453 0 010 14.906h-4.219L432 274h3.636l.974-3.895a14.935 14.935 0 002.103-.872l3.444 2.066 5.142-5.142-2.066-3.444c.344-.678.636-1.382.872-2.103l3.895-.974z" fill="#fff"/><path d="M424.547 256a7.453 7.453 0 017.453-7.453V238h-3.636l-.974 3.895c-.721.236-1.424.528-2.103.872l-3.444-2.066-5.142 5.142 2.066 3.444a14.885 14.885 0 00-.872 2.103l-3.895.974v7.272l3.895.974c.236.721.528 1.424.872 2.103l-2.066 3.444 5.142 5.142 3.444-2.067c.678.345 1.382.637 2.103.873l.974 3.895H432v-10.547a7.453 7.453 0 01-7.453-7.453z" fill="#fff"/><path d="M432 245.383l-2.109 3.164H432a7.453 7.453 0 010 14.906h-2.109l2.109 3.164c5.864 0 10.617-4.753 10.617-10.617 0-5.864-4.753-10.617-10.617-10.617z" fill="#242424"/><path d="M424.547 256a7.453 7.453 0 017.453-7.453v-3.164c-5.864 0-10.617 4.753-10.617 10.617 0 5.864 4.753 10.617 10.617 10.617v-3.164a7.453 7.453 0 01-7.453-7.453z" fill="#434343"/><path d="M432 247.492l-1.406 1.582 1.406 1.582a5.345 5.345 0 010 10.688l-1.406 1.582 1.406 1.582a8.508 8.508 0 008.508-8.508 8.508 8.508 0 00-8.508-8.508z" fill="#3F3F3F"/><path d="M426.656 256a5.345 5.345 0 015.344-5.344v-3.164a8.508 8.508 0 00-8.508 8.508 8.508 8.508 0 008.508 8.508v-3.164a5.345 5.345 0 01-5.344-5.344z" fill="#636363"/><path d="M306.882 299.2h1.4v8.582h5.306V309h-6.706v-9.8zm10.86 2.31c1.026 0 1.81.252 2.352.756.55.504.826 1.255.826 2.254V309h-1.274v-.98a2.166 2.166 0 01-.966.798c-.411.177-.901.266-1.47.266-.831 0-1.498-.201-2.002-.602-.495-.401-.742-.929-.742-1.582s.238-1.176.714-1.568c.476-.401 1.232-.602 2.268-.602h2.128v-.266c0-.579-.168-1.022-.504-1.33-.336-.308-.831-.462-1.484-.462-.439 0-.868.075-1.288.224a3.21 3.21 0 00-1.064.574l-.56-1.008a3.97 3.97 0 011.372-.7 5.59 5.59 0 011.694-.252zm-.308 6.538c.513 0 .956-.112 1.33-.336a2 2 0 00.812-.98v-1.036h-2.072c-1.139 0-1.708.383-1.708 1.148 0 .373.144.667.434.882.289.215.69.322 1.204.322zm17.064-6.468l-2.772 7.42h-1.288l-2.142-5.628-2.17 5.628h-1.288l-2.758-7.42h1.274l2.156 5.908 2.24-5.908h1.134l2.198 5.936 2.212-5.936h1.204z" fill="#333"/><path d="M352 256c0 .814-.03 1.619-.09 2.417a31.793 31.793 0 01-3.103 11.529C343.626 280.632 332.674 288 320 288c-.714 0-1.423-.024-2.125-.07a31.88 31.88 0 01-4.813-.685l-.055-.013-.007-.001c-14.306-3.192-25-15.962-25-31.231 0-17.673 14.327-32 32-32 14.836 0 27.315 10.097 30.938 23.795l.017.063A32.011 32.011 0 01352 256z" fill="#E08AF5"/><path d="M333.44 244.876h-2.766l-5.236 10.638 2.047 1.387 4.572-9.289 4.571 9.288 2.048-1.386-5.236-10.638z" fill="#fff"/><path d="M333.438 244.876h-1.383v2.737-.001l4.571 9.288 2.048-1.386-5.236-10.638z" fill="#fff"/><path d="M332.057 263.078a6.618 6.618 0 01-6.619-6.619v-.945h13.238v.945a6.62 6.62 0 01-6.619 6.619z" fill="#FED230"/><path d="M332.055 255.514v7.564a6.62 6.62 0 006.619-6.619v-.945h-6.619z" fill="#FBBE2C"/><path d="M324.492 254.884h15.129v2.837h-15.129v-2.837z" fill="#FBBE2C"/><path d="M332.055 254.884h7.564v2.837h-7.564v-2.837z" fill="#E5A629"/><path d="M308.947 244.876h-2.765l-5.237 10.638 2.048 1.387 4.572-9.289 4.571 9.288 2.047-1.386-5.236-10.638z" fill="#fff"/><path d="M308.949 244.876h-1.383v2.737l.001-.001 4.571 9.288 2.047-1.386-5.236-10.638z" fill="#fff"/><path d="M307.564 263.078a6.62 6.62 0 01-6.619-6.619v-.945h13.238v.945a6.618 6.618 0 01-6.619 6.619z" fill="#FED230"/><path d="M307.566 255.514v7.564a6.618 6.618 0 006.619-6.619v-.945h-6.619z" fill="#FBBE2C"/><path d="M300 254.884h15.129v2.837H300v-2.837z" fill="#FBBE2C"/><path d="M307.566 254.884h7.565v2.837h-7.565v-2.837z" fill="#E5A629"/><path d="M317.871 269.604V238h3.782v31.604h-3.782z" fill="#fff"/><path d="M334.892 245.255h-30.259v-2.837h30.259v2.837z" fill="#FED230"/><path d="M319.763 238h1.891v31.604h-1.891V238z" fill="#fff"/><path d="M312.672 268.326h14.183v3.184h-14.183v-3.184z" fill="#FBBE2C"/><path d="M319.763 268.326h7.091v3.184h-7.091v-3.184z" fill="#E5A629"/><path d="M307.941 271.163h23.64V274h-23.64v-2.837z" fill="#FED230"/><path d="M319.763 271.163h11.819V274h-11.819v-2.837zm0-28.746h15.129v2.837h-15.129v-2.837z" fill="#FBBE2C"/><path d="M319.763 246.672a2.836 2.836 0 100-5.673 2.836 2.836 0 000 5.673z" fill="#FBBE2C"/><path d="M319.763 240.999v5.673a2.836 2.836 0 000-5.673z" fill="#E5A629"/><path d="M180.187 307.782V309h-7.112v-9.8h6.916v1.218h-5.516v3.01h4.914v1.19h-4.914v3.164h5.712zm8.976-9.17V309h-1.288v-1.176a2.915 2.915 0 01-1.134.938 3.513 3.513 0 01-1.512.322c-.719 0-1.363-.159-1.932-.476a3.463 3.463 0 01-1.344-1.33c-.318-.579-.476-1.241-.476-1.988 0-.747.158-1.405.476-1.974a3.463 3.463 0 011.344-1.33c.569-.317 1.213-.476 1.932-.476a3.49 3.49 0 011.47.308c.448.196.821.49 1.12.882v-4.088h1.344zm-3.822 9.296c.466 0 .891-.107 1.274-.322.382-.224.681-.532.896-.924.214-.401.322-.859.322-1.372 0-.513-.108-.966-.322-1.358a2.26 2.26 0 00-.896-.924 2.558 2.558 0 00-1.274-.322c-.476 0-.906.107-1.288.322a2.372 2.372 0 00-.896.924c-.215.392-.322.845-.322 1.358 0 .513.107.971.322 1.372.224.392.522.7.896.924.382.215.812.322 1.288.322zm13.281-6.328V309h-1.274v-1.12c-.271.383-.63.681-1.078.896-.439.205-.92.308-1.442.308-.99 0-1.769-.271-2.338-.812-.57-.551-.854-1.358-.854-2.422v-4.27h1.344v4.116c0 .719.172 1.265.518 1.638.345.364.84.546 1.484.546.709 0 1.269-.215 1.68-.644.41-.429.616-1.036.616-1.82v-3.836h1.344zm5.792 7.504c-.756 0-1.432-.163-2.03-.49a3.624 3.624 0 01-1.386-1.344c-.336-.579-.504-1.232-.504-1.96s.168-1.377.504-1.946a3.486 3.486 0 011.386-1.344c.598-.327 1.274-.49 2.03-.49.672 0 1.27.135 1.792.406.532.271.943.663 1.232 1.176l-1.022.658a2.27 2.27 0 00-.868-.798 2.479 2.479 0 00-1.148-.266c-.485 0-.924.107-1.316.322a2.352 2.352 0 00-.91.924c-.214.392-.322.845-.322 1.358 0 .523.108.985.322 1.386.224.392.528.695.91.91.392.215.831.322 1.316.322.42 0 .803-.089 1.148-.266a2.27 2.27 0 00.868-.798l1.022.644c-.289.513-.7.91-1.232 1.19-.522.271-1.12.406-1.792.406zm7.466-7.574c1.027 0 1.811.252 2.352.756.551.504.826 1.255.826 2.254V309h-1.274v-.98a2.166 2.166 0 01-.966.798c-.41.177-.9.266-1.47.266-.83 0-1.498-.201-2.002-.602-.494-.401-.742-.929-.742-1.582s.238-1.176.714-1.568c.476-.401 1.232-.602 2.268-.602h2.128v-.266c0-.579-.168-1.022-.504-1.33-.336-.308-.83-.462-1.484-.462a3.83 3.83 0 00-1.288.224 3.22 3.22 0 00-1.064.574l-.56-1.008c.383-.308.84-.541 1.372-.7a5.595 5.595 0 011.694-.252zm-.308 6.538c.514 0 .957-.112 1.33-.336.374-.233.644-.56.812-.98v-1.036h-2.072c-1.138 0-1.708.383-1.708 1.148 0 .373.145.667.434.882.29.215.691.322 1.204.322zm10.145.518a2.077 2.077 0 01-.728.392 3.196 3.196 0 01-.896.126c-.746 0-1.325-.201-1.736-.602-.41-.401-.616-.975-.616-1.722v-4.074h-1.26v-1.106h1.26v-1.624h1.344v1.624h2.128v1.106h-2.128v4.018c0 .401.098.709.294.924.206.215.495.322.868.322.411 0 .761-.117 1.05-.35l.42.966zm1.625-6.986h1.344V309h-1.344v-7.42zm.672-1.428a.922.922 0 01-.658-.252.837.837 0 01-.252-.616c0-.243.084-.448.252-.616a.897.897 0 01.658-.266c.262 0 .476.084.644.252a.77.77 0 01.266.602.874.874 0 01-.266.644.871.871 0 01-.644.252zm6.417 8.932c-.738 0-1.4-.163-1.988-.49a3.624 3.624 0 01-1.386-1.344c-.327-.579-.49-1.232-.49-1.96s.163-1.377.49-1.946a3.486 3.486 0 011.386-1.344c.588-.327 1.25-.49 1.988-.49.737 0 1.395.163 1.974.49a3.394 3.394 0 011.372 1.344c.336.569.504 1.218.504 1.946s-.168 1.381-.504 1.96a3.525 3.525 0 01-1.372 1.344c-.579.327-1.237.49-1.974.49zm0-1.176c.476 0 .9-.107 1.274-.322.382-.224.681-.532.896-.924.214-.401.322-.859.322-1.372 0-.513-.108-.966-.322-1.358a2.26 2.26 0 00-.896-.924 2.508 2.508 0 00-1.274-.322c-.476 0-.906.107-1.288.322a2.372 2.372 0 00-.896.924c-.215.392-.322.845-.322 1.358 0 .513.107.971.322 1.372.224.392.522.7.896.924.382.215.812.322 1.288.322zm9.67-6.398c.943 0 1.69.275 2.24.826.56.541.84 1.339.84 2.394V309h-1.344v-4.116c0-.719-.172-1.26-.518-1.624-.345-.364-.84-.546-1.484-.546-.728 0-1.302.215-1.722.644-.42.42-.63 1.027-.63 1.82V309h-1.344v-7.42h1.288v1.12a2.62 2.62 0 011.092-.882 3.896 3.896 0 011.582-.308z" fill="#333"/><path d="M240 256c0 17.673-14.327 32-32 32-17.673 0-32-14.327-32-32 0-17.673 14.327-32 32-32 17.673 0 32 14.327 32 32z" fill="#E08AF5"/><path d="M219.453 269.781l-13.078-2.461v5.625h13.078v-3.164z" fill="#EDEBEA"/><path d="M195.336 267.32h12.445v5.625h-12.445v-5.625z" fill="#fff"/><path d="M221.562 271.891h-13.781l-1.406 1.054 1.406 1.055h13.781v-2.109z" fill="#337AAD"/><path d="M206.375 264.156h13.078v5.625h-13.078v-5.625z" fill="#D6D3D1"/><path d="M195.336 264.156h12.445v5.625h-12.445v-5.625z" fill="#EDEBEA"/><path d="M196.109 271.891v-7.383L194 267.672V274h13.781v-2.109h-11.672zM221.563 238h-13.782l-2.812 14.836 2.812 14.836h13.782V238z" fill="#54A0C8"/><path d="M194 238h13.781v29.672H194V238z" fill="#76C5E4"/><path d="M217.344 242.219h-9.563l-2.812 10.617 2.812 10.617h9.563v-21.234z" fill="#fff"/><path d="M198.219 242.219h9.562v21.234h-9.562v-21.234z" fill="#fff"/><path d="M210.945 238v20.672l-3.164-3.164-2.109-8.754 2.109-8.754h3.164z" fill="#FF5552"/><path d="M207.781 238v17.508l-3.164 3.164V238h3.164z" fill="#FF7A78"/><path d="M78.72 309l-.014-7.14-3.542 5.95h-.644l-3.542-5.908V309h-1.344v-9.8h1.148l4.088 6.888 4.032-6.888h1.148l.014 9.8H78.72zm10.795-3.668c0 .103-.01.238-.028.406h-6.02c.084.653.369 1.181.854 1.582.495.392 1.106.588 1.834.588.887 0 1.6-.299 2.142-.896l.742.868a3.237 3.237 0 01-1.26.896 4.315 4.315 0 01-1.666.308c-.784 0-1.48-.159-2.086-.476a3.539 3.539 0 01-1.414-1.358c-.326-.579-.49-1.232-.49-1.96 0-.719.159-1.367.476-1.946A3.469 3.469 0 0183.93 302a3.784 3.784 0 011.918-.49c.71 0 1.34.163 1.89.49.56.317.994.765 1.302 1.344.317.579.476 1.241.476 1.988zm-3.668-2.688c-.644 0-1.185.196-1.624.588-.43.392-.681.905-.756 1.54h4.76c-.075-.625-.331-1.134-.77-1.526-.43-.401-.966-.602-1.61-.602zm12.534-4.032V309h-1.288v-1.176a2.91 2.91 0 01-1.134.938 3.509 3.509 0 01-1.512.322c-.718 0-1.362-.159-1.932-.476a3.473 3.473 0 01-1.344-1.33c-.317-.579-.476-1.241-.476-1.988 0-.747.16-1.405.476-1.974a3.473 3.473 0 011.344-1.33c.57-.317 1.214-.476 1.932-.476a3.49 3.49 0 011.47.308c.448.196.822.49 1.12.882v-4.088h1.344zm-3.822 9.296c.467 0 .892-.107 1.274-.322.383-.224.682-.532.896-.924a2.86 2.86 0 00.322-1.372c0-.513-.107-.966-.322-1.358a2.254 2.254 0 00-.896-.924 2.555 2.555 0 00-1.274-.322c-.476 0-.905.107-1.288.322a2.377 2.377 0 00-.896.924c-.214.392-.322.845-.322 1.358 0 .513.108.971.322 1.372.224.392.523.7.896.924.383.215.812.322 1.288.322zm6.365-6.328h1.344V309h-1.344v-7.42zm.672-1.428a.922.922 0 01-.658-.252.837.837 0 01-.252-.616c0-.243.084-.448.252-.616a.897.897 0 01.658-.266c.262 0 .476.084.644.252a.77.77 0 01.266.602.874.874 0 01-.266.644.871.871 0 01-.644.252zm6.473 8.932c-.756 0-1.433-.163-2.03-.49a3.624 3.624 0 01-1.386-1.344c-.336-.579-.504-1.232-.504-1.96s.168-1.377.504-1.946a3.486 3.486 0 011.386-1.344c.597-.327 1.274-.49 2.03-.49.672 0 1.269.135 1.792.406a2.89 2.89 0 011.232 1.176l-1.022.658a2.285 2.285 0 00-.868-.798 2.482 2.482 0 00-1.148-.266c-.486 0-.924.107-1.316.322a2.345 2.345 0 00-.91.924c-.215.392-.322.845-.322 1.358 0 .523.107.985.322 1.386.224.392.527.695.91.91.392.215.83.322 1.316.322.42 0 .802-.089 1.148-.266.345-.177.634-.443.868-.798l1.022.644c-.29.513-.7.91-1.232 1.19-.523.271-1.12.406-1.792.406zm7.466-7.574c1.026 0 1.81.252 2.352.756.55.504.826 1.255.826 2.254V309h-1.274v-.98a2.166 2.166 0 01-.966.798c-.411.177-.901.266-1.47.266-.831 0-1.498-.201-2.002-.602-.495-.401-.742-.929-.742-1.582s.238-1.176.714-1.568c.476-.401 1.232-.602 2.268-.602h2.128v-.266c0-.579-.168-1.022-.504-1.33-.336-.308-.831-.462-1.484-.462-.439 0-.868.075-1.288.224a3.21 3.21 0 00-1.064.574l-.56-1.008a3.97 3.97 0 011.372-.7 5.59 5.59 0 011.694-.252zm-.308 6.538c.513 0 .956-.112 1.33-.336a2 2 0 00.812-.98v-1.036h-2.072c-1.139 0-1.708.383-1.708 1.148 0 .373.144.667.434.882.289.215.69.322 1.204.322zm5.973-9.436h1.344V309H121.2v-10.388z" fill="#333"/><path d="M96 287.999c17.672 0 31.999-14.327 31.999-31.999 0-17.673-14.327-32-32-32C78.328 224 64 238.327 64 256c0 17.672 14.327 31.999 32 31.999z" fill="#E08AF5"/><path d="M110.088 246.249h-3.193a.972.972 0 01-.969-.969v-1.318c0-.533.436-.969.969-.969h3.193c.533 0 .969.436.969.969v1.318a.972.972 0 01-.969.969zm-24.056 0H82.84a.972.972 0 01-.969-.969v-1.318c0-.533.436-.969.97-.969h3.192c.533 0 .97.436.97.969v1.318a.972.972 0 01-.97.969zM100.62 238h-8.31a3.15 3.15 0 00-3.146 3.146v4.199h2.592v-4.199c0-.306.248-.554.554-.554h8.311c.305 0 .553.248.553.554v4.199h2.592v-4.199A3.15 3.15 0 00100.62 238z" fill="#fff"/><path d="M100.62 240.592c.305 0 .554.248.554.554v4.199h2.592v-4.199A3.15 3.15 0 00100.62 238h-4.155v2.592h4.155z" fill="#fff"/><path d="M111.722 274H81.205A4.217 4.217 0 0177 269.795v-20.969a4.217 4.217 0 014.205-4.205h30.517a4.217 4.217 0 014.205 4.205v20.969a4.217 4.217 0 01-4.205 4.205z" fill="#F33030"/><path d="M111.723 244.621H96.465V274h15.258a4.217 4.217 0 004.205-4.205v-20.969a4.217 4.217 0 00-4.205-4.205z" fill="#FE4848"/><path d="M104.929 256.739h-5.895v-5.895H93.89v5.895h-5.895v5.142h5.895v5.895h5.143v-5.895h5.895v-5.142z" fill="#fff"/><path d="M99.036 256.739v-5.895h-2.571v16.932h2.571v-5.895h5.895v-5.142h-5.895z" fill="#fff"/><path d="M784 184c0-8.837 7.163-16 16-16h264c8.84 0 16 7.163 16 16s-7.16 16-16 16H800c-8.837 0-16-7.163-16-16z" fill="#9F8AF5"/><path d="M816.26 183.904c.541.177.971.476 1.288.896.317.411.476.924.476 1.54 0 .849-.327 1.507-.98 1.974-.653.457-1.605.686-2.856.686h-4.872v-9.8h4.592c1.157 0 2.049.229 2.674.686.625.448.938 1.069.938 1.862 0 .485-.112.915-.336 1.288a2.3 2.3 0 01-.924.868zm-5.124-3.276v2.702h2.576c.635 0 1.12-.112 1.456-.336.345-.233.518-.569.518-1.008 0-.448-.173-.784-.518-1.008-.336-.233-.821-.35-1.456-.35h-2.576zm2.94 6.944c1.409 0 2.114-.471 2.114-1.414s-.705-1.414-2.114-1.414h-2.94v2.828h2.94zm12.96-6.048V189h-1.666v-.952c-.28.336-.63.597-1.05.784-.42.177-.872.266-1.358.266-.998 0-1.787-.275-2.366-.826-.569-.56-.854-1.386-.854-2.478v-4.27h1.75v4.032c0 .672.15 1.176.448 1.512.308.327.742.49 1.302.49.626 0 1.12-.191 1.484-.574.374-.392.56-.952.56-1.68v-3.78h1.75zm2.292 0h1.75V189h-1.75v-7.476zm.882-1.232c-.318 0-.584-.098-.798-.294a1.003 1.003 0 01-.322-.756.96.96 0 01.322-.742c.214-.205.48-.308.798-.308.317 0 .583.098.798.294a.907.907 0 01.322.714c0 .308-.108.569-.322.784-.206.205-.472.308-.798.308zm5.475 8.806c-.607 0-1.2-.079-1.778-.238-.579-.159-1.041-.359-1.386-.602l.672-1.33c.336.224.737.406 1.204.546.476.131.942.196 1.4.196 1.045 0 1.568-.275 1.568-.826 0-.261-.136-.443-.406-.546-.262-.103-.686-.201-1.274-.294a10.658 10.658 0 01-1.512-.322 2.383 2.383 0 01-1.008-.63c-.28-.308-.42-.733-.42-1.274 0-.709.294-1.274.882-1.694.597-.429 1.4-.644 2.408-.644a6.7 6.7 0 011.54.182c.513.112.933.266 1.26.462l-.672 1.33c-.635-.373-1.349-.56-2.142-.56-.514 0-.906.079-1.176.238-.262.149-.392.35-.392.602 0 .28.14.481.42.602.289.112.732.219 1.33.322.597.093 1.087.201 1.47.322.382.121.709.327.98.616.28.289.42.7.42 1.232 0 .7-.304 1.26-.91 1.68-.607.42-1.433.63-2.478.63zm9.137-7.658c.942 0 1.698.275 2.268.826.569.551.854 1.367.854 2.45V189h-1.75v-4.06c0-.653-.154-1.143-.462-1.47-.308-.336-.747-.504-1.316-.504-.644 0-1.153.196-1.526.588-.374.383-.56.938-.56 1.666V189h-1.75v-7.476h1.666v.966a2.731 2.731 0 011.092-.784 3.933 3.933 0 011.484-.266zm12.438 3.864c0 .121-.009.294-.028.518h-5.866c.103.551.369.989.798 1.316.439.317.98.476 1.624.476.821 0 1.498-.271 2.03-.812l.938 1.078a3.163 3.163 0 01-1.274.91c-.513.205-1.092.308-1.736.308-.821 0-1.545-.163-2.17-.49a3.591 3.591 0 01-1.456-1.358c-.336-.588-.504-1.251-.504-1.988 0-.728.163-1.381.49-1.96a3.563 3.563 0 011.386-1.372c.588-.327 1.251-.49 1.988-.49.728 0 1.377.163 1.946.49a3.3 3.3 0 011.344 1.358c.327.579.49 1.251.49 2.016zm-3.78-2.464c-.56 0-1.036.168-1.428.504-.383.327-.616.765-.7 1.316h4.242c-.075-.541-.303-.98-.686-1.316-.383-.336-.859-.504-1.428-.504zm7.771 6.258a6.68 6.68 0 01-1.778-.238c-.579-.159-1.041-.359-1.386-.602l.672-1.33c.336.224.737.406 1.204.546.476.131.943.196 1.4.196 1.045 0 1.568-.275 1.568-.826 0-.261-.135-.443-.406-.546-.261-.103-.686-.201-1.274-.294a10.658 10.658 0 01-1.512-.322 2.383 2.383 0 01-1.008-.63c-.28-.308-.42-.733-.42-1.274 0-.709.294-1.274.882-1.694.597-.429 1.4-.644 2.408-.644.513 0 1.027.061 1.54.182.513.112.933.266 1.26.462l-.672 1.33c-.635-.373-1.349-.56-2.142-.56-.513 0-.905.079-1.176.238-.261.149-.392.35-.392.602 0 .28.14.481.42.602.289.112.733.219 1.33.322.597.093 1.087.201 1.47.322s.709.327.98.616c.28.289.42.7.42 1.232 0 .7-.303 1.26-.91 1.68-.607.42-1.433.63-2.478.63zm7.205 0a6.68 6.68 0 01-1.778-.238c-.579-.159-1.041-.359-1.386-.602l.672-1.33c.336.224.737.406 1.204.546.476.131.943.196 1.4.196 1.045 0 1.568-.275 1.568-.826 0-.261-.135-.443-.406-.546-.261-.103-.686-.201-1.274-.294a10.658 10.658 0 01-1.512-.322 2.383 2.383 0 01-1.008-.63c-.28-.308-.42-.733-.42-1.274 0-.709.294-1.274.882-1.694.597-.429 1.4-.644 2.408-.644.513 0 1.027.061 1.54.182.513.112.933.266 1.26.462l-.672 1.33c-.635-.373-1.349-.56-2.142-.56-.513 0-.905.079-1.176.238-.261.149-.392.35-.392.602 0 .28.14.481.42.602.289.112.733.219 1.33.322.597.093 1.087.201 1.47.322s.709.327.98.616c.28.289.42.7.42 1.232 0 .7-.303 1.26-.91 1.68-.607.42-1.433.63-2.478.63zm15.288-2.366h-4.9l-.966 2.268h-1.876l4.41-9.8h1.792l4.424 9.8h-1.904l-.98-2.268zm-.602-1.428l-1.848-4.284-1.834 4.284h3.682zm11.818-6.692V189h-1.68v-.966a2.685 2.685 0 01-1.078.798c-.42.177-.886.266-1.4.266a3.986 3.986 0 01-1.946-.476 3.446 3.446 0 01-1.344-1.344c-.326-.588-.49-1.26-.49-2.016s.164-1.423.49-2.002a3.446 3.446 0 011.344-1.344 3.986 3.986 0 011.946-.476c.495 0 .948.084 1.358.252.411.168.761.42 1.05.756v-3.836h1.75zm-3.948 8.988c.42 0 .798-.093 1.134-.28.336-.196.602-.471.798-.826.196-.355.294-.765.294-1.232 0-.467-.098-.877-.294-1.232a2.026 2.026 0 00-.798-.812 2.209 2.209 0 00-1.134-.294c-.42 0-.798.098-1.134.294a2.026 2.026 0 00-.798.812c-.196.355-.294.765-.294 1.232 0 .467.098.877.294 1.232.196.355.462.63.798.826.336.187.714.28 1.134.28zm15.674-6.16c.942 0 1.689.275 2.24.826.55.541.826 1.358.826 2.45V189h-1.75v-4.06c0-.653-.145-1.143-.434-1.47-.29-.336-.705-.504-1.246-.504-.588 0-1.06.196-1.414.588-.355.383-.532.933-.532 1.652V189h-1.75v-4.06c0-.653-.145-1.143-.434-1.47-.29-.336-.705-.504-1.246-.504-.598 0-1.074.191-1.428.574-.346.383-.518.938-.518 1.666V189h-1.75v-7.476h1.666v.952c.28-.336.63-.593 1.05-.77.42-.177.886-.266 1.4-.266.56 0 1.054.107 1.484.322.438.205.784.513 1.036.924a3.053 3.053 0 011.19-.91 3.795 3.795 0 011.61-.336zm5.302.084h1.75V189h-1.75v-7.476zm.882-1.232a1.14 1.14 0 01-.798-.294 1.003 1.003 0 01-.322-.756.96.96 0 01.322-.742c.215-.205.481-.308.798-.308.317 0 .583.098.798.294a.904.904 0 01.322.714c0 .308-.107.569-.322.784-.205.205-.471.308-.798.308zm7.407 1.148c.942 0 1.698.275 2.268.826.569.551.854 1.367.854 2.45V189h-1.75v-4.06c0-.653-.154-1.143-.462-1.47-.308-.336-.747-.504-1.316-.504-.644 0-1.153.196-1.526.588-.374.383-.56.938-.56 1.666V189h-1.75v-7.476h1.666v.966a2.731 2.731 0 011.092-.784 3.933 3.933 0 011.484-.266zm5.342.084h1.75V189h-1.75v-7.476zm.882-1.232c-.318 0-.584-.098-.798-.294a1.003 1.003 0 01-.322-.756.96.96 0 01.322-.742c.214-.205.48-.308.798-.308.317 0 .583.098.798.294a.907.907 0 01.322.714c0 .308-.108.569-.322.784-.206.205-.472.308-.798.308zm5.475 8.806c-.607 0-1.2-.079-1.778-.238-.579-.159-1.041-.359-1.386-.602l.672-1.33c.336.224.737.406 1.204.546.476.131.942.196 1.4.196 1.045 0 1.568-.275 1.568-.826 0-.261-.136-.443-.406-.546-.262-.103-.686-.201-1.274-.294a10.658 10.658 0 01-1.512-.322 2.383 2.383 0 01-1.008-.63c-.28-.308-.42-.733-.42-1.274 0-.709.294-1.274.882-1.694.597-.429 1.4-.644 2.408-.644a6.7 6.7 0 011.54.182c.513.112.933.266 1.26.462l-.672 1.33c-.635-.373-1.349-.56-2.142-.56-.514 0-.906.079-1.176.238-.262.149-.392.35-.392.602 0 .28.14.481.42.602.289.112.732.219 1.33.322.597.093 1.087.201 1.47.322.382.121.709.327.98.616.28.289.42.7.42 1.232 0 .7-.304 1.26-.91 1.68-.607.42-1.433.63-2.478.63zm9.389-.504a2.067 2.067 0 01-.756.378c-.29.084-.598.126-.924.126-.822 0-1.456-.215-1.904-.644-.448-.429-.672-1.055-.672-1.876v-3.598h-1.232v-1.4h1.232v-1.708h1.75v1.708h2.002v1.4h-2.002v3.556c0 .364.088.644.266.84.177.187.434.28.77.28.392 0 .718-.103.98-.308l.49 1.246zm3.105-5.978c.504-.784 1.391-1.176 2.66-1.176v1.666a2.213 2.213 0 00-.406-.042c-.681 0-1.213.201-1.596.602-.382.392-.574.961-.574 1.708V189h-1.75v-7.476h1.666v1.092zm6.96-1.176c1.101 0 1.941.266 2.52.798.588.523.882 1.316.882 2.38V189h-1.652v-.91a2.073 2.073 0 01-.924.756c-.392.168-.868.252-1.428.252-.56 0-1.05-.093-1.47-.28a2.39 2.39 0 01-.98-.798 2.09 2.09 0 01-.336-1.162c0-.672.247-1.209.742-1.61.504-.411 1.292-.616 2.366-.616h1.932v-.112c0-.523-.159-.924-.476-1.204-.308-.28-.77-.42-1.386-.42-.42 0-.836.065-1.246.196a3.058 3.058 0 00-1.022.546l-.686-1.274a4.245 4.245 0 011.414-.686 6.276 6.276 0 011.75-.238zm-.238 6.384c.438 0 .826-.098 1.162-.294.345-.205.588-.495.728-.868v-.868h-1.806c-1.008 0-1.512.331-1.512.994 0 .317.126.569.378.756.252.187.602.28 1.05.28zm10.38.77a2.067 2.067 0 01-.756.378c-.29.084-.598.126-.924.126-.822 0-1.456-.215-1.904-.644-.448-.429-.672-1.055-.672-1.876v-3.598h-1.232v-1.4h1.232v-1.708h1.75v1.708h2.002v1.4h-2.002v3.556c0 .364.088.644.266.84.177.187.434.28.77.28.392 0 .718-.103.98-.308l.49 1.246zm1.439-7.07h1.75V189h-1.75v-7.476zm.882-1.232a1.14 1.14 0 01-.798-.294 1.007 1.007 0 01-.322-.756c0-.299.108-.546.322-.742.215-.205.481-.308.798-.308.318 0 .584.098.798.294a.904.904 0 01.322.714c0 .308-.107.569-.322.784-.205.205-.471.308-.798.308zm6.525 8.806c-.756 0-1.437-.163-2.044-.49a3.632 3.632 0 01-1.428-1.358c-.336-.588-.504-1.251-.504-1.988 0-.737.168-1.395.504-1.974a3.632 3.632 0 011.428-1.358c.607-.327 1.288-.49 2.044-.49.765 0 1.451.163 2.058.49a3.537 3.537 0 011.414 1.358c.345.579.518 1.237.518 1.974 0 .737-.173 1.4-.518 1.988a3.537 3.537 0 01-1.414 1.358c-.607.327-1.293.49-2.058.49zm0-1.498c.644 0 1.176-.215 1.596-.644.42-.429.63-.994.63-1.694s-.21-1.265-.63-1.694c-.42-.429-.952-.644-1.596-.644-.644 0-1.176.215-1.596.644-.411.429-.616.994-.616 1.694s.205 1.265.616 1.694c.42.429.952.644 1.596.644zm9.906-6.16c.942 0 1.698.275 2.268.826.569.551.854 1.367.854 2.45V189h-1.75v-4.06c0-.653-.154-1.143-.462-1.47-.308-.336-.747-.504-1.316-.504-.644 0-1.153.196-1.526.588-.374.383-.56.938-.56 1.666V189h-1.75v-7.476h1.666v.966a2.731 2.731 0 011.092-.784 3.933 3.933 0 011.484-.266zm10.947 10.276c-.551-.849-.976-1.834-1.274-2.954a14.311 14.311 0 01-.434-3.598c0-1.279.144-2.478.434-3.598.298-1.129.723-2.114 1.274-2.954h1.666a12.544 12.544 0 00-1.26 3.122 14.314 14.314 0 00-.392 3.43c0 1.223.13 2.371.392 3.444.27 1.064.69 2.1 1.26 3.108h-1.666zm9.679-4.256V189h-7.22v-1.218l3.892-3.696c.439-.42.733-.784.882-1.092a2.08 2.08 0 00.238-.938c0-.457-.154-.807-.462-1.05-.308-.243-.76-.364-1.358-.364-.998 0-1.764.341-2.296 1.022l-1.274-.98c.383-.513.896-.91 1.54-1.19.654-.289 1.382-.434 2.184-.434 1.064 0 1.914.252 2.548.756.636.504.956 1.19.956 2.058 0 .532-.12 1.031-.34 1.498-.22.467-.653.999-1.288 1.596l-2.618 2.492h4.616zm5.1 1.68c-.78 0-1.48-.196-2.1-.588-.61-.401-1.1-.98-1.45-1.736-.36-.765-.54-1.671-.54-2.716 0-1.045.18-1.946.54-2.702.35-.765.84-1.344 1.45-1.736a3.783 3.783 0 012.1-.602c.79 0 1.49.201 2.1.602.63.392 1.12.971 1.47 1.736.36.756.53 1.657.53 2.702s-.17 1.951-.53 2.716c-.35.756-.84 1.335-1.47 1.736-.61.392-1.31.588-2.1.588zm0-1.582c.7 0 1.25-.289 1.65-.868.41-.579.62-1.442.62-2.59s-.21-2.011-.62-2.59c-.4-.579-.95-.868-1.65-.868-.69 0-1.24.289-1.65.868-.4.579-.6 1.442-.6 2.59s.2 2.011.6 2.59c.41.579.96.868 1.65.868zm7.52-3.08c-.7 0-1.27-.247-1.7-.742-.43-.495-.64-1.143-.64-1.946 0-.803.21-1.451.64-1.946.43-.495 1-.742 1.7-.742s1.26.247 1.69.742c.44.485.66 1.134.66 1.946s-.22 1.465-.66 1.96c-.43.485-.99.728-1.69.728zm5.88-5.278h1.37l-6.69 9.8h-1.37l6.69-9.8zm-5.88 4.298c.38 0 .67-.149.88-.448.21-.299.32-.719.32-1.26s-.11-.961-.32-1.26c-.21-.299-.5-.448-.88-.448-.37 0-.66.154-.88.462-.22.299-.33.714-.33 1.246s.11.952.33 1.26c.22.299.51.448.88.448zm6.42 5.6c-.7 0-1.26-.247-1.69-.742-.43-.495-.64-1.143-.64-1.946 0-.803.21-1.451.64-1.946.43-.495.99-.742 1.69-.742s1.27.247 1.7.742c.44.495.66 1.143.66 1.946 0 .803-.22 1.451-.66 1.946-.43.495-1 .742-1.7.742zm0-.98c.38 0 .67-.149.89-.448.21-.308.32-.728.32-1.26s-.11-.947-.32-1.246a1.03 1.03 0 00-.89-.462c-.37 0-.66.149-.88.448-.21.299-.32.719-.32 1.26s.11.961.32 1.26c.22.299.51.448.88.448zm2.86 3.598c.57-1.008.99-2.049 1.26-3.122s.4-2.217.4-3.43-.13-2.357-.4-3.43a12.544 12.544 0 00-1.26-3.122h1.66c.55.831.97 1.811 1.26 2.94.3 1.12.45 2.324.45 3.612 0 1.288-.15 2.492-.45 3.612-.29 1.111-.71 2.091-1.26 2.94h-1.66z" fill="#fff"/><path d="M722 128c0-8.837 7.163-16 16-16h326c8.84 0 16 7.163 16 16s-7.16 16-16 16H738c-8.837 0-16-7.163-16-16z" fill="#8085F4"/><path d="M754.666 131.474V133h-7.35v-9.8h7.154v1.526h-5.334v2.548h4.732v1.498h-4.732v2.702h5.53zm6.103-6.034c.943 0 1.699.275 2.268.826.569.551.854 1.367.854 2.45V133h-1.75v-4.06c0-.653-.154-1.143-.462-1.47-.308-.336-.747-.504-1.316-.504-.644 0-1.153.196-1.526.588-.373.383-.56.938-.56 1.666V133h-1.75v-7.476h1.666v.966a2.731 2.731 0 011.092-.784 3.936 3.936 0 011.484-.266zm12.83.084v6.342c0 2.632-1.344 3.948-4.032 3.948-.718 0-1.4-.093-2.044-.28-.644-.177-1.176-.439-1.596-.784l.784-1.316c.327.271.738.485 1.232.644a4.8 4.8 0 001.526.252c.822 0 1.424-.187 1.806-.56.383-.373.574-.943.574-1.708v-.392a2.863 2.863 0 01-1.092.742c-.429.168-.9.252-1.414.252a4.147 4.147 0 01-1.932-.448 3.532 3.532 0 01-1.358-1.288c-.326-.551-.49-1.181-.49-1.89 0-.709.164-1.335.49-1.876a3.432 3.432 0 011.358-1.274 4.147 4.147 0 011.932-.448c.542 0 1.032.089 1.47.266.448.177.822.448 1.12.812v-.994h1.666zm-3.99 5.656c.663 0 1.204-.196 1.624-.588.43-.401.644-.919.644-1.554 0-.625-.214-1.134-.644-1.526-.42-.392-.961-.588-1.624-.588-.672 0-1.222.196-1.652.588-.42.392-.63.901-.63 1.526 0 .635.21 1.153.63 1.554.43.392.98.588 1.652.588zm6.291-5.656h1.75V133h-1.75v-7.476zm.882-1.232a1.14 1.14 0 01-.798-.294 1.003 1.003 0 01-.322-.756.96.96 0 01.322-.742c.215-.205.481-.308.798-.308.317 0 .583.098.798.294a.904.904 0 01.322.714c0 .308-.107.569-.322.784-.205.205-.471.308-.798.308zm7.407 1.148c.942 0 1.698.275 2.268.826.569.551.854 1.367.854 2.45V133h-1.75v-4.06c0-.653-.154-1.143-.462-1.47-.308-.336-.747-.504-1.316-.504-.644 0-1.153.196-1.526.588-.374.383-.56.938-.56 1.666V133h-1.75v-7.476h1.666v.966a2.731 2.731 0 011.092-.784 3.933 3.933 0 011.484-.266zm12.438 3.864c0 .121-.009.294-.028.518h-5.866c.103.551.369.989.798 1.316.439.317.98.476 1.624.476.822 0 1.498-.271 2.03-.812l.938 1.078c-.336.401-.76.705-1.274.91-.513.205-1.092.308-1.736.308-.821 0-1.544-.163-2.17-.49a3.597 3.597 0 01-1.456-1.358c-.336-.588-.504-1.251-.504-1.988 0-.728.164-1.381.49-1.96a3.563 3.563 0 011.386-1.372c.588-.327 1.251-.49 1.988-.49.728 0 1.377.163 1.946.49a3.3 3.3 0 011.344 1.358c.327.579.49 1.251.49 2.016zm-3.78-2.464c-.56 0-1.036.168-1.428.504-.382.327-.616.765-.7 1.316h4.242c-.074-.541-.303-.98-.686-1.316-.382-.336-.858-.504-1.428-.504zm12.489 2.464c0 .121-.009.294-.028.518h-5.866c.103.551.369.989.798 1.316.439.317.98.476 1.624.476.821 0 1.498-.271 2.03-.812l.938 1.078a3.163 3.163 0 01-1.274.91c-.513.205-1.092.308-1.736.308-.821 0-1.545-.163-2.17-.49a3.591 3.591 0 01-1.456-1.358c-.336-.588-.504-1.251-.504-1.988 0-.728.163-1.381.49-1.96a3.563 3.563 0 011.386-1.372c.588-.327 1.251-.49 1.988-.49.728 0 1.377.163 1.946.49a3.3 3.3 0 011.344 1.358c.327.579.49 1.251.49 2.016zm-3.78-2.464c-.56 0-1.036.168-1.428.504-.383.327-.616.765-.7 1.316h4.242c-.075-.541-.303-.98-.686-1.316-.383-.336-.859-.504-1.428-.504zm7.127-.224c.504-.784 1.391-1.176 2.66-1.176v1.666a2.222 2.222 0 00-.406-.042c-.681 0-1.213.201-1.596.602-.383.392-.574.961-.574 1.708V133h-1.75v-7.476h1.666v1.092zm4.145-1.092h1.75V133h-1.75v-7.476zm.882-1.232c-.318 0-.584-.098-.798-.294a1.003 1.003 0 01-.322-.756.96.96 0 01.322-.742c.214-.205.48-.308.798-.308.317 0 .583.098.798.294a.907.907 0 01.322.714c0 .308-.108.569-.322.784-.206.205-.472.308-.798.308zm7.407 1.148c.942 0 1.698.275 2.268.826.569.551.854 1.367.854 2.45V133h-1.75v-4.06c0-.653-.154-1.143-.462-1.47-.308-.336-.747-.504-1.316-.504-.644 0-1.153.196-1.526.588-.374.383-.56.938-.56 1.666V133h-1.75v-7.476h1.666v.966a2.731 2.731 0 011.092-.784 3.933 3.933 0 011.484-.266zm12.83.084v6.342c0 2.632-1.344 3.948-4.032 3.948-.719 0-1.4-.093-2.044-.28-.644-.177-1.176-.439-1.596-.784l.784-1.316c.327.271.737.485 1.232.644a4.8 4.8 0 001.526.252c.821 0 1.423-.187 1.806-.56.383-.373.574-.943.574-1.708v-.392a2.878 2.878 0 01-1.092.742 3.848 3.848 0 01-1.414.252 4.147 4.147 0 01-1.932-.448 3.532 3.532 0 01-1.358-1.288c-.327-.551-.49-1.181-.49-1.89 0-.709.163-1.335.49-1.876a3.432 3.432 0 011.358-1.274 4.147 4.147 0 011.932-.448 3.9 3.9 0 011.47.266c.448.177.821.448 1.12.812v-.994h1.666zm-3.99 5.656c.663 0 1.204-.196 1.624-.588.429-.401.644-.919.644-1.554 0-.625-.215-1.134-.644-1.526-.42-.392-.961-.588-1.624-.588-.672 0-1.223.196-1.652.588-.42.392-.63.901-.63 1.526 0 .635.21 1.153.63 1.554.429.392.98.588 1.652.588zm11.896 4.536c-.551-.849-.976-1.834-1.274-2.954a14.311 14.311 0 01-.434-3.598c0-1.279.144-2.478.434-3.598.298-1.129.723-2.114 1.274-2.954h1.666a12.544 12.544 0 00-1.26 3.122 14.314 14.314 0 00-.392 3.43c0 1.223.13 2.371.392 3.444.27 1.064.69 2.1 1.26 3.108h-1.666zm6.757-8.47c.906.112 1.596.42 2.072.924s.714 1.134.714 1.89c0 .569-.144 1.087-.434 1.554-.289.467-.728.84-1.316 1.12-.578.271-1.288.406-2.128.406a7.03 7.03 0 01-2.03-.294c-.644-.205-1.194-.485-1.652-.84l.784-1.414c.355.299.784.537 1.288.714a5.06 5.06 0 001.582.252c.644 0 1.148-.131 1.512-.392a1.28 1.28 0 00.56-1.092c0-.457-.177-.812-.532-1.064-.345-.261-.877-.392-1.596-.392h-.896v-1.246l2.226-2.646h-4.452V123.2h6.678v1.218l-2.38 2.828zm6.906-.252c1.381 0 2.403.271 3.066.812.663.532.994 1.26.994 2.184 0 .588-.145 1.12-.434 1.596-.289.476-.723.854-1.302 1.134-.579.28-1.293.42-2.142.42-.7 0-1.377-.098-2.03-.294-.653-.205-1.204-.485-1.652-.84l.77-1.414c.364.299.798.537 1.302.714a5.055 5.055 0 001.582.252c.644 0 1.148-.131 1.512-.392.373-.271.56-.639.56-1.106 0-.504-.201-.882-.602-1.134-.392-.261-1.069-.392-2.03-.392h-2.366l.504-5.334h5.754v1.526h-4.214l-.21 2.268h.938zm7.157 1.484c-.7 0-1.265-.247-1.694-.742-.429-.495-.644-1.143-.644-1.946 0-.803.215-1.451.644-1.946.429-.495.994-.742 1.694-.742s1.265.247 1.694.742c.439.485.658 1.134.658 1.946s-.219 1.465-.658 1.96c-.429.485-.994.728-1.694.728zm5.88-5.278h1.372l-6.692 9.8h-1.372l6.692-9.8zm-5.88 4.298c.383 0 .677-.149.882-.448.215-.299.322-.719.322-1.26s-.107-.961-.322-1.26c-.205-.299-.499-.448-.882-.448-.364 0-.658.154-.882.462-.215.299-.322.714-.322 1.246s.107.952.322 1.26c.224.299.518.448.882.448zm6.426 5.6c-.7 0-1.265-.247-1.694-.742-.429-.495-.644-1.143-.644-1.946 0-.803.215-1.451.644-1.946.429-.495.994-.742 1.694-.742s1.265.247 1.694.742c.439.495.658 1.143.658 1.946 0 .803-.219 1.451-.658 1.946-.429.495-.994.742-1.694.742zm0-.98c.373 0 .667-.149.882-.448.215-.308.322-.728.322-1.26s-.107-.947-.322-1.246a1.02 1.02 0 00-.882-.462c-.373 0-.667.149-.882.448-.215.299-.322.719-.322 1.26s.107.961.322 1.26c.215.299.509.448.882.448zm2.854 3.598a12.62 12.62 0 001.26-3.122 14.02 14.02 0 00.406-3.43 14.02 14.02 0 00-.406-3.43 12.62 12.62 0 00-1.26-3.122h1.666c.55.831.97 1.811 1.26 2.94.298 1.12.448 2.324.448 3.612 0 1.288-.15 2.492-.448 3.612-.29 1.111-.71 2.091-1.26 2.94h-1.666z" fill="#fff"/><path d="M408.482 187.918c.569.159 1.017.448 1.344.868.327.411.49.933.49 1.568 0 .849-.322 1.503-.966 1.96-.635.457-1.563.686-2.786.686h-4.676v-9.8h4.396c1.12 0 1.983.224 2.59.672.616.448.924 1.069.924 1.862 0 .513-.121.957-.364 1.33a2.28 2.28 0 01-.952.854zm-5.194-3.584v3.136h2.87c.719 0 1.269-.131 1.652-.392.392-.271.588-.663.588-1.176 0-.513-.196-.901-.588-1.162-.383-.271-.933-.406-1.652-.406h-2.87zm3.22 7.532c.793 0 1.391-.131 1.792-.392s.602-.672.602-1.232c0-1.092-.798-1.638-2.394-1.638h-3.22v3.262h3.22zm12.696-6.286V193h-1.274v-1.12c-.271.383-.63.681-1.078.896-.439.205-.92.308-1.442.308-.99 0-1.769-.271-2.338-.812-.57-.551-.854-1.358-.854-2.422v-4.27h1.344v4.116c0 .719.172 1.265.518 1.638.345.364.84.546 1.484.546.709 0 1.269-.215 1.68-.644.41-.429.616-1.036.616-1.82v-3.836h1.344zm4.686 7.504a6.38 6.38 0 01-1.75-.238c-.56-.168-.998-.378-1.316-.63l.56-1.064c.327.233.724.42 1.19.56.467.14.938.21 1.414.21 1.176 0 1.764-.336 1.764-1.008a.652.652 0 00-.238-.532 1.43 1.43 0 00-.602-.28 10.731 10.731 0 00-1.008-.21 10.229 10.229 0 01-1.47-.322 2.264 2.264 0 01-.966-.616c-.27-.289-.406-.695-.406-1.218 0-.672.28-1.209.84-1.61.56-.411 1.312-.616 2.254-.616.495 0 .99.061 1.484.182.495.121.901.285 1.218.49l-.574 1.064c-.606-.392-1.32-.588-2.142-.588-.569 0-1.003.093-1.302.28-.298.187-.448.434-.448.742 0 .243.084.434.252.574.168.14.374.243.616.308.252.065.602.14 1.05.224.598.103 1.078.215 1.442.336a2.1 2.1 0 01.952.588c.262.28.392.672.392 1.176 0 .672-.289 1.209-.868 1.61-.569.392-1.348.588-2.338.588zm4.886-7.504h1.344V193h-1.344v-7.42zm.672-1.428a.92.92 0 01-.658-.252.837.837 0 01-.252-.616c0-.243.084-.448.252-.616a.895.895 0 01.658-.266c.261 0 .476.084.644.252a.774.774 0 01.266.602.878.878 0 01-.266.644.873.873 0 01-.644.252zm7.2 1.358c.943 0 1.689.275 2.24.826.56.541.84 1.339.84 2.394V193h-1.344v-4.116c0-.719-.173-1.26-.518-1.624-.345-.364-.84-.546-1.484-.546-.728 0-1.302.215-1.722.644-.42.42-.63 1.027-.63 1.82V193h-1.344v-7.42h1.288v1.12a2.62 2.62 0 011.092-.882 3.896 3.896 0 011.582-.308zm12.314 3.822c0 .103-.009.238-.028.406h-6.02c.084.653.369 1.181.854 1.582.495.392 1.106.588 1.834.588.887 0 1.601-.299 2.142-.896l.742.868a3.237 3.237 0 01-1.26.896 4.312 4.312 0 01-1.666.308c-.784 0-1.479-.159-2.086-.476a3.543 3.543 0 01-1.414-1.358c-.326-.579-.49-1.232-.49-1.96 0-.719.159-1.367.476-1.946a3.471 3.471 0 011.33-1.344 3.784 3.784 0 011.918-.49c.71 0 1.34.163 1.89.49.56.317.994.765 1.302 1.344.318.579.476 1.241.476 1.988zm-3.668-2.688c-.644 0-1.185.196-1.624.588-.429.392-.681.905-.756 1.54h4.76c-.074-.625-.331-1.134-.77-1.526-.429-.401-.966-.602-1.61-.602zm7.663 6.44c-.607 0-1.19-.079-1.75-.238-.56-.168-.999-.378-1.316-.63l.56-1.064c.326.233.723.42 1.19.56.466.14.938.21 1.414.21 1.176 0 1.764-.336 1.764-1.008a.655.655 0 00-.238-.532 1.442 1.442 0 00-.602-.28c-.234-.065-.57-.135-1.008-.21a10.167 10.167 0 01-1.47-.322 2.252 2.252 0 01-.966-.616c-.271-.289-.406-.695-.406-1.218 0-.672.28-1.209.84-1.61.56-.411 1.311-.616 2.254-.616.494 0 .989.061 1.484.182.494.121.9.285 1.218.49l-.574 1.064c-.607-.392-1.321-.588-2.142-.588-.57 0-1.004.093-1.302.28-.299.187-.448.434-.448.742 0 .243.084.434.252.574.168.14.373.243.616.308.252.065.602.14 1.05.224a10.26 10.26 0 011.442.336c.373.112.69.308.952.588.261.28.392.672.392 1.176 0 .672-.29 1.209-.868 1.61-.57.392-1.349.588-2.338.588zm7.013 0a6.38 6.38 0 01-1.75-.238c-.56-.168-.998-.378-1.316-.63l.56-1.064c.327.233.724.42 1.19.56.467.14.938.21 1.414.21 1.176 0 1.764-.336 1.764-1.008a.652.652 0 00-.238-.532 1.43 1.43 0 00-.602-.28 10.731 10.731 0 00-1.008-.21 10.229 10.229 0 01-1.47-.322 2.264 2.264 0 01-.966-.616c-.27-.289-.406-.695-.406-1.218 0-.672.28-1.209.84-1.61.56-.411 1.312-.616 2.254-.616.495 0 .99.061 1.484.182.495.121.901.285 1.218.49l-.574 1.064c-.606-.392-1.32-.588-2.142-.588-.569 0-1.003.093-1.302.28-.298.187-.448.434-.448.742 0 .243.084.434.252.574.168.14.374.243.616.308.252.065.602.14 1.05.224.598.103 1.078.215 1.442.336a2.1 2.1 0 01.952.588c.262.28.392.672.392 1.176 0 .672-.289 1.209-.868 1.61-.569.392-1.348.588-2.338.588z" fill="#333"/><path d="M432 172c17.673 0 32-14.327 32-32 0-17.673-14.327-32-32-32-17.673 0-32 14.327-32 32 0 17.673 14.327 32 32 32z" fill="#E08AF5"/><path d="M432.594 142.649h3.764l6.14 15.351h-3.764l-6.14-15.351z" fill="#4A2D0D"/><path d="M431.182 142.649h-3.765L421.277 158h3.765l6.14-15.351z" fill="#5E3C16"/><path d="M445.776 142.619H418v3.174h27.776v-3.174z" fill="#A16125"/><path d="M445.776 142.619h-13.878v3.174h13.878v-3.174z" fill="#5E3C16"/><path d="M444.241 125.173h-24.706v17.445h24.706v-17.445z" fill="#fff"/><path d="M427.037 133.951h-5.208v6.798h5.208v-6.798z" fill="#D6387A"/><path d="M444.241 125.173h-12.343v17.445h12.343v-17.445z" fill="#fff"/><path d="M441.95 131.978h-5.208v8.771h5.208v-8.771z" fill="#3848D6"/><path d="M434.493 130.388h-5.208v10.361h5.208v-10.361z" fill="#C938D6"/><path d="M434.492 130.388h-2.594v10.361h2.594v-10.361z" fill="#7A1B82"/><path d="M445.776 122H418v3.174h27.776V122z" fill="#A16125"/><path d="M445.776 122h-13.878v3.174h13.878V122z" fill="#5E3C16"/><path d="M313.208 190.55H308l-1.078 2.45h-1.442l4.438-9.8h1.386l4.452 9.8h-1.47l-1.078-2.45zm-.49-1.12l-2.114-4.802-2.114 4.802h4.228zm5.592-2.604a2.295 2.295 0 011.036-.98c.457-.224 1.013-.336 1.666-.336v1.302a2.7 2.7 0 00-.308-.014c-.728 0-1.302.219-1.722.658-.411.429-.616 1.045-.616 1.848V193h-1.344v-7.42h1.288v1.246zm8.831 5.74a2.077 2.077 0 01-.728.392 3.196 3.196 0 01-.896.126c-.746 0-1.325-.201-1.736-.602-.41-.401-.616-.975-.616-1.722v-4.074h-1.26v-1.106h1.26v-1.624h1.344v1.624h2.128v1.106h-2.128v4.018c0 .401.098.709.294.924.206.215.495.322.868.322.411 0 .761-.117 1.05-.35l.42.966zm3.753.518a6.38 6.38 0 01-1.75-.238c-.56-.168-.998-.378-1.316-.63l.56-1.064c.327.233.724.42 1.19.56.467.14.938.21 1.414.21 1.176 0 1.764-.336 1.764-1.008a.652.652 0 00-.238-.532 1.43 1.43 0 00-.602-.28 10.731 10.731 0 00-1.008-.21 10.229 10.229 0 01-1.47-.322 2.264 2.264 0 01-.966-.616c-.27-.289-.406-.695-.406-1.218 0-.672.28-1.209.84-1.61.56-.411 1.312-.616 2.254-.616.495 0 .99.061 1.484.182.495.121.901.285 1.218.49l-.574 1.064c-.606-.392-1.32-.588-2.142-.588-.569 0-1.003.093-1.302.28-.298.187-.448.434-.448.742 0 .243.084.434.252.574.168.14.374.243.616.308.252.065.602.14 1.05.224.598.103 1.078.215 1.442.336a2.1 2.1 0 01.952.588c.262.28.392.672.392 1.176 0 .672-.289 1.209-.868 1.61-.569.392-1.348.588-2.338.588z" fill="#333"/><path d="M320 172c17.673 0 32-14.327 32-32 0-17.673-14.327-32-32-32-17.673 0-32 14.327-32 32 0 17.673 14.327 32 32 32z" fill="#E08AF5"/><path d="M315.424 148.539l.414-.414-3.029-3.029-.414.414s-6.916-1.817-8.042 5.085c-.829 5.084-3.353 6.887-3.353 6.887s14.279 3.75 14.424-8.943z" fill="#FFAA20"/><path d="M302.864 157.826l11.338-11.338 1.637 1.638-.415.414c-.112 9.82-8.684 9.798-12.56 9.286z" fill="#E67500"/><path d="M318.678 137.371l-.834.897-5.449 7.243 3.029 3.029 7.242-5.45.897-.834-4.885-4.885z" fill="#fff"/><path d="M323.562 142.257l-.742.689-.045.042-.11.102-7.243 5.45-1.637-1.637 7.212-7.212 2.565 2.566z" fill="#FFF5CB"/><path d="M338.195 122.74c-2.221-2.221-6.456.999-9.311 3.854-2.855 2.855-11.039 11.674-11.039 11.674l2.411 2.411 2.411 2.411s8.819-8.185 11.674-11.04c2.855-2.855 6.075-7.09 3.854-9.31z" fill="#6D76E7"/><path d="M334.34 132.051c-2.298 2.298-8.461 8.05-10.777 10.206l-.741.69-.046.042-.109.101-2.534-2.533 17.935-17.936c.043.038.086.078.127.119 2.221 2.22-1 6.456-3.855 9.311z" fill="#1C2EDE"/><path d="M197.672 193l-.014-7.14-3.542 5.95h-.644l-3.542-5.908V193h-1.344v-9.8h1.148l4.088 6.888 4.032-6.888h1.148l.014 9.8h-1.344zm11.005-7.42V193h-1.274v-1.12a2.74 2.74 0 01-1.078.896 3.36 3.36 0 01-1.442.308c-.989 0-1.768-.271-2.338-.812-.569-.551-.854-1.358-.854-2.422v-4.27h1.344v4.116c0 .719.173 1.265.518 1.638.346.364.84.546 1.484.546.71 0 1.27-.215 1.68-.644.411-.429.616-1.036.616-1.82v-3.836h1.344zm4.687 7.504c-.607 0-1.19-.079-1.75-.238-.56-.168-.999-.378-1.316-.63l.56-1.064c.327.233.723.42 1.19.56.467.14.938.21 1.414.21 1.176 0 1.764-.336 1.764-1.008a.652.652 0 00-.238-.532 1.437 1.437 0 00-.602-.28 10.731 10.731 0 00-1.008-.21 10.229 10.229 0 01-1.47-.322 2.264 2.264 0 01-.966-.616c-.271-.289-.406-.695-.406-1.218 0-.672.28-1.209.84-1.61.56-.411 1.311-.616 2.254-.616.495 0 .989.061 1.484.182s.901.285 1.218.49l-.574 1.064c-.607-.392-1.321-.588-2.142-.588-.569 0-1.003.093-1.302.28-.299.187-.448.434-.448.742 0 .243.084.434.252.574.168.14.373.243.616.308.252.065.602.14 1.05.224a10.26 10.26 0 011.442.336c.373.112.691.308.952.588.261.28.392.672.392 1.176 0 .672-.289 1.209-.868 1.61-.569.392-1.349.588-2.338.588zm4.886-7.504h1.344V193h-1.344v-7.42zm.672-1.428a.918.918 0 01-.658-.252.837.837 0 01-.252-.616c0-.243.084-.448.252-.616a.893.893 0 01.658-.266c.261 0 .476.084.644.252a.774.774 0 01.266.602.878.878 0 01-.266.644.873.873 0 01-.644.252zm6.472 8.932c-.756 0-1.433-.163-2.03-.49a3.624 3.624 0 01-1.386-1.344c-.336-.579-.504-1.232-.504-1.96s.168-1.377.504-1.946a3.486 3.486 0 011.386-1.344c.597-.327 1.274-.49 2.03-.49.672 0 1.269.135 1.792.406a2.89 2.89 0 011.232 1.176l-1.022.658a2.285 2.285 0 00-.868-.798 2.482 2.482 0 00-1.148-.266c-.486 0-.924.107-1.316.322a2.345 2.345 0 00-.91.924c-.215.392-.322.845-.322 1.358 0 .523.107.985.322 1.386.224.392.527.695.91.91.392.215.83.322 1.316.322.42 0 .802-.089 1.148-.266.345-.177.634-.443.868-.798l1.022.644c-.29.513-.7.91-1.232 1.19-.523.271-1.12.406-1.792.406z" fill="#333"/><path d="M208 172c17.673 0 32-14.327 32-32 0-17.673-14.327-32-32-32-17.673 0-32 14.327-32 32 0 17.673 14.327 32 32 32z" fill="#E08AF5"/><path d="M201.721 126.673v2.835l.64 1.495-.64 1.676v14.366c-1.711-.61-3.881-.458-5.883.578-3.34 1.729-4.945 5.26-3.585 7.888 1.36 2.628 5.17 3.357 8.51 1.629 2.498-1.293 4.025-3.594 4.067-5.772h.002v-16.412l17.059-3.48v11.326c-1.711-.61-3.881-.457-5.883.579-3.34 1.728-4.945 5.259-3.585 7.887 1.36 2.628 5.17 3.357 8.51 1.629 2.504-1.296 4.032-3.605 4.068-5.787h.001v-19.03l-.278-1.594.278-1.577v-2.985l-23.281 4.749z" fill="#6855DD"/><path d="M225.002 124.909l-.278 1.577.278 1.594v19.03h-.001c-.035 2.183-1.564 4.491-4.068 5.787-3.34 1.728-7.15.999-8.509-1.629-1.36-2.628.245-6.159 3.585-7.887 2.001-1.037 4.171-1.188 5.882-.58v-11.325l-11.684 2.384v-8.918l14.795-3.018v2.985z" fill="#553FD9"/><path d="M225.003 124.909l-23.28 4.599v3.17l23.28-4.598v-3.171z" fill="#fff"/><path d="M225.002 124.909v3.171l-14.795 2.923v-3.171l14.795-2.923z" fill="#E7E7E7"/><path d="M65.082 191.112c-.98 0-1.867-.215-2.66-.644a4.873 4.873 0 01-1.848-1.792c-.448-.765-.672-1.624-.672-2.576s.224-1.806.672-2.562a4.713 4.713 0 011.861-1.792c.794-.439 1.68-.658 2.66-.658.766 0 1.466.131 2.1.392a4.23 4.23 0 011.625 1.134l-.91.882c-.738-.775-1.657-1.162-2.758-1.162-.728 0-1.386.163-1.974.49a3.589 3.589 0 00-1.386 1.358 3.784 3.784 0 00-.49 1.918c0 .709.163 1.353.49 1.932a3.624 3.624 0 001.386 1.344c.588.327 1.246.49 1.974.49 1.091 0 2.01-.392 2.757-1.176l.91.882a4.34 4.34 0 01-1.638 1.148 5.471 5.471 0 01-2.1.392zm9.5-7.602c.943 0 1.69.275 2.24.826.56.541.84 1.339.84 2.394V191H76.32v-4.116c0-.719-.173-1.26-.518-1.624-.346-.364-.84-.546-1.484-.546-.728 0-1.302.215-1.722.644-.42.42-.63 1.027-.63 1.82V191H70.62v-10.388h1.344v4.018a2.78 2.78 0 011.092-.826 3.836 3.836 0 011.526-.294zm12.315 3.822c0 .103-.01.238-.028.406h-6.02c.084.653.369 1.181.854 1.582.495.392 1.106.588 1.834.588.887 0 1.6-.299 2.142-.896l.742.868a3.237 3.237 0 01-1.26.896 4.315 4.315 0 01-1.666.308c-.784 0-1.48-.159-2.086-.476a3.539 3.539 0 01-1.414-1.358c-.327-.579-.49-1.232-.49-1.96 0-.719.159-1.367.476-1.946a3.47 3.47 0 011.33-1.344 3.784 3.784 0 011.918-.49c.71 0 1.34.163 1.89.49.56.317.994.765 1.302 1.344.317.579.476 1.241.476 1.988zm-3.668-2.688c-.644 0-1.185.196-1.624.588-.43.392-.681.905-.756 1.54h4.76c-.075-.625-.331-1.134-.77-1.526-.43-.401-.966-.602-1.61-.602zm14.816-1.134c.934 0 1.67.271 2.212.812.551.541.826 1.344.826 2.408V191h-1.344v-4.116c0-.719-.168-1.26-.504-1.624-.326-.364-.798-.546-1.414-.546-.681 0-1.222.215-1.624.644-.401.42-.602 1.027-.602 1.82V191h-1.344v-4.116c0-.719-.168-1.26-.504-1.624-.326-.364-.798-.546-1.414-.546-.681 0-1.222.215-1.624.644-.401.42-.602 1.027-.602 1.82V191h-1.344v-7.42h1.288v1.106a2.55 2.55 0 011.064-.868c.439-.205.938-.308 1.498-.308.579 0 1.092.117 1.54.35a2.43 2.43 0 011.036 1.022c.28-.429.668-.765 1.162-1.008a3.85 3.85 0 011.694-.364zm5.511.07h1.344V191h-1.344v-7.42zm.672-1.428a.922.922 0 01-.658-.252.837.837 0 01-.252-.616c0-.243.084-.448.252-.616a.897.897 0 01.658-.266c.262 0 .476.084.644.252a.77.77 0 01.266.602.874.874 0 01-.266.644.871.871 0 01-.644.252zm5.366 8.932a6.38 6.38 0 01-1.75-.238c-.56-.168-.998-.378-1.316-.63l.56-1.064c.327.233.724.42 1.19.56.467.14.938.21 1.414.21 1.176 0 1.764-.336 1.764-1.008a.652.652 0 00-.238-.532 1.43 1.43 0 00-.602-.28 10.731 10.731 0 00-1.008-.21 10.229 10.229 0 01-1.47-.322 2.264 2.264 0 01-.966-.616c-.27-.289-.406-.695-.406-1.218 0-.672.28-1.209.84-1.61.56-.411 1.312-.616 2.254-.616.495 0 .99.061 1.484.182.495.121.901.285 1.218.49l-.574 1.064c-.606-.392-1.32-.588-2.142-.588-.569 0-1.003.093-1.302.28-.298.187-.448.434-.448.742 0 .243.084.434.252.574.168.14.374.243.616.308.252.065.602.14 1.05.224.598.103 1.078.215 1.442.336a2.1 2.1 0 01.952.588c.262.28.392.672.392 1.176 0 .672-.289 1.209-.868 1.61-.569.392-1.348.588-2.338.588zm9.058-.518a2.086 2.086 0 01-.728.392 3.196 3.196 0 01-.896.126c-.747 0-1.325-.201-1.736-.602-.411-.401-.616-.975-.616-1.722v-4.074h-1.26v-1.106h1.26v-1.624h1.344v1.624h2.128v1.106h-2.128v4.018c0 .401.098.709.294.924.205.215.495.322.868.322.411 0 .761-.117 1.05-.35l.42.966zm2.913-5.74a2.295 2.295 0 011.036-.98c.457-.224 1.013-.336 1.666-.336v1.302a2.7 2.7 0 00-.308-.014c-.728 0-1.302.219-1.722.658-.411.429-.616 1.045-.616 1.848V191h-1.344v-7.42h1.288v1.246zm11.225-1.246l-3.598 8.162c-.317.756-.69 1.288-1.12 1.596-.42.308-.928.462-1.526.462-.364 0-.718-.061-1.064-.182a2.109 2.109 0 01-.84-.504l.574-1.008c.383.364.826.546 1.33.546.327 0 .598-.089.812-.266.224-.168.425-.462.602-.882l.238-.518-3.276-7.406h1.4l2.59 5.936 2.562-5.936h1.316z" fill="#333"/><path d="M96 172c17.673 0 32-14.327 32-32 0-17.673-14.327-32-32-32-17.673 0-32 14.327-32 32 0 17.673 14.327 32 32 32z" fill="#E08AF5"/><path d="M89.59 149.562c0-1.699 3.075-5.284 3.075-5.284s3.075 3.585 3.075 5.284a3.075 3.075 0 01-6.15 0z" fill="#F40057"/><path d="M92.664 144.278s3.075 3.585 3.075 5.284a3.075 3.075 0 01-3.075 3.075v-8.359z" fill="#DC2C00"/><path d="M90.668 150.302c0-1.103 1.997-3.431 1.997-3.431s1.997 2.328 1.997 3.431a1.997 1.997 0 11-3.994 0z" fill="#FE9A35"/><path d="M92.664 146.871s1.997 2.328 1.997 3.431a1.997 1.997 0 01-1.997 1.997v-5.428z" fill="#FF7C11"/><path d="M99.964 151.919H85.367v3.703h14.597v-3.703z" fill="#fff"/><path d="M99.962 151.92h-7.298v3.703h7.298v-3.703zm-4.148-28.828h-6.298v15.696a3.15 3.15 0 006.298 0v-15.696z" fill="#fff"/><path d="M92.582 123.092v18.843l.085.002a3.15 3.15 0 003.15-3.149v-15.696h-3.235zm-3.066 0v15.696a3.148 3.148 0 003.064 3.147v-18.843h-3.064z" fill="#fff"/><path d="M89.516 129.949v8.839a3.15 3.15 0 006.298 0v-8.839h-6.298z" fill="#FEDB41"/><path d="M89.516 129.949v8.839a3.15 3.15 0 006.298 0v-8.839h-6.298z" fill="#FEDB41"/><path d="M92.64 129.949v11.987l.023.001a3.15 3.15 0 003.15-3.149v-8.839H92.64z" fill="#FCBF29"/><path d="M107.997 131.529H88.074v2.409h19.923v-2.409z" fill="#fff"/><path d="M96.956 121.924H88.37v2.641h8.585v-2.641z" fill="#CED7DB"/><path d="M96.96 121.924h-4.378v2.641h4.377v-2.641z" fill="#ABB6BA"/><path d="M107.998 131.528H96.702v2.409h11.296v-2.409z" fill="#fff"/><path d="M105.941 122.847h-1.857v34.877h1.857v-34.877z" fill="#fff"/><path d="M107.145 155.266H84.262v2.81h22.883v-2.81z" fill="#40C3FE"/><path d="M107.145 155.266H96.702v2.81h10.443v-2.81z" fill="#00AFFE"/><path d="M853.928 80.644h-2.88V79.6h6.948v1.044h-2.88V88h-1.188v-7.356zm7.275 7.428c-.632 0-1.2-.14-1.704-.42-.504-.28-.9-.664-1.188-1.152a3.357 3.357 0 01-.42-1.68c0-.624.14-1.18.42-1.668.288-.496.684-.88 1.188-1.152a3.449 3.449 0 011.704-.42c.632 0 1.196.14 1.692.42.504.272.896.656 1.176 1.152.288.488.432 1.044.432 1.668 0 .624-.144 1.184-.432 1.68-.28.488-.672.872-1.176 1.152-.496.28-1.06.42-1.692.42zm0-1.008a2.15 2.15 0 001.092-.276 2.03 2.03 0 00.768-.792c.184-.344.276-.736.276-1.176 0-.44-.092-.828-.276-1.164a1.93 1.93 0 00-.768-.792 2.15 2.15 0 00-1.092-.276c-.408 0-.776.092-1.104.276-.32.184-.576.448-.768.792a2.385 2.385 0 00-.276 1.164c0 .44.092.832.276 1.176.192.336.448.6.768.792.328.184.696.276 1.104.276zm8.469.564a1.79 1.79 0 01-.624.336 2.74 2.74 0 01-.768.108c-.64 0-1.136-.172-1.488-.516-.352-.344-.528-.836-.528-1.476v-3.492h-1.08v-.948h1.08v-1.392h1.152v1.392h1.824v.948h-1.824v3.444c0 .344.084.608.252.792.176.184.424.276.744.276.352 0 .652-.1.9-.3l.36.828zm3.709-6.048c.88 0 1.552.216 2.016.648.472.432.708 1.076.708 1.932V88h-1.092v-.84a1.853 1.853 0 01-.828.684c-.352.152-.772.228-1.26.228-.712 0-1.284-.172-1.716-.516-.424-.344-.636-.796-.636-1.356s.204-1.008.612-1.344c.408-.344 1.056-.516 1.944-.516h1.824v-.228c0-.496-.144-.876-.432-1.14-.288-.264-.712-.396-1.272-.396-.376 0-.744.064-1.104.192a2.76 2.76 0 00-.912.492l-.48-.864c.328-.264.72-.464 1.176-.6.456-.144.94-.216 1.452-.216zm-.264 5.604c.44 0 .82-.096 1.14-.288.32-.2.552-.48.696-.84v-.888h-1.776c-.976 0-1.464.328-1.464.984 0 .32.124.572.372.756.248.184.592.276 1.032.276zm5.12-8.088h1.152V88h-1.152v-8.904zm6.742.504h1.2V88h-1.2v-8.4zm6.943 1.98c.808 0 1.448.236 1.92.708.48.464.72 1.148.72 2.052V88h-1.152v-3.528c0-.616-.148-1.08-.444-1.392-.296-.312-.72-.468-1.272-.468-.624 0-1.116.184-1.476.552-.36.36-.54.88-.54 1.56V88h-1.152v-6.36h1.104v.96c.232-.328.544-.58.936-.756.4-.176.852-.264 1.356-.264zm8.348 6.048a1.79 1.79 0 01-.624.336 2.74 2.74 0 01-.768.108c-.64 0-1.136-.172-1.488-.516-.352-.344-.528-.836-.528-1.476v-3.492h-1.08v-.948h1.08v-1.392h1.152v1.392h1.824v.948h-1.824v3.444c0 .344.084.608.252.792.176.184.424.276.744.276.352 0 .652-.1.9-.3l.36.828zm6.929-2.772c0 .088-.008.204-.024.348h-5.16c.072.56.316 1.012.732 1.356.424.336.948.504 1.572.504.76 0 1.372-.256 1.836-.768l.636.744a2.777 2.777 0 01-1.08.768c-.424.176-.9.264-1.428.264-.672 0-1.268-.136-1.788-.408a3.033 3.033 0 01-1.212-1.164 3.357 3.357 0 01-.42-1.68c0-.616.136-1.172.408-1.668.28-.496.66-.88 1.14-1.152a3.244 3.244 0 011.644-.42c.608 0 1.148.14 1.62.42.48.272.852.656 1.116 1.152.272.496.408 1.064.408 1.704zm-3.144-2.304c-.552 0-1.016.168-1.392.504-.368.336-.584.776-.648 1.32h4.08c-.064-.536-.284-.972-.66-1.308-.368-.344-.828-.516-1.38-.516zm5.848.156c.2-.368.496-.648.888-.84.392-.192.868-.288 1.428-.288v1.116a2.249 2.249 0 00-.264-.012c-.624 0-1.116.188-1.476.564-.352.368-.528.896-.528 1.584V88h-1.152v-6.36h1.104v1.068zm7.132-1.128c.808 0 1.448.236 1.92.708.48.464.72 1.148.72 2.052V88h-1.152v-3.528c0-.616-.148-1.08-.444-1.392-.296-.312-.72-.468-1.272-.468-.624 0-1.116.184-1.476.552-.36.36-.54.88-.54 1.56V88h-1.152v-6.36h1.104v.96c.232-.328.544-.58.936-.756.4-.176.852-.264 1.356-.264zm7.088 0c.88 0 1.552.216 2.016.648.472.432.708 1.076.708 1.932V88h-1.092v-.84a1.853 1.853 0 01-.828.684c-.352.152-.772.228-1.26.228-.712 0-1.284-.172-1.716-.516-.424-.344-.636-.796-.636-1.356s.204-1.008.612-1.344c.408-.344 1.056-.516 1.944-.516h1.824v-.228c0-.496-.144-.876-.432-1.14-.288-.264-.712-.396-1.272-.396-.376 0-.744.064-1.104.192a2.76 2.76 0 00-.912.492l-.48-.864c.328-.264.72-.464 1.176-.6.456-.144.94-.216 1.452-.216zm-.264 5.604c.44 0 .82-.096 1.14-.288.32-.2.552-.48.696-.84v-.888h-1.776c-.976 0-1.464.328-1.464.984 0 .32.124.572.372.756.248.184.592.276 1.032.276zm8.696.444a1.79 1.79 0 01-.624.336 2.74 2.74 0 01-.768.108c-.64 0-1.136-.172-1.488-.516-.352-.344-.528-.836-.528-1.476v-3.492h-1.08v-.948h1.08v-1.392h1.152v1.392h1.824v.948h-1.824v3.444c0 .344.084.608.252.792.176.184.424.276.744.276.352 0 .652-.1.9-.3l.36.828zm1.392-5.988h1.152V88h-1.152v-6.36zm.576-1.224a.789.789 0 01-.564-.216.718.718 0 01-.216-.528c0-.208.072-.384.216-.528a.766.766 0 01.564-.228c.224 0 .408.072.552.216a.662.662 0 01.228.516c0 .216-.076.4-.228.552a.748.748 0 01-.552.216zm5.5 7.656c-.632 0-1.2-.14-1.704-.42-.504-.28-.9-.664-1.188-1.152a3.357 3.357 0 01-.42-1.68c0-.624.14-1.18.42-1.668.288-.496.684-.88 1.188-1.152a3.449 3.449 0 011.704-.42c.632 0 1.196.14 1.692.42.504.272.896.656 1.176 1.152.288.488.432 1.044.432 1.668 0 .624-.144 1.184-.432 1.68-.28.488-.672.872-1.176 1.152-.496.28-1.06.42-1.692.42zm0-1.008a2.15 2.15 0 001.092-.276 2.03 2.03 0 00.768-.792c.184-.344.276-.736.276-1.176 0-.44-.092-.828-.276-1.164a1.93 1.93 0 00-.768-.792 2.15 2.15 0 00-1.092-.276c-.408 0-.776.092-1.104.276-.32.184-.576.448-.768.792a2.385 2.385 0 00-.276 1.164c0 .44.092.832.276 1.176.192.336.448.6.768.792.328.184.696.276 1.104.276zm8.289-5.484c.808 0 1.448.236 1.92.708.48.464.72 1.148.72 2.052V88H949.8v-3.528c0-.616-.148-1.08-.444-1.392-.296-.312-.72-.468-1.272-.468-.624 0-1.116.184-1.476.552-.36.36-.54.88-.54 1.56V88h-1.152v-6.36h1.104v.96c.232-.328.544-.58.936-.756.4-.176.852-.264 1.356-.264zm7.088 0c.88 0 1.552.216 2.016.648.472.432.708 1.076.708 1.932V88h-1.092v-.84a1.853 1.853 0 01-.828.684c-.352.152-.772.228-1.26.228-.712 0-1.284-.172-1.716-.516-.424-.344-.636-.796-.636-1.356s.204-1.008.612-1.344c.408-.344 1.056-.516 1.944-.516h1.824v-.228c0-.496-.144-.876-.432-1.14-.288-.264-.712-.396-1.272-.396-.376 0-.744.064-1.104.192a2.76 2.76 0 00-.912.492l-.48-.864c.328-.264.72-.464 1.176-.6.456-.144.94-.216 1.452-.216zm-.264 5.604c.44 0 .82-.096 1.14-.288.32-.2.552-.48.696-.84v-.888h-1.776c-.976 0-1.464.328-1.464.984 0 .32.124.572.372.756.248.184.592.276 1.032.276zm5.12-8.088h1.152V88h-1.152v-8.904zm9.19 9a5.914 5.914 0 01-1.836-.288c-.584-.2-1.044-.456-1.38-.768l.444-.936c.32.288.728.524 1.224.708.504.176 1.02.264 1.548.264.696 0 1.216-.116 1.56-.348.344-.24.516-.556.516-.948a.9.9 0 00-.288-.696 1.784 1.784 0 00-.696-.42c-.272-.096-.66-.204-1.164-.324a12.396 12.396 0 01-1.536-.456 2.616 2.616 0 01-.996-.696c-.272-.32-.408-.748-.408-1.284 0-.448.116-.852.348-1.212.24-.36.6-.648 1.08-.864.48-.216 1.076-.324 1.788-.324.496 0 .984.064 1.464.192s.892.312 1.236.552l-.396.96a4.199 4.199 0 00-1.128-.504 4.08 4.08 0 00-1.176-.18c-.68 0-1.192.124-1.536.372-.336.248-.504.568-.504.96 0 .288.096.524.288.708.192.176.428.316.708.42.288.096.676.2 1.164.312.632.152 1.14.304 1.524.456.384.152.712.384.984.696.28.312.42.732.42 1.26 0 .44-.12.844-.36 1.212-.24.36-.604.648-1.092.864-.488.208-1.088.312-1.8.312zm8.413-.468a1.79 1.79 0 01-.624.336 2.74 2.74 0 01-.768.108c-.64 0-1.136-.172-1.488-.516-.352-.344-.528-.836-.528-1.476v-3.492h-1.08v-.948h1.08v-1.392h1.152v1.392h1.824v.948h-1.824v3.444c0 .344.084.608.252.792.176.184.424.276.744.276.352 0 .652-.1.9-.3l.36.828zm7.321-5.988V88h-1.092v-.96c-.232.328-.54.584-.924.768a2.879 2.879 0 01-1.236.264c-.848 0-1.516-.232-2.004-.696-.488-.472-.732-1.164-.732-2.076v-3.66h1.152v3.528c0 .616.148 1.084.444 1.404.296.312.72.468 1.272.468.608 0 1.088-.184 1.44-.552.352-.368.528-.888.528-1.56V81.64h1.152zm8.193-2.544V88h-1.104v-1.008c-.256.352-.58.62-.972.804a3.012 3.012 0 01-1.296.276 3.343 3.343 0 01-1.656-.408 2.976 2.976 0 01-1.152-1.14c-.272-.496-.408-1.064-.408-1.704 0-.64.136-1.204.408-1.692.28-.488.664-.868 1.152-1.14a3.343 3.343 0 011.656-.408c.456 0 .876.088 1.26.264.384.168.704.42.96.756v-3.504h1.152zm-3.276 7.968c.4 0 .764-.092 1.092-.276a2.03 2.03 0 00.768-.792c.184-.344.276-.736.276-1.176 0-.44-.092-.828-.276-1.164a1.93 1.93 0 00-.768-.792 2.193 2.193 0 00-1.092-.276c-.408 0-.776.092-1.104.276-.32.184-.576.448-.768.792a2.385 2.385 0 00-.276 1.164c0 .44.092.832.276 1.176.192.336.448.6.768.792.328.184.696.276 1.104.276zm11.203-2.208c0 .088-.01.204-.02.348h-5.163c.072.56.316 1.012.732 1.356.424.336.948.504 1.572.504.76 0 1.372-.256 1.839-.768l.63.744c-.29.336-.65.592-1.077.768-.424.176-.9.264-1.428.264-.672 0-1.268-.136-1.788-.408a3.033 3.033 0 01-1.212-1.164 3.357 3.357 0 01-.42-1.68c0-.616.136-1.172.408-1.668.28-.496.66-.88 1.14-1.152a3.244 3.244 0 011.644-.42c.608 0 1.148.14 1.62.42.483.272.853.656 1.113 1.152.27.496.41 1.064.41 1.704zm-3.143-2.304c-.552 0-1.016.168-1.392.504-.368.336-.584.776-.648 1.32h4.083c-.07-.536-.287-.972-.663-1.308-.368-.344-.828-.516-1.38-.516zm8.143-.972c.8 0 1.44.236 1.92.708.48.464.72 1.148.72 2.052V88h-1.16v-3.528c0-.616-.14-1.08-.44-1.392-.3-.312-.72-.468-1.27-.468-.63 0-1.12.184-1.48.552-.36.36-.54.88-.54 1.56V88h-1.15v-6.36h1.1v.96c.24-.328.55-.58.94-.756.4-.176.85-.264 1.36-.264zm8.34 6.048c-.16.144-.37.256-.62.336-.25.072-.5.108-.77.108-.64 0-1.13-.172-1.49-.516-.35-.344-.52-.836-.52-1.476v-3.492h-1.08v-.948h1.08v-1.392h1.15v1.392h1.82v.948h-1.82v3.444c0 .344.08.608.25.792.18.184.42.276.74.276.36 0 .66-.1.9-.3l.36.828zm3.22.444c-.52 0-1.02-.068-1.5-.204-.48-.144-.85-.324-1.13-.54l.48-.912c.28.2.62.36 1.02.48s.81.18 1.22.18c1 0 1.51-.288 1.51-.864a.553.553 0 00-.21-.456c-.13-.112-.3-.192-.51-.24-.2-.056-.49-.116-.87-.18-.51-.08-.93-.172-1.26-.276a1.9 1.9 0 01-.82-.528c-.24-.248-.35-.596-.35-1.044 0-.576.24-1.036.72-1.38.48-.352 1.12-.528 1.93-.528.42 0 .85.052 1.27.156.43.104.77.244 1.05.42l-.5.912c-.52-.336-1.13-.504-1.83-.504-.49 0-.86.08-1.12.24-.25.16-.38.372-.38.636 0 .208.07.372.21.492.15.12.32.208.53.264.22.056.52.12.9.192.51.088.93.184 1.24.288.32.096.59.264.81.504.23.24.34.576.34 1.008 0 .576-.25 1.036-.74 1.38-.49.336-1.16.504-2.01.504zm7-3.864h3.23v.996h-3.23v-.996zm10.44-4.704c1.12 0 1.99.364 2.6 1.092.62.728.92 1.76.92 3.096 0 .936-.16 1.736-.5 2.4-.33.656-.79 1.156-1.39 1.5-.59.336-1.29.504-2.08.504-.41 0-.79-.04-1.15-.12a3.417 3.417 0 01-.94-.372l.46-.936c.41.264.95.396 1.62.396.87 0 1.55-.268 2.04-.804.5-.544.74-1.332.74-2.364v-.3c-.24.36-.57.636-.99.828-.43.184-.9.276-1.43.276-.55 0-1.05-.104-1.49-.312a2.476 2.476 0 01-1.02-.888c-.24-.392-.36-.84-.36-1.344 0-.528.13-.992.39-1.392.26-.4.62-.708 1.06-.924.45-.224.96-.336 1.52-.336zm.1 4.224c.38 0 .72-.072 1.01-.216.3-.144.53-.34.69-.588.16-.248.25-.524.25-.828 0-.296-.08-.564-.24-.804-.15-.248-.38-.444-.69-.588-.29-.152-.65-.228-1.08-.228-.55 0-1 .148-1.34.444-.34.296-.5.692-.5 1.188s.17.892.51 1.188c.35.288.81.432 1.39.432zm10.62-4.128v.816l-3.4 7.584h-1.27l3.32-7.356h-3.84v1.5h-1.15V79.6h6.34zm7.57 6.336H1052V88h-1.17v-2.064h-4.67v-.84l4.3-5.496h1.3l-4.12 5.304h3.23V83.08h1.13v1.824h1.59v1.032zm1.76.492c.22 0 .41.08.55.24a.79.79 0 01.23.576c0 .12-.02.236-.05.348-.02.112-.08.284-.16.516l-.56 1.668h-.76l.45-1.788a.776.776 0 01-.37-.276.832.832 0 01-.14-.468c0-.24.08-.436.23-.588a.79.79 0 01.58-.228zm4.64-6.924c1.13 0 1.99.364 2.6 1.092.62.728.93 1.76.93 3.096 0 .936-.17 1.736-.51 2.4-.33.656-.79 1.156-1.39 1.5-.59.336-1.28.504-2.08.504-.4 0-.79-.04-1.15-.12a3.228 3.228 0 01-.93-.372l.45-.936c.41.264.95.396 1.62.396.87 0 1.55-.268 2.04-.804.5-.544.75-1.332.75-2.364v-.3c-.24.36-.58.636-1 .828-.42.184-.9.276-1.43.276-.55 0-1.05-.104-1.49-.312a2.476 2.476 0 01-1.02-.888c-.24-.392-.36-.84-.36-1.344 0-.528.13-.992.39-1.392.26-.4.62-.708 1.07-.924.44-.224.95-.336 1.51-.336zm.11 4.224c.37 0 .71-.072 1-.216.3-.144.53-.34.69-.588.17-.248.25-.524.25-.828 0-.296-.08-.564-.24-.804a1.555 1.555 0 00-.68-.588c-.3-.152-.66-.228-1.08-.228-.56 0-1 .148-1.35.444-.33.296-.5.692-.5 1.188s.17.892.51 1.188c.35.288.81.432 1.4.432zm10.44 3.228V88h-6.04v-.816l3.42-3.3c.42-.4.7-.744.84-1.032.15-.296.22-.592.22-.888 0-.44-.16-.78-.47-1.02-.3-.248-.74-.372-1.32-.372-.93 0-1.64.304-2.15.912l-.81-.708c.32-.4.75-.712 1.28-.936a4.604 4.604 0 011.79-.336c.88 0 1.58.212 2.1.636.52.416.78.984.78 1.704 0 .448-.1.872-.29 1.272-.19.4-.56.856-1.09 1.368l-2.57 2.472h4.31zm4.57-4.056c.56 0 1.05.104 1.48.312.44.208.78.508 1.03.9.25.384.37.828.37 1.332 0 .528-.13.992-.39 1.392-.26.4-.61.712-1.07.936-.45.216-.95.324-1.51.324-1.13 0-2-.364-2.62-1.092-.61-.728-.91-1.76-.91-3.096 0-.936.16-1.732.49-2.388.34-.664.8-1.164 1.39-1.5.6-.344 1.3-.516 2.09-.516.41 0 .79.044 1.15.132.36.08.68.2.94.36l-.46.936c-.4-.264-.93-.396-1.6-.396-.88 0-1.56.272-2.06.816-.49.536-.74 1.32-.74 2.352 0 .128 0 .228.01.3.24-.36.57-.632.99-.816a3.4 3.4 0 011.42-.288zm-.14 4.224c.55 0 1-.148 1.34-.444.35-.296.52-.692.52-1.188s-.18-.888-.53-1.176c-.34-.296-.81-.444-1.39-.444-.38 0-.71.072-1.01.216-.29.144-.51.34-.68.588-.16.248-.24.524-.24.828 0 .296.07.568.23.816.16.24.38.436.68.588.3.144.66.216 1.08.216zM54.112 50.8c.97 0 1.813.16 2.528.48.725.32 1.28.779 1.664 1.376.384.597.576 1.307.576 2.128 0 .81-.192 1.52-.576 2.128-.384.597-.939 1.056-1.664 1.376-.715.32-1.557.48-2.528.48h-2.528V62h-2.08V50.8h4.608zm-.096 6.208c.907 0 1.595-.192 2.064-.576.47-.384.704-.933.704-1.648 0-.715-.235-1.264-.704-1.648-.47-.384-1.157-.576-2.064-.576h-2.432v4.448h2.432zm10.558 5.104c-.864 0-1.643-.187-2.336-.56A4.155 4.155 0 0160.606 60c-.384-.672-.576-1.43-.576-2.272 0-.843.192-1.595.576-2.256a4.155 4.155 0 011.632-1.552c.693-.373 1.472-.56 2.336-.56.874 0 1.659.187 2.352.56a4.04 4.04 0 011.616 1.552c.394.661.592 1.413.592 2.256 0 .843-.198 1.6-.592 2.272a4.045 4.045 0 01-1.616 1.552c-.694.373-1.478.56-2.352.56zm0-1.712c.736 0 1.344-.245 1.824-.736.48-.49.72-1.136.72-1.936s-.24-1.445-.72-1.936c-.48-.49-1.088-.736-1.824-.736s-1.344.245-1.824.736c-.47.49-.704 1.136-.704 1.936s.235 1.445.704 1.936c.48.49 1.088.736 1.824.736zm11.208-7.04c.832 0 1.574.181 2.224.544a3.91 3.91 0 011.552 1.536c.374.661.56 1.424.56 2.288 0 .864-.186 1.632-.56 2.304a3.91 3.91 0 01-1.552 1.536c-.65.363-1.392.544-2.224.544-1.152 0-2.064-.384-2.736-1.152v4.144h-2V53.456h1.904v1.12c.331-.405.736-.71 1.216-.912a4.192 4.192 0 011.616-.304zm-.224 7.04c.736 0 1.339-.245 1.808-.736.48-.49.72-1.136.72-1.936s-.24-1.445-.72-1.936c-.469-.49-1.072-.736-1.808-.736-.48 0-.912.112-1.296.336a2.315 2.315 0 00-.912.928c-.224.405-.336.875-.336 1.408 0 .533.112 1.003.336 1.408.224.405.528.72.912.944.384.213.816.32 1.296.32zm14.73-6.944V62h-1.905v-1.088c-.32.384-.72.683-1.2.896-.48.203-.997.304-1.552.304-1.141 0-2.043-.315-2.704-.944-.65-.64-.976-1.584-.976-2.832v-4.88h2v4.608c0 .768.17 1.344.512 1.728.352.373.848.56 1.488.56.715 0 1.28-.219 1.696-.656.427-.448.64-1.088.64-1.92v-4.32h2zm2.618-3.328h2V62h-2V50.128zm7.889 3.232c1.258 0 2.218.304 2.88.912.672.597 1.008 1.504 1.008 2.72V62h-1.888v-1.04c-.246.373-.598.661-1.056.864-.448.192-.992.288-1.632.288-.64 0-1.2-.107-1.68-.32-.48-.224-.854-.528-1.12-.912a2.388 2.388 0 01-.384-1.328c0-.768.282-1.381.848-1.84.576-.47 1.477-.704 2.704-.704h2.208v-.128c0-.597-.182-1.056-.544-1.376-.352-.32-.88-.48-1.584-.48-.48 0-.955.075-1.424.224-.459.15-.848.357-1.168.624l-.784-1.456a4.848 4.848 0 011.616-.784 7.193 7.193 0 012-.272zm-.272 7.296c.501 0 .944-.112 1.328-.336.394-.235.672-.565.832-.992v-.992h-2.064c-1.152 0-1.728.379-1.728 1.136 0 .363.144.65.432.864.288.213.688.32 1.2.32zm8.631-5.952c.576-.896 1.589-1.344 3.04-1.344v1.904a2.548 2.548 0 00-.464-.048c-.779 0-1.387.23-1.824.688-.438.448-.656 1.099-.656 1.952V62h-2v-8.544h1.904v1.248zm11.508-2.16v3.408h5.408v1.76h-5.408V62h-2.08V50.8h8.176v1.744h-6.096zm7.759.912h2V62h-2v-8.544zm1.008-1.408c-.362 0-.666-.112-.912-.336a1.15 1.15 0 01-.368-.864 1.1 1.1 0 01.368-.848 1.27 1.27 0 01.912-.352 1.3 1.3 0 01.912.336c.246.213.368.485.368.816 0 .352-.122.65-.368.896-.234.235-.538.352-.912.352zm11.649 5.728c0 .139-.01.336-.032.592h-6.704c.118.63.422 1.13.912 1.504.502.363 1.12.544 1.856.544.939 0 1.712-.31 2.32-.928l1.072 1.232a3.61 3.61 0 01-1.456 1.04c-.586.235-1.248.352-1.984.352-.938 0-1.765-.187-2.48-.56A4.11 4.11 0 01132.918 60c-.384-.672-.576-1.43-.576-2.272 0-.832.187-1.579.56-2.24a4.069 4.069 0 011.584-1.568c.672-.373 1.43-.56 2.272-.56.832 0 1.574.187 2.224.56a3.77 3.77 0 011.536 1.552c.374.661.56 1.43.56 2.304zm-4.32-2.816c-.64 0-1.184.192-1.632.576-.437.373-.704.875-.8 1.504h4.848c-.085-.619-.346-1.12-.784-1.504-.437-.384-.981-.576-1.632-.576zM143 50.128h2V62h-2V50.128zm12.993 0V62h-1.92v-1.104a3.09 3.09 0 01-1.232.912 4.076 4.076 0 01-1.6.304c-.822 0-1.563-.181-2.224-.544a3.934 3.934 0 01-1.536-1.536c-.374-.672-.56-1.44-.56-2.304 0-.864.186-1.627.56-2.288a3.934 3.934 0 011.536-1.536c.661-.363 1.402-.544 2.224-.544.565 0 1.082.096 1.552.288.469.192.869.48 1.2.864v-4.384h2zM151.481 60.4c.48 0 .912-.107 1.296-.32a2.43 2.43 0 00.912-.944c.224-.405.336-.875.336-1.408 0-.533-.112-1.003-.336-1.408a2.315 2.315 0 00-.912-.928 2.524 2.524 0 00-1.296-.336c-.48 0-.912.112-1.296.336a2.315 2.315 0 00-.912.928c-.224.405-.336.875-.336 1.408 0 .533.112 1.003.336 1.408.224.405.528.72.912.944.384.213.816.32 1.296.32zm15.39 1.712c-.864 0-1.643-.187-2.336-.56A4.147 4.147 0 01162.903 60c-.384-.672-.576-1.43-.576-2.272 0-.843.192-1.595.576-2.256a4.147 4.147 0 011.632-1.552c.693-.373 1.472-.56 2.336-.56.874 0 1.658.187 2.352.56a4.04 4.04 0 011.616 1.552c.394.661.592 1.413.592 2.256 0 .843-.198 1.6-.592 2.272a4.047 4.047 0 01-1.616 1.552c-.694.373-1.478.56-2.352.56zm0-1.712c.736 0 1.344-.245 1.824-.736.48-.49.72-1.136.72-1.936s-.24-1.445-.72-1.936c-.48-.49-1.088-.736-1.824-.736s-1.344.245-1.824.736c-.47.49-.704 1.136-.704 1.936s.234 1.445.704 1.936c.48.49 1.088.736 1.824.736zm9.944-8.768c-.842 0-1.264.459-1.264 1.376v.512h2.352v1.6h-2.288V62h-2v-6.88h-1.408v-1.6h1.408v-.544c0-.917.267-1.637.8-2.16.534-.533 1.286-.8 2.256-.8.768 0 1.371.155 1.808.464l-.56 1.504a1.91 1.91 0 00-1.104-.352zm10.52 10.528a8.627 8.627 0 01-2.512-.368c-.8-.245-1.434-.57-1.904-.976l.72-1.616c.459.363 1.019.661 1.68.896a6.342 6.342 0 002.016.336c.832 0 1.451-.133 1.856-.4.416-.267.624-.619.624-1.056a.987.987 0 00-.352-.784 2.273 2.273 0 00-.864-.496 19.44 19.44 0 00-1.44-.4c-.853-.203-1.546-.405-2.08-.608a3.527 3.527 0 01-1.36-.944c-.373-.437-.56-1.024-.56-1.76 0-.619.166-1.179.496-1.68.342-.512.848-.917 1.52-1.216.683-.299 1.515-.448 2.496-.448a8.03 8.03 0 012.016.256c.662.17 1.232.416 1.712.736l-.656 1.616a6.447 6.447 0 00-1.536-.656 5.741 5.741 0 00-1.552-.224c-.821 0-1.434.139-1.84.416-.394.277-.592.645-.592 1.104 0 .32.112.581.336.784.235.203.528.363.88.48.352.117.832.25 1.44.4.832.192 1.515.395 2.048.608.534.203.987.517 1.36.944.384.427.576 1.003.576 1.728 0 .619-.17 1.179-.512 1.68-.33.501-.837.901-1.52 1.2-.682.299-1.514.448-2.496.448zm11.535-.624a2.355 2.355 0 01-.864.432 3.774 3.774 0 01-1.056.144c-.939 0-1.664-.245-2.176-.736-.512-.49-.768-1.205-.768-2.144V55.12h-1.408v-1.6h1.408v-1.952h2v1.952h2.288v1.6h-2.288v4.064c0 .416.101.736.304.96.203.213.496.32.88.32.448 0 .821-.117 1.12-.352l.56 1.424zm9.917-8.08V62h-1.904v-1.088c-.32.384-.72.683-1.2.896-.48.203-.997.304-1.552.304-1.141 0-2.043-.315-2.704-.944-.651-.64-.976-1.584-.976-2.832v-4.88h2v4.608c0 .768.171 1.344.512 1.728.352.373.848.56 1.488.56.715 0 1.28-.219 1.696-.656.427-.448.64-1.088.64-1.92v-4.32h2zm10.987-3.328V62h-1.92v-1.104a3.09 3.09 0 01-1.232.912 4.076 4.076 0 01-1.6.304c-.822 0-1.563-.181-2.224-.544a3.934 3.934 0 01-1.536-1.536c-.374-.672-.56-1.44-.56-2.304 0-.864.186-1.627.56-2.288a3.934 3.934 0 011.536-1.536c.661-.363 1.402-.544 2.224-.544.565 0 1.082.096 1.552.288.469.192.869.48 1.2.864v-4.384h2zM215.262 60.4c.48 0 .912-.107 1.296-.32a2.43 2.43 0 00.912-.944c.224-.405.336-.875.336-1.408 0-.533-.112-1.003-.336-1.408a2.315 2.315 0 00-.912-.928 2.524 2.524 0 00-1.296-.336c-.48 0-.912.112-1.296.336a2.315 2.315 0 00-.912.928c-.224.405-.336.875-.336 1.408 0 .533.112 1.003.336 1.408.224.405.528.72.912.944.384.213.816.32 1.296.32zm7.128-6.944h2V62h-2v-8.544zm1.008-1.408a1.3 1.3 0 01-.912-.336 1.15 1.15 0 01-.368-.864 1.1 1.1 0 01.368-.848c.245-.235.549-.352.912-.352a1.3 1.3 0 01.912.336c.245.213.368.485.368.816 0 .352-.123.65-.368.896-.235.235-.539.352-.912.352zm11.649 5.728c0 .139-.011.336-.032.592h-6.704c.117.63.421 1.13.912 1.504.501.363 1.12.544 1.856.544.939 0 1.712-.31 2.32-.928l1.072 1.232a3.61 3.61 0 01-1.456 1.04c-.587.235-1.248.352-1.984.352-.939 0-1.765-.187-2.48-.56A4.104 4.104 0 01226.887 60c-.384-.672-.576-1.43-.576-2.272 0-.832.187-1.579.56-2.24a4.069 4.069 0 011.584-1.568c.672-.373 1.429-.56 2.272-.56.832 0 1.573.187 2.224.56.661.363 1.173.88 1.536 1.552.373.661.56 1.43.56 2.304zm-4.32-2.816c-.64 0-1.184.192-1.632.576-.437.373-.704.875-.8 1.504h4.848c-.085-.619-.347-1.12-.784-1.504-.437-.384-.981-.576-1.632-.576zm8.881 7.152c-.693 0-1.37-.09-2.032-.272-.661-.181-1.189-.41-1.584-.688l.768-1.52c.384.256.843.464 1.376.624.544.15 1.078.224 1.6.224 1.195 0 1.792-.315 1.792-.944 0-.299-.154-.507-.464-.624-.298-.117-.784-.23-1.456-.336-.704-.107-1.28-.23-1.728-.368a2.74 2.74 0 01-1.152-.72c-.32-.352-.48-.837-.48-1.456 0-.81.336-1.456 1.008-1.936.683-.49 1.6-.736 2.752-.736.587 0 1.174.07 1.76.208.587.128 1.067.304 1.44.528l-.768 1.52c-.725-.427-1.541-.64-2.448-.64-.586 0-1.034.09-1.344.272-.298.17-.448.4-.448.688 0 .32.16.55.48.688.331.128.838.25 1.52.368.683.107 1.243.23 1.68.368.438.139.811.373 1.12.704.32.33.48.8.48 1.408 0 .8-.346 1.44-1.04 1.92-.693.48-1.637.72-2.832.72zm10.017-8.656h2V62h-2v-8.544zm1.008-1.408a1.3 1.3 0 01-.912-.336 1.147 1.147 0 01-.368-.864c0-.341.122-.624.368-.848.245-.235.549-.352.912-.352.362 0 .666.112.912.336.245.213.368.485.368.816 0 .352-.123.65-.368.896-.235.235-.539.352-.912.352zm8.465 1.312c1.077 0 1.941.315 2.592.944.65.63.976 1.563.976 2.8V62h-2v-4.64c0-.747-.176-1.307-.528-1.68-.352-.384-.854-.576-1.504-.576-.736 0-1.318.224-1.744.672-.427.437-.64 1.072-.64 1.904V62h-2v-8.544h1.904v1.104c.33-.395.746-.693 1.248-.896.501-.203 1.066-.304 1.696-.304zm15.535 8.8c-1.547 0-2.752-.432-3.616-1.296-.864-.875-1.296-2.123-1.296-3.744V50.8h2.08v6.24c0 2.197.949 3.296 2.848 3.296 1.888 0 2.832-1.099 2.832-3.296V50.8h2.048v6.32c0 1.621-.432 2.87-1.296 3.744-.854.864-2.054 1.296-3.6 1.296zm11.281 0a8.622 8.622 0 01-2.512-.368c-.8-.245-1.435-.57-1.904-.976l.72-1.616c.458.363 1.018.661 1.68.896a6.342 6.342 0 002.016.336c.832 0 1.45-.133 1.856-.4.416-.267.624-.619.624-1.056a.99.99 0 00-.352-.784 2.273 2.273 0 00-.864-.496 19.44 19.44 0 00-1.44-.4c-.854-.203-1.547-.405-2.08-.608a3.52 3.52 0 01-1.36-.944c-.374-.437-.56-1.024-.56-1.76 0-.619.165-1.179.496-1.68.341-.512.848-.917 1.52-1.216.682-.299 1.514-.448 2.496-.448.682 0 1.354.085 2.016.256.661.17 1.232.416 1.711.736l-.655 1.616a6.482 6.482 0 00-1.536-.656 5.752 5.752 0 00-1.552-.224c-.822 0-1.435.139-1.84.416-.395.277-.592.645-.592 1.104 0 .32.112.581.336.784.234.203.528.363.88.48.352.117.832.25 1.44.4.832.192 1.514.395 2.048.608.533.203.986.517 1.36.944.384.427.576 1.003.576 1.728a2.92 2.92 0 01-.512 1.68c-.331.501-.838.901-1.52 1.2-.683.299-1.515.448-2.496.448zm13.854-2.752h-5.6L293.064 62h-2.144l5.04-11.2h2.048l5.056 11.2h-2.176l-1.12-2.592zm-.688-1.632l-2.112-4.896-2.096 4.896h4.208z" fill="#333"/><path d="M48 63.6h254.984v.8H48v-.8zm729.926-12.8h2.08V62h-2.08V50.8zm9.765 2.56c1.078 0 1.942.315 2.592.944.651.63.976 1.563.976 2.8V62h-2v-4.64c0-.747-.176-1.307-.528-1.68-.352-.384-.853-.576-1.504-.576-.736 0-1.317.224-1.744.672-.426.437-.64 1.072-.64 1.904V62h-2v-8.544h1.904v1.104a3.131 3.131 0 011.248-.896c.502-.203 1.067-.304 1.696-.304zm11.241 8.176a2.34 2.34 0 01-.864.432c-.33.096-.682.144-1.056.144-.938 0-1.664-.245-2.176-.736-.512-.49-.768-1.205-.768-2.144V55.12h-1.408v-1.6h1.408v-1.952h2v1.952h2.288v1.6h-2.288v4.064c0 .416.102.736.304.96.203.213.496.32.88.32.448 0 .822-.117 1.12-.352l.56 1.424zm9.396-3.76c0 .139-.01.336-.032.592h-6.704c.118.63.422 1.13.912 1.504.502.363 1.12.544 1.856.544.939 0 1.712-.31 2.32-.928l1.072 1.232a3.61 3.61 0 01-1.456 1.04c-.586.235-1.248.352-1.984.352-.938 0-1.765-.187-2.48-.56A4.11 4.11 0 01800.168 60c-.384-.672-.576-1.43-.576-2.272 0-.832.187-1.579.56-2.24a4.069 4.069 0 011.584-1.568c.672-.373 1.43-.56 2.272-.56.832 0 1.574.187 2.224.56a3.77 3.77 0 011.536 1.552c.374.661.56 1.43.56 2.304zm-4.32-2.816c-.64 0-1.184.192-1.632.576-.437.373-.704.875-.8 1.504h4.848c-.085-.619-.346-1.12-.784-1.504-.437-.384-.981-.576-1.632-.576zm8.146-.256c.576-.896 1.589-1.344 3.04-1.344v1.904a2.548 2.548 0 00-.464-.048c-.779 0-1.387.23-1.824.688-.438.448-.656 1.099-.656 1.952V62h-2v-8.544h1.904v1.248zm9.584-1.344c1.077 0 1.941.315 2.592.944.651.63.976 1.563.976 2.8V62h-2v-4.64c0-.747-.176-1.307-.528-1.68-.352-.384-.853-.576-1.504-.576-.736 0-1.317.224-1.744.672-.427.437-.64 1.072-.64 1.904V62h-2v-8.544h1.904v1.104a3.131 3.131 0 011.248-.896c.501-.203 1.067-.304 1.696-.304zm9.369 0c1.259 0 2.219.304 2.88.912.672.597 1.008 1.504 1.008 2.72V62h-1.888v-1.04c-.245.373-.597.661-1.056.864-.448.192-.992.288-1.632.288-.64 0-1.2-.107-1.68-.32-.48-.224-.853-.528-1.12-.912a2.388 2.388 0 01-.384-1.328c0-.768.283-1.381.848-1.84.576-.47 1.478-.704 2.704-.704h2.208v-.128c0-.597-.181-1.056-.544-1.376-.352-.32-.88-.48-1.584-.48-.48 0-.954.075-1.424.224-.458.15-.848.357-1.168.624l-.784-1.456c.448-.341.987-.603 1.616-.784a7.195 7.195 0 012-.272zm-.272 7.296c.502 0 .944-.112 1.328-.336.395-.235.672-.565.832-.992v-.992h-2.064c-1.152 0-1.728.379-1.728 1.136 0 .363.144.65.432.864.288.213.688.32 1.2.32zm11.863.88a2.355 2.355 0 01-.864.432 3.774 3.774 0 01-1.056.144c-.939 0-1.664-.245-2.176-.736-.512-.49-.768-1.205-.768-2.144V55.12h-1.408v-1.6h1.408v-1.952h2v1.952h2.288v1.6h-2.288v4.064c0 .416.101.736.304.96.203.213.496.32.88.32.448 0 .821-.117 1.12-.352l.56 1.424zm1.645-8.08h2V62h-2v-8.544zm1.008-1.408c-.362 0-.666-.112-.912-.336a1.15 1.15 0 01-.368-.864 1.1 1.1 0 01.368-.848 1.27 1.27 0 01.912-.352 1.3 1.3 0 01.912.336c.246.213.368.485.368.816 0 .352-.122.65-.368.896-.234.235-.538.352-.912.352zm7.457 10.064c-.864 0-1.642-.187-2.336-.56A4.16 4.16 0 01848.84 60c-.384-.672-.576-1.43-.576-2.272 0-.843.192-1.595.576-2.256a4.16 4.16 0 011.632-1.552c.694-.373 1.472-.56 2.336-.56.875 0 1.659.187 2.352.56a4.04 4.04 0 011.616 1.552c.395.661.592 1.413.592 2.256 0 .843-.197 1.6-.592 2.272a4.04 4.04 0 01-1.616 1.552c-.693.373-1.477.56-2.352.56zm0-1.712c.736 0 1.344-.245 1.824-.736.48-.49.72-1.136.72-1.936s-.24-1.445-.72-1.936c-.48-.49-1.088-.736-1.824-.736s-1.344.245-1.824.736c-.469.49-.704 1.136-.704 1.936s.235 1.445.704 1.936c.48.49 1.088.736 1.824.736zm11.321-7.04c1.077 0 1.941.315 2.592.944.65.63.976 1.563.976 2.8V62h-2v-4.64c0-.747-.176-1.307-.528-1.68-.352-.384-.854-.576-1.504-.576-.736 0-1.318.224-1.744.672-.427.437-.64 1.072-.64 1.904V62h-2v-8.544h1.904v1.104c.33-.395.746-.693 1.248-.896.501-.203 1.066-.304 1.696-.304zm9.369 0c1.259 0 2.219.304 2.88.912.672.597 1.008 1.504 1.008 2.72V62h-1.888v-1.04c-.245.373-.597.661-1.056.864-.448.192-.992.288-1.632.288-.64 0-1.2-.107-1.68-.32-.48-.224-.853-.528-1.12-.912a2.388 2.388 0 01-.384-1.328c0-.768.283-1.381.848-1.84.576-.47 1.477-.704 2.704-.704h2.208v-.128c0-.597-.181-1.056-.544-1.376-.352-.32-.88-.48-1.584-.48-.48 0-.955.075-1.424.224-.459.15-.848.357-1.168.624l-.784-1.456c.448-.341.987-.603 1.616-.784a7.19 7.19 0 012-.272zm-.272 7.296c.501 0 .944-.112 1.328-.336.395-.235.672-.565.832-.992v-.992h-2.064c-1.152 0-1.728.379-1.728 1.136 0 .363.144.65.432.864.288.213.688.32 1.2.32zm6.727-10.528h2V62h-2V50.128zm12.711 12.032a8.622 8.622 0 01-2.512-.368c-.8-.245-1.435-.57-1.904-.976l.72-1.616c.458.363 1.018.661 1.68.896a6.342 6.342 0 002.016.336c.832 0 1.45-.133 1.856-.4.416-.267.624-.619.624-1.056a.99.99 0 00-.352-.784 2.273 2.273 0 00-.864-.496 19.44 19.44 0 00-1.44-.4c-.854-.203-1.547-.405-2.08-.608a3.52 3.52 0 01-1.36-.944c-.374-.437-.56-1.024-.56-1.76 0-.619.165-1.179.496-1.68.341-.512.848-.917 1.52-1.216.682-.299 1.514-.448 2.496-.448.682 0 1.354.085 2.016.256.661.17 1.232.416 1.711.736l-.655 1.616a6.482 6.482 0 00-1.536-.656 5.752 5.752 0 00-1.552-.224c-.822 0-1.435.139-1.84.416-.395.277-.592.645-.592 1.104 0 .32.112.581.336.784.234.203.528.363.88.48.352.117.832.25 1.44.4.832.192 1.514.395 2.048.608.533.203.986.517 1.36.944.384.427.576 1.003.576 1.728a2.92 2.92 0 01-.512 1.68c-.331.501-.838.901-1.52 1.2-.683.299-1.515.448-2.496.448zm11.534-.624a2.355 2.355 0 01-.864.432 3.774 3.774 0 01-1.056.144c-.939 0-1.664-.245-2.176-.736-.512-.49-.768-1.205-.768-2.144V55.12h-1.408v-1.6h1.408v-1.952h2v1.952h2.288v1.6h-2.288v4.064c0 .416.101.736.304.96.203.213.496.32.88.32.448 0 .821-.117 1.12-.352l.56 1.424zm9.917-8.08V62h-1.904v-1.088c-.32.384-.72.683-1.2.896-.48.203-.997.304-1.552.304-1.141 0-2.042-.315-2.704-.944-.65-.64-.976-1.584-.976-2.832v-4.88h2v4.608c0 .768.171 1.344.512 1.728.352.373.848.56 1.488.56.715 0 1.28-.219 1.696-.656.427-.448.64-1.088.64-1.92v-4.32h2zm10.987-3.328V62h-1.92v-1.104a3.08 3.08 0 01-1.232.912 4.072 4.072 0 01-1.6.304c-.821 0-1.563-.181-2.224-.544a3.934 3.934 0 01-1.536-1.536c-.373-.672-.56-1.44-.56-2.304 0-.864.187-1.627.56-2.288a3.934 3.934 0 011.536-1.536c.661-.363 1.403-.544 2.224-.544.565 0 1.083.096 1.552.288.469.192.869.48 1.2.864v-4.384h2zM920.59 60.4c.48 0 .912-.107 1.296-.32a2.43 2.43 0 00.912-.944c.224-.405.336-.875.336-1.408 0-.533-.112-1.003-.336-1.408a2.315 2.315 0 00-.912-.928 2.524 2.524 0 00-1.296-.336c-.48 0-.912.112-1.296.336a2.315 2.315 0 00-.912.928c-.224.405-.336.875-.336 1.408 0 .533.112 1.003.336 1.408.224.405.528.72.912.944.384.213.816.32 1.296.32zm15.16-2.624c0 .139-.01.336-.032.592h-6.704c.118.63.422 1.13.912 1.504.502.363 1.12.544 1.856.544.939 0 1.712-.31 2.32-.928l1.072 1.232a3.61 3.61 0 01-1.456 1.04c-.586.235-1.248.352-1.984.352-.938 0-1.765-.187-2.48-.56A4.11 4.11 0 01927.59 60c-.384-.672-.576-1.43-.576-2.272 0-.832.187-1.579.56-2.24a4.069 4.069 0 011.584-1.568c.672-.373 1.43-.56 2.272-.56.832 0 1.574.187 2.224.56a3.77 3.77 0 011.536 1.552c.374.661.56 1.43.56 2.304zm-4.32-2.816c-.64 0-1.184.192-1.632.576-.437.373-.704.875-.8 1.504h4.848c-.085-.619-.346-1.12-.784-1.504-.437-.384-.981-.576-1.632-.576zm11.089-1.6c1.078 0 1.942.315 2.592.944.651.63.976 1.563.976 2.8V62h-2v-4.64c0-.747-.176-1.307-.528-1.68-.352-.384-.853-.576-1.504-.576-.736 0-1.317.224-1.744.672-.426.437-.64 1.072-.64 1.904V62h-2v-8.544h1.904v1.104a3.131 3.131 0 011.248-.896c.502-.203 1.067-.304 1.696-.304zm11.242 8.176a2.355 2.355 0 01-.864.432 3.774 3.774 0 01-1.056.144c-.939 0-1.664-.245-2.177-.736-.511-.49-.767-1.205-.767-2.144V55.12h-1.408v-1.6h1.408v-1.952h2v1.952h2.288v1.6h-2.288v4.064c0 .416.101.736.304.96.202.213.496.32.88.32.448 0 .821-.117 1.12-.352l.56 1.424zm4.285.576c-.694 0-1.371-.09-2.032-.272-.662-.181-1.19-.41-1.584-.688l.768-1.52a5.11 5.11 0 001.376.624 6 6 0 001.6.224c1.194 0 1.792-.315 1.792-.944 0-.299-.155-.507-.464-.624-.299-.117-.784-.23-1.456-.336-.704-.107-1.28-.23-1.728-.368a2.729 2.729 0 01-1.152-.72c-.32-.352-.48-.837-.48-1.456 0-.81.336-1.456 1.008-1.936.682-.49 1.6-.736 2.752-.736.586 0 1.173.07 1.76.208.586.128 1.066.304 1.44.528l-.768 1.52c-.726-.427-1.542-.64-2.448-.64-.587 0-1.035.09-1.344.272-.299.17-.448.4-.448.688 0 .32.16.55.48.688.33.128.837.25 1.52.368.682.107 1.242.23 1.68.368.437.139.81.373 1.12.704.32.33.48.8.48 1.408 0 .8-.347 1.44-1.04 1.92-.694.48-1.638.72-2.832.72zm12.288-9.568v3.408h5.408v1.76h-5.408V62h-2.08V50.8h8.176v1.744h-6.096zm7.759.912h2V62h-2v-8.544zm1.008-1.408c-.362 0-.666-.112-.912-.336a1.15 1.15 0 01-.368-.864 1.1 1.1 0 01.368-.848 1.27 1.27 0 01.912-.352 1.3 1.3 0 01.912.336c.246.213.368.485.368.816 0 .352-.122.65-.368.896-.234.235-.538.352-.912.352zm11.649 5.728c0 .139-.01.336-.032.592h-6.704c.118.63.422 1.13.912 1.504.502.363 1.12.544 1.856.544.939 0 1.712-.31 2.32-.928l1.072 1.232a3.61 3.61 0 01-1.456 1.04c-.586.235-1.248.352-1.984.352-.938 0-1.765-.187-2.48-.56A4.11 4.11 0 01982.59 60c-.384-.672-.576-1.43-.576-2.272 0-.832.187-1.579.56-2.24a4.069 4.069 0 011.584-1.568c.672-.373 1.43-.56 2.272-.56.832 0 1.574.187 2.224.56a3.77 3.77 0 011.536 1.552c.374.661.56 1.43.56 2.304zm-4.32-2.816c-.64 0-1.184.192-1.632.576-.437.373-.704.875-.8 1.504h4.848c-.085-.619-.346-1.12-.784-1.504-.437-.384-.981-.576-1.632-.576zm6.241-4.832h2V62h-2V50.128zm12.989 0V62h-1.92v-1.104c-.33.405-.74.71-1.23.912-.48.203-1.01.304-1.6.304-.82 0-1.56-.181-2.222-.544a3.947 3.947 0 01-1.536-1.536c-.373-.672-.56-1.44-.56-2.304 0-.864.187-1.627.56-2.288a3.947 3.947 0 011.536-1.536c.662-.363 1.402-.544 2.222-.544.57 0 1.09.096 1.55.288.47.192.87.48 1.2.864v-4.384h2zm-4.51 10.272c.48 0 .91-.107 1.3-.32.38-.224.69-.539.91-.944.22-.405.34-.875.34-1.408a2.91 2.91 0 00-.34-1.408 2.31 2.31 0 00-.91-.928 2.555 2.555 0 00-1.3-.336c-.48 0-.91.112-1.294.336a2.315 2.315 0 00-.912.928c-.224.405-.336.875-.336 1.408 0 .533.112 1.003.336 1.408.224.405.528.72.912.944.384.213.814.32 1.294.32zm15.39 1.712c-.86 0-1.64-.187-2.33-.56-.7-.373-1.24-.89-1.64-1.552-.38-.672-.57-1.43-.57-2.272 0-.843.19-1.595.57-2.256.4-.661.94-1.179 1.64-1.552.69-.373 1.47-.56 2.33-.56.88 0 1.66.187 2.35.56.7.373 1.24.89 1.62 1.552.4.661.59 1.413.59 2.256 0 .843-.19 1.6-.59 2.272a3.988 3.988 0 01-1.62 1.552c-.69.373-1.47.56-2.35.56zm0-1.712c.74 0 1.35-.245 1.83-.736.48-.49.72-1.136.72-1.936s-.24-1.445-.72-1.936c-.48-.49-1.09-.736-1.83-.736-.73 0-1.34.245-1.82.736-.47.49-.71 1.136-.71 1.936s.24 1.445.71 1.936c.48.49 1.09.736 1.82.736zm9.95-8.768c-.85 0-1.27.459-1.27 1.376v.512h2.36v1.6h-2.29V62h-2v-6.88h-1.41v-1.6h1.41v-.544c0-.917.26-1.637.8-2.16.53-.533 1.28-.8 2.25-.8.77 0 1.37.155 1.81.464l-.56 1.504a1.907 1.907 0 00-1.1-.352zm10.52 10.528c-.87 0-1.7-.123-2.51-.368-.8-.245-1.44-.57-1.91-.976l.72-1.616c.46.363 1.02.661 1.68.896.67.224 1.35.336 2.02.336.83 0 1.45-.133 1.85-.4.42-.267.63-.619.63-1.056 0-.32-.12-.581-.35-.784a2.363 2.363 0 00-.87-.496c-.35-.117-.83-.25-1.44-.4-.85-.203-1.55-.405-2.08-.608a3.587 3.587 0 01-1.36-.944c-.37-.437-.56-1.024-.56-1.76 0-.619.17-1.179.5-1.68.34-.512.85-.917 1.52-1.216.68-.299 1.51-.448 2.49-.448.69 0 1.36.085 2.02.256.66.17 1.23.416 1.71.736l-.65 1.616a6.727 6.727 0 00-1.54-.656 5.722 5.722 0 00-1.55-.224c-.82 0-1.44.139-1.84.416-.4.277-.59.645-.59 1.104 0 .32.11.581.33.784.24.203.53.363.88.48.35.117.83.25 1.44.4.83.192 1.52.395 2.05.608.53.203.99.517 1.36.944.38.427.58 1.003.58 1.728 0 .619-.18 1.179-.52 1.68-.33.501-.83.901-1.52 1.2-.68.299-1.51.448-2.49.448zm11.53-.624c-.23.192-.52.336-.86.432-.33.096-.68.144-1.06.144-.94 0-1.66-.245-2.17-.736-.52-.49-.77-1.205-.77-2.144V55.12h-1.41v-1.6h1.41v-1.952h2v1.952h2.29v1.6h-2.29v4.064c0 .416.1.736.3.96.2.213.5.32.88.32.45 0 .82-.117 1.12-.352l.56 1.424zm9.92-8.08V62h-1.9v-1.088c-.32.384-.72.683-1.2.896-.48.203-1 .304-1.56.304-1.14 0-2.04-.315-2.7-.944-.65-.64-.98-1.584-.98-2.832v-4.88h2v4.608c0 .768.17 1.344.52 1.728.35.373.84.56 1.48.56.72 0 1.28-.219 1.7-.656.43-.448.64-1.088.64-1.92v-4.32h2zm10.99-3.328V62h-1.92v-1.104c-.34.405-.75.71-1.24.912-.48.203-1.01.304-1.6.304-.82 0-1.56-.181-2.22-.544a3.997 3.997 0 01-1.54-1.536c-.37-.672-.56-1.44-.56-2.304 0-.864.19-1.627.56-2.288.38-.661.89-1.173 1.54-1.536.66-.363 1.4-.544 2.22-.544.57 0 1.09.096 1.56.288.46.192.86.48 1.2.864v-4.384h2zm-4.52 10.272c.48 0 .92-.107 1.3-.32.38-.224.69-.539.91-.944.23-.405.34-.875.34-1.408 0-.533-.11-1.003-.34-1.408a2.31 2.31 0 00-.91-.928 2.528 2.528 0 00-1.3-.336c-.48 0-.91.112-1.29.336-.39.213-.69.523-.91.928-.23.405-.34.875-.34 1.408 0 .533.11 1.003.34 1.408.22.405.52.72.91.944.38.213.81.32 1.29.32zm15.13-6.944l-4 9.232c-.37.928-.82 1.579-1.36 1.952-.53.384-1.18.576-1.93.576-.43 0-.85-.07-1.27-.208-.41-.139-.76-.33-1.02-.576l.8-1.472c.19.181.41.325.67.432.27.107.53.16.8.16.35 0 .64-.09.86-.272.24-.181.45-.485.64-.912l.15-.336-3.73-8.576h2.08l2.69 6.32 2.7-6.32h1.92z" fill="#333"/><path d="M776.422 63.6H1080v.8H776.422v-.8z" fill="#333"/></svg>