<svg width="552" height="344" fill="none" xmlns="http://www.w3.org/2000/svg"><rect width="552" height="344" rx="24" fill="#F6F7FE"/><path d="M412.001 166c0 72.902-59.098 132-132 132s-132-59.098-132-132 59.098-132 132-132 132 59.098 132 132zm-231 0c0 54.676 44.324 99 99 99s99-44.324 99-99-44.324-99-99-99-99 44.324-99 99z" fill="#D0D7FB"/><path d="M401.853 171.985c5.516.271 9.807 4.971 9.12 10.451a132.003 132.003 0 01-163.045 111.608 132 132 0 0128.551-259.997c5.521-.147 9.777 4.584 9.506 10.1l-.638 12.984c-.27 5.516-4.971 9.716-10.486 10.002a99.002 99.002 0 00-92.789 113.394 99.003 99.003 0 0073.874 81.506 99 99 0 00121.941-81.23c.826-5.46 5.465-9.726 10.982-9.456l12.984.638z" fill="#7287F3"/><path d="M399.448 312.152l-.72 3.588h4.464l-.108.552h-4.464l-.744 3.708h-.612l1.68-8.4h5.616l-.12.552h-4.992zm7.635 7.896c-.848 0-1.524-.236-2.028-.708-.496-.472-.744-1.104-.744-1.896 0-.712.152-1.352.456-1.92a3.515 3.515 0 011.284-1.344c.544-.328 1.16-.492 1.848-.492.848 0 1.52.236 2.016.708.504.464.756 1.096.756 1.896a3.99 3.99 0 01-.468 1.932 3.428 3.428 0 01-1.272 1.344c-.544.32-1.16.48-1.848.48zm.048-.54c.56 0 1.06-.136 1.5-.408.448-.272.8-.648 1.056-1.128a3.485 3.485 0 00.384-1.644c0-.664-.196-1.18-.588-1.548-.384-.368-.928-.552-1.632-.552-.56 0-1.064.14-1.512.42a2.88 2.88 0 00-1.044 1.14 3.388 3.388 0 00-.384 1.62c0 .664.192 1.18.576 1.548.392.368.94.552 1.644.552zm6.29-4.452c.28-.456.636-.796 1.068-1.02.44-.232.972-.348 1.596-.348l-.108.588-.192-.012c-.712 0-1.296.212-1.752.636-.456.424-.768 1.052-.936 1.884l-.648 3.216h-.6l1.248-6.264h.588l-.264 1.32zm7.325 3.132c-.032.152-.048.3-.048.444 0 .6.32.9.96.9.384 0 .724-.116 1.02-.348l.18.444c-.344.28-.792.42-1.344.42-.448 0-.8-.116-1.056-.348-.248-.24-.372-.568-.372-.984 0-.168.016-.328.048-.48l.804-3.984h-1.164l.096-.516h1.164l.276-1.368h.6l-.276 1.368h1.992l-.096.516h-1.992l-.792 3.936zm7.877-4.5c.712 0 1.26.18 1.644.54.384.352.576.84.576 1.464 0 .216-.024.444-.072.684l-.72 3.624h-.6l.72-3.624c.04-.184.06-.384.06-.6 0-.496-.152-.876-.456-1.14-.296-.272-.732-.408-1.308-.408-.72 0-1.32.204-1.8.612-.48.4-.796.984-.948 1.752l-.684 3.408h-.6l1.776-8.904h.6l-.756 3.804c.592-.808 1.448-1.212 2.568-1.212zm4.414 3.312a4.79 4.79 0 00-.024.396c0 .68.196 1.204.588 1.572.392.36.968.54 1.728.54.44 0 .844-.072 1.212-.216.376-.152.688-.36.936-.624l.276.42c-.28.304-.64.54-1.08.708a3.807 3.807 0 01-1.392.252c-.888 0-1.588-.232-2.1-.696-.504-.464-.756-1.108-.756-1.932 0-.704.148-1.34.444-1.908a3.34 3.34 0 011.224-1.332 3.215 3.215 0 011.752-.492c.816 0 1.464.232 1.944.696.48.464.72 1.104.72 1.92 0 .192-.024.424-.072.696h-5.4zm2.796-2.796c-.68 0-1.268.212-1.764.636-.488.424-.808.988-.96 1.692h4.824c.008-.072.012-.176.012-.312 0-.632-.192-1.124-.576-1.476-.384-.36-.896-.54-1.536-.54zm13.23-.468l-4.68 7.188c-.352.544-.688.92-1.008 1.128-.312.216-.684.324-1.116.324-.288 0-.56-.048-.816-.144a1.38 1.38 0 01-.6-.408l.348-.444c.28.312.656.468 1.128.468.288 0 .548-.08.78-.24.24-.16.492-.44.756-.84l.528-.792-1.584-6.24h.612l1.404 5.604 3.624-5.604h.624zm.392 3.264a4.79 4.79 0 00-.024.396c0 .68.196 1.204.588 1.572.392.36.968.54 1.728.54.44 0 .844-.072 1.212-.216.376-.152.688-.36.936-.624l.276.42c-.28.304-.64.54-1.08.708a3.807 3.807 0 01-1.392.252c-.888 0-1.588-.232-2.1-.696-.504-.464-.756-1.108-.756-1.932 0-.704.148-1.34.444-1.908a3.34 3.34 0 011.224-1.332 3.215 3.215 0 011.752-.492c.816 0 1.464.232 1.944.696.48.464.72 1.104.72 1.92 0 .192-.024.424-.072.696h-5.4zm2.796-2.796c-.68 0-1.268.212-1.764.636-.488.424-.808.988-.96 1.692h4.824c.008-.072.012-.176.012-.312 0-.632-.192-1.124-.576-1.476-.384-.36-.896-.54-1.536-.54zm10.688-.468L461.691 320h-.576l.24-1.224c-.304.4-.684.712-1.14.936a3.307 3.307 0 01-1.5.336c-.816 0-1.472-.232-1.968-.696-.488-.472-.732-1.108-.732-1.908 0-.712.152-1.352.456-1.92a3.35 3.35 0 011.26-1.344 3.464 3.464 0 011.824-.492c.648 0 1.184.14 1.608.42.424.28.712.676.864 1.188l.312-1.56h.6zm-4.104 5.772c.56 0 1.06-.136 1.5-.408.448-.272.8-.648 1.056-1.128a3.485 3.485 0 00.384-1.644c0-.664-.196-1.18-.588-1.548-.384-.368-.928-.552-1.632-.552-.56 0-1.064.14-1.512.42a2.88 2.88 0 00-1.044 1.14 3.388 3.388 0 00-.384 1.62c0 .664.192 1.18.576 1.548.392.368.94.552 1.644.552zm6.945-4.452c.28-.456.636-.796 1.068-1.02.44-.232.972-.348 1.596-.348l-.108.588-.192-.012c-.712 0-1.296.212-1.752.636-.456.424-.768 1.052-.936 1.884l-.648 3.216h-.6l1.248-6.264h.588l-.264 1.32zm6.533 4.392h4.812l-.108.552h-5.784l.096-.432 4.296-3.516c.624-.512 1.052-.952 1.284-1.32.24-.368.36-.76.36-1.176 0-.456-.164-.812-.492-1.068-.32-.264-.808-.396-1.464-.396a3.56 3.56 0 00-1.356.264 2.848 2.848 0 00-1.08.72l-.432-.372a3.44 3.44 0 011.284-.852 4.417 4.417 0 011.656-.312c.808 0 1.424.176 1.848.528.432.352.648.824.648 1.416 0 .496-.136.972-.408 1.428-.272.448-.748.948-1.428 1.5l-3.732 3.036zm9.175.612c-.832 0-1.484-.264-1.956-.792-.464-.528-.696-1.264-.696-2.208 0-.952.172-1.848.516-2.688.344-.848.832-1.532 1.464-2.052a3.355 3.355 0 012.196-.78c.832 0 1.48.264 1.944.792.464.528.696 1.264.696 2.208 0 .952-.172 1.852-.516 2.7-.336.84-.82 1.52-1.452 2.04s-1.364.78-2.196.78zm.06-.564c.704 0 1.32-.244 1.848-.732.536-.488.944-1.112 1.224-1.872.288-.76.432-1.54.432-2.34 0-.784-.184-1.388-.552-1.812-.368-.424-.884-.636-1.548-.636-.712 0-1.332.244-1.86.732s-.936 1.112-1.224 1.872c-.28.76-.42 1.54-.42 2.34 0 .784.18 1.388.54 1.812.368.424.888.636 1.56.636zm8.259-7.896l-1.68 8.4h-.612l1.572-7.848h-2.052l.108-.552h2.664zm5.802 4.08c.456.168.804.412 1.044.732.24.312.36.688.36 1.128 0 .512-.14.96-.42 1.344-.272.376-.66.668-1.164.876-.504.2-1.092.3-1.764.3-.944 0-1.684-.192-2.22-.576-.528-.392-.792-.928-.792-1.608 0-.616.196-1.128.588-1.536.392-.408.948-.68 1.668-.816-.376-.16-.664-.38-.864-.66a1.697 1.697 0 01-.288-.984c0-.472.124-.884.372-1.236.248-.36.6-.632 1.056-.816.456-.192.988-.288 1.596-.288.832 0 1.496.18 1.992.54.504.36.756.848.756 1.464 0 .544-.168 1.004-.504 1.38-.336.368-.808.62-1.416.756zm-3.228-1.836c0 .472.188.844.564 1.116.376.272.904.408 1.584.408.736 0 1.316-.156 1.74-.468.432-.32.648-.748.648-1.284 0-.48-.196-.856-.588-1.128-.392-.28-.92-.42-1.584-.42-.72 0-1.296.16-1.728.48-.424.32-.636.752-.636 1.296zm1.308 5.688c.84 0 1.5-.176 1.98-.528.488-.36.732-.844.732-1.452 0-.52-.216-.928-.648-1.224-.432-.304-1.032-.456-1.8-.456-.832 0-1.488.18-1.968.54-.48.352-.72.828-.72 1.428 0 .528.212.944.636 1.248.432.296 1.028.444 1.788.444zm8-3.024h3.084l-.108.54h-3.084l.108-.54zm7.772 2.94h4.812l-.108.552h-5.784l.096-.432 4.296-3.516c.624-.512 1.052-.952 1.284-1.32.24-.368.36-.76.36-1.176 0-.456-.164-.812-.492-1.068-.32-.264-.808-.396-1.464-.396a3.56 3.56 0 00-1.356.264 2.848 2.848 0 00-1.08.72l-.432-.372a3.44 3.44 0 011.284-.852 4.417 4.417 0 011.656-.312c.808 0 1.424.176 1.848.528.432.352.648.824.648 1.416 0 .496-.136.972-.408 1.428-.272.448-.748.948-1.428 1.5l-3.732 3.036zm9.175.612c-.832 0-1.484-.264-1.956-.792-.464-.528-.696-1.264-.696-2.208 0-.952.172-1.848.516-2.688.344-.848.832-1.532 1.464-2.052a3.355 3.355 0 012.196-.78c.832 0 1.48.264 1.944.792.464.528.696 1.264.696 2.208 0 .952-.172 1.852-.516 2.7-.336.84-.82 1.52-1.452 2.04s-1.364.78-2.196.78zm.06-.564c.704 0 1.32-.244 1.848-.732.536-.488.944-1.112 1.224-1.872.288-.76.432-1.54.432-2.34 0-.784-.184-1.388-.552-1.812-.368-.424-.884-.636-1.548-.636-.712 0-1.332.244-1.86.732s-.936 1.112-1.224 1.872c-.28.76-.42 1.54-.42 2.34 0 .784.18 1.388.54 1.812.368.424.888.636 1.56.636zm8.259-7.896l-1.68 8.4h-.612l1.572-7.848h-2.052l.108-.552h2.664zm4.302-.06c.912 0 1.64.28 2.184.84.544.552.816 1.356.816 2.412 0 .872-.156 1.708-.468 2.508-.304.8-.796 1.46-1.476 1.98-.68.52-1.544.78-2.592.78-.808 0-1.452-.148-1.932-.444l.3-.504c.416.272.976.408 1.68.408.864 0 1.58-.216 2.148-.648a3.86 3.86 0 001.26-1.656c.272-.672.42-1.384.444-2.136-.248.504-.612.88-1.092 1.128-.472.24-.996.36-1.572.36-.512 0-.972-.092-1.38-.276a2.22 2.22 0 01-.948-.804c-.232-.352-.348-.772-.348-1.26 0-.544.124-1.02.372-1.428a2.5 2.5 0 011.056-.936c.456-.216.972-.324 1.548-.324zm-.192 4.5c.48 0 .904-.092 1.272-.276.376-.184.664-.436.864-.756.208-.32.312-.672.312-1.056 0-.32-.088-.624-.264-.912-.168-.288-.424-.52-.768-.696-.336-.184-.744-.276-1.224-.276-.712 0-1.284.192-1.716.576-.424.376-.636.888-.636 1.536 0 .584.196 1.04.588 1.368.4.328.924.492 1.572.492z" fill="#000"/><path d="M209 278l-14.5 17.5H163" stroke="#8A9BF5" stroke-width="2" stroke-linecap="round" stroke-linejoin="round"/><g filter="url(#filter0_d)"><rect x="24" y="268" width="143" height="56" rx="8" fill="#fff"/><path d="M37.53 289.14c2.674 0 4.284-1.554 4.284-4.41v-5.53h-1.792v5.46c0 2.016-.896 2.884-2.478 2.884-1.582 0-2.492-.868-2.492-2.884v-5.46h-1.82v5.53c0 2.856 1.61 4.41 4.298 4.41zm13.525-2.1c-.63.364-1.316.504-2.016.504-2.072 0-3.542-1.456-3.542-3.444 0-2.03 1.47-3.444 3.556-3.444 1.05 0 1.932.35 2.702 1.12l1.148-1.12c-.924-1.05-2.296-1.596-3.934-1.596-3.066 0-5.306 2.114-5.306 5.04s2.24 5.04 5.278 5.04c1.386 0 2.814-.42 3.836-1.246v-3.906h-1.722v3.052zm9.56 4.676h1.666c-1.163-2.044-1.652-4.158-1.652-6.552 0-2.394.49-4.508 1.652-6.552h-1.666c-1.093 1.666-1.709 3.976-1.709 6.552 0 2.576.617 4.858 1.709 6.552zm2.361-12.516v3.206h1.694v-1.666h3.85L64.838 289h1.946l3.808-8.582V279.2h-7.616zm11.561 3.794H73.6l.21-2.268h4.215V279.2H72.27l-.504 5.334h2.367c2.03 0 2.631.588 2.631 1.526 0 .924-.77 1.498-2.072 1.498-1.106 0-2.17-.378-2.883-.966l-.77 1.414c.895.714 2.296 1.134 3.681 1.134 2.633 0 3.879-1.428 3.879-3.15 0-1.736-1.162-2.996-4.06-2.996zm7.157 1.484c1.4 0 2.352-1.064 2.352-2.688s-.952-2.688-2.352-2.688-2.338 1.078-2.338 2.688.939 2.688 2.339 2.688zM80.883 289h1.372l6.692-9.8h-1.371l-6.693 9.8zm.813-5.502c-.728 0-1.204-.63-1.204-1.708 0-1.078.475-1.708 1.204-1.708.756 0 1.204.616 1.204 1.708s-.448 1.708-1.204 1.708zm6.426 5.6c1.4 0 2.352-1.078 2.352-2.688s-.953-2.688-2.352-2.688c-1.4 0-2.338 1.078-2.338 2.688s.938 2.688 2.338 2.688zm0-.98c-.742 0-1.204-.616-1.204-1.708s.462-1.708 1.204-1.708 1.204.63 1.204 1.708c0 1.078-.463 1.708-1.204 1.708zm4.519 3.598c1.106-1.694 1.708-3.976 1.708-6.552 0-2.576-.602-4.886-1.708-6.552h-1.666c1.162 2.044 1.666 4.158 1.666 6.552 0 2.394-.504 4.508-1.666 6.552h1.666zm-55.852 15.53l2.38-2.828V303.2H32.49v1.526h4.452l-2.226 2.646v1.246h.896c1.484 0 2.128.574 2.128 1.456 0 .91-.77 1.484-2.072 1.484-1.106 0-2.17-.378-2.87-.966l-.784 1.414c.91.714 2.296 1.134 3.682 1.134 2.632 0 3.878-1.428 3.878-3.08 0-1.47-.938-2.576-2.786-2.814zm6.906-.252h-.938l.21-2.268h4.214V303.2h-5.754l-.504 5.334h2.366c2.03 0 2.632.588 2.632 1.526 0 .924-.77 1.498-2.072 1.498-1.106 0-2.17-.378-2.884-.966l-.77 1.414c.896.714 2.296 1.134 3.682 1.134 2.632 0 3.878-1.428 3.878-3.15 0-1.736-1.162-2.996-4.06-2.996zm9.197 6.146c2.339 0 4.102-1.82 4.102-5.04 0-3.22-1.764-5.04-4.102-5.04-2.323 0-4.087 1.82-4.087 5.04 0 3.22 1.764 5.04 4.087 5.04zm0-1.582c-1.33 0-2.253-1.092-2.253-3.458s.924-3.458 2.254-3.458c1.343 0 2.267 1.092 2.267 3.458s-.923 3.458-2.267 3.458zm6.274-.784c-.644 0-1.134.462-1.134 1.162 0 .504.266.868.658 1.036l-.56 2.142h1.134l.714-1.974c.252-.644.322-.896.322-1.204 0-.686-.476-1.162-1.134-1.162zm6.236 2.366c2.338 0 4.102-1.82 4.102-5.04 0-3.22-1.764-5.04-4.102-5.04-2.324 0-4.088 1.82-4.088 5.04 0 3.22 1.764 5.04 4.088 5.04zm0-1.582c-1.33 0-2.254-1.092-2.254-3.458s.924-3.458 2.254-3.458c1.344 0 2.268 1.092 2.268 3.458s-.924 3.458-2.268 3.458zm9.42 1.582c2.338 0 4.102-1.82 4.102-5.04 0-3.22-1.764-5.04-4.102-5.04-2.324 0-4.088 1.82-4.088 5.04 0 3.22 1.764 5.04 4.088 5.04zm0-1.582c-1.33 0-2.254-1.092-2.254-3.458s.924-3.458 2.254-3.458c1.344 0 2.268 1.092 2.268 3.458s-.924 3.458-2.268 3.458zm9.42 1.582c2.338 0 4.102-1.82 4.102-5.04 0-3.22-1.764-5.04-4.102-5.04-2.324 0-4.088 1.82-4.088 5.04 0 3.22 1.764 5.04 4.088 5.04zm0-1.582c-1.33 0-2.254-1.092-2.254-3.458s.924-3.458 2.254-3.458c1.344 0 2.268 1.092 2.268 3.458s-.924 3.458-2.268 3.458zm12.94 1.582c2.687 0 3.961-1.344 3.961-2.912 0-3.598-5.81-2.24-5.81-4.326 0-.742.616-1.33 2.128-1.33.854 0 1.82.252 2.702.77l.574-1.414c-.854-.56-2.086-.868-3.262-.868-2.688 0-3.948 1.344-3.948 2.926 0 3.64 5.824 2.254 5.824 4.368 0 .728-.644 1.274-2.17 1.274-1.204 0-2.45-.448-3.234-1.078l-.63 1.414c.812.7 2.338 1.176 3.864 1.176zm9.602-1.792c-.266.21-.616.308-.98.308-.672 0-1.036-.392-1.036-1.12v-3.556h2.002v-1.4h-2.002v-1.708h-1.75v1.708h-1.232v1.4h1.232v3.598c0 1.652.938 2.52 2.576 2.52.63 0 1.26-.168 1.68-.504l-.49-1.246zm7.417-5.824v3.78c0 1.498-.826 2.254-2.044 2.254-1.106 0-1.75-.644-1.75-2.002v-4.032h-1.75v4.27c0 2.254 1.302 3.304 3.22 3.304.966 0 1.848-.364 2.408-1.05V313h1.666v-7.476h-1.75zm9.614-2.912v3.836c-.588-.686-1.442-1.008-2.408-1.008-2.17 0-3.78 1.498-3.78 3.822s1.61 3.836 3.78 3.836c1.022 0 1.89-.35 2.478-1.064V313h1.68v-10.388h-1.75zm-2.198 8.988c-1.26 0-2.226-.91-2.226-2.338s.966-2.338 2.226-2.338 2.226.91 2.226 2.338-.966 2.338-2.226 2.338zm13.265-2.296c0-2.338-1.596-3.864-3.78-3.864-2.226 0-3.864 1.596-3.864 3.822s1.624 3.836 4.13 3.836c1.288 0 2.338-.42 3.01-1.218l-.938-1.078c-.532.546-1.19.812-2.03.812-1.302 0-2.212-.7-2.422-1.792h5.866c.014-.168.028-.378.028-.518zm-3.78-2.464c1.148 0 1.974.742 2.114 1.82h-4.242c.168-1.092.994-1.82 2.128-1.82zm9.703-1.4c-1.092 0-2.002.364-2.576 1.05v-.966h-1.666V313h1.75v-3.78c0-1.498.84-2.254 2.086-2.254 1.12 0 1.778.644 1.778 1.974V313h1.75v-4.284c0-2.254-1.33-3.276-3.122-3.276zm9.346 5.908c-.266.21-.616.308-.98.308-.672 0-1.036-.392-1.036-1.12v-3.556h2.002v-1.4h-2.002v-1.708h-1.75v1.708h-1.232v1.4h1.232v3.598c0 1.652.938 2.52 2.576 2.52.63 0 1.26-.168 1.68-.504l-.49-1.246zm4.24 1.75c2.1 0 3.388-.91 3.388-2.31 0-2.926-4.62-1.582-4.62-3.094 0-.49.504-.84 1.568-.84.714 0 1.428.14 2.142.56l.672-1.33c-.672-.406-1.806-.644-2.8-.644-2.016 0-3.29.924-3.29 2.338 0 2.982 4.62 1.638 4.62 3.066 0 .518-.462.826-1.568.826-.938 0-1.946-.308-2.604-.742l-.672 1.33c.672.476 1.918.84 3.164.84z" fill="#333"/></g><path d="M237.335 172.16a8.638 8.638 0 01-2.512-.368c-.8-.245-1.434-.571-1.904-.976l.72-1.616c.459.363 1.019.661 1.68.896a6.342 6.342 0 002.016.336c.832 0 1.451-.133 1.856-.4.416-.267.624-.619.624-1.056a.988.988 0 00-.352-.784 2.273 2.273 0 00-.864-.496 19.44 19.44 0 00-1.44-.4c-.853-.203-1.546-.405-2.08-.608a3.527 3.527 0 01-1.36-.944c-.373-.437-.56-1.024-.56-1.76 0-.619.166-1.179.496-1.68.342-.512.848-.917 1.52-1.216.683-.299 1.515-.448 2.496-.448.683 0 1.355.085 2.016.256.662.171 1.232.416 1.712.736l-.656 1.616a6.435 6.435 0 00-1.536-.656 5.753 5.753 0 00-1.552-.224c-.821 0-1.434.139-1.84.416-.394.277-.592.645-.592 1.104 0 .32.112.581.336.784.235.203.528.363.88.48.352.117.832.251 1.44.4.832.192 1.515.395 2.048.608.534.203.987.517 1.36.944.384.427.576 1.003.576 1.728 0 .619-.17 1.179-.512 1.68-.33.501-.837.901-1.52 1.2-.682.299-1.514.448-2.496.448zm11.535-.624a2.355 2.355 0 01-.864.432 3.774 3.774 0 01-1.056.144c-.939 0-1.664-.245-2.176-.736-.512-.491-.768-1.205-.768-2.144v-4.112h-1.408v-1.6h1.408v-1.952h2v1.952h2.288v1.6h-2.288v4.064c0 .416.101.736.304.96.203.213.496.32.88.32.448 0 .821-.117 1.12-.352l.56 1.424zm9.917-8.08V172h-1.904v-1.088c-.32.384-.72.683-1.2.896-.48.203-.997.304-1.552.304-1.141 0-2.043-.315-2.704-.944-.651-.64-.976-1.584-.976-2.832v-4.88h2v4.608c0 .768.171 1.344.512 1.728.352.373.848.56 1.488.56.715 0 1.28-.219 1.696-.656.427-.448.64-1.088.64-1.92v-4.32h2zm10.987-3.328V172h-1.92v-1.104a3.096 3.096 0 01-1.232.912 4.07 4.07 0 01-1.6.304c-.822 0-1.563-.181-2.224-.544a3.938 3.938 0 01-1.536-1.536c-.374-.672-.56-1.44-.56-2.304 0-.864.186-1.627.56-2.288a3.938 3.938 0 011.536-1.536c.661-.363 1.402-.544 2.224-.544.565 0 1.082.096 1.552.288.469.192.869.48 1.2.864v-4.384h2zm-4.512 10.272c.48 0 .912-.107 1.296-.32a2.43 2.43 0 00.912-.944c.224-.405.336-.875.336-1.408 0-.533-.112-1.003-.336-1.408a2.315 2.315 0 00-.912-.928 2.524 2.524 0 00-1.296-.336c-.48 0-.912.112-1.296.336a2.315 2.315 0 00-.912.928c-.224.405-.336.875-.336 1.408 0 .533.112 1.003.336 1.408.224.405.528.72.912.944.384.213.816.32 1.296.32zm15.128-6.944l-4 9.232c-.373.928-.827 1.579-1.36 1.952-.533.384-1.179.576-1.936.576-.427 0-.848-.069-1.264-.208a2.806 2.806 0 01-1.024-.576l.8-1.472c.192.181.416.325.672.432.267.107.533.16.8.16.352 0 .64-.091.864-.272.235-.181.448-.485.64-.912l.144-.336-3.728-8.576h2.08l2.688 6.32 2.704-6.32h1.92zm5.864-2.656h2.08v9.44h5.856V172h-7.936v-11.2zm17.34 6.976c0 .139-.011.336-.032.592h-6.704c.117.629.421 1.131.912 1.504.501.363 1.12.544 1.856.544.939 0 1.712-.309 2.32-.928l1.072 1.232a3.61 3.61 0 01-1.456 1.04c-.587.235-1.248.352-1.984.352-.939 0-1.765-.187-2.48-.56a4.104 4.104 0 01-1.664-1.552c-.384-.672-.576-1.429-.576-2.272 0-.832.187-1.579.56-2.24a4.067 4.067 0 011.584-1.568c.672-.373 1.429-.56 2.272-.56.832 0 1.573.187 2.224.56.661.363 1.173.88 1.536 1.552.373.661.56 1.429.56 2.304zm-4.32-2.816c-.64 0-1.184.192-1.632.576-.437.373-.704.875-.8 1.504h4.848c-.085-.619-.347-1.12-.784-1.504-.437-.384-.981-.576-1.632-.576zm14.085-1.504L309.695 172h-2.064l-3.664-8.544h2.08l2.656 6.336 2.736-6.336h1.92zm9.048 4.32c0 .139-.011.336-.032.592h-6.704c.117.629.421 1.131.912 1.504.501.363 1.12.544 1.856.544.938 0 1.712-.309 2.32-.928l1.072 1.232c-.384.459-.87.805-1.456 1.04-.587.235-1.248.352-1.984.352-.939 0-1.766-.187-2.48-.56a4.098 4.098 0 01-1.664-1.552c-.384-.672-.576-1.429-.576-2.272 0-.832.186-1.579.56-2.24a4.067 4.067 0 011.584-1.568c.672-.373 1.429-.56 2.272-.56.832 0 1.573.187 2.224.56.661.363 1.173.88 1.536 1.552.373.661.56 1.429.56 2.304zm-4.32-2.816c-.64 0-1.184.192-1.632.576-.438.373-.704.875-.8 1.504h4.848c-.086-.619-.347-1.12-.784-1.504-.438-.384-.982-.576-1.632-.576zm6.241-4.832h2V172h-2v-11.872z" fill="#333"/><path d="M232.359 173.6h95.281v.8h-95.281v-.8z" fill="#333"/><path d="M349 65.5L363.5 48H395" stroke="#D0D7FB" stroke-width="2" stroke-linecap="round" stroke-linejoin="round"/><g filter="url(#filter1_d)"><rect x="392" y="20" width="144" height="56" rx="8" fill="#fff"/><path d="M405.348 31.2h-4.032V41h1.82v-2.828h2.212c2.576 0 4.172-1.33 4.172-3.486 0-2.17-1.596-3.486-4.172-3.486zm-.084 5.432h-2.128V32.74h2.128c1.596 0 2.422.714 2.422 1.946s-.826 1.946-2.422 1.946zm12.902 2.408c-.63.364-1.316.504-2.016.504-2.072 0-3.542-1.456-3.542-3.444 0-2.03 1.47-3.444 3.556-3.444 1.05 0 1.932.35 2.702 1.12l1.148-1.12c-.924-1.05-2.296-1.596-3.934-1.596-3.066 0-5.306 2.114-5.306 5.04s2.24 5.04 5.278 5.04c1.386 0 2.814-.42 3.836-1.246v-3.906h-1.722v3.052zm9.56 4.676h1.666c-1.162-2.044-1.652-4.158-1.652-6.552 0-2.394.49-4.508 1.652-6.552h-1.666c-1.092 1.666-1.708 3.976-1.708 6.552 0 2.576.616 4.858 1.708 6.552zm11.048-6.482h-1.736V35.26h-1.708v1.974h-3.206l4.55-6.034h-1.946l-4.83 6.314v1.26h5.376V41h1.764v-2.226h1.736v-1.54zm3.203 2.226l2.618-2.492c1.358-1.274 1.624-2.142 1.624-3.094 0-1.736-1.372-2.814-3.5-2.814-1.61 0-2.968.602-3.724 1.624l1.274.98c.546-.7 1.344-1.022 2.296-1.022 1.204 0 1.82.518 1.82 1.414 0 .546-.168 1.12-1.12 2.03l-3.892 3.696V41h7.224v-1.54h-4.62zm7.991-2.982c1.4 0 2.352-1.064 2.352-2.688s-.952-2.688-2.352-2.688-2.338 1.078-2.338 2.688.938 2.688 2.338 2.688zM449.156 41h1.372l6.692-9.8h-1.372l-6.692 9.8zm.812-5.502c-.728 0-1.204-.63-1.204-1.708 0-1.078.476-1.708 1.204-1.708.756 0 1.204.616 1.204 1.708s-.448 1.708-1.204 1.708zm6.426 5.6c1.4 0 2.352-1.078 2.352-2.688s-.952-2.688-2.352-2.688-2.338 1.078-2.338 2.688.938 2.688 2.338 2.688zm0-.98c-.742 0-1.204-.616-1.204-1.708s.462-1.708 1.204-1.708 1.204.63 1.204 1.708c0 1.078-.462 1.708-1.204 1.708zm4.519 3.598c1.106-1.694 1.708-3.976 1.708-6.552 0-2.576-.602-4.886-1.708-6.552h-1.666c1.162 2.044 1.666 4.158 1.666 6.552 0 2.394-.504 4.508-1.666 6.552h1.666zm-51.561 17.518h-1.736V59.26h-1.708v1.974h-3.206l4.55-6.034h-1.946l-4.83 6.314v1.26h5.376V65h1.764v-2.226h1.736v-1.54zm4.801-1.988l2.38-2.828V55.2h-6.678v1.526h4.452l-2.226 2.646v1.246h.896c1.484 0 2.128.574 2.128 1.456 0 .91-.77 1.484-2.072 1.484-1.106 0-2.17-.378-2.87-.966l-.784 1.414c.91.714 2.296 1.134 3.682 1.134 2.632 0 3.878-1.428 3.878-3.08 0-1.47-.938-2.576-2.786-2.814zm8.065 5.894c2.338 0 4.102-1.82 4.102-5.04 0-3.22-1.764-5.04-4.102-5.04-2.324 0-4.088 1.82-4.088 5.04 0 3.22 1.764 5.04 4.088 5.04zm0-1.582c-1.33 0-2.254-1.092-2.254-3.458s.924-3.458 2.254-3.458c1.344 0 2.268 1.092 2.268 3.458s-.924 3.458-2.268 3.458zm6.274-.784c-.644 0-1.134.462-1.134 1.162 0 .504.266.868.658 1.036l-.56 2.142h1.134l.714-1.974c.252-.644.322-.896.322-1.204 0-.686-.476-1.162-1.134-1.162zm6.235 2.366c2.338 0 4.102-1.82 4.102-5.04 0-3.22-1.764-5.04-4.102-5.04-2.324 0-4.088 1.82-4.088 5.04 0 3.22 1.764 5.04 4.088 5.04zm0-1.582c-1.33 0-2.254-1.092-2.254-3.458s.924-3.458 2.254-3.458c1.344 0 2.268 1.092 2.268 3.458s-.924 3.458-2.268 3.458zm9.42 1.582c2.338 0 4.102-1.82 4.102-5.04 0-3.22-1.764-5.04-4.102-5.04-2.324 0-4.088 1.82-4.088 5.04 0 3.22 1.764 5.04 4.088 5.04zm0-1.582c-1.33 0-2.254-1.092-2.254-3.458s.924-3.458 2.254-3.458c1.344 0 2.268 1.092 2.268 3.458s-.924 3.458-2.268 3.458zm9.42 1.582c2.338 0 4.102-1.82 4.102-5.04 0-3.22-1.764-5.04-4.102-5.04-2.324 0-4.088 1.82-4.088 5.04 0 3.22 1.764 5.04 4.088 5.04zm0-1.582c-1.33 0-2.254-1.092-2.254-3.458s.924-3.458 2.254-3.458c1.344 0 2.268 1.092 2.268 3.458s-.924 3.458-2.268 3.458zm12.939 1.582c2.688 0 3.962-1.344 3.962-2.912 0-3.598-5.81-2.24-5.81-4.326 0-.742.616-1.33 2.128-1.33.854 0 1.82.252 2.702.77l.574-1.414c-.854-.56-2.086-.868-3.262-.868-2.688 0-3.948 1.344-3.948 2.926 0 3.64 5.824 2.254 5.824 4.368 0 .728-.644 1.274-2.17 1.274-1.204 0-2.45-.448-3.234-1.078l-.63 1.414c.812.7 2.338 1.176 3.864 1.176zm9.603-1.792c-.266.21-.616.308-.98.308-.672 0-1.036-.392-1.036-1.12V58.98h2.002v-1.4h-2.002v-1.708h-1.75v1.708h-1.232v1.4h1.232v3.598c0 1.652.938 2.52 2.576 2.52.63 0 1.26-.168 1.68-.504l-.49-1.246zm7.418-5.824v3.78c0 1.498-.826 2.254-2.044 2.254-1.106 0-1.75-.644-1.75-2.002v-4.032h-1.75v4.27c0 2.254 1.302 3.304 3.22 3.304.966 0 1.848-.364 2.408-1.05V65h1.666v-7.476h-1.75zm9.613-2.912v3.836c-.588-.686-1.442-1.008-2.408-1.008-2.17 0-3.78 1.498-3.78 3.822s1.61 3.836 3.78 3.836c1.022 0 1.89-.35 2.478-1.064V65h1.68V54.612h-1.75zm-2.198 8.988c-1.26 0-2.226-.91-2.226-2.338s.966-2.338 2.226-2.338 2.226.91 2.226 2.338-.966 2.338-2.226 2.338zm13.265-2.296c0-2.338-1.596-3.864-3.78-3.864-2.226 0-3.864 1.596-3.864 3.822s1.624 3.836 4.13 3.836c1.288 0 2.338-.42 3.01-1.218l-.938-1.078c-.532.546-1.19.812-2.03.812-1.302 0-2.212-.7-2.422-1.792h5.866c.014-.168.028-.378.028-.518zm-3.78-2.464c1.148 0 1.974.742 2.114 1.82h-4.242c.168-1.092.994-1.82 2.128-1.82zm9.703-1.4c-1.092 0-2.002.364-2.576 1.05v-.966h-1.666V65h1.75v-3.78c0-1.498.84-2.254 2.086-2.254 1.12 0 1.778.644 1.778 1.974V65h1.75v-4.284c0-2.254-1.33-3.276-3.122-3.276zm9.346 5.908c-.266.21-.616.308-.98.308-.672 0-1.036-.392-1.036-1.12V58.98h2.002v-1.4h-2.002v-1.708h-1.75v1.708h-1.232v1.4h1.232v3.598c0 1.652.938 2.52 2.576 2.52.63 0 1.26-.168 1.68-.504l-.49-1.246zm4.24 1.75c2.1 0 3.388-.91 3.388-2.31 0-2.926-4.62-1.582-4.62-3.094 0-.49.504-.84 1.568-.84.714 0 1.428.14 2.142.56l.672-1.33c-.672-.406-1.806-.644-2.8-.644-2.016 0-3.29.924-3.29 2.338 0 2.982 4.62 1.638 4.62 3.066 0 .518-.462.826-1.568.826-.938 0-1.946-.308-2.604-.742l-.672 1.33c.672.476 1.918.84 3.164.84z" fill="#333"/></g><defs><filter id="filter0_d" x="20" y="265" width="151" height="64" filterUnits="userSpaceOnUse" color-interpolation-filters="sRGB"><feFlood flood-opacity="0" result="BackgroundImageFix"/><feColorMatrix in="SourceAlpha" values="0 0 0 0 0 0 0 0 0 0 0 0 0 0 0 0 0 0 127 0"/><feOffset dy="1"/><feGaussianBlur stdDeviation="2"/><feColorMatrix values="0 0 0 0 0 0 0 0 0 0 0 0 0 0 0 0 0 0 0.08 0"/><feBlend in2="BackgroundImageFix" result="effect1_dropShadow"/><feBlend in="SourceGraphic" in2="effect1_dropShadow" result="shape"/></filter><filter id="filter1_d" x="388" y="17" width="152" height="64" filterUnits="userSpaceOnUse" color-interpolation-filters="sRGB"><feFlood flood-opacity="0" result="BackgroundImageFix"/><feColorMatrix in="SourceAlpha" values="0 0 0 0 0 0 0 0 0 0 0 0 0 0 0 0 0 0 127 0"/><feOffset dy="1"/><feGaussianBlur stdDeviation="2"/><feColorMatrix values="0 0 0 0 0 0 0 0 0 0 0 0 0 0 0 0 0 0 0.08 0"/><feBlend in2="BackgroundImageFix" result="effect1_dropShadow"/><feBlend in="SourceGraphic" in2="effect1_dropShadow" result="shape"/></filter></defs></svg>