<svg width="312" height="585" fill="none" xmlns="http://www.w3.org/2000/svg"><rect width="312" height="585" rx="16" fill="#FCF6FE"/><path d="M16 545c0-8.837 7.163-16 16-16h91c8.837 0 16 7.163 16 16s-7.163 16-16 16H32c-8.837 0-16-7.163-16-16z" fill="#E4B8F9"/><path d="M45.052 549.12c2.604 0 4.524-1.824 4.524-4.32 0-2.496-1.92-4.32-4.524-4.32s-4.524 1.836-4.524 4.32 1.92 4.32 4.524 4.32zm0-1.368c-1.692 0-2.952-1.236-2.952-2.952s1.26-2.952 2.952-2.952 2.952 1.236 2.952 2.952-1.26 2.952-2.952 2.952zm9.524-.168c-.228.18-.528.264-.84.264-.576 0-.888-.336-.888-.96v-3.048h1.716v-1.2h-1.716v-1.464h-1.5v1.464h-1.056v1.2h1.056v3.084c0 1.416.804 2.16 2.208 2.16.54 0 1.08-.144 1.44-.432l-.42-1.068zm5.29-5.064c-.888 0-1.644.288-2.136.816v-3.24h-1.5V549h1.5v-3.24c0-1.284.72-1.932 1.788-1.932.96 0 1.524.552 1.524 1.692V549h1.5v-3.672c0-1.932-1.14-2.808-2.676-2.808zm10.662 3.312c0-2.004-1.369-3.312-3.24-3.312-1.909 0-3.313 1.368-3.313 3.276 0 1.908 1.393 3.288 3.54 3.288 1.105 0 2.004-.36 2.58-1.044l-.803-.924c-.457.468-1.02.696-1.74.696-1.117 0-1.897-.6-2.077-1.536h5.029c.011-.144.023-.324.023-.444zm-3.24-2.112c.984 0 1.692.636 1.812 1.56h-3.636c.144-.936.852-1.56 1.823-1.56zm6.108-.192v-.936h-1.428V549h1.5v-3.108c0-1.308.72-1.98 1.86-1.98.108 0 .216.012.348.036v-1.428c-1.068 0-1.848.336-2.28 1.008zm5.556 5.556c1.8 0 2.904-.78 2.904-1.98 0-2.508-3.96-1.356-3.96-2.652 0-.42.432-.72 1.344-.72.612 0 1.224.12 1.836.48l.576-1.14c-.576-.348-1.548-.552-2.4-.552-1.728 0-2.82.792-2.82 2.004 0 2.556 3.96 1.404 3.96 2.628 0 .444-.396.708-1.344.708-.804 0-1.668-.264-2.232-.636l-.576 1.14c.576.408 1.644.72 2.712.72zm9 2.244h1.428c-.995-1.752-1.415-3.564-1.415-5.616 0-2.052.42-3.864 1.415-5.616h-1.427c-.937 1.428-1.465 3.408-1.465 5.616 0 2.208.528 4.164 1.465 5.616zm1.902-10.728v1.308h1.776V549h1.56v-8.4h-3.336zm8.506 8.52c2.004 0 3.516-1.56 3.516-4.32 0-2.76-1.512-4.32-3.516-4.32-1.992 0-3.504 1.56-3.504 4.32 0 2.76 1.512 4.32 3.504 4.32zm0-1.356c-1.14 0-1.932-.936-1.932-2.964s.792-2.964 1.932-2.964c1.152 0 1.944.936 1.944 2.964s-.792 2.964-1.944 2.964zm6.442-2.64c1.2 0 2.016-.912 2.016-2.304s-.816-2.304-2.016-2.304c-1.2 0-2.004.924-2.004 2.304s.804 2.304 2.004 2.304zm-.696 3.876h1.176l5.736-8.4h-1.176l-5.736 8.4zm.696-4.716c-.624 0-1.032-.54-1.032-1.464 0-.924.408-1.464 1.032-1.464.648 0 1.032.528 1.032 1.464 0 .936-.384 1.464-1.032 1.464zm5.508 4.8c1.2 0 2.016-.924 2.016-2.304s-.816-2.304-2.016-2.304c-1.2 0-2.004.924-2.004 2.304s.804 2.304 2.004 2.304zm0-.84c-.636 0-1.032-.528-1.032-1.464 0-.936.396-1.464 1.032-1.464s1.032.54 1.032 1.464c0 .924-.396 1.464-1.032 1.464zm3.874 3.084c.948-1.452 1.464-3.408 1.464-5.616 0-2.208-.516-4.188-1.464-5.616h-1.428c.996 1.752 1.428 3.564 1.428 5.616 0 2.052-.432 3.864-1.428 5.616h1.428z" fill="#fff"/><path d="M16 497c0-8.837 7.163-16 16-16h136c8.837 0 16 7.163 16 16s-7.163 16-16 16H32c-8.837 0-16-7.163-16-16z" fill="#C7A1F7"/><path d="M48.844 501l-.012-5.568-2.76 4.608h-.696l-2.76-4.536V501h-1.488v-8.4h1.284l3.336 5.568 3.276-5.568h1.284l.012 8.4h-1.476zm9.625-3.168c0 .104-.008.252-.024.444h-5.028c.088.472.316.848.684 1.128.376.272.84.408 1.392.408.704 0 1.284-.232 1.74-.696l.804.924a2.709 2.709 0 01-1.092.78c-.44.176-.936.264-1.488.264-.704 0-1.324-.14-1.86-.42a3.078 3.078 0 01-1.248-1.164 3.373 3.373 0 01-.432-1.704c0-.624.14-1.184.42-1.68a3.052 3.052 0 011.188-1.176 3.449 3.449 0 011.704-.42c.624 0 1.18.14 1.668.42.496.272.88.66 1.152 1.164.28.496.42 1.072.42 1.728zm-3.24-2.112c-.48 0-.888.144-1.224.432-.328.28-.528.656-.6 1.128h3.636a1.768 1.768 0 00-.588-1.128c-.328-.288-.736-.432-1.224-.432zm10.957-3.624V501h-1.44v-.828a2.312 2.312 0 01-.924.684c-.36.152-.76.228-1.2.228a3.411 3.411 0 01-1.668-.408 2.954 2.954 0 01-1.152-1.152c-.28-.504-.42-1.08-.42-1.728 0-.648.14-1.22.42-1.716.28-.496.664-.88 1.152-1.152a3.411 3.411 0 011.668-.408c.424 0 .812.072 1.164.216.352.144.652.36.9.648v-3.288h1.5zm-3.384 7.704c.36 0 .684-.08.972-.24a1.82 1.82 0 00.684-.708c.168-.304.252-.656.252-1.056s-.084-.752-.252-1.056a1.736 1.736 0 00-.684-.696 1.893 1.893 0 00-.972-.252c-.36 0-.684.084-.972.252-.288.16-.516.392-.684.696a2.148 2.148 0 00-.252 1.056c0 .4.084.752.252 1.056.168.304.396.54.684.708.288.16.612.24.972.24zm5.346-5.208h1.5V501h-1.5v-6.408zm.756-1.056a.977.977 0 01-.684-.252.862.862 0 01-.276-.648c0-.256.092-.468.276-.636a.951.951 0 01.684-.264c.272 0 .5.084.684.252.184.16.276.364.276.612a.925.925 0 01-.96.936zm5.653 7.548c-.664 0-1.26-.14-1.788-.42a3.097 3.097 0 01-1.236-1.164 3.301 3.301 0 01-.444-1.704c0-.632.148-1.196.444-1.692a3.117 3.117 0 011.224-1.164c.528-.28 1.128-.42 1.8-.42.632 0 1.184.128 1.656.384.48.256.84.624 1.08 1.104l-1.152.672a1.77 1.77 0 00-.696-.66 1.813 1.813 0 00-.9-.228c-.56 0-1.024.184-1.392.552-.368.36-.552.844-.552 1.452s.18 1.096.54 1.464c.368.36.836.54 1.404.54.328 0 .628-.072.9-.216.28-.152.512-.376.696-.672l1.152.672c-.248.48-.612.852-1.092 1.116-.472.256-1.02.384-1.644.384zm6.48-6.564c.944 0 1.664.228 2.16.684.504.448.757 1.128.757 2.04V501h-1.416v-.78c-.184.28-.448.496-.792.648-.337.144-.745.216-1.224.216-.48 0-.9-.08-1.26-.24a2.05 2.05 0 01-.84-.684 1.79 1.79 0 01-.288-.996c0-.576.212-1.036.635-1.38.432-.352 1.108-.528 2.028-.528h1.657v-.096c0-.448-.136-.792-.408-1.032-.265-.24-.66-.36-1.189-.36-.36 0-.716.056-1.067.168a2.617 2.617 0 00-.877.468l-.587-1.092c.336-.256.74-.452 1.212-.588a5.393 5.393 0 011.5-.204zm-.204 5.472c.377 0 .709-.084.996-.252.297-.176.505-.424.625-.744v-.744h-1.548c-.865 0-1.297.284-1.297.852 0 .272.109.488.325.648.216.16.516.24.9.24zm5.046-7.896h1.5V501h-1.5v-8.904zm8.273 11.232c-.472-.728-.836-1.572-1.092-2.532a12.295 12.295 0 01-.372-3.084c0-1.096.124-2.124.372-3.084.256-.968.62-1.812 1.092-2.532h1.428a10.791 10.791 0 00-1.08 2.676 12.3 12.3 0 00-.336 2.94c0 1.048.112 2.032.336 2.952.232.912.592 1.8 1.08 2.664h-1.428zm5.237-10.728v8.4h-1.56v-7.092h-1.776V492.6h3.336zm4.294 3.252c1.184 0 2.06.232 2.628.696.568.456.852 1.08.852 1.872 0 .504-.124.96-.372 1.368-.248.408-.62.732-1.116.972-.496.24-1.108.36-1.836.36-.6 0-1.18-.084-1.74-.252-.56-.176-1.032-.416-1.416-.72l.66-1.212c.312.256.684.46 1.116.612.44.144.892.216 1.356.216.552 0 .984-.112 1.296-.336.32-.232.48-.548.48-.948 0-.432-.172-.756-.516-.972-.336-.224-.916-.336-1.74-.336h-2.028l.432-4.572h4.932v1.308h-3.612l-.18 1.944h.804zm6.135 1.272c-.6 0-1.084-.212-1.452-.636-.368-.424-.552-.98-.552-1.668s.184-1.244.552-1.668c.368-.424.852-.636 1.452-.636s1.084.212 1.452.636c.376.416.564.972.564 1.668s-.188 1.256-.564 1.68c-.368.416-.852.624-1.452.624zm5.04-4.524h1.176l-5.736 8.4h-1.176l5.736-8.4zm-5.04 3.684c.328 0 .58-.128.756-.384.184-.256.276-.616.276-1.08 0-.464-.092-.824-.276-1.08-.176-.256-.428-.384-.756-.384a.893.893 0 00-.756.396c-.184.256-.276.612-.276 1.068 0 .456.092.816.276 1.08a.901.901 0 00.756.384zm5.508 4.8c-.6 0-1.084-.212-1.452-.636-.368-.424-.552-.98-.552-1.668s.184-1.244.552-1.668c.368-.424.852-.636 1.452-.636s1.084.212 1.452.636c.376.424.564.98.564 1.668s-.188 1.244-.564 1.668c-.368.424-.852.636-1.452.636zm0-.84c.32 0 .572-.128.756-.384.184-.264.276-.624.276-1.08 0-.456-.092-.812-.276-1.068a.873.873 0 00-.756-.396.881.881 0 00-.756.384c-.184.256-.276.616-.276 1.08 0 .464.092.824.276 1.08a.881.881 0 00.756.384zm2.446 3.084c.488-.864.848-1.756 1.08-2.676.232-.92.348-1.9.348-2.94s-.116-2.02-.348-2.94a10.791 10.791 0 00-1.08-2.676h1.428c.472.712.832 1.552 1.08 2.52.256.96.384 1.992.384 3.096a11.98 11.98 0 01-.384 3.096c-.248.952-.608 1.792-1.08 2.52h-1.428z" fill="#fff"/><path d="M16 449c0-8.837 7.163-16 16-16h200c8.837 0 16 7.163 16 16s-7.163 16-16 16H32c-8.837 0-16-7.163-16-16z" fill="#9F8AF5"/><path d="M47.08 448.632c.464.152.832.408 1.104.768.272.352.408.792.408 1.32 0 .728-.28 1.292-.84 1.692-.56.392-1.376.588-2.448.588h-4.176v-8.4h3.936c.992 0 1.756.196 2.292.588.536.384.804.916.804 1.596 0 .416-.096.784-.288 1.104-.192.32-.456.568-.792.744zm-4.392-2.808v2.316h2.208c.544 0 .96-.096 1.248-.288.296-.2.444-.488.444-.864 0-.384-.148-.672-.444-.864-.288-.2-.704-.3-1.248-.3h-2.208zm2.52 5.952c1.208 0 1.812-.404 1.812-1.212 0-.808-.604-1.212-1.812-1.212h-2.52v2.424h2.52zm11.109-5.184V453h-1.428v-.816c-.24.288-.54.512-.9.672-.36.152-.748.228-1.164.228-.856 0-1.532-.236-2.028-.708-.488-.48-.732-1.188-.732-2.124v-3.66h1.5v3.456c0 .576.128 1.008.384 1.296.264.28.636.42 1.116.42.536 0 .96-.164 1.272-.492.32-.336.48-.816.48-1.44v-3.24h1.5zm1.964 0h1.5V453h-1.5v-6.408zm.756-1.056a.977.977 0 01-.684-.252.862.862 0 01-.276-.648c0-.256.092-.468.276-.636a.951.951 0 01.684-.264c.272 0 .5.084.684.252.184.16.276.364.276.612a.925.925 0 01-.96.936zm4.693 7.548c-.52 0-1.028-.068-1.524-.204-.496-.136-.892-.308-1.188-.516l.576-1.14a3.84 3.84 0 001.032.468c.408.112.808.168 1.2.168.896 0 1.344-.236 1.344-.708 0-.224-.116-.38-.348-.468-.224-.088-.588-.172-1.092-.252a9.135 9.135 0 01-1.296-.276 2.052 2.052 0 01-.864-.54c-.24-.264-.36-.628-.36-1.092 0-.608.252-1.092.756-1.452.512-.368 1.2-.552 2.064-.552.44 0 .88.052 1.32.156.44.096.8.228 1.08.396l-.576 1.14a3.553 3.553 0 00-1.836-.48c-.44 0-.776.068-1.008.204-.224.128-.336.3-.336.516 0 .24.12.412.36.516.248.096.628.188 1.14.276.512.08.932.172 1.26.276.328.104.608.28.84.528.24.248.36.6.36 1.056 0 .6-.26 1.08-.78 1.44-.52.36-1.228.54-2.124.54zm7.831-6.564c.808 0 1.456.236 1.944.708s.732 1.172.732 2.1V453h-1.5v-3.48c0-.56-.132-.98-.396-1.26-.264-.288-.64-.432-1.128-.432-.552 0-.988.168-1.308.504-.32.328-.48.804-.48 1.428V453h-1.5v-6.408h1.428v.828c.248-.296.56-.52.936-.672.376-.152.8-.228 1.272-.228zm10.662 3.312c0 .104-.008.252-.024.444H77.17c.088.472.316.848.684 1.128.376.272.84.408 1.392.408.704 0 1.284-.232 1.74-.696l.804.924a2.709 2.709 0 01-1.092.78c-.44.176-.936.264-1.488.264-.704 0-1.324-.14-1.86-.42a3.078 3.078 0 01-1.248-1.164 3.373 3.373 0 01-.432-1.704c0-.624.14-1.184.42-1.68a3.052 3.052 0 011.188-1.176 3.449 3.449 0 011.704-.42c.624 0 1.18.14 1.668.42.496.272.88.66 1.152 1.164.28.496.42 1.072.42 1.728zm-3.24-2.112c-.48 0-.888.144-1.224.432-.328.28-.528.656-.6 1.128h3.636a1.768 1.768 0 00-.588-1.128c-.328-.288-.736-.432-1.224-.432zm6.66 5.364a5.73 5.73 0 01-1.523-.204c-.496-.136-.892-.308-1.188-.516l.576-1.14a3.84 3.84 0 001.032.468c.408.112.808.168 1.2.168.896 0 1.344-.236 1.344-.708 0-.224-.116-.38-.348-.468-.224-.088-.588-.172-1.092-.252a9.135 9.135 0 01-1.296-.276 2.052 2.052 0 01-.864-.54c-.24-.264-.36-.628-.36-1.092 0-.608.252-1.092.756-1.452.512-.368 1.2-.552 2.064-.552.44 0 .88.052 1.32.156.44.096.8.228 1.08.396l-.576 1.14a3.553 3.553 0 00-1.836-.48c-.44 0-.776.068-1.008.204-.224.128-.336.3-.336.516 0 .24.12.412.36.516.248.096.628.188 1.14.276.512.08.932.172 1.26.276.328.104.608.28.84.528.24.248.36.6.36 1.056 0 .6-.26 1.08-.78 1.44-.52.36-1.228.54-2.124.54zm6.177 0c-.52 0-1.028-.068-1.524-.204-.497-.136-.893-.308-1.189-.516l.576-1.14a3.84 3.84 0 001.032.468c.409.112.808.168 1.2.168.896 0 1.344-.236 1.344-.708 0-.224-.115-.38-.347-.468-.225-.088-.589-.172-1.093-.252a9.135 9.135 0 01-1.296-.276 2.052 2.052 0 01-.864-.54c-.24-.264-.36-.628-.36-1.092 0-.608.252-1.092.756-1.452.512-.368 1.2-.552 2.064-.552.44 0 .88.052 1.32.156.44.096.8.228 1.08.396l-.576 1.14a3.553 3.553 0 00-1.835-.48c-.44 0-.776.068-1.008.204-.224.128-.337.3-.337.516 0 .24.12.412.36.516.248.096.628.188 1.14.276.512.08.932.172 1.26.276.329.104.609.28.84.528.24.248.36.6.36 1.056 0 .6-.26 1.08-.78 1.44-.52.36-1.227.54-2.123.54zm13.104-2.028h-4.2L99.896 453h-1.608l3.78-8.4h1.536l3.792 8.4h-1.632l-.84-1.944zm-.516-1.224l-1.584-3.672-1.572 3.672h3.156zm10.129-5.736V453h-1.44v-.828a2.312 2.312 0 01-.924.684c-.36.152-.76.228-1.2.228a3.411 3.411 0 01-1.668-.408 2.954 2.954 0 01-1.152-1.152c-.28-.504-.42-1.08-.42-1.728 0-.648.14-1.22.42-1.716.28-.496.664-.88 1.152-1.152a3.411 3.411 0 011.668-.408c.424 0 .812.072 1.164.216.352.144.652.36.9.648v-3.288h1.5zm-3.384 7.704c.36 0 .684-.08.972-.24a1.82 1.82 0 00.684-.708c.168-.304.252-.656.252-1.056s-.084-.752-.252-1.056a1.736 1.736 0 00-.684-.696 1.893 1.893 0 00-.972-.252c-.36 0-.684.084-.972.252-.288.16-.516.392-.684.696a2.148 2.148 0 00-.252 1.056c0 .4.084.752.252 1.056.168.304.396.54.684.708.288.16.612.24.972.24zm13.435-5.28c.808 0 1.448.236 1.92.708.472.464.708 1.164.708 2.1V453h-1.5v-3.48c0-.56-.124-.98-.372-1.26-.248-.288-.604-.432-1.068-.432-.504 0-.908.168-1.212.504-.304.328-.456.8-.456 1.416V453h-1.5v-3.48c0-.56-.124-.98-.372-1.26-.248-.288-.604-.432-1.068-.432-.512 0-.92.164-1.224.492-.296.328-.444.804-.444 1.428V453h-1.5v-6.408h1.428v.816c.24-.288.54-.508.9-.66.36-.152.76-.228 1.2-.228.48 0 .904.092 1.272.276.376.176.672.44.888.792a2.619 2.619 0 011.02-.78 3.254 3.254 0 011.38-.288zm4.544.072h1.5V453h-1.5v-6.408zm.756-1.056a.977.977 0 01-.684-.252.862.862 0 01-.276-.648c0-.256.092-.468.276-.636a.951.951 0 01.684-.264c.272 0 .5.084.684.252.184.16.276.364.276.612a.925.925 0 01-.96.936zm6.349.984c.808 0 1.456.236 1.944.708s.732 1.172.732 2.1V453h-1.5v-3.48c0-.56-.132-.98-.396-1.26-.264-.288-.64-.432-1.128-.432-.552 0-.988.168-1.308.504-.32.328-.48.804-.48 1.428V453h-1.5v-6.408h1.428v.828c.248-.296.56-.52.936-.672.376-.152.8-.228 1.272-.228zm4.579.072h1.5V453h-1.5v-6.408zm.756-1.056a.977.977 0 01-.684-.252.862.862 0 01-.276-.648c0-.256.092-.468.276-.636a.951.951 0 01.684-.264c.272 0 .5.084.684.252.184.16.276.364.276.612a.925.925 0 01-.96.936zm4.693 7.548c-.52 0-1.028-.068-1.524-.204-.496-.136-.892-.308-1.188-.516l.576-1.14a3.84 3.84 0 001.032.468c.408.112.808.168 1.2.168.896 0 1.344-.236 1.344-.708 0-.224-.116-.38-.348-.468-.224-.088-.588-.172-1.092-.252a9.135 9.135 0 01-1.296-.276 2.052 2.052 0 01-.864-.54c-.24-.264-.36-.628-.36-1.092 0-.608.252-1.092.756-1.452.512-.368 1.2-.552 2.064-.552.44 0 .88.052 1.32.156.44.096.8.228 1.08.396l-.576 1.14a3.553 3.553 0 00-1.836-.48c-.44 0-.776.068-1.008.204-.224.128-.336.3-.336.516 0 .24.12.412.36.516.248.096.628.188 1.14.276.512.08.932.172 1.26.276.328.104.608.28.84.528.24.248.36.6.36 1.056 0 .6-.26 1.08-.78 1.44-.52.36-1.228.54-2.124.54zm8.048-.432a1.762 1.762 0 01-.648.324 2.828 2.828 0 01-.792.108c-.704 0-1.248-.184-1.632-.552-.384-.368-.576-.904-.576-1.608v-3.084h-1.056v-1.2h1.056v-1.464h1.5v1.464h1.716v1.2h-1.716v3.048c0 .312.076.552.228.72.152.16.372.24.66.24.336 0 .616-.088.84-.264l.42 1.068zm2.662-5.124c.432-.672 1.192-1.008 2.28-1.008v1.428a1.904 1.904 0 00-.348-.036c-.584 0-1.04.172-1.368.516-.328.336-.492.824-.492 1.464V453h-1.5v-6.408h1.428v.936zm5.965-1.008c.944 0 1.664.228 2.16.684.504.448.756 1.128.756 2.04V453h-1.416v-.78c-.184.28-.448.496-.792.648-.336.144-.744.216-1.224.216s-.9-.08-1.26-.24a2.05 2.05 0 01-.84-.684 1.79 1.79 0 01-.288-.996c0-.576.212-1.036.636-1.38.432-.352 1.108-.528 2.028-.528h1.656v-.096c0-.448-.136-.792-.408-1.032-.264-.24-.66-.36-1.188-.36-.36 0-.716.056-1.068.168a2.617 2.617 0 00-.876.468l-.588-1.092c.336-.256.74-.452 1.212-.588a5.393 5.393 0 011.5-.204zm-.204 5.472c.376 0 .708-.084.996-.252.296-.176.504-.424.624-.744v-.744h-1.548c-.864 0-1.296.284-1.296.852 0 .272.108.488.324.648.216.16.516.24.9.24zm8.897.66a1.762 1.762 0 01-.648.324 2.828 2.828 0 01-.792.108c-.704 0-1.248-.184-1.632-.552-.384-.368-.576-.904-.576-1.608v-3.084h-1.056v-1.2h1.056v-1.464h1.5v1.464h1.716v1.2h-1.716v3.048c0 .312.076.552.228.72.152.16.372.24.66.24.336 0 .616-.088.84-.264l.42 1.068zm1.234-6.06h1.5V453h-1.5v-6.408zm.756-1.056a.977.977 0 01-.684-.252.862.862 0 01-.276-.648c0-.256.092-.468.276-.636a.951.951 0 01.684-.264c.272 0 .5.084.684.252.184.16.276.364.276.612a.925.925 0 01-.96.936zm5.593 7.548c-.648 0-1.232-.14-1.752-.42a3.117 3.117 0 01-1.224-1.164 3.373 3.373 0 01-.432-1.704c0-.632.144-1.196.432-1.692a3.117 3.117 0 011.224-1.164c.52-.28 1.104-.42 1.752-.42.656 0 1.244.14 1.764.42.52.28.924.668 1.212 1.164.296.496.444 1.06.444 1.692 0 .632-.148 1.2-.444 1.704a3.033 3.033 0 01-1.212 1.164c-.52.28-1.108.42-1.764.42zm0-1.284c.552 0 1.008-.184 1.368-.552.36-.368.54-.852.54-1.452s-.18-1.084-.54-1.452c-.36-.368-.816-.552-1.368-.552-.552 0-1.008.184-1.368.552-.352.368-.528.852-.528 1.452s.176 1.084.528 1.452c.36.368.816.552 1.368.552zm8.49-5.28c.808 0 1.456.236 1.944.708s.732 1.172.732 2.1V453h-1.5v-3.48c0-.56-.132-.98-.396-1.26-.264-.288-.64-.432-1.128-.432-.552 0-.988.168-1.308.504-.32.328-.48.804-.48 1.428V453h-1.5v-6.408h1.428v.828c.248-.296.56-.52.936-.672.376-.152.8-.228 1.272-.228zm9.383 8.808c-.472-.728-.836-1.572-1.092-2.532a12.295 12.295 0 01-.372-3.084c0-1.096.124-2.124.372-3.084.256-.968.62-1.812 1.092-2.532h1.428a10.791 10.791 0 00-1.08 2.676 12.3 12.3 0 00-.336 2.94c0 1.048.112 2.032.336 2.952.232.912.592 1.8 1.08 2.664h-1.428zm8.3-3.648V453h-6.192v-1.044l3.336-3.168c.376-.36.628-.672.756-.936.136-.272.204-.54.204-.804 0-.392-.132-.692-.396-.9-.264-.208-.652-.312-1.164-.312-.856 0-1.512.292-1.968.876l-1.092-.84c.328-.44.768-.78 1.32-1.02a4.574 4.574 0 011.872-.372c.912 0 1.64.216 2.184.648.544.432.816 1.02.816 1.764 0 .456-.096.884-.288 1.284-.192.4-.56.856-1.104 1.368l-2.244 2.136h3.96zm4.37 1.44a3.28 3.28 0 01-1.8-.504c-.528-.344-.944-.84-1.248-1.488-.304-.656-.456-1.432-.456-2.328 0-.896.152-1.668.456-2.316.304-.656.72-1.152 1.248-1.488a3.224 3.224 0 011.8-.516c.672 0 1.272.172 1.8.516.536.336.956.832 1.26 1.488.304.648.456 1.42.456 2.316 0 .896-.152 1.672-.456 2.328-.304.648-.724 1.144-1.26 1.488a3.28 3.28 0 01-1.8.504zm0-1.356c.6 0 1.072-.248 1.416-.744.352-.496.528-1.236.528-2.22 0-.984-.176-1.724-.528-2.22-.344-.496-.816-.744-1.416-.744-.592 0-1.064.248-1.416.744-.344.496-.516 1.236-.516 2.22 0 .984.172 1.724.516 2.22.352.496.824.744 1.416.744zm6.442-2.64c-.6 0-1.084-.212-1.452-.636-.368-.424-.552-.98-.552-1.668s.184-1.244.552-1.668c.368-.424.852-.636 1.452-.636s1.084.212 1.452.636c.376.416.564.972.564 1.668s-.188 1.256-.564 1.68c-.368.416-.852.624-1.452.624zm5.04-4.524h1.176l-5.736 8.4h-1.176l5.736-8.4zm-5.04 3.684c.328 0 .58-.128.756-.384.184-.256.276-.616.276-1.08 0-.464-.092-.824-.276-1.08-.176-.256-.428-.384-.756-.384a.893.893 0 00-.756.396c-.184.256-.276.612-.276 1.068 0 .456.092.816.276 1.08a.901.901 0 00.756.384zm5.508 4.8c-.6 0-1.084-.212-1.452-.636-.368-.424-.552-.98-.552-1.668s.184-1.244.552-1.668c.368-.424.852-.636 1.452-.636s1.084.212 1.452.636c.376.424.564.98.564 1.668s-.188 1.244-.564 1.668c-.368.424-.852.636-1.452.636zm0-.84c.32 0 .572-.128.756-.384.184-.264.276-.624.276-1.08 0-.456-.092-.812-.276-1.068a.873.873 0 00-.756-.396.881.881 0 00-.756.384c-.184.256-.276.616-.276 1.08 0 .464.092.824.276 1.08a.881.881 0 00.756.384zm2.446 3.084c.488-.864.848-1.756 1.08-2.676.232-.92.348-1.9.348-2.94s-.116-2.02-.348-2.94a10.791 10.791 0 00-1.08-2.676h1.428c.472.712.832 1.552 1.08 2.52.256.96.384 1.992.384 3.096a11.98 11.98 0 01-.384 3.096c-.248.952-.608 1.792-1.08 2.52h-1.428z" fill="#fff"/><path d="M16 401c0-8.837 7.163-16 16-16h248c8.837 0 16 7.163 16 16s-7.163 16-16 16H32c-8.837 0-16-7.163-16-16z" fill="#8085F4"/><path d="M47.428 403.692V405h-6.3v-8.4h6.132v1.308h-4.572v2.184h4.056v1.284h-4.056v2.316h4.74zm5.231-5.172c.808 0 1.456.236 1.944.708s.732 1.172.732 2.1V405h-1.5v-3.48c0-.56-.132-.98-.396-1.26-.264-.288-.64-.432-1.128-.432-.552 0-.988.168-1.308.504-.32.328-.48.804-.48 1.428V405h-1.5v-6.408h1.428v.828c.248-.296.56-.52.936-.672.376-.152.8-.228 1.272-.228zm10.998.072v5.436c0 2.256-1.152 3.384-3.456 3.384-.617 0-1.2-.08-1.752-.24-.552-.152-1.008-.376-1.368-.672l.671-1.128c.28.232.633.416 1.056.552.432.144.868.216 1.309.216.704 0 1.22-.16 1.547-.48.328-.32.492-.808.492-1.464v-.336c-.255.28-.567.492-.935.636a3.299 3.299 0 01-1.212.216c-.608 0-1.16-.128-1.657-.384a3.027 3.027 0 01-1.163-1.104c-.28-.472-.42-1.012-.42-1.62 0-.608.14-1.144.42-1.608a2.94 2.94 0 011.163-1.092 3.557 3.557 0 011.657-.384c.463 0 .883.076 1.26.228.384.152.703.384.96.696v-.852h1.428zm-3.42 4.848c.567 0 1.032-.168 1.392-.504.367-.344.552-.788.552-1.332 0-.536-.184-.972-.552-1.308-.36-.336-.825-.504-1.392-.504-.577 0-1.049.168-1.416.504-.36.336-.54.772-.54 1.308 0 .544.18.988.54 1.332.367.336.84.504 1.416.504zm5.392-4.848h1.5V405h-1.5v-6.408zm.755-1.056a.977.977 0 01-.683-.252.862.862 0 01-.276-.648.82.82 0 01.276-.636.951.951 0 01.684-.264c.271 0 .5.084.683.252.184.16.276.364.276.612a.925.925 0 01-.96.936zm6.35.984c.807 0 1.455.236 1.943.708s.732 1.172.732 2.1V405h-1.5v-3.48c0-.56-.132-.98-.396-1.26-.264-.288-.64-.432-1.128-.432-.552 0-.988.168-1.308.504-.32.328-.48.804-.48 1.428V405h-1.5v-6.408h1.428v.828c.248-.296.56-.52.936-.672.376-.152.8-.228 1.272-.228zm10.66 3.312c0 .104-.007.252-.023.444h-5.028c.088.472.316.848.684 1.128.376.272.84.408 1.392.408.704 0 1.284-.232 1.74-.696l.804.924a2.709 2.709 0 01-1.092.78c-.44.176-.936.264-1.488.264-.704 0-1.324-.14-1.86-.42a3.078 3.078 0 01-1.248-1.164 3.373 3.373 0 01-.432-1.704c0-.624.14-1.184.42-1.68a3.052 3.052 0 011.188-1.176 3.449 3.449 0 011.704-.42c.624 0 1.18.14 1.668.42.496.272.88.66 1.152 1.164.28.496.42 1.072.42 1.728zm-3.24-2.112c-.48 0-.887.144-1.223.432-.328.28-.528.656-.6 1.128h3.636a1.768 1.768 0 00-.588-1.128c-.328-.288-.736-.432-1.224-.432zm10.706 2.112c0 .104-.008.252-.024.444h-5.028c.088.472.316.848.684 1.128.376.272.84.408 1.392.408.704 0 1.284-.232 1.74-.696l.804.924a2.709 2.709 0 01-1.092.78c-.44.176-.936.264-1.488.264-.704 0-1.324-.14-1.86-.42a3.078 3.078 0 01-1.248-1.164 3.373 3.373 0 01-.432-1.704c0-.624.14-1.184.42-1.68a3.052 3.052 0 011.188-1.176 3.449 3.449 0 011.704-.42c.624 0 1.18.14 1.668.42.496.272.88.66 1.152 1.164.28.496.42 1.072.42 1.728zm-3.24-2.112c-.48 0-.888.144-1.224.432-.328.28-.528.656-.6 1.128h3.636a1.768 1.768 0 00-.588-1.128c-.328-.288-.736-.432-1.224-.432zm6.108-.192c.432-.672 1.192-1.008 2.28-1.008v1.428a1.904 1.904 0 00-.348-.036c-.584 0-1.04.172-1.368.516-.328.336-.492.824-.492 1.464V405h-1.5v-6.408h1.428v.936zm3.553-.936h1.5V405h-1.5v-6.408zm.756-1.056a.977.977 0 01-.684-.252.862.862 0 01-.276-.648c0-.256.092-.468.276-.636a.951.951 0 01.684-.264c.272 0 .5.084.684.252.184.16.276.364.276.612a.925.925 0 01-.96.936zm6.349.984c.808 0 1.456.236 1.944.708s.732 1.172.732 2.1V405h-1.5v-3.48c0-.56-.132-.98-.396-1.26-.264-.288-.64-.432-1.128-.432-.552 0-.988.168-1.308.504-.32.328-.48.804-.48 1.428V405h-1.5v-6.408h1.428v.828c.248-.296.56-.52.936-.672.376-.152.8-.228 1.272-.228zm10.997.072v5.436c0 2.256-1.152 3.384-3.456 3.384-.616 0-1.2-.08-1.752-.24-.552-.152-1.008-.376-1.368-.672l.672-1.128c.28.232.632.416 1.056.552.432.144.868.216 1.308.216.704 0 1.22-.16 1.548-.48.328-.32.492-.808.492-1.464v-.336c-.256.28-.568.492-.936.636a3.299 3.299 0 01-1.212.216c-.608 0-1.16-.128-1.656-.384a3.027 3.027 0 01-1.164-1.104c-.28-.472-.42-1.012-.42-1.62 0-.608.14-1.144.42-1.608a2.94 2.94 0 011.164-1.092 3.557 3.557 0 011.656-.384c.464 0 .884.076 1.26.228.384.152.704.384.96.696v-.852h1.428zm-3.42 4.848c.568 0 1.032-.168 1.392-.504.368-.344.552-.788.552-1.332 0-.536-.184-.972-.552-1.308-.36-.336-.824-.504-1.392-.504-.576 0-1.048.168-1.416.504-.36.336-.54.772-.54 1.308 0 .544.18.988.54 1.332.368.336.84.504 1.416.504zm10.197 3.888c-.472-.728-.836-1.572-1.092-2.532a12.295 12.295 0 01-.372-3.084c0-1.096.124-2.124.372-3.084.256-.968.62-1.812 1.092-2.532h1.428a10.791 10.791 0 00-1.08 2.676 12.3 12.3 0 00-.336 2.94c0 1.048.112 2.032.336 2.952.232.912.592 1.8 1.08 2.664h-1.428zm5.792-7.26c.776.096 1.368.36 1.776.792.408.432.612.972.612 1.62 0 .488-.124.932-.372 1.332s-.624.72-1.128.96c-.496.232-1.104.348-1.824.348-.6 0-1.18-.084-1.74-.252a4.535 4.535 0 01-1.416-.72l.672-1.212c.304.256.672.46 1.104.612.44.144.892.216 1.356.216.552 0 .984-.112 1.296-.336.32-.232.48-.544.48-.936s-.152-.696-.456-.912c-.296-.224-.752-.336-1.368-.336h-.768v-1.068l1.908-2.268h-3.816V396.6h5.724v1.044l-2.04 2.424zm5.919-.216c1.184 0 2.06.232 2.628.696.568.456.852 1.08.852 1.872 0 .504-.124.96-.372 1.368-.248.408-.62.732-1.116.972-.496.24-1.108.36-1.836.36-.6 0-1.18-.084-1.74-.252-.56-.176-1.032-.416-1.416-.72l.66-1.212c.312.256.684.46 1.116.612.44.144.892.216 1.356.216.552 0 .984-.112 1.296-.336.32-.232.48-.548.48-.948 0-.432-.172-.756-.516-.972-.336-.224-.916-.336-1.74-.336h-2.028l.432-4.572h4.932v1.308h-3.612l-.18 1.944h.804zm6.134 1.272c-.6 0-1.084-.212-1.452-.636-.368-.424-.552-.98-.552-1.668s.184-1.244.552-1.668c.368-.424.852-.636 1.452-.636s1.084.212 1.452.636c.376.416.564.972.564 1.668s-.188 1.256-.564 1.68c-.368.416-.852.624-1.452.624zm5.04-4.524h1.176l-5.736 8.4h-1.176l5.736-8.4zm-5.04 3.684c.328 0 .58-.128.756-.384.184-.256.276-.616.276-1.08 0-.464-.092-.824-.276-1.08-.176-.256-.428-.384-.756-.384a.893.893 0 00-.756.396c-.184.256-.276.612-.276 1.068 0 .456.092.816.276 1.08a.901.901 0 00.756.384zm5.508 4.8c-.6 0-1.084-.212-1.452-.636-.368-.424-.552-.98-.552-1.668s.184-1.244.552-1.668c.368-.424.852-.636 1.452-.636s1.084.212 1.452.636c.376.424.564.98.564 1.668s-.188 1.244-.564 1.668c-.368.424-.852.636-1.452.636zm0-.84c.32 0 .572-.128.756-.384.184-.264.276-.624.276-1.08 0-.456-.092-.812-.276-1.068a.873.873 0 00-.756-.396.881.881 0 00-.756.384c-.184.256-.276.616-.276 1.08 0 .464.092.824.276 1.08a.881.881 0 00.756.384zm2.446 3.084c.488-.864.848-1.756 1.08-2.676.232-.92.348-1.9.348-2.94s-.116-2.02-.348-2.94a10.791 10.791 0 00-1.08-2.676h1.428c.472.712.832 1.552 1.08 2.52.256.96.384 1.992.384 3.096a11.98 11.98 0 01-.384 3.096c-.248.952-.608 1.792-1.08 2.52h-1.428z" fill="#fff"/><path d="M18.928 349.644h-2.88V348.6h6.948v1.044h-2.88V357h-1.188v-7.356zm7.275 7.428c-.632 0-1.2-.14-1.704-.42-.504-.28-.9-.664-1.188-1.152a3.357 3.357 0 01-.42-1.68c0-.624.14-1.18.42-1.668.288-.496.684-.88 1.188-1.152a3.449 3.449 0 011.704-.42c.632 0 1.196.14 1.692.42.504.272.896.656 1.176 1.152.288.488.432 1.044.432 1.668 0 .624-.144 1.184-.432 1.68-.28.488-.672.872-1.176 1.152-.496.28-1.06.42-1.692.42zm0-1.008a2.15 2.15 0 001.092-.276 2.03 2.03 0 00.768-.792c.184-.344.276-.736.276-1.176 0-.44-.092-.828-.276-1.164a1.93 1.93 0 00-.768-.792 2.15 2.15 0 00-1.092-.276c-.408 0-.776.092-1.104.276-.32.184-.576.448-.768.792a2.385 2.385 0 00-.276 1.164c0 .44.092.832.276 1.176.192.336.448.6.768.792.328.184.696.276 1.104.276zm8.469.564a1.79 1.79 0 01-.624.336 2.74 2.74 0 01-.768.108c-.64 0-1.136-.172-1.488-.516-.352-.344-.528-.836-.528-1.476v-3.492h-1.08v-.948h1.08v-1.392h1.152v1.392h1.824v.948h-1.824v3.444c0 .344.084.608.252.792.176.184.424.276.744.276.352 0 .652-.1.9-.3l.36.828zm3.709-6.048c.88 0 1.552.216 2.016.648.472.432.708 1.076.708 1.932V357h-1.092v-.84a1.853 1.853 0 01-.828.684c-.352.152-.772.228-1.26.228-.712 0-1.284-.172-1.716-.516-.424-.344-.636-.796-.636-1.356s.204-1.008.612-1.344c.408-.344 1.056-.516 1.944-.516h1.824v-.228c0-.496-.144-.876-.432-1.14-.288-.264-.712-.396-1.272-.396-.376 0-.744.064-1.104.192a2.76 2.76 0 00-.912.492l-.48-.864c.328-.264.72-.464 1.176-.6.456-.144.94-.216 1.452-.216zm-.264 5.604c.44 0 .82-.096 1.14-.288.32-.2.552-.48.696-.84v-.888h-1.776c-.976 0-1.464.328-1.464.984 0 .32.124.572.372.756.248.184.592.276 1.032.276zm5.12-8.088h1.151V357h-1.151v-8.904zm6.742.504h1.2v8.4h-1.2v-8.4zm6.943 1.98c.808 0 1.448.236 1.92.708.48.464.72 1.148.72 2.052V357H58.41v-3.528c0-.616-.148-1.08-.444-1.392-.296-.312-.72-.468-1.272-.468-.624 0-1.116.184-1.476.552-.36.36-.54.88-.54 1.56V357h-1.152v-6.36h1.104v.96c.232-.328.544-.58.936-.756.4-.176.852-.264 1.356-.264zm8.348 6.048a1.79 1.79 0 01-.624.336 2.74 2.74 0 01-.768.108c-.64 0-1.136-.172-1.488-.516-.352-.344-.528-.836-.528-1.476v-3.492h-1.08v-.948h1.08v-1.392h1.152v1.392h1.824v.948h-1.824v3.444c0 .344.084.608.252.792.176.184.424.276.744.276.352 0 .652-.1.9-.3l.36.828zm6.93-2.772c0 .088-.009.204-.025.348h-5.16c.072.56.316 1.012.732 1.356.424.336.948.504 1.572.504.76 0 1.372-.256 1.836-.768l.636.744a2.777 2.777 0 01-1.08.768c-.424.176-.9.264-1.428.264-.672 0-1.268-.136-1.788-.408a3.033 3.033 0 01-1.212-1.164 3.357 3.357 0 01-.42-1.68c0-.616.136-1.172.408-1.668.28-.496.66-.88 1.14-1.152a3.244 3.244 0 011.644-.42c.608 0 1.148.14 1.62.42.48.272.852.656 1.116 1.152.272.496.408 1.064.408 1.704zm-3.145-2.304c-.552 0-1.016.168-1.392.504-.368.336-.584.776-.648 1.32h4.08c-.064-.536-.284-.972-.66-1.308-.368-.344-.828-.516-1.38-.516zm5.848.156c.2-.368.496-.648.888-.84.392-.192.868-.288 1.428-.288v1.116a2.249 2.249 0 00-.264-.012c-.624 0-1.116.188-1.476.564-.352.368-.528.896-.528 1.584V357h-1.152v-6.36h1.104v1.068zm7.132-1.128c.808 0 1.448.236 1.92.708.48.464.72 1.148.72 2.052V357h-1.152v-3.528c0-.616-.148-1.08-.444-1.392-.296-.312-.72-.468-1.272-.468-.624 0-1.116.184-1.476.552-.36.36-.54.88-.54 1.56V357h-1.152v-6.36h1.104v.96c.232-.328.544-.58.936-.756.4-.176.852-.264 1.356-.264zm7.088 0c.88 0 1.552.216 2.016.648.472.432.708 1.076.708 1.932V357h-1.092v-.84a1.853 1.853 0 01-.828.684c-.352.152-.772.228-1.26.228-.712 0-1.284-.172-1.716-.516-.424-.344-.636-.796-.636-1.356s.204-1.008.612-1.344c.408-.344 1.056-.516 1.944-.516h1.824v-.228c0-.496-.144-.876-.432-1.14-.288-.264-.712-.396-1.272-.396-.376 0-.744.064-1.104.192a2.76 2.76 0 00-.912.492l-.48-.864c.328-.264.72-.464 1.176-.6.456-.144.94-.216 1.452-.216zm-.264 5.604c.44 0 .82-.096 1.14-.288.32-.2.552-.48.696-.84v-.888h-1.776c-.976 0-1.464.328-1.464.984 0 .32.124.572.372.756.248.184.592.276 1.032.276zm8.696.444a1.79 1.79 0 01-.624.336 2.74 2.74 0 01-.768.108c-.64 0-1.136-.172-1.488-.516-.352-.344-.528-.836-.528-1.476v-3.492h-1.08v-.948h1.08v-1.392h1.152v1.392h1.824v.948h-1.824v3.444c0 .344.084.608.252.792.176.184.424.276.744.276.352 0 .652-.1.9-.3l.36.828zm1.392-5.988h1.152V357h-1.151v-6.36zm.576-1.224a.789.789 0 01-.563-.216.718.718 0 01-.216-.528c0-.208.072-.384.216-.528a.766.766 0 01.564-.228c.224 0 .407.072.551.216a.662.662 0 01.228.516c0 .216-.076.4-.228.552a.746.746 0 01-.552.216zm5.5 7.656c-.632 0-1.2-.14-1.704-.42-.504-.28-.9-.664-1.188-1.152a3.357 3.357 0 01-.42-1.68c0-.624.14-1.18.42-1.668.288-.496.684-.88 1.188-1.152a3.449 3.449 0 011.704-.42c.632 0 1.196.14 1.692.42.504.272.896.656 1.176 1.152.288.488.432 1.044.432 1.668 0 .624-.144 1.184-.432 1.68-.28.488-.672.872-1.176 1.152-.496.28-1.06.42-1.692.42zm0-1.008a2.15 2.15 0 001.092-.276 2.03 2.03 0 00.768-.792c.184-.344.276-.736.276-1.176 0-.44-.092-.828-.276-1.164a1.93 1.93 0 00-.768-.792 2.15 2.15 0 00-1.092-.276c-.408 0-.776.092-1.104.276-.32.184-.576.448-.768.792a2.385 2.385 0 00-.276 1.164c0 .44.092.832.276 1.176.192.336.448.6.768.792.328.184.696.276 1.104.276zm8.289-5.484c.808 0 1.448.236 1.92.708.48.464.72 1.148.72 2.052V357H114.8v-3.528c0-.616-.148-1.08-.444-1.392-.296-.312-.72-.468-1.272-.468-.624 0-1.116.184-1.476.552-.36.36-.54.88-.54 1.56V357h-1.152v-6.36h1.104v.96c.232-.328.544-.58.936-.756.4-.176.852-.264 1.356-.264zm7.088 0c.88 0 1.552.216 2.016.648.472.432.708 1.076.708 1.932V357h-1.092v-.84a1.853 1.853 0 01-.828.684c-.352.152-.772.228-1.26.228-.712 0-1.284-.172-1.716-.516-.424-.344-.636-.796-.636-1.356s.204-1.008.612-1.344c.408-.344 1.056-.516 1.944-.516h1.824v-.228c0-.496-.144-.876-.432-1.14-.288-.264-.712-.396-1.272-.396-.376 0-.744.064-1.104.192a2.76 2.76 0 00-.912.492l-.48-.864c.328-.264.72-.464 1.176-.6.456-.144.94-.216 1.452-.216zm-.264 5.604c.44 0 .82-.096 1.14-.288.32-.2.552-.48.696-.84v-.888h-1.776c-.976 0-1.464.328-1.464.984 0 .32.124.572.372.756.248.184.592.276 1.032.276zm5.12-8.088h1.152V357h-1.152v-8.904zm9.19 9a5.914 5.914 0 01-1.836-.288c-.584-.2-1.044-.456-1.38-.768l.444-.936c.32.288.728.524 1.224.708.504.176 1.02.264 1.548.264.696 0 1.216-.116 1.56-.348.344-.24.516-.556.516-.948a.9.9 0 00-.288-.696 1.784 1.784 0 00-.696-.42c-.272-.096-.66-.204-1.164-.324a12.396 12.396 0 01-1.536-.456 2.616 2.616 0 01-.996-.696c-.272-.32-.408-.748-.408-1.284 0-.448.116-.852.348-1.212.24-.36.6-.648 1.08-.864.48-.216 1.076-.324 1.788-.324.496 0 .984.064 1.464.192s.892.312 1.236.552l-.396.96a4.199 4.199 0 00-1.128-.504 4.08 4.08 0 00-1.176-.18c-.68 0-1.192.124-1.536.372-.336.248-.504.568-.504.96 0 .288.096.524.288.708.192.176.428.316.708.42.288.096.676.2 1.164.312.632.152 1.14.304 1.524.456.384.152.712.384.984.696.28.312.42.732.42 1.26 0 .44-.12.844-.36 1.212-.24.36-.604.648-1.092.864-.488.208-1.088.312-1.8.312zm8.413-.468a1.79 1.79 0 01-.624.336 2.74 2.74 0 01-.768.108c-.64 0-1.136-.172-1.488-.516-.352-.344-.528-.836-.528-1.476v-3.492h-1.08v-.948h1.08v-1.392h1.152v1.392h1.824v.948h-1.824v3.444c0 .344.084.608.252.792.176.184.424.276.744.276.352 0 .652-.1.9-.3l.36.828zm7.321-5.988V357h-1.092v-.96c-.232.328-.54.584-.924.768a2.879 2.879 0 01-1.236.264c-.848 0-1.516-.232-2.004-.696-.488-.472-.732-1.164-.732-2.076v-3.66h1.152v3.528c0 .616.148 1.084.444 1.404.296.312.72.468 1.272.468.608 0 1.088-.184 1.44-.552.352-.368.528-.888.528-1.56v-3.288h1.152zm8.193-2.544V357h-1.104v-1.008c-.256.352-.58.62-.972.804a3.012 3.012 0 01-1.296.276 3.343 3.343 0 01-1.656-.408 2.976 2.976 0 01-1.152-1.14c-.272-.496-.408-1.064-.408-1.704 0-.64.136-1.204.408-1.692.28-.488.664-.868 1.152-1.14a3.343 3.343 0 011.656-.408c.456 0 .876.088 1.26.264.384.168.704.42.96.756v-3.504h1.152zm-3.276 7.968c.4 0 .764-.092 1.092-.276a2.03 2.03 0 00.768-.792c.184-.344.276-.736.276-1.176 0-.44-.092-.828-.276-1.164a1.93 1.93 0 00-.768-.792 2.193 2.193 0 00-1.092-.276c-.408 0-.776.092-1.104.276-.32.184-.576.448-.768.792a2.385 2.385 0 00-.276 1.164c0 .44.092.832.276 1.176.192.336.448.6.768.792.328.184.696.276 1.104.276zm11.204-2.208c0 .088-.008.204-.024.348h-5.16c.072.56.316 1.012.732 1.356.424.336.948.504 1.572.504.76 0 1.372-.256 1.836-.768l.636.744a2.777 2.777 0 01-1.08.768c-.424.176-.9.264-1.428.264-.672 0-1.268-.136-1.788-.408a3.033 3.033 0 01-1.212-1.164 3.357 3.357 0 01-.42-1.68c0-.616.136-1.172.408-1.668.28-.496.66-.88 1.14-1.152a3.244 3.244 0 011.644-.42c.608 0 1.148.14 1.62.42.48.272.852.656 1.116 1.152.272.496.408 1.064.408 1.704zm-3.144-2.304c-.552 0-1.016.168-1.392.504-.368.336-.584.776-.648 1.32h4.08c-.064-.536-.284-.972-.66-1.308-.368-.344-.828-.516-1.38-.516zm8.14-.972c.808 0 1.448.236 1.92.708.48.464.72 1.148.72 2.052V357h-1.152v-3.528c0-.616-.148-1.08-.444-1.392-.296-.312-.72-.468-1.272-.468-.624 0-1.116.184-1.476.552-.36.36-.54.88-.54 1.56V357h-1.152v-6.36h1.104v.96c.232-.328.544-.58.936-.756.4-.176.852-.264 1.356-.264zm8.348 6.048a1.79 1.79 0 01-.624.336 2.74 2.74 0 01-.768.108c-.64 0-1.136-.172-1.488-.516-.352-.344-.528-.836-.528-1.476v-3.492h-1.08v-.948h1.08v-1.392h1.152v1.392h1.824v.948h-1.824v3.444c0 .344.084.608.252.792.176.184.424.276.744.276.352 0 .652-.1.9-.3l.36.828zm3.216.444c-.52 0-1.02-.068-1.5-.204-.48-.144-.856-.324-1.128-.54l.48-.912c.28.2.62.36 1.02.48s.804.18 1.212.18c1.008 0 1.512-.288 1.512-.864a.56.56 0 00-.204-.456 1.235 1.235 0 00-.516-.24 9.055 9.055 0 00-.864-.18 8.75 8.75 0 01-1.26-.276 1.937 1.937 0 01-.828-.528c-.232-.248-.348-.596-.348-1.044 0-.576.24-1.036.72-1.38.48-.352 1.124-.528 1.932-.528.424 0 .848.052 1.272.156.424.104.772.244 1.044.42l-.492.912c-.52-.336-1.132-.504-1.836-.504-.488 0-.86.08-1.116.24-.256.16-.384.372-.384.636 0 .208.072.372.216.492.144.12.32.208.528.264.216.056.516.12.9.192.512.088.924.184 1.236.288.32.096.592.264.816.504.224.24.336.576.336 1.008 0 .576-.248 1.036-.744 1.38-.488.336-1.156.504-2.004.504zm7.003-3.864h3.228v.996h-3.228v-.996zm10.432-4.704c1.128 0 1.996.364 2.604 1.092.616.728.924 1.76.924 3.096 0 .936-.168 1.736-.504 2.4a3.468 3.468 0 01-1.392 1.5c-.592.336-1.284.504-2.076.504-.408 0-.792-.04-1.152-.12a3.316 3.316 0 01-.936-.372l.456-.936c.408.264.948.396 1.62.396.872 0 1.552-.268 2.04-.804.496-.544.744-1.332.744-2.364v-.3c-.24.36-.572.636-.996.828-.424.184-.9.276-1.428.276a3.44 3.44 0 01-1.488-.312 2.452 2.452 0 01-1.02-.888c-.24-.392-.36-.84-.36-1.344 0-.528.128-.992.384-1.392.264-.4.62-.708 1.068-.924a3.334 3.334 0 011.512-.336zm.108 4.224c.376 0 .712-.072 1.008-.216.296-.144.524-.34.684-.588.168-.248.252-.524.252-.828 0-.296-.08-.564-.24-.804a1.555 1.555 0 00-.684-.588c-.296-.152-.656-.228-1.08-.228-.552 0-1 .148-1.344.444-.336.296-.504.692-.504 1.188s.172.892.516 1.188c.344.288.808.432 1.392.432zm10.612-4.128v.816L207.62 357h-1.272l3.324-7.356h-3.84v1.5h-1.152V348.6h6.336zm7.575 6.336h-1.596V357h-1.164v-2.064h-4.668v-.84l4.296-5.496h1.296l-4.116 5.304h3.228v-1.824h1.128v1.824h1.596v1.032zm1.758.492a.71.71 0 01.552.24.78.78 0 01.228.576c0 .12-.016.236-.048.348a4.964 4.964 0 01-.156.516l-.564 1.668h-.756l.444-1.788a.801.801 0 01-.372-.276.842.842 0 01-.132-.468c0-.24.076-.436.228-.588a.78.78 0 01.576-.228zm4.639-6.924c1.128 0 1.996.364 2.604 1.092.616.728.924 1.76.924 3.096 0 .936-.168 1.736-.504 2.4a3.468 3.468 0 01-1.392 1.5c-.592.336-1.284.504-2.076.504-.408 0-.792-.04-1.152-.12a3.316 3.316 0 01-.936-.372l.456-.936c.408.264.948.396 1.62.396.872 0 1.552-.268 2.04-.804.496-.544.744-1.332.744-2.364v-.3c-.24.36-.572.636-.996.828-.424.184-.9.276-1.428.276a3.44 3.44 0 01-1.488-.312 2.452 2.452 0 01-1.02-.888c-.24-.392-.36-.84-.36-1.344 0-.528.128-.992.384-1.392.264-.4.62-.708 1.068-.924a3.334 3.334 0 011.512-.336zm.108 4.224c.376 0 .712-.072 1.008-.216.296-.144.524-.34.684-.588.168-.248.252-.524.252-.828 0-.296-.08-.564-.24-.804a1.555 1.555 0 00-.684-.588c-.296-.152-.656-.228-1.08-.228-.552 0-1 .148-1.344.444-.336.296-.504.692-.504 1.188s.172.892.516 1.188c.344.288.808.432 1.392.432zm10.443 3.228V357h-6.036v-.816l3.42-3.3c.416-.4.696-.744.84-1.032.144-.296.216-.592.216-.888 0-.44-.156-.78-.468-1.02-.304-.248-.744-.372-1.32-.372-.928 0-1.644.304-2.148.912l-.816-.708c.328-.4.756-.712 1.284-.936a4.594 4.594 0 011.788-.336c.88 0 1.58.212 2.1.636.52.416.78.984.78 1.704 0 .448-.096.872-.288 1.272-.192.4-.556.856-1.092 1.368l-2.568 2.472h4.308zm4.575-4.056c.552 0 1.044.104 1.476.312a2.4 2.4 0 011.404 2.232c0 .528-.132.992-.396 1.392-.256.4-.612.712-1.068.936a3.437 3.437 0 01-1.512.324c-1.128 0-2-.364-2.616-1.092-.608-.728-.912-1.76-.912-3.096 0-.936.164-1.732.492-2.388.336-.664.8-1.164 1.392-1.5.6-.344 1.296-.516 2.088-.516.408 0 .792.044 1.152.132.36.08.672.2.936.36l-.456.936c-.4-.264-.936-.396-1.608-.396-.872 0-1.556.272-2.052.816-.496.536-.744 1.32-.744 2.352 0 .128.004.228.012.3.24-.36.568-.632.984-.816.424-.192.9-.288 1.428-.288zm-.144 4.224c.552 0 1-.148 1.344-.444.344-.296.516-.692.516-1.188s-.176-.888-.528-1.176c-.344-.296-.808-.444-1.392-.444-.376 0-.712.072-1.008.216-.288.144-.516.34-.684.588-.16.248-.24.524-.24.828 0 .296.076.568.228.816.16.24.388.436.684.588.304.144.664.216 1.08.216zM17.504 319.8h2.08V331h-2.08v-11.2zm9.765 2.56c1.078 0 1.942.315 2.592.944.651.629.976 1.563.976 2.8V331h-2v-4.64c0-.747-.176-1.307-.528-1.68-.352-.384-.853-.576-1.504-.576-.736 0-1.317.224-1.744.672-.426.437-.64 1.072-.64 1.904V331h-2v-8.544h1.904v1.104a3.131 3.131 0 011.248-.896c.502-.203 1.067-.304 1.696-.304zm11.242 8.176a2.35 2.35 0 01-.864.432 3.77 3.77 0 01-1.056.144c-.94 0-1.665-.245-2.177-.736-.511-.491-.767-1.205-.767-2.144v-4.112h-1.408v-1.6h1.408v-1.952h2v1.952h2.288v1.6h-2.288v4.064c0 .416.1.736.303.96.203.213.496.32.88.32.449 0 .822-.117 1.12-.352l.56 1.424zm9.395-3.76c0 .139-.01.336-.032.592H41.17c.118.629.422 1.131.913 1.504.5.363 1.12.544 1.855.544.94 0 1.712-.309 2.32-.928l1.072 1.232a3.603 3.603 0 01-1.456 1.04c-.586.235-1.248.352-1.983.352-.94 0-1.766-.187-2.48-.56A4.104 4.104 0 0139.745 329c-.384-.672-.576-1.429-.576-2.272 0-.832.187-1.579.56-2.24a4.067 4.067 0 011.585-1.568c.672-.373 1.429-.56 2.272-.56.831 0 1.573.187 2.223.56a3.78 3.78 0 011.536 1.552c.374.661.56 1.429.56 2.304zm-4.32-2.816c-.64 0-1.183.192-1.631.576-.438.373-.704.875-.8 1.504h4.847c-.085-.619-.346-1.12-.784-1.504-.437-.384-.98-.576-1.632-.576zm8.146-.256c.576-.896 1.589-1.344 3.04-1.344v1.904a2.538 2.538 0 00-.464-.048c-.779 0-1.387.229-1.824.688-.438.448-.656 1.099-.656 1.952V331h-2v-8.544h1.904v1.248zm9.584-1.344c1.078 0 1.942.315 2.592.944.65.629.976 1.563.976 2.8V331h-2v-4.64c0-.747-.176-1.307-.528-1.68-.352-.384-.853-.576-1.504-.576-.736 0-1.317.224-1.744.672-.426.437-.64 1.072-.64 1.904V331h-2v-8.544h1.904v1.104c.33-.395.747-.693 1.248-.896.502-.203 1.067-.304 1.696-.304zm9.37 0c1.258 0 2.218.304 2.88.912.671.597 1.007 1.504 1.007 2.72V331h-1.888v-1.04c-.245.373-.597.661-1.056.864-.448.192-.992.288-1.632.288-.64 0-1.2-.107-1.68-.32-.48-.224-.853-.528-1.12-.912a2.388 2.388 0 01-.384-1.328c0-.768.283-1.381.848-1.84.576-.469 1.478-.704 2.704-.704h2.208v-.128c0-.597-.181-1.056-.544-1.376-.352-.32-.88-.48-1.584-.48-.48 0-.954.075-1.424.224a3.477 3.477 0 00-1.168.624l-.784-1.456a4.854 4.854 0 011.616-.784 7.202 7.202 0 012-.272zm-.273 7.296c.502 0 .944-.112 1.328-.336a1.9 1.9 0 00.832-.992v-.992H70.51c-1.152 0-1.728.379-1.728 1.136 0 .363.144.651.432.864.288.213.688.32 1.2.32zm11.863.88a2.349 2.349 0 01-.864.432 3.77 3.77 0 01-1.056.144c-.938 0-1.664-.245-2.176-.736-.512-.491-.768-1.205-.768-2.144v-4.112h-1.408v-1.6h1.408v-1.952h2v1.952H81.7v1.6h-2.288v4.064c0 .416.101.736.304.96.203.213.496.32.88.32.448 0 .822-.117 1.12-.352l.56 1.424zm1.645-8.08h2V331h-2v-8.544zm1.008-1.408c-.362 0-.666-.112-.912-.336a1.15 1.15 0 01-.368-.864 1.1 1.1 0 01.368-.848c.246-.235.55-.352.912-.352a1.3 1.3 0 01.912.336c.246.213.368.485.368.816 0 .352-.122.651-.368.896-.234.235-.538.352-.912.352zm7.457 10.064c-.864 0-1.642-.187-2.336-.56A4.155 4.155 0 0188.418 329c-.384-.672-.576-1.429-.576-2.272 0-.843.192-1.595.576-2.256a4.155 4.155 0 011.632-1.552c.694-.373 1.472-.56 2.336-.56.875 0 1.659.187 2.352.56a4.045 4.045 0 011.616 1.552c.395.661.592 1.413.592 2.256 0 .843-.197 1.6-.592 2.272a4.045 4.045 0 01-1.616 1.552c-.693.373-1.477.56-2.352.56zm0-1.712c.736 0 1.344-.245 1.824-.736s.72-1.136.72-1.936-.24-1.445-.72-1.936c-.48-.491-1.088-.736-1.824-.736s-1.344.245-1.824.736c-.469.491-.704 1.136-.704 1.936s.235 1.445.704 1.936c.48.491 1.088.736 1.824.736zm11.321-7.04c1.077 0 1.941.315 2.592.944s.976 1.563.976 2.8V331h-2v-4.64c0-.747-.176-1.307-.528-1.68-.352-.384-.853-.576-1.504-.576-.736 0-1.317.224-1.744.672-.427.437-.64 1.072-.64 1.904V331h-2v-8.544h1.904v1.104a3.131 3.131 0 011.248-.896c.501-.203 1.067-.304 1.696-.304zm9.369 0c1.259 0 2.219.304 2.88.912.672.597 1.008 1.504 1.008 2.72V331h-1.888v-1.04c-.245.373-.597.661-1.056.864-.448.192-.992.288-1.632.288-.64 0-1.2-.107-1.68-.32-.48-.224-.853-.528-1.12-.912a2.388 2.388 0 01-.384-1.328c0-.768.283-1.381.848-1.84.576-.469 1.477-.704 2.704-.704h2.208v-.128c0-.597-.181-1.056-.544-1.376-.352-.32-.88-.48-1.584-.48-.48 0-.955.075-1.424.224a3.474 3.474 0 00-1.168.624l-.784-1.456c.448-.341.987-.603 1.616-.784a7.2 7.2 0 012-.272zm-.272 7.296c.501 0 .944-.112 1.328-.336.395-.235.672-.565.832-.992v-.992H112.9c-1.152 0-1.728.379-1.728 1.136 0 .363.144.651.432.864.288.213.688.32 1.2.32zm6.727-10.528h2V331h-2v-11.872zm12.711 12.032a8.633 8.633 0 01-2.512-.368c-.8-.245-1.435-.571-1.904-.976l.72-1.616c.458.363 1.018.661 1.68.896a6.342 6.342 0 002.016.336c.832 0 1.45-.133 1.856-.4.416-.267.624-.619.624-1.056a.99.99 0 00-.352-.784 2.273 2.273 0 00-.864-.496 19.44 19.44 0 00-1.44-.4c-.854-.203-1.547-.405-2.08-.608a3.52 3.52 0 01-1.36-.944c-.374-.437-.56-1.024-.56-1.76 0-.619.165-1.179.496-1.68.341-.512.848-.917 1.52-1.216.682-.299 1.514-.448 2.496-.448.682 0 1.354.085 2.016.256.661.171 1.232.416 1.712.736l-.656 1.616a6.47 6.47 0 00-1.536-.656 5.764 5.764 0 00-1.552-.224c-.822 0-1.435.139-1.84.416-.395.277-.592.645-.592 1.104 0 .32.112.581.336.784.234.203.528.363.88.48.352.117.832.251 1.44.4.832.192 1.514.395 2.048.608.533.203.986.517 1.36.944.384.427.576 1.003.576 1.728 0 .619-.171 1.179-.512 1.68-.331.501-.838.901-1.52 1.2-.683.299-1.515.448-2.496.448zm11.534-.624a2.355 2.355 0 01-.864.432 3.774 3.774 0 01-1.056.144c-.939 0-1.664-.245-2.176-.736-.512-.491-.768-1.205-.768-2.144v-4.112h-1.408v-1.6h1.408v-1.952h2v1.952h2.288v1.6h-2.288v4.064c0 .416.101.736.304.96.203.213.496.32.88.32.448 0 .821-.117 1.12-.352l.56 1.424zm9.917-8.08V331h-1.904v-1.088c-.32.384-.72.683-1.2.896-.48.203-.997.304-1.552.304-1.141 0-2.042-.315-2.704-.944-.65-.64-.976-1.584-.976-2.832v-4.88h2v4.608c0 .768.171 1.344.512 1.728.352.373.848.56 1.488.56.715 0 1.28-.219 1.696-.656.427-.448.64-1.088.64-1.92v-4.32h2zm10.987-3.328V331h-1.92v-1.104a3.09 3.09 0 01-1.232.912 4.067 4.067 0 01-1.6.304c-.821 0-1.563-.181-2.224-.544a3.938 3.938 0 01-1.536-1.536c-.373-.672-.56-1.44-.56-2.304 0-.864.187-1.627.56-2.288a3.938 3.938 0 011.536-1.536c.661-.363 1.403-.544 2.224-.544.565 0 1.083.096 1.552.288.469.192.869.48 1.2.864v-4.384h2zm-4.512 10.272c.48 0 .912-.107 1.296-.32a2.43 2.43 0 00.912-.944c.224-.405.336-.875.336-1.408 0-.533-.112-1.003-.336-1.408a2.315 2.315 0 00-.912-.928 2.524 2.524 0 00-1.296-.336c-.48 0-.912.112-1.296.336a2.315 2.315 0 00-.912.928c-.224.405-.336.875-.336 1.408 0 .533.112 1.003.336 1.408.224.405.528.72.912.944.384.213.816.32 1.296.32zm15.16-2.624c0 .139-.01.336-.032.592h-6.704c.118.629.422 1.131.912 1.504.502.363 1.12.544 1.856.544.939 0 1.712-.309 2.32-.928l1.072 1.232a3.61 3.61 0 01-1.456 1.04c-.586.235-1.248.352-1.984.352-.938 0-1.765-.187-2.48-.56a4.11 4.11 0 01-1.664-1.552c-.384-.672-.576-1.429-.576-2.272 0-.832.187-1.579.56-2.24a4.067 4.067 0 011.584-1.568c.672-.373 1.43-.56 2.272-.56.832 0 1.574.187 2.224.56.662.363 1.174.88 1.536 1.552.374.661.56 1.429.56 2.304zm-4.32-2.816c-.64 0-1.184.192-1.632.576-.437.373-.704.875-.8 1.504h4.848c-.085-.619-.346-1.12-.784-1.504-.437-.384-.981-.576-1.632-.576zm11.09-1.6c1.077 0 1.941.315 2.592.944.65.629.976 1.563.976 2.8V331h-2v-4.64c0-.747-.176-1.307-.528-1.68-.352-.384-.854-.576-1.504-.576-.736 0-1.318.224-1.744.672-.427.437-.64 1.072-.64 1.904V331h-2v-8.544h1.904v1.104c.33-.395.746-.693 1.248-.896.501-.203 1.066-.304 1.696-.304zm11.241 8.176a2.355 2.355 0 01-.864.432 3.774 3.774 0 01-1.056.144c-.939 0-1.664-.245-2.176-.736-.512-.491-.768-1.205-.768-2.144v-4.112h-1.408v-1.6h1.408v-1.952h2v1.952h2.288v1.6h-2.288v4.064c0 .416.101.736.304.96.202.213.496.32.88.32.448 0 .821-.117 1.12-.352l.56 1.424zm4.285.576a7.663 7.663 0 01-2.032-.272c-.661-.181-1.189-.411-1.584-.688l.768-1.52c.384.256.843.464 1.376.624a6.04 6.04 0 001.6.224c1.195 0 1.792-.315 1.792-.944 0-.299-.155-.507-.464-.624-.299-.117-.784-.229-1.456-.336-.704-.107-1.28-.229-1.728-.368a2.747 2.747 0 01-1.152-.72c-.32-.352-.48-.837-.48-1.456 0-.811.336-1.456 1.008-1.936.683-.491 1.6-.736 2.752-.736a7.61 7.61 0 011.76.208c.587.128 1.067.304 1.44.528l-.768 1.52c-.725-.427-1.541-.64-2.448-.64-.587 0-1.035.091-1.344.272-.299.171-.448.4-.448.688 0 .32.16.549.48.688.331.128.837.251 1.52.368.683.107 1.243.229 1.68.368.437.139.811.373 1.12.704.32.331.48.8.48 1.408 0 .8-.347 1.44-1.04 1.92-.693.48-1.637.72-2.832.72zm12.288-9.568v3.408h5.408v1.76h-5.408V331h-2.08v-11.2h8.176v1.744h-6.096zm7.759.912h2V331h-2v-8.544zm1.008-1.408c-.362 0-.666-.112-.912-.336a1.151 1.151 0 01-.368-.864 1.1 1.1 0 01.368-.848c.246-.235.55-.352.912-.352a1.3 1.3 0 01.912.336c.246.213.368.485.368.816 0 .352-.122.651-.368.896-.234.235-.538.352-.912.352zm11.649 5.728c0 .139-.01.336-.032.592h-6.704c.118.629.422 1.131.912 1.504.502.363 1.12.544 1.856.544.939 0 1.712-.309 2.32-.928l1.072 1.232a3.61 3.61 0 01-1.456 1.04c-.586.235-1.248.352-1.984.352-.938 0-1.765-.187-2.48-.56a4.11 4.11 0 01-1.664-1.552c-.384-.672-.576-1.429-.576-2.272 0-.832.187-1.579.56-2.24a4.067 4.067 0 011.584-1.568c.672-.373 1.43-.56 2.272-.56.832 0 1.574.187 2.224.56.662.363 1.174.88 1.536 1.552.374.661.56 1.429.56 2.304zm-4.32-2.816c-.64 0-1.184.192-1.632.576-.437.373-.704.875-.8 1.504h4.848c-.085-.619-.346-1.12-.784-1.504-.437-.384-.981-.576-1.632-.576zm6.242-4.832h2V331h-2v-11.872zm12.993 0V331h-1.92v-1.104a3.096 3.096 0 01-1.232.912 4.07 4.07 0 01-1.6.304c-.822 0-1.563-.181-2.224-.544a3.938 3.938 0 01-1.536-1.536c-.374-.672-.56-1.44-.56-2.304 0-.864.186-1.627.56-2.288a3.938 3.938 0 011.536-1.536c.661-.363 1.402-.544 2.224-.544.565 0 1.082.096 1.552.288.469.192.869.48 1.2.864v-4.384h2zm-4.512 10.272c.48 0 .912-.107 1.296-.32a2.43 2.43 0 00.912-.944c.224-.405.336-.875.336-1.408 0-.533-.112-1.003-.336-1.408a2.315 2.315 0 00-.912-.928 2.524 2.524 0 00-1.296-.336c-.48 0-.912.112-1.296.336a2.315 2.315 0 00-.912.928c-.224.405-.336.875-.336 1.408 0 .533.112 1.003.336 1.408.224.405.528.72.912.944.384.213.816.32 1.296.32zm9.768 1.712a7.663 7.663 0 01-2.032-.272c-.661-.181-1.189-.411-1.584-.688l.768-1.52c.384.256.843.464 1.376.624a6.04 6.04 0 001.6.224c1.195 0 1.792-.315 1.792-.944 0-.299-.155-.507-.464-.624-.299-.117-.784-.229-1.456-.336-.704-.107-1.28-.229-1.728-.368a2.747 2.747 0 01-1.152-.72c-.32-.352-.48-.837-.48-1.456 0-.811.336-1.456 1.008-1.936.683-.491 1.6-.736 2.752-.736a7.61 7.61 0 011.76.208c.587.128 1.067.304 1.44.528l-.768 1.52c-.725-.427-1.541-.64-2.448-.64-.587 0-1.035.091-1.344.272-.299.171-.448.4-.448.688 0 .32.16.549.48.688.331.128.837.251 1.52.368.683.107 1.243.229 1.68.368.437.139.811.373 1.12.704.32.331.48.8.48 1.408 0 .8-.347 1.44-1.04 1.92-.693.48-1.637.72-2.832.72zm-7.617-62.912h1.4v8.582h5.306V278h-6.706v-9.8zm10.86 2.31c1.026 0 1.81.252 2.352.756.55.504.826 1.255.826 2.254V278h-1.274v-.98a2.166 2.166 0 01-.966.798c-.411.177-.901.266-1.47.266-.831 0-1.498-.201-2.002-.602-.495-.401-.742-.929-.742-1.582s.238-1.176.714-1.568c.476-.401 1.232-.602 2.268-.602h2.128v-.266c0-.579-.168-1.022-.504-1.33-.336-.308-.831-.462-1.484-.462-.439 0-.868.075-1.288.224a3.21 3.21 0 00-1.064.574l-.56-1.008a3.97 3.97 0 011.372-.7 5.59 5.59 0 011.694-.252zm-.308 6.538c.513 0 .956-.112 1.33-.336a2 2 0 00.812-.98v-1.036h-2.072c-1.139 0-1.708.383-1.708 1.148 0 .373.144.667.434.882.289.215.69.322 1.204.322zm17.064-6.468l-2.772 7.42h-1.288l-2.142-5.628-2.17 5.628h-1.288l-2.758-7.42h1.274l2.156 5.908 2.24-5.908h1.134l2.198 5.936 2.212-5.936h1.204z" fill="#333"/><path d="M288 225c0 .814-.03 1.619-.09 2.417a31.793 31.793 0 01-3.103 11.529C279.626 249.632 268.674 257 256 257c-.714 0-1.423-.024-2.125-.07a31.88 31.88 0 01-4.813-.685l-.055-.013-.007-.001c-14.306-3.192-25-15.962-25-31.231 0-17.673 14.327-32 32-32 14.836 0 27.315 10.097 30.938 23.795l.017.063A32.011 32.011 0 01288 225z" fill="#E08AF5"/><path d="M269.438 213.876h-2.766l-5.236 10.638 2.047 1.388 4.572-9.289 4.571 9.288 2.048-1.387-5.236-10.638z" fill="#fff"/><path d="M269.438 213.876h-1.383v2.738-.001l4.571 9.288 2.048-1.387-5.236-10.638z" fill="#fff"/><path d="M268.055 232.078a6.618 6.618 0 01-6.619-6.619v-.945h13.238v.945a6.62 6.62 0 01-6.619 6.619z" fill="#FED230"/><path d="M268.055 224.514v7.564a6.62 6.62 0 006.619-6.619v-.945h-6.619z" fill="#FBBE2C"/><path d="M260.49 223.883h15.129v2.837H260.49v-2.837z" fill="#FBBE2C"/><path d="M268.055 223.883h7.564v2.837h-7.564v-2.837z" fill="#E5A629"/><path d="M244.947 213.876h-2.765l-5.237 10.638 2.048 1.388 4.572-9.289 4.571 9.288 2.047-1.387-5.236-10.638z" fill="#fff"/><path d="M244.948 213.876h-1.384v2.738l.001-.001 4.571 9.288 2.047-1.387-5.235-10.638z" fill="#fff"/><path d="M243.564 232.078a6.62 6.62 0 01-6.619-6.619v-.945h13.238v.945a6.618 6.618 0 01-6.619 6.619z" fill="#FED230"/><path d="M243.564 224.514v7.564a6.618 6.618 0 006.619-6.619v-.945h-6.619z" fill="#FBBE2C"/><path d="M236 223.883h15.129v2.837H236v-2.837z" fill="#FBBE2C"/><path d="M243.564 223.883h7.565v2.837h-7.565v-2.837z" fill="#E5A629"/><path d="M253.871 238.604V207h3.782v31.604h-3.782z" fill="#fff"/><path d="M270.891 214.254h-30.259v-2.836h30.259v2.836z" fill="#FED230"/><path d="M255.762 207h1.891v31.604h-1.891V207z" fill="#fff"/><path d="M248.67 237.326h14.184v3.184H248.67v-3.184z" fill="#FBBE2C"/><path d="M255.762 237.326h7.092v3.184h-7.092v-3.184z" fill="#E5A629"/><path d="M243.943 240.163h23.64V243h-23.64v-2.837z" fill="#FED230"/><path d="M255.762 240.163h11.819V243h-11.819v-2.837zm0-28.745h15.129v2.837h-15.129v-2.837z" fill="#FBBE2C"/><path d="M255.763 215.673a2.837 2.837 0 10-.001-5.673 2.837 2.837 0 00.001 5.673z" fill="#FBBE2C"/><path d="M255.762 210v5.673a2.837 2.837 0 000-5.673z" fill="#E5A629"/><path d="M128.187 276.782V278h-7.112v-9.8h6.916v1.218h-5.516v3.01h4.914v1.19h-4.914v3.164h5.712zm8.976-9.17V278h-1.288v-1.176a2.915 2.915 0 01-1.134.938 3.513 3.513 0 01-1.512.322c-.719 0-1.363-.159-1.932-.476a3.463 3.463 0 01-1.344-1.33c-.318-.579-.476-1.241-.476-1.988 0-.747.158-1.405.476-1.974a3.463 3.463 0 011.344-1.33c.569-.317 1.213-.476 1.932-.476a3.49 3.49 0 011.47.308c.448.196.821.49 1.12.882v-4.088h1.344zm-3.822 9.296c.466 0 .891-.107 1.274-.322.382-.224.681-.532.896-.924.214-.401.322-.859.322-1.372 0-.513-.108-.966-.322-1.358a2.26 2.26 0 00-.896-.924 2.558 2.558 0 00-1.274-.322c-.476 0-.906.107-1.288.322a2.372 2.372 0 00-.896.924c-.215.392-.322.845-.322 1.358 0 .513.107.971.322 1.372.224.392.522.7.896.924.382.215.812.322 1.288.322zm13.281-6.328V278h-1.274v-1.12c-.271.383-.63.681-1.078.896-.439.205-.92.308-1.442.308-.99 0-1.769-.271-2.338-.812-.57-.551-.854-1.358-.854-2.422v-4.27h1.344v4.116c0 .719.172 1.265.518 1.638.345.364.84.546 1.484.546.709 0 1.269-.215 1.68-.644.41-.429.616-1.036.616-1.82v-3.836h1.344zm5.792 7.504c-.756 0-1.432-.163-2.03-.49a3.624 3.624 0 01-1.386-1.344c-.336-.579-.504-1.232-.504-1.96s.168-1.377.504-1.946a3.486 3.486 0 011.386-1.344c.598-.327 1.274-.49 2.03-.49.672 0 1.27.135 1.792.406.532.271.943.663 1.232 1.176l-1.022.658a2.27 2.27 0 00-.868-.798 2.479 2.479 0 00-1.148-.266c-.485 0-.924.107-1.316.322a2.352 2.352 0 00-.91.924c-.214.392-.322.845-.322 1.358 0 .523.108.985.322 1.386.224.392.528.695.91.91.392.215.831.322 1.316.322.42 0 .803-.089 1.148-.266a2.27 2.27 0 00.868-.798l1.022.644c-.289.513-.7.91-1.232 1.19-.522.271-1.12.406-1.792.406zm7.466-7.574c1.027 0 1.811.252 2.352.756.551.504.826 1.255.826 2.254V278h-1.274v-.98a2.166 2.166 0 01-.966.798c-.41.177-.9.266-1.47.266-.83 0-1.498-.201-2.002-.602-.494-.401-.742-.929-.742-1.582s.238-1.176.714-1.568c.476-.401 1.232-.602 2.268-.602h2.128v-.266c0-.579-.168-1.022-.504-1.33-.336-.308-.83-.462-1.484-.462a3.83 3.83 0 00-1.288.224 3.22 3.22 0 00-1.064.574l-.56-1.008c.383-.308.84-.541 1.372-.7a5.595 5.595 0 011.694-.252zm-.308 6.538c.514 0 .957-.112 1.33-.336.374-.233.644-.56.812-.98v-1.036h-2.072c-1.138 0-1.708.383-1.708 1.148 0 .373.145.667.434.882.29.215.691.322 1.204.322zm10.145.518a2.077 2.077 0 01-.728.392 3.196 3.196 0 01-.896.126c-.746 0-1.325-.201-1.736-.602-.41-.401-.616-.975-.616-1.722v-4.074h-1.26v-1.106h1.26v-1.624h1.344v1.624h2.128v1.106h-2.128v4.018c0 .401.098.709.294.924.206.215.495.322.868.322.411 0 .761-.117 1.05-.35l.42.966zm1.625-6.986h1.344V278h-1.344v-7.42zm.672-1.428a.922.922 0 01-.658-.252.837.837 0 01-.252-.616c0-.243.084-.448.252-.616a.897.897 0 01.658-.266c.262 0 .476.084.644.252a.77.77 0 01.266.602.874.874 0 01-.266.644.871.871 0 01-.644.252zm6.417 8.932c-.738 0-1.4-.163-1.988-.49a3.624 3.624 0 01-1.386-1.344c-.327-.579-.49-1.232-.49-1.96s.163-1.377.49-1.946a3.486 3.486 0 011.386-1.344c.588-.327 1.25-.49 1.988-.49.737 0 1.395.163 1.974.49a3.394 3.394 0 011.372 1.344c.336.569.504 1.218.504 1.946s-.168 1.381-.504 1.96a3.525 3.525 0 01-1.372 1.344c-.579.327-1.237.49-1.974.49zm0-1.176c.476 0 .9-.107 1.274-.322.382-.224.681-.532.896-.924.214-.401.322-.859.322-1.372 0-.513-.108-.966-.322-1.358a2.26 2.26 0 00-.896-.924 2.508 2.508 0 00-1.274-.322c-.476 0-.906.107-1.288.322a2.372 2.372 0 00-.896.924c-.215.392-.322.845-.322 1.358 0 .513.107.971.322 1.372.224.392.522.7.896.924.382.215.812.322 1.288.322zm9.67-6.398c.943 0 1.69.275 2.24.826.56.541.84 1.339.84 2.394V278h-1.344v-4.116c0-.719-.172-1.26-.518-1.624-.345-.364-.84-.546-1.484-.546-.728 0-1.302.215-1.722.644-.42.42-.63 1.027-.63 1.82V278h-1.344v-7.42h1.288v1.12a2.62 2.62 0 011.092-.882 3.896 3.896 0 011.582-.308z" fill="#333"/><path d="M188 225c0 17.673-14.327 32-32 32-17.673 0-32-14.327-32-32 0-17.673 14.327-32 32-32 17.673 0 32 14.327 32 32z" fill="#E08AF5"/><path d="M167.453 238.781l-13.078-2.46v5.624h13.078v-3.164z" fill="#EDEBEA"/><path d="M143.336 236.321h12.445v5.624h-12.445v-5.624z" fill="#fff"/><path d="M169.562 240.891h-13.781l-1.406 1.054 1.406 1.055h13.781v-2.109z" fill="#337AAD"/><path d="M154.375 233.157h13.078v5.624h-13.078v-5.624z" fill="#D6D3D1"/><path d="M143.336 233.157h12.445v5.624h-12.445v-5.624z" fill="#EDEBEA"/><path d="M144.109 240.891v-7.383L142 236.672V243h13.781v-2.109h-11.672zM169.563 207h-13.782l-2.812 14.836 2.812 14.836h13.782V207z" fill="#54A0C8"/><path d="M142 207h13.781v29.672H142V207z" fill="#76C5E4"/><path d="M165.344 211.219h-9.563l-2.812 10.617 2.812 10.617h9.563v-21.234z" fill="#fff"/><path d="M146.219 211.219h9.562v21.234h-9.562v-21.234z" fill="#fff"/><path d="M158.945 207v20.672l-3.164-3.164-2.109-8.754 2.109-8.754h3.164z" fill="#FF5552"/><path d="M155.781 207v17.508l-3.164 3.164V207h3.164z" fill="#FF7A78"/><path d="M38.72 278l-.014-7.14-3.542 5.95h-.644l-3.542-5.908V278h-1.344v-9.8h1.148l4.088 6.888 4.032-6.888h1.148l.014 9.8H38.72zm10.795-3.668c0 .103-.01.238-.028.406h-6.02c.084.653.369 1.181.854 1.582.495.392 1.106.588 1.834.588.887 0 1.6-.299 2.142-.896l.742.868a3.237 3.237 0 01-1.26.896 4.315 4.315 0 01-1.666.308c-.784 0-1.48-.159-2.086-.476a3.539 3.539 0 01-1.414-1.358c-.327-.579-.49-1.232-.49-1.96 0-.719.159-1.367.476-1.946A3.469 3.469 0 0143.93 271a3.784 3.784 0 011.918-.49c.71 0 1.34.163 1.89.49.56.317.994.765 1.302 1.344.317.579.476 1.241.476 1.988zm-3.668-2.688c-.644 0-1.185.196-1.624.588-.43.392-.681.905-.756 1.54h4.76c-.074-.625-.331-1.134-.77-1.526-.43-.401-.966-.602-1.61-.602zm12.534-4.032V278h-1.288v-1.176a2.91 2.91 0 01-1.134.938 3.509 3.509 0 01-1.512.322c-.718 0-1.362-.159-1.932-.476a3.473 3.473 0 01-1.344-1.33c-.317-.579-.476-1.241-.476-1.988 0-.747.16-1.405.476-1.974a3.473 3.473 0 011.344-1.33c.57-.317 1.214-.476 1.932-.476a3.49 3.49 0 011.47.308c.448.196.822.49 1.12.882v-4.088h1.344zm-3.822 9.296c.467 0 .892-.107 1.274-.322.383-.224.682-.532.896-.924a2.86 2.86 0 00.322-1.372c0-.513-.107-.966-.322-1.358a2.254 2.254 0 00-.896-.924 2.555 2.555 0 00-1.274-.322c-.476 0-.905.107-1.288.322a2.377 2.377 0 00-.896.924c-.214.392-.322.845-.322 1.358 0 .513.108.971.322 1.372.224.392.523.7.896.924.383.215.812.322 1.288.322zm6.365-6.328h1.344V278h-1.344v-7.42zm.672-1.428a.92.92 0 01-.658-.252.837.837 0 01-.252-.616c0-.243.084-.448.252-.616a.895.895 0 01.658-.266c.262 0 .476.084.644.252a.773.773 0 01.266.602.877.877 0 01-.266.644.872.872 0 01-.644.252zm6.473 8.932c-.757 0-1.433-.163-2.03-.49a3.624 3.624 0 01-1.386-1.344c-.337-.579-.505-1.232-.505-1.96s.169-1.377.505-1.946A3.486 3.486 0 0166.038 271c.598-.327 1.275-.49 2.03-.49.672 0 1.27.135 1.793.406.531.271.942.663 1.231 1.176l-1.022.658a2.277 2.277 0 00-.867-.798 2.48 2.48 0 00-1.148-.266 2.69 2.69 0 00-1.317.322 2.348 2.348 0 00-.91.924c-.214.392-.322.845-.322 1.358 0 .523.108.985.323 1.386.224.392.527.695.91.91.391.215.83.322 1.316.322.42 0 .802-.089 1.147-.266a2.27 2.27 0 00.868-.798l1.023.644c-.29.513-.7.91-1.233 1.19-.522.271-1.12.406-1.791.406zm7.466-7.574c1.026 0 1.81.252 2.352.756.55.504.826 1.255.826 2.254V278h-1.274v-.98a2.166 2.166 0 01-.966.798c-.411.177-.901.266-1.47.266-.831 0-1.498-.201-2.002-.602-.495-.401-.742-.929-.742-1.582s.238-1.176.714-1.568c.476-.401 1.232-.602 2.268-.602h2.128v-.266c0-.579-.168-1.022-.504-1.33-.336-.308-.831-.462-1.484-.462-.44 0-.868.075-1.288.224a3.21 3.21 0 00-1.064.574l-.56-1.008a3.97 3.97 0 011.372-.7 5.593 5.593 0 011.694-.252zm-.308 6.538c.513 0 .956-.112 1.33-.336a2 2 0 00.812-.98v-1.036h-2.072c-1.14 0-1.708.383-1.708 1.148 0 .373.144.667.434.882.289.215.69.322 1.204.322zm5.973-9.436h1.344V278H81.2v-10.388z" fill="#333"/><path d="M56 256.999c17.672 0 31.999-14.327 31.999-31.999 0-17.673-14.327-32-32-32C38.328 193 24 207.327 24 225c0 17.672 14.327 31.999 32 31.999z" fill="#E08AF5"/><path d="M70.088 215.249h-3.193a.972.972 0 01-.97-.969v-1.318c0-.533.437-.969.97-.969h3.193c.533 0 .969.436.969.969v1.318a.972.972 0 01-.97.969zm-24.055 0H42.84a.972.972 0 01-.969-.969v-1.318c0-.533.436-.969.969-.969h3.193c.533 0 .97.436.97.969v1.318a.972.972 0 01-.97.969zM60.618 207h-8.31a3.15 3.15 0 00-3.146 3.146v4.199h2.592v-4.199c0-.306.248-.554.554-.554h8.31c.306 0 .554.248.554.554v4.199h2.592v-4.199A3.15 3.15 0 0060.618 207z" fill="#fff"/><path d="M60.618 209.593c.305 0 .554.248.554.553v4.199h2.592v-4.199A3.15 3.15 0 0060.618 207h-4.155v2.593h4.155z" fill="#fff"/><path d="M71.722 243H41.205A4.217 4.217 0 0137 238.795v-20.969a4.217 4.217 0 014.205-4.205h30.517a4.217 4.217 0 014.205 4.205v20.969A4.217 4.217 0 0171.722 243z" fill="#F33030"/><path d="M71.721 213.621H56.463V243H71.72a4.217 4.217 0 004.205-4.205v-20.969a4.217 4.217 0 00-4.205-4.205z" fill="#FE4848"/><path d="M64.93 225.739h-5.894v-5.895h-5.143v5.895h-5.895v5.143h5.895v5.895h5.143v-5.895h5.895v-5.143z" fill="#fff"/><path d="M59.034 225.739v-5.895h-2.571v16.933h2.571v-5.895h5.895v-5.143h-5.895z" fill="#fff"/><path d="M249.208 163.55H244l-1.078 2.45h-1.442l4.438-9.8h1.386l4.452 9.8h-1.47l-1.078-2.45zm-.49-1.12l-2.114-4.802-2.114 4.802h4.228zm5.592-2.604a2.295 2.295 0 011.036-.98c.457-.224 1.013-.336 1.666-.336v1.302a2.7 2.7 0 00-.308-.014c-.728 0-1.302.219-1.722.658-.411.429-.616 1.045-.616 1.848V166h-1.344v-7.42h1.288v1.246zm8.831 5.74a2.077 2.077 0 01-.728.392 3.196 3.196 0 01-.896.126c-.746 0-1.325-.201-1.736-.602-.41-.401-.616-.975-.616-1.722v-4.074h-1.26v-1.106h1.26v-1.624h1.344v1.624h2.128v1.106h-2.128v4.018c0 .401.098.709.294.924.206.215.495.322.868.322.411 0 .761-.117 1.05-.35l.42.966zm3.753.518a6.38 6.38 0 01-1.75-.238c-.56-.168-.998-.378-1.316-.63l.56-1.064c.327.233.724.42 1.19.56.467.14.938.21 1.414.21 1.176 0 1.764-.336 1.764-1.008a.652.652 0 00-.238-.532 1.43 1.43 0 00-.602-.28 10.731 10.731 0 00-1.008-.21 10.229 10.229 0 01-1.47-.322 2.264 2.264 0 01-.966-.616c-.27-.289-.406-.695-.406-1.218 0-.672.28-1.209.84-1.61.56-.411 1.312-.616 2.254-.616.495 0 .99.061 1.484.182.495.121.901.285 1.218.49l-.574 1.064c-.606-.392-1.32-.588-2.142-.588-.569 0-1.003.093-1.302.28-.298.187-.448.434-.448.742 0 .243.084.434.252.574.168.14.374.243.616.308.252.065.602.14 1.05.224.598.103 1.078.215 1.442.336a2.1 2.1 0 01.952.588c.262.28.392.672.392 1.176 0 .672-.289 1.209-.868 1.61-.569.392-1.348.588-2.338.588z" fill="#333"/><path d="M256 145c17.673 0 32-14.327 32-32 0-17.673-14.327-32-32-32-17.673 0-32 14.327-32 32 0 17.673 14.327 32 32 32z" fill="#E08AF5"/><path d="M251.424 121.54l.414-.415-3.029-3.029-.414.415s-6.916-1.817-8.042 5.084c-.829 5.085-3.353 6.888-3.353 6.888s14.279 3.75 14.424-8.943z" fill="#FFAA20"/><path d="M238.863 130.825l11.338-11.337 1.637 1.637-.415.415c-.112 9.819-8.684 9.798-12.56 9.285z" fill="#E67500"/><path d="M254.678 110.371l-.834.897-5.449 7.243 3.029 3.029 7.242-5.45.897-.834-4.885-4.885z" fill="#fff"/><path d="M259.564 115.257l-.742.689-.045.042-.11.102-7.243 5.45-1.637-1.637 7.212-7.212 2.565 2.566z" fill="#FFF5CB"/><path d="M274.194 95.74c-2.221-2.221-6.456.999-9.311 3.854-2.855 2.855-11.039 11.674-11.039 11.674l2.411 2.411 2.411 2.411s8.819-8.185 11.674-11.04c2.855-2.855 6.075-7.09 3.854-9.31z" fill="#6D76E7"/><path d="M270.34 105.05c-2.298 2.298-8.461 8.05-10.777 10.206l-.741.69-.046.042-.109.102-2.534-2.534 17.935-17.935c.043.038.086.077.127.118 2.221 2.22-1 6.456-3.855 9.311z" fill="#1C2EDE"/><path d="M145.672 166l-.014-7.14-3.542 5.95h-.644l-3.542-5.908V166h-1.344v-9.8h1.148l4.088 6.888 4.032-6.888h1.148l.014 9.8h-1.344zm11.005-7.42V166h-1.274v-1.12a2.74 2.74 0 01-1.078.896 3.36 3.36 0 01-1.442.308c-.989 0-1.768-.271-2.338-.812-.569-.551-.854-1.358-.854-2.422v-4.27h1.344v4.116c0 .719.173 1.265.518 1.638.346.364.84.546 1.484.546.71 0 1.27-.215 1.68-.644.411-.429.616-1.036.616-1.82v-3.836h1.344zm4.687 7.504c-.607 0-1.19-.079-1.75-.238-.56-.168-.999-.378-1.316-.63l.56-1.064c.327.233.723.42 1.19.56.467.14.938.21 1.414.21 1.176 0 1.764-.336 1.764-1.008a.652.652 0 00-.238-.532 1.437 1.437 0 00-.602-.28 10.731 10.731 0 00-1.008-.21 10.229 10.229 0 01-1.47-.322 2.264 2.264 0 01-.966-.616c-.271-.289-.406-.695-.406-1.218 0-.672.28-1.209.84-1.61.56-.411 1.311-.616 2.254-.616.495 0 .989.061 1.484.182s.901.285 1.218.49l-.574 1.064c-.607-.392-1.321-.588-2.142-.588-.569 0-1.003.093-1.302.28-.299.187-.448.434-.448.742 0 .243.084.434.252.574.168.14.373.243.616.308.252.065.602.14 1.05.224a10.26 10.26 0 011.442.336c.373.112.691.308.952.588.261.28.392.672.392 1.176 0 .672-.289 1.209-.868 1.61-.569.392-1.349.588-2.338.588zm4.886-7.504h1.344V166h-1.344v-7.42zm.672-1.428a.918.918 0 01-.658-.252.837.837 0 01-.252-.616c0-.243.084-.448.252-.616a.893.893 0 01.658-.266c.261 0 .476.084.644.252a.774.774 0 01.266.602.878.878 0 01-.266.644.873.873 0 01-.644.252zm6.472 8.932c-.756 0-1.433-.163-2.03-.49a3.624 3.624 0 01-1.386-1.344c-.336-.579-.504-1.232-.504-1.96s.168-1.377.504-1.946a3.486 3.486 0 011.386-1.344c.597-.327 1.274-.49 2.03-.49.672 0 1.269.135 1.792.406a2.89 2.89 0 011.232 1.176l-1.022.658a2.285 2.285 0 00-.868-.798 2.482 2.482 0 00-1.148-.266c-.486 0-.924.107-1.316.322a2.345 2.345 0 00-.91.924c-.215.392-.322.845-.322 1.358 0 .523.107.985.322 1.386.224.392.527.695.91.91.392.215.83.322 1.316.322.42 0 .802-.089 1.148-.266.345-.177.634-.443.868-.798l1.022.644c-.29.513-.7.91-1.232 1.19-.523.271-1.12.406-1.792.406z" fill="#333"/><path d="M156 145c17.673 0 32-14.327 32-32 0-17.673-14.327-32-32-32-17.673 0-32 14.327-32 32 0 17.673 14.327 32 32 32z" fill="#E08AF5"/><path d="M149.719 99.672v2.835l.64 1.496-.64 1.675v14.366c-1.711-.609-3.881-.457-5.883.579-3.34 1.728-4.945 5.26-3.585 7.888 1.36 2.627 5.17 3.357 8.51 1.628 2.498-1.293 4.025-3.594 4.068-5.771h.001v-16.413l17.059-3.479v11.325c-1.711-.609-3.881-.457-5.883.579-3.34 1.729-4.945 5.26-3.585 7.888 1.36 2.628 5.17 3.357 8.51 1.628 2.504-1.296 4.032-3.604 4.068-5.786H173v-19.03l-.278-1.594.278-1.577v-2.986l-23.281 4.75z" fill="#6855DD"/><path d="M173 97.909l-.278 1.577.278 1.594v19.029h-.001c-.035 2.183-1.564 4.491-4.068 5.787-3.34 1.729-7.15 1-8.509-1.629-1.36-2.627.245-6.159 3.585-7.887 2.001-1.036 4.171-1.188 5.882-.579v-11.325l-11.684 2.383v-8.917L173 94.923v2.986z" fill="#553FD9"/><path d="M172.999 97.909l-23.28 4.598v3.171l23.28-4.598v-3.171z" fill="#fff"/><path d="M173 97.909v3.171l-14.795 2.923v-3.171L173 97.909z" fill="#E7E7E7"/><path d="M25.081 164.112c-.98 0-1.866-.215-2.66-.644a4.873 4.873 0 01-1.848-1.792c-.448-.765-.672-1.624-.672-2.576s.224-1.806.672-2.562a4.713 4.713 0 011.863-1.792c.793-.439 1.68-.658 2.66-.658.765 0 1.465.131 2.1.392a4.23 4.23 0 011.623 1.134l-.91.882c-.737-.775-1.656-1.162-2.758-1.162-.727 0-1.386.163-1.974.49a3.589 3.589 0 00-1.386 1.358 3.784 3.784 0 00-.49 1.918c0 .709.164 1.353.49 1.932a3.624 3.624 0 001.386 1.344c.588.327 1.247.49 1.974.49 1.093 0 2.012-.392 2.759-1.176l.91.882a4.34 4.34 0 01-1.639 1.148 5.471 5.471 0 01-2.1.392zm9.502-7.602c.942 0 1.689.275 2.24.826.56.541.84 1.339.84 2.394V164h-1.344v-4.116c0-.719-.173-1.26-.518-1.624-.346-.364-.84-.546-1.484-.546-.728 0-1.302.215-1.722.644-.42.42-.63 1.027-.63 1.82V164H30.62v-10.388h1.344v4.018a2.78 2.78 0 011.092-.826 3.836 3.836 0 011.526-.294zm12.314 3.822c0 .103-.01.238-.028.406h-6.02c.084.653.369 1.181.854 1.582.495.392 1.106.588 1.834.588.887 0 1.6-.299 2.142-.896l.742.868a3.237 3.237 0 01-1.26.896 4.315 4.315 0 01-1.666.308c-.784 0-1.48-.159-2.086-.476a3.539 3.539 0 01-1.414-1.358c-.327-.579-.49-1.232-.49-1.96 0-.719.159-1.367.476-1.946a3.47 3.47 0 011.33-1.344 3.784 3.784 0 011.918-.49c.71 0 1.34.163 1.89.49.56.317.994.765 1.302 1.344.317.579.476 1.241.476 1.988zm-3.668-2.688c-.644 0-1.185.196-1.624.588-.43.392-.681.905-.756 1.54h4.76c-.075-.625-.331-1.134-.77-1.526-.43-.401-.966-.602-1.61-.602zm14.816-1.134c.934 0 1.67.271 2.212.812.55.541.826 1.344.826 2.408V164H59.74v-4.116c0-.719-.168-1.26-.504-1.624-.326-.364-.798-.546-1.414-.546-.681 0-1.222.215-1.624.644-.401.42-.602 1.027-.602 1.82V164h-1.344v-4.116c0-.719-.168-1.26-.504-1.624-.326-.364-.798-.546-1.414-.546-.681 0-1.222.215-1.624.644-.401.42-.602 1.027-.602 1.82V164h-1.344v-7.42h1.288v1.106a2.55 2.55 0 011.064-.868c.439-.205.938-.308 1.498-.308.579 0 1.092.117 1.54.35a2.43 2.43 0 011.036 1.022c.28-.429.668-.765 1.162-1.008a3.85 3.85 0 011.694-.364zm5.511.07H64.9V164h-1.344v-7.42zm.672-1.428a.92.92 0 01-.658-.252.837.837 0 01-.252-.616c0-.243.084-.448.252-.616a.895.895 0 01.658-.266c.262 0 .476.084.644.252a.773.773 0 01.266.602.876.876 0 01-.266.644.872.872 0 01-.644.252zm5.366 8.932a6.38 6.38 0 01-1.75-.238c-.56-.168-.998-.378-1.316-.63l.56-1.064c.327.233.724.42 1.19.56.467.14.938.21 1.414.21 1.176 0 1.764-.336 1.764-1.008a.653.653 0 00-.238-.532 1.437 1.437 0 00-.602-.28 10.731 10.731 0 00-1.008-.21 10.204 10.204 0 01-1.47-.322 2.259 2.259 0 01-.966-.616c-.27-.289-.406-.695-.406-1.218 0-.672.28-1.209.84-1.61.56-.411 1.312-.616 2.254-.616.495 0 .99.061 1.484.182.495.121.901.285 1.218.49l-.574 1.064c-.606-.392-1.32-.588-2.142-.588-.569 0-1.003.093-1.302.28-.298.187-.448.434-.448.742 0 .243.084.434.252.574.168.14.374.243.616.308.252.065.602.14 1.05.224a10.25 10.25 0 011.442.336 2.1 2.1 0 01.952.588c.262.28.392.672.392 1.176 0 .672-.289 1.209-.868 1.61-.569.392-1.348.588-2.338.588zm9.058-.518a2.084 2.084 0 01-.728.392 3.2 3.2 0 01-.896.126c-.747 0-1.325-.201-1.736-.602-.41-.401-.616-.975-.616-1.722v-4.074h-1.26v-1.106h1.26v-1.624h1.344v1.624h2.128v1.106H76.02v4.018c0 .401.098.709.294.924.205.215.495.322.868.322.41 0 .76-.117 1.05-.35l.42.966zm2.913-5.74a2.295 2.295 0 011.036-.98c.457-.224 1.013-.336 1.666-.336v1.302a2.698 2.698 0 00-.308-.014c-.728 0-1.302.219-1.722.658-.41.429-.616 1.045-.616 1.848V164h-1.344v-7.42h1.288v1.246zm11.225-1.246l-3.598 8.162c-.317.756-.69 1.288-1.12 1.596-.42.308-.928.462-1.526.462-.364 0-.719-.061-1.064-.182a2.109 2.109 0 01-.84-.504l.574-1.008c.383.364.826.546 1.33.546.327 0 .597-.089.812-.266.224-.168.425-.462.602-.882l.238-.518-3.276-7.406h1.4l2.59 5.936 2.562-5.936h1.316z" fill="#333"/><path d="M56 145c17.673 0 32-14.327 32-32 0-17.673-14.327-32-32-32-17.673 0-32 14.327-32 32 0 17.673 14.327 32 32 32z" fill="#E08AF5"/><path d="M49.592 122.562c0-1.699 3.075-5.284 3.075-5.284s3.075 3.585 3.075 5.284a3.075 3.075 0 01-6.15 0z" fill="#F40057"/><path d="M52.668 117.278s3.075 3.585 3.075 5.284a3.075 3.075 0 01-3.075 3.075v-8.359z" fill="#DC2C00"/><path d="M50.67 123.302c0-1.103 1.997-3.431 1.997-3.431s1.997 2.328 1.997 3.431a1.997 1.997 0 11-3.994 0z" fill="#FE9A35"/><path d="M52.668 119.871s1.997 2.328 1.997 3.431a1.997 1.997 0 01-1.997 1.997v-5.428z" fill="#FF7C11"/><path d="M59.965 124.919H45.37v3.703h14.596v-3.703z" fill="#fff"/><path d="M59.966 124.919h-7.298v3.703h7.298v-3.703zm-4.15-28.827h-6.298v15.696a3.15 3.15 0 006.298 0V96.092z" fill="#fff"/><path d="M52.582 96.092v18.843l.085.002a3.15 3.15 0 003.15-3.149V96.092h-3.235zm-3.064 0v15.696a3.148 3.148 0 003.064 3.147V96.092h-3.064z" fill="#fff"/><path d="M49.518 102.95v8.838a3.15 3.15 0 006.298 0v-8.838h-6.298z" fill="#FEDB41"/><path d="M49.518 102.95v8.838a3.15 3.15 0 006.298 0v-8.838h-6.298z" fill="#FEDB41"/><path d="M52.645 102.95v11.987l.022.001a3.15 3.15 0 003.15-3.15v-8.838h-3.172z" fill="#FCBF29"/><path d="M68.001 104.529H48.078v2.409h19.923v-2.409z" fill="#fff"/><path d="M56.96 94.924h-8.585v2.641h8.584v-2.641z" fill="#CED7DB"/><path d="M56.96 94.924h-4.378v2.641h4.377v-2.641z" fill="#ABB6BA"/><path d="M68.001 104.528H56.705v2.409h11.296v-2.409z" fill="#fff"/><path d="M65.945 95.847h-1.857v34.877h1.857V95.847z" fill="#fff"/><path d="M67.147 128.266H44.264v2.81h22.883v-2.81z" fill="#40C3FE"/><path d="M67.148 128.266H56.705v2.81h10.443v-2.81z" fill="#00AFFE"/><path d="M22.112 39.8c.97 0 1.813.16 2.528.48.725.32 1.28.779 1.664 1.376.384.597.576 1.307.576 2.128 0 .81-.192 1.52-.576 2.128-.384.597-.939 1.056-1.664 1.376-.715.32-1.557.48-2.528.48h-2.528V51h-2.08V39.8h4.608zm-.096 6.208c.907 0 1.595-.192 2.064-.576.47-.384.704-.933.704-1.648 0-.715-.235-1.264-.704-1.648-.47-.384-1.157-.576-2.064-.576h-2.432v4.448h2.432zm10.558 5.104c-.864 0-1.643-.187-2.336-.56A4.155 4.155 0 0128.606 49c-.384-.672-.576-1.43-.576-2.272 0-.843.192-1.595.576-2.256a4.155 4.155 0 011.632-1.552c.693-.373 1.472-.56 2.336-.56.875 0 1.659.187 2.352.56a4.04 4.04 0 011.616 1.552c.395.661.592 1.413.592 2.256 0 .843-.197 1.6-.592 2.272a4.045 4.045 0 01-1.616 1.552c-.694.373-1.477.56-2.352.56zm0-1.712c.736 0 1.344-.245 1.824-.736.48-.49.72-1.136.72-1.936s-.24-1.445-.72-1.936c-.48-.49-1.088-.736-1.824-.736s-1.344.245-1.824.736c-.47.49-.704 1.136-.704 1.936s.235 1.445.704 1.936c.48.49 1.088.736 1.824.736zm11.208-7.04c.832 0 1.574.181 2.224.544a3.91 3.91 0 011.552 1.536c.374.661.56 1.424.56 2.288 0 .864-.186 1.632-.56 2.304a3.91 3.91 0 01-1.552 1.536c-.65.363-1.392.544-2.224.544-1.152 0-2.064-.384-2.736-1.152v4.144h-2V42.456h1.904v1.12c.331-.405.736-.71 1.216-.912a4.192 4.192 0 011.616-.304zm-.224 7.04c.736 0 1.339-.245 1.808-.736.48-.49.72-1.136.72-1.936s-.24-1.445-.72-1.936c-.469-.49-1.072-.736-1.808-.736-.48 0-.912.112-1.296.336a2.315 2.315 0 00-.912.928c-.224.405-.336.875-.336 1.408 0 .533.112 1.003.336 1.408.224.405.528.72.912.944.384.213.816.32 1.296.32zm14.73-6.944V51h-1.905v-1.088c-.32.384-.72.683-1.2.896-.48.203-.997.304-1.552.304-1.141 0-2.042-.315-2.704-.944-.65-.64-.976-1.584-.976-2.832v-4.88h2v4.608c0 .768.17 1.344.512 1.728.352.373.848.56 1.488.56.715 0 1.28-.219 1.696-.656.427-.448.64-1.088.64-1.92v-4.32h2zm2.618-3.328h2V51h-2V39.128zm7.889 3.232c1.258 0 2.218.304 2.88.912.672.597 1.008 1.504 1.008 2.72V51h-1.888v-1.04c-.246.373-.598.661-1.056.864-.448.192-.992.288-1.632.288-.64 0-1.2-.107-1.68-.32-.48-.224-.854-.528-1.12-.912a2.388 2.388 0 01-.384-1.328c0-.768.282-1.381.848-1.84.576-.47 1.477-.704 2.704-.704h2.208v-.128c0-.597-.182-1.056-.544-1.376-.352-.32-.88-.48-1.584-.48-.48 0-.955.075-1.424.224-.459.15-.848.357-1.168.624l-.784-1.456a4.848 4.848 0 011.616-.784 7.191 7.191 0 012-.272zm-.272 7.296c.501 0 .944-.112 1.328-.336a1.9 1.9 0 00.832-.992v-.992h-2.064c-1.152 0-1.728.379-1.728 1.136 0 .363.144.65.432.864.288.213.688.32 1.2.32zm8.63-5.952c.576-.896 1.59-1.344 3.04-1.344v1.904a2.539 2.539 0 00-.463-.048c-.78 0-1.387.23-1.825.688-.437.448-.656 1.099-.656 1.952V51h-2v-8.544h1.904v1.248zm11.51-2.16v3.408h5.407v1.76h-5.408V51h-2.08V39.8h8.176v1.744h-6.096zm7.758.912h2V51h-2v-8.544zm1.008-1.408c-.362 0-.666-.112-.912-.336a1.149 1.149 0 01-.368-.864 1.1 1.1 0 01.368-.848c.246-.235.55-.352.912-.352a1.3 1.3 0 01.912.336c.246.213.368.485.368.816 0 .352-.122.65-.368.896-.234.235-.538.352-.912.352zm11.649 5.728c0 .139-.01.336-.032.592h-6.704c.118.63.422 1.13.912 1.504.502.363 1.12.544 1.856.544.939 0 1.712-.31 2.32-.928l1.072 1.232a3.61 3.61 0 01-1.456 1.04c-.586.235-1.248.352-1.984.352-.938 0-1.765-.187-2.48-.56A4.11 4.11 0 01100.918 49c-.384-.672-.576-1.43-.576-2.272 0-.832.187-1.579.56-2.24a4.069 4.069 0 011.584-1.568c.672-.373 1.43-.56 2.272-.56.832 0 1.574.187 2.224.56a3.77 3.77 0 011.536 1.552c.374.661.56 1.43.56 2.304zm-4.32-2.816c-.64 0-1.184.192-1.632.576-.437.373-.704.875-.8 1.504h4.848c-.085-.619-.346-1.12-.784-1.504-.437-.384-.981-.576-1.632-.576zM111 39.128h2V51h-2V39.128zm12.993 0V51h-1.92v-1.104a3.09 3.09 0 01-1.232.912 4.076 4.076 0 01-1.6.304c-.822 0-1.563-.181-2.224-.544a3.934 3.934 0 01-1.536-1.536c-.374-.672-.56-1.44-.56-2.304 0-.864.186-1.627.56-2.288a3.934 3.934 0 011.536-1.536c.661-.363 1.402-.544 2.224-.544.565 0 1.082.096 1.552.288.469.192.869.48 1.2.864v-4.384h2zM119.481 49.4c.48 0 .912-.107 1.296-.32a2.43 2.43 0 00.912-.944c.224-.405.336-.875.336-1.408 0-.533-.112-1.003-.336-1.408a2.315 2.315 0 00-.912-.928 2.524 2.524 0 00-1.296-.336c-.48 0-.912.112-1.296.336a2.315 2.315 0 00-.912.928c-.224.405-.336.875-.336 1.408 0 .533.112 1.003.336 1.408.224.405.528.72.912.944.384.213.816.32 1.296.32zm15.39 1.712c-.864 0-1.643-.187-2.336-.56A4.147 4.147 0 01130.903 49c-.384-.672-.576-1.43-.576-2.272 0-.843.192-1.595.576-2.256a4.147 4.147 0 011.632-1.552c.693-.373 1.472-.56 2.336-.56.874 0 1.658.187 2.352.56a4.04 4.04 0 011.616 1.552c.394.661.592 1.413.592 2.256 0 .843-.198 1.6-.592 2.272a4.047 4.047 0 01-1.616 1.552c-.694.373-1.478.56-2.352.56zm0-1.712c.736 0 1.344-.245 1.824-.736.48-.49.72-1.136.72-1.936s-.24-1.445-.72-1.936c-.48-.49-1.088-.736-1.824-.736s-1.344.245-1.824.736c-.47.49-.704 1.136-.704 1.936s.234 1.445.704 1.936c.48.49 1.088.736 1.824.736zm9.944-8.768c-.842 0-1.264.459-1.264 1.376v.512h2.352v1.6h-2.288V51h-2v-6.88h-1.408v-1.6h1.408v-.544c0-.917.267-1.637.8-2.16.534-.533 1.286-.8 2.256-.8.768 0 1.371.155 1.808.464l-.56 1.504a1.91 1.91 0 00-1.104-.352zm10.52 10.528a8.627 8.627 0 01-2.512-.368c-.8-.245-1.434-.57-1.904-.976l.72-1.616c.459.363 1.019.661 1.68.896a6.342 6.342 0 002.016.336c.832 0 1.451-.133 1.856-.4.416-.267.624-.619.624-1.056a.987.987 0 00-.352-.784 2.273 2.273 0 00-.864-.496 19.44 19.44 0 00-1.44-.4c-.853-.203-1.546-.405-2.08-.608a3.527 3.527 0 01-1.36-.944c-.373-.437-.56-1.024-.56-1.76 0-.619.166-1.179.496-1.68.342-.512.848-.917 1.52-1.216.683-.299 1.515-.448 2.496-.448a8.03 8.03 0 012.016.256c.662.17 1.232.416 1.712.736l-.656 1.616a6.447 6.447 0 00-1.536-.656 5.741 5.741 0 00-1.552-.224c-.821 0-1.434.139-1.84.416-.394.277-.592.645-.592 1.104 0 .32.112.581.336.784.235.203.528.363.88.48.352.117.832.25 1.44.4.832.192 1.515.395 2.048.608.534.203.987.517 1.36.944.384.427.576 1.003.576 1.728 0 .619-.17 1.179-.512 1.68-.33.501-.837.901-1.52 1.2-.682.299-1.514.448-2.496.448zm11.535-.624a2.355 2.355 0 01-.864.432 3.774 3.774 0 01-1.056.144c-.939 0-1.664-.245-2.176-.736-.512-.49-.768-1.205-.768-2.144V44.12h-1.408v-1.6h1.408v-1.952h2v1.952h2.288v1.6h-2.288v4.064c0 .416.101.736.304.96.203.213.496.32.88.32.448 0 .821-.117 1.12-.352l.56 1.424zm9.917-8.08V51h-1.904v-1.088c-.32.384-.72.683-1.2.896-.48.203-.997.304-1.552.304-1.141 0-2.043-.315-2.704-.944-.651-.64-.976-1.584-.976-2.832v-4.88h2v4.608c0 .768.171 1.344.512 1.728.352.373.848.56 1.488.56.715 0 1.28-.219 1.696-.656.427-.448.64-1.088.64-1.92v-4.32h2zm10.987-3.328V51h-1.92v-1.104a3.09 3.09 0 01-1.232.912 4.076 4.076 0 01-1.6.304c-.822 0-1.563-.181-2.224-.544a3.934 3.934 0 01-1.536-1.536c-.374-.672-.56-1.44-.56-2.304 0-.864.186-1.627.56-2.288a3.934 3.934 0 011.536-1.536c.661-.363 1.402-.544 2.224-.544.565 0 1.082.096 1.552.288.469.192.869.48 1.2.864v-4.384h2zM183.262 49.4c.48 0 .912-.107 1.296-.32a2.43 2.43 0 00.912-.944c.224-.405.336-.875.336-1.408 0-.533-.112-1.003-.336-1.408a2.315 2.315 0 00-.912-.928 2.524 2.524 0 00-1.296-.336c-.48 0-.912.112-1.296.336a2.315 2.315 0 00-.912.928c-.224.405-.336.875-.336 1.408 0 .533.112 1.003.336 1.408.224.405.528.72.912.944.384.213.816.32 1.296.32zm7.128-6.944h2V51h-2v-8.544zm1.008-1.408a1.3 1.3 0 01-.912-.336 1.15 1.15 0 01-.368-.864 1.1 1.1 0 01.368-.848c.245-.235.549-.352.912-.352a1.3 1.3 0 01.912.336c.245.213.368.485.368.816 0 .352-.123.65-.368.896-.235.235-.539.352-.912.352zm11.649 5.728c0 .139-.011.336-.032.592h-6.704c.117.63.421 1.13.912 1.504.501.363 1.12.544 1.856.544.939 0 1.712-.31 2.32-.928l1.072 1.232a3.61 3.61 0 01-1.456 1.04c-.587.235-1.248.352-1.984.352-.939 0-1.765-.187-2.48-.56A4.104 4.104 0 01194.887 49c-.384-.672-.576-1.43-.576-2.272 0-.832.187-1.579.56-2.24a4.069 4.069 0 011.584-1.568c.672-.373 1.429-.56 2.272-.56.832 0 1.573.187 2.224.56.661.363 1.173.88 1.536 1.552.373.661.56 1.43.56 2.304zm-4.32-2.816c-.64 0-1.184.192-1.632.576-.437.373-.704.875-.8 1.504h4.848c-.085-.619-.347-1.12-.784-1.504-.437-.384-.981-.576-1.632-.576zm8.881 7.152c-.693 0-1.37-.09-2.032-.272-.661-.181-1.189-.41-1.584-.688l.768-1.52c.384.256.843.464 1.376.624.544.15 1.078.224 1.6.224 1.195 0 1.792-.315 1.792-.944 0-.299-.154-.507-.464-.624-.298-.117-.784-.23-1.456-.336-.704-.107-1.28-.23-1.728-.368a2.74 2.74 0 01-1.152-.72c-.32-.352-.48-.837-.48-1.456 0-.81.336-1.456 1.008-1.936.683-.49 1.6-.736 2.752-.736.587 0 1.174.07 1.76.208.587.128 1.067.304 1.44.528l-.768 1.52c-.725-.427-1.541-.64-2.448-.64-.586 0-1.034.09-1.344.272-.298.17-.448.4-.448.688 0 .32.16.55.48.688.331.128.838.25 1.52.368.683.107 1.243.23 1.68.368.438.139.811.373 1.12.704.32.33.48.8.48 1.408 0 .8-.346 1.44-1.04 1.92-.693.48-1.637.72-2.832.72zm10.017-8.656h2V51h-2v-8.544zm1.008-1.408a1.3 1.3 0 01-.912-.336 1.147 1.147 0 01-.368-.864c0-.341.122-.624.368-.848.245-.235.549-.352.912-.352.362 0 .666.112.912.336.245.213.368.485.368.816 0 .352-.123.65-.368.896-.235.235-.539.352-.912.352zm8.465 1.312c1.077 0 1.941.315 2.592.944.65.63.976 1.563.976 2.8V51h-2v-4.64c0-.747-.176-1.307-.528-1.68-.352-.384-.854-.576-1.504-.576-.736 0-1.318.224-1.744.672-.427.437-.64 1.072-.64 1.904V51h-2v-8.544h1.904v1.104c.33-.395.746-.693 1.248-.896.501-.203 1.066-.304 1.696-.304zm15.535 8.8c-1.547 0-2.752-.432-3.616-1.296-.864-.875-1.296-2.123-1.296-3.744V39.8h2.08v6.24c0 2.197.949 3.296 2.848 3.296 1.888 0 2.832-1.099 2.832-3.296V39.8h2.048v6.32c0 1.621-.432 2.87-1.296 3.744-.854.864-2.054 1.296-3.6 1.296zm11.281 0a8.622 8.622 0 01-2.512-.368c-.8-.245-1.435-.57-1.904-.976l.72-1.616c.458.363 1.018.661 1.68.896a6.342 6.342 0 002.016.336c.832 0 1.45-.133 1.856-.4.416-.267.624-.619.624-1.056a.99.99 0 00-.352-.784 2.273 2.273 0 00-.864-.496 19.44 19.44 0 00-1.44-.4c-.854-.203-1.547-.405-2.08-.608a3.52 3.52 0 01-1.36-.944c-.374-.437-.56-1.024-.56-1.76 0-.619.165-1.179.496-1.68.341-.512.848-.917 1.52-1.216.682-.299 1.514-.448 2.496-.448.682 0 1.354.085 2.016.256.661.17 1.232.416 1.711.736l-.655 1.616a6.482 6.482 0 00-1.536-.656 5.752 5.752 0 00-1.552-.224c-.822 0-1.435.139-1.84.416-.395.277-.592.645-.592 1.104 0 .32.112.581.336.784.234.203.528.363.88.48.352.117.832.25 1.44.4.832.192 1.514.395 2.048.608.533.203.986.517 1.36.944.384.427.576 1.003.576 1.728a2.92 2.92 0 01-.512 1.68c-.331.501-.838.901-1.52 1.2-.683.299-1.515.448-2.496.448zm13.854-2.752h-5.6L261.064 51h-2.144l5.04-11.2h2.048l5.056 11.2h-2.176l-1.12-2.592zm-.688-1.632l-2.112-4.896-2.096 4.896h4.208z" fill="#333"/></svg>