<svg width="312" height="265" fill="none" xmlns="http://www.w3.org/2000/svg"><rect width="312" height="265" rx="16" fill="#fff"/><path d="M26.94 112.516h-4.26v-2.84h11.6v2.84h-4.26v11.16h-3.08v-11.16zm12.54 11.4c-.827 0-1.594-.14-2.3-.42a5.985 5.985 0 01-1.84-1.18 5.738 5.738 0 01-1.2-1.76 5.445 5.445 0 01-.44-2.18v-.04c0-.774.146-1.494.44-2.16.293-.68.7-1.274 1.22-1.78a5.771 5.771 0 011.84-1.2 5.98 5.98 0 012.32-.44c.826 0 1.593.146 2.3.44.706.28 1.313.673 1.82 1.18.52.493.926 1.08 1.22 1.76a5.3 5.3 0 01.44 2.16v.04c0 .773-.147 1.5-.44 2.18a5.574 5.574 0 01-1.22 1.76 5.806 5.806 0 01-1.84 1.2 6 6 0 01-2.32.44zm.04-2.62c.44 0 .826-.074 1.16-.22.346-.16.64-.374.88-.64.24-.267.42-.574.54-.92.133-.36.2-.74.2-1.14v-.04c0-.4-.067-.774-.2-1.12a2.714 2.714 0 00-.58-.94c-.254-.28-.554-.5-.9-.66a2.687 2.687 0 00-1.14-.24c-.44 0-.834.08-1.18.24-.334.146-.62.353-.86.62a2.88 2.88 0 00-.56.94c-.12.346-.18.72-.18 1.12v.04c0 .4.066.78.2 1.14.133.346.326.66.58.94.253.266.546.48.88.64.346.16.733.24 1.16.24zm7.98-8.34h3.04v1.54c.374-.507.82-.92 1.34-1.24.534-.334 1.2-.5 2-.5.627 0 1.234.12 1.82.36.587.24 1.107.6 1.56 1.08.454.466.814 1.046 1.08 1.74.28.68.42 1.466.42 2.36v.04c0 .893-.14 1.686-.42 2.38a5.338 5.338 0 01-1.08 1.74c-.44.466-.953.82-1.54 1.06-.586.24-1.2.36-1.84.36-.813 0-1.486-.16-2.02-.48a5.45 5.45 0 01-1.32-1.12v4.6H47.5v-13.92zm5.6 8.34c.36 0 .694-.067 1-.2a2.7 2.7 0 00.84-.6c.24-.267.427-.58.56-.94.147-.36.22-.767.22-1.22v-.04c0-.44-.073-.84-.22-1.2a2.624 2.624 0 00-.56-.94 2.313 2.313 0 00-.84-.6 2.283 2.283 0 00-1-.22c-.36 0-.7.073-1.02.22a2.36 2.36 0 00-.82.6 3.075 3.075 0 00-.56.94c-.133.36-.2.76-.2 1.2v.04c0 .44.067.846.2 1.22.147.36.334.673.56.94.24.253.514.453.82.6.32.133.66.2 1.02.2zm19.193 2.58a9.426 9.426 0 01-3.14-.54 8.459 8.459 0 01-2.8-1.7l1.82-2.18a9.25 9.25 0 001.96 1.24c.68.306 1.42.46 2.22.46.64 0 1.133-.114 1.48-.34.36-.24.54-.567.54-.98v-.04c0-.2-.04-.374-.12-.52-.067-.16-.207-.307-.42-.44-.2-.134-.487-.267-.86-.4-.36-.134-.834-.274-1.42-.42a17.646 17.646 0 01-1.92-.58 5.627 5.627 0 01-1.46-.78c-.4-.32-.713-.714-.94-1.18-.214-.467-.32-1.047-.32-1.74v-.04c0-.64.12-1.214.36-1.72.24-.52.573-.967 1-1.34.44-.374.96-.66 1.56-.86.6-.2 1.26-.3 1.98-.3 1.026 0 1.966.153 2.82.46.867.306 1.66.746 2.38 1.32l-1.6 2.32a9.659 9.659 0 00-1.84-1c-.6-.254-1.2-.38-1.8-.38-.6 0-1.053.12-1.36.36-.293.226-.44.513-.44.86v.04c0 .226.04.426.12.6.093.16.253.306.48.44.227.133.533.26.92.38.4.12.9.26 1.5.42.707.186 1.333.4 1.88.64.56.226 1.026.506 1.4.84.386.32.673.7.86 1.14.2.44.3.966.3 1.58v.04c0 .693-.127 1.313-.38 1.86a3.927 3.927 0 01-1.06 1.36 5.04 5.04 0 01-1.62.84c-.627.186-1.32.28-2.08.28zm12.553.04c-.8 0-1.547-.147-2.24-.44a5.608 5.608 0 01-1.76-1.18 5.624 5.624 0 01-1.16-1.76c-.28-.68-.42-1.4-.42-2.16v-.04c0-.76.14-1.48.42-2.16a5.416 5.416 0 012.92-2.98 5.78 5.78 0 012.28-.44c1.013 0 1.853.16 2.52.48.666.32 1.253.76 1.76 1.32l-1.86 2a4.847 4.847 0 00-1.08-.86c-.36-.214-.814-.32-1.36-.32-.387 0-.74.08-1.06.24-.307.146-.58.353-.82.62-.227.266-.407.58-.54.94-.12.346-.18.72-.18 1.12v.04c0 .413.06.8.18 1.16.133.36.32.673.56.94.24.266.526.48.86.64.333.146.706.22 1.12.22.506 0 .946-.1 1.32-.3a5.872 5.872 0 001.14-.84l1.78 1.8a7.044 7.044 0 01-1.78 1.42c-.667.36-1.534.54-2.6.54zm6.366-14.84h3.04v5.4c.173-.227.36-.44.56-.64.213-.214.446-.4.7-.56.253-.16.533-.287.84-.38.306-.094.653-.14 1.04-.14 1.16 0 2.053.353 2.68 1.06.64.706.96 1.68.96 2.92v6.94h-3.04v-5.98c0-.72-.16-1.26-.48-1.62-.32-.374-.774-.56-1.36-.56-.587 0-1.054.186-1.4.56-.334.36-.5.9-.5 1.62v5.98h-3.04v-14.6zm17.721 14.84c-.827 0-1.594-.14-2.3-.42a5.981 5.981 0 01-1.84-1.18 5.728 5.728 0 01-1.2-1.76 5.434 5.434 0 01-.44-2.18v-.04c0-.774.146-1.494.44-2.16.293-.68.7-1.274 1.219-1.78a5.784 5.784 0 011.841-1.2 5.978 5.978 0 012.32-.44c.826 0 1.593.146 2.3.44.706.28 1.313.673 1.82 1.18.52.493.926 1.08 1.22 1.76.293.666.44 1.386.44 2.16v.04c0 .773-.147 1.5-.44 2.18a5.584 5.584 0 01-1.22 1.76 5.813 5.813 0 01-1.84 1.2 6 6 0 01-2.32.44zm.04-2.62c.44 0 .826-.074 1.16-.22.346-.16.64-.374.88-.64.24-.267.42-.574.54-.92.133-.36.2-.74.2-1.14v-.04c0-.4-.067-.774-.2-1.12a2.728 2.728 0 00-.58-.94 2.69 2.69 0 00-2.04-.9c-.44 0-.834.08-1.18.24-.334.146-.62.353-.86.62-.24.266-.427.58-.56.94-.12.346-.18.72-.18 1.12v.04c0 .4.066.78.2 1.14.133.346.326.66.58.94.253.266.546.48.88.64.346.16.733.24 1.16.24zm13.241 2.62c-.827 0-1.594-.14-2.3-.42a5.981 5.981 0 01-1.84-1.18 5.728 5.728 0 01-1.2-1.76 5.434 5.434 0 01-.44-2.18v-.04c0-.774.146-1.494.44-2.16.293-.68.7-1.274 1.22-1.78a5.768 5.768 0 011.84-1.2 5.978 5.978 0 012.32-.44c.826 0 1.593.146 2.3.44.706.28 1.313.673 1.82 1.18.52.493.926 1.08 1.22 1.76.293.666.44 1.386.44 2.16v.04c0 .773-.147 1.5-.44 2.18a5.584 5.584 0 01-1.22 1.76 5.813 5.813 0 01-1.84 1.2 6 6 0 01-2.32.44zm.04-2.62c.44 0 .826-.074 1.16-.22.346-.16.64-.374.88-.64.24-.267.42-.574.54-.92.133-.36.2-.74.2-1.14v-.04c0-.4-.067-.774-.2-1.12a2.728 2.728 0 00-.58-.94 2.69 2.69 0 00-2.04-.9c-.44 0-.834.08-1.18.24-.334.146-.62.353-.86.62-.24.266-.427.58-.56.94-.12.346-.18.72-.18 1.12v.04c0 .4.066.78.2 1.14.133.346.326.66.58.94.253.266.546.48.88.64.346.16.733.24 1.16.24zm8.121-12.22h3.04v14.6h-3.04v-14.6zm17.011.5h2.84l6 14.1h-3.22l-1.28-3.14h-5.92l-1.28 3.14h-3.14l6-14.1zm3.24 8.24l-1.86-4.54-1.86 4.54h3.72zm7.441-4.86h3.04v1.54a4.73 4.73 0 011.34-1.24c.533-.334 1.2-.5 2-.5.627 0 1.233.12 1.82.36s1.107.6 1.56 1.08c.453.466.813 1.046 1.08 1.74.28.68.42 1.466.42 2.36v.04c0 .893-.14 1.686-.42 2.38a5.351 5.351 0 01-1.08 1.74c-.44.466-.953.82-1.54 1.06-.587.24-1.2.36-1.84.36-.813 0-1.487-.16-2.02-.48a5.45 5.45 0 01-1.32-1.12v4.6h-3.04v-13.92zm5.6 8.34c.36 0 .693-.067 1-.2a2.7 2.7 0 00.84-.6c.24-.267.427-.58.56-.94.147-.36.22-.767.22-1.22v-.04c0-.44-.073-.84-.22-1.2a2.62 2.62 0 00-.56-.94 2.313 2.313 0 00-.84-.6 2.284 2.284 0 00-1-.22c-.36 0-.7.073-1.02.22-.307.133-.58.333-.82.6a3.073 3.073 0 00-.56.94c-.133.36-.2.76-.2 1.2v.04c0 .44.067.846.2 1.22.147.36.333.673.56.94.24.253.513.453.82.6.32.133.66.2 1.02.2zm7.896-8.34h3.04v1.54a4.73 4.73 0 011.34-1.24c.533-.334 1.2-.5 2-.5.627 0 1.233.12 1.82.36s1.107.6 1.56 1.08c.453.466.813 1.046 1.08 1.74.28.68.42 1.466.42 2.36v.04c0 .893-.14 1.686-.42 2.38a5.351 5.351 0 01-1.08 1.74c-.44.466-.953.82-1.54 1.06-.587.24-1.2.36-1.84.36-.813 0-1.487-.16-2.02-.48a5.45 5.45 0 01-1.32-1.12v4.6h-3.04v-13.92zm5.6 8.34c.36 0 .693-.067 1-.2a2.7 2.7 0 00.84-.6c.24-.267.427-.58.56-.94.147-.36.22-.767.22-1.22v-.04c0-.44-.073-.84-.22-1.2a2.62 2.62 0 00-.56-.94 2.313 2.313 0 00-.84-.6 2.284 2.284 0 00-1-.22c-.36 0-.7.073-1.02.22-.307.133-.58.333-.82.6a3.073 3.073 0 00-.56.94c-.133.36-.2.76-.2 1.2v.04c0 .44.067.846.2 1.22.147.36.333.673.56.94.24.253.513.453.82.6.32.133.66.2 1.02.2zm8.036-12.22h3.04v14.6h-3.04v-14.6zm5.955 0h3.2v2.7h-3.2v-2.7zm.08 3.88h3.04v10.72h-3.04v-10.72zm10.956 10.96c-.8 0-1.547-.147-2.24-.44a5.604 5.604 0 01-1.76-1.18 5.614 5.614 0 01-1.16-1.76c-.28-.68-.42-1.4-.42-2.16v-.04c0-.76.14-1.48.42-2.16a5.413 5.413 0 012.92-2.98 5.778 5.778 0 012.28-.44c1.013 0 1.853.16 2.52.48.666.32 1.253.76 1.76 1.32l-1.86 2a4.86 4.86 0 00-1.08-.86c-.36-.214-.814-.32-1.36-.32-.387 0-.74.08-1.06.24-.307.146-.58.353-.82.62-.227.266-.407.58-.54.94-.12.346-.18.72-.18 1.12v.04c0 .413.06.8.18 1.16.133.36.32.673.56.94.24.266.526.48.86.64.333.146.706.22 1.12.22.506 0 .946-.1 1.32-.3a5.908 5.908 0 001.14-.84l1.78 1.8a7.054 7.054 0 01-1.78 1.42c-.667.36-1.534.54-2.6.54zm9.405-.04c-.506 0-.986-.067-1.44-.2a3.52 3.52 0 01-1.16-.64c-.333-.28-.6-.62-.8-1.02a3.43 3.43 0 01-.28-1.42v-.04c0-.587.107-1.094.32-1.52.214-.427.507-.78.88-1.06.387-.28.84-.487 1.36-.62a6.616 6.616 0 011.76-.22c.547 0 1.02.04 1.42.12.414.08.814.186 1.2.32v-.18c0-.64-.193-1.127-.58-1.46-.386-.334-.96-.5-1.72-.5-.586 0-1.106.053-1.56.16-.44.093-.906.233-1.4.42l-.76-2.32c.587-.254 1.2-.46 1.84-.62.64-.16 1.414-.24 2.32-.24.84 0 1.554.106 2.14.32.6.2 1.094.493 1.48.88.4.4.694.893.88 1.48.187.573.28 1.22.28 1.94v6.22h-2.94v-1.16c-.373.413-.82.746-1.34 1-.52.24-1.153.36-1.9.36zm.92-2.1c.72 0 1.294-.174 1.72-.52.44-.347.66-.8.66-1.36v-.54a4.134 4.134 0 00-.9-.28c-.32-.08-.666-.12-1.04-.12-.653 0-1.166.126-1.54.38-.373.253-.56.62-.56 1.1v.04c0 .413.154.733.46.96.307.226.707.34 1.2.34zm11.399 2.08c-.467 0-.894-.054-1.28-.16a2.258 2.258 0 01-.98-.52 2.723 2.723 0 01-.64-.98c-.147-.414-.22-.934-.22-1.56v-5.08h-1.28v-2.6h1.28v-2.74h3.04v2.74h2.52v2.6h-2.52v4.58c0 .693.326 1.04.98 1.04.533 0 1.033-.127 1.5-.38v2.44c-.32.186-.674.333-1.06.44-.387.12-.834.18-1.34.18zm4.74-14.78h3.2v2.7h-3.2v-2.7zm.08 3.88h3.04v10.72h-3.04v-10.72zm11.156 10.96c-.827 0-1.594-.14-2.3-.42a5.981 5.981 0 01-1.84-1.18 5.728 5.728 0 01-1.2-1.76 5.434 5.434 0 01-.44-2.18v-.04c0-.774.146-1.494.44-2.16.293-.68.7-1.274 1.22-1.78a5.768 5.768 0 011.84-1.2 5.978 5.978 0 012.32-.44c.826 0 1.593.146 2.3.44.706.28 1.313.673 1.82 1.18.52.493.926 1.08 1.22 1.76.293.666.44 1.386.44 2.16v.04c0 .773-.147 1.5-.44 2.18a5.584 5.584 0 01-1.22 1.76 5.813 5.813 0 01-1.84 1.2 6 6 0 01-2.32.44zm.04-2.62c.44 0 .826-.074 1.16-.22.346-.16.64-.374.88-.64.24-.267.42-.574.54-.92.133-.36.2-.74.2-1.14v-.04c0-.4-.067-.774-.2-1.12a2.728 2.728 0 00-.58-.94 2.69 2.69 0 00-2.04-.9c-.44 0-.834.08-1.18.24-.334.146-.62.353-.86.62-.24.266-.427.58-.56.94-.12.346-.18.72-.18 1.12v.04c0 .4.066.78.2 1.14.133.346.326.66.58.94.253.266.546.48.88.64.346.16.733.24 1.16.24zm7.981-8.34h3.04v1.52c.173-.227.36-.44.56-.64.213-.214.446-.4.7-.56.253-.16.533-.287.84-.38.306-.094.653-.14 1.04-.14 1.16 0 2.053.353 2.68 1.06.64.706.96 1.68.96 2.92v6.94h-3.04v-5.98c0-.72-.16-1.26-.48-1.62-.32-.374-.774-.56-1.36-.56-.587 0-1.054.186-1.4.56-.334.36-.5.9-.5 1.62v5.98h-3.04v-10.72zm16.221 10.92a7.74 7.74 0 01-2.34-.38 7.712 7.712 0 01-2.26-1.24l1.3-2a7.341 7.341 0 001.74.96c.586.213 1.133.32 1.64.32.44 0 .76-.074.96-.22.213-.147.32-.34.32-.58v-.04c0-.16-.06-.3-.18-.42s-.287-.22-.5-.3c-.2-.094-.434-.18-.7-.26-.267-.08-.547-.167-.84-.26a14.5 14.5 0 01-1.14-.38 4.532 4.532 0 01-1.02-.6 3.192 3.192 0 01-.76-.92c-.187-.36-.28-.8-.28-1.32v-.04c0-.547.1-1.027.3-1.44.213-.427.493-.787.84-1.08.36-.294.773-.514 1.24-.66.48-.147.993-.22 1.54-.22.68 0 1.366.113 2.06.34a7.37 7.37 0 011.94.9l-1.16 2.1a8.96 8.96 0 00-1.56-.72c-.507-.187-.954-.28-1.34-.28-.374 0-.654.073-.84.22a.61.61 0 00-.28.52v.04c0 .146.06.28.18.4.12.106.28.213.48.32.2.093.426.186.68.28.266.093.546.186.84.28.373.12.753.266 1.14.44.386.16.733.36 1.04.6.306.24.56.533.76.88.2.346.3.766.3 1.26v.04c0 .6-.107 1.12-.32 1.56-.2.426-.487.78-.86 1.06-.374.28-.814.493-1.32.64-.494.133-1.027.2-1.6.2z" fill="#000"/><path d="M27.328 154.694l-5.004-7.632h2.628l3.51 5.562 3.564-5.562h2.538l-5.004 7.578v5.022h-2.232v-4.968zm11.456 5.184c-.72 0-1.392-.126-2.016-.378a5.256 5.256 0 01-1.602-1.062 4.84 4.84 0 01-1.044-1.566 4.877 4.877 0 01-.378-1.908v-.036c0-.684.126-1.326.378-1.926a5.09 5.09 0 011.062-1.566c.456-.456.99-.816 1.602-1.08a5.166 5.166 0 012.034-.396c.732 0 1.404.132 2.016.396a4.619 4.619 0 011.602 1.062c.456.444.81.966 1.062 1.566.252.588.378 1.224.378 1.908v.036c0 .672-.132 1.308-.396 1.908a4.903 4.903 0 01-1.062 1.584 4.98 4.98 0 01-1.602 1.062 5.166 5.166 0 01-2.034.396zm.036-1.908c.444 0 .84-.078 1.188-.234.36-.168.666-.384.918-.648a2.86 2.86 0 00.576-.954c.132-.372.198-.762.198-1.17v-.036c0-.42-.072-.816-.216-1.188a2.908 2.908 0 00-.612-.972 2.655 2.655 0 00-.918-.648 2.657 2.657 0 00-1.17-.252c-.432 0-.828.084-1.188.252a2.7 2.7 0 00-.9.648 2.64 2.64 0 00-.576.954 3.473 3.473 0 00-.198 1.17v.036c0 .42.072.816.216 1.188.144.36.342.678.594.954.264.276.57.498.918.666.36.156.75.234 1.17.234zm10.553 1.89c-1.08 0-1.914-.33-2.502-.99-.589-.66-.883-1.548-.883-2.664v-6.048h2.178v5.4c0 .744.175 1.314.523 1.71.36.396.864.594 1.511.594.636 0 1.152-.204 1.548-.612.397-.408.595-.984.595-1.728v-5.364h2.195v9.504h-2.195v-1.476a4.78 4.78 0 01-1.17 1.188c-.468.324-1.069.486-1.8.486zm7.22-8.64c1.104-.204 1.62-.768 1.548-1.692h-.936v-2.466h2.394v2.106c0 1.008-.234 1.74-.702 2.196-.468.456-1.158.72-2.07.792l-.234-.936zm5.626-4.698h2.178v13.14h-2.178v-13.14zm5.15 0h2.178v13.14h-2.178v-13.14zm15.839 13.338c-.792 0-1.446-.168-1.962-.504a5.008 5.008 0 01-1.278-1.17v1.476H77.79v-13.14h2.178v5.22c.348-.492.78-.912 1.296-1.26s1.164-.522 1.944-.522c.552 0 1.092.108 1.62.324.54.216 1.014.534 1.422.954.408.42.738.936.99 1.548s.378 1.314.378 2.106v.036c0 .792-.126 1.494-.378 2.106a4.457 4.457 0 01-.99 1.548 4.11 4.11 0 01-1.404.954 4.287 4.287 0 01-1.638.324zm-.522-1.89c.372 0 .72-.072 1.044-.216.336-.144.624-.342.864-.594.252-.264.45-.582.594-.954.144-.384.216-.81.216-1.278v-.036c0-.456-.072-.87-.216-1.242a2.822 2.822 0 00-.594-.972 2.464 2.464 0 00-.864-.612 2.541 2.541 0 00-1.044-.216c-.372 0-.726.072-1.062.216-.336.144-.63.354-.882.63a3.102 3.102 0 00-.612.954 3.415 3.415 0 00-.216 1.242v.036c0 .456.072.87.216 1.242.156.372.36.696.612.972a2.668 2.668 0 001.944.828zm11.536 1.908c-.684 0-1.326-.12-1.926-.36a4.795 4.795 0 01-1.548-1.008 4.778 4.778 0 01-1.026-1.548 5.245 5.245 0 01-.378-2.016v-.036c0-.684.114-1.326.342-1.926.228-.6.546-1.122.954-1.566a4.46 4.46 0 011.476-1.062 4.361 4.361 0 011.872-.396c.756 0 1.416.138 1.98.414.576.276 1.05.648 1.422 1.116.384.468.672 1.014.864 1.638.192.612.288 1.26.288 1.944 0 .096-.006.198-.018.306 0 .096-.006.198-.018.306h-6.984c.12.78.426 1.38.918 1.8.504.408 1.11.612 1.818.612.54 0 1.008-.096 1.404-.288a4.562 4.562 0 001.17-.846l1.278 1.134a5.226 5.226 0 01-1.638 1.296c-.624.324-1.374.486-2.25.486zm2.16-5.634a3.602 3.602 0 00-.234-.972 2.384 2.384 0 00-.486-.792 2.217 2.217 0 00-.738-.54 2.186 2.186 0 00-.954-.198c-.672 0-1.23.234-1.674.702-.432.456-.696 1.056-.792 1.8h4.878zm12.93 5.58c-.396 0-.762-.048-1.098-.144a2.313 2.313 0 01-.882-.468 2.13 2.13 0 01-.558-.846c-.132-.36-.198-.804-.198-1.332v-5.004h-1.206v-1.872h1.206v-2.61h2.178v2.61h2.556v1.872h-2.556v4.662c0 .42.102.726.306.918.204.18.492.27.864.27.468 0 .918-.108 1.35-.324v1.782c-.276.156-.57.276-.882.36-.3.084-.66.126-1.08.126zm6.95.036c-.444 0-.87-.066-1.278-.198-.408-.12-.768-.3-1.08-.54a3.074 3.074 0 01-.738-.918 2.899 2.899 0 01-.27-1.278v-.036c0-.516.096-.966.288-1.35.192-.384.456-.702.792-.954a3.57 3.57 0 011.242-.558 6.167 6.167 0 011.602-.198c.54 0 1.008.036 1.404.108.396.072.78.168 1.152.288v-.234c0-.684-.204-1.2-.612-1.548-.396-.348-.978-.522-1.746-.522-.54 0-1.02.054-1.44.162-.42.108-.846.252-1.278.432l-.576-1.71a8.922 8.922 0 011.62-.558c.552-.144 1.206-.216 1.962-.216 1.416 0 2.466.354 3.15 1.062.348.348.606.768.774 1.26.168.492.252 1.05.252 1.674v5.634h-2.124v-1.188a4.308 4.308 0 01-1.242.99c-.504.264-1.122.396-1.854.396zm.612-1.584c.36 0 .696-.048 1.008-.144.312-.096.576-.234.792-.414.228-.18.408-.396.54-.648.132-.252.198-.528.198-.828v-.648a5.608 5.608 0 00-.972-.27 6.068 6.068 0 00-1.188-.108c-.708 0-1.26.138-1.656.414-.384.276-.576.666-.576 1.17v.036c0 .456.174.81.522 1.062.36.252.804.378 1.332.378zm7.217-11.754h2.178v7.848l3.942-4.212h2.646l-3.78 3.87 3.906 5.634h-2.556l-2.808-4.122-1.35 1.404v2.718h-2.178v-13.14zm10.512.108h2.34v2.07h-2.34v-2.07zm.09 3.528h2.178v9.504h-2.178v-9.504zm5.025 0h2.178v1.458c.156-.216.324-.426.504-.63.192-.204.408-.378.648-.522.252-.156.522-.276.81-.36.3-.096.636-.144 1.008-.144 1.08 0 1.914.33 2.502.99.588.66.882 1.542.882 2.646v6.066h-2.178v-5.4c0-.744-.18-1.314-.54-1.71-.348-.408-.846-.612-1.494-.612-.636 0-1.152.21-1.548.63-.396.408-.594.984-.594 1.728v5.364h-2.178v-9.504zm15.392 12.42c-1.584 0-3-.378-4.248-1.134l.81-1.638a7.866 7.866 0 001.584.738c.552.18 1.152.27 1.8.27.972 0 1.716-.246 2.232-.738.516-.492.774-1.218.774-2.178v-.738a5.108 5.108 0 01-1.386 1.26c-.528.324-1.182.486-1.962.486a4.367 4.367 0 01-1.62-.306 4.49 4.49 0 01-1.386-.864 4.338 4.338 0 01-.954-1.404c-.24-.552-.36-1.176-.36-1.872v-.036c0-.696.12-1.32.36-1.872.24-.564.558-1.032.954-1.404.408-.384.87-.678 1.386-.882a4.46 4.46 0 011.62-.306c.804 0 1.464.162 1.98.486.528.312.978.69 1.35 1.134v-1.422h2.178v7.56c0 1.584-.402 2.778-1.206 3.582-.432.432-.978.75-1.638.954-.648.216-1.404.324-2.268.324zm.18-5.526c.372 0 .726-.06 1.062-.18.348-.132.648-.312.9-.54.252-.228.45-.504.594-.828.156-.324.234-.678.234-1.062v-.036c0-.384-.078-.738-.234-1.062a2.435 2.435 0 00-.594-.828 2.574 2.574 0 00-.9-.522 2.878 2.878 0 00-1.062-.198c-.384 0-.738.066-1.062.198-.324.12-.612.294-.864.522-.24.228-.432.504-.576.828a2.703 2.703 0 00-.198 1.062v.036a2.585 2.585 0 00.792 1.89c.24.228.522.408.846.54.336.12.69.18 1.062.18zm16.248 2.772c-.396 0-.762-.048-1.098-.144a2.313 2.313 0 01-.882-.468 2.13 2.13 0 01-.558-.846c-.132-.36-.198-.804-.198-1.332v-5.004h-1.206v-1.872h1.206v-2.61h2.178v2.61h2.556v1.872h-2.556v4.662c0 .42.102.726.306.918.204.18.492.27.864.27.468 0 .918-.108 1.35-.324v1.782c-.276.156-.57.276-.882.36-.3.084-.66.126-1.08.126zm4.215-13.302h2.178v5.094c.156-.216.324-.426.504-.63.192-.204.408-.378.648-.522.252-.156.522-.276.81-.36.3-.096.636-.144 1.008-.144 1.08 0 1.914.33 2.502.99.588.66.882 1.542.882 2.646v6.066h-2.178v-5.4c0-.744-.18-1.314-.54-1.71-.348-.408-.846-.612-1.494-.612-.636 0-1.152.21-1.548.63-.396.408-.594.984-.594 1.728v5.364h-2.178v-13.14zm15.518 13.356c-.684 0-1.326-.12-1.926-.36a4.795 4.795 0 01-1.548-1.008 4.778 4.778 0 01-1.026-1.548 5.245 5.245 0 01-.378-2.016v-.036c0-.684.114-1.326.342-1.926.228-.6.546-1.122.954-1.566a4.46 4.46 0 011.476-1.062 4.361 4.361 0 011.872-.396c.756 0 1.416.138 1.98.414.576.276 1.05.648 1.422 1.116.384.468.672 1.014.864 1.638.192.612.288 1.26.288 1.944 0 .096-.006.198-.018.306 0 .096-.006.198-.018.306h-6.984c.12.78.426 1.38.918 1.8.504.408 1.11.612 1.818.612.54 0 1.008-.096 1.404-.288a4.562 4.562 0 001.17-.846l1.278 1.134a5.226 5.226 0 01-1.638 1.296c-.624.324-1.374.486-2.25.486zm2.16-5.634a3.602 3.602 0 00-.234-.972 2.384 2.384 0 00-.486-.792 2.217 2.217 0 00-.738-.54 2.186 2.186 0 00-.954-.198c-.672 0-1.23.234-1.674.702-.432.456-.696 1.056-.792 1.8h4.878zm9.744-4.086h2.178v1.458c.156-.216.324-.426.504-.63.192-.204.408-.378.648-.522.252-.156.522-.276.81-.36.3-.096.636-.144 1.008-.144 1.08 0 1.914.33 2.502.99.588.66.882 1.542.882 2.646v6.066h-2.178v-5.4c0-.744-.18-1.314-.54-1.71-.348-.408-.846-.612-1.494-.612-.636 0-1.152.21-1.548.63-.396.408-.594.984-.594 1.728v5.364h-2.178v-9.504zm15.518 9.72c-.684 0-1.326-.12-1.926-.36a4.795 4.795 0 01-1.548-1.008 4.778 4.778 0 01-1.026-1.548 5.245 5.245 0 01-.378-2.016v-.036c0-.684.114-1.326.342-1.926.228-.6.546-1.122.954-1.566a4.46 4.46 0 011.476-1.062 4.361 4.361 0 011.872-.396c.756 0 1.416.138 1.98.414.576.276 1.05.648 1.422 1.116.384.468.672 1.014.864 1.638.192.612.288 1.26.288 1.944 0 .096-.006.198-.018.306 0 .096-.006.198-.018.306h-6.984c.12.78.426 1.38.918 1.8.504.408 1.11.612 1.818.612.54 0 1.008-.096 1.404-.288a4.562 4.562 0 001.17-.846l1.278 1.134a5.226 5.226 0 01-1.638 1.296c-.624.324-1.374.486-2.25.486zm2.16-5.634a3.602 3.602 0 00-.234-.972 2.384 2.384 0 00-.486-.792 2.217 2.217 0 00-.738-.54 2.186 2.186 0 00-.954-.198c-.672 0-1.23.234-1.674.702-.432.456-.696 1.056-.792 1.8h4.878zm7.672-.9l2.196-3.186h2.322l-3.348 4.644 3.492 4.86h-2.376l-2.34-3.384-2.322 3.384h-2.322l3.474-4.842-3.348-4.662h2.376l2.196 3.186zm9.758 6.48c-.396 0-.762-.048-1.098-.144a2.313 2.313 0 01-.882-.468 2.13 2.13 0 01-.558-.846c-.132-.36-.198-.804-.198-1.332v-5.004h-1.206v-1.872h1.206v-2.61h2.178v2.61h2.556v1.872h-2.556v4.662c0 .42.102.726.306.918.204.18.492.27.864.27.468 0 .918-.108 1.35-.324v1.782c-.276.156-.57.276-.882.36-.3.084-.66.126-1.08.126zm12.868.018c-.684 0-1.38-.12-2.088-.36a6.692 6.692 0 01-1.944-1.062l.972-1.476a6.987 6.987 0 001.584.882 4.468 4.468 0 001.53.288c.468 0 .828-.09 1.08-.27a.893.893 0 00.396-.756v-.036c0-.18-.06-.336-.18-.468a1.316 1.316 0 00-.468-.342 4.782 4.782 0 00-.684-.27 31.63 31.63 0 00-.792-.252c-.348-.096-.702-.21-1.062-.342a4.249 4.249 0 01-.954-.504 2.721 2.721 0 01-.684-.792c-.18-.312-.27-.696-.27-1.152v-.036c0-.444.084-.846.252-1.206.18-.36.42-.666.72-.918a3.333 3.333 0 011.08-.576c.42-.132.864-.198 1.332-.198.6 0 1.206.096 1.818.288.612.192 1.17.456 1.674.792l-.864 1.548a6.876 6.876 0 00-1.386-.648c-.468-.168-.9-.252-1.296-.252-.42 0-.75.09-.99.27a.788.788 0 00-.342.666v.036c0 .18.06.336.18.468.12.12.276.234.468.342.204.096.432.192.684.288.264.084.534.168.81.252.348.108.696.234 1.044.378.348.144.66.324.936.54.288.204.522.456.702.756.18.3.27.666.27 1.098v.036c0 .504-.09.942-.27 1.314a2.61 2.61 0 01-.756.936c-.312.24-.684.426-1.116.558-.432.12-.894.18-1.386.18zm8.77-.018c-.396 0-.762-.048-1.098-.144a2.313 2.313 0 01-.882-.468 2.13 2.13 0 01-.558-.846c-.132-.36-.198-.804-.198-1.332v-5.004h-1.206v-1.872h1.206v-2.61h2.178v2.61h2.556v1.872h-2.556v4.662c0 .42.102.726.306.918.204.18.492.27.864.27.468 0 .918-.108 1.35-.324v1.782c-.276.156-.57.276-.882.36-.3.084-.66.126-1.08.126zm8.307.054c-.684 0-1.326-.12-1.926-.36a4.795 4.795 0 01-1.548-1.008 4.778 4.778 0 01-1.026-1.548 5.245 5.245 0 01-.378-2.016v-.036c0-.684.114-1.326.342-1.926.228-.6.546-1.122.954-1.566a4.46 4.46 0 011.476-1.062 4.361 4.361 0 011.872-.396c.756 0 1.416.138 1.98.414.576.276 1.05.648 1.422 1.116.384.468.672 1.014.864 1.638.192.612.288 1.26.288 1.944 0 .096-.006.198-.018.306 0 .096-.006.198-.018.306h-6.984c.12.78.426 1.38.918 1.8.504.408 1.11.612 1.818.612.54 0 1.008-.096 1.404-.288a4.562 4.562 0 001.17-.846l1.278 1.134a5.226 5.226 0 01-1.638 1.296c-.624.324-1.374.486-2.25.486zm2.16-5.634a3.602 3.602 0 00-.234-.972 2.384 2.384 0 00-.486-.792 2.217 2.217 0 00-.738-.54 2.186 2.186 0 00-.954-.198c-.672 0-1.23.234-1.674.702-.432.456-.696 1.056-.792 1.8h4.878zm4.347-4.086h2.178v1.584c.348-.492.78-.912 1.296-1.26s1.164-.522 1.944-.522c.552 0 1.092.108 1.62.324.54.216 1.014.534 1.422.954.408.42.738.936.99 1.548s.378 1.314.378 2.106v.036c0 .792-.126 1.494-.378 2.106a4.457 4.457 0 01-.99 1.548 4.11 4.11 0 01-1.404.954 4.287 4.287 0 01-1.638.324c-.792 0-1.446-.168-1.962-.504a5.008 5.008 0 01-1.278-1.17v4.356h-2.178v-12.384zm4.896 7.812c.372 0 .72-.072 1.044-.216.336-.144.624-.342.864-.594.252-.264.45-.582.594-.954.144-.384.216-.81.216-1.278v-.036c0-.456-.072-.87-.216-1.242a2.822 2.822 0 00-.594-.972 2.464 2.464 0 00-.864-.612 2.541 2.541 0 00-1.044-.216c-.372 0-.726.072-1.062.216-.336.144-.63.354-.882.63a3.102 3.102 0 00-.612.954 3.415 3.415 0 00-.216 1.242v.036c0 .456.072.87.216 1.242.156.372.36.696.612.972a2.668 2.668 0 001.944.828zM23.404 174.63h2.34v2.07h-2.34v-2.07zm.09 3.528h2.178v9.504h-2.178v-9.504zm5.024 0h2.178v1.458c.156-.216.324-.426.504-.63.192-.204.408-.378.648-.522.252-.156.522-.276.81-.36.3-.096.636-.144 1.008-.144 1.08 0 1.914.33 2.502.99.588.66.882 1.542.882 2.646v6.066h-2.178v-5.4c0-.744-.18-1.314-.54-1.71-.348-.408-.846-.612-1.494-.612-.636 0-1.152.21-1.548.63-.396.408-.594.984-.594 1.728v5.364h-2.178v-9.504zm20.307 9.702c-.564 0-1.11-.108-1.638-.324a4.11 4.11 0 01-1.404-.954 4.831 4.831 0 01-.99-1.548c-.252-.612-.378-1.314-.378-2.106v-.036c0-.792.12-1.494.36-2.106a4.831 4.831 0 01.99-1.548 4.11 4.11 0 011.404-.954 4.422 4.422 0 011.656-.324c.396 0 .75.048 1.062.144.324.084.618.204.882.36s.504.336.72.54c.216.192.408.402.576.63v-5.112h2.178v13.14h-2.178v-1.584a4.876 4.876 0 01-1.314 1.26c-.516.348-1.158.522-1.926.522zm.522-1.89c.36 0 .708-.072 1.044-.216a2.65 2.65 0 00.882-.612c.252-.276.45-.6.594-.972.156-.372.234-.786.234-1.242v-.036c0-.456-.078-.87-.234-1.242a2.822 2.822 0 00-.594-.972 2.65 2.65 0 00-.882-.612 2.668 2.668 0 00-2.106 0c-.324.132-.612.33-.864.594-.252.264-.45.588-.594.972a3.468 3.468 0 00-.216 1.26v.036c0 .456.072.876.216 1.26.144.372.342.69.594.954.252.264.54.468.864.612.336.144.69.216 1.062.216zm11.986 1.908c-.684 0-1.326-.12-1.926-.36a4.795 4.795 0 01-1.548-1.008 4.778 4.778 0 01-1.026-1.548 5.245 5.245 0 01-.378-2.016v-.036c0-.684.114-1.326.342-1.926.228-.6.546-1.122.954-1.566a4.46 4.46 0 011.476-1.062 4.361 4.361 0 011.872-.396c.756 0 1.416.138 1.98.414.576.276 1.05.648 1.422 1.116.384.468.672 1.014.864 1.638.192.612.288 1.26.288 1.944 0 .096-.006.198-.018.306 0 .096-.006.198-.018.306h-6.984c.12.78.426 1.38.918 1.8.504.408 1.11.612 1.818.612.54 0 1.008-.096 1.404-.288a4.562 4.562 0 001.17-.846l1.278 1.134a5.226 5.226 0 01-1.638 1.296c-.624.324-1.374.486-2.25.486zm2.16-5.634a3.602 3.602 0 00-.234-.972 2.384 2.384 0 00-.486-.792 2.217 2.217 0 00-.738-.54 2.186 2.186 0 00-.954-.198c-.672 0-1.23.234-1.674.702-.432.456-.696 1.056-.792 1.8h4.878zm2.99-4.086h2.34l2.557 6.984 2.574-6.984h2.286l-3.888 9.576H70.39l-3.906-9.576zm15.417 9.72c-.684 0-1.326-.12-1.926-.36a4.795 4.795 0 01-1.548-1.008 4.778 4.778 0 01-1.026-1.548 5.245 5.245 0 01-.378-2.016v-.036c0-.684.114-1.326.342-1.926.228-.6.546-1.122.954-1.566a4.46 4.46 0 011.476-1.062 4.361 4.361 0 011.872-.396c.756 0 1.416.138 1.98.414.576.276 1.05.648 1.422 1.116.384.468.672 1.014.864 1.638.192.612.288 1.26.288 1.944 0 .096-.006.198-.018.306 0 .096-.006.198-.018.306H79.2c.12.78.426 1.38.918 1.8.504.408 1.11.612 1.818.612.54 0 1.008-.096 1.404-.288a4.562 4.562 0 001.17-.846l1.278 1.134a5.226 5.226 0 01-1.638 1.296c-.624.324-1.374.486-2.25.486zm2.16-5.634a3.602 3.602 0 00-.234-.972 2.384 2.384 0 00-.486-.792 2.217 2.217 0 00-.738-.54 2.186 2.186 0 00-.954-.198c-.672 0-1.23.234-1.674.702-.432.456-.696 1.056-.792 1.8h4.878zm4.473-7.722h2.178v13.14h-2.178v-13.14zm9.543 13.356c-.72 0-1.392-.126-2.016-.378a5.256 5.256 0 01-1.603-1.062 4.84 4.84 0 01-1.043-1.566 4.877 4.877 0 01-.379-1.908v-.036c0-.684.127-1.326.379-1.926a5.09 5.09 0 011.061-1.566 5.1 5.1 0 011.603-1.08 5.166 5.166 0 012.034-.396c.732 0 1.404.132 2.015.396a4.619 4.619 0 011.602 1.062c.456.444.81.966 1.062 1.566.252.588.378 1.224.378 1.908v.036c0 .672-.132 1.308-.396 1.908a4.903 4.903 0 01-1.062 1.584 4.98 4.98 0 01-1.602 1.062 5.162 5.162 0 01-2.033.396zm.036-1.908c.444 0 .84-.078 1.188-.234a3 3 0 00.917-.648 2.86 2.86 0 00.576-.954c.132-.372.198-.762.198-1.17v-.036c0-.42-.072-.816-.216-1.188a2.908 2.908 0 00-.612-.972 2.648 2.648 0 00-.917-.648 2.657 2.657 0 00-1.17-.252c-.432 0-.828.084-1.188.252a2.7 2.7 0 00-.9.648 2.64 2.64 0 00-.576.954 3.473 3.473 0 00-.199 1.17v.036c0 .42.073.816.217 1.188.143.36.341.678.593.954.264.276.57.498.919.666.36.156.75.234 1.17.234zm7.276-7.812h2.178v1.584c.348-.492.78-.912 1.296-1.26s1.164-.522 1.944-.522c.552 0 1.092.108 1.62.324.54.216 1.014.534 1.422.954.408.42.738.936.99 1.548s.378 1.314.378 2.106v.036c0 .792-.126 1.494-.378 2.106a4.457 4.457 0 01-.99 1.548 4.11 4.11 0 01-1.404.954 4.287 4.287 0 01-1.638.324c-.792 0-1.446-.168-1.962-.504a5.008 5.008 0 01-1.278-1.17v4.356h-2.178v-12.384zm4.896 7.812c.372 0 .72-.072 1.044-.216.336-.144.624-.342.864-.594.252-.264.45-.582.594-.954.144-.384.216-.81.216-1.278v-.036c0-.456-.072-.87-.216-1.242a2.822 2.822 0 00-.594-.972 2.464 2.464 0 00-.864-.612 2.541 2.541 0 00-1.044-.216c-.372 0-.726.072-1.062.216-.336.144-.63.354-.882.63a3.102 3.102 0 00-.612.954 3.415 3.415 0 00-.216 1.242v.036c0 .456.072.87.216 1.242.156.372.36.696.612.972a2.668 2.668 0 001.944.828zm7.216-11.34h2.34v2.07h-2.34v-2.07zm.09 3.528h2.178v9.504h-2.178v-9.504zm5.024 0h2.178v1.458c.156-.216.324-.426.504-.63.192-.204.408-.378.648-.522.252-.156.522-.276.81-.36.3-.096.636-.144 1.008-.144 1.08 0 1.914.33 2.502.99.588.66.882 1.542.882 2.646v6.066h-2.178v-5.4c0-.744-.18-1.314-.54-1.71-.348-.408-.846-.612-1.494-.612-.636 0-1.152.21-1.548.63-.396.408-.594.984-.594 1.728v5.364h-2.178v-9.504zm15.392 12.42c-1.584 0-3-.378-4.248-1.134l.81-1.638a7.866 7.866 0 001.584.738c.552.18 1.152.27 1.8.27.972 0 1.716-.246 2.232-.738.516-.492.774-1.218.774-2.178v-.738a5.108 5.108 0 01-1.386 1.26c-.528.324-1.182.486-1.962.486a4.367 4.367 0 01-1.62-.306 4.49 4.49 0 01-1.386-.864 4.338 4.338 0 01-.954-1.404c-.24-.552-.36-1.176-.36-1.872v-.036c0-.696.12-1.32.36-1.872.24-.564.558-1.032.954-1.404.408-.384.87-.678 1.386-.882a4.46 4.46 0 011.62-.306c.804 0 1.464.162 1.98.486.528.312.978.69 1.35 1.134v-1.422h2.178v7.56c0 1.584-.402 2.778-1.206 3.582-.432.432-.978.75-1.638.954-.648.216-1.404.324-2.268.324zm.18-5.526c.372 0 .726-.06 1.062-.18.348-.132.648-.312.9-.54.252-.228.45-.504.594-.828.156-.324.234-.678.234-1.062v-.036c0-.384-.078-.738-.234-1.062a2.435 2.435 0 00-.594-.828 2.574 2.574 0 00-.9-.522 2.878 2.878 0 00-1.062-.198c-.384 0-.738.066-1.062.198-.324.12-.612.294-.864.522-.24.228-.432.504-.576.828a2.703 2.703 0 00-.198 1.062v.036a2.585 2.585 0 00.792 1.89c.24.228.522.408.846.54.336.12.69.18 1.062.18zm19.475-6.894h2.268l-3.78 9.774c-.192.492-.39.906-.594 1.242a3.09 3.09 0 01-.684.81 2.378 2.378 0 01-.828.468c-.3.096-.642.144-1.026.144-.456 0-.864-.054-1.224-.162a4.967 4.967 0 01-1.026-.414l.738-1.62c.204.108.408.192.612.252.216.072.438.108.666.108.312 0 .57-.078.774-.234.204-.156.396-.438.576-.846l-3.96-9.522h2.34l2.682 7.056 2.466-7.056zm8.108 9.72c-.72 0-1.392-.126-2.016-.378a5.256 5.256 0 01-1.602-1.062 4.84 4.84 0 01-1.044-1.566 4.877 4.877 0 01-.378-1.908v-.036c0-.684.126-1.326.378-1.926a5.09 5.09 0 011.062-1.566c.456-.456.99-.816 1.602-1.08a5.166 5.166 0 012.034-.396c.732 0 1.404.132 2.016.396a4.619 4.619 0 011.602 1.062c.456.444.81.966 1.062 1.566.252.588.378 1.224.378 1.908v.036c0 .672-.132 1.308-.396 1.908a4.903 4.903 0 01-1.062 1.584 4.98 4.98 0 01-1.602 1.062 5.166 5.166 0 01-2.034.396zm.036-1.908c.444 0 .84-.078 1.188-.234.36-.168.666-.384.918-.648a2.86 2.86 0 00.576-.954c.132-.372.198-.762.198-1.17v-.036c0-.42-.072-.816-.216-1.188a2.908 2.908 0 00-.612-.972 2.655 2.655 0 00-.918-.648 2.657 2.657 0 00-1.17-.252c-.432 0-.828.084-1.188.252a2.7 2.7 0 00-.9.648 2.64 2.64 0 00-.576.954 3.473 3.473 0 00-.198 1.17v.036c0 .42.072.816.216 1.188.144.36.342.678.594.954.264.276.57.498.918.666.36.156.75.234 1.17.234zm10.552 1.89c-1.08 0-1.914-.33-2.502-.99-.588-.66-.882-1.548-.882-2.664v-6.048h2.178v5.4c0 .744.174 1.314.522 1.71.36.396.864.594 1.512.594.636 0 1.152-.204 1.548-.612.396-.408.594-.984.594-1.728v-5.364h2.196v9.504h-2.196v-1.476a4.78 4.78 0 01-1.17 1.188c-.468.324-1.068.486-1.8.486zm7.886-9.702h2.178v2.142c.3-.72.726-1.296 1.278-1.728.552-.432 1.248-.63 2.088-.594v2.304h-.126c-.48 0-.918.078-1.314.234a2.75 2.75 0 00-1.026.702c-.288.312-.51.708-.666 1.188-.156.468-.234 1.014-.234 1.638v3.618h-2.178v-9.504zm17.048 9.72a5.016 5.016 0 01-1.962-.378 5.09 5.09 0 01-1.566-1.062 4.993 4.993 0 01-1.026-1.566 5.09 5.09 0 01-.36-1.908v-.036c0-.672.12-1.308.36-1.908.252-.612.6-1.14 1.044-1.584a4.863 4.863 0 013.546-1.476c.444 0 .846.042 1.206.126.372.072.708.18 1.008.324.312.144.594.318.846.522.264.204.51.426.738.666l-1.368 1.458a4.721 4.721 0 00-1.08-.846c-.372-.228-.828-.342-1.368-.342a2.42 2.42 0 00-1.098.252c-.336.156-.63.372-.882.648-.24.264-.432.582-.576.954a3.473 3.473 0 00-.198 1.17v.036c0 .42.066.816.198 1.188.144.372.342.696.594.972a2.7 2.7 0 00.9.648c.348.156.732.234 1.152.234.516 0 .966-.108 1.35-.324a4.894 4.894 0 001.116-.846l1.314 1.296a6.136 6.136 0 01-1.602 1.296c-.6.324-1.362.486-2.286.486zm8.627-.018c-.444 0-.87-.066-1.278-.198-.408-.12-.768-.3-1.08-.54a3.074 3.074 0 01-.738-.918 2.899 2.899 0 01-.27-1.278v-.036c0-.516.096-.966.288-1.35.192-.384.456-.702.792-.954a3.57 3.57 0 011.242-.558 6.167 6.167 0 011.602-.198c.54 0 1.008.036 1.404.108.396.072.78.168 1.152.288v-.234c0-.684-.204-1.2-.612-1.548-.396-.348-.978-.522-1.746-.522-.54 0-1.02.054-1.44.162-.42.108-.846.252-1.278.432l-.576-1.71a8.922 8.922 0 011.62-.558c.552-.144 1.206-.216 1.962-.216 1.416 0 2.466.354 3.15 1.062.348.348.606.768.774 1.26.168.492.252 1.05.252 1.674v5.634h-2.124v-1.188a4.308 4.308 0 01-1.242.99c-.504.264-1.122.396-1.854.396zm.612-1.584c.36 0 .696-.048 1.008-.144.312-.096.576-.234.792-.414.228-.18.408-.396.54-.648.132-.252.198-.528.198-.828v-.648a5.608 5.608 0 00-.972-.27 6.068 6.068 0 00-1.188-.108c-.708 0-1.26.138-1.656.414-.384.276-.576.666-.576 1.17v.036c0 .456.174.81.522 1.062.36.252.804.378 1.332.378zm7.217-8.118h2.178v2.142c.3-.72.726-1.296 1.278-1.728.552-.432 1.248-.63 2.088-.594v2.304h-.126c-.48 0-.918.078-1.314.234a2.75 2.75 0 00-1.026.702c-.288.312-.51.708-.666 1.188-.156.468-.234 1.014-.234 1.638v3.618h-2.178v-9.504zm11.475 9.72c-.684 0-1.326-.12-1.926-.36a4.795 4.795 0 01-1.548-1.008 4.778 4.778 0 01-1.026-1.548 5.245 5.245 0 01-.378-2.016v-.036c0-.684.114-1.326.342-1.926.228-.6.546-1.122.954-1.566a4.46 4.46 0 011.476-1.062 4.361 4.361 0 011.872-.396c.756 0 1.416.138 1.98.414.576.276 1.05.648 1.422 1.116.384.468.672 1.014.864 1.638.192.612.288 1.26.288 1.944 0 .096-.006.198-.018.306 0 .096-.006.198-.018.306h-6.984c.12.78.426 1.38.918 1.8.504.408 1.11.612 1.818.612.54 0 1.008-.096 1.404-.288a4.562 4.562 0 001.17-.846l1.278 1.134a5.226 5.226 0 01-1.638 1.296c-.624.324-1.374.486-2.25.486zm2.16-5.634a3.602 3.602 0 00-.234-.972 2.384 2.384 0 00-.486-.792 2.217 2.217 0 00-.738-.54 2.186 2.186 0 00-.954-.198c-.672 0-1.23.234-1.674.702-.432.456-.696 1.056-.792 1.8h4.878zm8.703 5.634c-.684 0-1.326-.12-1.926-.36a4.795 4.795 0 01-1.548-1.008 4.778 4.778 0 01-1.026-1.548 5.245 5.245 0 01-.378-2.016v-.036c0-.684.114-1.326.342-1.926.228-.6.546-1.122.954-1.566a4.46 4.46 0 011.476-1.062 4.361 4.361 0 011.872-.396c.756 0 1.416.138 1.98.414.576.276 1.05.648 1.422 1.116.384.468.672 1.014.864 1.638.192.612.288 1.26.288 1.944 0 .096-.006.198-.018.306 0 .096-.006.198-.018.306h-6.984c.12.78.426 1.38.918 1.8.504.408 1.11.612 1.818.612.54 0 1.008-.096 1.404-.288a4.562 4.562 0 001.17-.846l1.278 1.134a5.226 5.226 0 01-1.638 1.296c-.624.324-1.374.486-2.25.486zm2.16-5.634a3.602 3.602 0 00-.234-.972 2.384 2.384 0 00-.486-.792 2.217 2.217 0 00-.738-.54 2.186 2.186 0 00-.954-.198c-.672 0-1.23.234-1.674.702-.432.456-.696 1.056-.792 1.8h4.878zm4.348-4.086h2.178v2.142c.3-.72.726-1.296 1.278-1.728.552-.432 1.248-.63 2.088-.594v2.304h-.126c-.48 0-.918.078-1.314.234a2.75 2.75 0 00-1.026.702c-.288.312-.51.708-.666 1.188-.156.468-.234 1.014-.234 1.638v3.618h-2.178v-9.504zm5.674 7.02h2.394v2.484h-2.394v-2.484z" fill="#666"/><path d="M23.8 215.528h10.38v2.2h-7.92v3.64h7.02v2.2h-7.02v3.76h8.02v2.2H23.8v-14zm17.418 6.98l2.44-3.54h2.58l-3.72 5.16 3.88 5.4h-2.64l-2.6-3.76-2.58 3.76h-2.58l3.86-5.38-3.72-5.18h2.64l2.44 3.54zm7.302-3.54h2.42v1.76a5.522 5.522 0 011.44-1.4c.573-.387 1.293-.58 2.16-.58.613 0 1.213.12 1.8.36.6.24 1.127.593 1.58 1.06.453.466.82 1.04 1.1 1.72.28.68.42 1.46.42 2.34v.04c0 .88-.14 1.66-.42 2.34a4.955 4.955 0 01-1.1 1.72 4.57 4.57 0 01-1.56 1.06c-.587.24-1.193.36-1.82.36-.88 0-1.607-.187-2.18-.56a5.583 5.583 0 01-1.42-1.3v4.84h-2.42v-13.76zm5.44 8.68c.413 0 .8-.08 1.16-.24.373-.16.693-.38.96-.66.28-.294.5-.647.66-1.06.16-.427.24-.9.24-1.42v-.04c0-.507-.08-.967-.24-1.38a3.13 3.13 0 00-.66-1.08 2.73 2.73 0 00-.96-.68c-.36-.16-.747-.24-1.16-.24-.413 0-.807.08-1.18.24-.373.16-.7.393-.98.7-.28.293-.507.646-.68 1.06-.16.413-.24.873-.24 1.38v.04c0 .506.08.966.24 1.38.173.413.4.773.68 1.08a2.964 2.964 0 002.16.92zm8.118-12.72h2.42v14.6h-2.42v-14.6zm10.603 14.84c-.8 0-1.547-.14-2.24-.42a5.86 5.86 0 01-1.78-1.18 5.393 5.393 0 01-1.16-1.74 5.423 5.423 0 01-.42-2.12v-.04c0-.76.14-1.474.42-2.14a5.648 5.648 0 011.18-1.74 5.65 5.65 0 011.78-1.2 5.729 5.729 0 012.26-.44c.813 0 1.56.146 2.24.44.693.28 1.286.673 1.78 1.18.506.493.9 1.073 1.18 1.74.28.653.42 1.36.42 2.12v.04c0 .746-.147 1.453-.44 2.12a5.458 5.458 0 01-1.18 1.76 5.55 5.55 0 01-1.78 1.18 5.746 5.746 0 01-2.26.44zm.04-2.12a3.2 3.2 0 001.32-.26c.4-.187.74-.427 1.02-.72.28-.307.493-.66.64-1.06a3.88 3.88 0 00.22-1.3v-.04c0-.467-.08-.907-.24-1.32a3.217 3.217 0 00-.68-1.08 2.941 2.941 0 00-1.02-.72 2.947 2.947 0 00-1.3-.28c-.48 0-.92.093-1.32.28-.387.173-.72.413-1 .72-.28.293-.494.646-.64 1.06-.147.413-.22.846-.22 1.3v.04c0 .466.08.906.24 1.32.16.4.38.753.66 1.06.293.306.633.553 1.02.74.4.173.833.26 1.3.26zm8.084-8.68h2.42v2.38c.334-.8.807-1.44 1.42-1.92.614-.48 1.387-.7 2.32-.66v2.56h-.14c-.533 0-1.02.086-1.46.26-.44.173-.82.433-1.14.78-.32.346-.566.786-.74 1.32-.173.52-.26 1.126-.26 1.82v4.02h-2.42v-10.56zm12.75 10.8c-.76 0-1.473-.134-2.14-.4a5.333 5.333 0 01-1.72-1.12 5.316 5.316 0 01-1.14-1.72 5.829 5.829 0 01-.42-2.24v-.04c0-.76.127-1.474.38-2.14a5.343 5.343 0 011.06-1.74 4.952 4.952 0 011.64-1.18c.627-.294 1.32-.44 2.08-.44.84 0 1.574.153 2.2.46.64.306 1.167.72 1.58 1.24.427.52.747 1.126.96 1.82.214.68.32 1.4.32 2.16 0 .106-.006.22-.02.34 0 .106-.006.22-.02.34h-7.76c.134.866.474 1.533 1.02 2 .56.453 1.234.68 2.02.68.6 0 1.12-.107 1.56-.32.44-.214.874-.527 1.3-.94l1.42 1.26a5.807 5.807 0 01-1.82 1.44c-.693.36-1.526.54-2.5.54zm2.4-6.26a3.998 3.998 0 00-.26-1.08 2.644 2.644 0 00-.54-.88 2.446 2.446 0 00-.82-.6 2.425 2.425 0 00-1.06-.22c-.746 0-1.366.26-1.86.78-.48.506-.773 1.173-.88 2h5.42z" fill="#0487F3"/><path stroke="#0487F3" stroke-width="1.811" stroke-linecap="round" d="M102.05 218.96l3.841 3.841m-3.764 3.855l3.622-3.622"/><g clip-path="url(#clip0)"><path d="M50.974 33.602L22 53.48h57.946L50.974 33.603z" fill="#ABCB57"/><path opacity=".3" d="M36.22 49.072L50.975 38.95l14.753 10.122H36.221z" fill="#5B5B5F"/><path d="M77.305 74.674H24.643v5.67h52.662v-5.67zM39.087 53.48h-9.302v21.194h9.302V53.48zm16.537 0h-9.302v21.194h9.302V53.48zm16.536 0h-9.303v21.194h9.302V53.48z" fill="#ABCB57"/><path d="M77.305 53.48H24.643v1.478h52.662V53.48zm0 21.194H24.643v2.835h52.662v-2.835z" fill="#ABCB57"/><path opacity=".3" d="M24.643 53.48v1.478h9.794v19.716h-9.794v2.835h52.662v-2.835H72.16V54.958h5.145V53.48H24.643zm14.445 1.478h11.886v19.716H39.088V54.958zM67.51 74.674H55.625V54.958H67.51v19.716z" fill="#5B5B5F"/></g><defs><clipPath id="clip0"><path fill="#fff" d="M22 28h57.946v57.946H22z"/></clipPath></defs></svg>