<svg width="312" height="360" fill="none" xmlns="http://www.w3.org/2000/svg"><rect width="312" height="360" rx="16" fill="#fff"/><path d="M82.056 221.784H66.264V215.4h24.192v5.568L75.384 249h-8.352l15.024-27.216zm19.676.864l-5.856 1.44-1.537-6.048 9.649-2.88h5.04V249h-7.296v-26.352zm29.178 26.928c-2.24 0-4.288-.432-6.144-1.296a14.567 14.567 0 01-4.704-3.648c-1.28-1.568-2.272-3.408-2.976-5.52-.704-2.112-1.056-4.384-1.056-6.816v-.096c0-2.432.352-4.704 1.056-6.816.736-2.112 1.76-3.952 3.072-5.52a14.28 14.28 0 014.704-3.696c1.856-.896 3.904-1.344 6.144-1.344 2.208 0 4.224.448 6.048 1.344a13.16 13.16 0 014.704 3.648c1.312 1.536 2.32 3.36 3.024 5.472.736 2.112 1.104 4.384 1.104 6.816v.096c0 2.432-.368 4.704-1.104 6.816-.704 2.112-1.712 3.952-3.024 5.52a14.137 14.137 0 01-4.752 3.696c-1.824.896-3.856 1.344-6.096 1.344zm.096-6.672c1.12 0 2.128-.256 3.024-.768.896-.544 1.664-1.28 2.304-2.208.64-.96 1.12-2.08 1.44-3.36.352-1.312.528-2.736.528-4.272v-.096c0-1.536-.176-2.944-.528-4.224-.352-1.312-.864-2.448-1.536-3.408-.64-.96-1.424-1.712-2.352-2.256a5.624 5.624 0 00-2.976-.816c-1.12 0-2.128.272-3.024.816-.896.512-1.664 1.248-2.304 2.208-.608.928-1.088 2.048-1.44 3.36-.352 1.28-.528 2.688-.528 4.224v.096c0 1.536.176 2.96.528 4.272.352 1.312.848 2.448 1.488 3.408.64.928 1.408 1.664 2.304 2.208a5.963 5.963 0 003.072.816zm34.966 6.672c-2.24 0-4.288-.432-6.144-1.296a14.567 14.567 0 01-4.704-3.648c-1.28-1.568-2.272-3.408-2.976-5.52-.704-2.112-1.056-4.384-1.056-6.816v-.096c0-2.432.352-4.704 1.056-6.816.736-2.112 1.76-3.952 3.072-5.52a14.28 14.28 0 014.704-3.696c1.856-.896 3.904-1.344 6.144-1.344 2.208 0 4.224.448 6.048 1.344a13.16 13.16 0 014.704 3.648c1.312 1.536 2.32 3.36 3.024 5.472.736 2.112 1.104 4.384 1.104 6.816v.096c0 2.432-.368 4.704-1.104 6.816-.704 2.112-1.712 3.952-3.024 5.52a14.137 14.137 0 01-4.752 3.696c-1.824.896-3.856 1.344-6.096 1.344zm.096-6.672c1.12 0 2.128-.256 3.024-.768.896-.544 1.664-1.28 2.304-2.208.64-.96 1.12-2.08 1.44-3.36.352-1.312.528-2.736.528-4.272v-.096c0-1.536-.176-2.944-.528-4.224-.352-1.312-.864-2.448-1.536-3.408-.64-.96-1.424-1.712-2.352-2.256a5.624 5.624 0 00-2.976-.816c-1.12 0-2.128.272-3.024.816-.896.512-1.664 1.248-2.304 2.208-.608.928-1.088 2.048-1.44 3.36-.352 1.28-.528 2.688-.528 4.224v.096c0 1.536.176 2.96.528 4.272.352 1.312.848 2.448 1.488 3.408.64.928 1.408 1.664 2.304 2.208a5.963 5.963 0 003.072.816zm34.967 6.672c-2.24 0-4.288-.432-6.144-1.296a14.567 14.567 0 01-4.704-3.648c-1.28-1.568-2.272-3.408-2.976-5.52-.704-2.112-1.056-4.384-1.056-6.816v-.096c0-2.432.352-4.704 1.056-6.816.736-2.112 1.76-3.952 3.072-5.52a14.28 14.28 0 014.704-3.696c1.856-.896 3.904-1.344 6.144-1.344 2.208 0 4.224.448 6.048 1.344a13.16 13.16 0 014.704 3.648c1.312 1.536 2.32 3.36 3.024 5.472.736 2.112 1.104 4.384 1.104 6.816v.096c0 2.432-.368 4.704-1.104 6.816-.704 2.112-1.712 3.952-3.024 5.52a14.137 14.137 0 01-4.752 3.696c-1.824.896-3.856 1.344-6.096 1.344zm.096-6.672c1.12 0 2.128-.256 3.024-.768.896-.544 1.664-1.28 2.304-2.208.64-.96 1.12-2.08 1.44-3.36.352-1.312.528-2.736.528-4.272v-.096c0-1.536-.176-2.944-.528-4.224-.352-1.312-.864-2.448-1.536-3.408-.64-.96-1.424-1.712-2.352-2.256a5.624 5.624 0 00-2.976-.816c-1.12 0-2.128.272-3.024.816-.896.512-1.664 1.248-2.304 2.208-.608.928-1.088 2.048-1.44 3.36-.352 1.28-.528 2.688-.528 4.224v.096c0 1.536.176 2.96.528 4.272.352 1.312.848 2.448 1.488 3.408.64.928 1.408 1.664 2.304 2.208a5.963 5.963 0 003.072.816zm29.446-7.488h-8.688v-6.624h8.688v-8.64h6.816v8.64h8.688v6.624h-8.688v8.64h-6.816v-8.64z" fill="#000" fill-opacity=".8"/><path d="M64.365 286.8h4.816c.694 0 1.307.101 1.84.304.544.192.992.464 1.344.816.278.277.49.603.64.976.15.373.224.784.224 1.232v.032c0 .469-.074.891-.224 1.264-.15.363-.362.683-.64.96a3.501 3.501 0 01-.96.672 4.893 4.893 0 01-1.216.368L73.63 298h-1.552l-3.248-4.352h-3.2V298h-1.264v-11.2zm4.704 5.712c.416 0 .8-.053 1.152-.16a2.92 2.92 0 00.912-.448 2.13 2.13 0 00.592-.72 2.08 2.08 0 00.224-.976v-.032c0-.693-.25-1.232-.752-1.616-.501-.395-1.205-.592-2.112-.592H65.63v4.544h3.44zm10.11 5.68a4.222 4.222 0 01-1.6-.304 4.112 4.112 0 01-1.311-.88 4.432 4.432 0 01-.897-1.36 4.697 4.697 0 01-.32-1.76v-.032c0-.597.096-1.157.288-1.68a4.28 4.28 0 01.832-1.36 3.815 3.815 0 011.248-.928 3.807 3.807 0 011.6-.336c.608 0 1.152.117 1.632.352.48.224.886.533 1.217.928.33.395.58.859.752 1.392.17.523.255 1.088.255 1.696v.208c0 .053-.005.117-.016.192H76.3c.043.448.15.848.32 1.2.171.341.385.635.64.88.267.235.566.416.897.544.33.117.682.176 1.055.176.576 0 1.067-.107 1.472-.32a4.32 4.32 0 001.136-.848l.769.688a5.197 5.197 0 01-1.424 1.136c-.534.277-1.195.416-1.984.416zm2.448-4.784a4.014 4.014 0 00-.24-1.072 2.658 2.658 0 00-.511-.896 2.275 2.275 0 00-.8-.608c-.31-.16-.672-.24-1.088-.24-.363 0-.7.075-1.008.224-.31.139-.582.336-.817.592a2.994 2.994 0 00-.575.88 3.76 3.76 0 00-.288 1.12h5.328zm7.07 7.184a6.761 6.761 0 01-1.985-.288 6.37 6.37 0 01-1.776-.864l.56-.96c.48.341.982.603 1.504.784a5.098 5.098 0 001.68.272c.918 0 1.648-.251 2.192-.752.544-.491.816-1.221.816-2.192v-.976c-.362.48-.805.891-1.328 1.232-.522.341-1.162.512-1.92.512-.501 0-.986-.091-1.456-.272a3.977 3.977 0 01-1.232-.768 4.042 4.042 0 01-.88-1.216 3.937 3.937 0 01-.32-1.616v-.032c0-.608.107-1.152.32-1.632.224-.48.518-.885.88-1.216a3.801 3.801 0 011.248-.784 3.971 3.971 0 012.496-.128c.33.085.624.203.88.352.267.149.507.325.72.528.214.203.406.416.576.64v-1.488h1.232v6.832c0 .64-.09 1.2-.272 1.68a3.404 3.404 0 01-.784 1.248 3.472 3.472 0 01-1.36.832 5.555 5.555 0 01-1.792.272zm-.017-4.32c.395 0 .774-.064 1.136-.192.363-.139.683-.331.96-.576.288-.256.518-.555.688-.896.17-.341.256-.72.256-1.136v-.032a2.54 2.54 0 00-.256-1.152c-.17-.341-.4-.635-.688-.88a2.886 2.886 0 00-.96-.56 3.147 3.147 0 00-1.136-.208c-.394 0-.768.069-1.12.208a2.776 2.776 0 00-.912.56 2.536 2.536 0 00-.608.864c-.15.341-.224.725-.224 1.152v.032c0 .416.075.8.224 1.152.16.341.368.635.624.88.267.245.57.437.912.576.352.139.72.208 1.104.208zm7.01-9.712h1.407v1.36H95.69v-1.36zm.08 3.168H97V298h-1.23v-8.272zm6.826 8.432c-.597 0-1.2-.107-1.808-.32a5.793 5.793 0 01-1.616-.896l.624-.88a5.51 5.51 0 001.392.784c.491.181.982.272 1.472.272.502 0 .912-.117 1.232-.352.32-.235.48-.555.48-.96v-.032a.824.824 0 00-.176-.528 1.334 1.334 0 00-.448-.384 3.269 3.269 0 00-.672-.304 13.398 13.398 0 00-.768-.24c-.32-.096-.645-.197-.976-.304a4.472 4.472 0 01-.88-.432 2.287 2.287 0 01-.64-.64c-.16-.256-.24-.576-.24-.96v-.032c0-.352.07-.672.208-.96a2.12 2.12 0 01.576-.752c.256-.213.555-.373.896-.48a3.581 3.581 0 011.136-.176c.512 0 1.03.085 1.552.256.523.16.998.379 1.424.656l-.56.928a5.306 5.306 0 00-1.216-.576 3.635 3.635 0 00-1.232-.224c-.49 0-.88.117-1.168.352-.288.224-.432.507-.432.848v.032c0 .192.059.363.176.512.118.139.272.261.464.368.203.107.432.203.688.288.256.085.523.171.8.256.32.096.635.203.944.32.32.117.608.267.864.448s.459.4.608.656c.16.256.24.571.24.944v.032c0 .395-.08.747-.24 1.056a2.266 2.266 0 01-.624.768 2.754 2.754 0 01-.928.496c-.352.107-.736.16-1.152.16zm7.845-.016c-.331 0-.64-.043-.928-.128a2.037 2.037 0 01-.752-.4 1.994 1.994 0 01-.48-.736c-.117-.299-.176-.656-.176-1.072v-4.992h-1.152v-1.088h1.152v-2.496h1.232v2.496h2.624v1.088h-2.624v4.832c0 .512.128.869.384 1.072.256.203.592.304 1.008.304a2.564 2.564 0 001.2-.288v1.056a2.538 2.538 0 01-.688.256 3.046 3.046 0 01-.8.096zm7.082.048a4.226 4.226 0 01-1.6-.304 4.124 4.124 0 01-1.312-.88 4.438 4.438 0 01-.896-1.36 4.703 4.703 0 01-.32-1.76v-.032c0-.597.096-1.157.288-1.68a4.28 4.28 0 01.832-1.36 3.815 3.815 0 011.248-.928 3.808 3.808 0 011.6-.336c.608 0 1.152.117 1.632.352.48.224.886.533 1.216.928.331.395.582.859.752 1.392.171.523.256 1.088.256 1.696v.208c0 .053-.005.117-.016.192h-6.56c.043.448.15.848.32 1.2.171.341.384.635.64.88.267.235.566.416.896.544.331.117.683.176 1.056.176.576 0 1.067-.107 1.472-.32a4.316 4.316 0 001.136-.848l.768.688c-.416.469-.89.848-1.424 1.136-.533.277-1.194.416-1.984.416zm2.448-4.784a4.014 4.014 0 00-.24-1.072 2.653 2.653 0 00-.512-.896 2.272 2.272 0 00-.8-.608c-.309-.16-.672-.24-1.088-.24-.362 0-.698.075-1.008.224a2.478 2.478 0 00-.816.592 3.022 3.022 0 00-.576.88 3.779 3.779 0 00-.288 1.12h5.328zm3.405-3.68h1.232v2.16c.149-.341.336-.656.56-.944a3.59 3.59 0 01.768-.736c.288-.213.603-.373.944-.48a3.353 3.353 0 011.104-.144v1.328h-.096c-.448 0-.875.08-1.28.24a2.9 2.9 0 00-1.04.72c-.299.32-.533.72-.704 1.2-.171.469-.256 1.013-.256 1.632V298h-1.232v-8.272zm9.741 8.464a4.222 4.222 0 01-1.6-.304 4.112 4.112 0 01-1.312-.88 4.438 4.438 0 01-.896-1.36 4.703 4.703 0 01-.32-1.76v-.032c0-.597.096-1.157.288-1.68a4.28 4.28 0 01.832-1.36 3.815 3.815 0 011.248-.928 3.808 3.808 0 011.6-.336c.608 0 1.152.117 1.632.352.48.224.885.533 1.216.928.331.395.581.859.752 1.392.171.523.256 1.088.256 1.696v.208c0 .053-.005.117-.016.192h-6.56c.043.448.149.848.32 1.2.171.341.384.635.64.88.267.235.565.416.896.544.331.117.683.176 1.056.176.576 0 1.067-.107 1.472-.32a4.316 4.316 0 001.136-.848l.768.688a5.197 5.197 0 01-1.424 1.136c-.533.277-1.195.416-1.984.416zm2.448-4.784a4.014 4.014 0 00-.24-1.072 2.653 2.653 0 00-.512-.896 2.272 2.272 0 00-.8-.608c-.309-.16-.672-.24-1.088-.24a2.29 2.29 0 00-1.008.224 2.478 2.478 0 00-.816.592 2.983 2.983 0 00-.576.88 3.779 3.779 0 00-.288 1.12h5.328zm6.877 4.768c-.502 0-.987-.096-1.456-.288a3.928 3.928 0 01-1.264-.832 4.219 4.219 0 01-.896-1.344c-.224-.533-.336-1.141-.336-1.824v-.032c0-.672.112-1.275.336-1.808.224-.533.522-.981.896-1.344a3.817 3.817 0 011.264-.848 3.628 3.628 0 011.456-.304 3.54 3.54 0 011.92.528c.256.16.485.347.688.56.213.213.4.437.56.672v-4.992h1.232V298h-1.232v-1.664a6.03 6.03 0 01-.576.704 3.688 3.688 0 01-.688.592 3.199 3.199 0 01-.864.4c-.31.096-.656.144-1.04.144zm.224-1.104c.384 0 .752-.075 1.104-.224.362-.16.682-.379.96-.656.288-.288.512-.624.672-1.008.17-.395.256-.832.256-1.312v-.032c0-.48-.086-.912-.256-1.296a2.876 2.876 0 00-.672-1.008 2.927 2.927 0 00-.96-.64c-.352-.16-.72-.24-1.104-.24-.406 0-.784.075-1.136.224a2.596 2.596 0 00-.928.624 3.088 3.088 0 00-.624.992c-.15.395-.224.843-.224 1.344v.032c0 .491.08.933.24 1.328.16.395.373.731.64 1.008a2.804 2.804 0 002.032.864zm14.766 1.104c-.502 0-.95-.08-1.344-.24a2.914 2.914 0 01-.992-.672 3.253 3.253 0 01-.624-1.056 4.12 4.12 0 01-.208-1.344v-5.136h1.232v4.832c0 .768.197 1.376.592 1.824.394.448.96.672 1.696.672.352 0 .677-.059.976-.176.309-.128.57-.304.784-.528.224-.235.4-.512.528-.832.128-.32.192-.672.192-1.056v-4.736h1.216V298h-1.216v-1.44c-.278.448-.64.832-1.088 1.152-.448.309-1.03.464-1.744.464zm9.555-.016c-.597 0-1.2-.107-1.808-.32a5.791 5.791 0 01-1.616-.896l.624-.88a5.51 5.51 0 001.392.784c.491.181.981.272 1.472.272.501 0 .912-.117 1.232-.352.32-.235.48-.555.48-.96v-.032a.83.83 0 00-.176-.528 1.344 1.344 0 00-.448-.384 3.269 3.269 0 00-.672-.304 13.398 13.398 0 00-.768-.24c-.32-.096-.645-.197-.976-.304a4.472 4.472 0 01-.88-.432 2.294 2.294 0 01-.64-.64c-.16-.256-.24-.576-.24-.96v-.032c0-.352.069-.672.208-.96.139-.299.331-.549.576-.752.256-.213.555-.373.896-.48a3.581 3.581 0 011.136-.176 4.97 4.97 0 011.552.256c.523.16.997.379 1.424.656l-.56.928a5.306 5.306 0 00-1.216-.576 3.64 3.64 0 00-1.232-.224c-.491 0-.88.117-1.168.352-.288.224-.432.507-.432.848v.032c0 .192.059.363.176.512.117.139.272.261.464.368.203.107.432.203.688.288.256.085.523.171.8.256.32.096.635.203.944.32.32.117.608.267.864.448s.459.4.608.656c.16.256.24.571.24.944v.032c0 .395-.08.747-.24 1.056a2.266 2.266 0 01-.624.768 2.754 2.754 0 01-.928.496c-.352.107-.736.16-1.152.16zm8.849.032a4.218 4.218 0 01-1.6-.304 4.101 4.101 0 01-1.312-.88 4.42 4.42 0 01-.896-1.36 4.683 4.683 0 01-.32-1.76v-.032c0-.597.096-1.157.288-1.68.202-.523.48-.976.832-1.36a3.815 3.815 0 011.248-.928 3.804 3.804 0 011.6-.336c.608 0 1.152.117 1.632.352.48.224.885.533 1.216.928.33.395.581.859.752 1.392.17.523.256 1.088.256 1.696v.208c0 .053-.006.117-.016.192h-6.56c.042.448.149.848.32 1.2.17.341.384.635.64.88.266.235.565.416.896.544.33.117.682.176 1.056.176.576 0 1.066-.107 1.472-.32a4.332 4.332 0 001.136-.848l.768.688a5.197 5.197 0 01-1.424 1.136c-.534.277-1.195.416-1.984.416zm2.448-4.784a4.014 4.014 0 00-.24-1.072 2.67 2.67 0 00-.512-.896 2.281 2.281 0 00-.8-.608c-.31-.16-.672-.24-1.088-.24a2.29 2.29 0 00-1.008.224c-.31.139-.582.336-.816.592a2.983 2.983 0 00-.576.88c-.15.341-.246.715-.288 1.12h5.328zm3.405-3.68h1.232v2.16c.149-.341.336-.656.56-.944a3.59 3.59 0 01.768-.736c.288-.213.602-.373.944-.48a3.353 3.353 0 011.104-.144v1.328h-.096c-.448 0-.875.08-1.28.24-.395.16-.742.4-1.04.72-.299.32-.534.72-.704 1.2-.171.469-.256 1.013-.256 1.632V298h-1.232v-8.272zm9.22 8.432c-.597 0-1.2-.107-1.808-.32a5.791 5.791 0 01-1.616-.896l.624-.88a5.51 5.51 0 001.392.784c.491.181.981.272 1.472.272.501 0 .912-.117 1.232-.352.32-.235.48-.555.48-.96v-.032a.83.83 0 00-.176-.528 1.344 1.344 0 00-.448-.384 3.269 3.269 0 00-.672-.304 13.398 13.398 0 00-.768-.24c-.32-.096-.645-.197-.976-.304a4.472 4.472 0 01-.88-.432 2.294 2.294 0 01-.64-.64c-.16-.256-.24-.576-.24-.96v-.032c0-.352.069-.672.208-.96.139-.299.331-.549.576-.752.256-.213.555-.373.896-.48a3.581 3.581 0 011.136-.176 4.97 4.97 0 011.552.256c.523.16.997.379 1.424.656l-.56.928a5.306 5.306 0 00-1.216-.576 3.64 3.64 0 00-1.232-.224c-.491 0-.88.117-1.168.352-.288.224-.432.507-.432.848v.032c0 .192.059.363.176.512.117.139.272.261.464.368.203.107.432.203.688.288.256.085.523.171.8.256.32.096.635.203.944.32.32.117.608.267.864.448s.459.4.608.656c.16.256.24.571.24.944v.032c0 .395-.08.747-.24 1.056a2.266 2.266 0 01-.624.768 2.754 2.754 0 01-.928.496c-.352.107-.736.16-1.152.16zm12.494.016c-.384 0-.763-.053-1.136-.16a3.295 3.295 0 01-.992-.48 2.72 2.72 0 01-.704-.816c-.171-.32-.256-.693-.256-1.12v-.032c0-.437.085-.821.256-1.152.17-.331.41-.608.72-.832.32-.224.693-.395 1.12-.512a5.559 5.559 0 011.44-.176c.533 0 .997.032 1.392.096.394.064.778.149 1.152.256v-.288c0-.747-.219-1.307-.656-1.68-.427-.384-1.03-.576-1.808-.576-.491 0-.939.059-1.344.176a7.073 7.073 0 00-1.168.432l-.368-1.008a7.723 7.723 0 011.392-.496 6.159 6.159 0 011.616-.192c1.173 0 2.064.304 2.672.912.565.565.848 1.371.848 2.416V298h-1.184v-1.248c-.288.373-.678.704-1.168.992-.48.288-1.088.432-1.824.432zm.24-.976c.384 0 .741-.053 1.072-.16.341-.117.634-.272.88-.464a2.18 2.18 0 00.592-.704c.149-.277.224-.581.224-.912v-.8c-.31-.085-.667-.165-1.072-.24a7.348 7.348 0 00-1.36-.112c-.779 0-1.376.155-1.792.464a1.476 1.476 0 00-.625 1.248v.032c0 .256.054.491.161.704.117.203.272.373.464.512s.41.245.656.32c.256.075.522.112.8.112zm10.289.992a4.26 4.26 0 01-1.696-.336 4.588 4.588 0 01-1.344-.928 4.402 4.402 0 01-1.2-3.024v-.032a4.402 4.402 0 011.2-3.04 4.206 4.206 0 011.344-.928 4.088 4.088 0 011.696-.352c.395 0 .752.037 1.072.112.32.075.613.181.88.32.267.128.512.283.736.464.224.181.432.373.624.576l-.816.864a5.703 5.703 0 00-1.088-.88c-.384-.245-.859-.368-1.424-.368-.416 0-.805.085-1.168.256-.363.16-.677.384-.944.672a3.092 3.092 0 00-.624 1.024 3.42 3.42 0 00-.224 1.248v.032c0 .448.075.869.224 1.264.16.384.373.725.64 1.024.277.288.597.517.96.688.373.16.779.24 1.216.24.533 0 1.003-.117 1.408-.352a4.707 4.707 0 001.12-.88l.784.736a5.473 5.473 0 01-1.424 1.152c-.523.299-1.173.448-1.952.448zm5.413-8.464h1.232v2.16c.149-.341.336-.656.56-.944a3.59 3.59 0 01.768-.736c.288-.213.602-.373.944-.48a3.353 3.353 0 011.104-.144v1.328h-.096c-.448 0-.875.08-1.28.24-.395.16-.742.4-1.04.72-.299.32-.534.72-.704 1.2-.171.469-.256 1.013-.256 1.632V298h-1.232v-8.272zm9.901 8.464c-.619 0-1.19-.112-1.712-.336a4.523 4.523 0 01-1.36-.928 4.307 4.307 0 01-.896-1.36 4.348 4.348 0 01-.32-1.664v-.032a4.348 4.348 0 011.216-3.04 4.156 4.156 0 011.36-.928 4.273 4.273 0 011.744-.352 4.13 4.13 0 011.712.352 4.12 4.12 0 011.376.928c.384.384.682.837.896 1.36.213.512.32 1.061.32 1.648v.032a4.18 4.18 0 01-.336 1.664 4.273 4.273 0 01-.896 1.376 4.332 4.332 0 01-1.376.944 4.422 4.422 0 01-1.728.336zm.032-1.104c.448 0 .858-.085 1.232-.256.373-.171.693-.4.96-.688.266-.288.474-.624.624-1.008.149-.384.224-.795.224-1.232v-.032c0-.448-.08-.864-.24-1.248a2.987 2.987 0 00-.64-1.024 3.059 3.059 0 00-.976-.704 2.888 2.888 0 00-1.216-.256c-.448 0-.859.085-1.232.256-.374.171-.694.4-.96.688a3.25 3.25 0 00-.608 1.024c-.15.384-.224.795-.224 1.232v.032c0 .448.074.869.224 1.264.16.384.373.72.64 1.008.277.288.602.517.976.688.373.171.778.256 1.216.256zm9.271 1.072a5.439 5.439 0 01-1.807-.32 5.791 5.791 0 01-1.616-.896l.624-.88a5.51 5.51 0 001.392.784c.49.181.981.272 1.472.272.501 0 .912-.117 1.232-.352.32-.235.48-.555.48-.96v-.032a.83.83 0 00-.176-.528 1.344 1.344 0 00-.448-.384 3.269 3.269 0 00-.672-.304 13.914 13.914 0 00-.768-.24c-.32-.096-.646-.197-.976-.304a4.445 4.445 0 01-.88-.432 2.281 2.281 0 01-.64-.64c-.16-.256-.24-.576-.24-.96v-.032c0-.352.069-.672.208-.96.138-.299.33-.549.576-.752.256-.213.554-.373.896-.48.352-.117.73-.176 1.136-.176a4.97 4.97 0 011.552.256c.522.16.997.379 1.424.656l-.56.928a5.325 5.325 0 00-1.216-.576 3.64 3.64 0 00-1.232-.224c-.491 0-.88.117-1.168.352-.288.224-.432.507-.432.848v.032c0 .192.058.363.176.512.117.139.272.261.464.368.202.107.432.203.688.288.256.085.522.171.8.256.32.096.634.203.944.32.32.117.608.267.864.448s.458.4.608.656c.16.256.24.571.24.944v.032c0 .395-.08.747-.24 1.056a2.29 2.29 0 01-.624.768 2.763 2.763 0 01-.928.496c-.352.107-.736.16-1.153.16zm7.813 0c-.597 0-1.2-.107-1.808-.32a5.791 5.791 0 01-1.616-.896l.624-.88a5.51 5.51 0 001.392.784c.491.181.981.272 1.472.272.501 0 .912-.117 1.232-.352.32-.235.48-.555.48-.96v-.032a.83.83 0 00-.176-.528 1.344 1.344 0 00-.448-.384 3.269 3.269 0 00-.672-.304 13.398 13.398 0 00-.768-.24c-.32-.096-.645-.197-.976-.304a4.472 4.472 0 01-.88-.432 2.294 2.294 0 01-.64-.64c-.16-.256-.24-.576-.24-.96v-.032c0-.352.069-.672.208-.96.139-.299.331-.549.576-.752.256-.213.555-.373.896-.48a3.581 3.581 0 011.136-.176 4.97 4.97 0 011.552.256c.523.16.997.379 1.424.656l-.56.928a5.306 5.306 0 00-1.216-.576 3.64 3.64 0 00-1.232-.224c-.491 0-.88.117-1.168.352-.288.224-.432.507-.432.848v.032c0 .192.059.363.176.512.117.139.272.261.464.368.203.107.432.203.688.288.256.085.523.171.8.256.32.096.635.203.944.32.32.117.608.267.864.448s.459.4.608.656c.16.256.24.571.24.944v.032c0 .395-.08.747-.24 1.056a2.266 2.266 0 01-.624.768 2.754 2.754 0 01-.928.496c-.352.107-.736.16-1.152.16zm-123.57 18.984c-.33 0-.64-.043-.928-.128a2.045 2.045 0 01-.752-.4 2.02 2.02 0 01-.48-.736c-.117-.299-.176-.656-.176-1.072v-4.992h-1.152v-1.088h1.152v-2.496h1.232v2.496h2.624v1.088h-2.624v4.832c0 .512.128.869.384 1.072.256.203.592.304 1.008.304a2.558 2.558 0 001.2-.288v1.056a2.526 2.526 0 01-.688.256 3.04 3.04 0 01-.8.096zm3.701-11.824h1.232v4.848c.278-.448.64-.827 1.088-1.136.448-.32 1.03-.48 1.744-.48.502 0 .944.08 1.328.24.395.16.726.389.992.688.278.288.486.635.624 1.04.15.405.224.853.224 1.344V317h-1.232v-4.832c0-.768-.197-1.376-.592-1.824-.394-.448-.96-.672-1.696-.672-.352 0-.682.064-.992.192-.298.117-.56.293-.784.528-.224.224-.4.496-.528.816-.117.32-.176.672-.176 1.056V317h-1.232v-11.68zm13.476 11.872a4.218 4.218 0 01-1.6-.304 4.101 4.101 0 01-1.312-.88 4.42 4.42 0 01-.896-1.36 4.683 4.683 0 01-.32-1.76v-.032c0-.597.096-1.157.288-1.68.202-.523.48-.976.832-1.36a3.815 3.815 0 011.248-.928 3.804 3.804 0 011.6-.336c.608 0 1.152.117 1.632.352.48.224.885.533 1.216.928.33.395.581.859.752 1.392.17.523.256 1.088.256 1.696v.208c0 .053-.006.117-.016.192h-6.56c.042.448.149.848.32 1.2.17.341.384.635.64.88.266.235.565.416.896.544.33.117.682.176 1.056.176.576 0 1.066-.107 1.472-.32a4.332 4.332 0 001.136-.848l.768.688a5.197 5.197 0 01-1.424 1.136c-.534.277-1.195.416-1.984.416zm2.448-4.784a4.014 4.014 0 00-.24-1.072 2.67 2.67 0 00-.512-.896 2.281 2.281 0 00-.8-.608c-.31-.16-.672-.24-1.088-.24a2.29 2.29 0 00-1.008.224c-.31.139-.582.336-.816.592a2.983 2.983 0 00-.576.88c-.15.341-.246.715-.288 1.12h5.328zm11.709 7.184a6.762 6.762 0 01-1.984-.288 6.38 6.38 0 01-1.776-.864l.56-.96c.48.341.981.603 1.504.784a5.102 5.102 0 001.68.272c.917 0 1.648-.251 2.192-.752.544-.491.816-1.221.816-2.192v-.976a5.23 5.23 0 01-1.328 1.232c-.523.341-1.163.512-1.92.512-.501 0-.987-.091-1.456-.272a3.979 3.979 0 01-1.232-.768 4.037 4.037 0 01-.88-1.216 3.944 3.944 0 01-.32-1.616v-.032c0-.608.107-1.152.32-1.632.224-.48.517-.885.88-1.216a3.81 3.81 0 011.248-.784 3.969 3.969 0 012.496-.128c.331.085.624.203.88.352.267.149.507.325.72.528.213.203.405.416.576.64v-1.488h1.232v6.832c0 .64-.091 1.2-.272 1.68a3.402 3.402 0 01-.784 1.248 3.472 3.472 0 01-1.36.832 5.554 5.554 0 01-1.792.272zm-.016-4.32c.395 0 .773-.064 1.136-.192.363-.139.683-.331.96-.576a2.97 2.97 0 00.688-.896c.171-.341.256-.72.256-1.136v-.032c0-.427-.085-.811-.256-1.152a2.777 2.777 0 00-.688-.88 2.878 2.878 0 00-.96-.56 3.147 3.147 0 00-1.136-.208 3.02 3.02 0 00-1.12.208 2.784 2.784 0 00-.912.56 2.532 2.532 0 00-.608.864 2.85 2.85 0 00-.224 1.152v.032c0 .416.075.8.224 1.152.16.341.368.635.624.88.267.245.571.437.912.576.352.139.72.208 1.104.208zm7.089-9.952h1.232V317h-1.232v-11.68zm7.867 11.872a4.3 4.3 0 01-1.712-.336 4.523 4.523 0 01-1.36-.928 4.307 4.307 0 01-.896-1.36 4.367 4.367 0 01-.32-1.664v-.032c0-.587.107-1.141.32-1.664.213-.523.512-.981.896-1.376a4.156 4.156 0 011.36-.928 4.277 4.277 0 011.744-.352c.619 0 1.189.117 1.712.352a4.12 4.12 0 011.376.928c.384.384.683.837.896 1.36.213.512.32 1.061.32 1.648v.032a4.18 4.18 0 01-.336 1.664 4.256 4.256 0 01-.896 1.376 4.332 4.332 0 01-1.376.944 4.414 4.414 0 01-1.728.336zm.032-1.104c.448 0 .859-.085 1.232-.256.373-.171.693-.4.96-.688.267-.288.475-.624.624-1.008.149-.384.224-.795.224-1.232v-.032c0-.448-.08-.864-.24-1.248a2.972 2.972 0 00-.64-1.024 3.048 3.048 0 00-.976-.704 2.885 2.885 0 00-1.216-.256c-.448 0-.859.085-1.232.256-.373.171-.693.4-.96.688a3.25 3.25 0 00-.608 1.024 3.377 3.377 0 00-.224 1.232v.032c0 .448.075.869.224 1.264.16.384.373.72.64 1.008.277.288.603.517.976.688.373.171.779.256 1.216.256zm10.936 1.088a3.54 3.54 0 01-1.92-.528 3.965 3.965 0 01-.704-.56 5.28 5.28 0 01-.544-.672V317h-1.232v-11.68h1.232v5.072c.17-.245.357-.48.56-.704.213-.224.448-.416.704-.576.256-.171.538-.304.848-.4.32-.107.672-.16 1.056-.16.49 0 .97.096 1.44.288.48.192.906.475 1.28.848.373.363.672.811.896 1.344.224.523.336 1.125.336 1.808v.032c0 .672-.112 1.275-.336 1.808a4.2 4.2 0 01-.896 1.36 3.814 3.814 0 01-2.72 1.136zm-.224-1.104c.394 0 .768-.069 1.12-.208.362-.149.672-.357.928-.624.266-.277.474-.613.624-1.008.16-.395.24-.843.24-1.344v-.032c0-.491-.08-.933-.24-1.328a2.943 2.943 0 00-.624-1.008 2.786 2.786 0 00-.928-.64 2.846 2.846 0 00-1.12-.224c-.384 0-.758.08-1.12.24a3.014 3.014 0 00-.96.656 3.177 3.177 0 00-.672 1.008c-.16.384-.24.811-.24 1.28v.032c0 .48.08.917.24 1.312.17.395.394.731.672 1.008.288.277.608.496.96.656a2.92 2.92 0 001.12.224zm10.065 1.12a4.218 4.218 0 01-1.6-.304 4.101 4.101 0 01-1.312-.88 4.42 4.42 0 01-.896-1.36 4.683 4.683 0 01-.32-1.76v-.032c0-.597.096-1.157.288-1.68.202-.523.48-.976.832-1.36a3.815 3.815 0 011.248-.928 3.804 3.804 0 011.6-.336c.608 0 1.152.117 1.632.352.48.224.885.533 1.216.928.33.395.581.859.752 1.392.17.523.256 1.088.256 1.696v.208c0 .053-.006.117-.016.192h-6.56c.042.448.149.848.32 1.2.17.341.384.635.64.88.266.235.565.416.896.544.33.117.682.176 1.056.176.576 0 1.066-.107 1.472-.32a4.332 4.332 0 001.136-.848l.768.688a5.197 5.197 0 01-1.424 1.136c-.534.277-1.195.416-1.984.416zm2.448-4.784a4.014 4.014 0 00-.24-1.072 2.67 2.67 0 00-.512-.896 2.281 2.281 0 00-.8-.608c-.31-.16-.672-.24-1.088-.24a2.29 2.29 0 00-1.008.224c-.31.139-.582.336-.816.592a2.983 2.983 0 00-.576.88c-.15.341-.246.715-.288 1.12h5.328z" fill="#666"/><path d="M206.452 50.107v7.36l-5.888 5.886v7.36l7.359 4.415h7.359l2.944-4.415h2.944l2.943 4.415h2.944l.862.216c.396-1.973.61-4.013.61-6.103 0-11.61-6.41-21.712-15.875-26.996l-.315.503-5.887 7.36zm-38.269 25.021h-.896c1.334 6.91 4.973 12.984 10.08 17.426l8.478-5.652h7.359v-7.359l-4.415-8.83h-7.359l-4.416 4.415h-8.831zm51.268 15.992l-7.112-5.69h-5.887v4.416l-5.888 2.944V100a30.803 30.803 0 0018.887-8.88z" fill="#FFD7B0"/><circle cx="197.578" cy="68.421" r="31.172" stroke="#8F8B8B" stroke-width=".5"/><path d="M154.983 156.162c5.985 4.837 12.973 13.719 12.973 28.838H91.68c0-15.119 6.987-24.001 12.972-28.838h50.331z" fill="#F5FF80"/><path fill-rule="evenodd" clip-rule="evenodd" d="M171.343 96.392c-.353 3.005-.779 6.107-1.42 8.783-.572 2.387-1.754 5.106-3.033 7.51a46.226 46.226 0 01-1.667 2.879l.041.178c.184.818.147 2.461-.313 4.531-.462 2.085-1.363 4.642-2.945 7.296-3.169 5.315-9.064 11-19.609 14.066-2.876.836-4.348 2.518-5.044 4.264-.704 1.765-.624 3.624-.334 4.785l-.76.19c-.322-1.288-.411-3.319.366-5.266.784-1.967 2.442-3.821 5.553-4.725 10.354-3.011 16.087-8.57 19.155-13.716 1.536-2.576 2.407-5.054 2.853-7.064.338-1.52.428-2.751.389-3.547a21.025 21.025 0 01-1.373 1.838l-.022.026-.027.022c-.124.102-.244.21-.373.325l-.03.027c-.138.123-.284.253-.439.377-.312.249-.674.485-1.126.626-.919.285-2.091.14-3.828-.766-.922-.481-1.471-1.128-1.702-1.866-.228-.73-.128-1.495.141-2.191.269-.696.715-1.348 1.221-1.876.504-.526 1.088-.951 1.649-1.171.99-.389 2.342-.816 3.614-.419 1.096.341 2.032 1.255 2.649 3.04.422-.694.851-1.446 1.269-2.231 1.264-2.375 2.412-5.028 2.962-7.325.63-2.627 1.052-5.69 1.404-8.692.11-.93.213-1.857.313-2.762.223-2.002.434-3.899.678-5.513l.775.118c-.242 1.597-.45 3.47-.671 5.462-.101.908-.205 1.842-.316 2.787zm-6.963 19.037c-.563-2.086-1.457-2.9-2.333-3.173-.988-.308-2.107.013-3.094.4-.428.168-.921.515-1.37.984-.447.467-.83 1.033-1.056 1.616-.225.585-.284 1.162-.124 1.675.158.505.544 1.002 1.317 1.405 1.653.862 2.598.909 3.233.712.324-.101.598-.274.869-.49.136-.108.267-.225.406-.349l.032-.028c.118-.106.241-.216.369-.322.5-.589 1.107-1.428 1.751-2.43zm-35.374 12.704c-2.997.218-5.732-.324-7.35-.899l.263-.738c1.522.541 4.149 1.065 7.03.855 2.878-.21 5.983-1.149 8.506-3.504l.535.573c-2.689 2.509-5.982 3.494-8.984 3.713zm2.128 2.908c-.879.066-1.681-.096-2.167-.273l.268-.736a4.7 4.7 0 001.841.227c.755-.056 1.551-.307 2.195-.923l.542.566c-.809.774-1.796 1.073-2.679 1.139zm-22.083-19.349c-.832.161-1.57.724-1.991 1.205l-.589-.516c.493-.564 1.375-1.254 2.431-1.459a3.05 3.05 0 011.705.147c.587.229 1.159.656 1.69 1.327l-.614.487c-.461-.583-.925-.914-1.36-1.083a2.254 2.254 0 00-1.272-.108zm38.138 0c-.831.161-1.569.724-1.99 1.205l-.59-.516c.494-.564 1.375-1.254 2.431-1.459a3.053 3.053 0 011.706.147c.587.229 1.159.656 1.69 1.327l-.614.487c-.462-.583-.925-.914-1.361-1.083a2.253 2.253 0 00-1.272-.108zm-20.962-16.293h.783v23.255c.263.303 1.253.889 3.482-.226l.351.701c-2.588 1.294-4.104.634-4.563-.153l-.053-.092V95.399zm-33.291 27.825c-4.155-9.93-4.155-20.394-2.881-27.115l.77.146c-1.251 6.602-1.251 16.905 2.834 26.666 4.077 9.743 12.229 18.962 27.325 23.433l-.222.751c-15.337-4.541-23.664-13.935-27.826-23.881z" fill="#666"/><path d="M87.174 86.647c-2.743-1.437-1.829-3.788 2.743-4.571 0-24.678 6.406-27.16 30.83-33.69 19.54-5.225 36.349 5.303 32.779 15.273 1.436-3.396 15.94 4.035 17.638 7.062 1.698 3.026 6.536 5.877 3.657 15.926-2.123 7.413-6.014 12.017-5.36 10.45.653-1.568 1.567-3.397-4.049-10.45-5.617-7.053-21.546-11.102-22.983 0-1.437 11.102-47.026 1.176-49.77 7.053-2.742 5.878-11.232-1.044-9.403 0 1.828 1.045 4.963-2.873 6.66-3.918 1.699-1.045 0-1.698-2.742-3.135z" fill="#C9ECF7"/></svg>