<svg width="304" height="362" fill="none" xmlns="http://www.w3.org/2000/svg"><rect width="304" height="362" rx="24" fill="#fff"/><path d="M14.344 243c.432 0 .744-.3.744-.72s-.312-.72-.744-.72-.732.3-.732.72.3.72.732.72zm6.999-5.46h-1.308V246h.996v-7.236L25.423 246h1.308v-8.46h-1.008v7.236l-4.38-7.236zm10.105 2.16c-1.896 0-3.228 1.356-3.228 3.276 0 1.908 1.332 3.264 3.228 3.264 1.896 0 3.24-1.356 3.24-3.264 0-1.92-1.344-3.276-3.24-3.276zm0 5.712c-1.344 0-2.316-1.032-2.316-2.436 0-1.416.972-2.436 2.316-2.436 1.344 0 2.316 1.02 2.316 2.436 0 1.404-.972 2.436-2.316 2.436zm5.06-.912c0 1.044.624 1.74 1.62 1.74.3 0 .684-.06.96-.144v-.756c-.228.072-.54.12-.732.12-.576-.012-.936-.408-.936-.996v-3.768h1.572v-.756H37.42v-1.416h-.744l-.132 1.416h-1.032v.756h.996v3.804zm12.28-.24c-.012-1.344-1.44-1.596-2.556-1.788-1.104-.18-1.608-.36-1.608-.9 0-.6.636-1.032 1.416-1.032.984 0 1.704.504 1.716 1.2l.9.012c-.012-1.188-1.104-2.052-2.604-2.052-1.308 0-2.316.78-2.316 1.848-.012 1.368 1.056 1.56 2.436 1.776.66.096 1.716.264 1.728 1.02 0 .612-.684 1.068-1.62 1.068-1.032 0-1.776-.6-1.776-1.44h-.9c0 1.308 1.128 2.268 2.688 2.268 1.44 0 2.496-.84 2.496-1.98zm6.719 1.74v-6.06h-.912v3.552c0 1.104-.912 1.92-1.968 1.92-1.08 0-1.692-.78-1.692-1.848v-3.624h-.912v3.624c0 1.548.948 2.676 2.496 2.676.84 0 1.668-.42 2.076-1.092V246h.912zm1.662-6.06V246h.912v-3.396c0-1.212.624-2.064 1.572-2.064.24 0 .588.048.9.192v-.84a2.307 2.307 0 00-.816-.168c-.744 0-1.32.396-1.68 1.056v-.84h-.888zm4.743 2.532c.168-1.14 1.044-1.932 2.22-1.932 1.2 0 2.088.792 2.256 1.944l-4.476-.012zm-.96.432c0 1.932 1.356 3.336 3.228 3.336 1.344 0 2.592-.864 2.964-2.052l-.9-.144c-.276.792-1.164 1.368-2.1 1.368-1.2 0-2.112-.876-2.256-2.148l5.448.012c.012-.132.012-.252.012-.36 0-1.86-1.332-3.216-3.18-3.216-1.872 0-3.216 1.356-3.216 3.204zM74.985 246l1.452-4.992L77.889 246h1.248l2.064-6.06h-.96l-1.704 5.16-1.572-5.16h-1.068l-1.524 5.16-1.728-5.16h-.96l2.052 6.06h1.248zm7.439-8.82V246h.911v-3.54c0-1.116.9-1.92 1.945-1.92 1.08 0 1.716.768 1.716 1.836V246h.912v-3.624c0-1.548-.972-2.676-2.508-2.676-.84 0-1.657.42-2.065 1.104v-3.624h-.911zm7.17 2.76V246h.911v-6.06h-.912zm.455-1.116c.36 0 .624-.264.624-.624s-.264-.612-.624-.612c-.372 0-.624.252-.624.612s.252.624.624.624zm5.074.876c-1.824 0-3.156 1.38-3.156 3.276s1.32 3.264 3.156 3.264c1.428 0 2.664-.912 2.94-2.184l-.9-.12c-.24.864-1.056 1.5-2.04 1.5-1.284 0-2.244-1.032-2.244-2.46s.972-2.472 2.244-2.472c.96 0 1.812.648 2.04 1.536l.888-.12c-.228-1.284-1.464-2.22-2.928-2.22zm4.264-2.52V246h.912v-3.54c0-1.116.9-1.92 1.944-1.92 1.08 0 1.716.768 1.716 1.836V246h.912v-3.624c0-1.548-.972-2.676-2.508-2.676-.84 0-1.656.42-2.064 1.104v-3.624h-.912zm15.409 7.08c-.012-1.344-1.44-1.596-2.556-1.788-1.104-.18-1.608-.36-1.608-.9 0-.6.636-1.032 1.416-1.032.984 0 1.704.504 1.716 1.2l.9.012c-.012-1.188-1.104-2.052-2.604-2.052-1.308 0-2.316.78-2.316 1.848-.012 1.368 1.056 1.56 2.436 1.776.66.096 1.716.264 1.728 1.02 0 .612-.684 1.068-1.62 1.068-1.032 0-1.776-.6-1.776-1.44h-.9c0 1.308 1.128 2.268 2.688 2.268 1.44 0 2.496-.84 2.496-1.98zm1.508.24c0 1.044.624 1.74 1.62 1.74.3 0 .684-.06.96-.144v-.756c-.228.072-.54.12-.732.12-.576-.012-.936-.408-.936-.996v-3.768h1.572v-.756h-1.572v-1.416h-.744l-.132 1.416h-1.032v.756h.996v3.804zm3.897-4.56V246h.912v-3.396c0-1.212.624-2.064 1.572-2.064.24 0 .588.048.9.192v-.84a2.307 2.307 0 00-.816-.168c-.744 0-1.32.396-1.68 1.056v-.84h-.888zm4.743 2.532c.168-1.14 1.044-1.932 2.22-1.932 1.2 0 2.088.792 2.256 1.944l-4.476-.012zm-.96.432c0 1.932 1.356 3.336 3.228 3.336 1.344 0 2.592-.864 2.964-2.052l-.9-.144c-.276.792-1.164 1.368-2.1 1.368-1.2 0-2.112-.876-2.256-2.148l5.448.012c.012-.132.012-.252.012-.36 0-1.86-1.332-3.216-3.18-3.216-1.872 0-3.216 1.356-3.216 3.204zm10.605 2.508c-1.344 0-2.316-1.032-2.316-2.436 0-1.416.972-2.436 2.316-2.436 1.332 0 2.316 1.02 2.316 2.436 0 1.404-.984 2.436-2.316 2.436zm2.328-4.392c-.516-.816-1.392-1.32-2.436-1.32-1.812 0-3.12 1.38-3.12 3.276 0 1.884 1.308 3.264 3.12 3.264 1.044 0 1.92-.504 2.436-1.308V246h.912v-6.06h-.912v1.08zm3.479 4.98v-3.636c0-1.092.684-1.824 1.692-1.824.972 0 1.608.732 1.608 1.824V246h.912v-3.636c0-1.068.696-1.824 1.704-1.824.936 0 1.608.756 1.608 1.824V246h.924v-3.624c0-1.56-1.008-2.664-2.424-2.664-.96 0-1.716.492-2.1 1.26-.336-.768-1.152-1.272-2.148-1.272a2.05 2.05 0 00-1.8.996v-.756h-.888V246h.912zm13.949-1.5c0 1.044.624 1.74 1.62 1.74.3 0 .684-.06.96-.144v-.756c-.228.072-.54.12-.732.12-.576-.012-.936-.408-.936-.996v-3.768h1.572v-.756h-1.572v-1.416h-.744l-.132 1.416h-1.032v.756h.996v3.804zm6.776-4.8c-1.896 0-3.228 1.356-3.228 3.276 0 1.908 1.332 3.264 3.228 3.264 1.896 0 3.24-1.356 3.24-3.264 0-1.92-1.344-3.276-3.24-3.276zm0 5.712c-1.344 0-2.316-1.032-2.316-2.436 0-1.416.972-2.436 2.316-2.436 1.344 0 2.316 1.02 2.316 2.436 0 1.404-.972 2.436-2.316 2.436zm10.815-5.712c-1.824 0-3.156 1.38-3.156 3.276s1.32 3.264 3.156 3.264c1.428 0 2.664-.912 2.94-2.184l-.9-.12c-.24.864-1.056 1.5-2.04 1.5-1.284 0-2.244-1.032-2.244-2.46s.972-2.472 2.244-2.472c.96 0 1.812.648 2.04 1.536l.888-.12c-.228-1.284-1.464-2.22-2.928-2.22zm4.265-2.52V246h.912v-3.54c0-1.116.9-1.92 1.944-1.92 1.08 0 1.716.768 1.716 1.836V246h.912v-3.624c0-1.548-.972-2.676-2.508-2.676-.84 0-1.656.42-2.064 1.104v-3.624h-.912zm9.905 2.52c-1.896 0-3.228 1.356-3.228 3.276 0 1.908 1.332 3.264 3.228 3.264 1.896 0 3.24-1.356 3.24-3.264 0-1.92-1.344-3.276-3.24-3.276zm0 5.712c-1.344 0-2.316-1.032-2.316-2.436 0-1.416.972-2.436 2.316-2.436 1.344 0 2.316 1.02 2.316 2.436 0 1.404-.972 2.436-2.316 2.436zm7.424-5.712c-1.896 0-3.228 1.356-3.228 3.276 0 1.908 1.332 3.264 3.228 3.264 1.896 0 3.24-1.356 3.24-3.264 0-1.92-1.344-3.276-3.24-3.276zm0 5.712c-1.344 0-2.316-1.032-2.316-2.436 0-1.416.972-2.436 2.316-2.436 1.344 0 2.316 1.02 2.316 2.436 0 1.404-.972 2.436-2.316 2.436zm9.476-1.152c-.012-1.344-1.44-1.596-2.556-1.788-1.104-.18-1.608-.36-1.608-.9 0-.6.636-1.032 1.416-1.032.984 0 1.704.504 1.716 1.2l.9.012c-.012-1.188-1.104-2.052-2.604-2.052-1.308 0-2.316.78-2.316 1.848-.012 1.368 1.056 1.56 2.436 1.776.66.096 1.716.264 1.728 1.02 0 .612-.684 1.068-1.62 1.068-1.032 0-1.776-.6-1.776-1.44h-.9c0 1.308 1.128 2.268 2.688 2.268 1.44 0 2.496-.84 2.496-1.98zm1.98-1.788c.168-1.14 1.044-1.932 2.22-1.932 1.2 0 2.088.792 2.256 1.944l-4.476-.012zm-.96.432c0 1.932 1.356 3.336 3.228 3.336 1.344 0 2.592-.864 2.964-2.052l-.9-.144c-.276.792-1.164 1.368-2.1 1.368-1.2 0-2.112-.876-2.256-2.148l5.448.012c.012-.132.012-.252.012-.36 0-1.86-1.332-3.216-3.18-3.216-1.872 0-3.216 1.356-3.216 3.204zm14.056 2.508c-1.344 0-2.316-1.032-2.316-2.436 0-1.416.972-2.436 2.316-2.436 1.332 0 2.316 1.02 2.316 2.436 0 1.404-.984 2.436-2.316 2.436zm2.328-4.392c-.516-.816-1.392-1.32-2.436-1.32-1.812 0-3.12 1.38-3.12 3.276 0 1.884 1.308 3.264 3.12 3.264 1.044 0 1.92-.504 2.436-1.308V246h.912v-6.06h-.912v1.08zm4.116-2.244c0-.624.36-.996.888-.996.252 0 .48.048.684.108v-.792a2.74 2.74 0 00-.912-.156c-.936 0-1.572.684-1.584 1.74v1.26h-.984v.756h.984V246h.924v-5.304h1.548v-.756h-1.548v-1.164zm3.263 5.724c0 1.044.624 1.74 1.62 1.74.3 0 .684-.06.96-.144v-.756c-.228.072-.54.12-.732.12-.576-.012-.936-.408-.936-.996v-3.768h1.572v-.756h-1.572v-1.416h-.744l-.132 1.416h-1.032v.756h.996v3.804zm4.52-2.028c.168-1.14 1.044-1.932 2.22-1.932 1.2 0 2.088.792 2.256 1.944l-4.476-.012zm-.96.432c0 1.932 1.356 3.336 3.228 3.336 1.344 0 2.592-.864 2.964-2.052l-.9-.144c-.276.792-1.164 1.368-2.1 1.368-1.2 0-2.112-.876-2.256-2.148l5.448.012c.012-.132.012-.252.012-.36 0-1.86-1.332-3.216-3.18-3.216-1.872 0-3.216 1.356-3.216 3.204zm7.713-2.964V246h.912v-3.396c0-1.212.624-2.064 1.572-2.064.24 0 .588.048.9.192v-.84a2.307 2.307 0 00-.816-.168c-.744 0-1.32.396-1.68 1.056v-.84h-.888zm9.494 6.06h1.008v-8.46h-.804l-2.244 1.716v1.188l2.04-1.572V246zm6.462.3c2.148 0 3.6-1.908 3.6-4.524 0-2.628-1.452-4.536-3.6-4.536-2.136 0-3.588 1.908-3.588 4.536 0 2.616 1.452 4.524 3.588 4.524zm0-8.172c1.56 0 2.604 1.536 2.604 3.648 0 2.1-1.044 3.636-2.604 3.636s-2.592-1.536-2.592-3.636c0-2.112 1.032-3.648 2.592-3.648zm5.678 6.372c0 1.044.624 1.74 1.62 1.74.3 0 .684-.06.96-.144v-.756c-.228.072-.54.12-.732.12-.576-.012-.936-.408-.936-.996v-3.768h1.572v-.756h-1.572v-1.416h-.744l-.132 1.416H259.7v.756h.996v3.804zm3.897-7.32V246h.912v-3.54c0-1.116.9-1.92 1.944-1.92 1.08 0 1.716.768 1.716 1.836V246h.912v-3.624c0-1.548-.972-2.676-2.508-2.676-.84 0-1.656.42-2.064 1.104v-3.624h-.912zm9.617 8.976c.36 0 .624-.252.624-.624 0-.36-.264-.612-.624-.612-.372 0-.624.264-.624.612 0 .372.252.624.624.624zm.468-2.304c0-.984.276-1.392.972-1.86.84-.552 1.512-1.032 1.512-2.184 0-1.476-1.224-2.568-2.796-2.568-1.608 0-2.772 1.14-2.964 2.724l.936.18c.132-1.164.9-2.016 2.016-2.016 1.02 0 1.8.732 1.8 1.692 0 .768-.552 1.164-1.152 1.572-.792.552-1.248 1.116-1.248 2.46h.924zM14.344 267c.432 0 .744-.3.744-.72s-.312-.72-.744-.72-.732.3-.732.72.3.72.732.72zm9.675 2.412c-1.968 0-3.384-1.524-3.396-3.636 0-2.124 1.416-3.648 3.396-3.648 1.44 0 2.7.996 3.012 2.316l.984-.12c-.408-1.776-2.088-3.084-3.996-3.084-2.544 0-4.392 1.908-4.392 4.536 0 2.628 1.848 4.524 4.392 4.524 1.908 0 3.576-1.248 3.996-2.94l-.972-.18c-.336 1.284-1.596 2.232-3.024 2.232zm8.32-5.712c-1.896 0-3.229 1.356-3.229 3.276 0 1.908 1.332 3.264 3.229 3.264 1.895 0 3.24-1.356 3.24-3.264 0-1.92-1.345-3.276-3.24-3.276zm0 5.712c-1.345 0-2.316-1.032-2.316-2.436 0-1.416.971-2.436 2.316-2.436 1.343 0 2.316 1.02 2.316 2.436 0 1.404-.973 2.436-2.316 2.436zm4.544-5.472V270h.911v-3.54c0-1.116.925-1.92 1.98-1.92 1.069 0 1.68.768 1.68 1.836V270h.913v-3.624c0-1.548-.948-2.676-2.496-2.676-.84 0-1.657.42-2.077 1.092v-.852h-.911zm8.573-1.164c0-.624.36-.996.888-.996.252 0 .48.048.684.108v-.792a2.74 2.74 0 00-.912-.156c-.936 0-1.572.684-1.584 1.74v1.26h-.984v.756h.984V270h.924v-5.304h1.548v-.756h-1.548v-1.164zM53.567 270v-6.06h-.912v3.552c0 1.104-.912 1.92-1.968 1.92-1.08 0-1.692-.78-1.692-1.848v-3.624h-.912v3.624c0 1.548.948 2.676 2.496 2.676.84 0 1.668-.42 2.076-1.092V270h.912zm6.594-1.74c-.012-1.344-1.44-1.596-2.556-1.788-1.104-.18-1.608-.36-1.608-.9 0-.6.636-1.032 1.416-1.032.984 0 1.704.504 1.716 1.2l.9.012c-.012-1.188-1.104-2.052-2.604-2.052-1.308 0-2.316.78-2.316 1.848-.012 1.368 1.056 1.56 2.436 1.776.66.096 1.716.264 1.728 1.02 0 .612-.684 1.068-1.62 1.068-1.032 0-1.776-.6-1.776-1.44h-.9c0 1.308 1.128 2.268 2.688 2.268 1.44 0 2.496-.84 2.496-1.98zm1.98-1.788c.167-1.14 1.043-1.932 2.22-1.932 1.2 0 2.087.792 2.255 1.944l-4.476-.012zm-.96.432c0 1.932 1.355 3.336 3.227 3.336 1.344 0 2.592-.864 2.964-2.052l-.9-.144c-.276.792-1.164 1.368-2.1 1.368-1.2 0-2.112-.876-2.256-2.148l5.448.012c.012-.132.012-.252.012-.36 0-1.86-1.332-3.216-3.18-3.216-1.872 0-3.216 1.356-3.216 3.204zm10.605-2.316c1.343 0 2.316 1.008 2.316 2.388 0 1.368-.973 2.376-2.317 2.376-1.331 0-2.316-.984-2.316-2.376 0-1.38.973-2.388 2.317-2.388zm-3.228 2.388c0 1.884 1.32 3.264 3.131 3.264 1.033 0 1.897-.492 2.413-1.284V270h.888v-8.82h-.912v3.78c-.517-.78-1.368-1.26-2.389-1.26-1.811 0-3.131 1.38-3.131 3.276zm14.431 2.436c-1.344 0-2.316-1.032-2.316-2.436 0-1.416.972-2.436 2.316-2.436 1.332 0 2.316 1.02 2.316 2.436 0 1.404-.984 2.436-2.316 2.436zm2.328-4.392c-.516-.816-1.392-1.32-2.436-1.32-1.812 0-3.12 1.38-3.12 3.276 0 1.884 1.308 3.264 3.12 3.264 1.044 0 1.92-.504 2.436-1.308V270h.912v-6.06h-.912v1.08zm5.771-.432c1.344 0 2.316 1.008 2.316 2.388 0 1.392-.984 2.376-2.316 2.376-1.344 0-2.316-1.008-2.316-2.376 0-1.38.972-2.388 2.316-2.388zm3.228 2.388c0-1.896-1.308-3.276-3.12-3.276-1.032 0-1.884.48-2.4 1.26v-3.78h-.912V270h.888v-1.044c.516.792 1.38 1.284 2.424 1.284 1.8 0 3.12-1.38 3.12-3.264zm4.2-3.276c-1.895 0-3.227 1.356-3.227 3.276 0 1.908 1.332 3.264 3.228 3.264 1.896 0 3.24-1.356 3.24-3.264 0-1.92-1.344-3.276-3.24-3.276zm0 5.712c-1.343 0-2.315-1.032-2.315-2.436 0-1.416.972-2.436 2.316-2.436 1.344 0 2.316 1.02 2.316 2.436 0 1.404-.972 2.436-2.316 2.436zm9.909.588v-6.06h-.912v3.552c0 1.104-.912 1.92-1.968 1.92-1.08 0-1.692-.78-1.692-1.848v-3.624h-.912v3.624c0 1.548.948 2.676 2.496 2.676.84 0 1.668-.42 2.076-1.092V270h.912zm2.177-1.5c0 1.044.624 1.74 1.62 1.74.3 0 .684-.06.96-.144v-.756c-.228.072-.54.12-.732.12-.576-.012-.936-.408-.936-.996v-3.768h1.572v-.756h-1.572v-1.416h-.744l-.132 1.416h-1.032v.756h.996v3.804zm7.864 0c0 1.044.624 1.74 1.62 1.74.3 0 .684-.06.96-.144v-.756c-.228.072-.54.12-.732.12-.576-.012-.936-.408-.936-.996v-3.768h1.572v-.756h-1.572v-1.416h-.744l-.132 1.416h-1.032v.756h.996v3.804zm3.896-7.32V270h.912v-3.54c0-1.116.9-1.92 1.944-1.92 1.08 0 1.716.768 1.716 1.836V270h.912v-3.624c0-1.548-.972-2.676-2.508-2.676-.84 0-1.656.42-2.064 1.104v-3.624h-.912zm7.65 5.292c.168-1.14 1.044-1.932 2.22-1.932 1.2 0 2.088.792 2.256 1.944l-4.476-.012zm-.96.432c0 1.932 1.356 3.336 3.228 3.336 1.344 0 2.592-.864 2.964-2.052l-.9-.144c-.276.792-1.164 1.368-2.1 1.368-1.2 0-2.112-.876-2.256-2.148l5.448.012c.012-.132.012-.252.012-.36 0-1.86-1.332-3.216-3.18-3.216-1.872 0-3.216 1.356-3.216 3.204zm11.165-2.964V270h.912v-3.396c0-1.212.624-2.064 1.572-2.064.24 0 .588.048.9.192v-.84a2.307 2.307 0 00-.816-.168c-.744 0-1.32.396-1.68 1.056v-.84h-.888zm4.626 0V270h.912v-6.06h-.912zm.456-1.116c.36 0 .624-.264.624-.624s-.264-.612-.624-.612c-.372 0-.624.252-.624.612s.252.624.624.624zm5.146 6.516c-1.332 0-2.316-.996-2.316-2.364 0-1.416.972-2.436 2.316-2.436 1.344 0 2.316 1.02 2.316 2.436 0 1.368-.972 2.364-2.316 2.364zm.06 2.832c-1.056 0-1.98-.696-2.184-1.668l-.876.12c.216 1.38 1.524 2.376 3.096 2.376 1.8 0 3.108-1.152 3.108-3.096v-5.964h-.912v1.008c-.516-.756-1.344-1.224-2.388-1.224-1.812 0-3.132 1.368-3.132 3.252 0 1.848 1.32 3.192 3.132 3.192 1.02 0 1.86-.456 2.388-1.224v.96c0 1.428-.936 2.268-2.232 2.268zm4.8-10.992V270h.912v-3.54c0-1.116.9-1.92 1.944-1.92 1.08 0 1.716.768 1.716 1.836V270h.912v-3.624c0-1.548-.972-2.676-2.508-2.676-.84 0-1.656.42-2.064 1.104v-3.624h-.912zm7.542 7.32c0 1.044.624 1.74 1.62 1.74.3 0 .684-.06.96-.144v-.756c-.228.072-.54.12-.732.12-.576-.012-.936-.408-.936-.996v-3.768h1.572v-.756h-1.572v-1.416h-.744l-.132 1.416h-1.032v.756h.996v3.804zm10.168-4.8c-1.824 0-3.156 1.38-3.156 3.276s1.32 3.264 3.156 3.264c1.428 0 2.664-.912 2.94-2.184l-.9-.12c-.24.864-1.056 1.5-2.04 1.5-1.284 0-2.244-1.032-2.244-2.46s.972-2.472 2.244-2.472c.96 0 1.812.648 2.04 1.536l.888-.12c-.228-1.284-1.464-2.22-2.928-2.22zm7.156 5.712c-1.344 0-2.316-1.032-2.316-2.436 0-1.416.972-2.436 2.316-2.436 1.332 0 2.316 1.02 2.316 2.436 0 1.404-.984 2.436-2.316 2.436zm2.328-4.392c-.516-.816-1.392-1.32-2.436-1.32-1.812 0-3.12 1.38-3.12 3.276 0 1.884 1.308 3.264 3.12 3.264 1.044 0 1.92-.504 2.436-1.308V270h.912v-6.06h-.912v1.08zm2.567-1.08V270h.912v-3.396c0-1.212.624-2.064 1.572-2.064.24 0 .588.048.9.192v-.84a2.307 2.307 0 00-.816-.168c-.744 0-1.32.396-1.68 1.056v-.84h-.888zm4.744 2.532c.168-1.14 1.044-1.932 2.22-1.932 1.2 0 2.088.792 2.256 1.944l-4.476-.012zm-.96.432c0 1.932 1.356 3.336 3.228 3.336 1.344 0 2.592-.864 2.964-2.052l-.9-.144c-.276.792-1.164 1.368-2.1 1.368-1.2 0-2.112-.876-2.256-2.148l5.448.012c.012-.132.012-.252.012-.36 0-1.86-1.332-3.216-3.18-3.216-1.872 0-3.216 1.356-3.216 3.204zm8.337-.432c.168-1.14 1.044-1.932 2.22-1.932 1.2 0 2.088.792 2.256 1.944l-4.476-.012zm-.96.432c0 1.932 1.356 3.336 3.228 3.336 1.344 0 2.592-.864 2.964-2.052l-.9-.144c-.276.792-1.164 1.368-2.1 1.368-1.2 0-2.112-.876-2.256-2.148l5.448.012c.012-.132.012-.252.012-.36 0-1.86-1.332-3.216-3.18-3.216-1.872 0-3.216 1.356-3.216 3.204zm7.713-2.964V270h.912v-3.396c0-1.212.624-2.064 1.572-2.064.24 0 .588.048.9.192v-.84a2.307 2.307 0 00-.816-.168c-.744 0-1.32.396-1.68 1.056v-.84h-.888zm9.482-1.164c0-.624.36-.996.888-.996.252 0 .48.048.684.108v-.792a2.74 2.74 0 00-.912-.156c-.936 0-1.572.684-1.584 1.74v1.26h-.984v.756h.984V270h.924v-5.304h1.548v-.756h-1.548v-1.164zm5.627.924c-1.896 0-3.228 1.356-3.228 3.276 0 1.908 1.332 3.264 3.228 3.264 1.896 0 3.24-1.356 3.24-3.264 0-1.92-1.344-3.276-3.24-3.276zm0 5.712c-1.344 0-2.316-1.032-2.316-2.436 0-1.416.972-2.436 2.316-2.436 1.344 0 2.316 1.02 2.316 2.436 0 1.404-.972 2.436-2.316 2.436zm4.544-5.472V270h.912v-3.396c0-1.212.624-2.064 1.572-2.064.24 0 .588.048.9.192v-.84a2.307 2.307 0 00-.816-.168c-.744 0-1.32.396-1.68 1.056v-.84h-.888zm7.754 8.556c.276.108.636.18.936.18 1.272 0 1.764-1.212 2.316-2.592l2.412-6.144h-.972l-1.896 4.92-2.16-4.92h-1.008l2.724 6.048c-.396.912-.66 1.872-1.548 1.872-.228 0-.528-.072-.804-.168v.804zm9.348-8.796c-1.896 0-3.228 1.356-3.228 3.276 0 1.908 1.332 3.264 3.228 3.264 1.896 0 3.24-1.356 3.24-3.264 0-1.92-1.344-3.276-3.24-3.276zm0 5.712c-1.344 0-2.316-1.032-2.316-2.436 0-1.416.972-2.436 2.316-2.436 1.344 0 2.316 1.02 2.316 2.436 0 1.404-.972 2.436-2.316 2.436zm9.908.588v-6.06h-.912v3.552c0 1.104-.912 1.92-1.968 1.92-1.08 0-1.692-.78-1.692-1.848v-3.624h-.912v3.624c0 1.548.948 2.676 2.496 2.676.84 0 1.668-.42 2.076-1.092V270h.912zm1.661-6.06V270h.912v-3.396c0-1.212.624-2.064 1.572-2.064.24 0 .588.048.9.192v-.84a2.307 2.307 0 00-.816-.168c-.744 0-1.32.396-1.68 1.056v-.84h-.888zm9.415 4.32c-.012-1.344-1.44-1.596-2.556-1.788-1.104-.18-1.608-.36-1.608-.9 0-.6.636-1.032 1.416-1.032.984 0 1.704.504 1.716 1.2l.9.012c-.012-1.188-1.104-2.052-2.604-2.052-1.308 0-2.316.78-2.316 1.848-.012 1.368 1.056 1.56 2.436 1.776.66.096 1.716.264 1.728 1.02 0 .612-.684 1.068-1.62 1.068-1.032 0-1.776-.6-1.776-1.44h-.9c0 1.308 1.128 2.268 2.688 2.268 1.44 0 2.496-.84 2.496-1.98zm1.979-1.788c.168-1.14 1.044-1.932 2.22-1.932 1.2 0 2.088.792 2.256 1.944l-4.476-.012zm-.96.432c0 1.932 1.356 3.336 3.228 3.336 1.344 0 2.592-.864 2.964-2.052l-.9-.144c-.276.792-1.164 1.368-2.1 1.368-1.2 0-2.112-.876-2.256-2.148l5.448.012c.012-.132.012-.252.012-.36 0-1.86-1.332-3.216-3.18-3.216-1.872 0-3.216 1.356-3.216 3.204zm7.701-5.724V270h.924v-8.82h-.924zm4.121 1.596c0-.624.36-.996.888-.996.252 0 .48.048.684.108v-.792a2.74 2.74 0 00-.912-.156c-.936 0-1.572.684-1.584 1.74v1.26h-.984v.756h.984V270h.924v-5.304h1.548v-.756h-1.548v-1.164zm5.339 7.38c.36 0 .624-.252.624-.624 0-.36-.264-.612-.624-.612-.372 0-.624.264-.624.612 0 .372.252.624.624.624zm.468-2.304c0-.984.276-1.392.972-1.86.84-.552 1.512-1.032 1.512-2.184 0-1.476-1.224-2.568-2.796-2.568-1.608 0-2.772 1.14-2.964 2.724l.936.18c.132-1.164.9-2.016 2.016-2.016 1.02 0 1.8.732 1.8 1.692 0 .768-.552 1.164-1.152 1.572-.792.552-1.248 1.116-1.248 2.46h.924zM14.344 291c.432 0 .744-.3.744-.72s-.312-.72-.744-.72-.732.3-.732.72.3.72.732.72zm11.763-5.46h-1.464l-1.968 7.788-2.184-7.788h-1.044l2.412 8.46h1.62l1.872-7.416L27.235 294h1.608l2.4-8.46h-1.032l-2.184 7.788-1.92-7.788zm8.704 7.872c-1.344 0-2.316-1.032-2.316-2.436 0-1.416.972-2.436 2.316-2.436 1.332 0 2.316 1.02 2.316 2.436 0 1.404-.984 2.436-2.316 2.436zm2.328-4.392c-.516-.816-1.392-1.32-2.436-1.32-1.812 0-3.12 1.38-3.12 3.276 0 1.884 1.308 3.264 3.12 3.264 1.044 0 1.92-.504 2.436-1.308V294h.912v-6.06h-.912v1.08zm2.568-1.08V294h.912v-3.54c0-1.116.924-1.92 1.98-1.92 1.068 0 1.68.768 1.68 1.836V294h.912v-3.624c0-1.548-.948-2.676-2.496-2.676-.84 0-1.656.42-2.076 1.092v-.852h-.912zm7.541 4.56c0 1.044.624 1.74 1.62 1.74.3 0 .684-.06.96-.144v-.756c-.228.072-.54.12-.732.12-.576-.012-.936-.408-.936-.996v-3.768h1.572v-.756H48.16v-1.416h-.744l-.132 1.416h-1.032v.756h.996v3.804zm7.864 0c0 1.044.624 1.74 1.62 1.74.3 0 .684-.06.96-.144v-.756c-.228.072-.54.12-.732.12-.576-.012-.936-.408-.936-.996v-3.768h1.572v-.756h-1.572v-1.416h-.744l-.132 1.416h-1.032v.756h.996v3.804zm6.776-4.8c-1.895 0-3.227 1.356-3.227 3.276 0 1.908 1.331 3.264 3.227 3.264 1.897 0 3.24-1.356 3.24-3.264 0-1.92-1.343-3.276-3.24-3.276zm0 5.712c-1.343 0-2.316-1.032-2.316-2.436 0-1.416.972-2.436 2.316-2.436 1.345 0 2.316 1.02 2.316 2.436 0 1.404-.971 2.436-2.315 2.436zm7.996.588h.912v-2.868l2.76 2.868h1.236l-3.156-3.24 3.036-2.82h-1.236l-2.64 2.448v-5.208h-.912V294zm5.936-6.06V294h.912v-3.54c0-1.116.924-1.92 1.98-1.92 1.068 0 1.68.768 1.68 1.836V294h.912v-3.624c0-1.548-.948-2.676-2.496-2.676-.84 0-1.656.42-2.076 1.092v-.852h-.912zm9.905-.24c-1.896 0-3.228 1.356-3.228 3.276 0 1.908 1.332 3.264 3.228 3.264 1.896 0 3.24-1.356 3.24-3.264 0-1.92-1.344-3.276-3.24-3.276zm0 5.712c-1.344 0-2.316-1.032-2.316-2.436 0-1.416.972-2.436 2.316-2.436 1.344 0 2.316 1.02 2.316 2.436 0 1.404-.972 2.436-2.316 2.436zm7.412.588l1.452-4.992L96.041 294h1.248l2.064-6.06h-.96l-1.704 5.16-1.572-5.16H94.05l-1.524 5.16-1.728-5.16h-.96L91.89 294h1.248zm11.035-6.06V294h.912v-6.06h-.912zm.456-1.116c.36 0 .624-.264.624-.624s-.264-.612-.624-.612c-.372 0-.624.252-.624.612s.252.624.624.624zm3.801-.048c0-.624.36-.996.888-.996.252 0 .48.048.684.108v-.792a2.74 2.74 0 00-.912-.156c-.936 0-1.572.684-1.584 1.74v1.26h-.984v.756h.984V294h.924v-5.304h1.548v-.756h-1.548v-1.164zm6.019 9.72c.276.108.636.18.936.18 1.272 0 1.764-1.212 2.316-2.592l2.412-6.144h-.972l-1.896 4.92-2.16-4.92h-1.008l2.724 6.048c-.396.912-.66 1.872-1.548 1.872-.228 0-.528-.072-.804-.168v.804zm9.347-8.796c-1.896 0-3.228 1.356-3.228 3.276 0 1.908 1.332 3.264 3.228 3.264 1.896 0 3.24-1.356 3.24-3.264 0-1.92-1.344-3.276-3.24-3.276zm0 5.712c-1.344 0-2.316-1.032-2.316-2.436 0-1.416.972-2.436 2.316-2.436 1.344 0 2.316 1.02 2.316 2.436 0 1.404-.972 2.436-2.316 2.436zm9.908.588v-6.06h-.912v3.552c0 1.104-.912 1.92-1.968 1.92-1.08 0-1.692-.78-1.692-1.848v-3.624h-.912v3.624c0 1.548.948 2.676 2.496 2.676.84 0 1.668-.42 2.076-1.092V294h.912zm1.662-6.06V294h.912v-3.396c0-1.212.624-2.064 1.572-2.064.24 0 .588.048.9.192v-.84a2.307 2.307 0 00-.816-.168c-.744 0-1.32.396-1.68 1.056v-.84h-.888zm7.934-2.76V294h.912v-3.54c0-1.116.9-1.92 1.944-1.92 1.08 0 1.716.768 1.716 1.836V294h.912v-3.624c0-1.548-.972-2.676-2.508-2.676-.84 0-1.656.42-2.064 1.104v-3.624h-.912zm9.906 2.52c-1.896 0-3.228 1.356-3.228 3.276 0 1.908 1.332 3.264 3.228 3.264 1.896 0 3.24-1.356 3.24-3.264 0-1.92-1.344-3.276-3.24-3.276zm0 5.712c-1.344 0-2.316-1.032-2.316-2.436 0-1.416.972-2.436 2.316-2.436 1.344 0 2.316 1.02 2.316 2.436 0 1.404-.972 2.436-2.316 2.436zm7.748-4.824c1.344 0 2.316 1.008 2.316 2.388 0 1.392-.984 2.376-2.316 2.376-1.344 0-2.316-1.008-2.316-2.376 0-1.38.972-2.388 2.316-2.388zm3.228 2.388c0-1.896-1.308-3.276-3.12-3.276-1.032 0-1.884.48-2.4 1.26v-3.78h-.912V294h.888v-1.044c.516.792 1.38 1.284 2.424 1.284 1.8 0 3.12-1.38 3.12-3.264zm4.524-2.388c1.344 0 2.316 1.008 2.316 2.388 0 1.392-.984 2.376-2.316 2.376-1.344 0-2.316-1.008-2.316-2.376 0-1.38.972-2.388 2.316-2.388zm3.228 2.388c0-1.896-1.308-3.276-3.12-3.276-1.032 0-1.884.48-2.4 1.26v-3.78h-.912V294h.888v-1.044c.516.792 1.38 1.284 2.424 1.284 1.8 0 3.12-1.38 3.12-3.264zm1.464-3.036V294h.912v-6.06h-.912zm.456-1.116c.36 0 .624-.264.624-.624s-.264-.612-.624-.612c-.372 0-.624.252-.624.612s.252.624.624.624zm2.878 3.648c.168-1.14 1.044-1.932 2.22-1.932 1.2 0 2.088.792 2.256 1.944l-4.476-.012zm-.96.432c0 1.932 1.356 3.336 3.228 3.336 1.344 0 2.592-.864 2.964-2.052l-.9-.144c-.276.792-1.164 1.368-2.1 1.368-1.2 0-2.112-.876-2.256-2.148l5.448.012c.012-.132.012-.252.012-.36 0-1.86-1.332-3.216-3.18-3.216-1.872 0-3.216 1.356-3.216 3.204zm12.645 1.356c-.012-1.344-1.44-1.596-2.556-1.788-1.104-.18-1.608-.36-1.608-.9 0-.6.636-1.032 1.416-1.032.984 0 1.704.504 1.716 1.2l.9.012c-.012-1.188-1.104-2.052-2.604-2.052-1.308 0-2.316.78-2.316 1.848-.012 1.368 1.056 1.56 2.436 1.776.66.096 1.716.264 1.728 1.02 0 .612-.684 1.068-1.62 1.068-1.032 0-1.776-.6-1.776-1.44h-.9c0 1.308 1.128 2.268 2.688 2.268 1.44 0 2.496-.84 2.496-1.98zm7.627-4.56c-1.824 0-3.156 1.38-3.156 3.276s1.32 3.264 3.156 3.264c1.428 0 2.664-.912 2.94-2.184l-.9-.12c-.24.864-1.056 1.5-2.04 1.5-1.284 0-2.244-1.032-2.244-2.46s.972-2.472 2.244-2.472c.96 0 1.812.648 2.04 1.536l.888-.12c-.228-1.284-1.464-2.22-2.928-2.22zm7.156 5.712c-1.344 0-2.316-1.032-2.316-2.436 0-1.416.972-2.436 2.316-2.436 1.332 0 2.316 1.02 2.316 2.436 0 1.404-.984 2.436-2.316 2.436zm2.328-4.392c-.516-.816-1.392-1.32-2.436-1.32-1.812 0-3.12 1.38-3.12 3.276 0 1.884 1.308 3.264 3.12 3.264 1.044 0 1.92-.504 2.436-1.308V294h.912v-6.06h-.912v1.08zm2.567-1.08V294h.912v-3.54c0-1.116.924-1.92 1.98-1.92 1.068 0 1.68.768 1.68 1.836V294h.912v-3.624c0-1.548-.948-2.676-2.496-2.676-.84 0-1.656.42-2.076 1.092v-.852h-.912zm13.681.648c1.344 0 2.316 1.008 2.316 2.388 0 1.392-.984 2.376-2.316 2.376-1.344 0-2.316-1.008-2.316-2.376 0-1.38.972-2.388 2.316-2.388zm3.228 2.388c0-1.896-1.308-3.276-3.12-3.276-1.032 0-1.884.48-2.4 1.26v-3.78h-.912V294h.888v-1.044c.516.792 1.38 1.284 2.424 1.284 1.8 0 3.12-1.38 3.12-3.264zm1.945-.504c.168-1.14 1.044-1.932 2.22-1.932 1.2 0 2.088.792 2.256 1.944l-4.476-.012zm-.96.432c0 1.932 1.356 3.336 3.228 3.336 1.344 0 2.592-.864 2.964-2.052l-.9-.144c-.276.792-1.164 1.368-2.1 1.368-1.2 0-2.112-.876-2.256-2.148l5.448.012c.012-.132.012-.252.012-.36 0-1.86-1.332-3.216-3.18-3.216-1.872 0-3.216 1.356-3.216 3.204zm11.68 1.596c0 1.044.624 1.74 1.62 1.74.3 0 .684-.06.96-.144v-.756c-.228.072-.54.12-.732.12-.576-.012-.936-.408-.936-.996v-3.768h1.572v-.756h-1.572v-1.416h-.744l-.132 1.416h-1.032v.756h.996v3.804zm9.261 1.5v-6.06h-.912v3.552c0 1.104-.912 1.92-1.968 1.92-1.08 0-1.692-.78-1.692-1.848v-3.624h-.912v3.624c0 1.548.948 2.676 2.496 2.676.84 0 1.668-.42 2.076-1.092V294h.912zm1.661-6.06V294h.912v-3.396c0-1.212.624-2.064 1.572-2.064.24 0 .588.048.9.192v-.84a2.307 2.307 0 00-.816-.168c-.744 0-1.32.396-1.68 1.056v-.84h-.888zm4.483 0V294h.912v-3.54c0-1.116.924-1.92 1.98-1.92 1.068 0 1.68.768 1.68 1.836V294h.912v-3.624c0-1.548-.948-2.676-2.496-2.676-.84 0-1.656.42-2.076 1.092v-.852h-.912zm7.649 2.532c.168-1.14 1.044-1.932 2.22-1.932 1.2 0 2.088.792 2.256 1.944l-4.476-.012zm-.96.432c0 1.932 1.356 3.336 3.228 3.336 1.344 0 2.592-.864 2.964-2.052l-.9-.144c-.276.792-1.164 1.368-2.1 1.368-1.2 0-2.112-.876-2.256-2.148l5.448.012c.012-.132.012-.252.012-.36 0-1.86-1.332-3.216-3.18-3.216-1.872 0-3.216 1.356-3.216 3.204zm10.606-2.316c1.344 0 2.316 1.008 2.316 2.388 0 1.368-.972 2.376-2.316 2.376-1.332 0-2.316-.984-2.316-2.376 0-1.38.972-2.388 2.316-2.388zm-3.228 2.388c0 1.884 1.32 3.264 3.132 3.264 1.032 0 1.896-.492 2.412-1.284V294h.888v-8.82h-.912v3.78c-.516-.78-1.368-1.26-2.388-1.26-1.812 0-3.132 1.38-3.132 3.276zM14.092 311.94V318h.912v-6.06h-.912zm.456-1.116c.36 0 .624-.264.624-.624s-.264-.612-.624-.612c-.372 0-.624.252-.624.612s.252.624.624.624zm2.254 1.116V318h.912v-3.54c0-1.116.924-1.92 1.98-1.92 1.068 0 1.68.768 1.68 1.836V318h.912v-3.624c0-1.548-.948-2.676-2.496-2.676-.84 0-1.656.42-2.076 1.092v-.852h-.912zm7.541 4.56c0 1.044.624 1.74 1.62 1.74.3 0 .684-.06.96-.144v-.756c-.228.072-.54.12-.732.12-.576-.012-.936-.408-.936-.996v-3.768h1.572v-.756h-1.572v-1.416h-.744l-.132 1.416h-1.032v.756h.996v3.804zm6.777-4.8c-1.896 0-3.228 1.356-3.228 3.276 0 1.908 1.332 3.264 3.228 3.264 1.896 0 3.24-1.356 3.24-3.264 0-1.92-1.344-3.276-3.24-3.276zm0 5.712c-1.344 0-2.316-1.032-2.316-2.436 0-1.416.972-2.436 2.316-2.436 1.344 0 2.316 1.02 2.316 2.436 0 1.404-.972 2.436-2.316 2.436zm7.995-5.472V318h.912v-3.396c0-1.212.624-2.064 1.572-2.064.24 0 .588.048.9.192v-.84a2.307 2.307 0 00-.816-.168c-.744 0-1.32.396-1.68 1.056v-.84h-.888zm4.744 2.532c.168-1.14 1.044-1.932 2.22-1.932 1.2 0 2.088.792 2.256 1.944l-4.476-.012zm-.96.432c0 1.932 1.356 3.336 3.228 3.336 1.344 0 2.592-.864 2.964-2.052l-.9-.144c-.276.792-1.164 1.368-2.1 1.368-1.2 0-2.112-.876-2.256-2.148l5.448.012c.012-.132.012-.252.012-.36 0-1.86-1.332-3.216-3.18-3.216-1.872 0-3.216 1.356-3.216 3.204zM53.479 318l1.453-4.992L56.384 318h1.248l2.064-6.06h-.96l-1.704 5.16-1.572-5.16h-1.068l-1.524 5.16-1.728-5.16h-.96l2.052 6.06h1.248zm10.332-.588c-1.344 0-2.316-1.032-2.316-2.436 0-1.416.972-2.436 2.316-2.436 1.332 0 2.316 1.02 2.316 2.436 0 1.404-.984 2.436-2.316 2.436zm2.328-4.392c-.516-.816-1.392-1.32-2.436-1.32-1.812 0-3.12 1.38-3.12 3.276 0 1.884 1.308 3.264 3.12 3.264 1.044 0 1.92-.504 2.436-1.308V318h.912v-6.06h-.912v1.08zm2.567-1.08V318h.912v-3.396c0-1.212.624-2.064 1.572-2.064.24 0 .588.048.9.192v-.84a2.307 2.307 0 00-.816-.168c-.744 0-1.32.396-1.68 1.056v-.84h-.888zm7.011.648c1.344 0 2.316 1.008 2.316 2.388 0 1.368-.972 2.376-2.316 2.376-1.332 0-2.316-.984-2.316-2.376 0-1.38.972-2.388 2.316-2.388zm-3.228 2.388c0 1.884 1.32 3.264 3.132 3.264 1.032 0 1.896-.492 2.412-1.284V318h.888v-8.82h-.912v3.78c-.516-.78-1.368-1.26-2.388-1.26-1.812 0-3.132 1.38-3.132 3.276zm8.233-3.036V318h.912v-6.06h-.912zm.456-1.116c.36 0 .624-.264.624-.624s-.265-.612-.625-.612c-.372 0-.624.252-.624.612s.252.624.624.624zm2.253 1.116V318h.912v-3.54c0-1.116.924-1.92 1.98-1.92 1.068 0 1.68.768 1.68 1.836V318h.912v-3.624c0-1.548-.948-2.676-2.496-2.676-.84 0-1.656.42-2.076 1.092v-.852h-.912zm9.918 5.4c-1.332 0-2.316-.996-2.316-2.364 0-1.416.972-2.436 2.316-2.436 1.344 0 2.316 1.02 2.316 2.436 0 1.368-.972 2.364-2.316 2.364zm.06 2.832c-1.056 0-1.98-.696-2.184-1.668l-.876.12c.216 1.38 1.524 2.376 3.096 2.376 1.8 0 3.108-1.152 3.108-3.096v-5.964h-.912v1.008c-.516-.756-1.344-1.224-2.388-1.224-1.812 0-3.132 1.368-3.132 3.252 0 1.848 1.32 3.192 3.132 3.192 1.02 0 1.86-.456 2.388-1.224v.96c0 1.428-.936 2.268-2.232 2.268zm11.072-8.472c-1.824 0-3.156 1.38-3.156 3.276s1.32 3.264 3.156 3.264c1.428 0 2.664-.912 2.94-2.184l-.9-.12c-.24.864-1.056 1.5-2.04 1.5-1.284 0-2.244-1.032-2.244-2.46s.972-2.472 2.244-2.472c.96 0 1.812.648 2.04 1.536l.888-.12c-.228-1.284-1.464-2.22-2.928-2.22zm7.156 5.712c-1.344 0-2.316-1.032-2.316-2.436 0-1.416.972-2.436 2.316-2.436 1.332 0 2.316 1.02 2.316 2.436 0 1.404-.984 2.436-2.316 2.436zm2.328-4.392c-.516-.816-1.392-1.32-2.436-1.32-1.812 0-3.12 1.38-3.12 3.276 0 1.884 1.308 3.264 3.12 3.264 1.044 0 1.92-.504 2.436-1.308V318h.912v-6.06h-.912v1.08zm2.567-1.08V318h.912v-3.396c0-1.212.624-2.064 1.572-2.064.24 0 .588.048.9.192v-.84a2.307 2.307 0 00-.816-.168c-.744 0-1.32.396-1.68 1.056v-.84h-.888zm4.743 2.532c.168-1.14 1.044-1.932 2.22-1.932 1.2 0 2.088.792 2.256 1.944l-4.476-.012zm-.96.432c0 1.932 1.356 3.336 3.228 3.336 1.344 0 2.592-.864 2.964-2.052l-.9-.144c-.276.792-1.164 1.368-2.1 1.368-1.2 0-2.112-.876-2.256-2.148l5.448.012c.012-.132.012-.252.012-.36 0-1.86-1.332-3.216-3.18-3.216-1.872 0-3.216 1.356-3.216 3.204zm8.338-.432c.168-1.14 1.044-1.932 2.22-1.932 1.2 0 2.088.792 2.256 1.944l-4.476-.012zm-.96.432c0 1.932 1.356 3.336 3.228 3.336 1.344 0 2.592-.864 2.964-2.052l-.9-.144c-.276.792-1.164 1.368-2.1 1.368-1.2 0-2.112-.876-2.256-2.148l5.448.012c.012-.132.012-.252.012-.36 0-1.86-1.332-3.216-3.18-3.216-1.872 0-3.216 1.356-3.216 3.204zm7.713-2.964V318h.912v-3.396c0-1.212.624-2.064 1.572-2.064.24 0 .588.048.9.192v-.84a2.307 2.307 0 00-.816-.168c-.744 0-1.32.396-1.68 1.056v-.84h-.888zm9.414 4.32c-.012-1.344-1.44-1.596-2.556-1.788-1.104-.18-1.608-.36-1.608-.9 0-.6.636-1.032 1.416-1.032.984 0 1.704.504 1.716 1.2l.9.012c-.012-1.188-1.104-2.052-2.604-2.052-1.308 0-2.316.78-2.316 1.848-.012 1.368 1.056 1.56 2.436 1.776.66.096 1.716.264 1.728 1.02 0 .612-.684 1.068-1.62 1.068-1.032 0-1.776-.6-1.776-1.44h-.9c0 1.308 1.128 2.268 2.688 2.268 1.44 0 2.496-.84 2.496-1.98zm3.948 1.896c.36 0 .624-.252.624-.624 0-.36-.264-.612-.624-.612-.372 0-.624.264-.624.612 0 .372.252.624.624.624zm.468-2.304c0-.984.276-1.392.972-1.86.84-.552 1.512-1.032 1.512-2.184 0-1.476-1.224-2.568-2.796-2.568-1.608 0-2.772 1.14-2.964 2.724l.936.18c.132-1.164.9-2.016 2.016-2.016 1.02 0 1.8.732 1.8 1.692 0 .768-.552 1.164-1.152 1.572-.792.552-1.248 1.116-1.248 2.46h.924z" fill="#000"/><path d="M97.775 203.448c0-2.624-2.288-3.104-4.496-3.36-1.44-.192-2.576-.352-2.576-1.424 0-.832.832-1.424 2.096-1.424 1.376 0 2.384.8 2.368 1.92h2.336c0-2.288-2-3.952-4.768-3.952-2.752 0-4.656 1.536-4.656 3.76 0 2.656 2.176 3.136 4.432 3.424 1.408.176 2.64.336 2.64 1.408 0 .912-.816 1.568-2.128 1.568-1.536 0-2.64-.88-2.64-2.112h-2.416c0 2.4 2.08 4.144 4.976 4.144s4.832-1.616 4.832-3.952zm5.805-4.96c-2.592 0-4.464 1.856-4.464 4.416 0 2.56 1.888 4.416 4.464 4.416 2.112 0 3.904-1.36 4.208-3.248l-2.24-.288a2.008 2.008 0 01-1.952 1.52c-1.184 0-2.08-1.008-2.08-2.4s.912-2.4 2.08-2.4c.912 0 1.728.64 1.936 1.52l2.24-.288c-.256-1.888-2.048-3.248-4.192-3.248zm5.729-3.36V207h2.4v-4.608c0-1.04.768-1.792 1.696-1.792.96.016 1.536.704 1.536 1.696V207h2.4v-5.2c0-1.936-1.232-3.312-3.12-3.312-.992 0-1.968.448-2.512 1.248v-4.608h-2.4zm13.953 3.36c-2.688 0-4.544 1.792-4.544 4.416 0 2.608 1.856 4.416 4.544 4.416 2.704 0 4.56-1.808 4.56-4.416 0-2.624-1.856-4.416-4.56-4.416zm0 6.72c-1.248 0-2.128-.96-2.128-2.304 0-1.344.88-2.304 2.128-2.304 1.264 0 2.144.96 2.144 2.304 0 1.344-.88 2.304-2.144 2.304zm10.262-6.72c-2.688 0-4.544 1.792-4.544 4.416 0 2.608 1.856 4.416 4.544 4.416 2.704 0 4.56-1.808 4.56-4.416 0-2.624-1.856-4.416-4.56-4.416zm0 6.72c-1.248 0-2.128-.96-2.128-2.304 0-1.344.88-2.304 2.128-2.304 1.264 0 2.144.96 2.144 2.304 0 1.344-.88 2.304-2.144 2.304zm6.086-10.08V207h2.4v-11.872h-2.4zm18.623 8.32c0-2.624-2.288-3.104-4.496-3.36-1.44-.192-2.576-.352-2.576-1.424 0-.832.832-1.424 2.096-1.424 1.376 0 2.384.8 2.368 1.92h2.336c0-2.288-2-3.952-4.768-3.952-2.752 0-4.656 1.536-4.656 3.76 0 2.656 2.176 3.136 4.432 3.424 1.408.176 2.64.336 2.64 1.408 0 .912-.816 1.568-2.128 1.568-1.536 0-2.64-.88-2.64-2.112h-2.416c0 2.4 2.08 4.144 4.976 4.144s4.832-1.616 4.832-3.952zm2.021.896c0 1.744 1.056 2.976 2.688 2.976.512 0 1.152-.096 1.648-.256v-1.936c-.272.08-.624.128-.848.128-.672 0-1.088-.464-1.088-1.152v-3.472h1.856v-1.824h-1.856v-2.064h-2.016l-.272 2.064h-1.264v1.824h1.152v3.712zm13.76 2.656v-8.192h-2.4v4.608c0 1.04-.768 1.792-1.712 1.792s-1.52-.704-1.52-1.696v-4.704h-2.4v5.12c0 1.968 1.248 3.392 3.088 3.392a3.08 3.08 0 002.608-1.44V207h2.336zm6.097-6.352c1.248 0 2.144.96 2.144 2.256 0 1.296-.896 2.256-2.144 2.256-1.232 0-2.144-.944-2.144-2.256 0-1.296.896-2.256 2.144-2.256zm-4.544 2.256c0 2.592 1.616 4.416 3.888 4.416 1.152 0 2.096-.496 2.736-1.312V207h2.368v-11.872h-2.4v4.672c-.64-.832-1.584-1.312-2.704-1.312-2.272 0-3.888 1.824-3.888 4.416zm13.007-.768c.208-1.088.944-1.808 2-1.808 1.088 0 1.888.768 2.032 1.808h-4.032zm-2.464.704c0 2.64 1.856 4.48 4.496 4.48 2 0 3.728-1.168 4.128-2.768l-2.16-.304c-.256.72-1.008 1.232-1.904 1.232-1.088 0-1.872-.752-2.08-1.904l6.416.016c.032-.176.032-.512.032-.72 0-2.592-1.792-4.384-4.416-4.384-2.64 0-4.512 1.792-4.512 4.352zm10.474-4.032V207h2.4v-4.608c0-1.04.768-1.792 1.712-1.792s1.52.704 1.52 1.696V207h2.4v-5.12c0-1.968-1.248-3.392-3.088-3.392a3.103 3.103 0 00-2.608 1.424v-1.104h-2.336zm10.417 5.536c0 1.744 1.056 2.976 2.688 2.976.512 0 1.152-.096 1.648-.256v-1.936c-.272.08-.624.128-.848.128-.672 0-1.088-.464-1.088-1.152v-3.472h1.856v-1.824h-1.856v-2.064h-2.016l-.272 2.064h-1.264v1.824h1.152v3.712z" fill="#444"/><path d="M174.931 147.082c5.981 4.833 12.963 13.71 12.963 28.817h-76.22c0-15.107 6.982-23.984 12.963-28.817h50.294z" fill="#FFDB80"/><path fill-rule="evenodd" clip-rule="evenodd" d="M191.279 87.356c-.353 3.002-.778 6.102-1.419 8.776-.572 2.386-1.752 5.103-3.031 7.505a45.384 45.384 0 01-1.666 2.877l.041.177c.184.818.147 2.46-.312 4.528-.462 2.084-1.362 4.639-2.943 7.291-3.167 5.311-9.057 10.992-19.595 14.056-2.874.836-4.345 2.516-5.04 4.26-.704 1.765-.623 3.622-.333 4.782l-.76.19c-.322-1.287-.41-3.316.365-5.262.784-1.965 2.441-3.818 5.55-4.722 10.346-3.008 16.075-8.563 19.141-13.705 1.535-2.575 2.405-5.051 2.851-7.059.337-1.52.427-2.75.388-3.545a21.222 21.222 0 01-1.371 1.837l-.023.026-.027.022c-.123.102-.244.21-.373.325l-.03.026c-.137.123-.284.253-.439.377-.311.249-.672.485-1.124.625-.918.285-2.09.14-3.825-.765-.922-.48-1.47-1.127-1.701-1.865-.228-.729-.128-1.493.141-2.188.268-.696.714-1.348 1.22-1.876.504-.525 1.087-.95 1.648-1.17.989-.388 2.34-.815 3.611-.419 1.095.342 2.03 1.255 2.647 3.039a46.08 46.08 0 001.268-2.23c1.263-2.373 2.41-5.024 2.96-7.319.629-2.626 1.051-5.687 1.403-8.686.11-.93.212-1.856.313-2.76.222-2 .433-3.896.677-5.508l.774.117c-.241 1.596-.449 3.466-.67 5.458-.101.908-.205 1.84-.316 2.785zm-6.958 19.023c-.562-2.084-1.456-2.898-2.331-3.171-.987-.307-2.106.013-3.092.4-.427.168-.92.515-1.369.983-.446.467-.83 1.032-1.055 1.616-.225.583-.284 1.16-.124 1.673.158.504.544 1.001 1.316 1.404 1.651.861 2.596.908 3.23.711.324-.1.598-.273.869-.489.136-.109.267-.225.405-.349l.033-.028c.117-.106.241-.216.368-.322.501-.589 1.107-1.427 1.75-2.428zm-35.347 12.695c-2.996.218-5.729-.324-7.345-.898l.262-.738c1.522.541 4.146 1.065 7.026.855 2.876-.21 5.978-1.149 8.499-3.502l.534.572c-2.686 2.508-5.977 3.492-8.976 3.711zm2.126 2.905c-.878.066-1.68-.096-2.165-.273l.268-.735c.389.141 1.08.284 1.839.227.755-.056 1.55-.307 2.194-.922l.541.565c-.808.774-1.794 1.072-2.677 1.138zm-22.067-19.335c-.83.161-1.568.725-1.989 1.205l-.589-.515c.493-.564 1.374-1.254 2.429-1.458a3.037 3.037 0 011.704.146c.587.229 1.158.656 1.689 1.326l-.614.486c-.46-.582-.924-.912-1.359-1.082a2.259 2.259 0 00-1.271-.108zm38.111 0c-.831.161-1.569.725-1.989 1.205l-.59-.515c.493-.564 1.374-1.254 2.43-1.458a3.037 3.037 0 011.704.146c.587.229 1.158.656 1.689 1.326l-.614.486c-.461-.582-.924-.912-1.359-1.082a2.26 2.26 0 00-1.271-.108zm-20.949-16.281h.783v23.238c.263.303 1.252.889 3.48-.225l.35.7c-2.586 1.293-4.101.634-4.559-.153l-.054-.091V86.363zm-33.268 27.805c-4.152-9.922-4.151-20.379-2.878-27.095l.769.146c-1.25 6.597-1.25 16.893 2.832 26.646 4.074 9.737 12.22 18.949 27.305 23.416l-.222.751c-15.325-4.538-23.647-13.925-27.806-23.864z" fill="#666"/><path d="M107.171 77.618c-2.741-1.435-1.827-3.785 2.741-4.568 0-24.66 6.401-27.14 30.808-33.665 19.525-5.221 36.322 5.3 32.754 15.262 1.436-3.393 15.929 4.032 17.626 7.056 1.697 3.024 6.531 5.874 3.654 15.915-2.122 7.407-6.009 12.008-5.356 10.442.652-1.566 1.566-3.394-4.047-10.442-5.612-7.048-21.529-11.094-22.965 0-1.436 11.095-46.992 1.175-49.733 7.048-2.741 5.874-11.225-1.044-9.398 0 1.828 1.044 4.96-2.871 6.657-3.915s0-1.697-2.741-3.133z" fill="#F6C9F7"/><path d="M142.919 176.625l-8.124-29.003-.369-.754h-10.339l-2.216 2.26 8.124 27.497h12.924zm13.063 0l8.124-29.003.369-.754h10.34l2.215 2.26-8.123 27.497h-12.925z" fill="#FFEAB6"/></svg>