<svg width="537" height="415" fill="none" xmlns="http://www.w3.org/2000/svg"><path opacity=".75" d="M439.012 77.4C363.702 21.93 274.867 1.2 204.679.08 134.491-1.042 80.629 9.604 61.022 46.504c-19.608 36.9 9.444 58.592 20.808 68.918 11.365 10.405 36.254 44.504-26.81 85.406-75.07 48.747-71.629 142.318 0 189.304 64.025 41.943 138.294 23.053 178.63 0 40.256-23.053 88.755-39.222 144.538-6.964 55.782 32.338 123.489 10.406 144.137-41.783 22.329-56.351 34.894-176.897-83.313-263.984z" fill="#fff"/><ellipse cx="252.606" cy="337.054" rx="245.794" ry="14.208" fill="#EAEAEA"/><path d="M188.621 338.08l1.757-1.17c2.343.936 10.348.39 14.058 0l1.757-1.17c1.172-.78 5.155-1.638 11.715 1.17s.781 3.9-2.929 4.095h-25.772l-.586-2.925z" fill="#C70001"/><path d="M282.34 339.656l18.744-8.19v2.34l7.614-1.17h2.343v9.36h-7.029v-1.17h-2.928l-3.515 1.17H282.34v-2.34z" fill="#534E4D"/><path fill="#000" d="M282.34 202.765h21.087v129.871H282.34z"/><path d="M167.081 84.29l-6.33-11.905-8.439-1.831-10.55 42.122c1.641 1.831 6.611 5.311 13.363 4.578 8.44-.915 5.626-13.735 6.33-12.819.703.915-.704 2.747 5.626-11.904 5.064-4.396 2.11-7.326 0-8.242z" stroke="#000" stroke-width=".4"/><path d="M205.021 232.015l-20.501-5.85-38.073 5.85c7.966 27.144 45.688 8.775 38.073 20.475l2.929 78.391h15.815c.586-27.105 2.226-83.071 4.1-90.091 1.875-7.02-.781-8.775-2.343-8.775z" fill="#474A51"/><path d="M128.398 132.896c-14.488 6.583-23.682 24.688-26.468 32.918l9.055 55.843c3.714 3.331 15.184 10.816 31.343 14.108 16.16 3.292 37.381-2.939 45.971-6.466l-5.572-36.445h20.2c5.015 0 5.804-5.878 5.572-8.818-4.411-4.506-15.184-18.105-22.986-36.445-9.751-22.925-39.005-22.925-57.115-14.695z" fill="#FF9889"/><path d="M134.146 160.06h-7.029c.781 10.53 2.695 36.972 4.1 58.5 1.406 21.528 19.33 30.42 28.116 32.175l33.387 2.34v-7.02c-.781 0-7.497-.351-28.115-1.755s-26.554-20.475-26.944-29.835l-3.515-54.405z" fill="#C4C4C4"/><path d="M126.532 160.06h-50.96l2.343 60.255s2.343 22.815 33.973 32.175h82.004c-.781 0-8.435-.351-32.801-1.755-24.367-1.404-30.069-32.175-29.873-47.385l-2.343-43.29h-2.343z" fill="#424C55"/><path d="M110.131 101.574c4.217-32.293 24.406-39.586 33.973-39.196 22.492 0 17.963 16.38 12.886 24.57-4.295 7.41-10.309 25.273 0 37.441 10.309 12.168 10.153 25.35 8.786 30.42l-61.503-5.85c.196-2.34 1.641-15.093 5.858-47.385z" fill="#2A2678"/><path d="M224.351 313.331l-19.33-40.365v-30.421l30.459 64.936-11.129 5.85z" fill="#4B4B4B"/><path d="M347.497 303.901l-9.853-22.883-7.884 5.061 7.39 24.465 10.347-6.643z" stroke="#000" stroke-width=".3"/><path d="M138.246 267.115V251.32h19.915v15.795h-19.915z" fill="#494B47"/><path d="M142.932 327.956l-3.514-60.84h16.401l-4.1 60.84h-8.787z" fill="#C4C4C4"/><path d="M190.964 338.486l-1.171-7.02v-1.17h9.958v6.435h6.443v1.755h-15.23zm39.037-19.429l-4.314-5.665-.546-1.035 8.808-4.637 3.005 5.693 5.7-3.001.819 1.553-13.472 7.092z" stroke="#000" stroke-width=".4"/><path d="M434.632 154.794h-7.659v51.847c-7.07 26.777-22.977 33.804-28.28 34.754l-64.808 2.279 1.767 4.558c18.264.379 58.563.341 73.646-2.849 15.083-3.191 23.174-29.816 25.334-42.731v-47.858z" fill="#C4C4C4"/><path d="M227.489 319.95l1.142-1.774c2.522-.079 9.64-3.779 12.883-5.619l1.142-1.775c.761-1.183 4.067-3.561 11.204-3.61 7.138-.048 2.279 3.262-1.043 4.924l-23.619 10.301-1.709-2.447z" fill="#C70001"/><path fill="#000" d="M182.764 193.405h139.407v10.53H182.764z"/><path d="M429.945 154.795h-21.086l-22.844-2.34-31.63 81.9c4.686 2.535 26.71 13.105 46.859 7.02 20.15-6.084 26.358-27.495 26.944-37.44l1.757-49.14z" fill="#666"/><path d="M177.8 333.221c0 3.231-13.374 5.85-29.872 5.85-16.499 0-29.873-2.619-29.873-5.85 0-3.231 13.374-11.115 29.873-11.115 16.498 0 29.872 7.884 29.872 11.115z" fill="#333"/><path d="M364.344 263.606v-15.795h19.915v15.795h-19.915z" fill="#494B47"/><path d="M369.028 324.446l-3.514-60.841h16.4l-4.1 60.841h-8.786z" fill="#C4C4C4"/><path d="M403.896 329.711c0 3.231-13.374 5.85-29.873 5.85-16.498 0-29.873-2.619-29.873-5.85 0-3.231 13.375-11.115 29.873-11.115 16.499 0 29.873 7.884 29.873 11.115z" fill="#333"/><path d="M311.625 229.09l-10.543 79.561h16.401l20.501-57.915c-.195-2.926 6.912-8.542 36.901-7.606 29.99.936 30.85-17.16 27.53-26.325h-27.53l-63.26 4.68v7.605z" fill="#454545"/><path d="M281.167 186.444v2.34l-2.343 4.095h68.532v26.325h11.129l30.459-22.23v-29.25l4.1 29.25-31.63 22.23c-4.1 3.315 8.786 9.945 8.786 9.945 16.869 0 37.878-21.45 46.274-32.175l-5.858-47.971c0-9.945-14.643-15.795-14.643-15.795s-18.744 2.34-21.673 0c-2.343-1.872-6.443.78-8.2 2.34l-28.116 43.291-56.817 7.605z" fill="#AEFFE2"/><path d="M303.244 225.083l25.773 63.181 13.472-3.51c-1.562-7.215-4.568-23.167-4.1-29.251.469-6.084-4.491-15.795-7.029-19.89l32.216-16.965-3.514-2.925c-9.177.39-31.045.936-45.103 0s-13.667 5.85-11.715 9.36z" fill="#4C4C4C"/><path d="M381.528 105.948c0-1.372-.099-2.431-.243-3.234l-5.028 10.394c.586-6.24.469-12.535 0-14.407-.585-2.34-7.614-1.17-13.472-1.17-4.687 0-5.468-7.02-5.273-10.53-.976-4.68 1.172-13.806 17.573-12.87 20.501 1.17 25.772 15.795 28.115 18.72 2.343 2.925 0 11.115 0 16.965 0 4.68 1.427 7.8-2.674 9.945-1.757 0-2.493.7-4.363 0-2.806-1.05-3.118-1.361-3.118-1.361s-1.558-2.179-2.181-2.802c-2.016-2.013-4.053.623-7.17.623-2.166.618-2.166-1.526-2.166-3.081v-7.192z" fill="#000"/><path d="M361.921 100.755v-3.73l18.327-12.431 4.009 31.078-6.873 8.702-12.6-4.351c-.954-.829-2.863-2.859-2.863-4.351V110.7l-3.437-2.487c1.146-1.45 3.437-4.972 3.437-7.458z" stroke="#000" stroke-width=".3"/><path d="M387.745 134.277l.624-21.169-3.429 1.556-14.338 19.302 17.143.311zm-76.706 198.944l4.1-24.57h-9.372l-7.029 24.57h12.301z" stroke="#000" stroke-width=".3"/><path d="M325.104 320.156l12.906-15.855 1.073 2.08 6.232-4.523 2.083-1.072 4.293 8.321-6.249 3.215-.536-1.04-2.604 1.34-2.587 2.647-13.538 6.967-1.073-2.08z" fill="#534E4D"/><path d="M199.463 148.222l20.787 39.393a2 2 0 001.841 1.065l44.343-1.601a2 2 0 001.74-2.845l-18.656-39.927a2 2 0 00-1.903-1.151l-46.475 2.134a2 2 0 00-1.677 2.932z" stroke="#000"/><path d="M210.291 153.04l15.229 29.835h12.301l-14.058-30.42-13.472.585z" fill="#C4C4C4"/><path d="M220.25 193.405v-2.925l6.635-2.34 54.282-1.755-1.809 7.02H220.25z" fill="#666"/><path d="M71.263 244.881c-5.576-8.352.29-14.947 9.937-27.608 10.896-14.302 1.364-11.096-11.82-7.147-25.135 7.528 16.818-27.986 11.686-40.987-5.131-13.001-21.66 8.466-11.686-22.828 9.973-31.295 3.196-39.456-5.768-41.268-8.962-1.814-3.752 42.175-12.44 28.285-8.686-13.891-28.093-7.425-10.51 20.146s10.51 55.824 4.213 46.289c-.693-1.051-11.381-39.02-25.004-25.003-13.622 14.017 15.256 38.757 27.01 69.681 11.755 30.924 8.141 29.558 5.151 27.785-2.989-1.774-18.434-42.116-26.682-20.662-5.479 14.25 6.356 11.302 25.187 58.357 0 0 .585 59.522 13.075-2.668.525-2.616 1.037-5.114 1.535-7.508 12.767-32.816 17.163-39.83 23.794-57.657 6.019-16.181-7.501-10.384-17.678 2.793z" fill="#D5DDFA"/><path d="M41.584 300.428s-10.567 41.853 14.812 42.153c0 0 24.002 5.073 19.522-40.893l-34.335-1.26z" fill="#A7B6F6"/></svg>