<svg width="304" height="362" fill="none" xmlns="http://www.w3.org/2000/svg"><rect width="304" height="362" rx="24" fill="#fff"/><path d="M79.63 195.608h-2.976l-2.288 9.184-2.432-9.184h-2.736L72.302 207h3.888l1.936-8.048L80.062 207h3.872l3.104-11.392h-2.736l-2.4 9.184-2.272-9.184zm12.174 2.88c-2.688 0-4.544 1.792-4.544 4.416 0 2.608 1.856 4.416 4.544 4.416 2.704 0 4.56-1.808 4.56-4.416 0-2.624-1.856-4.416-4.56-4.416zm0 6.72c-1.248 0-2.128-.96-2.128-2.304 0-1.344.88-2.304 2.128-2.304 1.264 0 2.144.96 2.144 2.304 0 1.344-.88 2.304-2.144 2.304zm6.102-6.4V207h2.4v-4.352c0-1.232.688-2.096 1.728-2.096.352 0 .896.096 1.344.288v-2.128a2.674 2.674 0 00-.976-.208c-.896 0-1.712.528-2.192 1.344v-1.04h-2.304zm6.699 8.192h2.4v-3.52l2.864 3.52h2.928l-3.664-4.352 3.552-3.84h-2.912l-2.768 3.024v-6.704h-2.4V207zm9.454-8.192V207h2.4v-8.192h-2.4zm1.2-1.088c.816 0 1.392-.56 1.392-1.36 0-.784-.576-1.344-1.392-1.344s-1.392.56-1.392 1.344c0 .8.576 1.36 1.392 1.36zm3.308 1.088V207h2.4v-4.608c0-1.04.768-1.792 1.712-1.792s1.52.704 1.52 1.696V207h2.4v-5.12c0-1.968-1.248-3.392-3.088-3.392a3.103 3.103 0 00-2.608 1.424v-1.104h-2.336zm13.969 6.336c-1.248 0-2.144-.944-2.144-2.24 0-1.328.896-2.304 2.144-2.304 1.248 0 2.144.976 2.144 2.304 0 1.296-.896 2.24-2.144 2.24zm-.032 3.952c-.976 0-1.84-.672-2.048-1.6l-2.144.24c.24 1.888 2.048 3.264 4.288 3.264 2.592 0 4.384-1.552 4.384-4.096v-8.096h-2.4v.976c-.624-.8-1.552-1.28-2.704-1.28-2.256 0-3.888 1.824-3.888 4.4 0 2.48 1.632 4.208 3.888 4.208 1.136 0 2.064-.464 2.704-1.248v.976c0 1.424-.864 2.256-2.08 2.256zm15.801-11.456c1.472 0 2.496.832 2.496 2.032 0 1.184-1.024 2.032-2.496 2.032h-1.824v-4.064h1.824zm.48 6.096c2.784 0 4.704-1.664 4.704-4.064 0-2.384-1.92-4.064-4.672-4.064h-4.928V207h2.592v-3.264h2.304zm6.188-4.928V207h2.4v-4.352c0-1.232.688-2.096 1.728-2.096.352 0 .896.096 1.344.288v-2.128a2.674 2.674 0 00-.976-.208c-.896 0-1.712.528-2.192 1.344v-1.04h-2.304zm10.86-.32c-2.688 0-4.544 1.792-4.544 4.416 0 2.608 1.856 4.416 4.544 4.416 2.704 0 4.56-1.808 4.56-4.416 0-2.624-1.856-4.416-4.56-4.416zm0 6.72c-1.248 0-2.128-.96-2.128-2.304 0-1.344.88-2.304 2.128-2.304 1.264 0 2.144.96 2.144 2.304 0 1.344-.88 2.304-2.144 2.304zm8.973-7.28c0-.592.416-1.008 1.04-1.008.272 0 .544.048.8.112v-1.968a5.158 5.158 0 00-1.6-.256c-1.584 0-2.64 1.184-2.64 2.976v1.024h-1.152v1.824h1.152V207h2.4v-6.368h1.84v-1.824h-1.84v-.88zm5.018 4.208c.208-1.088.944-1.808 2-1.808 1.088 0 1.888.768 2.032 1.808h-4.032zm-2.464.704c0 2.64 1.856 4.48 4.496 4.48 2 0 3.728-1.168 4.128-2.768l-2.16-.304c-.256.72-1.008 1.232-1.904 1.232-1.088 0-1.872-.752-2.08-1.904l6.416.016c.032-.176.032-.512.032-.72 0-2.592-1.792-4.384-4.416-4.384-2.64 0-4.512 1.792-4.512 4.352zm17.849 1.568c0-1.92-2.096-2.256-3.76-2.48-.928-.144-1.648-.304-1.648-.848.016-.544.608-.928 1.344-.928.96 0 1.68.464 1.68 1.136h2.112c0-1.648-1.584-2.832-3.776-2.832-2 0-3.52 1.152-3.52 2.752 0 2 1.52 2.288 3.344 2.512.992.096 1.92.288 1.92.976 0 .544-.64.96-1.52.96-1.04 0-1.792-.576-1.792-1.392h-2.032c-.016 1.792 1.584 3.088 3.792 3.088 2.288 0 3.856-1.232 3.856-2.944zm8.919 0c0-1.92-2.096-2.256-3.76-2.48-.928-.144-1.648-.304-1.648-.848.016-.544.608-.928 1.344-.928.96 0 1.68.464 1.68 1.136h2.112c0-1.648-1.584-2.832-3.776-2.832-2 0-3.52 1.152-3.52 2.752 0 2 1.52 2.288 3.344 2.512.992.096 1.92.288 1.92.976 0 .544-.64.96-1.52.96-1.04 0-1.792-.576-1.792-1.392h-2.032c-.016 1.792 1.584 3.088 3.792 3.088 2.288 0 3.856-1.232 3.856-2.944zm1.734-5.6V207h2.4v-8.192h-2.4zm1.2-1.088c.816 0 1.392-.56 1.392-1.36 0-.784-.576-1.344-1.392-1.344s-1.392.56-1.392 1.344c0 .8.576 1.36 1.392 1.36zm7.467.768c-2.688 0-4.544 1.792-4.544 4.416 0 2.608 1.856 4.416 4.544 4.416 2.704 0 4.56-1.808 4.56-4.416 0-2.624-1.856-4.416-4.56-4.416zm0 6.72c-1.248 0-2.128-.96-2.128-2.304 0-1.344.88-2.304 2.128-2.304 1.264 0 2.144.96 2.144 2.304 0 1.344-.88 2.304-2.144 2.304zm6.102-6.4V207h2.4v-4.608c0-1.04.768-1.792 1.712-1.792s1.52.704 1.52 1.696V207h2.4v-5.12c0-1.968-1.248-3.392-3.088-3.392a3.103 3.103 0 00-2.608 1.424v-1.104h-2.336zm13.969 6.4c-1.248 0-2.144-.976-2.144-2.304 0-1.328.896-2.304 2.144-2.304 1.248 0 2.144.976 2.144 2.304 0 1.328-.896 2.304-2.144 2.304zm2.16-5.264c-.64-.912-1.616-1.456-2.784-1.456-2.304 0-3.92 1.824-3.92 4.416 0 2.592 1.616 4.416 3.92 4.416 1.168 0 2.144-.544 2.784-1.456V207h2.4v-8.192h-2.4v1.136zm4.301-4.816V207h2.4v-11.872h-2.4z" fill="#444"/><path d="M142.844 116.963c3.138.482 10.211 1.158 13.397 0m-9.052 3.62c1.188.547 3.864 1.312 5.07 0" stroke="#666"/><path d="M176.958 143.247c5.967 4.822 12.934 13.679 12.934 28.753h-76.051c0-15.074 6.967-23.931 12.934-28.753h50.183z" fill="#FF8080"/><path fill-rule="evenodd" clip-rule="evenodd" d="M193.27 83.653c-.352 2.996-.777 6.089-1.416 8.757-.57 2.38-1.748 5.09-3.024 7.488a45.936 45.936 0 01-1.662 2.87l.041.177c.183.816.147 2.455-.311 4.518-.462 2.079-1.359 4.629-2.937 7.275-3.16 5.299-9.037 10.968-19.551 14.025-2.868.834-4.336 2.51-5.03 4.251-.702 1.76-.622 3.613-.332 4.771l-.758.189c-.321-1.284-.41-3.308.364-5.25.782-1.961 2.436-3.81 5.537-4.712 10.324-3.001 16.04-8.544 19.099-13.674 1.532-2.57 2.4-5.04 2.845-7.044.336-1.516.426-2.743.387-3.536a21.252 21.252 0 01-1.368 1.832l-.023.026-.026.022c-.124.102-.244.209-.373.324l-.03.027c-.137.122-.283.252-.437.375-.312.249-.672.485-1.123.625-.916.284-2.085.139-3.816-.764-.919-.48-1.467-1.124-1.697-1.861-.228-.727-.128-1.49.14-2.184.268-.694.713-1.344 1.218-1.871.502-.524 1.084-.948 1.644-1.167.987-.387 2.335-.813 3.603-.418 1.093.34 2.025 1.252 2.641 3.032.421-.693.848-1.442 1.265-2.225 1.261-2.368 2.406-5.014 2.954-7.303.628-2.62 1.048-5.674 1.4-8.667.109-.928.212-1.852.312-2.754.222-1.996.432-3.887.675-5.496l.773.117c-.241 1.593-.448 3.459-.669 5.446-.101.906-.204 1.837-.315 2.779zm-6.942 18.981c-.561-2.08-1.453-2.892-2.327-3.164-.984-.307-2.101.013-3.085.4-.426.166-.917.512-1.365.98-.446.465-.828 1.03-1.053 1.612-.225.582-.283 1.158-.123 1.669.157.503.542.999 1.312 1.401 1.648.86 2.591.907 3.224.71.323-.1.596-.273.866-.488.136-.109.267-.225.405-.348l.032-.029c.117-.105.24-.215.368-.32.499-.588 1.104-1.424 1.746-2.423z" fill="#666"/><path d="M145.274 163.703c-13.18-5.466-18.499-20.456-18.499-20.456 4.472-3.614 8.385-4.962 8.385-4.962h33.414s3.913 1.348 8.384 4.962c0 0-5.318 14.99-18.498 20.456h-13.186z" fill="#fff"/><path d="M158.444 165.766a22.88 22.88 0 01-6.642 2.066 22.874 22.874 0 01-6.641-2.066c.948-9.352 2.819-17.11 2.819-17.11l3.822-5.307 3.822 5.307s1.871 7.758 2.82 17.11z" fill="#4B9DE9"/><path d="M159.748 138.14s-.184 4.297-4.156 10.679h-7.576c-3.971-6.382-4.156-10.679-4.156-10.679h15.888z" fill="#4B9DE9"/><path fill-rule="evenodd" clip-rule="evenodd" d="M131.162 98.908c-.829.16-1.564.722-1.984 1.202l-.588-.515c.492-.562 1.371-1.25 2.424-1.454a3.032 3.032 0 011.7.146c.586.228 1.155.654 1.685 1.323l-.612.485c-.46-.581-.922-.91-1.357-1.08a2.253 2.253 0 00-1.268-.107zm38.026 0c-.829.16-1.565.722-1.985 1.202l-.588-.515c.492-.562 1.371-1.25 2.424-1.454a3.032 3.032 0 011.7.146c.586.228 1.156.654 1.686 1.323l-.613.485c-.46-.581-.922-.91-1.356-1.08a2.253 2.253 0 00-1.268-.107zm-20.901-16.246h.781v23.187c.263.302 1.249.886 3.472-.225l.35.699c-2.58 1.29-4.092.632-4.55-.153l-.053-.091V82.662zm-33.194 27.743c-4.143-9.9-4.142-20.333-2.872-27.034l.767.145c-1.247 6.582-1.247 16.856 2.826 26.588 4.065 9.714 12.193 18.906 27.245 23.364l-.222.749c-15.291-4.528-23.594-13.894-27.744-23.812z" fill="#666"/><path d="M126.188 42.372c14.193-17.96 34.157-2.896 42.364 6.88.724 3.017 2.1 8.256 1.811 5.07-.363-3.984 1.81-3.26 9.414-5.07 7.604-1.81 10.5 13.035 14.121 23.536 3.621 10.5-.362 5.793-5.069 11.225-4.707 5.43-17.38-6.156-21.363-10.139-3.983-3.983-7.242-10.863-17.38 2.535-10.139 13.397-56.486 5.431-41.641 3.983 11.108-1.084 8.512-2.886 5.364-3.806 3.936 2.827 1.575 1.31-.656-.177.218.054.439.114.656.177a653.913 653.913 0 00-5.364-3.798c-13.397-9.414 0-7.966 17.743-30.416z" fill="#F9EACD"/><path d="M15.344 243c.432 0 .744-.3.744-.72s-.312-.72-.744-.72-.732.3-.732.72.3.72.732.72zm12.171.54c0-1.824-1.692-2.076-3.24-2.292-1.332-.18-2.46-.36-2.46-1.488 0-.948.864-1.632 2.184-1.632 1.38 0 2.376.828 2.376 1.98h.972c-.012-1.668-1.416-2.868-3.348-2.868-1.908 0-3.192 1.104-3.192 2.604 0 1.884 1.62 2.136 3.192 2.352 1.308.168 2.508.336 2.508 1.464 0 1.02-.852 1.752-2.244 1.752-1.524 0-2.592-.9-2.592-2.148h-.996c.012 1.764 1.5 3.036 3.576 3.036 1.992 0 3.264-1.152 3.264-2.76zm2.03.96c0 1.044.624 1.74 1.62 1.74.3 0 .684-.06.96-.144v-.756c-.228.072-.54.12-.732.12-.576-.012-.936-.408-.936-.996v-3.768h1.572v-.756h-1.572v-1.416h-.744l-.132 1.416h-1.032v.756h.996v3.804zm4.04-4.56V246h.912v-6.06h-.912zm.456-1.116c.36 0 .624-.264.624-.624s-.264-.612-.624-.612c-.372 0-.624.252-.624.612s.252.624.624.624zm2.242-1.644V246h.924v-8.82h-.924zm2.56 0V246h.925v-8.82h-.924zm7.573 1.596c0-.624.36-.996.888-.996.252 0 .48.048.684.108v-.792a2.74 2.74 0 00-.912-.156c-.936 0-1.572.684-1.584 1.74v1.26h-.984v.756h.984V246h.924v-5.304h1.548v-.756h-1.548v-1.164zm2.891 1.164V246h.912v-6.06h-.912zm.456-1.116c.36 0 .624-.264.624-.624s-.264-.612-.624-.612c-.372 0-.624.252-.624.612s.252.624.624.624zm5.146 6.516c-1.332 0-2.316-.996-2.316-2.364 0-1.416.972-2.436 2.316-2.436 1.344 0 2.316 1.02 2.316 2.436 0 1.368-.972 2.364-2.316 2.364zm.06 2.832c-1.056 0-1.98-.696-2.184-1.668l-.876.12c.216 1.38 1.524 2.376 3.096 2.376 1.8 0 3.108-1.152 3.108-3.096v-5.964H57.2v1.008c-.516-.756-1.344-1.224-2.388-1.224-1.812 0-3.132 1.368-3.132 3.252 0 1.848 1.32 3.192 3.132 3.192 1.02 0 1.86-.456 2.388-1.224v.96c0 1.428-.936 2.268-2.232 2.268zm4.8-10.992V246h.912v-3.54c0-1.116.9-1.92 1.944-1.92 1.08 0 1.716.768 1.716 1.836V246h.912v-3.624c0-1.548-.972-2.676-2.508-2.676-.84 0-1.656.42-2.064 1.104v-3.624h-.912zm7.542 7.32c0 1.044.624 1.74 1.62 1.74.3 0 .684-.06.96-.144v-.756c-.228.072-.54.12-.732.12-.576-.012-.936-.408-.936-.996v-3.768h1.572v-.756h-1.572v-1.416h-.744l-.132 1.416h-1.032v.756h.996v3.804zm4.04-4.56V246h.912v-6.06h-.912zm.456-1.116c.36 0 .624-.264.624-.624s-.264-.612-.624-.612c-.372 0-.624.252-.624.612s.252.624.624.624zm2.254 1.116V246h.912v-3.54c0-1.116.924-1.92 1.98-1.92 1.068 0 1.68.768 1.68 1.836V246h.912v-3.624c0-1.548-.948-2.676-2.496-2.676-.84 0-1.656.42-2.076 1.092v-.852h-.912zm9.917 5.4c-1.332 0-2.316-.996-2.316-2.364 0-1.416.972-2.436 2.316-2.436 1.344 0 2.316 1.02 2.316 2.436 0 1.368-.972 2.364-2.316 2.364zm.06 2.832c-1.056 0-1.98-.696-2.184-1.668l-.876.12c.216 1.38 1.524 2.376 3.096 2.376 1.8 0 3.108-1.152 3.108-3.096v-5.964h-.912v1.008c-.516-.756-1.344-1.224-2.388-1.224-1.812 0-3.132 1.368-3.132 3.252 0 1.848 1.32 3.192 3.132 3.192 1.02 0 1.86-.456 2.388-1.224v.96c0 1.428-.936 2.268-2.232 2.268zm9.8-9.396c0-.624.36-.996.888-.996.252 0 .48.048.684.108v-.792a2.74 2.74 0 00-.912-.156c-.936 0-1.572.684-1.584 1.74v1.26h-.984v.756h.984V246h.924v-5.304h1.548v-.756h-1.548v-1.164zm5.627.924c-1.896 0-3.228 1.356-3.228 3.276 0 1.908 1.332 3.264 3.228 3.264 1.896 0 3.24-1.356 3.24-3.264 0-1.92-1.344-3.276-3.24-3.276zm0 5.712c-1.344 0-2.316-1.032-2.316-2.436 0-1.416.972-2.436 2.316-2.436 1.344 0 2.316 1.02 2.316 2.436 0 1.404-.972 2.436-2.316 2.436zm4.544-5.472V246h.912v-3.396c0-1.212.624-2.064 1.572-2.064.24 0 .588.048.9.192v-.84a2.307 2.307 0 00-.816-.168c-.744 0-1.32.396-1.68 1.056v-.84h-.888zm8.45 4.56c0 1.044.624 1.74 1.62 1.74.3 0 .684-.06.96-.144v-.756c-.228.072-.54.12-.732.12-.576-.012-.936-.408-.936-.996v-3.768h1.572v-.756h-1.572v-1.416h-.744l-.132 1.416h-1.032v.756h.996v3.804zm3.897-7.32V246h.912v-3.54c0-1.116.9-1.92 1.944-1.92 1.08 0 1.716.768 1.716 1.836V246h.912v-3.624c0-1.548-.972-2.676-2.508-2.676-.84 0-1.656.42-2.064 1.104v-3.624h-.912zm7.649 5.292c.168-1.14 1.044-1.932 2.22-1.932 1.2 0 2.088.792 2.256 1.944l-4.476-.012zm-.96.432c0 1.932 1.356 3.336 3.228 3.336 1.344 0 2.592-.864 2.964-2.052l-.9-.144c-.276.792-1.164 1.368-2.1 1.368-1.2 0-2.112-.876-2.256-2.148l5.448.012c.012-.132.012-.252.012-.36 0-1.86-1.332-3.216-3.18-3.216-1.872 0-3.216 1.356-3.216 3.204zm14.369 2.448c-1.344 0-2.316-1.008-2.316-2.376 0-1.38.972-2.388 2.316-2.388 1.332 0 2.316.984 2.316 2.388 0 1.368-.972 2.376-2.316 2.376zm3.228-2.376c0-1.896-1.32-3.276-3.12-3.276-1.044 0-1.908.492-2.424 1.284v-1.044h-.888v8.82h.912v-3.78c.516.792 1.368 1.26 2.4 1.26 1.812 0 3.12-1.38 3.12-3.264zm1.32-3.036V246h.912v-3.396c0-1.212.624-2.064 1.572-2.064.24 0 .588.048.9.192v-.84a2.307 2.307 0 00-.816-.168c-.744 0-1.32.396-1.68 1.056v-.84h-.888zm6.999-.24c-1.896 0-3.228 1.356-3.228 3.276 0 1.908 1.332 3.264 3.228 3.264 1.896 0 3.24-1.356 3.24-3.264 0-1.92-1.344-3.276-3.24-3.276zm0 5.712c-1.344 0-2.316-1.032-2.316-2.436 0-1.416.972-2.436 2.316-2.436 1.344 0 2.316 1.02 2.316 2.436 0 1.404-.972 2.436-2.316 2.436zm5.456.588v-3.636c0-1.092.684-1.824 1.692-1.824.972 0 1.608.732 1.608 1.824V246h.912v-3.636c0-1.068.696-1.824 1.704-1.824.936 0 1.608.756 1.608 1.824V246h.924v-3.624c0-1.56-1.008-2.664-2.424-2.664-.96 0-1.716.492-2.1 1.26-.336-.768-1.152-1.272-2.148-1.272a2.05 2.05 0 00-1.8.996v-.756h-.888V246h.912zm12.861-6.3c-1.896 0-3.228 1.356-3.228 3.276 0 1.908 1.332 3.264 3.228 3.264 1.896 0 3.24-1.356 3.24-3.264 0-1.92-1.344-3.276-3.24-3.276zm0 5.712c-1.344 0-2.316-1.032-2.316-2.436 0-1.416.972-2.436 2.316-2.436 1.344 0 2.316 1.02 2.316 2.436 0 1.404-.972 2.436-2.316 2.436zm5.06-.912c0 1.044.624 1.74 1.62 1.74.3 0 .684-.06.96-.144v-.756c-.228.072-.54.12-.732.12-.576-.012-.936-.408-.936-.996v-3.768h1.572v-.756h-1.572v-1.416h-.744l-.132 1.416h-1.032v.756h.996v3.804zm4.041-4.56V246h.912v-6.06h-.912zm.456-1.116c.36 0 .624-.264.624-.624s-.264-.612-.624-.612c-.372 0-.624.252-.624.612s.252.624.624.624zm5.133.876c-1.896 0-3.228 1.356-3.228 3.276 0 1.908 1.332 3.264 3.228 3.264 1.896 0 3.24-1.356 3.24-3.264 0-1.92-1.344-3.276-3.24-3.276zm0 5.712c-1.344 0-2.316-1.032-2.316-2.436 0-1.416.972-2.436 2.316-2.436 1.344 0 2.316 1.02 2.316 2.436 0 1.404-.972 2.436-2.316 2.436zm4.544-5.472V246h.912v-3.54c0-1.116.924-1.92 1.98-1.92 1.068 0 1.68.768 1.68 1.836V246h.912v-3.624c0-1.548-.948-2.676-2.496-2.676-.84 0-1.656.42-2.076 1.092v-.852h-.912zm10.297 8.556c.276.108.636.18.936.18 1.272 0 1.764-1.212 2.316-2.592l2.412-6.144h-.972l-1.896 4.92-2.16-4.92h-1.008l2.724 6.048c-.396.912-.66 1.872-1.548 1.872-.228 0-.528-.072-.804-.168v.804zm9.348-8.796c-1.896 0-3.228 1.356-3.228 3.276 0 1.908 1.332 3.264 3.228 3.264 1.896 0 3.24-1.356 3.24-3.264 0-1.92-1.344-3.276-3.24-3.276zm0 5.712c-1.344 0-2.316-1.032-2.316-2.436 0-1.416.972-2.436 2.316-2.436 1.344 0 2.316 1.02 2.316 2.436 0 1.404-.972 2.436-2.316 2.436zm9.908.588v-6.06h-.912v3.552c0 1.104-.912 1.92-1.968 1.92-1.08 0-1.692-.78-1.692-1.848v-3.624h-.912v3.624c0 1.548.948 2.676 2.496 2.676.84 0 1.668-.42 2.076-1.092V246h.912zm8.005-5.412c1.344 0 2.316 1.008 2.316 2.388 0 1.368-.972 2.376-2.316 2.376-1.332 0-2.316-.984-2.316-2.376 0-1.38.972-2.388 2.316-2.388zm-3.228 2.388c0 1.884 1.32 3.264 3.132 3.264 1.032 0 1.896-.492 2.412-1.284V246h.888v-8.82h-.912v3.78c-.516-.78-1.368-1.26-2.388-1.26-1.812 0-3.132 1.38-3.132 3.276zm8.712-.504c.168-1.14 1.044-1.932 2.22-1.932 1.2 0 2.088.792 2.256 1.944l-4.476-.012zm-.96.432c0 1.932 1.356 3.336 3.228 3.336 1.344 0 2.592-.864 2.964-2.052l-.9-.144c-.276.792-1.164 1.368-2.1 1.368-1.2 0-2.112-.876-2.256-2.148l5.448.012c.012-.132.012-.252.012-.36 0-1.86-1.332-3.216-3.18-3.216-1.872 0-3.216 1.356-3.216 3.204zm12.645 1.356c-.012-1.344-1.44-1.596-2.556-1.788-1.104-.18-1.608-.36-1.608-.9 0-.6.636-1.032 1.416-1.032.984 0 1.704.504 1.716 1.2l.9.012c-.012-1.188-1.104-2.052-2.604-2.052-1.308 0-2.316.78-2.316 1.848-.012 1.368 1.056 1.56 2.436 1.776.66.096 1.716.264 1.728 1.02 0 .612-.684 1.068-1.62 1.068-1.032 0-1.776-.6-1.776-1.44h-.9c0 1.308 1.128 2.268 2.688 2.268 1.44 0 2.496-.84 2.496-1.98zm1.98-1.788c.168-1.14 1.044-1.932 2.22-1.932 1.2 0 2.088.792 2.256 1.944l-4.476-.012zm-.96.432c0 1.932 1.356 3.336 3.228 3.336 1.344 0 2.592-.864 2.964-2.052l-.9-.144c-.276.792-1.164 1.368-2.1 1.368-1.2 0-2.112-.876-2.256-2.148l5.448.012c.012-.132.012-.252.012-.36 0-1.86-1.332-3.216-3.18-3.216-1.872 0-3.216 1.356-3.216 3.204zm7.713-2.964V246h.912v-3.396c0-1.212.624-2.064 1.572-2.064.24 0 .588.048.9.192v-.84a2.307 2.307 0 00-.816-.168c-.744 0-1.32.396-1.68 1.056v-.84h-.888zm7.566 6.06l2.34-6.06h-.984l-2.004 5.328-2.004-5.328h-.984l2.352 6.06h1.284zm3.769-3.528c.168-1.14 1.044-1.932 2.22-1.932 1.2 0 2.088.792 2.256 1.944l-4.476-.012zm-.96.432c0 1.932 1.356 3.336 3.228 3.336 1.344 0 2.592-.864 2.964-2.052l-.9-.144c-.276.792-1.164 1.368-2.1 1.368-1.2 0-2.112-.876-2.256-2.148l5.448.012c.012-.132.012-.252.012-.36 0-1.86-1.332-3.216-3.18-3.216-1.872 0-3.216 1.356-3.216 3.204zm10.305 3.252c.36 0 .624-.252.624-.624 0-.36-.264-.612-.624-.612-.372 0-.624.264-.624.612 0 .372.252.624.624.624zm.468-2.304c0-.984.276-1.392.972-1.86.84-.552 1.512-1.032 1.512-2.184 0-1.476-1.224-2.568-2.796-2.568-1.608 0-2.772 1.14-2.964 2.724l.936.18c.132-1.164.9-2.016 2.016-2.016 1.02 0 1.8.732 1.8 1.692 0 .768-.552 1.164-1.152 1.572-.792.552-1.248 1.116-1.248 2.46h.924zM15.344 267c.432 0 .744-.3.744-.72s-.312-.72-.744-.72-.732.3-.732.72.3.72.732.72zm11.763-5.46h-1.464l-1.968 7.788-2.184-7.788h-1.044l2.412 8.46h1.62l1.872-7.416L28.235 270h1.608l2.4-8.46h-1.032l-2.184 7.788-1.92-7.788zm8.692 2.16c-1.896 0-3.228 1.356-3.228 3.276 0 1.908 1.332 3.264 3.228 3.264 1.896 0 3.24-1.356 3.24-3.264 0-1.92-1.344-3.276-3.24-3.276zm0 5.712c-1.344 0-2.316-1.032-2.316-2.436 0-1.416.972-2.436 2.316-2.436 1.344 0 2.316 1.02 2.316 2.436 0 1.404-.972 2.436-2.316 2.436zm4.544-5.472V270h.912v-3.54c0-1.116.924-1.92 1.98-1.92 1.069 0 1.68.768 1.68 1.836V270h.913v-3.624c0-1.548-.949-2.676-2.497-2.676-.84 0-1.656.42-2.076 1.092v-.852h-.912zm9.918.648c1.344 0 2.316 1.008 2.316 2.388 0 1.368-.972 2.376-2.316 2.376-1.332 0-2.316-.984-2.316-2.376 0-1.38.972-2.388 2.316-2.388zm-3.228 2.388c0 1.884 1.32 3.264 3.132 3.264 1.032 0 1.896-.492 2.412-1.284V270h.888v-8.82h-.912v3.78c-.516-.78-1.368-1.26-2.388-1.26-1.812 0-3.132 1.38-3.132 3.276zm8.712-.504c.168-1.14 1.044-1.932 2.22-1.932 1.2 0 2.088.792 2.256 1.944l-4.476-.012zm-.96.432c0 1.932 1.356 3.336 3.228 3.336 1.344 0 2.592-.864 2.964-2.052l-.9-.144c-.276.792-1.164 1.368-2.1 1.368-1.2 0-2.112-.876-2.256-2.148l5.448.012c.012-.132.012-.252.012-.36 0-1.86-1.332-3.216-3.18-3.216-1.872 0-3.216 1.356-3.216 3.204zm7.714-2.964V270h.911v-3.396c0-1.212.624-2.064 1.573-2.064.24 0 .587.048.9.192v-.84a2.307 2.307 0 00-.816-.168c-.744 0-1.32.396-1.68 1.056v-.84h-.889zm4.626 0V270h.912v-6.06h-.912zm.456-1.116c.36 0 .624-.264.624-.624s-.264-.612-.624-.612c-.372 0-.624.252-.624.612s.252.624.624.624zm2.254 1.116V270h.912v-3.54c0-1.116.924-1.92 1.98-1.92 1.068 0 1.68.768 1.68 1.836V270h.912v-3.624c0-1.548-.948-2.676-2.496-2.676-.84 0-1.656.42-2.076 1.092v-.852h-.912zm9.918 5.4c-1.332 0-2.317-.996-2.317-2.364 0-1.416.972-2.436 2.316-2.436 1.345 0 2.317 1.02 2.317 2.436 0 1.368-.972 2.364-2.317 2.364zm.06 2.832c-1.056 0-1.98-.696-2.184-1.668l-.877.12c.217 1.38 1.525 2.376 3.097 2.376 1.8 0 3.108-1.152 3.108-3.096v-5.964h-.912v1.008c-.517-.756-1.344-1.224-2.389-1.224-1.812 0-3.132 1.368-3.132 3.252 0 1.848 1.32 3.192 3.132 3.192 1.02 0 1.86-.456 2.388-1.224v.96c0 1.428-.935 2.268-2.231 2.268zm8.395-8.232V270h.912v-6.06h-.912zm.456-1.116c.36 0 .624-.264.624-.624s-.264-.612-.624-.612c-.372 0-.624.252-.624.612s.252.624.624.624zm3.802-.048c0-.624.36-.996.888-.996.252 0 .48.048.684.108v-.792a2.74 2.74 0 00-.912-.156c-.936 0-1.572.684-1.584 1.74v1.26h-.984v.756h.984V270h.924v-5.304h1.548v-.756h-1.548v-1.164zm6.342 1.164V270h.912v-6.06h-.912zm.456-1.116c.36 0 .624-.264.624-.624s-.264-.612-.624-.612c-.372 0-.624.252-.624.612s.252.624.624.624zm2.77 5.676c0 1.044.624 1.74 1.62 1.74.3 0 .684-.06.96-.144v-.756c-.228.072-.54.12-.732.12-.576-.012-.936-.408-.936-.996v-3.768h1.572v-.756h-1.572v-1.416h-.744l-.132 1.416h-1.032v.756h.996v3.804zm4.172-5.952c0 .408-.252.888-.612 1.128l.444.324c.504-.324.864-1.092.864-1.836 0-.504-.264-.84-.684-.84a.59.59 0 00-.612.6c0 .372.252.624.6.624zm6.584 5.712c-.012-1.344-1.44-1.596-2.556-1.788-1.104-.18-1.608-.36-1.608-.9 0-.6.636-1.032 1.416-1.032.984 0 1.704.504 1.716 1.2l.9.012c-.012-1.188-1.104-2.052-2.604-2.052-1.308 0-2.316.78-2.316 1.848-.012 1.368 1.056 1.56 2.436 1.776.66.096 1.716.264 1.728 1.02 0 .612-.684 1.068-1.62 1.068-1.032 0-1.776-.6-1.776-1.44h-.9c0 1.308 1.128 2.268 2.688 2.268 1.44 0 2.496-.84 2.496-1.98zm5.323.24c0 1.044.624 1.74 1.62 1.74.3 0 .684-.06.96-.144v-.756c-.228.072-.54.12-.732.12-.576-.012-.936-.408-.936-.996v-3.768h1.572v-.756h-1.572v-1.416h-.744l-.132 1.416h-1.032v.756h.996v3.804zm4.041-4.56V270h.912v-6.06h-.912zm.456-1.116c.36 0 .624-.264.624-.624s-.264-.612-.624-.612c-.372 0-.624.252-.624.612s.252.624.624.624zm3.165 7.176v-3.636c0-1.092.684-1.824 1.692-1.824.972 0 1.608.732 1.608 1.824V270h.912v-3.636c0-1.068.696-1.824 1.704-1.824.936 0 1.608.756 1.608 1.824V270h.924v-3.624c0-1.56-1.008-2.664-2.424-2.664-.96 0-1.716.492-2.1 1.26-.336-.768-1.152-1.272-2.148-1.272a2.05 2.05 0 00-1.8.996v-.756h-.888V270h.912zm10.605-3.528c.168-1.14 1.044-1.932 2.22-1.932 1.2 0 2.088.792 2.256 1.944l-4.476-.012zm-.96.432c0 1.932 1.356 3.336 3.228 3.336 1.344 0 2.592-.864 2.964-2.052l-.9-.144c-.276.792-1.164 1.368-2.1 1.368-1.2 0-2.112-.876-2.256-2.148l5.448.012c.012-.132.012-.252.012-.36 0-1.86-1.332-3.216-3.18-3.216-1.872 0-3.216 1.356-3.216 3.204zm11.681 1.596c0 1.044.624 1.74 1.62 1.74.3 0 .684-.06.96-.144v-.756c-.228.072-.54.12-.732.12-.576-.012-.936-.408-.936-.996v-3.768h1.572v-.756h-1.572v-1.416h-.744l-.132 1.416h-1.032v.756h.996v3.804zm6.776-4.8c-1.896 0-3.228 1.356-3.228 3.276 0 1.908 1.332 3.264 3.228 3.264 1.896 0 3.24-1.356 3.24-3.264 0-1.92-1.344-3.276-3.24-3.276zm0 5.712c-1.344 0-2.316-1.032-2.316-2.436 0-1.416.972-2.436 2.316-2.436 1.344 0 2.316 1.02 2.316 2.436 0 1.404-.972 2.436-2.316 2.436zm10.888-.072c-1.332 0-2.316-.996-2.316-2.364 0-1.416.972-2.436 2.316-2.436 1.344 0 2.316 1.02 2.316 2.436 0 1.368-.972 2.364-2.316 2.364zm.06 2.832c-1.056 0-1.98-.696-2.184-1.668l-.876.12c.216 1.38 1.524 2.376 3.096 2.376 1.8 0 3.108-1.152 3.108-3.096v-5.964h-.912v1.008c-.516-.756-1.344-1.224-2.388-1.224-1.812 0-3.132 1.368-3.132 3.252 0 1.848 1.32 3.192 3.132 3.192 1.02 0 1.86-.456 2.388-1.224v.96c0 1.428-.936 2.268-2.232 2.268zm7.68-8.472c-1.896 0-3.228 1.356-3.228 3.276 0 1.908 1.332 3.264 3.228 3.264 1.896 0 3.24-1.356 3.24-3.264 0-1.92-1.344-3.276-3.24-3.276zm0 5.712c-1.344 0-2.316-1.032-2.316-2.436 0-1.416.972-2.436 2.316-2.436 1.344 0 2.316 1.02 2.316 2.436 0 1.404-.972 2.436-2.316 2.436zm12.927-1.152c-.012-1.344-1.44-1.596-2.556-1.788-1.104-.18-1.608-.36-1.608-.9 0-.6.636-1.032 1.416-1.032.984 0 1.704.504 1.716 1.2l.9.012c-.012-1.188-1.104-2.052-2.604-2.052-1.308 0-2.316.78-2.316 1.848-.012 1.368 1.056 1.56 2.436 1.776.66.096 1.716.264 1.728 1.02 0 .612-.684 1.068-1.62 1.068-1.032 0-1.776-.6-1.776-1.44h-.9c0 1.308 1.128 2.268 2.688 2.268 1.44 0 2.496-.84 2.496-1.98zm1.508.24c0 1.044.624 1.74 1.62 1.74.3 0 .684-.06.96-.144v-.756c-.228.072-.54.12-.732.12-.576-.012-.936-.408-.936-.996v-3.768h1.572v-.756h-1.572v-1.416h-.744l-.132 1.416h-1.032v.756h.996v3.804zm9.261 1.5v-6.06h-.912v3.552c0 1.104-.912 1.92-1.968 1.92-1.08 0-1.692-.78-1.692-1.848v-3.624h-.912v3.624c0 1.548.948 2.676 2.496 2.676.84 0 1.668-.42 2.076-1.092V270h.912zm4.553-5.412c1.344 0 2.316 1.008 2.316 2.388 0 1.368-.972 2.376-2.316 2.376-1.332 0-2.316-.984-2.316-2.376 0-1.38.972-2.388 2.316-2.388zm-3.228 2.388c0 1.884 1.32 3.264 3.132 3.264 1.032 0 1.896-.492 2.412-1.284V270h.888v-8.82h-.912v3.78c-.516-.78-1.368-1.26-2.388-1.26-1.812 0-3.132 1.38-3.132 3.276zm7.908 5.52c.276.108.636.18.936.18 1.272 0 1.764-1.212 2.316-2.592l2.412-6.144h-.972l-1.896 4.92-2.16-4.92h-1.008l2.724 6.048c-.396.912-.66 1.872-1.548 1.872-.228 0-.528-.072-.804-.168v.804zM216.57 270v-3.636c0-1.092.684-1.824 1.692-1.824.972 0 1.608.732 1.608 1.824V270h.912v-3.636c0-1.068.696-1.824 1.704-1.824.936 0 1.608.756 1.608 1.824V270h.924v-3.624c0-1.56-1.008-2.664-2.424-2.664-.96 0-1.716.492-2.1 1.26-.336-.768-1.152-1.272-2.148-1.272a2.05 2.05 0 00-1.8.996v-.756h-.888V270h.912zm12.861-6.3c-1.896 0-3.228 1.356-3.228 3.276 0 1.908 1.332 3.264 3.228 3.264 1.896 0 3.24-1.356 3.24-3.264 0-1.92-1.344-3.276-3.24-3.276zm0 5.712c-1.344 0-2.316-1.032-2.316-2.436 0-1.416.972-2.436 2.316-2.436 1.344 0 2.316 1.02 2.316 2.436 0 1.404-.972 2.436-2.316 2.436zm4.544-5.472V270h.912v-3.396c0-1.212.624-2.064 1.572-2.064.24 0 .588.048.9.192v-.84a2.307 2.307 0 00-.816-.168c-.744 0-1.32.396-1.68 1.056v-.84h-.888zm4.743 2.532c.168-1.14 1.044-1.932 2.22-1.932 1.2 0 2.088.792 2.256 1.944l-4.476-.012zm-.96.432c0 1.932 1.356 3.336 3.228 3.336 1.344 0 2.592-.864 2.964-2.052l-.9-.144c-.276.792-1.164 1.368-2.1 1.368-1.2 0-2.112-.876-2.256-2.148l5.448.012c.012-.132.012-.252.012-.36 0-1.86-1.332-3.216-3.18-3.216-1.872 0-3.216 1.356-3.216 3.204zm10.305 3.252c.36 0 .624-.252.624-.624 0-.36-.264-.612-.624-.612-.372 0-.624.264-.624.612 0 .372.252.624.624.624zm.468-2.304c0-.984.276-1.392.972-1.86.84-.552 1.512-1.032 1.512-2.184 0-1.476-1.224-2.568-2.796-2.568-1.608 0-2.772 1.14-2.964 2.724l.936.18c.132-1.164.9-2.016 2.016-2.016 1.02 0 1.8.732 1.8 1.692 0 .768-.552 1.164-1.152 1.572-.792.552-1.248 1.116-1.248 2.46h.924zM15.344 291c.432 0 .744-.3.744-.72s-.312-.72-.744-.72-.732.3-.732.72.3.72.732.72zm9.675 2.412c-1.968 0-3.384-1.524-3.396-3.636 0-2.124 1.416-3.648 3.396-3.648 1.44 0 2.7.996 3.012 2.316l.984-.12c-.408-1.776-2.088-3.084-3.996-3.084-2.544 0-4.392 1.908-4.392 4.536 0 2.628 1.848 4.524 4.392 4.524 1.908 0 3.576-1.248 3.996-2.94l-.972-.18c-.336 1.284-1.596 2.232-3.024 2.232zm8.32-5.712c-1.896 0-3.229 1.356-3.229 3.276 0 1.908 1.332 3.264 3.229 3.264 1.895 0 3.24-1.356 3.24-3.264 0-1.92-1.345-3.276-3.24-3.276zm0 5.712c-1.345 0-2.316-1.032-2.316-2.436 0-1.416.971-2.436 2.316-2.436 1.343 0 2.316 1.02 2.316 2.436 0 1.404-.973 2.436-2.316 2.436zm4.544-5.472V294h.911v-3.54c0-1.116.925-1.92 1.98-1.92 1.069 0 1.68.768 1.68 1.836V294h.913v-3.624c0-1.548-.948-2.676-2.496-2.676-.84 0-1.657.42-2.077 1.092v-.852h-.911zm8.573-1.164c0-.624.36-.996.888-.996.252 0 .48.048.684.108v-.792a2.74 2.74 0 00-.912-.156c-.936 0-1.572.684-1.584 1.74v1.26h-.984v.756h.984V294h.924v-5.304h1.548v-.756h-1.548v-1.164zM54.567 294v-6.06h-.912v3.552c0 1.104-.912 1.92-1.968 1.92-1.08 0-1.692-.78-1.692-1.848v-3.624h-.912v3.624c0 1.548.948 2.676 2.496 2.676.84 0 1.668-.42 2.076-1.092V294h.912zm6.594-1.74c-.012-1.344-1.44-1.596-2.556-1.788-1.104-.18-1.608-.36-1.608-.9 0-.6.636-1.032 1.416-1.032.984 0 1.704.504 1.716 1.2l.9.012c-.012-1.188-1.104-2.052-2.604-2.052-1.308 0-2.316.78-2.316 1.848-.012 1.368 1.056 1.56 2.436 1.776.66.096 1.716.264 1.728 1.02 0 .612-.684 1.068-1.62 1.068-1.032 0-1.776-.6-1.776-1.44h-.9c0 1.308 1.128 2.268 2.688 2.268 1.44 0 2.496-.84 2.496-1.98zm1.98-1.788c.167-1.14 1.043-1.932 2.22-1.932 1.2 0 2.087.792 2.255 1.944l-4.476-.012zm-.96.432c0 1.932 1.355 3.336 3.227 3.336 1.344 0 2.592-.864 2.964-2.052l-.9-.144c-.276.792-1.164 1.368-2.1 1.368-1.2 0-2.112-.876-2.256-2.148l5.448.012c.012-.132.012-.252.012-.36 0-1.86-1.332-3.216-3.18-3.216-1.872 0-3.216 1.356-3.216 3.204zm10.605-2.316c1.343 0 2.316 1.008 2.316 2.388 0 1.368-.973 2.376-2.317 2.376-1.331 0-2.316-.984-2.316-2.376 0-1.38.973-2.388 2.317-2.388zm-3.228 2.388c0 1.884 1.32 3.264 3.131 3.264 1.033 0 1.897-.492 2.413-1.284V294h.888v-8.82h-.912v3.78c-.517-.78-1.368-1.26-2.389-1.26-1.811 0-3.131 1.38-3.131 3.276zm14.431 2.436c-1.344 0-2.316-1.032-2.316-2.436 0-1.416.972-2.436 2.316-2.436 1.332 0 2.316 1.02 2.316 2.436 0 1.404-.984 2.436-2.316 2.436zm2.328-4.392c-.516-.816-1.392-1.32-2.436-1.32-1.812 0-3.12 1.38-3.12 3.276 0 1.884 1.308 3.264 3.12 3.264 1.044 0 1.92-.504 2.436-1.308V294h.912v-6.06h-.912v1.08zm5.771-.432c1.344 0 2.316 1.008 2.316 2.388 0 1.392-.984 2.376-2.316 2.376-1.344 0-2.316-1.008-2.316-2.376 0-1.38.972-2.388 2.316-2.388zm3.228 2.388c0-1.896-1.308-3.276-3.12-3.276-1.032 0-1.884.48-2.4 1.26v-3.78h-.912V294h.888v-1.044c.516.792 1.38 1.284 2.424 1.284 1.8 0 3.12-1.38 3.12-3.264zm4.2-3.276c-1.895 0-3.227 1.356-3.227 3.276 0 1.908 1.332 3.264 3.228 3.264 1.896 0 3.24-1.356 3.24-3.264 0-1.92-1.344-3.276-3.24-3.276zm0 5.712c-1.343 0-2.315-1.032-2.315-2.436 0-1.416.972-2.436 2.316-2.436 1.344 0 2.316 1.02 2.316 2.436 0 1.404-.972 2.436-2.316 2.436zm9.909.588v-6.06h-.912v3.552c0 1.104-.912 1.92-1.968 1.92-1.08 0-1.692-.78-1.692-1.848v-3.624h-.912v3.624c0 1.548.948 2.676 2.496 2.676.84 0 1.668-.42 2.076-1.092V294h.912zm2.177-1.5c0 1.044.624 1.74 1.62 1.74.3 0 .684-.06.96-.144v-.756c-.228.072-.54.12-.732.12-.576-.012-.936-.408-.936-.996v-3.768h1.572v-.756h-1.572v-1.416h-.744l-.132 1.416h-1.032v.756h.996v3.804zm7.864 0c0 1.044.624 1.74 1.62 1.74.3 0 .684-.06.96-.144v-.756c-.228.072-.54.12-.732.12-.576-.012-.936-.408-.936-.996v-3.768h1.572v-.756h-1.572v-1.416h-.744l-.132 1.416h-1.032v.756h.996v3.804zm3.896-7.32V294h.912v-3.54c0-1.116.9-1.92 1.944-1.92 1.08 0 1.716.768 1.716 1.836V294h.912v-3.624c0-1.548-.972-2.676-2.508-2.676-.84 0-1.656.42-2.064 1.104v-3.624h-.912zm7.65 5.292c.168-1.14 1.044-1.932 2.22-1.932 1.2 0 2.088.792 2.256 1.944l-4.476-.012zm-.96.432c0 1.932 1.356 3.336 3.228 3.336 1.344 0 2.592-.864 2.964-2.052l-.9-.144c-.276.792-1.164 1.368-2.1 1.368-1.2 0-2.112-.876-2.256-2.148l5.448.012c.012-.132.012-.252.012-.36 0-1.86-1.332-3.216-3.18-3.216-1.872 0-3.216 1.356-3.216 3.204zm11.165-2.964V294h.912v-3.54c0-1.116.924-1.92 1.98-1.92 1.068 0 1.68.768 1.68 1.836V294h.912v-3.624c0-1.548-.948-2.676-2.496-2.676-.84 0-1.656.42-2.076 1.092v-.852h-.912zm7.649 2.532c.168-1.14 1.044-1.932 2.22-1.932 1.2 0 2.088.792 2.256 1.944l-4.476-.012zm-.96.432c0 1.932 1.356 3.336 3.228 3.336 1.344 0 2.592-.864 2.964-2.052l-.9-.144c-.276.792-1.164 1.368-2.1 1.368-1.2 0-2.112-.876-2.256-2.148l5.448.012c.012-.132.012-.252.012-.36 0-1.86-1.332-3.216-3.18-3.216-1.872 0-3.216 1.356-3.216 3.204zM155.94 294l1.692-2.568 1.704 2.568h1.116l-2.136-3.144 2.016-2.916h-1.08l-1.62 2.364-1.608-2.364h-1.08l2.016 2.916-2.136 3.144h1.116zm6.248-1.5c0 1.044.624 1.74 1.62 1.74.3 0 .684-.06.96-.144v-.756c-.228.072-.54.12-.732.12-.576-.012-.936-.408-.936-.996v-3.768h1.572v-.756H163.1v-1.416h-.744l-.132 1.416h-1.032v.756h.996v3.804zm10.552-3.912c1.344 0 2.316 1.008 2.316 2.388 0 1.392-.984 2.376-2.316 2.376-1.344 0-2.316-1.008-2.316-2.376 0-1.38.972-2.388 2.316-2.388zm3.228 2.388c0-1.896-1.308-3.276-3.12-3.276-1.032 0-1.884.48-2.4 1.26v-3.78h-.912V294h.888v-1.044c.516.792 1.38 1.284 2.424 1.284 1.8 0 3.12-1.38 3.12-3.264zm1.464-3.036V294h.912v-6.06h-.912zm.456-1.116c.36 0 .624-.264.624-.624s-.264-.612-.624-.612c-.372 0-.624.252-.624.612s.252.624.624.624zm5.146 6.516c-1.332 0-2.316-.996-2.316-2.364 0-1.416.972-2.436 2.316-2.436 1.344 0 2.316 1.02 2.316 2.436 0 1.368-.972 2.364-2.316 2.364zm.06 2.832c-1.056 0-1.98-.696-2.184-1.668l-.876.12c.216 1.38 1.524 2.376 3.096 2.376 1.8 0 3.108-1.152 3.108-3.096v-5.964h-.912v1.008c-.516-.756-1.344-1.224-2.388-1.224-1.812 0-3.132 1.368-3.132 3.252 0 1.848 1.32 3.192 3.132 3.192 1.02 0 1.86-.456 2.388-1.224v.96c0 1.428-.936 2.268-2.232 2.268zm13.184-3.912c-.012-1.344-1.44-1.596-2.556-1.788-1.104-.18-1.608-.36-1.608-.9 0-.6.636-1.032 1.416-1.032.984 0 1.704.504 1.716 1.2l.9.012c-.012-1.188-1.104-2.052-2.604-2.052-1.308 0-2.316.78-2.316 1.848-.012 1.368 1.056 1.56 2.436 1.776.66.096 1.716.264 1.728 1.02 0 .612-.684 1.068-1.62 1.068-1.032 0-1.776-.6-1.776-1.44h-.9c0 1.308 1.128 2.268 2.688 2.268 1.44 0 2.496-.84 2.496-1.98zm1.508.24c0 1.044.624 1.74 1.62 1.74.3 0 .684-.06.96-.144v-.756c-.228.072-.54.12-.732.12-.576-.012-.936-.408-.936-.996v-3.768h1.572v-.756h-1.572v-1.416h-.744l-.132 1.416h-1.032v.756h.996v3.804zm4.52-2.028c.168-1.14 1.044-1.932 2.22-1.932 1.2 0 2.088.792 2.256 1.944l-4.476-.012zm-.96.432c0 1.932 1.356 3.336 3.228 3.336 1.344 0 2.592-.864 2.964-2.052l-.9-.144c-.276.792-1.164 1.368-2.1 1.368-1.2 0-2.112-.876-2.256-2.148l5.448.012c.012-.132.012-.252.012-.36 0-1.86-1.332-3.216-3.18-3.216-1.872 0-3.216 1.356-3.216 3.204zm10.917 2.448c-1.344 0-2.316-1.008-2.316-2.376 0-1.38.972-2.388 2.316-2.388 1.332 0 2.316.984 2.316 2.388 0 1.368-.972 2.376-2.316 2.376zm3.228-2.376c0-1.896-1.32-3.276-3.12-3.276-1.044 0-1.908.492-2.424 1.284v-1.044h-.888v8.82h.912v-3.78c.516.792 1.368 1.26 2.4 1.26 1.812 0 3.12-1.38 3.12-3.264zm4.916-3.036V294h.912v-6.06h-.912zm.456-1.116c.36 0 .624-.264.624-.624s-.264-.612-.624-.612c-.372 0-.624.252-.624.612s.252.624.624.624zm2.254 1.116V294h.912v-3.54c0-1.116.924-1.92 1.98-1.92 1.068 0 1.68.768 1.68 1.836V294h.912v-3.624c0-1.548-.948-2.676-2.496-2.676-.84 0-1.656.42-2.076 1.092v-.852h-.912zm10.297 8.556c.276.108.636.18.936.18 1.272 0 1.764-1.212 2.316-2.592l2.412-6.144h-.972l-1.896 4.92-2.16-4.92h-1.008l2.724 6.048c-.396.912-.66 1.872-1.548 1.872-.228 0-.528-.072-.804-.168v.804zm9.347-8.796c-1.896 0-3.228 1.356-3.228 3.276 0 1.908 1.332 3.264 3.228 3.264 1.896 0 3.24-1.356 3.24-3.264 0-1.92-1.344-3.276-3.24-3.276zm0 5.712c-1.344 0-2.316-1.032-2.316-2.436 0-1.416.972-2.436 2.316-2.436 1.344 0 2.316 1.02 2.316 2.436 0 1.404-.972 2.436-2.316 2.436zm9.908.588v-6.06h-.912v3.552c0 1.104-.912 1.92-1.968 1.92-1.08 0-1.692-.78-1.692-1.848v-3.624h-.912v3.624c0 1.548.948 2.676 2.496 2.676.84 0 1.668-.42 2.076-1.092V294h.912zm1.662-6.06V294h.912v-3.396c0-1.212.624-2.064 1.572-2.064.24 0 .588.048.9.192v-.84a2.307 2.307 0 00-.816-.168c-.744 0-1.32.396-1.68 1.056v-.84h-.888zM17.768 311.7c-1.824 0-3.156 1.38-3.156 3.276s1.32 3.264 3.156 3.264c1.428 0 2.664-.912 2.94-2.184l-.9-.12c-.24.864-1.056 1.5-2.04 1.5-1.284 0-2.244-1.032-2.244-2.46s.972-2.472 2.244-2.472c.96 0 1.812.648 2.04 1.536l.888-.12c-.228-1.284-1.464-2.22-2.928-2.22zm7.156 5.712c-1.344 0-2.316-1.032-2.316-2.436 0-1.416.972-2.436 2.316-2.436 1.332 0 2.316 1.02 2.316 2.436 0 1.404-.984 2.436-2.316 2.436zm2.328-4.392c-.516-.816-1.392-1.32-2.436-1.32-1.812 0-3.12 1.38-3.12 3.276 0 1.884 1.308 3.264 3.12 3.264 1.044 0 1.92-.504 2.436-1.308V318h.912v-6.06h-.912v1.08zm2.568-1.08V318h.912v-3.396c0-1.212.624-2.064 1.572-2.064.24 0 .588.048.9.192v-.84a2.307 2.307 0 00-.816-.168c-.744 0-1.32.396-1.68 1.056v-.84h-.888zm4.743 2.532c.168-1.14 1.044-1.932 2.22-1.932 1.2 0 2.088.792 2.256 1.944l-4.476-.012zm-.96.432c0 1.932 1.356 3.336 3.228 3.336 1.344 0 2.592-.864 2.964-2.052l-.9-.144c-.276.792-1.164 1.368-2.1 1.368-1.2 0-2.112-.876-2.256-2.148l5.448.012c.012-.132.012-.252.012-.36 0-1.86-1.332-3.216-3.18-3.216-1.872 0-3.216 1.356-3.216 3.204zm8.337-.432c.168-1.14 1.044-1.932 2.22-1.932 1.2 0 2.088.792 2.256 1.944l-4.476-.012zm-.96.432c0 1.932 1.356 3.336 3.228 3.336 1.344 0 2.592-.864 2.964-2.052l-.9-.144c-.276.792-1.164 1.368-2.1 1.368-1.2 0-2.112-.876-2.256-2.148l5.448.012c.012-.132.012-.252.012-.36 0-1.86-1.332-3.216-3.18-3.216-1.872 0-3.216 1.356-3.216 3.204zm7.713-2.964V318h.912v-3.396c0-1.212.624-2.064 1.572-2.064.24 0 .588.048.9.192v-.84a2.307 2.307 0 00-.816-.168c-.744 0-1.32.396-1.68 1.056v-.84h-.888zm11.138 5.412c-1.344 0-2.316-1.008-2.316-2.376 0-1.38.972-2.388 2.316-2.388 1.332 0 2.316.984 2.316 2.388 0 1.368-.972 2.376-2.316 2.376zm3.228-2.376c0-1.896-1.32-3.276-3.12-3.276-1.044 0-1.908.492-2.424 1.284v-1.044h-.888v8.82h.912v-3.78c.516.792 1.368 1.26 2.4 1.26 1.812 0 3.12-1.38 3.12-3.264zm4.213 2.436c-1.344 0-2.316-1.032-2.316-2.436 0-1.416.972-2.436 2.316-2.436 1.332 0 2.316 1.02 2.316 2.436 0 1.404-.984 2.436-2.316 2.436zm2.328-4.392c-.516-.816-1.392-1.32-2.436-1.32-1.812 0-3.12 1.38-3.12 3.276 0 1.884 1.308 3.264 3.12 3.264 1.044 0 1.92-.504 2.436-1.308V318h.912v-6.06H69.6v1.08zm3.083 3.48c0 1.044.624 1.74 1.62 1.74.3 0 .684-.06.96-.144v-.756c-.228.072-.54.12-.732.12-.576-.012-.936-.408-.936-.996v-3.768h1.572v-.756h-1.572v-1.416h-.744l-.132 1.416h-1.032v.756h.996v3.804zm3.896-7.32V318h.912v-3.54c0-1.116.9-1.92 1.944-1.92 1.08 0 1.716.768 1.716 1.836V318h.912v-3.624c0-1.548-.972-2.676-2.508-2.676-.84 0-1.656.42-2.064 1.104v-3.624h-.912zm9.618 8.976c.36 0 .624-.252.624-.624 0-.36-.264-.612-.624-.612-.372 0-.624.264-.624.612 0 .372.252.624.624.624zm.468-2.304c0-.984.276-1.392.972-1.86.84-.552 1.512-1.032 1.512-2.184 0-1.476-1.224-2.568-2.796-2.568-1.608 0-2.772 1.14-2.964 2.724l.936.18c.132-1.164.9-2.016 2.016-2.016 1.02 0 1.8.732 1.8 1.692 0 .768-.552 1.164-1.152 1.572-.792.552-1.248 1.116-1.248 2.46h.924z" fill="#000"/></svg>