<svg width="1226" height="900" fill="none" xmlns="http://www.w3.org/2000/svg"><path d="M315.793 19.692v504.103h146.984V240.237c0-63.998 47.035-110.273 104.849-110.273 57.814 0 93.09 43.322 93.09 104.365v289.466H807.7V208.73C807.7 87.627 731.268 0 618.58 0c-65.653 0-124.446 33.476-159.723 87.627V19.692H315.793zm24.291 605.222v398.406h81.658V868.684c0-34.901 26.131-60.137 57.705-60.137 32.663.537 52.261 23.625 52.261 56.915v157.858h81.658V848.817c0-64.97-41.918-111.146-106.155-111.146-33.752 0-66.96 15.034-85.469 41.881V624.914h-81.658z" fill="#F7F7F7"/><path d="M237.128 783.733c0 74.036 44.794 126.336 114.022 126.336 21.719 0 48.867-4.076 69.907-10.868v-82.186c-11.538 3.396-26.47 5.434-35.972 5.434-28.505 0-46.152-19.698-46.152-48.904V626.153h78.73v-77.432h-78.73v-87.619h-85.516l-11.538 87.619h-53.618v77.432h48.867v157.58zm333.588-162.011v346.996h99.471V621.722h-99.471zm49.735-46.085c33.82 0 57.693-23.72 57.693-57.607 0-33.208-23.873-56.928-57.693-56.928-33.82 0-57.693 23.72-57.693 56.928 0 33.887 23.873 57.607 57.693 57.607zm61.742 85.528V1175h150.613V885.968c0-65.233 48.197-112.402 107.438-112.402s95.386 44.158 95.386 106.38V1175h150.62V853.853c0-123.441-78.32-212.76-193.793-212.76-67.274 0-127.52 34.122-163.667 89.319v-69.247H682.193z" fill="#F7F7F7"/><path d="M1058.74 848.893c-53.38 0-91.703-40.181-91.703-95.345 0-56.525 38.323-98.068 91.703-98.068s91.71 41.543 91.71 98.068c0 55.164-38.33 95.345-91.71 95.345zm-1.37 168.217c-41.74 0-78.698-28.606-87.595-68.106l-91.707 10.216c10.266 80.36 87.6 138.93 183.412 138.93 110.87 0 187.52-66.06 187.52-174.344V579.205h-102.66v41.542c-26.69-34.051-66.38-54.482-115.66-54.482-96.493 0-166.299 77.637-166.299 187.283 0 105.56 69.806 179.111 166.299 179.111 48.59 0 88.29-19.75 115.66-53.12v41.543c0 60.611-36.95 96.028-88.97 96.028z" fill="#F7F7F7"/><path d="M691.894 305.598c12.78-67.016 58.004-111.366 122.891-111.366 66.853 0 116.01 47.306 124.858 111.366H691.894zm-151.403 43.364c0 162.615 114.043 275.952 276.26 275.952 122.892 0 229.069-71.945 253.649-170.499L937.677 435.69c-15.73 44.349-61.938 75.887-116.993 75.887-66.853 0-115.027-46.321-127.807-117.28l394.233.986c1.97-10.841 1.97-31.538 1.97-44.35 0-159.657-110.112-270.038-271.345-270.038-162.217 0-277.244 110.381-277.244 268.067zM228.345 24.268C93.268 24.268 0 112.901 0 242.685c0 128.992 93.268 218.417 228.345 218.417 135.882 0 229.149-89.425 229.149-218.417 0-129.784-93.267-218.417-229.149-218.417zm0 332.373c-62.714 0-106.936-47.481-106.936-113.956s44.222-113.956 106.936-113.956c63.519 0 107.74 47.481 107.74 113.956s-44.221 113.956-107.74 113.956z" fill="#F7F7F7"/></svg>