<svg width="640" height="412" fill="none" xmlns="http://www.w3.org/2000/svg"><path fill="url(#paint0_linear)" d="M0 40h640v4H0z"/><path fill="url(#paint1_linear)" fill-opacity=".6" d="M0 132h640v4H0z"/><path fill="url(#paint2_linear)" fill-opacity=".3" d="M0 224h640v4H0z"/><path fill="url(#paint3_linear)" d="M0 316h640v4H0z"/><path fill="url(#paint4_linear)" d="M0 408h640v4H0z"/><path d="M8.576 17.696h2.08v1.744H8.368L8.048 22H6.24l.32-2.56H4.208L3.888 22H2.096l.32-2.56H.32v-1.744h2.304l.336-2.592H.864V13.36h2.304l.32-2.56H5.28l-.32 2.56h2.352l.32-2.56h1.792l-.32 2.56h2.08l.016 1.744H8.896l-.32 2.592zm-1.808 0l.336-2.592H4.752l-.336 2.592h2.352zm8.668-4.816v2.96h5.184v2.08h-5.184V22h-2.592V10.8h8.464v2.08h-5.872zm10.218 0v2.96h5.184v2.08h-5.184V22h-2.592V10.8h8.464v2.08h-5.872zm10.22 0v2.96h5.183v2.08h-5.184V22h-2.592V10.8h8.464v2.08h-5.872zm10.218 0v2.96h5.184v2.08h-5.184V22H43.5V10.8h8.464v2.08h-5.872zm10.219 0v2.96h5.184v2.08H56.31V22h-2.592V10.8h8.464v2.08H56.31zm10.218 0v2.96h5.184v2.08H66.53V22h-2.592V10.8h8.464v2.08H66.53zm11.662 3.616h4.528v2h-4.528v-2zM93.007 10.8V22h-2.593v-9.12h-2.24V10.8h4.832zm6.745 11.392c-.928 0-1.754-.23-2.48-.688-.725-.459-1.296-1.12-1.712-1.984-.405-.875-.608-1.915-.608-3.12s.203-2.24.608-3.104c.416-.875.987-1.541 1.712-2 .725-.459 1.552-.688 2.48-.688.928 0 1.755.23 2.48.688.725.459 1.291 1.125 1.696 2 .416.864.624 1.899.624 3.104s-.208 2.245-.624 3.12c-.405.864-.971 1.525-1.696 1.984-.725.459-1.552.688-2.48.688zm0-2.192c.683 0 1.216-.293 1.6-.88.395-.587.592-1.493.592-2.72s-.197-2.133-.592-2.72c-.384-.587-.917-.88-1.6-.88-.672 0-1.205.293-1.6.88-.384.587-.576 1.493-.576 2.72s.192 2.133.576 2.72c.395.587.928.88 1.6.88zm10.86 2.192c-.928 0-1.755-.23-2.48-.688-.726-.459-1.296-1.12-1.712-1.984-.406-.875-.608-1.915-.608-3.12s.202-2.24.608-3.104c.416-.875.986-1.541 1.712-2 .725-.459 1.552-.688 2.48-.688.928 0 1.754.23 2.48.688.725.459 1.29 1.125 1.696 2 .416.864.624 1.899.624 3.104s-.208 2.245-.624 3.12c-.406.864-.971 1.525-1.696 1.984-.726.459-1.552.688-2.48.688zm0-2.192c.682 0 1.216-.293 1.6-.88.394-.587.592-1.493.592-2.72s-.198-2.133-.592-2.72c-.384-.587-.918-.88-1.6-.88-.672 0-1.206.293-1.6.88-.384.587-.576 1.493-.576 2.72s.192 2.133.576 2.72c.394.587.928.88 1.6.88zm8.651-3.152c-.821 0-1.493-.277-2.016-.832-.512-.565-.768-1.317-.768-2.256 0-.939.256-1.685.768-2.24.523-.565 1.195-.848 2.016-.848s1.488.283 2 .848c.512.555.768 1.301.768 2.24 0 .939-.256 1.69-.768 2.256-.512.555-1.179.832-2 .832zm6.672-6.048h1.904L120.191 22h-1.904l7.648-11.2zm-6.672 4.736a.97.97 0 00.848-.448c.213-.299.32-.741.32-1.328 0-.587-.107-1.03-.32-1.328a.968.968 0 00-.848-.448c-.352 0-.635.155-.848.464-.213.299-.32.736-.32 1.312 0 .576.107 1.019.32 1.328.213.299.496.448.848.448zm7.6 6.592a2.838 2.838 0 01-1.44-.368 2.62 2.62 0 01-.976-1.088c-.235-.47-.352-1.013-.352-1.632s.117-1.163.352-1.632c.235-.47.56-.827.976-1.072a2.746 2.746 0 011.44-.384c.821 0 1.488.283 2 .848.523.555.784 1.301.784 2.24 0 .939-.261 1.69-.784 2.256-.512.555-1.179.832-2 .832zm0-1.312a.97.97 0 00.848-.448c.213-.31.32-.752.32-1.328 0-.576-.107-1.013-.32-1.312a.96.96 0 00-.848-.464c-.352 0-.635.15-.848.448-.213.299-.32.741-.32 1.328 0 .587.107 1.03.32 1.328.213.299.496.448.848.448zm14.498 1.376c-1.162 0-2.213-.25-3.152-.752a5.677 5.677 0 01-2.192-2.064c-.522-.885-.784-1.877-.784-2.976s.262-2.085.784-2.96a5.64 5.64 0 012.192-2.08c.939-.501 1.99-.752 3.152-.752 1.163 0 2.208.25 3.136.752a5.633 5.633 0 012.192 2.08c.534.875.8 1.861.8 2.96s-.266 2.09-.8 2.976a5.67 5.67 0 01-2.192 2.064c-.928.501-1.973.752-3.136.752zm0-2.208a3.6 3.6 0 001.792-.448c.534-.31.95-.736 1.248-1.28.31-.544.464-1.163.464-1.856 0-.693-.154-1.312-.464-1.856a3.155 3.155 0 00-1.248-1.264 3.504 3.504 0 00-1.792-.464c-.661 0-1.258.155-1.792.464a3.28 3.28 0 00-1.264 1.264c-.298.544-.448 1.163-.448 1.856 0 .693.15 1.312.448 1.856a3.4 3.4 0 001.264 1.28 3.606 3.606 0 001.792.448zm12.924-9.184c.992 0 1.851.165 2.576.496.736.33 1.302.8 1.696 1.408.395.608.592 1.328.592 2.16 0 .821-.197 1.541-.592 2.16-.394.608-.96 1.077-1.696 1.408-.725.32-1.584.48-2.576.48h-2.256V22h-2.592V10.8h4.848zm-.144 6c.779 0 1.371-.165 1.776-.496.406-.341.608-.821.608-1.44 0-.63-.202-1.11-.608-1.44-.405-.341-.997-.512-1.776-.512h-2.112V16.8h2.112zm13.672 2.8h-5.2l-.992 2.4h-2.656l4.992-11.2h2.56l5.008 11.2h-2.72l-.992-2.4zm-.816-1.968l-1.776-4.288-1.776 4.288h3.552zm10.894 4.56c-1.141 0-2.176-.245-3.104-.736a5.703 5.703 0 01-2.176-2.064c-.523-.885-.784-1.883-.784-2.992 0-1.11.261-2.101.784-2.976a5.55 5.55 0 012.176-2.064c.928-.501 1.968-.752 3.12-.752.971 0 1.845.17 2.624.512a5.257 5.257 0 011.984 1.472l-1.664 1.536c-.757-.875-1.696-1.312-2.816-1.312-.693 0-1.312.155-1.856.464a3.24 3.24 0 00-1.28 1.264c-.299.544-.448 1.163-.448 1.856 0 .693.149 1.312.448 1.856.309.544.736.97 1.28 1.28.544.299 1.163.448 1.856.448 1.12 0 2.059-.443 2.816-1.328l1.664 1.536a5.186 5.186 0 01-1.984 1.488c-.789.341-1.669.512-2.64.512zm6.375-11.392h2.592V22h-2.592V10.8zm7.57 2.112h-3.584V10.8h9.76v2.112h-3.584V22h-2.592v-9.088zm12.743 5.12V22h-2.592v-4l-4.336-7.2h2.752l2.992 4.976 2.992-4.976h2.544l-4.352 7.232z" fill="#fff"/><path d="M8.576 109.696h2.08v1.744H8.368l-.32 2.56H6.24l.32-2.56H4.208l-.32 2.56H2.096l.32-2.56H.32v-1.744h2.304l.336-2.592H.864v-1.744h2.304l.32-2.56H5.28l-.32 2.56h2.352l.32-2.56h1.792l-.32 2.56h2.08l.016 1.744H8.896l-.32 2.592zm-1.808 0l.336-2.592H4.752l-.336 2.592h2.352zm8.668-4.816v2.96h5.184v2.08h-5.184V114h-2.592v-11.2h8.464v2.08h-5.872zm10.218 0v2.96h5.184v2.08h-5.184V114h-2.592v-11.2h8.464v2.08h-5.872zm10.22 0v2.96h5.183v2.08h-5.184V114h-2.592v-11.2h8.464v2.08h-5.872zm10.218 0v2.96h5.184v2.08h-5.184V114H43.5v-11.2h8.464v2.08h-5.872zm10.219 0v2.96h5.184v2.08H56.31V114h-2.592v-11.2h8.464v2.08H56.31zm10.218 0v2.96h5.184v2.08H66.53V114h-2.592v-11.2h8.464v2.08H66.53zm11.662 3.616h4.528v2h-4.528v-2zm15.888-1.52a4.37 4.37 0 011.952.432c.586.288 1.05.699 1.391 1.232.342.523.513 1.131.513 1.824 0 .747-.187 1.403-.56 1.968a3.698 3.698 0 01-1.537 1.312c-.64.299-1.354.448-2.143.448-1.569 0-2.795-.48-3.68-1.44-.886-.96-1.329-2.331-1.329-4.112 0-1.269.24-2.357.72-3.264.48-.907 1.147-1.595 2-2.064.864-.469 1.862-.704 2.992-.704a6.89 6.89 0 011.713.208c.554.128 1.023.315 1.407.56l-.96 1.904c-.554-.373-1.253-.56-2.096-.56-.949 0-1.7.277-2.255.832-.555.555-.854 1.36-.896 2.416.66-.661 1.583-.992 2.767-.992zm-.528 5.28c.554 0 1.002-.149 1.343-.448.352-.299.528-.704.528-1.216s-.175-.917-.528-1.216c-.34-.309-.8-.464-1.376-.464-.565 0-1.029.16-1.392.48a1.503 1.503 0 00-.544 1.2c0 .491.177.891.529 1.2.352.309.831.464 1.44.464zm10.123 1.936c-.928 0-1.755-.229-2.48-.688-.725-.459-1.296-1.12-1.712-1.984-.405-.875-.608-1.915-.608-3.12s.203-2.24.608-3.104c.416-.875.987-1.541 1.712-2 .725-.459 1.552-.688 2.48-.688.928 0 1.755.229 2.48.688.725.459 1.291 1.125 1.696 2 .416.864.624 1.899.624 3.104s-.208 2.245-.624 3.12c-.405.864-.971 1.525-1.696 1.984-.725.459-1.552.688-2.48.688zm0-2.192c.683 0 1.216-.293 1.6-.88.395-.587.592-1.493.592-2.72s-.197-2.133-.592-2.72c-.384-.587-.917-.88-1.6-.88-.672 0-1.205.293-1.6.88-.384.587-.576 1.493-.576 2.72s.192 2.133.576 2.72c.395.587.928.88 1.6.88zm8.651-3.152c-.821 0-1.493-.277-2.016-.832-.512-.565-.768-1.317-.768-2.256 0-.939.256-1.685.768-2.24.523-.565 1.195-.848 2.016-.848.822 0 1.488.283 2 .848.512.555.768 1.301.768 2.24 0 .939-.256 1.691-.768 2.256-.512.555-1.178.832-2 .832zm6.672-6.048h1.904l-7.648 11.2h-1.904l7.648-11.2zm-6.672 4.736a.967.967 0 00.848-.448c.214-.299.32-.741.32-1.328 0-.587-.106-1.029-.32-1.328a.967.967 0 00-.848-.448c-.352 0-.634.155-.848.464-.213.299-.32.736-.32 1.312 0 .576.107 1.019.32 1.328.214.299.496.448.848.448zm7.6 6.592a2.841 2.841 0 01-1.44-.368 2.622 2.622 0 01-.976-1.088c-.234-.469-.352-1.013-.352-1.632s.118-1.163.352-1.632c.235-.469.56-.827.976-1.072a2.746 2.746 0 011.44-.384c.822 0 1.488.283 2 .848.523.555.784 1.301.784 2.24 0 .939-.261 1.691-.784 2.256-.512.555-1.178.832-2 .832zm0-1.312a.967.967 0 00.848-.448c.214-.309.32-.752.32-1.328 0-.576-.106-1.013-.32-1.312a.96.96 0 00-.848-.464c-.352 0-.634.149-.848.448-.213.299-.32.741-.32 1.328 0 .587.107 1.029.32 1.328.214.299.496.448.848.448zm14.499 1.376c-1.163 0-2.213-.251-3.152-.752a5.665 5.665 0 01-2.192-2.064c-.523-.885-.784-1.877-.784-2.976s.261-2.085.784-2.96a5.633 5.633 0 012.192-2.08c.939-.501 1.989-.752 3.152-.752s2.208.251 3.136.752a5.633 5.633 0 012.192 2.08c.533.875.8 1.861.8 2.96s-.267 2.091-.8 2.976a5.665 5.665 0 01-2.192 2.064c-.928.501-1.973.752-3.136.752zm0-2.208a3.6 3.6 0 001.792-.448 3.275 3.275 0 001.248-1.28c.309-.544.464-1.163.464-1.856 0-.693-.155-1.312-.464-1.856a3.17 3.17 0 00-1.248-1.264 3.51 3.51 0 00-1.792-.464 3.51 3.51 0 00-1.792.464c-.533.299-.955.72-1.264 1.264-.299.544-.448 1.163-.448 1.856 0 .693.149 1.312.448 1.856.309.544.731.971 1.264 1.28a3.6 3.6 0 001.792.448zm12.924-9.184c.992 0 1.851.165 2.576.496.736.331 1.301.8 1.696 1.408.395.608.592 1.328.592 2.16 0 .821-.197 1.541-.592 2.16-.395.608-.96 1.077-1.696 1.408-.725.32-1.584.48-2.576.48h-2.256V114H142.5v-11.2h4.848zm-.144 6c.779 0 1.371-.165 1.776-.496.405-.341.608-.821.608-1.44 0-.629-.203-1.109-.608-1.44-.405-.341-.997-.512-1.776-.512h-2.112v3.888h2.112zm13.672 2.8h-5.2l-.992 2.4h-2.656l4.992-11.2h2.56l5.008 11.2h-2.72l-.992-2.4zm-.816-1.968l-1.776-4.288-1.776 4.288h3.552zm10.894 4.56c-1.142 0-2.176-.245-3.104-.736a5.691 5.691 0 01-2.176-2.064c-.523-.885-.784-1.883-.784-2.992s.261-2.101.784-2.976a5.547 5.547 0 012.176-2.064c.928-.501 1.968-.752 3.12-.752.97 0 1.845.171 2.624.512.789.341 1.45.832 1.984 1.472l-1.664 1.536c-.758-.875-1.696-1.312-2.816-1.312-.694 0-1.312.155-1.856.464-.544.299-.971.72-1.28 1.264-.299.544-.448 1.163-.448 1.856 0 .693.149 1.312.448 1.856.309.544.736.971 1.28 1.28.544.299 1.162.448 1.856.448 1.12 0 2.058-.443 2.816-1.328l1.664 1.536a5.188 5.188 0 01-1.984 1.488c-.79.341-1.67.512-2.64.512zm6.374-11.392h2.592V114h-2.592v-11.2zm7.57 2.112h-3.584V102.8h9.76v2.112h-3.584V114h-2.592v-9.088zm12.744 5.12V114h-2.593v-4l-4.336-7.2h2.753l2.992 4.976 2.992-4.976h2.544l-4.352 7.232z" fill="#fff" fill-opacity=".6"/><path d="M8.576 201.696h2.08v1.744H8.368l-.32 2.56H6.24l.32-2.56H4.208l-.32 2.56H2.096l.32-2.56H.32v-1.744h2.304l.336-2.592H.864v-1.744h2.304l.32-2.56H5.28l-.32 2.56h2.352l.32-2.56h1.792l-.32 2.56h2.08l.016 1.744H8.896l-.32 2.592zm-1.808 0l.336-2.592H4.752l-.336 2.592h2.352zm8.668-4.816v2.96h5.184v2.08h-5.184V206h-2.592v-11.2h8.464v2.08h-5.872zm10.218 0v2.96h5.184v2.08h-5.184V206h-2.592v-11.2h8.464v2.08h-5.872zm10.22 0v2.96h5.183v2.08h-5.184V206h-2.592v-11.2h8.464v2.08h-5.872zm10.218 0v2.96h5.184v2.08h-5.184V206H43.5v-11.2h8.464v2.08h-5.872zm10.219 0v2.96h5.184v2.08H56.31V206h-2.592v-11.2h8.464v2.08H56.31zm10.218 0v2.96h5.184v2.08H66.53V206h-2.592v-11.2h8.464v2.08H66.53zm11.662 3.616h4.528v2h-4.528v-2zm15.727-1.136c.982.16 1.734.528 2.256 1.104.523.565.784 1.269.784 2.112 0 .651-.17 1.253-.511 1.808-.342.544-.865.981-1.569 1.312-.693.331-1.546.496-2.56.496a9.098 9.098 0 01-2.335-.304c-.758-.213-1.403-.512-1.937-.896l1.008-1.984c.427.32.918.571 1.472.752a5.936 5.936 0 001.728.256c.651 0 1.163-.123 1.536-.368.374-.256.56-.613.56-1.072 0-.917-.698-1.376-2.096-1.376H91.07v-1.712l2.305-2.608h-4.769v-2.08h7.84v1.68l-2.528 2.88zm9.037 6.832c-.928 0-1.754-.229-2.48-.688-.725-.459-1.296-1.12-1.712-1.984-.405-.875-.608-1.915-.608-3.12s.203-2.24.608-3.104c.416-.875.987-1.541 1.712-2 .726-.459 1.552-.688 2.48-.688.928 0 1.755.229 2.48.688.726.459 1.291 1.125 1.696 2 .416.864.624 1.899.624 3.104s-.208 2.245-.624 3.12c-.405.864-.97 1.525-1.696 1.984-.725.459-1.552.688-2.48.688zm0-2.192c.683 0 1.216-.293 1.6-.88.395-.587.592-1.493.592-2.72s-.197-2.133-.592-2.72c-.384-.587-.917-.88-1.6-.88-.672 0-1.205.293-1.6.88-.384.587-.576 1.493-.576 2.72s.192 2.133.576 2.72c.395.587.928.88 1.6.88zm8.652-3.152c-.822 0-1.494-.277-2.016-.832-.512-.565-.768-1.317-.768-2.256 0-.939.256-1.685.768-2.24.522-.565 1.194-.848 2.016-.848.821 0 1.488.283 2 .848.512.555.768 1.301.768 2.24 0 .939-.256 1.691-.768 2.256-.512.555-1.179.832-2 .832zm6.672-6.048h1.904l-7.648 11.2h-1.904l7.648-11.2zm-6.672 4.736a.969.969 0 00.848-.448c.213-.299.32-.741.32-1.328 0-.587-.107-1.029-.32-1.328a.969.969 0 00-.848-.448c-.352 0-.635.155-.848.464-.214.299-.32.736-.32 1.312 0 .576.106 1.019.32 1.328.213.299.496.448.848.448zm7.6 6.592a2.836 2.836 0 01-1.44-.368 2.615 2.615 0 01-.976-1.088c-.235-.469-.352-1.013-.352-1.632s.117-1.163.352-1.632c.234-.469.56-.827.976-1.072a2.741 2.741 0 011.44-.384c.821 0 1.488.283 2 .848.522.555.784 1.301.784 2.24 0 .939-.262 1.691-.784 2.256-.512.555-1.179.832-2 .832zm0-1.312a.969.969 0 00.848-.448c.213-.309.32-.752.32-1.328 0-.576-.107-1.013-.32-1.312a.962.962 0 00-.848-.464c-.352 0-.635.149-.848.448-.214.299-.32.741-.32 1.328 0 .587.106 1.029.32 1.328.213.299.496.448.848.448zm14.498 1.376c-1.163 0-2.213-.251-3.152-.752a5.665 5.665 0 01-2.192-2.064c-.523-.885-.784-1.877-.784-2.976s.261-2.085.784-2.96a5.633 5.633 0 012.192-2.08c.939-.501 1.989-.752 3.152-.752s2.208.251 3.136.752a5.633 5.633 0 012.192 2.08c.533.875.8 1.861.8 2.96s-.267 2.091-.8 2.976a5.665 5.665 0 01-2.192 2.064c-.928.501-1.973.752-3.136.752zm0-2.208a3.6 3.6 0 001.792-.448 3.275 3.275 0 001.248-1.28c.309-.544.464-1.163.464-1.856 0-.693-.155-1.312-.464-1.856a3.17 3.17 0 00-1.248-1.264 3.51 3.51 0 00-1.792-.464 3.51 3.51 0 00-1.792.464c-.533.299-.955.72-1.264 1.264-.299.544-.448 1.163-.448 1.856 0 .693.149 1.312.448 1.856.309.544.731.971 1.264 1.28a3.6 3.6 0 001.792.448zm12.924-9.184c.992 0 1.851.165 2.576.496.736.331 1.301.8 1.696 1.408.395.608.592 1.328.592 2.16 0 .821-.197 1.541-.592 2.16-.395.608-.96 1.077-1.696 1.408-.725.32-1.584.48-2.576.48h-2.256V206h-2.592v-11.2h4.848zm-.144 6c.779 0 1.371-.165 1.776-.496.405-.341.608-.821.608-1.44 0-.629-.203-1.109-.608-1.44-.405-.341-.997-.512-1.776-.512h-2.112v3.888h2.112zm13.672 2.8h-5.2l-.992 2.4h-2.656l4.992-11.2h2.56l5.008 11.2h-2.72l-.992-2.4zm-.816-1.968l-1.776-4.288-1.776 4.288h3.552zm10.894 4.56c-1.141 0-2.176-.245-3.104-.736a5.698 5.698 0 01-2.176-2.064c-.523-.885-.784-1.883-.784-2.992s.261-2.101.784-2.976a5.553 5.553 0 012.176-2.064c.928-.501 1.968-.752 3.12-.752.971 0 1.845.171 2.624.512a5.254 5.254 0 011.984 1.472l-1.664 1.536c-.757-.875-1.696-1.312-2.816-1.312-.693 0-1.312.155-1.856.464-.544.299-.971.72-1.28 1.264-.299.544-.448 1.163-.448 1.856 0 .693.149 1.312.448 1.856.309.544.736.971 1.28 1.28.544.299 1.163.448 1.856.448 1.12 0 2.059-.443 2.816-1.328l1.664 1.536a5.18 5.18 0 01-1.984 1.488c-.789.341-1.669.512-2.64.512zm6.374-11.392h2.592V206h-2.592v-11.2zm7.57 2.112h-3.584V194.8h9.76v2.112h-3.584V206h-2.592v-9.088zm12.744 5.12V206h-2.592v-4l-4.336-7.2h2.752l2.992 4.976 2.992-4.976h2.544l-4.352 7.232z" fill="#fff" fill-opacity=".3"/><path d="M8.576 293.696h2.08v1.744H8.368l-.32 2.56H6.24l.32-2.56H4.208l-.32 2.56H2.096l.32-2.56H.32v-1.744h2.304l.336-2.592H.864v-1.744h2.304l.32-2.56H5.28l-.32 2.56h2.352l.32-2.56h1.792l-.32 2.56h2.08l.016 1.744H8.896l-.32 2.592zm-1.808 0l.336-2.592H4.752l-.336 2.592h2.352zm10.172 4.496c-.928 0-1.755-.229-2.48-.688-.726-.459-1.296-1.12-1.712-1.984-.406-.875-.608-1.915-.608-3.12s.202-2.24.608-3.104c.416-.875.986-1.541 1.712-2 .725-.459 1.552-.688 2.48-.688.928 0 1.754.229 2.48.688.725.459 1.29 1.125 1.696 2 .416.864.624 1.899.624 3.104s-.208 2.245-.624 3.12c-.406.864-.971 1.525-1.696 1.984-.726.459-1.552.688-2.48.688zm0-2.192c.682 0 1.216-.293 1.6-.88.394-.587.592-1.493.592-2.72s-.198-2.133-.592-2.72c-.384-.587-.918-.88-1.6-.88-.672 0-1.206.293-1.6.88-.384.587-.576 1.493-.576 2.72s.192 2.133.576 2.72c.394.587.928.88 1.6.88zm10.859 2.192c-.928 0-1.755-.229-2.48-.688-.725-.459-1.296-1.12-1.712-1.984-.405-.875-.608-1.915-.608-3.12s.203-2.24.608-3.104c.416-.875.987-1.541 1.712-2 .725-.459 1.552-.688 2.48-.688.928 0 1.755.229 2.48.688.725.459 1.29 1.125 1.696 2 .416.864.624 1.899.624 3.104s-.208 2.245-.624 3.12c-.405.864-.97 1.525-1.696 1.984-.725.459-1.552.688-2.48.688zm0-2.192c.683 0 1.216-.293 1.6-.88.395-.587.592-1.493.592-2.72s-.197-2.133-.592-2.72c-.384-.587-.917-.88-1.6-.88-.672 0-1.205.293-1.6.88-.384.587-.576 1.493-.576 2.72s.192 2.133.576 2.72c.395.587.928.88 1.6.88zm14.987-3.824c.64.203 1.142.544 1.504 1.024.363.469.544 1.051.544 1.744 0 .981-.384 1.739-1.152 2.272-.757.523-1.866.784-3.328.784h-5.792v-11.2h5.472c1.366 0 2.411.261 3.136.784.736.523 1.104 1.232 1.104 2.128 0 .544-.133 1.029-.4 1.456a2.685 2.685 0 01-1.088 1.008zm-5.648-3.424v2.64h2.576c.64 0 1.126-.112 1.456-.336.331-.224.496-.555.496-.992 0-.437-.165-.763-.496-.976-.33-.224-.816-.336-1.456-.336h-2.576zm3.024 7.296c.683 0 1.195-.112 1.536-.336.352-.224.528-.571.528-1.04 0-.928-.688-1.392-2.064-1.392h-3.024v2.768h3.024zm13.595-3.936c.554.277.976.64 1.264 1.088.298.448.448.965.448 1.552 0 .693-.198 1.301-.592 1.824-.395.512-.95.912-1.664 1.2-.715.277-1.542.416-2.48.416-.939 0-1.766-.139-2.48-.416-.704-.288-1.254-.688-1.648-1.2-.384-.523-.576-1.131-.576-1.824 0-.587.144-1.104.432-1.552.298-.448.72-.811 1.264-1.088a2.756 2.756 0 01-.96-.96 2.676 2.676 0 01-.336-1.344c0-.651.181-1.216.544-1.696.362-.48.87-.848 1.52-1.104.65-.267 1.397-.4 2.24-.4.853 0 1.605.133 2.256.4.661.256 1.173.624 1.536 1.104.362.48.544 1.045.544 1.696 0 .501-.112.949-.336 1.344-.224.384-.55.704-.976.96zm-3.024-3.6c-.523 0-.944.128-1.264.384-.31.245-.464.587-.464 1.024 0 .427.154.763.464 1.008.31.245.73.368 1.264.368.533 0 .96-.123 1.28-.368.32-.245.48-.581.48-1.008 0-.437-.16-.779-.48-1.024-.32-.256-.747-.384-1.28-.384zm0 7.776c.65 0 1.162-.144 1.536-.432.384-.299.576-.693.576-1.184s-.192-.88-.576-1.168c-.374-.288-.886-.432-1.536-.432-.64 0-1.147.144-1.52.432-.374.288-.56.677-.56 1.168 0 .501.186.896.56 1.184.373.288.88.432 1.52.432zm14.85-4.112c.64.203 1.142.544 1.504 1.024.363.469.544 1.051.544 1.744 0 .981-.384 1.739-1.152 2.272-.757.523-1.866.784-3.328.784H57.36v-11.2h5.472c1.366 0 2.41.261 3.136.784.736.523 1.104 1.232 1.104 2.128 0 .544-.133 1.029-.4 1.456a2.685 2.685 0 01-1.088 1.008zm-5.648-3.424v2.64h2.576c.64 0 1.126-.112 1.456-.336.33-.224.496-.555.496-.992 0-.437-.165-.763-.496-.976-.33-.224-.816-.336-1.456-.336h-2.576zm3.024 7.296c.683 0 1.195-.112 1.536-.336.352-.224.528-.571.528-1.04 0-.928-.688-1.392-2.064-1.392h-3.024v2.768h3.024zm13.595-3.936c.554.277.976.64 1.264 1.088.298.448.448.965.448 1.552 0 .693-.198 1.301-.592 1.824-.395.512-.95.912-1.664 1.2-.715.277-1.542.416-2.48.416-.939 0-1.766-.139-2.48-.416-.704-.288-1.254-.688-1.648-1.2-.384-.523-.576-1.131-.576-1.824 0-.587.144-1.104.432-1.552.298-.448.72-.811 1.264-1.088a2.756 2.756 0 01-.96-.96 2.676 2.676 0 01-.336-1.344c0-.651.181-1.216.544-1.696.362-.48.869-.848 1.52-1.104.65-.267 1.397-.4 2.24-.4.853 0 1.605.133 2.256.4.661.256 1.173.624 1.536 1.104.362.48.544 1.045.544 1.696 0 .501-.112.949-.336 1.344-.224.384-.55.704-.976.96zm-3.024-3.6c-.523 0-.944.128-1.264.384-.31.245-.464.587-.464 1.024 0 .427.154.763.464 1.008.309.245.73.368 1.264.368.533 0 .96-.123 1.28-.368.32-.245.48-.581.48-1.008 0-.437-.16-.779-.48-1.024-.32-.256-.747-.384-1.28-.384zm0 7.776c.65 0 1.162-.144 1.536-.432.384-.299.576-.693.576-1.184s-.192-.88-.576-1.168c-.374-.288-.886-.432-1.536-.432-.64 0-1.147.144-1.52.432-.374.288-.56.677-.56 1.168 0 .501.186.896.56 1.184.373.288.88.432 1.52.432zm10.661-3.792h4.528v2h-4.528v-2zm16.048-5.696c.992 0 1.85.165 2.576.496.736.331 1.301.8 1.696 1.408.394.608.592 1.328.592 2.16 0 .821-.198 1.541-.592 2.16-.395.608-.96 1.077-1.696 1.408-.726.32-1.584.48-2.576.48h-2.257V298h-2.591v-11.2h4.848zm-.144 6c.778 0 1.37-.165 1.776-.496.405-.341.608-.821.608-1.44 0-.629-.203-1.109-.608-1.44-.406-.341-.998-.512-1.776-.512h-2.112v3.888h2.112zm13.994 5.2l-2.16-3.12h-2.384V298h-2.592v-11.2h4.848c.992 0 1.851.165 2.576.496.736.331 1.301.8 1.696 1.408.395.608.592 1.328.592 2.16 0 .832-.203 1.552-.608 2.16-.395.597-.96 1.056-1.696 1.376l2.512 3.6h-2.784zm-.048-7.136c0-.629-.203-1.109-.608-1.44-.405-.341-.997-.512-1.776-.512h-2.112v3.904h2.112c.779 0 1.371-.171 1.776-.512.405-.341.608-.821.608-1.44zm4.678-4.064h2.592V298h-2.592v-11.2zm15.442 11.2l-.016-6.72-3.296 5.536h-1.168l-3.28-5.392V298h-2.432v-11.2h2.144l4.192 6.96 4.128-6.96h2.128l.032 11.2h-2.432zm12.465-2.4h-5.2l-.992 2.4h-2.656l4.992-11.2h2.56l5.008 11.2h-2.72l-.992-2.4zm-.816-1.968l-1.776-4.288-1.776 4.288h3.552zM158.636 298l-2.16-3.12h-2.384V298H151.5v-11.2h4.848c.992 0 1.851.165 2.576.496.736.331 1.301.8 1.696 1.408.395.608.592 1.328.592 2.16 0 .832-.203 1.552-.608 2.16-.395.597-.96 1.056-1.696 1.376l2.512 3.6h-2.784zm-.048-7.136c0-.629-.203-1.109-.608-1.44-.405-.341-.997-.512-1.776-.512h-2.112v3.904h2.112c.779 0 1.371-.171 1.776-.512.405-.341.608-.821.608-1.44zm9.897 3.168V298h-2.592v-4l-4.336-7.2h2.752l2.992 4.976 2.992-4.976h2.544l-4.352 7.232z" fill="#00B8B8"/><path d="M8.576 385.696h2.08v1.744H8.368l-.32 2.56H6.24l.32-2.56H4.208l-.32 2.56H2.096l.32-2.56H.32v-1.744h2.304l.336-2.592H.864v-1.744h2.304l.32-2.56H5.28l-.32 2.56h2.352l.32-2.56h1.792l-.32 2.56h2.08l.016 1.744H8.896l-.32 2.592zm-1.808 0l.336-2.592H4.752l-.336 2.592h2.352zm13.74 2.192V390h-8.464v-1.68l4.32-4.08c.458-.437.768-.811.928-1.12.16-.32.24-.635.24-.944 0-.448-.155-.789-.464-1.024-.299-.245-.742-.368-1.328-.368-.491 0-.934.096-1.328.288a2.48 2.48 0 00-.992.832l-1.888-1.216c.437-.651 1.04-1.157 1.808-1.52.768-.373 1.648-.56 2.64-.56.832 0 1.557.139 2.176.416.629.267 1.114.651 1.456 1.152.352.491.528 1.072.528 1.744 0 .608-.128 1.179-.384 1.712-.256.533-.752 1.141-1.488 1.824l-2.576 2.432h4.816zm6.43-4.912a4.37 4.37 0 011.952.432c.587.288 1.05.699 1.392 1.232.341.523.512 1.131.512 1.824 0 .747-.187 1.403-.56 1.968a3.7 3.7 0 01-1.536 1.312c-.64.299-1.355.448-2.144.448-1.568 0-2.795-.48-3.68-1.44-.886-.96-1.328-2.331-1.328-4.112 0-1.269.24-2.357.72-3.264.48-.907 1.147-1.595 2-2.064.864-.469 1.861-.704 2.992-.704a6.89 6.89 0 011.712.208c.555.128 1.024.315 1.408.56l-.96 1.904c-.555-.373-1.253-.56-2.096-.56-.95 0-1.701.277-2.256.832-.555.555-.854 1.36-.896 2.416.661-.661 1.584-.992 2.768-.992zm-.528 5.28c.555 0 1.003-.149 1.344-.448.352-.299.528-.704.528-1.216s-.176-.917-.528-1.216c-.341-.309-.8-.464-1.376-.464-.566 0-1.03.16-1.392.48a1.503 1.503 0 00-.544 1.2c0 .491.176.891.528 1.2.352.309.832.464 1.44.464zm14.029-9.456v1.68l-4.16 9.52h-2.816l4.016-9.088h-3.712v1.824h-2.304V378.8h8.976zm6.276 4.56c.982.16 1.734.528 2.256 1.104.523.565.784 1.269.784 2.112a3.38 3.38 0 01-.512 1.808c-.341.544-.864.981-1.568 1.312-.693.331-1.546.496-2.56.496a9.105 9.105 0 01-2.336-.304c-.757-.213-1.402-.512-1.936-.896l1.008-1.984c.427.32.918.571 1.472.752a5.936 5.936 0 001.728.256c.651 0 1.163-.123 1.536-.368.374-.256.56-.613.56-1.072 0-.917-.698-1.376-2.096-1.376h-1.184v-1.712l2.304-2.608h-4.768v-2.08h7.84v1.68l-2.528 2.88zm12.864-4.56v1.68L55.42 390h-2.816l4.017-9.088h-3.712v1.824h-2.305V378.8h8.977zm6.277 4.56c.981.16 1.733.528 2.256 1.104.523.565.784 1.269.784 2.112a3.38 3.38 0 01-.512 1.808c-.341.544-.864.981-1.568 1.312-.693.331-1.547.496-2.56.496a9.1 9.1 0 01-2.336-.304c-.757-.213-1.403-.512-1.936-.896l1.008-1.984c.427.32.917.571 1.472.752a5.936 5.936 0 001.728.256c.65 0 1.163-.123 1.536-.368.373-.256.56-.613.56-1.072 0-.917-.699-1.376-2.096-1.376h-1.184v-1.712l2.304-2.608h-4.768v-2.08h7.84v1.68l-2.528 2.88zm8.976 1.136h4.528v2h-4.528v-2zm14.88 5.696a9.431 9.431 0 01-2.577-.352c-.821-.245-1.483-.56-1.984-.944l.88-1.952c.48.352 1.05.635 1.712.848a6.44 6.44 0 001.984.32c.736 0 1.28-.107 1.632-.32.352-.224.528-.517.528-.88a.803.803 0 00-.32-.656 2.202 2.202 0 00-.8-.432c-.32-.107-.757-.224-1.312-.352-.853-.203-1.552-.405-2.096-.608a3.47 3.47 0 01-1.408-.976c-.384-.448-.576-1.045-.576-1.792 0-.651.176-1.237.528-1.76.352-.533.88-.955 1.584-1.264.715-.309 1.584-.464 2.608-.464.715 0 1.413.085 2.096.256a6.2 6.2 0 011.792.736l-.8 1.968c-1.035-.587-2.07-.88-3.104-.88-.725 0-1.264.117-1.616.352-.341.235-.512.544-.512.928s.198.672.592.864c.405.181 1.019.363 1.84.544.854.203 1.552.405 2.096.608a3.415 3.415 0 011.392.96c.395.437.592 1.029.592 1.776a3.06 3.06 0 01-.544 1.76c-.352.523-.885.939-1.6 1.248-.715.309-1.584.464-2.608.464zm15.194-2.272V390h-8.672v-11.2h8.464v2.08H98.81v2.432h5.2v2.016h-5.2v2.592h6.096zm7.391 2.272c-1.141 0-2.176-.245-3.104-.736a5.705 5.705 0 01-2.176-2.064c-.522-.885-.784-1.883-.784-2.992s.262-2.101.784-2.976a5.56 5.56 0 012.176-2.064c.928-.501 1.968-.752 3.12-.752.971 0 1.846.171 2.624.512.79.341 1.451.832 1.984 1.472l-1.664 1.536c-.757-.875-1.696-1.312-2.816-1.312-.693 0-1.312.155-1.856.464-.544.299-.97.72-1.28 1.264-.298.544-.448 1.163-.448 1.856 0 .693.15 1.312.448 1.856.31.544.736.971 1.28 1.28.544.299 1.163.448 1.856.448 1.12 0 2.059-.443 2.816-1.328l1.664 1.536a5.173 5.173 0 01-1.984 1.488c-.789.341-1.669.512-2.64.512zm11.564 0c-1.162 0-2.213-.251-3.152-.752a5.672 5.672 0 01-2.192-2.064c-.522-.885-.784-1.877-.784-2.976s.262-2.085.784-2.96a5.64 5.64 0 012.192-2.08c.939-.501 1.99-.752 3.152-.752 1.163 0 2.208.251 3.136.752a5.633 5.633 0 012.192 2.08c.534.875.8 1.861.8 2.96s-.266 2.091-.8 2.976a5.665 5.665 0 01-2.192 2.064c-.928.501-1.973.752-3.136.752zm0-2.208c.662 0 1.259-.149 1.792-.448.534-.309.95-.736 1.248-1.28.31-.544.464-1.163.464-1.856 0-.693-.154-1.312-.464-1.856a3.156 3.156 0 00-1.248-1.264 3.507 3.507 0 00-1.792-.464c-.661 0-1.258.155-1.792.464a3.28 3.28 0 00-1.264 1.264c-.298.544-.448 1.163-.448 1.856 0 .693.15 1.312.448 1.856.31.544.731.971 1.264 1.28a3.603 3.603 0 001.792.448zm18.348-9.184V390h-2.128l-5.584-6.8v6.8h-2.56v-11.2h2.144l5.568 6.8v-6.8h2.56zm2.65 0h5.088c1.216 0 2.288.235 3.216.704.939.459 1.664 1.109 2.176 1.952.523.843.784 1.824.784 2.944 0 1.12-.261 2.101-.784 2.944-.512.843-1.237 1.499-2.176 1.968-.928.459-2 .688-3.216.688h-5.088v-11.2zm4.96 9.072c1.12 0 2.011-.309 2.672-.928.672-.629 1.008-1.477 1.008-2.544s-.336-1.909-1.008-2.528c-.661-.629-1.552-.944-2.672-.944h-2.368v6.944h2.368zm15.479-.272h-5.2l-.992 2.4h-2.656l4.992-11.2h2.56l5.008 11.2h-2.72l-.992-2.4zm-.816-1.968l-1.776-4.288-1.776 4.288h3.552zM177.308 390l-2.16-3.12h-2.384V390h-2.592v-11.2h4.848c.992 0 1.85.165 2.576.496.736.331 1.301.8 1.696 1.408.394.608.592 1.328.592 2.16 0 .832-.203 1.552-.608 2.16-.395.597-.96 1.056-1.696 1.376l2.512 3.6h-2.784zm-.048-7.136c0-.629-.203-1.109-.608-1.44-.406-.341-.998-.512-1.776-.512h-2.112v3.904h2.112c.778 0 1.37-.171 1.776-.512.405-.341.608-.821.608-1.44zm9.897 3.168V390h-2.592v-4l-4.336-7.2h2.752l2.992 4.976 2.992-4.976h2.544l-4.352 7.232z" fill="#267373"/><defs><linearGradient id="paint0_linear" x1="0" y1="40" x2="640" y2="40" gradientUnits="userSpaceOnUse"><stop stop-color="#fff"/><stop offset="1" stop-color="#fff" stop-opacity="0"/></linearGradient><linearGradient id="paint1_linear" x1="0" y1="132" x2="640" y2="132" gradientUnits="userSpaceOnUse"><stop stop-color="#fff"/><stop offset="1" stop-color="#fff" stop-opacity="0"/></linearGradient><linearGradient id="paint2_linear" x1="0" y1="224" x2="640" y2="224" gradientUnits="userSpaceOnUse"><stop stop-color="#fff"/><stop offset="1" stop-color="#fff" stop-opacity="0"/></linearGradient><linearGradient id="paint3_linear" x1="0" y1="316" x2="640" y2="320" gradientUnits="userSpaceOnUse"><stop stop-color="#00B8B8"/><stop offset="1" stop-color="#00B8B8" stop-opacity="0"/></linearGradient><linearGradient id="paint4_linear" x1="0" y1="408" x2="640" y2="408" gradientUnits="userSpaceOnUse"><stop stop-color="#267373"/><stop offset="1" stop-color="#267373" stop-opacity="0"/></linearGradient></defs></svg>