<svg width="1440" height="680" viewBox="0 0 1440 680" fill="none" xmlns="http://www.w3.org/2000/svg">
<g clip-path="url(#clip0)">
<rect width="1440" height="680" fill="white"/>
<g clip-path="url(#clip1)">
<path opacity="0.56" d="M160.807 502.843H152.523V613.014H160.807V502.843Z" fill="#419D9A"/>
<path d="M1448.82 614.752H-9.0127V685.214H1448.82V614.752Z" fill="#C2FEB6"/>
<path d="M745.623 515.277C747.36 509.26 749.899 503.511 752.972 497.896C756.045 492.414 759.519 487.066 763.527 482.252C767.535 477.305 772.212 472.893 777.155 469.016C782.233 465.138 787.711 461.929 793.589 459.389C799.468 456.848 805.748 455.244 812.028 454.308C815.234 453.773 818.441 453.773 821.514 453.506L826.324 453.64C827.126 453.64 827.927 453.64 828.729 453.773L831.134 454.041C843.827 455.244 855.986 459.121 867.209 464.603C855.318 460.726 843.159 457.784 831.001 457.116L828.729 456.982C827.927 456.982 827.259 456.982 826.458 456.982H821.915C818.842 457.25 815.769 457.383 812.829 458.052C809.756 458.453 806.817 459.255 803.878 459.924L799.602 461.261C798.132 461.795 796.796 462.33 795.326 462.999C784.103 467.678 774.216 475.3 765.932 484.258C757.648 493.483 750.7 503.912 745.623 515.277Z" fill="#419D9A"/>
<path opacity="0.48" d="M-9.0127 614.753V423.021H65.2751V513.673L244.314 334.376L315.796 405.774V541.617H350V489.071H389.95L453.415 425.562L490.025 462.063H678.416V352.693H746.157V595.499L954.991 386.654L987.86 419.679V485.327H1008.7V275.814H1044.11V595.499H1074.31V512.202H1113.59V609.271H1177.05V285.44H1211.93V385.451H1244.79V455.244H1274.72V520.625V595.499H1308.66V398.153L1338.46 368.337L1369.99 399.757V599.51H1401.65H1477.28V629.727L-9.0127 614.753Z" fill="#E1EDFF"/>
<path d="M524.63 614.753C524.63 614.753 501.649 590.151 507.261 608.335C507.261 608.335 483.211 569.561 472.388 588.413C472.388 588.413 468.647 598.441 475.595 606.597C475.595 606.597 476.263 615.421 468.113 609.003C459.963 602.452 465.975 614.753 465.975 614.753C465.975 614.753 446.735 605.26 451.812 614.753H524.63Z" fill="#419D9A"/>
<path d="M1393.24 649.917C1393.24 649.917 1372.39 627.722 1377.47 644.034C1377.47 644.034 1355.69 608.87 1345.94 625.984C1345.94 625.984 1342.6 635.075 1348.88 642.429C1348.88 642.429 1349.41 650.451 1342.06 644.568C1334.71 638.685 1340.06 649.783 1340.06 649.783C1340.06 649.783 1322.69 641.226 1327.23 649.783H1393.24V649.917Z" fill="#59DD99"/>
<path d="M768.471 657.003C768.471 657.003 747.627 634.808 752.704 651.12C752.704 651.12 730.926 615.956 721.172 633.07C721.172 633.07 717.832 642.162 724.112 649.516C724.112 649.516 724.646 657.538 717.297 651.655C709.949 645.772 715.293 656.869 715.293 656.869C715.293 656.869 697.924 648.312 702.467 656.869H768.471V657.003Z" fill="#59DD99"/>
<path d="M1146.06 613.817C1146.06 613.817 1133.36 600.313 1136.44 610.207C1136.44 610.207 1123.07 588.814 1117.2 599.243C1117.2 599.243 1115.19 604.859 1118.93 609.271C1118.93 609.271 1119.33 614.218 1114.79 610.608C1110.25 606.998 1113.59 613.817 1113.59 613.817C1113.59 613.817 1103.03 608.602 1105.7 613.817H1146.06Z" fill="#59DD99"/>
<path d="M260.882 649.917C260.882 649.917 246.184 634.14 249.792 645.772C249.792 645.772 234.293 620.903 227.479 632.936C227.479 632.936 225.074 639.354 229.483 644.569C229.483 644.569 229.884 650.184 224.673 646.039C219.462 641.894 223.337 649.783 223.337 649.783C223.337 649.783 211.045 643.633 214.251 649.783H260.882V649.917Z" fill="#59DD99"/>
<path d="M102.019 613.817C102.019 613.817 85.852 596.569 89.8603 609.271C89.8603 609.271 72.8917 581.995 65.2759 595.232C65.2759 595.232 62.7373 602.318 67.5473 608.067C67.5473 608.067 67.9481 614.218 62.2028 609.672C56.4575 605.126 60.7331 613.683 60.7331 613.683C60.7331 613.683 47.2384 606.998 50.7123 613.683L102.019 613.817Z" fill="#419D9A"/>
<path d="M872.954 614.752H943.501C948.177 605.527 929.739 614.752 929.739 614.752C929.739 614.752 935.484 602.853 927.601 609.137C919.718 615.421 920.386 606.864 920.386 606.864C926.933 599.109 923.459 589.349 923.459 589.349C913.038 571.165 889.789 608.602 889.789 608.602C895.134 591.087 872.954 614.752 872.954 614.752Z" fill="#419D9A"/>
<path d="M616.021 614.752H358.686" stroke="#419D9A" stroke-miterlimit="10"/>
<path d="M559.637 577.182C554.827 571.031 551.353 563.945 548.948 556.591C546.543 549.104 545.741 541.215 546.81 533.327C548.013 525.572 551.219 518.085 556.029 511.934L557.9 509.661C558.568 508.859 559.236 508.191 559.904 507.522C561.24 506.051 562.71 504.848 564.18 503.511C565.649 502.174 567.253 501.104 568.722 499.901C570.326 498.831 571.929 497.762 573.532 496.692C567.253 501.238 561.507 506.453 556.965 512.737C552.422 518.887 549.349 526.107 548.28 533.728C547.211 541.349 548.013 549.104 550.151 556.458C551.219 560.201 552.556 563.811 554.159 567.288C555.629 570.497 557.499 573.973 559.637 577.182Z" fill="black"/>
<path d="M650.759 562.608C651.427 560.335 652.095 558.196 652.496 555.923C653.03 553.65 653.297 551.377 653.431 549.104C653.832 544.558 653.698 539.879 652.629 535.466C651.694 531.054 649.69 526.776 647.018 523.032C645.682 521.16 644.078 519.422 642.341 517.951C640.604 516.347 638.734 515.01 636.863 513.673C641.005 515.812 644.88 518.62 647.819 522.363C650.759 525.973 652.897 530.386 653.965 535.065C655.034 539.745 655.168 544.424 654.5 549.104C653.965 553.784 652.763 558.33 650.759 562.608Z" fill="#231F20"/>
<path d="M600.388 585.471C596.78 584.803 593.307 583.466 590.233 581.594C587.027 579.722 584.221 577.316 581.95 574.374C579.678 571.433 577.674 568.224 576.605 564.747C575.937 563.009 575.67 561.137 575.269 559.399C575.002 558.463 575.135 557.527 575.002 556.725C575.002 555.789 574.868 554.853 574.868 554.051C575.269 555.789 575.403 557.661 575.937 559.399C576.471 561.137 576.872 562.876 577.54 564.48C578.743 567.823 580.613 570.898 582.885 573.706C585.156 576.513 587.828 578.92 590.768 580.926L593.039 582.396C593.841 582.797 594.643 583.332 595.444 583.6C597.048 584.268 598.785 584.937 600.388 585.471Z" fill="#231F20"/>
<path d="M630.851 318.332L623.636 319V326.22L642.208 321.139L630.851 318.332Z" fill="#223149"/>
<path d="M668.529 344.671C668.529 344.671 751.769 379.3 755.911 382.643C759.919 385.986 756.846 393.206 755.243 395.746C753.64 398.286 711.953 465.406 711.953 465.406L705.94 462.464L704.471 448.425C704.471 448.425 716.095 404.169 722.241 400.426L730.658 397.35L721.974 397.885L673.072 381.841L651.694 349.484C651.828 349.351 658.241 346.81 668.529 344.671Z" fill="#223149"/>
<path d="M756.93 298.026C759.046 297.712 759.963 292.068 758.976 285.421C757.99 278.774 755.474 273.64 753.357 273.955C751.24 274.27 750.324 279.913 751.311 286.56C752.297 293.207 754.813 298.341 756.93 298.026Z" fill="#3A4B6C"/>
<path d="M791.853 263.513L796.93 269.931C797.598 270.867 797.197 272.204 795.995 272.337C793.456 272.872 789.582 273.541 787.978 273.273C786.508 273.006 787.31 268.059 788.245 264.315C788.646 262.577 790.784 262.176 791.853 263.513Z" fill="#F9AF6B"/>
<path d="M787.978 253.619C787.978 253.619 789.314 238.778 776.086 240.115C762.725 241.452 759.519 236.505 759.519 236.505C759.519 236.505 763.527 243.457 767.001 243.457C767.001 243.457 753.907 245.998 748.83 237.842C748.83 237.842 751.636 246.666 756.579 246.934C756.579 246.934 743.218 252.148 738.274 245.597C738.274 245.597 741.08 252.549 747.894 252.549C747.894 252.549 744.153 254.287 743.218 258.299C743.218 258.299 744.153 256.828 746.425 256.828C746.425 256.828 747.894 259.769 745.356 260.304C745.356 260.304 746.425 261.507 748.295 261.24L752.437 269.262L759.385 278.755L787.978 253.619Z" fill="#3A4B6C"/>
<path d="M764.863 248.404L748.696 256.159L760.32 280.761L770.074 261.374L764.863 248.404Z" fill="#3A4B6C"/>
<path d="M716.496 326.888L738.809 346.543C738.809 346.543 742.818 345.072 746.559 349.752L735.87 348.816L707.812 328.76L716.496 326.888Z" fill="#E09558"/>
<path d="M623.636 322.209C623.636 322.209 627.11 308.705 654.367 348.682C654.367 348.682 665.724 343.468 673.206 346.543L735.603 318.732C737.339 317.93 738.943 316.727 740.145 315.122C746.425 306.967 763.126 280.894 720.371 277.552L631.653 315.791C631.653 315.791 618.693 316.861 620.697 323.412L623.636 322.209Z" fill="#419D9A"/>
<path d="M773.414 414.197L719.435 483.857L701.799 485.327" stroke="#419D9A" stroke-miterlimit="10"/>
<path d="M701.799 499.099L720.772 510.731L721.172 508.191L706.208 495.088L701.799 499.099Z" fill="#58DBD4"/>
<path d="M709.414 464.068L711.952 488.135L725.715 503.645L721.172 508.191L704.871 497.895L705.94 462.33L709.414 464.068Z" fill="#231F20"/>
<path d="M752.571 353.629C752.571 354.699 752.17 355.635 751.502 356.303C751.235 356.571 750.834 356.972 750.299 357.106L735.869 367.401C736.537 366.732 737.072 365.663 737.072 364.593C737.072 362.454 735.335 360.716 733.197 360.716C732.663 360.716 731.995 360.849 731.594 361.117L746.157 350.822C746.825 350.153 747.761 349.752 748.696 349.752C750.834 349.752 752.571 351.49 752.571 353.629Z" fill="#887878"/>
<path d="M606.534 371.278L690.575 512.202L694.717 510.731L615.352 371.278H606.534Z" fill="#58DBD4"/>
<path d="M826.591 614.753C868.874 614.753 903.151 580.452 903.151 538.141C903.151 495.829 868.874 461.528 826.591 461.528C784.309 461.528 750.032 495.829 750.032 538.141C750.032 580.452 784.309 614.753 826.591 614.753Z" stroke="#3A4B6C" stroke-width="3" stroke-miterlimit="10"/>
<path d="M598.517 614.753C640.8 614.753 675.076 580.452 675.076 538.141C675.076 495.829 640.8 461.528 598.517 461.528C556.235 461.528 521.958 495.829 521.958 538.141C521.958 580.452 556.235 614.753 598.517 614.753Z" stroke="#3A4B6C" stroke-width="3" stroke-miterlimit="10"/>
<path d="M727.052 539.477L685.365 539.879L616.288 540.547L588.63 540.814C588.23 540.814 587.695 540.814 587.294 540.681C582.885 540.012 579.545 536.269 579.545 531.723C579.545 527.979 581.816 524.77 585.023 523.433C585.157 523.433 586.894 523.166 589.699 522.764C591.837 522.497 594.509 522.096 597.716 521.695H597.85C605.198 520.759 615.085 519.422 626.175 518.219H626.71C650.893 515.411 680.421 512.737 700.864 512.87C702.601 512.469 704.338 512.202 706.208 512.202C708.747 512.202 711.285 512.603 713.557 513.539C717.432 515.01 720.772 517.416 723.31 520.759C723.444 520.893 723.578 521.026 723.578 521.16C725.181 523.567 726.517 526.642 727.052 530.519C727.586 533.06 727.586 536.135 727.052 539.477Z" fill="#419D9A"/>
<path d="M727.051 539.478L726.784 540.815H726.65L727.051 539.478Z" stroke="#419D9A" stroke-width="0.25" stroke-miterlimit="10"/>
<path d="M726.384 542.152L725.849 543.355L725.448 543.221L726.116 542.018L726.384 542.152Z" stroke="#419D9A" stroke-width="0.25" stroke-miterlimit="10"/>
<path d="M725.315 544.558L724.647 545.762L724.112 545.361L724.78 544.291L725.315 544.558Z" stroke="#419D9A" stroke-width="0.25" stroke-miterlimit="10"/>
<path d="M723.978 546.965L723.177 548.035L722.375 547.5L723.31 546.43L723.978 546.965Z" stroke="#419D9A" stroke-width="0.25" stroke-miterlimit="10"/>
<path d="M722.375 549.104L721.44 550.174L720.505 549.238L721.44 548.436L722.375 549.104Z" stroke="#419D9A" stroke-width="0.25" stroke-miterlimit="10"/>
<path d="M720.371 551.11L719.302 552.046L718.5 550.842L719.569 550.04L720.371 551.11Z" stroke="#419D9A" stroke-width="0.25" stroke-miterlimit="10"/>
<path d="M718.234 552.848L717.031 553.517L716.229 552.18L717.432 551.511L718.234 552.848Z" stroke="#419D9A" stroke-width="0.25" stroke-miterlimit="10"/>
<path d="M715.829 554.319L714.626 554.853L713.958 553.115L715.027 552.714L715.829 554.319Z" stroke="#419D9A" stroke-width="0.25" stroke-miterlimit="10"/>
<path d="M713.289 555.388L711.953 555.79L711.419 553.918L712.621 553.517L713.289 555.388Z" stroke="#419D9A" stroke-width="0.25" stroke-miterlimit="10"/>
<path d="M710.618 556.191L709.282 556.458L708.881 554.319L710.217 554.185L710.618 556.191Z" stroke="#419D9A" stroke-width="0.25" stroke-miterlimit="10"/>
<path d="M707.812 556.592L706.476 556.725V554.452H707.678L707.812 556.592Z" stroke="#419D9A" stroke-width="0.25" stroke-miterlimit="10"/>
<path d="M705.006 556.725L703.67 556.592L703.937 554.185L705.14 554.319L705.006 556.725Z" stroke="#419D9A" stroke-width="0.25" stroke-miterlimit="10"/>
<path d="M702.2 556.458L700.864 556.19L701.399 553.784L702.601 554.051L702.2 556.458Z" stroke="#419D9A" stroke-width="0.25" stroke-miterlimit="10"/>
<path d="M699.528 555.789L698.191 555.388L698.993 552.982L700.196 553.383L699.528 555.789Z" stroke="#419D9A" stroke-width="0.25" stroke-miterlimit="10"/>
<path d="M696.856 554.854L695.52 554.185L696.722 551.912L697.791 552.447L696.856 554.854Z" stroke="#419D9A" stroke-width="0.25" stroke-miterlimit="10"/>
<path d="M694.317 553.516L693.114 552.714L694.584 550.575L695.653 551.377L694.317 553.516Z" stroke="#419D9A" stroke-width="0.25" stroke-miterlimit="10"/>
<path d="M691.912 551.912L690.843 550.976L692.58 549.104L693.515 549.906L691.912 551.912Z" stroke="#419D9A" stroke-width="0.25" stroke-miterlimit="10"/>
<path d="M689.908 550.04L688.839 548.971L690.843 547.232L691.778 548.168L689.908 550.04Z" stroke="#419D9A" stroke-width="0.25" stroke-miterlimit="10"/>
<path d="M687.903 547.901L687.102 546.831L689.373 545.227L690.041 546.296L687.903 547.901Z" stroke="#419D9A" stroke-width="0.25" stroke-miterlimit="10"/>
<path d="M686.434 545.628L685.766 544.291L688.037 543.087L688.705 544.157L686.434 545.628Z" stroke="#419D9A" stroke-width="0.25" stroke-miterlimit="10"/>
<path d="M685.098 543.088L684.563 541.75L687.102 540.814L687.503 542.018L685.098 543.088Z" stroke="#419D9A" stroke-width="0.25" stroke-miterlimit="10"/>
<path d="M684.162 540.414V540.28L683.628 538.675H685.365H686.701V541.216H685.365L686.567 539.611H686.701L684.162 540.414Z" stroke="#419D9A" stroke-width="0.25" stroke-miterlimit="10"/>
<path d="M688.037 538.675H689.373V541.216H688.037V538.675Z" stroke="#419D9A" stroke-width="0.25" stroke-miterlimit="10"/>
<path d="M690.709 538.675H692.045V541.082L690.709 541.216V538.675Z" stroke="#419D9A" stroke-width="0.25" stroke-miterlimit="10"/>
<path d="M693.382 538.675H694.718V541.082H693.382V538.675Z" stroke="#419D9A" stroke-width="0.25" stroke-miterlimit="10"/>
<path d="M696.054 538.675H697.39V540.948L696.054 541.082V538.675Z" stroke="#419D9A" stroke-width="0.25" stroke-miterlimit="10"/>
<path d="M698.726 538.675H700.062V540.948H698.726V538.675Z" stroke="#419D9A" stroke-width="0.25" stroke-miterlimit="10"/>
<path d="M701.398 538.675H702.734V540.815H701.398V538.675Z" stroke="#419D9A" stroke-width="0.25" stroke-miterlimit="10"/>
<path d="M704.07 538.809H705.406V540.681L704.07 540.815V538.809Z" stroke="#419D9A" stroke-width="0.25" stroke-miterlimit="10"/>
<path d="M706.742 538.809H708.078V540.681H706.742V538.809Z" stroke="#419D9A" stroke-width="0.25" stroke-miterlimit="10"/>
<path d="M709.415 538.809L710.751 538.943V540.547H709.415V538.809Z" stroke="#419D9A" stroke-width="0.25" stroke-miterlimit="10"/>
<path d="M712.087 538.943H713.423V540.413H712.087V538.943Z" stroke="#419D9A" stroke-width="0.25" stroke-miterlimit="10"/>
<path d="M714.76 538.943L716.096 539.076V540.28H714.76V538.943Z" stroke="#419D9A" stroke-width="0.25" stroke-miterlimit="10"/>
<path d="M717.432 539.076L718.768 539.21V540.012L717.432 540.146V539.076Z" stroke="#419D9A" stroke-width="0.25" stroke-miterlimit="10"/>
<path d="M720.104 539.21H721.44V539.879L720.104 540.012V539.21Z" stroke="#419D9A" stroke-width="0.25" stroke-miterlimit="10"/>
<path d="M722.776 539.344H724.112V539.745L722.776 539.879V539.344Z" stroke="#419D9A" stroke-width="0.25" stroke-miterlimit="10"/>
<path d="M725.448 539.478H726.784V539.611H725.448V539.478Z" stroke="#419D9A" stroke-width="0.25" stroke-miterlimit="10"/>
<path d="M727.052 539.477L685.365 539.879L616.288 540.547L588.63 540.814C588.23 540.814 587.695 540.814 587.294 540.681C582.885 540.012 579.545 536.269 579.545 531.723L725.582 526.375L727.052 530.252C727.586 533.06 727.586 536.135 727.052 539.477Z" fill="#2A7C78"/>
<path d="M588.63 540.948C588.63 540.948 669.865 559.266 700.195 554.72" stroke="#419D9A" stroke-miterlimit="10" stroke-dasharray="1 1"/>
<path d="M711.953 534.129L698.592 536.402C698.592 536.402 704.471 538.675 709.147 536.937L711.953 534.129Z" fill="#223149"/>
<path d="M700.329 564.881H698.993L699.661 570.898C699.661 570.898 736.404 578.385 749.899 576.781C749.899 576.781 755.243 576.513 758.316 575.577V572.77L709.949 561.94L700.329 564.881Z" fill="#58DBD4"/>
<path d="M614.684 356.571H594.375L589.432 365.796H623.636L614.684 356.571Z" fill="#887878"/>
<path d="M589.432 365.796L590.501 371.278H626.041L623.636 365.796H589.432Z" fill="#6D5C5C"/>
<path d="M764.061 275.814C764.061 275.814 763.928 279.691 749.364 279.424L751.502 297.474C751.502 297.474 769.94 286.911 778.091 290.521L764.061 275.814Z" fill="#E09558"/>
<path d="M787.042 252.014C790.65 258.031 797.33 272.738 788.512 290.12C787.844 291.457 786.508 292.259 785.038 292.259C780.762 292.259 771.41 291.858 765.798 289.05C763.794 288.114 762.324 286.243 761.656 284.103C761.122 282.098 760.587 279.156 761.523 276.215C761.523 276.215 754.575 275.413 756.98 266.187C758.984 258.7 763.259 262.844 764.729 264.583C764.863 264.716 765.13 264.583 765.13 264.449C764.596 260.839 763.527 246.666 781.698 248.538C783.836 248.806 785.84 250.009 787.042 252.014Z" fill="#F9AF6B"/>
<path d="M721.306 275.814L613.615 328.226C610.008 330.097 606.667 328.359 605.064 323.813C603.194 318.599 601.724 310.176 603.995 297.073C605.465 289.585 609.34 282.9 613.615 280.226L632.855 268.861L631.92 275.546C631.92 275.546 696.855 247.335 711.686 261.775C726.918 276.75 721.306 275.814 721.306 275.814Z" fill="#3A4B6C"/>
<path d="M629.515 320.337C629.515 320.337 586.759 329.696 617.222 362.454L681.089 449.227C681.089 449.227 676.813 456.447 677.748 461.394C678.55 466.208 698.592 536.402 698.592 536.402L711.953 534.129L703.669 435.59L654.233 348.682C654.366 348.682 645.013 331.568 629.515 320.337Z" fill="#3A4B6C"/>
<path d="M704.871 535.333L707.811 552.714C707.811 552.714 711.017 554.185 715.827 551.778L711.952 534.129L704.871 535.333Z" fill="#F9AF6B"/>
<path d="M707.811 552.714L704.872 553.784C704.872 553.784 700.329 562.341 700.329 565.015C700.329 565.015 732.396 574.641 752.304 574.24L758.316 572.903C758.316 572.903 758.584 569.828 751.636 569.694C751.636 569.694 721.84 557.394 721.44 556.19C721.039 554.853 721.172 552.179 718.5 552.045C715.828 551.912 713.957 554.318 707.811 552.714Z" fill="#223149"/>
<path d="M554.826 463.4C560.171 460.057 566.049 457.517 572.062 455.512C578.074 453.506 584.221 452.035 590.634 451.233C596.914 450.431 603.461 450.297 609.74 450.966C616.154 451.634 622.433 453.239 628.446 455.512L630.717 456.447L631.786 456.849L632.855 457.383L637.131 459.523L641.273 462.063C641.941 462.464 642.609 462.865 643.277 463.4L645.281 464.871L647.285 466.342C647.953 466.876 648.488 467.411 649.156 467.946C650.358 469.016 651.561 470.085 652.763 471.155C655.034 473.428 657.306 475.701 659.31 478.241C667.46 488.002 673.606 499.366 677.882 511.132C672.003 500.035 665.323 489.472 656.905 480.38C654.901 477.974 652.496 475.968 650.358 473.829C649.156 472.759 647.953 471.823 646.751 470.887C646.216 470.353 645.548 469.952 645.014 469.417L643.143 468.08C641.807 467.277 640.738 466.208 639.402 465.539L635.527 463.266L631.385 461.261L630.316 460.726L629.248 460.325L627.11 459.523C615.753 455.11 603.327 453.64 591.035 454.709C578.609 455.378 566.317 458.453 554.826 463.4Z" fill="#419D9A"/>
<path d="M649.69 443.612L585.156 523.567L656.237 454.575L649.69 443.612Z" fill="#58DBD4"/>
<path d="M570.593 442.409C570.593 442.409 620.697 451.367 635.929 438.665L570.593 442.409Z" fill="#3A4B6C"/>
<path d="M715.828 515.277L788.913 428.37L792.521 434.386L723.31 520.625L715.828 515.277Z" fill="#58DBD4"/>
<path d="M735.87 367.401L735.068 367.935" stroke="#887878" stroke-miterlimit="10"/>
<path d="M731.594 361.117L730.525 361.919" stroke="#887878" stroke-miterlimit="10"/>
<path d="M775.151 423.958L828.596 543.622L844.896 447.623L838.216 446.821L826.592 528.246L781.164 422.086L775.151 423.958Z" fill="#58DBD4"/>
<path d="M710.35 575.577L733.464 579.722" stroke="#59DD99" stroke-width="3" stroke-miterlimit="10"/>
<path d="M751.502 356.303L763.393 367.401L757.381 385.852L778.358 423.021" stroke="#419D9A" stroke-miterlimit="10"/>
<path d="M775.151 398.153H872.821L849.84 447.89C849.84 447.89 818.575 442.275 800.805 447.89L775.151 398.153Z" fill="#887878"/>
<path d="M737.74 364.593C737.74 365.93 737.206 367.133 736.271 367.935C735.469 368.738 734.267 369.273 733.064 369.273C730.525 369.273 728.388 367.267 728.388 364.593C728.388 363.256 728.922 362.186 729.724 361.384C730.125 360.983 730.525 360.715 731.06 360.448C731.594 360.181 732.262 360.047 733.064 360.047C735.736 359.913 737.74 362.053 737.74 364.593Z" fill="#594747"/>
<path d="M738.141 281.429L752.571 274.477C752.571 274.477 747.761 292.66 757.381 298.276H748.429C748.429 298.142 743.619 287.58 738.141 281.429Z" fill="#419D9A"/>
<path d="M787.978 253.619L771.009 255.491L773.682 264.85L769.139 268.193V273.273H767.535L764.062 262.978L764.863 248.404L776.487 247.335H786.107L787.978 253.619Z" fill="#3A4B6C"/>
<path d="M716.763 279.29C721.84 279.424 726.784 280.226 731.594 282.232C733.999 283.301 736.27 284.772 738.007 287.179C738.408 287.713 738.809 288.382 738.942 289.184C739.076 289.452 739.076 289.986 739.209 290.387C739.343 290.789 739.209 291.19 739.209 291.591C739.076 293.195 738.541 294.532 737.873 295.736C736.537 298.142 734.667 300.148 732.662 301.752C730.658 303.49 728.52 304.961 726.249 306.298C721.706 308.972 716.896 310.844 711.953 312.181C707.009 313.518 701.932 314.454 696.855 314.855C691.777 315.256 686.7 315.256 681.623 314.855C676.546 314.454 671.602 313.652 666.659 312.582C661.715 311.513 656.905 310.042 652.229 308.304C657.172 309.106 662.116 310.042 667.059 310.577C672.003 311.112 676.947 311.513 681.89 311.646C686.834 311.646 691.777 311.513 696.587 310.978C701.397 310.443 706.341 309.641 711.017 308.304C715.694 306.967 720.237 305.229 724.512 302.956C726.65 301.886 728.654 300.549 730.525 299.078C732.395 297.607 734.132 296.003 735.335 294.131C735.869 293.195 736.404 292.259 736.537 291.323C736.537 290.789 736.537 290.521 736.537 289.986C736.404 289.452 736.27 289.05 736.003 288.516C734.934 286.644 733.063 285.173 730.925 283.97C726.516 281.563 721.706 280.226 716.763 279.29Z" fill="#C2FEB6"/>
<path d="M689.239 297.34C689.239 297.34 710.083 304.426 713.556 315.925C713.556 315.925 747.093 299.613 730.659 288.114C714.225 276.616 700.329 288.649 689.239 297.34Z" fill="#58DBD4"/>
<path d="M716.266 314.649C718.011 311.909 713.371 305.828 705.902 301.066C698.434 296.305 690.966 294.667 689.221 297.407C687.477 300.148 692.117 306.229 699.585 310.99C707.053 315.751 714.522 317.389 716.266 314.649Z" fill="#3A4B6C"/>
<path d="M696.454 297.073C695.652 296.671 694.717 296.805 694.049 297.474L667.46 319C667.46 319 665.724 321.006 667.46 323.011C669.197 324.883 718.5 352.827 729.99 354.966C730.258 354.966 730.525 355.367 730.792 355.501C732.796 356.571 741.214 361.384 739.477 365.796C739.477 365.796 745.623 365.128 746.291 361.25C746.959 357.373 747.894 348.682 735.469 347.88C735.469 347.88 700.462 325.418 687.502 319.936C687.502 319.936 702.199 317.797 710.617 310.042C710.483 310.042 712.354 304.025 696.454 297.073Z" fill="#F9AF6B"/>
<path d="M617.357 397.618L633.657 398.821C634.192 398.821 634.593 399.089 634.726 399.623L636.73 404.036C637.131 404.972 636.463 405.908 635.528 405.908H622.835C622.434 405.908 622.167 405.774 621.9 405.506L616.154 399.891C615.486 398.955 616.154 397.484 617.357 397.618Z" fill="#419D9A"/>
<path d="M623.369 407.512H636.997" stroke="#419D9A" stroke-miterlimit="10"/>
<path d="M638.333 409.384H624.705" stroke="#3A4B6C" stroke-width="0.5" stroke-miterlimit="10"/>
<path d="M626.71 518.219L616.288 540.681L587.294 540.814C582.885 540.146 579.545 536.402 579.545 531.856C579.545 528.113 581.816 524.904 585.023 523.567C585.157 523.567 586.894 523.299 589.699 522.898C591.837 522.631 594.509 522.23 597.716 521.829H597.85L626.175 518.352L626.71 518.219Z" fill="#58DBD4"/>
<path d="M628.313 518.085L619.762 538.14L633.524 517.416L628.313 518.085Z" fill="#58DBD4"/>
<path d="M635.661 517.149L625.507 532.257L638.868 516.881L635.661 517.149Z" fill="#B3FDFF"/>
<path d="M775.151 398.153H872.955" stroke="#FFFFE1" stroke-width="4" stroke-miterlimit="10"/>
<path d="M802.675 400.96L800.805 447.89L776.621 400.96H802.675Z" fill="#635353"/>
<path d="M849.84 447.89V400.96H871.619L849.84 447.89Z" fill="#B2A3A3"/>
<path d="M720.37 556.859C719.969 557.126 719.569 557.26 719.168 557.527L719.034 557.26C719.569 557.126 719.969 556.993 720.37 556.859Z" fill="url(#paint0_linear)"/>
<path d="M717.965 558.062C717.564 558.196 717.163 558.33 716.629 558.463L716.495 557.929C716.896 557.795 717.297 557.795 717.831 557.661L717.965 558.062Z" fill="url(#paint1_linear)"/>
<path d="M715.427 558.731L714.091 558.864L713.957 558.196L715.293 558.062L715.427 558.731Z" fill="url(#paint2_linear)"/>
<path d="M712.754 558.998C712.353 558.998 711.819 558.998 711.418 558.998V558.463C711.819 558.463 712.353 558.463 712.754 558.463V558.998Z" fill="url(#paint3_linear)"/>
<path d="M710.082 558.731C709.681 558.731 709.147 558.597 708.746 558.463V558.33C709.147 558.33 709.681 558.33 710.082 558.33V558.731Z" fill="url(#paint4_linear)"/>
<path d="M701.799 563.812L703.135 564.079V564.346L701.799 563.812Z" fill="url(#paint5_linear)"/>
<path d="M704.471 564.346L705.674 564.614V565.148L704.338 564.747L704.471 564.346Z" fill="url(#paint6_linear)"/>
<path d="M707.01 564.881L708.346 565.149L708.212 565.817L706.876 565.416L707.01 564.881Z" fill="url(#paint7_linear)"/>
<path d="M709.682 565.55L710.885 565.817L710.751 566.62L709.415 566.218L709.682 565.55Z" fill="url(#paint8_linear)"/>
<path d="M712.22 566.084L713.556 566.352L713.289 567.288L711.953 567.02L712.22 566.084Z" fill="url(#paint9_linear)"/>
<path d="M714.892 566.619L716.095 566.887L715.828 568.09L714.625 567.689L714.892 566.619Z" fill="url(#paint10_linear)"/>
<path d="M717.431 567.154L718.767 567.555L718.5 568.625L717.164 568.357L717.431 567.154Z" fill="url(#paint11_linear)"/>
<path d="M720.103 567.823L721.306 568.09L721.039 569.293L719.836 569.026L720.103 567.823Z" fill="url(#paint12_linear)"/>
<path d="M722.642 568.357L723.978 568.625L723.711 569.962L722.375 569.561L722.642 568.357Z" fill="url(#paint13_linear)"/>
<path d="M725.314 568.892L726.516 569.16L726.249 570.497L725.047 570.229L725.314 568.892Z" fill="url(#paint14_linear)"/>
<path d="M727.853 569.427L729.189 569.828L728.922 571.031L727.586 570.764L727.853 569.427Z" fill="url(#paint15_linear)"/>
<path d="M730.525 570.095L731.728 570.363L731.594 571.566L730.258 571.299L730.525 570.095Z" fill="url(#paint16_linear)"/>
<path d="M733.064 570.63L734.4 570.898L734.133 572.101L732.797 571.834L733.064 570.63Z" fill="url(#paint17_linear)"/>
<path d="M735.736 571.165L737.072 571.432L736.805 572.502L735.469 572.235L735.736 571.165Z" fill="url(#paint18_linear)"/>
<path d="M738.274 571.7L739.61 571.834L739.477 572.903L738.141 572.636L738.274 571.7Z" fill="url(#paint19_linear)"/>
<path d="M740.947 572.101L742.283 572.368L742.15 573.171L740.813 573.037L740.947 572.101Z" fill="url(#paint20_linear)"/>
<path d="M743.619 572.502L744.955 572.77L744.822 573.438L743.485 573.305L743.619 572.502Z" fill="url(#paint21_linear)"/>
<path d="M746.292 572.903L747.494 573.037V573.438H746.158L746.292 572.903Z" fill="url(#paint22_linear)"/>
<path d="M748.83 573.171H750.166V573.305L748.83 573.438V573.171Z" fill="url(#paint23_linear)"/>
<path d="M882.308 531.188C883.777 538.809 883.644 546.697 882.441 554.452C881.105 562.207 878.299 569.694 873.756 576.112C869.08 582.53 862.934 587.611 855.719 590.953L853.047 592.157C852.111 592.558 851.176 592.825 850.241 593.226C848.37 593.895 846.5 594.43 844.629 594.964C842.759 595.499 840.754 595.767 838.884 596.168C837.013 596.435 835.009 596.702 833.139 596.836C840.755 595.633 848.37 593.627 855.185 590.151C861.999 586.675 868.145 581.728 872.554 575.444C876.963 569.16 879.769 561.94 881.239 554.318C882.04 550.575 882.441 546.697 882.575 542.82C882.976 538.943 882.842 535.065 882.308 531.188Z" fill="#231F20"/>
<path d="M794.525 502.575C792.922 504.18 791.319 505.918 789.849 507.79C788.379 509.528 787.043 511.533 785.841 513.405C783.436 517.283 781.431 521.561 780.362 525.973C779.16 530.386 779.026 535.065 779.694 539.477C780.095 541.75 780.63 544.023 781.565 546.163C782.367 548.302 783.436 550.441 784.504 552.447C781.699 548.703 779.694 544.424 778.625 539.745C777.69 535.065 777.824 530.252 779.026 525.706C780.229 521.16 782.367 516.748 785.039 513.004C787.711 508.993 790.918 505.383 794.525 502.575Z" fill="#231F20"/>
<path d="M849.84 505.115C852.779 507.388 855.184 510.196 857.055 513.271C859.059 516.347 860.395 519.823 861.197 523.433C861.998 527.043 862.132 530.787 861.464 534.397C861.33 536.268 860.662 538.007 860.262 539.745C859.994 540.681 859.593 541.483 859.193 542.285C858.792 543.087 858.525 543.89 858.124 544.825C858.525 543.087 859.193 541.349 859.593 539.611C859.861 537.873 860.395 536.135 860.529 534.263C860.93 530.653 860.662 527.177 859.994 523.7C859.326 520.224 857.99 516.881 856.253 513.806L854.917 511.533C854.383 510.865 853.982 510.062 853.314 509.26C852.245 507.79 851.176 506.453 849.84 505.115Z" fill="black"/>
<path opacity="0.67" d="M1044.11 168.851C1077.83 168.851 1105.17 141.494 1105.17 107.748C1105.17 74.0021 1077.83 46.6455 1044.11 46.6455C1010.39 46.6455 983.05 74.0021 983.05 107.748C983.05 141.494 1010.39 168.851 1044.11 168.851Z" fill="#FFF200"/>
<path d="M768.471 275.814C768.471 275.814 776.487 277.953 779.427 286.644L768.471 275.814Z" fill="url(#paint24_linear)"/>
<path d="M797.197 271L792.788 272.739C792.922 272.872 797.331 272.872 797.197 271Z" fill="url(#paint25_linear)"/>
<path d="M759.652 266.053C760.454 265.92 761.122 266.053 761.924 266.321C762.592 266.588 763.394 266.989 763.794 267.658C764.195 268.326 764.329 269.129 764.329 269.931C764.329 270.332 764.195 270.733 764.195 271.134L763.928 272.204C764.062 271.402 764.062 270.733 764.062 269.931C764.062 269.262 763.794 268.46 763.393 267.925C762.993 267.257 762.458 266.856 761.79 266.588C761.122 266.187 760.32 266.053 759.652 266.053Z" fill="url(#paint26_linear)"/>
<path d="M761.79 273.541C763.118 273.541 764.195 272.224 764.195 270.599C764.195 268.975 763.118 267.658 761.79 267.658C760.462 267.658 759.385 268.975 759.385 270.599C759.385 272.224 760.462 273.541 761.79 273.541Z" fill="url(#paint27_linear)"/>
<path opacity="0.19" d="M402.243 140.773C298.293 148.662 193.81 149.464 89.7266 143.18C108.165 142.645 126.47 142.377 144.908 141.843C143.572 139.837 142.236 137.832 140.766 135.826C147.981 129.408 157.735 125.531 167.355 125.263C164.282 117.107 168.156 106.812 175.906 102.801C183.655 98.7901 194.344 101.33 199.288 108.55C208.373 99.4586 223.07 96.3834 235.095 101.197C217.993 94.3779 242.845 78.1997 248.857 76.1942C261.283 71.9156 283.463 75.2582 294.152 83.4142C298.828 87.0242 300.03 95.5812 294.82 98.389C302.569 97.3193 310.318 95.9823 318.202 94.9127C321.675 101.063 320.874 109.486 316.197 114.968C321.275 112.562 328.222 115.236 330.093 120.584C335.304 116.038 341.984 111.759 348.665 113.364C355.345 115.102 358.018 126.333 351.471 128.606C352.807 124.06 359.487 122.188 362.961 125.397C366.435 128.74 364.965 135.559 360.423 137.163C375.521 139.169 390.619 141.174 405.717 143.046" stroke="#3A4B6C" stroke-width="0.75" stroke-miterlimit="10"/>
<path opacity="0.26" d="M834.074 149.062C744.554 154.812 654.768 154.544 565.382 147.993C581.148 147.859 597.048 147.592 612.814 147.458C611.611 145.72 610.409 143.982 609.206 142.244C615.486 136.762 623.77 133.553 632.187 133.419C629.649 126.333 632.989 117.642 639.67 114.166C646.35 110.689 655.436 113.096 659.711 119.38C666.793 112.561 685.632 105.341 689.106 119.781C688.17 113.765 693.649 107.882 699.661 107.079C705.674 106.277 711.82 109.754 715.293 114.834C718.901 119.915 720.103 126.065 720.237 132.216C721.44 126.868 726.918 122.857 732.262 123.258C737.607 123.792 742.417 128.606 742.684 134.088C741.348 127.937 743.352 120.985 748.162 116.84C752.972 112.829 760.454 112.027 765.799 115.637C771.143 119.247 773.414 126.6 770.608 132.349C776.22 129.007 780.629 122.99 787.978 124.862C793.723 126.333 795.861 136.093 790.249 137.965C791.452 134.088 797.197 132.483 800.137 135.291C803.076 138.099 801.74 143.982 797.865 145.319C810.825 147.191 823.786 149.062 836.746 150.934" stroke="#3A4B6C" stroke-width="0.75" stroke-miterlimit="10"/>
<path opacity="0.26" d="M610.276 29.1304C609.607 20.5734 601.724 5.06373 591.036 6.80188C586.092 7.6041 582.217 11.4815 579.946 15.8937C577.674 20.306 576.873 25.253 576.205 30.2C577.541 21.2419 570.059 11.8826 560.973 11.3478C545.474 10.4119 540.664 26.9911 548.146 37.8211C546.009 34.746 541.199 34.0774 538.393 36.3504C535.453 38.6234 535.052 43.4367 537.457 46.2445C535.988 43.9715 532.38 43.7041 530.376 45.576C528.372 47.4478 528.639 51.0578 530.777 52.6623C521.424 55.3363 511.938 58.1441 502.585 60.8182C510.067 58.6789 519.153 59.7485 526.769 59.8822C536.389 60.1497 546.142 60.2834 555.762 60.1497C573.132 60.016 590.367 58.8126 607.603 58.0104C614.685 57.6093 622.301 60.016 629.516 60.5508C638.067 61.2193 646.751 61.353 655.169 59.6148C643.812 60.2834 632.321 58.8126 621.499 55.3363C624.037 54.2667 623.77 50.1219 621.632 48.3837C619.361 46.6456 616.422 46.6456 613.482 46.6456C616.422 47.1804 619.762 45.8434 621.232 43.1693C622.701 40.4952 621.632 36.7515 618.96 35.2808C616.288 33.81 612.413 35.4145 611.745 38.356C611.211 35.8156 610.543 33.2752 609.607 30.7348C609.741 30.2 609.741 29.5315 609.875 28.9967" stroke="#3A4B6C" stroke-width="0.75" stroke-miterlimit="10"/>
<path d="M599.987 104.941C597.181 103.871 594.108 103.069 591.569 101.865C589.565 100.796 588.229 99.5924 585.69 100.261C583.018 100.929 577.273 107.615 574.467 106.278C578.208 108.016 583.152 106.812 585.557 103.47C585.289 104.539 586.358 105.743 587.561 105.743C588.763 105.743 589.565 104.406 589.298 103.336C592.237 105.475 596.379 106.144 599.987 104.941Z" fill="#3A4B6C"/>
<path d="M270.101 112.963C268.899 111.224 269.834 108.951 267.295 107.614C264.89 106.411 265.291 107.882 263.421 108.417C260.481 109.085 257.274 105.341 254.068 107.614C251.93 109.085 252.464 112.428 251.396 114.3C253.132 111.091 256.874 109.085 260.481 109.353C260.615 110.422 261.416 111.358 262.352 111.893C262.352 110.155 264.623 109.085 266.226 109.62C267.963 110.021 269.166 111.625 270.101 112.963Z" fill="url(#paint28_linear)"/>
<path d="M223.337 136.227C223.605 134.89 225.208 133.954 226.678 133.954C228.147 133.82 229.484 134.355 230.82 134.756C233.626 135.425 236.699 135.425 239.638 134.89C238.703 136.494 236.699 137.297 234.828 137.163C232.957 137.029 231.221 136.361 229.484 135.692C230.152 136.762 228.949 138.099 227.747 138.099C226.544 138.099 225.475 137.297 224.54 136.628C222.135 139.971 218.394 142.11 214.252 142.511C215.989 140.506 218.26 138.767 220.665 137.564C222.803 136.494 224.006 134.756 226.411 134.355" fill="url(#paint29_linear)"/>
<path d="M253.4 118.311C248.055 123.124 242.31 124.595 235.496 122.857C233.492 122.322 231.621 121.52 229.884 120.584C229.082 120.049 225.742 118.177 225.742 117.241C225.876 120.183 227.479 122.99 230.018 124.461C232.556 125.932 234.16 125.531 236.832 124.595C237.099 125.13 237.233 125.798 237.634 126.199C238.034 126.6 238.702 127.002 239.237 126.734C239.905 126.6 240.306 125.798 240.974 125.665C241.642 125.531 242.176 125.798 242.844 125.798C244.448 125.798 245.917 125.263 247.387 124.595C248.723 123.926 250.059 122.99 251.128 121.921C251.93 120.985 252.464 119.113 253.4 118.311Z" fill="url(#paint30_linear)"/>
<path d="M1008.7 135.96C1004.43 141.04 999.35 143.18 992.803 142.511C990.933 142.377 989.062 141.843 987.325 141.174C986.524 140.907 983.183 139.57 983.05 138.634C983.584 141.308 985.455 143.581 987.993 144.65C990.532 145.72 992.002 145.052 994.273 143.848C994.54 144.383 994.808 144.918 995.342 145.185C995.743 145.586 996.411 145.72 996.945 145.453C997.48 145.185 997.747 144.517 998.282 144.249C998.816 143.982 999.484 144.249 1000.02 144.116C1001.49 143.848 1002.82 143.18 1004.03 142.511C1005.23 141.709 1006.3 140.639 1007.1 139.57C1007.77 138.5 1007.9 136.896 1008.7 135.96Z" fill="#3A4B6C"/>
<path opacity="0.26" d="M1203.78 123.525C1203.11 113.898 1196.43 105.341 1187.74 101.063C1179.06 96.9181 1168.77 96.9181 1159.68 99.9933C1153.14 102.266 1146.86 106.277 1143.52 112.294C1140.18 118.444 1140.31 126.734 1145.25 131.681C1143.25 128.873 1138.71 128.071 1136.04 130.344C1133.23 132.483 1132.83 137.029 1135.23 139.703C1133.76 137.564 1130.42 137.297 1128.55 139.035C1126.68 140.773 1126.95 144.249 1128.95 145.72C1120.14 148.26 1111.32 150.934 1102.37 153.475C1109.45 151.335 1118 152.405 1125.21 152.673C1134.3 152.94 1143.38 152.94 1152.6 152.94C1169.04 152.806 1185.2 151.737 1201.5 150.934C1208.19 150.667 1215.4 152.806 1222.21 153.341C1230.23 154.01 1238.38 154.143 1246.4 152.405C1235.71 153.074 1224.89 151.737 1214.6 148.394C1217 147.324 1216.74 143.447 1214.73 141.843C1212.59 140.238 1209.79 140.238 1207.12 140.238C1209.92 140.773 1213.13 139.436 1214.33 136.895C1215.67 134.355 1214.73 130.745 1212.19 129.408C1209.65 128.071 1206.05 129.542 1205.38 132.35C1204.98 129.943 1204.31 127.536 1203.38 125.263C1203.51 124.728 1203.51 124.194 1203.64 123.659" stroke="#3A4B6C" stroke-width="0.75" stroke-miterlimit="10"/>
<path d="M1113.59 91.3026C1112.12 89.9655 1112.65 87.6926 1109.98 87.0241C1107.58 86.3555 1108.24 87.6926 1106.64 88.4948C1104.1 89.6981 1100.49 86.8904 1097.96 89.5644C1096.22 91.3026 1097.42 94.2441 1096.89 96.1159C1097.82 92.907 1100.76 90.2329 1104.24 89.8318C1104.64 90.7678 1105.44 91.4363 1106.37 91.7037C1105.97 90.0992 1107.84 88.6285 1109.45 88.8959C1111.05 89.0296 1112.39 90.0992 1113.59 91.3026Z" fill="#3A4B6C"/>
<path opacity="0.24" d="M178.845 386.52L237.634 327.691" stroke="#6FAB65" stroke-miterlimit="10"/>
<path opacity="0.33" d="M324.748 404.971V526.508" stroke="#6FAB65" stroke-miterlimit="10"/>
<path opacity="0.33" d="M404.514 462.33L454.484 412.325L492.964 452.169H532.513" stroke="#6FAB65" stroke-miterlimit="10"/>
<path d="M761.122 278.22C761.122 278.22 752.17 288.115 759.519 293.596C759.519 293.596 765.932 290.789 769.272 290.387C769.139 290.387 760.053 289.452 761.122 278.22Z" fill="url(#paint31_linear)"/>
<path d="M710.484 310.042C710.484 310.042 696.454 302.688 686.434 303.624L694.049 297.474C694.049 297.474 695.118 296.404 697.657 297.607C697.523 297.607 710.884 302.554 710.484 310.042Z" fill="url(#paint32_linear)"/>
<path opacity="0.36" d="M689.506 301.084L657.974 320.337C657.974 320.337 655.703 323.412 659.043 325.418C662.383 327.29 685.364 341.061 685.364 341.061L692.846 337.719L667.728 323.412C667.728 323.412 665.055 321.139 667.193 318.866" fill="url(#paint33_linear)"/>
<g opacity="0.36">
<path opacity="0.36" d="M635.795 317.396C638.066 319 640.204 320.872 642.342 322.744C644.346 324.616 646.35 326.755 648.087 328.894C649.824 331.033 651.561 333.306 652.897 335.847C654.233 338.387 655.436 340.927 655.837 343.735C655.569 343.067 655.302 342.398 655.035 341.73C654.768 341.061 654.367 340.526 654.1 339.858C653.832 339.189 653.432 338.654 653.164 337.986C652.764 337.317 652.496 336.783 652.096 336.248C650.626 333.975 648.889 331.702 647.152 329.563C645.415 327.423 643.544 325.284 641.674 323.279C640.739 322.209 639.803 321.273 638.868 320.203C637.665 319.401 636.73 318.331 635.795 317.396Z" fill="url(#paint34_linear)"/>
</g>
<g opacity="0.36">
<path opacity="0.36" d="M655.703 334.376C656.238 335.044 656.638 335.98 656.906 336.783C657.173 337.585 657.44 338.521 657.574 339.323C657.707 340.259 657.707 341.061 657.707 341.997C657.574 342.933 657.306 343.869 656.772 344.537C656.772 342.799 656.505 341.195 656.238 339.457C656.104 337.852 655.837 336.248 655.703 334.376Z" fill="url(#paint35_linear)"/>
</g>
<g opacity="0.36">
<path opacity="0.36" d="M738.943 282.365C739.344 283.836 739.745 285.307 740.279 286.777C740.814 288.248 741.214 289.585 742.016 290.922C742.684 292.259 743.486 293.463 744.421 294.666C745.356 295.736 746.559 296.672 747.895 297.474C746.425 297.206 744.955 296.404 743.753 295.335C742.55 294.265 741.615 292.928 740.947 291.457C740.279 289.986 739.745 288.516 739.477 287.045C739.077 285.44 738.809 283.97 738.943 282.365Z" fill="url(#paint36_linear)"/>
</g>
<path d="M724.646 284.905C724.646 284.905 695.519 289.451 708.345 298.543C708.345 298.543 700.195 293.73 694.049 293.596C694.049 293.596 710.617 278.755 724.646 284.905Z" fill="url(#paint37_linear)"/>
<path d="M637.398 326.889C637.398 326.889 631.92 320.872 628.981 320.471C626.041 320.07 609.206 327.156 606.935 336.649C604.797 346.008 608.672 351.223 612.279 356.571L681.222 449.227C681.222 449.227 686.968 452.169 691.911 448.425C691.911 448.425 687.101 449.094 684.696 446.821C682.158 444.548 608.538 342.532 637.398 326.889Z" fill="url(#paint38_linear)"/>
<path d="M684.563 446.821C684.563 446.821 680.421 462.063 701.799 528.246L709.014 527.578L697.122 531.188L685.899 491.21L678.417 463.935C678.417 464.069 674.676 451.768 684.563 446.821Z" fill="url(#paint39_linear)"/>
<path d="M669.732 361.518L688.705 368.604L707.678 375.824L745.624 390.264L746.292 390.532L745.757 390.933L742.283 393.072L742.15 392.537H746.559H747.227L746.826 393.072C743.085 397.484 739.477 402.164 736.004 406.843C732.53 411.523 729.189 416.336 725.983 421.15C724.379 423.556 722.91 426.097 721.306 428.503C719.837 431.044 718.367 433.584 717.031 436.124C714.359 441.339 711.954 446.553 710.617 452.303C711.82 446.553 714.225 441.205 716.897 435.991C719.436 430.776 722.509 425.696 725.716 420.882C728.922 415.935 732.262 411.122 735.736 406.442C739.21 401.763 742.818 397.083 746.559 392.671L746.826 393.206H742.417H741.348L742.283 392.671L745.757 390.532V391.066L707.812 376.359L688.839 369.005L669.732 361.518Z" fill="black"/>
<g opacity="0.37">
<path opacity="0.37" d="M701.799 438.665C700.997 440.269 700.329 441.874 699.527 443.478C698.859 445.083 698.058 446.687 697.523 448.291C696.855 449.896 696.321 451.634 695.786 453.239C695.252 454.977 694.851 456.581 694.717 458.453C694.584 456.715 694.851 454.843 695.252 453.105C695.653 451.367 696.187 449.629 696.855 448.024C697.523 446.42 698.191 444.815 699.127 443.211C699.928 441.606 700.863 440.136 701.799 438.665Z" fill="#CFE3FF"/>
</g>
<g opacity="0.37">
<path opacity="0.37" d="M701.799 440.537C700.597 444.013 699.661 447.489 698.86 451.099C698.058 454.709 697.39 458.185 696.989 461.795C696.588 465.405 696.321 469.015 696.187 472.625C696.054 476.235 696.321 479.846 696.588 483.589C696.321 481.717 696.054 479.979 695.92 478.107C695.786 476.235 695.653 474.497 695.653 472.625C695.519 469.015 695.786 465.272 696.187 461.662C696.588 458.052 697.256 454.442 698.191 450.832C699.26 447.356 700.329 443.879 701.799 440.537Z" fill="#CFE3FF"/>
</g>
<g opacity="0.37">
<path opacity="0.37" d="M632.989 348.682L640.071 359.78L647.152 371.011L661.315 393.473L675.344 416.069L682.292 427.3L689.24 438.665L682.025 427.434L674.943 416.203L660.78 393.874L646.885 371.278L639.803 360.047L632.989 348.682Z" fill="#CFE3FF"/>
</g>
<path opacity="0.37" d="M698.993 529.048C698.993 529.048 704.07 527.444 709.014 527.578" stroke="#CFE3FF" stroke-width="0.5" stroke-miterlimit="10"/>
<path d="M653.565 449.762L656.237 454.576L588.096 520.625" fill="#2A7C78"/>
<path d="M723.31 520.625L792.52 434.386" stroke="#2A7C78" stroke-miterlimit="10"/>
<path opacity="0.36" d="M714.358 264.583C714.358 264.583 611.076 315.256 602.926 311.914C602.926 311.914 602.392 328.894 612.145 329.429L722.241 275.947C722.107 276.081 722.107 271.669 714.358 264.583Z" fill="url(#paint40_linear)"/>
<path opacity="0.36" d="M604.529 323.145C604.529 323.145 714.224 277.686 719.702 270.466C719.702 270.466 722.374 274.343 722.107 276.081L612.011 329.563C612.011 329.429 605.999 328.76 604.529 323.145Z" fill="url(#paint41_linear)"/>
<path d="M641.941 276.081C641.941 276.081 639.937 284.638 640.605 295.736L641.941 276.081Z" fill="url(#paint42_linear)"/>
<path d="M632.855 269.262C632.855 269.262 648.621 262.844 652.763 267.658L632.054 275.947L632.855 269.262Z" fill="url(#paint43_linear)"/>
<path d="M603.728 356.972C600.254 357.239 596.78 357.373 593.306 357.507C589.832 357.64 586.358 357.64 582.884 357.64C579.41 357.64 575.937 357.64 572.463 357.507L567.252 357.373C565.515 357.239 563.778 357.239 562.041 357.106C563.778 356.972 565.515 356.838 567.252 356.838L572.463 356.705C575.937 356.571 579.41 356.571 582.884 356.571C586.358 356.571 589.832 356.571 593.306 356.705C596.78 356.571 600.254 356.704 603.728 356.972Z" fill="#887878"/>
<path opacity="0.33" d="M1060.54 275.948V583.199" stroke="#6FAB65" stroke-miterlimit="10"/>
<path d="M158.135 502.843C188.537 502.843 213.182 478.18 213.182 447.757C213.182 417.333 188.537 392.671 158.135 392.671C127.733 392.671 103.087 417.333 103.087 447.757C103.087 478.18 127.733 502.843 158.135 502.843Z" fill="#C8DB5A"/>
<path d="M156.665 496.425V461.929L189.801 428.771" stroke="white" stroke-miterlimit="10"/>
<path d="M133.016 457.651L156.264 480.915" stroke="white" stroke-miterlimit="10"/>
<path d="M787.978 253.619C788.245 252.014 788.646 250.41 788.779 248.672C788.913 247.869 788.913 247.067 788.913 246.265C788.913 245.463 788.779 244.661 788.245 243.858C788.779 244.527 789.047 245.329 789.18 246.131C789.314 246.934 789.18 247.869 789.18 248.672C788.913 250.41 788.512 252.014 787.978 253.619Z" fill="#3A4B6C"/>
<path d="M765.664 243.591C762.324 243.591 758.984 243.056 755.911 241.987C754.307 241.452 752.838 240.783 751.502 239.714C750.166 238.778 748.963 237.441 748.295 235.97C749.097 237.441 750.299 238.51 751.769 239.446C753.105 240.382 754.708 241.051 756.178 241.586C757.781 242.12 759.385 242.521 760.988 242.923C762.458 243.324 764.061 243.457 765.664 243.591Z" fill="#3A4B6C"/>
<path d="M657.573 289.318C657.573 289.452 657.707 289.585 657.707 289.853C657.84 289.986 657.841 290.254 657.974 290.387C657.841 290.254 657.84 289.986 657.707 289.853C657.707 289.719 657.707 289.452 657.573 289.318Z" fill="white"/>
<path d="M636.73 289.853C633.123 293.329 629.382 296.805 625.64 300.282C624.705 301.217 624.304 301.084 623.77 299.88C623.503 299.078 623.235 298.276 622.968 297.474C622.701 296.805 622.835 296.27 623.369 295.869C626.041 293.463 628.713 291.19 631.252 288.783C631.519 288.516 632.054 288.382 631.787 287.847C631.653 287.312 631.118 287.58 630.718 287.446C627.11 287.312 623.636 287.045 620.029 286.911C619.227 286.911 618.826 286.644 618.693 285.842C618.425 285.039 618.025 284.103 617.757 283.301C617.49 282.365 617.757 281.964 618.693 282.098C624.438 282.499 630.183 282.9 635.928 283.301C636.463 283.301 636.73 283.569 636.864 284.103C636.997 284.638 637.265 285.307 637.532 285.842C638.734 288.649 639.002 287.713 636.73 289.853Z" fill="white"/>
<path d="M677.482 274.477C676.947 274.209 676.814 273.942 677.348 273.407C677.883 272.872 678.016 272.07 678.016 271.268C677.749 268.861 675.745 267.524 673.34 268.193C671.737 268.728 670.267 269.262 668.664 269.797C668.129 269.931 668.129 270.198 668.263 270.599C669.198 273.273 670.267 276.081 671.202 278.755C671.336 279.29 671.603 279.29 672.137 279.156C674.142 278.488 674.142 278.488 673.474 276.482C673.34 276.215 672.939 275.814 673.474 275.413C673.874 275.145 674.409 275.145 674.81 275.546C675.344 276.081 676.012 276.482 676.68 277.017C676.947 277.285 677.215 277.285 677.615 277.151C678.417 276.883 679.219 276.616 680.154 276.215C679.219 275.68 678.284 275.012 677.482 274.477ZM675.077 271.535C675.21 272.07 675.077 272.605 674.542 272.739C673.874 273.006 673.206 273.273 672.538 273.541C672.271 273.675 672.137 273.541 672.137 273.273C672.004 273.006 672.004 272.872 671.87 272.605C671.737 272.204 671.603 271.936 671.603 271.803C671.603 271.803 671.603 271.669 671.737 271.669C671.737 271.669 671.737 271.669 671.87 271.669C671.87 271.669 671.87 271.669 672.004 271.669H672.137H672.271C672.405 271.669 672.672 271.535 672.939 271.402C673.073 271.402 673.073 271.402 673.206 271.268C673.474 271.134 673.741 271.134 674.008 271.001C674.142 271.001 674.142 271.001 674.275 271.001C674.542 270.733 674.943 271.001 675.077 271.535Z" fill="white"/>
<path d="M658.242 277.418C658.509 278.354 658.91 279.29 659.177 280.226C659.711 282.098 659.043 283.702 657.44 284.772C656.638 285.307 655.703 285.574 654.768 285.708C652.764 285.975 651.16 285.173 650.492 283.301C649.824 281.563 649.156 279.691 648.488 277.819C648.355 277.418 648.354 277.285 648.755 277.017C650.893 276.081 650.893 276.081 651.561 278.22C651.962 279.424 652.363 280.493 652.764 281.563C653.298 282.766 654.1 283.167 655.169 282.766C656.238 282.365 656.638 281.563 656.104 280.226C655.569 278.622 655.035 277.151 654.501 275.546C654.233 275.012 654.367 274.744 654.901 274.61C656.906 273.942 656.906 273.942 657.574 275.814L658.242 277.418Z" fill="white"/>
<path d="M640.605 302.555C641.273 304.56 641.273 304.56 639.135 304.426C636.597 304.293 633.924 304.025 631.386 303.892C629.515 303.758 629.916 304.025 629.248 302.153C628.58 301.351 629.114 300.683 629.916 299.88C632.187 297.875 634.192 295.869 636.463 293.864C637.131 293.195 637.398 293.329 637.665 294.131C638.467 296.404 638.601 295.736 636.864 297.206C635.661 298.276 634.325 299.479 633.123 300.549C632.989 300.683 632.588 300.816 632.722 301.084C632.855 301.485 633.123 301.351 633.39 301.351C635.394 301.485 637.265 301.619 639.269 301.619C640.07 301.619 640.338 301.886 640.605 302.555Z" fill="white"/>
<path d="M648.889 287.179C648.221 287.847 647.419 288.382 646.751 288.516C645.148 289.051 643.678 289.184 642.209 288.783C641.674 288.649 641.541 288.516 641.808 287.981C641.808 287.847 641.941 287.713 641.941 287.58C642.342 286.376 642.342 286.376 643.812 286.51C644.614 286.644 645.415 286.51 646.217 286.109C646.618 285.975 647.019 285.708 646.885 285.307C646.751 284.906 646.351 284.772 645.95 284.772C645.148 284.772 644.213 284.906 643.411 284.906C641.674 284.906 640.605 284.371 640.204 283.034C639.804 281.563 640.338 280.226 641.674 279.424C643.144 278.488 644.747 278.221 646.484 278.488C647.019 278.622 647.286 278.755 647.019 279.424C647.019 279.558 646.885 279.691 646.885 279.825C646.751 280.761 646.484 281.162 645.415 280.895C644.747 280.761 644.079 280.895 643.411 281.162C643.144 281.296 642.877 281.563 642.877 281.964C642.877 282.365 643.277 282.499 643.678 282.499C644.346 282.499 644.881 282.365 645.549 282.365C646.083 282.365 646.618 282.232 647.152 282.365C648.221 282.499 649.156 282.9 649.557 283.97C649.824 285.173 649.691 286.243 648.889 287.179Z" fill="white"/>
<path d="M663.186 271.936C661.849 272.338 660.513 272.872 659.177 273.273C658.643 273.407 658.643 273.675 658.776 274.209C659.311 275.546 659.712 276.883 660.246 278.22C660.781 279.558 661.181 281.028 661.716 282.365C661.849 282.633 661.849 283.034 662.25 282.766C662.918 282.499 663.854 282.499 664.388 281.83C664.655 281.429 664.121 280.761 663.987 280.092C663.987 279.959 663.854 279.825 663.854 279.691C663.586 279.29 663.854 279.023 664.254 278.889C664.789 278.622 665.457 278.488 665.991 278.087C667.327 277.418 668.129 276.349 667.996 274.744C667.862 272.471 665.724 271.134 663.186 271.936ZM664.789 276.482C664.254 276.883 663.453 277.418 662.918 277.151C662.25 276.75 662.117 275.814 662.117 275.012C661.983 274.61 662.785 274.61 662.918 274.477C663.319 274.343 663.586 274.209 663.987 274.209C664.522 274.209 664.922 274.477 665.056 275.012C665.323 275.546 665.323 276.081 664.789 276.482Z" fill="white"/>
<path d="M649.022 292.393C648.087 290.922 646.35 290.655 643.945 291.992C643.01 292.527 644.212 293.463 644.212 294.131C644.212 294.265 644.346 294.532 644.346 294.666L645.014 296.672C645.148 296.939 645.148 297.206 645.548 297.073C646.35 296.672 647.419 296.538 648.087 296.003C649.423 295.067 649.69 293.73 649.022 292.393ZM647.553 294.666C647.285 295.067 646.884 295.335 646.35 295.335C645.816 295.201 645.949 294.532 645.682 294.265C645.682 294.131 645.548 293.998 645.548 293.998C645.548 293.596 644.88 293.062 645.415 292.794C645.949 292.393 646.751 292.393 647.285 293.062C647.82 293.463 647.953 294.131 647.553 294.666Z" fill="white"/>
<path d="M651.962 289.318C651.561 288.917 650.359 289.318 650.359 289.853C650.225 291.725 650.092 293.596 649.958 295.468C651.161 295.067 651.16 295.067 651.561 294.131C651.695 293.73 653.432 293.062 653.699 293.329C654.367 294.265 655.035 293.463 655.837 293.329C654.501 291.992 653.298 290.655 651.962 289.318ZM652.497 292.259C652.497 292.393 651.962 292.527 651.829 292.527C651.294 292.126 651.829 291.725 651.695 291.19C651.962 291.591 652.63 291.725 652.497 292.259Z" fill="white"/>
<path d="M664.789 286.644C664.521 287.58 664.521 288.516 664.922 289.452C665.189 289.986 665.056 290.254 664.521 290.388C664.12 290.521 663.586 290.789 663.452 289.986C663.319 288.783 662.25 288.115 661.315 287.446C660.914 287.045 660.379 286.778 659.979 286.376C661.448 285.039 662.116 286.376 663.052 287.045C663.319 286.376 663.319 285.708 663.452 285.173C663.72 284.505 664.388 284.638 665.056 284.371C665.189 285.173 665.056 285.842 664.789 286.644Z" fill="white"/>
<path d="M662.383 290.388C662.517 290.922 662.383 291.056 661.849 291.323C660.914 291.591 659.978 291.992 659.177 292.259C658.776 292.393 658.642 292.259 658.509 291.858C658.375 291.323 658.242 290.922 657.974 290.388C657.841 290.254 657.841 289.986 657.707 289.853C657.707 289.719 657.573 289.585 657.573 289.318C657.44 288.917 657.306 288.516 657.173 288.115C656.772 287.312 657.173 287.045 657.841 286.911C658.242 286.778 658.375 286.911 658.509 287.312C658.776 288.115 659.177 288.917 659.31 289.853C659.578 290.655 659.978 290.789 660.647 290.388C660.914 290.254 661.181 290.254 661.448 290.12C661.983 289.853 662.25 289.719 662.383 290.388Z" fill="white"/>
<path d="M657.039 293.062C656.638 293.195 656.238 293.329 656.104 292.661C655.703 291.324 655.169 289.986 654.768 288.783C654.501 288.248 654.768 288.115 655.302 287.847C655.837 287.714 656.104 287.58 656.371 288.248C656.505 288.917 656.772 289.585 657.039 290.254C657.307 290.922 657.44 291.457 657.707 292.126C657.841 292.661 657.574 292.794 657.039 293.062Z" fill="white"/>
<path opacity="0.56" d="M1209.52 482.921H1199.63V615.555H1209.52V482.921Z" fill="#419D9A"/>
<path d="M1208.19 482.921C1244.79 482.921 1274.46 453.23 1274.46 416.604C1274.46 379.978 1244.79 350.287 1208.19 350.287C1171.58 350.287 1141.91 379.978 1141.91 416.604C1141.91 453.23 1171.58 482.921 1208.19 482.921Z" fill="#C8DB5A"/>
<path d="M1204.58 475.032V433.584L1244.39 393.74" stroke="white" stroke-miterlimit="10"/>
<path d="M1184.27 415.133L1199.1 429.974" stroke="white" stroke-miterlimit="10"/>
<path opacity="0.56" d="M967.819 519.288H960.604V615.555H967.819V519.288Z" fill="#419D9A"/>
<path d="M965.146 519.288C991.711 519.288 1013.25 497.738 1013.25 471.155C1013.25 444.571 991.711 423.021 965.146 423.021C938.581 423.021 917.046 444.571 917.046 471.155C917.046 497.738 938.581 519.288 965.146 519.288Z" fill="#C8DB5A"/>
<path d="M964.211 513.539V483.455L993.071 454.575" stroke="white" stroke-miterlimit="10"/>
<path d="M949.38 470.085L960.202 480.915" stroke="white" stroke-miterlimit="10"/>
<path d="M148.516 412.325L176.44 440.403" stroke="white" stroke-miterlimit="10"/>
<path d="M1182.4 614.351C1182.4 614.351 1156.34 580.658 1169.71 594.697C1183.07 608.736 1183.47 612.079 1183.47 612.079C1183.47 612.079 1157.81 563.812 1164.63 573.706C1171.44 583.6 1185.74 614.351 1185.74 614.351C1185.74 614.351 1175.32 543.221 1179.86 562.341C1184.4 581.46 1188.54 614.351 1188.54 614.351C1188.54 614.351 1194.82 581.728 1193.49 593.226C1192.15 604.725 1190.41 614.351 1190.41 614.351H1182.4Z" fill="#59DD99"/>
<path d="M139.162 614.619C139.162 614.619 114.578 582.798 127.137 596.168C139.697 609.538 140.231 612.613 140.231 612.613C140.231 612.613 115.914 567.154 122.461 576.38C129.008 585.605 142.503 614.753 142.503 614.753C142.503 614.753 132.749 547.5 137.024 565.55C141.3 583.6 145.175 614.753 145.175 614.753C145.175 614.753 151.054 584.001 149.851 594.831C148.649 605.661 147.045 614.753 147.045 614.753H139.162V614.619Z" fill="#59DD99"/>
<path d="M985.188 613.416C985.188 613.416 999.885 594.43 992.403 602.318C984.787 610.34 984.654 612.079 984.654 612.079C984.654 612.079 999.217 584.803 995.209 590.419C991.201 596.034 983.184 613.416 983.184 613.416C983.184 613.416 989.063 573.171 986.524 584.001C983.986 594.831 981.581 613.416 981.581 613.416C981.581 613.416 978.107 594.964 978.775 601.516C979.443 608.067 980.512 613.416 980.512 613.416H985.188Z" fill="#59DD99"/>
<path opacity="0.56" d="M397.967 406.71H382.602V613.148H397.967V406.71Z" fill="#419D9A"/>
<path d="M393.959 406.977C450.852 406.977 496.973 360.824 496.973 303.891C496.973 246.959 450.852 200.806 393.959 200.806C337.065 200.806 290.944 246.959 290.944 303.891C290.944 360.824 337.065 406.977 393.959 406.977Z" fill="#C8DB5A"/>
<path opacity="0.42" d="M415.871 404.303C408.789 405.907 401.441 406.71 393.959 406.71C337.04 406.71 290.944 360.582 290.944 303.624C290.944 246.666 337.04 200.539 393.959 200.539C396.631 200.539 399.437 200.672 402.109 200.806C355.746 210.834 321.007 252.148 321.007 301.485C321.007 355.635 362.827 400.158 415.871 404.303Z" fill="url(#paint44_linear)"/>
<path opacity="0.42" d="M372.848 404.035C379.929 405.64 387.278 406.442 394.76 406.442C451.678 406.442 497.774 360.314 497.774 303.357C497.774 246.399 451.678 200.271 394.76 200.271C392.088 200.271 389.282 200.405 386.61 200.538C432.973 210.566 467.712 251.881 467.712 301.217C467.712 355.501 425.891 399.891 372.848 404.035Z" fill="url(#paint45_linear)"/>
<path opacity="0.42" d="M169.491 500.971C165.75 501.773 161.876 502.174 157.867 502.174C127.538 502.174 102.953 477.573 102.953 447.222C102.953 416.871 127.538 392.27 157.867 392.27C159.337 392.27 160.807 392.27 162.143 392.403C137.425 397.751 118.853 419.813 118.853 446.152C118.853 475.032 141.166 498.698 169.491 500.971Z" fill="url(#paint46_linear)"/>
<path opacity="0.42" d="M146.511 500.837C150.252 501.639 154.127 502.04 158.135 502.04C188.465 502.04 213.049 477.439 213.049 447.088C213.049 416.737 188.465 392.136 158.135 392.136C156.665 392.136 155.195 392.136 153.859 392.27C178.577 397.618 197.149 419.679 197.149 446.019C197.149 474.899 174.836 498.698 146.511 500.837Z" fill="url(#paint47_linear)"/>
<path opacity="0.42" d="M974.633 517.951C971.292 518.62 967.952 519.021 964.478 519.021C938.023 519.021 916.512 497.494 916.512 471.021C916.512 444.548 938.023 423.021 964.478 423.021C965.681 423.021 967.017 423.021 968.219 423.155C946.708 427.835 930.541 447.088 930.541 469.951C930.541 495.355 950.048 515.946 974.633 517.951Z" fill="url(#paint48_linear)"/>
<path opacity="0.42" d="M954.725 517.817C958.065 518.486 961.405 518.887 964.879 518.887C991.334 518.887 1012.85 497.361 1012.85 470.887C1012.85 444.414 991.334 422.888 964.879 422.888C963.677 422.888 962.34 422.888 961.138 423.021C982.649 427.701 998.816 446.954 998.816 469.818C998.816 495.221 979.443 515.812 954.725 517.817Z" fill="url(#paint49_linear)"/>
<path opacity="0.42" d="M1222.35 480.247C1217.8 481.183 1213.26 481.717 1208.45 481.717C1172.24 481.717 1142.85 452.303 1142.85 416.069C1142.85 379.835 1172.24 350.42 1208.45 350.42C1210.19 350.42 1211.93 350.554 1213.66 350.554C1184.13 356.972 1161.96 383.312 1161.96 414.732C1161.96 449.361 1188.54 477.706 1222.35 480.247Z" fill="url(#paint50_linear)"/>
<path opacity="0.42" d="M1194.96 480.247C1199.5 481.183 1204.04 481.717 1208.85 481.717C1245.06 481.717 1274.46 452.303 1274.46 416.069C1274.46 379.835 1245.06 350.42 1208.85 350.42C1207.12 350.42 1205.38 350.554 1203.64 350.554C1233.17 356.972 1255.35 383.312 1255.35 414.732C1255.35 449.227 1228.76 477.573 1194.96 480.247Z" fill="url(#paint51_linear)"/>
<path d="M390.218 394.81L389.951 378.632L389.817 362.454L389.684 346.276V330.097V329.83L389.817 329.696C394.894 324.482 400.105 319.401 405.316 314.187L420.815 298.811C431.237 288.516 441.658 278.354 452.214 268.193C442.059 278.755 431.905 289.184 421.617 299.613L406.251 315.123C401.174 320.337 395.963 325.418 390.753 330.632L390.886 330.231V346.409L390.753 362.587L390.619 378.766L390.218 394.81Z" fill="white"/>
<path d="M358.686 301.485C362.961 304.961 366.836 308.705 370.711 312.582C374.585 316.46 378.326 320.337 381.8 324.616C377.525 321.139 373.65 317.396 369.775 313.518C365.901 309.774 362.159 305.763 358.686 301.485Z" fill="white"/>
<path d="M343.721 614.753C343.721 614.753 304.706 564.346 324.748 585.471C344.79 606.597 345.324 611.41 345.324 611.41C345.324 611.41 306.844 539.344 317.266 554.051C327.554 568.758 348.932 614.753 348.932 614.753C348.932 614.753 333.433 508.324 340.247 536.937C347.061 565.55 353.207 614.753 353.207 614.753C353.207 614.753 362.56 566.084 360.69 583.198C358.819 600.313 356.147 614.753 356.147 614.753H343.721Z" fill="#59DD99"/>
<path d="M414.534 613.416C414.534 613.416 444.062 575.31 428.964 591.221C413.866 607.132 413.332 610.875 413.332 610.875C413.332 610.875 442.326 556.324 434.576 567.555C426.827 578.653 410.66 613.416 410.66 613.416C410.66 613.416 422.417 532.926 417.207 554.586C412.129 576.246 407.453 613.416 407.453 613.416C407.453 613.416 400.372 576.647 401.841 589.616C403.311 602.586 405.315 613.416 405.315 613.416H414.534Z" fill="#59DD99"/>
<path d="M375.654 224.07C380.865 228.884 385.942 233.831 391.153 238.778C396.23 243.725 401.308 248.805 406.385 253.753C411.328 258.833 416.406 263.78 421.349 268.995L428.698 276.616C431.103 279.156 433.642 281.83 436.047 284.371C433.374 281.964 430.836 279.557 428.297 277.017L420.681 269.663C415.604 264.716 410.527 259.635 405.45 254.688C400.506 249.608 395.429 244.661 390.485 239.446C385.542 234.365 380.598 229.285 375.654 224.07Z" fill="white"/>
<path d="M972.093 475.433L951.384 459.924L949.379 443.478L942.432 439.066" stroke="white" stroke-miterlimit="10"/>
<path d="M964.211 492.013L994.273 482.787" stroke="white" stroke-miterlimit="10"/>
<path d="M1218.07 419.946L1188.41 387.59L1185.6 369.406" stroke="white" stroke-miterlimit="10"/>
<path d="M1204.58 449.762L1239.32 438.398L1250.81 423.958" stroke="white" stroke-miterlimit="10"/>
<path d="M579.545 361.919C575.67 362.186 571.662 362.32 567.787 362.454C563.912 362.587 559.904 362.587 556.029 362.587C552.155 362.587 548.146 362.587 544.271 362.454L538.393 362.32C536.388 362.186 534.518 362.186 532.514 362.053C534.518 361.919 536.388 361.785 538.393 361.785L544.271 361.652C548.146 361.518 552.155 361.518 556.029 361.518C559.904 361.518 563.912 361.518 567.787 361.652C571.662 361.518 575.67 361.652 579.545 361.919Z" fill="#887878"/>
</g>
</g>
<defs>
<linearGradient id="paint0_linear" x1="708.001" y1="557.193" x2="720.601" y2="557.193" gradientUnits="userSpaceOnUse">
<stop stop-color="#419D9A"/>
<stop offset="1" stop-color="#41629A"/>
</linearGradient>
<linearGradient id="paint1_linear" x1="708" y1="558.062" x2="720.6" y2="558.062" gradientUnits="userSpaceOnUse">
<stop stop-color="#419D9A"/>
<stop offset="1" stop-color="#41629A"/>
</linearGradient>
<linearGradient id="paint2_linear" x1="708" y1="558.463" x2="720.601" y2="558.463" gradientUnits="userSpaceOnUse">
<stop stop-color="#419D9A"/>
<stop offset="1" stop-color="#41629A"/>
</linearGradient>
<linearGradient id="paint3_linear" x1="708" y1="558.731" x2="720.6" y2="558.731" gradientUnits="userSpaceOnUse">
<stop stop-color="#419D9A"/>
<stop offset="1" stop-color="#41629A"/>
</linearGradient>
<linearGradient id="paint4_linear" x1="708" y1="558.53" x2="720.601" y2="558.53" gradientUnits="userSpaceOnUse">
<stop stop-color="#419D9A"/>
<stop offset="1" stop-color="#41629A"/>
</linearGradient>
<linearGradient id="paint5_linear" x1="701.633" y1="564.079" x2="750.951" y2="564.079" gradientUnits="userSpaceOnUse">
<stop stop-color="#419D9A"/>
<stop offset="1" stop-color="#41629A"/>
</linearGradient>
<linearGradient id="paint6_linear" x1="701.633" y1="564.747" x2="750.953" y2="564.747" gradientUnits="userSpaceOnUse">
<stop stop-color="#419D9A"/>
<stop offset="1" stop-color="#41629A"/>
</linearGradient>
<linearGradient id="paint7_linear" x1="701.632" y1="565.349" x2="750.955" y2="565.349" gradientUnits="userSpaceOnUse">
<stop stop-color="#419D9A"/>
<stop offset="1" stop-color="#41629A"/>
</linearGradient>
<linearGradient id="paint8_linear" x1="701.633" y1="566.085" x2="750.953" y2="566.085" gradientUnits="userSpaceOnUse">
<stop stop-color="#419D9A"/>
<stop offset="1" stop-color="#41629A"/>
</linearGradient>
<linearGradient id="paint9_linear" x1="701.633" y1="566.686" x2="750.952" y2="566.686" gradientUnits="userSpaceOnUse">
<stop stop-color="#419D9A"/>
<stop offset="1" stop-color="#41629A"/>
</linearGradient>
<linearGradient id="paint10_linear" x1="701.632" y1="567.355" x2="750.954" y2="567.355" gradientUnits="userSpaceOnUse">
<stop stop-color="#419D9A"/>
<stop offset="1" stop-color="#41629A"/>
</linearGradient>
<linearGradient id="paint11_linear" x1="701.633" y1="567.889" x2="750.953" y2="567.889" gradientUnits="userSpaceOnUse">
<stop stop-color="#419D9A"/>
<stop offset="1" stop-color="#41629A"/>
</linearGradient>
<linearGradient id="paint12_linear" x1="701.632" y1="568.558" x2="750.952" y2="568.558" gradientUnits="userSpaceOnUse">
<stop stop-color="#419D9A"/>
<stop offset="1" stop-color="#41629A"/>
</linearGradient>
<linearGradient id="paint13_linear" x1="701.633" y1="569.16" x2="750.953" y2="569.16" gradientUnits="userSpaceOnUse">
<stop stop-color="#419D9A"/>
<stop offset="1" stop-color="#41629A"/>
</linearGradient>
<linearGradient id="paint14_linear" x1="701.634" y1="569.694" x2="750.95" y2="569.694" gradientUnits="userSpaceOnUse">
<stop stop-color="#419D9A"/>
<stop offset="1" stop-color="#41629A"/>
</linearGradient>
<linearGradient id="paint15_linear" x1="701.632" y1="570.229" x2="750.954" y2="570.229" gradientUnits="userSpaceOnUse">
<stop stop-color="#419D9A"/>
<stop offset="1" stop-color="#41629A"/>
</linearGradient>
<linearGradient id="paint16_linear" x1="701.631" y1="570.831" x2="750.953" y2="570.831" gradientUnits="userSpaceOnUse">
<stop stop-color="#419D9A"/>
<stop offset="1" stop-color="#41629A"/>
</linearGradient>
<linearGradient id="paint17_linear" x1="701.634" y1="571.366" x2="750.952" y2="571.366" gradientUnits="userSpaceOnUse">
<stop stop-color="#419D9A"/>
<stop offset="1" stop-color="#41629A"/>
</linearGradient>
<linearGradient id="paint18_linear" x1="701.633" y1="571.834" x2="750.953" y2="571.834" gradientUnits="userSpaceOnUse">
<stop stop-color="#419D9A"/>
<stop offset="1" stop-color="#41629A"/>
</linearGradient>
<linearGradient id="paint19_linear" x1="701.634" y1="572.302" x2="750.952" y2="572.302" gradientUnits="userSpaceOnUse">
<stop stop-color="#419D9A"/>
<stop offset="1" stop-color="#41629A"/>
</linearGradient>
<linearGradient id="paint20_linear" x1="701.633" y1="572.636" x2="750.953" y2="572.636" gradientUnits="userSpaceOnUse">
<stop stop-color="#419D9A"/>
<stop offset="1" stop-color="#41629A"/>
</linearGradient>
<linearGradient id="paint21_linear" x1="701.631" y1="572.97" x2="750.953" y2="572.97" gradientUnits="userSpaceOnUse">
<stop stop-color="#419D9A"/>
<stop offset="1" stop-color="#41629A"/>
</linearGradient>
<linearGradient id="paint22_linear" x1="701.631" y1="573.171" x2="750.953" y2="573.171" gradientUnits="userSpaceOnUse">
<stop stop-color="#419D9A"/>
<stop offset="1" stop-color="#41629A"/>
</linearGradient>
<linearGradient id="paint23_linear" x1="701.63" y1="573.305" x2="750.953" y2="573.305" gradientUnits="userSpaceOnUse">
<stop stop-color="#419D9A"/>
<stop offset="1" stop-color="#41629A"/>
</linearGradient>
<linearGradient id="paint24_linear" x1="768.524" y1="281.229" x2="779.5" y2="281.229" gradientUnits="userSpaceOnUse">
<stop stop-color="#E09558"/>
<stop offset="1" stop-color="#BC7139"/>
</linearGradient>
<linearGradient id="paint25_linear" x1="792.87" y1="271.895" x2="797.262" y2="271.895" gradientUnits="userSpaceOnUse">
<stop stop-color="#E09558"/>
<stop offset="1" stop-color="#BC7139"/>
</linearGradient>
<linearGradient id="paint26_linear" x1="759.37" y1="268.883" x2="764.428" y2="269.278" gradientUnits="userSpaceOnUse">
<stop stop-color="#E09558"/>
<stop offset="1" stop-color="#BC7139"/>
</linearGradient>
<linearGradient id="paint27_linear" x1="759.489" y1="270.599" x2="764.17" y2="270.599" gradientUnits="userSpaceOnUse">
<stop stop-color="#E09558"/>
<stop offset="1" stop-color="#BC7139"/>
</linearGradient>
<linearGradient id="paint28_linear" x1="253.295" y1="108.156" x2="269.031" y2="115.425" gradientUnits="userSpaceOnUse">
<stop offset="1.1e-07" stop-color="#254E61"/>
<stop offset="1" stop-color="#182B40"/>
</linearGradient>
<linearGradient id="paint29_linear" x1="215.504" y1="136.168" x2="238.174" y2="141.179" gradientUnits="userSpaceOnUse">
<stop offset="1.1e-07" stop-color="#254E61"/>
<stop offset="1" stop-color="#182B40"/>
</linearGradient>
<linearGradient id="paint30_linear" x1="225.529" y1="118.018" x2="252.123" y2="123.897" gradientUnits="userSpaceOnUse">
<stop offset="1.1e-07" stop-color="#254E61"/>
<stop offset="1" stop-color="#182B40"/>
</linearGradient>
<linearGradient id="paint31_linear" x1="756.526" y1="285.908" x2="769.195" y2="285.908" gradientUnits="userSpaceOnUse">
<stop stop-color="#E09558"/>
<stop offset="1" stop-color="#BC7139"/>
</linearGradient>
<linearGradient id="paint32_linear" x1="686.434" y1="303.539" x2="710.525" y2="303.539" gradientUnits="userSpaceOnUse">
<stop stop-color="#E09558"/>
<stop offset="1" stop-color="#BC7139"/>
</linearGradient>
<linearGradient id="paint33_linear" x1="657.292" y1="321.072" x2="692.974" y2="321.072" gradientUnits="userSpaceOnUse">
<stop stop-color="#419D9A"/>
<stop offset="1" stop-color="#41629A"/>
</linearGradient>
<linearGradient id="paint34_linear" x1="635.309" y1="330.565" x2="656.405" y2="330.565" gradientUnits="userSpaceOnUse">
<stop stop-color="#419D9A"/>
<stop offset="1" stop-color="#41629A"/>
</linearGradient>
<linearGradient id="paint35_linear" x1="655.124" y1="339.457" x2="657.893" y2="339.457" gradientUnits="userSpaceOnUse">
<stop stop-color="#419D9A"/>
<stop offset="1" stop-color="#41629A"/>
</linearGradient>
<linearGradient id="paint36_linear" x1="738.34" y1="289.919" x2="747.999" y2="289.919" gradientUnits="userSpaceOnUse">
<stop stop-color="#419D9A"/>
<stop offset="1" stop-color="#41629A"/>
</linearGradient>
<linearGradient id="paint37_linear" x1="693.985" y1="290.978" x2="724.675" y2="290.978" gradientUnits="userSpaceOnUse">
<stop stop-color="#58DBD4"/>
<stop offset="1" stop-color="#41629A"/>
</linearGradient>
<linearGradient id="paint38_linear" x1="606.323" y1="385.39" x2="691.766" y2="385.39" gradientUnits="userSpaceOnUse">
<stop stop-color="#223149"/>
<stop offset="1" stop-color="#223149" stop-opacity="0"/>
</linearGradient>
<linearGradient id="paint39_linear" x1="677.723" y1="489.004" x2="709.091" y2="489.004" gradientUnits="userSpaceOnUse">
<stop stop-color="#223149"/>
<stop offset="1" stop-color="#223149" stop-opacity="0"/>
</linearGradient>
<linearGradient id="paint40_linear" x1="610.677" y1="282.966" x2="712.846" y2="310.581" gradientUnits="userSpaceOnUse">
<stop stop-color="#419D9A"/>
<stop offset="1" stop-color="#41629A"/>
</linearGradient>
<linearGradient id="paint41_linear" x1="614.609" y1="286.15" x2="712.312" y2="312.557" gradientUnits="userSpaceOnUse">
<stop stop-color="#419D9A"/>
<stop offset="1" stop-color="#41629A"/>
</linearGradient>
<linearGradient id="paint42_linear" x1="639.473" y1="285.448" x2="643.213" y2="286.458" gradientUnits="userSpaceOnUse">
<stop stop-color="#419D9A"/>
<stop offset="1" stop-color="#41629A"/>
</linearGradient>
<linearGradient id="paint43_linear" x1="633.064" y1="268.96" x2="651.167" y2="273.853" gradientUnits="userSpaceOnUse">
<stop stop-color="#419D9A"/>
<stop offset="1" stop-color="#41629A"/>
</linearGradient>
<linearGradient id="paint44_linear" x1="353.397" y1="200.48" x2="353.397" y2="406.598" gradientUnits="userSpaceOnUse">
<stop stop-color="#C8DB5A"/>
<stop offset="1" stop-color="#96AF38"/>
</linearGradient>
<linearGradient id="paint45_linear" x1="435.311" y1="200.294" x2="435.311" y2="406.411" gradientUnits="userSpaceOnUse">
<stop stop-color="#C8DB5A"/>
<stop offset="1" stop-color="#96AF38"/>
</linearGradient>
<linearGradient id="paint46_linear" x1="136.156" y1="392.213" x2="136.156" y2="502.214" gradientUnits="userSpaceOnUse">
<stop stop-color="#C8DB5A"/>
<stop offset="1" stop-color="#96AF38"/>
</linearGradient>
<linearGradient id="paint47_linear" x1="179.873" y1="392.114" x2="179.873" y2="502.115" gradientUnits="userSpaceOnUse">
<stop stop-color="#C8DB5A"/>
<stop offset="1" stop-color="#96AF38"/>
</linearGradient>
<linearGradient id="paint48_linear" x1="945.636" y1="423.108" x2="945.636" y2="518.975" gradientUnits="userSpaceOnUse">
<stop stop-color="#C8DB5A"/>
<stop offset="1" stop-color="#96AF38"/>
</linearGradient>
<linearGradient id="paint49_linear" x1="983.735" y1="423.021" x2="983.735" y2="518.888" gradientUnits="userSpaceOnUse">
<stop stop-color="#C8DB5A"/>
<stop offset="1" stop-color="#96AF38"/>
</linearGradient>
<linearGradient id="paint50_linear" x1="1182.59" y1="350.495" x2="1182.59" y2="481.799" gradientUnits="userSpaceOnUse">
<stop stop-color="#C8DB5A"/>
<stop offset="1" stop-color="#96AF38"/>
</linearGradient>
<linearGradient id="paint51_linear" x1="1234.77" y1="350.376" x2="1234.77" y2="481.681" gradientUnits="userSpaceOnUse">
<stop stop-color="#C8DB5A"/>
<stop offset="1" stop-color="#96AF38"/>
</linearGradient>
<clipPath id="clip0">
<rect width="1440" height="680" fill="white"/>
</clipPath>
<clipPath id="clip1">
<rect x="-3" y="-42" width="1443" height="722" fill="white"/>
</clipPath>
</defs>
</svg>
