<svg width="181" height="191" viewBox="0 0 181 191" fill="none" xmlns="http://www.w3.org/2000/svg">
<path opacity="0.08" d="M158.663 58.9413C164.47 53.1342 173.618 52.2762 180.406 56.9073C188.199 62.2263 190.215 72.8954 184.898 80.6915L103.797 199.59C101.218 203.366 97.3283 205.912 92.8374 206.762C88.3465 207.612 83.7928 206.661 80.0167 204.085C72.2218 198.767 70.2049 188.099 75.5215 180.304L156.62 61.4073C157.229 60.5177 157.914 59.6908 158.663 58.9413ZM181.256 55.6611C172.77 49.8802 161.164 52.0703 155.378 60.5555L74.2766 179.454C68.4908 187.937 70.6844 199.545 79.1666 205.33C83.2767 208.132 88.2307 209.168 93.1177 208.243C96.8165 207.545 100.167 205.781 102.803 203.145C103.624 202.324 104.378 201.413 105.041 200.44L186.147 81.5379C191.928 73.06 189.736 61.4481 181.256 55.6611Z" fill="white" fill-opacity="0.4"/>
<path d="M152.241 165.581C144.806 173.016 144.806 185.115 152.242 192.55C159.677 199.986 171.776 199.987 179.212 192.552C186.647 185.116 186.646 173.016 179.211 165.581C171.776 158.146 159.677 158.145 152.241 165.581ZM193.227 206.567C178.063 221.73 153.388 221.727 138.227 206.565C123.063 191.402 123.063 166.729 138.226 151.566C153.39 136.402 178.062 136.402 193.226 151.566C208.387 166.727 208.39 191.403 193.227 206.567Z" fill="#15D16B"/>
<path d="M113.916 95.3129C109.071 90.4686 109.07 82.614 113.915 77.7697C118.759 72.9254 126.615 72.9253 131.459 77.7697C136.303 82.614 136.302 90.4686 131.458 95.3129C126.613 100.157 118.76 100.157 113.916 95.3129Z" fill="#E53617"/>
<path d="M111.417 63.2711C106.667 60.4395 101.228 58.5962 95.3555 58.0484C74.2652 56.0833 55.5747 71.5869 53.6095 92.6772C51.6443 113.767 67.1486 132.457 88.2383 134.423C95.3427 135.084 102.175 133.764 108.187 130.916L111.417 63.2711Z" fill="#175FE5"/>
</svg>
