<svg width="296" height="342" viewBox="0 0 296 342" fill="none" xmlns="http://www.w3.org/2000/svg">
<path d="M141.27 57.7892C78.8282 74.5197 41.7727 138.702 58.5046 201.144C75.2349 263.584 139.417 300.64 201.858 283.909L141.27 57.7892Z" fill="#E53617"/>
<path fill-rule="evenodd" clip-rule="evenodd" d="M202.127 291.03C171.731 298.913 138.343 295.328 109 278.387C49.692 244.145 29.3714 168.308 63.6131 109C80.5541 79.6571 107.677 59.8577 137.942 51.4877L202.127 291.03ZM203.094 290.775L138.907 51.225C169.56 43.0115 203.346 46.4918 233 63.6126C292.309 97.8543 312.629 173.691 278.387 233C261.267 262.654 233.747 282.561 203.094 290.775ZM203.353 291.74C234.253 283.461 261.995 263.393 279.253 233.5C313.771 173.713 293.287 97.2644 233.5 62.7466C203.607 45.4877 169.548 41.9793 138.648 50.259L129.822 17.3219L128.856 17.5807L137.683 50.5217C107.171 58.958 79.8261 78.918 62.7471 108.5C28.2293 168.286 48.7137 244.735 108.5 279.253C138.082 296.332 171.743 299.946 202.386 291.995L211.212 324.936L212.178 324.678L203.353 291.74Z" fill="#030404" fill-opacity="0.08"/>
</svg>
