<svg width="223" height="223" viewBox="0 0 223 223" fill="none" xmlns="http://www.w3.org/2000/svg">
<g opacity="0.08">
<path d="M102.999 2.23738C47.4385 2.23738 2.23737 47.4388 2.23737 103C2.23737 158.561 47.4385 203.763 102.999 203.763C158.56 203.763 203.763 158.561 203.763 103C203.763 47.4388 158.56 2.23738 102.999 2.23738ZM102.999 206C46.2048 206 0 159.794 0 103C0 46.2064 46.2048 0 102.999 0C159.794 0 206 46.2064 206 103C206 159.794 159.794 206 102.999 206Z" fill="white" fill-opacity="0.6"/>
<path d="M102.999 2.23692C47.4383 2.23692 2.2369 47.4386 2.2369 103C2.2369 158.561 47.4383 203.763 102.999 203.763C158.56 203.763 203.763 158.561 203.763 103C203.763 47.4386 158.56 2.23692 102.999 2.23692ZM102.999 206C46.205 206 0.000462963 159.793 0.000462963 103C0.000462963 46.2066 46.205 0.000462963 102.999 0.000462963C159.794 0.000462963 206 46.2066 206 103C206 159.793 159.794 206 102.999 206Z" stroke="white" stroke-opacity="0.2" stroke-width="0.000222222"/>
</g>
<path d="M103 223V184.98C148.204 184.98 184.981 148.203 184.981 103H223C223 169.167 169.167 223 103 223Z" fill="#F0C900"/>
</svg>
