<svg width="209" height="209" viewBox="0 0 209 209" fill="none" xmlns="http://www.w3.org/2000/svg">
<g opacity="0.08">
<path d="M6.56566 30.7292C0.510495 24.6764 0.510494 14.8235 6.56566 8.77069L8.77084 6.56558C11.6971 3.63816 15.5969 2.02456 19.7491 2.02456C23.9012 2.02456 27.801 3.63816 30.7285 6.56558L187.436 163.271C190.365 166.199 191.976 170.098 191.976 174.25C191.976 178.403 190.365 182.302 187.436 185.229L185.23 187.434C179.177 193.49 169.326 193.49 163.273 187.434L6.56566 30.7292ZM174.252 194C178.945 194 183.353 192.177 186.664 188.869L188.869 186.662C195.711 179.819 195.709 168.683 188.869 161.838L32.1616 5.13255C28.8521 1.82314 24.443 2.22347e-05 19.7491 2.28503e-05C15.0563 2.34656e-05 10.6472 1.82315 7.33777 5.13255L5.13148 7.33766C1.82202 10.6471 7.18791e-06 15.0561 7.80343e-06 19.7499C8.41895e-06 24.4438 1.82202 28.8517 5.13148 32.1622L161.839 188.869C165.15 192.177 169.558 194 174.252 194Z" fill="white" fill-opacity="0.6"/>
<path d="M6.56533 8.77036C0.509985 14.8233 0.509986 24.6766 6.56533 30.7295L163.273 187.435C169.326 193.49 179.177 193.49 185.23 187.435L187.436 185.23C190.365 182.302 191.976 178.403 191.976 174.25C191.976 170.098 190.365 166.199 187.436 163.271L30.7288 6.56525C27.8013 3.63775 23.9014 2.0241 19.7491 2.0241C15.5968 2.0241 11.6969 3.63775 8.77051 6.56525L6.56533 8.77036ZM186.664 188.868C183.353 192.176 178.945 194 174.252 194C169.558 194 165.15 192.176 161.839 188.868L5.13181 32.1619C1.82243 28.8514 0.000469362 24.4436 0.000468746 19.7499C0.000468131 15.0562 1.82243 10.6473 5.13181 7.33799L7.33811 5.13288C10.6475 1.82356 15.0565 0.000486429 19.7491 0.000485814C24.4428 0.000485198 28.8519 1.82356 32.1612 5.13287L188.869 161.838C195.709 168.684 195.711 179.819 188.869 186.662L186.664 188.868Z" stroke="white" stroke-opacity="0.2" stroke-width="0.000222222"/>
</g>
<path d="M203.728 178.272C210.757 185.3 210.757 196.699 203.728 203.728C196.699 210.757 185.301 210.757 178.272 203.728C171.243 196.699 171.243 185.3 178.272 178.272C185.301 171.243 196.699 171.243 203.728 178.272Z" fill="#F0C900"/>
</svg>
