<svg width="266" height="271" viewBox="0 0 266 271" fill="none" xmlns="http://www.w3.org/2000/svg">
<path opacity="0.08" d="M158.663 58.4776C164.47 52.6705 173.618 51.8125 180.406 56.4436C188.199 61.7626 190.215 72.4318 184.898 80.2278L103.797 199.126C101.218 202.902 97.3283 205.448 92.8374 206.299C88.3465 207.148 83.7928 206.197 80.0167 203.621C72.2218 198.303 70.2049 187.636 75.5215 179.84L156.62 60.9437C157.229 60.054 157.914 59.2271 158.663 58.4776ZM181.256 55.1974C172.77 49.4165 161.164 51.6066 155.378 60.0918L74.2766 178.99C68.4908 187.473 70.6844 199.081 79.1666 204.866C83.2767 207.669 88.2307 208.705 93.1177 207.78C96.8165 207.081 100.167 205.318 102.803 202.682C103.624 201.86 104.378 200.949 105.041 199.976L186.147 81.0742C191.928 72.5963 189.736 60.9845 181.256 55.1974Z" fill="white" fill-opacity="0.4"/>
<path d="M152.241 165.117C144.806 172.553 144.806 184.651 152.242 192.087C159.677 199.522 171.776 199.523 179.212 192.088C186.647 184.652 186.646 172.553 179.211 165.117C171.776 157.682 159.677 157.681 152.241 165.117ZM193.227 206.103C178.063 221.266 153.388 221.263 138.227 206.102C123.063 190.938 123.063 166.265 138.226 151.102C153.39 135.939 178.062 135.939 193.226 151.102C208.387 166.264 208.39 190.939 193.227 206.103Z" fill="#15D16B"/>
<path d="M113.916 94.8492C109.071 90.0049 109.07 82.1503 113.915 77.306C118.759 72.4617 126.615 72.4617 131.459 77.306C136.303 82.1503 136.302 90.0049 131.458 94.8492C126.613 99.6936 118.76 99.6936 113.916 94.8492Z" fill="#E53617"/>
<path d="M111.417 62.8074C106.667 59.9758 101.228 58.1325 95.3555 57.5847C74.2652 55.6196 55.5747 71.1232 53.6095 92.2135C51.6443 113.304 67.1486 131.994 88.2383 133.96C95.3427 134.621 102.175 133.301 108.187 130.452L111.417 62.8074Z" fill="#175FE5"/>
</svg>
