<svg width="32" height="32" viewBox="0 0 32 32" fill="none" xmlns="http://www.w3.org/2000/svg">
<g clip-path="url(#clip0)">
<path d="M0 3.84267C0 1.72133 1.72133 0 3.84267 0C5.96267 0 7.684 1.72133 7.68533 3.84267C7.68533 5.964 5.964 7.72133 3.84267 7.72133C1.72133 7.72133 0 5.964 0 3.84267Z" fill="white" fill-opacity="0.6"/>
<path d="M32 31.9986V20.2626C32 14.5213 30.764 10.0986 24.052 10.0986C20.8253 10.0986 18.66 11.8693 17.776 13.548H17.6827V10.6346H11.3186V31.9986H17.9453V21.42C17.9453 18.6346 18.4733 15.9413 21.9227 15.9413C25.3213 15.9413 25.372 19.12 25.372 21.5986V32L32 31.9986Z" fill="white" fill-opacity="0.6"/>
<path d="M0.527995 10.6361H7.16266V32.0001H0.527995V10.6361Z" fill="white" fill-opacity="0.6"/>
</g>
<defs>
<clipPath id="clip0">
<path d="M0 0H32V32H0V0Z" fill="white"/>
</clipPath>
</defs>
</svg>
