<svg width="32" height="32" viewBox="0 0 32 32" fill="none" xmlns="http://www.w3.org/2000/svg">
<path d="M32 8.74469C30.81 9.26669 29.542 9.61269 28.22 9.78069C29.58 8.96869 30.618 7.69269 31.106 6.15469C29.838 6.91069 28.438 7.44469 26.946 7.74269C25.742 6.46069 24.026 5.66669 22.154 5.66669C18.522 5.66669 15.598 8.61469 15.598 12.2287C15.598 12.7487 15.642 13.2487 15.75 13.7247C10.296 13.4587 5.47 10.8447 2.228 6.86269C1.662 7.84469 1.33 8.96869 1.33 10.1787C1.33 12.4507 2.5 14.4647 4.244 15.6307C3.19 15.6107 2.156 15.3047 1.28 14.8227C1.28 14.8427 1.28 14.8687 1.28 14.8947C1.28 18.0827 3.554 20.7307 6.536 21.3407C6.002 21.4867 5.42 21.5567 4.816 21.5567C4.396 21.5567 3.972 21.5327 3.574 21.4447C4.424 24.0427 6.836 25.9527 9.704 26.0147C7.472 27.7607 4.638 28.8127 1.57 28.8127C1.032 28.8127 0.516 28.7887 0 28.7227C2.906 30.5967 6.35 31.6667 10.064 31.6667C22.136 31.6667 28.736 21.6667 28.736 12.9987C28.736 12.7087 28.726 12.4287 28.712 12.1507C30.014 11.2267 31.108 10.0727 32 8.74469Z" fill="white" fill-opacity="0.6"/>
</svg>
