<svg width="312" height="480" viewBox="0 0 312 480" fill="none" xmlns="http://www.w3.org/2000/svg">
<rect width="312" height="480" fill="#F1F5FD"/>
<path d="M99.2274 425.119H216.803L288.194 453.141L27.8818 451.557L99.2274 425.119Z" fill="white" fill-opacity="0.4"/>
<path d="M143.738 279.77C144.065 274.535 147.173 270.063 151.754 268.318C155.79 266.737 159.007 267.118 162.443 271.59C167.787 280.643 184.474 333.866 184.147 334.139C184.147 334.139 152.845 332.449 139.593 342.701L143.738 279.77Z" fill="#E53617"/>
<path d="M152.19 265.046C155.955 265.046 159.007 261.994 159.007 258.229C159.007 254.465 155.955 251.413 152.19 251.413C148.426 251.413 145.374 254.465 145.374 258.229C145.374 261.994 148.426 265.046 152.19 265.046Z" fill="#EAB575"/>
<path d="M154.735 272.756C157.101 272.301 158.812 270.854 158.557 269.523C158.301 268.192 156.176 267.481 153.809 267.936C151.443 268.39 149.732 269.838 149.988 271.169C150.243 272.5 152.369 273.21 154.735 272.756Z" fill="#EAB575"/>
<path d="M162.401 341.727C174.706 339.364 184.386 335.914 184.022 334.021C183.659 332.127 173.389 332.508 161.084 334.871C148.78 337.234 139.1 340.684 139.463 342.578C139.827 344.471 150.096 344.09 162.401 341.727Z" fill="black"/>
<path d="M172.258 336.647L165.333 381.146C164.242 387.363 161.461 393.089 157.207 397.779L132.613 425.154L125.142 423.682L146.901 384.254L149.355 337.684C149.3 337.738 159.116 333.43 172.258 336.647Z" fill="#CAAA09"/>
<path d="M159.062 430.225L134.904 418.228L127.705 424.663L126.56 420.791L122.579 430.989L156.444 434.861C156.389 434.915 157.807 431.48 159.062 430.225Z" fill="#E53617"/>
<path d="M122.47 431.044L118.217 435.624L166.042 438.515C166.969 438.569 167.787 437.969 168.059 437.097L168.332 436.061C168.332 436.061 170.023 434.207 164.133 430.389C158.298 426.572 156.335 434.915 156.335 434.915L122.47 431.044Z" fill="white" stroke="#231F20" stroke-miterlimit="10"/>
<path d="M156.499 436.279C153.717 436.169 150.991 435.951 148.21 435.733C145.428 435.57 142.702 435.242 139.921 435.024C137.14 434.752 134.413 434.479 131.632 434.206L127.487 433.715C126.069 433.552 124.761 433.388 123.343 433.17C124.761 433.225 126.124 433.334 127.542 433.388L131.741 433.661C134.522 433.879 137.249 434.152 140.03 434.37C142.811 434.643 145.538 434.915 148.319 435.188C150.991 435.57 153.772 435.842 156.499 436.279Z" fill="#231F20"/>
<path d="M156.444 430.553C154.481 429.735 152.517 428.862 150.609 427.935C148.646 427.063 146.737 426.136 144.828 425.209C142.92 424.281 141.011 423.354 139.102 422.373L136.267 420.9C135.34 420.355 134.358 419.919 133.431 419.374C134.413 419.755 135.394 420.246 136.376 420.628L139.266 421.937C141.229 422.809 143.138 423.736 145.046 424.663C146.955 425.59 148.864 426.517 150.772 427.499C152.681 428.535 154.59 429.517 156.444 430.553Z" fill="white"/>
<path d="M150.227 429.898L150.609 430.117C151.209 430.444 151.918 430.226 152.299 429.626L153.499 427.444C153.826 426.845 153.608 426.136 153.008 425.754L152.627 425.536C152.027 425.209 151.318 425.427 150.936 426.027L149.736 428.208C149.409 428.753 149.627 429.517 150.227 429.898Z" fill="white"/>
<path d="M150.227 429.898C150.445 430.007 150.718 430.171 150.991 430.225C151.263 430.28 151.59 430.225 151.809 430.062C152.027 429.898 152.19 429.735 152.299 429.407L152.627 428.644L152.954 427.881L153.117 427.499L153.226 427.335C153.226 427.281 153.281 427.226 153.281 427.172C153.39 426.681 153.226 426.245 152.79 426.081L152.463 425.863C152.354 425.808 152.299 425.754 152.19 425.754C151.972 425.699 151.7 425.754 151.536 425.863C151.318 425.972 151.209 426.081 150.991 426.408L150.5 427.117C150.227 427.608 149.845 428.044 149.627 428.589C149.518 428.808 149.518 429.189 149.627 429.407C149.791 429.462 150.009 429.68 150.227 429.898ZM150.227 429.898C149.682 429.626 149.464 428.971 149.627 428.426C149.845 427.881 150.118 427.39 150.336 426.844L150.663 426.081C150.772 425.863 150.936 425.481 151.263 425.318C151.536 425.154 151.918 425.045 152.245 425.099C152.408 425.099 152.572 425.208 152.736 425.263L153.063 425.427C153.335 425.59 153.608 425.917 153.772 426.245C153.881 426.572 153.881 426.953 153.772 427.281C153.772 427.335 153.717 427.444 153.663 427.499L153.554 427.662L153.335 427.99L152.845 428.699L152.354 429.407C152.245 429.626 152.027 429.953 151.7 430.062C151.481 430.171 151.1 430.225 150.827 430.171C150.773 430.171 150.5 430.007 150.227 429.898Z" fill="black"/>
<path d="M146.464 427.772L146.846 427.99C147.446 428.317 148.155 428.099 148.536 427.499L149.736 425.318C150.063 424.718 149.845 424.009 149.245 423.627L148.864 423.409C148.264 423.082 147.555 423.3 147.173 423.9L145.973 426.081C145.701 426.736 145.864 427.444 146.464 427.772Z" fill="white"/>
<path d="M146.464 427.772C146.682 427.881 146.955 428.044 147.228 428.099C147.5 428.153 147.828 428.099 148.046 427.935C148.264 427.772 148.427 427.608 148.537 427.281L148.864 426.517L149.191 425.754L149.355 425.372L149.464 425.209C149.464 425.154 149.518 425.099 149.518 425.045C149.627 424.554 149.464 424.118 149.027 423.954L148.7 423.736C148.591 423.682 148.537 423.627 148.427 423.627C148.209 423.573 147.937 423.627 147.773 423.736C147.555 423.845 147.446 423.954 147.228 424.281L146.737 424.99C146.464 425.481 146.083 425.917 145.864 426.463C145.755 426.681 145.755 427.063 145.864 427.281C146.028 427.444 146.246 427.662 146.464 427.772ZM146.464 427.772C145.919 427.499 145.701 426.844 145.864 426.299C146.083 425.754 146.355 425.263 146.573 424.718L146.901 423.954C147.01 423.736 147.173 423.354 147.5 423.191C147.773 423.027 148.155 422.918 148.482 422.973C148.646 422.973 148.809 423.082 148.973 423.136L149.3 423.3C149.573 423.463 149.845 423.791 150.009 424.118C150.118 424.445 150.118 424.827 150.009 425.154C150.009 425.209 149.954 425.318 149.9 425.372L149.791 425.536L149.573 425.863L149.082 426.572L148.591 427.281C148.482 427.499 148.264 427.826 147.937 427.935C147.719 428.044 147.337 428.099 147.064 428.044C146.955 428.099 146.737 427.881 146.464 427.772Z" fill="black"/>
<path d="M142.32 426.026L142.702 426.244C143.302 426.572 144.011 426.353 144.392 425.754L145.592 423.572C145.919 422.972 145.701 422.264 145.101 421.882L144.72 421.664C144.12 421.337 143.411 421.555 143.029 422.154L141.829 424.336C141.502 424.936 141.775 425.699 142.32 426.026Z" fill="white"/>
<path d="M142.32 426.026C142.538 426.135 142.811 426.299 143.084 426.354C143.356 426.408 143.683 426.354 143.902 426.19C144.12 426.026 144.283 425.863 144.392 425.536L144.72 424.772L145.047 424.009L145.21 423.627L145.319 423.463C145.319 423.409 145.374 423.354 145.374 423.3C145.483 422.809 145.319 422.373 144.883 422.209L144.556 421.991C144.447 421.936 144.392 421.882 144.283 421.882C144.065 421.827 143.792 421.882 143.629 421.991C143.411 422.1 143.302 422.209 143.084 422.536L142.593 423.245C142.32 423.736 141.938 424.172 141.72 424.718C141.611 424.936 141.611 425.317 141.72 425.536C141.938 425.645 142.102 425.863 142.32 426.026ZM142.32 426.026C141.775 425.754 141.557 425.099 141.72 424.554C141.938 424.009 142.211 423.518 142.429 422.973L142.756 422.209C142.865 421.991 143.029 421.609 143.356 421.446C143.629 421.282 144.011 421.173 144.338 421.228C144.501 421.228 144.665 421.337 144.829 421.391L145.156 421.555C145.428 421.718 145.701 422.046 145.865 422.373C145.974 422.7 145.974 423.082 145.865 423.409C145.865 423.463 145.81 423.572 145.756 423.627L145.647 423.791L145.428 424.118L144.938 424.827L144.447 425.536C144.338 425.754 144.12 426.081 143.792 426.19C143.574 426.299 143.193 426.354 142.92 426.299C142.865 426.354 142.647 426.19 142.32 426.026Z" fill="black"/>
<path d="M138.23 423.736L138.612 423.954C139.212 424.282 139.92 424.063 140.302 423.464L141.502 421.282C141.829 420.682 141.611 419.974 141.011 419.592L140.629 419.374C140.03 419.046 139.321 419.265 138.939 419.864L137.739 422.046C137.412 422.7 137.63 423.464 138.23 423.736Z" fill="white"/>
<path d="M138.23 423.736C138.448 423.845 138.721 424.009 138.993 424.063C139.266 424.118 139.593 424.063 139.811 423.9C140.03 423.736 140.193 423.573 140.302 423.245L140.629 422.482L140.957 421.718L141.12 421.337L141.229 421.173C141.229 421.119 141.284 421.064 141.284 421.01C141.393 420.519 141.229 420.082 140.793 419.919L140.466 419.701C140.357 419.646 140.302 419.592 140.193 419.592C139.975 419.537 139.702 419.592 139.539 419.701C139.321 419.81 139.212 419.919 138.993 420.246L138.503 420.955C138.23 421.446 137.848 421.882 137.63 422.427C137.521 422.646 137.521 423.027 137.63 423.245C137.794 423.354 137.957 423.627 138.23 423.736ZM138.23 423.736C137.685 423.463 137.467 422.809 137.63 422.264C137.848 421.718 138.121 421.228 138.339 420.682L138.666 419.919C138.775 419.701 138.939 419.319 139.266 419.155C139.539 418.992 139.92 418.883 140.248 418.937C140.411 418.937 140.575 419.046 140.738 419.101L141.066 419.264C141.338 419.428 141.611 419.755 141.775 420.082C141.884 420.41 141.884 420.791 141.775 421.119C141.775 421.173 141.72 421.282 141.666 421.337L141.556 421.5L141.338 421.828L140.848 422.536L140.357 423.245C140.248 423.463 140.03 423.791 139.702 423.9C139.484 424.009 139.103 424.063 138.83 424.009C138.721 424.063 138.503 423.9 138.23 423.736Z" fill="black"/>
<path d="M156.389 434.915C156.608 435.461 156.662 435.897 156.717 436.442C156.717 436.988 156.662 437.424 156.499 437.969C156.28 437.424 156.226 436.988 156.171 436.442C156.117 435.897 156.117 435.461 156.389 434.915Z" fill="black"/>
<path d="M167.296 436.006C165.715 436.115 164.188 436.06 162.552 435.951C160.97 435.842 159.443 435.679 157.862 435.297C159.443 435.188 160.97 435.242 162.606 435.352C164.188 435.515 165.769 435.679 167.296 436.006Z" fill="#231F20"/>
<path d="M175.748 332.83L179.62 377.165C179.893 380.764 179.293 384.363 177.712 387.635L159.28 425.317L151.7 425.863L162.333 380.982L152.736 336.866C152.736 336.92 157.862 334.575 175.748 332.83Z" fill="#F0CB0C"/>
<path d="M198.979 432.352L164.242 416.81L153.281 423.79L150.664 422.918L147.555 435.515L195.544 439.114C195.489 439.114 197.343 434.315 198.979 432.352Z" fill="#E53617"/>
<path d="M147.501 435.569L141.775 442.277L209.286 443.695C210.54 443.695 211.74 442.822 212.013 441.623L212.34 440.15C212.34 440.15 214.63 437.424 206.123 432.352C197.671 427.281 195.38 439.169 195.38 439.169L147.501 435.569Z" fill="white" stroke="#231F20" stroke-miterlimit="10"/>
<path d="M195.707 441.023C191.836 440.968 187.855 440.805 183.983 440.696C180.111 440.532 176.13 440.369 172.258 440.15L160.534 439.496L154.699 439.169C152.736 439.005 150.827 438.896 148.864 438.787C150.827 438.842 152.736 438.896 154.699 438.951L160.534 439.169L172.258 439.714C176.13 439.932 180.057 440.096 183.983 440.369C187.909 440.423 191.836 440.696 195.707 441.023Z" fill="#231F20"/>
<path d="M195.326 433.006C192.545 431.916 189.763 430.716 186.982 429.571C184.201 428.426 181.474 427.171 178.693 426.026C175.967 424.827 173.185 423.572 170.459 422.373L166.314 420.519C165.006 419.864 163.588 419.264 162.279 418.61C163.697 419.155 165.06 419.701 166.478 420.3L170.677 422.045C173.458 423.191 176.185 424.445 178.966 425.59C181.693 426.79 184.474 428.044 187.2 429.244C189.872 430.443 192.599 431.698 195.326 433.006Z" fill="black"/>
<path d="M186.273 432.188L187.364 432.788C188.073 433.115 188.945 432.842 189.218 432.133L191.072 428.371C191.399 427.662 191.127 426.789 190.418 426.517L189.327 425.917C188.618 425.589 187.746 425.862 187.473 426.571L185.619 430.334C185.292 431.043 185.564 431.861 186.273 432.188Z" fill="white"/>
<path d="M186.273 432.189L187.364 432.734C187.691 432.897 188.182 432.897 188.509 432.734C188.891 432.57 189.164 432.189 189.273 431.861L189.818 430.771L190.8 428.48C190.909 428.317 190.963 428.153 190.963 427.935C191.018 427.771 190.963 427.608 190.963 427.39C190.909 427.062 190.691 426.79 190.363 426.626L189.273 426.026C189 425.863 188.618 425.863 188.291 425.972C188.128 426.026 188.018 426.135 187.909 426.244C187.8 426.354 187.691 426.517 187.637 426.735L187.037 427.826L185.837 429.953C185.619 430.28 185.51 430.716 185.619 431.098C185.619 431.698 185.892 432.025 186.273 432.189ZM186.273 432.189C185.946 432.025 185.619 431.643 185.51 431.261C185.401 430.88 185.51 430.389 185.728 430.062L186.71 427.771L187.255 426.681C187.31 426.517 187.419 426.299 187.582 426.081C187.746 425.917 187.909 425.754 188.182 425.699C188.673 425.536 189.164 425.536 189.6 425.754L190.691 426.299C191.181 426.517 191.454 426.953 191.563 427.444C191.618 427.662 191.618 427.935 191.563 428.208C191.509 428.426 191.4 428.698 191.29 428.862L190.091 430.989L189.491 432.079C189.327 432.407 189 432.843 188.618 432.952C188.237 433.116 187.746 433.061 187.419 432.897L186.273 432.189Z" fill="black"/>
<path d="M180.875 429.516L181.965 430.116C182.674 430.443 183.547 430.17 183.819 429.461L185.673 425.699C186.001 424.99 185.728 424.117 185.019 423.844L183.928 423.245C183.219 422.917 182.347 423.19 182.074 423.899L180.22 427.662C179.893 428.316 180.166 429.189 180.875 429.516Z" fill="white"/>
<path d="M180.875 429.516L181.965 430.062C182.293 430.225 182.783 430.225 183.111 430.062C183.492 429.898 183.765 429.516 183.874 429.189L184.419 428.099L185.401 425.808C185.51 425.645 185.565 425.481 185.565 425.263C185.619 425.099 185.565 424.936 185.565 424.718C185.51 424.39 185.292 424.118 184.965 423.954L183.874 423.354C183.601 423.191 183.22 423.191 182.892 423.3C182.729 423.354 182.62 423.463 182.511 423.572C182.402 423.681 182.293 423.845 182.238 424.063L181.638 425.154L180.438 427.281C180.22 427.608 180.111 428.044 180.22 428.426C180.22 428.971 180.438 429.298 180.875 429.516ZM180.875 429.516C180.548 429.353 180.22 428.971 180.111 428.589C180.002 428.208 180.111 427.717 180.329 427.39L181.311 425.099L181.856 424.009C181.911 423.845 182.02 423.627 182.184 423.409C182.347 423.245 182.511 423.082 182.783 423.027C183.274 422.863 183.765 422.863 184.201 423.082L185.292 423.627C185.783 423.845 186.055 424.281 186.164 424.772C186.219 424.99 186.219 425.263 186.164 425.536C186.11 425.754 186.001 426.026 185.892 426.19L184.692 428.317L184.092 429.407C183.929 429.735 183.601 430.171 183.22 430.28C182.838 430.443 182.347 430.389 182.02 430.225L180.875 429.516Z" fill="black"/>
<path d="M174.93 427.28L176.021 427.88C176.73 428.207 177.602 427.934 177.875 427.225L179.729 423.463C180.056 422.754 179.784 421.881 179.075 421.609L177.984 421.009C177.275 420.682 176.403 420.954 176.13 421.663L174.276 425.426C173.949 426.026 174.221 426.898 174.93 427.28Z" fill="white"/>
<path d="M174.93 427.281L176.021 427.826C176.348 427.989 176.839 427.989 177.166 427.826C177.548 427.662 177.821 427.281 177.93 426.953L178.475 425.863L179.457 423.572C179.566 423.409 179.62 423.245 179.62 423.027C179.675 422.863 179.62 422.7 179.62 422.482C179.566 422.154 179.348 421.882 179.02 421.718L177.93 421.118C177.657 420.955 177.275 420.955 176.948 421.064C176.785 421.118 176.676 421.227 176.566 421.337C176.457 421.446 176.348 421.609 176.294 421.827L175.694 422.918L174.494 425.045C174.276 425.372 174.167 425.808 174.276 426.19C174.331 426.681 174.549 427.117 174.93 427.281ZM174.93 427.281C174.603 427.117 174.276 426.735 174.167 426.354C174.058 425.972 174.167 425.481 174.385 425.154L175.367 422.863L175.912 421.773C175.967 421.609 176.076 421.391 176.239 421.173C176.403 421.009 176.566 420.846 176.839 420.791C177.33 420.628 177.821 420.628 178.257 420.846L179.348 421.391C179.838 421.609 180.111 422.045 180.22 422.536C180.275 422.754 180.275 423.027 180.22 423.3C180.166 423.518 180.057 423.79 179.947 423.954L178.748 426.081L178.148 427.171C177.984 427.499 177.657 427.935 177.275 428.044C176.894 428.208 176.403 428.153 176.076 427.989L174.93 427.281Z" fill="black"/>
<path d="M169.041 424.281L170.132 424.881C170.84 425.208 171.713 424.935 171.986 424.226L173.84 420.463C174.167 419.754 173.894 418.882 173.185 418.609L172.095 418.009C171.386 417.682 170.513 417.955 170.241 418.664L168.387 422.427C168.059 423.081 168.332 423.953 169.041 424.281Z" fill="white"/>
<path d="M169.041 424.281L170.132 424.827C170.459 424.99 170.95 424.99 171.277 424.827C171.659 424.663 171.931 424.281 172.04 423.954L172.586 422.863L173.567 420.573C173.676 420.409 173.731 420.246 173.731 420.028C173.785 419.864 173.731 419.701 173.731 419.482C173.676 419.155 173.458 418.883 173.131 418.719L172.04 418.119C171.768 417.956 171.386 417.956 171.059 418.065C170.895 418.119 170.786 418.228 170.677 418.337C170.568 418.446 170.459 418.61 170.404 418.828L169.804 419.919L168.605 422.045C168.387 422.373 168.278 422.809 168.387 423.191C168.387 423.736 168.605 424.063 169.041 424.281ZM169.041 424.281C168.714 424.118 168.387 423.736 168.278 423.354C168.168 422.973 168.278 422.482 168.496 422.155L169.477 419.864L170.023 418.773C170.077 418.61 170.186 418.392 170.35 418.174C170.513 418.01 170.677 417.846 170.95 417.792C171.44 417.628 171.931 417.628 172.367 417.846L173.458 418.392C173.949 418.61 174.222 419.046 174.331 419.537C174.385 419.755 174.385 420.028 174.331 420.3C174.276 420.519 174.167 420.791 174.058 420.955L172.858 423.082L172.258 424.172C172.095 424.499 171.768 424.936 171.386 425.045C171.004 425.208 170.513 425.154 170.186 424.99L169.041 424.281Z" fill="black"/>
<path d="M195.489 439.114C195.762 439.823 195.816 440.532 195.871 441.187C195.925 441.895 195.871 442.604 195.707 443.313C195.435 442.604 195.38 441.895 195.326 441.241C195.271 440.532 195.326 439.878 195.489 439.114Z" fill="black"/>
<path d="M210.922 440.096C208.741 440.205 206.45 440.205 204.269 440.096C202.088 439.987 199.852 439.878 197.671 439.496C199.852 439.387 202.142 439.387 204.324 439.496C206.505 439.605 208.741 439.769 210.922 440.096Z" fill="#231F20"/>
<path d="M177.057 437.424L180.111 430.28L173.84 427.99L169.313 436.769L177.057 437.424Z" stroke="black" stroke-width="0.5" stroke-miterlimit="10"/>
<path d="M153.764 262.976L150.173 264.563L152.508 269.851L156.1 268.264L153.764 262.976Z" fill="#EAB575"/>
<path d="M147.337 338.283C147.337 338.283 145.756 347.827 156.553 354.589L161.025 336.866L158.734 335.175C158.734 335.23 149.191 337.411 147.337 338.283Z" fill="#F0CB0C"/>
<path d="M163.915 338.283L165.551 348.808L167.132 359.333L170.186 380.328L170.022 380.11L173.294 381.31L174.221 381.637L173.24 381.801L168.605 382.782L168.659 382.237L171.222 383.382L171.44 383.491L171.331 383.709C169.259 389.217 167.132 394.725 165.006 400.233L161.788 408.467L158.516 416.701L161.515 408.467L164.569 400.178C166.587 394.616 168.714 389.108 170.731 383.6L170.84 383.927L168.277 382.782L167.514 382.455L168.332 382.291L172.967 381.31L172.913 381.855L169.641 380.655L169.477 380.601V380.437L166.532 359.442L165.06 348.917L163.915 338.283Z" fill="white"/>
<path d="M168.768 346.082C169.096 344.391 169.695 342.81 170.241 341.283C170.841 339.701 171.44 338.174 172.258 336.647C171.931 338.338 171.331 339.919 170.786 341.446C170.241 343.082 169.586 344.609 168.768 346.082Z" fill="#2B9EAA"/>
<path d="M150.936 283.042C151.809 286.641 152.627 290.24 153.445 293.785C154.263 297.384 155.026 300.983 155.789 304.582C156.553 308.181 157.316 311.78 157.971 315.38L159.007 320.778C159.334 322.578 159.716 324.378 159.989 326.232C159.498 324.432 159.116 322.632 158.734 320.833L157.535 315.434C156.717 311.835 155.953 308.236 155.19 304.637C154.426 301.038 153.663 297.438 153.008 293.839C152.245 290.295 151.536 286.695 150.936 283.042Z" fill="url(#paint0_linear)"/>
<path opacity="0.34" d="M175.749 332.83C175.749 332.83 149.355 340.465 149.573 347.608C149.573 347.608 146.683 343.191 147.392 338.229C147.337 338.283 158.516 334.248 175.749 332.83Z" fill="url(#paint1_linear)"/>
<g opacity="0.3">
<path opacity="0.3" d="M142.593 334.302C145.265 332.994 148.046 331.849 150.881 330.921C153.717 329.994 156.607 329.231 159.552 328.631C162.497 328.086 165.442 327.704 168.441 327.54C171.44 327.431 174.44 327.65 177.384 328.249C174.385 328.086 171.44 328.14 168.496 328.413C165.551 328.74 162.661 329.122 159.77 329.722C156.88 330.322 153.99 331.031 151.154 331.794C149.736 332.176 148.318 332.612 146.901 332.994C145.428 333.375 144.01 333.866 142.593 334.302Z" fill="url(#paint2_linear)"/>
</g>
<path opacity="0.3" d="M144.065 282.115C144.065 282.115 141.72 322.36 158.025 325.414L140.52 330.703L143.792 282.278L144.065 282.115Z" fill="url(#paint3_linear)"/>
<path opacity="0.24" d="M154.481 264.61L151.209 266.9L150.173 264.501C150.173 264.555 151.699 265.428 154.481 264.61Z" fill="url(#paint4_linear)"/>
<path d="M150.936 256.048V259.429C150.936 259.429 150.282 257.793 149.3 258.066C148.318 258.339 148.318 259.429 148.318 259.429C148.318 259.429 148.537 260.902 149.954 261.229L148.918 264.228C148.918 264.228 143.52 260.738 142.592 257.521C141.665 254.249 138.666 250.868 138.666 250.868C138.666 250.868 142.156 251.195 142.592 252.013C143.029 252.831 142.265 247.323 139.539 245.796C139.539 245.796 145.428 245.36 146.628 249.668C146.628 249.668 150.336 245.033 147.5 241.215C147.5 241.215 153.717 242.197 151.209 248.196C151.209 248.196 156.498 247.923 156.553 244.705C156.553 244.705 156.989 248.359 154.481 251.849L150.936 252.722L151.536 254.358L150.936 256.048Z" fill="black"/>
<path d="M139.266 299.729C139.266 299.729 147.501 276.007 154.917 274.971C162.333 273.935 165.333 300.329 165.333 300.329" fill="#F985AF"/>
<path d="M165.335 300.419C165.354 299.636 159.536 298.861 152.34 298.687C145.144 298.513 139.295 299.007 139.276 299.789C139.257 300.572 145.075 301.348 152.271 301.522C159.467 301.696 165.316 301.202 165.335 300.419Z" fill="#231F20"/>
<path d="M149.3 272.899C150.227 273.117 151.154 273.281 152.027 273.39C152.954 273.499 153.881 273.499 154.753 273.39C155.626 273.281 156.498 273.008 157.316 272.572C158.134 272.135 158.789 271.481 159.389 270.827C158.952 271.645 158.352 272.463 157.535 272.953C156.717 273.499 155.789 273.826 154.808 273.935C153.826 274.044 152.899 273.99 151.972 273.826C151.045 273.608 150.118 273.335 149.3 272.899Z" fill="url(#paint5_linear)"/>
<path d="M162.224 415.502C161.025 416.211 159.77 416.756 158.462 417.301C157.153 417.792 155.844 418.283 154.481 418.61C155.68 417.901 156.935 417.356 158.243 416.81C159.552 416.32 160.861 415.829 162.224 415.502Z" fill="#CAAA09"/>
<path d="M155.462 359.769C155.68 363.859 155.953 367.949 156.117 372.039L156.389 378.147L156.662 384.254V384.527H156.389H152.354L152.517 384.091L156.825 387.635L157.153 387.908L156.771 388.072L153.881 389.544L153.99 389.49C150.718 393.852 147.5 398.215 144.228 402.577C140.956 406.94 137.685 411.248 134.358 415.611C137.521 411.194 140.684 406.776 143.901 402.359C147.119 397.942 150.336 393.58 153.554 389.162L153.608 389.108L153.663 389.053L156.553 387.581L156.498 388.017L152.245 384.473L151.699 384.036H152.408H156.444L156.226 384.309L156.007 378.201L155.789 372.094C155.626 367.895 155.517 363.805 155.462 359.769Z" fill="#F0CB0C"/>
<path d="M161.515 298.965L158.353 319.415L172.258 336.593L168.768 346.027L148.155 323.614C148.155 323.614 146.955 322.578 147.228 321.106C147.501 319.579 145.646 298.42 145.646 298.42C145.646 298.42 154.317 297.438 161.515 298.965Z" fill="#EAB575"/>
<path opacity="0.24" d="M153.008 298.147L149.845 321.76L167.95 345.209L148.209 323.723C148.209 323.723 147.119 322.96 147.282 321.215C147.446 319.47 145.701 298.529 145.701 298.529C145.701 298.529 151.045 298.093 153.008 298.147Z" fill="url(#paint6_linear)"/>
<path d="M158.025 278.025C158.025 278.025 162.77 291.767 156.826 295.039L163.261 295.857C163.261 295.857 163.315 288.768 158.025 278.025Z" fill="url(#paint7_linear)"/>
<path opacity="0.38" d="M158.516 298.475L158.352 319.415L161.515 298.965L158.516 298.475Z" fill="url(#paint8_linear)"/>
<path opacity="0.3" d="M155.79 274.917L148.537 291.276C148.155 292.149 148.482 293.13 149.3 293.567C150.391 294.221 151.372 294.603 153.881 294.984L141.502 294.003C141.502 294.057 147.882 275.571 155.79 274.917Z" fill="url(#paint9_linear)"/>
<path d="M161.734 274.971C163.097 279.061 164.406 283.151 165.715 287.241L169.532 299.565L173.24 311.89L175.04 318.052L176.785 324.268L174.767 318.161L172.804 311.999L168.986 299.674L165.278 287.35C164.133 283.205 162.933 279.115 161.734 274.971Z" fill="url(#paint10_linear)"/>
<path d="M143.792 255.83C144.774 255.23 145.755 254.794 146.791 254.303C147.828 253.867 148.864 253.485 149.954 253.158C148.973 253.758 147.991 254.194 146.955 254.685C145.919 255.121 144.883 255.557 143.792 255.83Z" fill="url(#paint11_linear)"/>
<path d="M156.553 244.705C156.553 244.705 155.571 251.304 152.736 252.231L154.481 251.795C154.481 251.849 156.88 248.686 156.553 244.705Z" fill="url(#paint12_linear)"/>
<path d="M149.573 243.069C150.173 243.669 150.554 244.542 150.663 245.414C150.718 245.851 150.663 246.287 150.554 246.723C150.445 247.159 150.227 247.541 149.954 247.868C150.064 247.432 150.173 247.05 150.227 246.668C150.282 246.287 150.282 245.851 150.227 245.469C150.173 245.087 150.118 244.651 150.009 244.269C149.9 243.833 149.791 243.451 149.573 243.069Z" fill="url(#paint13_linear)"/>
<path d="M288.375 454.383L203.741 423.518V217.057L288.375 187.882V454.383Z" fill="#20D372"/>
<path d="M25.4962 186.192L110.076 217.057V423.518L25.4962 452.638V186.192Z" fill="#2266E6"/>
<path d="M242.241 287.132C253.144 287.132 261.982 274.045 261.982 257.902C261.982 241.759 253.144 228.673 242.241 228.673C231.339 228.673 222.5 241.759 222.5 257.902C222.5 274.045 231.339 287.132 242.241 287.132Z" fill="white"/>
<path d="M67.7589 287.132C78.6614 287.132 87.4997 274.045 87.4997 257.902C87.4997 241.759 78.6614 228.673 67.7589 228.673C56.8563 228.673 48.0181 241.759 48.0181 257.902C48.0181 274.045 56.8563 287.132 67.7589 287.132Z" fill="white"/>
<path d="M67.7589 294.603C81.4624 294.603 92.5713 278.171 92.5713 257.902C92.5713 237.633 81.4624 221.202 67.7589 221.202C54.0554 221.202 42.9465 237.633 42.9465 257.902C42.9465 278.171 54.0554 294.603 67.7589 294.603Z" stroke="white" stroke-miterlimit="10"/>
<path d="M242.241 294.603C255.945 294.603 267.053 278.171 267.053 257.902C267.053 237.633 255.945 221.202 242.241 221.202C228.538 221.202 217.429 237.633 217.429 257.902C217.429 278.171 228.538 294.603 242.241 294.603Z" stroke="white" stroke-miterlimit="10"/>
<path d="M203.741 315.652H288.375" stroke="white" stroke-miterlimit="10"/>
<path d="M25.4962 319.033H110.076" stroke="white" stroke-miterlimit="10"/>
<path opacity="0.34" d="M156.826 231.345C159.175 231.345 161.079 229.441 161.079 227.091C161.079 224.742 159.175 222.838 156.826 222.838C154.476 222.838 152.572 224.742 152.572 227.091C152.572 229.441 154.476 231.345 156.826 231.345Z" fill="url(#paint14_linear)"/>
<path d="M168.605 227.092C171.877 226.982 175.094 226.928 178.366 226.873C181.638 226.819 184.855 226.819 188.127 226.819C191.399 226.819 194.617 226.819 197.889 226.873L202.742 226.928C204.378 226.982 206.014 226.982 207.595 227.037C205.959 227.092 204.323 227.146 202.742 227.146L197.889 227.201C194.617 227.255 191.399 227.255 188.127 227.255C184.855 227.255 181.638 227.255 178.366 227.201C175.094 227.255 171.822 227.201 168.605 227.092Z" fill="#DBDBDB"/>
<path d="M104.802 227.092C108.073 226.982 111.291 226.928 114.563 226.873C117.835 226.819 121.052 226.819 124.324 226.819C127.596 226.819 130.814 226.819 134.086 226.873L138.939 226.928C140.575 226.982 142.211 226.982 143.792 227.037C142.156 227.092 140.52 227.146 138.939 227.146L134.086 227.201C130.814 227.255 127.596 227.255 124.324 227.255C121.052 227.255 117.835 227.255 114.563 227.201C111.291 227.255 108.019 227.201 104.802 227.092Z" fill="#DBDBDB"/>
<path d="M105.892 223.656C105.02 224.91 104.038 226.11 103.056 227.255V226.873C104.038 227.964 105.02 229.109 105.892 230.363C104.692 229.382 103.656 228.346 102.62 227.2L102.457 227.037L102.62 226.873C103.656 225.783 104.692 224.692 105.892 223.656Z" fill="#DBDBDB"/>
<path d="M206.886 230.418C207.759 229.163 208.741 227.964 209.722 226.819V227.2C208.741 226.11 207.759 224.964 206.886 223.71C208.086 224.692 209.122 225.728 210.158 226.873L210.322 227.037L210.158 227.2C209.122 228.291 208.086 229.436 206.886 230.418Z" fill="#DBDBDB"/>
<path d="M156.826 229.709C158.271 229.709 159.443 228.537 159.443 227.091C159.443 225.646 158.271 224.474 156.826 224.474C155.38 224.474 154.208 225.646 154.208 227.091C154.208 228.537 155.38 229.709 156.826 229.709Z" fill="#56D0ED"/>
<path d="M25.3324 364.514L110.294 355.952" stroke="white" stroke-miterlimit="10"/>
<path d="M25.4962 414.193L110.076 389.162" stroke="white" stroke-miterlimit="10"/>
<path d="M288.539 366.259L203.578 357.697" stroke="white" stroke-miterlimit="10"/>
<path d="M288.376 415.938L203.796 390.907" stroke="white" stroke-miterlimit="10"/>
<path d="M23 454.383L28.1261 452.638V186.192H23V454.383Z" fill="url(#paint15_linear)" stroke="white" stroke-miterlimit="10"/>
<path d="M283.614 454.383L288.74 456.346V187.882H283.614V454.383Z" fill="url(#paint16_linear)" stroke="white" stroke-miterlimit="10"/>
<defs>
<linearGradient id="paint0_linear" x1="150.642" y1="304.651" x2="160.224" y2="304.651" gradientUnits="userSpaceOnUse">
<stop stop-color="#F7941D"/>
<stop offset="1" stop-color="#F7941D" stop-opacity="0.1"/>
</linearGradient>
<linearGradient id="paint1_linear" x1="147.232" y1="340.252" x2="175.717" y2="340.252" gradientUnits="userSpaceOnUse">
<stop stop-color="#1C75BC" stop-opacity="0.1"/>
<stop offset="0.1413" stop-color="#1C75BC" stop-opacity="0.2272"/>
<stop offset="1" stop-color="#1C75BC"/>
</linearGradient>
<linearGradient id="paint2_linear" x1="142.388" y1="330.924" x2="177.465" y2="330.924" gradientUnits="userSpaceOnUse">
<stop stop-color="#2B3990"/>
<stop offset="1" stop-color="#1C75BC" stop-opacity="0.1"/>
</linearGradient>
<linearGradient id="paint3_linear" x1="140.539" y1="306.407" x2="158.044" y2="306.407" gradientUnits="userSpaceOnUse">
<stop stop-color="#2B3990"/>
<stop offset="1" stop-color="#1C75BC" stop-opacity="0.1"/>
</linearGradient>
<linearGradient id="paint4_linear" x1="150.143" y1="265.733" x2="154.496" y2="265.733" gradientUnits="userSpaceOnUse">
<stop stop-color="#603913"/>
<stop offset="1" stop-color="#603913" stop-opacity="0.1"/>
</linearGradient>
<linearGradient id="paint5_linear" x1="149.187" y1="272.393" x2="159.654" y2="272.393" gradientUnits="userSpaceOnUse">
<stop stop-color="white"/>
<stop offset="1" stop-color="white" stop-opacity="0.1"/>
</linearGradient>
<linearGradient id="paint6_linear" x1="145.699" y1="321.661" x2="167.964" y2="321.661" gradientUnits="userSpaceOnUse">
<stop stop-color="#603913"/>
<stop offset="1" stop-color="#603913" stop-opacity="0.1"/>
</linearGradient>
<linearGradient id="paint7_linear" x1="156.832" y1="286.964" x2="163.245" y2="286.964" gradientUnits="userSpaceOnUse">
<stop stop-color="white"/>
<stop offset="1" stop-color="white" stop-opacity="0.1"/>
</linearGradient>
<linearGradient id="paint8_linear" x1="158.378" y1="308.963" x2="161.515" y2="308.963" gradientUnits="userSpaceOnUse">
<stop stop-color="white"/>
<stop offset="1" stop-color="white" stop-opacity="0.1"/>
</linearGradient>
<linearGradient id="paint9_linear" x1="159.667" y1="282.03" x2="140.588" y2="292.438" gradientUnits="userSpaceOnUse">
<stop stop-color="#2B3990"/>
<stop offset="1" stop-color="#1C75BC" stop-opacity="0.1"/>
</linearGradient>
<linearGradient id="paint10_linear" x1="161.497" y1="299.609" x2="177.12" y2="299.609" gradientUnits="userSpaceOnUse">
<stop stop-color="white"/>
<stop offset="1" stop-color="white" stop-opacity="0.1"/>
</linearGradient>
<linearGradient id="paint11_linear" x1="143.708" y1="254.508" x2="150.055" y2="254.508" gradientUnits="userSpaceOnUse">
<stop stop-color="white"/>
<stop offset="1" stop-color="white" stop-opacity="0.1"/>
</linearGradient>
<linearGradient id="paint12_linear" x1="152.778" y1="248.494" x2="156.6" y2="248.494" gradientUnits="userSpaceOnUse">
<stop stop-color="white"/>
<stop offset="1" stop-color="white" stop-opacity="0.1"/>
</linearGradient>
<linearGradient id="paint13_linear" x1="149.424" y1="245.46" x2="150.715" y2="245.46" gradientUnits="userSpaceOnUse">
<stop stop-color="white"/>
<stop offset="1" stop-color="white" stop-opacity="0.1"/>
</linearGradient>
<linearGradient id="paint14_linear" x1="152.556" y1="227.073" x2="161.06" y2="227.073" gradientUnits="userSpaceOnUse">
<stop stop-color="#1C75BC" stop-opacity="0.1"/>
<stop offset="0.1413" stop-color="#1C75BC" stop-opacity="0.2272"/>
<stop offset="1" stop-color="#1C75BC"/>
</linearGradient>
<linearGradient id="paint15_linear" x1="25.5831" y1="454.357" x2="25.5831" y2="186.193" gradientUnits="userSpaceOnUse">
<stop stop-color="#E6E7E8"/>
<stop offset="1" stop-color="white" stop-opacity="0.1"/>
</linearGradient>
<linearGradient id="paint16_linear" x1="286.157" y1="456.362" x2="286.157" y2="187.906" gradientUnits="userSpaceOnUse">
<stop stop-color="#E6E7E8"/>
<stop offset="1" stop-color="white" stop-opacity="0.1"/>
</linearGradient>
</defs>
</svg>
