<svg width="312" height="480" viewBox="0 0 312 480" fill="none" xmlns="http://www.w3.org/2000/svg">
<rect width="312" height="480" fill="#EDFCF4"/>
<path d="M44.9048 381.843L65.3435 371.427L71.0276 378.034L72.1678 374.325L75.0495 384.389L46.9016 386.497C46.9016 386.497 45.8351 383.14 44.9048 381.843Z" fill="#FBE54B"/>
<path d="M75.0502 384.389L78.363 389.049L38.7676 389.508C38.0074 389.515 37.3437 388.91 37.1679 388.039L36.9636 387.022C36.9636 387.022 35.6703 385.134 40.6566 381.744C45.6486 378.353 46.9022 386.497 46.9022 386.497L75.0502 384.389Z" fill="white" stroke="#231F20" stroke-miterlimit="10"/>
<path d="M46.7598 387.78C49.0459 387.541 51.332 387.368 53.6181 387.208C55.9042 387.049 58.1959 386.949 60.482 386.816C62.7738 386.736 65.0599 386.63 67.3517 386.577L70.7893 386.51C71.9352 386.51 73.0811 386.49 74.227 386.517C73.0868 386.643 71.9409 386.729 70.8007 386.836L67.3687 387.088C65.0826 387.248 62.7908 387.348 60.5047 387.481C58.213 387.56 55.9269 387.667 53.6351 387.72C51.3433 387.767 49.0515 387.806 46.7598 387.78Z" fill="#231F20"/>
<path d="M47.0376 382.289C48.6146 381.358 50.22 380.494 51.8254 379.636C53.4307 378.772 55.0531 377.961 56.6755 377.15C58.3036 376.352 59.9316 375.555 61.5767 374.803L64.0444 373.68C64.8726 373.328 65.7008 372.955 66.5347 372.623C65.7462 373.095 64.9463 373.527 64.1521 373.979L61.7469 375.269C60.1415 376.126 58.5191 376.944 56.8967 377.755C55.2687 378.553 53.6406 379.35 51.9955 380.102C50.3505 380.866 48.7054 381.611 47.0376 382.289Z" fill="white"/>
<path d="M52.0228 382.003C51.4329 382.342 50.7125 382.049 50.4288 381.358L49.6744 379.536C49.385 378.845 49.6346 378.001 50.2246 377.668C50.8146 377.329 51.535 377.622 51.8186 378.313L52.5731 380.135C52.8624 380.826 52.6128 381.664 52.0228 382.003Z" fill="white"/>
<path d="M52.0181 382.003C51.6097 382.249 51.0821 382.189 50.7077 381.857C50.5148 381.697 50.3673 381.444 50.2652 381.218L49.9192 380.527L49.5732 379.836C49.4597 379.63 49.3179 379.297 49.3065 378.985C49.2612 378.34 49.5788 377.669 50.0951 377.376C50.6056 377.084 51.258 377.197 51.6607 377.635C51.8649 377.835 52.0011 378.18 52.0692 378.406L52.3188 379.158L52.5684 379.909C52.6591 380.148 52.7385 380.441 52.7215 380.713C52.7159 381.258 52.4322 381.777 52.0181 382.003ZM52.0181 382.003C52.4322 381.77 52.6932 381.225 52.6478 380.707C52.6308 380.441 52.5343 380.221 52.4095 379.989L52.0635 379.297L51.7174 378.606C51.5983 378.347 51.5019 378.214 51.3487 378.074C51.0537 377.821 50.651 377.782 50.3447 377.968C50.027 378.141 49.8057 378.533 49.7944 378.958C49.7887 379.184 49.8228 379.357 49.9192 379.623L50.1688 380.374L50.4184 381.125C50.4978 381.385 50.5829 381.604 50.7531 381.783C51.0821 382.142 51.604 382.242 52.0181 382.003Z" fill="black"/>
<path d="M55.217 380.182C54.627 380.521 53.9066 380.228 53.6229 379.537L52.8684 377.715C52.5791 377.024 52.8287 376.18 53.4187 375.847C54.0087 375.508 54.7291 375.801 55.0127 376.492L55.7672 378.314C56.0565 379.005 55.8069 379.849 55.217 380.182Z" fill="white"/>
<path d="M55.2122 380.182C54.8038 380.428 54.2762 380.368 53.9018 380.035C53.7089 379.876 53.5614 379.623 53.4593 379.397L53.1133 378.706L52.7673 378.014C52.6538 377.808 52.512 377.476 52.5006 377.164C52.4553 376.519 52.7729 375.847 53.2891 375.555C53.7997 375.262 54.4521 375.375 54.8548 375.814C55.059 376.013 55.1952 376.359 55.2633 376.585L55.5129 377.336L55.7625 378.088C55.8532 378.327 55.9326 378.619 55.9156 378.892C55.91 379.437 55.6263 379.956 55.2122 380.182ZM55.2122 380.182C55.6263 379.949 55.8873 379.404 55.8419 378.885C55.8249 378.619 55.7284 378.4 55.6036 378.167L55.2576 377.476L54.9116 376.785C54.7924 376.525 54.696 376.392 54.5428 376.253C54.2478 376 53.8451 375.96 53.5387 376.146C53.2211 376.319 52.9998 376.711 52.9885 377.137C52.9828 377.363 53.0169 377.536 53.1133 377.802L53.3629 378.553L53.6125 379.304C53.6919 379.563 53.777 379.783 53.9472 379.962C54.2705 380.328 54.7981 380.421 55.2122 380.182Z" fill="black"/>
<path d="M58.6945 378.679C58.1045 379.018 57.3841 378.726 57.1005 378.034L56.346 376.213C56.0567 375.522 56.3063 374.677 56.8962 374.345C57.4862 374.006 58.2066 374.298 58.4903 374.99L59.2447 376.811C59.534 377.496 59.2844 378.34 58.6945 378.679Z" fill="white"/>
<path d="M58.6897 378.679C58.2813 378.925 57.7537 378.865 57.3793 378.533C57.1865 378.373 57.039 378.121 56.9369 377.895L56.5908 377.203L56.2448 376.512C56.1313 376.306 55.9895 375.974 55.9782 375.661C55.9328 375.016 56.2505 374.345 56.7667 374.052C57.2772 373.76 57.9296 373.873 58.3323 374.312C58.5366 374.511 58.6727 374.857 58.7408 375.083L58.9904 375.834L59.24 376.585C59.3307 376.824 59.4101 377.117 59.3931 377.389C59.3875 377.928 59.1038 378.453 58.6897 378.679ZM58.6897 378.679C59.1038 378.446 59.3648 377.901 59.3194 377.383C59.3024 377.117 59.2059 376.898 59.0811 376.665L58.7351 375.974L58.3891 375.282C58.2699 375.023 58.1735 374.89 58.0203 374.75C57.7254 374.498 57.3226 374.458 57.0163 374.644C56.6986 374.817 56.4774 375.209 56.466 375.634C56.4604 375.86 56.4944 376.033 56.5908 376.299L56.8404 377.05L57.09 377.802C57.1694 378.061 57.2545 378.28 57.4247 378.46C57.7481 378.819 58.2756 378.912 58.6897 378.679Z" fill="black"/>
<path d="M62.194 376.685C61.604 377.024 60.8836 376.731 60.6 376.04L59.8455 374.219C59.5562 373.527 59.8058 372.683 60.3957 372.351C60.9857 372.012 61.7061 372.304 61.9898 372.995L62.7442 374.817C63.0279 375.508 62.7839 376.352 62.194 376.685Z" fill="white"/>
<path d="M62.1902 376.685C61.7818 376.931 61.2542 376.871 60.8798 376.539C60.687 376.379 60.5395 376.126 60.4374 375.9L60.0913 375.209L59.7453 374.518C59.6318 374.312 59.49 373.979 59.4787 373.667C59.4333 373.022 59.751 372.351 60.2672 372.058C60.7777 371.766 61.4301 371.879 61.8328 372.317C62.0371 372.517 62.1732 372.863 62.2413 373.089L62.4909 373.84L62.7405 374.591C62.8313 374.83 62.9107 375.123 62.8937 375.395C62.888 375.94 62.6043 376.459 62.1902 376.685ZM62.1902 376.685C62.6043 376.452 62.8653 375.907 62.8199 375.389C62.8029 375.123 62.7065 374.903 62.5817 374.671L62.2356 373.979L61.8896 373.288C61.7705 373.029 61.674 372.896 61.5208 372.756C61.2259 372.504 60.8231 372.464 60.5168 372.65C60.1991 372.823 59.9779 373.215 59.9665 373.64C59.9608 373.866 59.9949 374.039 60.0913 374.305L60.3409 375.056L60.5905 375.807C60.6699 376.067 60.755 376.286 60.9252 376.466C61.2486 376.831 61.7761 376.924 62.1902 376.685Z" fill="black"/>
<path d="M46.902 386.497C47.0946 387.002 47.1172 387.494 47.0946 387.979C47.0549 388.464 46.9756 388.943 46.7264 389.415C46.5338 388.91 46.5111 388.418 46.5338 387.932C46.5734 387.447 46.6527 386.969 46.902 386.497Z" fill="black"/>
<path d="M37.8423 387.035C39.1357 386.729 40.4347 386.63 41.7338 386.57C43.0328 386.537 44.3375 386.55 45.6423 386.769C44.3489 387.075 43.0498 387.182 41.7508 387.235C40.4517 387.275 39.147 387.255 37.8423 387.035Z" fill="#231F20"/>
<path d="M277.566 439.272H232.445C230.528 439.272 228.968 437.451 228.968 435.197V320.958C228.968 318.711 230.522 316.883 232.445 316.883H277.56C279.477 316.883 281.037 318.704 281.037 320.958V435.197C281.037 437.451 279.483 439.272 277.566 439.272Z" fill="#E0A66C"/>
<path d="M89.2144 439.272H19.3891C16.4109 439.272 14 436.447 14 432.957V395.325C14 391.835 16.4109 389.01 19.3891 389.01H89.2144C92.1926 389.01 94.6035 391.835 94.6035 395.325V432.957C94.6035 436.447 92.1869 439.272 89.2144 439.272Z" fill="#F95F8F"/>
<path d="M69.508 404.399H50.5725C50.0563 404.399 49.6309 403.9 49.6309 403.295C49.6309 402.69 50.0563 402.192 50.5725 402.192H69.508C70.0242 402.192 70.4497 402.69 70.4497 403.295C70.4497 403.9 70.0242 404.399 69.508 404.399Z" fill="white"/>
<path d="M28.9597 436.806L64.0227 418.631L75.0561 426.901L77.7223 425.91L80.8366 440.808L32.4428 444.783C32.4314 444.79 30.5651 439.02 28.9597 436.806Z" fill="#FBE54B"/>
<path d="M80.8249 440.814L86.56 448.792L18.4592 450.061C17.1544 450.088 16.0086 449.044 15.6966 447.562L15.3335 445.813C15.3335 445.813 13.0871 442.576 21.6416 436.686C30.196 430.796 32.4254 444.79 32.4254 444.79L80.8249 440.814Z" fill="white" stroke="#231F20" stroke-miterlimit="10"/>
<path d="M32.1926 446.99C36.1238 446.644 40.0607 446.372 43.9919 446.106L55.7968 445.401L67.6073 444.85L73.5183 444.63C75.4867 444.584 77.4608 444.511 79.4292 444.477C77.4665 444.657 75.4981 444.796 73.5296 444.956L67.63 445.361L55.8251 446.066L44.0145 446.618C40.0777 446.771 36.1352 446.917 32.1926 446.99Z" fill="#231F20"/>
<path d="M32.6238 437.544C35.3637 436.015 38.132 434.552 40.9003 433.097C43.6685 431.641 46.4595 430.238 49.2335 428.809C52.0301 427.426 54.8154 426.024 57.6234 424.667L61.8325 422.647C63.245 421.995 64.6519 421.324 66.07 420.692C64.7029 421.463 63.3188 422.195 61.946 422.946L57.7992 425.139C55.031 426.595 52.24 427.998 49.466 429.42C46.6694 430.797 43.8841 432.206 41.0761 433.562C38.2624 434.918 35.4545 436.268 32.6238 437.544Z" fill="black"/>
<path d="M41.8069 436.64L40.5873 437.345C39.9122 437.737 39.084 437.411 38.7493 436.613L36.8319 432.066C36.4972 431.275 36.7752 430.305 37.4559 429.912L38.6756 429.208C39.3506 428.816 40.1788 429.141 40.5135 429.939L42.4309 434.486C42.7656 435.277 42.4819 436.248 41.8069 436.64Z" fill="white"/>
<path d="M41.8016 436.64L40.6841 437.298C40.3267 437.544 39.8615 437.624 39.4588 437.444C39.2602 437.358 39.0674 437.225 38.9142 437.045C38.7554 436.866 38.6533 436.626 38.5568 436.42L37.9555 435.131L36.7529 432.558L36.6054 432.232C36.5544 432.119 36.5033 431.973 36.4693 431.84C36.4012 431.561 36.3899 431.262 36.4409 430.976C36.5317 430.398 36.8664 429.886 37.3145 429.62L38.4377 428.982C38.8348 428.716 39.4077 428.656 39.8502 428.889C40.0771 428.995 40.2813 429.168 40.4402 429.387C40.6047 429.6 40.7011 429.873 40.7805 430.085L41.2854 431.428L42.3008 434.107C42.3859 434.326 42.488 434.546 42.5391 434.792C42.5901 435.038 42.5844 435.284 42.5391 435.53C42.4653 436.002 42.176 436.427 41.8016 436.64ZM41.8016 436.64C42.176 436.42 42.4483 435.995 42.5277 435.516C42.5674 435.277 42.5561 435.031 42.4993 434.798C42.4426 434.566 42.3292 434.36 42.2384 434.14L41.0358 431.568L40.4345 430.285C40.3324 430.059 40.2473 429.879 40.1225 429.74C39.9977 429.593 39.8445 429.494 39.6857 429.42C39.351 429.281 39.0163 429.334 38.6873 429.553L37.5698 430.212C37.2748 430.378 37.0422 430.717 36.9741 431.102C36.9401 431.295 36.9344 431.495 36.9741 431.687C36.9968 431.787 37.0195 431.873 37.0592 431.973L37.1897 432.306L38.2051 434.985L38.71 436.327C38.8518 436.786 39.0957 437.178 39.4815 437.358C39.8559 437.551 40.304 437.511 40.6671 437.278L41.8016 436.64Z" fill="black"/>
<path d="M47.2815 433.469L46.0619 434.173C45.3868 434.566 44.5586 434.24 44.2239 433.442L42.3065 428.895C41.9718 428.104 42.2498 427.134 42.9305 426.741L44.1502 426.037C44.8252 425.644 45.6534 425.97 45.9881 426.768L47.9055 431.315C48.2345 432.106 47.9565 433.076 47.2815 433.469Z" fill="white"/>
<path d="M47.2762 433.469L46.1587 434.127C45.8013 434.373 45.3362 434.453 44.9334 434.273C44.7349 434.187 44.542 434.054 44.3888 433.874C44.23 433.695 44.1279 433.455 44.0314 433.249L43.4301 431.96L42.2275 429.387L42.08 429.061C42.029 428.948 41.9779 428.802 41.9439 428.669C41.8758 428.39 41.8645 428.091 41.9155 427.805C42.0063 427.227 42.341 426.715 42.7891 426.449L43.9123 425.811C44.3094 425.545 44.8824 425.485 45.3248 425.718C45.5517 425.824 45.7559 425.997 45.9148 426.216C46.0793 426.429 46.1757 426.701 46.2552 426.914L46.76 428.257L47.7754 430.936C47.8605 431.155 47.9626 431.375 48.0137 431.621C48.0647 431.867 48.0591 432.113 48.0137 432.359C47.9343 432.831 47.6506 433.256 47.2762 433.469ZM47.2762 433.469C47.6506 433.249 47.9229 432.824 48.0024 432.345C48.0421 432.106 48.0307 431.86 47.974 431.627C47.9173 431.395 47.8038 431.189 47.713 430.969L46.5104 428.397L45.9091 427.114C45.807 426.888 45.7219 426.708 45.5971 426.568C45.4723 426.422 45.3191 426.322 45.1603 426.249C44.8256 426.11 44.4909 426.163 44.1619 426.382L43.0444 427.04C42.7494 427.207 42.5168 427.546 42.4488 427.931C42.4147 428.124 42.409 428.323 42.4488 428.516C42.4714 428.616 42.4941 428.702 42.5338 428.802L42.6643 429.134L43.6797 431.813L44.1846 433.156C44.3264 433.615 44.5703 434.007 44.9561 434.187C45.3305 434.379 45.7786 434.34 46.1417 434.107L47.2762 433.469Z" fill="black"/>
<path d="M53.2485 430.836L52.0289 431.541C51.3539 431.933 50.5256 431.607 50.191 430.81L48.2736 426.263C47.9389 425.472 48.2169 424.501 48.8976 424.109L50.1172 423.404C50.7923 423.012 51.6205 423.338 51.9552 424.136L53.8725 428.683C54.2072 429.474 53.9236 430.444 53.2485 430.836Z" fill="white"/>
<path d="M53.2445 430.836L52.127 431.494C51.7696 431.74 51.3044 431.82 50.9017 431.641C50.7031 431.554 50.5102 431.421 50.3571 431.242C50.1982 431.062 50.0961 430.823 49.9997 430.617L49.3984 429.327L48.1958 426.755L48.0483 426.429C47.9972 426.316 47.9462 426.17 47.9121 426.037C47.8441 425.758 47.8327 425.458 47.8838 425.173C47.9745 424.594 48.3092 424.082 48.7574 423.816L49.8806 423.178C50.2777 422.912 50.8506 422.853 51.2931 423.085C51.52 423.192 51.7242 423.364 51.883 423.584C52.0476 423.797 52.144 424.069 52.2234 424.282L52.7283 425.625L53.7437 428.304C53.8288 428.523 53.9309 428.742 53.982 428.988C54.033 429.234 54.0273 429.48 53.982 429.726C53.9025 430.198 53.6189 430.624 53.2445 430.836ZM53.2445 430.836C53.6189 430.617 53.8912 430.192 53.9706 429.713C54.0103 429.474 53.999 429.228 53.9422 428.995C53.8855 428.762 53.7721 428.556 53.6813 428.337L52.4787 425.764L51.8774 424.481C51.7753 424.255 51.6902 424.076 51.5654 423.936C51.4406 423.79 51.2874 423.69 51.1286 423.617C50.7939 423.477 50.4592 423.531 50.1302 423.75L49.0127 424.408C48.7177 424.574 48.4851 424.913 48.417 425.299C48.383 425.492 48.3773 425.691 48.417 425.884C48.4397 425.984 48.4624 426.07 48.5021 426.17L48.6326 426.502L49.648 429.181L50.1529 430.524C50.2947 430.983 50.5386 431.375 50.9244 431.554C51.2988 431.747 51.7469 431.707 52.11 431.475L53.2445 430.836Z" fill="black"/>
<path d="M59.251 427.366L58.0314 428.071C57.3563 428.463 56.5281 428.138 56.1934 427.34L54.276 422.793C53.9413 422.002 54.2193 421.031 54.9 420.639L56.1196 419.934C56.7947 419.542 57.6229 419.868 57.9576 420.666L59.875 425.213C60.204 426.004 59.926 426.974 59.251 427.366Z" fill="white"/>
<path d="M59.2457 427.366L58.1282 428.024C57.7708 428.27 57.3056 428.35 56.9029 428.171C56.7043 428.084 56.5115 427.951 56.3583 427.772C56.1995 427.592 56.0974 427.353 56.0009 427.147L55.3996 425.857L54.197 423.285L54.0495 422.959C53.9984 422.846 53.9474 422.7 53.9134 422.567C53.8453 422.288 53.8339 421.988 53.885 421.703C53.9758 421.124 54.3104 420.612 54.7586 420.346L55.8818 419.708C56.2789 419.442 56.8518 419.383 57.2943 419.615C57.5212 419.722 57.7254 419.894 57.8843 420.114C58.0488 420.327 58.1452 420.599 58.2246 420.812L58.7295 422.155L59.7449 424.834C59.83 425.053 59.9321 425.272 59.9832 425.518C60.0342 425.764 60.0286 426.01 59.9832 426.256C59.9038 426.728 59.6201 427.154 59.2457 427.366ZM59.2457 427.366C59.6201 427.147 59.8924 426.722 59.9718 426.243C60.0115 426.004 60.0002 425.758 59.9435 425.525C59.8867 425.292 59.7733 425.086 59.6825 424.867L58.4799 422.294L57.8786 421.011C57.7765 420.785 57.6914 420.606 57.5666 420.466C57.4418 420.32 57.2886 420.22 57.1298 420.147C56.7951 420.007 56.4604 420.061 56.1314 420.28L55.0139 420.938C54.7189 421.104 54.4863 421.443 54.4182 421.829C54.3842 422.022 54.3785 422.221 54.4182 422.414C54.4409 422.514 54.4636 422.6 54.5033 422.7L54.6338 423.032L55.6492 425.711L56.1541 427.054C56.2959 427.513 56.5398 427.905 56.9256 428.084C57.3 428.277 57.7481 428.237 58.1112 428.005L59.2457 427.366Z" fill="black"/>
<path d="M32.4305 444.79C32.6061 445.64 32.6117 446.485 32.5777 447.322C32.5211 448.16 32.4248 448.991 32.1585 449.809C31.9829 448.958 31.9773 448.113 32.0113 447.276C32.0679 446.438 32.1642 445.607 32.4305 444.79Z" fill="black"/>
<path d="M16.854 445.827C19.0834 445.474 21.3127 445.322 23.5535 445.222C25.7885 445.142 28.0292 445.109 30.2699 445.282C28.0406 445.634 25.8112 445.787 23.5705 445.887C21.3354 445.966 19.0947 446 16.854 445.827Z" fill="#231F20"/>
<path opacity="0.64" d="M69.508 409.305H50.5725C50.0563 409.305 49.6309 408.806 49.6309 408.201C49.6309 407.596 50.0563 407.098 50.5725 407.098H69.508C70.0242 407.098 70.4497 407.596 70.4497 408.201C70.4497 408.813 70.0242 409.305 69.508 409.305Z" fill="white"/>
<path opacity="0.47" d="M69.508 413.805H50.5725C50.0563 413.805 49.6309 413.307 49.6309 412.702C49.6309 412.097 50.0563 411.598 50.5725 411.598H69.508C70.0242 411.598 70.4497 412.097 70.4497 412.702C70.4497 413.313 70.0242 413.805 69.508 413.805Z" fill="white"/>
<path d="M194.199 245.501C196.699 245.501 198.726 243.126 198.726 240.196C198.726 237.266 196.699 234.891 194.199 234.891C191.699 234.891 189.672 237.266 189.672 240.196C189.672 243.126 191.699 245.501 194.199 245.501Z" fill="#231F20"/>
<path d="M185.146 231.68C187.646 231.68 189.673 229.305 189.673 226.376C189.673 223.446 187.646 221.071 185.146 221.071C182.646 221.071 180.619 223.446 180.619 226.376C180.619 229.305 182.646 231.68 185.146 231.68Z" fill="#231F20"/>
<path d="M152.737 251.936L137.211 238.016C136.547 237.477 136.264 236.493 136.502 235.589L147.019 196.362L148.942 197.837L144.841 232.019L157.718 240.442L152.737 251.936Z" fill="#E0A66C"/>
<path d="M195.577 242.582C202.489 242.582 208.091 236.017 208.091 227.918C208.091 219.819 202.489 213.253 195.577 213.253C188.666 213.253 183.063 219.819 183.063 227.918C183.063 236.017 188.666 242.582 195.577 242.582Z" fill="#231F20"/>
<path d="M151.309 201.859C151.24 201.779 151.184 201.6 151.172 201.507C151.002 200.343 150.719 199.173 152.074 198.595C157.01 196.494 159.857 192.911 161.622 187.128C162.109 185.539 163.091 185.832 164.1 186.024C164.18 186.038 164.333 186.104 164.395 186.184C165.224 187.181 165.814 187.514 165.229 189.315C163.091 195.87 159.528 200.23 153.929 202.776C152.381 203.481 152.165 202.856 151.309 201.859Z" fill="#E0A66C"/>
<path d="M181.634 246.418L184.044 237.783C184.237 237.098 184.782 236.633 185.395 236.633C186.2 236.633 186.841 237.417 186.818 238.355L186.586 246.325C186.58 246.431 186.591 246.538 186.603 246.644C186.66 247.136 186.682 248.844 184.385 249.735C184.118 249.842 183.829 249.835 183.562 249.742C183.018 249.542 182.15 249.004 181.656 247.548C181.537 247.189 181.526 246.784 181.634 246.418Z" fill="#C68E5C"/>
<path d="M146.209 270.011C146.209 270.011 175.792 274.577 180.807 265.962C185.821 257.347 159.46 237.185 159.46 237.185" fill="#B0CE89"/>
<path d="M302.395 316.89H207.615C206.73 316.89 206.01 316.045 206.01 315.008V313.566C206.01 312.529 206.73 311.685 207.615 311.685H302.395C303.28 311.685 304 312.529 304 313.566V315.008C304 316.045 303.28 316.89 302.395 316.89Z" fill="#231F20" stroke="black" stroke-miterlimit="10"/>
<path d="M189.701 241.825C194.062 241.825 197.597 237.682 197.597 232.571C197.597 227.461 194.062 223.318 189.701 223.318C185.34 223.318 181.804 227.461 181.804 232.571C181.804 237.682 185.34 241.825 189.701 241.825Z" fill="#E0A66C"/>
<path d="M179.183 194.7L179.393 198.595L177.062 196.933L179.183 194.7Z" fill="#9B9B9B"/>
<path d="M178.815 194.713L173.256 200.656L175.321 193.802L178.815 194.713Z" fill="#6D6D6D"/>
<path d="M176.217 190.817L175.321 193.802L173.256 200.656L127.868 169L167.787 192.679L170.085 192.174L171.866 193.144L176.217 190.817Z" fill="#D3D3D3"/>
<path d="M176.216 190.817L171.865 193.144L170.084 192.173L176.216 190.817Z" fill="white"/>
<path d="M176.216 190.818L170.084 192.174L132.871 171.898L176.216 190.818Z" fill="white"/>
<path d="M176.217 190.817L132.872 171.898L170.085 192.174L167.787 192.679L127.868 169L176.217 190.817Z" fill="#9B9B9B"/>
<path d="M149.401 205.748C152.6 205.748 155.193 202.709 155.193 198.961C155.193 195.212 152.6 192.174 149.401 192.174C146.202 192.174 143.609 195.212 143.609 198.961C143.609 202.709 146.202 205.748 149.401 205.748Z" fill="#E0A66C"/>
<path d="M74.6637 382.415L64.1238 369.984L70.585 318.266C70.1312 316.238 73.3533 310.315 75.0551 309.431C78.9125 307.43 84.9993 308.833 89.1291 309.83L131.805 320.087L145.391 325.452L114.185 345.9L114.129 345.78L85.3284 334.878L85.3113 334.871C85.1979 334.399 85.0674 333.934 84.9199 333.482L80.5462 366.295L74.6637 382.415Z" fill="#40BED3"/>
<path d="M170.221 357.839C150.656 378.865 108.581 383.818 103.793 384.316C104.469 380.148 104.69 376.027 104.293 372.091L145.425 325.465L179.785 339.033C179.535 339.857 178.168 345.109 177.862 345.9C176.132 350.36 173.488 354.322 170.221 357.839Z" fill="#56D0ED"/>
<path d="M103.793 384.316C99.7937 409.198 79.803 435.915 79.803 435.915L61.0718 416.61L91.7895 362.605C92.7255 360.677 94.0869 359.089 95.7263 357.992L114.185 345.9L145.391 325.452L145.425 325.465L104.292 372.091C104.689 376.027 104.468 380.148 103.793 384.316Z" fill="#56D0ED"/>
<path d="M145.495 325.385L145.425 325.465L145.391 325.452L145.495 325.385Z" fill="white"/>
<path d="M85.3291 334.878L114.129 345.78C107.986 346.478 85.9928 335.224 85.3291 334.878Z" fill="#40BED3"/>
<path d="M85.3115 334.871C88.2953 347.123 80.5464 366.295 80.5464 366.295L84.9201 333.482C85.0676 333.934 85.198 334.399 85.3115 334.871Z" fill="#40BED3"/>
<path d="M187.575 229.856C188.572 228.688 189.06 227.366 188.666 226.904C188.272 226.442 187.144 227.014 186.147 228.182C185.15 229.351 184.661 230.672 185.056 231.134C185.45 231.596 186.578 231.024 187.575 229.856Z" fill="white"/>
<path d="M187.585 229.859C187.239 230.264 186.864 230.637 186.45 230.956C186.24 231.109 186.025 231.262 185.781 231.355C185.548 231.434 185.236 231.521 184.964 231.262C184.714 230.969 184.743 230.57 184.782 230.271C184.834 229.959 184.924 229.666 185.043 229.394C185.282 228.848 185.599 228.377 185.957 227.951C186.32 227.532 186.728 227.16 187.188 226.881C187.42 226.741 187.664 226.635 187.936 226.575C188.192 226.528 188.532 226.495 188.782 226.788C189.003 227.107 188.929 227.472 188.861 227.745C188.782 228.031 188.657 228.283 188.521 228.529C188.248 229.015 187.931 229.453 187.585 229.859ZM187.585 229.859C187.925 229.447 188.231 228.995 188.447 228.483C188.555 228.23 188.64 227.958 188.68 227.692C188.719 227.426 188.702 227.14 188.572 227.02C188.447 226.907 188.226 226.934 188.022 227.014C187.817 227.094 187.613 227.233 187.42 227.379C187.035 227.672 186.677 228.031 186.348 228.416C186.013 228.802 185.713 229.221 185.457 229.673C185.333 229.899 185.219 230.131 185.146 230.377C185.077 230.617 185.055 230.869 185.151 231.022C185.253 231.175 185.503 231.195 185.724 231.149C185.951 231.102 186.184 231.002 186.399 230.876C186.842 230.61 187.233 230.258 187.585 229.859Z" fill="#231F20"/>
<path d="M188.379 223.451L192.775 227.918L190.325 233.203L193.734 231.395C193.734 231.395 195.118 231.202 195.277 232.578C195.436 233.954 194.965 235.795 192.22 235.436L189.673 240.203L189.701 241.831L197.087 239.817L201.131 230.524L195.572 221.915L188.379 223.451Z" fill="#231F20"/>
<path d="M192.219 253.066C192.219 253.066 190.88 353.857 178.967 343.48C167.06 333.11 132.077 320.087 132.077 320.087L176.857 250.214C177.606 249.044 178.616 248.12 179.784 247.595C180.38 247.329 180.947 247.11 181.486 246.937C181.52 248.552 182.655 249.855 184.045 249.855C185.457 249.855 186.597 248.512 186.597 246.864C186.597 246.744 186.773 246.731 186.762 246.611C191.459 247.681 192.219 253.066 192.219 253.066Z" fill="#C8E8A3"/>
<path d="M210.015 277.177L231.594 306.426C233.114 308.487 231.866 311.685 229.54 311.685H186.053V307.975C186.053 307.975 214.071 299.646 218.331 301.893L201.222 283.751C201.222 283.745 197.002 281.385 210.015 277.177Z" fill="#E0A66C"/>
<path d="M218.694 271.28C218.694 271.28 196.581 247.794 188.277 251.537C179.972 255.279 191.856 289.435 191.856 289.435" fill="#D8F2B6"/>
<path d="M32.6523 419.037C37.2389 419.037 40.9571 414.68 40.9571 409.305C40.9571 403.93 37.2389 399.573 32.6523 399.573C28.0656 399.573 24.3474 403.93 24.3474 409.305C24.3474 414.68 28.0656 419.037 32.6523 419.037Z" fill="white"/>
<path opacity="0.3" d="M137.25 323.561L169.976 354.512C169.976 354.512 176.055 349.176 177.836 343.234C177.836 343.234 165.038 334.362 158.248 332.278L137.25 323.561Z" fill="url(#paint0_linear)"/>
<path opacity="0.3" d="M160.743 350.496L169.847 358.392C169.847 358.392 148.108 379.044 94.2937 384.661C94.287 384.654 153.276 363.934 160.743 350.496Z" fill="url(#paint1_linear)"/>
<path opacity="0.3" d="M67.5994 415.429L79.9685 431.68L71.3502 411.669L67.5994 415.429Z" fill="url(#paint2_linear)"/>
<defs>
<linearGradient id="paint0_linear" x1="136.73" y1="338.447" x2="177.954" y2="339.886" gradientUnits="userSpaceOnUse">
<stop stop-color="#1C75BC" stop-opacity="0.7"/>
<stop offset="0.2358" stop-color="#1D70B8" stop-opacity="0.7707"/>
<stop offset="0.5287" stop-color="#2160AD" stop-opacity="0.8586"/>
<stop offset="0.8505" stop-color="#27479A" stop-opacity="0.9551"/>
<stop offset="1" stop-color="#2B3990"/>
</linearGradient>
<linearGradient id="paint1_linear" x1="93.9998" y1="368.158" x2="169.991" y2="366.832" gradientUnits="userSpaceOnUse">
<stop stop-color="#1C75BC" stop-opacity="0.7"/>
<stop offset="0.2358" stop-color="#1D70B8" stop-opacity="0.7707"/>
<stop offset="0.5287" stop-color="#2160AD" stop-opacity="0.8586"/>
<stop offset="0.8505" stop-color="#27479A" stop-opacity="0.9551"/>
<stop offset="1" stop-color="#2B3990"/>
</linearGradient>
<linearGradient id="paint2_linear" x1="66.7068" y1="420.035" x2="81.6699" y2="422.942" gradientUnits="userSpaceOnUse">
<stop stop-color="#1C75BC" stop-opacity="0.7"/>
<stop offset="0.2358" stop-color="#1D70B8" stop-opacity="0.7707"/>
<stop offset="0.5287" stop-color="#2160AD" stop-opacity="0.8586"/>
<stop offset="0.8505" stop-color="#27479A" stop-opacity="0.9551"/>
<stop offset="1" stop-color="#2B3990"/>
</linearGradient>
</defs>
</svg>
