<svg width="1439" height="730" viewBox="0 0 1439 730" fill="none" xmlns="http://www.w3.org/2000/svg">
<g clip-path="url(#clip0)">
<rect x="-1" width="1440" height="730" fill="#FDEBE8"/>
<path d="M979.365 178.923C977.145 141.711 944.361 113.392 906.116 115.664C867.884 117.948 838.688 149.958 840.908 187.171L979.365 178.923Z" fill="#F95F8F"/>
<g opacity="0.41">
<g opacity="0.41">
<g opacity="0.41">
<path opacity="0.41" d="M996.39 183.776C993.615 137.193 952.57 101.749 904.722 104.602C856.861 107.454 820.32 147.519 823.095 194.102L996.39 183.776Z" stroke="black" stroke-miterlimit="10"/>
</g>
</g>
</g>
<g opacity="0.41">
<g opacity="0.41">
<g opacity="0.41">
<path opacity="0.41" d="M1009 182.795C1005.86 130.184 959.502 90.1456 905.445 93.3595C851.389 96.5735 810.111 141.84 813.248 194.45L1009 182.795Z" stroke="black" stroke-miterlimit="10"/>
</g>
</g>
</g>
<path d="M757.023 652.586C760.102 652.586 762.599 650.089 762.599 647.01C762.599 643.93 760.102 641.434 757.023 641.434C753.943 641.434 751.447 643.93 751.447 647.01C751.447 650.089 753.943 652.586 757.023 652.586Z" fill="white"/>
<path d="M244.418 359.484C253.104 355.832 260.41 348.875 264.244 339.478C265.715 335.877 268.503 333.05 272.091 331.54C275.68 330.03 279.642 330.004 283.256 331.475C302.049 339.142 323.566 330.094 331.246 311.301C332.717 307.7 335.505 304.873 339.094 303.363C342.682 301.853 346.644 301.827 350.259 303.298C355.938 305.622 362.43 302.885 364.741 297.206C367.064 291.527 364.328 285.035 358.648 282.724C339.855 275.057 318.339 284.105 310.659 302.898C309.187 306.5 306.399 309.326 302.811 310.836C299.223 312.347 295.26 312.372 291.646 310.901C282.546 307.184 272.543 307.235 263.482 311.043C254.421 314.851 247.387 321.963 243.669 331.062C242.198 334.663 239.41 337.49 235.821 339C232.233 340.511 228.271 340.536 224.657 339.065C218.977 336.742 212.485 339.478 210.174 345.157C207.851 350.836 210.588 357.329 216.267 359.639C225.65 363.486 235.731 363.137 244.418 359.484Z" fill="black"/>
<path d="M475.848 272.334L294.215 174.534L325.064 378.497L475.848 272.334Z" fill="black"/>
<path d="M491.04 266.68L309.407 168.881L340.243 372.857L491.04 266.68Z" fill="#FBE54B"/>
<path d="M249.633 339.723C258.319 336.07 265.625 329.113 269.458 319.717C270.93 316.116 273.718 313.289 277.306 311.779C280.894 310.268 284.857 310.243 288.471 311.714C307.264 319.381 328.781 310.333 336.461 291.54C337.932 287.939 340.72 285.112 344.308 283.602C347.897 282.092 351.859 282.066 355.473 283.537C361.153 285.861 367.645 283.124 369.956 277.445C372.279 271.766 369.542 265.273 363.863 262.963C345.07 255.296 323.553 264.344 315.873 283.137C314.402 286.738 311.614 289.565 308.026 291.075C304.437 292.585 300.475 292.611 296.861 291.14C287.761 287.422 277.758 287.474 268.697 291.282C259.636 295.089 252.601 302.201 248.884 311.301C247.413 314.902 244.625 317.729 241.036 319.239C237.448 320.749 233.486 320.775 229.871 319.304C224.192 316.98 217.7 319.717 215.389 325.396C213.066 331.075 215.802 337.568 221.482 339.878C230.865 343.724 240.946 343.376 249.633 339.723Z" fill="#A7CC80"/>
<path d="M852.783 406.493L838.662 412.934C837.759 413.347 836.674 412.947 836.261 412.043L829.821 397.923C829.408 397.019 829.808 395.935 830.711 395.522L844.832 389.081C845.735 388.668 846.82 389.068 847.233 389.972L853.673 404.092C854.099 405.009 853.686 406.08 852.783 406.493Z" fill="#F95F8F"/>
<path d="M1089.59 93.757C1045.13 139.927 1046.53 213.396 1092.7 257.849C1138.87 302.302 1212.34 300.908 1256.79 254.738L1089.59 93.757Z" fill="black"/>
<path d="M1075.02 90.507C1030.57 136.677 1031.96 210.146 1078.13 254.599C1124.3 299.052 1197.77 297.658 1242.23 251.488L1075.02 90.507Z" fill="#A7CC80"/>
<path d="M957.23 604.314L825.239 605.16L825.479 642.514L957.47 641.668L957.23 604.314Z" fill="black"/>
<path d="M964.033 587.882L832.042 588.728L832.281 626.082L964.272 625.236L964.033 587.882Z" fill="#F95F8F"/>
<path d="M15.3502 270.266C23.9336 277.429 32.8139 282.128 41.7587 284.219C45.3083 285.045 48.9353 285.471 52.5106 285.471C60.1389 285.471 67.8317 283.56 75.3567 279.804C94.9114 270.033 98.4997 253.409 101.972 237.339C103.43 230.588 104.915 223.709 107.638 217.371C108.516 217.087 109.316 216.61 109.987 215.938C110.891 215.022 112.104 214.519 113.395 214.519C114.673 214.519 115.886 215.022 116.79 215.926L116.88 216.016C117.964 217.1 119.41 217.694 120.959 217.694C122.482 217.694 123.914 217.113 124.999 216.042L125.192 215.861C127.064 214.015 130.097 214.028 131.956 215.887L132.046 215.977C133.13 217.061 134.576 217.668 136.138 217.668C137.687 217.668 139.132 217.061 140.216 215.964C141.12 215.048 142.333 214.544 143.624 214.544C144.902 214.544 146.115 215.048 147.019 215.951L147.161 216.093L147.845 215.409L147.703 215.267C146.619 214.183 145.173 213.576 143.611 213.576C142.062 213.576 140.617 214.183 139.532 215.28C138.629 216.197 137.416 216.7 136.125 216.7C134.847 216.7 133.634 216.197 132.73 215.293L132.64 215.203C130.407 212.97 126.767 212.957 124.521 215.177L124.327 215.358C122.456 217.203 119.423 217.19 117.564 215.332L117.474 215.241C116.389 214.157 114.944 213.551 113.382 213.551C111.833 213.551 110.387 214.157 109.303 215.254C108.981 215.59 108.606 215.861 108.206 216.08C110.142 211.886 112.659 207.949 116.118 204.49C126.212 194.409 143.547 189.285 169.129 188.807C265.354 187.039 265.354 145.748 265.354 118.423V118.216H264.399V118.423C264.399 145.374 264.399 186.097 169.116 187.839C143.275 188.317 125.709 193.531 115.434 203.793C111.627 207.6 108.942 211.924 106.928 216.545C106.593 216.623 106.244 216.661 105.883 216.661C104.605 216.661 103.392 216.158 102.488 215.254L102.424 215.19C101.339 214.106 99.8937 213.499 98.3577 213.499C96.8217 213.499 95.3761 214.093 94.2919 215.19L94.1499 215.332L94.834 216.016L94.976 215.874C95.8795 214.97 97.0928 214.467 98.3706 214.467C99.6485 214.467 100.862 214.97 101.765 215.874L101.83 215.938C102.914 217.023 104.36 217.629 105.921 217.629C106.115 217.629 106.309 217.616 106.502 217.604C103.921 223.838 102.475 230.55 101.055 237.132C97.6349 252.983 94.0854 269.375 74.9566 278.94C64.0756 284.386 53.0011 285.845 42.0298 283.276C33.2398 281.224 24.4886 276.603 16.0214 269.53C1.55216 257.5 -7.18615 242.282 -7.2765 242.128L-7.37977 241.947L-8.21875 242.424L-8.11549 242.605C-8.01223 242.76 0.738995 258.068 15.3502 270.266Z" fill="black"/>
<path d="M1264.83 679.068L1251 694.212L1266.15 708.044L1279.98 692.899L1264.83 679.068Z" fill="#FBE54B"/>
<path d="M1351.64 612.521L1318.57 614.019C1317.85 598.078 1304.3 585.7 1288.36 586.422C1272.42 587.145 1260.04 600.698 1260.76 616.639L1227.7 618.136C1226.16 583.97 1252.69 554.916 1286.86 553.367C1321.04 551.818 1350.09 578.355 1351.64 612.521Z" fill="#A7CC80"/>
<path d="M1331.39 565.099C1326.34 563.989 1321.4 565.087 1316.29 568.455C1303.81 576.69 1308.43 587.804 1314.27 601.873C1319.22 613.786 1325.26 628.32 1322.47 645.642L1286.78 684.712L1282.69 594.335L1282.68 594.128L1268.4 594.774L1272.57 686.829L1272.58 687.036L1285.17 686.468L1252.11 722.66L1252.82 723.305L1286.52 686.403L1286.85 686.39L1286.83 686.068L1322.13 647.41C1319.94 658.678 1313.96 671.108 1301.52 684.725C1289.97 697.375 1286.08 708.888 1289.97 718.93C1295.93 734.328 1319.4 743.493 1338.04 748.462C1358.19 753.831 1377.12 755.613 1377.31 755.639L1377.52 755.651L1377.61 754.696L1377.4 754.683C1376.66 754.619 1302.04 747.404 1290.87 718.581C1287.13 708.914 1290.95 697.736 1302.24 685.384C1315.42 670.953 1321.45 657.852 1323.41 646.029L1364.43 601.124C1366.28 604.054 1368.12 607.049 1369.98 610.069C1388.81 640.608 1410.15 675.225 1442.26 673.767L1442.47 673.754L1442.43 672.786L1442.23 672.799C1410.68 674.232 1389.5 639.872 1370.81 609.553C1368.87 606.416 1366.98 603.344 1365.12 600.375L1371.39 593.509L1370.68 592.863L1364.59 599.536C1353.41 581.802 1343.14 567.681 1331.39 565.099ZM1363.9 600.285L1323.68 644.325C1325.94 627.442 1320.03 613.218 1315.17 601.498C1309.27 587.313 1305.01 577.065 1316.83 569.256C1321.71 566.029 1326.41 564.983 1331.18 566.042C1342.55 568.546 1353.07 583.118 1363.9 600.285ZM1269.43 595.69L1281.77 595.135L1285.87 685.474L1273.53 686.029L1269.43 595.69Z" fill="black"/>
<path d="M113.214 718.22C102.785 718.22 94.3047 709.74 94.3047 699.311C94.3047 688.881 102.785 680.401 113.214 680.401C123.643 680.401 132.123 688.881 132.123 699.311C132.123 709.74 123.643 718.22 113.214 718.22ZM113.214 690.043C108.103 690.043 103.947 694.199 103.947 699.311C103.947 704.422 108.103 708.578 113.214 708.578C118.325 708.578 122.482 704.422 122.482 699.311C122.482 694.199 118.325 690.043 113.214 690.043Z" fill="#A7CC80"/>
<path d="M130.226 658.73C133.555 658.73 136.254 656.031 136.254 652.702C136.254 649.373 133.555 646.674 130.226 646.674C126.897 646.674 124.198 649.373 124.198 652.702C124.198 656.031 126.897 658.73 130.226 658.73Z" fill="#F95F8F"/>
<path d="M134.344 640.827C133.685 638.22 132.446 635.716 130.613 633.509C124.044 625.583 112.285 624.486 104.36 631.056C96.4347 637.626 95.3376 649.385 101.907 657.31C104.127 659.982 106.928 661.879 109.975 662.963L134.344 640.827Z" fill="#56D0ED"/>
<path d="M170.433 717.575H49.0259V718.31H170.433V717.575Z" fill="black"/>
<path d="M160.984 662.228C160.055 657.323 155.305 654.083 150.413 655.012L81.6555 668.01C76.7507 668.939 73.5109 673.677 74.4403 678.581C74.892 680.956 76.2344 683.021 78.2351 684.377C79.7452 685.409 81.5006 685.951 83.3206 685.951C83.8885 685.951 84.4564 685.9 85.0243 685.797L153.782 672.799C158.674 671.869 161.901 667.132 160.984 662.228ZM152.091 655.58C156.08 655.58 159.526 658.433 160.262 662.357C161.114 666.861 158.145 671.224 153.627 672.076L84.8695 685.074C82.6881 685.487 80.468 685.022 78.6352 683.77C76.8023 682.518 75.5632 680.621 75.1502 678.439C74.2983 673.935 77.267 669.572 81.7846 668.72L150.542 655.722C151.046 655.632 151.575 655.58 152.091 655.58Z" fill="black"/>
<path d="M1338.01 281.162C1343.15 281.162 1347.32 276.99 1347.32 271.843C1347.32 266.696 1343.15 262.524 1338.01 262.524C1332.86 262.524 1328.69 266.696 1328.69 271.843C1328.69 276.99 1332.86 281.162 1338.01 281.162Z" fill="#FBE54B"/>
<path d="M1346.85 252.688C1346.86 255.102 1347.8 257.374 1349.52 259.078L1350.66 260.213C1354.19 263.724 1359.94 263.698 1363.45 260.162L1443.9 179.052C1445.6 177.335 1446.53 175.063 1446.52 172.637C1446.51 170.223 1445.56 167.951 1443.85 166.248L1442.71 165.112C1440.99 163.408 1438.72 162.479 1436.3 162.491C1433.87 162.504 1431.61 163.447 1429.91 165.163L1349.45 246.273C1347.78 248.003 1346.85 250.275 1346.85 252.688ZM1430.67 165.912C1433.78 162.775 1438.85 162.763 1441.99 165.86L1443.12 166.996C1444.63 168.493 1445.47 170.507 1445.49 172.65C1445.5 174.792 1444.67 176.806 1443.16 178.316L1362.71 259.426C1361.21 260.936 1359.2 261.775 1357.06 261.788C1354.91 261.801 1352.9 260.975 1351.39 259.465L1350.26 258.329C1347.12 255.218 1347.11 250.146 1350.2 247.009L1430.67 165.912Z" fill="black"/>
<path d="M1355.59 129.526C1358.25 129.526 1360.41 127.371 1360.41 124.712C1360.41 122.053 1358.25 119.897 1355.59 119.897C1352.93 119.897 1350.78 122.053 1350.78 124.712C1350.78 127.371 1352.93 129.526 1355.59 129.526Z" fill="#FBE54B"/>
<path d="M1360.16 114.825C1360.16 116.077 1360.65 117.251 1361.54 118.129L1362.13 118.71C1363.97 120.53 1366.94 120.517 1368.74 118.684L1410.32 76.7735C1411.2 75.8829 1411.67 74.7083 1411.67 73.4563C1411.67 72.2043 1411.18 71.0297 1410.29 70.152L1409.7 69.5712C1408.81 68.6935 1407.63 68.2159 1406.38 68.2159C1405.13 68.2159 1403.95 68.7064 1403.08 69.597L1361.5 111.507C1360.64 112.398 1360.16 113.573 1360.16 114.825ZM1403.48 69.9842C1405.08 68.3708 1407.71 68.3579 1409.32 69.9584L1409.92 70.5392C1410.71 71.3137 1411.13 72.3592 1411.14 73.4563C1411.14 74.5663 1410.72 75.5989 1409.94 76.3863L1368.37 118.297C1367.59 119.084 1366.55 119.51 1365.45 119.523C1364.34 119.523 1363.31 119.097 1362.52 118.322L1361.93 117.742C1360.32 116.141 1360.3 113.508 1361.9 111.895L1403.48 69.9842Z" fill="black"/>
<path d="M772.796 590.166H719.217V684.971H772.796V590.166Z" fill="#C1C1C1"/>
<path d="M1140.04 190.436V557.703C1140.04 581.014 1120.96 600.091 1097.65 600.091H405.09C381.779 600.091 362.702 581.014 362.702 557.703V190.436C362.702 167.125 381.779 148.048 405.09 148.048H1097.65C1120.96 148.048 1140.04 167.125 1140.04 190.436Z" fill="white" stroke="#757575" stroke-width="0.5" stroke-miterlimit="10"/>
<path d="M1140.04 551.276V557.704C1140.04 581.014 1120.96 600.091 1097.65 600.091H405.09C381.779 600.091 362.702 581.014 362.702 557.704V551.276H1140.04Z" fill="#C1C1C1"/>
<path d="M1140.04 190.436V198.09H362.702V190.436C362.702 167.125 381.779 148.048 405.09 148.048H1097.65C1120.96 148.048 1140.04 167.125 1140.04 190.436Z" fill="#C1C1C1"/>
<path opacity="0.21" d="M606.626 473.186H427.923C426.154 473.186 424.722 471.74 424.722 469.985V444.57C424.722 442.802 426.167 441.369 427.923 441.369H606.626C608.394 441.369 609.827 442.815 609.827 444.57V469.985C609.827 471.753 608.381 473.186 606.626 473.186Z" fill="black"/>
<path d="M550.272 419.633H460.153C459.597 419.633 459.133 419.181 459.133 418.613C459.133 418.058 459.585 417.594 460.153 417.594H550.272C550.827 417.594 551.292 418.045 551.292 418.613C551.292 419.181 550.84 419.633 550.272 419.633Z" fill="black"/>
<path d="M519.746 411.734H460.153C459.597 411.734 459.133 411.282 459.133 410.714C459.133 410.159 459.585 409.694 460.153 409.694H519.746C520.301 409.694 520.766 410.146 520.766 410.714C520.766 411.269 520.301 411.734 519.746 411.734Z" fill="black"/>
<path d="M475.797 403.834H460.166C459.611 403.834 459.146 403.383 459.146 402.815C459.146 402.26 459.598 401.795 460.166 401.795H475.797C476.352 401.795 476.816 402.247 476.816 402.815C476.816 403.37 476.352 403.834 475.797 403.834Z" fill="#BFBFBF"/>
<path d="M512.325 403.834H480.521C479.966 403.834 479.501 403.383 479.501 402.815C479.501 402.26 479.953 401.795 480.521 401.795H512.325C512.88 401.795 513.344 402.247 513.344 402.815C513.331 403.37 512.88 403.834 512.325 403.834Z" fill="#BFBFBF"/>
<path d="M436.622 422.072C443.409 422.072 448.91 416.571 448.91 409.785C448.91 402.998 443.409 397.497 436.622 397.497C429.836 397.497 424.334 402.998 424.334 409.785C424.334 416.571 429.836 422.072 436.622 422.072Z" fill="#F95F8F"/>
<path d="M960.882 302.821H839.282C838.727 302.821 838.262 302.369 838.262 301.801V301.104C838.262 300.549 838.714 300.085 839.282 300.085H960.882C961.438 300.085 961.902 300.536 961.902 301.104V301.801C961.902 302.356 961.438 302.821 960.882 302.821Z" fill="black"/>
<path d="M919.927 292.211H839.282C838.727 292.211 838.262 291.759 838.262 291.191V290.494C838.262 289.939 838.714 289.475 839.282 289.475H919.927C920.482 289.475 920.947 289.926 920.947 290.494V291.191C920.934 291.759 920.482 292.211 919.927 292.211Z" fill="black"/>
<path d="M860.953 281.614H839.282C838.727 281.614 838.262 281.162 838.262 280.594V279.897C838.262 279.342 838.714 278.878 839.282 278.878H860.953C861.508 278.878 861.973 279.329 861.973 279.897V280.594C861.973 281.149 861.508 281.614 860.953 281.614Z" fill="#BFBFBF"/>
<path d="M909.95 281.614H866.581C866.026 281.614 865.562 281.162 865.562 280.594V279.897C865.562 279.342 866.013 278.878 866.581 278.878H909.95C910.505 278.878 910.97 279.329 910.97 279.897V280.594C910.97 281.149 910.518 281.614 909.95 281.614Z" fill="#BFBFBF"/>
<path d="M808.046 306.086C817.149 306.086 824.529 298.707 824.529 289.604C824.529 280.501 817.149 273.121 808.046 273.121C798.943 273.121 791.563 280.501 791.563 289.604C791.563 298.707 798.943 306.086 808.046 306.086Z" fill="#FBE54B"/>
<path d="M607.697 371.179H426.297C423.702 371.179 421.585 369.062 421.585 366.467V260.975C421.585 258.381 423.702 256.264 426.297 256.264H607.71C610.305 256.264 612.422 258.381 612.422 260.975V366.467C612.409 369.062 610.292 371.179 607.697 371.179Z" fill="#56D0ED"/>
<path d="M591.524 280.633H530.549C529.994 280.633 529.53 280.181 529.53 279.613V278.929C529.53 278.374 529.982 277.91 530.549 277.91H591.524C592.079 277.91 592.544 278.361 592.544 278.929V279.613C592.544 280.168 592.092 280.633 591.524 280.633Z" fill="white"/>
<path opacity="0.56" d="M591.524 288.39H530.549C529.994 288.39 529.53 287.939 529.53 287.371V286.687C529.53 286.132 529.982 285.667 530.549 285.667H591.524C592.079 285.667 592.544 286.119 592.544 286.687V287.371C592.544 287.926 592.092 288.39 591.524 288.39Z" fill="white"/>
<path opacity="0.2" d="M591.524 296.148H530.86C530.305 296.148 529.84 295.696 529.84 295.128V294.444C529.84 293.889 530.292 293.424 530.86 293.424H591.524C592.079 293.424 592.544 293.876 592.544 294.444V295.128C592.544 295.683 592.092 296.148 591.524 296.148Z" fill="white"/>
<path opacity="0.56" d="M591.679 339.168H530.705C530.15 339.168 529.685 338.716 529.685 338.148V337.464C529.685 336.909 530.137 336.445 530.705 336.445H591.679C592.234 336.445 592.699 336.896 592.699 337.464V338.148C592.699 338.703 592.247 339.168 591.679 339.168Z" fill="white"/>
<path opacity="0.2" d="M561.928 346.926H531.014C530.459 346.926 529.995 346.474 529.995 345.906V345.222C529.995 344.667 530.446 344.202 531.014 344.202H561.928C562.483 344.202 562.947 344.654 562.947 345.222V345.906C562.947 346.461 562.483 346.926 561.928 346.926Z" fill="white"/>
<path d="M530.937 325.409H591.137C591.911 325.409 592.544 324.776 592.544 324.002V308.591C592.544 307.816 591.911 307.184 591.137 307.184H530.937C530.162 307.184 529.53 307.816 529.53 308.591V324.002C529.543 324.776 530.175 325.409 530.937 325.409Z" fill="white"/>
<path d="M674.712 173.076C686.536 172.805 698.359 172.688 710.182 172.585L745.652 172.43L781.121 172.585L798.856 172.766L816.591 173.089L798.856 173.411L781.121 173.592L745.652 173.734L710.182 173.579C698.359 173.463 686.536 173.347 674.712 173.076Z" fill="white"/>
<path d="M660.45 175.967C662.047 175.967 663.341 174.672 663.341 173.076C663.341 171.479 662.047 170.184 660.45 170.184C658.853 170.184 657.559 171.479 657.559 173.076C657.559 174.672 658.853 175.967 660.45 175.967Z" fill="white"/>
<path d="M837.036 687.913H651.66V691.489H837.036V687.913Z" fill="#C1C1C1"/>
<path d="M1068.43 330.972L885.155 331.295L793.525 331.45L787.794 331.462H784.929C783.961 331.437 783.07 331.54 781.973 331.372C779.869 331.011 778.126 329.242 777.778 327.139C777.623 326.041 777.726 325.177 777.688 324.196V321.33L777.649 298.42L777.61 275.509L777.584 264.06V261.195C777.584 260.704 777.571 260.265 777.597 259.736C777.623 259.194 777.726 258.652 777.92 258.148C778.656 256.096 780.734 254.625 782.928 254.638L966.2 254.96L1057.83 255.128L1063.56 255.141H1066.43C1067.38 255.167 1068.32 255.076 1069.3 255.231C1071.25 255.567 1072.88 257.232 1073.19 259.181C1073.33 261.13 1073.23 263.014 1073.25 264.925L1073.22 287.835L1073.18 310.746L1073.15 322.195V325.06C1073.14 326.003 1073.23 326.997 1072.84 327.887C1072.2 329.707 1070.36 330.998 1068.43 330.972ZM1068.43 330.972C1070.35 330.998 1072.18 329.694 1072.83 327.887C1073.2 326.997 1073.11 326.016 1073.13 325.06V322.195L1073.1 310.746L1073.06 287.835L1073.02 264.925C1072.98 263.027 1073.09 261.078 1072.94 259.22C1072.65 257.374 1071.11 255.812 1069.27 255.502C1068.36 255.36 1067.38 255.451 1066.44 255.425H1063.57L1057.84 255.438L966.213 255.606L782.941 255.928C781.276 255.903 779.688 257.025 779.12 258.587C778.965 258.974 778.888 259.375 778.875 259.788C778.849 260.201 778.862 260.73 778.862 261.182V264.047L778.836 275.496L778.798 298.407L778.759 321.317V324.183C778.785 325.112 778.694 326.158 778.823 326.958C779.082 328.649 780.501 330.094 782.192 330.378C782.992 330.507 784.025 330.43 784.954 330.456H787.82L793.551 330.469L885.18 330.624L1068.43 330.972Z" fill="#A7CC80"/>
<path opacity="0.24" d="M772.796 600.091H719.217V626.203H772.796V600.091Z" fill="url(#paint0_linear)"/>
<path opacity="0.21" d="M930.085 423.944L844.058 463.97C838.907 466.358 832.751 464.112 830.35 458.975L803.812 401.937C801.424 396.787 803.67 390.63 808.82 388.229L894.848 348.203C899.985 345.815 906.155 348.061 908.556 353.211L914.609 366.235L917.591 372.65L917.875 373.257C916.365 375.206 915.539 377.839 918.107 380.704C919.759 382.537 921.489 383.725 923.103 384.499L935.081 410.249C937.481 415.386 935.223 421.556 930.085 423.944Z" fill="black"/>
<path d="M943.16 354.089L934.345 372.714C934.345 372.714 931.428 373.037 927.891 371.333L922.663 360.091C923.425 359.11 924.354 358.31 925.129 357.742C924.187 358.361 923.27 358.955 922.38 359.484L919.398 353.069L929.453 347.248L939.598 352.372L943.16 354.089Z" fill="#FFCB92"/>
<path d="M939.869 397.084C942.27 402.221 940.011 408.391 934.874 410.778L848.846 450.804C843.696 453.192 837.539 450.946 835.138 445.809L808.601 388.771C806.213 383.621 808.459 377.464 813.609 375.064L899.637 335.038C904.774 332.65 910.944 334.896 913.345 340.046L919.398 353.069L912.957 356.8C910.982 357.948 911.073 360.853 913.125 361.859C915.461 362.982 918.675 361.705 922.38 359.484L922.664 360.091C921.153 362.04 920.327 364.673 922.896 367.539C924.548 369.371 926.278 370.559 927.891 371.333L939.869 397.084Z" fill="white"/>
<path d="M922.664 360.091L927.891 371.333C926.278 370.559 924.548 369.372 922.896 367.539C920.327 364.673 921.153 362.04 922.664 360.091Z" fill="white"/>
<path d="M919.398 353.069L922.38 359.484C918.675 361.704 915.461 362.982 913.125 361.859C911.073 360.853 910.982 357.948 912.957 356.8L919.398 353.069Z" fill="#FFCB92"/>
<path d="M927.891 371.333L939.869 397.084C942.27 402.221 940.011 408.391 934.874 410.778L848.846 450.804C843.696 453.192 837.539 450.946 835.138 445.809L808.601 388.771C806.213 383.621 808.459 377.464 813.609 375.064L899.637 335.038C904.774 332.65 910.944 334.896 913.345 340.046L919.398 353.069L922.38 359.484L922.664 360.091C921.153 362.04 920.327 364.673 922.896 367.539C924.548 369.371 926.278 370.559 927.891 371.333Z" stroke="#BFBFBF" stroke-miterlimit="10"/>
<path d="M1041.05 607.758L1044.72 664.228H1070.78L1066.41 607.758H1041.05Z" fill="#FFCB92"/>
<path d="M966.02 691.644L1045.08 652.586L1068.62 673.78L1072.52 661.066L1085.56 694.445L974.68 706.965C974.667 706.965 969.905 695.826 966.02 691.644Z" fill="#56D0ED"/>
<path d="M1085.54 694.445L1099.39 709.52L943.006 718.672C940.011 718.853 937.288 716.916 936.449 714.038L935.468 710.656C935.468 710.656 930.034 704.538 949.201 692.147C968.369 679.756 974.655 706.978 974.655 706.978L1085.54 694.445Z" fill="white" stroke="#231F20" stroke-miterlimit="10"/>
<path d="M974.306 711.302C983.316 710.243 992.325 709.327 1001.35 708.423L1028.41 705.893L1055.52 703.66L1069.07 702.654C1073.59 702.357 1078.12 702.034 1082.64 701.776C1078.13 702.318 1073.63 702.783 1069.12 703.286L1055.6 704.654L1028.53 707.184L1001.42 709.417C992.402 710.101 983.354 710.772 974.306 711.302Z" fill="#231F20"/>
<path d="M1045.08 652.586C1038.52 656.122 1031.9 659.53 1025.26 662.925C1018.63 666.319 1011.96 669.611 1005.3 672.954C998.598 676.206 991.925 679.511 985.2 682.725L975.106 687.513C971.725 689.062 968.356 690.663 964.948 692.173C968.227 690.392 971.531 688.688 974.822 686.945L984.761 681.834C991.395 678.439 998.069 675.148 1004.73 671.805C1011.43 668.552 1018.1 665.248 1024.83 662.047C1031.55 658.833 1038.28 655.645 1045.08 652.586Z" fill="#231F20"/>
<path d="M974.5 692.741C980.67 689.475 986.904 686.339 993.151 683.215C999.398 680.091 1005.68 677.071 1011.94 673.999C1018.26 671.018 1024.54 667.984 1030.87 665.054L1040.38 660.679C1043.57 659.259 1046.74 657.8 1049.94 656.419C1046.86 658.059 1043.75 659.633 1040.65 661.247L1031.29 665.945C1025.05 669.069 1018.76 672.089 1012.5 675.161C1006.19 678.142 999.902 681.176 993.577 684.106C987.252 687.036 980.902 689.953 974.5 692.741Z" fill="#231F20"/>
<path d="M1002.5 679.265L1019.71 701.879L1038.86 699.711L1019.13 671.25" stroke="#231F20" stroke-miterlimit="10"/>
<path d="M995.796 689.913L992.492 691.72C991.124 692.469 989.381 691.966 988.633 690.597L983.534 681.304C982.786 679.936 983.289 678.193 984.657 677.445L987.962 675.638C989.33 674.889 991.072 675.393 991.821 676.761L996.919 686.054C997.681 687.422 997.165 689.165 995.796 689.913Z" fill="white"/>
<path d="M995.797 689.914L993.267 691.347C992.841 691.579 992.441 691.863 991.964 692.005C991.486 692.147 990.983 692.186 990.492 692.07C989.498 691.902 988.672 691.115 988.259 690.237L986.775 687.733L983.819 682.712L983.096 681.434C982.838 680.943 982.709 680.376 982.735 679.808C982.761 678.685 983.419 677.587 984.413 677.032L986.981 675.664C987.407 675.458 987.807 675.174 988.375 675.006C988.917 674.864 989.485 674.838 990.027 674.967C991.125 675.174 991.989 676.168 992.338 677.058L993.654 679.653L996.3 684.841C996.713 685.693 997.372 686.532 997.268 687.565C997.256 688.533 996.662 689.462 995.797 689.914ZM995.797 689.914C996.649 689.437 997.204 688.507 997.23 687.539C997.307 686.545 996.649 685.745 996.21 684.893L993.254 679.872L991.77 677.368C991.344 676.49 990.711 675.948 989.86 675.768C989.459 675.677 989.034 675.703 988.633 675.819C988.272 675.935 987.859 676.206 987.42 676.439L984.89 677.871C984.18 678.246 983.677 679.007 983.638 679.833C983.612 680.246 983.69 680.659 983.871 681.021L984.542 682.299L987.188 687.488L988.504 690.082C988.866 690.973 989.537 691.721 990.505 691.928C990.97 692.044 991.46 692.018 991.912 691.902C992.364 691.773 992.777 691.502 993.216 691.282L995.797 689.914Z" fill="black"/>
<path d="M1008.11 683.163L1004.81 684.97C1003.44 685.719 1001.69 685.215 1000.95 683.847L995.847 674.554C995.099 673.186 995.602 671.443 996.97 670.694L1000.27 668.887C1001.64 668.139 1003.39 668.642 1004.13 670.01L1009.23 679.304C1009.99 680.672 1009.48 682.414 1008.11 683.163Z" fill="white"/>
<path d="M1008.11 683.164L1005.58 684.596C1005.15 684.829 1004.75 685.113 1004.28 685.255C1003.8 685.397 1003.3 685.435 1002.81 685.319C1001.81 685.151 1000.99 684.364 1000.57 683.486L999.088 680.982L996.132 675.961L995.41 674.683C995.151 674.193 995.022 673.625 995.048 673.057C995.074 671.934 995.732 670.837 996.726 670.282L999.295 668.914C999.721 668.707 1000.12 668.423 1000.69 668.255C1001.23 668.114 1001.8 668.088 1002.34 668.217C1003.44 668.423 1004.3 669.417 1004.65 670.308L1005.97 672.902L1008.61 678.091C1009.03 678.943 1009.69 679.782 1009.58 680.814C1009.57 681.782 1008.98 682.712 1008.11 683.164ZM1008.11 683.164C1008.96 682.686 1009.52 681.757 1009.54 680.789C1009.62 679.795 1008.96 678.994 1008.52 678.143L1005.57 673.122L1004.08 670.618C1003.66 669.74 1003.02 669.198 1002.17 669.017C1001.77 668.927 1001.35 668.953 1000.95 669.069C1000.59 669.185 1000.17 669.456 999.734 669.688L997.204 671.121C996.494 671.495 995.99 672.257 995.952 673.083C995.926 673.496 996.003 673.909 996.184 674.27L996.855 675.548L999.501 680.737L1000.82 683.331C1001.18 684.222 1001.85 684.971 1002.82 685.177C1003.28 685.293 1003.77 685.267 1004.23 685.151C1004.68 685.022 1005.09 684.751 1005.53 684.532L1008.11 683.164Z" fill="black"/>
<path d="M974.074 707.223C974.552 708.875 974.629 710.527 974.616 712.166C974.565 713.806 974.41 715.458 973.868 717.084C973.39 715.432 973.313 713.78 973.326 712.141C973.377 710.488 973.532 708.849 974.074 707.223Z" fill="black"/>
<path d="M938.953 710.527C944.038 709.624 949.162 709.107 954.287 708.694C959.424 708.32 964.561 708.036 969.724 708.152C964.638 709.056 959.514 709.572 954.39 709.985C949.266 710.347 944.129 710.63 938.953 710.527Z" fill="#231F20"/>
<path d="M1077.85 618.639L1081.98 675.109H1111.33L1106.43 618.639H1077.85Z" fill="#FFCB92"/>
<path d="M1031.61 513.547L1028.03 605.938L1023.74 608.081V628.552C1023.74 628.552 1085.23 621.647 1097.13 626.177L1113.03 556.49L1088.33 513.573H1031.61V513.547Z" fill="#D84479"/>
<path d="M1111.33 562.182L1121.3 609.63L1125.16 610.34L1122.74 626.758C1099.19 623.544 1046.7 630.334 1046.7 630.334L1042.37 613.205L1046.7 610.701L1038.03 535.051L1074.48 525.177L1111.33 562.182Z" fill="#F95F8F"/>
<path d="M1136.23 571.398L907.588 486.739C898.979 483.55 894.577 473.973 897.765 465.364L948.801 327.539C951.989 318.929 961.567 314.528 970.176 317.716L1198.82 402.376C1207.43 405.564 1211.83 415.141 1208.64 423.75L1157.6 561.576C1154.42 570.198 1144.84 574.586 1136.23 571.398Z" fill="#56D0ED"/>
<path d="M1038.69 382.24C1038.69 382.24 1062.08 423.518 1099.37 441.847L1082.15 408.391L1047.26 383.04L1038.69 382.24Z" fill="black"/>
<path opacity="0.94" d="M961.902 324.26L1143.32 564.428" stroke="white" stroke-miterlimit="10"/>
<path opacity="0.94" d="M908.22 470.72L1203.61 412.986" stroke="white" stroke-miterlimit="10"/>
<path d="M979.482 364.092C981.689 367.229 978.011 373.644 971.247 378.407C964.484 383.17 957.204 384.473 954.997 381.337C952.777 378.187 956.468 371.772 963.232 367.009C969.995 362.247 977.275 360.943 979.482 364.092Z" fill="#288C34"/>
<path d="M979.482 364.092L1072.36 496.019C1074.57 499.155 1070.89 505.57 1064.13 510.333C1057.37 515.096 1050.09 516.4 1047.88 513.263L954.997 381.337C957.204 384.473 964.484 383.17 971.247 378.407C978.011 373.644 981.702 367.242 979.482 364.092Z" fill="#4DCE62"/>
<path d="M1059.43 392.334C1059.43 392.334 1043.23 418.381 1035.81 422.111C1028.39 425.841 1023.15 417.413 1023.15 417.413L1011.03 416.897C1011.03 416.897 1010.85 421.156 1017.7 422.46C1024.55 423.776 1021.87 427.945 1021.87 427.945C1021.87 427.945 1014.98 435.793 1009.09 438.245C1006.76 439.226 1004.81 440.995 1003.93 443.37C1002.17 448.12 1001.92 455.451 1014.49 458.833C1033.91 464.06 1044.51 436.051 1044.51 436.051L1076.82 408.791C1076.82 408.804 1069.49 394.696 1059.43 392.334Z" fill="#FFCB92"/>
<path d="M1052.72 317.097L1125.26 354.928C1125.26 354.928 1131.39 358.62 1128.83 367.061C1126.26 375.503 1104.39 434.528 1104.39 434.528L1105.1 437.032L1099.39 441.847C1099.39 441.847 1074.58 391.869 1038.71 382.24L1042.11 375.283L1045.85 376.716C1045.85 376.716 1053.23 364.105 1077.73 357.239L992.531 325.744L1021.55 320.13C1021.55 320.13 1032.51 303.931 1052.72 317.097Z" fill="#FBE54B"/>
<path d="M1049.22 377.723C1054.65 380.33 1059.84 383.466 1064.83 386.887C1069.8 390.32 1074.49 394.141 1078.93 398.245C1083.37 402.363 1087.35 406.945 1090.96 411.785C1094.58 416.651 1097.42 422.021 1099.79 427.558L1097.78 423.505C1097.43 422.834 1097.13 422.15 1096.75 421.492L1095.56 419.568C1094.76 418.291 1094.05 416.961 1093.18 415.735L1090.55 412.069C1086.88 407.319 1082.92 402.75 1078.48 398.697C1074.11 394.58 1069.42 390.785 1064.53 387.274C1062.08 385.519 1059.59 383.841 1057.03 382.24C1054.49 380.64 1051.89 379.117 1049.22 377.723Z" fill="black"/>
<path d="M1040.31 296.987C1041 309.571 1046.72 319.768 1046.72 319.768C1042.79 328.687 1027.79 322.621 1030.43 316.193C1033.06 309.765 1026.68 298.652 1026.68 298.652C1026.68 298.652 1039.81 287.59 1040.31 296.987Z" fill="#EFB275"/>
<path d="M1031.24 298.923C1042.56 298.923 1051.74 289.746 1051.74 278.426C1051.74 267.106 1042.56 257.929 1031.24 257.929C1019.92 257.929 1010.74 267.106 1010.74 278.426C1010.74 289.746 1019.92 298.923 1031.24 298.923Z" fill="#FFCB92"/>
<path d="M991.977 688.301L1079.85 644.88L1106.03 668.436L1110.35 654.303L1124.83 691.399L1001.59 705.313C1001.59 705.326 996.288 692.947 991.977 688.301Z" fill="#56D0ED"/>
<path d="M1124.83 691.411L1140.23 708.165L966.407 718.336C963.077 718.53 960.044 716.387 959.114 713.186L958.03 709.417C958.03 709.417 951.989 702.615 973.299 688.843C994.61 675.071 1001.59 705.326 1001.59 705.326L1124.83 691.411Z" fill="white" stroke="#231F20" stroke-miterlimit="10"/>
<path d="M1001.19 710.14C1011.21 708.991 1021.22 707.984 1031.25 707.003L1061.34 704.203L1091.47 701.698L1106.53 700.55L1121.61 699.543L1106.58 701.182L1091.54 702.692L1061.44 705.493L1031.32 707.997C1021.3 708.772 1011.25 709.52 1001.19 710.14Z" fill="#231F20"/>
<path d="M1079.85 644.88C1072.54 648.791 1065.17 652.56 1057.8 656.329C1050.43 660.098 1043 663.751 1035.6 667.468L1013.27 678.336L1002.06 683.68C998.301 685.422 994.558 687.191 990.789 688.894C994.429 686.932 998.12 685.035 1001.79 683.112L1012.83 677.446L1035.04 666.307C1042.48 662.692 1049.9 659.014 1057.37 655.438C1064.83 651.876 1072.31 648.314 1079.85 644.88Z" fill="#231F20"/>
<path d="M1001.41 689.514C1008.29 685.913 1015.22 682.428 1022.17 678.981C1029.11 675.522 1036.11 672.166 1043.06 668.759C1050.07 665.442 1057.06 662.073 1064.09 658.794L1074.65 653.915C1078.18 652.328 1081.71 650.701 1085.27 649.152C1081.84 650.972 1078.38 652.702 1074.92 654.483L1064.52 659.698C1057.57 663.157 1050.58 666.513 1043.62 669.92C1036.61 673.238 1029.63 676.607 1022.59 679.872C1015.56 683.138 1008.51 686.39 1001.41 689.514Z" fill="#231F20"/>
<path d="M1032.52 674.528L1051.66 699.672L1072.94 697.271L1051.01 665.635" stroke="#231F20" stroke-miterlimit="10"/>
<path d="M1025.35 686.222L1021.12 688.545C1019.75 689.294 1018.01 688.79 1017.26 687.422L1011.3 676.541C1010.55 675.173 1011.05 673.431 1012.42 672.682L1016.66 670.359C1018.02 669.61 1019.77 670.114 1020.51 671.482L1026.48 682.363C1027.24 683.731 1026.74 685.473 1025.35 686.222Z" fill="white"/>
<path d="M1025.36 686.223L1022.5 687.823L1021.07 688.623C1020.58 688.881 1020.01 688.998 1019.46 688.946C1018.9 688.894 1018.36 688.688 1017.91 688.352C1017.44 688.017 1017.13 687.5 1016.88 687.036L1015.22 684.209L1011.93 678.556L1011.13 677.136C1010.87 676.71 1010.54 676.064 1010.51 675.445C1010.38 674.18 1011.05 672.876 1012.19 672.257L1015.07 670.708L1016.53 669.933C1017.08 669.649 1017.73 669.533 1018.35 669.611C1018.97 669.675 1019.56 669.946 1020.04 670.334C1020.53 670.721 1020.84 671.314 1021.06 671.779L1022.55 674.683L1025.55 680.505L1026.32 681.95C1026.59 682.415 1026.84 682.944 1026.87 683.499C1026.94 684.596 1026.34 685.719 1025.36 686.223ZM1025.36 686.223C1026.32 685.693 1026.89 684.57 1026.78 683.499C1026.74 682.957 1026.49 682.466 1026.21 682.002L1025.41 680.582L1022.12 674.929L1020.46 672.102C1020.18 671.598 1019.95 671.224 1019.56 670.927C1019.19 670.643 1018.72 670.475 1018.26 670.437C1017.79 670.398 1017.33 670.488 1016.91 670.708L1015.49 671.495L1012.64 673.096C1011.84 673.509 1011.33 674.438 1011.39 675.367C1011.43 675.845 1011.58 676.206 1011.87 676.723L1012.64 678.168L1015.64 683.99L1017.13 686.894C1017.52 687.9 1018.37 688.701 1019.46 688.817C1020.55 688.998 1021.5 688.249 1022.45 687.771L1025.36 686.223Z" fill="black"/>
<path d="M1039.05 678.723L1034.82 681.046C1033.45 681.795 1031.7 681.291 1030.96 679.923L1024.99 669.042C1024.24 667.674 1024.75 665.932 1026.12 665.183L1030.35 662.86C1031.72 662.111 1033.46 662.614 1034.21 663.982L1040.17 674.863C1040.92 676.232 1040.42 677.961 1039.05 678.723Z" fill="white"/>
<path d="M1039.05 678.723L1036.2 680.324L1034.76 681.124C1034.27 681.382 1033.71 681.498 1033.15 681.447C1032.6 681.395 1032.05 681.189 1031.6 680.853C1031.14 680.517 1030.83 680.001 1030.57 679.537L1028.92 676.71L1025.63 671.056L1024.83 669.637C1024.57 669.211 1024.23 668.565 1024.21 667.946C1024.08 666.681 1024.75 665.377 1025.88 664.758L1028.76 663.209L1030.22 662.434C1030.78 662.15 1031.42 662.034 1032.04 662.112C1032.66 662.176 1033.25 662.447 1033.73 662.834C1034.22 663.222 1034.53 663.815 1034.75 664.28L1036.25 667.184L1039.24 673.005L1040.02 674.451C1040.29 674.916 1040.53 675.445 1040.56 676C1040.62 677.097 1040.02 678.207 1039.05 678.723ZM1039.05 678.723C1040.02 678.194 1040.59 677.071 1040.47 676C1040.43 675.458 1040.19 674.967 1039.9 674.503L1039.1 673.083L1035.81 667.429L1034.16 664.603C1033.87 664.099 1033.64 663.725 1033.25 663.428C1032.88 663.144 1032.42 662.976 1031.95 662.938C1031.49 662.899 1031.02 662.989 1030.61 663.209L1029.19 663.996L1026.34 665.597C1025.54 666.01 1025.02 666.939 1025.08 667.868C1025.12 668.346 1025.28 668.707 1025.56 669.224L1026.34 670.669L1029.33 676.49L1030.83 679.395C1031.21 680.401 1032.07 681.202 1033.15 681.318C1034.25 681.498 1035.19 680.75 1036.15 680.272L1039.05 678.723Z" fill="black"/>
<path d="M1000.93 705.609C1001.4 707.442 1001.48 709.275 1001.46 711.108C1001.4 712.941 1001.24 714.761 1000.7 716.581C1000.22 714.748 1000.16 712.915 1000.17 711.082C1000.24 709.249 1000.39 707.429 1000.93 705.609Z" fill="black"/>
<path d="M961.902 709.275C964.729 708.785 967.569 708.449 970.421 708.126C973.261 707.791 976.113 707.546 978.966 707.313C981.818 707.107 984.671 706.9 987.523 706.797L991.809 706.642C993.241 706.642 994.674 706.59 996.107 706.629C994.687 706.887 993.267 707.055 991.86 707.274L987.601 707.791C984.761 708.126 981.909 708.372 979.056 708.604C976.204 708.81 973.351 709.017 970.499 709.12C967.633 709.223 964.768 709.327 961.902 709.275Z" fill="#231F20"/>
<path d="M1050.31 609.694C1055.75 608.894 1061.24 608.339 1066.72 607.874C1072.21 607.41 1077.72 607.126 1083.22 606.894C1088.73 606.764 1094.24 606.661 1099.75 606.881C1105.26 607.1 1110.78 607.474 1116.21 608.455C1114.83 608.378 1113.46 608.275 1112.09 608.171C1110.72 608.094 1109.34 608.068 1107.98 608.016C1106.61 607.939 1105.23 607.939 1103.86 607.913C1102.49 607.887 1101.11 607.862 1099.74 607.887C1094.25 607.875 1088.76 607.978 1083.27 608.197C1077.77 608.313 1072.29 608.623 1066.8 608.881L1050.31 609.694Z" fill="black"/>
<path d="M1038.42 284.479C1047.66 274.683 1038.42 274.683 1038.42 274.683L1036.16 296.238L1031.72 266.706L1012.6 269.881C1012.6 269.881 1020.17 252.921 1038.71 259.323C1057.26 265.725 1051.78 288.106 1047.49 290.933C1039.57 296.148 1041.28 280.917 1041.28 280.917" fill="black"/>
<path d="M1050.49 262.266C1055.55 262.266 1059.65 258.163 1059.65 253.102C1059.65 248.04 1055.55 243.937 1050.49 243.937C1045.42 243.937 1041.32 248.04 1041.32 253.102C1041.32 258.163 1045.42 262.266 1050.49 262.266Z" fill="black"/>
<path d="M472.453 346.603C493.86 346.603 511.214 329.249 511.214 307.842C511.214 286.435 493.86 269.081 472.453 269.081C451.046 269.081 433.692 286.435 433.692 307.842C433.692 329.249 451.046 346.603 472.453 346.603Z" fill="white"/>
<path d="M433.692 327.745L472.453 307.842L464.425 350.372C464.425 350.372 451.427 352.308 433.692 327.745Z" fill="#F24089"/>
<path d="M706.336 445.667H701.392C693.557 445.667 687.129 439.252 687.129 431.417V301.569C687.129 293.734 693.544 287.319 701.392 287.319H706.336C714.17 287.319 720.585 293.734 720.585 301.569V431.404C720.598 439.252 714.183 445.667 706.336 445.667Z" fill="#F95F8F"/>
<path d="M702.438 338.136C698.759 338.136 695.765 335.141 695.765 331.462C695.765 327.784 698.759 324.789 702.438 324.789C706.116 324.789 709.111 327.784 709.111 331.462C709.111 335.141 706.116 338.136 702.438 338.136ZM702.438 326.067C699.456 326.067 697.03 328.494 697.03 331.475C697.03 334.457 699.456 336.884 702.438 336.884C705.419 336.884 707.846 334.457 707.846 331.475C707.846 328.494 705.419 326.067 702.438 326.067ZM711.77 340.807C712.015 340.562 712.015 340.162 711.77 339.917L708.943 337.09C708.698 336.845 708.298 336.845 708.053 337.09C707.807 337.335 707.807 337.735 708.053 337.981L710.879 340.807C711.008 340.936 711.163 340.988 711.331 340.988C711.486 340.988 711.641 340.924 711.77 340.807Z" fill="white"/>
<path d="M676.558 289.423C676.83 302.266 676.946 315.109 677.049 327.939L677.204 366.454L677.062 404.97L676.881 424.228L676.558 443.486L676.236 424.228L676.055 404.97L675.913 366.454L676.068 327.939C676.171 315.109 676.3 302.266 676.558 289.423Z" fill="#939393"/>
<path d="M730.666 289.552C730.937 302.395 731.054 315.238 731.157 328.068L731.312 366.583L731.17 405.099L730.989 424.357L730.666 443.615L730.344 424.357L730.163 405.099L730.021 366.583L730.176 328.068C730.279 315.225 730.408 302.395 730.666 289.552Z" fill="#939393"/>
<path d="M712.518 408.261C711.357 408.261 710.221 408.081 709.15 407.719C708.607 407.539 708.001 407.681 707.652 408.029L705.523 409.63C703.057 408.313 701.534 406.79 700.243 404.351L701.805 402.285C702.205 401.885 702.36 401.292 702.18 400.737C701.818 399.652 701.637 398.516 701.637 397.355C701.637 396.516 700.953 395.832 700.114 395.832H696.642C695.803 395.832 695.119 396.516 695.119 397.355C695.119 406.945 702.915 414.741 712.505 414.741C713.344 414.741 714.029 414.057 714.029 413.218V409.759C714.029 408.946 713.357 408.261 712.518 408.261ZM712.983 413.244C712.983 413.502 712.777 413.708 712.518 413.708C703.509 413.708 696.178 406.377 696.178 397.368C696.178 397.11 696.384 396.903 696.642 396.903H700.114C700.372 396.903 700.579 397.11 700.579 397.368C700.579 398.633 700.773 399.885 701.173 401.059C701.224 401.24 701.186 401.408 701.005 401.601L699.198 403.989C699.082 404.144 699.056 404.363 699.146 404.544C700.618 407.435 702.412 409.23 705.329 410.727C705.51 410.817 705.729 410.804 705.884 410.675L708.323 408.817C708.453 408.687 708.633 408.649 708.801 408.7C709.988 409.088 711.241 409.294 712.505 409.294C712.764 409.294 712.97 409.501 712.97 409.759V413.244H712.983Z" fill="white"/>
<path d="M684.006 366.493H724.651" stroke="white" stroke-miterlimit="10"/>
<path d="M829.033 347.248L797.165 359.497L765.245 371.63L765.516 370.985L795.397 440.052L824.954 509.249L824.348 509.004L853.557 496.445L882.818 483.989L853.79 496.974L824.709 509.856L824.296 510.036L824.103 509.61L794.209 440.556L764.625 371.372L764.432 370.895L764.896 370.727L796.945 358.929L829.033 347.248Z" fill="#56D0ED"/>
<path d="M530.007 503.118L559.359 502.783L588.71 502.589L618.062 502.511L647.413 502.486L646.781 503.118C646.845 486.235 646.806 469.339 646.935 452.457L647.116 427.132L647.413 401.808L647.71 427.132L647.891 452.457C648.02 469.339 647.994 486.235 648.045 503.118V503.751H647.413L618.062 503.725L588.71 503.647L559.359 503.454L530.007 503.118Z" fill="#F95F8F"/>
<path d="M1012.6 274.967C1012.6 274.967 1010.96 291.114 1026.06 296.251" stroke="url(#paint1_linear)" stroke-miterlimit="10"/>
<path d="M1015.33 268.306C1019.93 267.119 1024.61 266.332 1029.29 265.622C1033.98 264.963 1038.69 264.396 1043.44 264.215C1038.83 265.402 1034.16 266.203 1029.47 266.9C1024.79 267.571 1020.09 268.139 1015.33 268.306Z" fill="url(#paint2_linear)"/>
<path d="M1016.94 266.267C1020.59 265.247 1024.27 264.538 1027.94 263.802L1033.44 262.718C1034.35 262.524 1035.27 262.343 1036.16 262.098C1037.07 261.904 1037.94 261.62 1038.79 261.182C1037.36 262.472 1035.47 263.105 1033.69 263.686C1031.89 264.266 1030.04 264.68 1028.19 265.067C1024.48 265.777 1020.73 266.254 1016.94 266.267Z" fill="url(#paint3_linear)"/>
<path d="M1018.09 264.228C1021.19 263.324 1024.3 262.705 1027.39 262.059L1032.03 261.104C1033.58 260.769 1035.1 260.42 1036.61 259.865C1035.35 260.898 1033.81 261.543 1032.3 262.072C1030.78 262.601 1029.21 263.002 1027.64 263.324C1024.49 263.931 1021.31 264.331 1018.09 264.228Z" fill="url(#paint4_linear)"/>
<path d="M1033.28 269.546C1034.13 271.998 1034.6 274.489 1034.96 277.006C1035.29 279.523 1035.53 282.053 1035.36 284.647C1034.51 282.195 1034.04 279.704 1033.68 277.187C1033.36 274.67 1033.13 272.14 1033.28 269.546Z" fill="url(#paint5_linear)"/>
<path d="M1038.22 272.966C1039.28 272.398 1040.46 272.334 1041.61 272.553C1042.17 272.682 1042.75 272.914 1043.24 273.315C1043.74 273.689 1044.12 274.347 1044.01 274.967C1043.58 274.515 1043.17 274.347 1042.73 274.179C1042.28 274.037 1041.82 273.908 1041.32 273.818C1040.34 273.586 1039.32 273.418 1038.22 272.966Z" fill="url(#paint6_linear)"/>
<path d="M1057.71 253.102C1057.73 254.999 1056.98 256.883 1055.66 258.265C1054.36 259.671 1052.47 260.562 1050.5 260.64C1048.52 260.73 1046.48 259.994 1045 258.6C1043.52 257.206 1042.64 255.167 1042.64 253.102C1042.64 251.036 1043.52 248.997 1045 247.603C1046.48 246.196 1048.52 245.473 1050.5 245.564C1052.47 245.641 1054.37 246.532 1055.66 247.939C1056.98 249.333 1057.73 251.217 1057.71 253.102ZM1057.71 253.102C1057.71 251.204 1056.91 249.333 1055.53 248.055C1054.16 246.777 1052.29 246.119 1050.49 246.196C1048.68 246.274 1046.96 247.1 1045.77 248.377C1044.57 249.655 1043.9 251.359 1043.92 253.089C1043.9 254.818 1044.57 256.522 1045.77 257.8C1046.96 259.091 1048.68 259.917 1050.49 259.981C1052.29 260.059 1054.16 259.413 1055.53 258.123C1056.9 256.871 1057.7 254.999 1057.71 253.102Z" fill="url(#paint7_linear)"/>
<path d="M1054.56 253.102C1054.62 255.231 1052.85 257.348 1050.5 257.49C1049.35 257.568 1048.14 257.18 1047.23 256.367C1046.33 255.554 1045.79 254.328 1045.79 253.102C1045.79 251.862 1046.33 250.636 1047.23 249.836C1048.14 249.023 1049.36 248.636 1050.5 248.713C1052.85 248.855 1054.6 250.972 1054.56 253.102ZM1054.56 253.102C1054.56 252.03 1054.1 250.985 1053.31 250.288C1052.52 249.591 1051.48 249.268 1050.5 249.358C1048.48 249.513 1047.04 251.32 1047.08 253.102C1047.04 254.883 1048.48 256.703 1050.5 256.845C1051.48 256.922 1052.52 256.612 1053.31 255.915C1054.09 255.218 1054.55 254.173 1054.56 253.102Z" fill="url(#paint8_linear)"/>
<path d="M1024.92 324.26C1024.92 324.26 1042.5 341.35 1052.6 320.995" stroke="url(#paint9_linear)" stroke-miterlimit="10"/>
<path d="M1054.18 374.07C1054.18 374.07 1080.34 356.787 1113.59 354.605" stroke="url(#paint10_linear)" stroke-miterlimit="10"/>
<path d="M1060.99 324.26L1103.42 347.248" stroke="url(#paint11_linear)" stroke-miterlimit="10"/>
<path d="M1031.59 301.453C1031.59 301.453 1035.09 310.281 1034.36 317.368" stroke="url(#paint12_linear)" stroke-miterlimit="10"/>
<path d="M979.482 364.092C980.295 365.37 980.308 367.009 979.921 368.455C979.547 369.927 978.811 371.269 977.946 372.508C977.055 373.721 976.049 374.857 974.939 375.877C973.841 376.909 972.667 377.839 971.479 378.755L971.583 378.161C975.081 382.95 978.514 387.777 981.934 392.618L987.084 399.872L992.157 407.177C995.539 412.043 998.921 416.909 1002.22 421.827C1005.57 426.719 1008.86 431.663 1012.09 436.619C1008.51 431.882 1005 427.119 1001.53 422.305C998.03 417.516 994.597 412.689 991.176 407.848L986.026 400.594L980.953 393.289C977.572 388.423 974.19 383.557 970.886 378.639L970.653 378.29L970.989 378.045C972.176 377.18 973.364 376.303 974.461 375.322C975.571 374.354 976.591 373.308 977.533 372.172C978.437 371.024 979.211 369.759 979.65 368.365C980.076 367.009 980.205 365.422 979.482 364.092Z" fill="url(#paint13_linear)"/>
<path d="M1029.28 459.504C1032.35 463.634 1035.37 467.791 1038.34 471.973C1041.33 476.142 1044.28 480.349 1047.19 484.583C1050.14 488.791 1053.05 493.024 1055.92 497.284C1058.8 501.543 1061.7 505.777 1064.5 510.075L1063.96 509.907C1065.14 509.378 1066.27 508.462 1067.21 507.455C1068.17 506.435 1068.96 505.274 1069.65 504.047C1070.36 502.821 1070.87 501.492 1071.33 500.149C1071.55 499.478 1071.72 498.781 1071.91 498.097L1072.36 496.006L1072.08 498.136C1071.94 498.833 1071.8 499.543 1071.62 500.24C1071.23 501.621 1070.79 503.002 1070.14 504.306C1069.51 505.609 1068.72 506.848 1067.76 507.958C1066.77 509.055 1065.7 510.049 1064.28 510.746L1063.97 510.901L1063.74 510.579C1060.73 506.409 1057.83 502.176 1054.9 497.955C1051.96 493.747 1049.07 489.501 1046.2 485.241C1043.31 480.995 1040.44 476.735 1037.63 472.437C1034.8 468.165 1032.02 463.841 1029.28 459.504Z" fill="url(#paint14_linear)"/>
<path d="M971.737 366.08C971.737 366.08 962.289 370.469 958.417 376.896" stroke="url(#paint15_linear)" stroke-miterlimit="10"/>
<path d="M963.735 374.07C963.735 374.07 971.661 367.216 975.855 367.203" stroke="url(#paint16_linear)" stroke-miterlimit="10"/>
<path d="M1071.62 369.875C1071.62 369.875 1094.51 358.426 1120.5 358.426" stroke="url(#paint17_linear)" stroke-miterlimit="10"/>
<path d="M1011.67 417.219L1016.05 417.542C1016.06 417.529 1013.82 421.659 1011.67 417.219Z" fill="black"/>
<path d="M1016.69 417.619C1016.69 417.619 1016.6 418.897 1015.11 419.568" stroke="url(#paint18_linear)" stroke-width="0.5" stroke-miterlimit="10"/>
<path d="M1012.69 417.619H1014.19" stroke="url(#paint19_linear)" stroke-width="0.5" stroke-miterlimit="10"/>
<path d="M1022.67 417.968L1019.77 421.724" stroke="url(#paint20_linear)" stroke-width="0.5" stroke-miterlimit="10"/>
<path d="M1016.06 438.207L1025.77 451.76" stroke="url(#paint21_linear)" stroke-miterlimit="10"/>
<path d="M1014.01 440.504L1004.26 446.377" stroke="url(#paint22_linear)" stroke-miterlimit="10"/>
<path d="M1017.77 445.474L1004.26 449.462" stroke="url(#paint23_linear)" stroke-miterlimit="10"/>
<path d="M1022.67 453.011L1005.48 452.65" stroke="url(#paint24_linear)" stroke-miterlimit="10"/>
<path d="M1077.85 557.407C1078.28 560.84 1078.57 564.299 1078.84 567.745C1079.13 571.192 1079.31 574.638 1079.49 578.097C1079.64 581.556 1079.79 585.003 1079.84 588.462L1079.9 593.651C1079.88 595.38 1079.9 597.11 1079.84 598.839C1079.61 597.123 1079.46 595.393 1079.27 593.676L1078.84 588.501C1078.56 585.054 1078.38 581.608 1078.2 578.149C1078.04 574.69 1077.9 571.243 1077.85 567.784C1077.8 564.325 1077.76 560.866 1077.85 557.407Z" fill="url(#paint25_linear)"/>
<path d="M279.294 551.276L283.166 558.129C283.166 558.129 306.18 559.459 314.789 548.139" fill="#231F20"/>
<path opacity="0.19" d="M1071.62 354.98L1077.71 357.226C1077.71 357.226 1094.94 350.372 1107.9 350.862C1107.9 350.862 1087.07 346.5 1071.62 354.98Z" fill="url(#paint26_linear)"/>
<path opacity="0.16" d="M1056.23 397.303L1063.68 409.243L1044.51 436.064L1076.82 408.804L1059.43 392.334L1056.23 397.303Z" fill="url(#paint27_linear)"/>
<path opacity="0.14" d="M1078.48 627.132L1107.05 625.893L1108.7 644.88L1079.53 641.46" fill="url(#paint28_linear)"/>
<path opacity="0.23" d="M1042.28 626.732L1043.33 643.086H1068.39L1068.01 628.539L1046.72 630.333L1045.81 626.732H1042.28Z" fill="url(#paint29_linear)"/>
<path opacity="0.24" d="M1030.52 541.892L1113.04 571.94L1111.33 562.182L1030.52 532.263V541.892Z" fill="url(#paint30_linear)"/>
<path d="M479.178 477.239V480.285C479.178 482.711 477.203 484.686 474.776 484.686H441.695C442.108 483.486 442.34 482.221 442.418 480.943H471.821C474.234 480.943 476.222 478.955 476.222 476.542V473.496C476.222 473.354 476.209 473.212 476.196 473.07C477.926 473.676 479.178 475.316 479.178 477.239Z" fill="#DD9B5F"/>
<path d="M297.134 624.125C327.767 598.659 348.643 573.255 343.762 567.384C338.881 561.513 310.092 577.398 279.459 602.864C248.826 628.33 227.95 653.734 232.831 659.605C237.712 665.476 266.501 649.591 297.134 624.125Z" fill="#231F20"/>
<path d="M329.826 584.886L450.304 516.658C450.304 516.658 461.908 513.263 467.548 530.043C473.189 546.823 503.728 648.159 503.728 648.159L444.741 646.248L430.827 597.136L333.44 654.522L295.351 623.118L329.826 584.886Z" fill="#2CC1D1"/>
<path d="M305.935 686.894C337.771 686.894 363.579 661.085 363.579 629.249C363.579 597.413 337.771 571.605 305.935 571.605C274.098 571.605 248.29 597.413 248.29 629.249C248.29 661.085 274.098 686.894 305.935 686.894Z" fill="#56D0ED"/>
<path d="M665.277 585.945L624.929 663.286L645.387 687.036L632.725 690.611L665.445 704.228L680.237 594.838C680.237 594.838 669.33 589.882 665.277 585.945Z" fill="#F95F8F"/>
<path d="M342.734 584.886L611.982 655.813L644.406 687.978L609.22 696.742L605.735 687.049L407.193 693.193C405.205 693.257 403.205 693.218 401.217 693.089L298.177 686.106C298.164 686.119 333.182 603.021 342.734 584.886Z" fill="#56D0ED"/>
<path d="M290.394 449.049C275.202 473.121 245.58 534.148 231.924 658.73C231.924 658.73 323.566 551.573 344.218 569.54C344.218 569.54 360.456 476.116 316.338 444.157C307.858 438.026 295.97 440.207 290.394 449.049Z" fill="#A7CC80"/>
<path opacity="0.23" d="M287.774 471.108C287.774 471.108 262.127 539.646 285.941 560.672C285.941 560.672 306.903 564.544 329.207 549.701L336.487 562.725L343.741 567.371L312.492 506.758L287.774 471.108Z" fill="url(#paint31_linear)"/>
<path d="M286.716 541.117L286.755 541.208V541.285" stroke="#231F20" stroke-width="0.75" stroke-miterlimit="10"/>
<path d="M295.687 529.204L301.753 527.203" stroke="#231F20" stroke-width="0.75" stroke-miterlimit="10"/>
<path d="M372.459 508.823C372.459 508.823 306.154 425.867 288.445 468.926C288.445 468.926 279.629 489.475 295.002 549.701" fill="#C8E8A3"/>
<path d="M665.445 704.228L680.056 718.259L692.499 563.783C692.744 560.814 690.898 558.091 688.059 557.2L684.729 556.155C684.729 556.155 678.791 550.656 666.116 569.333C653.441 588.01 680.237 594.825 680.237 594.825L665.445 704.228Z" fill="white" stroke="#231F20" stroke-miterlimit="10"/>
<path d="M684.535 594.567C683.812 603.512 682.96 612.431 682.082 621.363L679.281 648.12L676.184 674.838L674.531 688.185C673.938 692.625 673.383 697.078 672.737 701.518C673.086 697.052 673.512 692.586 673.899 688.12L675.19 674.735L677.991 647.978L681.088 621.26C682.186 612.353 683.283 603.46 684.535 594.567Z" fill="#231F20"/>
<path d="M624.929 663.286C628.104 656.626 631.395 650.043 634.713 643.46C638.03 636.878 641.45 630.346 644.806 623.789C648.265 617.284 651.66 610.74 655.158 604.261L660.424 594.541C662.218 591.327 663.987 588.088 665.819 584.886C664.245 588.217 662.593 591.521 660.992 594.838L656.036 604.725C652.718 611.308 649.311 617.839 645.942 624.396C642.483 630.901 639.088 637.445 635.577 643.925C632.092 650.405 628.569 656.871 624.929 663.286Z" fill="#231F20"/>
<path d="M666.168 594.361C663.276 600.634 660.256 606.842 657.223 613.038C654.189 619.233 651.053 625.39 647.968 631.56C644.793 637.691 641.669 643.848 638.442 649.953L633.589 659.104C631.924 662.137 630.311 665.183 628.607 668.191C630.04 665.054 631.55 661.944 633.021 658.82L637.552 649.514C640.585 643.318 643.722 637.162 646.806 630.992C649.982 624.861 653.105 618.704 656.332 612.599C659.559 606.494 662.799 600.388 666.168 594.361Z" fill="white"/>
<path d="M652.228 621.75L674.222 639.278L671.666 658.162L643.954 638.039" stroke="white" stroke-miterlimit="10"/>
<path d="M614.396 654.47L626.051 656.29L622.295 663.312L614.396 654.47Z" fill="#2CC1D1"/>
<path d="M307.251 445.848C309.136 446.545 311.253 445.564 311.937 443.679L316.545 431.185C317.242 429.301 316.261 427.184 314.376 426.5C312.492 425.803 310.375 426.784 309.691 428.668L305.083 441.163C304.386 443.034 305.367 445.151 307.251 445.848Z" fill="#ECAE74"/>
<path d="M354.815 497.374C352.169 497.981 349.536 498.626 346.941 499.414C344.334 500.149 341.753 500.975 339.21 501.866C334.111 503.66 329.09 505.674 324.263 508.087C319.371 510.372 314.776 513.238 310.349 516.297L307.096 518.71C306.012 519.511 305.044 520.466 304.011 521.33C301.856 522.996 300.139 525.087 298.151 526.945C301.533 522.699 305.392 518.788 309.755 515.496C310.788 514.606 311.962 513.896 313.085 513.108C314.208 512.334 315.331 511.56 316.532 510.888C317.706 510.204 318.881 509.481 320.068 508.81L323.695 506.926C328.626 504.59 333.685 502.524 338.9 500.924C344.102 499.349 349.42 498.046 354.815 497.374Z" fill="white"/>
<path d="M663.069 615.089L664.618 612.404C665.483 610.92 664.966 608.997 663.469 608.132L654.937 603.201C653.453 602.336 651.53 602.853 650.665 604.35L649.116 607.035C648.251 608.519 648.768 610.442 650.265 611.307L658.797 616.238C660.294 617.09 662.217 616.573 663.069 615.089Z" fill="white"/>
<path d="M663.07 615.09L664.477 612.612C664.98 611.811 665.122 610.805 664.799 609.927C664.502 609.023 663.78 608.43 662.915 608.042L660.385 606.726L655.338 604.08L654.719 603.744C654.525 603.641 654.357 603.576 654.176 603.512C653.802 603.409 653.415 603.396 653.041 603.447C652.279 603.551 651.595 604.028 651.234 604.686L649.788 607.139C649.31 607.849 649.168 608.61 649.388 609.385C649.504 609.759 649.672 610.12 649.943 610.417C650.201 610.727 650.537 610.934 650.963 611.192L653.363 612.715L658.178 615.761C658.591 616.006 658.978 616.29 659.417 616.445C659.856 616.6 660.333 616.665 660.798 616.6C661.727 616.484 662.592 615.903 663.07 615.09ZM663.07 615.09C662.605 615.916 661.74 616.51 660.785 616.639C660.308 616.703 659.817 616.677 659.365 616.548C658.901 616.406 658.5 616.135 658.075 615.916L653.028 613.27L650.498 611.953C650.098 611.747 649.594 611.502 649.194 611.101C648.794 610.714 648.497 610.237 648.317 609.707C647.929 608.675 648.136 607.371 648.704 606.506L650.111 604.028C650.691 603.034 651.737 602.337 652.873 602.208C653.441 602.131 654.009 602.208 654.551 602.389C654.809 602.479 655.08 602.621 655.299 602.75L655.906 603.125L660.721 606.171L663.121 607.694C663.509 607.939 663.96 608.21 664.283 608.585C664.619 608.959 664.838 609.411 664.98 609.875C665.277 610.818 665.057 611.85 664.528 612.637L663.07 615.09Z" fill="black"/>
<path d="M656.125 627.119L657.674 624.434C658.538 622.95 658.022 621.026 656.525 620.162L647.993 615.231C646.509 614.366 644.585 614.882 643.721 616.38L642.172 619.064C641.307 620.549 641.823 622.472 643.321 623.337L651.852 628.267C653.35 629.119 655.26 628.603 656.125 627.119Z" fill="white"/>
<path d="M656.125 627.119L657.532 624.641C658.048 623.841 658.178 622.834 657.855 621.957C657.558 621.053 656.835 620.459 655.97 620.072L653.441 618.756L648.394 616.11L647.774 615.774C647.581 615.671 647.413 615.606 647.232 615.542C646.858 615.438 646.471 615.425 646.096 615.477C645.335 615.58 644.651 616.058 644.289 616.716L642.844 619.169C642.366 619.878 642.224 620.64 642.443 621.414C642.56 621.789 642.727 622.15 642.999 622.447C643.257 622.757 643.592 622.963 644.018 623.221L646.419 624.745L651.233 627.791C651.646 628.036 652.034 628.32 652.473 628.475C652.911 628.63 653.389 628.694 653.854 628.63C654.783 628.514 655.648 627.933 656.125 627.119ZM656.125 627.119C655.661 627.946 654.796 628.539 653.841 628.668C653.363 628.733 652.873 628.707 652.421 628.578C651.956 628.436 651.556 628.165 651.13 627.946L646.083 625.3L643.554 623.983C643.153 623.776 642.65 623.531 642.25 623.131C641.85 622.744 641.553 622.266 641.372 621.737C640.985 620.705 641.191 619.401 641.759 618.536L643.166 616.058C643.747 615.064 644.793 614.367 645.928 614.238C646.496 614.161 647.064 614.238 647.606 614.419C647.865 614.509 648.136 614.651 648.355 614.78L648.962 615.154L653.776 618.201L656.177 619.724C656.564 619.969 657.016 620.24 657.339 620.614C657.674 620.988 657.894 621.44 658.036 621.905C658.332 622.847 658.113 623.88 657.584 624.667L656.125 627.119Z" fill="black"/>
<path d="M650.149 640.349L651.698 637.664C652.563 636.18 652.046 634.256 650.549 633.392L642.017 628.461C640.533 627.596 638.61 628.113 637.745 629.61L636.196 632.295C635.331 633.779 635.848 635.702 637.345 636.567L645.877 641.498C647.361 642.349 649.284 641.833 650.149 640.349Z" fill="white"/>
<path d="M650.15 640.35L651.557 637.871C652.073 637.071 652.202 636.064 651.879 635.187C651.582 634.283 650.86 633.689 649.995 633.302L647.465 631.986L642.418 629.34L641.799 629.004C641.605 628.901 641.437 628.836 641.257 628.772C640.882 628.668 640.495 628.656 640.121 628.707C639.359 628.81 638.675 629.288 638.314 629.946L636.868 632.399C636.39 633.109 636.249 633.87 636.468 634.645C636.584 635.019 636.752 635.38 637.023 635.677C637.281 635.987 637.617 636.194 638.043 636.452L640.443 637.975L645.258 641.021C645.671 641.266 646.058 641.55 646.497 641.705C646.936 641.86 647.413 641.924 647.878 641.86C648.795 641.731 649.659 641.163 650.15 640.35ZM650.15 640.35C649.685 641.176 648.82 641.769 647.865 641.899C647.388 641.963 646.897 641.937 646.445 641.808C645.981 641.666 645.581 641.395 645.155 641.176L640.108 638.53L637.578 637.213C637.178 637.007 636.674 636.761 636.274 636.361C635.874 635.974 635.577 635.497 635.397 634.967C635.009 633.935 635.216 632.631 635.784 631.766L637.191 629.288C637.772 628.294 638.817 627.597 639.953 627.468C640.521 627.391 641.089 627.468 641.631 627.649C641.889 627.739 642.16 627.881 642.38 628.01L642.986 628.385L647.801 631.431L650.201 632.954C650.589 633.199 651.04 633.47 651.363 633.844C651.699 634.219 651.918 634.67 652.06 635.135C652.357 636.077 652.138 637.11 651.608 637.897L650.15 640.35Z" fill="black"/>
<path d="M642.546 653.54L644.095 650.855C644.96 649.371 644.443 647.448 642.946 646.583L634.414 641.652C632.93 640.788 631.007 641.304 630.142 642.801L628.593 645.486C627.728 646.97 628.245 648.893 629.742 649.758L638.274 654.689C639.771 655.541 641.694 655.024 642.546 653.54Z" fill="white"/>
<path d="M642.547 653.541L643.954 651.063C644.47 650.263 644.599 649.256 644.277 648.378C643.98 647.475 643.257 646.881 642.392 646.494L639.862 645.177L634.816 642.531L634.196 642.195C634.002 642.092 633.835 642.028 633.654 641.963C633.28 641.86 632.892 641.847 632.518 641.899C631.757 642.002 631.073 642.479 630.711 643.138L629.265 645.59C628.788 646.3 628.646 647.061 628.865 647.836C628.982 648.21 629.149 648.572 629.42 648.869C629.679 649.178 630.014 649.385 630.44 649.643L632.841 651.166L637.655 654.212C638.068 654.457 638.456 654.741 638.894 654.896C639.333 655.051 639.811 655.116 640.275 655.051C641.205 654.922 642.07 654.354 642.547 653.541ZM642.547 653.541C642.083 654.367 641.218 654.961 640.263 655.09C639.785 655.154 639.295 655.129 638.843 655C638.378 654.858 637.978 654.587 637.552 654.367L632.505 651.721L629.975 650.405C629.575 650.198 629.072 649.953 628.672 649.553C628.272 649.165 627.975 648.688 627.794 648.159C627.407 647.126 627.613 645.822 628.181 644.958L629.588 642.479C630.169 641.485 631.215 640.788 632.35 640.659C632.918 640.582 633.486 640.659 634.028 640.84C634.286 640.93 634.557 641.072 634.777 641.202L635.384 641.576L640.198 644.622L642.599 646.145C642.986 646.39 643.438 646.661 643.76 647.036C644.096 647.41 644.315 647.862 644.457 648.326C644.754 649.269 644.535 650.301 644.006 651.089L642.547 653.541Z" fill="black"/>
<path d="M680.237 594.838C681.863 594.335 683.489 594.219 685.116 594.193C686.742 594.206 688.368 594.322 689.995 594.838C688.368 595.354 686.742 595.471 685.116 595.484C683.489 595.458 681.863 595.342 680.237 594.838Z" fill="black"/>
<path d="M684.535 559.588C684.535 564.699 684.148 569.785 683.67 574.845C683.154 579.904 682.534 584.964 681.515 589.972C681.515 584.861 681.902 579.775 682.379 574.715C682.909 569.656 683.528 564.609 684.535 559.588Z" fill="#231F20"/>
<path d="M316.119 431.676C324.495 431.676 331.285 424.885 331.285 416.509C331.285 408.133 324.495 401.343 316.119 401.343C307.743 401.343 300.953 408.133 300.953 416.509C300.953 424.885 307.743 431.676 316.119 431.676Z" fill="#FCC38A"/>
<path d="M325.039 421.478C326.32 421.402 327.213 418.928 327.035 415.954C326.856 412.979 325.673 410.63 324.392 410.707C323.112 410.784 322.218 413.258 322.396 416.232C322.575 419.206 323.758 421.555 325.039 421.478Z" fill="white"/>
<path d="M322.393 416.238C322.47 417.284 322.664 418.329 323.064 419.297C323.258 419.775 323.529 420.24 323.851 420.614C324.174 420.988 324.613 421.298 325.013 421.246C325.413 421.182 325.723 420.82 325.942 420.395C326.162 419.969 326.291 419.491 326.381 419.001C326.575 418.02 326.601 417 326.549 415.993C326.484 414.986 326.33 413.98 326.033 413.024C325.878 412.56 325.697 412.082 325.426 411.695C325.168 411.295 324.806 410.972 324.406 410.959C323.993 410.959 323.593 411.308 323.322 411.721C323.038 412.134 322.832 412.624 322.703 413.128C322.419 414.134 322.341 415.193 322.393 416.238ZM322.393 416.238C322.328 415.193 322.367 414.134 322.573 413.089C322.677 412.573 322.819 412.043 323.064 411.566C323.309 411.101 323.696 410.572 324.381 410.482C325.065 410.43 325.594 410.869 325.955 411.295C326.33 411.734 326.601 412.224 326.807 412.74C327.233 413.76 327.44 414.844 327.517 415.941C327.569 417.026 327.491 418.136 327.194 419.194C327.039 419.723 326.833 420.253 326.51 420.73C326.2 421.195 325.723 421.698 325.039 421.724C324.355 421.711 323.903 421.234 323.606 420.795C323.296 420.343 323.103 419.84 322.935 419.336C322.625 418.329 322.457 417.284 322.393 416.238Z" fill="black"/>
<path d="M308.258 411.863C307.432 411.682 306.477 411.566 305.883 411.979C305.354 412.418 305.418 413.321 305.612 414.109C305.78 414.922 306.09 415.722 306.387 416.522C306.658 417.335 307.045 418.11 307.316 418.949C306.812 418.239 306.309 417.516 305.935 416.716C305.522 415.941 305.186 415.115 304.992 414.238C304.876 413.799 304.851 413.334 304.876 412.857C304.941 412.392 305.134 411.837 305.625 411.566C306.58 411.101 307.509 411.463 308.258 411.863Z" fill="#231F20"/>
<path d="M315.977 405.874L328.355 407.552L344.076 374.005L327 383.053L317.306 366.48L309.652 389.933L301.236 380.627L303.908 394.27L283.695 381.143L301.869 422.95L306.683 422.434C306.683 422.434 300.591 407.397 309.252 410.327L309.884 417.206H311.072L313.86 411.437H318.029L315.977 405.874Z" fill="black"/>
<path d="M337.653 538.193C359.473 526.603 375.22 513.553 372.825 509.045C370.431 504.538 350.802 510.28 328.983 521.87C307.164 533.461 291.417 546.51 293.811 551.018C296.205 555.525 315.834 549.783 337.653 538.193Z" fill="#231F20"/>
<path d="M603.889 680.595C602.211 676.903 600.895 673.096 599.682 669.262C598.507 665.416 597.423 661.544 596.713 657.542C598.391 661.234 599.707 665.042 600.921 668.875C602.095 672.734 603.179 676.607 603.889 680.595Z" fill="#279CAF"/>
<path d="M654.641 699.737C658.346 700.989 661.985 702.37 665.625 703.777L665.251 704.68C662.489 703.622 659.752 702.525 657.016 701.402C654.28 700.292 651.556 699.13 648.846 697.981C646.135 696.82 643.425 695.619 640.74 694.393C638.042 693.193 635.37 691.928 632.711 690.611C635.512 691.566 638.287 692.573 641.05 693.631C643.812 694.677 646.574 695.735 649.31 696.845C652.047 697.955 654.783 699.078 657.494 700.227C660.217 701.376 662.928 702.538 665.625 703.764L665.251 704.667C661.689 703.093 658.139 701.479 654.641 699.737Z" fill="#231F20"/>
<path d="M477.513 476.077V479.123C477.513 481.537 475.525 483.525 473.112 483.525H443.709C443.631 484.802 443.399 486.067 442.986 487.268C441.785 490.946 439.126 494.135 435.345 495.929C431.769 497.62 427.858 497.736 424.399 496.561L387.923 532.186L383.121 536.871L382.953 537.039L354.196 565.112L354.015 564.893C352.918 565.848 351.537 566.416 350.014 566.481L346.748 566.597C343.766 566.713 340.927 564.79 339.623 561.808L327.813 534.599C326.161 530.766 327.529 526.403 330.924 524.699L332.563 523.886C336.035 522.157 340.333 523.86 342.179 527.694L351.743 547.545L372.873 527.41L373.144 527.139L380.217 520.414L415.132 487.139C412.924 480.259 416.112 472.618 422.824 469.443C423.496 469.12 424.193 468.862 424.877 468.655L428.891 460.898C430.001 458.755 432.673 457.903 434.815 459.013L437.526 460.407C439.681 461.517 440.533 464.189 439.423 466.332L437.255 470.54L436.661 471.676H473.112C475.383 471.676 477.281 473.431 477.487 475.651C477.5 475.793 477.513 475.935 477.513 476.077Z" fill="#FCC38A"/>
<path d="M438.739 471.676H436.661L437.255 470.54C437.771 470.875 438.275 471.263 438.739 471.676Z" fill="#FCC38A"/>
<path d="M1020.62 285.602C1021.63 285.542 1022.33 283.601 1022.19 281.267C1022.05 278.933 1021.12 277.09 1020.12 277.15C1019.11 277.21 1018.41 279.151 1018.55 281.485C1018.69 283.819 1019.62 285.662 1020.62 285.602Z" fill="white"/>
<path d="M1018.55 281.485C1018.62 282.311 1018.77 283.124 1019.09 283.873C1019.25 284.247 1019.47 284.596 1019.73 284.893C1019.98 285.189 1020.32 285.396 1020.62 285.357C1021.2 285.228 1021.48 284.338 1021.61 283.628C1021.74 282.866 1021.77 282.079 1021.73 281.304C1021.69 280.517 1021.56 279.743 1021.34 279.007C1021.13 278.31 1020.75 277.471 1020.15 277.406C1019.86 277.393 1019.55 277.652 1019.33 277.961C1019.11 278.284 1018.94 278.658 1018.82 279.045C1018.58 279.833 1018.51 280.672 1018.55 281.485ZM1018.55 281.485C1018.5 280.659 1018.53 279.833 1018.68 279.02C1018.76 278.607 1018.86 278.194 1019.06 277.806C1019.25 277.432 1019.56 277.006 1020.11 276.916C1020.68 276.864 1021.12 277.226 1021.42 277.561C1021.71 277.91 1021.95 278.297 1022.11 278.71C1022.46 279.523 1022.62 280.375 1022.68 281.24C1022.72 282.105 1022.66 282.969 1022.41 283.821C1022.28 284.247 1022.11 284.66 1021.86 285.047C1021.61 285.422 1021.21 285.822 1020.64 285.848C1020.08 285.835 1019.73 285.435 1019.49 285.086C1019.25 284.725 1019.11 284.325 1018.98 283.925C1018.72 283.124 1018.6 282.311 1018.55 281.485Z" fill="black"/>
<path opacity="0.23" d="M275.809 481.627C275.809 481.627 250.562 558.465 265.005 580.666L240.197 600.104C240.197 600.091 254.679 520.362 275.809 481.627Z" fill="url(#paint32_linear)"/>
<g opacity="0.17">
<path opacity="0.17" d="M241.746 610.224C247.593 605.061 253.479 599.95 259.403 594.877C265.302 589.778 271.252 584.745 277.216 579.724L277.125 580.55C275.292 577.968 274.002 575.206 272.892 572.341C272.285 570.934 271.885 569.449 271.381 568.004C270.968 566.532 270.607 565.048 270.22 563.576C268.852 557.626 268.297 551.521 268.168 545.441C267.961 539.349 268.568 533.283 269.252 527.268C269.678 524.26 270.233 521.279 270.736 518.297L272.75 509.443L271.136 518.375L269.962 527.358C269.42 533.373 269.007 539.401 269.278 545.429C269.458 551.443 270.052 557.458 271.446 563.305C271.833 564.751 272.195 566.21 272.621 567.642C273.111 569.062 273.485 570.508 274.066 571.889C275.112 574.677 276.402 577.452 278.068 579.814L278.403 580.292L277.99 580.64C272.001 585.635 265.999 590.605 259.946 595.522C253.918 600.466 247.851 605.358 241.746 610.224Z" fill="url(#paint33_linear)"/>
</g>
<path opacity="0.23" d="M293.169 473.999C293.169 473.999 292.021 501.259 297.042 517.613L307.639 508.526C307.652 508.526 294.073 493.438 293.169 473.999Z" fill="url(#paint34_linear)"/>
<g opacity="0.23">
<path opacity="0.23" d="M302.192 442.44C302.941 443.563 303.676 444.648 304.476 445.641C305.29 446.609 306.18 447.552 307.2 447.965C308.194 448.416 309.291 448.094 310.259 447.319C311.227 446.571 312.053 445.525 312.918 444.493C312.518 445.783 311.924 447.022 310.93 448.068C310.453 448.597 309.82 449.036 309.059 449.281C308.297 449.514 307.432 449.462 306.709 449.165C305.277 448.533 304.347 447.384 303.65 446.209C302.953 445.035 302.45 443.77 302.192 442.44Z" fill="url(#paint35_linear)"/>
</g>
<path opacity="0.17" d="M320.92 574.031C320.92 574.031 266.102 613.735 282.817 635.897C299.533 658.071 600.314 677.329 600.314 677.329L605.735 687.049C605.735 687.049 405.296 694.38 358.778 690.211C312.259 686.042 276.686 693.399 256.499 658.885L249.207 639.394C249.194 639.394 305.638 580.408 320.92 574.031Z" fill="url(#paint36_linear)"/>
<g opacity="0.23">
<path opacity="0.23" d="M605.735 677.329C606.638 679.498 607.477 681.692 608.355 683.873C609.207 686.055 610.02 688.262 610.859 690.456L610.278 690.172C613.738 688.959 617.223 687.862 620.695 686.726C624.167 685.577 627.652 684.467 631.15 683.409L630.84 684.325L627.277 679.136C626.077 677.42 624.941 675.638 623.779 673.896C622.631 672.141 621.443 670.411 620.32 668.63C619.184 666.861 618.036 665.106 616.939 663.312C618.242 664.964 619.481 666.655 620.759 668.333C622.037 669.998 623.25 671.715 624.502 673.405C625.729 675.109 627.006 676.774 628.207 678.504L631.847 683.641L632.311 684.299L631.524 684.557C628.052 685.706 624.567 686.816 621.069 687.875C617.571 688.946 614.086 690.069 610.562 691.063L610.111 691.192L609.981 690.779C609.259 688.546 608.51 686.326 607.8 684.08C607.103 681.821 606.38 679.588 605.735 677.329Z" fill="url(#paint37_linear)"/>
</g>
<path opacity="0.13" d="M387.807 596.761L429.51 567.384L428.542 587.197L443.321 570.688V583.079L446.226 576.781L453.402 614.044L434.183 608.985L430.827 597.148L417.984 604.712L387.807 596.761Z" fill="url(#paint38_linear)"/>
<path opacity="0.41" d="M316.119 431.676L307.548 434.438L309.188 429.998C309.188 429.998 314.789 432.05 316.119 431.676Z" fill="url(#paint39_linear)"/>
<path opacity="0.2" d="M343.74 524.699L325.334 536.329L326.483 525.964L338.229 519.239L343.74 524.699Z" fill="url(#paint40_linear)"/>
<path opacity="0.33" d="M1026.68 298.665L1042.16 308.048C1042.16 308.048 1040.59 302.24 1040.31 296.987C1040.31 296.987 1032.96 300.381 1026.68 298.665Z" fill="url(#paint41_linear)"/>
<path opacity="0.19" d="M1126.14 360.969C1126.14 360.969 1110.87 397.135 1094.33 408.571C1094.33 408.571 1103.92 424.409 1104.14 429.468" fill="url(#paint42_linear)"/>
<path d="M241.746 630.811C247.542 623.312 253.724 616.109 260.113 609.114C266.515 602.118 273.201 595.38 280.159 588.926C287.193 582.563 294.486 576.432 302.424 571.179C306.386 568.559 310.517 566.145 314.867 564.222C319.216 562.35 323.837 560.84 328.6 560.672C323.876 561.124 319.371 562.737 315.138 564.79C310.878 566.816 306.851 569.294 302.979 571.992C295.221 577.361 287.968 583.454 281.023 589.856C274.028 596.206 267.367 602.931 260.823 609.772C257.545 613.179 254.331 616.664 251.156 620.175C247.967 623.673 244.844 627.236 241.746 630.811Z" fill="white"/>
<path d="M299.92 623.041L336.809 629.043L373.686 635.174L447.387 647.655L521.037 660.421L557.849 666.913L594.622 673.535L557.732 667.533L520.869 661.402L447.168 648.92L373.518 636.155L336.706 629.662L299.92 623.041Z" fill="#279CAF"/>
<path d="M382.747 584.887C392.479 579.13 402.237 573.399 412.021 567.745L426.696 559.24L441.398 550.785L442.611 550.088L442.237 551.443L435.68 574.961L434.505 574.483L453.105 541.027L454.976 537.658L454.137 541.414L449.297 563.189V562.983L454.254 581.531L459.12 600.104L453.75 581.673L448.471 563.215L448.445 563.112L448.471 563.008L453.053 541.182L454.086 541.569L435.615 575.103L432.918 579.995L434.441 574.625L441.114 551.147L441.953 551.805L427.187 560.156L412.395 568.455C402.559 573.967 392.659 579.44 382.747 584.887Z" fill="#279CAF"/>
<path d="M358.765 571.605L452.885 521.782C452.885 521.782 454.705 522.26 451.427 528.197C448.174 534.148 358.765 571.605 358.765 571.605Z" fill="url(#paint43_linear)"/>
<path d="M459.146 533.05L488.148 615.18C488.148 615.18 470.336 537.155 463.431 528.197L459.146 533.05Z" fill="url(#paint44_linear)"/>
<path d="M333.337 588.875L316.119 607.152L463.186 626.694L586.271 657.555L463.676 621.75L333.337 588.875Z" fill="url(#paint45_linear)"/>
<path d="M603.889 658.73H609.827L616.939 685.332L603.889 658.73Z" fill="url(#paint46_linear)"/>
<path d="M296.254 403.86C299.236 403.783 302.178 404.002 305.121 404.286C308.064 404.609 310.994 404.996 313.885 405.68C310.904 405.757 307.961 405.538 305.018 405.254C302.088 404.931 299.158 404.544 296.254 403.86Z" fill="url(#paint47_linear)"/>
<path d="M342.166 376.058C341.223 378.639 340.152 381.169 339.068 383.673C337.996 386.19 336.822 388.668 335.66 391.146C334.46 393.612 333.272 396.064 331.982 398.491L330.045 402.118C329.361 403.305 328.716 404.518 327.993 405.68C328.458 404.376 328.987 403.124 329.478 401.847L331.091 398.065C332.162 395.548 333.337 393.07 334.499 390.591C335.699 388.126 336.886 385.674 338.177 383.247C339.455 380.82 340.746 378.407 342.166 376.058Z" fill="url(#paint48_linear)"/>
<path d="M316.829 366.751C318.868 369.191 320.572 371.824 322.185 374.509C323.773 377.219 325.27 379.969 326.432 382.924C324.392 380.485 322.689 377.852 321.075 375.167C319.488 372.469 317.99 369.707 316.829 366.751Z" fill="url(#paint49_linear)"/>
<path d="M441.695 473.186H472.698" stroke="url(#paint50_linear)" stroke-miterlimit="10"/>
<path d="M432.363 460.007C432.363 460.007 437.048 460.911 437.706 462.731C438.365 464.551 436.635 468.539 436.635 468.539" stroke="url(#paint51_linear)" stroke-miterlimit="10"/>
<path d="M437.849 481.627L441.695 484.686" stroke="url(#paint52_linear)" stroke-miterlimit="10"/>
<path d="M314.789 445.099C314.789 445.099 329.684 459.091 331.323 465.093" stroke="url(#paint53_linear)" stroke-miterlimit="10"/>
<path d="M327.606 412.172C328.071 412.869 328.368 413.67 328.587 414.483C328.806 415.296 328.884 416.161 328.858 417.013C328.832 417.865 328.677 418.717 328.355 419.517C328.071 420.317 327.593 421.04 327.064 421.672C327.374 420.898 327.722 420.162 327.89 419.362C328.084 418.587 328.213 417.787 328.226 416.987C328.277 415.386 328.032 413.773 327.606 412.172Z" fill="url(#paint54_linear)"/>
<path d="M315.034 432.45L310.813 443.292" stroke="url(#paint55_linear)" stroke-miterlimit="10"/>
<path d="M307.651 457.465C307.651 457.465 330.911 462.795 359.5 495.748" stroke="url(#paint56_linear)" stroke-miterlimit="10"/>
<path d="M315.641 463.041C315.641 463.041 345.199 482.053 348.955 490.662L339.146 493.812" fill="url(#paint57_linear)"/>
<path d="M354.041 548.139L415.648 490.353" stroke="url(#paint58_linear)" stroke-miterlimit="10"/>
<path d="M337.416 379.323C335.88 381.233 334.473 383.208 333.105 385.209C331.749 387.222 330.484 389.275 329.323 391.392C328.135 393.495 327.103 395.677 326.16 397.897C325.192 400.117 324.457 402.427 323.708 404.764C323.966 402.337 324.392 399.872 325.218 397.548C325.993 395.199 326.999 392.928 328.2 390.772C330.601 386.474 333.634 382.473 337.416 379.323Z" fill="url(#paint59_linear)"/>
<path d="M320.701 379.878C321.411 380.278 321.991 380.833 322.521 381.427C323.05 382.021 323.476 382.692 323.85 383.402C324.56 384.809 325.012 386.448 324.728 388.049C324.341 387.326 324.044 386.642 323.708 385.97C323.373 385.299 323.063 384.641 322.701 383.983C322.03 382.653 321.32 381.362 320.701 379.878Z" fill="url(#paint60_linear)"/>
<path d="M321.062 386.771C321.824 387.364 322.275 388.255 322.624 389.146C322.972 390.049 323.153 390.991 323.243 391.947C323.334 392.902 323.321 393.857 323.23 394.799L323.037 396.206C322.934 396.671 322.843 397.135 322.714 397.587L322.727 394.773C322.701 393.844 322.688 392.915 322.598 392.011C322.533 391.095 322.366 390.191 322.159 389.301C321.914 388.423 321.617 387.545 321.062 386.771Z" fill="url(#paint61_linear)"/>
<path d="M914.067 358C916.364 356.206 918.791 354.67 921.269 353.211C923.747 351.766 926.29 350.411 928.911 349.21L929.478 348.952L929.44 349.507C929.401 349.998 929.336 350.475 929.285 350.966C929.233 351.456 929.169 351.934 929.091 352.424C929.014 351.934 928.949 351.456 928.898 350.966C928.846 350.475 928.781 349.998 928.743 349.507L929.259 349.817C926.884 351.443 924.406 352.927 921.889 354.296C919.372 355.69 916.79 356.967 914.067 358Z" fill="url(#paint62_linear)"/>
<path d="M931.157 358C929.621 359.304 928.291 360.672 927.749 362.337C927.478 363.15 927.362 364.041 927.478 364.944C927.478 365.409 927.646 365.861 927.697 366.338C927.801 366.803 927.968 367.268 928.059 367.784C927.723 367.41 927.401 367.009 927.104 366.584C926.897 366.119 926.575 365.68 926.484 365.151C926.123 364.144 926.187 362.982 926.523 361.937C926.884 360.891 927.555 359.975 928.369 359.33C929.195 358.658 930.137 358.181 931.157 358Z" fill="url(#paint63_linear)"/>
<path d="M922.664 358.8L927.891 370.043L916.713 370.766L922.664 358.8Z" fill="white"/>
<path d="M859.069 406.674L845.039 413.308C844.135 413.734 843.051 413.347 842.625 412.443L835.99 398.413C835.565 397.51 835.952 396.425 836.855 395.999L850.886 389.365C851.789 388.939 852.873 389.326 853.299 390.23L859.934 404.26C860.36 405.164 859.972 406.248 859.069 406.674Z" fill="#F95F8F"/>
<path d="M882.199 395.741L868.168 402.376C867.265 402.802 866.181 402.414 865.755 401.511L859.12 387.481C858.694 386.577 859.082 385.493 859.985 385.067L874.015 378.433C874.919 378.007 876.003 378.394 876.429 379.297L883.063 393.328C883.489 394.231 883.102 395.315 882.199 395.741Z" fill="#56D0ED"/>
<path d="M905.832 384.564L891.802 391.198C890.898 391.624 889.814 391.237 889.388 390.333L882.754 376.303C882.328 375.399 882.715 374.315 883.618 373.889L897.649 367.255C898.552 366.829 899.636 367.216 900.062 368.12L906.697 382.15C907.123 383.053 906.736 384.138 905.832 384.564Z" fill="#4DCE62"/>
<path d="M914.248 386.874L842.315 420.872C841.411 421.298 840.327 420.911 839.901 420.007L828.168 395.173C827.742 394.27 828.13 393.186 829.033 392.76L900.966 358.762C901.87 358.336 902.954 358.723 903.38 359.626L915.113 384.46C915.539 385.364 915.151 386.448 914.248 386.874Z" stroke="#4DCE62" stroke-width="0.5" stroke-miterlimit="10"/>
<path d="M363.657 198.09C395.977 197.651 428.297 197.471 460.617 197.148L557.578 196.606C589.898 196.374 622.218 196.412 654.538 196.335L751.499 196.154L848.459 196.322C880.779 196.412 913.099 196.361 945.419 196.593L1042.38 197.135C1074.7 197.458 1107.02 197.651 1139.34 198.09C1107.02 198.529 1074.7 198.723 1042.38 199.045L945.419 199.587C913.099 199.82 880.779 199.768 848.459 199.859L751.499 200.026L654.538 199.846C622.218 199.755 589.898 199.807 557.578 199.575L460.617 199.032C428.31 198.723 395.977 198.529 363.657 198.09Z" fill="#666666"/>
<path d="M511.124 256.264L517.267 284.918V267.468L520.765 277.806L527.155 256.264H511.124Z" fill="url(#paint64_linear)"/>
<path d="M529.542 441.847L543.379 460.007L546.477 452.65L571.001 473.07L557.19 442.44L529.542 441.847Z" fill="url(#paint65_linear)"/>
</g>
<defs>
<linearGradient id="paint0_linear" x1="719.213" y1="613.154" x2="772.788" y2="613.154" gradientUnits="userSpaceOnUse">
<stop stop-color="#231F20" stop-opacity="0.1"/>
<stop offset="1" stop-color="#231F20"/>
</linearGradient>
<linearGradient id="paint1_linear" x1="1011.9" y1="285.874" x2="1026.27" y2="285.874" gradientUnits="userSpaceOnUse">
<stop stop-color="white"/>
<stop offset="1" stop-color="white" stop-opacity="0"/>
</linearGradient>
<linearGradient id="paint2_linear" x1="1015.23" y1="266.271" x2="1043.54" y2="266.271" gradientUnits="userSpaceOnUse">
<stop stop-color="white"/>
<stop offset="1" stop-color="white" stop-opacity="0"/>
</linearGradient>
<linearGradient id="paint3_linear" x1="1016.86" y1="263.73" x2="1039.21" y2="263.73" gradientUnits="userSpaceOnUse">
<stop stop-color="white"/>
<stop offset="1" stop-color="white" stop-opacity="0"/>
</linearGradient>
<linearGradient id="paint4_linear" x1="1018" y1="262.052" x2="1036.94" y2="262.052" gradientUnits="userSpaceOnUse">
<stop stop-color="white"/>
<stop offset="1" stop-color="white" stop-opacity="0"/>
</linearGradient>
<linearGradient id="paint5_linear" x1="1032.64" y1="277.099" x2="1036.01" y2="277.099" gradientUnits="userSpaceOnUse">
<stop stop-color="white"/>
<stop offset="1" stop-color="white" stop-opacity="0"/>
</linearGradient>
<linearGradient id="paint6_linear" x1="1038.17" y1="273.7" x2="1044.63" y2="273.7" gradientUnits="userSpaceOnUse">
<stop stop-color="white"/>
<stop offset="1" stop-color="white" stop-opacity="0"/>
</linearGradient>
<linearGradient id="paint7_linear" x1="1042.63" y1="253.103" x2="1058.35" y2="253.103" gradientUnits="userSpaceOnUse">
<stop stop-color="white"/>
<stop offset="1" stop-color="white" stop-opacity="0"/>
</linearGradient>
<linearGradient id="paint8_linear" x1="1045.77" y1="253.103" x2="1055.2" y2="253.103" gradientUnits="userSpaceOnUse">
<stop stop-color="white"/>
<stop offset="1" stop-color="white" stop-opacity="0"/>
</linearGradient>
<linearGradient id="paint9_linear" x1="1024.47" y1="326.165" x2="1053.18" y2="326.165" gradientUnits="userSpaceOnUse">
<stop stop-color="white"/>
<stop offset="1" stop-color="white" stop-opacity="0"/>
</linearGradient>
<linearGradient id="paint10_linear" x1="1053.82" y1="364.292" x2="1113.63" y2="364.292" gradientUnits="userSpaceOnUse">
<stop stop-color="white"/>
<stop offset="1" stop-color="white" stop-opacity="0"/>
</linearGradient>
<linearGradient id="paint11_linear" x1="1060.68" y1="335.759" x2="1103.72" y2="335.759" gradientUnits="userSpaceOnUse">
<stop stop-color="white"/>
<stop offset="1" stop-color="white" stop-opacity="0"/>
</linearGradient>
<linearGradient id="paint12_linear" x1="1030.99" y1="309.321" x2="1035.11" y2="309.321" gradientUnits="userSpaceOnUse">
<stop stop-color="white"/>
<stop offset="1" stop-color="white" stop-opacity="0"/>
</linearGradient>
<linearGradient id="paint13_linear" x1="970.354" y1="400.36" x2="1012.63" y2="400.36" gradientUnits="userSpaceOnUse">
<stop stop-color="white"/>
<stop offset="1" stop-color="white" stop-opacity="0"/>
</linearGradient>
<linearGradient id="paint14_linear" x1="1028.75" y1="485.202" x2="1073.01" y2="485.202" gradientUnits="userSpaceOnUse">
<stop stop-color="white"/>
<stop offset="1" stop-color="white" stop-opacity="0"/>
</linearGradient>
<linearGradient id="paint15_linear" x1="957.858" y1="371.361" x2="972.008" y2="371.361" gradientUnits="userSpaceOnUse">
<stop stop-color="white"/>
<stop offset="1" stop-color="white" stop-opacity="0"/>
</linearGradient>
<linearGradient id="paint16_linear" x1="963.319" y1="370.566" x2="975.856" y2="370.566" gradientUnits="userSpaceOnUse">
<stop stop-color="white"/>
<stop offset="1" stop-color="white" stop-opacity="0"/>
</linearGradient>
<linearGradient id="paint17_linear" x1="1071.33" y1="364.12" x2="1120.5" y2="364.12" gradientUnits="userSpaceOnUse">
<stop stop-color="white"/>
<stop offset="1" stop-color="white" stop-opacity="0"/>
</linearGradient>
<linearGradient id="paint18_linear" x1="1014.97" y1="418.734" x2="1017.02" y2="418.734" gradientUnits="userSpaceOnUse">
<stop stop-color="white"/>
<stop offset="1" stop-color="white" stop-opacity="0"/>
</linearGradient>
<linearGradient id="paint19_linear" x1="-nan" y1="-nan" x2="-nan" y2="-nan" gradientUnits="userSpaceOnUse">
<stop stop-color="white"/>
<stop offset="1" stop-color="white" stop-opacity="0"/>
</linearGradient>
<linearGradient id="paint20_linear" x1="1019.51" y1="419.848" x2="1022.93" y2="419.848" gradientUnits="userSpaceOnUse">
<stop stop-color="white"/>
<stop offset="1" stop-color="white" stop-opacity="0"/>
</linearGradient>
<linearGradient id="paint21_linear" x1="1015.53" y1="444.983" x2="1026.29" y2="444.983" gradientUnits="userSpaceOnUse">
<stop stop-color="white"/>
<stop offset="1" stop-color="white" stop-opacity="0"/>
</linearGradient>
<linearGradient id="paint22_linear" x1="1003.93" y1="443.44" x2="1014.34" y2="443.44" gradientUnits="userSpaceOnUse">
<stop stop-color="white"/>
<stop offset="1" stop-color="white" stop-opacity="0"/>
</linearGradient>
<linearGradient id="paint23_linear" x1="1004.08" y1="447.468" x2="1017.95" y2="447.468" gradientUnits="userSpaceOnUse">
<stop stop-color="white"/>
<stop offset="1" stop-color="white" stop-opacity="0"/>
</linearGradient>
<linearGradient id="paint24_linear" x1="1005.46" y1="452.828" x2="1022.69" y2="452.828" gradientUnits="userSpaceOnUse">
<stop stop-color="white"/>
<stop offset="1" stop-color="white" stop-opacity="0"/>
</linearGradient>
<linearGradient id="paint25_linear" x1="1077.21" y1="578.118" x2="1080.49" y2="578.118" gradientUnits="userSpaceOnUse">
<stop stop-color="#231F20"/>
<stop offset="1" stop-color="#231F20" stop-opacity="0"/>
</linearGradient>
<linearGradient id="paint26_linear" x1="1071.62" y1="353.481" x2="1107.9" y2="353.481" gradientUnits="userSpaceOnUse">
<stop stop-color="#231F20" stop-opacity="0.1"/>
<stop offset="1" stop-color="#231F20"/>
</linearGradient>
<linearGradient id="paint27_linear" x1="1044.51" y1="414.2" x2="1076.81" y2="414.2" gradientUnits="userSpaceOnUse">
<stop stop-color="#231F20" stop-opacity="0.1"/>
<stop offset="1" stop-color="#231F20"/>
</linearGradient>
<linearGradient id="paint28_linear" x1="1078.48" y1="635.39" x2="1108.7" y2="635.39" gradientUnits="userSpaceOnUse">
<stop stop-color="#231F20" stop-opacity="0.1"/>
<stop offset="1" stop-color="#231F20"/>
</linearGradient>
<linearGradient id="paint29_linear" x1="1042.28" y1="634.911" x2="1068.39" y2="634.911" gradientUnits="userSpaceOnUse">
<stop stop-color="#231F20" stop-opacity="0.1"/>
<stop offset="1" stop-color="#231F20"/>
</linearGradient>
<linearGradient id="paint30_linear" x1="1030.51" y1="552.098" x2="1113.03" y2="552.098" gradientUnits="userSpaceOnUse">
<stop stop-color="#231F20" stop-opacity="0.1"/>
<stop offset="1" stop-color="#231F20"/>
</linearGradient>
<linearGradient id="paint31_linear" x1="275.81" y1="519.245" x2="343.735" y2="519.245" gradientUnits="userSpaceOnUse">
<stop stop-color="#00A651"/>
<stop offset="0.0627" stop-color="#00834C"/>
<stop offset="0.1376" stop-color="#006046"/>
<stop offset="0.2203" stop-color="#004242"/>
<stop offset="0.311" stop-color="#002A3E"/>
<stop offset="0.413" stop-color="#00173B"/>
<stop offset="0.5328" stop-color="#000A39"/>
<stop offset="0.6874" stop-color="#000238"/>
<stop offset="1" stop-color="#000038"/>
</linearGradient>
<linearGradient id="paint32_linear" x1="240.199" y1="540.864" x2="275.809" y2="540.864" gradientUnits="userSpaceOnUse">
<stop stop-color="#00A651"/>
<stop offset="0.0627" stop-color="#00834C"/>
<stop offset="0.1376" stop-color="#006046"/>
<stop offset="0.2203" stop-color="#004242"/>
<stop offset="0.311" stop-color="#002A3E"/>
<stop offset="0.413" stop-color="#00173B"/>
<stop offset="0.5328" stop-color="#000A39"/>
<stop offset="0.6874" stop-color="#000238"/>
<stop offset="1" stop-color="#000038"/>
</linearGradient>
<linearGradient id="paint33_linear" x1="241.331" y1="559.826" x2="278.497" y2="559.826" gradientUnits="userSpaceOnUse">
<stop stop-color="#00A651"/>
<stop offset="0.0627" stop-color="#00834C"/>
<stop offset="0.1376" stop-color="#006046"/>
<stop offset="0.2203" stop-color="#004242"/>
<stop offset="0.311" stop-color="#002A3E"/>
<stop offset="0.413" stop-color="#00173B"/>
<stop offset="0.5328" stop-color="#000A39"/>
<stop offset="0.6874" stop-color="#000238"/>
<stop offset="1" stop-color="#000038"/>
</linearGradient>
<linearGradient id="paint34_linear" x1="293.056" y1="495.803" x2="307.646" y2="495.803" gradientUnits="userSpaceOnUse">
<stop stop-color="#00A651"/>
<stop offset="0.0627" stop-color="#00834C"/>
<stop offset="0.1376" stop-color="#006046"/>
<stop offset="0.2203" stop-color="#004242"/>
<stop offset="0.311" stop-color="#002A3E"/>
<stop offset="0.413" stop-color="#00173B"/>
<stop offset="0.5328" stop-color="#000A39"/>
<stop offset="0.6874" stop-color="#000238"/>
<stop offset="1" stop-color="#000038"/>
</linearGradient>
<linearGradient id="paint35_linear" x1="301.593" y1="445.937" x2="313.494" y2="445.937" gradientUnits="userSpaceOnUse">
<stop stop-color="#00A651"/>
<stop offset="0.0627" stop-color="#00834C"/>
<stop offset="0.1376" stop-color="#006046"/>
<stop offset="0.2203" stop-color="#004242"/>
<stop offset="0.311" stop-color="#002A3E"/>
<stop offset="0.413" stop-color="#00173B"/>
<stop offset="0.5328" stop-color="#000A39"/>
<stop offset="0.6874" stop-color="#000238"/>
<stop offset="1" stop-color="#000038"/>
</linearGradient>
<linearGradient id="paint36_linear" x1="249.192" y1="632.765" x2="605.73" y2="632.765" gradientUnits="userSpaceOnUse">
<stop stop-color="#000038"/>
<stop offset="0.6466" stop-color="#006E49"/>
<stop offset="1" stop-color="#00A651"/>
</linearGradient>
<linearGradient id="paint37_linear" x1="605.121" y1="677.245" x2="632.363" y2="677.245" gradientUnits="userSpaceOnUse">
<stop stop-color="#000038"/>
<stop offset="0.6466" stop-color="#006E49"/>
<stop offset="1" stop-color="#00A651"/>
</linearGradient>
<linearGradient id="paint38_linear" x1="387.811" y1="590.712" x2="453.396" y2="590.712" gradientUnits="userSpaceOnUse">
<stop stop-color="#000038"/>
<stop offset="0.6466" stop-color="#006E49"/>
<stop offset="1" stop-color="#00A651"/>
</linearGradient>
<linearGradient id="paint39_linear" x1="307.559" y1="432.218" x2="316.125" y2="432.218" gradientUnits="userSpaceOnUse">
<stop stop-color="#231F20" stop-opacity="0.1"/>
<stop offset="1" stop-color="#231F20"/>
</linearGradient>
<linearGradient id="paint40_linear" x1="325.332" y1="527.785" x2="343.735" y2="527.785" gradientUnits="userSpaceOnUse">
<stop stop-color="#231F20" stop-opacity="0.1"/>
<stop offset="1" stop-color="#231F20"/>
</linearGradient>
<linearGradient id="paint41_linear" x1="1026.69" y1="302.522" x2="1042.16" y2="302.522" gradientUnits="userSpaceOnUse">
<stop stop-color="#231F20" stop-opacity="0.1"/>
<stop offset="1" stop-color="#231F20"/>
</linearGradient>
<linearGradient id="paint42_linear" x1="1094.33" y1="395.226" x2="1126.13" y2="395.226" gradientUnits="userSpaceOnUse">
<stop stop-color="#231F20" stop-opacity="0.1"/>
<stop offset="1" stop-color="#231F20"/>
</linearGradient>
<linearGradient id="paint43_linear" x1="358.767" y1="546.697" x2="453.396" y2="546.697" gradientUnits="userSpaceOnUse">
<stop stop-color="white" stop-opacity="0"/>
<stop offset="1" stop-color="white"/>
</linearGradient>
<linearGradient id="paint44_linear" x1="459.144" y1="571.695" x2="488.145" y2="571.695" gradientUnits="userSpaceOnUse">
<stop stop-color="white" stop-opacity="0"/>
<stop offset="1" stop-color="white"/>
</linearGradient>
<linearGradient id="paint45_linear" x1="316.124" y1="623.216" x2="586.268" y2="623.216" gradientUnits="userSpaceOnUse">
<stop stop-color="white" stop-opacity="0"/>
<stop offset="1" stop-color="white"/>
</linearGradient>
<linearGradient id="paint46_linear" x1="603.892" y1="672.029" x2="616.935" y2="672.029" gradientUnits="userSpaceOnUse">
<stop stop-color="white" stop-opacity="0"/>
<stop offset="1" stop-color="white"/>
</linearGradient>
<linearGradient id="paint47_linear" x1="296.209" y1="404.766" x2="313.944" y2="404.766" gradientUnits="userSpaceOnUse">
<stop stop-color="white" stop-opacity="0"/>
<stop offset="1" stop-color="white"/>
</linearGradient>
<linearGradient id="paint48_linear" x1="327.415" y1="390.865" x2="342.753" y2="390.865" gradientUnits="userSpaceOnUse">
<stop stop-color="white" stop-opacity="0"/>
<stop offset="1" stop-color="white"/>
</linearGradient>
<linearGradient id="paint49_linear" x1="316.747" y1="375.132" x2="326.503" y2="374.552" gradientUnits="userSpaceOnUse">
<stop stop-color="white" stop-opacity="0"/>
<stop offset="1" stop-color="white"/>
</linearGradient>
<linearGradient id="paint50_linear" x1="-nan" y1="-nan" x2="-nan" y2="-nan" gradientUnits="userSpaceOnUse">
<stop stop-color="white" stop-opacity="0"/>
<stop offset="1" stop-color="white"/>
</linearGradient>
<linearGradient id="paint51_linear" x1="432.237" y1="464.088" x2="438.494" y2="464.088" gradientUnits="userSpaceOnUse">
<stop stop-color="white" stop-opacity="0"/>
<stop offset="1" stop-color="white"/>
</linearGradient>
<linearGradient id="paint52_linear" x1="437.447" y1="483.158" x2="442.097" y2="483.158" gradientUnits="userSpaceOnUse">
<stop stop-color="white" stop-opacity="0"/>
<stop offset="1" stop-color="white"/>
</linearGradient>
<linearGradient id="paint53_linear" x1="314.351" y1="454.949" x2="331.951" y2="454.949" gradientUnits="userSpaceOnUse">
<stop stop-color="white" stop-opacity="0"/>
<stop offset="1" stop-color="white"/>
</linearGradient>
<linearGradient id="paint54_linear" x1="326.79" y1="416.918" x2="328.871" y2="416.918" gradientUnits="userSpaceOnUse">
<stop stop-color="white" stop-opacity="0"/>
<stop offset="1" stop-color="white"/>
</linearGradient>
<linearGradient id="paint55_linear" x1="310.21" y1="437.868" x2="315.637" y2="437.868" gradientUnits="userSpaceOnUse">
<stop stop-color="white" stop-opacity="0"/>
<stop offset="1" stop-color="white"/>
</linearGradient>
<linearGradient id="paint56_linear" x1="307.502" y1="476.499" x2="359.981" y2="476.499" gradientUnits="userSpaceOnUse">
<stop stop-color="white" stop-opacity="0"/>
<stop offset="1" stop-color="white"/>
</linearGradient>
<linearGradient id="paint57_linear" x1="315.641" y1="478.419" x2="348.955" y2="478.419" gradientUnits="userSpaceOnUse">
<stop stop-color="white" stop-opacity="0"/>
<stop offset="1" stop-color="white"/>
</linearGradient>
<linearGradient id="paint58_linear" x1="353.601" y1="519.244" x2="416.084" y2="519.244" gradientUnits="userSpaceOnUse">
<stop stop-color="white" stop-opacity="0"/>
<stop offset="1" stop-color="white"/>
</linearGradient>
<linearGradient id="paint59_linear" x1="323.062" y1="392.046" x2="337.864" y2="392.046" gradientUnits="userSpaceOnUse">
<stop stop-color="white" stop-opacity="0"/>
<stop offset="1" stop-color="white"/>
</linearGradient>
<linearGradient id="paint60_linear" x1="320.222" y1="383.96" x2="325.356" y2="383.96" gradientUnits="userSpaceOnUse">
<stop stop-color="white" stop-opacity="0"/>
<stop offset="1" stop-color="white"/>
</linearGradient>
<linearGradient id="paint61_linear" x1="320.851" y1="392.183" x2="323.323" y2="392.183" gradientUnits="userSpaceOnUse">
<stop stop-color="white" stop-opacity="0"/>
<stop offset="1" stop-color="white"/>
</linearGradient>
<linearGradient id="paint62_linear" x1="913.756" y1="353.485" x2="929.74" y2="353.485" gradientUnits="userSpaceOnUse">
<stop stop-color="white" stop-opacity="0"/>
<stop offset="1" stop-color="white"/>
</linearGradient>
<linearGradient id="paint63_linear" x1="926.197" y1="362.897" x2="931.404" y2="362.897" gradientUnits="userSpaceOnUse">
<stop stop-color="white" stop-opacity="0"/>
<stop offset="1" stop-color="white"/>
</linearGradient>
<linearGradient id="paint64_linear" x1="511.121" y1="270.589" x2="527.152" y2="270.589" gradientUnits="userSpaceOnUse">
<stop stop-color="white"/>
<stop offset="1" stop-color="white" stop-opacity="0"/>
</linearGradient>
<linearGradient id="paint65_linear" x1="529.537" y1="457.461" x2="571.004" y2="457.461" gradientUnits="userSpaceOnUse">
<stop stop-color="white"/>
<stop offset="1" stop-color="white" stop-opacity="0"/>
</linearGradient>
<clipPath id="clip0">
<rect x="-1" width="1440" height="730" fill="white"/>
</clipPath>
</defs>
</svg>
