<svg width="960" height="540" viewBox="0 0 960 540" fill="none" xmlns="http://www.w3.org/2000/svg">
<g clip-path="url(#clip0)">
<rect width="960" height="539.478" fill="#E8F9FD"/>
<g clip-path="url(#clip1)">
<path d="M484.648 443.345C598.442 443.345 690.69 351.097 690.69 237.304C690.69 123.51 598.442 31.2622 484.648 31.2622C370.855 31.2622 278.607 123.51 278.607 237.304C278.607 351.097 370.855 443.345 484.648 443.345Z" fill="#EDEDED"/>
<path d="M707.794 319.22H280.307C276.206 319.22 273.006 315.92 273.006 311.919V61.6684C273.006 57.5676 276.307 54.3669 280.307 54.3669H707.894C711.994 54.3669 715.195 57.6676 715.195 61.6684V311.819C715.195 315.92 711.894 319.22 707.794 319.22Z" fill="white" stroke="#DBDBDB" stroke-miterlimit="10"/>
<path d="M690.99 303.417H570.966C567.165 303.417 564.064 300.316 564.064 296.516V78.4717C564.064 74.6709 567.165 71.5703 570.966 71.5703H690.99C694.791 71.5703 697.891 74.6709 697.891 78.4717V296.516C697.891 300.316 694.791 303.417 690.99 303.417Z" fill="#EDEDED"/>
<path d="M416.935 303.417H296.811C293.01 303.417 289.909 300.316 289.909 296.516V78.4717C289.909 74.6709 293.01 71.5703 296.811 71.5703H416.935C420.736 71.5703 423.836 74.6709 423.836 78.4717V296.516C423.836 300.316 420.736 303.417 416.935 303.417Z" fill="#EDEDED"/>
<path d="M553.962 302.417H433.838C430.037 302.417 426.937 299.316 426.937 295.515V78.4717C426.937 74.6709 430.037 71.5703 433.838 71.5703H553.962C557.763 71.5703 560.864 74.6709 560.864 78.4717V295.515C560.864 299.316 557.763 302.417 553.962 302.417Z" fill="#EDEDED"/>
<path opacity="0.21" d="M490.75 124.781L458.043 157.488L488.449 178.492L521.156 146.385" fill="url(#paint0_linear)"/>
<path opacity="0.21" d="M471.545 195.395L438.839 228.002L469.245 249.106L501.952 216.9" fill="url(#paint1_linear)"/>
<path d="M400.932 108.478H363.724V134.983H400.932V108.478Z" fill="#F95F8F"/>
<path d="M674.587 213.599C674.587 213.599 690.49 176.892 682.888 167.69C676.187 159.688 647.881 182.293 643.38 186.193" fill="#D8F2B6"/>
<path d="M683.577 225.806C684.734 224.619 676.629 214.842 665.474 203.969C654.319 193.096 644.338 185.244 643.181 186.43C642.025 187.617 650.13 197.394 661.285 208.267C672.44 219.14 682.421 226.992 683.577 225.806Z" fill="#231F20"/>
<path d="M655.183 195.695L613.474 227.202L558.964 179.992L553.462 185.893C553.462 185.893 596.171 242.105 613.474 250.406C613.474 250.406 636.579 234.703 665.185 205.197C665.185 205.197 659.684 197.196 655.183 195.695Z" fill="#D8A166"/>
<path d="M600.472 166.089L602.772 164.089L618.075 160.888L632.278 193.395L630.578 196.596L600.472 166.089Z" fill="#D63871"/>
<path d="M715.795 163.189C715.795 163.189 680.888 146.785 676.687 168.19C672.486 189.594 656.083 299.116 656.083 299.116C656.083 299.116 721.996 284.013 754.503 299.116L715.795 163.189Z" fill="#B9D390"/>
<path d="M690.29 151.487C696.753 151.487 701.992 146.247 701.992 139.784C701.992 133.321 696.753 128.082 690.29 128.082C683.827 128.082 678.587 133.321 678.587 139.784C678.587 146.247 683.827 151.487 690.29 151.487Z" fill="#EAB575"/>
<path d="M694.09 166.689C698.896 166.689 702.792 164.495 702.792 161.788C702.792 159.082 698.896 156.887 694.09 156.887C689.285 156.887 685.389 159.082 685.389 161.788C685.389 164.495 689.285 166.689 694.09 166.689Z" fill="#EAB575"/>
<path d="M738.9 223.401C738.9 223.401 732.698 169.49 717.495 163.889C702.292 158.288 683.588 212.399 683.588 212.399" fill="#D8F2B6"/>
<path opacity="0.4" d="M715.795 163.189L723.697 201.796C724.097 203.797 722.897 205.697 720.996 206.297C718.396 207.098 714.495 207.698 710.394 206.497L736.899 210.298C736.999 210.298 732.198 168.39 715.795 163.189Z" fill="url(#paint2_linear)"/>
<path d="M738.941 223.405C739.264 221.78 727.141 218.001 711.862 214.965C696.584 211.929 683.936 210.785 683.613 212.411C683.29 214.036 695.414 217.815 710.692 220.851C725.971 223.887 738.618 225.031 738.941 223.405Z" fill="#231F20"/>
<path d="M705.293 305.818C732.471 305.818 754.503 302.683 754.503 298.816C754.503 294.949 732.471 291.815 705.293 291.815C678.115 291.815 656.083 294.949 656.083 298.816C656.083 302.683 678.115 305.818 705.293 305.818Z" fill="black"/>
<path d="M669.186 294.115L654.583 369.23C652.182 381.533 653.283 394.335 657.783 406.138L684.089 474.952L699.092 477.552L686.689 388.434L715.695 299.116C715.795 299.016 706.893 288.514 669.186 294.115Z" fill="#2B9EAA"/>
<path d="M628.577 477.952L677.987 456.448L691.69 470.051L694.491 462.349L701.492 483.153L633.378 487.554C633.378 487.654 630.778 480.653 628.577 477.952Z" fill="#F95F8F"/>
<path d="M701.492 483.253L709.494 492.855L613.674 493.756C611.874 493.756 610.274 492.555 609.773 490.755L609.273 488.655C609.273 488.655 606.173 484.754 618.175 477.752C630.278 470.751 633.278 487.554 633.278 487.554L701.492 483.253Z" fill="white" stroke="#231F20" stroke-miterlimit="10"/>
<path d="M633.078 490.255C638.579 489.855 644.18 489.555 649.682 489.255C655.183 488.955 660.784 488.755 666.285 488.454C671.786 488.254 677.387 488.054 682.888 487.954L691.19 487.754C693.99 487.754 696.691 487.654 699.492 487.654C696.691 487.854 693.99 488.054 691.19 488.254L682.888 488.754C677.387 489.055 671.786 489.255 666.285 489.555C660.784 489.755 655.183 489.955 649.682 490.055C644.08 490.155 638.579 490.255 633.078 490.255Z" fill="#231F20"/>
<path d="M633.678 478.953C637.479 477.052 641.38 475.352 645.281 473.651C649.181 471.951 653.082 470.251 656.983 468.55C660.884 466.95 664.885 465.25 668.785 463.649L674.687 461.249C676.687 460.449 678.687 459.749 680.688 458.948C678.787 459.849 676.787 460.749 674.887 461.649L669.085 464.25C665.185 465.95 661.284 467.65 657.383 469.351C653.482 470.951 649.481 472.651 645.581 474.252C641.68 475.852 637.679 477.452 633.678 478.953Z" fill="white"/>
<path d="M646.481 477.952L645.08 478.652C644.08 479.152 642.78 478.752 642.28 477.652L639.779 472.451C639.279 471.451 639.679 470.151 640.779 469.651L642.18 468.95C643.18 468.45 644.48 468.85 644.98 469.951L647.481 475.152C647.981 476.252 647.481 477.452 646.481 477.952Z" fill="white"/>
<path d="M646.481 477.952C645.98 478.252 645.48 478.452 644.88 478.752C644.38 478.952 643.68 478.952 643.18 478.752C642.58 478.552 642.18 477.952 641.98 477.452L641.18 475.952L639.479 472.951C639.179 472.451 638.979 471.651 639.179 470.951C639.379 470.251 639.879 469.651 640.479 469.35C640.98 469.05 641.48 468.85 642.08 468.55C642.78 468.25 643.48 468.35 644.18 468.65C644.48 468.85 644.78 469.05 644.98 469.35C645.18 469.651 645.28 469.951 645.38 470.151L646.08 471.751L647.481 474.952C647.981 476.052 647.581 477.552 646.481 477.952ZM646.481 477.952C646.981 477.652 647.381 477.252 647.581 476.652C647.781 476.052 647.681 475.452 647.381 475.052L645.68 472.051L644.88 470.551C644.78 470.251 644.58 470.051 644.48 469.951C644.28 469.751 644.08 469.651 643.88 469.551C643.48 469.35 642.98 469.35 642.58 469.551L641.079 470.351C640.279 470.751 639.879 471.751 640.379 472.651L641.78 475.852L642.48 477.452C642.68 477.952 642.98 478.452 643.48 478.752C643.98 479.053 644.58 479.053 645.18 478.852C645.38 478.452 645.98 478.252 646.481 477.952Z" fill="black"/>
<path d="M654.182 474.251L652.782 474.952C651.782 475.452 650.482 475.052 649.981 473.951L647.481 468.75C646.981 467.75 647.381 466.45 648.481 465.95L649.881 465.249C650.882 464.749 652.182 465.149 652.682 466.25L655.183 471.451C655.683 472.451 655.183 473.751 654.182 474.251Z" fill="white"/>
<path d="M654.182 474.252C653.682 474.552 653.182 474.752 652.582 475.052C652.082 475.252 651.382 475.252 650.882 475.052C650.281 474.852 649.881 474.252 649.681 473.751L648.881 472.251L647.181 469.251C646.881 468.75 646.681 467.95 646.881 467.25C647.081 466.55 647.581 465.95 648.181 465.65C648.681 465.35 649.181 465.15 649.781 464.85C650.481 464.55 651.182 464.65 651.882 464.95C652.182 465.15 652.482 465.35 652.682 465.65C652.882 465.95 652.982 466.25 653.082 466.45L653.782 468.05L655.182 471.251C655.783 472.251 655.282 473.751 654.182 474.252ZM654.182 474.252C654.682 473.951 655.082 473.551 655.282 472.951C655.482 472.351 655.382 471.751 655.082 471.351L653.382 468.35L652.582 466.85C652.482 466.55 652.282 466.35 652.182 466.25C651.982 466.05 651.782 465.95 651.582 465.85C651.182 465.65 650.682 465.65 650.281 465.85L648.781 466.65C647.981 467.05 647.581 468.05 648.081 468.95L649.481 472.151L650.181 473.751C650.381 474.252 650.682 474.752 651.182 475.052C651.682 475.352 652.282 475.352 652.882 475.152C653.182 474.752 653.682 474.452 654.182 474.252Z" fill="black"/>
<path d="M662.584 471.151L661.184 471.851C660.184 472.351 658.883 471.951 658.383 470.851L655.883 465.65C655.383 464.65 655.783 463.349 656.883 462.849L658.283 462.149C659.283 461.649 660.584 462.049 661.084 463.149L663.584 468.35C664.084 469.351 663.684 470.651 662.584 471.151Z" fill="white"/>
<path d="M662.584 471.151C662.084 471.451 661.584 471.651 660.984 471.951C660.484 472.151 659.784 472.151 659.283 471.951C658.683 471.751 658.283 471.151 658.083 470.651L657.283 469.151L655.583 466.15C655.283 465.65 655.083 464.85 655.283 464.15C655.483 463.449 655.983 462.849 656.583 462.549C657.083 462.249 657.583 462.049 658.183 461.749C658.883 461.449 659.583 461.549 660.284 461.849C660.584 462.049 660.884 462.249 661.084 462.549C661.284 462.849 661.384 463.149 661.484 463.349L662.184 464.95L663.584 468.15C664.184 469.151 663.684 470.651 662.584 471.151ZM662.584 471.151C663.084 470.851 663.484 470.451 663.684 469.851C663.884 469.251 663.784 468.65 663.484 468.25L661.784 465.25L660.984 463.749C660.884 463.449 660.684 463.249 660.584 463.149C660.384 462.949 660.184 462.849 659.984 462.749C659.583 462.549 659.083 462.549 658.683 462.749L657.183 463.549C656.383 463.95 655.983 464.95 656.483 465.85L657.883 469.051L658.583 470.651C658.783 471.151 659.083 471.651 659.583 471.951C660.084 472.251 660.684 472.251 661.284 472.051C661.584 471.651 662.084 471.351 662.584 471.151Z" fill="black"/>
<path d="M671.086 467.05L669.686 467.75C668.686 468.25 667.385 467.85 666.885 466.75L664.385 461.549C663.885 460.549 664.285 459.249 665.385 458.748L666.785 458.048C667.785 457.548 669.086 457.948 669.586 459.049L672.086 464.25C672.586 465.25 672.086 466.55 671.086 467.05Z" fill="white"/>
<path d="M671.086 467.05C670.586 467.35 670.086 467.55 669.486 467.85C668.986 468.05 668.286 468.05 667.785 467.85C667.185 467.65 666.785 467.05 666.585 466.55L665.785 465.05L664.085 462.049C663.785 461.549 663.585 460.749 663.785 460.049C663.985 459.349 664.485 458.748 665.085 458.448C665.585 458.148 666.085 457.948 666.685 457.648C667.385 457.348 668.085 457.448 668.786 457.748C669.086 457.948 669.386 458.148 669.586 458.448C669.786 458.748 669.886 459.048 669.986 459.249L670.686 460.849L672.086 464.05C672.586 465.05 672.186 466.55 671.086 467.05ZM671.086 467.05C671.586 466.75 671.986 466.35 672.186 465.75C672.386 465.15 672.286 464.55 671.986 464.15L670.286 461.149L669.486 459.649C669.386 459.349 669.186 459.149 669.086 459.048C668.886 458.848 668.686 458.748 668.486 458.648C668.085 458.448 667.585 458.448 667.185 458.648L665.685 459.449C664.885 459.849 664.485 460.849 664.985 461.749L666.385 464.95L667.085 466.55C667.285 467.05 667.585 467.55 668.085 467.85C668.586 468.15 669.186 468.15 669.786 467.95C669.986 467.55 670.586 467.25 671.086 467.05Z" fill="black"/>
<path d="M633.378 487.654C633.678 488.655 633.678 489.655 633.678 490.655C633.578 491.655 633.478 492.655 632.978 493.656C632.678 492.655 632.678 491.655 632.678 490.655C632.778 489.555 632.878 488.554 633.378 487.654Z" fill="black"/>
<path d="M611.474 488.755C614.574 488.254 617.775 488.054 620.876 487.954C623.976 487.854 627.177 487.854 630.277 488.154C627.177 488.655 623.976 488.855 620.876 488.955C617.775 489.055 614.674 489.055 611.474 488.755Z" fill="#231F20"/>
<path d="M677.487 292.715L676.087 381.633C675.987 388.834 677.787 395.936 681.488 402.137L723.697 474.552H738.9L711.294 386.734L724.597 293.715C724.597 293.715 713.595 288.714 677.487 292.715Z" fill="#56D0ED"/>
<path d="M643.18 484.954L712.694 454.248L734.599 468.25L739.9 466.55L746.101 491.755L650.182 498.456C649.982 498.456 646.281 488.754 643.18 484.954Z" fill="#F95F8F"/>
<path d="M745.901 491.755L757.303 505.258L622.376 507.458C619.775 507.458 617.475 505.758 616.875 503.257L616.175 500.257C616.175 500.257 611.774 494.756 628.677 484.854C645.581 474.952 650.081 498.556 650.081 498.556L745.901 491.755Z" fill="white" stroke="#231F20" stroke-miterlimit="10"/>
<path d="M649.582 502.257C657.383 501.657 665.185 501.257 672.986 500.857L696.391 499.657L719.796 498.757L731.498 498.356L743.2 498.056L731.498 498.857L719.796 499.557L696.391 500.757L672.986 501.657C665.185 501.757 657.383 502.057 649.582 502.257Z" fill="#231F20"/>
<path d="M650.381 486.254C655.782 483.654 661.284 481.253 666.785 478.753C672.286 476.252 677.787 473.952 683.288 471.551C688.789 469.251 694.39 466.85 699.891 464.55L708.193 461.149C710.994 460.049 713.794 458.849 716.595 457.848C713.894 459.149 711.094 460.349 708.393 461.649L700.191 465.35C694.69 467.75 689.189 470.151 683.688 472.551C678.187 474.852 672.586 477.252 667.085 479.553C661.584 481.753 655.982 484.054 650.381 486.254Z" fill="black"/>
<path d="M668.885 484.553L665.885 486.054C664.685 486.654 663.184 486.154 662.684 484.954L658.583 476.752C657.983 475.552 658.483 474.051 659.684 473.551L662.684 472.051C663.884 471.451 665.385 471.951 665.885 473.151L669.986 481.353C670.586 482.553 670.086 483.953 668.885 484.553Z" fill="white"/>
<path d="M668.885 484.554L666.685 485.654C666.285 485.854 665.985 486.054 665.585 486.154C665.185 486.254 664.685 486.254 664.285 486.154C663.384 485.954 662.684 485.254 662.384 484.453L661.184 482.253L658.783 477.852L658.183 476.752C657.983 476.352 657.883 475.752 657.883 475.252C657.983 474.251 658.583 473.351 659.484 472.851L661.784 471.751C662.184 471.551 662.484 471.351 662.984 471.251C663.484 471.151 663.984 471.151 664.485 471.251C664.985 471.351 665.385 471.651 665.685 471.951C666.085 472.251 666.285 472.751 666.385 473.151L667.385 475.452L669.486 480.053C669.786 480.853 670.286 481.553 670.186 482.453C670.186 483.453 669.586 484.253 668.885 484.554ZM668.885 484.554C669.586 484.153 670.186 483.353 670.186 482.553C670.286 481.653 669.686 480.953 669.386 480.253L666.985 475.852L665.785 473.651C665.585 473.251 665.385 472.951 665.185 472.751C664.885 472.551 664.585 472.351 664.285 472.251C663.984 472.151 663.584 472.151 663.284 472.251C662.984 472.351 662.584 472.551 662.284 472.751L660.084 473.851C659.484 474.151 659.084 474.752 658.983 475.452C658.983 475.752 658.984 476.152 659.184 476.452L659.684 477.552L661.784 482.153L662.784 484.453C663.084 485.254 663.584 485.854 664.385 486.154C664.785 486.254 665.185 486.254 665.585 486.154C665.985 486.054 666.385 485.854 666.685 485.654L668.885 484.554Z" fill="black"/>
<path d="M679.687 479.252L676.687 480.753C675.486 481.353 673.986 480.853 673.486 479.653L669.385 471.451C668.785 470.251 669.285 468.75 670.485 468.25L673.486 466.75C674.686 466.15 676.186 466.65 676.687 467.85L680.787 476.052C681.388 477.152 680.887 478.652 679.687 479.252Z" fill="white"/>
<path d="M679.687 479.252L677.487 480.353C677.087 480.553 676.787 480.753 676.387 480.853C675.987 480.953 675.486 480.953 675.086 480.853C674.186 480.653 673.486 479.953 673.186 479.152L671.986 476.952L669.585 472.551L668.985 471.451C668.785 471.051 668.685 470.451 668.685 469.951C668.785 468.95 669.385 468.05 670.285 467.55L672.586 466.45C672.986 466.25 673.286 466.05 673.786 465.95C674.286 465.85 674.786 465.85 675.286 465.95C675.786 466.05 676.187 466.35 676.487 466.65C676.887 466.95 677.087 467.45 677.187 467.85L678.187 470.151L680.287 474.752C680.587 475.552 681.087 476.252 680.987 477.152C680.987 478.052 680.487 478.852 679.687 479.252ZM679.687 479.252C680.387 478.852 680.987 478.052 680.987 477.252C681.087 476.352 680.487 475.652 680.187 474.952L677.787 470.551L676.587 468.35C676.387 467.95 676.187 467.65 675.986 467.45C675.686 467.25 675.386 467.05 675.086 466.95C674.786 466.85 674.386 466.85 674.086 466.95C673.786 467.05 673.386 467.25 673.086 467.45L670.886 468.55C670.285 468.85 669.885 469.45 669.785 470.151C669.785 470.451 669.785 470.851 669.985 471.151L670.485 472.251L672.586 476.852L673.586 479.152C673.886 479.953 674.386 480.553 675.186 480.853C675.586 480.953 675.987 480.953 676.387 480.853C676.787 480.753 677.187 480.553 677.487 480.353L679.687 479.252Z" fill="black"/>
<path d="M691.49 474.752L688.489 476.252C687.289 476.852 685.789 476.352 685.289 475.152L681.188 466.95C680.588 465.75 681.088 464.25 682.288 463.749L685.289 462.249C686.489 461.649 687.989 462.149 688.489 463.349L692.59 471.551C693.19 472.751 692.69 474.152 691.49 474.752Z" fill="white"/>
<path d="M691.49 474.752L689.29 475.852C688.889 476.052 688.589 476.252 688.189 476.352C687.789 476.452 687.289 476.452 686.889 476.352C685.989 476.152 685.289 475.452 684.989 474.652L683.788 472.451L681.388 468.05L680.788 466.95C680.588 466.55 680.488 465.95 680.488 465.45C680.588 464.45 681.188 463.549 682.088 463.049L684.389 461.949C684.789 461.749 685.089 461.549 685.589 461.449C686.089 461.349 686.589 461.349 687.089 461.449C687.589 461.549 687.989 461.849 688.289 462.149C688.689 462.449 688.889 462.949 688.99 463.349L689.99 465.65L692.09 470.251C692.39 471.051 692.89 471.751 692.79 472.651C692.79 473.651 692.29 474.352 691.49 474.752ZM691.49 474.752C692.19 474.352 692.79 473.551 692.79 472.751C692.89 471.851 692.29 471.151 691.99 470.451L689.59 466.05L688.389 463.85C688.189 463.449 687.989 463.149 687.789 462.949C687.489 462.749 687.189 462.549 686.889 462.449C686.589 462.349 686.189 462.349 685.889 462.449C685.589 462.549 685.189 462.749 684.889 462.949L682.688 464.05C682.088 464.35 681.688 464.95 681.588 465.65C681.588 465.95 681.588 466.35 681.788 466.65L682.288 467.75L684.389 472.351L685.389 474.652C685.689 475.452 686.189 476.052 686.989 476.352C687.389 476.452 687.789 476.452 688.189 476.352C688.589 476.252 688.99 476.052 689.29 475.852L691.49 474.752Z" fill="black"/>
<path d="M703.392 468.95L700.392 470.451C699.191 471.051 697.691 470.551 697.191 469.35L693.09 461.149C692.49 459.949 692.99 458.448 694.19 457.948L697.191 456.448C698.391 455.848 699.892 456.348 700.392 457.548L704.493 465.75C705.093 466.85 704.593 468.35 703.392 468.95Z" fill="white"/>
<path d="M703.392 468.95L701.192 470.051C700.792 470.251 700.492 470.451 700.092 470.551C699.692 470.651 699.191 470.651 698.791 470.551C697.891 470.351 697.191 469.651 696.891 468.85L695.691 466.65L693.29 462.249L692.69 461.149C692.49 460.749 692.39 460.149 692.39 459.649C692.49 458.648 693.09 457.748 693.99 457.248L696.291 456.148C696.691 455.948 696.991 455.748 697.491 455.648C697.991 455.548 698.491 455.548 698.991 455.648C699.492 455.748 699.892 456.048 700.192 456.348C700.592 456.648 700.792 457.148 700.892 457.548L701.892 459.849L703.992 464.45C704.292 465.25 704.793 465.95 704.693 466.85C704.693 467.75 704.192 468.55 703.392 468.95ZM703.392 468.95C704.092 468.55 704.693 467.75 704.693 466.95C704.793 466.05 704.192 465.35 703.892 464.65L701.492 460.249L700.292 458.048C700.092 457.648 699.892 457.348 699.692 457.148C699.392 456.948 699.091 456.748 698.791 456.648C698.491 456.548 698.091 456.548 697.791 456.648C697.491 456.748 697.091 456.948 696.791 457.148L694.591 458.248C693.99 458.548 693.59 459.148 693.49 459.849C693.49 460.149 693.49 460.549 693.69 460.849L694.19 461.949L696.291 466.55L697.291 468.85C697.591 469.651 698.091 470.251 698.891 470.551C699.292 470.651 699.692 470.651 700.092 470.551C700.492 470.451 700.892 470.251 701.192 470.051L703.392 468.95Z" fill="black"/>
<path d="M649.981 498.456C650.282 499.857 650.282 501.357 650.182 502.757C650.082 504.157 649.881 505.558 649.381 506.958C649.081 505.558 649.081 504.057 649.181 502.657C649.381 501.257 649.481 499.857 649.981 498.456Z" fill="black"/>
<path d="M619.175 500.257C621.376 499.957 623.576 499.757 625.777 499.657C627.977 499.457 630.178 499.357 632.378 499.357C634.578 499.257 636.779 499.257 638.979 499.257H642.28C643.38 499.257 644.48 499.357 645.581 499.357C644.48 499.557 643.38 499.557 642.28 499.757L638.979 500.057C636.779 500.257 634.578 500.357 632.378 500.357C630.178 500.457 627.977 500.457 625.777 500.457C623.576 500.357 621.376 500.357 619.175 500.257Z" fill="#231F20"/>
<path d="M686.889 495.256L680.788 480.953L693.391 476.352L702.292 494.055L686.889 495.256Z" stroke="black" stroke-width="0.5" stroke-miterlimit="10"/>
<path d="M697.891 148.286H691.09V158.288H697.891V148.286Z" fill="#EAB575"/>
<path d="M701.292 213.599L689.89 247.106L635.279 204.497L628.777 213.599C628.777 213.599 689.29 274.411 695.591 273.411C701.892 272.411 719.396 217.9 719.396 217.9C719.396 217.9 712.594 214.599 701.292 213.599Z" fill="#EAB575"/>
<path d="M627.377 216.6C634.669 216.6 640.58 210.689 640.58 203.397C640.58 196.105 634.669 190.194 627.377 190.194C620.085 190.194 614.174 196.105 614.174 203.397C614.174 210.689 620.085 216.6 627.377 216.6Z" fill="#EAB575"/>
<path d="M553.662 191.394C559.352 191.394 563.965 186.782 563.965 181.092C563.965 175.403 559.352 170.79 553.662 170.79C547.973 170.79 543.36 175.403 543.36 181.092C543.36 186.782 547.973 191.394 553.662 191.394Z" fill="#E0A66C"/>
<path d="M618.175 180.392L620.976 180.092C621.676 179.992 622.276 179.392 622.176 178.592L622.076 177.792C621.976 177.092 621.376 176.491 620.576 176.592L617.775 176.892C617.075 176.992 616.475 177.592 616.575 178.392L616.675 179.192C616.775 179.892 617.475 180.492 618.175 180.392Z" fill="url(#paint3_linear)"/>
<path d="M622.576 184.693C622.076 185.193 621.476 185.293 620.876 185.393C620.276 185.493 619.676 185.493 618.976 185.093C619.476 184.593 620.076 184.493 620.676 184.393C621.276 184.393 621.876 184.393 622.576 184.693Z" fill="url(#paint4_linear)"/>
<path d="M625.477 191.194C628.377 191.494 631.278 192.795 633.678 194.595C634.879 195.495 635.879 196.595 636.779 197.896C637.679 199.096 638.179 200.596 638.579 201.997C638.179 201.396 637.879 200.696 637.479 200.096L636.879 199.196L636.179 198.396C635.279 197.296 634.278 196.295 633.078 195.395C631.978 194.495 630.778 193.695 629.477 193.095C628.177 192.395 626.877 191.794 625.477 191.194Z" fill="url(#paint5_linear)"/>
<path d="M610.774 187.994C610.174 188.694 609.574 189.194 608.774 189.594C608.073 189.994 607.273 190.294 606.373 190.294C606.973 189.594 607.573 189.094 608.373 188.694C609.074 188.294 609.874 187.994 610.774 187.994Z" fill="url(#paint6_linear)"/>
<path d="M600.472 166.089L615.775 163.289L630.578 196.596L614.775 198.296L600.472 166.089Z" fill="#F95F8F"/>
<path d="M621.376 207.198C621.576 207.098 621.776 206.797 621.876 206.697C623.076 204.697 624.376 202.797 621.876 200.696C612.674 192.995 608.973 184.193 609.073 172.191C609.073 168.89 606.773 168.69 604.472 168.19C604.272 168.19 603.872 168.19 603.772 168.29C601.372 169.49 599.872 169.59 599.872 173.391C600.072 187.094 604.773 197.896 615.075 206.898C617.975 209.298 618.875 208.298 621.376 207.198Z" fill="#EAB575"/>
<path d="M624.877 200.596C625.677 200.896 627.077 201.196 627.977 201.296C628.978 201.396 629.478 201.296 629.878 200.096C632.178 193.295 631.978 187.394 629.878 180.592C629.478 179.292 628.878 179.192 627.877 179.292C626.877 179.392 625.477 179.692 624.577 179.992C623.676 180.292 623.176 180.692 623.476 181.792C625.477 187.794 625.677 192.695 623.776 198.796C623.476 199.896 623.977 200.296 624.877 200.596Z" fill="#EAB575"/>
<path d="M679.888 134.583L691.79 135.083V141.584L694.691 137.084C694.691 137.084 698.492 137.784 696.991 142.385C696.991 142.385 696.891 143.885 695.091 144.785L698.592 147.986C698.592 147.986 708.594 138.784 708.594 135.583C708.594 132.383 704.593 115.479 704.593 115.479L701.992 121.68C701.992 121.68 694.991 138.484 696.391 109.478C696.391 109.478 690.69 116.779 690.29 119.98C689.99 123.181 685.989 117.88 686.889 113.379C686.989 113.379 675.787 125.181 679.888 134.583Z" fill="black"/>
<path d="M553.162 174.391L552.262 175.691C551.562 176.792 550.062 176.992 549.061 176.292L532.858 165.089C531.758 164.389 531.558 162.889 532.258 161.889L533.158 160.588C533.858 159.488 535.359 159.288 536.359 159.988L552.562 171.191C553.662 171.891 553.862 173.391 553.162 174.391Z" fill="#E0A66C"/>
<path d="M309.32 231.703C316.425 221.505 321.302 212.624 320.214 211.866C319.127 211.108 312.486 218.761 305.381 228.959C298.277 239.157 293.399 248.038 294.487 248.796C295.575 249.554 302.216 241.901 309.32 231.703Z" fill="#231F20"/>
<path opacity="0.4" d="M296.11 208.098L308.413 229.902C309.013 231.003 310.413 231.503 311.613 230.903C313.214 230.202 313.414 228.302 314.814 226.002L305.512 239.404C305.612 239.604 290.409 217.4 296.11 208.098Z" fill="url(#paint7_linear)"/>
<path d="M266.905 222.201C267.505 213.199 272.806 205.497 280.707 202.497C287.709 199.796 295.71 199.296 299.111 208.098C305.912 225.501 336.519 315.92 336.519 315.92C336.519 315.92 282.608 313.019 259.703 330.723L266.905 222.201Z" fill="#FBE54B"/>
<path d="M281.508 196.796C287.971 196.796 293.21 191.556 293.21 185.093C293.21 178.63 287.971 173.391 281.508 173.391C275.045 173.391 269.805 178.63 269.805 185.093C269.805 191.556 275.045 196.796 281.508 196.796Z" fill="#EAB575"/>
<path d="M285.88 210.121C289.949 209.339 292.892 206.859 292.454 204.581C292.017 202.303 288.364 201.089 284.296 201.87C280.227 202.652 277.284 205.132 277.721 207.41C278.159 209.689 281.812 210.902 285.88 210.121Z" fill="#EAB575"/>
<path d="M318.115 245.105C318.115 245.105 277.306 230.702 275.606 217.9C273.906 205.097 319.415 200.196 319.415 200.196" fill="#FBE54B"/>
<path opacity="0.4" d="M275.506 216.399L304.112 229.402C305.612 230.102 307.313 229.502 308.113 228.102C309.213 226.201 310.313 223.301 310.113 219.9L308.313 241.204C308.313 241.204 276.507 230.002 275.506 216.399Z" fill="url(#paint8_linear)"/>
<path d="M321.212 222.655C321.572 210.231 320.79 200.128 319.465 200.09C318.14 200.051 316.773 210.092 316.413 222.516C316.053 234.94 316.835 245.042 318.16 245.081C319.485 245.119 320.852 235.079 321.212 222.655Z" fill="#231F20"/>
<path d="M299.118 329.008C320.328 324.935 337.015 318.994 336.39 315.739C335.765 312.484 318.064 313.148 296.854 317.222C275.644 321.295 258.957 327.236 259.582 330.491C260.207 333.745 277.908 333.082 299.118 329.008Z" fill="black"/>
<path d="M316.114 320.221L304.112 396.936C302.211 407.638 297.411 417.54 290.109 425.642L247.7 472.851L234.798 470.351L272.305 402.437L276.506 322.121C276.506 322.121 293.41 314.719 316.114 320.221Z" fill="#2B9EAA"/>
<path d="M293.31 481.553L251.701 460.849L239.299 471.951L237.298 465.25L230.397 482.853L288.809 489.554C288.709 489.655 291.209 483.753 293.31 481.553Z" fill="#FBE54B"/>
<path d="M230.297 482.953L222.996 490.855L305.412 495.856C307.013 495.956 308.413 494.956 308.913 493.455L309.413 491.655C309.413 491.655 312.314 488.454 302.212 481.853C292.109 475.252 288.809 489.655 288.809 489.655L230.297 482.953Z" fill="white" stroke="#231F20" stroke-miterlimit="10"/>
<path d="M288.909 491.955C284.108 491.755 279.407 491.355 274.606 491.055C269.805 490.755 265.104 490.255 260.303 489.855C255.502 489.354 250.801 488.954 246 488.454L238.899 487.654C236.498 487.354 234.198 487.054 231.797 486.754C234.198 486.854 236.598 487.054 238.999 487.154L246.2 487.654C251.001 488.054 255.702 488.454 260.503 488.854C265.304 489.354 270.005 489.755 274.806 490.255C279.407 490.755 284.208 491.255 288.909 491.955Z" fill="#231F20"/>
<path d="M288.809 482.153C285.408 480.753 282.008 479.252 278.707 477.652C275.306 476.152 272.006 474.551 268.705 472.951C265.404 471.351 262.104 469.75 258.803 468.05L253.902 465.55C252.302 464.649 250.601 463.849 249.001 462.949C250.701 463.649 252.402 464.449 254.102 465.149L259.103 467.45C262.504 468.95 265.804 470.551 269.105 472.151C272.406 473.751 275.706 475.351 279.007 477.052C282.308 478.652 285.608 480.352 288.809 482.153Z" fill="white"/>
<path d="M278.107 480.953L278.807 481.353C279.807 481.953 281.107 481.553 281.707 480.553L283.808 476.752C284.408 475.752 284.008 474.451 283.008 473.851L282.307 473.451C281.307 472.851 280.007 473.251 279.407 474.251L277.306 478.052C276.706 479.052 277.106 480.353 278.107 480.953Z" fill="white"/>
<path d="M278.107 480.953C278.507 481.153 278.907 481.453 279.407 481.553C279.907 481.653 280.407 481.553 280.807 481.253C281.207 480.953 281.507 480.653 281.607 480.153L282.207 478.852L282.807 477.552L283.108 476.852L283.308 476.552C283.308 476.452 283.408 476.352 283.408 476.252C283.608 475.452 283.308 474.652 282.607 474.351L282.007 473.951C281.807 473.851 281.707 473.751 281.507 473.751C281.107 473.651 280.707 473.751 280.407 473.951C280.007 474.151 279.807 474.351 279.507 474.852L278.707 476.052C278.207 476.852 277.606 477.652 277.206 478.552C277.006 478.952 277.006 479.553 277.206 479.953C277.406 480.253 277.706 480.653 278.107 480.953ZM278.107 480.953C277.206 480.453 276.806 479.352 277.106 478.452C277.506 477.552 277.906 476.652 278.307 475.752L278.907 474.451C279.107 474.051 279.407 473.451 279.907 473.151C280.407 472.851 281.007 472.651 281.607 472.751C281.907 472.751 282.207 472.951 282.407 473.051L283.008 473.351C283.508 473.651 283.908 474.151 284.208 474.752C284.408 475.352 284.408 475.952 284.208 476.552C284.208 476.652 284.108 476.852 284.008 476.952L283.808 477.252L283.408 477.852L282.607 479.052L281.807 480.253C281.607 480.653 281.207 481.153 280.707 481.353C280.307 481.553 279.707 481.653 279.207 481.553C279.007 481.453 278.607 481.153 278.107 480.953Z" fill="black"/>
<path d="M271.606 477.352L272.306 477.752C273.306 478.352 274.606 477.952 275.206 476.952L277.307 473.151C277.907 472.151 277.507 470.851 276.507 470.251L275.806 469.851C274.806 469.25 273.506 469.651 272.906 470.651L270.805 474.451C270.305 475.552 270.605 476.752 271.606 477.352Z" fill="white"/>
<path d="M271.606 477.352C272.006 477.552 272.406 477.852 272.906 477.952C273.406 478.052 273.906 477.952 274.306 477.652C274.706 477.352 275.006 477.052 275.106 476.552L275.706 475.252L276.306 473.951L276.607 473.251L276.807 472.951C276.807 472.851 276.907 472.751 276.907 472.651C277.107 471.851 276.807 471.051 276.106 470.751L275.506 470.351C275.306 470.25 275.206 470.15 275.006 470.15C274.606 470.05 274.206 470.15 273.906 470.351C273.506 470.551 273.306 470.751 273.006 471.251L272.206 472.451C271.706 473.251 271.105 474.051 270.705 474.951C270.505 475.352 270.505 475.952 270.705 476.352C270.905 476.752 271.205 477.152 271.606 477.352ZM271.606 477.352C270.705 476.852 270.305 475.752 270.605 474.851C271.005 473.951 271.405 473.051 271.806 472.151L272.406 470.851C272.606 470.451 272.906 469.85 273.406 469.55C273.906 469.25 274.506 469.05 275.106 469.15C275.406 469.15 275.706 469.35 275.906 469.45L276.507 469.75C277.007 470.05 277.407 470.551 277.707 471.151C277.907 471.751 277.907 472.351 277.707 472.951C277.707 473.051 277.607 473.251 277.507 473.351L277.307 473.651L276.907 474.251L276.106 475.452L275.306 476.652C275.106 477.052 274.706 477.552 274.206 477.752C273.806 477.952 273.206 478.052 272.706 477.952C272.506 477.852 272.106 477.552 271.606 477.352Z" fill="black"/>
<path d="M264.504 474.351L265.204 474.751C266.204 475.351 267.505 474.951 268.105 473.951L270.205 470.15C270.805 469.15 270.405 467.85 269.405 467.25L268.705 466.85C267.705 466.25 266.404 466.65 265.804 467.65L263.704 471.451C263.104 472.451 263.504 473.751 264.504 474.351Z" fill="white"/>
<path d="M264.504 474.351C264.904 474.551 265.304 474.852 265.804 474.952C266.304 475.052 266.804 474.952 267.205 474.651C267.605 474.351 267.905 474.051 268.005 473.551L268.605 472.251L269.205 470.951L269.505 470.251L269.705 469.951C269.705 469.851 269.805 469.751 269.805 469.65C270.005 468.85 269.705 468.05 269.005 467.75L268.405 467.35C268.205 467.25 268.105 467.15 267.905 467.15C267.505 467.05 267.105 467.15 266.804 467.35C266.404 467.55 266.204 467.75 265.904 468.25L265.104 469.45C264.604 470.251 264.004 471.051 263.604 471.951C263.404 472.351 263.404 472.951 263.604 473.351C263.804 473.651 264.104 474.051 264.504 474.351ZM264.504 474.351C263.604 473.851 263.204 472.751 263.504 471.851C263.904 470.951 264.304 470.051 264.704 469.15L265.304 467.85C265.504 467.45 265.804 466.85 266.304 466.55C266.804 466.25 267.405 466.05 268.005 466.15C268.305 466.15 268.605 466.35 268.805 466.45L269.405 466.75C269.905 467.05 270.305 467.55 270.605 468.15C270.805 468.75 270.805 469.35 270.605 469.951C270.605 470.051 270.505 470.251 270.405 470.351L270.205 470.651L269.805 471.251L269.005 472.451L268.205 473.651C268.005 474.051 267.605 474.551 267.105 474.751C266.704 474.952 266.104 475.052 265.604 474.952C265.404 474.852 265.004 474.551 264.504 474.351Z" fill="black"/>
<path d="M257.402 470.35L258.103 470.75C259.103 471.351 260.403 470.951 261.003 469.95L263.104 466.15C263.704 465.149 263.304 463.849 262.303 463.249L261.603 462.849C260.603 462.249 259.303 462.649 258.703 463.649L256.602 467.45C256.002 468.55 256.402 469.85 257.402 470.35Z" fill="white"/>
<path d="M257.402 470.35C257.803 470.551 258.203 470.851 258.703 470.951C259.203 471.051 259.703 470.951 260.103 470.651C260.503 470.35 260.803 470.05 260.903 469.55L261.503 468.25L262.103 466.95L262.403 466.25L262.603 465.95C262.603 465.85 262.703 465.75 262.703 465.65C262.904 464.849 262.603 464.049 261.903 463.749L261.303 463.349C261.103 463.249 261.003 463.149 260.803 463.149C260.403 463.049 260.003 463.149 259.703 463.349C259.303 463.549 259.103 463.749 258.803 464.249L258.003 465.449C257.502 466.25 256.902 467.05 256.502 467.95C256.302 468.35 256.302 468.95 256.502 469.35C256.702 469.75 257.002 470.15 257.402 470.35ZM257.402 470.35C256.502 469.85 256.102 468.75 256.402 467.85C256.802 466.95 257.202 466.05 257.602 465.149L258.203 463.849C258.403 463.449 258.703 462.849 259.203 462.549C259.703 462.249 260.303 462.049 260.903 462.149C261.203 462.149 261.503 462.349 261.703 462.449L262.303 462.749C262.804 463.049 263.204 463.549 263.504 464.149C263.704 464.749 263.704 465.349 263.504 465.95C263.504 466.05 263.404 466.25 263.304 466.35L263.104 466.65L262.703 467.25L261.903 468.45L261.103 469.65C260.903 470.05 260.503 470.551 260.003 470.751C259.603 470.951 259.003 471.051 258.503 470.951C258.303 470.951 257.903 470.651 257.402 470.35Z" fill="black"/>
<path d="M288.709 489.655C289.109 490.555 289.209 491.355 289.309 492.255C289.309 493.155 289.209 493.955 288.909 494.856C288.509 493.955 288.409 493.155 288.309 492.255C288.309 491.355 288.309 490.555 288.709 489.655Z" fill="black"/>
<path d="M307.513 491.555C304.812 491.755 302.112 491.655 299.311 491.455C296.611 491.255 293.91 490.955 291.209 490.355C293.91 490.155 296.611 490.255 299.411 490.455C302.212 490.655 304.912 490.955 307.513 491.555Z" fill="#231F20"/>
<path d="M322.116 313.719L328.817 390.135C329.317 396.336 328.217 402.537 325.517 408.138L293.71 473.051L280.607 473.952L298.911 396.636L282.408 320.621C282.408 320.721 291.31 316.72 322.116 313.719Z" fill="#56D0ED"/>
<path d="M362.124 485.254L302.312 458.448L283.408 470.451L278.907 468.95L273.506 490.655L356.223 496.856C356.122 496.856 359.323 488.554 362.124 485.254Z" fill="#FBE54B"/>
<path d="M273.406 490.755L263.504 502.357L379.827 504.758C382.028 504.758 384.028 503.257 384.528 501.157L385.128 498.656C385.128 498.656 389.029 493.955 374.426 485.254C359.823 476.552 355.923 496.956 355.923 496.956L273.406 490.755Z" fill="white" stroke="#231F20" stroke-miterlimit="10"/>
<path d="M356.523 500.157C349.822 500.057 343.02 499.757 336.319 499.557C329.617 499.256 322.816 498.956 316.115 498.656L295.911 497.556L285.809 496.956C282.408 496.656 279.107 496.456 275.707 496.256C279.107 496.356 282.408 496.456 285.809 496.556L295.911 496.956L316.115 497.856C322.816 498.256 329.517 498.556 336.319 498.956C343.02 499.156 349.822 499.557 356.523 500.157Z" fill="#231F20"/>
<path d="M355.823 486.354C351.022 484.453 346.221 482.453 341.42 480.453C336.619 478.452 331.918 476.352 327.117 474.351C322.416 472.251 317.615 470.151 312.914 468.05L305.812 464.849C303.512 463.749 301.111 462.649 298.811 461.549C301.212 462.449 303.612 463.449 306.013 464.449L313.214 467.45C318.015 469.45 322.716 471.551 327.517 473.551C332.218 475.652 337.019 477.752 341.72 479.852C346.421 481.953 351.122 484.053 355.823 486.354Z" fill="black"/>
<path d="M340.22 484.953L342.12 485.954C343.32 486.554 344.821 486.054 345.321 484.853L348.521 478.352C349.122 477.152 348.621 475.652 347.421 475.151L345.521 474.151C344.321 473.551 342.82 474.051 342.32 475.251L339.12 481.753C338.519 482.953 339.019 484.353 340.22 484.953Z" fill="white"/>
<path d="M340.22 484.954L342.12 485.854C342.72 486.154 343.52 486.154 344.12 485.854C344.821 485.554 345.221 484.954 345.421 484.353L346.321 482.453L348.021 478.552C348.221 478.252 348.321 477.952 348.321 477.652C348.421 477.352 348.321 477.052 348.321 476.752C348.221 476.152 347.821 475.752 347.321 475.452L345.421 474.451C344.921 474.151 344.32 474.151 343.72 474.351C343.42 474.451 343.22 474.651 343.02 474.851C342.82 475.052 342.62 475.352 342.52 475.652L341.52 477.552L339.419 481.253C339.019 481.853 338.819 482.553 339.019 483.253C339.119 484.053 339.619 484.653 340.22 484.954ZM340.22 484.954C339.619 484.653 339.119 484.053 338.919 483.353C338.719 482.653 338.919 481.853 339.319 481.253L341.02 477.352L341.92 475.452C342.02 475.152 342.22 474.751 342.52 474.451C342.82 474.151 343.12 473.851 343.52 473.751C344.32 473.451 345.221 473.451 345.921 473.851L347.821 474.751C348.621 475.152 349.121 475.852 349.321 476.752C349.421 477.152 349.421 477.552 349.321 478.052C349.221 478.452 349.021 478.852 348.821 479.152L346.721 482.853L345.721 484.754C345.421 485.354 344.921 486.054 344.22 486.254C343.52 486.554 342.72 486.454 342.12 486.154L340.22 484.954Z" fill="black"/>
<path d="M330.918 480.353L332.818 481.353C334.018 481.953 335.518 481.453 336.019 480.253L339.219 473.751C339.819 472.551 339.319 471.051 338.119 470.551L336.219 469.55C335.018 468.95 333.518 469.45 333.018 470.651L329.817 477.152C329.217 478.252 329.717 479.752 330.918 480.353Z" fill="white"/>
<path d="M330.917 480.353L332.818 481.253C333.418 481.553 334.218 481.553 334.818 481.253C335.518 480.953 335.918 480.353 336.118 479.753L337.019 477.852L338.719 473.951C338.919 473.651 339.019 473.351 339.019 473.051C339.119 472.751 339.019 472.451 339.019 472.151C338.919 471.551 338.519 471.151 338.019 470.851L336.118 469.851C335.618 469.55 335.018 469.55 334.418 469.751C334.118 469.851 333.918 470.051 333.718 470.251C333.518 470.451 333.318 470.751 333.218 471.051L332.218 472.951L330.117 476.652C329.717 477.252 329.517 477.952 329.717 478.652C329.817 479.352 330.217 479.953 330.917 480.353ZM330.917 480.353C330.317 480.053 329.817 479.452 329.617 478.752C329.417 478.052 329.617 477.252 330.017 476.652L331.717 472.751L332.618 470.851C332.718 470.551 332.918 470.151 333.218 469.851C333.518 469.55 333.818 469.25 334.218 469.15C335.018 468.85 335.918 468.85 336.618 469.25L338.519 470.151C339.319 470.551 339.819 471.251 340.019 472.151C340.119 472.551 340.119 472.951 340.019 473.451C339.919 473.851 339.719 474.251 339.519 474.551L337.419 478.252L336.418 480.153C336.118 480.753 335.618 481.453 334.918 481.653C334.218 481.953 333.418 481.853 332.818 481.553L330.917 480.353Z" fill="black"/>
<path d="M320.716 476.452L322.616 477.452C323.816 478.052 325.317 477.552 325.817 476.352L329.017 469.85C329.618 468.65 329.118 467.15 327.917 466.65L326.017 465.65C324.817 465.049 323.316 465.55 322.816 466.75L319.616 473.251C319.016 474.351 319.516 475.852 320.716 476.452Z" fill="white"/>
<path d="M320.716 476.452L322.616 477.352C323.216 477.652 324.016 477.652 324.616 477.352C325.317 477.052 325.717 476.452 325.917 475.852L326.817 473.951L328.517 470.051C328.717 469.75 328.817 469.45 328.817 469.15C328.917 468.85 328.817 468.55 328.817 468.25C328.717 467.65 328.317 467.25 327.817 466.95L325.917 465.95C325.417 465.65 324.816 465.65 324.216 465.85C323.916 465.95 323.716 466.15 323.516 466.35C323.316 466.55 323.116 466.85 323.016 467.15L322.016 469.05L319.915 472.751C319.515 473.351 319.315 474.051 319.515 474.751C319.615 475.452 320.016 476.152 320.716 476.452ZM320.716 476.452C320.116 476.152 319.615 475.552 319.415 474.851C319.215 474.151 319.415 473.351 319.815 472.751L321.516 468.85L322.416 466.95C322.516 466.65 322.716 466.25 323.016 465.95C323.316 465.65 323.616 465.35 324.016 465.25C324.816 464.949 325.717 464.949 326.417 465.35L328.317 466.25C329.117 466.65 329.617 467.35 329.818 468.25C329.918 468.65 329.918 469.05 329.818 469.55C329.717 469.95 329.517 470.351 329.317 470.651L327.217 474.351L326.217 476.252C325.917 476.852 325.417 477.552 324.716 477.752C324.016 478.052 323.216 477.952 322.616 477.652L320.716 476.452Z" fill="black"/>
<path d="M310.514 471.351L312.414 472.351C313.614 472.951 315.115 472.451 315.615 471.251L318.815 464.749C319.415 463.549 318.915 462.049 317.715 461.549L315.815 460.548C314.615 459.948 313.114 460.448 312.614 461.649L309.413 468.15C308.813 469.25 309.313 470.751 310.514 471.351Z" fill="white"/>
<path d="M310.514 471.351L312.414 472.251C313.014 472.551 313.814 472.551 314.414 472.251C315.114 471.951 315.514 471.351 315.715 470.751L316.615 468.85L318.315 464.949C318.515 464.649 318.615 464.349 318.615 464.049C318.715 463.749 318.615 463.449 318.615 463.149C318.515 462.549 318.115 462.149 317.615 461.849L315.715 460.849C315.214 460.549 314.614 460.549 314.014 460.749C313.714 460.849 313.514 461.049 313.314 461.249C313.114 461.449 312.914 461.749 312.814 462.049L311.814 463.949L309.713 467.65C309.313 468.25 309.113 468.95 309.313 469.65C309.413 470.351 309.813 470.951 310.514 471.351ZM310.514 471.351C309.913 471.051 309.413 470.451 309.213 469.75C309.013 469.05 309.213 468.25 309.613 467.65L311.314 463.749L312.214 461.849C312.314 461.549 312.514 461.149 312.814 460.849C313.114 460.549 313.414 460.248 313.814 460.148C314.614 459.848 315.514 459.848 316.215 460.248L318.115 461.149C318.915 461.549 319.415 462.249 319.615 463.149C319.715 463.549 319.715 463.949 319.615 464.449C319.515 464.849 319.315 465.249 319.115 465.55L317.015 469.25L316.015 471.151C315.715 471.751 315.214 472.451 314.514 472.651C313.814 472.951 313.014 472.851 312.414 472.551L310.514 471.351Z" fill="black"/>
<path d="M356.123 496.856C356.623 498.056 356.723 499.256 356.823 500.457C356.923 501.657 356.823 502.857 356.523 504.157C356.023 502.957 355.923 501.757 355.823 500.557C355.723 499.356 355.823 498.156 356.123 496.856Z" fill="black"/>
<path d="M382.728 498.556C378.927 498.756 375.026 498.756 371.226 498.556C367.425 498.356 363.624 498.156 359.823 497.556C363.624 497.356 367.525 497.356 371.326 497.556C375.126 497.756 378.927 497.956 382.728 498.556Z" fill="#231F20"/>
<path d="M324.316 493.956L329.617 481.653L318.815 477.652L311.013 492.855L324.316 493.956Z" stroke="black" stroke-width="0.5" stroke-miterlimit="10"/>
<path d="M282.032 205.119L288.253 202.371L284.213 193.221L277.991 195.969L282.032 205.119Z" fill="#EAB575"/>
<path d="M316.515 210.598L349.521 210.398L367.325 152.387L375.526 148.886C375.526 148.886 366.625 215.499 364.724 220.3C362.824 225.001 316.615 225.401 316.615 225.401C316.615 225.401 315.314 219.5 316.515 210.598Z" fill="#EAB575"/>
<path d="M374.026 161.788C379.716 161.788 384.328 157.176 384.328 151.486C384.328 145.797 379.716 141.184 374.026 141.184C368.337 141.184 363.724 145.797 363.724 151.486C363.724 157.176 368.337 161.788 374.026 161.788Z" fill="#E0A66C"/>
<path d="M369.525 146.585L371.125 146.786C372.426 146.986 373.626 146.085 373.826 144.785L376.826 125.281C377.026 123.981 376.126 122.781 374.826 122.581L373.226 122.381C371.925 122.181 370.725 123.081 370.525 124.381L367.525 143.885C367.424 145.185 368.225 146.385 369.525 146.585Z" fill="#E0A66C"/>
<path d="M718.695 334.723C718.695 334.723 737.099 314.019 738.899 293.715C738.899 293.715 717.295 291.815 711.294 291.815C705.293 291.815 718.695 334.723 718.695 334.723Z" fill="#56D0ED"/>
<path d="M273.105 323.121C273.105 323.121 270.405 339.524 289.009 351.227L296.71 320.721L292.809 317.82C292.809 317.82 276.306 321.621 273.105 323.121Z" fill="#56D0ED"/>
<path d="M488.449 156.887H458.043V178.492H488.449V156.887Z" fill="#FBE54B"/>
<path d="M521.156 124.781H490.75V146.385H521.156V124.781Z" fill="#56D0ED"/>
<path d="M396.931 234.903H366.524V256.508H396.931V234.903Z" fill="white"/>
<path d="M391.43 240.704H361.023V262.309H391.43V240.704Z" stroke="white" stroke-miterlimit="10"/>
<path d="M637.379 100.676H606.973V122.281H637.379V100.676Z" fill="#56D0ED"/>
<path d="M631.878 106.477H601.472V128.082H631.878V106.477Z" stroke="white" stroke-miterlimit="10" stroke-dasharray="2 2"/>
<path d="M544.861 217.4H514.455V239.004H544.861V217.4Z" fill="#EDEDED" stroke="#F95F8F" stroke-miterlimit="10"/>
<path d="M246.2 211.299C253.16 211.299 258.803 205.656 258.803 198.696C258.803 191.736 253.16 186.094 246.2 186.094C239.24 186.094 233.598 191.736 233.598 198.696C233.598 205.656 239.24 211.299 246.2 211.299Z" fill="black"/>
<path d="M249.601 198.596C251.534 198.596 253.102 197.7 253.102 196.596C253.102 195.491 251.534 194.595 249.601 194.595C247.667 194.595 246.1 195.491 246.1 196.596C246.1 197.7 247.667 198.596 249.601 198.596Z" fill="black"/>
<path d="M239.899 216.4C243.379 216.4 246.2 214.608 246.2 212.399C246.2 210.189 243.379 208.398 239.899 208.398C236.419 208.398 233.598 210.189 233.598 212.399C233.598 214.608 236.419 216.4 239.899 216.4Z" fill="black"/>
<path d="M301.712 323.121L304.512 341.225L307.213 359.328L312.514 395.536L312.214 395.136L317.815 397.236L319.415 397.836L317.715 398.136L309.713 399.837L309.813 398.936L314.214 400.937L314.614 401.137L314.414 401.537C310.813 411.039 307.213 420.541 303.512 430.043L298.011 444.245L292.41 458.448L297.611 444.045L302.912 429.743C306.413 420.141 310.013 410.639 313.514 401.137L313.714 401.737L309.313 399.736L308.013 399.136L309.413 398.836L317.415 397.136L317.315 398.036L311.714 395.936L311.414 395.836V395.536L306.312 359.328L303.812 341.225L301.712 323.121Z" fill="white"/>
<path d="M310.113 336.524C310.713 333.623 311.714 330.923 312.614 328.222C313.614 325.522 314.714 322.821 316.115 320.22C315.514 323.121 314.514 325.822 313.614 328.522C312.614 331.323 311.514 334.023 310.113 336.524Z" fill="#2B9EAA"/>
<path d="M279.307 227.902C280.807 234.103 282.208 240.304 283.608 246.406C285.008 252.607 286.309 258.808 287.609 265.009C288.909 271.211 290.209 277.412 291.41 283.613L293.21 292.915C293.81 296.016 294.41 299.116 294.91 302.317C294.11 299.216 293.41 296.116 292.71 293.015L290.609 283.713C289.209 277.512 287.909 271.311 286.609 265.109C285.308 258.908 284.008 252.707 282.808 246.506C281.608 240.404 280.407 234.203 279.307 227.902Z" fill="url(#paint9_linear)"/>
<path opacity="0.39" d="M285.508 196.095L281.507 203.497L273.206 197.696L285.508 196.095Z" fill="url(#paint10_linear)"/>
<path d="M285.108 173.391L283.108 185.093C283.108 185.093 275.006 180.892 279.607 191.395C284.208 201.897 280.607 202.497 280.607 202.497C280.607 202.497 291.51 213.899 281.408 222.601C271.305 231.203 256.703 225.201 254.402 236.504C252.102 247.806 220.595 235.904 244.3 205.997C244.3 205.997 233.798 191.495 246.2 185.093C246.2 185.093 256.302 169.99 266.505 176.392C266.505 176.392 274.406 159.088 285.108 173.391Z" fill="black"/>
<path opacity="0.39" d="M316.014 219.6C316.014 219.6 355.222 221.901 359.223 219.6C359.223 219.6 361.823 221.701 364.724 220.3C364.724 220.3 365.724 222.801 350.121 223.901L316.614 225.401C316.714 225.401 316.014 224.201 316.014 219.6Z" fill="url(#paint11_linear)"/>
<path d="M494.35 474.852C498.651 464.05 505.352 454.748 514.054 446.946C515.455 445.746 513.354 443.646 512.054 444.946C502.952 453.047 496.151 462.849 491.65 474.052C490.85 475.852 493.65 476.552 494.35 474.852Z" fill="#C8E8A3"/>
<path d="M508.953 453.147C508.853 453.147 508.853 453.047 508.953 453.147C508.653 453.047 508.553 452.947 508.353 452.947L508.953 453.147Z" fill="#C8E8A3"/>
<path d="M551.262 428.642C553.962 428.442 556.763 427.442 558.663 425.442C560.564 423.441 561.564 420.541 560.864 417.94C560.564 416.84 559.863 415.74 558.763 415.54C557.263 415.24 556.163 416.74 555.163 417.94C553.162 420.541 549.861 422.841 546.761 421.841C546.661 420.841 547.461 420.041 548.261 419.441C550.562 417.64 552.962 416.14 554.962 414.04C556.963 411.939 558.463 409.139 558.163 406.338C557.863 403.437 555.163 400.837 552.362 401.337C548.861 401.937 547.561 406.038 546.861 409.439C546.161 412.839 544.56 417.04 541.16 417.34C540.86 417.34 540.56 417.34 540.26 417.24C539.759 416.94 539.659 416.24 539.759 415.64C540.06 413.539 541.56 411.739 542.66 409.839C543.76 407.938 544.26 405.338 542.76 403.737C541.76 402.737 540.26 402.437 538.859 402.537C533.658 402.837 528.957 407.538 528.857 412.839C528.757 416.54 530.558 420.341 529.057 423.741C528.457 425.042 526.957 426.242 525.657 425.742C524.256 425.142 524.056 423.241 524.156 421.641C524.356 419.141 524.456 416.64 524.656 414.04C524.756 412.439 524.556 410.439 523.056 409.939C521.756 409.539 520.556 410.639 519.655 411.639C518.055 413.539 516.655 415.74 516.555 418.24C516.455 422.841 520.956 426.942 519.955 431.443C519.555 433.243 517.355 434.944 516.055 433.643C515.655 433.243 515.455 432.643 515.355 432.043C514.754 428.642 515.955 425.042 514.855 421.841C514.454 420.641 513.454 419.441 512.154 419.541C511.354 419.641 510.654 420.141 510.154 420.741C506.453 424.742 506.053 431.243 509.153 435.644C510.154 437.044 511.454 438.244 511.854 439.945C512.254 441.545 511.154 443.746 509.453 443.545C507.853 443.345 507.353 441.245 507.253 439.545C507.253 437.844 507.053 435.844 505.553 435.144C504.452 434.644 503.152 435.344 502.452 436.244C501.752 437.244 501.652 438.444 501.652 439.645C501.752 444.946 504.552 450.047 508.853 453.047C511.354 453.848 513.054 456.448 515.155 458.148C517.655 460.149 520.956 460.949 524.056 460.349C525.757 460.049 527.557 458.949 527.557 457.248C527.557 455.748 526.057 454.748 524.656 454.148C523.256 453.648 521.656 453.347 520.656 452.347C520.156 451.847 519.755 451.147 519.856 450.447C520.056 449.047 521.956 448.446 523.256 448.947C524.556 449.447 525.557 450.547 526.657 451.447C530.358 454.348 536.159 453.948 539.459 450.547C541.16 448.847 541.86 445.446 539.659 444.346C538.559 443.846 537.359 444.146 536.159 444.246C534.658 444.446 533.058 444.346 531.658 443.946C530.758 443.645 529.757 443.145 529.557 442.245C529.357 441.345 529.958 440.445 530.858 440.045C531.658 439.645 532.658 439.745 533.558 439.845C537.059 440.245 540.46 441.445 543.96 441.045C548.261 440.645 552.262 437.744 553.962 433.844C554.462 432.843 554.662 431.543 553.962 430.743C553.562 430.243 552.862 430.143 552.162 430.043C549.861 429.843 547.661 430.843 545.361 431.443C543.06 432.043 540.36 431.943 538.859 430.143C542.26 427.542 547.061 428.943 551.262 428.642ZM514.554 441.345C512.454 439.345 511.154 436.544 510.854 433.643C510.854 433.143 510.854 432.543 511.254 432.243C511.554 432.043 511.854 432.043 512.254 432.043C514.654 432.343 515.955 434.844 516.855 437.044C517.255 438.144 517.655 439.345 517.355 440.445C516.955 441.545 515.455 442.145 514.554 441.345ZM535.959 422.641C535.459 423.141 534.558 423.241 534.058 422.641C532.258 419.441 532.258 417.74 532.758 414.14C532.858 413.339 533.158 412.439 533.858 412.139C534.558 411.839 535.359 412.239 535.859 412.739C537.959 414.64 537.659 418.04 536.859 420.841C536.659 421.441 536.459 422.141 535.959 422.641ZM539.259 433.443C540.06 433.643 540.86 433.944 541.06 434.744C541.16 435.544 540.56 436.144 539.86 436.544C537.159 438.244 533.458 438.344 530.658 436.744C529.857 436.244 529.057 435.244 529.657 434.544C532.958 432.743 535.759 432.543 539.259 433.443Z" fill="#C8E8A3"/>
<path d="M475.147 449.947C478.947 452.147 481.248 458.048 482.648 461.949C484.248 466.05 485.149 470.351 485.649 474.752C485.849 476.552 488.749 476.552 488.549 474.752C487.549 466.25 484.749 452.147 476.547 447.446C474.947 446.546 473.546 449.046 475.147 449.947Z" fill="#C8E8A3"/>
<path d="M475.946 456.548L475.846 456.648C475.746 456.848 475.646 456.948 475.546 457.148L475.946 456.548Z" fill="#C8E8A3"/>
<path d="M459.944 402.337C460.444 399.236 460.044 395.836 458.343 393.235C456.643 390.535 453.642 388.634 450.442 388.734C449.141 388.734 447.741 389.234 447.241 390.435C446.541 392.035 447.841 393.735 448.941 395.136C451.342 398.136 452.942 402.437 451.042 405.638C449.942 405.538 449.241 404.337 448.741 403.337C447.341 400.337 446.341 397.136 444.54 394.335C442.74 391.535 440.04 389.034 436.739 388.634C433.438 388.234 429.737 390.535 429.537 393.835C429.237 397.836 433.538 400.537 437.139 402.237C440.84 403.937 445.041 406.838 444.44 410.839C444.44 411.139 444.34 411.539 444.04 411.839C443.54 412.339 442.74 412.239 442.14 411.939C439.839 410.939 438.239 408.838 436.439 407.138C434.638 405.438 431.838 404.137 429.637 405.338C428.237 406.138 427.437 407.838 427.137 409.438C426.037 415.44 430.138 421.841 435.939 423.441C440.04 424.541 444.84 423.541 448.241 426.142C449.541 427.142 450.542 429.142 449.541 430.543C448.541 431.943 446.241 431.643 444.54 431.143C441.74 430.243 438.939 429.442 436.139 428.542C434.438 428.042 432.038 427.642 431.138 429.242C430.338 430.543 431.238 432.243 432.138 433.443C433.838 435.744 435.939 437.944 438.639 438.744C443.74 440.145 449.541 436.144 454.342 438.444C456.243 439.344 457.543 442.245 455.743 443.445C455.143 443.845 454.442 443.845 453.742 443.845C449.741 443.645 446.041 441.245 442.14 441.645C440.74 441.845 439.039 442.545 438.839 444.045C438.639 444.946 439.139 445.846 439.639 446.646C443.04 451.847 450.342 454.147 456.143 451.847C457.943 451.147 459.743 449.947 461.644 449.947C463.644 449.947 465.745 451.847 464.945 453.647C464.244 455.448 461.744 455.448 459.843 454.948C457.943 454.548 455.643 454.147 454.442 455.648C453.642 456.748 453.942 458.448 454.842 459.448C455.743 460.449 457.143 460.949 458.443 461.249C464.344 462.649 470.946 460.849 475.447 456.748C477.047 454.147 480.448 452.947 482.948 451.047C485.849 448.846 487.749 445.246 487.949 441.645C488.049 439.645 487.349 437.244 485.349 436.844C483.648 436.444 482.048 437.844 481.148 439.244C480.148 440.645 479.447 442.345 477.947 443.245C477.247 443.645 476.347 443.945 475.547 443.645C474.046 443.045 473.946 440.845 474.847 439.444C475.747 438.044 477.247 437.344 478.547 436.344C482.748 432.943 483.948 426.342 481.048 421.741C479.547 419.34 475.947 417.64 474.146 419.741C473.246 420.741 473.246 422.341 473.146 423.641C472.946 425.442 472.346 427.142 471.546 428.642C471.046 429.643 470.146 430.543 469.045 430.643C467.945 430.643 467.145 429.643 466.945 428.542C466.745 427.442 467.045 426.442 467.445 425.442C468.845 421.641 471.146 418.14 471.646 414.139C472.346 409.238 470.246 403.937 466.245 400.937C465.245 400.137 463.844 399.536 462.744 400.137C462.144 400.537 461.744 401.237 461.544 401.937C460.744 404.537 461.244 407.238 461.244 409.939C461.244 412.639 460.444 415.74 458.043 416.84C456.343 412.239 459.143 407.138 459.944 402.337ZM464.244 447.046C461.344 448.846 457.943 449.547 454.542 449.046C453.942 448.946 453.342 448.746 453.042 448.246C452.842 447.846 452.942 447.446 453.142 447.046C454.142 444.445 457.243 443.645 460.044 443.245C461.344 443.045 462.844 442.945 463.944 443.645C465.145 444.345 465.345 446.246 464.244 447.046ZM449.041 417.94C449.441 418.64 449.241 419.741 448.541 420.041C444.54 421.241 442.54 420.741 438.539 419.14C437.739 418.84 436.739 418.24 436.639 417.34C436.539 416.54 437.139 415.74 437.839 415.24C440.54 413.439 444.34 414.639 447.141 416.34C447.941 416.74 448.641 417.24 449.041 417.94ZM462.044 417.14C462.444 416.34 463.044 415.44 464.044 415.54C464.944 415.54 465.445 416.54 465.745 417.34C466.945 420.841 466.045 425.042 463.444 427.742C462.744 428.542 461.244 429.142 460.644 428.242C459.643 424.041 460.144 420.941 462.044 417.14Z" fill="#C8E8A3"/>
<path d="M492.75 443.145C490.85 454.148 490.35 465.05 491.45 476.152C491.65 477.953 494.551 477.953 494.351 476.152C493.251 465.35 493.651 454.648 495.551 443.946C495.851 442.145 493.051 441.345 492.75 443.145Z" fill="#8CAD59"/>
<path d="M493.55 442.945H493.45C493.25 442.945 493.15 442.945 492.95 443.045L493.55 442.945Z" fill="#8CAD59"/>
<path d="M519.156 401.237C521.456 399.737 523.356 397.536 524.157 394.936C524.957 392.335 524.357 389.234 522.456 387.234C521.656 386.434 520.556 385.834 519.456 386.134C518.055 386.634 517.655 388.434 517.455 389.935C516.855 393.235 515.155 396.736 511.854 397.336C511.254 396.536 511.654 395.436 512.054 394.536C513.254 391.935 514.655 389.435 515.455 386.634C516.255 383.833 516.255 380.733 514.555 378.332C512.854 375.932 509.354 374.932 507.053 376.632C504.253 378.732 505.053 383.033 506.053 386.434C507.053 389.835 507.653 394.135 504.753 396.136C504.453 396.336 504.253 396.436 503.953 396.436C503.352 396.436 502.952 395.836 502.752 395.236C502.052 393.235 502.552 390.935 502.552 388.734C502.552 386.534 501.852 384.033 499.752 383.333C498.451 382.833 496.851 383.333 495.651 384.133C491.15 386.834 489.35 393.235 491.75 397.936C493.45 401.237 496.851 403.737 497.151 407.438C497.251 408.938 496.551 410.639 495.051 410.839C493.55 411.039 492.45 409.339 491.85 407.938C490.75 405.638 489.75 403.337 488.65 401.037C487.949 399.637 486.849 397.936 485.349 398.236C484.049 398.536 483.448 400.037 483.148 401.337C482.648 403.737 482.448 406.338 483.548 408.638C485.649 412.739 491.55 414.24 492.85 418.64C493.35 420.441 492.25 422.941 490.45 422.441C489.85 422.241 489.45 421.841 489.05 421.341C486.949 418.64 486.249 414.94 483.749 412.639C482.848 411.839 481.348 411.239 480.348 411.839C479.648 412.239 479.348 413.039 479.148 413.839C477.747 419.04 480.548 425.042 485.349 427.442C486.849 428.242 488.649 428.642 489.75 429.943C490.85 431.143 490.95 433.643 489.35 434.244C487.749 434.844 486.349 433.143 485.549 431.743C484.749 430.243 483.648 428.542 482.048 428.742C480.848 428.842 479.948 430.043 479.848 431.243C479.748 432.443 480.248 433.643 480.748 434.644C483.348 439.245 488.249 442.445 493.45 443.045C496.051 442.545 498.752 444.046 501.452 444.546C504.553 445.146 507.953 444.246 510.354 442.245C511.654 441.145 512.754 439.345 511.954 437.844C511.254 436.544 509.454 436.344 507.953 436.544C506.453 436.744 504.953 437.244 503.552 436.844C502.852 436.644 502.252 436.244 501.952 435.544C501.452 434.244 502.852 432.843 504.253 432.643C505.653 432.443 507.053 432.943 508.453 433.243C513.054 434.043 518.055 430.943 519.356 426.442C520.056 424.141 519.056 420.841 516.655 420.941C515.455 420.941 514.455 421.841 513.554 422.541C512.354 423.441 510.854 424.041 509.354 424.442C508.453 424.642 507.353 424.642 506.653 423.941C506.053 423.241 506.153 422.141 506.753 421.341C507.353 420.641 508.153 420.141 509.054 419.841C512.354 418.54 515.855 417.94 518.856 416.04C522.456 413.639 524.557 409.238 524.257 404.938C524.157 403.837 523.756 402.537 522.756 402.237C522.156 402.037 521.456 402.237 520.856 402.437C518.756 403.337 517.255 405.338 515.555 406.938C513.855 408.538 511.354 409.739 509.254 408.838C510.754 404.638 515.655 403.537 519.156 401.237ZM492.95 429.843C490.15 429.042 487.649 427.242 486.049 424.842C485.749 424.442 485.549 423.941 485.749 423.441C485.849 423.141 486.249 422.941 486.549 422.841C488.749 422.041 491.15 423.541 492.95 425.042C493.851 425.742 494.751 426.642 494.951 427.742C495.051 428.942 494.051 430.143 492.95 429.843ZM502.852 403.237C502.652 403.937 501.852 404.438 501.152 404.137C498.051 402.237 497.151 400.637 495.951 397.236C495.651 396.536 495.451 395.636 495.951 394.936C496.451 394.335 497.251 394.335 498.051 394.436C500.852 395.136 502.152 398.236 502.752 401.037C502.952 401.837 503.052 402.537 502.852 403.237ZM510.854 411.139C511.654 410.939 512.554 410.839 513.054 411.439C513.554 412.039 513.254 412.939 512.854 413.539C511.254 416.34 508.053 418.14 504.853 418.04C503.953 418.04 502.652 417.44 502.952 416.54C505.053 413.539 507.353 412.139 510.854 411.139Z" fill="#8CAD59"/>
<path d="M519.055 470.451C521.656 482.853 517.255 496.556 507.753 504.858C507.153 505.358 506.353 505.658 505.552 505.658H479.247C478.447 505.658 477.647 505.358 477.047 504.858C467.545 496.456 463.044 482.753 465.744 470.451C466.044 468.95 467.445 467.95 468.945 467.95H515.955C517.355 467.95 518.755 468.95 519.055 470.451Z" fill="#F95F8F"/>
<path opacity="0.25" d="M476.947 504.858C477.547 505.358 478.347 505.658 479.147 505.658H505.452C506.253 505.658 507.053 505.358 507.653 504.858C510.954 501.957 513.654 498.356 515.655 494.456C483.848 494.756 469.845 479.253 465.244 472.451C463.544 484.254 467.945 496.956 476.947 504.858Z" fill="url(#paint12_linear)"/>
<path opacity="0.4" d="M733.199 224.101C733.199 224.101 728.098 226.001 723.697 226.402C723.697 226.402 706.893 276.012 702.092 276.712C702.092 276.712 699.192 281.113 693.891 276.712C688.59 272.311 663.885 247.706 663.885 247.706C663.885 247.706 690.49 271.711 694.591 273.411C694.591 273.411 695.691 274.211 697.091 272.311C698.492 270.31 702.192 266.21 706.093 255.107C706.093 255.107 717.996 224.401 717.996 222.201C717.996 222.201 731.698 224.001 733.199 224.101Z" fill="url(#paint13_linear)"/>
<path d="M663.384 287.214C670.086 285.713 676.887 284.713 683.788 283.913C690.59 283.113 697.491 282.713 704.393 282.513C711.294 282.413 718.195 282.713 724.997 283.313C731.798 284.013 738.599 285.313 745.301 287.114C741.9 286.514 738.599 285.613 735.199 285.213C731.798 284.613 728.397 284.313 724.997 284.013C718.195 283.513 711.294 283.313 704.493 283.413C697.591 283.513 690.79 283.913 683.988 284.513C680.588 284.813 677.187 285.213 673.786 285.613C670.186 286.214 666.785 286.714 663.384 287.214Z" fill="url(#paint14_linear)"/>
<path d="M682.588 163.489C683.088 164.589 683.789 165.489 684.689 166.289C685.489 167.09 686.389 167.79 687.489 168.29C689.59 169.29 691.89 169.69 694.091 169.49C696.391 169.39 698.692 168.79 700.692 167.79C701.692 167.29 702.692 166.69 703.593 165.889C704.493 165.189 705.293 164.289 705.993 163.389C704.893 165.489 703.093 167.19 700.992 168.39C698.892 169.59 696.491 170.19 694.091 170.39C691.69 170.59 689.19 170.09 686.989 168.89C684.889 167.69 683.289 165.789 682.588 163.489Z" fill="url(#paint15_linear)"/>
<path opacity="0.39" d="M631.478 216C631.478 216 638.579 213.399 639.78 208.098L638.379 216.7C638.379 216.7 690.99 271.111 695.491 273.511C695.491 273.511 696.491 276.312 683.589 265.209L660.884 244.905C660.884 244.905 632.778 217.9 631.478 216Z" fill="url(#paint16_linear)"/>
<path d="M699.892 217.9C699.892 217.9 712.294 218.1 717.995 222.201L719.395 217.9C719.395 217.9 709.093 213.199 701.292 213.599L699.892 217.9Z" fill="url(#paint17_linear)"/>
<path opacity="0.39" d="M563.464 183.793C563.464 183.793 563.664 188.194 562.164 190.294C562.164 190.294 604.073 245.205 613.374 250.406C613.374 250.406 591.47 236.304 557.063 190.794C557.163 190.794 563.264 188.294 563.464 183.793Z" fill="url(#paint18_linear)"/>
<path opacity="0.39" d="M371.425 161.488C371.425 161.488 370.425 162.189 367.525 161.788L349.521 210.398L365.724 157.588C365.724 157.588 368.225 161.188 371.425 161.488Z" fill="url(#paint19_linear)"/>
<path opacity="0.25" d="M738.899 293.815C738.899 293.815 676.187 295.616 667.185 304.417L669.185 294.215C669.185 294.115 707.493 286.814 738.899 293.815Z" fill="url(#paint20_linear)"/>
<path opacity="0.34" d="M322.115 313.719C322.115 313.719 276.606 326.922 277.006 339.224C277.006 339.224 272.005 331.623 273.206 323.021C273.106 323.121 292.409 316.12 322.115 313.719Z" fill="url(#paint21_linear)"/>
<path d="M710.394 168.09C710.394 168.09 690.49 195.195 691.09 204.497L702.792 206.098C702.792 206.098 698.091 192.895 710.394 168.09Z" fill="url(#paint22_linear)"/>
<path d="M661.284 189.094C661.284 189.094 652.882 182.693 650.582 182.393C650.582 182.393 666.085 169.59 673.987 168.09C674.087 168.09 659.484 181.593 661.284 189.094Z" fill="url(#paint23_linear)"/>
<path d="M663.384 190.794C664.485 191.695 665.485 192.695 666.485 193.795C667.485 194.895 668.385 195.895 669.185 197.096C668.085 196.196 667.085 195.195 666.085 194.095C665.185 193.095 664.184 191.995 663.384 190.794Z" fill="url(#paint24_linear)"/>
<path d="M680.488 168.09C680.488 168.09 682.288 171.491 685.489 171.891C685.489 171.891 672.686 221.001 672.786 227.402C672.686 227.402 675.787 183.393 680.488 168.09Z" fill="url(#paint25_linear)"/>
<path d="M641.78 211.499L687.989 248.906L640.68 215.199L641.78 211.499Z" fill="url(#paint26_linear)"/>
<path d="M692.89 247.206L700.792 220.2L704.292 221.3L692.89 247.206Z" fill="#DBDBDB"/>
<path d="M565.365 187.094V190.294L605.573 232.203L565.365 187.094Z" fill="#DBDBDB"/>
<path opacity="0.39" d="M691.09 151.487C691.09 151.487 696.291 151.086 697.891 148.286L691.19 157.188L691.09 151.487Z" fill="url(#paint27_linear)"/>
<path d="M701.492 304.317L698.991 325.021L696.391 345.725L690.99 387.134L690.59 386.634L697.991 388.134L699.091 388.334L698.091 388.934L692.99 392.335L692.89 391.535L697.891 394.035L698.091 394.135L698.191 394.335C701.792 403.437 705.293 412.639 708.793 421.741C712.294 430.843 715.795 440.045 719.195 449.246C715.495 440.145 711.794 431.043 708.193 421.941C704.592 412.839 700.892 403.737 697.291 394.635L697.491 394.835L692.39 392.335L691.69 391.935L692.39 391.435L697.391 388.034L697.591 388.934L690.19 387.434L689.689 387.334L689.789 386.834L695.391 345.425L698.291 324.721L701.492 304.317Z" fill="white"/>
<g opacity="0.25">
<path opacity="0.25" d="M716.695 463.349C717.996 463.949 719.296 464.65 720.496 465.45C721.696 466.15 722.897 466.95 724.097 467.75C726.397 469.351 728.698 471.151 730.798 473.051L730.198 472.951C731.198 472.851 732.098 472.651 733.099 472.551C734.099 472.451 734.999 472.351 735.999 472.351C735.099 472.751 734.199 473.151 733.299 473.451C732.398 473.751 731.498 474.052 730.498 474.352L730.198 474.452L729.798 474.252C727.397 472.751 725.097 471.051 722.897 469.251C721.796 468.35 720.696 467.45 719.696 466.45C718.596 465.45 717.595 464.45 716.695 463.349Z" fill="url(#paint28_linear)"/>
</g>
<g opacity="0.25">
<path opacity="0.25" d="M696.391 474.552C698.091 477.052 699.692 479.553 701.192 482.153C702.792 484.754 704.293 487.254 705.793 489.855L704.893 489.355C707.693 489.054 710.594 488.854 713.395 488.654C716.195 488.454 719.096 488.254 721.896 488.154C724.697 487.954 727.597 487.854 730.398 487.754C733.199 487.654 736.099 487.654 738.9 487.654C736.099 488.154 733.299 488.554 730.498 488.854C727.697 489.255 724.897 489.555 721.996 489.755C719.196 490.055 716.295 490.255 713.495 490.555C710.694 490.755 707.793 490.955 704.993 491.155H704.393L704.093 490.655C702.692 488.054 701.392 485.354 700.092 482.653C698.792 479.953 697.491 477.252 696.391 474.552Z" fill="url(#paint29_linear)"/>
</g>
<g opacity="0.25">
<path opacity="0.25" d="M643.18 484.954C644.18 484.053 645.281 483.353 646.381 482.753C647.481 482.153 648.681 481.553 649.882 481.053C651.082 480.553 652.282 480.153 653.482 479.753C654.682 479.352 655.983 479.052 657.283 478.952C656.283 479.853 655.183 480.553 654.082 481.153C652.982 481.753 651.782 482.353 650.582 482.853C649.381 483.353 648.181 483.753 646.981 484.153C645.781 484.554 644.48 484.854 643.18 484.954Z" fill="url(#paint30_linear)"/>
</g>
<g opacity="0.25">
<path opacity="0.25" d="M657.283 495.256C659.084 494.656 660.884 494.256 662.684 493.956C664.485 493.655 666.385 493.355 668.185 493.255C669.986 493.055 671.886 492.955 673.687 492.955C675.587 492.955 677.387 492.955 679.288 493.255C677.487 493.855 675.687 494.256 673.887 494.556C672.086 494.856 670.186 495.156 668.385 495.256C666.585 495.456 664.685 495.556 662.884 495.556C660.984 495.556 659.184 495.456 657.283 495.256Z" fill="url(#paint31_linear)"/>
</g>
<path d="M391.229 337.824C391.229 340.825 390.029 343.325 388.429 343.725C388.229 343.725 388.129 343.825 387.929 343.825C386.128 343.825 384.728 341.125 384.728 337.824C384.728 334.523 386.128 331.823 387.929 331.823C388.129 331.823 388.229 331.823 388.429 331.923C390.029 332.323 391.229 334.823 391.229 337.824Z" fill="white" stroke="#DBDBDB" stroke-miterlimit="10"/>
<path d="M498.351 337.824C498.351 341.125 496.951 343.825 495.15 343.825H388.429V343.725C390.029 343.325 391.229 340.825 391.229 337.824C391.229 334.823 390.029 332.323 388.429 331.923V331.823H495.05C496.85 331.823 498.351 334.523 498.351 337.824Z" fill="white" stroke="#DBDBDB" stroke-miterlimit="10"/>
<path d="M509.753 337.824C509.753 340.825 508.553 343.325 506.953 343.725C506.753 343.725 506.653 343.825 506.453 343.825C504.652 343.825 503.252 341.125 503.252 337.824C503.252 334.523 504.652 331.823 506.453 331.823C506.653 331.823 506.753 331.823 506.953 331.923C508.553 332.323 509.753 334.823 509.753 337.824Z" fill="white" stroke="#DBDBDB" stroke-miterlimit="10"/>
<path d="M616.875 337.824C616.875 341.125 615.475 343.825 613.675 343.825H506.953V343.725C508.553 343.325 509.754 340.825 509.754 337.824C509.754 334.823 508.553 332.323 506.953 331.923V331.823H613.575C615.375 331.823 616.875 334.523 616.875 337.824Z" fill="white" stroke="#DBDBDB" stroke-miterlimit="10"/>
<path d="M587.569 98.2759L587.669 100.276H587.469V98.2759H587.569Z" fill="#C6C6C6"/>
<path d="M587.669 102.277V104.377H587.369V102.277H587.669Z" fill="#C6C6C6"/>
<path d="M587.769 106.377V108.378H587.269L587.369 106.377H587.769Z" fill="#C6C6C6"/>
<path d="M587.769 110.378L587.869 112.479H587.269V110.378H587.769Z" fill="#C6C6C6"/>
<path d="M587.869 114.479V116.479H587.169L587.269 114.479H587.869Z" fill="#C6C6C6"/>
<path d="M587.869 118.48V120.58H587.169V118.48H587.869Z" fill="#C6C6C6"/>
<path d="M587.969 122.581V124.581H587.169V122.581H587.969Z" fill="#C6C6C6"/>
<path d="M587.969 126.582V128.682H587.069V126.582H587.969Z" fill="#C6C6C6"/>
<path d="M587.969 130.682V132.683H587.069V130.682H587.969Z" fill="#C6C6C6"/>
<path d="M587.969 134.683V136.784H587.069V134.683H587.969Z" fill="#C6C6C6"/>
<path d="M587.969 138.784V139.784L587.569 139.284H588.569V140.284H587.569H587.069V139.784V138.784H587.969Z" fill="#C6C6C6"/>
<path d="M590.569 139.284H592.67V140.284H590.569V139.284Z" fill="#C6C6C6"/>
<path d="M594.771 139.284H596.771V140.284H594.771V139.284Z" fill="#C6C6C6"/>
<path d="M598.871 139.284H600.971V140.284H598.871V139.284Z" fill="#C6C6C6"/>
<path d="M602.972 139.284H605.073V140.284H602.972V139.284Z" fill="#C6C6C6"/>
<path d="M607.173 139.284H609.173V140.284H607.173V139.284Z" fill="#C6C6C6"/>
<path d="M611.274 139.284L613.374 139.384V140.184H611.274V139.284Z" fill="#C6C6C6"/>
<path d="M615.375 139.384H617.475V140.184H615.375V139.384Z" fill="#C6C6C6"/>
<path d="M619.575 139.384H621.576V140.184H619.575V139.384Z" fill="#C6C6C6"/>
<path d="M623.676 139.384H625.777V140.184H623.676V139.384Z" fill="#C6C6C6"/>
<path d="M627.777 139.484H629.878V140.084H627.777V139.484Z" fill="#C6C6C6"/>
<path d="M631.978 139.484H633.978V140.084H631.978V139.484Z" fill="#C6C6C6"/>
<path d="M636.079 139.584H638.179V139.984H636.079V139.584Z" fill="#C6C6C6"/>
<path d="M640.28 139.584L642.28 139.684V139.884L640.28 139.984V139.584Z" fill="#C6C6C6"/>
<path d="M644.38 139.684H646.481V139.884H644.38V139.684Z" fill="#C6C6C6"/>
<path d="M500.852 195.395H470.445V217H500.852V195.395Z" fill="#A5A5A5"/>
<path d="M485.649 134.583H447.841V168.09H453.742" stroke="#C6C6C6" stroke-miterlimit="10" stroke-dasharray="2 2"/>
<path d="M404.532 122.281H409.233V248.906H399.131" stroke="#C6C6C6" stroke-miterlimit="10" stroke-dasharray="2 2"/>
<path d="M502.452 204.497H525.857V213.599" stroke="#C6C6C6" stroke-miterlimit="10" stroke-dasharray="2 2"/>
<path d="M512.654 150.186V183.793H485.648V193.895" stroke="#C6C6C6" stroke-miterlimit="10" stroke-dasharray="2 2"/>
<path d="M370.125 166.49L362.224 210.398" stroke="url(#paint32_linear)" stroke-miterlimit="10"/>
<path d="M281.507 175.791C281.507 175.791 267.104 181.092 268.505 190.694" stroke="url(#paint33_linear)" stroke-miterlimit="10"/>
<path d="M685.489 119.48C684.288 121.48 683.288 123.481 682.788 125.681C682.488 126.781 682.388 127.882 682.388 128.982C682.288 130.082 682.488 131.182 682.588 132.383C682.088 131.382 681.688 130.182 681.588 128.982C681.488 128.382 681.588 127.782 681.588 127.182C681.688 126.581 681.688 125.981 681.888 125.381C682.188 124.181 682.588 123.081 683.288 122.081C683.788 121.08 684.589 120.18 685.489 119.48Z" fill="url(#paint34_linear)"/>
<path d="M693.291 134.283C695.391 133.983 697.391 134.083 699.492 134.183C701.492 134.383 703.593 134.583 705.593 135.083C703.492 135.383 701.492 135.283 699.392 135.183C697.291 135.083 695.291 134.783 693.291 134.283Z" fill="url(#paint35_linear)"/>
<path d="M279.307 224.201C279.307 224.201 300.011 254.607 318.415 263.009L311.314 242.405C311.314 242.405 292.31 237.004 279.307 224.201Z" fill="url(#paint36_linear)"/>
<path d="M266.904 313.719C266.904 313.719 305.612 299.516 324.316 303.417L266.904 313.719Z" fill="url(#paint37_linear)"/>
<path d="M267.005 227.902C267.005 227.902 262.704 301.717 292.61 307.318L260.503 317.02L266.505 228.202L267.005 227.902Z" fill="url(#paint38_linear)"/>
<path d="M280.607 474.052L284.808 477.352L299.411 466.45" stroke="url(#paint39_linear)" stroke-miterlimit="10"/>
<path d="M236.398 471.851L238.899 477.352L249.101 468.35" stroke="url(#paint40_linear)" stroke-miterlimit="10"/>
<path d="M278.307 486.354L309.613 489.355L316.114 474.052" stroke="url(#paint41_linear)" stroke-miterlimit="10"/>
<path d="M242.7 480.153L266.304 483.053" stroke="url(#paint42_linear)" stroke-miterlimit="10"/>
<path d="M258.903 47.4655C252.702 51.1663 245.8 53.9669 238.199 55.7672C221.095 59.868 201.491 59.1679 179.987 53.7668C124.876 39.764 103.272 62.8686 70.5649 97.7757C50.3609 119.28 25.3558 146.085 -14.5522 169.89C-43.9582 187.394 -87.2669 205.397 -126.975 191.695C-150.78 183.493 -162.082 167.49 -162.182 167.29C-162.482 166.89 -162.382 166.389 -161.982 166.089C-161.582 165.789 -161.082 165.889 -160.782 166.289C-160.682 166.49 -149.579 182.093 -126.275 190.094C-87.2669 203.497 -44.4583 185.693 -15.3524 168.39C24.3556 144.785 49.3607 118.08 69.4647 96.5754C101.371 62.4686 124.376 37.8636 180.587 52.0665C201.891 57.4676 221.195 58.1677 237.999 54.0669C254.002 50.2661 267.005 42.0645 275.706 30.3621C296.11 2.95657 291.91 -39.652 264.004 -86.4614C263.804 -86.8615 263.904 -87.3616 264.304 -87.6617C264.704 -87.9617 265.204 -87.7617 265.504 -87.3616C293.81 -39.852 298.011 3.35666 277.107 31.3623C272.006 37.8636 266.004 43.1647 258.903 47.4655Z" fill="#2B9EAA" fill-opacity="0.2"/>
<path d="M847.321 490.055C850.622 488.154 854.323 486.654 858.324 485.654C867.425 483.453 877.828 483.853 889.23 486.754C918.536 494.156 929.938 481.953 947.342 463.349C958.044 451.947 971.346 437.644 992.551 425.042C1008.15 415.74 1031.16 406.238 1052.26 413.439C1064.87 417.84 1070.87 426.242 1070.97 426.342C1071.07 426.542 1071.07 426.842 1070.87 426.942C1070.67 427.042 1070.37 427.042 1070.27 426.842C1070.17 426.742 1064.37 418.44 1051.96 414.24C1031.26 407.138 1008.55 416.54 993.051 425.742C971.947 438.244 958.744 452.447 948.042 463.849C931.138 481.953 918.836 495.056 889.03 487.454C877.728 484.554 867.425 484.254 858.524 486.354C850.022 488.354 843.121 492.755 838.52 498.957C827.617 513.459 829.918 536.064 844.721 560.969C844.821 561.169 844.821 561.469 844.521 561.569C844.221 561.669 844.021 561.669 843.921 561.369C828.918 536.164 826.617 513.159 837.72 498.356C840.32 495.156 843.521 492.255 847.321 490.055Z" fill="#2B9EAA" fill-opacity="0.2"/>
<path d="M43.7593 111.879C47.7601 107.878 54.1614 107.878 58.1622 111.779C62.163 115.779 68.5643 115.679 72.5651 111.679C76.5659 107.678 82.9672 107.678 86.968 111.579C90.9688 115.579 97.3701 115.479 101.371 111.479C105.372 107.478 111.773 107.478 115.774 111.379" stroke="black" stroke-width="1.75" stroke-miterlimit="10" stroke-linecap="round"/>
<path d="M912.635 464.05C915.735 460.949 920.736 460.949 923.837 463.949C926.938 467.05 931.939 466.95 935.039 463.849C938.14 460.749 943.141 460.749 946.242 463.749C949.342 466.85 954.343 466.75 957.444 463.649C960.544 460.549 965.545 460.549 968.646 463.549" stroke="black" stroke-width="1.75" stroke-miterlimit="10" stroke-linecap="round"/>
<path d="M1013.16 169.09C1007.35 171.49 1001.95 172.491 996.752 172.191C983.349 171.29 972.447 160.788 964.245 141.084C954.043 116.579 940.34 100.376 922.437 91.7744C907.034 84.2729 891.231 83.6728 877.328 83.0727C858.324 82.2725 843.421 81.5724 840.62 63.1687C839.52 55.6672 840.82 49.4659 844.821 44.3649C855.623 30.262 883.529 27.0614 915.835 23.2606C960.044 18.0596 1010.05 12.2584 1025.06 -24.1489L1026.16 -23.6488C1010.85 13.3586 960.545 19.2598 916.036 24.3609C885.329 27.9616 856.323 31.2622 845.821 44.965C842.121 49.766 840.82 55.6672 841.921 62.8686C844.521 80.3721 858.324 80.9723 877.428 81.7724C904.733 82.9727 942.041 84.573 965.346 140.584C973.347 159.888 983.949 170.09 996.852 170.89C1035.26 173.491 1082.77 92.9747 1083.27 92.1745L1084.27 92.7746C1084.17 92.9747 1072.17 113.479 1055.46 133.383C1040.06 151.887 1025.96 163.789 1013.16 169.09Z" fill="#2B9EAA" fill-opacity="0.2"/>
<path d="M937.74 164.389C934.839 164.389 932.438 161.989 932.438 159.088C932.438 156.187 934.839 153.787 937.74 153.787C953.343 153.787 966.045 141.084 966.045 125.481C966.045 122.581 968.446 120.18 971.346 120.18C974.247 120.18 976.647 122.581 976.647 125.481C976.647 146.986 959.144 164.389 937.74 164.389ZM971.346 121.38C969.046 121.38 967.146 123.281 967.146 125.581C967.146 141.685 954.043 154.887 937.84 154.887C935.539 154.887 933.639 156.788 933.639 159.088C933.639 161.389 935.539 163.289 937.84 163.289C958.644 163.289 975.647 146.385 975.647 125.481C975.547 123.281 973.647 121.38 971.346 121.38Z" fill="black"/>
<path d="M932.439 160.688C910.534 160.688 892.631 142.885 892.631 120.88C892.631 98.9759 910.434 81.0723 932.439 81.0723C954.343 81.0723 972.247 98.8759 972.247 120.88C972.247 122.081 972.147 123.381 972.047 124.581C972.047 124.881 971.747 125.081 971.447 125.081C971.147 125.081 970.947 124.781 970.947 124.481C971.047 123.281 971.147 122.081 971.147 120.88C971.147 99.476 953.743 82.1725 932.439 82.1725C911.035 82.1725 893.731 99.576 893.731 120.88C893.731 142.185 911.135 159.588 932.439 159.588C932.639 159.588 932.839 159.588 933.039 159.588C933.339 159.588 933.539 159.788 933.539 160.088C933.539 160.388 933.339 160.588 933.039 160.588C932.839 160.688 932.639 160.688 932.439 160.688Z" fill="black"/>
<path d="M83.5677 506.858C83.5677 509.659 83.2677 512.559 82.5675 515.36C80.8672 522.461 77.1664 529.463 71.5653 536.264C61.8633 547.866 47.4604 557.068 47.3604 557.168L47.1604 556.768C47.2604 556.668 61.6633 547.466 71.2653 535.964C76.8664 529.263 80.5671 522.261 82.1674 515.26C84.1678 506.458 83.0676 497.656 78.6667 488.954C71.0652 473.651 57.9626 470.851 45.36 468.15C35.9581 466.15 26.2562 464.049 18.9547 456.748C10.8531 448.646 6.75224 434.744 6.35216 414.239C4.95188 338.424 -27.4547 338.424 -48.959 338.424V337.924C-27.3546 337.924 5.35196 337.924 6.75224 414.239C7.15232 434.644 11.2532 448.446 19.2548 456.448C26.4562 463.649 36.0582 465.75 45.46 467.75C58.1626 470.451 71.3653 473.351 79.0668 488.754C82.0674 494.756 83.5677 500.857 83.5677 506.858Z" fill="#EDEDED"/>
<path d="M47.2603 557.368L46.8602 556.668L46.9602 556.568C47.0602 556.468 61.3631 547.366 71.0651 535.764C76.6662 529.063 80.3669 522.061 81.9673 515.06C83.9677 506.358 82.8674 497.556 78.5666 488.854C70.965 473.651 57.9624 470.851 45.3599 468.15C35.958 466.15 26.156 464.049 18.8545 456.748C10.7529 448.546 6.55206 434.644 6.15197 414.139C4.75169 338.424 -27.5548 338.424 -48.9591 338.424H-49.1592V337.624H-48.9591C-27.2548 337.624 5.55185 337.624 6.95213 414.039C7.35221 434.343 11.353 448.146 19.3546 456.148C26.4561 463.249 36.158 465.35 45.4599 467.35C58.2625 470.151 71.4651 472.951 79.1667 488.454C82.1673 494.456 83.6676 500.557 83.6676 506.558C83.6676 509.359 83.3676 512.259 82.6674 515.06C80.9671 522.161 77.2663 529.263 71.5652 536.064C61.9632 547.566 47.4603 556.868 47.2603 556.968V557.368ZM47.2603 556.868C48.8606 555.968 62.1633 547.166 71.3651 536.164C77.0663 529.363 80.767 522.361 82.3673 515.36C83.0675 512.559 83.3675 509.759 83.3675 506.858C83.3675 500.857 81.8672 494.756 78.8666 488.854C71.1651 473.451 58.0624 470.651 45.3599 467.85C35.958 465.85 26.356 463.749 19.0546 456.548C10.9529 448.446 6.85212 434.644 6.55206 414.239C5.15178 338.324 -27.2548 338.124 -48.8591 338.124V338.224C-27.3548 338.224 5.05175 338.424 6.45203 414.239C6.85212 434.644 10.9529 448.546 19.0546 456.648C26.256 463.849 35.958 465.95 45.3599 468.05C58.0624 470.751 71.1651 473.651 78.7666 488.954C83.1675 497.656 84.2677 506.558 82.2673 515.36C80.667 522.361 76.9663 529.363 71.2651 536.164C62.2633 546.966 48.7606 555.868 47.2603 556.868Z" fill="#2B9EAA" fill-opacity="0.2"/>
<path d="M13.8535 502.057C13.1533 502.057 12.5532 501.757 12.0531 501.257C11.1529 500.357 9.75264 500.357 8.95248 501.257C8.45238 501.757 7.85226 502.057 7.15212 502.057C6.45198 502.057 5.85186 501.757 5.35175 501.257C4.45157 500.357 3.05129 500.357 2.25113 501.257C2.15111 501.357 2.05109 501.357 2.05109 501.257C1.95107 501.157 1.95107 501.057 2.05109 501.057C3.05129 500.057 4.65161 500.057 5.65181 501.057C6.05189 501.457 6.65202 501.657 7.25214 501.657C7.85226 501.657 8.35236 501.457 8.85246 501.057C9.85266 500.057 11.453 500.057 12.4532 501.057C12.8533 501.457 13.4534 501.657 14.0535 501.657C14.6536 501.657 15.1537 501.457 15.6538 501.057C16.654 500.057 18.2544 500.057 19.2546 501.057C19.3546 501.157 19.3546 501.257 19.2546 501.257C19.1545 501.357 19.0545 501.357 19.0545 501.257C18.1543 500.357 16.7541 500.357 15.9539 501.257C15.1537 501.757 14.4536 502.057 13.8535 502.057Z" fill="black"/>
<path d="M13.8535 504.658C13.1533 504.658 12.5532 504.358 12.0531 503.858C11.1529 502.957 9.75264 502.957 8.95248 503.858C8.45238 504.358 7.85226 504.658 7.15212 504.658C6.45198 504.658 5.85186 504.358 5.35175 503.858C4.45157 502.957 3.05129 502.957 2.25113 503.858C2.15111 503.958 2.05109 503.958 2.05109 503.858C1.95107 503.758 1.95107 503.658 2.05109 503.658C3.05129 502.657 4.65161 502.657 5.65181 503.658C6.05189 504.058 6.65202 504.258 7.25214 504.258C7.85226 504.258 8.35236 504.058 8.85246 503.658C9.85266 502.657 11.453 502.657 12.4532 503.658C12.8533 504.058 13.4534 504.258 14.0535 504.258C14.6536 504.258 15.1537 504.058 15.6538 503.658C16.654 502.657 18.2544 502.657 19.2546 503.658C19.3546 503.758 19.3546 503.858 19.2546 503.858C19.1545 503.958 19.0545 503.958 19.0545 503.858C18.1543 502.957 16.7541 502.957 15.9539 503.858C15.1537 504.358 14.4536 504.658 13.8535 504.658Z" fill="black"/>
<path d="M7.05202 507.258C6.35188 507.258 5.75176 506.958 5.25166 506.458C4.35148 505.558 2.95119 505.558 2.15103 506.458C2.05101 506.558 1.95099 506.558 1.95099 506.458C1.85097 506.358 1.85097 506.258 1.95099 506.258C2.95119 505.258 4.55152 505.258 5.55172 506.258C6.4519 507.158 7.85218 507.158 8.65234 506.258C9.65255 505.258 11.2529 505.258 12.2531 506.258C12.6532 506.658 13.2533 506.858 13.8534 506.858C14.4535 506.858 14.9536 506.658 15.4537 506.258C16.4539 505.258 18.0542 505.258 19.0544 506.258C19.1545 506.358 19.1545 506.458 19.0544 506.458C18.9544 506.558 18.8544 506.558 18.8544 506.458C17.9542 505.558 16.5539 505.558 15.7538 506.458C14.7536 507.458 13.1533 507.458 12.1531 506.458C11.753 506.058 11.1529 505.858 10.5527 505.858C9.95261 505.858 9.45251 506.058 8.9524 506.458C8.35228 506.958 7.75216 507.258 7.05202 507.258Z" fill="black"/>
<path d="M7.05202 509.959C6.35188 509.959 5.75176 509.659 5.25166 509.259C4.85158 508.859 4.25146 508.659 3.75136 508.659C3.15124 508.659 2.65113 508.859 2.15103 509.359C2.05101 509.459 1.95099 509.459 1.95099 509.359C1.85097 509.259 1.85097 509.159 1.95099 509.159C2.45109 508.659 3.05122 508.359 3.75136 508.359C4.4515 508.359 5.05162 508.659 5.55172 509.059C5.9518 509.459 6.55192 509.659 7.05202 509.659C7.65214 509.659 8.15224 509.459 8.65234 508.959C9.65254 507.958 11.2529 507.958 12.2531 508.959C13.1532 509.859 14.5535 509.759 15.3537 508.959C16.3539 507.958 17.9542 507.958 18.9544 508.959C19.0544 509.059 19.0544 509.159 18.9544 509.159C18.8544 509.259 18.7544 509.259 18.7544 509.159C17.8542 508.259 16.4539 508.359 15.6538 509.159C14.6536 510.159 13.0532 510.159 12.053 509.159C11.1528 508.259 9.75256 508.359 8.9524 509.159C8.35228 509.659 7.75216 509.959 7.05202 509.959Z" fill="black"/>
<path d="M-0.249512 481.353L33.5573 428.742L67.4641 481.353H-0.249512Z" fill="#A7CC80"/>
<path d="M-6.85074 481.453C-6.95076 481.453 -7.05078 481.353 -7.05078 481.253C-7.05078 481.153 -6.95076 481.053 -6.85074 481.053H73.9655C74.0656 481.053 74.1656 481.153 74.1656 481.253C74.1656 481.353 74.0656 481.453 73.9655 481.453H-6.85074Z" fill="black"/>
</g>
</g>
<defs>
<linearGradient id="paint0_linear" x1="458.044" y1="151.648" x2="521.146" y2="151.648" gradientUnits="userSpaceOnUse">
<stop stop-color="#231F20" stop-opacity="0"/>
<stop offset="1" stop-color="#231F20" stop-opacity="0.3"/>
</linearGradient>
<linearGradient id="paint1_linear" x1="438.868" y1="222.221" x2="501.97" y2="222.221" gradientUnits="userSpaceOnUse">
<stop stop-color="#231F20" stop-opacity="0"/>
<stop offset="1" stop-color="#231F20" stop-opacity="0.3"/>
</linearGradient>
<linearGradient id="paint2_linear" x1="704.251" y1="176.353" x2="739.545" y2="207.295" gradientUnits="userSpaceOnUse">
<stop stop-color="#8DC63F" stop-opacity="0.7"/>
<stop offset="0.1836" stop-color="#6EB13D" stop-opacity="0.7551"/>
<stop offset="0.5671" stop-color="#338A3B" stop-opacity="0.8701"/>
<stop offset="0.8503" stop-color="#0E7139" stop-opacity="0.9551"/>
<stop offset="1" stop-color="#006838"/>
</linearGradient>
<linearGradient id="paint3_linear" x1="622.128" y1="178.2" x2="616.619" y2="178.788" gradientUnits="userSpaceOnUse">
<stop stop-color="white" stop-opacity="0.5"/>
<stop offset="1" stop-color="white"/>
</linearGradient>
<linearGradient id="paint4_linear" x1="622.49" y1="185.556" x2="619.054" y2="184.297" gradientUnits="userSpaceOnUse">
<stop stop-color="white" stop-opacity="0.5"/>
<stop offset="1" stop-color="white"/>
</linearGradient>
<linearGradient id="paint5_linear" x1="639.866" y1="199.299" x2="624.483" y2="193.663" gradientUnits="userSpaceOnUse">
<stop stop-color="white" stop-opacity="0.5"/>
<stop offset="1" stop-color="white"/>
</linearGradient>
<linearGradient id="paint6_linear" x1="610.487" y1="189.812" x2="606.651" y2="188.406" gradientUnits="userSpaceOnUse">
<stop stop-color="white" stop-opacity="0.5"/>
<stop offset="1" stop-color="white"/>
</linearGradient>
<linearGradient id="paint7_linear" x1="306.168" y1="209.542" x2="302.082" y2="239.123" gradientUnits="userSpaceOnUse">
<stop stop-color="#8DC63F" stop-opacity="0.7"/>
<stop offset="0.1836" stop-color="#6EB13D" stop-opacity="0.7551"/>
<stop offset="0.5671" stop-color="#338A3B" stop-opacity="0.8701"/>
<stop offset="0.8503" stop-color="#0E7139" stop-opacity="0.9551"/>
<stop offset="1" stop-color="#006838"/>
</linearGradient>
<linearGradient id="paint8_linear" x1="287.792" y1="209.759" x2="305.574" y2="242.73" gradientUnits="userSpaceOnUse">
<stop stop-color="#F7941D" stop-opacity="0.7"/>
<stop offset="1" stop-color="#F7941D"/>
</linearGradient>
<linearGradient id="paint9_linear" x1="278.828" y1="265.18" x2="295.343" y2="265.18" gradientUnits="userSpaceOnUse">
<stop stop-color="#F7941D"/>
<stop offset="1" stop-color="#F7941D" stop-opacity="0.1"/>
</linearGradient>
<linearGradient id="paint10_linear" x1="273.166" y1="199.791" x2="285.485" y2="199.791" gradientUnits="userSpaceOnUse">
<stop stop-color="#603913"/>
<stop offset="1" stop-color="#603913" stop-opacity="0.1"/>
</linearGradient>
<linearGradient id="paint11_linear" x1="316.049" y1="222.5" x2="364.802" y2="222.5" gradientUnits="userSpaceOnUse">
<stop stop-color="#603913"/>
<stop offset="1" stop-color="#603913" stop-opacity="0.1"/>
</linearGradient>
<linearGradient id="paint12_linear" x1="464.916" y1="489.017" x2="515.734" y2="489.017" gradientUnits="userSpaceOnUse">
<stop stop-color="#1C75BC"/>
<stop offset="1" stop-color="#1C75BC" stop-opacity="0.1"/>
</linearGradient>
<linearGradient id="paint13_linear" x1="663.894" y1="250.426" x2="733.162" y2="250.426" gradientUnits="userSpaceOnUse">
<stop stop-color="#8DC63F" stop-opacity="0.7"/>
<stop offset="0.1836" stop-color="#6EB13D" stop-opacity="0.7551"/>
<stop offset="0.5671" stop-color="#338A3B" stop-opacity="0.8701"/>
<stop offset="0.8503" stop-color="#0E7139" stop-opacity="0.9551"/>
<stop offset="1" stop-color="#006838"/>
</linearGradient>
<linearGradient id="paint14_linear" x1="663.283" y1="284.873" x2="745.378" y2="284.873" gradientUnits="userSpaceOnUse">
<stop stop-color="#8DC63F" stop-opacity="0.7"/>
<stop offset="0.1836" stop-color="#6EB13D" stop-opacity="0.7551"/>
<stop offset="0.5671" stop-color="#338A3B" stop-opacity="0.8701"/>
<stop offset="0.8503" stop-color="#0E7139" stop-opacity="0.9551"/>
<stop offset="1" stop-color="#006838"/>
</linearGradient>
<linearGradient id="paint15_linear" x1="682.07" y1="167.02" x2="706.45" y2="167.02" gradientUnits="userSpaceOnUse">
<stop stop-color="#8DC63F" stop-opacity="0.7"/>
<stop offset="0.1836" stop-color="#6EB13D" stop-opacity="0.7551"/>
<stop offset="0.5671" stop-color="#338A3B" stop-opacity="0.8701"/>
<stop offset="0.8503" stop-color="#0E7139" stop-opacity="0.9551"/>
<stop offset="1" stop-color="#006838"/>
</linearGradient>
<linearGradient id="paint16_linear" x1="631.497" y1="240.868" x2="695.636" y2="240.868" gradientUnits="userSpaceOnUse">
<stop stop-color="#603913"/>
<stop offset="1" stop-color="#603913" stop-opacity="0.1"/>
</linearGradient>
<linearGradient id="paint17_linear" x1="699.862" y1="217.893" x2="719.384" y2="217.893" gradientUnits="userSpaceOnUse">
<stop stop-color="#603913"/>
<stop offset="1" stop-color="#603913" stop-opacity="0.1"/>
</linearGradient>
<linearGradient id="paint18_linear" x1="557.178" y1="217.078" x2="613.45" y2="217.078" gradientUnits="userSpaceOnUse">
<stop stop-color="#603913"/>
<stop offset="1" stop-color="#603913" stop-opacity="0.1"/>
</linearGradient>
<linearGradient id="paint19_linear" x1="349.549" y1="183.954" x2="371.434" y2="183.954" gradientUnits="userSpaceOnUse">
<stop stop-color="#603913"/>
<stop offset="1" stop-color="#603913" stop-opacity="0.1"/>
</linearGradient>
<linearGradient id="paint20_linear" x1="667.177" y1="297.551" x2="738.931" y2="297.551" gradientUnits="userSpaceOnUse">
<stop stop-color="#1C75BC" stop-opacity="0.1"/>
<stop offset="0.1413" stop-color="#1C75BC" stop-opacity="0.2272"/>
<stop offset="1" stop-color="#1C75BC"/>
</linearGradient>
<linearGradient id="paint21_linear" x1="272.95" y1="326.534" x2="322.092" y2="326.534" gradientUnits="userSpaceOnUse">
<stop stop-color="#1C75BC" stop-opacity="0.1"/>
<stop offset="0.1413" stop-color="#1C75BC" stop-opacity="0.2272"/>
<stop offset="1" stop-color="#1C75BC"/>
</linearGradient>
<linearGradient id="paint22_linear" x1="691.105" y1="187.124" x2="710.417" y2="187.124" gradientUnits="userSpaceOnUse">
<stop stop-color="white" stop-opacity="0.1"/>
<stop offset="1" stop-color="white"/>
</linearGradient>
<linearGradient id="paint23_linear" x1="650.626" y1="178.619" x2="674.079" y2="178.619" gradientUnits="userSpaceOnUse">
<stop stop-color="white" stop-opacity="0.1"/>
<stop offset="1" stop-color="white"/>
</linearGradient>
<linearGradient id="paint24_linear" x1="663.199" y1="193.933" x2="669.396" y2="193.933" gradientUnits="userSpaceOnUse">
<stop stop-color="#8DC63F" stop-opacity="0.7"/>
<stop offset="0.1836" stop-color="#6EB13D" stop-opacity="0.7551"/>
<stop offset="0.5671" stop-color="#338A3B" stop-opacity="0.8701"/>
<stop offset="0.8503" stop-color="#0E7139" stop-opacity="0.9551"/>
<stop offset="1" stop-color="#006838"/>
</linearGradient>
<linearGradient id="paint25_linear" x1="672.732" y1="197.788" x2="685.466" y2="197.788" gradientUnits="userSpaceOnUse">
<stop stop-color="white" stop-opacity="0.1"/>
<stop offset="1" stop-color="white"/>
</linearGradient>
<linearGradient id="paint26_linear" x1="640.663" y1="230.215" x2="687.987" y2="230.215" gradientUnits="userSpaceOnUse">
<stop stop-color="white" stop-opacity="0.1"/>
<stop offset="1" stop-color="white"/>
</linearGradient>
<linearGradient id="paint27_linear" x1="691.105" y1="152.745" x2="697.893" y2="152.745" gradientUnits="userSpaceOnUse">
<stop stop-color="#603913"/>
<stop offset="1" stop-color="#603913" stop-opacity="0.1"/>
</linearGradient>
<linearGradient id="paint28_linear" x1="716.058" y1="468.933" x2="736.177" y2="468.933" gradientUnits="userSpaceOnUse">
<stop stop-color="#1C75BC"/>
<stop offset="1" stop-color="#1C75BC" stop-opacity="0.1"/>
</linearGradient>
<linearGradient id="paint29_linear" x1="695.468" y1="482.852" x2="739.008" y2="482.852" gradientUnits="userSpaceOnUse">
<stop stop-color="#1C75BC"/>
<stop offset="1" stop-color="#1C75BC" stop-opacity="0.1"/>
</linearGradient>
<linearGradient id="paint30_linear" x1="642.743" y1="482.01" x2="657.676" y2="482.01" gradientUnits="userSpaceOnUse">
<stop stop-color="#1C75BC"/>
<stop offset="1" stop-color="#1C75BC" stop-opacity="0.1"/>
</linearGradient>
<linearGradient id="paint31_linear" x1="657.192" y1="494.202" x2="679.446" y2="494.202" gradientUnits="userSpaceOnUse">
<stop stop-color="#1C75BC"/>
<stop offset="1" stop-color="#1C75BC" stop-opacity="0.1"/>
</linearGradient>
<linearGradient id="paint32_linear" x1="361.759" y1="188.418" x2="370.628" y2="188.418" gradientUnits="userSpaceOnUse">
<stop stop-color="white" stop-opacity="0"/>
<stop offset="1" stop-color="white" stop-opacity="0.3"/>
</linearGradient>
<linearGradient id="paint33_linear" x1="267.876" y1="183.034" x2="281.663" y2="183.034" gradientUnits="userSpaceOnUse">
<stop stop-color="white" stop-opacity="0"/>
<stop offset="1" stop-color="white" stop-opacity="0.3"/>
</linearGradient>
<linearGradient id="paint34_linear" x1="681.406" y1="125.923" x2="685.828" y2="125.923" gradientUnits="userSpaceOnUse">
<stop stop-color="white" stop-opacity="0.3"/>
<stop offset="1" stop-color="white" stop-opacity="0.6"/>
</linearGradient>
<linearGradient id="paint35_linear" x1="693.21" y1="134.701" x2="705.576" y2="134.701" gradientUnits="userSpaceOnUse">
<stop stop-color="white" stop-opacity="0.3"/>
<stop offset="1" stop-color="white" stop-opacity="0.6"/>
</linearGradient>
<linearGradient id="paint36_linear" x1="279.318" y1="243.618" x2="318.415" y2="243.618" gradientUnits="userSpaceOnUse">
<stop stop-color="#F7941D"/>
<stop offset="1" stop-color="#F7941D" stop-opacity="0.1"/>
</linearGradient>
<linearGradient id="paint37_linear" x1="266.948" y1="308.264" x2="324.376" y2="308.264" gradientUnits="userSpaceOnUse">
<stop stop-color="#F7941D"/>
<stop offset="1" stop-color="#F7941D" stop-opacity="0.1"/>
</linearGradient>
<linearGradient id="paint38_linear" x1="260.528" y1="272.506" x2="292.609" y2="272.506" gradientUnits="userSpaceOnUse">
<stop stop-color="#F7941D"/>
<stop offset="1" stop-color="#F7941D" stop-opacity="0.1"/>
</linearGradient>
<linearGradient id="paint39_linear" x1="280.297" y1="471.994" x2="299.739" y2="471.994" gradientUnits="userSpaceOnUse">
<stop stop-color="#F7941D"/>
<stop offset="1" stop-color="#F7941D" stop-opacity="0.1"/>
</linearGradient>
<linearGradient id="paint40_linear" x1="235.915" y1="473.084" x2="249.414" y2="473.084" gradientUnits="userSpaceOnUse">
<stop stop-color="#F7941D"/>
<stop offset="1" stop-color="#F7941D" stop-opacity="0.1"/>
</linearGradient>
<linearGradient id="paint41_linear" x1="278.281" y1="481.854" x2="316.614" y2="481.854" gradientUnits="userSpaceOnUse">
<stop stop-color="#F7941D"/>
<stop offset="1" stop-color="#F7941D" stop-opacity="0.1"/>
</linearGradient>
<linearGradient id="paint42_linear" x1="242.665" y1="481.59" x2="266.415" y2="481.59" gradientUnits="userSpaceOnUse">
<stop stop-color="#F7941D"/>
<stop offset="1" stop-color="#F7941D" stop-opacity="0.1"/>
</linearGradient>
<clipPath id="clip0">
<rect width="960" height="539.478" fill="white"/>
</clipPath>
<clipPath id="clip1">
<rect x="-49.1592" y="-0.144043" width="1080.22" height="540.109" fill="white"/>
</clipPath>
</defs>
</svg>
