<svg width="720" height="360" viewBox="0 0 720 360" fill="none" xmlns="http://www.w3.org/2000/svg">
<g clip-path="url(#clip0)">
<path d="M192.6 93.3533L190.2 100.001C190.2 100.001 190.2 97.2757 188.267 98.7383C186.267 100.201 188.6 102.727 188.6 102.727L185.267 103.458C185.267 103.458 178.067 99.2037 181.067 97.0098C184.067 94.8159 180.667 91.0929 183.267 91.2924C185.933 91.4918 189.133 88.3672 190.4 90.3616C191.733 92.2896 192.6 93.3533 192.6 93.3533Z" fill="black"/>
<path d="M239.934 181.308C239.934 181.308 243.467 184.499 241.867 190.217C240.267 195.934 237.934 183.369 237.934 183.369L239.934 181.308Z" fill="#D39B5E"/>
<path d="M492.067 173.064L491.4 169.142L487.133 167.48L487.8 169.474L490.133 170.538L490.067 171.868C490.067 171.801 489.933 174.261 492.067 173.064Z" fill="#E0A66C"/>
<path d="M500.667 182.97C500.667 182.97 501.8 188.488 509.133 192.544L510.733 189.685L502.866 182.106L500.667 182.97Z" fill="black"/>
<path d="M515.667 185.031L526.467 193.009L507.8 212.82L480.667 173.729C480.667 173.729 481.866 171.934 483.533 171.735C485.2 171.535 507.267 191.28 508.933 195.336L515.667 185.031Z" fill="#C98E59"/>
<path d="M481.533 175.724C483.558 175.724 485.2 174.087 485.2 172.067C485.2 170.048 483.558 168.411 481.533 168.411C479.508 168.411 477.867 170.048 477.867 172.067C477.867 174.087 479.508 175.724 481.533 175.724Z" fill="#C98E59"/>
<path d="M536.6 152.455L536.8 159.236L538.467 162.494H542.4L542.8 159.17L539.733 151.791C539.733 151.724 538.467 152.655 536.6 152.455Z" fill="#E0A66C"/>
<path d="M519.933 214.682L454.933 231.701C454.933 231.701 448.667 232.765 448.667 240.211C448.667 247.656 462.4 295.457 462.4 295.457L479.8 312.808C479.8 312.808 483.2 258.692 477.8 250.05C477.8 250.05 550.333 249.917 565.667 237.352L519.933 214.682Z" fill="#56D0ED"/>
<path opacity="0.3" d="M519.934 214.682L548.867 241.673C548.867 241.673 564.334 240.343 565.667 237.352L519.934 214.682Z" fill="url(#paint0_linear)"/>
<path d="M587.2 247.723H503.8C501.667 247.723 499.934 245.994 499.934 243.867V242.67C499.934 240.543 501.667 238.814 503.8 238.814H587.2C589.333 238.814 591.067 240.543 591.067 242.67V243.867C591.067 245.928 589.333 247.723 587.2 247.723Z" fill="#FBE54B" stroke="black" stroke-miterlimit="10"/>
<path d="M575.133 235.889H574.267C572.733 235.889 571.533 234.626 571.533 233.163V165.219C571.533 163.69 572.8 162.494 574.267 162.494H575.133C576.667 162.494 577.867 163.757 577.867 165.219V233.163C577.867 234.693 576.667 235.889 575.133 235.889Z" fill="#FBE54B" stroke="black" stroke-miterlimit="10"/>
<path d="M538.267 201.119C538.267 201.119 547.4 172.399 541 166.15C534.533 159.901 512.733 183.037 512.733 183.037" fill="#B0CE89"/>
<path d="M548.867 160.167C548.867 160.167 580.267 241.142 565.734 237.352C551.2 233.563 519.934 214.682 519.934 214.682L533.534 163.691C533.867 162.494 534.534 161.364 535.4 160.5C535.867 160.034 536.334 159.702 536.8 159.303C537.334 160.566 538.867 161.164 540.134 160.633C541.467 160.101 542.067 158.572 541.534 157.308C541.467 157.242 541.667 157.109 541.6 157.043C546.4 156.178 548.867 160.167 548.867 160.167Z" fill="#C8E8A3"/>
<path d="M564.067 222.992H491.467C490.067 222.992 488.934 221.862 488.934 220.466V219.668C488.934 218.272 490.067 217.142 491.467 217.142H564C565.4 217.142 566.534 218.272 566.534 219.668V220.466C566.6 221.795 565.467 222.992 564.067 222.992Z" fill="#FBE54B" stroke="black" stroke-miterlimit="10"/>
<path d="M531.733 326.238C559.2 326.238 581.467 304.033 581.467 276.643C581.467 249.252 559.2 227.047 531.733 227.047C504.266 227.047 482 249.252 482 276.643C482 304.033 504.266 326.238 531.733 326.238Z" fill="white" stroke="#231F20" stroke-miterlimit="10"/>
<path d="M531.733 322.515C557.138 322.515 577.733 301.977 577.733 276.643C577.733 251.308 557.138 230.771 531.733 230.771C506.328 230.771 485.733 251.308 485.733 276.643C485.733 301.977 506.328 322.515 531.733 322.515Z" fill="#DBDBDB" stroke="black" stroke-miterlimit="10"/>
<path d="M422.733 313.407L463.333 295.789L474.667 306.958L476.933 300.709L482.667 317.728L426.733 321.318C426.733 321.251 424.6 315.601 422.733 313.407Z" fill="#FBE54B"/>
<path d="M482.6 317.728L489.2 325.573L410.533 326.371C409 326.371 407.733 325.373 407.333 323.911L406.933 322.182C406.933 322.182 404.333 318.991 414.267 313.274C424.2 307.556 426.667 321.318 426.667 321.318L482.6 317.728Z" fill="white" stroke="#231F20" stroke-miterlimit="10"/>
<path d="M426.4 323.445C430.933 323.113 435.467 322.913 440.067 322.648L453.733 322.049L467.333 321.584L474.133 321.384C476.4 321.318 478.667 321.318 480.933 321.251C478.667 321.384 476.4 321.517 474.133 321.65L467.333 321.983L453.667 322.581L440 323.046C435.533 323.246 431 323.379 426.4 323.445Z" fill="#231F20"/>
<path d="M427 314.138C430.2 312.675 433.4 311.213 436.6 309.817C439.8 308.421 443.067 307.025 446.267 305.695C449.533 304.365 452.733 302.969 456 301.706L460.867 299.778C462.533 299.18 464.133 298.515 465.8 297.917C464.2 298.648 462.6 299.379 461 300.11L456.2 302.238C453 303.634 449.733 305.03 446.533 306.36C443.267 307.689 440.067 309.085 436.8 310.349C433.533 311.612 430.267 312.941 427 314.138Z" fill="black"/>
<path d="M437.731 313.272L435.998 314.137C435.331 314.469 434.465 314.203 434.131 313.472L431.798 308.685C431.465 308.02 431.731 307.156 432.465 306.824L434.198 305.959C434.865 305.627 435.731 305.893 436.065 306.624L438.398 311.411C438.731 312.076 438.465 312.94 437.731 313.272Z" fill="white"/>
<path d="M437.733 313.274L436.4 313.938C436.2 314.071 436 314.204 435.733 314.271C435.467 314.337 435.267 314.337 435 314.271C434.533 314.204 434.067 313.739 433.867 313.274L433.2 312.01L431.8 309.418L431.467 308.753C431.333 308.487 431.267 308.154 431.267 307.889C431.267 307.29 431.667 306.758 432.2 306.426L433.533 305.828C433.733 305.695 433.933 305.628 434.267 305.495C434.533 305.429 434.867 305.429 435.133 305.495C435.4 305.562 435.667 305.761 435.867 305.961C436.067 306.16 436.2 306.426 436.267 306.625L436.867 307.955L438.067 310.614C438.267 311.08 438.533 311.479 438.467 312.01C438.533 312.609 438.2 313.008 437.733 313.274ZM437.733 313.274C438.2 313.074 438.467 312.609 438.533 312.143C438.6 311.678 438.267 311.213 438.067 310.814L436.667 308.221L436 306.958C435.867 306.758 435.8 306.559 435.6 306.426C435.467 306.293 435.267 306.226 435.067 306.16C434.867 306.094 434.667 306.094 434.467 306.16C434.333 306.226 434.067 306.359 433.867 306.426L432.533 307.091C432.2 307.224 431.933 307.623 431.933 307.955C431.933 308.154 431.933 308.354 432 308.487L432.333 309.152L433.533 311.811L434.133 313.141C434.267 313.606 434.6 314.005 435.067 314.138C435.267 314.204 435.533 314.204 435.8 314.138C436 314.071 436.267 313.938 436.467 313.872L437.733 313.274Z" fill="black"/>
<path d="M444.065 310.148L442.332 311.012C441.665 311.345 440.798 311.079 440.465 310.347L438.132 305.561C437.798 304.896 438.065 304.032 438.798 303.699L440.532 302.835C441.198 302.502 442.065 302.768 442.398 303.5L444.732 308.286C445.065 309.018 444.798 309.815 444.065 310.148Z" fill="white"/>
<path d="M444.067 310.149L442.733 310.814C442.533 310.947 442.333 311.08 442.067 311.146C441.8 311.213 441.6 311.213 441.333 311.146C440.867 311.08 440.4 310.614 440.2 310.149L439.533 308.886L438.133 306.293L437.8 305.628C437.667 305.362 437.6 305.03 437.6 304.764C437.6 304.166 438 303.634 438.533 303.301L439.867 302.703C440.067 302.57 440.267 302.504 440.6 302.371C440.867 302.304 441.2 302.304 441.467 302.371C441.733 302.437 442 302.637 442.2 302.836C442.4 303.035 442.533 303.301 442.6 303.501L443.2 304.83L444.4 307.49C444.6 307.955 444.867 308.354 444.8 308.886C444.867 309.484 444.533 309.949 444.067 310.149ZM444.067 310.149C444.533 309.949 444.8 309.484 444.867 309.019C444.933 308.553 444.6 308.088 444.4 307.689L443 305.096L442.333 303.833C442.2 303.634 442.133 303.434 441.933 303.301C441.8 303.168 441.6 303.102 441.4 303.035C441.2 302.969 441 302.969 440.8 303.035C440.667 303.102 440.4 303.235 440.2 303.301L438.867 303.966C438.533 304.099 438.267 304.498 438.267 304.83C438.267 305.03 438.267 305.229 438.333 305.362L438.667 306.027L439.867 308.686L440.467 310.016C440.6 310.481 440.933 310.88 441.4 311.013C441.6 311.08 441.867 311.08 442.133 311.013C442.333 310.947 442.6 310.814 442.8 310.747L444.067 310.149Z" fill="black"/>
<path d="M450.999 307.621L449.265 308.486C448.599 308.818 447.732 308.552 447.399 307.821L445.065 303.034C444.732 302.369 444.999 301.505 445.732 301.173L447.465 300.308C448.132 299.976 448.999 300.242 449.332 300.973L451.665 305.76C451.999 306.425 451.665 307.289 450.999 307.621Z" fill="white"/>
<path d="M451 307.623L449.667 308.287C449.467 308.42 449.267 308.553 449 308.62C448.733 308.686 448.533 308.686 448.267 308.62C447.8 308.553 447.333 308.088 447.133 307.623L446.467 306.359L445.067 303.767L444.733 303.102C444.6 302.836 444.533 302.504 444.533 302.238C444.533 301.639 444.933 301.107 445.467 300.775L446.8 300.177C447 300.044 447.2 299.977 447.533 299.844C447.8 299.778 448.133 299.778 448.4 299.844C448.666 299.911 448.933 300.11 449.133 300.31C449.333 300.509 449.466 300.775 449.533 300.974L450.133 302.304L451.333 304.963C451.533 305.429 451.8 305.828 451.733 306.359C451.733 306.958 451.466 307.423 451 307.623ZM451 307.623C451.466 307.423 451.733 306.958 451.8 306.492C451.866 306.027 451.533 305.562 451.333 305.163L449.933 302.57L449.267 301.307C449.133 301.107 449.067 300.908 448.867 300.775C448.733 300.642 448.533 300.576 448.333 300.509C448.133 300.443 447.933 300.443 447.733 300.509C447.6 300.576 447.333 300.709 447.133 300.775L445.8 301.44C445.467 301.573 445.2 301.972 445.2 302.304C445.2 302.504 445.2 302.703 445.267 302.836L445.6 303.501L446.8 306.16L447.4 307.49C447.533 307.955 447.867 308.354 448.333 308.487C448.533 308.553 448.8 308.553 449.066 308.487C449.266 308.42 449.533 308.287 449.733 308.221L451 307.623Z" fill="black"/>
<path d="M457.932 304.231L456.198 305.095C455.532 305.427 454.665 305.161 454.332 304.43L451.998 299.644C451.665 298.979 451.932 298.115 452.665 297.782L454.398 296.918C455.065 296.585 455.932 296.851 456.265 297.583L458.598 302.369C458.932 303.101 458.665 303.898 457.932 304.231Z" fill="white"/>
<path d="M457.933 304.233L456.6 304.898C456.4 305.031 456.2 305.164 455.933 305.23C455.667 305.297 455.467 305.297 455.2 305.23C454.733 305.164 454.267 304.698 454.067 304.233L453.4 302.97L452 300.377L451.667 299.712C451.533 299.446 451.467 299.114 451.467 298.848C451.467 298.25 451.867 297.718 452.4 297.385L453.733 296.787C453.933 296.654 454.133 296.588 454.467 296.455C454.733 296.388 455.067 296.388 455.333 296.455C455.6 296.521 455.867 296.721 456.067 296.92C456.267 297.119 456.4 297.385 456.467 297.585L457.067 298.914L458.267 301.574C458.467 302.039 458.733 302.438 458.667 302.97C458.733 303.568 458.4 304.034 457.933 304.233ZM457.933 304.233C458.4 304.034 458.667 303.568 458.733 303.103C458.8 302.637 458.467 302.172 458.267 301.773L456.867 299.18L456.2 297.917C456.067 297.718 456 297.518 455.8 297.385C455.667 297.252 455.467 297.186 455.267 297.119C455.067 297.053 454.867 297.053 454.667 297.119C454.533 297.186 454.267 297.319 454.067 297.385L452.733 298.05C452.4 298.183 452.133 298.582 452.133 298.914C452.133 299.114 452.133 299.313 452.2 299.446L452.533 300.111L453.733 302.77L454.333 304.1C454.467 304.565 454.8 304.964 455.267 305.097C455.467 305.164 455.733 305.164 456 305.097C456.2 305.031 456.467 304.898 456.667 304.831L457.933 304.233Z" fill="black"/>
<path d="M426.733 321.251C426.933 322.116 426.933 322.914 426.867 323.711C426.8 324.509 426.667 325.373 426.333 326.171C426.133 325.307 426.133 324.509 426.2 323.711C426.267 322.914 426.4 322.049 426.733 321.251Z" fill="black"/>
<path d="M408.733 322.182C411.333 321.85 413.867 321.717 416.467 321.65C419.067 321.584 421.667 321.584 424.2 321.783C421.6 322.115 419.067 322.248 416.467 322.315C413.867 322.381 411.267 322.381 408.733 322.182Z" fill="#231F20"/>
<path d="M505.133 230.771C498.866 232.433 492.6 234.161 486.333 235.757L476.933 238.216L467.533 240.61L467.666 240.144L472.666 246.061L473.333 246.793L472.4 246.527L460.066 243.468L460.333 242.937L467.266 248.322L467.333 248.388V248.521C467.866 254.039 468.333 259.557 468.8 265.075C469.333 270.593 469.733 276.111 470.2 281.629C469.6 276.111 469 270.593 468.4 265.141C467.866 259.623 467.266 254.106 466.733 248.588L466.866 248.787L459.933 243.402L458.8 242.471L460.2 242.804L472.533 245.862L472.2 246.394L467.2 240.41L466.866 240.011L467.333 239.878L476.8 237.485L486.266 235.158C492.533 233.762 498.866 232.3 505.133 230.771Z" fill="white"/>
<path d="M536.6 152.921C540.724 152.921 544.067 149.587 544.067 145.475C544.067 141.362 540.724 138.029 536.6 138.029C532.476 138.029 529.133 141.362 529.133 145.475C529.133 149.587 532.476 152.921 536.6 152.921Z" fill="#E0A66C"/>
<path opacity="0.26" d="M539.867 152.123L536.733 157.508L536.6 152.854C536.6 152.854 538.133 152.854 539.867 152.123Z" fill="url(#paint1_linear)"/>
<path d="M482.759 145.886L479.583 146.646L487.067 177.741L490.244 176.981L482.759 145.886Z" fill="#CE4174"/>
<path d="M482.067 145.408L479.2 146.14L474.2 143.813L477.067 143.148L482.067 145.408Z" fill="#F95F8F"/>
<path d="M473.4 143.812L480.267 172.865L487 177.718L479.533 146.605L473.4 143.812Z" fill="#F95F8F"/>
<path opacity="0.4" d="M523.6 208.433L535.8 201.053L553.4 207.169C553.4 207.169 550.133 168.211 546.267 165.286L534 185.098L523.6 208.433Z" fill="url(#paint2_linear)"/>
<path d="M543.4 198.793C543.4 198.793 551.666 169.807 545.066 163.757C538.466 157.641 517.333 181.441 517.333 181.441" fill="#D8F2B6"/>
<path opacity="0.4" d="M543.6 165.153L538.467 184.167C538.2 185.164 537.267 185.762 536.267 185.563C534.933 185.297 533.067 184.698 531.533 183.302L542.533 190.948C542.467 190.881 549.8 171.07 543.6 165.153Z" fill="url(#paint3_linear)"/>
<path d="M538.134 167.48C538.134 167.48 528.067 174.461 525.333 178.516L528.667 181.441C528.667 181.441 532.134 172.666 538.134 167.48Z" fill="url(#paint4_linear)"/>
<path d="M517.333 181.441C517.333 181.441 521.933 194.471 543.266 198.793C543.266 198.793 534.4 184.433 517.333 181.441Z" fill="black"/>
<path d="M524.6 186.494L535.867 193.807L518.4 214.682L488.934 177.319C488.934 177.319 490.067 175.391 491.734 175.125C493.4 174.859 516.534 193.208 518.534 197.197L524.6 186.494Z" fill="#E0A66C"/>
<path opacity="0.38" d="M486.733 270.593C486.733 270.593 520.667 326.57 576.267 286.748C576.267 286.748 569.533 320.254 533.2 321.983C533.2 321.983 516.667 324.443 499 308.221C499 308.221 484.6 295.457 486.733 270.593Z" fill="#BCBCBC"/>
<path d="M464.467 290.537C466.4 291.468 468.267 292.532 470.133 293.595C471.933 294.725 473.733 295.922 475.467 297.252C473.533 296.387 471.667 295.257 469.8 294.194C468 293.063 466.2 291.867 464.467 290.537Z" fill="#288D9E"/>
<path opacity="0.33" d="M477.8 250.05C477.8 250.05 482.933 296.055 472.667 295.723L480.4 300.31C480.4 300.376 482.667 258.692 477.8 250.05Z" fill="url(#paint5_linear)"/>
<path d="M530 142.018L537.6 141.22L538.267 144.145C538.267 144.145 540.067 142.284 540.867 145.408C541.667 148.533 539.333 148.467 539.333 148.467L542.267 150.262C542.267 150.262 546.2 146.007 546.2 144.943C546.2 143.879 545.733 141.885 545.733 141.885L545.333 140.422L540.267 140.755L545.267 139.757C545.267 139.757 541.667 131.514 534.733 135.636C527.8 139.757 525.133 138.494 525.133 138.494C525.133 138.494 525.2 141.685 530 142.018Z" fill="black"/>
<path d="M485.734 176.521L481.934 173.264L482.2 170.206L483.4 171.801L483.667 173.33L486.4 175.258L485.734 176.521Z" fill="#CC9562"/>
<path d="M485.867 175.325L481.667 171.602L481.2 166.483L482.867 167.879L483.4 170.472L486.933 173.331C486.933 173.397 489.333 174.86 485.867 175.325Z" fill="#E0A66C"/>
<path d="M489.133 172.001L477.4 159.635C477.4 159.635 475.6 160.566 477.4 162.959C479.2 165.353 486.933 173.397 486.933 173.397C486.933 173.397 489.133 173.131 489.133 172.001Z" fill="#E0A66C"/>
<path d="M489.667 179.247C491.692 179.247 493.333 177.61 493.333 175.591C493.333 173.571 491.692 171.934 489.667 171.934C487.642 171.934 486 173.571 486 175.591C486 177.61 487.642 179.247 489.667 179.247Z" fill="#E0A66C"/>
<path d="M216 137.497C213.6 134.638 198.4 117.685 193.4 121.94C187.733 126.86 193.733 151.192 193.733 151.192" fill="#D8F2B6"/>
<path d="M202.589 149.238C210.639 143.676 216.69 138.482 216.102 137.636C215.515 136.791 208.513 140.615 200.463 146.177C192.412 151.74 186.362 156.934 186.949 157.779C187.536 158.624 194.538 154.8 202.589 149.238Z" fill="#231F20"/>
<path d="M226 134.239L224.934 132.245L233.867 111.835L243.534 113.829L244.934 115.093L226 134.239Z" fill="#D63871"/>
<path d="M148 198.593C168.467 189.087 209.933 198.593 209.933 198.593C209.933 198.593 199.6 129.852 196.933 116.422C194.267 102.993 172.333 113.298 172.333 113.298L148 198.593Z" fill="#B9D390"/>
<path d="M188.4 105.852C192.45 105.852 195.733 102.577 195.733 98.5385C195.733 94.4997 192.45 91.2256 188.4 91.2256C184.35 91.2256 181.066 94.4997 181.066 98.5385C181.066 102.577 184.35 105.852 188.4 105.852Z" fill="#EAB575"/>
<path d="M186 115.425C189.019 115.425 191.467 114.056 191.467 112.367C191.467 110.678 189.019 109.309 186 109.309C182.981 109.309 180.533 110.678 180.533 112.367C180.533 114.056 182.981 115.425 186 115.425Z" fill="#EAB575"/>
<path d="M192.667 144.145C192.667 144.145 180.867 110.173 171.333 113.696C161.733 117.22 157.867 151.059 157.867 151.059" fill="#D8F2B6"/>
<path opacity="0.4" d="M159.066 142.815L175.733 140.422C173.133 141.153 170.666 140.821 169.066 140.289C167.866 139.89 167.133 138.693 167.4 137.497L172.4 113.231C162.066 116.555 159 142.815 159.066 142.815Z" fill="url(#paint6_linear)"/>
<path d="M175.559 149.429C185.165 147.526 192.789 145.165 192.588 144.157C192.387 143.149 184.437 143.874 174.831 145.778C165.226 147.682 157.601 150.042 157.802 151.05C158.003 152.059 165.953 151.333 175.559 149.429Z" fill="#231F20"/>
<path d="M179 202.781C196.121 202.781 210 200.817 210 198.394C210 195.97 196.121 194.006 179 194.006C161.879 194.006 148 195.97 148 198.394C148 200.817 161.879 202.781 179 202.781Z" fill="black"/>
<path d="M172.4 198.593L190.667 254.637L182.867 310.548L192.333 308.886L208.867 265.673C211.667 258.294 212.4 250.249 210.867 242.538L201.667 195.402C178 191.945 172.4 198.527 172.4 198.593Z" fill="#2B9EAA"/>
<path d="M224.267 316.864L181.4 314.072L185.8 301.041L187.533 305.894L196.133 297.385L227.267 310.881C225.867 312.543 224.267 316.93 224.267 316.864Z" fill="#F95F8F"/>
<path d="M224.333 316.864C224.333 316.864 226.2 306.293 233.867 310.681C241.4 315.069 239.467 317.529 239.467 317.529L239.133 318.858C238.8 319.989 237.8 320.72 236.667 320.72L176.333 320.188L181.4 314.138L224.333 316.864Z" fill="white" stroke="#231F20" stroke-miterlimit="10"/>
<path d="M214 318.459C210.534 318.393 207 318.26 203.534 318.127C200.067 317.927 196.534 317.795 193.067 317.595L187.867 317.263C186.134 317.13 184.4 316.997 182.667 316.864C184.4 316.864 186.134 316.93 187.867 316.93L193.067 317.063C196.534 317.13 200.067 317.263 203.534 317.396C207 317.595 210.534 317.728 214 317.927C217.467 318.127 221 318.326 224.467 318.526C221 318.592 217.534 318.526 214 318.459Z" fill="#231F20"/>
<path d="M216.533 308.487C214.067 307.49 211.533 306.426 209.133 305.429C206.667 304.366 204.2 303.302 201.8 302.238L198.133 300.576C196.933 300.044 195.667 299.446 194.467 298.914C195.733 299.446 197 299.845 198.267 300.377L202 301.906C204.467 302.903 207 303.967 209.4 304.964C211.867 306.028 214.333 307.091 216.733 308.155C219.2 309.219 221.667 310.282 224.067 311.479C221.533 310.548 219 309.551 216.533 308.487Z" fill="white"/>
<path d="M215.4 309.085L217 305.827C217.333 305.163 218.133 304.897 218.733 305.229L219.6 305.694C220.266 306.027 220.533 306.825 220.2 307.423L218.6 310.681C218.266 311.345 217.466 311.611 216.866 311.279L216 310.814C215.4 310.548 215.066 309.75 215.4 309.085Z" fill="white"/>
<path d="M215.4 308.953L216.267 306.958L216.734 305.961C216.8 305.828 216.867 305.629 217 305.429C217.134 305.23 217.334 305.097 217.534 304.964C218 304.764 218.4 304.698 218.867 304.897C219.267 305.097 219.534 305.23 219.867 305.429C220.267 305.629 220.534 305.961 220.667 306.426C220.8 306.892 220.667 307.357 220.467 307.69L219.334 309.617L218.8 310.548C218.667 310.881 218.4 311.213 218.067 311.346C217.734 311.479 217.334 311.479 217 311.346C216.6 311.147 216.334 311.014 216 310.814C215.334 310.615 215.067 309.617 215.4 308.953ZM216.8 311.412C217.2 311.545 217.534 311.545 217.867 311.346C218.2 311.147 218.4 310.814 218.467 310.548L218.934 309.551L219.8 307.557C220.134 307.025 219.867 306.36 219.334 306.094L218.4 305.562C218.134 305.429 217.867 305.429 217.6 305.562C217.467 305.629 217.334 305.695 217.2 305.828C217.134 305.894 217 306.027 216.934 306.227L216.4 307.158L215.334 309.019C215.134 309.285 215.067 309.617 215.2 310.016C215.334 310.415 215.6 310.615 215.867 310.814C216.334 311.014 216.667 311.147 216.8 311.412Z" fill="black"/>
<path d="M210.533 306.758L212.133 303.501C212.466 302.836 213.266 302.57 213.866 302.902L214.733 303.368C215.4 303.7 215.666 304.498 215.333 305.096L213.733 308.354C213.4 309.019 212.6 309.285 212 308.952L211.133 308.487C210.533 308.221 210.2 307.357 210.533 306.758Z" fill="white"/>
<path d="M210.533 306.626L211.4 304.632L211.867 303.634C211.933 303.501 212 303.302 212.133 303.102C212.267 302.903 212.467 302.77 212.667 302.637C213.133 302.438 213.533 302.371 214 302.571C214.4 302.77 214.667 302.903 215 303.102C215.4 303.302 215.667 303.634 215.8 304.1C215.933 304.565 215.8 305.03 215.6 305.363L214.533 307.224L214 308.155C213.867 308.488 213.6 308.82 213.267 308.953C212.933 309.086 212.533 309.086 212.2 308.953C211.8 308.753 211.533 308.62 211.2 308.421C210.467 308.222 210.133 307.291 210.533 306.626ZM212 309.086C212.4 309.219 212.733 309.219 213.067 309.019C213.4 308.82 213.6 308.488 213.667 308.222L214.133 307.224L215 305.23C215.333 304.698 215.067 304.033 214.533 303.767L213.6 303.235C213.333 303.102 213.067 303.102 212.8 303.235C212.667 303.302 212.533 303.368 212.4 303.501C212.333 303.568 212.2 303.701 212.133 303.9L211.6 304.831L210.533 306.693C210.333 306.958 210.267 307.291 210.4 307.69C210.533 308.089 210.8 308.288 211.067 308.488C211.467 308.62 211.8 308.82 212 309.086Z" fill="black"/>
<path d="M205.267 304.83L206.867 301.572C207.2 300.908 208 300.642 208.6 300.974L209.467 301.44C210.133 301.772 210.4 302.57 210.067 303.168L208.467 306.426C208.133 307.09 207.333 307.356 206.733 307.024L205.867 306.559C205.2 306.226 204.933 305.428 205.267 304.83Z" fill="white"/>
<path d="M205.267 304.698L206.134 302.703L206.6 301.706C206.667 301.573 206.734 301.374 206.867 301.174C207 300.975 207.2 300.842 207.4 300.709C207.867 300.509 208.267 300.443 208.734 300.642C209.134 300.842 209.4 300.975 209.734 301.174C210.134 301.374 210.4 301.706 210.534 302.171C210.667 302.637 210.534 303.102 210.334 303.435L209.267 305.296L208.734 306.227C208.6 306.559 208.334 306.892 208 307.025C207.667 307.158 207.267 307.158 206.934 307.025C206.534 306.825 206.267 306.692 205.934 306.493C205.2 306.227 204.867 305.296 205.267 304.698ZM206.667 307.158C207.067 307.291 207.4 307.291 207.734 307.091C208.067 306.892 208.267 306.559 208.334 306.293L208.8 305.296L209.667 303.302C210 302.77 209.734 302.105 209.2 301.839L208.267 301.307C208 301.174 207.734 301.174 207.467 301.307C207.334 301.374 207.2 301.44 207.067 301.573C207 301.64 206.867 301.773 206.8 301.972L206.267 302.903L205.2 304.764C205 305.03 204.934 305.363 205.067 305.762C205.2 306.16 205.467 306.36 205.734 306.559C206.2 306.692 206.467 306.892 206.667 307.158Z" fill="black"/>
<path d="M199.867 302.237L201.467 298.979C201.8 298.314 202.6 298.048 203.2 298.381L204.067 298.846C204.733 299.179 205 299.976 204.667 300.575L203.067 303.832C202.733 304.497 201.933 304.763 201.333 304.431L200.467 303.965C199.867 303.699 199.6 302.835 199.867 302.237Z" fill="white"/>
<path d="M199.867 302.106L200.733 300.112L201.2 299.114C201.267 298.981 201.333 298.782 201.467 298.582C201.6 298.383 201.8 298.25 202 298.117C202.467 297.918 202.867 297.851 203.333 298.051C203.733 298.25 204 298.383 204.333 298.582C204.733 298.782 205 299.114 205.133 299.58C205.267 300.045 205.133 300.51 204.933 300.843L203.867 302.704L203.333 303.635C203.2 303.967 202.933 304.3 202.6 304.433C202.267 304.566 201.867 304.566 201.533 304.433C201.133 304.233 200.867 304.1 200.533 303.901C199.8 303.702 199.6 302.771 199.867 302.106ZM201.333 304.566C201.733 304.699 202.067 304.699 202.4 304.499C202.733 304.3 202.933 303.967 203 303.702L203.467 302.704L204.333 300.71C204.667 300.178 204.4 299.513 203.867 299.247L202.933 298.715C202.667 298.582 202.4 298.582 202.133 298.715C202 298.782 201.867 298.848 201.733 298.981C201.667 299.048 201.533 299.181 201.467 299.38L200.933 300.311L199.867 302.172C199.667 302.438 199.6 302.771 199.733 303.17C199.867 303.569 200.133 303.768 200.4 303.967C200.8 304.1 201.2 304.3 201.333 304.566Z" fill="black"/>
<path d="M224.667 318.792C224.667 319.39 224.667 320.055 224.467 320.653C224.133 320.055 224.067 319.39 224 318.792C224 318.193 224 317.529 224.2 316.93C224.533 317.462 224.6 318.127 224.667 318.792Z" fill="black"/>
<path d="M232.134 317.728C230.2 317.662 228.2 317.529 226.2 317.196C228.134 316.997 230.134 316.997 232.134 317.063C234.067 317.13 236.067 317.263 238.067 317.595C236 317.795 234.067 317.795 232.134 317.728Z" fill="#231F20"/>
<path d="M166.8 195.203L175.2 253.574L157.8 308.687H167.4L194 263.214C196.333 259.291 197.467 254.837 197.4 250.316L196.533 194.472C173.733 192.078 166.8 195.203 166.8 195.203Z" fill="#56D0ED"/>
<path d="M213.667 323.712L153.267 319.523L157.2 303.701L160.533 304.764L174.333 295.989L218.067 315.268C216.133 317.595 213.8 323.712 213.667 323.712Z" fill="#F95F8F"/>
<path d="M213.734 323.778C213.734 323.778 216.534 308.953 227.2 315.202C237.867 321.451 235.067 324.842 235.067 324.842L234.6 326.703C234.2 328.299 232.8 329.363 231.134 329.363L146.2 327.967L153.4 319.523L213.734 323.778Z" fill="white" stroke="#231F20" stroke-miterlimit="10"/>
<path d="M199.333 325.706L184.6 325.174L169.867 324.443L162.534 323.978L155.2 323.446L162.534 323.645L169.867 323.911L184.6 324.443L199.333 325.174C204.267 325.44 209.133 325.706 214.067 326.039C209.133 325.972 204.2 325.773 199.333 325.706Z" fill="#231F20"/>
<path d="M203 311.878C199.533 310.415 196 308.952 192.533 307.49C189.067 305.961 185.6 304.498 182.133 302.969L177 300.642C175.333 299.845 173.533 299.047 171.867 298.249C173.6 298.847 175.4 299.645 177.133 300.31L182.333 302.437C185.8 303.9 189.333 305.363 192.8 306.825C196.267 308.354 199.733 309.75 203.2 311.346C206.667 312.941 210.133 314.404 213.533 316.066C210 314.67 206.467 313.207 203 311.878Z" fill="black"/>
<path d="M201.2 312.941L203.8 307.822C204.134 307.09 205.067 306.758 205.8 307.157L207.667 308.088C208.4 308.42 208.734 309.351 208.334 310.082L205.734 315.201C205.4 315.933 204.467 316.265 203.734 315.866L201.867 314.935C201.134 314.603 200.8 313.739 201.2 312.941Z" fill="white"/>
<path d="M201.067 313.673C201.001 313.141 201.334 312.676 201.534 312.144L202.867 309.285L203.467 307.823C203.534 307.557 203.667 307.291 203.934 307.091C204.134 306.892 204.401 306.693 204.667 306.626C205.001 306.56 205.267 306.56 205.601 306.626C205.934 306.693 206.134 306.825 206.334 306.958L207.801 307.623C208.334 307.956 208.734 308.488 208.801 309.152C208.801 309.485 208.734 309.817 208.601 310.083L208.201 310.748L206.667 313.54L206.001 314.936C205.801 315.468 205.401 315.867 204.801 316C204.534 316.066 204.267 316.066 204.001 316C203.734 315.933 203.534 315.8 203.334 315.668L201.934 315.003C201.467 314.803 201.067 314.271 201.067 313.673ZM203.267 315.668C203.467 315.8 203.734 315.933 203.934 316C204.201 316.066 204.467 316.066 204.667 316C205.201 315.8 205.467 315.468 205.667 314.936L206.267 313.474L207.601 310.615L207.934 309.95C208.067 309.751 208.067 309.485 208.067 309.352C208.001 308.886 207.734 308.554 207.401 308.355L206.001 307.69C205.801 307.557 205.534 307.424 205.401 307.357C205.201 307.291 204.934 307.291 204.801 307.357C204.601 307.424 204.401 307.557 204.267 307.69C204.134 307.823 204.001 308.022 203.867 308.222L203.134 309.618L201.601 312.41C201.401 312.875 201.067 313.274 201.067 313.873C201.067 314.404 201.467 314.87 201.867 315.136L203.267 315.668Z" fill="black"/>
<path d="M194.4 309.617L197 304.498C197.333 303.766 198.267 303.434 199 303.833L200.867 304.764C201.6 305.096 201.933 306.027 201.533 306.758L198.933 311.877C198.6 312.608 197.667 312.941 196.933 312.542L195.067 311.611C194.333 311.279 194 310.348 194.4 309.617Z" fill="white"/>
<path d="M194.267 310.349C194.2 309.817 194.534 309.352 194.734 308.82L196.067 305.961L196.667 304.498C196.734 304.233 196.867 303.967 197.134 303.767C197.334 303.568 197.6 303.368 197.867 303.302C198.134 303.235 198.467 303.235 198.8 303.302C199.134 303.368 199.334 303.501 199.534 303.634L201 304.299C201.534 304.631 201.934 305.163 202 305.828C202 306.161 201.934 306.493 201.8 306.759L201.4 307.424L199.867 310.216L199.134 311.612C198.934 312.144 198.534 312.543 197.934 312.676C197.667 312.742 197.4 312.742 197.134 312.676C196.867 312.609 196.667 312.476 196.467 312.343L195.067 311.678C194.6 311.413 194.267 310.881 194.267 310.349ZM196.467 312.343C196.667 312.476 196.934 312.609 197.134 312.676C197.4 312.742 197.667 312.742 197.867 312.676C198.4 312.476 198.667 312.144 198.867 311.612L199.467 310.149L200.8 307.291L201.134 306.626C201.267 306.426 201.267 306.161 201.267 306.028C201.2 305.562 200.934 305.23 200.6 305.03L199.2 304.366C199 304.233 198.734 304.1 198.6 304.033C198.4 303.967 198.134 303.967 198 304.033C197.8 304.1 197.6 304.233 197.467 304.366C197.334 304.498 197.2 304.698 197.067 304.897L196.334 306.293L194.8 309.086C194.6 309.551 194.267 309.95 194.267 310.548C194.267 311.08 194.667 311.545 195.067 311.811L196.467 312.343Z" fill="black"/>
<path d="M187 306.824L189.6 301.705C189.934 300.973 190.867 300.641 191.6 301.04L193.467 301.971C194.2 302.303 194.534 303.234 194.134 303.965L191.534 309.084C191.2 309.815 190.267 310.148 189.534 309.749L187.667 308.818C186.934 308.486 186.6 307.555 187 306.824Z" fill="white"/>
<path d="M186.867 307.49C186.8 306.958 187.134 306.493 187.334 305.961L188.667 303.102L189.267 301.64C189.334 301.374 189.467 301.108 189.734 300.908C189.934 300.709 190.2 300.509 190.467 300.443C190.8 300.376 191.067 300.376 191.4 300.443C191.734 300.509 191.934 300.642 192.134 300.775L193.6 301.44C194.134 301.773 194.534 302.304 194.6 302.969C194.6 303.302 194.534 303.634 194.4 303.9L194 304.565L192.467 307.357L191.734 308.753C191.534 309.285 191.134 309.684 190.534 309.817C190.267 309.883 190 309.883 189.734 309.817C189.467 309.75 189.267 309.617 189.067 309.484L187.667 308.82C187.134 308.554 186.867 308.155 186.867 307.49ZM189.067 309.551C189.267 309.684 189.534 309.817 189.734 309.883C190 309.95 190.267 309.95 190.467 309.883C191 309.684 191.267 309.351 191.467 308.82L192.067 307.357L193.4 304.498L193.734 303.833C193.867 303.634 193.867 303.368 193.867 303.235C193.8 302.77 193.534 302.437 193.2 302.238L191.8 301.573C191.6 301.44 191.334 301.307 191.2 301.241C191.067 301.174 190.734 301.174 190.6 301.241C190.4 301.307 190.2 301.44 190.067 301.573C189.934 301.706 189.8 301.906 189.667 302.105L188.934 303.501L187.4 306.293C187.2 306.759 186.867 307.158 186.867 307.756C186.867 308.288 187.267 308.753 187.667 309.019L189.067 309.551Z" fill="black"/>
<path d="M179.467 303.168L182.067 298.049C182.4 297.318 183.333 296.985 184.067 297.384L185.933 298.315C186.667 298.647 187 299.578 186.6 300.309L184 305.428C183.667 306.16 182.733 306.492 182 306.093L180.133 305.162C179.4 304.83 179.133 303.899 179.467 303.168Z" fill="white"/>
<path d="M179.333 303.9C179.267 303.368 179.6 302.903 179.8 302.371L181.133 299.512L181.733 298.05C181.8 297.784 181.933 297.518 182.2 297.318C182.4 297.119 182.667 296.92 182.933 296.853C183.267 296.787 183.533 296.787 183.867 296.853C184.2 296.92 184.4 297.053 184.6 297.185L186.067 297.85C186.6 298.183 187 298.715 187.067 299.379C187.067 299.712 187 300.044 186.867 300.31L186.467 300.975L184.933 303.767L184.2 305.163C184 305.695 183.6 306.094 183 306.227C182.733 306.293 182.467 306.293 182.2 306.227C181.933 306.16 181.733 306.028 181.533 305.895L180.133 305.23C179.667 304.964 179.333 304.432 179.333 303.9ZM181.533 305.895C181.733 306.028 182 306.16 182.2 306.227C182.467 306.293 182.733 306.293 182.933 306.227C183.467 306.028 183.733 305.695 183.933 305.163L184.533 303.701L185.867 300.842L186.2 300.177C186.333 299.978 186.333 299.712 186.333 299.579C186.267 299.113 186 298.781 185.667 298.582L184.267 297.917C184.067 297.784 183.8 297.651 183.667 297.584C183.467 297.518 183.2 297.518 183.067 297.584C182.867 297.651 182.667 297.784 182.533 297.917C182.4 298.05 182.267 298.249 182.133 298.449L181.4 299.845L179.867 302.637C179.667 303.102 179.333 303.501 179.333 304.1C179.333 304.631 179.733 305.097 180.133 305.363L181.533 305.895Z" fill="black"/>
<path d="M214.334 326.371C214.4 327.235 214.4 328.166 214.2 329.096C213.867 328.232 213.733 327.368 213.667 326.437C213.6 325.573 213.6 324.642 213.8 323.711C214.134 324.576 214.2 325.44 214.334 326.371Z" fill="black"/>
<path d="M229 324.975C227.6 324.975 226.2 324.975 224.867 324.908C223.467 324.908 222.067 324.842 220.733 324.709L218.667 324.509C218 324.376 217.267 324.376 216.6 324.243C217.267 324.243 218 324.177 218.667 324.177H220.733C222.133 324.177 223.533 324.177 224.867 324.243C226.267 324.243 227.667 324.31 229 324.443C230.4 324.509 231.8 324.642 233.133 324.842C231.8 324.908 230.4 324.908 229 324.975Z" fill="#231F20"/>
<path d="M180.867 320.919L186.467 309.817L194.4 312.742L190.533 321.717L180.867 320.919Z" stroke="black" stroke-width="0.5" stroke-miterlimit="10"/>
<path d="M187.933 103.924H183.667V110.173H187.933V103.924Z" fill="#EAB575"/>
<path d="M228 146.804C232.602 146.804 236.333 143.083 236.333 138.494C236.333 133.904 232.602 130.184 228 130.184C223.397 130.184 219.667 133.904 219.667 138.494C219.667 143.083 223.397 146.804 228 146.804Z" fill="#EAB575"/>
<path d="M233.066 189.685C236.932 189.685 240.066 186.559 240.066 182.704C240.066 178.849 236.932 175.724 233.066 175.724C229.2 175.724 226.066 178.849 226.066 182.704C226.066 186.559 229.2 189.685 233.066 189.685Z" fill="#EAB575"/>
<path d="M234.733 123.336L234.8 122.804C234.867 122.273 234.467 121.94 234.067 121.874L232.333 121.674C231.8 121.608 231.467 122.007 231.4 122.406L231.333 122.937C231.267 123.469 231.667 123.802 232.067 123.868L233.8 124.068C234.267 124.134 234.667 123.735 234.733 123.336Z" fill="url(#paint7_linear)"/>
<path d="M232.266 126.594C232.666 126.66 233 126.727 233.333 127.06C232.866 127.326 232.533 127.326 232.133 127.259C231.733 127.193 231.4 127.126 231.066 126.793C231.466 126.594 231.866 126.594 232.266 126.594Z" fill="url(#paint8_linear)"/>
<path d="M226.733 132.045C225.933 132.444 225.133 132.91 224.467 133.508C223.733 134.04 223.067 134.705 222.533 135.369L222.067 135.901L221.667 136.433C221.4 136.832 221.2 137.231 221 137.63C221.267 136.765 221.533 135.835 222.133 135.037C222.667 134.239 223.333 133.508 224.067 132.976C225.6 131.846 227.4 131.048 229.2 130.849C228.333 131.248 227.533 131.58 226.733 132.045Z" fill="url(#paint9_linear)"/>
<path d="M240 129.253C240.533 129.519 240.867 129.785 241.267 130.25C240.733 130.25 240.2 130.051 239.733 129.785C239.2 129.519 238.867 129.253 238.467 128.788C239.067 128.854 239.533 128.987 240 129.253Z" fill="url(#paint10_linear)"/>
<path d="M235.933 135.303L226 134.239L235.333 113.297L244.933 115.092L235.933 135.303Z" fill="#F95F8F"/>
<path d="M235.8 140.688C242.267 135.037 245.267 128.256 245.4 119.68C245.4 117.287 244.467 117.22 242.933 116.489C242.867 116.422 242.6 116.422 242.467 116.422C241 116.755 239.6 116.888 239.6 118.949C239.667 126.461 237.333 131.979 231.533 136.832C229.933 138.162 230.8 139.358 231.533 140.622C231.6 140.688 231.733 140.888 231.867 140.954C233.4 141.552 233.933 142.217 235.8 140.688Z" fill="#EAB575"/>
<path d="M230.267 135.635C229.067 131.78 229.2 128.721 230.467 124.932C230.667 124.267 230.333 124.001 229.8 123.802C229.267 123.602 228.333 123.403 227.733 123.336C227.133 123.27 226.733 123.336 226.467 124.134C225.133 128.389 225 132.112 226.467 136.367C226.733 137.098 227 137.165 227.667 137.098C228.2 137.032 229.133 136.832 229.6 136.633C230.133 136.566 230.467 136.3 230.267 135.635Z" fill="#EAB575"/>
<path d="M175.2 194.006C171.4 194.006 157.8 195.203 157.8 195.203C158.933 207.967 170.533 220.931 170.533 220.931C170.533 220.931 179 194.006 175.2 194.006Z" fill="#56D0ED"/>
<path opacity="0.4" d="M171 150.328C171 151.724 178.467 171.003 178.467 171.003C180.933 177.984 183.267 180.577 184.133 181.773C185 182.97 185.733 182.438 185.733 182.438C188.333 181.374 205.067 166.283 205.067 166.283C205.067 166.283 189.533 181.707 186.2 184.499C182.867 187.291 181.067 184.499 181.067 184.499C178.067 184.034 167.467 152.92 167.467 152.92C164.667 152.654 161.467 151.458 161.467 151.458C162.333 151.458 171 150.328 171 150.328Z" fill="url(#paint11_linear)"/>
<path d="M198.8 190.084C196.666 189.818 194.533 189.552 192.4 189.419C188.133 189.02 183.866 188.821 179.466 188.754C175.2 188.688 170.866 188.821 166.533 189.153C164.4 189.352 162.266 189.552 160.133 189.884C158 190.15 155.933 190.682 153.8 191.081C158 189.951 162.266 189.153 166.6 188.688C170.866 188.289 175.2 188.156 179.6 188.156C183.933 188.289 188.266 188.555 192.6 189.02C196.933 189.552 201.2 190.15 205.466 191.081C203.2 190.815 201.066 190.483 198.8 190.084Z" fill="url(#paint12_linear)"/>
<path d="M190.533 116.821C189.133 117.553 187.6 117.885 186.067 117.752C184.533 117.619 183.067 117.22 181.733 116.489C180.4 115.758 179.267 114.694 178.6 113.364C179.067 113.896 179.533 114.494 180.133 114.96C180.667 115.492 181.333 115.824 181.933 116.156C183.2 116.755 184.667 117.154 186.067 117.22C187.467 117.353 188.867 117.087 190.2 116.489C190.867 116.156 191.467 115.758 191.933 115.226C192.467 114.694 192.933 114.162 193.267 113.497C192.8 114.893 191.8 116.09 190.533 116.821Z" fill="url(#paint13_linear)"/>
<path opacity="0.25" d="M201.733 195.535L203 201.917C197.333 196.399 157.867 195.269 157.867 195.269C177.6 190.881 201.733 195.468 201.733 195.535Z" fill="url(#paint14_linear)"/>
<path d="M180.533 140.223L187.867 139.226C188.267 133.375 175.733 116.356 175.733 116.356C183.533 131.913 180.533 140.223 180.533 140.223Z" fill="url(#paint15_linear)"/>
<path d="M198.867 123.137C203.6 124.866 211.933 134.439 211.933 134.439C210.467 134.372 204.6 137.497 204.6 137.497C206.467 132.976 198.8 123.071 198.867 123.137Z" fill="url(#paint16_linear)"/>
<path d="M201.066 140.023C200.333 140.621 199.6 141.087 198.8 141.552C199.4 140.887 200.066 140.355 200.8 139.757C201.533 139.159 202.266 138.693 203.066 138.228C202.466 138.959 201.733 139.491 201.066 140.023Z" fill="url(#paint17_linear)"/>
<path d="M199.467 153.586C199.533 149.597 191.467 118.749 191.467 118.749C193.467 118.483 194.6 116.356 194.6 116.356C197.533 125.929 199.533 153.586 199.467 153.586Z" fill="url(#paint18_linear)"/>
<path d="M179.6 149.729L181.8 149.064L186.8 166.017L179.6 149.729Z" fill="#DBDBDB"/>
<path opacity="0.39" d="M187.867 109.508L183.667 103.924C184.667 105.652 187.933 105.918 187.933 105.918L187.867 109.508Z" fill="url(#paint19_linear)"/>
<path d="M183.4 214.682L185.2 227.646L188.734 253.64L188.8 253.972L188.467 254.039L183.8 254.97L183.934 254.438L187.067 256.565L187.534 256.898L187.067 257.164L183.867 258.759L184 258.626C181.734 264.344 179.4 270.061 177.134 275.778C174.867 281.496 172.534 287.213 170.2 292.931C172.334 287.147 174.534 281.363 176.734 275.645C178.934 269.928 181.134 264.144 183.4 258.427L183.467 258.294L183.6 258.227L186.734 256.632L186.667 257.164L183.467 255.036L182.867 254.637L183.534 254.504L188.2 253.574L187.934 253.906L184.534 227.912L182.867 214.948L181.267 201.984L183.4 214.682Z" fill="white"/>
<g opacity="0.25">
<path opacity="0.25" d="M169.933 303.634C169.333 304.232 168.6 304.831 167.933 305.363C166.533 306.493 165.133 307.556 163.6 308.487L163.333 308.62L163.133 308.554C162.533 308.354 161.933 308.155 161.4 308.022C160.867 307.822 160.267 307.556 159.733 307.357C160.333 307.357 160.933 307.423 161.533 307.49C162.133 307.556 162.733 307.689 163.333 307.756L162.933 307.822C164.267 306.626 165.733 305.495 167.133 304.498C167.867 303.966 168.667 303.501 169.4 303.036C170.133 302.504 171 302.105 171.8 301.706C171.267 302.371 170.6 302.969 169.933 303.634Z" fill="url(#paint20_linear)"/>
</g>
<g opacity="0.25">
<path opacity="0.25" d="M182.267 313.806C181.467 315.468 180.6 317.197 179.733 318.859L179.533 319.191H179.133C177.4 319.058 175.533 318.925 173.8 318.792C172.067 318.593 170.2 318.46 168.467 318.26C166.667 318.127 164.867 317.928 163.133 317.728C161.4 317.529 159.6 317.263 157.867 316.997C159.6 316.997 161.467 316.997 163.2 317.064C164.933 317.13 166.8 317.197 168.533 317.329C170.267 317.396 172.133 317.529 173.867 317.662C175.6 317.795 177.467 317.928 179.2 318.127L178.667 318.46C179.6 316.798 180.533 315.269 181.533 313.607C182.467 311.944 183.467 310.415 184.533 308.82C183.867 310.415 183.067 312.077 182.267 313.806Z" fill="url(#paint21_linear)"/>
</g>
<g opacity="0.25">
<path opacity="0.25" d="M215.667 314.737C214.934 314.471 214.134 314.205 213.4 313.939C212.667 313.606 211.867 313.274 211.2 312.875C210.534 312.476 209.8 312.077 209.2 311.479C210 311.545 210.867 311.745 211.6 312.011C212.334 312.277 213.134 312.543 213.867 312.809C214.6 313.075 215.4 313.473 216.067 313.872C216.734 314.271 217.467 314.67 218.067 315.268C217.267 315.202 216.467 315.003 215.667 314.737Z" fill="url(#paint22_linear)"/>
</g>
<g opacity="0.25">
<path opacity="0.25" d="M205.667 321.916C204.534 321.916 203.334 321.85 202.2 321.717C201.067 321.651 199.867 321.451 198.734 321.252C197.6 321.052 196.467 320.786 195.333 320.454C196.533 320.254 197.667 320.254 198.867 320.254C200 320.254 201.2 320.321 202.334 320.454C203.467 320.52 204.667 320.72 205.8 320.919C206.934 321.119 208.067 321.385 209.2 321.717C208 321.85 206.867 321.916 205.667 321.916Z" fill="url(#paint23_linear)"/>
</g>
<path d="M182.667 95.68C181.333 95.7465 180.067 95.8129 178.733 95.6135C180 95.2811 181.333 95.1481 182.6 95.0816C183.933 95.0151 185.2 94.9486 186.533 95.1481C185.267 95.414 184 95.6135 182.667 95.68Z" fill="url(#paint24_linear)"/>
<path d="M228.333 190.283C228.333 190.283 243.733 187.092 244.267 203.313C244.733 218.272 246.667 312.21 246.933 326.504C246.933 327.501 247.8 328.299 248.8 328.299C249.867 328.299 250.667 327.434 250.667 326.371L247.267 202.05C247.267 202.05 248.067 185.297 228.4 187.291C228.4 187.291 222.667 188.289 222.133 194.804L224.2 194.671C224.067 194.737 224.6 191.28 228.333 190.283Z" fill="#CE4174"/>
<path d="M209.933 141.619L231.8 177.053L227.133 180.111L212.667 162.095L204.733 144.876C204.733 144.876 205.667 143.081 209.933 141.619Z" fill="#EAB575"/>
<path d="M170.133 147.602C170.133 147.602 181.133 181.84 185.133 182.438C189.067 183.036 227.2 144.876 227.2 144.876L223.133 139.159L188.667 165.951L181.467 144.943C174.4 145.541 170.133 147.602 170.133 147.602Z" fill="#EAB575"/>
<path opacity="0.39" d="M206.933 164.555L192.666 177.319C184.533 184.3 185.2 182.505 185.2 182.505C188 180.976 221.133 146.871 221.133 146.871L220.266 141.486C221 144.81 225.466 146.472 225.466 146.472C224.6 147.602 206.933 164.555 206.933 164.555Z" fill="url(#paint25_linear)"/>
<path d="M181.466 144.876C176.533 144.61 170.066 147.602 170.066 147.602L170.933 150.328C174.533 147.735 182.333 147.602 182.333 147.602L181.466 144.876Z" fill="url(#paint26_linear)"/>
<path d="M219.667 145.94L189.867 167.081L218.933 143.613L219.667 145.94Z" fill="url(#paint27_linear)"/>
<path d="M233.867 183.303C233.867 183.303 238.933 185.896 237.133 191.081C237.133 191.081 237.267 193.807 239.467 192.344C241.6 190.882 239.467 184.965 239.467 184.965L233.867 183.303Z" fill="#EAB575"/>
<path d="M230.6 183.436C230.6 183.436 236.333 186.361 234.267 192.211C234.267 192.211 234.467 195.336 236.867 193.674C239.267 192.012 236.867 185.297 236.867 185.297L230.6 183.436Z" fill="#D6A269"/>
<path d="M228.934 183.436C228.934 183.436 234.667 186.361 232.6 192.211C232.6 192.211 232.8 195.336 235.2 193.674C237.6 192.012 235.2 185.297 235.2 185.297L228.934 183.436Z" fill="#EAB575"/>
<path d="M188.4 91.2257L186.533 98.0068C186.533 98.0068 186.333 95.2811 184.467 96.8767C182.6 98.4722 185.133 100.799 185.133 100.799L181.867 101.796C181.867 101.796 174.333 98.0733 177.2 95.68C180.067 93.2867 176.333 89.8296 179 89.8296C181.667 89.8296 184.6 86.5056 186.067 88.367C187.533 90.2285 188.4 91.2257 188.4 91.2257Z" fill="black"/>
<path d="M331.533 193.94C345.856 193.94 357.467 192.154 357.467 189.951C357.467 187.748 345.856 185.962 331.533 185.962C317.211 185.962 305.6 187.748 305.6 189.951C305.6 192.154 317.211 193.94 331.533 193.94Z" fill="#2B9EAA"/>
<path d="M232.133 109.309V106.583H232.2V109.309H232.133Z" fill="#B9D390"/>
<path d="M232.133 103.924V101.198H232.267L232.2 103.924H232.133Z" fill="#B9D390"/>
<path d="M232.134 98.5387L232.067 95.813H232.267V98.5387H232.134Z" fill="#B9D390"/>
<path d="M232.067 93.1539V90.4282H232.334L232.267 93.1539H232.067Z" fill="#B9D390"/>
<path d="M232.067 87.7687L232 85.043H232.333V87.7687H232.067Z" fill="#B9D390"/>
<path d="M232 82.3839V79.6582H232.333V82.3839H232Z" fill="#B9D390"/>
<path d="M232 76.9989V75.6692L232.2 75.8687H230.867V75.4033L232.2 75.4698H232.4V75.6692V76.9989H232Z" fill="#B9D390"/>
<path d="M228.267 75.8693H225.6V75.4033H228.267V75.8693Z" fill="#B9D390"/>
<path d="M223 75.8693H220.4V75.4033H223V75.8693Z" fill="#B9D390"/>
<path d="M217.8 75.9361H215.2V75.3369H217.8V75.9361Z" fill="#B9D390"/>
<path d="M212.6 75.9361H209.934V75.3369H212.6V75.9361Z" fill="#B9D390"/>
<path d="M207.333 75.9353L204.733 76.0018V75.2705L207.333 75.337V75.9353Z" fill="#B9D390"/>
<path d="M202.134 76.0018H199.534V75.2705H202.134V76.0018Z" fill="#B9D390"/>
<path d="M196.933 76.0018H194.267V75.2705H196.933V76.0018Z" fill="#B9D390"/>
<path d="M191.667 76.0018H189.067V75.2705H191.667V76.0018Z" fill="#B9D390"/>
<path d="M186.467 76.0018L183.867 76.0683V75.2705H186.467V76.0018Z" fill="#B9D390"/>
<path d="M181.267 76.0684H178.6V75.2041H181.267V76.0684Z" fill="#B9D390"/>
<path d="M176 76.0684H173.4V75.2041H176V76.0684Z" fill="#B9D390"/>
<path d="M170.8 76.0684H168.2V75.2041H170.8V76.0684Z" fill="#B9D390"/>
<path d="M165.6 76.0684H162.934V75.2041H165.6V76.0684Z" fill="#B9D390"/>
<path d="M160.333 76.1344H157.733V75.1372L160.333 75.2037V76.1344Z" fill="#B9D390"/>
<path d="M155.134 76.1343H153.8H153.333V75.669V74.3394H154.267V75.669L153.8 75.1371H155.134V76.1343Z" fill="#B9D390"/>
<path d="M153.267 71.7466V69.1538H154.333L154.267 71.7466H153.267Z" fill="#B9D390"/>
<path d="M153.267 66.5611V63.9683H154.333V66.5611H153.267Z" fill="#B9D390"/>
<path d="M153.267 61.4419V58.8491H154.333V61.4419H153.267Z" fill="#B9D390"/>
<path d="M153.267 56.2568V53.6641H154.333V56.2568H153.267Z" fill="#B9D390"/>
<path d="M153.267 51.1377L153.2 48.5449H154.334V51.1377H153.267Z" fill="#B9D390"/>
<path d="M154.334 43.3594H153.2V45.9521H154.334V43.3594Z" fill="#B9D390"/>
<path d="M153.2 40.7658V39.4361V38.9043H153.8H155.133V40.0345H153.8L154.4 39.4361V40.7658H153.2Z" fill="#B9D390"/>
<path d="M160.467 38.9053H157.8V40.0355H160.467V38.9053Z" fill="#B9D390"/>
<path d="M165.734 38.9053H163.067V40.0355H165.734V38.9053Z" fill="#B9D390"/>
<path d="M171.067 38.9053H168.4V40.1019H171.067V38.9053Z" fill="#B9D390"/>
<path d="M176.4 38.9053H173.733V40.1019H176.4V38.9053Z" fill="#B9D390"/>
<path d="M181.667 38.8384H179V40.0351H181.667V38.8384Z" fill="#B9D390"/>
<path d="M187 38.8384H184.333V40.0351H187V38.8384Z" fill="#B9D390"/>
<path d="M192.334 38.8384H189.667V40.0351H192.334V38.8384Z" fill="#B9D390"/>
<path d="M197.6 38.8384H194.934V40.0351H197.6V38.8384Z" fill="#B9D390"/>
<path d="M202.933 38.8384H200.267V40.1015H202.933V38.8384Z" fill="#B9D390"/>
<path d="M208.2 38.8384H205.534V40.1015H208.2V38.8384Z" fill="#B9D390"/>
<path d="M213.533 38.8384H210.867V40.1015H213.533V38.8384Z" fill="#B9D390"/>
<path d="M218.867 38.8384H216.2V40.1015H218.867V38.8384Z" fill="#B9D390"/>
<path d="M224.133 38.8384H221.467V40.1015H224.133V38.8384Z" fill="#B9D390"/>
<path d="M229.467 38.8384H226.8V40.1015H229.467V38.8384Z" fill="#B9D390"/>
<path d="M234.8 38.8384H232.133V40.168H234.8V38.8384Z" fill="#B9D390"/>
<path d="M240.067 38.8384H237.4V40.168H240.067V38.8384Z" fill="#B9D390"/>
<path d="M245.4 38.8384H242.733V40.168H245.4V38.8384Z" fill="#B9D390"/>
<path d="M250.667 38.772H248V40.1016H250.667V38.772Z" fill="#B9D390"/>
<path d="M256 38.772H253.333V40.1016H256V38.772Z" fill="#B9D390"/>
<path d="M261.333 38.8384H258.667V40.168H261.333V38.8384Z" fill="#B9D390"/>
<path d="M266.6 38.8384H263.934V40.168H266.6V38.8384Z" fill="#B9D390"/>
<path d="M271.933 38.8384H269.267V40.1015H271.933V38.8384Z" fill="#B9D390"/>
<path d="M277.267 38.8384H274.6V40.1015H277.267V38.8384Z" fill="#B9D390"/>
<path d="M282.533 38.8384H279.867V40.1015H282.533V38.8384Z" fill="#B9D390"/>
<path d="M287.867 38.8384H285.2V40.1015H287.867V38.8384Z" fill="#B9D390"/>
<path d="M293.2 38.8384H290.534V40.1015H293.2V38.8384Z" fill="#B9D390"/>
<path d="M298.467 38.8384H295.8V40.1015H298.467V38.8384Z" fill="#B9D390"/>
<path d="M303.8 38.8384H301.134V40.0351H303.8V38.8384Z" fill="#B9D390"/>
<path d="M309.067 38.8384H306.4V40.0351H309.067V38.8384Z" fill="#B9D390"/>
<path d="M314.4 38.8384H311.733V40.0351H314.4V38.8384Z" fill="#B9D390"/>
<path d="M319.734 38.8384H317.067V40.0351H319.734V38.8384Z" fill="#B9D390"/>
<path d="M325 38.8384H322.333V40.0351H325V38.8384Z" fill="#B9D390"/>
<path d="M330.334 38.9053H327.667V40.1019H330.334V38.9053Z" fill="#B9D390"/>
<path d="M333 38.9053H334.333H334.867V39.4371V40.7667H333.733V39.4371L334.333 40.0355H333V38.9053Z" fill="#B9D390"/>
<path d="M334.867 43.3594H333.733V45.9521H334.867V43.3594Z" fill="#B9D390"/>
<path d="M334.867 48.5449H333.733V51.1377H334.867V48.5449Z" fill="#B9D390"/>
<path d="M334.867 53.7305H333.733V56.3232H334.867V53.7305Z" fill="#B9D390"/>
<path d="M334.867 58.8491H333.733V61.4419H334.867V58.8491Z" fill="#B9D390"/>
<path d="M334.867 64.0352V66.6279H333.733V64.0352H334.867Z" fill="#B9D390"/>
<path d="M334.867 69.1538V71.7466H333.8L333.733 69.1538H334.867Z" fill="#B9D390"/>
<path d="M334.8 74.3394V76.9321H333.8V74.3394H334.8Z" fill="#B9D390"/>
<path d="M334.8 79.5254V82.1182H333.8V79.5254H334.8Z" fill="#B9D390"/>
<path d="M334.8 84.644V87.2368H333.8V84.644H334.8Z" fill="#B9D390"/>
<path d="M334.8 89.8296V92.4224H333.8V89.8296H334.8Z" fill="#B9D390"/>
<path d="M334.733 95.0151V97.6079H333.867V95.0151H334.733Z" fill="#B9D390"/>
<path d="M334.733 100.134V102.727H333.867V100.134H334.733Z" fill="#B9D390"/>
<path d="M334.733 105.32V107.913H333.867V105.32H334.733Z" fill="#B9D390"/>
<path d="M334.733 110.505V111.835V112.234H334.333H333V111.436L334.333 111.37L333.867 111.835V110.505H334.733Z" fill="#B9D390"/>
<path d="M330.8 112.234H328.6V111.437H330.8V112.234Z" fill="#B9D390"/>
<path d="M326.467 112.234L324.267 112.168V111.437H326.467V112.234Z" fill="#B9D390"/>
<path d="M322.067 112.168H320.734L321.134 111.835V113.165H320.4V111.835V111.437H320.734H322.067V112.168Z" fill="#B9D390"/>
<path d="M321.134 115.891V118.616H320.4V115.891H321.134Z" fill="#B9D390"/>
<path d="M321.134 121.409V124.134H320.4V121.409H321.134Z" fill="#B9D390"/>
<path d="M321.067 126.926V129.652H320.467V126.926H321.067Z" fill="#B9D390"/>
<path d="M321.067 132.378V135.17H320.467V132.378H321.067Z" fill="#B9D390"/>
<path d="M321 137.896V140.688H320.533L320.467 137.896H321Z" fill="#B9D390"/>
<path d="M321 143.414V146.14H320.534V143.414H321Z" fill="#B9D390"/>
<path d="M321 148.932L320.934 151.657H320.6L320.534 148.932H321Z" fill="#B9D390"/>
<path d="M320.933 154.45V157.175H320.6V154.45H320.933Z" fill="#B9D390"/>
<path d="M320.933 159.901V162.694H320.6V159.901H320.933Z" fill="#B9D390"/>
<path d="M320.867 165.419V168.211H320.667V165.419H320.867Z" fill="#B9D390"/>
<path d="M320.867 170.937V173.663H320.667V170.937H320.867Z" fill="#B9D390"/>
<path d="M320.8 176.455V179.181H320.734L320.667 176.455H320.8Z" fill="#B9D390"/>
<path d="M320.8 181.907V184.699H320.733V181.907H320.8Z" fill="#B9D390"/>
<path d="M320.8 187.424L320.733 188.754V187.424H320.8Z" fill="#B9D390"/>
<path d="M343.8 183.436L343.733 180.776H343.8V183.436Z" fill="#F95F8F"/>
<path d="M343.733 178.117V175.458H343.8V178.117H343.733Z" fill="#F95F8F"/>
<path d="M343.733 172.798V170.139H343.8V172.798H343.733Z" fill="#F95F8F"/>
<path d="M343.733 167.48V164.821H343.8V167.48H343.733Z" fill="#F95F8F"/>
<path d="M343.733 162.162V159.502H343.867L343.8 162.162H343.733Z" fill="#F95F8F"/>
<path d="M343.733 156.843V154.184H343.867V156.843H343.733Z" fill="#F95F8F"/>
<path d="M343.733 151.524L343.667 148.865H343.867V151.524H343.733Z" fill="#F95F8F"/>
<path d="M343.667 146.206V143.547H343.867V146.206H343.667Z" fill="#F95F8F"/>
<path d="M343.667 140.887V138.228H343.867V140.887H343.667Z" fill="#F95F8F"/>
<path d="M343.667 135.569V132.91H343.867V135.569H343.667Z" fill="#F95F8F"/>
<path d="M343.667 130.251V127.591H343.933L343.867 130.251H343.667Z" fill="#F95F8F"/>
<path d="M343.667 124.932V122.272H343.933V124.932H343.667Z" fill="#F95F8F"/>
<path d="M343.667 119.613V116.954H343.933V119.613H343.667Z" fill="#F95F8F"/>
<path d="M343.6 114.295V111.636H343.933V114.295H343.6Z" fill="#F95F8F"/>
<path d="M343.6 108.977V106.317H343.933V108.977H343.6Z" fill="#F95F8F"/>
<path d="M343.6 103.658V100.999H343.933V103.658H343.6Z" fill="#F95F8F"/>
<path d="M343.6 98.3394V95.6802H343.933V98.3394H343.6Z" fill="#F95F8F"/>
<path d="M343.6 93.0208V91.2258V91.0264H343.8H344.6V91.4253H343.8L344 91.2258V93.0208H343.6Z" fill="#F95F8F"/>
<path d="M347.267 91.0265L349.933 90.96V91.4926L347.267 91.426V91.0265Z" fill="#F95F8F"/>
<path d="M352.6 90.96H355.267V91.4926H352.6V90.96Z" fill="#F95F8F"/>
<path d="M357.934 90.8936H360.6V91.5593H357.934V90.8936Z" fill="#F95F8F"/>
<path d="M363.267 90.8936H365.933V91.5593H363.267V90.8936Z" fill="#F95F8F"/>
<path d="M368.6 90.8271H371.267V91.6249H368.6V90.8271Z" fill="#F95F8F"/>
<path d="M373.934 90.8271H376.6V91.6249H373.934V90.8271Z" fill="#F95F8F"/>
<path d="M379.267 90.8267L381.933 90.7603V91.6245H379.267V90.8267Z" fill="#F95F8F"/>
<path d="M384.6 90.7603H387.267V91.691H384.6V90.7603Z" fill="#F95F8F"/>
<path d="M389.934 90.7603H392.6V91.691H389.934V90.7603Z" fill="#F95F8F"/>
<path d="M395.267 90.7603L397.933 90.6938V91.7576L395.267 91.6911V90.7603Z" fill="#F95F8F"/>
<path d="M400.6 90.6938H403.267V91.7576H400.6V90.6938Z" fill="#F95F8F"/>
<path d="M405.934 90.6938H408.6V91.7576H405.934V90.6938Z" fill="#F95F8F"/>
<path d="M411.267 90.6274H413.933V91.7576H411.267V90.6274Z" fill="#F95F8F"/>
<path d="M416.6 90.6274H419.267V91.8241H416.6V90.6274Z" fill="#F95F8F"/>
<path d="M421.934 90.6275H423.067L422.534 91.2259L422.467 89.6968H423.667V91.2259V91.8242H423.067H421.934V90.6275Z" fill="#F95F8F"/>
<path d="M422.467 87.0377V84.3784H423.667V87.0377H422.467Z" fill="#F95F8F"/>
<path d="M422.467 81.7188V79.0596H423.667V81.7188H422.467Z" fill="#F95F8F"/>
<path d="M422.467 76.4005V73.7412H423.667V76.4005H422.467Z" fill="#F95F8F"/>
<path d="M422.467 71.0821V68.4229H423.733L423.667 71.0821H422.467Z" fill="#F95F8F"/>
<path d="M422.467 65.7633V63.104H423.733V65.7633H422.467Z" fill="#F95F8F"/>
<path d="M422.467 60.4449V57.7856H423.733V60.4449H422.467Z" fill="#F95F8F"/>
<path d="M422.467 55.1265V52.4673H423.733V55.1265H422.467Z" fill="#F95F8F"/>
<path d="M422.467 49.8077V47.1484H423.733V49.8077H422.467Z" fill="#F95F8F"/>
<path d="M422.4 44.4893V41.8301H423.734V44.4893H422.4Z" fill="#F95F8F"/>
<path d="M423.4 38.772H426.067V40.1016H423.4V38.772Z" fill="#F95F8F"/>
<path d="M428.733 38.772L431.4 38.8385V40.1016H428.733V38.772Z" fill="#F95F8F"/>
<path d="M434.067 38.8384H436.734V40.1015H434.067V38.8384Z" fill="#F95F8F"/>
<path d="M439.4 38.8384H442.067V40.1015H439.4V38.8384Z" fill="#F95F8F"/>
<path d="M443.933 40.8994V43.5587H442.667V40.8994H443.933Z" fill="#F95F8F"/>
<path d="M443.933 46.2178V48.877H442.667V46.2178H443.933Z" fill="#F95F8F"/>
<path d="M443.933 51.5361V54.1954H442.667V51.5361H443.933Z" fill="#F95F8F"/>
<path d="M443.867 56.855V59.5142H442.667V56.855H443.867Z" fill="#F95F8F"/>
<path d="M443.867 62.1733V64.8326H442.667V62.1733H443.867Z" fill="#F95F8F"/>
<path d="M443.867 67.4917V70.151H442.667V67.4917H443.867Z" fill="#F95F8F"/>
<path d="M443.867 72.8105V75.4698H442.733L442.667 72.8105H443.867Z" fill="#F95F8F"/>
<path d="M443.867 78.1289V80.7882H442.733V78.1289H443.867Z" fill="#F95F8F"/>
<path d="M443.867 83.4473V86.1065H442.733V83.4473H443.867Z" fill="#F95F8F"/>
<path d="M443.867 88.7661V91.4254H442.733V88.7661H443.867Z" fill="#F95F8F"/>
<path d="M443.8 94.0845V96.7437H442.733V94.0845H443.8Z" fill="#F95F8F"/>
<path d="M443.8 99.4028V102.062H442.8V99.4028H443.8Z" fill="#F95F8F"/>
<path d="M443.8 104.722L443.734 107.381H442.8V104.722H443.8Z" fill="#F95F8F"/>
<path d="M443.734 110.04V112.699H442.867L442.8 110.04H443.734Z" fill="#F95F8F"/>
<path d="M443.733 115.358V118.018H442.867V115.358H443.733Z" fill="#F95F8F"/>
<path d="M443.733 120.677L443.667 123.337H442.867V120.677H443.733Z" fill="#F95F8F"/>
<path d="M443.667 125.996V128.655H442.933L442.867 125.996H443.667Z" fill="#F95F8F"/>
<path d="M443.667 131.314V133.973H442.934V131.314H443.667Z" fill="#F95F8F"/>
<path d="M443.6 136.633V139.292H442.934V136.633H443.6Z" fill="#F95F8F"/>
<path d="M443.6 141.951L443.533 144.61H443V141.951H443.6Z" fill="#F95F8F"/>
<path d="M443.533 147.27V149.929H443.067L443 147.27H443.533Z" fill="#F95F8F"/>
<path d="M443.467 152.588V155.248H443.067V152.588H443.467Z" fill="#F95F8F"/>
<path d="M445.867 155.181H448.533V155.447L445.867 155.514V155.181Z" fill="#F95F8F"/>
<path d="M451.2 155.181L453.867 155.248V155.447H451.2V155.181Z" fill="#F95F8F"/>
<path d="M456.533 155.248H459.2V155.381H456.533V155.248Z" fill="#F95F8F"/>
<path d="M461.867 155.314H464.533L461.867 155.381V155.314Z" fill="#F95F8F"/>
<path d="M264.667 321.916H397L373.933 307.889H280.4L264.667 321.916Z" fill="#F95F8F"/>
<path d="M397 321.917H264.667V327.567H397V321.917Z" fill="#CE4174"/>
<path opacity="0.37" d="M325.333 313.34L305.6 189.618H357.467L336.733 313.34" fill="#2B9EAA"/>
<path opacity="0.5" d="M331.267 239.28C337.268 239.28 342.133 231.065 342.133 220.931C342.133 210.797 337.268 202.582 331.267 202.582C325.265 202.582 320.4 210.797 320.4 220.931C320.4 231.065 325.265 239.28 331.267 239.28Z" fill="white"/>
<path d="M331.133 313.54C336.361 313.54 340.6 312.617 340.6 311.479C340.6 310.341 336.361 309.418 331.133 309.418C325.905 309.418 321.667 310.341 321.667 311.479C321.667 312.617 325.905 313.54 331.133 313.54Z" fill="white"/>
<path d="M219.8 315.667L222.6 317.861L232.333 310.615" stroke="url(#paint28_linear)" stroke-miterlimit="10"/>
<path d="M190.333 314.205L192 317.861L198.8 311.878" stroke="url(#paint29_linear)" stroke-miterlimit="10"/>
<path d="M218.267 323.844L239.133 325.839L243.467 315.667" stroke="url(#paint30_linear)" stroke-miterlimit="10"/>
<path d="M194.533 319.723L210.267 321.651" stroke="url(#paint31_linear)" stroke-miterlimit="10"/>
<path d="M124 40.1682C122.2 41.2319 120.133 42.0962 117.933 42.6281C112.866 43.8247 107.133 43.6253 100.8 42.0297C84.5998 37.9079 78.1998 44.689 68.5998 54.9271C62.6665 61.2429 55.2665 69.0877 43.5331 76.0682C34.8665 81.1873 22.1331 86.5058 10.4665 82.4505C3.46648 80.0571 0.133146 75.3369 0.133146 75.2705C0.0664791 75.1375 0.0664791 75.0045 0.199812 74.938C0.333146 74.8716 0.466479 74.8716 0.533146 75.0045C0.533146 75.071 3.79981 79.6582 10.6665 81.9851C22.1331 85.9075 34.7331 80.7219 43.3331 75.6029C54.9998 68.6888 62.3998 60.844 68.2665 54.5282C77.6665 44.4895 84.3998 37.3095 101 41.4314C107.266 43.0269 112.933 43.2264 117.866 42.0297C122.6 40.8995 126.4 38.5062 128.933 35.0492C134.933 27.0049 133.733 14.5064 125.466 0.744711C125.4 0.611748 125.466 0.478785 125.533 0.412303C125.666 0.345822 125.8 0.412303 125.866 0.478785C134.2 14.4399 135.466 27.1379 129.266 35.3151C127.866 37.376 126.066 38.9051 124 40.1682Z" fill="#CCCCCC"/>
<path d="M597.533 326.304C599.733 325.041 602.2 324.044 604.866 323.379C610.933 321.917 617.866 322.182 625.466 324.11C645 329.03 652.6 320.919 664.2 308.554C671.333 300.975 680.2 291.468 694.333 283.091C704.733 276.909 720.066 270.593 734.133 275.38C742.533 278.305 746.533 283.889 746.6 283.956C746.666 284.089 746.666 284.288 746.533 284.355C746.4 284.421 746.2 284.421 746.133 284.288C746.066 284.222 742.2 278.704 733.933 275.911C720.133 271.191 705 277.44 694.666 283.557C680.6 291.867 671.8 301.307 664.666 308.886C653.4 320.919 645.2 329.628 625.333 324.576C617.8 322.648 610.933 322.448 605 323.845C599.333 325.174 594.733 328.099 591.666 332.221C584.4 341.861 585.933 356.886 595.8 373.44C595.866 373.573 595.866 373.772 595.666 373.839C595.466 373.905 595.333 373.905 595.266 373.706C585.266 356.952 583.733 341.662 591.133 331.822C592.866 329.695 595 327.767 597.533 326.304Z" fill="#CCCCCC"/>
<path d="M49.6001 50.007C52.2668 47.3478 56.5334 47.3478 59.2001 49.9406C61.8668 52.5998 66.1334 52.5333 68.8001 49.8741C71.4668 47.2148 75.7334 47.2148 78.4001 49.8076C81.0668 52.4669 85.3334 52.4004 88.0001 49.7411C90.6668 47.0819 94.9334 47.0819 97.6001 49.6746" stroke="black" stroke-width="1.75" stroke-miterlimit="10" stroke-linecap="round"/>
<path d="M641.066 309.019C643.133 306.958 646.466 306.958 648.533 308.953C650.6 311.014 653.933 310.947 656 308.886C658.066 306.825 661.4 306.825 663.466 308.82C665.533 310.881 668.866 310.814 670.933 308.753C673 306.692 676.333 306.692 678.4 308.687" stroke="black" stroke-width="1.75" stroke-miterlimit="10" stroke-linecap="round"/>
<path d="M708.067 112.965C704.2 114.561 700.6 115.226 697.133 115.026C688.2 114.428 680.933 107.447 675.467 94.3504C668.667 78.0624 659.533 67.2924 647.6 61.575C637.333 56.5889 626.8 56.19 617.533 55.7911C604.867 55.2593 594.933 54.7939 593.067 42.5613C592.333 37.5752 593.2 33.4533 595.867 30.0628C603.067 20.6889 621.667 18.5615 643.2 16.0352C672.667 12.5781 706 8.72221 716 -15.4771L716.733 -15.1446C706.533 9.45351 673 13.3759 643.333 16.7665C622.867 19.1598 603.533 21.3537 596.533 30.4617C594.067 33.6528 593.2 37.5752 593.933 42.3618C595.667 53.9961 604.867 54.395 617.6 54.9268C635.8 55.7246 660.667 56.7883 676.2 94.018C681.533 106.849 688.6 113.63 697.2 114.162C722.8 115.89 754.467 62.3728 754.8 61.8409L755.467 62.2398C755.4 62.3728 747.4 76.0015 736.267 89.2313C726 101.53 716.6 109.442 708.067 112.965Z" fill="#CCCCCC"/>
<path d="M657.8 109.84C655.867 109.84 654.267 108.245 654.267 106.317C654.267 104.389 655.867 102.793 657.8 102.793C668.2 102.793 676.667 94.3502 676.667 83.9791C676.667 82.0511 678.267 80.4556 680.2 80.4556C682.133 80.4556 683.733 82.0511 683.733 83.9791C683.733 98.2726 672.067 109.84 657.8 109.84ZM680.2 81.2533C678.667 81.2533 677.4 82.5165 677.4 84.0456C677.4 94.7491 668.667 103.525 657.867 103.525C656.333 103.525 655.067 104.788 655.067 106.317C655.067 107.846 656.333 109.109 657.867 109.109C671.733 109.109 683.067 97.8737 683.067 83.9791C683 82.5165 681.733 81.2533 680.2 81.2533Z" fill="black"/>
<path d="M680.2 87.5695C678.266 87.5695 676.667 85.9739 676.667 84.046C676.667 82.118 678.266 80.5225 680.2 80.5225C682.133 80.5225 683.733 82.118 683.733 84.046C683.733 85.9739 682.133 87.5695 680.2 87.5695ZM680.2 81.2538C678.666 81.2538 677.4 82.5169 677.4 84.046C677.4 85.575 678.666 86.8382 680.2 86.8382C681.733 86.8382 683 85.575 683 84.046C683 82.5169 681.733 81.2538 680.2 81.2538Z" fill="black"/>
<path d="M654.267 107.381C639.667 107.381 627.733 95.547 627.733 80.9211C627.733 66.3616 639.6 54.4614 654.267 54.4614C668.867 54.4614 680.8 66.2951 680.8 80.9211C680.8 81.7188 680.734 82.5831 680.667 83.3809C680.667 83.5803 680.467 83.7133 680.267 83.7133C680.067 83.7133 679.934 83.5138 679.934 83.3144C680 82.5166 680.067 81.7188 680.067 80.9211C680.067 66.694 668.467 55.1927 654.267 55.1927C640 55.1927 628.467 66.7605 628.467 80.9211C628.467 95.0816 640.067 106.649 654.267 106.649C654.4 106.649 654.533 106.649 654.667 106.649C654.867 106.649 655 106.782 655 106.982C655 107.181 654.867 107.314 654.667 107.314C654.533 107.381 654.4 107.381 654.267 107.381Z" fill="black"/>
<path d="M88.4661 337.472C88.4661 339.334 88.2662 341.262 87.7995 343.123C86.6661 347.843 84.1995 352.497 80.4661 357.018C73.9995 364.73 64.3995 370.846 64.3328 370.912L64.1995 370.647C64.2662 370.58 73.8661 364.464 80.2662 356.818C83.9995 352.364 86.4662 347.71 87.5328 343.057C88.8661 337.206 88.1328 331.356 85.1995 325.572C80.1328 315.4 71.3995 313.539 62.9995 311.744C56.7328 310.414 50.2661 309.018 45.3995 304.165C39.9995 298.78 37.2661 289.539 36.9995 275.91C36.0661 225.517 14.4661 225.517 0.132812 225.517V225.185C14.5328 225.185 36.3328 225.185 37.2661 275.91C37.5328 289.473 40.2662 298.647 45.5995 303.966C50.3995 308.752 56.7995 310.148 63.0661 311.478C71.5328 313.273 80.3328 315.201 85.4661 325.439C87.4661 329.428 88.4661 333.483 88.4661 337.472Z" fill="#CCCCCC"/>
<path d="M64.2667 371.046L64 370.581L64.0667 370.514C64.1333 370.448 73.6667 364.398 80.1333 356.686C83.8667 352.232 86.3333 347.578 87.4 342.924C88.7333 337.141 88 331.29 85.1333 325.506C80.0667 315.401 71.4 313.54 63 311.745C56.7333 310.415 50.2 309.019 45.3333 304.166C39.9333 298.714 37.1333 289.473 36.8667 275.845C35.9333 225.518 14.4 225.518 0.133333 225.518H0V224.986H0.133333C14.6 224.986 36.4667 224.986 37.4 275.778C37.6667 289.274 40.3333 298.448 45.6667 303.767C50.4 308.487 56.8667 309.883 63.0667 311.213C71.6 313.074 80.4 314.936 85.5333 325.24C87.5333 329.229 88.5333 333.285 88.5333 337.274C88.5333 339.135 88.3333 341.063 87.8667 342.924C86.7333 347.645 84.2667 352.365 80.4667 356.886C74.0667 364.531 64.4 370.714 64.2667 370.78V371.046ZM64.2667 370.714C65.3333 370.115 74.2 364.265 80.3333 356.952C84.1333 352.431 86.6 347.778 87.6667 343.124C88.1333 341.262 88.3333 339.401 88.3333 337.473C88.3333 333.484 87.3333 329.429 85.3333 325.506C80.2 315.268 71.4667 313.407 63 311.545C56.7333 310.216 50.3333 308.819 45.4667 304.033C40.0667 298.648 37.3333 289.473 37.1333 275.911C36.2 225.452 14.6 225.319 0.2 225.319V225.385C14.5333 225.385 36.1333 225.518 37.0667 275.911C37.3333 289.473 40.0667 298.714 45.4667 304.099C50.2667 308.886 56.7333 310.282 63 311.678C71.4667 313.473 80.2 315.401 85.2667 325.573C88.2 331.357 88.9333 337.274 87.6 343.124C86.5333 347.778 84.0667 352.431 80.2667 356.952C74.2667 364.132 65.2667 370.049 64.2667 370.714Z" fill="#CCCCCC"/>
<path d="M42.0002 334.282C41.5335 334.282 41.1335 334.083 40.8002 333.75C40.2002 333.152 39.2668 333.152 38.7335 333.75C38.4002 334.083 38.0002 334.282 37.5335 334.282C37.0668 334.282 36.6668 334.083 36.3335 333.75C35.7335 333.152 34.8002 333.152 34.2668 333.75C34.2002 333.817 34.1335 333.817 34.1335 333.75C34.0668 333.684 34.0668 333.617 34.1335 333.617C34.8002 332.952 35.8668 332.952 36.5335 333.617C36.8002 333.883 37.2002 334.016 37.6002 334.016C38.0002 334.016 38.3335 333.883 38.6668 333.617C39.3335 332.952 40.4002 332.952 41.0668 333.617C41.3335 333.883 41.7335 334.016 42.1335 334.016C42.5335 334.016 42.8668 333.883 43.2002 333.617C43.8668 332.952 44.9335 332.952 45.6002 333.617C45.6668 333.684 45.6668 333.75 45.6002 333.75C45.5335 333.817 45.4668 333.817 45.4668 333.75C44.8668 333.152 43.9335 333.152 43.4002 333.75C42.8668 334.083 42.4002 334.282 42.0002 334.282Z" fill="black"/>
<path d="M41.9997 336.011C41.533 336.011 41.133 335.811 40.7997 335.479C40.1997 334.88 39.2663 334.88 38.733 335.479C38.3997 335.811 37.9997 336.011 37.533 336.011C37.0663 336.011 36.6663 335.811 36.333 335.479C35.733 334.88 34.7997 334.88 34.2663 335.479C34.1997 335.545 34.133 335.545 34.133 335.479C34.0663 335.412 34.0663 335.346 34.133 335.346C34.7997 334.681 35.8663 334.681 36.533 335.346C36.7997 335.612 37.1997 335.745 37.5997 335.745C37.9997 335.745 38.333 335.612 38.6663 335.346C39.333 334.681 40.3997 334.681 41.0663 335.346C41.333 335.612 41.733 335.745 42.133 335.745C42.533 335.745 42.8663 335.612 43.1997 335.346C43.8663 334.681 44.933 334.681 45.5997 335.346C45.6663 335.412 45.6663 335.479 45.5997 335.479C45.533 335.545 45.4663 335.545 45.4663 335.479C44.8663 334.88 43.933 334.88 43.3997 335.479C42.8663 335.811 42.3997 336.011 41.9997 336.011Z" fill="black"/>
<path d="M37.4666 337.739C36.9999 337.739 36.5999 337.54 36.2666 337.207C35.6666 336.609 34.7333 336.609 34.1999 337.207C34.1333 337.274 34.0666 337.274 34.0666 337.207C33.9999 337.141 33.9999 337.074 34.0666 337.074C34.7333 336.409 35.7999 336.409 36.4666 337.074C37.0666 337.673 37.9999 337.673 38.5333 337.074C39.1999 336.409 40.2666 336.409 40.9333 337.074C41.1999 337.34 41.5999 337.473 41.9999 337.473C42.3999 337.473 42.7333 337.34 43.0666 337.074C43.7333 336.409 44.7999 336.409 45.4666 337.074C45.5333 337.141 45.5333 337.207 45.4666 337.207C45.3999 337.274 45.3333 337.274 45.3333 337.207C44.7333 336.609 43.7999 336.609 43.2666 337.207C42.5999 337.872 41.5333 337.872 40.8666 337.207C40.5999 336.941 40.1999 336.808 39.7999 336.808C39.3999 336.808 39.0666 336.941 38.7333 337.207C38.3333 337.54 37.9333 337.739 37.4666 337.739Z" fill="black"/>
<path d="M37.4666 339.534C36.9999 339.534 36.5999 339.335 36.2666 339.069C35.9999 338.803 35.5999 338.67 35.2666 338.67C34.8666 338.67 34.5333 338.803 34.1999 339.135C34.1333 339.202 34.0666 339.202 34.0666 339.135C33.9999 339.069 33.9999 339.002 34.0666 339.002C34.3999 338.67 34.7999 338.47 35.2666 338.47C35.7333 338.47 36.1333 338.67 36.4666 338.936C36.7333 339.202 37.1333 339.335 37.4666 339.335C37.8666 339.335 38.1999 339.202 38.5333 338.869C39.1999 338.204 40.2666 338.204 40.9333 338.869C41.5333 339.468 42.4666 339.401 42.9999 338.869C43.6666 338.204 44.7333 338.204 45.3999 338.869C45.4666 338.936 45.4666 339.002 45.3999 339.002C45.3333 339.069 45.2666 339.069 45.2666 339.002C44.6666 338.404 43.7333 338.47 43.1999 339.002C42.5333 339.667 41.4666 339.667 40.7999 339.002C40.1999 338.404 39.2666 338.47 38.7333 339.002C38.3333 339.335 37.9333 339.534 37.4666 339.534Z" fill="black"/>
<path d="M32.5996 320.521L55.1329 285.551L77.7329 320.521H32.5996Z" fill="#A7CC80"/>
<path d="M28.1997 320.588C28.1331 320.588 28.0664 320.521 28.0664 320.454C28.0664 320.388 28.1331 320.321 28.1997 320.321H82.0664C82.1331 320.321 82.1997 320.388 82.1997 320.454C82.1997 320.521 82.1331 320.588 82.0664 320.588H28.1997Z" fill="black"/>
</g>
<defs>
<linearGradient id="paint0_linear" x1="519.92" y1="228.211" x2="565.695" y2="228.211" gradientUnits="userSpaceOnUse">
<stop stop-color="#1C75BC" stop-opacity="0.7"/>
<stop offset="0.2358" stop-color="#1D70B8" stop-opacity="0.7707"/>
<stop offset="0.5287" stop-color="#2160AD" stop-opacity="0.8586"/>
<stop offset="0.8505" stop-color="#27479A" stop-opacity="0.9551"/>
<stop offset="1" stop-color="#2B3990"/>
</linearGradient>
<linearGradient id="paint1_linear" x1="536.616" y1="154.836" x2="539.88" y2="154.836" gradientUnits="userSpaceOnUse">
<stop stop-color="#A97C50" stop-opacity="0.7"/>
<stop offset="0.3565" stop-color="#A4774C" stop-opacity="0.8069"/>
<stop offset="0.7983" stop-color="#946742" stop-opacity="0.9395"/>
<stop offset="1" stop-color="#8B5E3C"/>
</linearGradient>
<linearGradient id="paint2_linear" x1="523.582" y1="186.91" x2="553.426" y2="186.91" gradientUnits="userSpaceOnUse">
<stop stop-color="#8DC63F" stop-opacity="0.7"/>
<stop offset="0.1836" stop-color="#6EB13D" stop-opacity="0.7551"/>
<stop offset="0.5671" stop-color="#338A3B" stop-opacity="0.8701"/>
<stop offset="0.8503" stop-color="#0E7139" stop-opacity="0.9551"/>
<stop offset="1" stop-color="#006838"/>
</linearGradient>
<linearGradient id="paint3_linear" x1="535.471" y1="168.447" x2="544.277" y2="190.169" gradientUnits="userSpaceOnUse">
<stop stop-color="#8DC63F" stop-opacity="0.7"/>
<stop offset="0.1836" stop-color="#6EB13D" stop-opacity="0.7551"/>
<stop offset="0.5671" stop-color="#338A3B" stop-opacity="0.8701"/>
<stop offset="0.8503" stop-color="#0E7139" stop-opacity="0.9551"/>
<stop offset="1" stop-color="#006838"/>
</linearGradient>
<linearGradient id="paint4_linear" x1="530.809" y1="171.101" x2="534.504" y2="178.61" gradientUnits="userSpaceOnUse">
<stop stop-color="white" stop-opacity="0.5"/>
<stop offset="1" stop-color="white"/>
</linearGradient>
<linearGradient id="paint5_linear" x1="472.707" y1="275.23" x2="480.95" y2="275.23" gradientUnits="userSpaceOnUse">
<stop stop-color="#2B3990" stop-opacity="0.5"/>
<stop offset="0.1617" stop-color="#2B3E94" stop-opacity="0.5809"/>
<stop offset="0.3626" stop-color="#2A4E9F" stop-opacity="0.6813"/>
<stop offset="0.5842" stop-color="#2967B1" stop-opacity="0.7921"/>
<stop offset="0.819" stop-color="#288ACA" stop-opacity="0.9095"/>
<stop offset="1" stop-color="#27AAE1"/>
</linearGradient>
<linearGradient id="paint6_linear" x1="179.64" y1="121.529" x2="157.483" y2="141.009" gradientUnits="userSpaceOnUse">
<stop stop-color="#8DC63F" stop-opacity="0.7"/>
<stop offset="0.1836" stop-color="#6EB13D" stop-opacity="0.7551"/>
<stop offset="0.5671" stop-color="#338A3B" stop-opacity="0.8701"/>
<stop offset="0.8503" stop-color="#0E7139" stop-opacity="0.9551"/>
<stop offset="1" stop-color="#006838"/>
</linearGradient>
<linearGradient id="paint7_linear" x1="231.329" y1="122.681" x2="234.797" y2="123.052" gradientUnits="userSpaceOnUse">
<stop stop-color="white" stop-opacity="0.5"/>
<stop offset="1" stop-color="white"/>
</linearGradient>
<linearGradient id="paint8_linear" x1="231.098" y1="127.292" x2="233.26" y2="126.499" gradientUnits="userSpaceOnUse">
<stop stop-color="white" stop-opacity="0.5"/>
<stop offset="1" stop-color="white"/>
</linearGradient>
<linearGradient id="paint9_linear" x1="220.152" y1="135.893" x2="229.828" y2="132.338" gradientUnits="userSpaceOnUse">
<stop stop-color="white" stop-opacity="0.5"/>
<stop offset="1" stop-color="white"/>
</linearGradient>
<linearGradient id="paint10_linear" x1="238.664" y1="129.989" x2="241.077" y2="129.103" gradientUnits="userSpaceOnUse">
<stop stop-color="white" stop-opacity="0.5"/>
<stop offset="1" stop-color="white"/>
</linearGradient>
<linearGradient id="paint11_linear" x1="205.045" y1="168.024" x2="161.415" y2="168.024" gradientUnits="userSpaceOnUse">
<stop stop-color="#8DC63F" stop-opacity="0.7"/>
<stop offset="0.1836" stop-color="#6EB13D" stop-opacity="0.7551"/>
<stop offset="0.5671" stop-color="#338A3B" stop-opacity="0.8701"/>
<stop offset="0.8503" stop-color="#0E7139" stop-opacity="0.9551"/>
<stop offset="1" stop-color="#006838"/>
</linearGradient>
<linearGradient id="paint12_linear" x1="205.423" y1="189.63" x2="153.748" y2="189.63" gradientUnits="userSpaceOnUse">
<stop stop-color="#8DC63F" stop-opacity="0.7"/>
<stop offset="0.1836" stop-color="#6EB13D" stop-opacity="0.7551"/>
<stop offset="0.5671" stop-color="#338A3B" stop-opacity="0.8701"/>
<stop offset="0.8503" stop-color="#0E7139" stop-opacity="0.9551"/>
<stop offset="1" stop-color="#006838"/>
</linearGradient>
<linearGradient id="paint13_linear" x1="193.598" y1="115.596" x2="178.252" y2="115.596" gradientUnits="userSpaceOnUse">
<stop stop-color="#8DC63F" stop-opacity="0.7"/>
<stop offset="0.1836" stop-color="#6EB13D" stop-opacity="0.7551"/>
<stop offset="0.5671" stop-color="#338A3B" stop-opacity="0.8701"/>
<stop offset="0.8503" stop-color="#0E7139" stop-opacity="0.9551"/>
<stop offset="1" stop-color="#006838"/>
</linearGradient>
<linearGradient id="paint14_linear" x1="202.968" y1="197.631" x2="157.826" y2="197.631" gradientUnits="userSpaceOnUse">
<stop stop-color="#1C75BC" stop-opacity="0.1"/>
<stop offset="0.1413" stop-color="#1C75BC" stop-opacity="0.2272"/>
<stop offset="1" stop-color="#1C75BC"/>
</linearGradient>
<linearGradient id="paint15_linear" x1="187.911" y1="128.265" x2="175.752" y2="128.265" gradientUnits="userSpaceOnUse">
<stop stop-color="white" stop-opacity="0.1"/>
<stop offset="1" stop-color="white"/>
</linearGradient>
<linearGradient id="paint16_linear" x1="212.289" y1="132.035" x2="197.734" y2="129.578" gradientUnits="userSpaceOnUse">
<stop stop-color="white" stop-opacity="0.1"/>
<stop offset="1" stop-color="white"/>
</linearGradient>
<linearGradient id="paint17_linear" x1="202.88" y1="140.228" x2="199.034" y2="139.579" gradientUnits="userSpaceOnUse">
<stop stop-color="#8DC63F" stop-opacity="0.7"/>
<stop offset="0.1836" stop-color="#6EB13D" stop-opacity="0.7551"/>
<stop offset="0.5671" stop-color="#338A3B" stop-opacity="0.8701"/>
<stop offset="0.8503" stop-color="#0E7139" stop-opacity="0.9551"/>
<stop offset="1" stop-color="#006838"/>
</linearGradient>
<linearGradient id="paint18_linear" x1="199.476" y1="134.951" x2="191.46" y2="134.951" gradientUnits="userSpaceOnUse">
<stop stop-color="white" stop-opacity="0.1"/>
<stop offset="1" stop-color="white"/>
</linearGradient>
<linearGradient id="paint19_linear" x1="187.911" y1="106.699" x2="183.638" y2="106.699" gradientUnits="userSpaceOnUse">
<stop stop-color="#603913"/>
<stop offset="1" stop-color="#603913" stop-opacity="0.1"/>
</linearGradient>
<linearGradient id="paint20_linear" x1="172.204" y1="305.158" x2="159.54" y2="305.158" gradientUnits="userSpaceOnUse">
<stop stop-color="#1C75BC"/>
<stop offset="1" stop-color="#1C75BC" stop-opacity="0.1"/>
</linearGradient>
<linearGradient id="paint21_linear" x1="185.164" y1="313.917" x2="157.758" y2="313.917" gradientUnits="userSpaceOnUse">
<stop stop-color="#1C75BC"/>
<stop offset="1" stop-color="#1C75BC" stop-opacity="0.1"/>
</linearGradient>
<linearGradient id="paint22_linear" x1="218.353" y1="313.352" x2="208.953" y2="313.352" gradientUnits="userSpaceOnUse">
<stop stop-color="#1C75BC"/>
<stop offset="1" stop-color="#1C75BC" stop-opacity="0.1"/>
</linearGradient>
<linearGradient id="paint23_linear" x1="209.258" y1="321.074" x2="195.25" y2="321.074" gradientUnits="userSpaceOnUse">
<stop stop-color="#1C75BC"/>
<stop offset="1" stop-color="#1C75BC" stop-opacity="0.1"/>
</linearGradient>
<linearGradient id="paint24_linear" x1="186.586" y1="95.3659" x2="178.802" y2="95.3659" gradientUnits="userSpaceOnUse">
<stop stop-color="white" stop-opacity="0.3"/>
<stop offset="1" stop-color="white" stop-opacity="0.6"/>
</linearGradient>
<linearGradient id="paint25_linear" x1="225.444" y1="162.079" x2="185.07" y2="162.079" gradientUnits="userSpaceOnUse">
<stop stop-color="#603913"/>
<stop offset="1" stop-color="#603913" stop-opacity="0.1"/>
</linearGradient>
<linearGradient id="paint26_linear" x1="182.399" y1="147.594" x2="170.122" y2="147.594" gradientUnits="userSpaceOnUse">
<stop stop-color="#603913"/>
<stop offset="1" stop-color="#603913" stop-opacity="0.1"/>
</linearGradient>
<linearGradient id="paint27_linear" x1="219.652" y1="155.325" x2="189.872" y2="155.325" gradientUnits="userSpaceOnUse">
<stop stop-color="white" stop-opacity="0.1"/>
<stop offset="1" stop-color="white"/>
</linearGradient>
<linearGradient id="paint28_linear" x1="219.594" y1="314.314" x2="232.553" y2="314.314" gradientUnits="userSpaceOnUse">
<stop stop-color="#F7941D"/>
<stop offset="1" stop-color="#F7941D" stop-opacity="0.1"/>
</linearGradient>
<linearGradient id="paint29_linear" x1="190.011" y1="315.018" x2="199.002" y2="315.018" gradientUnits="userSpaceOnUse">
<stop stop-color="#F7941D"/>
<stop offset="1" stop-color="#F7941D" stop-opacity="0.1"/>
</linearGradient>
<linearGradient id="paint30_linear" x1="218.235" y1="320.865" x2="243.773" y2="320.865" gradientUnits="userSpaceOnUse">
<stop stop-color="#F7941D"/>
<stop offset="1" stop-color="#F7941D" stop-opacity="0.1"/>
</linearGradient>
<linearGradient id="paint31_linear" x1="194.51" y1="320.687" x2="210.325" y2="320.687" gradientUnits="userSpaceOnUse">
<stop stop-color="#F7941D"/>
<stop offset="1" stop-color="#F7941D" stop-opacity="0.1"/>
</linearGradient>
<clipPath id="clip0">
<rect y="0.478516" width="720" height="359" fill="white"/>
</clipPath>
</defs>
</svg>
