<svg width="720" height="485" viewBox="0 0 720 485" fill="none" xmlns="http://www.w3.org/2000/svg">
<g clip-path="url(#clip0)">
<path d="M462.228 250.343L462.152 253.363L462.228 250.343Z" fill="#E8E8E8"/>
<path d="M462.077 256.382L461.926 259.402L462.077 256.382Z" fill="#E8E8E8"/>
<path d="M461.699 262.423L461.397 265.367L461.699 262.423Z" fill="#E8E8E8"/>
<path d="M461.019 268.387L460.642 271.407H460.566L461.019 268.387Z" fill="#E8E8E8"/>
<path d="M460.114 274.352L459.585 277.296H459.51L460.114 274.352Z" fill="#E8E8E8"/>
<path d="M458.906 280.316L458.226 283.261L458.151 283.185L458.906 280.241V280.316Z" fill="#E8E8E8"/>
<path d="M457.471 286.13L456.641 289.075H456.565L457.396 286.13H457.471Z" fill="#E8E8E8"/>
<path d="M455.81 291.943L454.828 294.812H454.753L455.734 291.943H455.81Z" fill="#E8E8E8"/>
<path d="M453.847 297.681L452.79 300.475H452.639L453.772 297.606L453.847 297.681Z" fill="#E8E8E8"/>
<path d="M451.582 303.268L450.449 306.062L450.298 305.986L451.506 303.268H451.582Z" fill="#E8E8E8"/>
<path d="M449.166 308.78L447.807 311.498L447.731 311.422L449.015 308.78H449.166Z" fill="#E8E8E8"/>
<path d="M446.448 314.216L445.014 316.858L444.863 316.783L446.297 314.14L446.448 314.216Z" fill="#E8E8E8"/>
<path d="M443.504 319.501L441.918 322.068L441.843 321.992L443.353 319.425L443.504 319.501Z" fill="#E8E8E8"/>
<path d="M440.332 324.635L438.672 327.127L438.521 327.051L440.182 324.56L440.332 324.635Z" fill="#E8E8E8"/>
<path d="M436.935 329.618L435.123 332.034L435.048 331.958L436.784 329.542L436.935 329.618Z" fill="#E8E8E8"/>
<path d="M433.311 334.45L431.423 336.791L431.272 336.715L433.16 334.375L433.311 334.45Z" fill="#E8E8E8"/>
<path d="M429.46 339.131L427.497 341.396L427.346 341.245L429.385 338.98L429.46 339.131Z" fill="#E8E8E8"/>
<path d="M425.459 343.661L423.421 345.851L423.27 345.7L425.308 343.51L425.459 343.661Z" fill="#E8E8E8"/>
<path d="M421.231 347.964L419.042 350.078L418.891 349.852L421.08 347.813L421.231 347.964Z" fill="#E8E8E8"/>
<path d="M416.852 352.117L414.587 354.08L414.436 353.929L416.701 351.891L416.852 352.117Z" fill="#E8E8E8"/>
<path d="M412.246 356.043L409.906 357.93L409.755 357.704L412.095 355.816L412.246 356.043Z" fill="#E8E8E8"/>
<path d="M407.49 359.742L405.074 361.554L404.923 361.328L407.339 359.516L407.49 359.742Z" fill="#E8E8E8"/>
<path d="M402.582 363.291L400.091 364.952L399.94 364.725L402.431 363.064L402.582 363.291Z" fill="#E8E8E8"/>
<path d="M397.599 366.613L394.957 368.199L394.806 367.821L397.373 366.311L397.599 366.613Z" fill="#E8E8E8"/>
<path d="M392.39 369.708L389.747 371.143L389.521 370.765L392.164 369.331L392.39 369.708Z" fill="#E8E8E8"/>
<path d="M387.03 372.502L384.312 373.861L384.161 373.484L386.879 372.125L387.03 372.502Z" fill="#E8E8E8"/>
<path d="M381.593 375.145L378.8 376.353L378.649 375.9L381.367 374.767L381.593 375.145Z" fill="#E8E8E8"/>
<path d="M376.006 377.485L373.213 378.618L372.986 378.165L375.855 377.032L376.006 377.485Z" fill="#E8E8E8"/>
<path d="M370.344 379.599L367.475 380.581L367.324 380.052L370.193 379.146L370.344 379.599Z" fill="#E8E8E8"/>
<path d="M364.606 381.486L361.662 382.317L361.511 381.788L364.455 380.958L364.606 381.486Z" fill="#E8E8E8"/>
<path d="M358.792 383.072L355.848 383.751L355.697 383.223L358.641 382.543L358.792 383.072Z" fill="#E8E8E8"/>
<path d="M352.828 384.431L349.884 384.96L349.808 384.356L352.753 383.827L352.828 384.431Z" fill="#E8E8E8"/>
<path d="M346.939 385.488L343.919 385.941L343.843 385.261L346.788 384.884L346.939 385.488Z" fill="#E8E8E8"/>
<path d="M340.899 386.318L337.879 386.62L337.803 385.941L340.823 385.639L340.899 386.318Z" fill="#E8E8E8"/>
<path d="M334.859 386.847L331.839 386.998V386.319L334.859 386.168V386.847Z" fill="#E8E8E8"/>
<path d="M328.819 387.149H325.799V386.47L328.819 386.394V387.149Z" fill="#E8E8E8"/>
<path d="M322.779 387.149L319.759 387.074V386.319L322.779 386.394V387.149Z" fill="#E8E8E8"/>
<path d="M316.739 386.922L313.719 386.696L313.794 385.865L316.739 386.092V386.922Z" fill="#E8E8E8"/>
<path d="M310.698 386.394L307.678 386.017L307.754 385.186L310.774 385.564L310.698 386.394Z" fill="#E8E8E8"/>
<path d="M304.659 385.639L301.714 385.111L301.865 384.28L304.81 384.809L304.659 385.639Z" fill="#E8E8E8"/>
<path d="M298.695 384.582L295.75 383.978L295.976 383.072L298.921 383.752L298.695 384.582Z" fill="#E8E8E8"/>
<path d="M292.805 383.299L289.861 382.544L290.087 381.638L293.032 382.393L292.805 383.299Z" fill="#E8E8E8"/>
<path d="M286.916 381.713L284.047 380.807L284.349 379.901L287.218 380.807L286.916 381.713Z" fill="#E8E8E8"/>
<path d="M281.178 379.901L278.309 378.844L278.687 377.938L281.48 378.919L281.178 379.901Z" fill="#E8E8E8"/>
<path d="M275.44 377.787L272.647 376.655L273.024 375.749L275.818 376.881L275.44 377.787Z" fill="#E8E8E8"/>
<path d="M269.853 375.446L267.135 374.238L267.588 373.257L270.306 374.54L269.853 375.446Z" fill="#E8E8E8"/>
<path d="M264.417 372.88L261.699 371.521L262.228 370.539L264.87 371.898L264.417 372.88Z" fill="#E8E8E8"/>
<path d="M259.057 370.086L256.414 368.576L256.943 367.595L259.585 369.105L259.057 370.086Z" fill="#E8E8E8"/>
<path d="M253.772 366.99L251.205 365.405L251.884 364.423L254.376 366.009L253.772 366.99Z" fill="#E8E8E8"/>
<path d="M248.713 363.744L246.221 362.007L246.901 361.026L249.392 362.762L248.713 363.744Z" fill="#E8E8E8"/>
<path d="M243.73 360.196L241.314 358.384L242.069 357.402L244.485 359.214L243.73 360.196Z" fill="#E8E8E8"/>
<path d="M238.973 356.496L236.633 354.533L237.463 353.627L239.728 355.514L238.973 356.496Z" fill="#E8E8E8"/>
<path d="M234.368 352.57L232.103 350.531L233.009 349.55L235.198 351.588L234.368 352.57Z" fill="#E8E8E8"/>
<path d="M229.914 348.418L227.724 346.304L228.706 345.398L230.82 347.512L229.914 348.418Z" fill="#E8E8E8"/>
<path d="M225.686 344.114L223.572 341.849L224.553 341.018L226.592 343.208L225.686 344.114Z" fill="#E8E8E8"/>
<path d="M221.609 339.584L219.646 337.243L220.703 336.413L222.59 338.753L221.609 339.584Z" fill="#E8E8E8"/>
<path d="M217.758 334.903L215.87 332.487L217.003 331.732L218.815 334.072L217.758 334.903Z" fill="#E8E8E8"/>
<path d="M214.134 330.071L212.397 327.58L213.454 326.825L215.191 329.241L214.134 330.071Z" fill="#E8E8E8"/>
<path d="M210.661 325.012L209.075 322.521L210.208 321.766L211.793 324.333L210.661 325.012Z" fill="#E8E8E8"/>
<path d="M207.49 319.878L205.98 317.236L207.188 316.632L208.623 319.199L207.49 319.878Z" fill="#E8E8E8"/>
<path d="M204.545 314.593L203.111 311.951L204.319 311.271L205.753 313.989L204.545 314.593Z" fill="#E8E8E8"/>
<path d="M201.752 309.157L200.544 306.439L201.752 305.835L203.035 308.628L201.752 309.157Z" fill="#E8E8E8"/>
<path d="M199.26 303.646L198.128 300.852L199.411 300.324L200.619 303.117L199.26 303.646Z" fill="#E8E8E8"/>
<path d="M197.071 298.059L196.014 295.19L197.373 294.737L198.354 297.53L197.071 298.059Z" fill="#E8E8E8"/>
<path d="M195.033 292.321L194.202 289.376L195.561 288.999L196.392 291.868L195.033 292.321Z" fill="#E8E8E8"/>
<path d="M193.372 286.508L192.541 283.563L193.976 283.186L194.731 286.13L193.372 286.508Z" fill="#E8E8E8"/>
<path d="M191.861 280.618L191.257 277.598L192.616 277.296L193.296 280.241L191.861 280.618Z" fill="#E8E8E8"/>
<path d="M190.653 274.654L190.125 271.634L191.635 271.407L192.088 274.352L190.653 274.654Z" fill="#E8E8E8"/>
<path d="M189.748 268.613L189.37 265.593L190.805 265.442L191.182 268.462L189.748 268.613Z" fill="#E8E8E8"/>
<path d="M189.068 262.574L188.766 259.554L190.276 259.479L190.502 262.499L189.068 262.574Z" fill="#E8E8E8"/>
<path d="M188.615 256.534L188.54 253.514H190.05L190.125 256.458L188.615 256.534Z" fill="#E8E8E8"/>
<path d="M188.464 250.494L188.539 247.474H190.049L189.974 250.494H188.464Z" fill="#E8E8E8"/>
<path d="M188.615 244.378L188.766 241.358L190.276 241.509L190.125 244.453L188.615 244.378Z" fill="#E8E8E8"/>
<path d="M188.993 238.338L189.295 235.318L190.805 235.469L190.503 238.489L188.993 238.338Z" fill="#E8E8E8"/>
<path d="M189.672 232.298L190.125 229.278L191.56 229.505L191.107 232.525L189.672 232.298Z" fill="#E8E8E8"/>
<path d="M190.578 226.334L191.182 223.314L192.617 223.616L192.013 226.56L190.578 226.334Z" fill="#E8E8E8"/>
<path d="M191.786 220.369L192.465 217.425L193.9 217.727L193.22 220.671L191.786 220.369Z" fill="#E8E8E8"/>
<path d="M193.22 214.48L194.051 211.535L195.485 211.913L194.655 214.857L193.22 214.48Z" fill="#E8E8E8"/>
<path d="M194.957 208.666L195.939 205.797L197.298 206.25L196.316 209.044L194.957 208.666Z" fill="#E8E8E8"/>
<path d="M196.92 202.929L198.052 200.06L199.336 200.588L198.279 203.382L196.92 202.929Z" fill="#E8E8E8"/>
<path d="M199.185 197.266L200.393 194.472L201.677 195.076L200.469 197.794L199.185 197.266Z" fill="#E8E8E8"/>
<path d="M201.677 191.754L202.96 188.961L204.244 189.64L202.885 192.283L201.677 191.754Z" fill="#E8E8E8"/>
<path d="M204.395 186.319L205.829 183.601L207.037 184.28L205.603 186.923L204.395 186.319Z" fill="#E8E8E8"/>
<path d="M207.339 181.034L208.924 178.391L210.057 179.146L208.547 181.713L207.339 181.034Z" fill="#E8E8E8"/>
<path d="M210.51 175.824L212.247 173.333L213.304 174.088L211.643 176.579L210.51 175.824Z" fill="#E8E8E8"/>
<path d="M213.983 170.842L215.719 168.35L216.776 169.181L215.04 171.597L213.983 170.842Z" fill="#E8E8E8"/>
<path d="M217.607 165.933L219.495 163.593L220.476 164.423L218.664 166.764L217.607 165.933Z" fill="#E8E8E8"/>
<path d="M221.458 161.252L223.421 158.987L224.402 159.893L222.439 162.158L221.458 161.252Z" fill="#E8E8E8"/>
<path d="M225.459 156.722L227.573 154.533L228.479 155.439L226.44 157.628L225.459 156.722Z" fill="#E8E8E8"/>
<path d="M229.688 152.419L231.877 150.305L232.783 151.286L230.593 153.325L229.688 152.419Z" fill="#E8E8E8"/>
<path d="M234.141 148.267L236.406 146.304L237.237 147.21L234.972 149.248L234.141 148.267Z" fill="#E8E8E8"/>
<path d="M238.747 144.34L241.088 142.453L241.843 143.434L239.502 145.322L238.747 144.34Z" fill="#E8E8E8"/>
<path d="M243.503 140.566L245.995 138.829L246.674 139.811L244.258 141.547L243.503 140.566Z" fill="#E8E8E8"/>
<path d="M248.486 137.092L250.978 135.431L251.657 136.413L249.166 138.074L248.486 137.092Z" fill="#E8E8E8"/>
<path d="M253.545 133.771L256.112 132.185L256.716 133.167L254.149 134.752L253.545 133.771Z" fill="#E8E8E8"/>
<path d="M258.755 130.751L261.397 129.241L261.926 130.222L259.359 131.732L258.755 130.751Z" fill="#E8E8E8"/>
<path d="M264.115 127.881L266.833 126.522L267.286 127.503L264.644 128.862L264.115 127.881Z" fill="#E8E8E8"/>
<path d="M269.626 125.314L272.42 124.106L272.797 125.012L270.004 126.296L269.626 125.314Z" fill="#E8E8E8"/>
<path d="M275.214 122.974L278.007 121.842L278.385 122.823L275.591 123.88L275.214 122.974Z" fill="#E8E8E8"/>
<path d="M280.876 120.86L283.745 119.878L284.047 120.86L281.178 121.766L280.876 120.86Z" fill="#E8E8E8"/>
<path d="M286.614 119.048L289.559 118.217L289.785 119.123L286.916 119.954L286.614 119.048Z" fill="#E8E8E8"/>
<path d="M292.503 117.462L295.447 116.707L295.674 117.613L292.729 118.368L292.503 117.462Z" fill="#E8E8E8"/>
<path d="M298.393 116.103L301.413 115.575L301.564 116.405L298.619 117.009L298.393 116.103Z" fill="#E8E8E8"/>
<path d="M304.356 115.046L307.376 114.669L307.452 115.499L304.507 115.952L304.356 115.046Z" fill="#E8E8E8"/>
<path d="M310.397 114.292L313.417 113.99L313.492 114.82L310.472 115.122L310.397 114.292Z" fill="#E8E8E8"/>
<path d="M316.437 113.763L319.457 113.612V114.367L316.437 114.518V113.763Z" fill="#E8E8E8"/>
<path d="M322.477 113.461H325.497V114.216L322.477 114.291V113.461Z" fill="#E8E8E8"/>
<path d="M328.517 113.461L331.537 113.612V114.291L328.517 114.216V113.461Z" fill="#E8E8E8"/>
<path d="M334.557 113.763L337.577 113.989L337.501 114.669L334.557 114.442V113.763Z" fill="#E8E8E8"/>
<path d="M340.596 114.291L343.616 114.669L343.541 115.348L340.521 114.971L340.596 114.291Z" fill="#E8E8E8"/>
<path d="M346.637 115.122L349.581 115.575L349.506 116.255L346.486 115.726L346.637 115.122Z" fill="#E8E8E8"/>
<path d="M352.526 116.179L355.546 116.783L355.395 117.387L352.451 116.783L352.526 116.179Z" fill="#E8E8E8"/>
<path d="M358.49 117.462L361.359 118.217L361.208 118.821L358.339 118.066L358.49 117.462Z" fill="#E8E8E8"/>
<path d="M364.304 119.048L367.173 119.954L367.022 120.482L364.153 119.576L364.304 119.048Z" fill="#E8E8E8"/>
<path d="M370.042 120.935L372.911 121.917L372.76 122.445L369.891 121.388L370.042 120.935Z" fill="#E8E8E8"/>
<path d="M375.704 123.049L378.573 124.182L378.347 124.635L375.553 123.502L375.704 123.049Z" fill="#E8E8E8"/>
<path d="M381.292 125.39L384.085 126.673L383.859 127.051L381.141 125.767L381.292 125.39Z" fill="#E8E8E8"/>
<path d="M386.803 127.957L389.445 129.392L389.294 129.769L386.576 128.335L386.803 127.957Z" fill="#E8E8E8"/>
<path d="M392.088 130.826L394.731 132.336L394.58 132.638L391.937 131.128L392.088 130.826Z" fill="#E8E8E8"/>
<path d="M397.297 133.921L399.864 135.507L399.713 135.809L397.146 134.223L397.297 133.921Z" fill="#E8E8E8"/>
<path d="M402.356 137.168L404.848 138.904L404.697 139.206L402.205 137.47L402.356 137.168Z" fill="#E8E8E8"/>
<path d="M407.339 140.717L409.68 142.529L409.529 142.755L407.113 140.943L407.339 140.717Z" fill="#E8E8E8"/>
<path d="M412.096 144.416L414.361 146.379L414.21 146.606L411.869 144.643L412.096 144.416Z" fill="#E8E8E8"/>
<path d="M416.626 148.342L418.891 150.381L418.74 150.607L416.475 148.569L416.626 148.342Z" fill="#E8E8E8"/>
<path d="M421.08 152.495L423.194 154.609L423.043 154.76L420.929 152.646L421.08 152.495Z" fill="#E8E8E8"/>
<path d="M425.308 156.798L427.346 159.063L427.195 159.138L425.157 156.949L425.308 156.798Z" fill="#E8E8E8"/>
<path d="M429.31 161.328L431.273 163.593L431.122 163.744L429.159 161.403L429.31 161.328Z" fill="#E8E8E8"/>
<path d="M433.16 166.009L434.972 168.349L434.821 168.5L433.009 166.084L433.16 166.009Z" fill="#E8E8E8"/>
<path d="M436.784 170.841L438.521 173.257L438.37 173.408L436.633 170.916L436.784 170.841Z" fill="#E8E8E8"/>
<path d="M440.182 175.824L441.767 178.316L441.692 178.391L440.031 175.9L440.182 175.824Z" fill="#E8E8E8"/>
<path d="M443.353 180.958L444.863 183.525L444.712 183.6L443.202 181.033L443.353 180.958Z" fill="#E8E8E8"/>
<path d="M446.297 186.167L447.731 188.885L447.58 188.961L446.221 186.243L446.297 186.167Z" fill="#E8E8E8"/>
<path d="M449.015 191.604L450.298 194.322L450.223 194.397L448.939 191.604H449.015Z" fill="#E8E8E8"/>
<path d="M451.506 197.115L452.639 199.908H452.563L451.431 197.115H451.506Z" fill="#E8E8E8"/>
<path d="M453.697 202.702L454.754 205.571H454.678L453.621 202.778L453.697 202.702Z" fill="#E8E8E8"/>
<path d="M455.735 208.44L456.565 211.309H456.49L455.583 208.44H455.735Z" fill="#E8E8E8"/>
<path d="M457.396 214.178L458.151 217.123L457.32 214.254L457.396 214.178Z" fill="#E8E8E8"/>
<path d="M458.906 220.067L459.51 223.012H459.434L458.83 220.067H458.906Z" fill="#E8E8E8"/>
<path d="M460.038 225.956L460.567 228.976H460.491L460.038 225.956Z" fill="#E8E8E8"/>
<path d="M461.019 231.92L461.397 234.94H461.321L460.944 231.92H461.019Z" fill="#E8E8E8"/>
<path d="M461.699 237.961L461.926 240.981H461.85L461.624 237.961H461.699Z" fill="#E8E8E8"/>
<path d="M462.077 244L462.152 247.02L462.077 244Z" fill="#E8E8E8"/>
<path d="M195.41 226.107C205.918 226.107 214.436 217.589 214.436 207.081C214.436 196.573 205.918 188.055 195.41 188.055C184.902 188.055 176.384 196.573 176.384 207.081C176.384 217.589 184.902 226.107 195.41 226.107Z" fill="white" stroke="#DFF7BF" stroke-miterlimit="10"/>
<path d="M470.004 170.161C470.004 170.161 467.512 176.201 470.004 178.693C472.495 181.26 470.532 185.035 470.759 186.016C470.985 186.998 472.797 191.377 478.233 193.264C483.669 195.152 484.877 200.286 484.877 200.286C484.877 200.286 496.429 205.495 496.127 199.757C495.825 194.019 490.917 180.127 490.917 180.127L479.894 169.029L470.004 170.161Z" fill="black"/>
<path d="M474.232 286.206L482.159 291.491C482.159 291.491 467.739 294.209 452.563 290.736C437.388 287.338 421.759 276.391 421.759 276.391L474.232 286.206Z" fill="black"/>
<path d="M477.403 279.863L442.296 350.909L477.856 415.688C477.856 415.688 471.363 424.144 456.943 416.972L419.117 354.91L429.31 271.181C429.31 271.181 447.505 261.517 477.403 279.863Z" fill="#56D0ED"/>
<path d="M484.5 195.756C484.5 195.756 472.496 170.388 436.105 193.038L425.384 272.389C425.384 272.389 456.641 272.238 482.16 291.566L484.5 195.756Z" fill="#FBE54B"/>
<path d="M471.363 195.378C471.363 195.378 441.012 203.381 435.651 221.803C435.651 221.803 437.841 233.506 449.09 235.847" fill="url(#paint0_linear)"/>
<path d="M402.356 441.962H259.207C251.129 441.962 244.485 435.318 244.485 427.24V120.105C244.485 112.026 251.129 105.382 259.207 105.382H402.431C410.51 105.382 417.154 112.026 417.154 120.105V427.24C417.154 435.318 410.51 441.962 402.356 441.962Z" fill="white" stroke="#DDDDDD" stroke-miterlimit="10"/>
<path d="M479.593 252.231C479.593 252.231 465.172 254.42 452.564 251.023C440.031 247.55 463.964 240.302 463.964 240.302L479.593 252.231Z" fill="url(#paint1_linear)"/>
<path d="M406.282 387.225H254.753C251.28 387.225 248.411 384.356 248.411 380.883V130.675C248.411 127.202 251.28 124.333 254.753 124.333H406.282C409.755 124.333 412.624 127.202 412.624 130.675V380.883C412.624 384.356 409.755 387.225 406.282 387.225Z" fill="#CECECE"/>
<path d="M376.157 429.429C383.037 429.429 388.615 423.852 388.615 416.972C388.615 410.092 383.037 404.514 376.157 404.514C369.277 404.514 363.7 410.092 363.7 416.972C363.7 423.852 369.277 429.429 376.157 429.429Z" fill="#C8E8A3"/>
<path d="M287.823 429.429C294.703 429.429 300.28 423.852 300.28 416.972C300.28 410.092 294.703 404.514 287.823 404.514C280.943 404.514 275.365 410.092 275.365 416.972C275.365 423.852 280.943 429.429 287.823 429.429Z" fill="#DC4541"/>
<path d="M195.41 219.539C202.29 219.539 207.867 213.961 207.867 207.081C207.867 200.201 202.29 194.624 195.41 194.624C188.53 194.624 182.952 200.201 182.952 207.081C182.952 213.961 188.53 219.539 195.41 219.539Z" fill="#769945"/>
<path d="M330.781 422.559C332.324 422.559 333.575 421.308 333.575 419.765C333.575 418.222 332.324 416.972 330.781 416.972C329.238 416.972 327.988 418.222 327.988 419.765C327.988 421.308 329.238 422.559 330.781 422.559Z" fill="#E8E8E8"/>
<path d="M412.549 121.011H248.411V127.957H412.549V121.011Z" fill="#B7B7B7"/>
<path d="M408.472 399.909L255.508 386.772C252.639 386.545 250.601 384.356 250.827 381.94L281.48 129.165C281.782 126.749 284.349 125.013 287.218 125.239L440.182 138.376C443.051 138.603 445.089 140.792 444.863 143.208L414.21 395.983C413.908 398.399 411.341 400.135 408.472 399.909Z" fill="#E8E8E8"/>
<path d="M315.682 243.095C318.702 237.13 322.703 231.694 327.082 226.711C331.461 221.728 336.444 217.123 341.805 213.046C347.241 209.044 353.054 205.571 359.396 203.08C362.567 201.796 365.814 200.89 369.06 200.135C370.721 199.833 372.382 199.531 374.043 199.38C375.704 199.154 377.365 199.154 379.026 199.154C375.855 200.211 372.76 201.268 369.815 202.551C366.871 203.835 363.926 205.194 361.133 206.779C355.47 209.799 350.11 213.348 344.976 217.198C339.842 221.049 334.859 225.201 330.027 229.505C325.195 233.959 320.514 238.414 315.682 243.095Z" fill="white"/>
<path d="M332.367 244.831C334.406 240.15 337.35 235.997 340.597 232.147C343.843 228.296 347.618 224.748 351.695 221.728C355.772 218.708 360.302 216.141 365.134 214.329C367.55 213.423 370.042 212.743 372.533 212.29C373.817 212.139 375.1 211.913 376.384 211.837C377.667 211.762 378.951 211.762 380.234 211.837C377.894 212.819 375.553 213.649 373.364 214.706C371.174 215.763 368.985 216.82 366.946 218.028C362.794 220.369 358.792 223.087 354.942 225.956C351.091 228.825 347.316 231.845 343.617 235.091C339.842 238.187 336.218 241.433 332.367 244.831Z" fill="white"/>
<path d="M358.792 113.989H302.846C302.544 113.989 302.242 113.687 302.242 113.385C302.242 113.083 302.544 112.781 302.846 112.781H358.792C359.094 112.781 359.396 113.083 359.396 113.385C359.396 113.687 359.094 113.989 358.792 113.989Z" fill="#CECECE"/>
<path d="M366.645 114.518C367.27 114.518 367.777 114.011 367.777 113.385C367.777 112.76 367.27 112.253 366.645 112.253C366.019 112.253 365.512 112.76 365.512 113.385C365.512 114.011 366.019 114.518 366.645 114.518Z" fill="#CECECE"/>
<path d="M479.895 180.053C485.357 180.053 489.785 175.624 489.785 170.162C489.785 164.7 485.357 160.271 479.895 160.271C474.433 160.271 470.004 164.7 470.004 170.162C470.004 175.624 474.433 180.053 479.895 180.053Z" fill="#EAB07D"/>
<path d="M478.234 193.265C478.234 193.265 451.658 198.55 439.955 221.955C439.955 221.955 476.346 227.919 482.915 250.343C482.839 250.343 510.472 193.265 478.234 193.265Z" fill="#FFED80"/>
<path d="M483.435 251.07C485.673 247.75 477.789 238.522 465.826 230.457C453.862 222.392 442.35 218.545 440.113 221.864C437.875 225.183 445.759 234.412 457.722 242.477C469.685 250.542 481.198 254.389 483.435 251.07Z" fill="black"/>
<path d="M454.979 228.297L437.916 250.343L407.263 227.089L402.507 232.374L435.878 267.783C435.878 267.783 437.765 269.595 442.144 267.783C446.523 265.971 468.872 237.659 468.872 237.659C468.872 237.659 465.852 228.297 454.979 228.297Z" fill="#EAB07D"/>
<path d="M402.583 234.639C409.922 234.639 415.871 228.69 415.871 221.351C415.871 214.012 409.922 208.063 402.583 208.063C395.244 208.063 389.295 214.012 389.295 221.351C389.295 228.69 395.244 234.639 402.583 234.639Z" fill="#E0A66C"/>
<path d="M406.131 214.254C404.017 215.009 401.677 213.876 400.922 211.762L392.994 189.716C392.239 187.602 393.372 185.262 395.486 184.507C397.6 183.752 399.94 184.884 400.695 186.998L408.623 209.044C409.302 211.234 408.245 213.499 406.131 214.254Z" fill="#E0A66C"/>
<path d="M412.322 428.146L459.434 407.308L474.232 416.821L477.78 415.688L481.933 432.751L416.852 437.281C417.003 437.357 414.511 430.713 412.322 428.146Z" fill="#F95F8F"/>
<path d="M482.084 432.751L489.785 441.887L398.203 443.321C396.467 443.321 394.881 442.189 394.504 440.452L394.051 438.414C394.051 438.414 391.031 434.714 402.507 427.919C413.983 421.124 417.003 437.206 417.003 437.206L482.084 432.751Z" fill="white" stroke="#231F20" stroke-miterlimit="10"/>
<path d="M416.7 439.848C421.985 439.47 427.27 439.168 432.555 438.866L448.41 438.036L464.265 437.432L472.193 437.205C474.835 437.13 477.478 437.054 480.12 437.054C477.478 437.281 474.835 437.432 472.193 437.583L464.265 438.036L448.41 438.866L432.555 439.47C427.27 439.621 421.985 439.772 416.7 439.848Z" fill="#231F20"/>
<path d="M417.304 429.051C421.004 427.315 424.703 425.654 428.403 423.917C432.102 422.256 435.877 420.671 439.577 419.01C443.352 417.424 447.051 415.839 450.826 414.253L456.489 411.913C458.376 411.158 460.264 410.403 462.151 409.648C460.339 410.554 458.452 411.384 456.64 412.215L451.053 414.706C447.353 416.367 443.578 417.953 439.879 419.614C436.104 421.199 432.404 422.785 428.629 424.37C424.854 426.031 421.079 427.541 417.304 429.051Z" fill="black"/>
<path d="M429.612 427.994L427.951 428.825C427.045 429.278 425.912 428.9 425.535 427.994L422.968 422.709C422.515 421.803 422.892 420.671 423.798 420.293L425.459 419.463C426.365 419.01 427.498 419.387 427.875 420.293L430.442 425.578C430.895 426.409 430.518 427.541 429.612 427.994Z" fill="white"/>
<path d="M429.611 427.994L428.101 428.749C427.648 429.051 426.969 429.127 426.44 428.9C426.138 428.825 425.912 428.674 425.685 428.447C425.459 428.221 425.308 427.994 425.232 427.692L424.402 426.182L422.816 423.238C422.665 423.011 422.514 422.785 422.439 422.407C422.363 422.105 422.288 421.728 422.363 421.426C422.514 420.746 422.892 420.142 423.571 419.84L425.081 419.085C425.61 418.783 426.365 418.708 426.969 418.934C427.271 419.085 427.573 419.236 427.799 419.463C428.026 419.689 428.177 419.991 428.252 420.293L428.932 421.803L430.291 424.899C430.366 425.125 430.517 425.427 430.593 425.654C430.668 425.956 430.668 426.258 430.593 426.484C430.517 427.239 430.14 427.692 429.611 427.994ZM429.611 427.994C430.14 427.768 430.517 427.239 430.593 426.711C430.668 426.409 430.593 426.182 430.517 425.88C430.442 425.654 430.291 425.352 430.14 425.125L428.554 422.181L427.724 420.671C427.573 420.444 427.497 420.218 427.271 420.067C427.12 419.916 426.893 419.765 426.667 419.689C426.214 419.538 425.761 419.614 425.308 419.84L423.798 420.595C423.42 420.822 423.118 421.199 423.043 421.652C422.967 421.879 422.967 422.105 423.043 422.332C423.118 422.558 423.194 422.785 423.345 423.011L424.704 426.107L425.383 427.617C425.61 428.145 425.912 428.598 426.44 428.825C426.969 429.051 427.573 428.976 428.026 428.749L429.611 427.994Z" fill="black"/>
<path d="M437.011 424.371L435.35 425.202C434.444 425.655 433.311 425.277 432.934 424.371L430.367 419.086C429.914 418.18 430.291 417.048 431.197 416.67L432.858 415.84C433.764 415.387 434.897 415.764 435.274 416.67L437.841 421.955C438.294 422.786 437.917 423.918 437.011 424.371Z" fill="white"/>
<path d="M437.01 424.371L435.5 425.126C435.047 425.428 434.368 425.503 433.839 425.277C433.537 425.201 433.311 425.05 433.084 424.824C432.858 424.597 432.707 424.371 432.631 424.069L431.801 422.559L430.215 419.614C430.064 419.388 429.913 419.161 429.838 418.784C429.762 418.482 429.687 418.104 429.762 417.802C429.913 417.123 430.291 416.519 430.97 416.217L432.48 415.462C433.009 415.16 433.764 415.084 434.368 415.311C434.67 415.462 434.972 415.613 435.198 415.839C435.425 416.066 435.576 416.368 435.651 416.67L436.331 418.18L437.69 421.275C437.765 421.502 437.916 421.804 437.992 422.03C438.067 422.332 438.067 422.634 437.992 422.861C437.916 423.616 437.539 424.069 437.01 424.371ZM437.01 424.371C437.539 424.144 437.916 423.616 437.992 423.087C438.067 422.785 437.992 422.559 437.916 422.257C437.841 422.03 437.69 421.728 437.539 421.502L435.953 418.557L435.123 417.047C434.972 416.821 434.896 416.594 434.67 416.443C434.519 416.292 434.292 416.141 434.066 416.066C433.613 415.915 433.16 415.99 432.707 416.217L431.197 416.972C430.819 417.198 430.517 417.576 430.442 418.029C430.366 418.255 430.366 418.482 430.442 418.708C430.517 418.935 430.593 419.161 430.744 419.388L432.103 422.483L432.782 423.993C433.009 424.522 433.311 424.975 433.839 425.201C434.368 425.428 434.972 425.352 435.425 425.126L437.01 424.371Z" fill="black"/>
<path d="M445.013 421.275L443.352 422.106C442.446 422.559 441.313 422.181 440.936 421.275L438.369 415.99C437.916 415.084 438.293 413.952 439.199 413.574L440.86 412.744C441.766 412.291 442.899 412.668 443.276 413.574L445.843 418.859C446.296 419.765 445.919 420.898 445.013 421.275Z" fill="white"/>
<path d="M445.013 421.275L443.503 422.03C443.05 422.332 442.371 422.408 441.842 422.181C441.54 422.106 441.314 421.955 441.087 421.728C440.861 421.502 440.71 421.275 440.634 420.973L439.804 419.463L438.218 416.519C438.067 416.292 437.916 416.066 437.841 415.688C437.765 415.386 437.69 415.009 437.765 414.707C437.916 414.027 438.294 413.423 438.973 413.121L440.483 412.366C441.012 412.064 441.767 411.989 442.371 412.215C442.673 412.366 442.975 412.517 443.201 412.744C443.428 412.97 443.579 413.272 443.654 413.574L444.334 415.084L445.693 418.18C445.768 418.406 445.919 418.708 445.995 418.935C446.07 419.237 446.07 419.539 445.995 419.765C445.919 420.596 445.542 421.049 445.013 421.275ZM445.013 421.275C445.542 421.049 445.919 420.52 445.995 419.992C446.07 419.69 445.995 419.463 445.919 419.161C445.844 418.935 445.693 418.633 445.542 418.406L443.956 415.462L443.126 413.952C442.975 413.725 442.899 413.499 442.673 413.348C442.522 413.197 442.295 413.046 442.069 412.97C441.616 412.819 441.163 412.895 440.71 413.121L439.2 413.876C438.822 414.103 438.52 414.48 438.445 414.933C438.369 415.16 438.369 415.386 438.445 415.613C438.52 415.839 438.596 416.066 438.747 416.292L440.106 419.388L440.785 420.898C441.012 421.426 441.314 421.879 441.842 422.106C442.371 422.332 442.975 422.257 443.428 422.03L445.013 421.275Z" fill="black"/>
<path d="M453.092 417.349L451.431 418.179C450.525 418.632 449.392 418.255 449.015 417.349L446.448 412.064C445.995 411.158 446.372 410.025 447.278 409.648L448.939 408.817C449.845 408.364 450.978 408.742 451.355 409.648L453.922 414.933C454.375 415.763 453.998 416.896 453.092 417.349Z" fill="white"/>
<path d="M453.092 417.349L451.582 418.104C451.129 418.406 450.449 418.481 449.921 418.255C449.619 418.179 449.392 418.028 449.166 417.802C448.939 417.575 448.788 417.349 448.713 417.047L447.882 415.537L446.297 412.592C446.146 412.366 445.995 412.139 445.919 411.762C445.844 411.46 445.768 411.082 445.844 410.78C445.995 410.101 446.372 409.497 447.052 409.195L448.562 408.44C449.09 408.138 449.845 408.062 450.449 408.289C450.751 408.44 451.053 408.591 451.28 408.817C451.506 409.044 451.657 409.346 451.733 409.648L452.412 411.158L453.771 414.253C453.847 414.48 453.998 414.782 454.073 415.008C454.149 415.31 454.149 415.612 454.073 415.839C453.998 416.594 453.62 417.122 453.092 417.349ZM453.092 417.349C453.62 417.122 453.998 416.594 454.073 416.065C454.149 415.763 454.073 415.537 453.998 415.235C453.922 415.008 453.771 414.706 453.62 414.48L452.035 411.535L451.204 410.025C451.053 409.799 450.978 409.572 450.751 409.421C450.6 409.27 450.374 409.119 450.147 409.044C449.694 408.893 449.241 408.968 448.788 409.195L447.278 409.95C446.901 410.176 446.599 410.554 446.523 411.007C446.448 411.233 446.448 411.46 446.523 411.686C446.599 411.913 446.674 412.139 446.825 412.366L448.184 415.461L448.864 416.971C449.09 417.5 449.392 417.953 449.921 418.179C450.449 418.406 451.053 418.33 451.506 418.104L453.092 417.349Z" fill="black"/>
<path d="M417.003 437.356C417.23 438.338 417.23 439.319 417.23 440.225C417.154 441.207 417.003 442.113 416.701 443.094C416.475 442.113 416.475 441.131 416.475 440.225C416.55 439.244 416.701 438.262 417.003 437.356Z" fill="black"/>
<path d="M396.089 438.489C399.109 438.112 402.054 437.885 405.074 437.81C408.094 437.734 411.114 437.659 414.134 437.885C411.114 438.263 408.169 438.489 405.149 438.565C402.129 438.716 399.109 438.716 396.089 438.489Z" fill="#231F20"/>
<path d="M442.069 435.167L437.916 425.428L446.448 422.332L452.563 434.337L442.069 435.167Z" stroke="black" stroke-width="0.5" stroke-miterlimit="10"/>
<g opacity="0.25">
<path opacity="0.25" d="M462.227 413.499C463.133 413.877 463.964 414.33 464.87 414.858C465.7 415.387 466.531 415.915 467.286 416.444C468.871 417.576 470.381 418.709 471.816 420.068L471.363 419.992C472.042 419.917 472.646 419.841 473.326 419.766C474.005 419.69 474.609 419.69 475.289 419.69C474.685 419.992 474.081 420.219 473.477 420.521C472.873 420.747 472.269 420.974 471.589 421.2L471.363 421.276L471.061 421.125C469.4 420.068 467.814 418.935 466.38 417.727C465.625 417.123 464.87 416.444 464.19 415.764C463.586 414.934 462.907 414.254 462.227 413.499Z" fill="url(#paint2_linear)"/>
</g>
<g opacity="0.25">
<path opacity="0.25" d="M448.486 421.049C449.619 422.71 450.751 424.446 451.808 426.183C452.865 427.919 453.922 429.656 454.904 431.392L454.224 431.015C456.112 430.788 458.075 430.637 459.962 430.486C461.85 430.335 463.813 430.184 465.7 430.109C467.588 430.033 469.551 429.958 471.514 429.882C473.477 429.807 475.364 429.807 477.327 429.882C475.44 430.26 473.477 430.486 471.589 430.788C469.702 431.015 467.739 431.241 465.851 431.468C463.964 431.694 462.001 431.845 460.113 431.996C458.226 432.147 456.263 432.298 454.375 432.374H453.922L453.696 431.996C452.79 430.184 451.884 428.372 450.978 426.56C450.072 424.824 449.241 422.936 448.486 421.049Z" fill="url(#paint3_linear)"/>
</g>
<path d="M413.455 225.503L427.347 207.912C427.8 207.308 427.498 206.402 426.667 206.251L411.416 203.533C410.586 203.382 409.906 204.288 410.284 205.043L410.737 206.024C411.265 207.157 412.247 207.987 413.455 208.289L417.154 209.346C417.909 209.573 418.211 210.479 417.683 211.083L412.549 216.821C412.398 217.047 412.247 217.274 412.322 217.576L411.567 224.975C411.718 225.881 412.926 226.258 413.455 225.503Z" fill="#E0A66C"/>
<path d="M398.505 189.716L396.24 190.395C395.183 190.697 394.126 190.169 393.824 189.112C393.522 188.055 394.051 186.998 395.108 186.696L397.373 186.016C398.43 185.714 399.487 186.243 399.789 187.3C400.091 188.357 399.562 189.414 398.505 189.716Z" fill="#E8E8E8"/>
<path d="M411.265 204.514C411.19 204.816 411.265 205.269 411.643 205.647C411.718 205.722 411.869 205.798 411.945 205.798L413.53 205.949C413.832 205.949 414.134 205.798 414.21 205.496L414.285 205.043C414.361 204.741 414.134 204.363 413.757 204.363L411.945 204.061C411.643 203.986 411.341 204.212 411.265 204.514Z" fill="#E8E8E8"/>
<path d="M472.042 164.122L476.195 162.083C476.195 162.083 476.799 169.256 480.952 171.37L480.499 174.314C480.499 174.314 482.839 169.105 484.5 169.407C486.161 169.709 486.916 172.2 485.633 173.257C484.349 174.314 482.613 175.145 482.613 175.145C482.613 175.145 476.422 182.166 486.312 185.262C496.203 188.357 491.371 191.604 491.371 195.228C491.371 198.776 505.64 206.326 505.942 196.134C506.244 185.941 489.257 176.051 489.861 171.294C490.465 166.538 486.237 159.667 478.913 160.498C478.838 160.347 474.76 160.875 472.042 164.122Z" fill="black"/>
<path d="M473.854 178.089L471.363 186.469C471.363 186.469 472.42 189.263 475.062 189.187L477.856 179.976C477.931 179.901 474.685 178.768 473.854 178.089Z" fill="#EAB07D"/>
<path d="M476.178 169.293C476.492 168.082 476.255 166.973 475.65 166.816C475.044 166.66 474.299 167.514 473.986 168.725C473.672 169.936 473.909 171.045 474.514 171.202C475.12 171.359 475.865 170.504 476.178 169.293Z" fill="white" stroke="black" stroke-width="0.5" stroke-miterlimit="10"/>
<path d="M472.319 168.713C472.58 167.704 472.399 166.784 471.914 166.659C471.43 166.533 470.826 167.25 470.564 168.259C470.303 169.268 470.484 170.188 470.968 170.313C471.453 170.439 472.057 169.722 472.319 168.713Z" fill="white" stroke="black" stroke-width="0.5" stroke-miterlimit="10"/>
<path d="M489.861 170.161C489.785 170.916 490.012 171.596 490.314 172.2C490.616 172.804 490.993 173.483 491.446 174.012C492.352 175.144 493.409 176.126 494.542 176.956C495.674 177.787 496.807 178.617 498.09 179.372C499.298 180.127 500.582 180.807 501.714 181.713C503.979 183.525 505.942 185.714 507.15 188.357C507.754 189.64 508.132 191.075 508.132 192.585C508.132 193.34 507.981 194.019 507.603 194.699C507.452 195.001 507.15 195.303 506.848 195.529C506.546 195.756 506.169 195.831 505.867 195.907C506.244 195.831 506.546 195.68 506.848 195.454C507.15 195.227 507.377 194.925 507.528 194.623C507.83 194.019 507.981 193.264 507.905 192.585C507.905 191.15 507.452 189.791 506.848 188.508C505.64 185.941 503.677 183.751 501.412 182.015C500.28 181.109 499.072 180.429 497.864 179.674C497.26 179.297 496.656 178.919 496.052 178.466C495.448 178.089 494.919 177.636 494.315 177.183C493.183 176.277 492.126 175.22 491.295 174.087C490.842 173.483 490.465 172.879 490.238 172.2C489.936 171.596 489.71 170.916 489.861 170.161Z" fill="black"/>
<path d="M169.815 419.916C169.815 419.916 171.023 402.626 162.643 385.412L169.815 419.916Z" fill="#C8E8A3"/>
<path d="M161.737 381.637C160.982 389.187 171.476 378.391 169.362 390.622C167.701 400.361 157.433 396.284 155.47 401.418C155.47 401.418 149.883 396.209 151.544 387.677C152.828 381.033 162.492 374.087 161.737 381.637Z" fill="#C8E8A3"/>
<path d="M151.393 393.038C151.77 390.546 152.676 387.979 154.715 386.394C155.847 385.488 157.433 384.733 158.867 385.035C159.698 385.186 160.453 385.488 161.132 386.016C161.887 386.545 163.624 387.451 165.134 387.602C166.946 387.753 168.003 387.375 169.588 388.508C170.117 379.75 160.906 388.734 161.661 381.713C162.416 374.163 152.752 381.109 151.468 387.677C151.166 389.64 151.166 391.452 151.393 393.038Z" fill="#C8E8A3"/>
<path d="M185.746 422.71C185.746 422.71 181.065 391.755 191.333 347.512L185.746 422.71Z" fill="#C8E8A3"/>
<path d="M187.936 345.171C193.372 350.683 178.045 348.795 187.483 357.251C195.033 364.046 200.62 354.231 205.452 357.1C205.452 357.1 206.66 349.324 199.865 343.586C194.655 339.056 182.5 339.66 187.936 345.171Z" fill="#C8E8A3"/>
<path d="M203.413 347.738C201.525 346.002 199.185 344.492 196.542 344.492C195.108 344.492 193.371 344.869 192.314 346.002C191.71 346.681 191.333 347.436 191.106 348.267C190.88 349.173 189.974 350.985 188.841 352.042C187.558 353.325 186.425 353.627 185.821 355.666C179.857 349.022 192.843 350.305 187.86 345.171C182.424 339.66 194.579 339.056 199.789 343.51C201.45 344.869 202.582 346.304 203.413 347.738Z" fill="#C8E8A3"/>
<path d="M182.877 412.064C182.877 412.064 181.82 345.926 185.066 329.92L182.877 412.064Z" fill="#C8E8A3"/>
<path d="M184.689 325.39C180.461 332.638 196.014 326.598 188.237 337.923C182.046 346.983 173.666 338.149 169.362 342.377C169.362 342.377 166.116 334.525 171.703 326.749C176.006 320.709 188.917 318.217 184.689 325.39Z" fill="#C8E8A3"/>
<path d="M169.136 332.11C170.646 329.769 172.76 327.58 175.478 326.976C176.988 326.598 178.951 326.598 180.31 327.504C181.065 328.033 181.669 328.712 182.122 329.543C182.65 330.449 184.009 332.11 185.444 332.94C187.18 333.922 188.388 333.997 189.521 335.96C193.975 327.429 180.763 332.185 184.689 325.466C188.917 318.293 176.006 320.785 171.703 326.825C170.419 328.561 169.589 330.373 169.136 332.11Z" fill="#C8E8A3"/>
<path d="M177.592 411.914C177.592 411.914 167.928 388.282 169.061 368.199L177.592 411.914Z" fill="#A2C96F"/>
<path d="M170.42 365.858C166.569 370.766 178.649 367.897 171.703 375.447C166.192 381.487 160.907 374.088 157.283 376.73C157.283 376.73 155.697 370.615 160.68 365.405C164.531 361.479 174.27 361.026 170.42 365.858Z" fill="#A2C96F"/>
<path d="M158.264 369.181C159.623 367.595 161.435 366.236 163.474 366.01C164.606 365.934 166.041 366.085 166.947 366.916C167.475 367.369 167.853 367.973 168.079 368.652C168.381 369.407 169.212 370.766 170.193 371.521C171.326 372.427 172.307 372.578 172.836 374.164C177.064 368.35 166.796 370.464 170.344 365.934C174.195 361.102 164.455 361.555 160.605 365.556C159.548 366.689 158.793 367.973 158.264 369.181Z" fill="#A2C96F"/>
<path d="M192.616 418.18C192.616 418.18 198.128 386.772 191.408 362.536L192.616 418.18Z" fill="#A2C96F"/>
<path d="M190.427 365.405C194.353 361.63 192.918 372.426 198.958 365.707C203.715 360.346 196.844 356.42 198.883 353.023C198.883 353.023 193.447 352.192 189.294 356.949C186.048 360.648 186.501 369.255 190.427 365.405Z" fill="#A2C96F"/>
<path d="M192.239 354.533C191.031 355.816 189.974 357.553 189.974 359.365C189.974 360.422 190.276 361.63 191.031 362.309C191.484 362.687 192.012 362.989 192.616 363.14C193.296 363.291 194.579 363.97 195.259 364.725C196.165 365.631 196.391 366.462 197.826 366.839C193.069 370.992 194.051 361.856 190.427 365.405C186.501 369.18 186.123 360.648 189.294 356.949C190.2 355.892 191.182 355.061 192.239 354.533Z" fill="#A2C96F"/>
<path d="M182.801 419.01C182.801 419.01 174.647 388.81 179.857 343.661L182.801 419.01Z" fill="#A2C96F"/>
<path d="M176.535 337.772C175.176 345.398 186.803 335.205 183.632 347.587C181.14 357.478 170.948 352.419 168.532 357.553C168.532 357.553 163.247 351.74 165.587 343.133C167.475 336.413 177.894 330.147 176.535 337.772Z" fill="#A2C96F"/>
<path d="M165.059 348.568C165.588 346.077 166.796 343.51 168.985 342C170.193 341.169 171.854 340.565 173.364 340.943C174.195 341.169 174.95 341.547 175.629 342.151C176.384 342.755 178.121 343.812 179.631 344.038C181.443 344.34 182.575 344.038 184.161 345.322C185.369 336.413 175.252 344.869 176.611 337.696C178.045 330.071 167.551 336.337 165.739 342.981C165.059 345.095 164.908 346.983 165.059 348.568Z" fill="#A2C96F"/>
<path d="M186.274 416.217C186.274 416.217 189.521 410.857 186.274 374.466V416.217Z" fill="#A2C96F"/>
<path d="M185.746 369.181C188.011 376.656 175.251 367.822 179.781 379.751C183.405 389.264 192.918 383.149 195.938 387.905C195.938 387.905 200.544 381.563 197.222 373.258C194.579 366.765 183.481 361.707 185.746 369.181Z" fill="#A2C96F"/>
<path d="M198.354 378.618C197.524 376.202 196.089 373.786 193.749 372.578C192.465 371.899 190.729 371.446 189.294 371.974C188.464 372.276 187.784 372.805 187.18 373.409C186.501 374.088 184.915 375.296 183.405 375.749C181.669 376.278 180.461 376.051 179.102 377.561C176.912 368.879 187.86 376.051 185.746 369.105C183.481 361.631 194.579 366.765 197.146 373.182C197.977 375.145 198.279 376.957 198.354 378.618Z" fill="#A2C96F"/>
<path d="M178.498 410.781C178.498 410.781 172.458 392.057 175.553 366.387L178.498 410.781Z" fill="#C8E8A3"/>
<path d="M172.458 367.595C176.157 363.367 175.629 374.541 181.14 367.142C185.519 361.328 178.196 357.855 179.932 354.231C179.932 354.231 174.27 353.854 170.495 359.063C167.626 363.14 168.758 371.823 172.458 367.595Z" fill="#C8E8A3"/>
<path d="M173.364 356.27C172.231 357.705 171.325 359.517 171.476 361.404C171.552 362.461 171.929 363.669 172.835 364.349C173.364 364.726 173.892 364.953 174.497 365.104C175.176 365.255 176.535 365.783 177.365 366.463C178.347 367.293 178.649 368.124 180.159 368.426C175.705 373.107 175.931 363.669 172.458 367.595C168.834 371.823 167.626 363.141 170.57 359.064C171.401 357.931 172.382 357.025 173.364 356.27Z" fill="#C8E8A3"/>
<path d="M181.669 417.349C181.669 417.349 182.953 403.986 182.575 388.282L181.669 417.349Z" fill="#A2C96F"/>
<path d="M184.312 385.035C181.669 391.982 194.429 384.431 189.295 395.53C185.218 404.364 176.535 397.871 173.364 402.25C173.364 402.25 169.363 395.907 173.138 388.206C176.082 382.166 186.954 378.089 184.312 385.035Z" fill="#A2C96F"/>
<path d="M171.628 393.19C172.61 390.925 174.12 388.735 176.46 387.754C177.744 387.225 179.405 386.923 180.764 387.527C181.519 387.905 182.123 388.358 182.651 389.037C183.255 389.792 184.69 391 186.049 391.529C187.71 392.133 188.842 392.057 190.05 393.567C192.768 385.413 181.821 391.529 184.312 385.111C186.955 378.165 176.007 382.242 173.138 388.207C172.308 389.943 171.855 391.604 171.628 393.19Z" fill="#A2C96F"/>
<path d="M191.257 424.144C191.257 424.144 188.011 407.156 194.277 388.96L191.257 424.144Z" fill="#C8E8A3"/>
<path d="M190.955 385.865C197.825 390.697 181.14 391.679 192.918 398.776C202.28 404.438 206.357 392.962 212.019 395.001C212.019 395.001 211.717 386.545 203.412 381.713C196.919 378.013 184.16 381.109 190.955 385.865Z" fill="#C8E8A3"/>
<path d="M207.943 385.563C205.602 384.053 202.733 382.996 200.015 383.525C198.505 383.827 196.693 384.582 195.863 386.016C195.41 386.847 195.108 387.677 195.032 388.659C194.957 389.716 194.353 391.754 193.371 393.113C192.239 394.699 191.106 395.303 190.88 397.492C183.254 391.603 197.297 390.395 190.955 385.941C184.085 381.109 196.92 378.089 203.337 381.788C205.3 382.845 206.81 384.204 207.943 385.563Z" fill="#C8E8A3"/>
<path d="M175.93 417.575C175.93 417.575 167.625 392.962 170.343 377.636L175.93 417.575Z" fill="#C8E8A3"/>
<path d="M170.268 374.993C170.797 380.203 163.473 372.728 164.908 381.26C166.04 388.055 173.213 385.186 174.572 388.735C174.572 388.735 178.498 385.111 177.29 379.146C176.459 374.54 169.74 369.708 170.268 374.993Z" fill="#C8E8A3"/>
<path d="M177.441 382.922C177.214 381.185 176.535 379.373 175.1 378.316C174.345 377.712 173.213 377.184 172.231 377.335C171.627 377.41 171.099 377.637 170.646 378.014C170.117 378.392 168.909 378.996 167.852 379.071C166.644 379.222 165.889 378.92 164.757 379.751C164.379 373.635 170.797 379.902 170.268 374.994C169.74 369.785 176.459 374.541 177.365 379.147C177.667 380.506 177.667 381.789 177.441 382.922Z" fill="#C8E8A3"/>
<path d="M163.398 403.684C163.398 403.684 159.094 420.068 165.361 433.582C167.928 439.245 176.912 440.302 181.367 440.302C185.972 440.302 192.843 438.565 195.334 435.47C204.243 424.673 199.185 403.76 199.185 403.76L163.398 403.684Z" fill="#F95F8F"/>
<path opacity="0.25" d="M199.26 403.834H194.202C192.541 419.312 182.801 435.998 166.569 435.469C170.117 439.471 177.441 440.301 181.367 440.301C185.972 440.301 192.843 438.565 195.334 435.469C204.243 424.748 199.26 403.834 199.26 403.834Z" fill="url(#paint4_linear)"/>
<path d="M192.918 439.773C192.918 440.981 192.163 441.963 191.182 441.963H171.174C170.193 441.963 169.438 440.981 169.438 439.773V439.169C169.438 437.961 170.193 436.979 171.174 436.979H191.182C192.163 436.979 192.918 437.961 192.918 439.169V439.773Z" fill="#52183E"/>
<path d="M483.141 197.04C483.141 197.04 458.226 212.291 457.622 221.351C457.622 221.351 449.77 217.425 444.787 217.878C444.863 217.878 459.283 195.983 483.141 197.04Z" fill="url(#paint5_linear)"/>
<path d="M462.756 184.809C461.623 185.639 460.491 186.394 459.358 187.3C458.226 188.131 457.093 188.961 456.036 189.867C453.847 191.604 451.733 193.416 449.694 195.303C447.656 197.191 445.693 199.229 443.881 201.343C442.975 202.4 442.069 203.457 441.314 204.665C440.408 205.798 439.728 207.006 438.973 208.138C440.181 205.571 441.691 203.231 443.428 200.966C445.164 198.776 447.127 196.738 449.166 194.775C451.28 192.887 453.394 191.075 455.659 189.414C457.999 187.753 460.34 186.168 462.756 184.809Z" fill="url(#paint6_linear)"/>
<path d="M449.091 235.847L437.615 245.284L432.858 241.962L432.33 246.115L437.917 250.343L449.091 235.847Z" fill="url(#paint7_linear)"/>
<path d="M468.872 185.262C469.099 186.168 469.401 187.074 469.854 187.904C470.307 188.735 470.835 189.414 471.59 189.867C471.666 189.943 471.741 190.018 471.892 190.018L472.194 190.169C472.421 190.245 472.572 190.32 472.798 190.396C473.025 190.396 473.251 190.471 473.478 190.547C473.704 190.547 473.931 190.547 474.157 190.547C474.61 190.547 475.063 190.471 475.516 190.396C475.969 190.32 476.422 190.169 476.951 190.094C476.498 190.32 476.12 190.547 475.667 190.773C475.214 190.924 474.761 191.075 474.233 191.151C473.251 191.302 472.194 191.151 471.288 190.622C470.382 190.094 469.778 189.188 469.401 188.282C468.948 187.225 468.797 186.168 468.872 185.262Z" fill="url(#paint8_linear)"/>
<path d="M459.812 222.332C462.152 223.238 464.493 224.371 466.682 225.654C468.872 226.862 471.061 228.297 473.1 229.807C475.138 231.317 477.101 232.978 478.838 234.79C480.65 236.602 482.235 238.64 483.594 240.754C482.764 239.773 482.009 238.791 481.103 237.885C480.65 237.432 480.272 236.979 479.819 236.526L478.46 235.243C476.573 233.582 474.685 231.921 472.647 230.411C470.608 228.901 468.57 227.466 466.38 226.183C465.323 225.503 464.266 224.824 463.134 224.22C462.077 223.54 460.944 222.936 459.812 222.332Z" fill="url(#paint9_linear)"/>
<path opacity="0.64" d="M474.232 286.205C474.232 286.205 442.069 278.127 427.573 285.601L429.159 272.464C429.159 272.54 454.3 274.125 474.232 286.205Z" fill="url(#paint10_linear)"/>
<path d="M448.562 286.206L444.032 302.891L439.426 319.577L430.064 352.948L429.687 352.495H434.972H435.802L435.274 353.099L429.913 359.063L429.687 358.459H433.084H433.311L433.386 358.61C437.69 365.858 441.993 373.106 446.297 380.354C450.6 387.602 454.828 394.85 459.056 402.174C454.677 395.001 450.223 387.829 445.919 380.581C441.54 373.408 437.161 366.16 432.858 358.988L433.16 359.139H429.762H429.007L429.536 358.535L434.821 352.57L435.123 353.174H429.838H429.309L429.46 352.721L438.973 319.426L443.805 302.816L448.562 286.206Z" fill="white"/>
<path d="M435.651 286.206C435.5 286.81 435.5 287.489 435.576 288.093C435.576 288.697 435.727 289.377 435.878 289.981C436.255 291.189 436.784 292.321 437.539 293.378C438.218 294.435 439.049 295.417 439.955 296.323L441.314 297.682C441.767 298.135 442.295 298.512 442.748 299.041C442.144 298.739 441.616 298.361 441.087 297.984C440.559 297.606 440.03 297.153 439.502 296.776C439.049 296.323 438.52 295.87 438.067 295.341C437.614 294.813 437.237 294.36 436.859 293.756C436.104 292.623 435.5 291.415 435.274 290.056C435.047 288.848 435.123 287.414 435.651 286.206Z" fill="white"/>
<path opacity="0.39" d="M473.855 178.089C473.855 178.089 476.498 180.052 477.857 179.901L472.27 183.374L473.855 178.089Z" fill="url(#paint11_linear)"/>
<path d="M485.029 171.143C484.5 171.37 483.972 171.596 483.519 171.898C483.292 172.049 483.141 172.276 482.915 172.427C482.688 172.653 482.613 172.88 482.386 173.106C482.386 172.804 482.462 172.502 482.613 172.276C482.764 171.974 482.99 171.747 483.217 171.596C483.821 171.294 484.425 171.068 485.029 171.143Z" fill="url(#paint12_linear)"/>
<path d="M483.519 171.747C483.745 171.596 483.972 171.596 484.198 171.596C484.349 171.596 484.425 171.672 484.5 171.747C484.576 171.898 484.576 171.974 484.5 172.125C484.425 171.898 484.349 171.823 484.123 171.747C483.972 171.747 483.745 171.823 483.519 171.747Z" fill="url(#paint13_linear)"/>
<path d="M482.462 175.824C481.782 176.806 481.329 177.938 481.329 179.071C481.329 180.203 481.782 181.336 482.462 182.242C483.972 184.054 486.237 184.96 488.124 186.319C489.106 186.998 490.087 187.678 490.993 188.433C491.899 189.188 492.73 190.094 493.409 191.075C494.089 192.057 494.617 193.114 494.995 194.246C495.297 195.379 495.523 196.587 495.523 197.719C495.297 195.379 494.617 193.038 493.183 191.151C491.748 189.263 489.861 187.829 487.898 186.545C486.916 185.866 485.935 185.262 484.878 184.658C483.896 184.054 482.915 183.299 482.16 182.317C481.405 181.336 480.952 180.128 481.027 178.92C481.254 177.938 481.782 176.806 482.462 175.824Z" fill="url(#paint14_linear)"/>
<path d="M489.861 171.143C489.182 172.276 488.729 173.559 488.653 174.843C488.653 175.522 488.729 176.126 489.031 176.73C489.333 177.334 489.786 177.787 490.39 178.089C492.579 179.448 495.222 180.279 497.26 182.091C498.242 182.997 499.072 184.129 499.525 185.413C499.978 186.696 499.978 188.055 499.978 189.414C499.903 192.057 499.374 194.85 497.789 196.964C498.544 195.907 498.997 194.624 499.299 193.34C499.601 192.057 499.752 190.773 499.752 189.414C499.752 188.131 499.676 186.772 499.299 185.564C498.921 184.356 498.091 183.223 497.109 182.393C496.128 181.487 494.995 180.883 493.863 180.203C492.73 179.599 491.447 179.071 490.314 178.316C489.786 177.938 489.257 177.41 488.955 176.806C488.653 176.202 488.578 175.522 488.653 174.843C488.578 173.484 489.106 172.276 489.861 171.143Z" fill="url(#paint15_linear)"/>
<path d="M195.41 222.634C204 222.634 210.963 215.671 210.963 207.081C210.963 198.492 204 191.528 195.41 191.528C186.82 191.528 179.857 198.492 179.857 207.081C179.857 215.671 186.82 222.634 195.41 222.634Z" stroke="#B4D38C" stroke-miterlimit="10"/>
<path d="M193.07 302.362C203.577 302.362 212.096 293.844 212.096 283.336C212.096 272.828 203.577 264.31 193.07 264.31C182.562 264.31 174.043 272.828 174.043 283.336C174.043 293.844 182.562 302.362 193.07 302.362Z" fill="white" stroke="#FFC7C7" stroke-miterlimit="10"/>
<path d="M193.069 295.794C199.949 295.794 205.527 290.217 205.527 283.337C205.527 276.457 199.949 270.879 193.069 270.879C186.189 270.879 180.612 276.457 180.612 283.337C180.612 290.217 186.189 295.794 193.069 295.794Z" fill="#DC4541"/>
<path d="M193.07 298.889C201.659 298.889 208.623 291.926 208.623 283.336C208.623 274.747 201.659 267.783 193.07 267.783C184.48 267.783 177.517 274.747 177.517 283.336C177.517 291.926 184.48 298.889 193.07 298.889Z" stroke="#DC4541" stroke-miterlimit="10"/>
<path d="M188.992 207.534C189.521 208.289 189.974 209.044 190.427 209.799L191.786 212.064L191.333 211.989C192.994 210.252 194.655 208.516 196.391 206.855C197.222 206.024 198.128 205.194 199.034 204.363C199.94 203.533 200.846 202.778 201.752 201.947C200.997 202.853 200.166 203.759 199.336 204.665C198.505 205.571 197.675 206.402 196.844 207.308C195.183 209.044 193.447 210.705 191.71 212.366L191.408 212.668L191.257 212.291L190.049 209.875C189.747 209.12 189.37 208.365 188.992 207.534Z" fill="white"/>
<path d="M187.633 278.202C189.521 279.712 191.333 281.373 193.069 283.11C194.806 284.846 196.467 286.583 197.977 288.546C196.089 287.036 194.277 285.375 192.541 283.638C190.804 281.902 189.143 280.09 187.633 278.202Z" fill="white"/>
<path d="M198.43 277.976C196.92 279.863 195.259 281.675 193.522 283.412C191.786 285.148 190.049 286.809 188.086 288.319C189.596 286.432 191.257 284.62 192.994 282.883C194.73 281.147 196.467 279.486 198.43 277.976Z" fill="white"/>
<path d="M598.656 434.111C601.148 432.676 603.941 431.544 606.961 430.789C613.832 429.128 621.684 429.43 630.291 431.619C652.412 437.206 661.019 427.995 674.156 413.952C682.235 405.345 692.277 394.548 708.283 385.035C720.061 378.014 737.426 370.841 753.356 376.277C762.869 379.599 767.399 385.941 767.475 386.017C767.55 386.168 767.55 386.394 767.399 386.47C767.248 386.545 767.022 386.545 766.946 386.394C766.871 386.319 762.492 380.052 753.13 376.881C737.501 371.521 720.363 378.618 708.66 385.564C692.73 395.001 682.764 405.722 674.685 414.33C661.925 427.995 652.639 437.886 630.14 432.148C621.608 429.958 613.832 429.732 607.112 431.317C600.695 432.827 595.485 436.149 592.012 440.83C583.783 451.778 585.519 468.841 596.693 487.64C596.769 487.791 596.769 488.018 596.542 488.093C596.316 488.169 596.165 488.169 596.089 487.942C584.764 468.916 583.028 451.551 591.408 440.377C593.371 437.961 595.787 435.772 598.656 434.111Z" fill="#BCBCBC"/>
<path d="M647.958 414.481C650.299 412.14 654.074 412.14 656.414 414.405C658.755 416.746 662.53 416.67 664.87 414.329C667.211 411.989 670.986 411.989 673.326 414.254C675.667 416.594 679.442 416.519 681.782 414.179C684.123 411.838 687.898 411.838 690.238 414.103" stroke="black" stroke-width="1.75" stroke-miterlimit="10" stroke-linecap="round"/>
<path d="M723.836 191.83C719.457 193.642 715.38 194.397 711.454 194.171C701.337 193.491 693.108 185.564 686.917 170.69C679.215 152.193 668.872 139.962 655.357 133.469C643.73 127.806 631.801 127.353 621.307 126.9C606.962 126.296 595.712 125.768 593.598 111.876C592.768 106.213 593.749 101.532 596.769 97.6815C604.923 87.036 625.988 84.62 650.374 81.751C683.745 77.825 721.496 73.4459 732.821 45.9639L733.651 46.3414C722.1 74.2764 684.123 78.731 650.525 82.5815C627.347 85.2995 605.452 87.791 597.524 98.1345C594.731 101.759 593.749 106.213 594.58 111.649C596.543 124.862 606.962 125.315 621.382 125.919C641.994 126.825 670.155 128.033 687.747 170.313C693.787 184.884 701.79 192.585 711.53 193.189C740.522 195.152 776.384 134.375 776.762 133.771L777.517 134.224C777.441 134.375 768.381 149.852 755.773 164.877C744.146 178.844 733.5 187.829 723.836 191.83Z" fill="#BCBCBC"/>
<path d="M666.909 188.282C664.719 188.282 662.907 186.47 662.907 184.28C662.907 182.091 664.719 180.279 666.909 180.279C678.687 180.279 688.275 170.69 688.275 158.912C688.275 156.723 690.087 154.911 692.277 154.911C694.466 154.911 696.278 156.723 696.278 158.912C696.278 175.145 683.066 188.282 666.909 188.282ZM692.277 155.817C690.54 155.817 689.106 157.251 689.106 158.988C689.106 171.143 679.215 181.109 666.984 181.109C665.248 181.109 663.813 182.544 663.813 184.28C663.813 186.017 665.248 187.451 666.984 187.451C682.688 187.451 695.523 174.692 695.523 158.912C695.448 157.251 694.013 155.817 692.277 155.817Z" fill="black"/>
<path d="M692.277 162.989C690.087 162.989 688.275 161.177 688.275 158.988C688.275 156.798 690.087 154.986 692.277 154.986C694.466 154.986 696.278 156.798 696.278 158.988C696.278 161.177 694.466 162.989 692.277 162.989ZM692.277 155.817C690.54 155.817 689.106 157.251 689.106 158.988C689.106 160.724 690.54 162.159 692.277 162.159C694.013 162.159 695.448 160.724 695.448 158.988C695.448 157.251 694.013 155.817 692.277 155.817Z" fill="black"/>
<path d="M662.908 185.488C646.373 185.488 632.858 172.049 632.858 155.439C632.858 138.905 646.297 125.39 662.908 125.39C679.442 125.39 692.957 138.829 692.957 155.439C692.957 156.345 692.881 157.327 692.806 158.233C692.806 158.459 692.579 158.61 692.353 158.61C692.126 158.61 691.975 158.384 691.975 158.157C692.051 157.251 692.126 156.345 692.126 155.439C692.126 139.282 678.989 126.221 662.908 126.221C646.75 126.221 633.689 139.358 633.689 155.439C633.689 171.521 646.826 184.658 662.908 184.658C663.059 184.658 663.209 184.658 663.36 184.658C663.587 184.658 663.738 184.809 663.738 185.035C663.738 185.262 663.587 185.413 663.36 185.413C663.209 185.488 663.059 185.488 662.908 185.488Z" fill="black"/>
<path d="M94.7682 402.023C90.9933 399.758 86.6897 398.021 82.0842 396.964C71.5897 394.473 59.5852 394.85 46.3727 398.248C12.5486 406.855 -0.663986 392.661 -20.6715 371.294C-33.0536 358.082 -48.3801 341.623 -72.9177 327.051C-90.9622 316.33 -117.538 305.307 -141.849 313.687C-156.421 318.746 -163.367 328.561 -163.442 328.637C-163.593 328.863 -163.518 329.165 -163.291 329.392C-163.065 329.543 -162.763 329.467 -162.536 329.241C-162.461 329.165 -155.666 319.576 -141.396 314.669C-117.463 306.439 -91.1887 317.387 -73.4462 327.957C-49.1351 342.453 -33.8086 358.837 -21.4265 371.974C-1.87199 392.887 12.2466 407.987 46.6746 399.229C59.7362 395.907 71.5897 395.53 81.8577 397.946C91.6728 400.286 99.6758 405.345 104.961 412.442C117.494 429.203 114.851 455.326 97.7883 484.091C97.6373 484.318 97.7128 484.695 97.9393 484.771C98.1658 484.922 98.5433 484.846 98.6188 484.62C115.984 455.477 118.551 428.976 105.716 411.838C102.771 407.912 99.0718 404.665 94.7682 402.023Z" fill="#BCBCBC"/>
<path d="M-37.2061 362.536C-34.79 364.952 -30.7885 365.028 -28.3725 362.612C-25.9565 360.196 -22.0305 360.196 -19.539 362.687C-17.123 365.103 -13.1215 365.179 -10.7055 362.763C-8.28948 360.347 -4.36346 360.347 -1.87196 362.838C0.544049 365.254 4.54556 365.33 6.96156 362.914" stroke="black" stroke-width="1.75" stroke-miterlimit="10" stroke-linecap="round"/>
<path d="M16.9277 102.212C16.9277 100.098 16.7012 97.9084 16.1727 95.7944C14.8892 90.4339 12.0957 85.1489 7.8677 80.0149C0.544182 71.2569 -10.3279 64.3109 -10.4789 64.2354L-10.6298 64.5374C-10.5543 64.6129 0.31768 71.5589 7.5657 80.2414C11.7937 85.2999 14.5872 90.5849 15.7952 95.8699C17.3052 102.514 16.4747 109.158 13.1527 115.726C7.4147 127.278 -2.47583 129.392 -11.9889 131.431C-19.0859 132.941 -26.4094 134.526 -31.9209 140.038C-38.0364 146.153 -41.1319 156.648 -41.4339 172.125C-42.4909 229.354 -66.953 229.354 -83.1855 229.354V229.656C-66.8775 229.656 -42.1889 229.656 -41.1319 172.05C-40.8299 156.648 -37.7344 146.229 -31.6944 140.189C-26.2584 134.753 -19.0104 133.167 -11.9134 131.657C-2.32483 129.619 7.6412 127.429 13.4547 115.802C15.7952 111.347 16.9277 106.817 16.9277 102.212Z" fill="#BCBCBC"/>
<path d="M-10.4029 64.1595C-10.3274 64.235 0.620171 71.2565 7.94369 79.939C12.2472 85.073 15.0407 90.4336 16.3242 95.7941C16.8527 97.9081 17.0792 100.098 17.0792 102.212C17.0792 106.817 15.9467 111.423 13.6817 115.877C7.79269 127.58 -2.17334 129.769 -11.7619 131.808C-18.7834 133.318 -26.1069 134.903 -31.4674 140.264C-37.5074 146.304 -40.6029 156.723 -40.8294 172.049C-41.8864 229.731 -66.6505 229.731 -83.0341 229.731H-83.1851V229.127H-83.0341C-66.877 229.127 -42.4905 229.127 -41.4334 171.974C-41.1314 156.496 -38.0359 145.926 -31.8449 139.811C-26.3334 134.299 -19.0099 132.714 -11.8374 131.204C-2.32434 129.165 7.49068 127.051 13.2287 115.575C16.4752 109.082 17.3812 102.438 15.7957 95.7941C14.5877 90.5091 11.7942 85.2995 7.56618 80.1655C0.242668 71.634 -10.5539 64.688 -10.7049 64.6125L-10.7804 64.537L-10.4784 64.084L-10.4029 64.1595ZM7.64169 80.1655C11.8697 85.2995 14.6632 90.5846 15.9467 95.8696C17.5322 102.514 16.6262 109.233 13.3042 115.802C7.49068 127.353 -2.39984 129.543 -11.9129 131.581C-19.0099 133.091 -26.3334 134.677 -31.7694 140.188C-37.8849 146.304 -40.9804 156.798 -41.2824 172.2C-42.3395 229.429 -66.8015 229.58 -83.0341 229.58V229.656C-66.726 229.656 -42.264 229.505 -41.2069 172.2C-40.9049 156.798 -37.8094 146.304 -31.7694 140.264C-26.3334 134.828 -19.0099 133.242 -11.9129 131.732C-2.32434 129.694 7.56618 127.504 13.3797 115.877C15.6447 111.423 16.7772 106.817 16.7772 102.287C16.7772 100.173 16.5507 97.9836 16.0222 95.8696C14.8142 90.5091 12.0207 85.224 7.64169 80.1655C0.771172 71.785 -9.34586 65.141 -10.4784 64.4615L-10.5539 64.537C-9.34586 65.2165 0.846672 71.936 7.64169 80.1655Z" fill="#BCBCBC"/>
<path d="M-46.2671 121.464L-20.748 161.177L4.77104 121.54L-46.2671 121.464Z" fill="#A7CC80"/>
<path d="M-51.2494 121.389C-51.3249 121.389 -51.4004 121.464 -51.4004 121.54C-51.4004 121.615 -51.3249 121.691 -51.2494 121.691H9.75477C9.83027 121.691 9.90577 121.615 9.90577 121.54C9.90577 121.464 9.83027 121.389 9.75477 121.389H-51.2494Z" fill="black"/>
<path d="M47.3545 207.384C47.3545 203.76 50.299 200.74 53.9985 200.74C57.698 200.74 60.6425 203.684 60.6425 207.384C60.6425 226.787 76.4221 242.642 95.9011 242.642C99.5251 242.642 102.545 245.587 102.545 249.286C102.545 252.986 99.6006 255.93 95.9011 255.93C69.0985 255.855 47.3545 234.111 47.3545 207.384ZM101.111 249.211C101.111 246.266 98.7701 243.926 95.8256 243.926C75.6671 243.926 59.2835 227.542 59.2835 207.384C59.2835 204.439 56.943 202.099 53.9985 202.099C51.054 202.099 48.7135 204.439 48.7135 207.384C48.7135 233.356 69.8535 254.496 95.8256 254.496C98.6946 254.496 101.111 252.155 101.111 249.211Z" fill="#E8E8E8"/>
<path d="M47.3545 207.384C47.3545 203.76 50.299 200.74 53.9985 200.74C57.698 200.74 60.6425 203.684 60.6425 207.384C60.6425 211.083 57.698 214.028 53.9985 214.028C50.299 214.028 47.3545 211.008 47.3545 207.384ZM59.208 207.384C59.208 204.439 56.8675 202.099 53.923 202.099C50.9785 202.099 48.638 204.439 48.638 207.384C48.638 210.328 50.9785 212.669 53.923 212.669C56.8675 212.669 59.208 210.253 59.208 207.384Z" fill="#E8E8E8"/>
<path d="M555.093 341.473C551.469 341.473 548.449 338.528 548.449 334.829C548.449 331.129 551.394 328.185 555.093 328.185C574.497 328.185 590.352 312.405 590.352 292.926C590.352 289.302 593.296 286.282 596.996 286.282C600.695 286.282 603.64 289.227 603.64 292.926C603.564 319.729 581.82 341.473 555.093 341.473ZM555.093 340.114C581.065 340.114 602.205 318.974 602.205 293.002C602.205 290.057 599.865 287.717 596.92 287.717C593.976 287.717 591.635 290.057 591.635 293.002C591.635 313.16 575.252 329.544 555.093 329.544C552.149 329.544 549.808 331.884 549.808 334.829C549.808 337.773 552.149 340.114 555.093 340.114Z" fill="#E8E8E8"/>
<path d="M596.92 299.569C593.296 299.569 590.276 296.625 590.276 292.925C590.276 289.226 593.221 286.281 596.92 286.281C600.62 286.281 603.564 289.226 603.564 292.925C603.564 296.625 600.544 299.569 596.92 299.569ZM596.92 298.286C599.865 298.286 602.205 295.945 602.205 293.001C602.205 290.056 599.865 287.716 596.92 287.716C593.976 287.716 591.635 290.056 591.635 293.001C591.635 295.87 594.051 298.286 596.92 298.286Z" fill="#E8E8E8"/>
</g>
<defs>
<linearGradient id="paint0_linear" x1="435.646" y1="215.613" x2="471.375" y2="215.613" gradientUnits="userSpaceOnUse">
<stop stop-color="#F7941D"/>
<stop offset="1" stop-color="#F7941D" stop-opacity="0.1"/>
</linearGradient>
<linearGradient id="paint1_linear" x1="448.951" y1="246.627" x2="479.575" y2="246.627" gradientUnits="userSpaceOnUse">
<stop stop-color="#F7941D"/>
<stop offset="1" stop-color="#F7941D" stop-opacity="0.1"/>
</linearGradient>
<linearGradient id="paint2_linear" x1="461.794" y1="417.306" x2="475.509" y2="417.306" gradientUnits="userSpaceOnUse">
<stop stop-color="#1C75BC"/>
<stop offset="1" stop-color="#1C75BC" stop-opacity="0.1"/>
</linearGradient>
<linearGradient id="paint3_linear" x1="447.802" y1="426.754" x2="477.42" y2="426.754" gradientUnits="userSpaceOnUse">
<stop stop-color="#1C75BC"/>
<stop offset="1" stop-color="#1C75BC" stop-opacity="0.1"/>
</linearGradient>
<linearGradient id="paint4_linear" x1="166.583" y1="422.059" x2="200.657" y2="422.059" gradientUnits="userSpaceOnUse">
<stop stop-color="#1C75BC"/>
<stop offset="1" stop-color="#1C75BC" stop-opacity="0.1"/>
</linearGradient>
<linearGradient id="paint5_linear" x1="444.848" y1="209.185" x2="483.159" y2="209.185" gradientUnits="userSpaceOnUse">
<stop stop-color="#F7941D"/>
<stop offset="1" stop-color="#F7941D" stop-opacity="0.1"/>
</linearGradient>
<linearGradient id="paint6_linear" x1="438.643" y1="196.439" x2="462.98" y2="196.439" gradientUnits="userSpaceOnUse">
<stop stop-color="#F7941D"/>
<stop offset="1" stop-color="#F7941D" stop-opacity="0.1"/>
</linearGradient>
<linearGradient id="paint7_linear" x1="432.35" y1="243.1" x2="449.091" y2="243.1" gradientUnits="userSpaceOnUse">
<stop stop-color="#F7941D"/>
<stop offset="1" stop-color="#F7941D" stop-opacity="0.1"/>
</linearGradient>
<linearGradient id="paint8_linear" x1="468.51" y1="188.17" x2="477.069" y2="188.17" gradientUnits="userSpaceOnUse">
<stop stop-color="#F7941D"/>
<stop offset="1" stop-color="#F7941D" stop-opacity="0.1"/>
</linearGradient>
<linearGradient id="paint9_linear" x1="459.661" y1="231.525" x2="483.927" y2="231.525" gradientUnits="userSpaceOnUse">
<stop stop-color="#F7941D"/>
<stop offset="1" stop-color="#F7941D" stop-opacity="0.1"/>
</linearGradient>
<linearGradient id="paint10_linear" x1="427.557" y1="279.386" x2="474.222" y2="279.386" gradientUnits="userSpaceOnUse">
<stop stop-color="#1C75BC"/>
<stop offset="1" stop-color="#1C75BC" stop-opacity="0.1"/>
</linearGradient>
<linearGradient id="paint11_linear" x1="472.3" y1="180.729" x2="477.914" y2="180.729" gradientUnits="userSpaceOnUse">
<stop stop-color="#603913"/>
<stop offset="1" stop-color="#603913" stop-opacity="0.1"/>
</linearGradient>
<linearGradient id="paint12_linear" x1="482.307" y1="172.157" x2="485.074" y2="172.157" gradientUnits="userSpaceOnUse">
<stop stop-color="#603913"/>
<stop offset="1" stop-color="#603913" stop-opacity="0.1"/>
</linearGradient>
<linearGradient id="paint13_linear" x1="483.469" y1="171.89" x2="484.61" y2="171.89" gradientUnits="userSpaceOnUse">
<stop stop-color="#603913"/>
<stop offset="1" stop-color="#603913" stop-opacity="0.1"/>
</linearGradient>
<linearGradient id="paint14_linear" x1="481.09" y1="186.866" x2="495.819" y2="186.866" gradientUnits="userSpaceOnUse">
<stop stop-color="white"/>
<stop offset="1" stop-color="white" stop-opacity="0.1"/>
</linearGradient>
<linearGradient id="paint15_linear" x1="488.332" y1="184.071" x2="499.94" y2="184.071" gradientUnits="userSpaceOnUse">
<stop stop-color="white"/>
<stop offset="1" stop-color="white" stop-opacity="0.1"/>
</linearGradient>
<clipPath id="clip0">
<rect y="0.478516" width="720" height="484" fill="white"/>
</clipPath>
</defs>
</svg>
