<svg width="360" height="403" viewBox="0 0 360 403" fill="none" xmlns="http://www.w3.org/2000/svg">
<rect width="360" height="403" fill="#FDEBE8"/>
<path d="M246.261 179.463C245.639 169.104 236.444 161.221 225.717 161.853C214.995 162.489 206.806 171.4 207.429 181.759L246.261 179.463Z" fill="#F95F8F"/>
<g opacity="0.41">
<g opacity="0.41">
<g opacity="0.41">
<path opacity="0.41" d="M251.036 180.814C250.257 167.847 238.746 157.98 225.326 158.774C211.903 159.568 201.654 170.721 202.433 183.689L251.036 180.814Z" stroke="black" stroke-width="0.292149" stroke-miterlimit="10"/>
</g>
</g>
</g>
<g opacity="0.41">
<g opacity="0.41">
<g opacity="0.41">
<path opacity="0.41" d="M254.572 180.541C253.693 165.896 240.69 154.75 225.529 155.645C210.368 156.539 198.791 169.14 199.671 183.786L254.572 180.541Z" stroke="black" stroke-width="0.292149" stroke-miterlimit="10"/>
</g>
</g>
</g>
<path d="M183.902 311.319C184.766 311.319 185.466 310.624 185.466 309.767C185.466 308.91 184.766 308.215 183.902 308.215C183.038 308.215 182.338 308.91 182.338 309.767C182.338 310.624 183.038 311.319 183.902 311.319Z" fill="white"/>
<path d="M40.1352 229.727C42.5715 228.71 44.6205 226.774 45.6956 224.158C46.1083 223.155 46.8902 222.368 47.8966 221.948C48.903 221.528 50.0143 221.52 51.028 221.93C56.2988 224.064 62.3334 221.546 64.4873 216.314C64.9 215.312 65.6819 214.525 66.6883 214.104C67.6947 213.684 68.806 213.677 69.8196 214.086C71.4125 214.733 73.2333 213.971 73.8813 212.39C74.5329 210.809 73.7655 209.002 72.1727 208.359C66.9019 206.225 60.8673 208.743 58.7133 213.975C58.3006 214.977 57.5187 215.764 56.5123 216.185C55.506 216.605 54.3946 216.612 53.381 216.203C50.8289 215.168 48.0233 215.182 45.482 216.242C42.9408 217.302 40.9678 219.282 39.9253 221.815C39.5126 222.817 38.7307 223.604 37.7243 224.025C36.7179 224.445 35.6065 224.452 34.5929 224.043C33.0001 223.396 31.1792 224.158 30.5312 225.739C29.8796 227.32 30.6471 229.127 32.2399 229.77C34.8717 230.841 37.6989 230.744 40.1352 229.727Z" fill="black"/>
<path d="M105.043 205.466L54.1017 178.241L62.7537 235.02L105.043 205.466Z" fill="black"/>
<path d="M109.304 203.893L58.3625 176.668L67.0108 233.449L109.304 203.893Z" fill="#FBE54B"/>
<path d="M41.5978 224.226C44.0341 223.209 46.083 221.272 47.1582 218.657C47.5709 217.654 48.3528 216.867 49.3592 216.447C50.3656 216.026 51.4769 216.019 52.4905 216.429C57.7613 218.563 63.7959 216.044 65.9499 210.813C66.3626 209.81 67.1445 209.024 68.1509 208.603C69.1572 208.183 70.2686 208.176 71.2822 208.585C72.875 209.232 74.6959 208.47 75.3439 206.889C75.9955 205.308 75.2281 203.501 73.6352 202.858C68.3644 200.723 62.3298 203.242 60.1759 208.474C59.7632 209.476 58.9813 210.263 57.9749 210.684C56.9685 211.104 55.8572 211.111 54.8436 210.702C52.2914 209.667 49.4859 209.681 46.9446 210.741C44.4033 211.801 42.4304 213.781 41.3878 216.314C40.9751 217.316 40.1932 218.103 39.1868 218.524C38.1805 218.944 37.0691 218.951 36.0555 218.542C34.4627 217.895 32.6418 218.657 31.9938 220.238C31.3422 221.819 32.1096 223.626 33.7025 224.269C36.3342 225.34 39.1615 225.243 41.5978 224.226Z" fill="#A7CC80"/>
<path d="M210.759 242.813L206.799 244.606C206.545 244.721 206.241 244.61 206.125 244.358L204.319 240.427C204.203 240.176 204.315 239.874 204.569 239.759L208.529 237.966C208.783 237.851 209.087 237.963 209.202 238.214L211.009 242.145C211.128 242.4 211.012 242.698 210.759 242.813Z" fill="#F95F8F"/>
<path d="M277.174 155.755C264.707 168.608 265.098 189.06 278.046 201.434C290.995 213.809 311.601 213.421 324.068 200.568L277.174 155.755Z" fill="black"/>
<path d="M273.089 154.85C260.622 167.703 261.013 188.155 273.962 200.529C286.91 212.904 307.516 212.516 319.983 199.664L273.089 154.85Z" fill="#A7CC80"/>
<path d="M240.053 297.881L203.034 298.117L203.102 308.515L240.12 308.28L240.053 297.881Z" fill="black"/>
<path d="M241.961 293.307L204.942 293.543L205.009 303.941L242.028 303.706L241.961 293.307Z" fill="#F95F8F"/>
<path d="M23.8902 128.084C26.2975 130.078 28.7881 131.386 31.2968 131.968C32.2924 132.198 33.3096 132.316 34.3123 132.316C36.4518 132.316 38.6093 131.784 40.7198 130.739C46.2042 128.019 47.2106 123.391 48.1844 118.918C48.5934 117.038 49.0097 115.123 49.7736 113.359C50.0197 113.28 50.2442 113.147 50.4324 112.96C50.6858 112.705 51.0261 112.565 51.3881 112.565C51.7465 112.565 52.0868 112.705 52.3402 112.957L52.3655 112.982C52.6696 113.284 53.0751 113.449 53.5095 113.449C53.9366 113.449 54.3385 113.287 54.6425 112.989L54.6968 112.939C55.2218 112.425 56.0725 112.428 56.5938 112.946L56.6191 112.971C56.9232 113.273 57.3286 113.442 57.7667 113.442C58.2011 113.442 58.6065 113.273 58.9106 112.967C59.164 112.712 59.5043 112.572 59.8663 112.572C60.2247 112.572 60.565 112.712 60.8184 112.964L60.8582 113.003L61.05 112.813L61.0102 112.773C60.7061 112.472 60.3007 112.303 59.8627 112.303C59.4283 112.303 59.0228 112.472 58.7187 112.777C58.4653 113.032 58.125 113.172 57.763 113.172C57.4046 113.172 57.0644 113.032 56.811 112.781L56.7856 112.755C56.1594 112.134 55.1385 112.13 54.5086 112.748L54.4543 112.799C53.9294 113.312 53.0787 113.309 52.5574 112.791L52.5321 112.766C52.228 112.464 51.8225 112.295 51.3845 112.295C50.9501 112.295 50.5447 112.464 50.2406 112.77C50.1501 112.863 50.0451 112.939 49.9329 113C50.4759 111.832 51.1818 110.736 52.152 109.773C54.9828 106.967 59.8446 105.54 67.0195 105.408C94.007 104.915 94.007 93.4209 94.007 85.8143V85.7568H93.7391V85.8143C93.7391 93.3167 93.7391 104.653 67.0159 105.138C59.7685 105.271 54.8417 106.723 51.9601 109.579C50.8922 110.639 50.1392 111.843 49.5745 113.129C49.4804 113.151 49.3826 113.161 49.2812 113.161C48.9229 113.161 48.5826 113.021 48.3292 112.77L48.3111 112.752C48.007 112.45 47.6015 112.281 47.1708 112.281C46.74 112.281 46.3345 112.446 46.0304 112.752L45.9906 112.791L46.1825 112.982L46.2223 112.942C46.4757 112.691 46.816 112.551 47.1744 112.551C47.5328 112.551 47.8731 112.691 48.1265 112.942L48.1446 112.96C48.4486 113.262 48.8541 113.431 49.2921 113.431C49.3464 113.431 49.4007 113.427 49.455 113.424C48.731 115.159 48.3256 117.028 47.9274 118.86C46.968 123.272 45.9725 127.836 40.6076 130.498C37.5559 132.014 34.4499 132.42 31.3729 131.705C28.9076 131.134 26.4532 129.848 24.0785 127.879C20.0204 124.53 17.5696 120.294 17.5443 120.251L17.5153 120.2L17.28 120.333L17.309 120.384C17.3379 120.427 19.7923 124.688 23.8902 128.084Z" fill="black"/>
<path d="M306.112 369.462L302.233 373.677L306.48 377.528L310.359 373.312L306.112 369.462Z" fill="#FBE54B"/>
<path d="M330.458 350.937L321.183 351.354C320.981 346.916 317.179 343.47 312.709 343.672C308.238 343.873 304.766 347.646 304.969 352.083L295.698 352.5C295.264 342.989 302.707 334.901 312.289 334.47C321.875 334.038 330.023 341.426 330.458 350.937Z" fill="#A7CC80"/>
<path d="M324.778 337.736C323.363 337.427 321.976 337.732 320.543 338.67C317.042 340.962 318.338 344.056 319.978 347.972C321.365 351.289 323.059 355.335 322.277 360.157L312.267 371.033L311.12 345.874L311.116 345.817L307.112 345.996L308.282 371.622L308.285 371.68L311.815 371.522L302.544 381.597L302.743 381.776L312.195 371.504L312.286 371.5L312.282 371.41L322.183 360.649C321.567 363.786 319.891 367.246 316.402 371.037C313.162 374.558 312.072 377.763 313.162 380.558C314.834 384.845 321.415 387.396 326.643 388.779C332.294 390.274 337.604 390.77 337.658 390.777L337.716 390.781L337.742 390.515L337.684 390.511C337.474 390.493 316.546 388.485 313.415 380.461C312.365 377.77 313.437 374.658 316.604 371.22C320.3 367.203 321.991 363.556 322.541 360.264L334.046 347.764C334.563 348.58 335.081 349.413 335.602 350.254C340.884 358.755 346.868 368.392 355.875 367.986L355.932 367.982L355.922 367.713L355.864 367.716C347.016 368.115 341.076 358.55 335.834 350.11C335.291 349.237 334.759 348.382 334.237 347.556L335.997 345.644L335.798 345.464L334.089 347.322C330.954 342.385 328.073 338.454 324.778 337.736ZM333.897 347.53L322.617 359.79C323.251 355.09 321.593 351.131 320.228 347.868C318.574 343.919 317.379 341.066 320.695 338.893C322.063 337.994 323.381 337.703 324.72 337.998C327.91 338.695 330.86 342.752 333.897 347.53ZM307.402 346.251L310.863 346.097L312.01 371.245L308.55 371.399L307.402 346.251Z" fill="black"/>
<path d="M26.6428 372.297C23.7178 372.297 21.3394 369.937 21.3394 367.034C21.3394 364.13 23.7178 361.77 26.6428 361.77C29.5678 361.77 31.9461 364.13 31.9461 367.034C31.9461 369.937 29.5678 372.297 26.6428 372.297ZM26.6428 364.454C25.2092 364.454 24.0436 365.611 24.0436 367.034C24.0436 368.456 25.2092 369.613 26.6428 369.613C28.0763 369.613 29.242 368.456 29.242 367.034C29.242 365.611 28.0763 364.454 26.6428 364.454Z" fill="#A7CC80"/>
<path d="M31.4139 355.737C32.3476 355.737 33.1045 354.986 33.1045 354.059C33.1045 353.132 32.3476 352.381 31.4139 352.381C30.4802 352.381 29.7233 353.132 29.7233 354.059C29.7233 354.986 30.4802 355.737 31.4139 355.737Z" fill="#F95F8F"/>
<path d="M32.5688 350.753C32.3842 350.027 32.0366 349.33 31.5226 348.716C29.68 346.51 26.3821 346.204 24.1594 348.033C21.9367 349.862 21.629 353.135 23.4716 355.342C24.0943 356.085 24.8798 356.614 25.7341 356.915L32.5688 350.753Z" fill="#56D0ED"/>
<path d="M42.6902 372.118H8.64001V372.323H42.6902V372.118Z" fill="black"/>
<path d="M40.0399 356.711C39.7792 355.345 38.447 354.443 37.075 354.702L17.791 358.32C16.4154 358.579 15.5068 359.898 15.7674 361.263C15.8941 361.924 16.2706 362.499 16.8317 362.876C17.2553 363.164 17.7476 363.315 18.258 363.315C18.4173 363.315 18.5766 363.3 18.7359 363.272L38.0199 359.653C39.3919 359.395 40.2969 358.076 40.0399 356.711ZM37.5456 354.86C38.6642 354.86 39.6308 355.654 39.8371 356.746C40.0761 358 39.2434 359.215 37.9764 359.452L18.6924 363.07C18.0806 363.185 17.458 363.056 16.9439 362.707C16.4299 362.359 16.0824 361.831 15.9665 361.223C15.7276 359.969 16.5602 358.755 17.8272 358.518L37.1112 354.9C37.2524 354.874 37.4008 354.86 37.5456 354.86Z" fill="black"/>
<path d="M303.094 137.413C304.537 137.413 305.707 136.251 305.707 134.819C305.707 133.386 304.537 132.224 303.094 132.224C301.65 132.224 300.48 133.386 300.48 134.819C300.48 136.251 301.65 137.413 303.094 137.413Z" fill="#FBE54B"/>
<path d="M305.573 129.487C305.577 130.158 305.841 130.791 306.323 131.265L306.641 131.581C307.633 132.559 309.244 132.551 310.229 131.567L332.793 108.988C333.27 108.51 333.531 107.878 333.527 107.202C333.524 106.53 333.26 105.898 332.778 105.424L332.46 105.107C331.978 104.633 331.341 104.374 330.66 104.378C329.98 104.382 329.346 104.644 328.868 105.122L306.305 127.701C305.834 128.182 305.573 128.815 305.573 129.487ZM329.082 105.33C329.954 104.457 331.377 104.453 332.257 105.316L332.575 105.632C332.999 106.049 333.234 106.609 333.238 107.206C333.241 107.802 333.01 108.363 332.586 108.783L310.022 131.362C309.603 131.783 309.038 132.016 308.437 132.02C307.836 132.023 307.271 131.793 306.848 131.373L306.529 131.057C305.649 130.191 305.646 128.779 306.515 127.906L329.082 105.33Z" fill="black"/>
<path d="M308.025 95.2012C308.771 95.2012 309.376 94.6012 309.376 93.861C309.376 93.1208 308.771 92.5208 308.025 92.5208C307.28 92.5208 306.675 93.1208 306.675 93.861C306.675 94.6012 307.28 95.2012 308.025 95.2012Z" fill="#FBE54B"/>
<path d="M309.307 91.1087C309.307 91.4573 309.445 91.7842 309.694 92.0286L309.861 92.1902C310.375 92.6969 311.208 92.6933 311.714 92.1831L323.375 80.5163C323.621 80.2683 323.755 79.9414 323.755 79.5928C323.755 79.2443 323.617 78.9173 323.367 78.673L323.201 78.5113C322.951 78.267 322.622 78.134 322.27 78.134C321.919 78.134 321.59 78.2706 321.344 78.5185L309.683 90.1853C309.441 90.4332 309.307 90.7602 309.307 91.1087ZM321.456 78.6263C321.905 78.1772 322.643 78.1736 323.096 78.6191L323.262 78.7808C323.483 78.9964 323.603 79.2874 323.606 79.5928C323.606 79.9018 323.487 80.1893 323.27 80.4085L311.609 92.0753C311.392 92.2944 311.099 92.413 310.791 92.4166C310.48 92.4166 310.19 92.298 309.969 92.0825L309.803 91.9208C309.35 91.4752 309.347 90.7422 309.796 90.2931L321.456 78.6263Z" fill="black"/>
<path d="M188.326 293.943H173.299V320.334H188.326V293.943Z" fill="#C1C1C1"/>
<path d="M291.324 182.668V284.906C291.324 291.396 285.973 296.706 279.436 296.706H85.1981C78.6603 296.706 73.3099 291.396 73.3099 284.906V182.668C73.3099 176.179 78.6603 170.869 85.1981 170.869H279.436C285.973 170.869 291.324 176.179 291.324 182.668Z" fill="white" stroke="#757575" stroke-width="0.146075" stroke-miterlimit="10"/>
<path d="M291.323 283.117V284.906C291.323 291.395 285.973 296.706 279.435 296.706H85.1975C78.6596 296.706 73.3092 291.395 73.3092 284.906V283.117H291.323Z" fill="#C1C1C1"/>
<path d="M291.324 182.668V184.799H73.3099V182.668C73.3099 176.179 78.6603 170.869 85.1981 170.869H279.436C285.973 170.869 291.324 176.179 291.324 182.668Z" fill="#C1C1C1"/>
<path opacity="0.21" d="M141.721 261.379H91.6011C91.1052 261.379 90.7034 260.976 90.7034 260.488V253.413C90.7034 252.921 91.1088 252.522 91.6011 252.522H141.721C142.217 252.522 142.619 252.924 142.619 253.413V260.488C142.619 260.98 142.213 261.379 141.721 261.379Z" fill="black"/>
<path d="M125.916 246.471H100.64C100.485 246.471 100.354 246.345 100.354 246.187C100.354 246.033 100.481 245.903 100.64 245.903H125.916C126.071 245.903 126.202 246.029 126.202 246.187C126.202 246.345 126.075 246.471 125.916 246.471Z" fill="black"/>
<path d="M117.354 244.272H100.64C100.485 244.272 100.354 244.146 100.354 243.988C100.354 243.834 100.481 243.704 100.64 243.704H117.354C117.51 243.704 117.64 243.83 117.64 243.988C117.64 244.143 117.51 244.272 117.354 244.272Z" fill="black"/>
<path d="M105.028 242.073H100.644C100.489 242.073 100.358 241.947 100.358 241.789C100.358 241.635 100.485 241.505 100.644 241.505H105.028C105.184 241.505 105.314 241.631 105.314 241.789C105.314 241.944 105.184 242.073 105.028 242.073Z" fill="#BFBFBF"/>
<path d="M115.273 242.073H106.353C106.197 242.073 106.067 241.947 106.067 241.789C106.067 241.635 106.194 241.505 106.353 241.505H115.273C115.429 241.505 115.559 241.631 115.559 241.789C115.555 241.944 115.429 242.073 115.273 242.073Z" fill="#BFBFBF"/>
<path d="M94.0412 247.15C95.9445 247.15 97.4875 245.619 97.4875 243.729C97.4875 241.84 95.9445 240.309 94.0412 240.309C92.1379 240.309 90.5949 241.84 90.5949 243.729C90.5949 245.619 92.1379 247.15 94.0412 247.15Z" fill="#F95F8F"/>
<path d="M241.077 213.953H206.972C206.817 213.953 206.686 213.827 206.686 213.669V213.475C206.686 213.321 206.813 213.192 206.972 213.192H241.077C241.232 213.192 241.363 213.317 241.363 213.475V213.669C241.363 213.824 241.232 213.953 241.077 213.953Z" fill="black"/>
<path d="M229.59 211H206.972C206.817 211 206.686 210.874 206.686 210.716V210.522C206.686 210.367 206.813 210.238 206.972 210.238H229.59C229.746 210.238 229.876 210.364 229.876 210.522V210.716C229.873 210.874 229.746 211 229.59 211Z" fill="black"/>
<path d="M213.05 208.05H206.972C206.817 208.05 206.686 207.924 206.686 207.766V207.572C206.686 207.417 206.813 207.288 206.972 207.288H213.05C213.206 207.288 213.336 207.414 213.336 207.572V207.766C213.336 207.92 213.206 208.05 213.05 208.05Z" fill="#BFBFBF"/>
<path d="M226.792 208.05H214.629C214.473 208.05 214.343 207.924 214.343 207.766V207.572C214.343 207.417 214.469 207.288 214.629 207.288H226.792C226.948 207.288 227.078 207.414 227.078 207.572V207.766C227.078 207.92 226.951 208.05 226.792 208.05Z" fill="#BFBFBF"/>
<path d="M198.212 214.862C200.765 214.862 202.835 212.808 202.835 210.274C202.835 207.74 200.765 205.686 198.212 205.686C195.659 205.686 193.589 207.74 193.589 210.274C193.589 212.808 195.659 214.862 198.212 214.862Z" fill="#FBE54B"/>
<path d="M142.022 232.982H91.1453C90.4177 232.982 89.824 232.393 89.824 231.671V202.305C89.824 201.582 90.4177 200.993 91.1453 200.993H142.025C142.753 200.993 143.346 201.582 143.346 202.305V231.671C143.343 232.393 142.749 232.982 142.022 232.982Z" fill="#56D0ED"/>
<path d="M137.485 207.777H120.384C120.229 207.777 120.098 207.651 120.098 207.493V207.303C120.098 207.148 120.225 207.019 120.384 207.019H137.485C137.641 207.019 137.771 207.144 137.771 207.303V207.493C137.771 207.647 137.645 207.777 137.485 207.777Z" fill="white"/>
<path opacity="0.56" d="M137.485 209.936H120.384C120.229 209.936 120.098 209.81 120.098 209.652V209.462C120.098 209.307 120.225 209.178 120.384 209.178H137.485C137.641 209.178 137.771 209.304 137.771 209.462V209.652C137.771 209.807 137.645 209.936 137.485 209.936Z" fill="white"/>
<path opacity="0.2" d="M137.486 212.096H120.471C120.316 212.096 120.185 211.97 120.185 211.812V211.622C120.185 211.467 120.312 211.338 120.471 211.338H137.486C137.641 211.338 137.772 211.463 137.772 211.622V211.812C137.772 211.966 137.645 212.096 137.486 212.096Z" fill="white"/>
<path opacity="0.56" d="M137.529 224.072H120.428C120.272 224.072 120.142 223.946 120.142 223.788V223.597C120.142 223.443 120.269 223.313 120.428 223.313H137.529C137.685 223.313 137.815 223.439 137.815 223.597V223.788C137.815 223.942 137.688 224.072 137.529 224.072Z" fill="white"/>
<path opacity="0.2" d="M129.185 226.231H120.515C120.359 226.231 120.229 226.105 120.229 225.947V225.757C120.229 225.602 120.355 225.473 120.515 225.473H129.185C129.34 225.473 129.471 225.599 129.471 225.757V225.947C129.471 226.102 129.34 226.231 129.185 226.231Z" fill="white"/>
<path d="M120.493 220.241H137.377C137.594 220.241 137.771 220.065 137.771 219.85V215.559C137.771 215.344 137.594 215.168 137.377 215.168H120.493C120.276 215.168 120.098 215.344 120.098 215.559V219.85C120.102 220.065 120.279 220.241 120.493 220.241Z" fill="white"/>
<path d="M160.817 177.836C164.133 177.76 167.449 177.728 170.764 177.699L180.712 177.656L190.66 177.699L195.634 177.749L200.608 177.839L195.634 177.929L190.66 177.979L180.712 178.019L170.764 177.976C167.449 177.943 164.133 177.911 160.817 177.836Z" fill="white"/>
<path d="M156.817 178.64C157.264 178.64 157.627 178.28 157.627 177.835C157.627 177.391 157.264 177.031 156.817 177.031C156.369 177.031 156.006 177.391 156.006 177.835C156.006 178.28 156.369 178.64 156.817 178.64Z" fill="white"/>
<path d="M206.342 321.154H154.351V322.149H206.342V321.154Z" fill="#C1C1C1"/>
<path d="M271.239 221.79L219.838 221.88L194.139 221.923L192.532 221.926H191.728C191.457 221.919 191.207 221.948 190.899 221.901C190.309 221.801 189.821 221.308 189.723 220.723C189.679 220.417 189.708 220.177 189.697 219.903V219.106L189.687 212.728L189.676 206.35L189.669 203.163V202.365C189.669 202.229 189.665 202.107 189.672 201.959C189.679 201.809 189.708 201.658 189.763 201.518C189.969 200.946 190.552 200.537 191.167 200.54L242.568 200.63L268.267 200.677L269.874 200.68H270.678C270.946 200.688 271.21 200.662 271.485 200.705C272.032 200.799 272.488 201.262 272.575 201.805C272.615 202.348 272.586 202.872 272.593 203.404L272.582 209.782L272.571 216.159L272.564 219.347V220.144C272.56 220.406 272.586 220.683 272.477 220.931C272.296 221.438 271.782 221.797 271.239 221.79ZM271.239 221.79C271.778 221.797 272.293 221.434 272.474 220.931C272.579 220.683 272.553 220.41 272.557 220.144V219.347L272.55 216.159L272.539 209.782L272.528 203.404C272.517 202.876 272.546 202.333 272.506 201.816C272.423 201.302 271.992 200.867 271.474 200.781C271.221 200.741 270.946 200.767 270.682 200.759H269.878L268.271 200.763L242.572 200.81L191.171 200.899C190.704 200.892 190.259 201.205 190.099 201.64C190.056 201.747 190.034 201.859 190.031 201.974C190.023 202.089 190.027 202.236 190.027 202.362V203.16L190.02 206.347L190.009 212.724L189.998 219.102V219.9C190.005 220.159 189.98 220.45 190.016 220.672C190.088 221.143 190.487 221.546 190.961 221.625C191.185 221.66 191.475 221.639 191.736 221.646H192.539L194.147 221.65L219.845 221.693L271.239 221.79Z" fill="#A7CC80"/>
<path opacity="0.24" d="M188.326 296.706H173.299V303.975H188.326V296.706Z" fill="url(#paint0_linear)"/>
<path opacity="0.21" d="M232.44 247.671L208.312 258.813C206.868 259.478 205.141 258.853 204.468 257.423L197.025 241.545C196.355 240.111 196.985 238.397 198.429 237.729L222.557 226.587C223.998 225.922 225.728 226.547 226.402 227.981L228.099 231.606L228.936 233.392L229.015 233.561C228.592 234.104 228.36 234.837 229.08 235.634C229.544 236.145 230.029 236.475 230.481 236.691L233.841 243.859C234.514 245.289 233.881 247.006 232.44 247.671Z" fill="black"/>
<path d="M236.107 228.225L233.634 233.41C233.634 233.41 232.816 233.5 231.824 233.026L230.358 229.896C230.572 229.623 230.833 229.4 231.05 229.242C230.785 229.415 230.528 229.58 230.279 229.727L229.442 227.942L232.262 226.321L235.108 227.748L236.107 228.225Z" fill="#FFCB92"/>
<path d="M235.184 240.194C235.857 241.624 235.224 243.342 233.783 244.006L209.655 255.149C208.211 255.813 206.484 255.188 205.811 253.758L198.368 237.88C197.698 236.446 198.328 234.733 199.772 234.064L223.9 222.922C225.341 222.257 227.071 222.883 227.745 224.316L229.442 227.942L227.636 228.98C227.082 229.3 227.107 230.108 227.683 230.389C228.338 230.701 229.24 230.345 230.279 229.727L230.358 229.896C229.935 230.439 229.703 231.172 230.423 231.969C230.887 232.48 231.372 232.81 231.824 233.026L235.184 240.194Z" fill="white"/>
<path d="M230.358 229.896L231.824 233.026C231.372 232.81 230.887 232.48 230.423 231.969C229.703 231.172 229.935 230.439 230.358 229.896Z" fill="white"/>
<path d="M229.442 227.942L230.278 229.727C229.239 230.345 228.338 230.701 227.683 230.388C227.107 230.108 227.082 229.3 227.636 228.98L229.442 227.942Z" fill="#FFCB92"/>
<path d="M231.824 233.026L235.184 240.194C235.857 241.624 235.224 243.342 233.783 244.006L209.655 255.149C208.211 255.813 206.484 255.188 205.811 253.758L198.368 237.88C197.698 236.446 198.328 234.733 199.772 234.064L223.9 222.922C225.341 222.257 227.071 222.883 227.745 224.316L229.442 227.942L230.279 229.727L230.358 229.896C229.935 230.439 229.703 231.172 230.423 231.969C230.887 232.48 231.372 232.81 231.824 233.026Z" stroke="#BFBFBF" stroke-width="0.292149" stroke-miterlimit="10"/>
<path d="M263.561 298.841L264.589 314.56H271.898L270.675 298.841H263.561Z" fill="#FFCB92"/>
<path d="M242.518 322.192L264.691 311.319L271.294 317.219L272.387 313.68L276.043 322.972L244.947 326.457C244.943 326.457 243.608 323.356 242.518 322.192Z" fill="#56D0ED"/>
<path d="M276.04 322.972L279.924 327.169L236.063 329.716C235.224 329.766 234.46 329.227 234.224 328.426L233.949 327.485C233.949 327.485 232.425 325.782 237.801 322.332C243.177 318.883 244.94 326.461 244.94 326.461L276.04 322.972Z" fill="white" stroke="#231F20" stroke-width="0.292149" stroke-miterlimit="10"/>
<path d="M244.842 327.664C247.369 327.37 249.896 327.115 252.426 326.863L260.017 326.159L267.619 325.537L271.421 325.257C272.688 325.174 273.958 325.085 275.225 325.013C273.962 325.164 272.698 325.293 271.435 325.433L267.641 325.814L260.05 326.518L252.448 327.14C249.917 327.33 247.38 327.517 244.842 327.664Z" fill="#231F20"/>
<path d="M264.691 311.319C262.852 312.304 260.995 313.252 259.134 314.197C257.273 315.142 255.402 316.059 253.534 316.989C251.655 317.895 249.783 318.815 247.897 319.709L245.066 321.042C244.118 321.473 243.173 321.919 242.217 322.339C243.137 321.844 244.064 321.369 244.987 320.884L247.774 319.461C249.635 318.516 251.506 317.6 253.374 316.669C255.253 315.764 257.125 314.844 259.011 313.953C260.897 313.058 262.783 312.171 264.691 311.319Z" fill="#231F20"/>
<path d="M244.896 322.498C246.627 321.589 248.375 320.715 250.127 319.846C251.879 318.976 253.642 318.136 255.398 317.28C257.168 316.45 258.931 315.606 260.705 314.79L263.373 313.572C264.267 313.177 265.158 312.771 266.056 312.387C265.19 312.843 264.318 313.281 263.449 313.73L260.825 315.038C259.073 315.908 257.31 316.749 255.554 317.604C253.784 318.434 252.021 319.278 250.247 320.094C248.473 320.909 246.692 321.721 244.896 322.498Z" fill="#231F20"/>
<path d="M252.748 318.746L257.577 325.041L262.946 324.438L257.414 316.515" stroke="#231F20" stroke-width="0.292149" stroke-miterlimit="10"/>
<path d="M250.869 321.711L249.942 322.214C249.559 322.423 249.07 322.283 248.86 321.902L247.43 319.315C247.22 318.934 247.361 318.449 247.745 318.24L248.672 317.737C249.055 317.529 249.544 317.669 249.754 318.05L251.184 320.637C251.398 321.018 251.253 321.503 250.869 321.711Z" fill="white"/>
<path d="M250.869 321.711L250.16 322.11C250.04 322.174 249.928 322.253 249.794 322.293C249.66 322.332 249.519 322.343 249.382 322.311C249.103 322.264 248.871 322.045 248.755 321.801L248.339 321.103L247.51 319.706L247.307 319.35C247.235 319.214 247.199 319.055 247.206 318.897C247.213 318.585 247.398 318.279 247.677 318.125L248.397 317.744C248.516 317.686 248.629 317.607 248.788 317.561C248.94 317.521 249.099 317.514 249.251 317.55C249.559 317.607 249.802 317.884 249.899 318.132L250.269 318.854L251.011 320.299C251.126 320.536 251.311 320.769 251.282 321.057C251.278 321.326 251.112 321.585 250.869 321.711ZM250.869 321.711C251.108 321.578 251.264 321.319 251.271 321.05C251.293 320.773 251.108 320.55 250.985 320.313L250.156 318.915L249.74 318.218C249.621 317.974 249.443 317.823 249.204 317.773C249.092 317.748 248.973 317.755 248.86 317.787C248.759 317.819 248.643 317.895 248.52 317.96L247.81 318.358C247.611 318.463 247.47 318.675 247.459 318.905C247.452 319.019 247.474 319.134 247.524 319.235L247.713 319.591L248.455 321.035L248.824 321.757C248.925 322.005 249.114 322.214 249.385 322.271C249.516 322.304 249.653 322.296 249.78 322.264C249.907 322.228 250.022 322.153 250.145 322.092L250.869 321.711Z" fill="black"/>
<path d="M254.323 319.832L253.396 320.335C253.012 320.544 252.523 320.403 252.313 320.023L250.883 317.436C250.674 317.055 250.815 316.57 251.198 316.361L252.125 315.858C252.509 315.65 252.998 315.79 253.208 316.171L254.637 318.758C254.851 319.139 254.706 319.624 254.323 319.832Z" fill="white"/>
<path d="M254.323 319.831L253.613 320.23C253.494 320.295 253.382 320.374 253.248 320.414C253.114 320.453 252.973 320.464 252.835 320.431C252.556 320.385 252.325 320.166 252.209 319.921L251.792 319.224L250.963 317.827L250.761 317.471C250.688 317.334 250.652 317.176 250.659 317.018C250.667 316.705 250.851 316.4 251.13 316.246L251.85 315.865C251.97 315.807 252.082 315.728 252.241 315.681C252.393 315.642 252.553 315.635 252.705 315.671C253.012 315.728 253.255 316.005 253.353 316.253L253.722 316.975L254.464 318.419C254.58 318.657 254.764 318.89 254.735 319.178C254.732 319.447 254.565 319.706 254.323 319.831ZM254.323 319.831C254.562 319.699 254.717 319.44 254.725 319.17C254.746 318.894 254.562 318.671 254.439 318.434L253.61 317.036L253.193 316.339C253.074 316.095 252.896 315.944 252.658 315.893C252.545 315.868 252.426 315.875 252.314 315.908C252.212 315.94 252.096 316.016 251.973 316.08L251.264 316.479C251.065 316.583 250.924 316.795 250.913 317.025C250.905 317.14 250.927 317.255 250.978 317.356L251.166 317.712L251.908 319.156L252.277 319.878C252.379 320.126 252.567 320.334 252.839 320.392C252.969 320.424 253.106 320.417 253.233 320.385C253.36 320.349 253.476 320.273 253.599 320.212L254.323 319.831Z" fill="black"/>
<path d="M244.777 326.529C244.911 326.989 244.933 327.449 244.929 327.905C244.914 328.362 244.871 328.821 244.719 329.274C244.585 328.814 244.563 328.354 244.567 327.898C244.581 327.438 244.625 326.982 244.777 326.529Z" fill="black"/>
<path d="M234.927 327.449C236.353 327.197 237.79 327.054 239.227 326.939C240.668 326.834 242.109 326.755 243.557 326.788C242.13 327.039 240.693 327.183 239.256 327.298C237.819 327.399 236.378 327.478 234.927 327.449Z" fill="#231F20"/>
<path d="M273.882 301.87L275.041 317.589H283.273L281.897 301.87H273.882Z" fill="#FFCB92"/>
<path d="M260.915 272.615L259.909 298.334L258.707 298.93V304.629C258.707 304.629 275.953 302.707 279.29 303.968L283.75 284.569L276.822 272.622H260.915V272.615Z" fill="#D84479"/>
<path d="M283.273 286.153L286.067 299.362L287.15 299.559L286.473 304.13C279.866 303.235 265.147 305.125 265.147 305.125L263.931 300.357L265.147 299.66L262.714 278.601L272.937 275.852L283.273 286.153Z" fill="#F95F8F"/>
<path d="M290.255 288.719L226.13 265.152C223.715 264.264 222.481 261.598 223.375 259.202L237.689 220.834C238.583 218.438 241.269 217.213 243.684 218.1L307.809 241.667C310.224 242.555 311.458 245.221 310.564 247.617L296.25 285.985C295.356 288.385 292.67 289.606 290.255 288.719Z" fill="#56D0ED"/>
<path d="M262.899 236.062C262.899 236.062 269.458 247.553 279.917 252.655L275.088 243.342L265.303 236.285L262.899 236.062Z" fill="black"/>
<path opacity="0.94" d="M241.363 219.922L292.243 286.779" stroke="white" stroke-width="0.292149" stroke-miterlimit="10"/>
<path opacity="0.94" d="M226.307 260.693L309.152 244.621" stroke="white" stroke-width="0.292149" stroke-miterlimit="10"/>
<path d="M246.294 231.01C246.913 231.883 245.881 233.669 243.984 234.995C242.087 236.321 240.045 236.683 239.426 235.81C238.804 234.934 239.839 233.148 241.736 231.822C243.633 230.496 245.675 230.133 246.294 231.01Z" fill="#288C34"/>
<path d="M246.294 231.01L272.344 267.735C272.963 268.608 271.931 270.394 270.034 271.72C268.137 273.046 266.095 273.409 265.476 272.535L239.426 235.81C240.045 236.684 242.087 236.321 243.984 234.995C245.881 233.669 246.916 231.887 246.294 231.01Z" fill="#4DCE62"/>
<path d="M268.716 238.872C268.716 238.872 264.173 246.123 262.092 247.161C260.01 248.199 258.54 245.853 258.54 245.853L255.141 245.709C255.141 245.709 255.091 246.895 257.013 247.258C258.935 247.625 258.182 248.785 258.182 248.785C258.182 248.785 256.249 250.97 254.598 251.652C253.943 251.925 253.396 252.418 253.15 253.079C252.658 254.401 252.585 256.442 256.111 257.383C261.56 258.839 264.532 251.042 264.532 251.042L273.593 243.453C273.593 243.457 271.536 239.529 268.716 238.872Z" fill="#FFCB92"/>
<path d="M266.834 217.927L287.178 228.459C287.178 228.459 288.898 229.486 288.181 231.836C287.461 234.186 281.325 250.617 281.325 250.617L281.524 251.315L279.924 252.655C279.924 252.655 272.966 238.742 262.906 236.062L263.858 234.125L264.908 234.524C264.908 234.524 266.979 231.014 273.849 229.102L249.953 220.335L258.091 218.772C258.091 218.772 261.165 214.262 266.834 217.927Z" fill="#FBE54B"/>
<path d="M265.853 234.804C267.377 235.53 268.832 236.403 270.229 237.356C271.623 238.311 272.941 239.375 274.186 240.517C275.431 241.664 276.546 242.939 277.56 244.287C278.574 245.641 279.37 247.136 280.036 248.677L279.471 247.549C279.374 247.362 279.29 247.172 279.182 246.989L278.849 246.453C278.624 246.098 278.425 245.727 278.183 245.386L277.444 244.366C276.416 243.043 275.305 241.771 274.059 240.643C272.832 239.497 271.518 238.441 270.146 237.463C269.458 236.975 268.76 236.508 268.043 236.062C267.33 235.616 266.602 235.192 265.853 234.804Z" fill="black"/>
<path d="M263.355 212.329C263.547 215.833 265.151 218.671 265.151 218.671C264.05 221.154 259.844 219.465 260.582 217.676C261.321 215.887 259.532 212.793 259.532 212.793C259.532 212.793 263.214 209.714 263.355 212.329Z" fill="#EFB275"/>
<path d="M260.81 212.868C263.985 212.868 266.559 210.314 266.559 207.163C266.559 204.011 263.985 201.457 260.81 201.457C257.635 201.457 255.061 204.011 255.061 207.163C255.061 210.314 257.635 212.868 260.81 212.868Z" fill="#FFCB92"/>
<path d="M249.798 321.262L274.443 309.174L281.785 315.732L282.998 311.797L287.059 322.124L252.495 325.997C252.495 326.001 251.007 322.555 249.798 321.262Z" fill="#56D0ED"/>
<path d="M287.059 322.127L291.378 326.791L242.626 329.623C241.693 329.677 240.842 329.08 240.581 328.189L240.277 327.14C240.277 327.14 238.583 325.246 244.56 321.412C250.536 317.579 252.495 326.001 252.495 326.001L287.059 322.127Z" fill="white" stroke="#231F20" stroke-width="0.292149" stroke-miterlimit="10"/>
<path d="M252.383 327.341C255.192 327.021 258.001 326.741 260.814 326.468L269.252 325.688L277.701 324.991L281.926 324.671L286.154 324.391L281.94 324.847L277.723 325.268L269.281 326.048L260.832 326.745C258.023 326.96 255.203 327.169 252.383 327.341Z" fill="#231F20"/>
<path d="M274.443 309.174C272.394 310.263 270.327 311.312 268.26 312.361C266.193 313.411 264.108 314.427 262.034 315.462L255.771 318.488L252.625 319.975C251.572 320.46 250.522 320.953 249.465 321.427C250.486 320.881 251.521 320.352 252.549 319.817L255.648 318.24L261.874 315.139C263.963 314.133 266.045 313.109 268.137 312.113C270.229 311.122 272.329 310.13 274.443 309.174Z" fill="#231F20"/>
<path d="M252.444 321.599C254.374 320.597 256.318 319.627 258.265 318.667C260.213 317.704 262.175 316.77 264.126 315.822C266.092 314.898 268.05 313.96 270.023 313.048L272.984 311.69C273.976 311.248 274.964 310.795 275.964 310.364C275.001 310.87 274.03 311.352 273.06 311.848L270.143 313.299C268.195 314.262 266.233 315.196 264.282 316.145C262.316 317.068 260.358 318.006 258.385 318.915C256.412 319.824 254.435 320.73 252.444 321.599Z" fill="#231F20"/>
<path d="M261.168 317.428L266.537 324.427L272.506 323.759L266.356 314.952" stroke="#231F20" stroke-width="0.292149" stroke-miterlimit="10"/>
<path d="M259.16 320.684L257.972 321.331C257.588 321.539 257.1 321.399 256.89 321.018L255.217 317.989C255.007 317.608 255.148 317.123 255.532 316.915L256.72 316.268C257.103 316.06 257.592 316.2 257.802 316.581L259.474 319.61C259.688 319.99 259.547 320.475 259.16 320.684Z" fill="white"/>
<path d="M259.16 320.683L258.36 321.129L257.958 321.351C257.82 321.423 257.661 321.456 257.505 321.441C257.35 321.427 257.198 321.369 257.071 321.276C256.941 321.183 256.854 321.039 256.781 320.909L256.318 320.123L255.395 318.549L255.17 318.154C255.098 318.035 255.004 317.855 254.997 317.683C254.96 317.331 255.149 316.968 255.467 316.795L256.274 316.364L256.684 316.149C256.839 316.07 257.02 316.037 257.194 316.059C257.368 316.077 257.534 316.152 257.668 316.26C257.806 316.368 257.893 316.533 257.954 316.662L258.374 317.471L259.214 319.091L259.431 319.494C259.507 319.623 259.576 319.77 259.583 319.925C259.605 320.23 259.435 320.543 259.16 320.683ZM259.16 320.683C259.431 320.536 259.59 320.223 259.558 319.925C259.547 319.774 259.478 319.638 259.399 319.508L259.174 319.113L258.251 317.539L257.788 316.752C257.708 316.612 257.643 316.508 257.534 316.425C257.429 316.346 257.299 316.3 257.169 316.289C257.038 316.278 256.908 316.303 256.792 316.364L256.394 316.583L255.594 317.029C255.369 317.144 255.225 317.403 255.243 317.661C255.254 317.794 255.297 317.895 255.377 318.039L255.594 318.441L256.434 320.061L256.854 320.87C256.962 321.15 257.201 321.373 257.505 321.405C257.813 321.456 258.077 321.247 258.345 321.114L259.16 320.683Z" fill="black"/>
<path d="M263 318.596L261.813 319.243C261.429 319.451 260.94 319.311 260.731 318.93L259.058 315.901C258.848 315.52 258.989 315.035 259.373 314.827L260.56 314.18C260.944 313.972 261.433 314.112 261.643 314.493L263.315 317.522C263.525 317.903 263.384 318.384 263 318.596Z" fill="white"/>
<path d="M263 318.595L262.2 319.041L261.798 319.264C261.661 319.336 261.502 319.368 261.346 319.354C261.19 319.339 261.038 319.282 260.912 319.188C260.781 319.095 260.694 318.951 260.622 318.822L260.159 318.035L259.235 316.461L259.011 316.066C258.939 315.947 258.844 315.768 258.837 315.595C258.801 315.243 258.989 314.88 259.308 314.708L260.115 314.277L260.524 314.061C260.68 313.982 260.861 313.95 261.035 313.971C261.208 313.989 261.375 314.065 261.509 314.172C261.646 314.28 261.733 314.445 261.795 314.575L262.215 315.383L263.055 317.004L263.272 317.406C263.348 317.536 263.417 317.683 263.424 317.837C263.442 318.143 263.272 318.452 263 318.595ZM263 318.595C263.272 318.448 263.431 318.136 263.398 317.837C263.388 317.686 263.319 317.55 263.239 317.421L263.015 317.025L262.092 315.451L261.628 314.665C261.549 314.524 261.483 314.42 261.375 314.338C261.27 314.259 261.14 314.212 261.009 314.201C260.879 314.19 260.749 314.215 260.633 314.277L260.235 314.496L259.435 314.941C259.21 315.056 259.065 315.315 259.083 315.574C259.094 315.707 259.138 315.807 259.217 315.951L259.435 316.353L260.274 317.974L260.694 318.782C260.803 319.063 261.042 319.285 261.346 319.318C261.654 319.368 261.918 319.16 262.186 319.027L263 318.595Z" fill="black"/>
<path d="M252.31 326.08C252.441 326.59 252.462 327.1 252.459 327.61C252.441 328.121 252.397 328.627 252.245 329.134C252.111 328.624 252.093 328.114 252.097 327.603C252.115 327.093 252.158 326.586 252.31 326.08Z" fill="black"/>
<path d="M241.363 327.1C242.156 326.964 242.952 326.87 243.752 326.78C244.549 326.687 245.349 326.619 246.149 326.554C246.949 326.497 247.749 326.439 248.549 326.41L249.751 326.367C250.153 326.367 250.554 326.353 250.956 326.364C250.558 326.435 250.16 326.482 249.765 326.543L248.571 326.687C247.774 326.78 246.974 326.849 246.174 326.913C245.374 326.971 244.574 327.028 243.774 327.057C242.97 327.086 242.167 327.115 241.363 327.1Z" fill="#231F20"/>
<path d="M266.157 299.379C267.685 299.157 269.223 299.002 270.762 298.873C272.3 298.744 273.846 298.664 275.388 298.6C276.934 298.564 278.48 298.535 280.025 298.596C281.571 298.657 283.117 298.761 284.641 299.035C284.253 299.013 283.87 298.984 283.486 298.956C283.102 298.934 282.715 298.927 282.331 298.912C281.948 298.891 281.56 298.891 281.176 298.884C280.793 298.876 280.405 298.869 280.022 298.876C278.483 298.873 276.941 298.902 275.402 298.963C273.86 298.995 272.322 299.081 270.783 299.153L266.157 299.379Z" fill="black"/>
<path d="M262.823 208.848C265.415 206.121 262.823 206.121 262.823 206.121L262.189 212.121L260.944 203.9L255.583 204.784C255.583 204.784 257.704 200.063 262.906 201.845C268.108 203.627 266.569 209.857 265.368 210.644C263.145 212.096 263.626 207.856 263.626 207.856" fill="black"/>
<path d="M266.208 202.664C267.627 202.664 268.778 201.522 268.778 200.113C268.778 198.704 267.627 197.562 266.208 197.562C264.788 197.562 263.637 198.704 263.637 200.113C263.637 201.522 264.788 202.664 266.208 202.664Z" fill="black"/>
<path d="M104.091 226.141C110.095 226.141 114.962 221.31 114.962 215.351C114.962 209.392 110.095 204.561 104.091 204.561C98.0868 204.561 93.2197 209.392 93.2197 215.351C93.2197 221.31 98.0868 226.141 104.091 226.141Z" fill="white"/>
<path d="M93.2197 220.892L104.091 215.351L101.839 227.19C101.839 227.19 98.1937 227.729 93.2197 220.892Z" fill="#F24089"/>
<path d="M169.686 253.718H168.3C166.102 253.718 164.299 251.933 164.299 249.752V213.605C164.299 211.424 166.099 209.638 168.3 209.638H169.686C171.883 209.638 173.683 211.424 173.683 213.605V249.748C173.686 251.933 171.887 253.718 169.686 253.718Z" fill="#F95F8F"/>
<path d="M168.593 223.784C167.561 223.784 166.721 222.951 166.721 221.927C166.721 220.903 167.561 220.069 168.593 220.069C169.625 220.069 170.464 220.903 170.464 221.927C170.464 222.951 169.625 223.784 168.593 223.784ZM168.593 220.425C167.757 220.425 167.076 221.1 167.076 221.93C167.076 222.76 167.757 223.436 168.593 223.436C169.429 223.436 170.11 222.76 170.11 221.93C170.11 221.1 169.429 220.425 168.593 220.425ZM171.21 224.528C171.279 224.46 171.279 224.348 171.21 224.28L170.417 223.493C170.349 223.425 170.236 223.425 170.168 223.493C170.099 223.561 170.099 223.673 170.168 223.741L170.96 224.528C170.997 224.564 171.04 224.578 171.087 224.578C171.13 224.578 171.174 224.56 171.21 224.528Z" fill="white"/>
<path d="M161.335 210.224C161.411 213.799 161.443 217.374 161.472 220.946L161.516 231.668L161.476 242.389L161.425 247.75L161.335 253.111L161.244 247.75L161.193 242.389L161.154 231.668L161.197 220.946C161.226 217.374 161.262 213.799 161.335 210.224Z" fill="#939393"/>
<path d="M176.51 210.26C176.586 213.835 176.619 217.41 176.647 220.982L176.691 231.703L176.651 242.425L176.6 247.786L176.51 253.147L176.419 247.786L176.369 242.425L176.329 231.703L176.372 220.982C176.401 217.406 176.438 213.835 176.51 210.26Z" fill="#939393"/>
<path d="M171.42 243.306C171.094 243.306 170.776 243.255 170.475 243.155C170.323 243.104 170.153 243.144 170.055 243.241L169.458 243.686C168.766 243.32 168.339 242.896 167.977 242.217L168.415 241.642C168.528 241.531 168.571 241.365 168.52 241.211C168.419 240.909 168.368 240.593 168.368 240.269C168.368 240.036 168.176 239.845 167.941 239.845H166.967C166.732 239.845 166.54 240.036 166.54 240.269C166.54 242.939 168.727 245.109 171.416 245.109C171.652 245.109 171.844 244.919 171.844 244.685V243.722C171.844 243.496 171.655 243.306 171.42 243.306ZM171.55 244.693C171.55 244.764 171.492 244.822 171.42 244.822C168.893 244.822 166.837 242.781 166.837 240.273C166.837 240.201 166.895 240.144 166.967 240.144H167.941C168.014 240.144 168.071 240.201 168.071 240.273C168.071 240.625 168.126 240.974 168.238 241.301C168.252 241.351 168.242 241.398 168.191 241.452L167.684 242.116C167.652 242.159 167.644 242.22 167.67 242.271C168.082 243.076 168.585 243.575 169.404 243.992C169.454 244.017 169.516 244.013 169.559 243.977L170.243 243.46C170.28 243.424 170.33 243.413 170.377 243.428C170.71 243.536 171.062 243.593 171.416 243.593C171.489 243.593 171.547 243.651 171.547 243.722V244.693H171.55Z" fill="white"/>
<path d="M163.423 231.678H174.823" stroke="white" stroke-width="0.292149" stroke-miterlimit="10"/>
<path d="M204.098 226.321L195.16 229.731L186.208 233.108L186.284 232.929L194.664 252.155L202.954 271.418L202.784 271.35L210.976 267.854L219.183 264.386L211.041 268.001L202.885 271.587L202.77 271.637L202.715 271.519L194.331 252.296L186.034 233.037L185.98 232.904L186.11 232.857L195.099 229.573L204.098 226.321Z" fill="#56D0ED"/>
<path d="M120.233 269.711L128.465 269.618L136.697 269.564L144.929 269.542L153.161 269.535L152.983 269.711C153.001 265.011 152.991 260.308 153.027 255.608L153.077 248.559L153.161 241.509L153.244 248.559L153.295 255.608C153.331 260.308 153.324 265.011 153.338 269.711V269.887H153.161L144.929 269.88L136.697 269.859L128.465 269.805L120.233 269.711Z" fill="#F95F8F"/>
<path d="M255.583 206.2C255.583 206.2 255.123 210.695 259.358 212.125" stroke="url(#paint1_linear)" stroke-width="0.292149" stroke-miterlimit="10"/>
<path d="M256.347 204.346C257.639 204.015 258.949 203.796 260.263 203.598C261.578 203.415 262.899 203.257 264.231 203.207C262.939 203.537 261.628 203.76 260.314 203.954C259 204.141 257.682 204.299 256.347 204.346Z" fill="url(#paint2_linear)"/>
<path d="M256.799 203.778C257.824 203.494 258.855 203.296 259.883 203.092L261.425 202.79C261.682 202.736 261.94 202.686 262.189 202.617C262.446 202.563 262.689 202.484 262.928 202.362C262.526 202.721 261.997 202.898 261.498 203.059C260.991 203.221 260.473 203.336 259.956 203.444C258.913 203.641 257.863 203.774 256.799 203.778Z" fill="url(#paint3_linear)"/>
<path d="M257.121 203.21C257.99 202.959 258.863 202.786 259.731 202.606L261.031 202.341C261.465 202.247 261.892 202.15 262.316 201.996C261.961 202.283 261.53 202.463 261.107 202.61C260.68 202.757 260.242 202.869 259.8 202.959C258.917 203.127 258.026 203.239 257.121 203.21Z" fill="url(#paint4_linear)"/>
<path d="M261.382 204.691C261.621 205.373 261.751 206.067 261.853 206.767C261.947 207.468 262.012 208.172 261.965 208.895C261.726 208.212 261.596 207.518 261.494 206.818C261.404 206.117 261.339 205.413 261.382 204.691Z" fill="url(#paint5_linear)"/>
<path d="M262.768 205.643C263.065 205.485 263.395 205.467 263.717 205.528C263.876 205.564 264.039 205.628 264.177 205.74C264.314 205.844 264.423 206.027 264.39 206.2C264.271 206.074 264.155 206.027 264.032 205.98C263.905 205.941 263.778 205.905 263.637 205.88C263.362 205.815 263.076 205.768 262.768 205.643Z" fill="url(#paint6_linear)"/>
<path d="M268.235 200.113C268.238 200.641 268.028 201.166 267.659 201.55C267.293 201.942 266.765 202.19 266.211 202.211C265.657 202.236 265.085 202.032 264.669 201.643C264.253 201.255 264.006 200.688 264.006 200.113C264.006 199.538 264.253 198.97 264.669 198.582C265.085 198.19 265.657 197.989 266.211 198.014C266.765 198.036 267.297 198.284 267.659 198.676C268.028 199.064 268.238 199.588 268.235 200.113ZM268.235 200.113C268.235 199.585 268.01 199.064 267.623 198.708C267.239 198.352 266.714 198.169 266.207 198.19C265.701 198.212 265.219 198.442 264.886 198.798C264.549 199.153 264.361 199.628 264.365 200.109C264.361 200.591 264.549 201.065 264.886 201.421C265.219 201.78 265.701 202.01 266.207 202.028C266.714 202.049 267.239 201.87 267.623 201.511C268.007 201.162 268.231 200.641 268.235 200.113Z" fill="url(#paint7_linear)"/>
<path d="M267.351 200.113C267.366 200.706 266.87 201.295 266.211 201.334C265.889 201.356 265.548 201.248 265.295 201.022C265.042 200.795 264.89 200.454 264.89 200.113C264.89 199.768 265.042 199.427 265.295 199.204C265.548 198.977 265.892 198.87 266.211 198.891C266.87 198.931 267.362 199.52 267.351 200.113ZM267.351 200.113C267.351 199.815 267.221 199.524 267 199.329C266.779 199.135 266.486 199.046 266.211 199.071C265.646 199.114 265.241 199.617 265.252 200.113C265.241 200.609 265.646 201.115 266.211 201.155C266.486 201.176 266.779 201.09 267 200.896C267.217 200.702 267.348 200.411 267.351 200.113Z" fill="url(#paint8_linear)"/>
<path d="M259.036 219.922C259.036 219.922 263.967 224.679 266.801 219.013" stroke="url(#paint9_linear)" stroke-width="0.292149" stroke-miterlimit="10"/>
<path d="M267.243 233.787C267.243 233.787 274.581 228.976 283.906 228.369" stroke="url(#paint10_linear)" stroke-width="0.292149" stroke-miterlimit="10"/>
<path d="M269.154 219.922L281.053 226.321" stroke="url(#paint11_linear)" stroke-width="0.292149" stroke-miterlimit="10"/>
<path d="M260.908 213.573C260.908 213.573 261.889 216.03 261.686 218.003" stroke="url(#paint12_linear)" stroke-width="0.292149" stroke-miterlimit="10"/>
<path d="M246.294 231.01C246.522 231.366 246.525 231.822 246.417 232.224C246.312 232.634 246.105 233.008 245.863 233.353C245.613 233.69 245.331 234.007 245.019 234.291C244.712 234.578 244.382 234.837 244.049 235.092L244.078 234.926C245.059 236.26 246.022 237.603 246.981 238.951L248.426 240.97L249.849 243.004C250.797 244.358 251.745 245.713 252.672 247.082C253.61 248.444 254.533 249.82 255.438 251.2C254.435 249.881 253.451 248.555 252.477 247.215C251.496 245.882 250.533 244.538 249.573 243.191L248.129 241.171L246.706 239.138C245.758 237.783 244.809 236.428 243.883 235.059L243.818 234.962L243.912 234.894C244.245 234.653 244.578 234.409 244.885 234.136C245.197 233.867 245.483 233.575 245.747 233.259C246 232.94 246.218 232.587 246.341 232.199C246.46 231.822 246.496 231.38 246.294 231.01Z" fill="url(#paint13_linear)"/>
<path d="M260.26 257.57C261.121 258.72 261.968 259.877 262.801 261.041C263.641 262.202 264.466 263.373 265.284 264.552C266.11 265.723 266.928 266.901 267.732 268.087C268.539 269.273 269.353 270.451 270.139 271.648L269.987 271.601C270.316 271.454 270.635 271.199 270.899 270.919C271.167 270.635 271.388 270.311 271.583 269.97C271.782 269.629 271.924 269.259 272.054 268.885C272.115 268.698 272.162 268.504 272.217 268.314L272.343 267.731L272.264 268.324C272.224 268.518 272.184 268.716 272.134 268.91C272.025 269.294 271.902 269.679 271.721 270.042C271.543 270.405 271.323 270.75 271.051 271.059C270.776 271.364 270.476 271.641 270.077 271.835L269.99 271.878L269.925 271.788C269.082 270.628 268.267 269.449 267.446 268.274C266.62 267.103 265.809 265.921 265.006 264.735C264.195 263.553 263.391 262.367 262.602 261.17C261.809 259.981 261.027 258.777 260.26 257.57Z" fill="url(#paint14_linear)"/>
<path d="M244.122 231.563C244.122 231.563 241.472 232.785 240.386 234.574" stroke="url(#paint15_linear)" stroke-width="0.292149" stroke-miterlimit="10"/>
<path d="M241.877 233.787C241.877 233.787 244.1 231.879 245.277 231.876" stroke="url(#paint16_linear)" stroke-width="0.292149" stroke-miterlimit="10"/>
<path d="M272.134 232.62C272.134 232.62 278.556 229.433 285.843 229.433" stroke="url(#paint17_linear)" stroke-width="0.292149" stroke-miterlimit="10"/>
<path d="M255.322 245.799L256.549 245.889C256.553 245.886 255.923 247.035 255.322 245.799Z" fill="black"/>
<path d="M256.73 245.911C256.73 245.911 256.705 246.266 256.285 246.453" stroke="url(#paint18_linear)" stroke-width="0.146075" stroke-miterlimit="10"/>
<path d="M255.608 245.911H256.028" stroke="url(#paint19_linear)" stroke-width="0.146075" stroke-miterlimit="10"/>
<path d="M258.406 246.008L257.592 247.053" stroke="url(#paint20_linear)" stroke-width="0.146075" stroke-miterlimit="10"/>
<path d="M256.553 251.642L259.275 255.414" stroke="url(#paint21_linear)" stroke-width="0.292149" stroke-miterlimit="10"/>
<path d="M255.977 252.281L253.244 253.916" stroke="url(#paint22_linear)" stroke-width="0.292149" stroke-miterlimit="10"/>
<path d="M257.031 253.665L253.244 254.775" stroke="url(#paint23_linear)" stroke-width="0.292149" stroke-miterlimit="10"/>
<path d="M258.406 255.764L253.584 255.662" stroke="url(#paint24_linear)" stroke-width="0.292149" stroke-miterlimit="10"/>
<path d="M273.882 284.824C274.002 285.78 274.085 286.743 274.161 287.702C274.241 288.661 274.291 289.621 274.342 290.584C274.385 291.547 274.425 292.506 274.44 293.469L274.458 294.913C274.45 295.395 274.458 295.876 274.44 296.358C274.374 295.88 274.335 295.398 274.28 294.92L274.161 293.48C274.081 292.52 274.031 291.561 273.98 290.598C273.936 289.635 273.897 288.676 273.882 287.713C273.868 286.75 273.857 285.787 273.882 284.824Z" fill="url(#paint25_linear)"/>
<path d="M49.9168 283.117L51.0028 285.025C51.0028 285.025 57.4573 285.395 59.8719 282.244" fill="#231F20"/>
<path opacity="0.19" d="M272.134 228.473L273.842 229.099C273.842 229.099 278.675 227.191 282.31 227.327C282.31 227.327 276.467 226.113 272.134 228.473Z" fill="url(#paint26_linear)"/>
<path opacity="0.16" d="M267.819 240.255L269.907 243.579L264.532 251.045L273.593 243.457L268.716 238.872L267.819 240.255Z" fill="url(#paint27_linear)"/>
<path opacity="0.14" d="M274.059 304.234L282.071 303.889L282.534 309.174L274.353 308.222" fill="url(#paint28_linear)"/>
<path opacity="0.23" d="M263.905 304.122L264.202 308.675H271.228L271.123 304.625L265.15 305.125L264.897 304.122H263.905Z" fill="url(#paint29_linear)"/>
<path opacity="0.24" d="M260.607 280.505L283.75 288.87L283.272 286.153L260.607 277.825V280.505Z" fill="url(#paint30_linear)"/>
<path d="M105.977 262.507V263.355C105.977 264.03 105.423 264.58 104.742 264.58H95.4642C95.5801 264.246 95.6452 263.894 95.667 263.538H103.913C104.59 263.538 105.148 262.985 105.148 262.313V261.465C105.148 261.425 105.144 261.386 105.141 261.346C105.626 261.515 105.977 261.972 105.977 262.507Z" fill="#DD9B5F"/>
<path d="M54.9204 303.397C63.5117 296.307 69.3667 289.236 67.9978 287.601C66.6289 285.967 58.5545 290.389 49.9632 297.478C41.3718 304.567 35.5169 311.639 36.8858 313.273C38.2547 314.908 46.3291 310.486 54.9204 303.397Z" fill="#231F20"/>
<path d="M64.0893 292.473L97.8788 273.48C97.8788 273.48 101.133 272.535 102.715 277.206C104.297 281.877 112.862 310.087 112.862 310.087L96.3186 309.555L92.4162 295.883L65.1029 311.858L54.4201 303.116L64.0893 292.473Z" fill="#2CC1D1"/>
<path d="M57.3885 320.87C66.3174 320.87 73.5557 313.685 73.5557 304.823C73.5557 295.961 66.3174 288.776 57.3885 288.776C48.4597 288.776 41.2214 295.961 41.2214 304.823C41.2214 313.685 48.4597 320.87 57.3885 320.87Z" fill="#56D0ED"/>
<path d="M158.171 292.768L146.855 314.298L152.592 320.909L149.041 321.905L158.218 325.695L162.367 295.244C162.367 295.244 159.308 293.864 158.171 292.768Z" fill="#F95F8F"/>
<path d="M67.7093 292.473L143.224 312.217L152.317 321.171L142.449 323.611L141.471 320.913L85.7879 322.623C85.2304 322.641 84.6693 322.63 84.1118 322.594L55.2129 320.65C55.2093 320.654 65.0305 297.522 67.7093 292.473Z" fill="#56D0ED"/>
<path d="M53.0303 254.66C48.7695 261.361 40.4615 278.349 36.6315 313.03C36.6315 313.03 62.3338 283.2 68.1259 288.201C68.1259 288.201 72.6799 262.194 60.3066 253.298C57.9282 251.591 54.5942 252.198 53.0303 254.66Z" fill="#A7CC80"/>
<path opacity="0.23" d="M52.2952 260.8C52.2952 260.8 45.1021 279.88 51.7811 285.733C51.7811 285.733 57.6601 286.811 63.9155 282.679L65.9572 286.304L67.9917 287.598L59.2276 270.724L52.2952 260.8Z" fill="url(#paint31_linear)"/>
<path d="M51.9983 280.289L52.0091 280.314V280.336" stroke="#231F20" stroke-width="0.219112" stroke-miterlimit="10"/>
<path d="M54.5143 276.973L56.2157 276.416" stroke="#231F20" stroke-width="0.219112" stroke-miterlimit="10"/>
<path d="M76.0464 271.299C76.0464 271.299 57.4502 248.206 52.4835 260.193C52.4835 260.193 50.011 265.913 54.3225 282.679" fill="#C8E8A3"/>
<path d="M158.218 325.695L162.316 329.601L165.806 286.599C165.874 285.772 165.357 285.014 164.56 284.766L163.626 284.475C163.626 284.475 161.961 282.944 158.406 288.144C154.851 293.343 162.367 295.24 162.367 295.24L158.218 325.695Z" fill="white" stroke="#231F20" stroke-width="0.292149" stroke-miterlimit="10"/>
<path d="M163.572 295.168C163.369 297.658 163.13 300.141 162.884 302.627L162.099 310.076L161.23 317.514L160.766 321.229C160.6 322.465 160.444 323.705 160.263 324.941C160.361 323.697 160.48 322.454 160.589 321.211L160.951 317.485L161.737 310.036L162.605 302.599C162.913 300.12 163.221 297.644 163.572 295.168Z" fill="#231F20"/>
<path d="M146.855 314.298C147.745 312.444 148.668 310.611 149.599 308.779C150.529 306.946 151.488 305.128 152.43 303.303C153.4 301.492 154.352 299.67 155.333 297.867L156.81 295.161C157.313 294.266 157.809 293.364 158.323 292.473C157.881 293.4 157.418 294.32 156.969 295.244L155.579 297.996C154.649 299.828 153.693 301.647 152.748 303.472C151.778 305.283 150.826 307.104 149.841 308.908C148.864 310.712 147.875 312.512 146.855 314.298Z" fill="#231F20"/>
<path d="M158.421 295.111C157.61 296.857 156.763 298.585 155.912 300.31C155.061 302.035 154.181 303.749 153.316 305.466C152.426 307.173 151.55 308.887 150.645 310.586L149.284 313.134C148.817 313.978 148.364 314.826 147.886 315.663C148.288 314.79 148.712 313.924 149.124 313.055L150.395 310.464C151.246 308.739 152.125 307.026 152.99 305.308C153.881 303.601 154.757 301.887 155.662 300.188C156.567 298.488 157.476 296.789 158.421 295.111Z" fill="white"/>
<path d="M154.511 302.735L160.68 307.615L159.963 312.871L152.191 307.27" stroke="white" stroke-width="0.292149" stroke-miterlimit="10"/>
<path d="M143.901 311.844L147.17 312.35L146.116 314.305L143.901 311.844Z" fill="#2CC1D1"/>
<path d="M57.7579 253.768C58.2865 253.962 58.8802 253.689 59.072 253.165L60.3644 249.687C60.5599 249.162 60.2847 248.573 59.7562 248.382C59.2277 248.188 58.634 248.461 58.4421 248.986L57.1498 252.464C56.9543 252.985 57.2294 253.574 57.7579 253.768Z" fill="#ECAE74"/>
<path d="M71.0977 268.112C70.3555 268.281 69.6171 268.461 68.8894 268.68C68.1582 268.885 67.4342 269.115 66.721 269.363C65.2911 269.862 63.8829 270.423 62.529 271.094C61.157 271.73 59.8683 272.528 58.6266 273.38L57.7143 274.052C57.4102 274.274 57.1387 274.54 56.8491 274.781C56.2446 275.245 55.7631 275.827 55.2056 276.344C56.1541 275.162 57.2365 274.073 58.4601 273.157C58.7497 272.909 59.0791 272.711 59.394 272.492C59.709 272.277 60.0239 272.061 60.3606 271.874C60.69 271.684 61.0194 271.483 61.3525 271.296L62.3697 270.771C63.7526 270.121 65.1716 269.546 66.6341 269.1C68.093 268.662 69.5845 268.299 71.0977 268.112Z" fill="white"/>
<path d="M157.551 300.881L157.986 300.134C158.228 299.72 158.083 299.185 157.663 298.944L155.271 297.572C154.854 297.331 154.315 297.475 154.072 297.892L153.638 298.639C153.395 299.052 153.54 299.588 153.96 299.828L156.353 301.201C156.773 301.438 157.312 301.294 157.551 300.881Z" fill="white"/>
<path d="M157.552 300.881L157.946 300.191C158.087 299.969 158.127 299.688 158.037 299.444C157.954 299.192 157.751 299.027 157.508 298.919L156.799 298.553L155.383 297.816L155.21 297.723C155.155 297.694 155.108 297.676 155.057 297.658C154.952 297.629 154.844 297.626 154.739 297.64C154.525 297.669 154.333 297.802 154.232 297.985L153.827 298.668C153.693 298.866 153.653 299.078 153.714 299.293C153.747 299.397 153.794 299.498 153.87 299.581C153.942 299.667 154.037 299.724 154.156 299.796L154.829 300.22L156.18 301.068C156.296 301.136 156.404 301.215 156.527 301.259C156.65 301.302 156.784 301.32 156.915 301.302C157.175 301.269 157.418 301.108 157.552 300.881ZM157.552 300.881C157.421 301.111 157.179 301.277 156.911 301.312C156.777 301.33 156.639 301.323 156.513 301.287C156.382 301.248 156.27 301.172 156.151 301.111L154.735 300.375L154.026 300.008C153.914 299.951 153.772 299.882 153.66 299.771C153.548 299.663 153.465 299.53 153.414 299.383C153.305 299.095 153.363 298.733 153.523 298.492L153.917 297.802C154.08 297.525 154.373 297.331 154.692 297.295C154.851 297.274 155.01 297.295 155.162 297.346C155.235 297.371 155.311 297.41 155.372 297.446L155.543 297.55L156.893 298.398L157.566 298.822C157.675 298.891 157.801 298.966 157.892 299.07C157.986 299.175 158.048 299.3 158.087 299.43C158.171 299.692 158.109 299.979 157.961 300.199L157.552 300.881Z" fill="black"/>
<path d="M155.604 304.23L156.039 303.483C156.281 303.069 156.137 302.534 155.717 302.293L153.324 300.921C152.907 300.68 152.368 300.824 152.126 301.24L151.691 301.988C151.449 302.401 151.593 302.936 152.013 303.177L154.406 304.55C154.826 304.787 155.362 304.643 155.604 304.23Z" fill="white"/>
<path d="M155.604 304.23L155.999 303.54C156.144 303.317 156.18 303.037 156.089 302.793C156.006 302.541 155.803 302.376 155.561 302.268L154.851 301.902L153.436 301.165L153.262 301.072C153.208 301.043 153.161 301.025 153.11 301.007C153.005 300.978 152.896 300.975 152.792 300.989C152.578 301.018 152.386 301.151 152.285 301.334L151.879 302.017C151.745 302.214 151.705 302.426 151.767 302.642C151.8 302.746 151.847 302.847 151.923 302.929C151.995 303.016 152.089 303.073 152.209 303.145L152.882 303.569L154.232 304.417C154.348 304.485 154.457 304.564 154.58 304.607C154.703 304.65 154.837 304.668 154.967 304.65C155.228 304.618 155.47 304.456 155.604 304.23ZM155.604 304.23C155.474 304.46 155.231 304.625 154.964 304.661C154.83 304.679 154.692 304.672 154.565 304.636C154.435 304.597 154.323 304.521 154.203 304.46L152.788 303.723L152.078 303.357C151.966 303.299 151.825 303.231 151.713 303.12C151.601 303.012 151.517 302.879 151.467 302.732C151.358 302.444 151.416 302.081 151.575 301.841L151.97 301.151C152.133 300.874 152.426 300.68 152.744 300.644C152.904 300.623 153.063 300.644 153.215 300.694C153.287 300.72 153.363 300.759 153.425 300.795L153.595 300.899L154.945 301.747L155.619 302.171C155.727 302.24 155.854 302.315 155.945 302.419C156.039 302.523 156.1 302.649 156.14 302.778C156.223 303.041 156.162 303.328 156.013 303.547L155.604 304.23Z" fill="black"/>
<path d="M153.928 307.913L154.363 307.165C154.605 306.752 154.46 306.217 154.04 305.976L151.648 304.603C151.231 304.363 150.692 304.506 150.449 304.923L150.015 305.671C149.772 306.084 149.917 306.619 150.337 306.86L152.73 308.232C153.146 308.47 153.686 308.326 153.928 307.913Z" fill="white"/>
<path d="M153.928 307.913L154.323 307.223C154.468 307 154.504 306.72 154.413 306.476C154.33 306.224 154.127 306.059 153.885 305.951L153.175 305.585L151.76 304.848L151.586 304.755C151.532 304.726 151.485 304.708 151.434 304.69C151.329 304.661 151.221 304.658 151.116 304.672C150.902 304.701 150.71 304.834 150.609 305.017L150.203 305.7C150.069 305.897 150.03 306.109 150.091 306.325C150.124 306.429 150.171 306.53 150.247 306.612C150.319 306.698 150.413 306.756 150.533 306.828L151.206 307.252L152.556 308.1C152.672 308.168 152.781 308.247 152.904 308.29C153.027 308.333 153.161 308.351 153.291 308.333C153.548 308.297 153.791 308.139 153.928 307.913ZM153.928 307.913C153.798 308.143 153.555 308.308 153.288 308.344C153.154 308.362 153.016 308.355 152.889 308.319C152.759 308.279 152.647 308.204 152.527 308.143L151.112 307.406L150.402 307.04C150.29 306.982 150.149 306.914 150.037 306.803C149.925 306.695 149.841 306.562 149.791 306.415C149.682 306.127 149.74 305.764 149.899 305.524L150.294 304.834C150.457 304.557 150.75 304.363 151.068 304.327C151.228 304.305 151.387 304.327 151.539 304.377C151.612 304.403 151.688 304.442 151.749 304.478L151.919 304.582L153.269 305.43L153.943 305.854C154.051 305.922 154.178 305.998 154.269 306.102C154.363 306.206 154.424 306.332 154.464 306.461C154.547 306.724 154.486 307.011 154.337 307.23L153.928 307.913Z" fill="black"/>
<path d="M151.796 311.585L152.23 310.838C152.473 310.425 152.328 309.889 151.908 309.648L149.515 308.276C149.099 308.035 148.559 308.179 148.317 308.596L147.882 309.343C147.64 309.756 147.785 310.292 148.205 310.532L150.597 311.905C151.017 312.142 151.557 311.998 151.796 311.585Z" fill="white"/>
<path d="M151.796 311.585L152.191 310.895C152.335 310.673 152.372 310.392 152.281 310.148C152.198 309.896 151.995 309.731 151.753 309.623L151.043 309.257L149.628 308.52L149.454 308.427C149.4 308.398 149.352 308.38 149.302 308.362C149.197 308.333 149.088 308.33 148.983 308.344C148.77 308.373 148.578 308.506 148.476 308.689L148.071 309.372C147.937 309.569 147.897 309.781 147.959 309.997C147.991 310.101 148.038 310.202 148.114 310.284C148.187 310.371 148.281 310.428 148.4 310.5L149.074 310.924L150.424 311.772C150.54 311.84 150.648 311.919 150.772 311.962C150.895 312.006 151.029 312.024 151.159 312.006C151.42 311.97 151.662 311.812 151.796 311.585ZM151.796 311.585C151.666 311.815 151.423 311.98 151.155 312.016C151.021 312.034 150.884 312.027 150.757 311.991C150.627 311.952 150.515 311.876 150.395 311.815L148.98 311.079L148.27 310.712C148.158 310.655 148.017 310.586 147.904 310.475C147.792 310.367 147.709 310.234 147.658 310.087C147.55 309.799 147.608 309.437 147.767 309.196L148.161 308.506C148.324 308.229 148.618 308.035 148.936 307.999C149.095 307.978 149.255 307.999 149.407 308.05C149.479 308.075 149.555 308.114 149.617 308.15L149.787 308.254L151.137 309.102L151.81 309.526C151.919 309.595 152.046 309.67 152.136 309.774C152.23 309.878 152.292 310.004 152.332 310.134C152.415 310.396 152.353 310.683 152.205 310.902L151.796 311.585Z" fill="black"/>
<path d="M162.367 295.244C162.823 295.103 163.279 295.071 163.735 295.064C164.191 295.068 164.647 295.1 165.103 295.244C164.647 295.387 164.191 295.42 163.735 295.423C163.279 295.416 162.823 295.384 162.367 295.244Z" fill="black"/>
<path d="M163.572 285.431C163.572 286.854 163.464 288.269 163.33 289.678C163.185 291.086 163.011 292.495 162.725 293.889C162.725 292.466 162.834 291.051 162.968 289.642C163.116 288.234 163.29 286.829 163.572 285.431Z" fill="#231F20"/>
<path d="M60.245 249.823C62.5942 249.823 64.4985 247.933 64.4985 245.601C64.4985 243.27 62.5942 241.38 60.245 241.38C57.8958 241.38 55.9914 243.27 55.9914 245.601C55.9914 247.933 57.8958 249.823 60.245 249.823Z" fill="#FCC38A"/>
<path d="M62.7452 246.985C63.1044 246.963 63.3553 246.275 63.3057 245.447C63.256 244.619 62.9245 243.965 62.5653 243.986C62.2061 244.008 61.9551 244.697 62.0048 245.525C62.0545 246.353 62.386 247.006 62.7452 246.985Z" fill="white"/>
<path d="M62.0052 245.526C62.0269 245.817 62.0812 246.108 62.1934 246.377C62.2477 246.51 62.3238 246.64 62.4143 246.744C62.5048 246.848 62.6278 246.934 62.7401 246.92C62.8523 246.902 62.9392 246.801 63.0007 246.683C63.0623 246.564 63.0985 246.431 63.1238 246.295C63.1781 246.022 63.1853 245.738 63.1709 245.458C63.1528 245.177 63.1093 244.897 63.0261 244.631C62.9826 244.502 62.9319 244.369 62.8559 244.261C62.7835 244.15 62.6821 244.06 62.5699 244.056C62.4541 244.056 62.3419 244.153 62.2658 244.268C62.1862 244.383 62.1283 244.52 62.0921 244.66C62.0124 244.94 61.9907 245.235 62.0052 245.526ZM62.0052 245.526C61.9871 245.235 61.998 244.94 62.0559 244.649C62.0848 244.505 62.1247 244.358 62.1934 244.225C62.2622 244.096 62.3708 243.949 62.5627 243.923C62.7545 243.909 62.903 244.031 63.0043 244.15C63.1093 244.272 63.1853 244.408 63.2433 244.552C63.3627 244.836 63.4206 245.138 63.4424 245.443C63.4568 245.745 63.4351 246.054 63.3519 246.349C63.3084 246.496 63.2505 246.643 63.16 246.776C63.0731 246.906 62.9392 247.046 62.7473 247.053C62.5554 247.049 62.4287 246.916 62.3455 246.794C62.2586 246.669 62.2043 246.528 62.1572 246.388C62.0704 246.108 62.0233 245.817 62.0052 245.526Z" fill="black"/>
<path d="M58.0403 244.308C57.8086 244.257 57.5407 244.225 57.3742 244.34C57.2258 244.462 57.2439 244.714 57.2982 244.933C57.3453 245.159 57.4321 245.382 57.5154 245.605C57.5914 245.831 57.7 246.047 57.7761 246.28C57.6349 246.083 57.4937 245.882 57.3887 245.659C57.2729 245.443 57.1787 245.213 57.1244 244.969C57.0919 244.847 57.0846 244.717 57.0919 244.584C57.11 244.455 57.1643 244.301 57.3018 244.225C57.5697 244.096 57.8304 244.196 58.0403 244.308Z" fill="#231F20"/>
<path d="M60.205 242.641L63.6767 243.108L68.0859 233.769L63.2965 236.288L60.5779 231.674L58.4312 238.203L56.0709 235.612L56.8203 239.41L51.1513 235.756L56.2483 247.394L57.5986 247.251C57.5986 247.251 55.8899 243.065 58.319 243.88L58.4964 245.795H58.8294L59.6113 244.189H60.7806L60.205 242.641Z" fill="black"/>
<path d="M66.2845 279.475C72.404 276.249 76.8205 272.616 76.149 271.361C75.4775 270.106 69.9722 271.705 63.8527 274.931C57.7332 278.158 53.3168 281.79 53.9883 283.045C54.6598 284.3 60.165 282.702 66.2845 279.475Z" fill="#231F20"/>
<path d="M140.954 319.116C140.483 318.089 140.114 317.029 139.774 315.962C139.444 314.891 139.14 313.813 138.941 312.699C139.412 313.727 139.781 314.787 140.121 315.854C140.451 316.928 140.755 318.006 140.954 319.116Z" fill="#279CAF"/>
<path d="M155.188 324.445C156.227 324.793 157.248 325.178 158.268 325.57L158.163 325.821C157.389 325.526 156.621 325.221 155.854 324.908C155.086 324.599 154.323 324.276 153.562 323.956C152.802 323.633 152.042 323.299 151.289 322.957C150.532 322.623 149.783 322.271 149.037 321.905C149.823 322.17 150.601 322.451 151.376 322.745C152.151 323.036 152.925 323.331 153.693 323.64C154.46 323.949 155.228 324.262 155.988 324.581C156.752 324.901 157.512 325.225 158.268 325.566L158.163 325.817C157.164 325.379 156.169 324.93 155.188 324.445Z" fill="#231F20"/>
<path d="M105.51 262.184V263.032C105.51 263.704 104.953 264.257 104.276 264.257H96.0292C96.0075 264.613 95.9423 264.965 95.8265 265.299C95.4898 266.323 94.7441 267.21 93.6834 267.71C92.6807 268.181 91.5838 268.213 90.6136 267.886L80.3833 277.803L79.0367 279.107L78.9896 279.154L70.9242 286.969L70.8735 286.908C70.5658 287.174 70.1784 287.332 69.7513 287.35L68.8354 287.382C67.9992 287.414 67.2028 286.879 66.8371 286.049L63.5248 278.475C63.0614 277.408 63.4451 276.193 64.3972 275.719L64.857 275.493C65.8308 275.011 67.0362 275.485 67.5539 276.552L70.2364 282.079L76.1624 276.473L76.2384 276.398L78.2222 274.526L88.0144 265.263C87.3954 263.348 88.2895 261.221 90.172 260.337C90.3602 260.247 90.5557 260.175 90.7476 260.118L91.8734 257.958C92.1847 257.362 92.9341 257.125 93.535 257.434L94.2952 257.822C94.8998 258.131 95.1387 258.874 94.8274 259.471L94.2192 260.642L94.0527 260.958H104.276C104.913 260.958 105.445 261.447 105.503 262.065C105.507 262.105 105.51 262.144 105.51 262.184Z" fill="#FCC38A"/>
<path d="M94.6353 260.958H94.0524L94.2189 260.642C94.3637 260.736 94.5049 260.843 94.6353 260.958Z" fill="#FCC38A"/>
<path d="M257.831 209.16C258.113 209.143 258.309 208.603 258.27 207.953C258.231 207.303 257.971 206.79 257.69 206.807C257.409 206.824 257.212 207.364 257.251 208.014C257.29 208.664 257.55 209.177 257.831 209.16Z" fill="white"/>
<path d="M257.251 208.014C257.269 208.244 257.313 208.47 257.403 208.679C257.447 208.783 257.508 208.88 257.581 208.963C257.653 209.045 257.747 209.103 257.83 209.092C257.993 209.056 258.073 208.808 258.109 208.61C258.145 208.398 258.152 208.179 258.142 207.964C258.131 207.744 258.095 207.529 258.033 207.324C257.975 207.13 257.867 206.896 257.7 206.879C257.617 206.875 257.53 206.947 257.468 207.033C257.407 207.123 257.36 207.227 257.327 207.335C257.258 207.554 257.24 207.788 257.251 208.014ZM257.251 208.014C257.237 207.784 257.244 207.554 257.287 207.328C257.309 207.213 257.338 207.098 257.392 206.99C257.447 206.886 257.533 206.767 257.689 206.742C257.848 206.728 257.971 206.828 258.055 206.922C258.138 207.019 258.203 207.126 258.25 207.241C258.348 207.468 258.391 207.705 258.409 207.946C258.42 208.186 258.402 208.427 258.333 208.664C258.297 208.783 258.25 208.898 258.178 209.006C258.109 209.11 257.997 209.221 257.838 209.228C257.678 209.225 257.581 209.113 257.515 209.016C257.447 208.916 257.407 208.804 257.371 208.693C257.298 208.47 257.266 208.244 257.251 208.014Z" fill="black"/>
<path opacity="0.23" d="M48.9395 263.729C48.9395 263.729 41.8587 285.118 45.9095 291.299L38.9518 296.71C38.9518 296.706 43.0135 274.512 48.9395 263.729Z" fill="url(#paint32_linear)"/>
<g opacity="0.17">
<path opacity="0.17" d="M39.3862 299.527C41.0261 298.089 42.6769 296.667 44.3385 295.254C45.9928 293.835 47.6617 292.434 49.3341 291.036L49.3088 291.266C48.7947 290.547 48.4327 289.779 48.1214 288.981C47.9513 288.589 47.839 288.176 47.6979 287.774C47.582 287.364 47.4807 286.951 47.3721 286.541C46.9883 284.885 46.8327 283.185 46.7965 281.493C46.7386 279.797 46.9087 278.108 47.1006 276.434C47.22 275.597 47.3757 274.767 47.5169 273.937L48.0816 271.472L47.6291 273.958L47.2997 276.459C47.1476 278.133 47.0318 279.811 47.1078 281.489C47.1585 283.164 47.325 284.838 47.716 286.466C47.8246 286.868 47.9259 287.274 48.0454 287.673C48.1829 288.068 48.2879 288.471 48.4508 288.855C48.7441 289.631 49.1061 290.404 49.573 291.061L49.6672 291.194L49.5513 291.291C47.8716 292.682 46.1883 294.065 44.4905 295.434C42.7999 296.81 41.0985 298.172 39.3862 299.527Z" fill="url(#paint33_linear)"/>
</g>
<path opacity="0.23" d="M53.8085 261.605C53.8085 261.605 53.4863 269.194 54.8945 273.746L57.8665 271.217C57.8702 271.217 54.0619 267.016 53.8085 261.605Z" fill="url(#paint34_linear)"/>
<g opacity="0.23">
<path opacity="0.23" d="M56.339 252.82C56.549 253.133 56.7553 253.434 56.9797 253.711C57.2078 253.98 57.4576 254.243 57.7436 254.358C58.0223 254.484 58.33 254.394 58.6015 254.178C58.873 253.97 59.1047 253.679 59.3473 253.391C59.235 253.751 59.0685 254.095 58.7898 254.387C58.6558 254.534 58.4784 254.656 58.2649 254.724C58.0513 254.789 57.8087 254.775 57.606 254.692C57.2042 254.516 56.9435 254.196 56.7481 253.869C56.5526 253.542 56.4114 253.19 56.339 252.82Z" fill="url(#paint35_linear)"/>
</g>
<path opacity="0.17" d="M61.5916 289.452C61.5916 289.452 46.2172 300.504 50.9052 306.673C55.5932 312.846 139.951 318.207 139.951 318.207L141.472 320.913C141.472 320.913 85.2559 322.954 72.2092 321.793C59.1625 320.633 49.1857 322.681 43.5239 313.073L41.4786 307.647C41.475 307.647 57.3054 291.227 61.5916 289.452Z" fill="url(#paint36_linear)"/>
<g opacity="0.23">
<path opacity="0.23" d="M141.472 318.207C141.725 318.811 141.96 319.422 142.206 320.029C142.445 320.636 142.673 321.25 142.909 321.861L142.746 321.782C143.716 321.445 144.693 321.139 145.667 320.823C146.641 320.503 147.618 320.194 148.599 319.899L148.513 320.155L147.513 318.71C147.177 318.232 146.858 317.736 146.532 317.251C146.21 316.763 145.877 316.281 145.562 315.785C145.244 315.293 144.921 314.804 144.614 314.305C144.979 314.765 145.327 315.236 145.685 315.703C146.044 316.166 146.384 316.644 146.735 317.115C147.079 317.589 147.437 318.053 147.774 318.534L148.795 319.964L148.925 320.147L148.704 320.219C147.731 320.539 146.753 320.848 145.772 321.143C144.791 321.441 143.814 321.754 142.825 322.03L142.699 322.066L142.663 321.951C142.46 321.33 142.25 320.712 142.051 320.086C141.855 319.458 141.653 318.836 141.472 318.207Z" fill="url(#paint37_linear)"/>
</g>
<path opacity="0.13" d="M80.3508 295.779L92.0472 287.601L91.7757 293.116L95.9206 288.521V291.97L96.7351 290.217L98.7479 300.59L93.3576 299.182L92.4164 295.887L88.8145 297.992L80.3508 295.779Z" fill="url(#paint38_linear)"/>
<path opacity="0.41" d="M60.2449 249.823L57.8412 250.592L58.3009 249.356C58.3009 249.356 59.872 249.928 60.2449 249.823Z" fill="url(#paint39_linear)"/>
<path opacity="0.2" d="M67.9916 275.719L62.8294 278.956L63.1516 276.071L66.4459 274.199L67.9916 275.719Z" fill="url(#paint40_linear)"/>
<path opacity="0.33" d="M259.532 212.796L263.873 215.409C263.873 215.409 263.431 213.792 263.355 212.329C263.355 212.329 261.292 213.274 259.532 212.796Z" fill="url(#paint41_linear)"/>
<path opacity="0.19" d="M287.425 230.14C287.425 230.14 283.142 240.208 278.505 243.392C278.505 243.392 281.195 247.801 281.256 249.209" fill="url(#paint42_linear)"/>
<path d="M39.3863 305.258C41.0117 303.17 42.7457 301.165 44.5376 299.218C46.3331 297.27 48.2083 295.395 50.1595 293.598C52.1325 291.827 54.1778 290.12 56.4041 288.658C57.5155 287.928 58.6739 287.256 59.8938 286.721C61.1138 286.2 62.4098 285.779 63.7456 285.733C62.4206 285.859 61.1572 286.308 59.9699 286.879C58.7753 287.443 57.6458 288.133 56.5598 288.884C54.3841 290.379 52.3497 292.075 50.4021 293.857C48.44 295.625 46.5721 297.497 44.7367 299.401C43.8172 300.35 42.9158 301.32 42.0253 302.297C41.1311 303.271 40.2551 304.262 39.3863 305.258Z" fill="white"/>
<path d="M55.7019 303.095L66.048 304.765L76.3905 306.472L97.061 309.947L117.717 313.5L128.041 315.308L138.355 317.151L128.009 315.48L117.67 313.773L96.9995 310.299L76.3435 306.745L66.0191 304.938L55.7019 303.095Z" fill="#279CAF"/>
<path d="M78.9317 292.473C81.6612 290.871 84.3979 289.275 87.1419 287.702L91.2579 285.334L95.3812 282.98L95.7215 282.786L95.6165 283.164L93.7775 289.71L93.4481 289.577L98.6646 280.264L99.1895 279.326L98.9542 280.372L97.5966 286.433V286.376L98.9867 291.539L100.352 296.71L98.8456 291.579L97.365 286.441L97.3577 286.412L97.365 286.383L98.6501 280.307L98.9397 280.415L93.7594 289.75L93.0028 291.112L93.43 289.617L95.3015 283.081L95.5368 283.264L91.3955 285.589L87.2469 287.899C84.4884 289.434 81.7119 290.957 78.9317 292.473Z" fill="#279CAF"/>
<path d="M72.2056 288.776L98.603 274.907C98.603 274.907 99.1135 275.04 98.194 276.693C97.2817 278.349 72.2056 288.776 72.2056 288.776Z" fill="url(#paint43_linear)"/>
<path d="M100.359 278.044L108.493 300.906C108.493 300.906 103.497 279.186 101.56 276.693L100.359 278.044Z" fill="url(#paint44_linear)"/>
<path d="M65.0741 293.584L60.2449 298.671L101.492 304.111L136.013 312.703L101.629 302.735L65.0741 293.584Z" fill="url(#paint45_linear)"/>
<path d="M140.954 313.03H142.619L144.614 320.435L140.954 313.03Z" fill="url(#paint46_linear)"/>
<path d="M54.6738 242.08C55.5101 242.058 56.3354 242.12 57.1608 242.199C57.9862 242.288 58.8079 242.396 59.6188 242.587C58.7826 242.608 57.9572 242.547 57.1318 242.468C56.3101 242.378 55.4883 242.27 54.6738 242.08Z" fill="url(#paint47_linear)"/>
<path d="M67.5501 234.341C67.2859 235.059 66.9854 235.763 66.6813 236.461C66.3809 237.161 66.0514 237.851 65.7256 238.541C65.389 239.227 65.0559 239.91 64.6939 240.585L64.1509 241.595C63.959 241.926 63.778 242.263 63.5753 242.587C63.7056 242.224 63.8541 241.875 63.9916 241.52L64.4441 240.467C64.7446 239.766 65.074 239.076 65.3998 238.386C65.7365 237.7 66.0695 237.017 66.4315 236.342C66.7899 235.666 67.1519 234.995 67.5501 234.341Z" fill="url(#paint48_linear)"/>
<path d="M60.4441 231.75C61.0161 232.429 61.4939 233.162 61.9464 233.909C62.3917 234.664 62.8116 235.429 63.1374 236.252C62.5655 235.573 62.0876 234.84 61.6351 234.093C61.1898 233.342 60.7699 232.573 60.4441 231.75Z" fill="url(#paint49_linear)"/>
<path d="M95.4646 261.379H104.16" stroke="url(#paint50_linear)" stroke-width="0.292149" stroke-miterlimit="10"/>
<path d="M92.8471 257.71C92.8471 257.71 94.1611 257.962 94.3458 258.468C94.5304 258.975 94.0453 260.085 94.0453 260.085" stroke="url(#paint51_linear)" stroke-width="0.292149" stroke-miterlimit="10"/>
<path d="M94.3857 263.729L95.4645 264.58" stroke="url(#paint52_linear)" stroke-width="0.292149" stroke-miterlimit="10"/>
<path d="M59.872 253.56C59.872 253.56 64.0495 257.455 64.5093 259.126" stroke="url(#paint53_linear)" stroke-width="0.292149" stroke-miterlimit="10"/>
<path d="M63.4667 244.394C63.597 244.588 63.6803 244.811 63.7418 245.037C63.8034 245.264 63.8251 245.504 63.8178 245.741C63.8106 245.979 63.7671 246.216 63.6766 246.439C63.597 246.661 63.4631 246.863 63.3146 247.039C63.4015 246.823 63.4993 246.618 63.5463 246.395C63.6006 246.18 63.6368 245.957 63.6404 245.734C63.6549 245.289 63.5861 244.84 63.4667 244.394Z" fill="url(#paint54_linear)"/>
<path d="M59.9408 250.039L58.757 253.057" stroke="url(#paint55_linear)" stroke-width="0.292149" stroke-miterlimit="10"/>
<path d="M57.8704 257.002C57.8704 257.002 64.3937 258.486 72.4121 267.659" stroke="url(#paint56_linear)" stroke-width="0.292149" stroke-miterlimit="10"/>
<path d="M60.1111 258.554C60.1111 258.554 68.401 263.847 69.4545 266.244L66.7032 267.12" fill="url(#paint57_linear)"/>
<path d="M70.8807 282.244L88.1592 266.157" stroke="url(#paint58_linear)" stroke-width="0.292149" stroke-miterlimit="10"/>
<path d="M66.2179 235.25C65.7871 235.781 65.3925 236.331 65.0088 236.888C64.6287 237.449 64.2739 238.02 63.9481 238.609C63.6151 239.195 63.3255 239.802 63.0612 240.42C62.7897 241.038 62.5834 241.681 62.3734 242.332C62.4458 241.656 62.5653 240.97 62.797 240.323C63.0142 239.669 63.2965 239.037 63.6332 238.437C64.3065 237.24 65.1572 236.126 66.2179 235.25Z" fill="url(#paint59_linear)"/>
<path d="M61.5302 235.404C61.7293 235.516 61.8922 235.67 62.0406 235.835C62.1891 236.001 62.3085 236.187 62.4135 236.385C62.6126 236.777 62.7393 237.233 62.6597 237.679C62.5511 237.477 62.4678 237.287 62.3737 237.1C62.2796 236.913 62.1927 236.73 62.0913 236.547C61.9031 236.177 61.704 235.817 61.5302 235.404Z" fill="url(#paint60_linear)"/>
<path d="M61.6314 237.323C61.845 237.488 61.9717 237.736 62.0694 237.984C62.1672 238.236 62.2178 238.498 62.2432 238.764C62.2685 239.03 62.2649 239.296 62.2396 239.558L62.1853 239.949C62.1563 240.079 62.131 240.208 62.0947 240.334L62.0984 239.551C62.0911 239.292 62.0875 239.033 62.0622 238.782C62.0441 238.527 61.997 238.275 61.9391 238.027C61.8703 237.783 61.787 237.538 61.6314 237.323Z" fill="url(#paint61_linear)"/>
<path d="M227.947 229.314C228.592 228.814 229.272 228.387 229.967 227.981C230.662 227.578 231.376 227.201 232.111 226.867L232.27 226.795L232.259 226.95C232.248 227.086 232.23 227.219 232.215 227.356C232.201 227.492 232.183 227.625 232.161 227.762C232.139 227.625 232.121 227.492 232.107 227.356C232.092 227.219 232.074 227.086 232.063 226.95L232.208 227.036C231.542 227.489 230.847 227.902 230.141 228.283C229.435 228.671 228.711 229.026 227.947 229.314Z" fill="url(#paint62_linear)"/>
<path d="M232.74 229.314C232.309 229.677 231.937 230.057 231.785 230.521C231.709 230.747 231.676 230.995 231.709 231.247C231.709 231.376 231.756 231.502 231.77 231.635C231.799 231.764 231.846 231.894 231.871 232.037C231.777 231.933 231.687 231.822 231.604 231.703C231.546 231.574 231.455 231.452 231.43 231.304C231.328 231.024 231.347 230.701 231.441 230.41C231.542 230.119 231.73 229.863 231.958 229.684C232.19 229.497 232.454 229.364 232.74 229.314Z" fill="url(#paint63_linear)"/>
<path d="M230.358 229.537L231.824 232.666L228.689 232.867L230.358 229.537Z" fill="white"/>
<path d="M212.523 242.863L208.588 244.71C208.334 244.829 208.03 244.721 207.911 244.469L206.05 240.564C205.93 240.312 206.039 240.01 206.292 239.892L210.227 238.045C210.481 237.926 210.785 238.034 210.904 238.286L212.765 242.191C212.885 242.443 212.776 242.745 212.523 242.863Z" fill="#F95F8F"/>
<path d="M219.009 239.82L215.074 241.667C214.821 241.785 214.517 241.678 214.398 241.426L212.537 237.52C212.417 237.269 212.526 236.967 212.779 236.848L216.714 235.002C216.968 234.883 217.272 234.991 217.391 235.242L219.252 239.148C219.371 239.4 219.263 239.701 219.009 239.82Z" fill="#56D0ED"/>
<path d="M225.638 236.708L221.703 238.555C221.449 238.674 221.145 238.566 221.026 238.315L219.165 234.409C219.046 234.157 219.154 233.856 219.408 233.737L223.343 231.89C223.596 231.772 223.9 231.879 224.02 232.131L225.88 236.037C226 236.288 225.891 236.59 225.638 236.708Z" fill="#4DCE62"/>
<path d="M227.998 237.352L207.824 246.816C207.57 246.934 207.266 246.827 207.147 246.575L203.856 239.662C203.737 239.41 203.845 239.109 204.099 238.99L224.273 229.526C224.527 229.407 224.831 229.515 224.95 229.766L228.241 236.68C228.36 236.931 228.252 237.233 227.998 237.352Z" stroke="#4DCE62" stroke-width="0.146075" stroke-miterlimit="10"/>
<path d="M73.5778 184.799C82.6424 184.677 91.707 184.626 100.772 184.537L127.965 184.386C137.03 184.321 146.095 184.332 155.159 184.31L182.353 184.26L209.547 184.307C218.611 184.332 227.676 184.317 236.741 184.382L263.935 184.533C272.999 184.623 282.064 184.677 291.128 184.799C282.064 184.921 272.999 184.975 263.935 185.065L236.741 185.216C227.676 185.28 218.611 185.266 209.547 185.291L182.353 185.338L155.159 185.288C146.095 185.262 137.03 185.277 127.965 185.212L100.772 185.061C91.7106 184.975 82.6424 184.921 73.5778 184.799Z" fill="#666666"/>
<path d="M114.937 200.993L116.66 208.97V204.112L117.641 206.99L119.433 200.993H114.937Z" fill="url(#paint64_linear)"/>
<path d="M120.103 252.655L123.983 257.71L124.852 255.662L131.73 261.346L127.857 252.82L120.103 252.655Z" fill="url(#paint65_linear)"/>
<defs>
<linearGradient id="paint0_linear" x1="173.297" y1="300.342" x2="188.323" y2="300.342" gradientUnits="userSpaceOnUse">
<stop stop-color="#231F20" stop-opacity="0.1"/>
<stop offset="1" stop-color="#231F20"/>
</linearGradient>
<linearGradient id="paint1_linear" x1="255.386" y1="209.236" x2="259.415" y2="209.236" gradientUnits="userSpaceOnUse">
<stop stop-color="white"/>
<stop offset="1" stop-color="white" stop-opacity="0"/>
</linearGradient>
<linearGradient id="paint2_linear" x1="256.321" y1="203.779" x2="264.259" y2="203.779" gradientUnits="userSpaceOnUse">
<stop stop-color="white"/>
<stop offset="1" stop-color="white" stop-opacity="0"/>
</linearGradient>
<linearGradient id="paint3_linear" x1="256.776" y1="203.071" x2="263.046" y2="203.071" gradientUnits="userSpaceOnUse">
<stop stop-color="white"/>
<stop offset="1" stop-color="white" stop-opacity="0"/>
</linearGradient>
<linearGradient id="paint4_linear" x1="257.098" y1="202.604" x2="262.409" y2="202.604" gradientUnits="userSpaceOnUse">
<stop stop-color="white"/>
<stop offset="1" stop-color="white" stop-opacity="0"/>
</linearGradient>
<linearGradient id="paint5_linear" x1="261.203" y1="206.793" x2="262.148" y2="206.793" gradientUnits="userSpaceOnUse">
<stop stop-color="white"/>
<stop offset="1" stop-color="white" stop-opacity="0"/>
</linearGradient>
<linearGradient id="paint6_linear" x1="262.754" y1="205.847" x2="264.566" y2="205.847" gradientUnits="userSpaceOnUse">
<stop stop-color="white"/>
<stop offset="1" stop-color="white" stop-opacity="0"/>
</linearGradient>
<linearGradient id="paint7_linear" x1="264.003" y1="200.113" x2="268.414" y2="200.113" gradientUnits="userSpaceOnUse">
<stop stop-color="white"/>
<stop offset="1" stop-color="white" stop-opacity="0"/>
</linearGradient>
<linearGradient id="paint8_linear" x1="264.886" y1="200.113" x2="267.531" y2="200.113" gradientUnits="userSpaceOnUse">
<stop stop-color="white"/>
<stop offset="1" stop-color="white" stop-opacity="0"/>
</linearGradient>
<linearGradient id="paint9_linear" x1="258.91" y1="220.452" x2="266.964" y2="220.452" gradientUnits="userSpaceOnUse">
<stop stop-color="white"/>
<stop offset="1" stop-color="white" stop-opacity="0"/>
</linearGradient>
<linearGradient id="paint10_linear" x1="267.142" y1="231.066" x2="283.918" y2="231.066" gradientUnits="userSpaceOnUse">
<stop stop-color="white"/>
<stop offset="1" stop-color="white" stop-opacity="0"/>
</linearGradient>
<linearGradient id="paint11_linear" x1="269.067" y1="223.123" x2="281.139" y2="223.123" gradientUnits="userSpaceOnUse">
<stop stop-color="white"/>
<stop offset="1" stop-color="white" stop-opacity="0"/>
</linearGradient>
<linearGradient id="paint12_linear" x1="260.74" y1="215.763" x2="261.896" y2="215.763" gradientUnits="userSpaceOnUse">
<stop stop-color="white"/>
<stop offset="1" stop-color="white" stop-opacity="0"/>
</linearGradient>
<linearGradient id="paint13_linear" x1="243.734" y1="241.106" x2="255.591" y2="241.106" gradientUnits="userSpaceOnUse">
<stop stop-color="white"/>
<stop offset="1" stop-color="white" stop-opacity="0"/>
</linearGradient>
<linearGradient id="paint14_linear" x1="260.11" y1="264.724" x2="272.524" y2="264.724" gradientUnits="userSpaceOnUse">
<stop stop-color="white"/>
<stop offset="1" stop-color="white" stop-opacity="0"/>
</linearGradient>
<linearGradient id="paint15_linear" x1="240.229" y1="233.033" x2="244.198" y2="233.033" gradientUnits="userSpaceOnUse">
<stop stop-color="white"/>
<stop offset="1" stop-color="white" stop-opacity="0"/>
</linearGradient>
<linearGradient id="paint16_linear" x1="241.761" y1="232.812" x2="245.277" y2="232.812" gradientUnits="userSpaceOnUse">
<stop stop-color="white"/>
<stop offset="1" stop-color="white" stop-opacity="0"/>
</linearGradient>
<linearGradient id="paint17_linear" x1="272.053" y1="231.018" x2="285.843" y2="231.018" gradientUnits="userSpaceOnUse">
<stop stop-color="white"/>
<stop offset="1" stop-color="white" stop-opacity="0"/>
</linearGradient>
<linearGradient id="paint18_linear" x1="256.247" y1="246.221" x2="256.821" y2="246.221" gradientUnits="userSpaceOnUse">
<stop stop-color="white"/>
<stop offset="1" stop-color="white" stop-opacity="0"/>
</linearGradient>
<linearGradient id="paint19_linear" x1="-nan" y1="-nan" x2="-nan" y2="-nan" gradientUnits="userSpaceOnUse">
<stop stop-color="white"/>
<stop offset="1" stop-color="white" stop-opacity="0"/>
</linearGradient>
<linearGradient id="paint20_linear" x1="257.521" y1="246.531" x2="258.479" y2="246.531" gradientUnits="userSpaceOnUse">
<stop stop-color="white"/>
<stop offset="1" stop-color="white" stop-opacity="0"/>
</linearGradient>
<linearGradient id="paint21_linear" x1="256.405" y1="253.528" x2="259.422" y2="253.528" gradientUnits="userSpaceOnUse">
<stop stop-color="white"/>
<stop offset="1" stop-color="white" stop-opacity="0"/>
</linearGradient>
<linearGradient id="paint22_linear" x1="253.15" y1="253.098" x2="256.069" y2="253.098" gradientUnits="userSpaceOnUse">
<stop stop-color="white"/>
<stop offset="1" stop-color="white" stop-opacity="0"/>
</linearGradient>
<linearGradient id="paint23_linear" x1="253.192" y1="254.22" x2="257.083" y2="254.22" gradientUnits="userSpaceOnUse">
<stop stop-color="white"/>
<stop offset="1" stop-color="white" stop-opacity="0"/>
</linearGradient>
<linearGradient id="paint24_linear" x1="253.58" y1="255.712" x2="258.412" y2="255.712" gradientUnits="userSpaceOnUse">
<stop stop-color="white"/>
<stop offset="1" stop-color="white" stop-opacity="0"/>
</linearGradient>
<linearGradient id="paint25_linear" x1="273.703" y1="290.589" x2="274.624" y2="290.589" gradientUnits="userSpaceOnUse">
<stop stop-color="#231F20"/>
<stop offset="1" stop-color="#231F20" stop-opacity="0"/>
</linearGradient>
<linearGradient id="paint26_linear" x1="272.134" y1="228.056" x2="282.31" y2="228.056" gradientUnits="userSpaceOnUse">
<stop stop-color="#231F20" stop-opacity="0.1"/>
<stop offset="1" stop-color="#231F20"/>
</linearGradient>
<linearGradient id="paint27_linear" x1="264.532" y1="244.959" x2="273.591" y2="244.959" gradientUnits="userSpaceOnUse">
<stop stop-color="#231F20" stop-opacity="0.1"/>
<stop offset="1" stop-color="#231F20"/>
</linearGradient>
<linearGradient id="paint28_linear" x1="274.058" y1="306.533" x2="282.535" y2="306.533" gradientUnits="userSpaceOnUse">
<stop stop-color="#231F20" stop-opacity="0.1"/>
<stop offset="1" stop-color="#231F20"/>
</linearGradient>
<linearGradient id="paint29_linear" x1="263.905" y1="306.399" x2="271.229" y2="306.399" gradientUnits="userSpaceOnUse">
<stop stop-color="#231F20" stop-opacity="0.1"/>
<stop offset="1" stop-color="#231F20"/>
</linearGradient>
<linearGradient id="paint30_linear" x1="260.606" y1="283.346" x2="283.75" y2="283.346" gradientUnits="userSpaceOnUse">
<stop stop-color="#231F20" stop-opacity="0.1"/>
<stop offset="1" stop-color="#231F20"/>
</linearGradient>
<linearGradient id="paint31_linear" x1="48.9395" y1="274.2" x2="67.9902" y2="274.2" gradientUnits="userSpaceOnUse">
<stop stop-color="#00A651"/>
<stop offset="0.0627" stop-color="#00834C"/>
<stop offset="0.1376" stop-color="#006046"/>
<stop offset="0.2203" stop-color="#004242"/>
<stop offset="0.311" stop-color="#002A3E"/>
<stop offset="0.413" stop-color="#00173B"/>
<stop offset="0.5328" stop-color="#000A39"/>
<stop offset="0.6874" stop-color="#000238"/>
<stop offset="1" stop-color="#000038"/>
</linearGradient>
<linearGradient id="paint32_linear" x1="38.9522" y1="280.219" x2="48.9396" y2="280.219" gradientUnits="userSpaceOnUse">
<stop stop-color="#00A651"/>
<stop offset="0.0627" stop-color="#00834C"/>
<stop offset="0.1376" stop-color="#006046"/>
<stop offset="0.2203" stop-color="#004242"/>
<stop offset="0.311" stop-color="#002A3E"/>
<stop offset="0.413" stop-color="#00173B"/>
<stop offset="0.5328" stop-color="#000A39"/>
<stop offset="0.6874" stop-color="#000238"/>
<stop offset="1" stop-color="#000038"/>
</linearGradient>
<linearGradient id="paint33_linear" x1="39.2698" y1="285.497" x2="49.6934" y2="285.497" gradientUnits="userSpaceOnUse">
<stop stop-color="#00A651"/>
<stop offset="0.0627" stop-color="#00834C"/>
<stop offset="0.1376" stop-color="#006046"/>
<stop offset="0.2203" stop-color="#004242"/>
<stop offset="0.311" stop-color="#002A3E"/>
<stop offset="0.413" stop-color="#00173B"/>
<stop offset="0.5328" stop-color="#000A39"/>
<stop offset="0.6874" stop-color="#000238"/>
<stop offset="1" stop-color="#000038"/>
</linearGradient>
<linearGradient id="paint34_linear" x1="53.7767" y1="267.675" x2="57.8686" y2="267.675" gradientUnits="userSpaceOnUse">
<stop stop-color="#00A651"/>
<stop offset="0.0627" stop-color="#00834C"/>
<stop offset="0.1376" stop-color="#006046"/>
<stop offset="0.2203" stop-color="#004242"/>
<stop offset="0.311" stop-color="#002A3E"/>
<stop offset="0.413" stop-color="#00173B"/>
<stop offset="0.5328" stop-color="#000A39"/>
<stop offset="0.6874" stop-color="#000238"/>
<stop offset="1" stop-color="#000038"/>
</linearGradient>
<linearGradient id="paint35_linear" x1="56.1711" y1="253.793" x2="59.5087" y2="253.793" gradientUnits="userSpaceOnUse">
<stop stop-color="#00A651"/>
<stop offset="0.0627" stop-color="#00834C"/>
<stop offset="0.1376" stop-color="#006046"/>
<stop offset="0.2203" stop-color="#004242"/>
<stop offset="0.311" stop-color="#002A3E"/>
<stop offset="0.413" stop-color="#00173B"/>
<stop offset="0.5328" stop-color="#000A39"/>
<stop offset="0.6874" stop-color="#000238"/>
<stop offset="1" stop-color="#000038"/>
</linearGradient>
<linearGradient id="paint36_linear" x1="41.4745" y1="305.802" x2="141.47" y2="305.802" gradientUnits="userSpaceOnUse">
<stop stop-color="#000038"/>
<stop offset="0.6466" stop-color="#006E49"/>
<stop offset="1" stop-color="#00A651"/>
</linearGradient>
<linearGradient id="paint37_linear" x1="141.299" y1="318.184" x2="148.94" y2="318.184" gradientUnits="userSpaceOnUse">
<stop stop-color="#000038"/>
<stop offset="0.6466" stop-color="#006E49"/>
<stop offset="1" stop-color="#00A651"/>
</linearGradient>
<linearGradient id="paint38_linear" x1="80.352" y1="294.095" x2="98.7463" y2="294.095" gradientUnits="userSpaceOnUse">
<stop stop-color="#000038"/>
<stop offset="0.6466" stop-color="#006E49"/>
<stop offset="1" stop-color="#00A651"/>
</linearGradient>
<linearGradient id="paint39_linear" x1="57.8443" y1="249.974" x2="60.2465" y2="249.974" gradientUnits="userSpaceOnUse">
<stop stop-color="#231F20" stop-opacity="0.1"/>
<stop offset="1" stop-color="#231F20"/>
</linearGradient>
<linearGradient id="paint40_linear" x1="62.8288" y1="276.578" x2="67.9901" y2="276.578" gradientUnits="userSpaceOnUse">
<stop stop-color="#231F20" stop-opacity="0.1"/>
<stop offset="1" stop-color="#231F20"/>
</linearGradient>
<linearGradient id="paint41_linear" x1="259.533" y1="213.87" x2="263.872" y2="213.87" gradientUnits="userSpaceOnUse">
<stop stop-color="#231F20" stop-opacity="0.1"/>
<stop offset="1" stop-color="#231F20"/>
</linearGradient>
<linearGradient id="paint42_linear" x1="278.504" y1="239.677" x2="287.423" y2="239.677" gradientUnits="userSpaceOnUse">
<stop stop-color="#231F20" stop-opacity="0.1"/>
<stop offset="1" stop-color="#231F20"/>
</linearGradient>
<linearGradient id="paint43_linear" x1="72.2062" y1="281.842" x2="98.7462" y2="281.842" gradientUnits="userSpaceOnUse">
<stop stop-color="white" stop-opacity="0"/>
<stop offset="1" stop-color="white"/>
</linearGradient>
<linearGradient id="paint44_linear" x1="100.358" y1="288.801" x2="108.492" y2="288.801" gradientUnits="userSpaceOnUse">
<stop stop-color="white" stop-opacity="0"/>
<stop offset="1" stop-color="white"/>
</linearGradient>
<linearGradient id="paint45_linear" x1="60.2465" y1="303.143" x2="136.012" y2="303.143" gradientUnits="userSpaceOnUse">
<stop stop-color="white" stop-opacity="0"/>
<stop offset="1" stop-color="white"/>
</linearGradient>
<linearGradient id="paint46_linear" x1="140.955" y1="316.732" x2="144.613" y2="316.732" gradientUnits="userSpaceOnUse">
<stop stop-color="white" stop-opacity="0"/>
<stop offset="1" stop-color="white"/>
</linearGradient>
<linearGradient id="paint47_linear" x1="54.6612" y1="242.332" x2="59.6354" y2="242.332" gradientUnits="userSpaceOnUse">
<stop stop-color="white" stop-opacity="0"/>
<stop offset="1" stop-color="white"/>
</linearGradient>
<linearGradient id="paint48_linear" x1="63.4131" y1="238.463" x2="67.7148" y2="238.463" gradientUnits="userSpaceOnUse">
<stop stop-color="white" stop-opacity="0"/>
<stop offset="1" stop-color="white"/>
</linearGradient>
<linearGradient id="paint49_linear" x1="60.4211" y1="234.083" x2="63.1573" y2="233.919" gradientUnits="userSpaceOnUse">
<stop stop-color="white" stop-opacity="0"/>
<stop offset="1" stop-color="white"/>
</linearGradient>
<linearGradient id="paint50_linear" x1="-nan" y1="-nan" x2="-nan" y2="-nan" gradientUnits="userSpaceOnUse">
<stop stop-color="white" stop-opacity="0"/>
<stop offset="1" stop-color="white"/>
</linearGradient>
<linearGradient id="paint51_linear" x1="92.8117" y1="258.846" x2="94.5666" y2="258.846" gradientUnits="userSpaceOnUse">
<stop stop-color="white" stop-opacity="0"/>
<stop offset="1" stop-color="white"/>
</linearGradient>
<linearGradient id="paint52_linear" x1="94.2731" y1="264.155" x2="95.5771" y2="264.155" gradientUnits="userSpaceOnUse">
<stop stop-color="white" stop-opacity="0"/>
<stop offset="1" stop-color="white"/>
</linearGradient>
<linearGradient id="paint53_linear" x1="59.7492" y1="256.302" x2="64.6853" y2="256.302" gradientUnits="userSpaceOnUse">
<stop stop-color="white" stop-opacity="0"/>
<stop offset="1" stop-color="white"/>
</linearGradient>
<linearGradient id="paint54_linear" x1="63.2377" y1="245.715" x2="63.8215" y2="245.715" gradientUnits="userSpaceOnUse">
<stop stop-color="white" stop-opacity="0"/>
<stop offset="1" stop-color="white"/>
</linearGradient>
<linearGradient id="paint55_linear" x1="58.5879" y1="251.547" x2="60.1097" y2="251.547" gradientUnits="userSpaceOnUse">
<stop stop-color="white" stop-opacity="0"/>
<stop offset="1" stop-color="white"/>
</linearGradient>
<linearGradient id="paint56_linear" x1="57.8284" y1="262.301" x2="72.5469" y2="262.301" gradientUnits="userSpaceOnUse">
<stop stop-color="white" stop-opacity="0"/>
<stop offset="1" stop-color="white"/>
</linearGradient>
<linearGradient id="paint57_linear" x1="60.1111" y1="262.835" x2="69.4543" y2="262.835" gradientUnits="userSpaceOnUse">
<stop stop-color="white" stop-opacity="0"/>
<stop offset="1" stop-color="white"/>
</linearGradient>
<linearGradient id="paint58_linear" x1="70.7574" y1="274.2" x2="88.2816" y2="274.2" gradientUnits="userSpaceOnUse">
<stop stop-color="white" stop-opacity="0"/>
<stop offset="1" stop-color="white"/>
</linearGradient>
<linearGradient id="paint59_linear" x1="62.1922" y1="238.791" x2="66.3437" y2="238.791" gradientUnits="userSpaceOnUse">
<stop stop-color="white" stop-opacity="0"/>
<stop offset="1" stop-color="white"/>
</linearGradient>
<linearGradient id="paint60_linear" x1="61.396" y1="236.541" x2="62.8359" y2="236.541" gradientUnits="userSpaceOnUse">
<stop stop-color="white" stop-opacity="0"/>
<stop offset="1" stop-color="white"/>
</linearGradient>
<linearGradient id="paint61_linear" x1="61.5722" y1="238.829" x2="62.2654" y2="238.829" gradientUnits="userSpaceOnUse">
<stop stop-color="white" stop-opacity="0"/>
<stop offset="1" stop-color="white"/>
</linearGradient>
<linearGradient id="paint62_linear" x1="227.86" y1="228.057" x2="232.343" y2="228.057" gradientUnits="userSpaceOnUse">
<stop stop-color="white" stop-opacity="0"/>
<stop offset="1" stop-color="white"/>
</linearGradient>
<linearGradient id="paint63_linear" x1="231.349" y1="230.677" x2="232.81" y2="230.677" gradientUnits="userSpaceOnUse">
<stop stop-color="white" stop-opacity="0"/>
<stop offset="1" stop-color="white"/>
</linearGradient>
<linearGradient id="paint64_linear" x1="114.936" y1="204.981" x2="119.432" y2="204.981" gradientUnits="userSpaceOnUse">
<stop stop-color="white"/>
<stop offset="1" stop-color="white" stop-opacity="0"/>
</linearGradient>
<linearGradient id="paint65_linear" x1="120.101" y1="257.001" x2="131.731" y2="257.001" gradientUnits="userSpaceOnUse">
<stop stop-color="white"/>
<stop offset="1" stop-color="white" stop-opacity="0"/>
</linearGradient>
</defs>
</svg>
