<svg width="720" height="469" viewBox="0 0 720 469" fill="none" xmlns="http://www.w3.org/2000/svg">
<g clip-path="url(#clip0)">
<g clip-path="url(#clip1)">
<path d="M223.546 400.532H445.066L579.573 449.585L89.1265 446.812L223.546 400.532Z" fill="#F4F4F4"/>
<path d="M314.547 172.079C315.067 163.759 320.007 156.652 327.287 153.879C333.7 151.365 338.813 151.972 344.273 159.079C352.767 173.465 379.287 258.052 378.767 258.485C378.767 258.485 329.02 255.799 307.96 272.092L314.547 172.079Z" fill="#F95F8F"/>
<path d="M327.98 148.678C333.963 148.678 338.813 143.828 338.813 137.845C338.813 131.862 333.963 127.012 327.98 127.012C321.997 127.012 317.146 131.862 317.146 137.845C317.146 143.828 321.997 148.678 327.98 148.678Z" fill="#EAB575"/>
<path d="M332.024 160.931C335.785 160.209 338.504 157.909 338.098 155.794C337.691 153.678 334.314 152.549 330.553 153.271C326.792 153.993 324.073 156.293 324.479 158.409C324.885 160.524 328.263 161.654 332.024 160.931Z" fill="#EAB575"/>
<path d="M344.207 270.544C363.763 266.789 379.147 261.306 378.569 258.297C377.991 255.289 361.67 255.894 342.115 259.65C322.56 263.405 307.175 268.888 307.753 271.897C308.331 274.905 324.652 274.3 344.207 270.544Z" fill="black"/>
<path d="M359.873 262.472L348.867 333.192C347.133 343.072 342.713 352.172 335.953 359.625L296.867 403.132L284.993 400.792L319.573 338.132L323.473 264.119C323.387 264.205 338.987 257.359 359.873 262.472Z" fill="#2B9EAA"/>
<path d="M338.9 411.192L300.507 392.125L289.067 402.352L287.247 396.198L280.92 412.405L334.74 418.558C334.653 418.645 336.907 413.185 338.9 411.192Z" fill="#F95F8F"/>
<path d="M280.746 412.492L273.986 419.772L349.993 424.365C351.466 424.452 352.766 423.499 353.2 422.112L353.633 420.465C353.633 420.465 356.32 417.518 346.96 411.452C337.686 405.385 334.566 418.645 334.566 418.645L280.746 412.492Z" fill="white" stroke="#231F20" stroke-miterlimit="10"/>
<path d="M334.826 420.812C330.406 420.638 326.073 420.292 321.653 419.945C317.233 419.685 312.899 419.165 308.479 418.818C304.059 418.385 299.726 417.952 295.306 417.518L288.719 416.738C286.466 416.478 284.386 416.218 282.133 415.872C284.386 415.958 286.553 416.132 288.806 416.218L295.479 416.652C299.899 416.998 304.233 417.432 308.653 417.778C313.073 418.212 317.406 418.645 321.826 419.078C326.073 419.685 330.493 420.118 334.826 420.812Z" fill="#231F20"/>
<path d="M334.74 411.711C331.62 410.411 328.5 409.025 325.466 407.551C322.346 406.165 319.313 404.691 316.28 403.218C313.247 401.745 310.213 400.271 307.18 398.711L302.673 396.371C301.2 395.505 299.64 394.811 298.167 393.945C299.727 394.551 301.286 395.331 302.846 395.938L307.44 398.018C310.56 399.405 313.593 400.878 316.626 402.351C319.66 403.825 322.693 405.298 325.726 406.858C328.76 408.505 331.793 410.065 334.74 411.711Z" fill="white"/>
<path d="M324.859 410.672L325.466 411.019C326.419 411.539 327.546 411.192 328.153 410.239L330.059 406.772C330.579 405.819 330.233 404.692 329.279 404.085L328.673 403.739C327.719 403.219 326.593 403.565 325.986 404.519L324.079 407.985C323.559 408.852 323.906 410.065 324.859 410.672Z" fill="white"/>
<path d="M324.86 410.672C325.206 410.845 325.64 411.105 326.073 411.192C326.506 411.278 327.026 411.192 327.373 410.932C327.72 410.672 327.98 410.412 328.153 409.892L328.673 408.678L329.193 407.465L329.453 406.858L329.626 406.598C329.626 406.512 329.713 406.425 329.713 406.338C329.886 405.558 329.626 404.865 328.933 404.605L328.413 404.258C328.24 404.172 328.153 404.085 327.98 404.085C327.633 403.998 327.2 404.085 326.94 404.258C326.593 404.432 326.42 404.605 326.073 405.125L325.293 406.252C324.86 407.032 324.253 407.725 323.906 408.592C323.733 408.938 323.733 409.545 323.906 409.892C324.166 409.978 324.513 410.325 324.86 410.672ZM324.86 410.672C323.993 410.238 323.646 409.198 323.906 408.332C324.253 407.465 324.686 406.685 325.033 405.818L325.553 404.605C325.726 404.258 325.986 403.652 326.506 403.392C326.94 403.132 327.546 402.958 328.066 403.045C328.326 403.045 328.586 403.218 328.846 403.305L329.366 403.565C329.8 403.825 330.233 404.345 330.493 404.865C330.666 405.385 330.666 405.992 330.493 406.512C330.493 406.598 330.406 406.772 330.32 406.858L330.146 407.118L329.8 407.638L329.02 408.765L328.24 409.892C328.066 410.238 327.72 410.758 327.2 410.932C326.853 411.105 326.246 411.192 325.813 411.105C325.726 411.105 325.293 410.845 324.86 410.672Z" fill="black"/>
<path d="M318.88 407.292L319.486 407.638C320.44 408.158 321.566 407.812 322.173 406.858L324.08 403.392C324.6 402.438 324.253 401.312 323.3 400.705L322.693 400.358C321.74 399.838 320.613 400.185 320.006 401.138L318.1 404.605C317.666 405.645 317.926 406.772 318.88 407.292Z" fill="white"/>
<path d="M318.88 407.292C319.226 407.465 319.66 407.725 320.093 407.812C320.526 407.898 321.046 407.812 321.393 407.552C321.74 407.292 322 407.032 322.173 406.512L322.693 405.298L323.213 404.085L323.473 403.478L323.646 403.218C323.646 403.132 323.733 403.045 323.733 402.958C323.906 402.178 323.646 401.485 322.953 401.225L322.433 400.878C322.26 400.792 322.173 400.705 322 400.705C321.653 400.618 321.22 400.705 320.96 400.878C320.613 401.052 320.44 401.225 320.093 401.745L319.313 402.872C318.88 403.652 318.273 404.345 317.926 405.212C317.753 405.558 317.753 406.165 317.926 406.512C318.186 406.772 318.533 407.118 318.88 407.292ZM318.88 407.292C318.013 406.858 317.666 405.818 317.926 404.952C318.273 404.085 318.706 403.305 319.053 402.438L319.573 401.225C319.746 400.878 320.006 400.272 320.526 400.012C320.96 399.752 321.566 399.578 322.086 399.665C322.346 399.665 322.606 399.838 322.866 399.925L323.386 400.185C323.82 400.445 324.253 400.965 324.513 401.485C324.686 402.005 324.686 402.612 324.513 403.132C324.513 403.218 324.426 403.392 324.34 403.478L324.166 403.738L323.82 404.258L323.04 405.385L322.26 406.512C322.086 406.858 321.74 407.378 321.22 407.552C320.873 407.725 320.266 407.812 319.833 407.725C319.66 407.812 319.313 407.465 318.88 407.292Z" fill="black"/>
<path d="M312.294 404.519L312.9 404.865C313.854 405.385 314.98 405.039 315.587 404.085L317.494 400.619C318.014 399.665 317.667 398.539 316.714 397.932L316.107 397.585C315.154 397.065 314.027 397.412 313.42 398.365L311.514 401.832C310.994 402.785 311.427 403.999 312.294 404.519Z" fill="white"/>
<path d="M312.293 404.518C312.64 404.692 313.073 404.952 313.507 405.038C313.94 405.125 314.46 405.038 314.807 404.778C315.153 404.518 315.413 404.258 315.587 403.738L316.107 402.525L316.627 401.312L316.887 400.705L317.06 400.445C317.06 400.358 317.147 400.272 317.147 400.185C317.32 399.405 317.06 398.712 316.367 398.452L315.847 398.105C315.673 398.018 315.587 397.932 315.413 397.932C315.067 397.845 314.633 397.932 314.373 398.105C314.027 398.278 313.853 398.452 313.507 398.972L312.727 400.098C312.293 400.878 311.687 401.572 311.34 402.438C311.167 402.785 311.167 403.392 311.34 403.738C311.687 403.912 311.947 404.258 312.293 404.518ZM312.293 404.518C311.427 404.085 311.08 403.045 311.34 402.178C311.687 401.312 312.12 400.532 312.467 399.665L312.987 398.452C313.16 398.105 313.42 397.498 313.94 397.238C314.373 396.978 314.98 396.805 315.5 396.892C315.76 396.892 316.02 397.065 316.28 397.152L316.8 397.412C317.233 397.672 317.667 398.192 317.927 398.712C318.1 399.232 318.1 399.838 317.927 400.358C317.927 400.445 317.84 400.618 317.753 400.705L317.58 400.965L317.233 401.485L316.453 402.612L315.673 403.738C315.5 404.085 315.153 404.605 314.633 404.778C314.287 404.952 313.68 405.038 313.247 404.952C313.16 405.038 312.813 404.778 312.293 404.518Z" fill="black"/>
<path d="M305.794 400.878L306.4 401.225C307.354 401.745 308.48 401.398 309.087 400.445L310.994 396.978C311.514 396.025 311.167 394.898 310.214 394.292L309.607 393.945C308.654 393.425 307.527 393.772 306.92 394.725L305.014 398.192C304.494 399.232 304.84 400.445 305.794 400.878Z" fill="white"/>
<path d="M305.793 400.878C306.14 401.052 306.573 401.312 307.007 401.398C307.44 401.485 307.96 401.398 308.307 401.138C308.653 400.878 308.913 400.618 309.087 400.098L309.607 398.885L310.127 397.672L310.387 397.065L310.56 396.805C310.56 396.718 310.647 396.632 310.647 396.545C310.82 395.765 310.56 395.072 309.867 394.812L309.347 394.465C309.173 394.378 309.087 394.292 308.913 394.292C308.567 394.205 308.133 394.292 307.873 394.465C307.527 394.638 307.353 394.812 307.007 395.332L306.227 396.458C305.793 397.238 305.187 397.932 304.84 398.798C304.667 399.145 304.667 399.752 304.84 400.098C305.1 400.272 305.36 400.705 305.793 400.878ZM305.793 400.878C304.927 400.445 304.58 399.405 304.84 398.538C305.187 397.672 305.62 396.892 305.967 396.025L306.487 394.812C306.66 394.465 306.92 393.858 307.44 393.598C307.873 393.338 308.48 393.165 309 393.252C309.26 393.252 309.52 393.425 309.78 393.512L310.3 393.772C310.733 394.032 311.167 394.552 311.427 395.072C311.6 395.592 311.6 396.198 311.427 396.718C311.427 396.805 311.34 396.978 311.253 397.065L311.08 397.325L310.733 397.845L309.953 398.972L309.173 400.098C309 400.445 308.653 400.965 308.133 401.138C307.787 401.312 307.18 401.398 306.747 401.312C306.573 401.398 306.227 401.138 305.793 400.878Z" fill="black"/>
<path d="M334.653 418.645C335 419.512 335.087 420.205 335.173 421.072C335.173 421.938 335.086 422.632 334.827 423.498C334.48 422.632 334.393 421.938 334.307 421.072C334.22 420.205 334.22 419.512 334.653 418.645Z" fill="black"/>
<path d="M351.987 420.378C349.473 420.552 347.047 420.465 344.447 420.292C341.933 420.118 339.507 419.858 336.993 419.252C339.507 419.078 341.933 419.165 344.533 419.338C347.047 419.598 349.56 419.858 351.987 420.378Z" fill="#231F20"/>
<path d="M365.42 256.405L371.573 326.865C372.006 332.585 371.053 338.305 368.54 343.505L339.246 403.392L327.2 404.259L344.1 332.932L328.846 262.819C328.846 262.905 336.993 259.179 365.42 256.405Z" fill="#56D0ED"/>
<path d="M402.34 414.572L347.133 389.872L329.713 400.965L325.553 399.578L320.613 419.598L396.88 425.318C396.793 425.318 399.74 417.692 402.34 414.572Z" fill="#F95F8F"/>
<path d="M320.527 419.685L311.427 430.345L418.72 432.598C420.713 432.598 422.62 431.212 423.053 429.305L423.573 426.965C423.573 426.965 427.213 422.632 413.693 414.572C400.26 406.512 396.62 425.405 396.62 425.405L320.527 419.685Z" fill="white" stroke="#231F20" stroke-miterlimit="10"/>
<path d="M397.14 428.352C390.987 428.265 384.66 428.005 378.507 427.832C372.353 427.572 366.027 427.312 359.873 426.965L341.24 425.925L331.967 425.405C328.847 425.145 325.813 424.972 322.693 424.798C325.813 424.885 328.847 424.972 331.967 425.058L341.24 425.405L359.873 426.272C366.027 426.618 372.267 426.878 378.507 427.312C384.747 427.398 390.987 427.832 397.14 428.352Z" fill="#231F20"/>
<path d="M396.534 415.611C392.114 413.878 387.694 411.971 383.274 410.151C378.854 408.331 374.52 406.338 370.1 404.518C365.767 402.611 361.347 400.618 357.014 398.711L350.427 395.765C348.347 394.725 346.094 393.771 344.014 392.731C346.267 393.598 348.434 394.465 350.687 395.418L357.36 398.191C361.78 400.011 366.114 402.005 370.534 403.825C374.867 405.731 379.287 407.725 383.62 409.631C387.867 411.538 392.2 413.531 396.534 415.611Z" fill="black"/>
<path d="M382.147 414.311L383.88 415.264C385.007 415.784 386.394 415.351 386.827 414.224L389.774 408.244C390.294 407.118 389.86 405.731 388.734 405.298L387 404.344C385.874 403.824 384.487 404.258 384.054 405.384L381.107 411.364C380.587 412.491 381.02 413.791 382.147 414.311Z" fill="white"/>
<path d="M382.147 414.312L383.88 415.178C384.4 415.438 385.18 415.438 385.7 415.178C386.307 414.918 386.74 414.312 386.914 413.792L387.78 412.058L389.34 408.418C389.514 408.158 389.6 407.898 389.6 407.552C389.687 407.292 389.6 407.032 389.6 406.685C389.514 406.165 389.167 405.732 388.647 405.472L386.914 404.518C386.48 404.258 385.874 404.258 385.354 404.432C385.094 404.518 384.92 404.692 384.747 404.865C384.574 405.038 384.4 405.298 384.314 405.645L383.36 407.378L381.454 410.758C381.107 411.278 380.934 411.972 381.107 412.578C381.107 413.532 381.54 414.052 382.147 414.312ZM382.147 414.312C381.627 414.052 381.107 413.445 380.934 412.838C380.76 412.232 380.934 411.452 381.28 410.932L382.84 407.292L383.707 405.558C383.794 405.298 383.967 404.952 384.227 404.605C384.487 404.345 384.747 404.085 385.18 403.998C385.96 403.738 386.74 403.738 387.434 404.085L389.167 404.952C389.947 405.298 390.38 405.992 390.554 406.772C390.64 407.118 390.64 407.552 390.554 407.985C390.467 408.332 390.294 408.765 390.12 409.025L388.214 412.405L387.26 414.138C387 414.658 386.48 415.352 385.874 415.525C385.267 415.785 384.487 415.698 383.967 415.438L382.147 414.312Z" fill="black"/>
<path d="M373.567 410.064L375.3 411.018C376.427 411.538 377.814 411.104 378.247 409.978L381.194 403.998C381.714 402.871 381.28 401.484 380.154 401.051L378.42 400.098C377.294 399.578 375.907 400.011 375.474 401.138L372.527 407.118C372.007 408.158 372.44 409.544 373.567 410.064Z" fill="white"/>
<path d="M373.567 410.065L375.3 410.932C375.82 411.192 376.6 411.192 377.12 410.932C377.727 410.672 378.16 410.065 378.334 409.545L379.2 407.812L380.76 404.172C380.934 403.912 381.02 403.652 381.02 403.305C381.107 403.045 381.02 402.785 381.02 402.438C380.934 401.918 380.587 401.485 380.067 401.225L378.334 400.272C377.9 400.012 377.294 400.012 376.774 400.185C376.514 400.272 376.34 400.445 376.167 400.618C375.994 400.792 375.82 401.052 375.734 401.398L374.78 403.132L372.874 406.512C372.527 407.032 372.354 407.725 372.527 408.332C372.527 409.198 372.874 409.718 373.567 410.065ZM373.567 410.065C373.047 409.805 372.527 409.198 372.354 408.592C372.18 407.985 372.354 407.205 372.7 406.685L374.26 403.045L375.127 401.312C375.214 401.052 375.387 400.705 375.647 400.358C375.907 400.098 376.167 399.838 376.6 399.752C377.38 399.492 378.16 399.492 378.854 399.838L380.587 400.705C381.367 401.052 381.8 401.745 381.974 402.525C382.06 402.872 382.06 403.305 381.974 403.738C381.887 404.085 381.714 404.518 381.54 404.778L379.634 408.158L378.68 409.892C378.42 410.412 377.9 411.105 377.294 411.278C376.687 411.538 375.907 411.452 375.387 411.192L373.567 410.065Z" fill="black"/>
<path d="M364.12 406.511L365.853 407.464C366.98 407.984 368.367 407.551 368.8 406.424L371.747 400.444C372.267 399.317 371.833 397.931 370.707 397.497L368.973 396.544C367.847 396.024 366.46 396.457 366.027 397.584L363.08 403.564C362.56 404.517 362.993 405.904 364.12 406.511Z" fill="white"/>
<path d="M364.12 406.511L365.853 407.378C366.373 407.638 367.154 407.638 367.674 407.378C368.28 407.118 368.713 406.511 368.887 405.991L369.753 404.258L371.314 400.618C371.487 400.358 371.574 400.098 371.574 399.751C371.66 399.491 371.574 399.231 371.574 398.885C371.487 398.365 371.14 397.931 370.62 397.671L368.887 396.718C368.453 396.458 367.847 396.458 367.327 396.631C367.067 396.718 366.893 396.891 366.72 397.065C366.547 397.238 366.373 397.498 366.287 397.845L365.334 399.578L363.427 402.958C363.08 403.478 362.907 404.171 363.08 404.778C363.167 405.558 363.514 406.251 364.12 406.511ZM364.12 406.511C363.6 406.251 363.08 405.645 362.907 405.038C362.734 404.431 362.907 403.651 363.254 403.131L364.814 399.491L365.68 397.758C365.767 397.498 365.94 397.151 366.2 396.805C366.46 396.545 366.72 396.285 367.153 396.198C367.933 395.938 368.714 395.938 369.407 396.285L371.14 397.151C371.92 397.498 372.353 398.191 372.527 398.971C372.613 399.318 372.613 399.751 372.527 400.185C372.44 400.531 372.267 400.965 372.093 401.225L370.187 404.605L369.234 406.338C368.974 406.858 368.454 407.551 367.847 407.725C367.24 407.985 366.46 407.898 365.94 407.638L364.12 406.511Z" fill="black"/>
<path d="M354.76 401.744L356.494 402.697C357.62 403.217 359.007 402.784 359.44 401.657L362.387 395.677C362.907 394.551 362.474 393.164 361.347 392.731L359.614 391.777C358.487 391.257 357.1 391.691 356.667 392.817L353.72 398.797C353.2 399.837 353.634 401.224 354.76 401.744Z" fill="white"/>
<path d="M354.76 401.745L356.494 402.611C357.014 402.871 357.794 402.871 358.314 402.611C358.92 402.351 359.354 401.745 359.527 401.225L360.394 399.491L361.954 395.851C362.127 395.591 362.214 395.331 362.214 394.985C362.3 394.725 362.214 394.465 362.214 394.118C362.127 393.598 361.78 393.165 361.26 392.905L359.527 391.951C359.094 391.691 358.487 391.691 357.967 391.865C357.707 391.951 357.534 392.125 357.36 392.298C357.187 392.471 357.014 392.731 356.927 393.078L355.974 394.811L354.067 398.191C353.72 398.711 353.547 399.405 353.72 400.011C353.72 400.878 354.067 401.398 354.76 401.745ZM354.76 401.745C354.24 401.485 353.72 400.878 353.547 400.271C353.374 399.665 353.547 398.885 353.894 398.365L355.454 394.725L356.32 392.991C356.407 392.731 356.58 392.385 356.84 392.038C357.1 391.778 357.36 391.518 357.794 391.431C358.574 391.171 359.354 391.171 360.047 391.518L361.78 392.385C362.56 392.731 362.994 393.425 363.167 394.205C363.254 394.551 363.254 394.985 363.167 395.418C363.08 395.765 362.907 396.198 362.734 396.458L360.827 399.838L359.874 401.571C359.614 402.091 359.094 402.785 358.487 402.958C357.88 403.218 357.1 403.131 356.58 402.871L354.76 401.745Z" fill="black"/>
<path d="M396.793 425.318C397.227 426.445 397.313 427.572 397.4 428.612C397.487 429.738 397.4 430.865 397.14 431.992C396.707 430.865 396.62 429.738 396.533 428.698C396.447 427.572 396.533 426.532 396.793 425.318Z" fill="black"/>
<path d="M421.32 426.878C417.854 427.052 414.214 427.052 410.747 426.878C407.28 426.705 403.727 426.532 400.26 425.925C403.727 425.752 407.367 425.752 410.834 425.925C414.3 426.098 417.854 426.358 421.32 426.878Z" fill="#231F20"/>
<path d="M367.5 422.632L372.353 411.278L362.387 407.638L355.193 421.592L367.5 422.632Z" stroke="black" stroke-width="0.5" stroke-miterlimit="10"/>
<path d="M330.482 145.389L324.773 147.91L328.485 156.314L334.193 153.793L330.482 145.389Z" fill="#EAB575"/>
<path d="M320.267 265.072C320.267 265.072 317.753 280.239 334.913 290.985L342.02 262.819L338.38 260.132C338.38 260.219 323.213 263.685 320.267 265.072Z" fill="#56D0ED"/>
<path d="M346.613 265.072L349.213 281.798L351.727 298.525L356.58 331.892L356.32 331.545L361.52 333.452L362.993 333.972L361.433 334.232L354.067 335.792L354.153 334.925L358.227 336.745L358.573 336.918L358.4 337.265C355.107 346.018 351.727 354.772 348.347 363.525L343.233 376.612L338.033 389.698L342.8 376.612L347.653 363.438C350.86 354.598 354.24 345.845 357.447 337.092L357.62 337.612L353.547 335.792L352.333 335.272L353.633 335.012L361 333.452L360.913 334.318L355.713 332.412L355.453 332.325V332.065L350.773 298.698L348.433 281.972L346.613 265.072Z" fill="white"/>
<path d="M354.327 277.465C354.847 274.778 355.8 272.265 356.667 269.838C357.62 267.325 358.573 264.898 359.873 262.472C359.353 265.158 358.4 267.672 357.533 270.098C356.667 272.698 355.627 275.125 354.327 277.465Z" fill="#2B9EAA"/>
<path d="M325.986 177.278C327.373 182.998 328.673 188.718 329.973 194.352C331.273 200.072 332.486 205.792 333.7 211.512C334.913 217.232 336.126 222.952 337.166 228.672L338.813 237.252C339.333 240.112 339.94 242.972 340.373 245.918C339.593 243.058 338.986 240.198 338.38 237.338L336.473 228.758C335.173 223.038 333.96 217.318 332.746 211.598C331.533 205.878 330.32 200.158 329.28 194.438C328.066 188.805 326.94 183.085 325.986 177.278Z" fill="url(#paint0_linear)"/>
<path opacity="0.34" d="M365.42 256.405C365.42 256.405 323.473 268.539 323.82 279.892C323.82 279.892 319.227 272.872 320.353 264.985C320.267 265.072 338.033 258.659 365.42 256.405Z" fill="url(#paint1_linear)"/>
<g opacity="0.3">
<path opacity="0.3" d="M312.727 258.745C316.973 256.665 321.393 254.845 325.9 253.372C330.407 251.898 335 250.685 339.68 249.732C344.36 248.865 349.04 248.259 353.807 247.999C358.573 247.825 363.34 248.172 368.02 249.125C363.253 248.865 358.573 248.952 353.893 249.385C349.213 249.905 344.62 250.512 340.027 251.465C335.433 252.419 330.84 253.545 326.333 254.759C324.08 255.365 321.827 256.059 319.573 256.665C317.233 257.272 314.98 258.052 312.727 258.745Z" fill="url(#paint2_linear)"/>
</g>
<path opacity="0.3" d="M315.066 175.805C315.066 175.805 311.34 239.765 337.253 244.618L309.433 253.025L314.633 176.065L315.066 175.805Z" fill="url(#paint3_linear)"/>
<path opacity="0.24" d="M331.62 147.985L326.42 151.625L324.773 147.812C324.773 147.899 327.2 149.285 331.62 147.985Z" fill="url(#paint4_linear)"/>
<path d="M325.987 134.378V139.752C325.987 139.752 324.947 137.152 323.387 137.585C321.827 138.018 321.827 139.752 321.827 139.752C321.827 139.752 322.173 142.092 324.427 142.612L322.78 147.378C322.78 147.378 314.2 141.832 312.727 136.718C311.253 131.518 306.487 126.145 306.487 126.145C306.487 126.145 312.033 126.665 312.727 127.965C313.42 129.265 312.207 120.512 307.873 118.085C307.873 118.085 317.234 117.392 319.14 124.239C319.14 124.239 325.034 116.872 320.527 110.805C320.527 110.805 330.407 112.365 326.42 121.899C326.42 121.899 334.827 121.465 334.914 116.352C334.914 116.352 335.607 122.159 331.62 127.705L325.987 129.092L326.94 131.692L325.987 134.378Z" fill="black"/>
<path d="M307.44 203.799C307.44 203.799 320.527 166.099 332.313 164.452C344.1 162.805 348.867 204.752 348.867 204.752" fill="#F985AF"/>
<path d="M348.87 204.896C348.9 203.652 339.653 202.419 328.217 202.143C316.781 201.866 307.485 202.651 307.455 203.895C307.425 205.139 316.672 206.372 328.108 206.648C339.544 206.924 348.84 206.14 348.87 204.896Z" fill="#231F20"/>
<path d="M323.387 161.159C324.86 161.505 326.333 161.765 327.72 161.939C329.193 162.112 330.667 162.112 332.053 161.939C333.44 161.765 334.827 161.332 336.127 160.639C337.427 159.945 338.467 158.905 339.42 157.865C338.727 159.165 337.773 160.465 336.473 161.245C335.173 162.112 333.7 162.632 332.14 162.805C330.58 162.979 329.107 162.892 327.633 162.632C326.16 162.285 324.687 161.852 323.387 161.159Z" fill="url(#paint5_linear)"/>
<path d="M343.927 387.792C342.02 388.919 340.027 389.785 337.947 390.652C335.867 391.432 333.787 392.212 331.62 392.732C333.527 391.605 335.52 390.739 337.6 389.872C339.68 389.092 341.76 388.312 343.927 387.792Z" fill="#2B9EAA"/>
<path d="M333.18 299.218C333.527 305.718 333.96 312.218 334.22 318.718L334.653 328.425L335.087 338.132V338.565H334.653H328.24L328.5 337.872L335.347 343.505L335.867 343.938L335.26 344.198L330.667 346.538L330.84 346.452C325.64 353.385 320.527 360.318 315.327 367.252C310.127 374.185 304.927 381.032 299.64 387.965C304.667 380.945 309.693 373.925 314.807 366.905C319.92 359.885 325.033 352.952 330.147 345.932L330.233 345.845L330.32 345.758L334.913 343.418L334.827 344.112L328.067 338.478L327.2 337.785H328.327H334.74L334.393 338.218L334.047 328.512L333.7 318.805C333.44 312.132 333.267 305.632 333.18 299.218Z" fill="#56D0ED"/>
<path d="M342.8 202.585L337.773 235.085L359.873 262.385L354.327 277.378L321.567 241.758C321.567 241.758 319.66 240.112 320.093 237.772C320.527 235.345 317.58 201.718 317.58 201.718C317.58 201.718 331.36 200.158 342.8 202.585Z" fill="#EAB575"/>
<path opacity="0.24" d="M329.28 201.285L324.253 238.812L353.027 276.078L321.653 241.932C321.653 241.932 319.92 240.718 320.18 237.945C320.44 235.172 317.667 201.892 317.667 201.892C317.667 201.892 326.16 201.198 329.28 201.285Z" fill="url(#paint6_linear)"/>
<path d="M337.253 169.305C337.253 169.305 344.793 191.145 335.347 196.345L345.573 197.645C345.573 197.645 345.66 186.379 337.253 169.305Z" fill="url(#paint7_linear)"/>
<path opacity="0.38" d="M338.033 201.805L337.773 235.085L342.8 202.585L338.033 201.805Z" fill="url(#paint8_linear)"/>
<path opacity="0.3" d="M333.7 164.365L322.173 190.365C321.567 191.752 322.086 193.312 323.386 194.005C325.12 195.045 326.68 195.652 330.667 196.259L310.993 194.699C310.993 194.785 321.133 165.405 333.7 164.365Z" fill="url(#paint9_linear)"/>
<path d="M343.146 164.452C345.313 170.952 347.393 177.452 349.473 183.952L355.54 203.538L361.433 223.125L364.293 232.918L367.066 242.798L363.86 233.092L360.74 223.298L354.673 203.712L348.78 184.125C346.96 177.538 345.053 171.038 343.146 164.452Z" fill="url(#paint10_linear)"/>
<path d="M314.633 134.032C316.193 133.079 317.753 132.385 319.4 131.605C321.047 130.912 322.693 130.305 324.427 129.785C322.867 130.738 321.307 131.432 319.66 132.212C318.013 132.905 316.367 133.599 314.633 134.032Z" fill="url(#paint11_linear)"/>
<path d="M334.913 116.352C334.913 116.352 333.353 126.838 328.847 128.312L331.62 127.618C331.62 127.705 335.433 122.678 334.913 116.352Z" fill="url(#paint12_linear)"/>
<path d="M323.82 113.751C324.773 114.705 325.38 116.091 325.553 117.478C325.64 118.171 325.553 118.865 325.38 119.558C325.207 120.251 324.86 120.858 324.426 121.378C324.6 120.685 324.773 120.078 324.86 119.471C324.946 118.865 324.946 118.171 324.86 117.565C324.773 116.958 324.687 116.265 324.513 115.658C324.34 114.965 324.166 114.358 323.82 113.751Z" fill="url(#paint13_linear)"/>
<path d="M579.573 449.585L445.066 400.532V72.4116L579.573 26.0449V449.585Z" fill="#FBE54B"/>
<path d="M89.1265 23.3584L223.546 72.4117V400.532L89.1265 446.812V23.3584Z" fill="#C8E8A3"/>
<path d="M506.253 183.778C523.58 183.778 537.627 162.98 537.627 137.325C537.627 111.669 523.58 90.8716 506.253 90.8716C488.926 90.8716 474.88 111.669 474.88 137.325C474.88 162.98 488.926 183.778 506.253 183.778Z" fill="white"/>
<path d="M156.293 183.778C173.62 183.778 187.667 162.98 187.667 137.325C187.667 111.669 173.62 90.8716 156.293 90.8716C138.966 90.8716 124.92 111.669 124.92 137.325C124.92 162.98 138.966 183.778 156.293 183.778Z" fill="white"/>
<path d="M156.293 195.652C178.072 195.652 195.727 169.538 195.727 137.325C195.727 105.112 178.072 78.9985 156.293 78.9985C134.515 78.9985 116.86 105.112 116.86 137.325C116.86 169.538 134.515 195.652 156.293 195.652Z" stroke="white" stroke-miterlimit="10"/>
<path d="M506.253 195.652C528.032 195.652 545.687 169.538 545.687 137.325C545.687 105.112 528.032 78.9985 506.253 78.9985C484.475 78.9985 466.82 105.112 466.82 137.325C466.82 169.538 484.475 195.652 506.253 195.652Z" stroke="white" stroke-miterlimit="10"/>
<path d="M445.066 229.105H579.573" stroke="white" stroke-miterlimit="10"/>
<path d="M89.1265 234.479H223.546" stroke="white" stroke-miterlimit="10"/>
<path opacity="0.34" d="M335.346 95.1186C339.08 95.1186 342.106 92.0921 342.106 88.3586C342.106 84.6252 339.08 81.5986 335.346 81.5986C331.613 81.5986 328.586 84.6252 328.586 88.3586C328.586 92.0921 331.613 95.1186 335.346 95.1186Z" fill="url(#paint14_linear)"/>
<path d="M354.066 88.3586C359.266 88.1853 364.38 88.0986 369.58 88.012C374.78 87.9253 379.893 87.9253 385.093 87.9253C390.293 87.9253 395.406 87.9253 400.606 88.012L408.32 88.0986C410.92 88.1853 413.52 88.1853 416.033 88.272C413.433 88.3586 410.833 88.4453 408.32 88.4453L400.606 88.532C395.406 88.6186 390.293 88.6186 385.093 88.6186C379.893 88.6186 374.78 88.6186 369.58 88.532C364.38 88.6186 359.18 88.532 354.066 88.3586Z" fill="#DBDBDB"/>
<path d="M252.667 88.3586C257.867 88.1853 262.98 88.0986 268.18 88.012C273.38 87.9253 278.493 87.9253 283.693 87.9253C288.893 87.9253 294.007 87.9253 299.206 88.012L306.92 88.0986C309.52 88.1853 312.12 88.1853 314.633 88.272C312.033 88.3586 309.433 88.4453 306.92 88.4453L299.206 88.532C294.007 88.6186 288.893 88.6186 283.693 88.6186C278.493 88.6186 273.38 88.6186 268.18 88.532C262.98 88.6186 257.78 88.532 252.667 88.3586Z" fill="#DBDBDB"/>
<path d="M254.4 82.8984C253.013 84.8918 251.453 86.7984 249.893 88.6184V88.0118C251.453 89.7451 253.013 91.5651 254.4 93.5584C252.493 91.9984 250.847 90.3518 249.2 88.5318L248.94 88.2718L249.2 88.0118C250.847 86.2784 252.493 84.5451 254.4 82.8984Z" fill="#DBDBDB"/>
<path d="M414.907 93.6449C416.293 91.6515 417.853 89.7449 419.413 87.9249V88.5315C417.853 86.7982 416.293 84.9782 414.907 82.9849C416.813 84.5449 418.46 86.1915 420.107 88.0115L420.367 88.2715L420.107 88.5315C418.46 90.2649 416.813 92.0849 414.907 93.6449Z" fill="#DBDBDB"/>
<path d="M335.347 92.5182C337.644 92.5182 339.506 90.6557 339.506 88.3582C339.506 86.0607 337.644 84.1982 335.347 84.1982C333.049 84.1982 331.187 86.0607 331.187 88.3582C331.187 90.6557 333.049 92.5182 335.347 92.5182Z" fill="#56D0ED"/>
<path d="M88.8667 306.758L223.893 293.152" stroke="white" stroke-miterlimit="10"/>
<path d="M89.1265 385.712L223.546 345.932" stroke="white" stroke-miterlimit="10"/>
<path d="M579.833 309.531L444.807 295.925" stroke="white" stroke-miterlimit="10"/>
<path d="M579.573 388.485L445.153 348.705" stroke="white" stroke-miterlimit="10"/>
<path d="M73.4399 449.585L81.5866 446.812V23.3584H73.4399V449.585Z" fill="url(#paint15_linear)" stroke="white" stroke-miterlimit="10"/>
<path d="M588.413 449.585L596.56 452.705V26.0449H588.413V449.585Z" fill="url(#paint16_linear)" stroke="white" stroke-miterlimit="10"/>
<path d="M643.794 425.232C646.654 423.585 649.86 422.285 653.327 421.418C661.214 419.512 670.227 419.858 680.107 422.372C705.5 428.785 715.38 418.212 730.46 402.092C739.734 392.212 751.26 379.818 769.634 368.898C783.154 360.838 803.087 352.605 821.374 358.845C832.294 362.658 837.494 369.938 837.58 370.025C837.667 370.198 837.667 370.458 837.494 370.545C837.32 370.632 837.06 370.632 836.974 370.458C836.887 370.372 831.86 363.178 821.114 359.538C803.174 353.385 783.5 361.532 770.067 369.505C751.78 380.338 740.34 392.645 731.067 402.525C716.42 418.212 705.76 429.565 679.934 422.978C670.14 420.465 661.214 420.205 653.5 422.025C646.134 423.758 640.154 427.572 636.167 432.945C626.72 445.512 628.714 465.098 641.54 486.678C641.627 486.852 641.627 487.112 641.367 487.198C641.107 487.285 640.934 487.285 640.847 487.025C627.847 465.185 625.854 445.252 635.474 432.425C637.727 429.652 640.5 427.138 643.794 425.232Z" fill="#BCBCBC"/>
<path d="M700.387 402.698C703.073 400.012 707.407 400.012 710.093 402.612C712.78 405.298 717.113 405.212 719.8 402.525C722.487 399.838 726.82 399.838 729.507 402.438C732.193 405.125 736.527 405.038 739.213 402.352C741.9 399.665 746.233 399.665 748.92 402.265" stroke="black" stroke-width="1.75" stroke-miterlimit="10" stroke-linecap="round"/>
<path d="M787.487 147.119C782.46 149.199 777.78 150.065 773.273 149.805C761.66 149.025 752.213 139.925 745.107 122.852C736.267 101.619 724.393 87.5787 708.88 80.1254C695.533 73.6254 681.84 73.1054 669.793 72.5854C653.327 71.892 640.413 71.2854 637.987 55.3387C637.033 48.8387 638.16 43.4654 641.627 39.0454C650.987 26.8254 675.167 24.052 703.16 20.7587C741.467 16.252 784.8 11.2254 797.8 -20.3213L798.753 -19.888C785.493 12.1787 741.9 17.292 703.333 21.712C676.727 24.832 651.593 27.692 642.493 39.5654C639.287 43.7254 638.16 48.8387 639.113 55.0787C641.367 70.2454 653.327 70.7654 669.88 71.4587C693.54 72.4987 725.867 73.8854 746.06 122.419C752.993 139.145 762.18 147.985 773.36 148.679C806.64 150.932 847.807 81.1654 848.24 80.472L849.107 80.9921C849.02 81.1654 838.62 98.932 824.147 116.179C810.8 132.212 798.58 142.525 787.487 147.119Z" fill="#BCBCBC"/>
<path d="M722.14 143.045C719.627 143.045 717.547 140.965 717.547 138.452C717.547 135.938 719.627 133.858 722.14 133.858C735.66 133.858 746.667 122.852 746.667 109.332C746.667 106.818 748.747 104.738 751.26 104.738C753.773 104.738 755.853 106.818 755.853 109.332C755.853 127.965 740.687 143.045 722.14 143.045ZM751.26 105.778C749.267 105.778 747.62 107.425 747.62 109.418C747.62 123.372 736.267 134.812 722.227 134.812C720.234 134.812 718.587 136.458 718.587 138.452C718.587 140.445 720.234 142.092 722.227 142.092C740.253 142.092 754.987 127.445 754.987 109.332C754.9 107.425 753.253 105.778 751.26 105.778Z" fill="black"/>
<path d="M717.547 139.839C698.567 139.839 683.053 124.412 683.053 105.345C683.053 86.3654 698.48 70.8521 717.547 70.8521C736.527 70.8521 752.04 86.2787 752.04 105.345C752.04 106.385 751.953 107.512 751.867 108.552C751.867 108.812 751.607 108.985 751.347 108.985C751.087 108.985 750.913 108.725 750.913 108.465C751 107.425 751.087 106.385 751.087 105.345C751.087 86.7987 736.007 71.8054 717.547 71.8054C699 71.8054 684.007 86.8854 684.007 105.345C684.007 123.805 699.087 138.885 717.547 138.885C717.72 138.885 717.893 138.885 718.067 138.885C718.327 138.885 718.5 139.059 718.5 139.319C718.5 139.579 718.327 139.752 718.067 139.752C717.893 139.839 717.72 139.839 717.547 139.839Z" fill="black"/>
<path d="M48.3065 409.458C45.7065 407.898 42.6732 406.685 39.4665 405.905C32.0998 404.172 23.6932 404.432 14.5065 406.772C-9.15351 412.752 -18.4268 402.872 -32.3802 387.878C-41.0468 378.605 -51.7935 367.078 -68.9535 356.938C-81.6068 349.398 -100.154 341.685 -117.227 347.578C-127.454 351.132 -132.307 357.978 -132.307 358.065C-132.394 358.238 -132.394 358.412 -132.22 358.585C-132.047 358.672 -131.874 358.672 -131.7 358.498C-131.614 358.412 -126.934 351.738 -116.88 348.272C-100.154 342.552 -81.7802 350.178 -69.3002 357.545C-52.3135 367.685 -41.5668 379.125 -32.9002 388.312C-19.2068 402.958 -9.32684 413.532 14.7665 407.378C23.8665 405.038 32.1865 404.778 39.3798 406.512C46.2265 408.158 51.8598 411.712 55.5865 416.652C64.3398 428.352 62.5198 446.638 50.5598 466.832C50.4732 467.005 50.4732 467.265 50.6465 467.265C50.8198 467.352 51.0798 467.352 51.0798 467.178C63.2132 446.812 65.0332 428.265 56.0198 416.218C53.8532 413.532 51.2532 411.278 48.3065 409.458Z" fill="#BCBCBC"/>
<path d="M-15.0469 190.972C-15.0469 186.812 -11.6669 183.345 -7.42022 183.345C-3.17355 183.345 0.206453 186.725 0.206453 190.972C0.206453 213.245 18.3198 231.445 40.6798 231.445C44.8398 231.445 48.3065 234.825 48.3065 239.072C48.3065 243.319 44.9265 246.699 40.6798 246.699C9.91312 246.612 -15.0469 221.652 -15.0469 190.972ZM46.6598 238.985C46.6598 235.605 43.9731 232.919 40.5931 232.919C17.4531 232.919 -1.35355 214.112 -1.35355 190.972C-1.35355 187.592 -4.04022 184.905 -7.42022 184.905C-10.8002 184.905 -13.4869 187.592 -13.4869 190.972C-13.4869 220.785 10.7798 245.052 40.5931 245.052C43.8865 245.052 46.6598 242.365 46.6598 238.985Z" fill="#E8E8E8"/>
<path d="M-15.0469 190.972C-15.0469 186.812 -11.6669 183.345 -7.42022 183.345C-3.17356 183.345 0.206444 186.725 0.206444 190.972C0.206444 195.219 -3.17356 198.599 -7.42022 198.599C-11.6669 198.599 -15.0469 195.132 -15.0469 190.972ZM-1.44022 190.972C-1.44022 187.592 -4.12688 184.905 -7.50688 184.905C-10.8869 184.905 -13.5735 187.592 -13.5735 190.972C-13.5735 194.352 -10.8869 197.039 -7.50688 197.039C-4.12688 197.039 -1.44022 194.265 -1.44022 190.972Z" fill="#E8E8E8"/>
<path d="M663.12 266.892C658.96 266.892 655.493 263.512 655.493 259.265C655.493 255.019 658.873 251.639 663.12 251.639C685.393 251.639 703.593 233.525 703.593 211.165C703.593 207.005 706.973 203.539 711.22 203.539C715.466 203.539 718.846 206.919 718.846 211.165C718.76 241.932 693.8 266.892 663.12 266.892ZM663.12 265.332C692.933 265.332 717.2 241.065 717.2 211.252C717.2 207.872 714.513 205.185 711.133 205.185C707.753 205.185 705.066 207.872 705.066 211.252C705.066 234.392 686.26 253.199 663.12 253.199C659.74 253.199 657.053 255.885 657.053 259.265C657.053 262.645 659.74 265.332 663.12 265.332Z" fill="#E8E8E8"/>
<path d="M711.133 218.792C706.973 218.792 703.506 215.412 703.506 211.165C703.506 206.919 706.886 203.539 711.133 203.539C715.38 203.539 718.76 206.919 718.76 211.165C718.76 215.412 715.293 218.792 711.133 218.792ZM711.133 217.319C714.513 217.319 717.2 214.632 717.2 211.252C717.2 207.872 714.513 205.185 711.133 205.185C707.753 205.185 705.066 207.872 705.066 211.252C705.066 214.545 707.84 217.319 711.133 217.319Z" fill="#E8E8E8"/>
</g>
</g>
<defs>
<linearGradient id="paint0_linear" x1="325.52" y1="211.621" x2="340.747" y2="211.621" gradientUnits="userSpaceOnUse">
<stop stop-color="#F7941D"/>
<stop offset="1" stop-color="#F7941D" stop-opacity="0.1"/>
</linearGradient>
<linearGradient id="paint1_linear" x1="320.1" y1="268.2" x2="365.369" y2="268.2" gradientUnits="userSpaceOnUse">
<stop stop-color="#1C75BC" stop-opacity="0.1"/>
<stop offset="0.1413" stop-color="#1C75BC" stop-opacity="0.2272"/>
<stop offset="1" stop-color="#1C75BC"/>
</linearGradient>
<linearGradient id="paint2_linear" x1="312.401" y1="253.376" x2="368.148" y2="253.376" gradientUnits="userSpaceOnUse">
<stop stop-color="#2B3990"/>
<stop offset="1" stop-color="#1C75BC" stop-opacity="0.1"/>
</linearGradient>
<linearGradient id="paint3_linear" x1="309.463" y1="214.413" x2="337.283" y2="214.413" gradientUnits="userSpaceOnUse">
<stop stop-color="#2B3990"/>
<stop offset="1" stop-color="#1C75BC" stop-opacity="0.1"/>
</linearGradient>
<linearGradient id="paint4_linear" x1="324.726" y1="149.77" x2="331.645" y2="149.77" gradientUnits="userSpaceOnUse">
<stop stop-color="#603913"/>
<stop offset="1" stop-color="#603913" stop-opacity="0.1"/>
</linearGradient>
<linearGradient id="paint5_linear" x1="323.207" y1="160.354" x2="339.841" y2="160.354" gradientUnits="userSpaceOnUse">
<stop stop-color="white"/>
<stop offset="1" stop-color="white" stop-opacity="0.1"/>
</linearGradient>
<linearGradient id="paint6_linear" x1="317.664" y1="238.654" x2="353.049" y2="238.654" gradientUnits="userSpaceOnUse">
<stop stop-color="#603913"/>
<stop offset="1" stop-color="#603913" stop-opacity="0.1"/>
</linearGradient>
<linearGradient id="paint7_linear" x1="335.356" y1="183.511" x2="345.548" y2="183.511" gradientUnits="userSpaceOnUse">
<stop stop-color="white"/>
<stop offset="1" stop-color="white" stop-opacity="0.1"/>
</linearGradient>
<linearGradient id="paint8_linear" x1="337.815" y1="218.475" x2="342.799" y2="218.475" gradientUnits="userSpaceOnUse">
<stop stop-color="white"/>
<stop offset="1" stop-color="white" stop-opacity="0.1"/>
</linearGradient>
<linearGradient id="paint9_linear" x1="339.862" y1="175.67" x2="309.54" y2="192.211" gradientUnits="userSpaceOnUse">
<stop stop-color="#2B3990"/>
<stop offset="1" stop-color="#1C75BC" stop-opacity="0.1"/>
</linearGradient>
<linearGradient id="paint10_linear" x1="342.77" y1="203.607" x2="367.6" y2="203.607" gradientUnits="userSpaceOnUse">
<stop stop-color="white"/>
<stop offset="1" stop-color="white" stop-opacity="0.1"/>
</linearGradient>
<linearGradient id="paint11_linear" x1="314.5" y1="131.93" x2="324.587" y2="131.93" gradientUnits="userSpaceOnUse">
<stop stop-color="white"/>
<stop offset="1" stop-color="white" stop-opacity="0.1"/>
</linearGradient>
<linearGradient id="paint12_linear" x1="328.915" y1="122.373" x2="334.988" y2="122.373" gradientUnits="userSpaceOnUse">
<stop stop-color="white"/>
<stop offset="1" stop-color="white" stop-opacity="0.1"/>
</linearGradient>
<linearGradient id="paint13_linear" x1="323.583" y1="117.551" x2="325.635" y2="117.551" gradientUnits="userSpaceOnUse">
<stop stop-color="white"/>
<stop offset="1" stop-color="white" stop-opacity="0.1"/>
</linearGradient>
<linearGradient id="paint14_linear" x1="328.561" y1="88.3288" x2="342.076" y2="88.3288" gradientUnits="userSpaceOnUse">
<stop stop-color="#1C75BC" stop-opacity="0.1"/>
<stop offset="0.1413" stop-color="#1C75BC" stop-opacity="0.2272"/>
<stop offset="1" stop-color="#1C75BC"/>
</linearGradient>
<linearGradient id="paint15_linear" x1="77.5452" y1="449.543" x2="77.5452" y2="23.3598" gradientUnits="userSpaceOnUse">
<stop stop-color="#E6E7E8"/>
<stop offset="1" stop-color="white" stop-opacity="0.1"/>
</linearGradient>
<linearGradient id="paint16_linear" x1="592.454" y1="452.73" x2="592.454" y2="26.0829" gradientUnits="userSpaceOnUse">
<stop stop-color="#E6E7E8"/>
<stop offset="1" stop-color="white" stop-opacity="0.1"/>
</linearGradient>
<clipPath id="clip0">
<rect y="0.478516" width="720" height="468" fill="white"/>
</clipPath>
<clipPath id="clip1">
<rect x="-133" y="0.478516" width="936" height="468" fill="white"/>
</clipPath>
</defs>
</svg>
