<svg width="24" height="24" viewBox="0 0 24 24" fill="none" xmlns="http://www.w3.org/2000/svg">
<path d="M24 6.5585C23.1075 6.95 22.1565 7.2095 21.165 7.3355C22.185 6.7265 22.9635 5.7695 23.3295 4.616C22.3785 5.183 21.3285 5.5835 20.2095 5.807C19.3065 4.8455 18.0195 4.25 16.6155 4.25C13.8915 4.25 11.6985 6.461 11.6985 9.1715C11.6985 9.5615 11.7315 9.9365 11.8125 10.2935C7.722 10.094 4.1025 8.1335 1.671 5.147C1.2465 5.8835 0.9975 6.7265 0.9975 7.634C0.9975 9.338 1.875 10.8485 3.183 11.723C2.3925 11.708 1.617 11.4785 0.96 11.117C0.96 11.132 0.96 11.1515 0.96 11.171C0.96 13.562 2.6655 15.548 4.902 16.0055C4.5015 16.115 4.065 16.1675 3.612 16.1675C3.297 16.1675 2.979 16.1495 2.6805 16.0835C3.318 18.032 5.127 19.4645 7.278 19.511C5.604 20.8205 3.4785 21.6095 1.1775 21.6095C0.774 21.6095 0.387 21.5915 0 21.542C2.1795 22.9475 4.7625 23.75 7.548 23.75C16.602 23.75 21.552 16.25 21.552 9.749C21.552 9.5315 21.5445 9.3215 21.534 9.113C22.5105 8.42 23.331 7.5545 24 6.5585Z" fill="#262629" fill-opacity="0.4"/>
</svg>
