<svg width="253" height="318" fill="none" xmlns="http://www.w3.org/2000/svg"><path opacity=".08" d="M117.775 85.043L9.479 114.061a3.785 3.785 0 01-4.63-2.673l-1.886-7.036a3.785 3.785 0 012.673-4.63l108.297-29.018c2.013-.54 4.09.66 4.629 2.673l1.885 7.036a3.784 3.784 0 01-2.672 4.63zM5.217 98.157a5.406 5.406 0 00-3.82 6.614l1.886 7.036a5.406 5.406 0 006.615 3.819l108.296-29.017a5.407 5.407 0 003.819-6.615l-1.886-7.036a5.406 5.406 0 00-6.614-3.82L5.217 98.158zM110.344 1.913c6.027-1.614 12.244 1.975 13.859 8.002 1.615 6.026-1.975 12.243-8.001 13.858-6.027 1.614-12.244-1.974-13.859-8-1.615-6.028 1.975-12.245 8.001-13.86zm6.277 23.425c6.889-1.846 10.993-8.953 9.147-15.843-1.846-6.889-8.954-10.993-15.843-9.147-6.889 1.846-10.993 8.954-9.147 15.844 1.846 6.889 8.954 10.992 15.843 9.146z" fill="#030404"/><path d="M235.771 201.04l-46.344 80.269-171.293-98.898 46.343-80.268L235.77 201.04z" fill="#F0C900"/><path d="M129.615 25.698L85.211 76.93 42.563 24.227l87.052 1.47z" fill="#175FE5"/></svg>