<svg width="180" height="180" fill="none" xmlns="http://www.w3.org/2000/svg"><path d="M89.747 70.778c0 .155.136.29.292.29a.299.299 0 00.292-.29.299.299 0 00-.292-.291c-.156-.02-.292.116-.292.29zm-15.221 8.169c.058.29.33.465.623.407a.517.517 0 00.409-.62.518.518 0 00-.623-.408.531.531 0 00-.41.62zm-2.394-.194a.531.531 0 00.408.62.533.533 0 00.623-.407.542.542 0 00-.408-.62c-.292-.079-.565.115-.623.407zm1.031-12.011a.518.518 0 00-.623-.407.517.517 0 00-.408.62c.058.291.33.466.623.408a.517.517 0 00.408-.621zm1.402-2.91a.717.717 0 00-.72-.718c-.41 0-.72.33-.72.717 0 .35.252.64.583.699v6.946c-.097 0-.175.02-.253.04l-2.666-6.423a.712.712 0 00.272-.874.73.73 0 00-.954-.388.727.727 0 00-.389.951c.136.33.487.505.818.427l2.666 6.423a.862.862 0 00-.214.155l-4.944-4.91c.195-.27.156-.659-.097-.911a.718.718 0 00-1.032 0 .713.713 0 000 1.028.741.741 0 00.915.097l4.944 4.89c-.058.077-.097.136-.156.213l-6.423-2.658a.71.71 0 00-.428-.815.727.727 0 10-.564 1.339.7.7 0 00.875-.272l6.443 2.659c-.02.077-.039.174-.058.252h-6.95a.717.717 0 100 .272h6.97c0 .096.018.174.057.252l-6.442 2.658a.71.71 0 00-.876-.272.727.727 0 10.564 1.34.71.71 0 00.428-.816l6.443-2.658a.86.86 0 00.156.213l-4.963 4.948c-.273-.194-.662-.155-.915.078a.713.713 0 000 1.028.719.719 0 001.031 0 .735.735 0 00.098-.912l4.905-4.909c.078.058.136.097.214.155L70.516 80.5a.713.713 0 00-.817.427.727.727 0 00.389.95.73.73 0 00.954-.388.698.698 0 00-.273-.873l2.686-6.442c.078.02.175.04.253.04v6.946a.71.71 0 00-.584.698c0 .408.331.718.72.718.41 0 .72-.33.72-.718a.71.71 0 00-.583-.698v-6.947c.097 0 .175-.02.253-.039l2.667 6.423a.705.705 0 00-.273.873.73.73 0 00.954.388.727.727 0 00.39-.95.713.713 0 00-.818-.427l-2.667-6.423a.862.862 0 00.214-.155l4.925 4.909c-.195.271-.156.66.097.912a.719.719 0 001.032 0 .713.713 0 000-1.029.713.713 0 00-.915-.077l-4.925-4.89c.059-.078.097-.136.156-.213l6.443 2.658a.71.71 0 00.428.815.727.727 0 10.564-1.339.702.702 0 00-.876.272l-6.442-2.659c.02-.077.039-.174.058-.252h6.968a.717.717 0 100-.272h-6.968a1.367 1.367 0 00-1.226-1.222V64.53c.311-.058.545-.35.545-.699zm-4.419 3.492a.506.506 0 00-.136.718.51.51 0 00.72.136.506.506 0 00.136-.718.527.527 0 00-.72-.136zm-1.83 1.843a.523.523 0 00.137.718.527.527 0 00.72-.136.523.523 0 00-.136-.718.494.494 0 00-.72.136zm-.992 2.387a.531.531 0 00.409.62.533.533 0 00.623-.407.531.531 0 00-.41-.62.518.518 0 00-.622.407zm.409 1.98a.517.517 0 00-.41.62.52.52 0 00.624.407.517.517 0 00.409-.62.518.518 0 00-.623-.408zm.72 2.27a.506.506 0 00-.136.717.51.51 0 00.72.136.506.506 0 00.136-.718c-.156-.233-.467-.29-.72-.136zm1.557 1.843a.523.523 0 00.136.718.527.527 0 00.72-.136.523.523 0 00-.136-.718.494.494 0 00-.72.136zm7.533.718a.506.506 0 00.136-.718.51.51 0 00-.72-.136.506.506 0 00-.136.718.527.527 0 00.72.136zm1.849-1.824a.523.523 0 00-.136-.718.527.527 0 00-.72.136.523.523 0 00.136.717.53.53 0 00.72-.135zm.993-2.406a.531.531 0 00-.409-.621.533.533 0 00-.623.407.531.531 0 00.409.621c.292.078.564-.116.623-.407zm2.413-6.889a.523.523 0 00.526-.523.523.523 0 00-.526-.524.523.523 0 00-.525.523c.02.292.253.524.525.524zm-4.146 1.145a.522.522 0 00.526-.524.523.523 0 00-.526-.524.523.523 0 00-.525.524c0 .291.233.524.525.524zm-1.83 2.31a.506.506 0 00-.136.717.51.51 0 00.72.136.506.506 0 00.137-.718.527.527 0 00-.72-.136zm-1.264-3.746a.531.531 0 00-.41-.62.533.533 0 00-.622.407.531.531 0 00.409.62.518.518 0 00.623-.407zm4.262-4.753a.727.727 0 00-.389-.951.73.73 0 00-.954.388.698.698 0 00.273.873l-2.803 6.752.253.097 2.803-6.752c.35.078.7-.097.817-.407zm.565 9.352a.518.518 0 00-.623-.407.517.517 0 00-.409.62.52.52 0 00.623.408.531.531 0 00.409-.621zm2.394-12.03a.523.523 0 00-.526-.524.523.523 0 00-.525.524c0 .29.233.524.525.524a.523.523 0 00.526-.524zm4.03 1.242a.717.717 0 00-.721-.718c-.409 0-.72.33-.72.718 0 .155.039.29.117.407l-3.932 3.92.194.194 3.932-3.92a.721.721 0 00.409.117c.409 0 .72-.31.72-.718zm.641 8.343a.682.682 0 00-.934.175.678.678 0 00.175.931c.312.214.72.117.935-.175a.66.66 0 00-.176-.93zm4.75-8.169a.523.523 0 00-.526-.524.523.523 0 00-.525.524c0 .291.233.524.525.524a.535.535 0 00.526-.524zm2.433 3.959c0-.757-.623-1.378-1.382-1.378-.76 0-1.382.62-1.382 1.378 0 .135.02.271.058.388l-4.613 1.901.098.252 4.613-1.901a1.37 1.37 0 001.206.718 1.361 1.361 0 001.402-1.358zM130 100.271h-11.757v-2.503l6.54-9.236h-6.384v-3.28h11.445v2.504l-6.54 9.255H130v3.26zm-21.041-11.953h-.798v3.435h.759c1.421 0 2.141-.621 2.141-1.883-.02-1.028-.72-1.552-2.102-1.552zm3.64 5.414l4.399 6.539h-4.633l-3.192-5.472h-1.032v5.472h-4.087V85.252h4.944c4.107 0 6.15 1.475 6.15 4.444.02 1.727-.837 3.085-2.549 4.036zm-16.818-5.2H94.73v3.453h.74c.603 0 1.11-.174 1.46-.504.37-.35.544-.815.544-1.416 0-1.029-.564-1.533-1.693-1.533zm4.341 5.374c-.993.912-2.414 1.378-4.244 1.378H94.73v4.987h-4.088V85.252h5.236c1.908 0 3.348.408 4.302 1.242.954.835 1.44 1.999 1.44 3.532 0 1.688-.506 2.968-1.498 3.88zM83.265 88.28c-.525 0-.915.097-1.148.272-.234.194-.37.407-.37.68 0 .29.156.562.467.795.311.233 1.13.66 2.492 1.28 1.304.582 2.2 1.203 2.705 1.882.506.66.76 1.514.76 2.523 0 .931-.234 1.766-.72 2.484-.468.717-1.169 1.28-2.064 1.688-.895.407-1.947.601-3.153.601-1.013 0-1.85-.078-2.53-.213-.682-.136-1.383-.388-2.122-.738v-3.628c.778.407 1.596.718 2.433.931.837.214 1.615.33 2.316.33.603 0 1.051-.097 1.323-.31.293-.214.429-.485.429-.815a.866.866 0 00-.175-.544 1.93 1.93 0 00-.546-.465c-.252-.156-.914-.485-2.004-.97-.993-.447-1.733-.874-2.22-1.3-.486-.427-.856-.893-1.09-1.436-.233-.544-.35-1.184-.35-1.921 0-1.378.506-2.465 1.519-3.24C80.228 85.387 81.61 85 83.382 85c1.557 0 3.153.369 4.788 1.087l-1.245 3.143c-1.421-.62-2.648-.95-3.66-.95zm-12.34-3.026h4.107v15.018h-4.107v-15.02zm-13.918-2.717h-2.433v13.97h1.966c4.4 0 6.618-2.347 6.618-7.062-.02-4.599-2.063-6.908-6.15-6.908zm7.864 14.921c-2.024 1.882-4.944 2.814-8.76 2.814H50v-21.46h6.774c3.523 0 6.248.93 8.194 2.774 1.947 1.844 2.92 4.444 2.92 7.762.02 3.512-.993 6.228-3.017 8.11z" opacity=".4" fill="#00110D"/></svg>