<svg width="180" height="180" fill="none" xmlns="http://www.w3.org/2000/svg"><g opacity=".4" fill="#000"><path d="M73.575 102.751s-.543.209-1.797.209c-4.72 0-3.133-4.971-5.973-4.971h-.669v4.846H61.46v-14.12h5.264c3.801 0 5.681 1.295 5.681 4.637 0 2.089-1.42 3.133-2.172 3.55 1.128 1.338 1.044 3.009 2.715 3.009h.627v2.84zm-7.227-7.52c1.462 0 2.506-.626 2.506-1.754 0-1.17-.877-1.838-2.297-1.838h-1.463v3.593h1.254zm18.97.878c.668.543 1.253 1.42 1.253 2.674 0 2.966-2.214 4.052-4.804 4.052h-6.684v-14.12h5.974c2.882 0 4.595 1.086 4.595 3.843 0 2.423-1.504 2.757-2.297 2.757v.042c.459 0 1.253.209 1.963.752zm-5.138-1.796c1.211 0 1.67-.46 1.67-1.379 0-.877-.626-1.295-1.963-1.295h-1.17v2.674h1.463zm.417 5.598c1.212 0 1.755-.418 1.755-1.546 0-1.128-.752-1.546-1.838-1.546h-1.755v3.092h1.838zm7.685 2.924v-14.12h3.676V99.91h5.682v2.924h-9.358zm12.866 0v-14.12h5.139c2.882 0 4.595 1.128 4.595 3.718 0 2.548-1.504 2.966-2.172 2.966v.042c.919 0 3.133.793 3.133 3.467 0 2.924-2.34 3.927-4.971 3.927h-5.724zm5.013-8.188c1.588 0 2.131-.794 2.131-1.964 0-1.211-.794-1.921-2.548-1.921h-2.047v3.885h2.464zm.251 6.141c1.462 0 2.674-.46 2.674-2.13 0-1.588-1.17-2.173-2.716-2.173h-2.673v4.303h2.715zm15.246-1.588h-5.138l-1.253 3.635h-2.632l5.18-14.12h2.59l5.18 14.12h-2.632l-1.295-3.635zm-4.47-1.963h3.844l-1.922-5.389-1.922 5.389zm18.256 5.598l-5.514-9.483v9.483h-2.548v-14.12h2.632l5.598 9.775v-9.775h2.506v14.12h-2.674zm17.382-1.922c-1.797 0-1.88-3.05-3.384-4.553-.125-.126-.836-.961-2.005-1.295l5.389-6.35h-3.259l-5.389 6.308v-6.308h-2.548v14.12h2.548v-3.969l1.588-1.838h.167c2.966 0 2.005 5.89 6.141 5.89.835 0 1.336-.125 1.336-.125v-1.88h-.584zM33.18 76.475v-8.982h-7.06v21.222c0-5.222 2.84-9.817 7.06-12.24zm7.939-1.88v7.102c3.467.418 6.183 3.425 6.183 7.018 0 3.927-3.175 7.102-7.06 7.102s-7.06-3.175-7.06-7.102v12.24a14.073 14.073 0 007.06 1.922c7.812 0 14.12-6.35 14.12-14.162.041-7.52-5.849-13.66-13.243-14.12z"/><path d="M33.18 76.475a14.115 14.115 0 00-7.06 12.24v15.917h7.06V88.674c0-3.593 2.715-6.56 6.183-7.019v-7.102a14.136 14.136 0 00-6.183 1.922zm58.523 40.856s-.209.042-.501.042c-.543 0-.836-.292-.71-.794v-.041a2.173 2.173 0 01-1.797.877c-1.002 0-1.796-.752-1.337-2.548.46-1.838 1.588-2.59 2.674-2.59.919 0 1.253.543 1.337.668l.167-.627h1.002l-.919 3.677c-.083.292-.041.459.293.459l-.21.877zm-.752-3.175c.042-.167-.042-.919-.92-.919-.668 0-1.294.502-1.587 1.588-.292 1.086.168 1.587.794 1.587.961 0 1.379-1.044 1.379-1.002l.334-1.254zm1.8 5.683l1.546-6.225c.083-.292.041-.459-.293-.459l.21-.836s.208-.042.5-.042c.502 0 .836.293.71.794v.042c.126-.209.669-.877 1.755-.877 1.003 0 1.838.752 1.379 2.506-.46 1.88-1.63 2.59-2.716 2.59-1.002 0-1.211-.626-1.211-.626l-.794 3.091h-1.086v.042zm2.214-4.345c-.042.167 0 .961.877.961.71 0 1.337-.501 1.588-1.588.292-1.169-.21-1.587-.794-1.587-.919 0-1.379 1.003-1.379 1.003l-.292 1.211zm9.356 1.837s-.209.042-.501.042c-.669 0-.961-.376-.752-1.211l.459-1.88c.168-.627-.041-1.086-.71-1.086-.752 0-1.253.71-1.378 1.253l-.71 2.841h-1.128l.919-3.677c.083-.292.041-.459-.293-.459l.209-.836s.209-.041.501-.041c.502 0 .836.292.711.793l-.042.167c.292-.501.835-.96 1.754-.96 1.254 0 1.546.877 1.295 1.963l-.459 1.755c-.084.292-.042.459.292.459l-.167.877zm1.791-2.506c.376-1.588 1.504-2.548 2.883-2.548 1.42 0 2.047 1.002 1.629 2.548-.376 1.546-1.504 2.548-2.924 2.548-1.379.042-2.006-.961-1.588-2.548zm3.426 0c.25-1.044-.042-1.588-.752-1.588s-1.295.544-1.546 1.588c-.251 1.044.042 1.587.752 1.587s1.295-.543 1.546-1.587zm9.609 2.465s-.209.084-.46.084c-1.712 0-.501-2.339-2.047-2.339h-.584l-.585 2.297h-1.128l1.88-7.519h1.086l-1.086 4.386h.626c.836 0 1.588-.668 1.88-1.838h1.045c-.209.919-.794 1.88-1.839 2.214.878.46.251 1.922 1.295 1.922h.084l-.167.793zm5.933.041s-.209.042-.501.042c-.544 0-.836-.292-.711-.794v-.041c-.125.167-.668.877-1.796.877-1.003 0-1.796-.752-1.337-2.548.46-1.838 1.588-2.59 2.674-2.59.919 0 1.253.543 1.337.668l.167-.627h1.002l-.919 3.677c-.083.292-.041.459.293.459l-.209.877zm-.752-3.175c.042-.167-.042-.919-.919-.919-.669 0-1.295.502-1.588 1.588-.292 1.086.167 1.587.794 1.587.961 0 1.379-1.044 1.379-1.002l.334-1.254zm5.016 3.176l1.88-7.519h1.128l-.794 3.216s.543-.752 1.629-.752c1.003 0 1.838.752 1.379 2.507-.46 1.88-1.63 2.59-2.716 2.59-.961 0-1.211-.627-1.337-.71l-.167.668h-1.002zm1.587-1.88c-.042.167 0 1.003.877 1.003.669 0 1.337-.501 1.588-1.587.292-1.17-.209-1.588-.794-1.588-.919 0-1.378 1.003-1.378 1.003l-.293 1.169zm9.277 1.879s-.209.042-.502.042c-.543 0-.835-.292-.71-.794v-.041c-.125.167-.668.877-1.796.877-1.003 0-1.796-.752-1.337-2.548.46-1.838 1.588-2.59 2.674-2.59.919 0 1.253.543 1.337.668l.167-.627h1.002l-.919 3.677c-.083.292-.042.459.293.459l-.209.877zm-.752-3.175c.042-.167-.042-.919-.919-.919-.669 0-1.295.502-1.588 1.588-.292 1.086.167 1.587.794 1.587.961 0 1.379-1.044 1.379-1.002l.334-1.254zm7.058 3.175s-.209.042-.502.042c-.668 0-.961-.376-.752-1.211l.46-1.88c.167-.627-.042-1.086-.71-1.086-.752 0-1.254.71-1.379 1.253l-.71 2.841h-1.128l.919-3.677c.084-.292.042-.459-.292-.459l.208-.836s.209-.041.502-.041c.501 0 .835.292.71.793l-.042.167c.293-.501.836-.96 1.755-.96 1.253 0 1.545.877 1.295 1.963l-.46 1.755c-.083.292-.042.459.293.459l-.167.877zm6.223-.041s-.209.084-.46.084c-1.712 0-.501-2.339-2.047-2.339h-.584l-.585 2.297h-1.086l1.879-7.519h1.128l-1.086 4.386h.627c.835 0 1.587-.668 1.88-1.838h1.044c-.209.919-.794 1.88-1.838 2.214.877.46.251 1.922 1.295 1.922h.084l-.251.793z"/></g></svg>