<svg width="180" height="180" fill="none" xmlns="http://www.w3.org/2000/svg"><g opacity=".4"><path fill-rule="evenodd" clip-rule="evenodd" d="M44.977 89.75c-.022.096-.022.16-.022.192 0 .16.054.33.171.512.214.288.32.619.32 1.014 0 .224-.032.437-.096.661l-1.505 5.859H39.15l.875-3.394c.054-.224.075-.426.075-.63a1.76 1.76 0 00-.33-1.056c-.321-.48-.812-.715-1.452-.715H31.2l-1.494 5.795H25l2.134-8.302c.171-.662.544-1.217 1.11-1.687.576-.47 1.174-.704 1.803-.704h12.155l.374-1.323H28.244l.992-4.45h16.541c.64 0 1.12.235 1.451.704.214.31.32.662.32 1.057 0 .213-.02.427-.074.64l-.897 3.457c-.17.662-.544 1.217-1.099 1.676-.267.213-.437.448-.501.694z" fill="url(#paint0_linear)"/><path fill-rule="evenodd" clip-rule="evenodd" d="M93.818 81.523l-9.113 14.919a3.344 3.344 0 01-1.131 1.12 2.62 2.62 0 01-1.42.427h-3.99c-.48 0-.876-.139-1.185-.427a1.602 1.602 0 01-.555-1.12l-1.44-14.919h5.015l1.078 11.109c.021.224.16.341.395.341.234 0 .426-.117.555-.341l6.786-11.109h5.005z" fill="url(#paint1_linear)"/><path fill-rule="evenodd" clip-rule="evenodd" d="M96.317 83.891c.171-.672.545-1.227 1.11-1.675.576-.47 1.163-.704 1.782-.704h14.279c.64 0 1.12.234 1.451.704.213.299.32.64.32 1.025 0 .213-.032.426-.096.64l-3.02 11.717a3.123 3.123 0 01-1.078 1.675c-.565.47-1.163.705-1.803.705H94.984c-.63 0-1.11-.235-1.42-.705-.224-.288-.33-.64-.33-1.045 0-.203.02-.417.074-.63l3.01-11.707zm13.489 2.53h-9.423l-1.718 6.67h9.434l1.707-6.67z" fill="url(#paint2_linear)"/><path fill-rule="evenodd" clip-rule="evenodd" d="M124.499 81.523l-2.561 9.967a1.965 1.965 0 00-.054.438c0 .267.075.501.214.704.224.31.544.47.971.47h12.592L134.391 98h-16.562c-.629 0-1.11-.235-1.419-.705-.224-.288-.331-.64-.331-1.045 0-.203.021-.417.075-.63l3.628-14.097h4.717z" fill="url(#paint3_linear)"/><path fill-rule="evenodd" clip-rule="evenodd" d="M50.57 87.476l-1.164 4.503h16.178l1.163-4.503H50.57z" fill="url(#paint4_linear)"/><path fill-rule="evenodd" clip-rule="evenodd" d="M70.952 81.523H52.106l-1.195 4.61h18.846l1.195-4.61z" fill="url(#paint5_linear)"/><path fill-rule="evenodd" clip-rule="evenodd" d="M48.487 95.578a2.361 2.361 0 00-.096.661c0 .406.106.747.33 1.046.32.48.812.715 1.452.715h16.53l1.206-4.663H49.063l-.576 2.24z" fill="url(#paint6_linear)"/><path fill-rule="evenodd" clip-rule="evenodd" d="M154.69 81.523h-18.846l-1.259 4.866h18.845l1.26-4.866z" fill="url(#paint7_linear)"/><path fill-rule="evenodd" clip-rule="evenodd" d="M138.66 97.989h4.706l2.647-10.255h-4.706l-2.647 10.255z" fill="url(#paint8_linear)"/><path fill-rule="evenodd" clip-rule="evenodd" d="M69.447 59.636l7.267-4.055 9.989-5.57v8.74h-3.82V56.68l-8.09 4.46 8.09 4.45v-2.07h3.82v8.74l-9.978-5.56c-2.422-1.355-4.855-2.678-7.278-4.044-.608-.342-1.152-.598-1.206-1.44-.042-.876.577-1.239 1.206-1.58z" fill="url(#paint9_linear)"/><path fill-rule="evenodd" clip-rule="evenodd" d="M105.825 59.638l-7.267-4.056-9.989-5.57v8.74h3.82v-2.07l8.09 4.46-8.09 4.46v-2.07h-3.82v8.74l9.978-5.56c2.422-1.355 4.855-2.678 7.278-4.044.608-.341 1.152-.597 1.206-1.44.053-.886-.577-1.249-1.206-1.59z" fill="url(#paint10_linear)"/><path d="M106.156 50.193h-.512v-.182h1.237v.182h-.512v1.494h-.213v-1.494z" fill="url(#paint11_linear)"/><path d="M108.687 50.95c-.011-.235-.032-.513-.022-.726h-.01a9.01 9.01 0 01-.214.64l-.299.811h-.16l-.266-.8c-.075-.235-.15-.448-.192-.65 0 .212-.022.49-.032.735l-.043.715h-.203l.117-1.675h.278l.288.811c.075.203.128.395.171.566h.01c.043-.171.107-.353.182-.566l.299-.811h.277l.107 1.675h-.214l-.074-.725z" fill="url(#paint12_linear)"/></g><defs><linearGradient id="paint0_linear" x1="34.283" y1="40.658" x2="36.428" y2="94.62" gradientUnits="userSpaceOnUse"><stop stop-color="#fff"/><stop offset="1"/></linearGradient><linearGradient id="paint1_linear" x1="82.692" y1="38.736" x2="84.836" y2="92.697" gradientUnits="userSpaceOnUse"><stop stop-color="#fff"/><stop offset="1"/></linearGradient><linearGradient id="paint2_linear" x1="102.179" y1="37.961" x2="104.323" y2="91.923" gradientUnits="userSpaceOnUse"><stop stop-color="#fff"/><stop offset="1"/></linearGradient><linearGradient id="paint3_linear" x1="123.586" y1="37.111" x2="125.731" y2="91.073" gradientUnits="userSpaceOnUse"><stop stop-color="#fff"/><stop offset="1"/></linearGradient><linearGradient id="paint4_linear" x1="56.093" y1="39.791" x2="58.238" y2="93.753" gradientUnits="userSpaceOnUse"><stop stop-color="#fff"/><stop offset="1"/></linearGradient><linearGradient id="paint5_linear" x1="59.177" y1="39.67" x2="61.321" y2="93.632" gradientUnits="userSpaceOnUse"><stop stop-color="#fff"/><stop offset="1"/></linearGradient><linearGradient id="paint6_linear" x1="55.968" y1="39.798" x2="58.112" y2="93.76" gradientUnits="userSpaceOnUse"><stop stop-color="#fff"/><stop offset="1"/></linearGradient><linearGradient id="paint7_linear" x1="142.742" y1="36.349" x2="144.887" y2="90.312" gradientUnits="userSpaceOnUse"><stop stop-color="#fff"/><stop offset="1"/></linearGradient><linearGradient id="paint8_linear" x1="140.098" y1="36.454" x2="142.242" y2="90.416" gradientUnits="userSpaceOnUse"><stop stop-color="#fff"/><stop offset="1"/></linearGradient><linearGradient id="paint9_linear" x1="72.691" y1="39.868" x2="81.982" y2="70.602" gradientUnits="userSpaceOnUse"><stop stop-color="#fff"/><stop offset="1"/></linearGradient><linearGradient id="paint10_linear" x1="88.301" y1="35.15" x2="97.593" y2="65.884" gradientUnits="userSpaceOnUse"><stop stop-color="#fff"/><stop offset="1"/></linearGradient><linearGradient id="paint11_linear" x1="100.62" y1="31.425" x2="109.911" y2="62.159" gradientUnits="userSpaceOnUse"><stop stop-color="#fff"/><stop offset="1"/></linearGradient><linearGradient id="paint12_linear" x1="102.031" y1="30.999" x2="111.323" y2="61.732" gradientUnits="userSpaceOnUse"><stop stop-color="#fff"/><stop offset="1"/></linearGradient></defs></svg>