<svg width="180" height="180" fill="none" xmlns="http://www.w3.org/2000/svg"><path d="M41.127 108a1.015 1.015 0 01-.075-.062 95.404 95.404 0 01-5.811-8.208c-.815-1.373-1.344-2.444-1.242-2.721.265-.72 5-1.114 6.458-.461.443.198.432.46.432.613 0 .66-.033 2.428-.033 2.428a.66.66 0 00.66.662.66.66 0 00.657-.665l-.008-4.407h-.001c0-.383-.415-.479-.493-.494-.761-.003-2.306-.008-3.966-.008-3.66 0-4.479.15-5.101-.259-1.348-.887-3.551-6.864-3.603-10.228-.073-4.745 2.72-8.852 6.654-10.888A12.046 12.046 0 0141.115 72c6.225 0 11.351 4.73 12.034 10.814l.001.016c.126 1.471-7.93 1.784-9.523 1.356-.244-.066-.307-.318-.307-.426l-.01-4.266a.661.661 0 00-.66-.662.662.662 0 00-.657.665l.013 5.798a.493.493 0 00.399.48l4.998-.001c2.668 0 3.788.31 4.534.882.496.38.688 1.109.52 2.055-1.496 8.421-10.974 18.854-11.33 19.289zm25.705-19.653c2.391 1.031 3.873 2.175 3.873 4.688 0 2.566-1.932 4.223-4.92 4.223-2.421 0-4.365-1.104-5.333-3.03l-.157-.31 2.847-1.66.187.307c.641 1.055 1.358 1.504 2.397 1.504.896 0 1.498-.4 1.498-.995 0-.66-.435-.907-1.782-1.5l-.685-.296c-1.827-.784-3.52-1.873-3.52-4.51 0-2.37 1.806-4.026 4.39-4.026 1.96 0 3.301.763 4.225 2.4l.172.305-2.759 1.784-.19-.343c-.461-.83-.895-.997-1.447-.997-.577 0-.949.32-.949.817 0 .571.274.822 1.467 1.342l.686.297zm20.152.485l2.01-5.64h3.45l-5.113 14.3h-.766l-3.101-6.698a13.543 13.543 0 01-.421-1.037c-.132.35-.284.732-.428 1.039l-3.223 6.695h-.76l-5.195-14.3h3.685l2.032 5.641c.13.36.262.799.379 1.206.138-.42.304-.874.477-1.24l2.669-5.724h.738l2.71 5.725c.173.365.34.82.477 1.24.117-.408.251-.847.38-1.207zm9.483 8.249V82.898h3.481V97.08h-3.481zm14.897-4.765v-3.17h6.465v6.356l-.134.111c-.739.611-2.7 1.645-5.356 1.645-4.482 0-7.61-2.988-7.61-7.267 0-4.2 3.019-7.25 7.178-7.25 2.287 0 3.964.65 5.124 1.985l.227.26-2.373 2.365-.258-.267c-.663-.688-1.349-1.114-2.72-1.114-2.13 0-3.619 1.653-3.619 4.02 0 2.466 1.59 4.06 4.051 4.06.816 0 1.666-.142 2.244-.368v-1.366h-3.219zm17.644 0v-3.17h6.465v6.356l-.134.111c-.74.611-2.7 1.645-5.356 1.645-4.481 0-7.61-2.988-7.61-7.267 0-4.2 3.019-7.25 7.177-7.25 2.289 0 3.965.65 5.125 1.985l.228.26-2.373 2.365-.258-.267c-.663-.688-1.35-1.114-2.722-1.114-2.129 0-3.618 1.653-3.618 4.02 0 2.466 1.59 4.06 4.051 4.06.817 0 1.666-.142 2.244-.368v-1.366h-3.219zm19.222-9.417h3.64l-4.995 9.437v4.745h-3.501v-4.544l-5.321-9.638h3.883l2.459 4.522c.265.492.541 1.142.75 1.67.199-.524.463-1.168.726-1.666l2.359-4.526z" fill="#050A15" opacity=".4"/></svg>