<svg width="1226" height="900" viewBox="0 0 1226 900" fill="none" xmlns="http://www.w3.org/2000/svg">
<path d="M315.793 19.6915V523.795H462.777V240.237C462.777 176.239 509.812 129.964 567.626 129.964C625.44 129.964 660.716 173.286 660.716 234.329V523.795H807.7V208.73C807.7 87.6273 731.268 0 618.58 0C552.927 0 494.134 33.4756 458.857 87.6274V19.6915H315.793Z" fill="#F7F7F7"/>
<path d="M340.084 624.914V1023.32H421.742V868.684C421.742 833.783 447.873 808.547 479.447 808.547C512.11 809.084 531.708 832.172 531.708 865.462V1023.32H613.366V848.817C613.366 783.847 571.448 737.671 507.211 737.671C473.459 737.671 440.251 752.705 421.742 779.552V624.914H340.084Z" fill="#F7F7F7"/>
<path d="M237.128 783.733C237.128 857.769 281.922 910.069 351.15 910.069C372.869 910.069 400.017 905.993 421.057 899.201V817.015C409.519 820.411 394.587 822.449 385.085 822.449C356.58 822.449 338.933 802.751 338.933 773.545V626.153H417.663V548.721H338.933V461.102H253.417L241.879 548.721H188.261V626.153H237.128V783.733Z" fill="#F7F7F7"/>
<path d="M570.716 621.722V968.718H670.187V621.722H570.716ZM620.451 575.637C654.271 575.637 678.144 551.917 678.144 518.03C678.144 484.822 654.271 461.102 620.451 461.102C586.631 461.102 562.758 484.822 562.758 518.03C562.758 551.917 586.631 575.637 620.451 575.637Z" fill="#F7F7F7"/>
<path d="M682.193 661.165V1175H832.806V885.968C832.806 820.735 881.003 773.566 940.244 773.566C999.485 773.566 1035.63 817.724 1035.63 879.946V1175H1186.25V853.853C1186.25 730.412 1107.93 641.093 992.457 641.093C925.183 641.093 864.937 675.215 828.79 730.412V661.165H682.193Z" fill="#F7F7F7"/>
<path d="M1058.74 848.893C1005.36 848.893 967.037 808.712 967.037 753.548C967.037 697.023 1005.36 655.48 1058.74 655.48C1112.12 655.48 1150.45 697.023 1150.45 753.548C1150.45 808.712 1112.12 848.893 1058.74 848.893ZM1057.37 1017.11C1015.63 1017.11 978.672 988.504 969.775 949.004L878.068 959.22C888.334 1039.58 965.668 1098.15 1061.48 1098.15C1172.35 1098.15 1249 1032.09 1249 923.806V579.205H1146.34V620.747C1119.65 586.696 1079.96 566.265 1030.68 566.265C934.187 566.265 864.381 643.902 864.381 753.548C864.381 859.108 934.187 932.659 1030.68 932.659C1079.27 932.659 1118.97 912.909 1146.34 879.539V921.082C1146.34 981.693 1109.39 1017.11 1057.37 1017.11Z" fill="#F7F7F7"/>
<path d="M691.894 305.598C704.674 238.582 749.898 194.232 814.785 194.232C881.638 194.232 930.795 241.538 939.643 305.598H691.894ZM540.491 348.962C540.491 511.577 654.534 624.914 816.751 624.914C939.643 624.914 1045.82 552.969 1070.4 454.415L937.677 435.69C921.947 480.039 875.739 511.577 820.684 511.577C753.831 511.577 705.657 465.256 692.877 394.297L1087.11 395.283C1089.08 384.442 1089.08 363.745 1089.08 350.933C1089.08 191.276 978.968 80.895 817.735 80.895C655.518 80.895 540.491 191.276 540.491 348.962Z" fill="#F7F7F7"/>
<path d="M228.345 24.2685C93.2677 24.2685 0 112.901 0 242.685C0 371.677 93.2677 461.102 228.345 461.102C364.227 461.102 457.494 371.677 457.494 242.685C457.494 112.901 364.227 24.2685 228.345 24.2685ZM228.345 356.641C165.631 356.641 121.409 309.16 121.409 242.685C121.409 176.21 165.631 128.729 228.345 128.729C291.864 128.729 336.085 176.21 336.085 242.685C336.085 309.16 291.864 356.641 228.345 356.641Z" fill="#F7F7F7"/>
</svg>
