<svg width="80" height="80" viewBox="0 0 80 80" fill="none" xmlns="http://www.w3.org/2000/svg">
<path d="M40.8665 20.4927C35.8814 20.4927 31.8257 24.6291 31.8257 29.7132C31.8257 34.7974 35.8814 38.9337 40.8665 38.9337C45.8516 38.9337 49.9074 34.7974 49.9074 29.7132C49.9074 24.6291 45.8516 20.4927 40.8665 20.4927ZM42.4092 34.8292C42.4092 35.6414 41.762 36.2999 40.9637 36.2999C40.1655 36.2999 39.5183 35.6414 39.5183 34.8292V27.099H39.0349C38.2366 27.099 37.5894 26.4405 37.5894 25.6283C37.5894 24.8161 38.2366 24.1576 39.0349 24.1576H40.9637C41.762 24.1576 42.4092 24.8161 42.4092 25.6283V34.8292Z" fill="#F1F1F1" fill-opacity="0.5"/>
<path d="M59.0204 33.6351C59.9464 32.5633 60.996 31.3486 60.9999 29.7402C61.0036 28.1448 59.9645 26.9306 59.0478 25.8594C58.5271 25.2509 57.9886 24.6218 57.8291 24.118C57.6834 23.6583 57.7598 22.8572 57.8338 22.0823C57.9713 20.6407 58.127 19.0066 57.1749 17.6671C56.2218 16.3264 54.649 15.9683 53.2613 15.6525C52.5168 15.4831 51.747 15.3079 51.365 15.0245C50.9456 14.7136 50.5269 13.9961 50.1219 13.3022C49.4086 12.0801 48.6 10.6949 47.1097 10.2013C45.6065 9.70314 44.1464 10.3427 42.8582 10.9067C42.1384 11.2217 41.3943 11.5475 40.8904 11.5475C40.8895 11.5475 40.8885 11.5475 40.8875 11.5475C40.3967 11.5463 39.6609 11.2196 38.9494 10.9037C37.655 10.3292 36.1879 9.67785 34.6656 10.179C33.1951 10.663 32.3909 12.0347 31.6812 13.2449C31.2683 13.9489 30.8416 14.6768 30.4045 14.9996C29.9677 15.3223 29.1568 15.5092 28.3726 15.6899C27.0233 16.0008 25.4938 16.3532 24.5851 17.6269C23.6458 18.9436 23.796 20.5661 23.9286 21.9977C24.0016 22.7862 24.0771 23.6016 23.9248 24.0793C23.7687 24.5692 23.232 25.1905 22.7129 25.7913C21.7869 26.8631 20.7373 28.0778 20.7334 29.6862C20.7296 31.2816 21.7687 32.4958 22.6855 33.5671C23.2063 34.1755 23.7446 34.8047 23.9042 35.3084C24.0498 35.7681 23.9734 36.5693 23.8995 37.344C23.762 38.7857 23.6062 40.4198 24.5583 41.7593C25.5114 43.1 27.0842 43.4579 28.4719 43.7738C29.2164 43.9433 29.9861 44.1185 30.3682 44.4018C30.7876 44.7127 31.2063 45.4302 31.6113 46.1241C32.3247 47.3463 33.1332 48.7315 34.6235 49.2252C36.1264 49.7229 37.5866 49.0837 38.875 48.5197C39.5947 48.2047 40.3389 47.8789 40.8426 47.8789H40.8455C41.3364 47.8801 42.0721 48.2067 42.7836 48.5225C43.7532 48.953 44.8195 49.4263 45.9335 49.4263C46.3067 49.4263 46.6854 49.3732 47.0675 49.2474C48.538 48.7633 49.3423 47.3916 50.052 46.1814C50.4647 45.4775 50.8915 44.7496 51.3285 44.4267C51.7652 44.1041 52.5761 43.9172 53.3604 43.7365C54.7098 43.4256 56.2393 43.0731 57.148 41.7995C58.0873 40.4828 57.9371 38.8602 57.8046 37.4286C57.7315 36.6401 57.6561 35.8248 57.8082 35.3471C57.9645 34.8572 58.5013 34.2359 59.0204 33.6351ZM40.8666 41.8752C34.2875 41.8752 28.9349 36.4193 28.9349 29.7132C28.9349 23.0071 34.2875 17.5513 40.8666 17.5513C47.4458 17.5513 52.7984 23.0071 52.7984 29.7132C52.7984 36.4193 47.4458 41.8752 40.8666 41.8752Z" fill="#F1F1F1" fill-opacity="0.5"/>
<path d="M39.4211 51.4791C38.3903 51.9132 37.167 52.3458 35.754 52.3458C35.0583 52.3458 34.3769 52.237 33.7287 52.0223C31.6775 51.3428 30.4674 49.8019 29.6421 48.4878V58.7255C29.6421 59.1894 29.8573 59.6263 30.2227 59.9039C30.5882 60.1814 31.0609 60.2673 31.498 60.1356L39.4211 57.7475V51.4791Z" fill="#F1F1F1" fill-opacity="0.5"/>
<path d="M47.9574 52.046C47.3086 52.2594 46.6278 52.3677 45.9337 52.3677C45.9336 52.3677 45.9336 52.3677 45.9336 52.3677C44.5411 52.3677 43.3338 51.9485 42.312 51.517V57.7474L50.235 60.1354C50.3698 60.176 50.5081 60.196 50.6455 60.196C50.9537 60.196 51.2577 60.0957 51.5105 59.9038C51.8759 59.6261 52.0911 59.1893 52.0911 58.7253V48.4294C51.2668 49.7576 50.0524 51.3564 47.9574 52.046Z" fill="#F1F1F1" fill-opacity="0.5"/>
<circle cx="19.0392" cy="61.9608" r="10.0392" fill="#F1F1F1" fill-opacity="0.5"/>
<path d="M48 64L29 63.7727L31.9688 59H41.7656L48 64Z" fill="#E53617"/>
<path fill-rule="evenodd" clip-rule="evenodd" d="M22.858 26.1099C22.858 23.3896 25.0331 21.1765 27.7066 21.1765C30.3802 21.1765 32.5553 23.3896 32.5553 26.1099C32.5553 28.8302 30.3802 31.0433 27.7066 31.0433C25.0331 31.0433 22.858 28.8302 22.858 26.1099ZM25.2823 26.1099C25.2823 27.47 26.3699 28.5765 27.7066 28.5765C29.0434 28.5765 30.131 27.47 30.1309 26.1099C30.1309 24.7498 29.0434 23.6432 27.7066 23.6432C26.3699 23.6432 25.2823 24.7498 25.2823 26.1099ZM41.9911 54.4987C41.9911 55.0617 41.8961 55.6005 41.7064 56.0978C45.2701 56.6766 47.9998 59.7745 48 63.4995C48 64.3279 47.3284 64.9994 46.5001 64.9994H28.5011C27.6728 64.9994 27.0012 64.3279 27.0012 63.4995C27.0012 59.7741 29.7318 56.6758 33.2961 56.0977C33.1066 55.6005 33.0016 55.0618 33.0016 54.4988L33.001 51.9998H28.2354C27.0668 56.0557 25.358 59.8282 23.2461 62.995C21.8706 65.0595 19.0804 65.625 17.0066 64.243C14.9332 62.8629 14.378 60.0722 15.7587 58.0024C17.5769 55.2752 19.007 51.9279 19.9181 48.2798L16.3205 44.6821C14.5614 42.9229 14.5616 40.0777 16.3205 38.3188L22.3202 32.3189C25.1481 29.4909 29.9918 31.5156 29.9918 35.4994V39.6829C29.9918 40.7451 29.9598 41.8223 29.8771 42.9065H37.5013C39.9825 42.9065 41.9911 44.9251 41.9911 47.4063V54.4987ZM18.6694 61.7458C19.3591 62.2055 20.2902 62.0209 20.7501 61.3308C22.5524 58.6279 24.0394 55.4326 25.11 51.9821C24.0736 51.8933 23.1102 51.4528 22.3585 50.7182C21.3674 54.037 19.9701 57.0932 18.2544 59.6666C17.7926 60.3589 17.9789 61.2863 18.6694 61.7458ZM26.8963 42.5315C26.9658 41.573 27.0018 40.6213 27.0018 39.6828V35.4991C27.0018 34.184 25.4072 33.5012 24.4563 34.4263C24.4415 34.4408 24.4458 34.4362 24.4457 34.4361C24.4451 34.4355 24.2764 34.6047 18.4416 40.4397C17.8551 41.0264 17.855 41.9738 18.4416 42.5606L24.4413 48.5604C25.0261 49.1452 25.9773 49.1452 26.5621 48.5604C26.8454 48.2771 27.0017 47.9003 27.0017 47.5001C27.0017 47.0998 26.8454 46.7232 26.5621 46.4398L22.6834 42.5609C22.0977 41.9751 22.0977 41.0254 22.6834 40.4397C23.2692 39.854 24.2189 39.854 24.8046 40.4397L26.8963 42.5315ZM29.7432 49.0096C30.095 48.0096 30.0823 46.8897 29.7077 45.8962H37.5012C38.3283 45.8962 39.0011 46.5791 39.0011 47.4061V54.4985C39.0011 55.3256 38.3283 55.9984 37.5012 55.9984C36.6742 55.9984 35.9914 55.3256 35.9914 54.4982L35.9906 50.4993C35.9904 49.671 35.3289 49.0096 34.5006 49.0096H29.7432ZM34.5006 58.9993C32.545 58.9993 30.8769 60.2632 30.2579 62.0093H44.7431C44.124 60.2631 42.4559 58.9993 40.5003 58.9993H34.5006Z" fill="black"/>
</svg>
