<svg width="1440" height="897" viewBox="0 0 1440 897" fill="none" xmlns="http://www.w3.org/2000/svg">
<path opacity="0.08" d="M314.933 -20.4194C310.09 -25.2611 310.09 -33.1426 314.933 -37.9843L316.697 -39.7481C319.038 -42.0898 322.157 -43.3806 325.479 -43.3806C328.8 -43.3806 331.919 -42.0898 334.261 -39.7481L459.611 85.602C461.954 87.9446 463.243 91.0631 463.243 94.3844C463.243 97.7066 461.954 100.825 459.611 103.167L457.846 104.931C453.005 109.774 445.125 109.774 440.283 104.931L314.933 -20.4194ZM449.065 110.183C452.819 110.183 456.345 108.724 458.994 106.078L460.757 104.313C466.231 98.839 466.229 89.9316 460.757 84.4557L335.407 -40.8944C332.76 -43.5417 329.233 -45 325.479 -45C321.725 -45 318.198 -43.5417 315.551 -40.8944L313.786 -39.1306C311.139 -36.4833 309.681 -32.9565 309.681 -29.2018C309.681 -25.4472 311.139 -21.9213 313.786 -19.2731L439.136 106.078C441.784 108.724 445.31 110.183 449.065 110.183Z" fill="#030404"/>
<path opacity="0.08" d="M1397.21 748.367C1405.73 746.083 1414.71 750.199 1418.53 758.156C1422.93 767.292 1419.07 778.303 1409.94 782.701L1270.59 849.767C1266.17 851.896 1261.18 852.175 1256.54 850.554C1251.91 848.931 1248.18 845.6 1246.05 841.174C1241.66 832.038 1245.51 821.028 1254.64 816.631L1393.98 749.564C1395.03 749.064 1396.11 748.662 1397.21 748.367ZM1419.99 757.453C1415.2 747.514 1403.23 743.317 1393.29 748.104L1253.94 815.171C1244 819.956 1239.81 831.936 1244.59 841.876C1246.91 846.692 1250.96 850.317 1256.01 852.082C1259.82 853.419 1263.89 853.578 1267.76 852.542C1268.96 852.218 1270.16 851.776 1271.3 851.227L1410.64 784.159C1420.58 779.376 1424.78 767.393 1419.99 757.453Z" fill="#030404"/>
<path opacity="0.08" d="M8.95959 377.62L117.256 348.602C119.269 348.063 121.347 349.262 121.886 351.276L123.772 358.312C124.311 360.325 123.112 362.402 121.098 362.942L12.8019 391.96C10.7886 392.499 8.71197 391.3 8.17252 389.286L6.28722 382.25C5.74777 380.237 6.94634 378.16 8.95959 377.62ZM121.518 364.507C124.395 363.736 126.108 360.769 125.337 357.892L123.451 350.856C122.681 347.979 119.714 346.266 116.837 347.037L8.54021 376.055C5.66478 376.826 3.95112 379.792 4.72207 382.67L6.60737 389.706C7.37832 392.583 10.3458 394.295 13.2212 393.525L121.518 364.507Z" fill="#030404"/>
<path opacity="0.08" d="M939.68 765.457C903.538 765.457 874.135 794.86 874.135 831.001C874.135 867.143 903.538 896.546 939.68 896.546C975.821 896.546 1005.22 867.143 1005.22 831.001C1005.22 794.86 975.821 765.457 939.68 765.457ZM939.68 898.001C902.735 898.001 872.68 867.945 872.68 831.001C872.68 794.058 902.735 764.001 939.68 764.001C976.624 764.001 1006.68 794.058 1006.68 831.001C1006.68 867.945 976.624 898.001 939.68 898.001Z" fill="#030404"/>
<path opacity="0.08" d="M776.137 212.084C775.973 212.04 775.826 211.934 775.734 211.776C775.553 211.46 775.662 211.056 775.976 210.873L950.722 109.985C951.038 109.802 951.443 109.911 951.626 110.227C951.807 110.543 951.698 110.947 951.384 111.13L776.638 212.018C776.48 212.11 776.299 212.128 776.137 212.084Z" fill="#030404"/>
<circle cx="563.68" cy="698.001" r="76.5" stroke="#030404" stroke-opacity="0.08"/>
<line x1="632.626" y1="767.655" x2="494.026" y2="629.055" stroke="#030404" stroke-opacity="0.08"/>
<g opacity="0.95">
<path d="M1359.38 353.703L1391.94 353.703C1391.94 388.264 1420.05 416.381 1454.61 416.381L1454.61 448.937C1402.1 448.937 1359.38 406.215 1359.38 353.703Z" fill="#175FE5"/>
<path d="M202.749 958.001L166.715 921.968C184.085 904.598 184.085 876.334 166.715 858.965C149.345 841.597 121.083 841.597 103.714 858.965L67.6794 822.931C104.918 785.692 165.511 785.692 202.749 822.931C239.989 860.17 239.989 920.762 202.749 958.001Z" fill="#15D16B"/>
<path d="M85.1054 795.001H50.6794V829.427H85.1054V795.001Z" fill="#F0C900"/>
<path d="M472.945 97.8145C478.594 103.462 478.594 112.62 472.945 118.267C467.298 123.915 458.141 123.915 452.493 118.267C446.845 112.62 446.845 103.462 452.493 97.8145C458.141 92.1673 467.298 92.1673 472.945 97.8145Z" fill="#F0C900"/>
<path d="M1333.94 844.147C1323.03 847.071 1316.53 858.33 1319.45 869.243C1322.38 880.156 1333.63 886.657 1344.55 883.733C1355.46 880.809 1361.96 869.55 1359.04 858.636C1356.11 847.723 1344.85 841.223 1333.94 844.147ZM1350.06 904.304C1327.8 910.267 1304.84 897.008 1298.88 874.755C1292.92 852.498 1306.17 829.54 1328.43 823.577C1350.68 817.613 1373.64 830.868 1379.61 853.124C1385.57 875.377 1372.32 898.34 1350.06 904.304Z" fill="#15D16B"/>
<path d="M1336.03 758.172C1334.12 751.061 1338.34 743.752 1345.45 741.847C1352.56 739.941 1359.87 744.162 1361.78 751.272C1363.68 758.382 1359.46 765.691 1352.35 767.596C1345.24 769.501 1337.93 765.282 1336.03 758.172Z" fill="#E53617"/>
<path d="M1350.92 727.014C1348.02 721.828 1343.95 717.19 1338.78 713.526C1320.21 700.367 1294.49 704.752 1281.33 723.321C1268.17 741.89 1272.56 767.611 1291.12 780.77C1297.38 785.202 1304.45 787.644 1311.57 788.224L1350.92 727.014Z" fill="#175FE5"/>
<path d="M-109.037 261.624L-62.6934 181.354L108.6 280.252L62.2572 360.521L-109.037 261.624Z" fill="#E53617"/>
<path d="M-2.88026 436.966L41.5237 385.733L84.1721 438.436C84.1721 438.436 -3.07101 436.962 -2.88026 436.966Z" fill="#175FE5"/>
<path d="M939.68 909.001V884.289C969.062 884.289 992.967 860.383 992.967 831.001H1017.68C1017.68 874.01 982.688 909.001 939.68 909.001Z" fill="#F0C900"/>
<path d="M933.231 121.662L911.232 203.766L829.128 181.766" fill="#E53617"/>
<path d="M802.183 197.323L824.442 114.253L906.546 136.253" fill="#F0C900"/>
<path d="M512.783 647.001C484.645 675.139 484.645 720.76 512.783 748.898C540.921 777.036 586.542 777.036 614.679 748.898L512.783 647.001Z" fill="#E53617"/>
</g>
</svg>
