<svg width="81" height="80" viewBox="0 0 81 80" fill="none" xmlns="http://www.w3.org/2000/svg">
<path d="M74.4389 46.9272H71.3931V18.6209C71.3931 14.4022 68.4645 11 64.8329 11H38.2408C38.1236 11 38.0065 11 37.8893 11.068C34.2578 11.5444 31.6806 15.2868 32.032 19.5055C32.3835 23.0438 34.785 25.9016 37.8893 26.3099C38.0065 26.3099 38.1236 26.3779 38.2408 26.3779H38.5922V54.6843V54.7523C38.6508 58.903 41.5794 62.3052 45.1524 62.3052H73.9703H74.146H74.4389C78.0704 62.3052 80.9991 58.903 80.9991 54.6843C81.0577 50.3294 78.0704 46.9272 74.4389 46.9272ZM38.5922 22.2273V22.1592C36.8936 22.1592 35.5464 20.5942 35.5464 18.6209C35.5464 16.6477 36.8936 15.0826 38.5922 15.0826H59.0342C58.0385 17.3281 58.0385 19.9818 59.0342 22.2273H38.5922ZM66.7073 50.0573H42.6923V45.9746H66.7073V50.0573ZM66.7073 41.892H42.6923V37.8093H66.7073V41.892ZM66.7073 33.7267H42.6923V29.6441H66.7073V33.7267ZM74.4975 58.0865C72.7989 58.0865 71.4517 56.5215 71.4517 54.5482V51.0099H74.4975C76.1961 51.0099 77.5433 52.5749 77.5433 54.5482C77.5433 56.5215 76.1961 58.0865 74.4975 58.0865Z" fill="#F1F1F1" fill-opacity="0.5"/>
<rect x="10" y="53.519" width="17.1429" height="22.7692" rx="2.85714" fill="#F1F1F1" fill-opacity="0.5"/>
<ellipse cx="29.5828" cy="27.9447" rx="4.41238" ry="4.39541" fill="#E53617"/>
<path d="M29.6341 23C26.7594 23 24.4634 25.4043 24.4634 28.2367C24.4634 31.0769 26.783 33.3876 29.6341 33.3876C32.4853 33.3876 34.8049 31.0769 34.8049 28.2367C34.8049 25.402 32.506 23 29.6341 23ZM29.6341 30.8121C28.2086 30.8121 27.0488 29.6568 27.0488 28.2367C27.0488 26.7941 28.2327 25.5754 29.6341 25.5754C31.0356 25.5754 32.2195 26.7941 32.2195 28.2367C32.2195 29.6568 31.0597 30.8121 29.6341 30.8121Z" fill="#E53617"/>
<path d="M59.2457 24H40.9757C38.8373 24 37.0976 25.733 37.0976 27.8631V36.651L35.9615 35.5193C35.229 34.7895 34.2552 34.3876 33.2196 34.3876H30.6342C30.0862 34.3876 26.0115 34.3876 25.4634 34.3876C21.8995 34.3876 19 37.2759 19 40.8262C19 41.5584 19 47.4948 19 48.5525C19 50.6826 20.7397 52.4156 22.8781 52.4156C23.3311 52.4156 23.7663 52.3378 24.1708 52.195V64.0909C24.1708 66.221 25.9105 67.9541 28.0488 67.9541C29.0412 67.9541 29.9476 67.5809 30.6342 66.968C31.3208 67.5809 32.2272 67.9541 33.2196 67.9541C35.3579 67.9541 37.0976 66.221 37.0976 64.0909V47.0453C38.086 47.3926 39.1809 47.3257 40.1248 46.8572L44.4772 44.6893H59.2457C61.3841 44.6893 63.1238 42.9563 63.1238 40.8262V27.8631C63.1238 25.733 61.3841 24 59.2457 24ZM44.1393 41.9782L38.9701 44.5528C38.4851 44.7935 37.8828 44.7168 37.4763 44.3119L36.7191 43.5576C35.9197 42.7613 34.5158 43.3029 34.5123 44.4641C34.5123 44.4654 34.5122 44.4666 34.5122 44.4679V64.0909C34.5122 64.801 33.9323 65.3786 33.2195 65.3786C32.5067 65.3786 31.9268 64.801 31.9268 64.0909V51.1279C31.9268 50.4167 31.348 49.8402 30.6341 49.8402C29.9202 49.8402 29.3414 50.4167 29.3414 51.1279V64.0909C29.3414 64.801 28.7615 65.3786 28.0487 65.3786C27.3359 65.3786 26.756 64.801 26.756 64.0909V48.5525C26.756 47.5815 26.756 41.6197 26.756 40.8262C26.756 40.115 26.1773 39.5384 25.4634 39.5384C24.7494 39.5384 24.1707 40.115 24.1707 40.8262C24.1707 41.5584 24.1707 47.4948 24.1707 48.5525C24.1707 49.2625 23.5908 49.8402 22.878 49.8402C22.1652 49.8402 21.5853 49.2625 21.5853 48.5525C21.5854 47.5815 21.5854 41.6197 21.5854 40.8262C21.5854 38.696 23.3251 36.963 25.4634 36.963C26.4381 36.963 32.4229 36.963 33.2196 36.963C33.5646 36.963 33.8892 37.097 34.1334 37.3404L37.9862 41.1784C38.3796 41.5703 38.9807 41.6674 39.4783 41.4196L42.9832 39.6739C43.6247 39.3541 44.3978 39.6126 44.7174 40.2501C45.0372 40.8872 44.7788 41.6597 44.1393 41.9782ZM60.5384 40.8262C60.5384 41.5362 59.9585 42.1139 59.2457 42.1139H47.2167C47.2246 42.0918 47.2332 42.0702 47.2406 42.0479C47.4267 41.4917 47.4826 40.9132 47.4114 40.3482L54.4807 36.8271C55.1193 36.5091 55.3781 35.7356 55.0588 35.0994C54.7395 34.4633 53.9629 34.2054 53.3244 34.5236L46.2556 38.0444C45.123 36.9531 43.3588 36.6067 41.8265 37.3706L39.683 38.4383V27.8631C39.683 27.1531 40.2629 26.5754 40.9757 26.5754H59.2457C59.9585 26.5754 60.5384 27.1531 60.5384 27.8631V40.8262Z" fill="black"/>
</svg>
