<svg width="80" height="80" viewBox="0 0 80 80" fill="none" xmlns="http://www.w3.org/2000/svg">
<path d="M68.4559 16.9627H65.8824V11.5824C65.8556 10.7201 65.1797 10.0274 64.3382 10H39.9412C37.2122 10 35 12.2671 35 15.0638V48.5057C35 51.3024 37.2122 53.5695 39.9412 53.5695H68.4559C69.3087 53.5695 70 52.861 70 51.9871V18.5451C70 17.6712 69.3087 16.9627 68.4559 16.9627ZM52.9118 33.7892L49.2059 30.6771C48.6993 30.3642 48.0654 30.3642 47.5588 30.6771L43.8529 33.7892V20.1275H52.9118V33.7892ZM62.7941 16.9627H39.9412C38.9178 16.9627 38.0882 16.1125 38.0882 15.0638C38.0882 14.015 38.9178 13.1649 39.9412 13.1649H62.7941V16.9627Z" fill="#F1F1F1" fill-opacity="0.5"/>
<rect x="10" y="39.4895" width="24" height="30" rx="2.90312" fill="#F1F1F1" fill-opacity="0.5"/>
<path fill-rule="evenodd" clip-rule="evenodd" d="M49.8796 53.0294L54.1943 53.0037C54.7247 53.0037 55.125 53.4409 55.125 53.9524C55.125 61.2944 49.2987 67.2676 42.1372 67.2676C41.6243 67.2676 41.2089 66.8393 41.2119 66.3135L41.2316 62.83C39.9012 62.6899 38.8599 61.5342 38.8599 60.1338C38.8599 58.7315 39.9039 57.5746 41.2369 57.4371V53.9486C41.2369 53.4275 41.648 52.9984 42.1685 53L46.4357 53.0294C47.006 53.0333 47.243 53.5244 47.243 53.5244C47.4421 53.8665 47.3736 54.6534 47.3736 54.6534C47.3736 54.6534 47.7294 55.4664 48.1666 55.4664C48.6039 55.4664 48.9597 55.1017 48.9597 54.6534V53.9781C48.9597 53.4563 49.3707 53.0324 49.8796 53.0294Z" fill="#E53617"/>
<path d="M45.0789 51.5707C47.1731 51.5707 48.9009 49.9319 49.1062 47.8394H54.3545C55.1369 47.8394 55.7712 47.189 55.7712 46.3869C55.7712 35.1456 46.8505 26 35.8857 26C24.9208 26 16 35.1456 16 46.387C16 57.6284 24.9207 66.774 35.8857 66.774C36.6681 66.774 37.3024 66.1237 37.3024 65.3215V58.5094C37.3024 57.7072 36.6681 57.0569 35.8857 57.0569H34.8771C34.2077 57.0569 33.663 56.4985 33.663 55.8121C33.663 55.1258 34.2077 54.5673 34.8771 54.5673H35.8374C36.5735 54.5673 37.3024 53.954 37.3024 53.0854V47.8043L41.0507 47.8302C41.2517 49.927 42.9816 51.5707 45.0789 51.5707ZM52.8794 44.9345H47.7099C46.9275 44.9345 46.2932 45.5848 46.2932 46.387V47.421C46.2932 48.1074 45.7485 48.6658 45.0789 48.6658C44.4095 48.6658 43.8648 48.1074 43.8648 47.421V46.4365C43.8648 45.6811 43.268 44.9403 42.4288 44.9346L37.3025 44.8994V41.0908C39.3435 40.8804 40.942 39.109 40.942 36.9619C40.942 34.8149 39.3436 33.0436 37.3025 32.8331V28.9659C45.5773 29.6671 52.1958 36.4507 52.8794 44.9345ZM34.4689 28.9657V34.2645C34.4689 35.0667 35.1032 35.717 35.8857 35.717H36.8942C37.5637 35.717 38.1084 36.2754 38.1084 36.9619C38.1084 37.6483 37.5637 38.2067 36.8942 38.2067H35.9339C35.193 38.2067 34.4689 38.8251 34.4689 39.6886V44.9344H30.7196C30.5144 42.842 28.7865 41.2031 26.6923 41.2031C24.5981 41.2031 22.8703 42.8419 22.6649 44.9344H18.8928C19.5767 36.4511 26.1941 29.6669 34.4689 28.9657ZM30.8294 55.812C30.8294 57.9591 32.4278 59.7304 34.4689 59.9409V63.8092C26.1938 63.1084 19.5769 56.323 18.8931 47.8395H24.0614C24.8438 47.8395 25.4781 47.1891 25.4781 46.387V45.353C25.4781 44.6667 26.0228 44.1083 26.6924 44.1083C27.3619 44.1083 27.9066 44.6667 27.9066 45.353V46.3375C27.9066 47.0972 28.5098 47.8395 29.3521 47.8395H34.4689V51.6832C32.4278 51.8936 30.8294 53.665 30.8294 55.812Z" fill="black"/>
</svg>
