<svg width="360" height="542" viewBox="0 0 360 542" fill="none" xmlns="http://www.w3.org/2000/svg">
<path opacity="0.08" d="M4.59613 294.982L25.0856 289.492C25.4665 289.39 25.8596 289.616 25.9616 289.997L26.3183 291.329C26.4204 291.709 26.1934 292.103 25.8125 292.205L5.32308 297.695C4.94218 297.797 4.54929 297.57 4.44722 297.189L4.09053 295.858C3.98847 295.477 4.21523 295.084 4.59613 294.982ZM25.8919 292.501C26.4362 292.355 26.7603 291.794 26.6144 291.249L26.2577 289.918C26.1119 289.374 25.5506 289.05 25.0062 289.195L4.51679 294.686C3.97276 294.831 3.64854 295.393 3.7944 295.937L4.1511 297.268C4.29696 297.813 4.8584 298.137 5.40243 297.991L25.8919 292.501Z" fill="#030404"/>
<path d="M-17.7286 273.036L-8.96045 257.849L23.4479 276.56L14.6799 291.747L-17.7286 273.036Z" fill="#E53617"/>
<path d="M2.35606 306.21L10.7572 296.517L18.8262 306.488C18.8262 306.488 2.31997 306.209 2.35606 306.21Z" fill="#175FE5"/>
<path opacity="0.08" d="M84.6968 3.6202C82.2101 1.13438 82.2101 -2.91215 84.6968 -5.39797L85.6025 -6.30359C86.8042 -7.50585 88.4058 -8.16854 90.1111 -8.16854C91.8163 -8.16854 93.4179 -7.50585 94.6201 -6.30359L158.978 58.0539C160.18 59.2567 160.842 60.8578 160.842 62.563C160.842 64.2687 160.18 65.8698 158.978 67.0721L158.072 67.9777C155.586 70.4645 151.54 70.4645 149.054 67.9777L84.6968 3.6202ZM153.563 70.6741C155.491 70.6741 157.301 69.9254 158.661 68.5667L159.566 67.6606C162.376 64.8501 162.375 60.2768 159.566 57.4654L95.2087 -6.89212C93.8495 -8.25126 92.0388 -9 90.1111 -9C88.1838 -9 86.3731 -8.25126 85.0139 -6.89212L84.1078 -5.9865C82.7487 -4.62736 82.0004 -2.81659 82.0004 -0.888882C82.0004 1.03883 82.7487 2.84912 84.1078 4.20874L148.465 68.5667C149.825 69.9254 151.635 70.6741 153.563 70.6741Z" fill="#030404"/>
<path d="M165.824 64.3242C168.724 67.2236 168.724 71.9257 165.824 74.8251C162.924 77.725 158.223 77.725 155.323 74.8251C152.423 71.9257 152.423 67.2236 155.323 64.3242C158.223 61.4247 162.924 61.4247 165.824 64.3242Z" fill="#F0C900"/>
<path opacity="0.08" d="M246.222 133.458C246.165 133.443 246.114 133.406 246.082 133.351C246.019 133.241 246.057 133.1 246.166 133.036L306.97 97.9318C307.08 97.8683 307.221 97.906 307.284 98.016C307.347 98.126 307.31 98.2665 307.2 98.3302L246.397 133.435C246.342 133.467 246.279 133.473 246.222 133.458Z" fill="#030404"/>
<path d="M300.884 101.995L293.229 130.563L264.661 122.909" fill="#E53617"/>
<path d="M255.285 128.322L263.03 99.417L291.599 107.072" fill="#F0C900"/>
<path d="M331.853 244.276L342.795 247.208C339.682 258.824 346.6 270.806 358.216 273.919L355.284 284.861C337.635 280.132 327.124 261.925 331.853 244.276Z" fill="#175FE5"/>
<circle cx="140.793" cy="425.793" r="26.2926" stroke="#030404" stroke-opacity="0.08"/>
<line x1="164.553" y1="450.259" x2="116.326" y2="402.033" stroke="#030404" stroke-opacity="0.08"/>
<path d="M123.083 408.047C113.292 417.838 113.292 433.712 123.083 443.502C132.874 453.293 148.748 453.293 158.539 443.502L123.083 408.047Z" fill="#E53617"/>
<path d="M71.9138 562.717L59.3755 550.179C65.4195 544.135 65.4195 534.3 59.3755 528.256C53.3316 522.213 43.4977 522.213 37.4538 528.256L24.9155 515.718C37.8729 502.761 58.9565 502.761 71.9138 515.718C84.8718 528.676 84.8718 549.759 71.9138 562.717Z" fill="#15D16B"/>
<path d="M30.9787 506H19V517.978H30.9787V506Z" fill="#F0C900"/>
<path opacity="0.08" d="M370.945 491.873C373.911 491.078 377.033 492.511 378.365 495.279C379.894 498.458 378.552 502.289 375.373 503.819L326.888 527.156C325.348 527.896 323.612 527.993 321.999 527.429C320.386 526.865 319.09 525.706 318.348 524.166C316.819 520.987 318.16 517.156 321.339 515.626L369.822 492.289C370.186 492.115 370.562 491.976 370.945 491.873ZM378.873 495.034C377.206 491.576 373.039 490.116 369.579 491.782L321.094 515.118C317.635 516.783 316.176 520.951 317.841 524.41C318.647 526.086 320.058 527.347 321.813 527.961C323.141 528.426 324.556 528.482 325.902 528.121C326.321 528.009 326.736 527.855 327.132 527.664L375.619 504.327C379.076 502.663 380.537 498.493 378.873 495.034Z" fill="#030404"/>
<path d="M348.93 525.2C345.133 526.218 342.872 530.135 343.889 533.932C344.907 537.73 348.824 539.992 352.621 538.974C356.419 537.957 358.68 534.039 357.663 530.242C356.645 526.444 352.728 524.183 348.93 525.2ZM354.539 546.132C346.795 548.207 338.806 543.593 336.732 535.85C334.656 528.106 339.269 520.117 347.013 518.043C354.757 515.967 362.745 520.58 364.82 528.324C366.895 536.067 362.283 544.057 354.539 546.132Z" fill="#15D16B"/>
<path d="M349.657 495.285C348.994 492.81 350.462 490.267 352.936 489.604C355.41 488.941 357.954 490.41 358.617 492.884C359.279 495.358 357.811 497.901 355.337 498.564C352.863 499.227 350.32 497.759 349.657 495.285Z" fill="#E53617"/>
<path d="M354.838 484.443C353.829 482.638 352.413 481.025 350.614 479.75C344.153 475.171 335.203 476.697 330.624 483.158C326.045 489.619 327.571 498.569 334.032 503.148C336.209 504.69 338.668 505.54 341.147 505.741L354.838 484.443Z" fill="#175FE5"/>
<path opacity="0.08" d="M219.313 497.506C206.737 497.506 196.506 507.737 196.506 520.313C196.506 532.889 206.737 543.12 219.313 543.12C231.889 543.12 242.12 532.889 242.12 520.313C242.12 507.737 231.889 497.506 219.313 497.506ZM219.313 543.626C206.458 543.626 196 533.168 196 520.313C196 507.458 206.458 497 219.313 497C232.168 497 242.626 507.458 242.626 520.313C242.626 533.168 232.168 543.626 219.313 543.626Z" fill="#030404"/>
<path d="M219.313 547.454V538.855C229.537 538.855 237.855 530.537 237.855 520.313H246.454C246.454 535.278 234.278 547.454 219.313 547.454Z" fill="#F0C900"/>
</svg>
