<svg width="140" height="120" viewBox="0 0 140 120" fill="none" xmlns="http://www.w3.org/2000/svg">
<rect width="140" height="120" fill="#FDF7F1"/>
<path opacity="0.08" d="M27.0102 27.0877C24.2342 24.3128 24.2342 19.7957 27.0102 17.0209L28.0211 16.01C29.3627 14.6679 31.1505 13.9281 33.054 13.9281C34.9575 13.9281 36.7453 14.6679 38.0874 16.01L109.928 87.8509C111.271 89.1935 112.01 90.9808 112.01 92.8843C112.01 94.7884 111.271 96.5757 109.928 97.9177L108.917 98.9286C106.142 101.705 101.626 101.705 98.8511 98.9286L27.0102 27.0877ZM103.884 101.939C106.036 101.939 108.057 101.103 109.574 99.5862L110.585 98.5747C113.722 95.4374 113.721 90.3323 110.585 87.194L38.7444 15.353C37.2272 13.8358 35.2058 13 33.054 13C30.9026 13 28.8813 13.8358 27.3642 15.353L26.3527 16.3639C24.8355 17.8811 24.0002 19.9024 24.0002 22.0543C24.0002 24.2061 24.8355 26.2269 26.3527 27.7446L98.1936 99.5862C99.7114 101.103 101.732 101.939 103.884 101.939Z" fill="#030404"/>
<path d="M114.571 91.8503C117.808 95.0868 117.808 100.336 114.571 103.572C111.334 106.809 106.086 106.809 102.849 103.572C99.6122 100.336 99.6122 95.0868 102.849 91.8503C106.086 88.6137 111.334 88.6137 114.571 91.8503Z" fill="#F0C900"/>
</svg>
