<svg width="81" height="80" viewBox="0 0 81 80" fill="none" xmlns="http://www.w3.org/2000/svg">
<path d="M24.5714 52.4287L37.1907 67.0001H11.9522L24.5714 52.4287Z" fill="#F1F1F1" fill-opacity="0.5"/>
<path d="M79.8504 16.887H74.8143C74.8326 16.3184 74.8427 15.7465 74.8427 15.1719C74.8427 14.5246 74.3278 14 73.693 14H49.0633C48.4282 14 47.9135 14.5246 47.9135 15.1719C47.9135 15.7465 47.9234 16.3184 47.9417 16.887H42.9056C42.2705 16.887 41.7559 17.4116 41.7559 18.0589C41.7559 23.3098 43.1023 28.2637 45.547 32.0086C47.9635 35.7107 51.1825 37.8341 54.6595 38.0407C55.4479 38.915 56.2814 39.6279 57.1494 40.1718V45.3802H55.2206C52.8888 45.3802 50.9921 47.3139 50.9921 49.6903V51.6562H50.9103C50.2753 51.6562 49.7606 52.1811 49.7606 52.8281C49.7606 53.4754 50.2753 54 50.9103 54H71.8456C72.4807 54 72.9954 53.4754 72.9954 52.8281C72.9954 52.1811 72.4807 51.6562 71.8456 51.6562H71.7639V49.6903C71.7639 47.3139 69.8668 45.3802 67.5353 45.3802H65.6065V40.1718C66.4745 39.6279 67.3078 38.915 68.0961 38.0407C71.5735 37.8341 74.7921 35.7107 77.209 32.0086C79.6537 28.2637 81.0001 23.3098 81.0001 18.0589C81.0001 17.4116 80.4851 16.887 79.8504 16.887ZM47.4614 30.7103C45.4449 27.6213 44.2601 23.5817 44.0796 19.2308H48.0701C48.4848 24.5793 49.7166 29.5229 51.6418 33.4475C51.9484 34.0725 52.269 34.6627 52.6017 35.219C50.6894 34.4829 48.9195 32.9442 47.4614 30.7103ZM75.2945 30.7103C73.8364 32.9442 72.0666 34.4829 70.1543 35.219C70.4872 34.6627 70.8076 34.0725 71.1142 33.4475C73.0394 29.5229 74.2709 24.5793 74.6858 19.2308H78.6764C78.4958 23.5817 77.3111 27.6213 75.2945 30.7103Z" fill="#F1F1F1" fill-opacity="0.5"/>
<ellipse cx="42.0586" cy="42.9448" rx="5.48535" ry="5.48535" fill="#E53617"/>
<path d="M60.7786 31.4974L62.9069 29.3694C63.2604 29.0155 63.3769 28.4885 63.2052 28.0188C63.0334 27.5487 62.6046 27.2213 62.1057 27.1791L58.1574 26.846L57.8243 22.8977C57.7824 22.3992 57.4547 21.9703 56.985 21.7986C56.5152 21.6265 55.9883 21.743 55.6344 22.0969L53.5061 24.2249C50.0643 22.1146 46.1291 21.0034 42.0586 21.0034C36.1979 21.0034 30.6878 23.2857 26.5437 27.4299C22.3995 31.574 20.1172 37.0842 20.1172 42.9448C20.1172 48.8055 22.3995 54.3156 26.5437 58.4598C30.6878 62.6039 36.1979 64.8862 42.0586 64.8862C47.9193 64.8862 53.4294 62.6039 57.5735 58.4598C61.7177 54.3156 64 48.8055 64 42.9448C64 38.8743 62.8888 34.9394 60.7786 31.4974ZM55.6863 28.144C55.7392 28.7688 56.2347 29.2643 56.8594 29.3172L59.131 29.5087L56.0562 32.5835L52.7029 32.3006L52.42 28.9472L55.4948 25.8724L55.6863 28.144ZM46.4297 42.9448C46.4297 45.355 44.4688 47.316 42.0586 47.316C39.6484 47.316 37.6875 45.355 37.6875 42.9448C37.6875 40.5346 39.6484 38.5737 42.0586 38.5737C42.7968 38.5737 43.4922 38.7582 44.1025 39.0826L41.1496 42.0358C40.6474 42.5377 40.6474 43.3516 41.1496 43.8538C41.4004 44.1049 41.7295 44.2305 42.0586 44.2305C42.3877 44.2305 42.7168 44.1049 42.9676 43.8538L45.9208 40.9009C46.2453 41.5112 46.4297 42.2066 46.4297 42.9448ZM45.9714 37.2137C44.8565 36.4504 43.5089 36.0024 42.0586 36.0024C38.2305 36.0024 35.1162 39.1167 35.1162 42.9448C35.1162 46.7729 38.2305 49.8872 42.0586 49.8872C45.8867 49.8872 49.001 46.7729 49.001 42.9448C49.001 41.4945 48.553 40.1469 47.7897 39.032L51.4604 35.3613C53.1374 37.4364 54.1435 40.0753 54.1435 42.9448C54.1435 49.6083 48.7221 55.0297 42.0586 55.0297C35.3951 55.0297 29.9737 49.6083 29.9737 42.9448C29.9737 36.2813 35.3951 30.8599 42.0586 30.8599C44.9282 30.8599 47.567 31.866 49.6421 33.543L45.9714 37.2137ZM55.7552 56.6415C52.0969 60.3001 47.2326 62.315 42.0586 62.315C36.8846 62.315 32.0203 60.3001 28.362 56.6415C24.7033 52.9831 22.6884 48.1188 22.6884 42.9448C22.6884 37.7708 24.7033 32.9065 28.362 29.2482C32.0203 25.5895 36.8846 23.5747 42.0586 23.5747C45.4434 23.5747 48.7221 24.4442 51.6298 26.1011L50.1798 27.5511C49.9455 27.7854 49.8119 28.0995 49.8035 28.4273C49.8025 28.4741 49.8038 28.521 49.8075 28.5682L49.9806 30.6195C47.6949 29.1451 44.975 28.2887 42.0586 28.2887C33.9772 28.2887 27.4024 34.8634 27.4024 42.9448C27.4024 51.0262 33.9772 57.601 42.0586 57.601C50.14 57.601 56.7148 51.0262 56.7148 42.9448C56.7148 40.0284 55.8583 37.3085 54.3839 35.0228L56.4352 35.1959C56.4714 35.1986 56.5075 35.2002 56.5434 35.2002C56.5494 35.2002 56.5557 35.1996 56.5618 35.1992C56.5788 35.1992 56.5956 35.1979 56.6127 35.1969C56.6404 35.1952 56.6686 35.1936 56.696 35.1902C56.7131 35.1879 56.7302 35.1852 56.7472 35.1825C56.7744 35.1782 56.8011 35.1731 56.8279 35.1671C56.845 35.1631 56.8617 35.1587 56.8785 35.1544C56.9046 35.1473 56.9304 35.1393 56.9562 35.1306C56.9729 35.1249 56.9893 35.1192 57.0057 35.1129C57.0308 35.1032 57.0556 35.0924 57.0804 35.0807C57.0961 35.0737 57.1118 35.0667 57.1276 35.0586C57.1524 35.0459 57.1765 35.0318 57.2002 35.0178C57.2146 35.0091 57.229 35.001 57.2431 34.9923C57.2685 34.9756 57.293 34.9575 57.3174 34.9391C57.3288 34.9304 57.3405 34.9227 57.3516 34.9137C57.3864 34.8855 57.4202 34.8557 57.4523 34.8236L58.9023 33.3736C60.5593 36.2813 61.4287 39.56 61.4287 42.9448C61.4287 48.1188 59.4139 52.9831 55.7552 56.6415Z" fill="black"/>
</svg>
