<svg width="140" height="120" viewBox="0 0 140 120" fill="none" xmlns="http://www.w3.org/2000/svg">
<rect width="140" height="120" fill="#F1F6FD"/>
<path opacity="0.08" d="M105.11 36.1366C108.8 35.1523 112.686 36.9262 114.344 40.355C116.246 44.2923 114.577 49.0376 110.621 50.9329L50.2832 79.8359C48.366 80.7533 46.2063 80.8736 44.1989 80.175C42.1918 79.4758 40.5783 78.0401 39.6559 76.1329C37.7524 72.1954 39.4213 67.4506 43.3769 65.5555L103.713 36.6524C104.165 36.4368 104.633 36.2636 105.11 36.1366ZM114.976 40.052C112.901 35.7689 107.716 33.9602 103.411 36.0233L43.0731 64.9264C38.7685 66.9885 36.9519 72.1515 39.0238 76.4353C40.028 78.5107 41.7831 80.0731 43.9674 80.8337C45.6202 81.41 47.3803 81.4785 49.0557 81.0317C49.5777 80.8925 50.0934 80.7017 50.5871 80.4651L110.927 51.5614C115.228 49.5 117.047 44.3362 114.976 40.052Z" fill="#030404"/>
<path d="M77.7138 77.414C72.9883 78.6742 70.174 83.5261 71.4402 88.2293C72.7064 92.9325 77.5813 95.7342 82.3068 94.474C87.0328 93.2137 89.8469 88.3614 88.5807 83.6583C87.3145 78.9551 82.4398 76.1537 77.7138 77.414ZM84.6935 103.339C75.0565 105.909 65.1147 100.195 62.5328 90.6047C59.9505 81.013 65.6901 71.1188 75.3271 68.5488C84.9645 65.9788 94.9058 71.6911 97.4881 81.2829C100.07 90.873 94.331 100.769 84.6935 103.339Z" fill="#175FE5"/>
<path d="M78.6174 40.3618C77.7924 37.2975 79.6192 34.1475 82.698 33.3264C85.7769 32.5053 88.9422 34.3241 89.7672 37.3884C90.5921 40.4527 88.7645 43.6022 85.6856 44.4233C82.6067 45.2443 79.4424 43.4261 78.6174 40.3618Z" fill="#F0C900"/>
<path d="M85.0648 26.9345C83.8097 24.6992 82.0467 22.7006 79.808 21.1213C71.7673 15.4503 60.6297 17.3401 54.9317 25.3427C49.2336 33.3453 51.1329 44.4299 59.1732 50.1011C61.8819 52.0111 64.9418 53.0636 68.0271 53.3133L85.0648 26.9345Z" fill="#15D16B"/>
</svg>
