<svg width="140" height="120" viewBox="0 0 140 120" fill="none" xmlns="http://www.w3.org/2000/svg">
<rect width="140" height="120" fill="#FEF3F1"/>
<path opacity="0.08" d="M72.9919 86.1923L110.7 76.0573C111.401 75.8689 112.124 76.2878 112.312 76.9909L112.968 79.4484C113.156 80.1516 112.738 80.8772 112.037 81.0656L74.3297 91.2006C73.6287 91.389 72.9056 90.97 72.7178 90.2668L72.0614 87.8094C71.8735 87.1062 72.2909 86.3807 72.9919 86.1923ZM112.184 81.6123C113.185 81.343 113.782 80.3068 113.513 79.3019L112.857 76.8445C112.588 75.8396 111.555 75.2413 110.554 75.5106L72.8458 85.6456C71.8446 85.9147 71.248 86.9509 71.5164 87.9558L72.1728 90.4133C72.4413 91.4182 73.4745 92.0164 74.4757 91.7473L112.184 81.6123Z" fill="#030404"/>
<path d="M31.9063 45.6785L48.0427 17.643L107.686 52.1848L91.5493 80.2199L31.9063 45.6785Z" fill="#E53617"/>
<path d="M68.8689 106.92L84.3299 89.0259L99.1797 107.433C99.1797 107.433 68.8025 106.919 68.8689 106.92Z" fill="#175FE5"/>
</svg>
