<svg width="740" height="248" viewBox="0 0 740 248" fill="none" xmlns="http://www.w3.org/2000/svg">
<rect width="740" height="248" fill="#F1F6FD"/>
<path opacity="0.08" d="M226.529 68.3657C235.053 66.0819 244.026 70.1979 247.854 78.1541C252.248 87.2902 248.393 98.3013 239.257 102.699L99.9138 169.766C95.4861 171.894 90.4986 172.173 85.8627 170.552C81.2275 168.93 77.5012 165.598 75.3712 161.173C70.9752 152.036 74.8293 141.027 83.9644 136.629L223.303 69.5628C224.348 69.0623 225.429 68.6605 226.529 68.3657ZM249.315 77.4512C244.524 67.5127 232.548 63.3156 222.605 68.103L83.2627 135.169C73.3217 139.954 69.1266 151.935 73.9114 161.875C76.2304 166.69 80.2836 170.316 85.328 172.081C89.1449 173.418 93.2098 173.577 97.0788 172.54C98.2845 172.217 99.4753 171.774 100.616 171.225L239.964 104.157C249.898 99.3742 254.097 87.392 249.315 77.4512Z" fill="#030404"/>
<path d="M163.26 164.146C152.347 167.07 145.848 178.328 148.772 189.241C151.696 200.155 162.954 206.656 173.867 203.732C184.782 200.807 191.281 189.548 188.356 178.635C185.432 167.722 174.175 161.221 163.26 164.146ZM179.379 224.302C157.124 230.266 134.164 217.006 128.202 194.753C122.238 172.497 135.493 149.538 157.749 143.575C180.005 137.611 202.963 150.866 208.927 173.123C214.89 195.376 201.636 218.339 179.379 224.302Z" fill="#175FE5"/>
<path d="M165.348 78.1701C163.443 71.0598 167.662 63.7504 174.772 61.8452C181.882 59.94 189.192 64.1604 191.098 71.2707C193.003 78.381 188.782 85.6891 181.672 87.5943C174.561 89.4995 167.254 85.2804 165.348 78.1701Z" fill="#F0C900"/>
<path d="M180.238 47.0129C177.34 41.8262 173.268 37.1887 168.098 33.5241C149.529 20.3651 123.808 24.7503 110.649 43.3194C97.4899 61.8885 101.876 87.6093 120.444 100.769C126.7 105.201 133.766 107.643 140.891 108.222L180.238 47.0129Z" fill="#15D16B"/>
</svg>
