<svg width="168" height="170" viewBox="0 0 168 170" fill="none" xmlns="http://www.w3.org/2000/svg">
<path opacity="0.08" d="M5.25186 24.8876C0.408331 19.9854 0.408332 12.0055 5.25186 7.10335L7.01577 5.31744C9.35651 2.94652 12.4759 1.63967 15.7972 1.63967C19.1185 1.63967 22.238 2.94652 24.5797 5.31744L149.93 132.233C152.272 134.605 153.561 137.762 153.561 141.125C153.561 144.489 152.272 147.646 149.93 150.017L148.165 151.803C143.323 156.707 135.444 156.707 130.602 151.803L5.25186 24.8876ZM139.383 157.121C143.138 157.121 146.664 155.644 149.312 152.965L151.076 151.178C156.549 145.635 156.547 136.617 151.076 131.072L25.726 4.15683C23.0787 1.47654 19.5519 -5.9285e-06 15.7972 -6.09262e-06C12.0435 -6.2567e-06 8.5167 1.47654 5.86947 4.15682L4.10465 5.94274C1.45742 8.62303 -3.46035e-08 12.1939 -2.00773e-07 15.9955C-3.66943e-07 19.797 1.45742 23.3669 4.10465 26.0482L129.455 152.965C132.103 155.644 135.629 157.121 139.383 157.121Z" fill="#030404"/>
<path d="M163.264 144.598C168.913 150.316 168.913 159.588 163.264 165.306C157.617 171.025 148.46 171.025 142.812 165.306C137.164 159.588 137.164 150.316 142.812 144.598C148.46 138.88 157.617 138.88 163.264 144.598Z" fill="#F0C900"/>
</svg>
