<svg width="80" height="80" fill="none" xmlns="http://www.w3.org/2000/svg"><path d="M40.867 20.493c-4.986 0-9.041 4.136-9.041 9.22 0 5.084 4.055 9.22 9.04 9.22 4.986 0 9.041-4.136 9.041-9.22 0-5.084-4.055-9.22-9.04-9.22zm1.542 14.336c0 .812-.647 1.47-1.445 1.47a1.458 1.458 0 01-1.446-1.47V27.1h-.483a1.458 1.458 0 01-1.446-1.47c0-.813.648-1.471 1.446-1.471h1.929c.798 0 1.445.658 1.445 1.47v9.201z" fill="#F1F1F1" fill-opacity=".5"/><path d="M59.02 33.635c.926-1.072 1.976-2.286 1.98-3.895.004-1.595-1.035-2.81-1.952-3.88-.52-.61-1.06-1.238-1.219-1.742-.146-.46-.07-1.26.005-2.036.137-1.441.293-3.075-.66-4.415-.952-1.34-2.525-1.699-3.913-2.015-.744-.169-1.514-.344-1.896-.627-.42-.311-.838-1.029-1.243-1.723-.713-1.222-1.522-2.607-3.012-3.1-1.504-.499-2.964.14-4.252.705-.72.315-1.464.64-1.968.64h-.002c-.491 0-1.227-.327-1.939-.643-1.294-.575-2.761-1.226-4.283-.725-1.47.484-2.275 1.856-2.985 3.066-.413.704-.84 1.432-1.277 1.755-.436.322-1.247.51-2.031.69-1.35.31-2.88.663-3.788 1.937-.94 1.317-.789 2.94-.656 4.37.073.79.148 1.605-.004 2.082-.156.49-.693 1.111-1.212 1.712-.926 1.072-1.976 2.287-1.98 3.895-.003 1.596 1.036 2.81 1.953 3.881.52.608 1.059 1.238 1.218 1.741.146.46.07 1.261-.005 2.036-.137 1.442-.293 3.076.66 4.415.952 1.341 2.525 1.699 3.913 2.015.744.17 1.514.344 1.896.628.42.31.838 1.028 1.243 1.722.714 1.222 1.522 2.607 3.012 3.101 1.503.498 2.964-.141 4.252-.705.72-.315 1.464-.641 1.968-.641h.002c.491.001 1.227.328 1.939.644.97.43 2.035.903 3.15.903.373 0 .751-.053 1.134-.179 1.47-.484 2.274-1.855 2.984-3.066.413-.703.84-1.431 1.276-1.754.437-.323 1.248-.51 2.032-.69 1.35-.311 2.88-.664 3.788-1.938.94-1.316.79-2.939.657-4.37-.074-.789-.149-1.604.003-2.082.157-.49.693-1.111 1.212-1.712zm-18.153 8.24c-6.58 0-11.932-5.456-11.932-12.162s5.353-12.162 11.932-12.162c6.579 0 11.931 5.456 11.931 12.162s-5.352 12.162-11.931 12.162zm-1.446 9.605c-1.03.433-2.254.866-3.667.866a6.429 6.429 0 01-2.025-.324c-2.052-.68-3.262-2.22-4.087-3.534v10.237c0 .464.215.901.58 1.179.366.277.839.363 1.276.232l7.923-2.389V51.48zm8.536.566a6.465 6.465 0 01-2.023.322c-1.393 0-2.6-.42-3.622-.851v6.23l7.923 2.388a1.423 1.423 0 001.276-.231 1.48 1.48 0 00.58-1.179V48.43c-.824 1.329-2.039 2.927-4.134 3.617z" fill="#F1F1F1" fill-opacity=".5"/><circle cx="19.039" cy="61.961" r="10.039" fill="#F1F1F1" fill-opacity=".5"/><path d="M48 64l-19-.227L31.969 59h9.797L48 64z" fill="#E53617"/><path fill-rule="evenodd" clip-rule="evenodd" d="M22.858 26.11c0-2.72 2.175-4.933 4.849-4.933 2.673 0 4.848 2.213 4.848 4.933 0 2.72-2.175 4.933-4.848 4.933-2.674 0-4.849-2.213-4.849-4.933zm2.424 0c0 1.36 1.088 2.466 2.425 2.466 1.336 0 2.424-1.106 2.424-2.466s-1.088-2.467-2.424-2.467c-1.337 0-2.425 1.107-2.425 2.467zm16.71 28.389c0 .563-.096 1.101-.286 1.599C45.27 56.677 48 59.775 48 63.499a1.5 1.5 0 01-1.5 1.5H28.501a1.5 1.5 0 01-1.5-1.5c0-3.725 2.73-6.823 6.295-7.401a4.48 4.48 0 01-.294-1.6L33 52h-4.766c-1.168 4.056-2.877 7.828-4.989 10.995a4.497 4.497 0 01-6.24 1.248 4.493 4.493 0 01-1.247-6.24c1.818-2.728 3.248-6.075 4.16-9.723l-3.599-3.598a4.496 4.496 0 010-6.363l6-6c2.828-2.828 7.672-.803 7.672 3.18v4.184c0 1.062-.032 2.14-.115 3.224H37.5a4.496 4.496 0 014.49 4.5v7.092zm-23.323 7.247a1.5 1.5 0 002.081-.415c1.802-2.703 3.29-5.898 4.36-9.349a4.47 4.47 0 01-2.752-1.264c-.99 3.319-2.388 6.375-4.104 8.949a1.495 1.495 0 00.415 2.079zm8.227-19.215c.07-.958.106-1.91.106-2.848v-4.184c0-1.315-1.595-1.998-2.546-1.073l-.01.01-6.004 6.004a1.498 1.498 0 000 2.12l6 6a1.501 1.501 0 002.56-1.06c0-.4-.157-.777-.44-1.06l-3.879-3.88a1.5 1.5 0 012.122-2.12l2.091 2.092zm2.847 6.479c.352-1 .34-2.12-.035-3.114H37.5c.827 0 1.5.683 1.5 1.51V54.5c0 .827-.673 1.5-1.5 1.5a1.51 1.51 0 01-1.51-1.5v-4c0-.828-.662-1.49-1.49-1.49h-4.758zM34.501 59c-1.956 0-3.624 1.263-4.243 3.01h14.485C44.124 60.262 42.456 59 40.5 59h-6z" fill="#000"/></svg>