<svg width="1440" height="897" fill="none" xmlns="http://www.w3.org/2000/svg"><path opacity=".08" d="M314.933-20.42c-4.843-4.841-4.843-12.723 0-17.564l1.764-1.764a12.334 12.334 0 018.782-3.633c3.321 0 6.44 1.291 8.782 3.633l125.35 125.35a12.333 12.333 0 013.632 8.782 12.33 12.33 0 01-3.632 8.783l-1.765 1.764c-4.841 4.843-12.721 4.843-17.563 0l-125.35-125.35zm134.132 130.603c3.754 0 7.28-1.459 9.929-4.105l1.763-1.765c5.474-5.474 5.472-14.381 0-19.857l-125.35-125.35A13.946 13.946 0 00325.479-45a13.946 13.946 0 00-9.928 4.106l-1.765 1.763a13.948 13.948 0 00-4.105 9.93 13.95 13.95 0 004.105 9.928l125.35 125.351a13.953 13.953 0 009.929 4.105zm948.145 638.184c8.52-2.284 17.5 1.832 21.32 9.789 4.4 9.136.54 20.147-8.59 24.545l-139.35 67.066a18.276 18.276 0 01-14.05.787 18.279 18.279 0 01-10.49-9.38c-4.39-9.136-.54-20.146 8.59-24.543l139.34-67.067c1.05-.5 2.13-.902 3.23-1.197zm22.78 9.086c-4.79-9.939-16.76-14.136-26.7-9.349l-139.35 67.067c-9.94 4.785-14.13 16.765-9.35 26.705 2.32 4.816 6.37 8.441 11.42 10.206a19.864 19.864 0 0011.75.46c1.2-.324 2.4-.766 3.54-1.315l139.34-67.068c9.94-4.783 14.14-16.766 9.35-26.706zM8.96 377.62l108.296-29.018a3.785 3.785 0 014.63 2.674l1.886 7.036a3.786 3.786 0 01-2.674 4.63L12.802 391.96a3.785 3.785 0 01-4.63-2.674l-1.885-7.036a3.785 3.785 0 012.673-4.63zm112.558-13.113a5.407 5.407 0 003.819-6.615l-1.886-7.036a5.405 5.405 0 00-6.614-3.819L8.54 376.055a5.407 5.407 0 00-3.818 6.615l1.885 7.036a5.407 5.407 0 006.614 3.819l108.297-29.018zm818.162 400.95c-36.142 0-65.545 29.403-65.545 65.544 0 36.142 29.403 65.545 65.545 65.545 36.141 0 65.54-29.403 65.54-65.545 0-36.141-29.399-65.544-65.54-65.544zm0 132.544c-36.945 0-67-30.056-67-67 0-36.943 30.055-67 67-67 36.944 0 67 30.057 67 67 0 36.944-30.056 67-67 67zM776.137 212.084a.664.664 0 01-.403-.308.664.664 0 01.242-.903l174.746-100.888a.662.662 0 01.662 1.145L776.638 212.018a.654.654 0 01-.501.066z" fill="#030404"/><circle cx="563.68" cy="698.001" r="76.5" stroke="#030404" stroke-opacity=".08"/><path stroke="#030404" stroke-opacity=".08" d="M632.626 767.655l-138.6-138.6"/><g opacity=".95"><path d="M1359.38 353.703h32.56c0 34.561 28.11 62.678 62.67 62.678v32.556c-52.51 0-95.23-42.722-95.23-95.234z" fill="#175FE5"/><path d="M202.749 958.001l-36.034-36.033c17.37-17.37 17.37-45.634 0-63.003-17.37-17.368-45.632-17.368-63.001 0l-36.035-36.034c37.239-37.239 97.832-37.239 135.07 0 37.24 37.239 37.24 97.831 0 135.07z" fill="#15D16B"/><path d="M85.105 795.001H50.68v34.426h34.426v-34.426zm387.84-697.187c5.649 5.648 5.649 14.806 0 20.453-5.647 5.648-14.804 5.648-20.452 0-5.648-5.647-5.648-14.805 0-20.453 5.648-5.647 14.805-5.647 20.452 0z" fill="#F0C900"/><path d="M1333.94 844.147c-10.91 2.924-17.41 14.183-14.49 25.096 2.93 10.913 14.18 17.414 25.1 14.49 10.91-2.924 17.41-14.183 14.49-25.097-2.93-10.913-14.19-17.413-25.1-14.489zm16.12 60.157c-22.26 5.963-45.22-7.296-51.18-29.549-5.96-22.257 7.29-45.215 29.55-51.178 22.25-5.964 45.21 7.291 51.18 29.547 5.96 22.253-7.29 45.216-29.55 51.18z" fill="#15D16B"/><path d="M1336.03 758.172c-1.91-7.111 2.31-14.42 9.42-16.325 7.11-1.906 14.42 2.315 16.33 9.425 1.9 7.11-2.32 14.419-9.43 16.324-7.11 1.905-14.42-2.314-16.32-9.424z" fill="#E53617"/><path d="M1350.92 727.014a41.07 41.07 0 00-12.14-13.488c-18.57-13.159-44.29-8.774-57.45 9.795-13.16 18.569-8.77 44.29 9.79 57.449a41.074 41.074 0 0020.45 7.454l39.35-61.21z" fill="#175FE5"/><path d="M-109.037 261.624l46.344-80.27L108.6 280.252l-46.343 80.269-171.294-98.897z" fill="#E53617"/><path d="M-2.88 436.966l44.404-51.233 42.648 52.703-87.052-1.47z" fill="#175FE5"/><path d="M939.68 909.001v-24.712c29.382 0 53.287-23.906 53.287-53.288h24.713c0 43.009-34.992 78-78 78z" fill="#F0C900"/><path d="M933.231 121.662l-21.999 82.104-82.104-22" fill="#E53617"/><path d="M802.183 197.323l22.259-83.07 82.104 22" fill="#F0C900"/><path d="M512.783 647.001c-28.138 28.138-28.138 73.759 0 101.897 28.138 28.138 73.759 28.138 101.896 0L512.783 647.001z" fill="#E53617"/></g></svg>