<svg width="81" height="80" fill="none" xmlns="http://www.w3.org/2000/svg"><path d="M74.439 46.927h-3.046V18.621c0-4.219-2.928-7.621-6.56-7.621H38.24c-.117 0-.234 0-.352.068-3.631.476-6.208 4.219-5.857 8.438.352 3.538 2.753 6.396 5.857 6.804.117 0 .235.068.352.068h.351v28.374c.059 4.151 2.987 7.553 6.56 7.553H74.44c3.631 0 6.56-3.402 6.56-7.62.059-4.356-2.929-7.758-6.56-7.758zm-35.847-24.7v-.068c-1.698 0-3.046-1.565-3.046-3.538 0-1.973 1.348-3.538 3.046-3.538h20.442a8.918 8.918 0 000 7.144H38.592zm28.115 27.83H42.692v-4.082h24.015v4.082zm0-8.165H42.692v-4.083h24.015v4.083zm0-8.165H42.692v-4.083h24.015v4.083zm7.79 24.36c-1.698 0-3.045-1.566-3.045-3.539V51.01h3.046c1.698 0 3.045 1.565 3.045 3.538 0 1.974-1.347 3.538-3.046 3.538z" fill="#F1F1F1" fill-opacity=".5"/><rect x="10" y="53.519" width="17.143" height="22.769" rx="2.857" fill="#F1F1F1" fill-opacity=".5"/><ellipse cx="29.583" cy="27.945" rx="4.412" ry="4.395" fill="#E53617"/><path d="M29.634 23c-2.875 0-5.17 2.404-5.17 5.237 0 2.84 2.319 5.15 5.17 5.15s5.17-2.31 5.17-5.15c0-2.835-2.298-5.237-5.17-5.237zm0 7.812a2.583 2.583 0 01-2.585-2.575c0-1.443 1.184-2.662 2.585-2.662 1.402 0 2.585 1.22 2.585 2.662 0 1.42-1.16 2.575-2.585 2.575z" fill="#E53617"/><path d="M59.246 24h-18.27c-2.139 0-3.878 1.733-3.878 3.863v8.788l-1.136-1.132a3.86 3.86 0 00-2.742-1.131h-7.756C21.9 34.388 19 37.276 19 40.826v7.727c0 2.13 1.74 3.863 3.878 3.863.453 0 .888-.078 1.293-.221v11.896c0 2.13 1.74 3.863 3.878 3.863a3.87 3.87 0 002.585-.986 3.87 3.87 0 002.586.986c2.138 0 3.878-1.733 3.878-3.863V47.045c.988.348 2.083.28 3.027-.188l4.352-2.168h14.769c2.138 0 3.878-1.733 3.878-3.863V27.863c0-2.13-1.74-3.863-3.878-3.863zM44.139 41.978l-5.169 2.575a1.296 1.296 0 01-1.494-.241l-.757-.754c-.8-.797-2.203-.255-2.207.906v19.627c0 .71-.58 1.288-1.293 1.288a1.292 1.292 0 01-1.292-1.288V51.128a1.29 1.29 0 00-1.293-1.288 1.29 1.29 0 00-1.293 1.288V64.09a1.292 1.292 0 01-2.585 0V40.826a1.29 1.29 0 00-1.293-1.288 1.29 1.29 0 00-1.292 1.288v7.727c0 .71-.58 1.287-1.293 1.287a1.292 1.292 0 01-1.293-1.288v-7.726c0-2.13 1.74-3.863 3.878-3.863h7.757c.345 0 .67.134.913.377l3.853 3.838c.394.392.995.49 1.492.242l3.505-1.746a1.292 1.292 0 011.734.576c.32.637.062 1.41-.578 1.728zm16.4-1.152c0 .71-.58 1.288-1.293 1.288h-12.03l.025-.066a3.834 3.834 0 00.17-1.7l7.07-3.52a1.285 1.285 0 00.578-1.729 1.295 1.295 0 00-1.735-.575l-7.068 3.52a3.886 3.886 0 00-4.43-.673l-2.143 1.067V27.863c0-.71.58-1.288 1.293-1.288h18.27c.712 0 1.292.578 1.292 1.288v12.963z" fill="#000"/></svg>