<svg width="80" height="80" fill="none" xmlns="http://www.w3.org/2000/svg"><path d="M68.456 16.963h-2.574v-5.38c-.026-.863-.702-1.556-1.544-1.583H39.941C37.212 10 35 12.267 35 15.064v33.442c0 2.796 2.212 5.063 4.941 5.063h28.515c.853 0 1.544-.708 1.544-1.582V18.545c0-.874-.691-1.582-1.544-1.582zM52.912 33.789l-3.706-3.112a1.562 1.562 0 00-1.647 0l-3.706 3.112V20.127h9.059V33.79zm9.882-16.826H39.941c-1.023 0-1.853-.85-1.853-1.9 0-1.048.83-1.898 1.853-1.898h22.853v3.798z" fill="#F1F1F1" fill-opacity=".5"/><rect x="10" y="39.489" width="24" height="30" rx="2.903" fill="#F1F1F1" fill-opacity=".5"/><path fill-rule="evenodd" clip-rule="evenodd" d="M49.88 53.03l4.314-.026c.53 0 .931.437.931.948 0 7.342-5.826 13.316-12.988 13.316a.938.938 0 01-.925-.954l.02-3.484c-1.33-.14-2.372-1.296-2.372-2.696 0-1.403 1.044-2.56 2.377-2.697V53.95c0-.521.411-.95.931-.949l4.268.03c.57.003.807.494.807.494.2.343.13 1.13.13 1.13s.356.812.794.812a.804.804 0 00.793-.813v-.675c0-.522.41-.946.92-.949z" fill="#E53617"/><path d="M45.079 51.57c2.094 0 3.822-1.638 4.027-3.73h5.248c.783 0 1.417-.651 1.417-1.453C55.771 35.146 46.851 26 35.886 26 24.92 26 16 35.146 16 46.387s8.92 20.387 19.886 20.387c.782 0 1.416-.65 1.416-1.453V58.51c0-.802-.634-1.452-1.416-1.452h-1.009c-.67 0-1.214-.559-1.214-1.245s.545-1.245 1.214-1.245h.96c.736 0 1.465-.613 1.465-1.482v-5.28l3.749.025c.2 2.097 1.93 3.74 4.028 3.74zm7.8-6.636h-5.17c-.782 0-1.416.65-1.416 1.453v1.034c0 .686-.544 1.245-1.214 1.245-.67 0-1.214-.559-1.214-1.245v-.984c0-.756-.597-1.497-1.436-1.502l-5.127-.036v-3.808c2.041-.21 3.64-1.982 3.64-4.13 0-2.146-1.598-3.917-3.64-4.128v-3.867c8.275.701 14.894 7.485 15.577 15.968zM34.47 28.966v5.298c0 .803.634 1.453 1.417 1.453h1.008c.67 0 1.214.558 1.214 1.245 0 .686-.544 1.245-1.214 1.245h-.96c-.741 0-1.465.618-1.465 1.482v5.245h-3.75c-.205-2.092-1.933-3.73-4.027-3.73-2.094 0-3.822 1.638-4.027 3.73h-3.772c.684-8.483 7.301-15.267 15.576-15.968zm-3.64 26.846c0 2.147 1.599 3.918 3.64 4.129v3.868c-8.275-.7-14.892-7.486-15.576-15.97h5.168c.783 0 1.417-.65 1.417-1.452v-1.034c0-.686.545-1.245 1.214-1.245.67 0 1.215.559 1.215 1.245v.984c0 .76.603 1.502 1.445 1.502h5.117v3.844c-2.041.21-3.64 1.982-3.64 4.129z" fill="#000"/></svg>