<svg width="360" height="542" fill="none" xmlns="http://www.w3.org/2000/svg"><path opacity=".08" d="M4.596 294.982l20.49-5.49a.716.716 0 01.876.505l.356 1.332a.717.717 0 01-.506.876l-20.489 5.49a.716.716 0 01-.876-.506l-.356-1.331a.716.716 0 01.505-.876zm21.296-2.481c.544-.146.868-.707.722-1.252l-.356-1.331a1.024 1.024 0 00-1.252-.723l-20.49 5.491a1.022 1.022 0 00-.722 1.251l.357 1.331c.146.545.707.869 1.251.723l20.49-5.49z" fill="#030404"/><path d="M-17.729 273.036l8.769-15.187 32.408 18.711-8.768 15.187-32.409-18.711z" fill="#E53617"/><path d="M2.356 306.21l8.401-9.693 8.07 9.971-16.47-.278z" fill="#175FE5"/><path opacity=".08" d="M84.697 3.62a6.383 6.383 0 010-9.018l.906-.906a6.332 6.332 0 014.508-1.865 6.34 6.34 0 014.51 1.865l64.357 64.358a6.336 6.336 0 011.864 4.509 6.334 6.334 0 01-1.864 4.51l-.906.905a6.383 6.383 0 01-9.018 0L84.697 3.62zm68.866 67.054a7.164 7.164 0 005.098-2.107l.905-.906c2.81-2.81 2.809-7.384 0-10.196L95.209-6.892A7.161 7.161 0 0090.11-9a7.16 7.16 0 00-5.097 2.108l-.906.905A7.16 7.16 0 0082-.889c0 1.928.749 3.738 2.108 5.098l64.357 64.358a7.164 7.164 0 005.098 2.107z" fill="#030404"/><path d="M165.824 64.324a7.425 7.425 0 11-10.501 10.501 7.425 7.425 0 0110.501-10.5z" fill="#F0C900"/><path opacity=".08" d="M246.222 133.458a.23.23 0 01-.14-.107.232.232 0 01.084-.315l60.804-35.104a.23.23 0 11.23.398l-60.803 35.105a.23.23 0 01-.175.023z" fill="#030404"/><path d="M300.884 101.995l-7.655 28.568-28.568-7.654" fill="#E53617"/><path d="M255.285 128.322l7.745-28.905 28.569 7.655" fill="#F0C900"/><path d="M331.853 244.276l10.942 2.932c-3.113 11.616 3.805 23.598 15.421 26.711l-2.932 10.942c-17.649-4.729-28.16-22.936-23.431-40.585z" fill="#175FE5"/><circle cx="140.793" cy="425.793" r="26.293" stroke="#030404" stroke-opacity=".08"/><path stroke="#030404" stroke-opacity=".08" d="M164.553 450.259l-48.227-48.226"/><path d="M123.083 408.047c-9.791 9.791-9.791 25.665 0 35.455 9.791 9.791 25.665 9.791 35.456 0l-35.456-35.455z" fill="#E53617"/><path d="M71.914 562.717l-12.538-12.538c6.044-6.044 6.044-15.879 0-21.923-6.044-6.043-15.878-6.043-21.922 0l-12.538-12.538c12.957-12.957 34.04-12.957 46.998 0 12.958 12.958 12.958 34.041 0 46.999z" fill="#15D16B"/><path d="M30.979 506H19v11.978h11.979V506z" fill="#F0C900"/><path opacity=".08" d="M370.945 491.873a6.403 6.403 0 017.42 3.406 6.407 6.407 0 01-2.992 8.54l-48.485 23.337a6.364 6.364 0 01-4.889.273 6.355 6.355 0 01-3.651-3.263 6.407 6.407 0 012.991-8.54l48.483-23.337c.364-.174.74-.313 1.123-.416zm7.928 3.161c-1.667-3.458-5.834-4.918-9.294-3.252l-48.485 23.336a6.969 6.969 0 00-3.253 9.292 6.91 6.91 0 003.972 3.551 6.912 6.912 0 005.319-.297l48.487-23.337c3.457-1.664 4.918-5.834 3.254-9.293z" fill="#030404"/><path d="M348.93 525.2c-3.797 1.018-6.058 4.935-5.041 8.732 1.018 3.798 4.935 6.06 8.732 5.042 3.798-1.017 6.059-4.935 5.042-8.732-1.018-3.798-4.935-6.059-8.733-5.042zm5.609 20.932c-7.744 2.075-15.733-2.539-17.807-10.282-2.076-7.744 2.537-15.733 10.281-17.807 7.744-2.076 15.732 2.537 17.807 10.281 2.075 7.743-2.537 15.733-10.281 17.808z" fill="#15D16B"/><path d="M349.657 495.285a4.638 4.638 0 118.96-2.402 4.638 4.638 0 01-8.96 2.402z" fill="#E53617"/><path d="M354.838 484.443a14.284 14.284 0 00-4.224-4.693c-6.461-4.579-15.411-3.053-19.99 3.408-4.579 6.461-3.053 15.411 3.408 19.99a14.273 14.273 0 007.115 2.593l13.691-21.298z" fill="#175FE5"/><path opacity=".08" d="M219.313 497.506c-12.576 0-22.807 10.231-22.807 22.807 0 12.576 10.231 22.807 22.807 22.807 12.576 0 22.807-10.231 22.807-22.807 0-12.576-10.231-22.807-22.807-22.807zm0 46.12c-12.855 0-23.313-10.458-23.313-23.313C196 507.458 206.458 497 219.313 497c12.855 0 23.313 10.458 23.313 23.313 0 12.855-10.458 23.313-23.313 23.313z" fill="#030404"/><path d="M219.313 547.454v-8.599c10.224 0 18.542-8.318 18.542-18.542h8.599c0 14.965-12.176 27.141-27.141 27.141z" fill="#F0C900"/></svg>