<svg width="140" height="120" fill="none" xmlns="http://www.w3.org/2000/svg"><path fill="#FDF7F1" d="M0 0h140v120H0z"/><path opacity=".08" d="M27.01 27.088c-2.776-2.775-2.776-7.292 0-10.067l1.011-1.011a7.069 7.069 0 015.033-2.082 7.07 7.07 0 015.033 2.082l71.841 71.84a7.068 7.068 0 012.082 5.034 7.066 7.066 0 01-2.082 5.034l-1.011 1.01a7.124 7.124 0 01-10.066 0l-71.84-71.84zm76.874 74.851a7.994 7.994 0 005.69-2.353l1.011-1.011c3.137-3.138 3.136-8.243 0-11.381l-71.84-71.841A7.994 7.994 0 0033.053 13a7.993 7.993 0 00-5.69 2.353l-1.011 1.01A7.993 7.993 0 0024 22.055c0 2.152.835 4.173 2.353 5.69l71.84 71.842a7.996 7.996 0 005.691 2.353z" fill="#030404"/><path d="M114.571 91.85a8.289 8.289 0 11-11.722 11.722 8.289 8.289 0 0111.722-11.722z" fill="#F0C900"/></svg>