<svg width="81" height="80" fill="none" xmlns="http://www.w3.org/2000/svg"><path d="M24.571 52.429L37.191 67H11.952l12.62-14.571zM79.85 16.887h-5.036c.019-.569.029-1.14.029-1.715 0-.647-.515-1.172-1.15-1.172h-24.63a1.16 1.16 0 00-1.15 1.172c0 .574.01 1.146.029 1.715h-5.036a1.16 1.16 0 00-1.15 1.172c0 5.25 1.346 10.205 3.791 13.95 2.417 3.702 5.636 5.825 9.113 6.032.788.874 1.621 1.587 2.49 2.13v5.21h-1.93c-2.331 0-4.228 1.933-4.228 4.31v1.965h-.082c-.635 0-1.15.525-1.15 1.172A1.16 1.16 0 0050.91 54h20.936a1.16 1.16 0 001.15-1.172c0-.647-.515-1.172-1.15-1.172h-.082V49.69c0-2.376-1.897-4.31-4.229-4.31h-1.928v-5.208c.868-.544 1.7-1.257 2.49-2.131 3.477-.207 6.695-2.33 9.112-6.032 2.445-3.745 3.791-8.7 3.791-13.95 0-.647-.515-1.172-1.15-1.172zM47.461 30.71c-2.016-3.089-3.2-7.128-3.381-11.48h3.99c.415 5.35 1.647 10.293 3.572 14.217.306.625.627 1.216.96 1.772-1.913-.736-3.682-2.275-5.14-4.509zm27.834 0c-1.459 2.234-3.228 3.773-5.14 4.509a24.23 24.23 0 00.96-1.772c1.924-3.924 3.156-8.868 3.57-14.216h3.991c-.18 4.35-1.365 8.39-3.382 11.48z" fill="#F1F1F1" fill-opacity=".5"/><circle cx="42.059" cy="42.945" fill="#E53617" r="5.485"/><path d="M60.779 31.497l2.128-2.128a1.287 1.287 0 00-.801-2.19l-3.949-.333-.333-3.948a1.285 1.285 0 00-2.19-.801l-2.128 2.128a21.824 21.824 0 00-11.447-3.222 21.798 21.798 0 00-15.515 6.427 21.798 21.798 0 00-6.427 15.515c0 5.86 2.282 11.37 6.427 15.515a21.798 21.798 0 0015.515 6.426c5.86 0 11.37-2.282 15.515-6.426A21.798 21.798 0 0064 42.945a21.83 21.83 0 00-3.221-11.448zm-5.093-3.353c.053.625.549 1.12 1.173 1.173l2.272.192-3.075 3.075-3.353-.283-.283-3.354 3.075-3.075.191 2.272zm-9.256 14.8a4.376 4.376 0 01-4.371 4.372 4.376 4.376 0 01-4.371-4.371c0-2.41 1.96-4.371 4.37-4.371.739 0 1.434.184 2.044.509l-2.952 2.953a1.285 1.285 0 101.818 1.818L45.92 40.9a4.34 4.34 0 01.509 2.044zm-.459-5.73a6.905 6.905 0 00-3.912-1.212 6.95 6.95 0 00-6.943 6.943 6.95 6.95 0 006.943 6.942A6.95 6.95 0 0049 42.945c0-1.45-.448-2.798-1.211-3.913l3.67-3.67a12.028 12.028 0 012.684 7.583c0 6.663-5.422 12.085-12.085 12.085-6.664 0-12.085-5.422-12.085-12.085 0-6.664 5.421-12.085 12.085-12.085 2.87 0 5.508 1.006 7.583 2.683l-3.67 3.67zm9.784 19.428a19.242 19.242 0 01-13.696 5.673 19.242 19.242 0 01-13.697-5.673 19.242 19.242 0 01-5.674-13.697 19.242 19.242 0 015.674-13.697 19.242 19.242 0 0113.697-5.673c3.384 0 6.663.87 9.57 2.526l-1.45 1.45a1.286 1.286 0 00-.372 1.017l.174 2.051a14.568 14.568 0 00-7.922-2.33c-8.082 0-14.657 6.574-14.657 14.656 0 8.081 6.575 14.656 14.657 14.656 8.081 0 14.656-6.575 14.656-14.656a14.57 14.57 0 00-2.331-7.922l2.051.173a1.3 1.3 0 00.108.004h.019c.017 0 .034-.002.05-.003.028-.002.057-.003.084-.007a2.177 2.177 0 00.132-.023l.05-.013a1.361 1.361 0 00.322-.136l.043-.026a.767.767 0 00.074-.053l.035-.025c.034-.029.068-.058.1-.09l1.45-1.45a19.27 19.27 0 012.527 9.57 19.242 19.242 0 01-5.674 13.697z" fill="#000"/></svg>