<svg width="140" height="120" fill="none" xmlns="http://www.w3.org/2000/svg"><path fill="#FEF3F1" d="M0 0h140v120H0z"/><path opacity=".08" d="M72.992 86.192L110.7 76.057a1.317 1.317 0 011.612.934l.656 2.457a1.322 1.322 0 01-.931 1.618L74.33 91.2a1.317 1.317 0 01-1.612-.934l-.657-2.458a1.322 1.322 0 01.93-1.617zm39.192-4.58a1.889 1.889 0 001.329-2.31l-.656-2.458a1.882 1.882 0 00-2.303-1.333L72.846 85.646a1.889 1.889 0 00-1.33 2.31l.657 2.457a1.882 1.882 0 002.303 1.334l37.708-10.135z" fill="#030404"/><path d="M31.906 45.678l16.137-28.035 59.643 34.542L91.549 80.22 31.906 45.679z" fill="#E53617"/><path d="M68.869 106.92l15.46-17.894 14.85 18.407-30.31-.513z" fill="#175FE5"/></svg>