<svg width="740" height="248" fill="none" xmlns="http://www.w3.org/2000/svg"><path fill="#F1F6FD" d="M0 0h740v248H0z"/><path opacity=".08" d="M226.529 68.366c8.524-2.284 17.497 1.832 21.325 9.788 4.394 9.136.539 20.147-8.597 24.545L99.914 169.766a18.286 18.286 0 01-14.051.786 18.264 18.264 0 01-10.492-9.379c-4.396-9.137-.542-20.146 8.593-24.544l139.339-67.066c1.045-.5 2.126-.903 3.226-1.197zm22.786 9.085c-4.791-9.938-16.767-14.135-26.71-9.348L83.263 135.169c-9.941 4.785-14.136 16.766-9.352 26.706a19.877 19.877 0 0011.417 10.206 19.86 19.86 0 0011.75.459 20.288 20.288 0 003.538-1.315l139.348-67.068c9.934-4.783 14.133-16.765 9.351-26.706z" fill="#030404"/><path d="M163.26 164.146c-10.913 2.924-17.412 14.182-14.488 25.095 2.924 10.914 14.182 17.415 25.095 14.491 10.915-2.925 17.414-14.184 14.489-25.097-2.924-10.913-14.181-17.414-25.096-14.489zm16.119 60.156c-22.255 5.964-45.215-7.296-51.177-29.549-5.964-22.256 7.291-45.215 29.547-51.178 22.256-5.964 45.214 7.291 51.178 29.548 5.963 22.253-7.291 45.216-29.548 51.179z" fill="#175FE5"/><path d="M165.348 78.17c-1.905-7.11 2.314-14.42 9.424-16.325 7.11-1.905 14.42 2.315 16.326 9.426 1.905 7.11-2.316 14.418-9.426 16.323-7.111 1.906-14.418-2.314-16.324-9.424z" fill="#F0C900"/><path d="M180.238 47.013a41.05 41.05 0 00-12.14-13.489c-18.569-13.159-44.29-8.774-57.449 9.795-13.16 18.57-8.773 44.29 9.795 57.45a41.022 41.022 0 0020.447 7.453l39.347-61.21z" fill="#15D16B"/></svg>