<svg width="168" height="170" fill="none" xmlns="http://www.w3.org/2000/svg"><path opacity=".08" d="M5.252 24.888c-4.844-4.903-4.844-12.883 0-17.785l1.764-1.786a12.257 12.257 0 018.781-3.677c3.322 0 6.441 1.307 8.783 3.677l125.35 126.916c2.342 2.372 3.631 5.529 3.631 8.892 0 3.364-1.289 6.521-3.631 8.892l-1.765 1.786a12.322 12.322 0 01-17.563 0L5.252 24.888zM139.383 157.12c3.755 0 7.281-1.477 9.929-4.156l1.764-1.787c5.473-5.543 5.471-14.561 0-20.106L25.726 4.157A13.86 13.86 0 0015.797 0 13.86 13.86 0 005.87 4.157L4.105 5.943C1.457 8.623 0 12.193 0 15.995c0 3.802 1.457 7.372 4.105 10.053l125.35 126.917a13.866 13.866 0 009.928 4.156z" fill="#030404"/><path d="M163.264 144.598c5.649 5.718 5.649 14.99 0 20.708a14.335 14.335 0 01-20.452 0c-5.648-5.718-5.648-14.99 0-20.708a14.336 14.336 0 0120.452 0z" fill="#F0C900"/></svg>